ply
format ascii 1.0
comment Created by Open3D
element vertex 675
property double x
property double y
property double z
end_header
-0.079834 -0.283806 -0.113784
-0.0966785 -0.281612 -0.0972778
-0.110181 -0.281496 -0.0762254
-0.120158 -0.282418 -0.0558698
-0.0636514 -0.283674 -0.128189
-0.126541 -0.281939 -0.0358904
-0.130073 -0.282223 -0.0166024
-0.0409088 -0.283612 -0.13998
-0.0919179 -0.279801 -0.0770087
-0.131115 -0.283755 0.00505957
-0.0970829 -0.279803 -0.0561144
-0.109365 -0.279806 -0.0364491
-0.021108 -0.283148 -0.14816
-0.0582567 -0.279802 -0.105394
-0.0665241 -0.279802 -0.0921638
-0.0395637 -0.279801 -0.122213
-0.0715533 -0.279802 -0.0710229
-0.0826733 -0.279805 -0.0532134
-0.106319 -0.279804 -0.0153778
-0.12723 -0.283126 0.034793
-0.0542099 -0.279802 -0.0854272
-0.0907096 -0.279805 -0.027008
-0.110375 -0.279801 0.00444084
0.0102906 -0.283697 -0.155068
-0.0166955 -0.2798 -0.131865
-0.0946525 -0.279803 -0.00710961
-0.114501 -0.279801 0.0246428
-0.122084 -0.283626 0.0563884
-0.0242445 -0.279803 -0.105912
-0.0328342 -0.279802 -0.0921721
-0.0485713 -0.279804 -0.066977
-0.0614486 -0.279806 -0.0463633
-0.0729015 -0.279804 -0.0280439
0.0254245 -0.282945 -0.154828
0.00417608 -0.2798 -0.137269
-0.073855 -0.279803 -0.0123908
-0.0897573 -0.279801 0.0130429
-0.000396729 -0.279803 -0.115528
-0.0281217 -0.279804 -0.0711555
-0.093801 -0.279802 0.0339282
-0.112201 -0.282115 0.0755809
0.0155663 -0.279802 -0.126376
-0.00654417 -0.279801 -0.0909995
-0.0323403 -0.279499 -0.0513335
-0.0684472 -0.279802 0.00805876
-0.0964429 -0.279806 0.0528776
0.0511722 -0.282531 -0.153662
0.0065403 -0.279801 -0.0969461
-0.00982344 -0.279806 -0.0707353
-0.0386602 -0.278356 -0.0323991
-0.0489098 -0.279025 -0.0123972
-0.0723652 -0.2798 0.0293086
-0.0838629 -0.279805 0.0630365
0.044157 -0.279802 -0.126219
0.0320044 -0.279803 -0.10677
-0.0462174 -0.278234 0.00977519
-0.0864931 -0.279806 0.0828606
-0.0929082 -0.281714 0.103611
0.0675134 -0.279848 -0.147403
0.0566389 -0.279802 -0.130259
0.0290076 -0.279802 -0.0860466
0.00992078 -0.277785 -0.0667053
-0.00928229 -0.275056 -0.0511289
-0.0451016 -0.278985 0.0280066
-0.0584815 -0.279805 0.053966
0.0523244 -0.279803 -0.10708
-0.0212879 -0.272232 -0.0317724
-0.0317894 -0.272858 -0.0114523
-0.0609022 -0.279805 0.0741091
-0.0733069 -0.279807 0.0939689
0.0919839 -0.282054 -0.141165
0.0494777 -0.279801 -0.0859221
0.0286116 -0.277285 -0.066803
-0.0344403 -0.276284 0.0284149
-0.0361001 -0.279418 0.0488425
0.0814384 -0.279804 -0.120077
0.0671695 -0.279801 -0.097266
-0.0358005 -0.279804 0.0675189
-0.0516352 -0.279807 0.0928765
-0.064318 -0.279803 0.11315
0.0553229 -0.278825 -0.066625
0.0205693 -0.271315 -0.0545215
-0.026985 -0.269117 0.00883991
-0.0229425 -0.277519 0.0510449
0.108581 -0.279803 -0.128465
0.09725 -0.279804 -0.110331
0.0859048 -0.279799 -0.0922026
-0.015217 -0.2795 0.0678543
-0.0274025 -0.279805 0.0891417
-0.0403563 -0.279804 0.109864
-0.0516884 -0.279804 0.127998
0.0833175 -0.279802 -0.069939
0.0607527 -0.276432 -0.0537859
0.108791 -0.279799 -0.0922081
0.0955583 -0.279802 -0.0710177
0.0839894 -0.279808 -0.0524708
0.00352329 -0.260839 -0.0372791
0.00283772 -0.279145 0.0734177
-0.00704437 -0.279807 0.0931912
-0.0169799 -0.279805 0.109078
-0.0285676 -0.279804 0.127615
0.129839 -0.279803 -0.106937
0.0441749 -0.267337 -0.0453405
0.132724 -0.279799 -0.0922137
0.119188 -0.279802 -0.0705392
0.107353 -0.279807 -0.0515697
0.0906998 -0.278732 -0.0315012
-0.000466704 -0.267354 0.0446997
0.0205006 -0.276438 0.0667749
0.0159346 -0.279807 0.0947147
0.00407666 -0.279804 0.113672
-0.00777078 -0.279805 0.132637
0.106595 -0.279806 -0.0305516
-0.0128382 -0.252315 -0.00974113
-0.0130875 -0.256736 0.0180435
0.0375676 -0.27961 0.0786912
0.0158269 -0.279804 0.114679
-0.00788265 -0.279909 0.153267
0.152577 -0.279799 -0.0839033
0.135272 -0.279805 -0.0561716
0.0244037 -0.254232 -0.039041
0.0382553 -0.279807 0.0990812
0.0157294 -0.279806 0.135119
0.134834 -0.279807 -0.0347075
0.117296 -0.279804 -0.00666031
0.00674844 -0.249511 -0.0218702
0.062951 -0.279804 0.0802976
0.0384073 -0.279803 0.119568
0.164527 -0.279803 -0.0609952
0.152118 -0.279806 -0.04112
0.0352257 -0.251379 -0.0365008
0.0651948 -0.279807 0.0979805
0.0403538 -0.279806 0.137719
0.166232 -0.279806 -0.0419407
0.15367 -0.279808 -0.0218252
0.141091 -0.279805 -0.0017187
0.00505352 -0.24951 0.0191901
0.0656766 -0.279804 0.118951
0.167977 -0.279808 -0.0224192
0.155246 -0.279805 -0.0020642
0.142513 -0.279802 0.0182888
0.0952668 -0.279805 0.0939124
0.0643694 -0.279806 0.143356
0.156857 -0.279802 0.0181853
0.054153 -0.249512 -0.0190997
0.0998263 -0.279806 0.109472
0.0869372 -0.279803 0.130078
0.0759051 -0.279806 0.147752
0.179261 -0.279878 0.00627774
0.0336601 -0.240882 -0.02358
0.121272 -0.279807 0.0985913
0.17532 -0.2798 0.0360869
0.00721306 -0.232446 -0.018165
-0.000993609 -0.22987 -0.00236785
0.00604504 -0.231682 0.0198318
0.0336601 -0.219673 -0.02358
0.0124551 -0.212332 -0.0219513
-0.000993609 -0.212074 -0.00236785
0.00604504 -0.210482 0.0198318
0.0336601 -0.201493 -0.02358
0.00721306 -0.190991 -0.018165
-0.000993609 -0.191312 -0.00236785
0.00604516 -0.192311 0.0198319
0.0336601 -0.180283 -0.02358
0.0124551 -0.170757 -0.0219513
-0.000993609 -0.170549 -0.00236785
0.00604516 -0.171111 0.0198319
0.0336601 -0.162103 -0.02358
0.00721306 -0.152496 -0.018165
-0.000993609 -0.149787 -0.00236785
0.00604516 -0.149912 0.0198319
0.0336601 -0.140893 -0.02358
0.00721306 -0.131769 -0.018165
-0.000993609 -0.13199 -0.00236785
-0.102799 -0.10234 -0.16817
-0.118502 -0.101367 -0.155035
-0.132549 -0.100646 -0.141434
-0.149946 -0.0999533 -0.122128
-0.160825 -0.100185 -0.101863
-0.168635 -0.100768 -0.0821922
-0.070426 -0.102558 -0.187565
-0.169324 -0.100122 -0.0600288
-0.167613 -0.101829 -0.0412439
-0.0454072 -0.102404 -0.198422
-0.168601 -0.100887 -0.0208868
-0.0218011 -0.102259 -0.205467
-0.169618 -0.099917 7.44462e-05
-0.167829 -0.101703 0.0208368
0.00383592 -0.102431 -0.209907
-0.169173 -0.100409 0.0395072
-0.167634 -0.101946 0.0578931
0.0271428 -0.102484 -0.210375
-0.147772 -0.0871194 -0.144328
-0.167319 -0.0868697 -0.116526
-0.178067 -0.0870635 -0.09663
-0.169012 -0.10062 0.0775578
-0.0945753 -0.0876276 -0.189854
-0.117573 -0.0859244 -0.177393
-0.164567 -0.0998121 0.0962525
-0.184269 -0.0842127 -0.0621594
-0.140489 -0.102175 0.131489
-0.0374978 -0.0872719 -0.216012
-0.187105 -0.080727 -0.0754094
0.0489115 -0.0934625 -0.219945
-0.0637077 -0.0823271 -0.212691
-0.187227 -0.0806372 -0.04129
-0.186003 -0.0821697 -0.0194464
-0.184359 -0.0842277 0.00988865
0.0138468 -0.0869195 -0.225162
-0.138883 -0.0752461 -0.167495
-0.16355 -0.0743273 -0.14272
0.0260754 -0.0854161 -0.226738
-0.00607651 -0.0821779 -0.228681
-0.175279 -0.0719545 -0.126492
-0.187994 -0.0721391 -0.103104
-0.187129 -0.0808981 0.0399285
-0.1862 -0.0820623 0.0576384
-0.0936301 -0.0728491 -0.204263
-0.113903 -0.0716032 -0.193018
-0.16602 -0.085144 0.120724
-0.158552 -0.0674233 -0.155073
-0.189104 -0.0785725 0.0896953
-0.0334986 -0.0721192 -0.229723
-0.155739 -0.0818675 0.142952
-0.13367 -0.0635462 -0.184658
-0.0838225 -0.0637231 -0.217527
-0.200275 -0.0623982 -0.0570022
-0.198227 -0.0657065 0.00418368
-0.176735 -0.0734575 0.120827
0.0495949 -0.0709234 -0.238562
0.0276573 -0.0691472 -0.239374
-0.0642481 -0.0624587 -0.22756
-0.200806 -0.0616465 -0.02547
0.0104719 -0.0651214 -0.241641
-0.203721 -0.0566816 -0.0762541
-0.005835 -0.0612773 -0.243768
-0.202511 -0.0590641 0.0225351
-0.201127 -0.061358 0.0704923
-0.200595 -0.0622224 0.0885476
-0.1035 -0.0532764 -0.212899
-0.146891 -0.0516268 -0.181081
-0.16765 -0.0511013 -0.159845
-0.201197 -0.0510853 -0.106531
-0.172446 -0.0639426 0.140639
-0.206221 -0.0524178 -0.0149865
-0.20487 -0.0549493 0.0431418
-0.0263873 -0.0524134 -0.244793
-0.123465 -0.0478093 -0.204203
-0.183391 -0.046384 -0.143835
-0.195476 -0.0558743 0.112032
0.0192215 -0.0525915 -0.249395
0.0437799 -0.051412 -0.250607
-0.211775 -0.0413298 -0.0573445
-0.211264 -0.0424673 -0.0252154
-0.0525294 -0.0413545 -0.242998
-0.211831 -0.041423 0.0140052
-0.000643671 -0.0411861 -0.254747
-0.0934607 -0.0374331 -0.228109
-0.199103 -0.0353816 -0.125691
-0.214085 -0.0358521 -0.0864384
-0.212338 -0.0405274 0.0626036
-0.212044 -0.041189 0.0836196
-0.173946 -0.0453731 0.158538
-0.20405 -0.0399347 0.113763
-0.188076 -0.0414011 0.138899
-0.112866 -0.0323068 -0.218825
-0.14318 -0.0315468 -0.198401
-0.159011 -0.0313045 -0.182026
-0.17769 -0.0310185 -0.162705
-0.211996 -0.0310679 -0.105983
-0.216183 -0.0310616 -0.0144901
0.0301315 -0.032246 -0.259222
-0.0195503 -0.0304333 -0.257431
0.0458482 -0.0301807 -0.260404
-0.0745435 -0.0264237 -0.242819
-0.217533 -0.027459 0.034224
-0.181741 -0.0313373 0.157666
-0.215994 -0.026492 0.104271
-0.0453975 -0.022479 -0.252753
-0.219629 -0.0210409 -0.0550704
-0.219491 -0.0215559 -0.0262437
-0.219301 -0.0222643 0.01341
0.00692672 -0.0212843 -0.262621
-0.219906 -0.0207246 0.0650587
-0.208241 -0.0218954 0.1202
-0.0926788 -0.016906 -0.237154
-0.195656 -0.015876 -0.145963
-0.20586 -0.0159073 -0.127401
-0.220969 -0.0161469 -0.0861026
-0.196415 -0.0198761 0.141047
-0.221293 -0.0156815 0.0535357
-0.113529 -0.0121694 -0.226032
-0.143013 -0.011874 -0.207632
-0.158698 -0.0117841 -0.191299
-0.177208 -0.0116779 -0.172023
-0.218112 -0.0116677 -0.107569
0.0532504 -0.0118597 -0.266312
0.0335322 -0.0115978 -0.265946
-0.0179873 -0.0109199 -0.264224
-0.222598 -0.011174 0.093431
-0.18942 -0.0121518 0.156782
-0.069153 -0.00574895 -0.250445
-0.223643 -0.0057362 -0.00597212
-0.22366 -0.00592603 0.0347449
-0.218194 -0.00379837 0.112717
0.00663507 -0.00124695 -0.267596
-0.0387545 -0.00118597 -0.26032
-0.224539 -0.00109389 -0.0617207
-0.224631 -0.00116506 0.0147016
-0.22469 -0.0012105 0.0634914
-0.205946 -0.0013043 0.134026
-0.0883912 0.00337857 -0.244949
-0.200233 0.00315406 -0.146188
-0.211395 0.00316084 -0.125904
-0.225172 0.00320935 -0.0865312
-0.225256 0.0033398 -0.0397929
-0.18761 0.00681118 0.166785
0.0480851 0.00914566 -0.270068
0.0286982 0.00894602 -0.26961
-0.0159777 0.00848649 -0.268478
-0.057555 0.00813159 -0.256283
-0.108572 0.00774762 -0.233434
-0.138759 0.00755203 -0.215076
-0.225942 0.00791505 -0.0199909
-0.226166 0.00853704 0.075593
-0.196933 0.00934192 0.152045
-0.154713 0.00961263 -0.201115
-0.173198 0.00952639 -0.181805
-0.188351 0.0094557 -0.165976
-0.223356 0.00948855 -0.106052
-0.227387 0.0129716 0.0343152
0.00862414 0.0186874 -0.271979
-0.0427983 0.0176505 -0.263775
-0.229168 0.0184209 -0.0653537
-0.229361 0.0188579 -0.0374928
-0.229691 0.019602 0.00994262
0.0579789 0.0250547 -0.272887
-0.230778 0.022538 0.0472126
-0.230337 0.0235967 0.106222
-0.21696 0.0243785 0.128916
-0.0858042 0.0235684 -0.253254
-0.207734 0.0218992 -0.143334
-0.206129 0.02768 0.149114
0.0342992 0.0294546 -0.275753
-0.231251 0.024413 -0.085752
-0.232591 0.0276096 0.0653413
-0.232772 0.0280416 0.0857593
-0.233049 0.0290651 0.0255494
-0.00772399 0.0328784 -0.275939
-0.112683 0.0295675 -0.23941
-0.133412 0.0290542 -0.226614
-0.153465 0.0286138 -0.212007
-0.173315 0.028339 -0.191151
-0.188327 0.0281312 -0.175378
-0.222664 0.0281233 -0.120747
-0.0651969 0.0331732 -0.263082
-0.234222 0.0325552 -0.0154578
-0.19784 0.0391678 0.170697
-0.0279708 0.0391788 -0.276211
-0.048444 0.0383635 -0.269927
-0.202464 0.0341032 -0.161831
-0.236013 0.0375563 0.00399694
-0.235921 0.0375764 -0.0652317
-0.235595 0.0433491 0.111008
0.0629863 0.0489298 -0.27687
-0.00383908 0.0451384 -0.279758
-0.238235 0.0436674 0.0527044
-0.225641 0.0470323 0.130015
0.0447237 0.0503656 -0.28087
0.0219713 0.0490357 -0.28101
-0.089802 0.0433289 -0.258976
-0.237694 0.0425216 -0.0445124
-0.237588 0.042458 -0.103343
-0.240177 0.0490902 0.0741614
-0.218473 0.0531704 0.146084
-0.220464 0.0442956 -0.136564
-0.240111 0.0491359 0.015512
0.075224 0.0603355 -0.276772
-0.109338 0.0490807 -0.249488
-0.134548 0.0480474 -0.233758
-0.242121 0.054531 0.0927875
-0.0704247 0.0531339 -0.269072
-0.153014 0.0493569 -0.223042
-0.168183 0.0489948 -0.207027
-0.187572 0.048532 -0.186555
-0.210748 0.0481984 -0.157074
-0.232619 0.0484005 -0.117472
-0.0281466 0.0578427 -0.283188
-0.203231 0.0662224 0.180252
-0.0499998 0.0588255 -0.277178
-0.243105 0.0578299 -0.034961
0.032106 0.0697252 -0.286076
0.0100842 0.0679166 -0.286079
-0.24327 0.0584215 -0.0656919
-0.245373 0.0639415 0.0452326
0.0491887 0.0737781 -0.284879
-0.0885392 0.0629814 -0.267492
-0.245193 0.0636295 -0.00463721
-0.246727 0.0676686 0.0737602
-0.224129 0.0736896 0.150806
-0.245137 0.0636339 -0.0452033
-0.240337 0.073354 0.123679
-0.00858462 0.0735215 -0.287903
-0.244818 0.0629358 -0.0958748
-0.247315 0.0695333 0.0240315
-0.248824 0.0734711 0.0956298
0.0803656 0.0847146 -0.280834
-0.108354 0.0683044 -0.258013
0.0609756 0.0852761 -0.284892
-0.0679803 0.0732183 -0.277349
-0.127585 0.0692899 -0.246745
-0.147521 0.0681184 -0.234159
0.0384045 0.0853467 -0.289615
-0.0336981 0.0781687 -0.289058
-0.167607 0.0692197 -0.217927
-0.182426 0.0687201 -0.202206
-0.21285 0.0678396 -0.167608
-0.227558 0.0680308 -0.141015
-0.238398 0.0681716 -0.121417
-0.223445 0.0874682 0.163317
-0.216727 0.0889105 0.175637
0.0943251 0.0969721 -0.280529
0.0190203 0.0882762 -0.29129
-0.0545706 0.083166 -0.285063
-0.197571 0.0741066 -0.189241
-0.250878 0.078728 -0.0360948
-0.251203 0.0794531 -0.0249293
-0.253102 0.0836931 0.0403549
-0.250694 0.0784148 -0.0716874
-0.252835 0.0831996 0.000112146
-0.254764 0.0875131 0.0648345
-0.255352 0.0888289 0.0845778
-0.250269 0.0920642 0.122675
-0.000462651 0.093366 -0.293103
-0.255231 0.0887592 0.0191691
-0.257626 0.0941294 0.0958546
-0.0946774 0.0881315 -0.275775
-0.252442 0.0826014 -0.0964967
-0.242885 0.101858 0.142994
-0.217019 0.108649 0.191452
0.0716895 0.109999 -0.287728
-0.0695149 0.0927607 -0.284365
-0.127776 0.0877757 -0.255505
-0.225966 0.0832689 -0.156579
-0.227639 0.108653 0.173863
-0.027172 0.0995768 -0.294361
-0.148444 0.0882443 -0.243192
-0.248102 0.0855007 -0.118317
0.0474511 0.111753 -0.292644
-0.114174 0.0928953 -0.266313
-0.165187 0.0890359 -0.232226
-0.188548 0.0880309 -0.207227
-0.217402 0.088733 -0.176969
0.0288252 0.114039 -0.296422
-0.258945 0.0976371 -0.0291157
-0.261551 0.103511 0.0442373
0.00788915 0.113472 -0.298339
-0.239077 0.092817 -0.14118
-0.259188 0.0982646 -0.0462229
-0.263348 0.10765 0.06859
-0.263219 0.111923 0.117619
0.0691163 0.125268 -0.290767
-0.0125533 0.113043 -0.298
-0.258852 0.0975842 -0.0782754
-0.261336 0.103191 -0.0110539
-0.265583 0.112781 0.103929
-0.263271 0.107637 0.0171671
-0.22272 0.129732 0.196391
0.0507831 0.127495 -0.294427
-0.0833222 0.108279 -0.287849
-0.233363 0.0982475 -0.15636
-0.250469 0.123892 0.148625
-0.233776 0.129069 0.17795
-0.0258161 0.118128 -0.298573
-0.057247 0.11377 -0.294526
-0.0958271 0.108882 -0.28466
-0.129324 0.107819 -0.264552
-0.147634 0.108116 -0.253585
-0.208152 0.104201 -0.196716
0.0268098 0.133489 -0.299212
-0.16892 0.108124 -0.240076
-0.264871 0.129394 0.126498
-0.191288 0.108834 -0.217168
-0.259776 0.107889 -0.116871
-0.269739 0.122728 0.0449712
-0.271166 0.128876 0.107702
-0.0031572 0.13313 -0.302909
-0.224979 0.108986 -0.18108
-0.267511 0.117742 -0.0284808
-0.271005 0.127695 0.0732119
-0.249863 0.139487 0.153234
-0.26521 0.112585 -0.10119
-0.267393 0.11754 -0.0507004
-0.269653 0.122669 0.00156093
-0.232451 0.14815 0.183691
0.0508727 0.147854 -0.296859
-0.0734619 0.126581 -0.296155
-0.246333 0.113028 -0.145839
-0.267392 0.1176 -0.0695303
-0.271016 0.128611 0.0183888
-0.225027 0.156197 0.197487
-0.0258881 0.138669 -0.30307
-0.0859955 0.128897 -0.294897
-0.237817 0.1182 -0.165883
-0.122956 0.128454 -0.277365
-0.27245 0.142602 0.0851235
0.0321916 0.156797 -0.300528
-0.143544 0.128161 -0.264834
-0.208478 0.122699 -0.207759
-0.272963 0.147612 0.109022
-0.24867 0.157933 0.158636
-0.00100273 0.152509 -0.304764
-0.163395 0.12788 -0.252752
-0.272387 0.142528 0.0452616
-0.266877 0.153332 0.127618
-0.182378 0.128151 -0.23685
-0.271829 0.137585 -0.0153427
-0.272924 0.147763 0.0709661
-0.257435 0.127691 -0.136769
-0.268791 0.127985 -0.11619
-0.230365 0.128881 -0.186201
-0.271789 0.137665 -0.0491414
-0.272848 0.147526 0.0320154
-0.271363 0.133922 -0.0959655
-0.0251778 0.159239 -0.307375
-0.0556723 0.153578 -0.30286
-0.0856569 0.148203 -0.296925
-0.27175 0.13774 -0.0810021
-0.272893 0.148408 0.00427952
-0.237053 0.178418 0.18169
-0.274517 0.164071 0.0929938
-0.273901 0.167573 0.118625
-0.248587 0.178692 0.162631
-0.123204 0.149 -0.279518
-0.242374 0.13866 -0.166319
-0.00667661 0.172743 -0.305897
-0.143741 0.148335 -0.266976
-0.274343 0.162883 0.0495374
-0.259517 0.178951 0.144569
-0.163544 0.147693 -0.254882
-0.202644 0.144182 -0.217917
-0.1799 0.147833 -0.242159
-0.273761 0.157823 -0.0201083
-0.228489 0.196948 0.188861
0.0123526 0.184388 -0.304425
-0.272656 0.147615 -0.109361
-0.273713 0.157562 -0.0370739
-0.275296 0.172509 0.0715429
-0.0455485 0.17321 -0.307184
-0.228304 0.147954 -0.191659
-0.26004 0.148622 -0.136192
-0.27476 0.167645 0.0206121
-0.275903 0.178471 0.0982729
-0.0308526 0.179 -0.306321
-0.0775616 0.168908 -0.301357
-0.273651 0.15755 -0.0799932
-0.270914 0.187848 0.122449
-0.250224 0.19714 0.152769
0.0159906 0.195127 -0.30371
-0.0145767 0.187646 -0.305225
-0.101187 0.168685 -0.294437
-0.195374 0.158229 -0.227449
-0.274302 0.164085 -0.0621725
-0.2752 0.172605 -0.00401923
-0.238537 0.207235 0.167829
-0.12345 0.169453 -0.281661
-0.242995 0.157505 -0.168932
-0.275334 0.182693 0.0484223
-0.0531154 0.185018 -0.306619
-0.143936 0.168418 -0.269108
-0.211437 0.162638 -0.211294
-0.273118 0.192789 0.0808983
-0.16392 0.169355 -0.257081
-0.275668 0.177785 -0.0248088
-0.271938 0.198354 0.0996603
-0.259238 0.206921 0.133665
-0.183396 0.168885 -0.241424
-0.275635 0.177656 -0.038858
-0.274197 0.187607 0.0212092
-0.0754193 0.189156 -0.300867
-0.262479 0.167529 -0.135516
-0.272829 0.167881 -0.116775
-0.248071 0.216996 0.14787
-0.00402886 0.209634 -0.303085
-0.226002 0.168962 -0.196968
-0.275067 0.172565 -0.0963973
-0.271739 0.198813 0.0590249
-0.218703 0.233943 0.189297
-0.0176403 0.208347 -0.303599
-0.0952572 0.189246 -0.295054
-0.275121 0.182985 -0.0575346
-0.272988 0.192866 -0.00179324
-0.124606 0.188149 -0.279915
-0.27083 0.202757 0.0405602
-0.268711 0.212774 0.0827158
-0.267642 0.218084 0.1121
-0.1426 0.189274 -0.268691
-0.243767 0.178086 -0.171618
-0.257132 0.226271 0.128904
-0.0398114 0.213894 -0.303792
-0.0625957 0.208179 -0.300088
-0.162955 0.187721 -0.256748
-0.198099 0.183186 -0.226503
-0.273977 0.187968 -0.0776767
-0.27182 0.197939 -0.0239849
-0.213596 0.183651 -0.210176
-0.271891 0.197533 -0.0381811
-0.269658 0.207846 0.0167283
-0.0830827 0.207841 -0.294191
-0.182352 0.189007 -0.24102
-0.267504 0.217878 0.0572326
-0.273285 0.187531 -0.114702
-0.227961 0.188305 -0.193652
-0.257984 0.188996 -0.141816
-0.108983 0.208636 -0.283937
-0.270657 0.202927 -0.0562964
-0.264263 0.233037 0.0845347
-0.26173 0.238266 0.108645
-0.127562 0.209453 -0.27244
-0.0324506 0.235144 -0.300005
-0.0528861 0.229349 -0.297897
-0.26744 0.217542 -0.0169118
-0.265239 0.227829 0.0338727
-0.0658391 0.228321 -0.29436
-0.147925 0.209769 -0.259994
-0.26953 0.207634 -0.0765705
-0.266216 0.223106 -0.000988096
-0.168183 0.20783 -0.248213
-0.193291 0.20466 -0.224451
-0.20798 0.202974 -0.209675
-0.267288 0.218044 -0.0367523
-0.261367 0.238718 0.0608106
-0.240275 0.203115 -0.16733
-0.255827 0.248635 0.0909697
-0.100588 0.228279 -0.283797
-0.22251 0.20755 -0.193004
-0.256228 0.208166 -0.135951
-0.268273 0.212755 -0.103542
-0.266178 0.222605 -0.0577969
-0.119522 0.228786 -0.272167
-0.265757 0.212952 -0.116374
-0.0176153 0.261056 -0.287636
-0.0494748 0.250506 -0.288283
-0.181366 0.218834 -0.232229
-0.261736 0.237672 -0.0114378
-0.258919 0.242831 0.0092994
-0.255976 0.248219 0.0309567
-0.137851 0.229277 -0.26091
-0.245052 0.2676 0.0964724
-0.0718113 0.248795 -0.282756
-0.264976 0.227623 -0.0754141
-0.261549 0.237901 -0.0314995
-0.250089 0.258685 0.050049
-0.247804 0.262724 0.0658008
-0.157941 0.229236 -0.248724
-0.2393 0.222504 -0.159941
-0.0892662 0.250867 -0.276456
-0.250491 0.257938 0.0146199
-0.0426743 0.268391 -0.279871
-0.107679 0.248382 -0.268686
-0.202303 0.229038 -0.207018
-0.251613 0.227511 -0.1352
-0.239191 0.277895 0.0786771
-0.0153759 0.280664 -0.277792
-0.216498 0.229324 -0.192109
-0.258667 0.242902 -0.0621804
-0.250512 0.257809 -0.00666296
-0.129128 0.24795 -0.255946
-0.173071 0.237525 -0.233177
-0.263094 0.232516 -0.11197
-0.238872 0.278434 0.0586795
-0.067505 0.268148 -0.272762
-0.250515 0.257694 -0.0271925
-0.239328 0.277616 0.0449947
-0.149787 0.247535 -0.243675
