ply
format ascii 1.0
comment Created by Open3D
element vertex 961
property double x
property double y
property double z
end_header
-0.210174 -0.124666 -0.340445
-0.214791 -0.124194 -0.32009
-0.201135 -0.123941 0.306524
-0.215718 -0.122223 0.328116
-0.215426 -0.104708 -0.329409
-0.209964 -0.102198 -0.31186
-0.214208 -0.102236 0.318488
-0.194282 -0.0974582 0.305721
-0.210071 -0.0960705 0.340812
-0.230604 -0.0866088 -0.427098
-0.230607 -0.0866743 -0.414798
-0.230611 -0.0868222 -0.387056
-0.230614 -0.0868881 -0.374696
-0.214865 -0.0884158 -0.373756
-0.230618 -0.0870201 -0.349919
-0.230625 -0.0872356 -0.309496
-0.230628 -0.0873354 -0.290771
-0.230631 -0.0874354 -0.272004
-0.230635 -0.0875524 -0.250054
-0.230638 -0.0876529 -0.231193
-0.230641 -0.0877537 -0.212289
-0.230645 -0.0878715 -0.190179
-0.230649 -0.0879727 -0.171181
-0.230652 -0.0880742 -0.152138
-0.230656 -0.0881929 -0.129866
-0.230659 -0.0882949 -0.110728
-0.230662 -0.0883972 -0.0915459
-0.230666 -0.0884996 -0.0723191
-0.230669 -0.0886195 -0.0498315
-0.230673 -0.0887225 -0.0305078
-0.230676 -0.0888257 -0.0111391
-0.230679 -0.0889292 0.00827458
-0.230683 -0.0890329 0.0277336
-0.230687 -0.0859122 0.0504933
-0.23069 -0.0860127 0.070051
-0.230693 -0.0861133 0.0896545
-0.230697 -0.0862142 0.109304
-0.2307 -0.0863154 0.128999
-0.230704 -0.0864168 0.148741
-0.230707 -0.0865184 0.168529
-0.23071 -0.0866203 0.188364
-0.230714 -0.0867224 0.208246
-0.230717 -0.0868247 0.228174
-0.230721 -0.0869273 0.24815
-0.230724 -0.0870302 0.268173
-0.230728 -0.0871332 0.288243
-0.230731 -0.0872366 0.308361
-0.230734 -0.0873401 0.328527
-0.230738 -0.0874439 0.34874
-0.220507 -0.0885265 0.373835
-0.230746 -0.0876697 0.392702
-0.230749 -0.0877743 0.413068
-0.230618 -0.0743627 -0.349919
-0.230621 -0.0744475 -0.331287
-0.230625 -0.0745468 -0.309496
-0.230628 -0.074632 -0.290771
-0.230631 -0.0747175 -0.272004
-0.205315 -0.0730957 -0.373757
-0.230635 -0.0716338 -0.250054
-0.230638 -0.071716 -0.231193
-0.230641 -0.0717984 -0.212289
-0.230645 -0.0718949 -0.190179
-0.230649 -0.0719777 -0.171181
-0.230652 -0.0720607 -0.152138
-0.230656 -0.0721579 -0.129866
-0.230659 -0.0722413 -0.110728
-0.230662 -0.0723249 -0.0915459
-0.230666 -0.0724088 -0.0723191
-0.230738 -0.0742449 0.34874
-0.22046 -0.0685534 -0.409353
-0.194728 -0.0704985 -0.409357
-0.185503 -0.0712766 -0.390029
-0.17542 -0.0721068 -0.373763
-0.154397 -0.073696 -0.373765
-0.187781 -0.0712704 -0.350324
-0.188871 -0.0712709 -0.330488
-0.18996 -0.0712715 -0.310651
-0.191049 -0.0712721 -0.290814
-0.192139 -0.0712726 -0.270977
-0.193228 -0.0712732 -0.25114
-0.194318 -0.0712738 -0.231302
-0.195407 -0.0712743 -0.211464
-0.196496 -0.0712749 -0.191626
-0.197588 -0.0712753 -0.171787
-0.23067 -0.0692843 -0.0498315
-0.230673 -0.0693648 -0.0305078
-0.230676 -0.0694455 -0.0111391
-0.23068 -0.0695264 0.00827455
-0.230683 -0.0696075 0.0277336
-0.216319 -0.071269 0.165468
-0.217413 -0.0712692 0.185307
-0.218507 -0.0712695 0.205146
-0.220148 -0.0712698 0.234904
-0.221242 -0.07127 0.254743
-0.222337 -0.0712702 0.274582
-0.205809 -0.0729345 0.373831
-0.227689 -0.0712805 0.373837
-0.228886 -0.0712728 0.393628
-0.230749 -0.0712131 0.413068
-0.230604 -0.0645629 -0.427098
-0.167492 -0.0691825 -0.409362
-0.148435 -0.0705562 -0.409366
-0.13939 -0.0712769 -0.392092
-0.132416 -0.0718526 -0.373771
-0.109434 -0.0735091 -0.373773
-0.141777 -0.0712708 -0.350452
-0.142919 -0.0712714 -0.329648
-0.143871 -0.0712719 -0.312311
-0.145013 -0.0712725 -0.291506
-0.146155 -0.0712731 -0.270701
-0.147297 -0.0712737 -0.249896
-0.148439 -0.0712743 -0.22909
-0.149391 -0.0712748 -0.211752
-0.150537 -0.0712751 -0.190945
-0.151691 -0.0712749 -0.170138
-0.230687 -0.0664604 0.0504932
-0.23069 -0.0665381 0.0700509
-0.230694 -0.066616 0.0896544
-0.230697 -0.066694 0.109304
-0.2307 -0.0667723 0.128999
-0.230704 -0.0668507 0.148741
-0.170931 -0.0712702 0.176636
-0.17246 -0.0712705 0.204378
-0.173608 -0.0712707 0.225185
-0.175137 -0.071271 0.252928
-0.176285 -0.0712713 0.273736
-0.177432 -0.0712715 0.294543
-0.178579 -0.0712717 0.315351
-0.180109 -0.0712721 0.343094
-0.158843 -0.0729273 0.373825
-0.182407 -0.0712722 0.384709
-0.182957 -0.0712741 0.395124
-0.197167 -0.0703069 0.409426
-0.128604 -0.068474 -0.40937
-0.107954 -0.0698898 -0.409373
-0.0881684 -0.0712756 -0.401651
-0.0893338 -0.0712786 -0.379789
-0.072888 -0.0724289 -0.373781
-0.090454 -0.071271 -0.361528
-0.0916542 -0.0712716 -0.339657
-0.0926542 -0.0712722 -0.321431
-0.0938543 -0.0712728 -0.29956
-0.0948546 -0.0712733 -0.281333
-0.0960548 -0.0712739 -0.259461
-0.0970552 -0.0712744 -0.241234
-0.0982574 -0.0712749 -0.219361
-0.0992677 -0.0712748 -0.201132
-0.10048 -0.0712746 -0.179257
-0.120885 -0.0712715 0.18895
-0.122091 -0.0712717 0.210824
-0.123096 -0.0712719 0.229052
-0.124302 -0.0712722 0.250927
-0.125307 -0.0712724 0.269156
-0.126513 -0.0712726 0.291031
-0.127518 -0.0712728 0.30926
-0.128722 -0.0712732 0.331136
-0.129725 -0.0712735 0.349366
-0.10707 -0.0729195 0.373817
-0.131739 -0.0712736 0.385823
-0.145149 -0.0704437 0.409418
-0.0639817 -0.0691659 -0.409381
-0.0405414 -0.0706905 -0.409386
-0.0326118 -0.0712789 -0.389207
-0.0198847 -0.0721622 -0.373791
0.00865006 -0.0740182 -0.373794
-0.0348462 -0.0712719 -0.350749
-0.0359 -0.0712724 -0.331538
-0.0369539 -0.071273 -0.312326
-0.0382185 -0.0712736 -0.289272
-0.0392723 -0.0712742 -0.27006
-0.0403261 -0.0712747 -0.250848
-0.041391 -0.0712746 -0.231633
-0.0424559 -0.0712744 -0.212419
-0.0437342 -0.0712742 -0.189362
-0.0654268 -0.0712729 0.202595
-0.0666978 -0.0712732 0.225652
-0.0681809 -0.0712734 0.252552
-0.0694517 -0.0712737 0.27561
-0.0709325 -0.0712741 0.302511
-0.0722009 -0.0712746 0.32557
-0.0738918 -0.0712752 0.356316
-0.0497168 -0.0729106 0.373808
-0.0753896 -0.0712745 0.383211
-0.0766708 -0.0712741 0.406265
-0.0959346 -0.0700323 0.40941
-0.0160446 -0.0683767 -0.40939
-0.00337696 -0.0691561 -0.409392
0.0228442 -0.0707694 -0.409397
0.030131 -0.0712784 -0.391573
0.0387182 -0.0718673 -0.373803
0.0703893 -0.0738159 -0.373805
0.0277861 -0.0712725 -0.350923
0.0266727 -0.071273 -0.330614
0.0255592 -0.0712736 -0.310304
0.0244457 -0.0712742 -0.289994
0.0233253 -0.0712744 -0.269683
0.0221993 -0.0712742 -0.249371
0.0210731 -0.071274 -0.229059
0.0199469 -0.0712738 -0.208747
0.0190461 -0.0712737 -0.192497
-0.00362802 -0.0712745 0.2178
-0.00474775 -0.0712747 0.238113
-0.00586665 -0.0712749 0.258426
-0.00698364 -0.0712753 0.27874
-0.00810075 -0.0712757 0.299054
-0.0092175 -0.0712761 0.319368
-0.0103345 -0.0712765 0.339683
-0.0114512 -0.0712769 0.359998
0.0141699 -0.0729003 0.373796
-0.0128111 -0.0712761 0.384368
-0.0134898 -0.0712758 0.396553
-0.0322067 -0.0701679 0.4094
-0.0511715 -0.069001 0.409403
0.036419 -0.067513 -0.4094
0.064553 -0.0691451 -0.409405
0.0791365 -0.0699912 -0.409407
0.100723 -0.0712784 -0.398536
0.0997417 -0.0712767 -0.381293
0.121285 -0.0725505 -0.373817
0.139213 -0.0735906 -0.373819
0.0984839 -0.0712729 -0.359734
0.0973036 -0.0712735 -0.338194
0.0963593 -0.071274 -0.320961
0.0951687 -0.0712741 -0.299419
0.0942131 -0.0712739 -0.282184
0.0930185 -0.0712737 -0.260641
0.0918238 -0.0712735 -0.239098
0.0908682 -0.0712733 -0.221864
0.0896736 -0.0712732 -0.200321
0.0656666 -0.0712764 0.23485
0.0644823 -0.0712768 0.256396
0.0628245 -0.0712773 0.286559
0.0611665 -0.0712779 0.316724
0.0597454 -0.0712784 0.342579
0.0590349 -0.0712787 0.355507
0.085779 -0.0728888 0.373782
0.0573531 -0.0712778 0.385664
0.0395402 -0.0703206 0.409389
0.0181361 -0.0690788 0.409392
-0.129252 -0.0605284 0.409416
-0.22046 -0.0494222 -0.409353
-0.194728 -0.0508245 -0.409357
-0.167492 -0.0523087 -0.409362
0.12511 -0.0682547 -0.409416
0.157756 -0.0700338 -0.409422
0.180163 -0.0712778 -0.401808
0.178854 -0.0712757 -0.378865
0.177803 -0.0712737 -0.36051
0.17679 -0.0712738 -0.342164
0.175518 -0.0712736 -0.319231
0.174501 -0.0712734 -0.300885
0.173229 -0.0712732 -0.277952
0.172212 -0.071273 -0.259605
0.171194 -0.0712729 -0.241259
0.169922 -0.0712727 -0.218327
-0.230651 -0.0496227 -0.15849
-0.230654 -0.04968 -0.139419
-0.230658 -0.0497374 -0.120303
-0.230661 -0.049795 -0.101143
-0.230664 -0.0498527 -0.0819381
-0.230668 -0.0499202 -0.0594765
-0.230671 -0.0499781 -0.0401753
-0.230675 -0.0500363 -0.0208291
-0.230678 -0.0500945 -0.00143795
-0.230681 -0.0501529 0.0179984
0.143913 -0.0712788 0.254103
0.142653 -0.0712793 0.277039
0.141645 -0.0712796 0.295388
0.140133 -0.0712802 0.322912
0.139377 -0.0712804 0.336674
0.138368 -0.0712808 0.355024
0.166601 -0.0728759 0.373766
0.136788 -0.0712775 0.382525
0.135955 -0.0712735 0.39626
0.120921 -0.0704937 0.409376
0.0965751 -0.0691669 0.40938
0.0847427 -0.0685221 0.409382
-0.211076 -0.0524009 0.409429
-0.230749 -0.0513295 0.409671
-0.148435 -0.0499056 -0.409366
-0.128604 -0.0509165 -0.40937
-0.107954 -0.0519693 -0.409373
-0.230685 -0.0469811 0.0407315
-0.230689 -0.047036 0.0602664
-0.230692 -0.047091 0.0798469
-0.230695 -0.0471462 0.0994734
-0.230699 -0.0472015 0.119146
-0.230702 -0.0472569 0.138864
-0.230706 -0.0473124 0.15863
0.186077 -0.0692675 0.409366
0.172526 -0.0685766 0.409368
-0.145149 -0.0523812 0.409418
-0.168106 -0.0512108 0.409422
-0.086432 -0.0494068 -0.409377
-0.0639817 -0.0504724 -0.409381
-0.0405414 -0.051585 -0.409386
0.0617276 -0.0585881 0.409385
-0.0695163 -0.0523586 0.409406
-0.0959346 -0.0511047 0.40941
-0.0160446 -0.0488405 -0.40939
-0.00337696 -0.0493972 -0.409392
0.0228442 -0.0505496 -0.409397
0.036419 -0.0511462 -0.4094
0.064553 -0.0523827 -0.409405
0.109401 -0.0543537 -0.409413
0.0181361 -0.0523325 0.409392
-0.00252509 -0.0514244 0.409396
-0.0322067 -0.0501199 0.4094
-0.0511715 -0.0492864 0.409403
-0.230604 -0.0362182 -0.427098
0.0791365 -0.0487817 -0.409407
0.12511 -0.0506406 -0.409416
0.157756 -0.0519606 -0.409422
0.192149 -0.0533512 -0.409428
0.146219 -0.0533247 0.409372
0.120921 -0.0523018 0.409376
0.0965751 -0.0513174 0.40938
0.0847427 -0.050839 0.409382
0.0395402 -0.0490113 0.409389
-0.129252 -0.0421865 0.409416
-0.230704 -0.0342406 0.148741
0.186077 -0.0501592 0.409366
0.172526 -0.0496589 0.409368
-0.220459 -0.0302911 -0.409353
-0.194727 -0.0311505 -0.409358
-0.167492 -0.0320602 -0.409363
-0.230651 -0.0304139 -0.15849
-0.230654 -0.0304491 -0.139419
-0.230658 -0.0304843 -0.120303
-0.230661 -0.0305195 -0.101143
-0.230664 -0.0305549 -0.0819381
-0.230668 -0.0305962 -0.0594765
-0.230671 -0.0306318 -0.0401753
-0.230675 -0.0306674 -0.0208291
-0.230678 -0.0307031 -0.00143795
-0.230681 -0.0307389 0.0179984
0.0617276 -0.0412287 0.409385
-0.204171 -0.0323473 0.409428
-0.217883 -0.0318893 0.40943
-0.148433 -0.029255 -0.409366
-0.128603 -0.0298477 -0.40937
-0.107953 -0.0304648 -0.409374
-0.0864309 -0.031108 -0.409378
-0.0639806 -0.0317789 -0.409382
-0.0405406 -0.0324794 -0.409386
-0.0872687 -0.032436 0.40941
-0.112853 -0.0316714 0.409414
-0.145147 -0.0307063 0.409419
-0.168105 -0.0300202 0.409423
-0.0160427 -0.0293043 -0.409391
-0.00337529 -0.0296384 -0.409393
0.0228457 -0.0303298 -0.409398
0.0364203 -0.0306878 -0.4094
0.0645545 -0.0314296 -0.409405
0.0791376 -0.0318142 -0.409408
0.192149 -0.0347942 -0.409428
-0.230685 -0.0243006 0.0407315
-0.230689 -0.024329 0.0602664
-0.230692 -0.0243574 0.0798469
-0.230695 -0.024386 0.0994734
-0.230699 -0.0244146 0.119146
0.146219 -0.034777 0.409372
0.0395421 -0.0319639 0.40939
0.0181384 -0.0313995 0.409393
-0.00252259 -0.0308547 0.409397
-0.0322039 -0.030072 0.409401
-0.0511687 -0.0295719 0.409405
-0.0695131 -0.0290882 0.409408
0.125112 -0.028623 -0.409416
0.157758 -0.029369 -0.409422
0.18608 -0.031051 0.409367
0.172529 -0.0307413 0.409369
0.13345 -0.0298482 0.409375
0.108636 -0.0292811 0.409379
0.0847464 -0.0287352 0.409383
-0.230604 -0.0173218 -0.427098
0.109405 -0.0239157 -0.409414
-0.129251 -0.0201762 0.409416
-0.230702 -0.0146659 0.138864
-0.230706 -0.0146832 0.15863
0.0617362 -0.0195295 0.409389
-0.220459 -0.0111599 -0.409353
-0.194725 -0.0114765 -0.409358
-0.167489 -0.0118117 -0.409364
-0.148431 -0.0120462 -0.409367
-0.128601 -0.0122902 -0.409371
-0.230651 -0.0112051 -0.15849
-0.230654 -0.0112181 -0.139419
-0.230658 -0.011231 -0.120303
-0.230661 -0.011244 -0.101143
-0.230664 -0.0112571 -0.0819381
-0.230668 -0.0112723 -0.0594765
-0.230671 -0.0112854 -0.0401753
-0.230675 -0.0112985 -0.0208291
-0.230678 -0.0113117 -0.00143795
-0.230681 -0.0113249 0.0179984
-0.16057 -0.012454 0.40942
-0.182852 -0.0121798 0.409423
-0.19717 -0.0120036 0.409425
-0.217884 -0.0117487 0.409429
-0.107951 -0.00896026 -0.409375
-0.0864282 -0.00914944 -0.409378
-0.0639775 -0.00934678 -0.409383
-0.0405368 -0.00955282 -0.409387
-0.0160396 -0.00976815 -0.409392
-0.00337219 -0.00987949 -0.409394
0.0228496 -0.01011 -0.409399
0.0364245 -0.0102293 -0.409401
0.0645591 -0.0104766 -0.409406
0.0791427 -0.0106048 -0.409409
0.125116 -0.0110089 -0.409418
0.157763 -0.0112958 -0.409424
0.186082 -0.0119427 0.409368
0.172539 -0.0118237 0.409373
0.133459 -0.0114802 0.409378
0.108643 -0.011262 0.409382
0.084752 -0.011052 0.409385
0.0395471 -0.0106547 0.409392
0.0181421 -0.0104666 0.409395
-0.0025202 -0.0102849 0.409398
-0.0322031 -0.010024 0.409402
-0.0511689 -0.00985732 0.409405
-0.0695142 -0.00969607 0.409407
-0.0959336 -0.00946384 0.409411
-0.230604 -0.00472412 -0.427098
0.19215 -0.00695887 -0.409428
-0.230685 -0.00486012 0.0407315
-0.230689 -0.0048658 0.0602664
-0.230692 -0.00487149 0.0798469
-0.230695 -0.0048772 0.0994734
-0.230699 -0.00488292 0.119146
0.146231 -0.00695547 0.409377
0.0617359 -0.00216996 0.409389
-0.129252 -0.00183421 0.409416
0.109408 0.00652246 -0.409415
0.19215 0.00695883 -0.409428
0.146231 0.00695544 0.409377
-0.220459 0.00797134 -0.409353
-0.194725 0.00819753 -0.409358
-0.167489 0.00843693 -0.409364
-0.148431 0.00860444 -0.409367
-0.128601 0.00877875 -0.409371
-0.107951 0.00896026 -0.409375
-0.0864282 0.00914944 -0.409378
-0.0639775 0.00934678 -0.409383
-0.0405368 0.00955282 -0.409387
-0.0160396 0.00976815 -0.409392
-0.00337219 0.00987949 -0.409394
0.0228496 0.01011 -0.409399
0.0364246 0.0102293 -0.409401
0.0645591 0.0104766 -0.409406
0.0791429 0.0106048 -0.409409
0.125117 0.0110089 -0.409418
0.157763 0.0112958 -0.409424
-0.230651 0.00800367 -0.15849
-0.230654 0.00801291 -0.139419
-0.230658 0.00802217 -0.120303
-0.230661 0.00803146 -0.101143
-0.230664 0.00804076 -0.0819381
-0.230668 0.00805164 -0.0594765
-0.230671 0.008061 -0.0401753
-0.230675 0.00807037 -0.0208291
-0.230678 0.00807977 -0.00143795
-0.230681 0.00808918 0.0179984
0.186082 0.0119427 0.409368
0.172539 0.0118237 0.409373
0.133459 0.0114802 0.409378
0.108643 0.011262 0.409382
0.084752 0.011052 0.409385
0.0395471 0.0106547 0.409392
0.0181421 0.0104666 0.409395
-0.0025202 0.0102849 0.409398
-0.0322031 0.010024 0.409402
-0.0511689 0.00985732 0.409405
-0.0695142 0.00969607 0.409407
-0.0959336 0.00946384 0.409411
-0.14515 0.00903124 0.409418
-0.168108 0.00882944 0.409421
-0.19717 0.00857399 0.409425
-0.217884 0.00839192 0.409429
-0.230702 0.0146659 0.138864
-0.230706 0.0146832 0.15863
0.0617359 0.0195295 0.409389
0.19215 0.0255158 -0.409428
0.146231 0.0255034 0.409377
-0.129252 0.0201762 0.409416
0.0791429 0.0275724 -0.409409
0.125117 0.0286231 -0.409418
0.157763 0.0293692 -0.409424
0.186082 0.031051 0.409368
0.172539 0.0307415 0.409373
0.133459 0.0298484 0.409378
0.108643 0.0292813 0.409382
0.084752 0.0287353 0.409385
0.0395471 0.0277022 0.409392
-0.230604 0.0236206 -0.427098
-0.0753225 0.0277412 -0.409381
-0.0639774 0.0280403 -0.409383
-0.0405368 0.0286585 -0.409387
-0.0160396 0.0293044 -0.409392
-0.00337219 0.0296385 -0.409394
0.0228496 0.0303299 -0.409399
0.0364246 0.0306879 -0.409401
0.0645591 0.0314298 -0.409406
0.109408 0.0326124 -0.409415
-0.230685 0.0243006 0.0407315
-0.230689 0.024329 0.0602664
-0.230692 0.0243574 0.0798469
-0.230695 0.024386 0.0994734
-0.230699 0.0244146 0.119146
0.0181421 0.0313997 0.409395
-0.0025202 0.0308548 0.409398
-0.0322031 0.0300721 0.409402
-0.0511689 0.029572 0.409405
-0.0695142 0.0290882 0.409407
-0.0959336 0.0283915 0.409411
-0.203463 0.0276104 -0.409357
-0.176743 0.028409 -0.409362
-0.148431 0.0292551 -0.409367
-0.128601 0.0298477 -0.409371
-0.107951 0.0304649 -0.409375
-0.230681 0.0275032 0.0179984
-0.14515 0.0307062 0.409418
-0.168108 0.0300201 0.409421
-0.19717 0.0291515 0.409425
-0.217884 0.0285325 0.409429
-0.220459 0.0302911 -0.409353
-0.230651 0.0304139 -0.15849
-0.230654 0.0304491 -0.139419
-0.230658 0.0304843 -0.120303
-0.230661 0.0305195 -0.101143
-0.230664 0.0305549 -0.0819381
-0.230668 0.0305962 -0.0594765
-0.230671 0.0306318 -0.0401753
-0.230675 0.0306674 -0.0208291
-0.230678 0.0307031 -0.00143795
0.0617359 0.041229 0.409389
0.109408 0.0456573 -0.409415
0.174732 0.0480689 -0.409426
-0.230702 0.0342205 0.138864
-0.230706 0.0342607 0.15863
0.186082 0.0501594 0.409368
0.172539 0.0496594 0.409372
0.133459 0.0482167 0.409378
-0.129252 0.0385181 0.409416
0.0503237 0.0476167 -0.409404
0.0791426 0.048782 -0.409409
0.125116 0.0506408 -0.409417
0.19215 0.0533512 -0.409428
0.146229 0.0533251 0.409376
0.108643 0.0518054 0.409382
0.0847524 0.0508394 0.409386
0.0395474 0.0490116 0.409392
0.0181421 0.0481461 0.409395
-0.040537 0.047764 -0.409387
-0.0160398 0.0488407 -0.409391
-0.00337231 0.0493974 -0.409394
0.0228492 0.0505498 -0.409399
-0.00251937 0.0514246 0.409398
-0.0322026 0.0501201 0.409402
-0.0511686 0.0492866 0.409405
-0.069514 0.0484803 0.409407
-0.230604 0.042517 -0.427098
-0.118381 0.0478903 -0.409373
-0.0973021 0.0488908 -0.409376
-0.075323 0.0499341 -0.40938
-0.0639777 0.0504726 -0.409383
-0.230685 0.043741 0.0407315
-0.230689 0.0437922 0.0602664
-0.230692 0.0438434 0.0798469
-0.230695 0.0438947 0.0994734
-0.230699 0.0439462 0.119146
0.0617346 0.0585885 0.409388
-0.095933 0.0511047 0.409411
-0.14515 0.0487687 0.409418
-0.168108 0.0476789 0.409421
-0.194725 0.0475457 -0.409358
-0.16749 0.0489342 -0.409363
-0.148432 0.0499057 -0.409367
0.186078 0.0692675 0.409366
0.172528 0.0685767 0.409368
-0.197169 0.0497292 0.409425
-0.217884 0.0486731 0.409429
-0.220459 0.0494223 -0.409353
0.125111 0.0682547 -0.409416
0.157756 0.0700338 -0.409422
-0.230651 0.0496227 -0.15849
-0.230654 0.04968 -0.139419
-0.230658 0.0497374 -0.120303
-0.230661 0.049795 -0.101143
-0.230664 0.0498527 -0.0819381
-0.230668 0.0499202 -0.0594765
-0.230671 0.0499781 -0.0401753
-0.230675 0.0500363 -0.0208291
-0.230678 0.0500945 -0.00143795
-0.230681 0.0501529 0.0179984
0.133447 0.0711764 0.409374
0.108633 0.0698241 0.409378
0.0847442 0.0685222 0.409382
0.03642 0.0675131 -0.4094
0.0645539 0.0691452 -0.409405
0.0791368 0.0699912 -0.409407
0.192149 0.0765474 -0.409428
-0.230702 0.0537751 0.138864
-0.230706 0.0538383 0.15863
0.146219 0.0765093 0.409372
0.0395408 0.0703206 0.409389
0.0181372 0.0690789 0.409393
-0.0025233 0.0678804 0.409396
-0.12925 0.0605286 0.409417
-0.230604 0.0551147 -0.427098
-0.0284283 0.0676147 -0.409388
-0.0033766 0.0691561 -0.409392
0.0228443 0.0707694 -0.409397
0.109401 0.0760952 -0.409413
-0.0322062 0.0701679 0.4094
-0.0511705 0.0690011 0.409404
-0.0695145 0.0678724 0.409407
-0.0864311 0.0677056 -0.409377
-0.0639809 0.0691659 -0.409382
0.186077 0.0883757 0.409366
0.0617276 0.0802875 0.409385
-0.0959342 0.0700324 0.409411
-0.138618 0.0677874 -0.409368
-0.118384 0.0691746 -0.409372
0.157756 0.088107 -0.409422
-0.230685 0.0631815 0.0407315
-0.230689 0.0632553 0.0602664
-0.230692 0.0633293 0.0798469
-0.230695 0.0634035 0.0994734
-0.230699 0.0634778 0.119146
0.172526 0.0922237 0.409368
0.133447 0.0895444 0.409374
0.108632 0.0878431 0.409378
-0.145149 0.0704437 0.409418
-0.168105 0.0688697 0.409422
-0.185822 0.0678614 -0.409359
-0.167492 0.0691826 -0.409363
0.0940813 0.0880359 -0.40941
0.12511 0.0902723 -0.409416
0.192149 0.0951043 -0.409428
0.146219 0.095057 0.409372
0.0847427 0.090626 0.409382
-0.197167 0.0703069 0.409427
-0.217882 0.0688138 0.40943
-0.220459 0.0685534 -0.409353
0.036419 0.0879715 -0.4094
0.064553 0.0900982 -0.409405
-0.230651 0.0688315 -0.15849
-0.230654 0.068911 -0.139419
-0.230658 0.0689906 -0.120303
-0.230661 0.0690705 -0.101143
-0.230664 0.0691505 -0.0819381
-0.230668 0.0692441 -0.0594765
-0.230671 0.0693245 -0.0401753
-0.230675 0.0694051 -0.0208291
-0.230678 0.0694859 -0.00143795
-0.230681 0.0695669 0.0179984
0.0395402 0.0916298 0.409389
0.0181361 0.0900118 0.409392
-0.00252509 0.08845 0.409396
-0.129252 0.0788704 0.409416
-0.0160446 0.0879129 -0.40939
-0.00337696 0.088915 -0.409392
0.0228442 0.0909893 -0.409397
-0.230702 0.0733297 0.138864
-0.230706 0.0734159 0.15863
0.186779 0.106906 0.26465
0.185727 0.106906 0.283606
0.184675 0.106906 0.302561
0.183886 0.106906 0.316778
0.182834 0.106905 0.335734
0.181077 0.106933 0.373758
0.179749 0.10691 0.392624
0.0617276 0.0976469 0.409385
-0.0322067 0.0902159 0.4094
-0.0511715 0.0887156 0.409403
-0.0639815 0.0878594 -0.409381
-0.0405414 0.0897961 -0.409386
0.166037 0.106916 -0.398205
0.165002 0.106913 -0.380045
0.163974 0.106911 -0.361889
0.162716 0.106911 -0.339199
0.16171 0.106911 -0.321048
0.160453 0.106911 -0.298359
0.159447 0.10691 -0.280208
0.158441 0.10691 -0.262057
0.157184 0.10691 -0.239368
0.156178 0.10691 -0.221217
0.13005 0.106907 0.250692
0.129043 0.106907 0.268841
0.127784 0.106906 0.291527
0.126777 0.106906 0.309677
0.12577 0.106906 0.327825
0.12452 0.106906 0.350514
0.152424 0.109318 0.373772
0.124916 0.107045 0.373769
0.122578 0.106912 0.386837
-0.0695163 0.0911428 0.409406
-0.0959346 0.08896 0.40941
-0.107954 0.0878102 -0.409373
-0.086432 0.0896641 -0.409377
0.109401 0.106533 -0.409413
0.112685 0.106914 -0.388886
0.121289 0.107727 -0.373818
0.139213 0.109271 -0.373819
0.110494 0.106912 -0.349707
0.109529 0.106912 -0.332296
0.108323 0.106911 -0.310533
0.107117 0.106911 -0.28877
0.106152 0.106911 -0.27136
0.104946 0.106911 -0.249597
0.103981 0.106911 -0.232186
0.102776 0.10691 -0.210424
0.0779511 0.106907 0.237873
0.0767438 0.106907 0.259634
0.0755367 0.106907 0.281394
0.074571 0.106906 0.298803
0.0733703 0.106906 0.320565
0.0724117 0.106907 0.337976
0.0712132 0.106907 0.359739
0.0985718 0.109331 0.373782
0.0698104 0.106911 0.385868
-0.145149 0.0885062 0.409418
-0.148435 0.087765 -0.409366
-0.128604 0.0895429 -0.40937
0.0647088 0.106915 -0.401217
0.0635251 0.106913 -0.3803
0.0868881 0.10904 -0.373809
0.0623664 0.106913 -0.35939
0.0612078 0.106912 -0.33848
0.060281 0.106912 -0.321752
0.0591224 0.106912 -0.300842
0.0579638 0.106912 -0.279933
0.0568053 0.106912 -0.259023
0.0558785 0.106911 -0.242295
0.0547149 0.106911 -0.221385
0.0535547 0.10691 -0.200476
-0.230685 0.082622 0.0407315
-0.230689 0.0827185 0.0602664
-0.230692 0.0828153 0.0798469
-0.230695 0.0829123 0.0994734
-0.230699 0.0830095 0.119146
0.0299385 0.106908 0.226059
0.0283149 0.106907 0.25533
0.0271554 0.106907 0.276237
0.0255408 0.106907 0.30551
0.0243891 0.106908 0.32642
0.022777 0.106908 0.355694
0.0489317 0.109343 0.373792
0.0211825 0.10691 0.384975
-0.168106 0.0900604 0.409422
-0.230604 0.0834594 -0.427098
-0.185822 0.0877232 -0.409359
-0.167493 0.0894311 -0.409362
0.0196661 0.106915 -0.40054
0.0185335 0.106913 -0.380414
0.038709 0.108827 -0.373801
0.0174248 0.106913 -0.360294
0.0163101 0.106913 -0.340173
0.0151954 0.106913 -0.320052
0.0140804 0.106913 -0.299932
0.0129659 0.106912 -0.279811
0.011851 0.106912 -0.25969
0.0107318 0.106912 -0.239569
0.00961566 0.106911 -0.219448
0.0084995 0.106911 -0.199328
-0.0144505 0.106908 0.215138
-0.0155663 0.106908 0.235256
-0.0166821 0.106907 0.255375
-0.0177927 0.106907 0.275495
-0.0189011 0.106908 0.295615
-0.0200093 0.106908 0.315736
-0.0211176 0.106909 0.335857
-0.0222259 0.106909 0.355978
0.00302827 0.109354 0.373801
-0.0237751 0.10691 0.384149
-0.0244691 0.106907 0.39621
-0.197167 0.0908845 0.409426
-0.217882 0.0889544 0.40943
-0.22046 0.0876845 -0.409353
-0.0221003 0.106914 -0.399912
-0.0231862 0.106913 -0.380519
-0.0242487 0.106914 -0.361133
-0.0253228 0.106914 -0.341743
-0.0263971 0.106913 -0.322354
-0.0276861 0.106913 -0.299087
-0.0287602 0.106913 -0.279698
-0.0298378 0.106912 -0.260308
-0.0309134 0.106912 -0.240919
-0.0319887 0.106912 -0.22153
-0.0330642 0.106911 -0.202141
-0.230651 0.0880403 -0.15849
-0.230654 0.088142 -0.139419
-0.230658 0.0882439 -0.120303
-0.230661 0.088346 -0.101143
-0.230664 0.0884483 -0.0819381
-0.230668 0.0885681 -0.0594765
-0.230671 0.0886709 -0.0401753
-0.230675 0.088774 -0.0208291
-0.230678 0.0888774 -0.00143795
-0.230681 0.088981 0.0179984
-0.0556116 0.106908 0.20501
-0.0573319 0.106908 0.236029
-0.0584022 0.106908 0.255418
-0.0598975 0.106908 0.282562
-0.0611794 0.106909 0.305829
-0.0622475 0.106909 0.325219
-0.0639567 0.10691 0.356242
-0.0395499 0.109364 0.373807
-0.0654626 0.106909 0.383384
-0.0661175 0.106908 0.395011
-0.129252 0.100881 0.409416
-0.0609354 0.106914 -0.399328
-0.0619781 0.106913 -0.380617
-0.0629981 0.106914 -0.361913
-0.0642419 0.106914 -0.339462
-0.0652784 0.106914 -0.320752
-0.0663147 0.106914 -0.302043
-0.0675613 0.106913 -0.279592
-0.0685987 0.106913 -0.260883
-0.0696365 0.106913 -0.242174
-0.0708816 0.106912 -0.219723
-0.0719192 0.106912 -0.201014
-0.0729567 0.106912 -0.182306
-0.230702 0.0928842 0.138864
-0.230706 0.0929934 0.15863
-0.0938846 0.106908 0.195593
-0.0955439 0.106908 0.225524
-0.097193 0.106909 0.255458
-0.0988424 0.106909 0.285392
-0.100492 0.10691 0.315327
-0.102141 0.10691 0.345262
-0.0886142 0.108424 0.373815
-0.104844 0.106909 0.393897
-0.0969323 0.106914 -0.4024
-0.0981401 0.106913 -0.380708
-0.0993211 0.106915 -0.359024
-0.100322 0.106915 -0.340949
-0.101524 0.106914 -0.319259
-0.102525 0.106914 -0.301184
-0.10373 0.106914 -0.279494
-0.104732 0.106913 -0.261419
-0.105935 0.106913 -0.239729
-0.106937 0.106913 -0.221654
-0.10814 0.106912 -0.199965
-0.109142 0.106912 -0.18189
-0.230685 0.0955823 0.0407315
-0.230689 0.095694 0.0602664
-0.129563 0.106909 0.186814
-0.131163 0.106908 0.215732
-0.132757 0.106909 0.244651
-0.133355 0.106909 0.255496
-0.134948 0.10691 0.284415
-0.135546 0.10691 0.29526
-0.137139 0.106911 0.324181
-0.137737 0.106911 0.335026
-0.116066 0.109381 0.373818
-0.140552 0.106909 0.385625
-0.130767 0.106913 -0.401773
-0.131931 0.106913 -0.380794
-0.133069 0.106915 -0.359822
-0.134037 0.106915 -0.34234
-0.135199 0.106915 -0.321361
-0.136364 0.106914 -0.300381
-0.137527 0.106914 -0.279402
-0.138497 0.106914 -0.26192
-0.13966 0.106913 -0.240941
-0.140823 0.106913 -0.219962
-0.141792 0.106913 -0.20248
-0.142956 0.106912 -0.181502
-0.162902 0.106909 0.178611
-0.164062 0.106909 0.199588
-0.165218 0.106909 0.220567
-0.166182 0.10691 0.238049
-0.167338 0.10691 0.259027
-0.168494 0.10691 0.280006
-0.16965 0.106911 0.300985
-0.170613 0.106911 0.318468
-0.17177 0.106912 0.339447
-0.172926 0.106912 0.360426
-0.150569 0.109389 0.373823
-0.174299 0.10691 0.384891
-0.17487 0.106911 0.395384
-0.16245 0.106913 -0.401187
-0.163576 0.106913 -0.380874
-0.164674 0.106916 -0.360569
-0.1658 0.106916 -0.340256
-0.166926 0.106915 -0.319943
-0.168052 0.106915 -0.299629
-0.169179 0.106915 -0.279316
-0.170117 0.106914 -0.262389
-0.171243 0.106914 -0.242076
-0.17237 0.106914 -0.221763
-0.173496 0.106913 -0.20145
-0.174622 0.106913 -0.181138
-0.230698 0.102501 0.112583
-0.194124 0.106909 0.170929
-0.195059 0.106909 0.187856
-0.196178 0.10691 0.208168
-0.197298 0.10691 0.22848
-0.198417 0.10691 0.248793
-0.199537 0.106911 0.269106
-0.200657 0.106911 0.289419
-0.201776 0.106912 0.309732
-0.202896 0.106912 0.330045
-0.204015 0.106912 0.350359
-0.198284 0.107691 0.373832
-0.206457 0.106911 0.394364
-0.192183 0.106913 -0.400637
-0.193274 0.106913 -0.380949
-0.194335 0.106916 -0.36127
-0.195426 0.106916 -0.341582
-0.196518 0.106916 -0.321893
-0.197609 0.106915 -0.302205
-0.198883 0.106915 -0.279236
-0.199974 0.106915 -0.259548
-0.201066 0.106914 -0.23986
-0.202157 0.106914 -0.220172
-0.203249 0.106914 -0.200484
-0.20434 0.106913 -0.180797
-0.230692 0.105549 0.0798469
-0.223425 0.106909 0.16372
-0.22451 0.10691 0.183407
-0.225595 0.10691 0.203094
-0.22668 0.10691 0.222782
-0.227946 0.106911 0.245751
-0.229032 0.106911 0.265439
-0.230117 0.106912 0.285127
-0.230731 0.106967 0.305005
-0.230734 0.107094 0.325163
-0.230738 0.107221 0.345368
-0.227692 0.107749 0.373836
-0.230746 0.107519 0.392702
-0.230749 0.107648 0.413068
-0.230604 0.105505 -0.427098
-0.220141 0.106913 -0.40012
-0.221199 0.106913 -0.381019
-0.222402 0.106917 -0.358746
-0.223461 0.106916 -0.339645
-0.224519 0.106916 -0.320544
-0.225578 0.106916 -0.301444
-0.226637 0.106915 -0.282343
-0.227872 0.106915 -0.260059
-0.228931 0.106915 -0.240959
-0.22999 0.106914 -0.221859
-0.230644 0.106982 -0.199662
-0.230647 0.107105 -0.180685
-0.230658 0.107518 -0.117112
-0.23066 0.107601 -0.104339
-0.230665 0.107788 -0.0755267
-0.230669 0.107913 -0.0562627
-0.230672 0.108038 -0.036954
-0.230676 0.108185 -0.0143704
-0.230679 0.108311 0.00503579
-0.23065 0.110429 -0.161665
-0.230654 0.110578 -0.139419
-0.230686 0.115045 0.0439842
-0.230689 0.11518 0.0635266
-0.230696 0.115449 0.102749
-0.2307 0.115607 0.125714
