ply
format ascii 1.0
comment Created by Open3D
element vertex 876
property double x
property double y
property double z
end_header
-0.185417 -0.414158 0.113889
-0.185389 -0.405991 0.135344
-0.185362 -0.398139 0.155969
-0.166291 -0.395713 0.171291
-0.144991 -0.399512 0.171316
-0.185362 -0.381481 0.155969
-0.155692 -0.380968 0.171303
0.130501 -0.433278 0.162335
0.151252 -0.433425 0.171672
-0.185403 -0.389446 0.124723
-0.185389 -0.385606 0.135344
-0.144991 -0.379453 0.171316
0.169765 -0.432776 0.171694
0.130474 -0.432788 0.142583
0.130447 -0.432282 0.122163
0.130509 -0.41211 0.168776
0.151252 -0.414499 0.171672
-0.185403 -0.37229 0.124723
-0.185362 -0.36149 0.155969
-0.155692 -0.361004 0.171303
0.169765 -0.413711 0.171694
-0.185389 -0.365222 0.135344
-0.144991 -0.359394 0.171316
0.130465 -0.41199 0.135852
-0.17679 -0.344405 0.171278
0.130447 -0.40881 0.122163
-0.185688 -0.432732 -0.11062
0.130509 -0.389529 0.168776
0.169765 -0.394646 0.171694
-0.173358 -0.429869 -0.108865
-0.185403 -0.351703 0.124723
-0.155692 -0.341041 0.171303
-0.185707 -0.429585 -0.126747
-0.14742 -0.429605 -0.108833
-0.13427 -0.431597 -0.108817
-0.185389 -0.344837 0.135344
-0.144991 -0.339335 0.171316
0.151252 -0.384216 0.171672
0.130456 -0.390958 0.129046
-0.185748 -0.431731 -0.160221
0.130428 -0.393687 0.108161
-0.17679 -0.32463 0.171278
0.130483 -0.376841 0.149239
0.130509 -0.370711 0.168776
-0.173358 -0.4089 -0.108865
-0.185707 -0.408423 -0.126747
-0.185688 -0.403465 -0.11062
-0.14742 -0.408442 -0.108833
-0.13427 -0.410336 -0.108817
-0.185417 -0.334446 0.113889
-0.155692 -0.321078 0.171303
0.179124 -0.369303 0.171705
-0.185389 -0.324453 0.135344
-0.144991 -0.319276 0.171316
0.130456 -0.371507 0.129046
-0.185748 -0.410036 -0.160221
0.130428 -0.373904 0.108161
0.160475 -0.359019 0.171683
-0.173358 -0.392124 -0.108865
0.130187 -0.431456 -0.098331
0.130509 -0.351893 0.168776
-0.185707 -0.391494 -0.126747
-0.14742 -0.391512 -0.108833
-0.125436 -0.394547 -0.108806
-0.17679 -0.304856 0.171278
0.130163 -0.432595 -0.117856
0.150456 -0.429219 -0.0968784
0.171788 -0.432164 -0.0968529
0.179124 -0.350168 0.171705
-0.185403 -0.310528 0.124723
-0.155692 -0.301114 0.171303
-0.126926 -0.305 0.171338
0.130127 -0.431976 -0.14815
0.130456 -0.352057 0.129046
0.130483 -0.346235 0.149239
-0.185748 -0.388341 -0.160221
-0.185688 -0.374198 -0.11062
-0.185375 -0.301099 0.145757
0.130102 -0.433162 -0.16905
0.130428 -0.354121 0.108161
0.160475 -0.340023 0.171683
-0.173358 -0.371155 -0.108865
0.130163 -0.413888 -0.117856
0.130187 -0.408383 -0.098331
0.150456 -0.410658 -0.0968784
-0.185707 -0.370332 -0.126747
-0.14742 -0.370349 -0.108833
-0.13427 -0.372066 -0.108817
0.171788 -0.408804 -0.0968529
0.130509 -0.329312 0.168776
0.130139 -0.410062 -0.137914
0.179124 -0.331033 0.171705
-0.185748 -0.370985 -0.160221
0.130102 -0.413802 -0.16905
0.130465 -0.330752 0.135852
-0.185403 -0.28994 0.124723
-0.185362 -0.281529 0.155969
-0.155692 -0.281151 0.171303
-0.126926 -0.284779 0.171338
0.130187 -0.389925 -0.098331
0.150456 -0.392097 -0.0968784
0.130428 -0.334337 0.108161
0.160475 -0.321027 0.171683
-0.173358 -0.350186 -0.108865
0.171788 -0.390115 -0.0968529
-0.185707 -0.34917 -0.126747
-0.185688 -0.344932 -0.11062
-0.14742 -0.349186 -0.108833
-0.13427 -0.350805 -0.108817
0.130139 -0.3911 -0.137914
0.130163 -0.385828 -0.117856
0.130509 -0.310494 0.168776
-0.185389 -0.276889 0.135344
0.130102 -0.394443 -0.16905
0.179124 -0.311899 0.171705
-0.185748 -0.34929 -0.160221
0.130187 -0.371467 -0.098331
0.130465 -0.31141 0.135852
0.151252 -0.304723 0.171672
0.150456 -0.368896 -0.0968784
0.171788 -0.371427 -0.0968529
0.130428 -0.314554 0.108161
-0.185707 -0.332241 -0.126747
-0.173358 -0.329217 -0.108865
-0.14742 -0.332256 -0.108833
-0.125436 -0.334831 -0.108806
-0.185403 -0.269353 0.124723
-0.185362 -0.261539 0.155969
-0.155692 -0.261187 0.171303
-0.144991 -0.262441 0.171316
0.130139 -0.372137 -0.137914
0.130163 -0.367121 -0.117856
-0.185688 -0.324027 -0.11062
0.130114 -0.372486 -0.158527
0.130509 -0.291676 0.168776
-0.185748 -0.331934 -0.160221
-0.185389 -0.256505 0.135344
0.130163 -0.353091 -0.117856
0.130187 -0.348395 -0.098331
0.150456 -0.350335 -0.0968784
0.130465 -0.292068 0.135852
0.179124 -0.288937 0.171705
-0.173358 -0.312441 -0.108865
0.171788 -0.348067 -0.0968529
0.130428 -0.294771 0.108161
-0.185707 -0.311079 -0.126747
-0.14742 -0.311093 -0.108833
-0.125436 -0.313505 -0.108806
-0.185417 -0.254733 0.113889
0.130127 -0.350831 -0.14815
0.160475 -0.279237 0.171683
-0.185362 -0.241549 0.155969
-0.155692 -0.241224 0.171303
-0.144991 -0.242382 0.171316
0.130501 -0.274346 0.162335
-0.185748 -0.310239 -0.160221
0.130102 -0.346045 -0.16905
0.130163 -0.334384 -0.117856
0.130187 -0.329937 -0.098331
0.150456 -0.331774 -0.0968784
-0.185688 -0.29476 -0.11062
0.171788 -0.329379 -0.0968529
0.179124 -0.269802 0.171705
-0.173358 -0.291472 -0.108865
-0.185389 -0.23612 0.135344
0.130127 -0.331738 -0.14815
0.130428 -0.274988 0.108161
0.130456 -0.270364 0.129046
-0.185707 -0.289917 -0.126747
-0.14742 -0.28993 -0.108833
-0.13427 -0.291275 -0.108817
0.155855 -0.259769 0.171677
-0.185403 -0.231609 0.124723
0.130102 -0.326686 -0.16905
0.130187 -0.311479 -0.098331
0.137542 -0.254132 0.171655
-0.185748 -0.288544 -0.160221
-0.185362 -0.221559 0.155969
-0.155692 -0.221261 0.171303
-0.144991 -0.222323 0.171316
0.150456 -0.308573 -0.0968784
0.171788 -0.310691 -0.0968529
-0.185688 -0.273855 -0.11062
0.130139 -0.310509 -0.137914
0.130163 -0.306324 -0.117856
0.183829 -0.251127 0.171711
-0.173358 -0.270503 -0.108865
0.130114 -0.310005 -0.158527
0.130447 -0.252327 0.122163
0.130483 -0.246764 0.149239
-0.185727 -0.272099 -0.143276
-0.14742 -0.268767 -0.108833
-0.13427 -0.270014 -0.108817
-0.185389 -0.215736 0.135344
-0.185748 -0.271188 -0.160221
0.130175 -0.290337 -0.108028
0.150456 -0.290013 -0.0968784
0.171788 -0.292003 -0.0968529
0.160475 -0.237446 0.171683
-0.185403 -0.211022 0.124723
0.130139 -0.291547 -0.137914
0.130509 -0.231459 0.168776
-0.185362 -0.201568 0.155969
-0.155692 -0.201297 0.171303
-0.144991 -0.202264 0.171316
0.130102 -0.292807 -0.16905
0.179124 -0.231532 0.171705
-0.185707 -0.251826 -0.126747
-0.173358 -0.249534 -0.108865
-0.14742 -0.251837 -0.108833
-0.125436 -0.253789 -0.108806
0.130456 -0.231463 0.129046
-0.185688 -0.244588 -0.11062
0.130163 -0.273587 -0.117856
0.130187 -0.269948 -0.098331
0.150456 -0.271452 -0.0968784
0.151252 -0.221444 0.171672
-0.185748 -0.249493 -0.160221
-0.185389 -0.195351 0.135344
0.171788 -0.268642 -0.0968529
0.130102 -0.273448 -0.16905
0.130127 -0.269686 -0.14815
0.130428 -0.223551 0.108161
0.130492 -0.214973 0.155823
-0.156119 -0.234186 -0.108844
-0.185403 -0.190434 0.124723
0.169765 -0.211622 0.171694
-0.185707 -0.230664 -0.126747
-0.13427 -0.231744 -0.108817
-0.185362 -0.181578 0.155969
-0.155692 -0.181334 0.171303
-0.144991 -0.182204 0.171316
0.130163 -0.25488 -0.117856
0.130187 -0.25149 -0.098331
0.130456 -0.212012 0.129046
-0.185748 -0.232137 -0.160221
-0.185688 -0.223683 -0.11062
0.150456 -0.248251 -0.0968784
0.171788 -0.249954 -0.0968529
0.130102 -0.254089 -0.16905
0.130127 -0.250594 -0.14815
0.151252 -0.198732 0.171672
-0.185389 -0.174967 0.135344
0.130428 -0.203768 0.108161
0.130501 -0.19488 0.162335
-0.173358 -0.211789 -0.108865
-0.185727 -0.212109 -0.143276
-0.14742 -0.209512 -0.108833
-0.13427 -0.210483 -0.108817
-0.185403 -0.169847 0.124723
0.130175 -0.229947 -0.108028
0.150456 -0.22969 -0.0968784
0.171788 -0.231266 -0.0968529
0.130465 -0.191488 0.135852
0.169765 -0.188744 0.171694
-0.185748 -0.210442 -0.160221
-0.185431 -0.169798 0.102831
-0.185362 -0.161588 0.155969
-0.155692 -0.161371 0.171303
-0.144991 -0.162145 0.171316
0.130102 -0.23473 -0.16905
0.130127 -0.231501 -0.14815
0.130151 -0.228359 -0.127817
-0.185458 -0.169748 0.0800256
0.151252 -0.179805 0.171672
-0.185688 -0.194416 -0.11062
-0.185487 -0.169696 0.0562535
0.130428 -0.183984 0.108161
-0.173358 -0.19082 -0.108865
-0.185517 -0.169641 0.0314519
-0.185389 -0.154582 0.135344
0.130175 -0.211365 -0.108028
0.150456 -0.211129 -0.0968784
0.130509 -0.171242 0.168776
-0.185727 -0.190684 -0.143276
-0.185548 -0.169585 0.00555265
-0.185417 -0.154226 0.113889
0.130127 -0.212408 -0.14815
0.130151 -0.209525 -0.127817
0.171788 -0.207906 -0.0968529
0.130465 -0.172146 0.135852
0.169765 -0.169679 0.171694
-0.185748 -0.188747 -0.160221
-0.18558 -0.169525 -0.0215187
-0.185615 -0.169463 -0.0498438
-0.185458 -0.15188 0.0800249
-0.185362 -0.141598 0.155969
-0.155692 -0.141407 0.171303
-0.144991 -0.142086 0.171316
0.130102 -0.205691 -0.16905
0.151252 -0.160878 0.171672
-0.185688 -0.173511 -0.11062
-0.18565 -0.169398 -0.0795115
-0.185487 -0.151449 0.0562527
0.130163 -0.194083 -0.117856
0.130187 -0.191502 -0.098331
0.130402 -0.167059 0.0865458
0.130428 -0.164201 0.108161
-0.185707 -0.171411 -0.126747
-0.185517 -0.151 0.0314512
0.130139 -0.191994 -0.137914
0.150456 -0.187928 -0.0968784
0.171788 -0.189218 -0.0968529
0.130367 -0.166907 0.0565256
0.130509 -0.152424 0.168776
-0.185748 -0.171391 -0.160221
-0.185564 -0.152215 -0.00783229
-0.185548 -0.15053 0.00555181
-0.185389 -0.134198 0.135344
0.130114 -0.189848 -0.158527
0.130331 -0.166747 0.0250441
0.169765 -0.150614 0.171694
-0.185597 -0.151757 -0.0355198
-0.185403 -0.132103 0.124723
0.130282 -0.167625 -0.0165299
0.130302 -0.165548 0.000408173
0.130456 -0.14977 0.129046
0.130483 -0.147293 0.149239
-0.185668 -0.154907 -0.0948802
-0.18543 -0.131287 0.10283
0.130241 -0.167475 -0.0517161
0.151252 -0.141952 0.171672
-0.185632 -0.147244 -0.0645051
-0.185472 -0.131806 0.0682626
-0.185362 -0.121607 0.155969
-0.155692 -0.121444 0.171303
-0.144991 -0.122027 0.171316
0.130151 -0.171858 -0.127817
0.130175 -0.169557 -0.108028
0.130198 -0.167317 -0.088762
0.13022 -0.165135 -0.0699981
0.130333 -0.154084 0.0250405
0.130406 -0.146932 0.0865406
0.130432 -0.144419 0.108157
-0.185727 -0.152118 -0.143276
-0.185516 -0.132358 0.0314503
0.130114 -0.170623 -0.158527
0.130362 -0.147176 0.0487909
-0.185748 -0.149696 -0.160221
-0.185688 -0.144244 -0.11062
-0.185547 -0.131476 0.00555098
0.130243 -0.154077 -0.0517193
0.130285 -0.15021 -0.016535
0.130315 -0.147435 0.00871611
0.130509 -0.129843 0.168776
0.169765 -0.131549 0.171694
-0.185597 -0.132048 -0.0355209
-0.18558 -0.130554 -0.0215204
0.130198 -0.153565 -0.0887626
0.130458 -0.13032 0.129043
-0.185668 -0.134253 -0.0948807
-0.185403 -0.111515 0.124723
0.130175 -0.150975 -0.108028
0.130221 -0.147038 -0.0699997
0.130364 -0.134739 0.0487874
-0.185632 -0.127074 -0.0645059
-0.185444 -0.111414 0.0915431
-0.185389 -0.107018 0.135344
-0.166291 -0.104309 0.171291
0.130114 -0.151398 -0.158527
0.130139 -0.149329 -0.137914
0.130316 -0.134615 0.00871444
0.130409 -0.126805 0.0865352
0.130435 -0.124636 0.108151
0.151252 -0.119239 0.171672
-0.185748 -0.13234 -0.160221
-0.185727 -0.130693 -0.143276
-0.185501 -0.112498 0.0439831
-0.185486 -0.111306 0.0562511
-0.185362 -0.101617 0.155969
-0.144991 -0.101968 0.171316
0.130265 -0.134482 -0.0339042
0.130296 -0.131967 -0.0080142
-0.185688 -0.123339 -0.11062
-0.185547 -0.112422 0.00555015
-0.115946 -0.0999033 0.171351
-0.10486 -0.100391 0.171364
0.13021 -0.134341 -0.0793196
0.130336 -0.124534 0.0250357
0.130509 -0.111025 0.168776
0.169765 -0.112484 0.171694
-0.185632 -0.114971 -0.0645064
-0.185597 -0.11234 -0.0355216
-0.18558 -0.111069 -0.0215214
-0.0747579 -0.0982689 0.1714
-0.0438509 -0.0995836 0.171438
-0.0241104 -0.100423 0.171461
-0.00403428 -0.101277 0.171485
0.130243 -0.127281 -0.0517197
0.130461 -0.11087 0.129038
-0.185668 -0.113598 -0.0948808
0.0163865 -0.098562 0.17151
0.0455709 -0.09976 0.171545
0.0754735 -0.100987 0.171581
-0.185707 -0.112158 -0.126747
-0.185403 -0.090928 0.124723
0.106121 -0.0985273 0.171617
0.151252 -0.100312 0.171672
-0.185748 -0.110645 -0.160221
-0.185471 -0.0920835 0.0682608
-0.185443 -0.0901922 0.0915423
-0.185389 -0.086634 0.135344
-0.166291 -0.0844409 0.171291
-0.185531 -0.0923453 0.0186408
-0.185501 -0.0903674 0.043982
-0.185362 -0.0816268 0.155969
-0.144991 -0.0819084 0.171316
-0.185631 -0.094801 -0.0645075
-0.185579 -0.0915829 -0.0215223
-0.115946 -0.0795841 0.17135
-0.104859 -0.079973 0.171363
-0.0747572 -0.0810288 0.171399
-0.0438501 -0.082113 0.171436
0.169765 -0.0896057 0.171694
-0.185688 -0.0940723 -0.11062
-0.18565 -0.0918426 -0.0795144
-0.185596 -0.0886894 -0.0355228
-0.0241095 -0.0792818 0.171459
-0.00403336 -0.079956 0.171484
0.0163873 -0.0806418 0.171508
0.0455718 -0.0816219 0.171543
0.133005 -0.0845581 0.17165
-0.185727 -0.092128 -0.143276
-0.185416 -0.074514 0.113886
0.0754742 -0.0789538 0.17158
0.106122 -0.0799373 0.171617
0.146666 -0.0812384 0.171666
-0.185748 -0.0889496 -0.160221
-0.1855 -0.0719251 0.0439814
-0.185486 -0.071163 0.0562494
-0.185457 -0.0696862 0.0800215
-0.185389 -0.0662495 0.135344
-0.17679 -0.0642669 0.171278
-0.185631 -0.0746307 -0.064508
-0.185579 -0.0720973 -0.0215232
-0.185547 -0.0705018 0.00554836
-0.155692 -0.0615537 0.171303
-0.144991 -0.0618492 0.171316
0.165112 -0.0704122 0.171688
-0.185649 -0.0714332 -0.0795146
-0.185596 -0.0689806 -0.0355238
-0.115945 -0.0592649 0.171348
-0.104858 -0.0595545 0.171361
-0.0747565 -0.0603407 0.171398
-0.0438494 -0.061148 0.171435
-0.0241091 -0.0616636 0.171459
-0.004033 -0.062188 0.171483
-0.185748 -0.0715936 -0.160221
-0.185727 -0.0707029 -0.143276
0.0163876 -0.0591373 0.171508
0.0455718 -0.0598561 0.171543
0.0754742 -0.0605925 0.17158
0.106122 -0.0613472 0.171617
0.146666 -0.0623457 0.171666
-0.185688 -0.0648054 -0.110621
-0.185375 -0.0521457 0.145757
-0.185471 -0.0523613 0.0682594
-0.185443 -0.0512859 0.0915406
-0.185403 -0.0497531 0.124723
0.133005 -0.054493 0.171649
-0.185631 -0.0544602 -0.0645082
-0.185562 -0.0520229 -0.00783682
-0.185546 -0.0514473 0.00554752
-0.185515 -0.0503334 0.0314467
-0.185349 -0.0445473 0.165986
-0.166291 -0.044704 0.171291
-0.0815407 -0.0498622 0.0912088
-0.0615001 -0.0498623 0.100614
-0.0414595 -0.0498625 0.110019
-0.0214187 -0.0498626 0.119424
-0.00137782 -0.0498627 0.12883
0.0186631 -0.0498629 0.138235
0.0387042 -0.049863 0.147641
0.165112 -0.0513818 0.171688
-0.185649 -0.0510237 -0.0795147
-0.185596 -0.0492719 -0.0355247
-0.144991 -0.04179 0.171316
-0.0484073 -0.0498636 0.0140299
-0.0303703 -0.0498637 0.0224947
-0.012333 -0.0498639 0.0309594
0.00931165 -0.049864 0.0411172
0.0309565 -0.0498642 0.0512749
0.048994 -0.0498643 0.0597399
0.0706368 -0.0498642 0.0699016
0.0886709 -0.049864 0.0783725
0.110311 -0.0498638 0.0885378
0.128345 -0.0498636 0.0970084
0.149985 -0.0498634 0.107173
0.168019 -0.0498632 0.115644
-0.185748 -0.0498986 -0.160221
-0.185727 -0.0492778 -0.143276
-0.00954527 -0.0498616 -0.0764929
0.0100561 -0.0498614 -0.0672851
0.0296575 -0.0498612 -0.0580776
0.0492586 -0.049861 -0.04887
0.0688595 -0.0498608 -0.0396626
0.0884605 -0.0498606 -0.0304554
0.108061 -0.0498604 -0.021248
0.127662 -0.0498602 -0.0120407
0.151182 -0.0498599 -0.000992298
0.170782 -0.0498597 0.00821471
-0.185688 -0.0439004 -0.110621
0.0667058 -0.0498533 -0.169993
0.0967844 -0.0498554 -0.155935
0.122555 -0.0498561 -0.143858
0.135434 -0.049856 -0.137808
0.165485 -0.0498557 -0.123691
-0.185375 -0.0319603 0.145757
-0.185631 -0.0342898 -0.0645084
-0.185546 -0.0323927 0.00554681
-0.185515 -0.0316914 0.031446
-0.185485 -0.0310198 0.0562475
-0.185456 -0.0303761 0.0800198
-0.185429 -0.0297585 0.102826
-0.185403 -0.0291656 0.124722
-0.185727 -0.0321377 -0.143276
-0.185649 -0.0306142 -0.0795147
-0.185596 -0.0295632 -0.0355256
-0.185579 -0.0292287 -0.021525
-0.185349 -0.0247485 0.165986
-0.166291 -0.0248356 0.171291
-0.185748 -0.0282035 -0.160221
-0.144991 -0.0217308 0.171316
-0.185687 -0.0146335 -0.110621
-0.185668 -0.014458 -0.0948815
-0.185631 -0.0141193 -0.0645084
-0.185442 -0.0123794 0.0915391
-0.185402 -0.0120094 0.124722
-0.185375 -0.0117748 0.145757
-0.185748 -0.0108475 -0.160221
-0.185727 -0.0107126 -0.143276
-0.185595 -0.0098544 -0.0355257
-0.185578 -0.00974291 -0.021526
-0.185546 -0.0095273 0.00554574
-0.185515 -0.00932102 0.031445
-0.185485 -0.00912349 0.0562466
-0.185349 -0.00494971 0.165986
-0.166291 -0.00496712 0.171291
-0.144991 -0.00167161 0.171316
-0.185687 0.00627147 -0.110621
-0.185668 0.00619626 -0.0948817
-0.185631 0.00605112 -0.0645086
-0.185415 0.00519866 0.113883
-0.185389 0.0050961 0.135344
-0.185748 0.0108475 -0.160221
-0.185727 0.0107126 -0.143276
-0.185595 0.0098544 -0.0355258
-0.185578 0.00974291 -0.0215263
-0.185546 0.0095273 0.00554478
-0.185514 0.00932103 0.0314442
-0.185485 0.0091235 0.0562459
-0.185456 0.00893417 0.0800183
-0.126926 0.0151657 0.171337
-0.185362 0.0183244 0.155969
-0.155692 0.0182998 0.171303
-0.185748 0.0282035 -0.160221
-0.185727 0.0278526 -0.143276
-0.185631 0.0262216 -0.0645088
-0.185649 0.0306143 -0.0795153
-0.185595 0.0295632 -0.0355259
-0.185578 0.0292287 -0.0215265
-0.185545 0.0285819 0.00554383
-0.185514 0.0279631 0.0314434
-0.185389 0.0254806 0.135344
-0.185687 0.0355384 -0.110622
-0.185484 0.0310199 0.056245
-0.185456 0.0303762 0.0800174
-0.185428 0.0297586 0.102823
-0.185402 0.0291657 0.12472
-0.126926 0.0353867 0.171337
-0.185748 0.0498986 -0.160221
-0.185727 0.0492778 -0.143276
-0.185631 0.0463921 -0.0645088
-0.185362 0.0383146 0.155969
-0.155692 0.0382631 0.171303
-0.185649 0.0510237 -0.0795155
-0.185595 0.049272 -0.035526
-0.185578 0.0487145 -0.0215266
-0.185545 0.0476365 0.00554299
-0.185687 0.0564434 -0.110622
-0.185514 0.0503336 0.0314424
-0.185484 0.049267 0.0562442
-0.185455 0.0482446 0.0800166
-0.185389 0.0458651 0.135344
-0.185428 0.0507648 0.102822
-0.185402 0.0497533 0.124719
-0.185748 0.0715936 -0.160221
-0.185727 0.0707029 -0.143276
-0.126926 0.0556078 0.171337
-0.185649 0.0714332 -0.0795156
-0.185613 0.0697794 -0.0498499
-0.185578 0.0682003 -0.0215266
-0.185362 0.0583049 0.155969
-0.155692 0.0582265 0.171303
-0.185545 0.0705021 0.00554299
-0.185514 0.0689758 0.0314417
-0.185484 0.067514 0.0562435
-0.185455 0.0696866 0.0800157
-0.185428 0.0682699 0.102822
-0.185748 0.0889496 -0.160221
-0.185727 0.087843 -0.143276
-0.185687 0.0857104 -0.110622
-0.185401 0.0703409 0.124718
-0.185649 0.0877608 -0.0795157
-0.185389 0.0730444 0.135343
-0.185613 0.0897163 -0.04985
-0.185578 0.0876862 -0.0215267
-0.185545 0.0895568 0.00554287
-0.185513 0.0876179 0.0314409
-0.185362 0.0782952 0.155969
-0.155692 0.0781899 0.171303
-0.144991 0.0785652 0.171316
-0.185484 0.0894105 0.0562425
-0.185455 0.0875551 0.080015
-0.185748 0.110645 -0.160221
-0.185727 0.109268 -0.143276
-0.185687 0.106615 -0.110622
-0.185668 0.105337 -0.0948823
-0.185428 0.0892761 0.102821
-0.185401 0.0909285 0.124718
-0.185613 0.109653 -0.0498501
-0.185388 0.093429 0.135342
-0.185578 0.111069 -0.0215271
-0.185545 0.108611 0.00554287
-0.185748 0.128001 -0.160221
-0.185513 0.109989 0.0314403
-0.185483 0.107658 0.0562416
-0.185362 0.0982854 0.155969
-0.155692 0.0981533 0.171303
-0.144991 0.0986244 0.171316
-0.185727 0.130693 -0.143276
-0.185668 0.125991 -0.0948825
-0.185455 0.108997 0.0800142
-0.185414 0.105707 0.113879
-0.185687 0.135882 -0.110622
-0.185613 0.12959 -0.0498502
-0.185578 0.130555 -0.0215272
-0.185545 0.127666 0.00554276
-0.185388 0.113814 0.135341
-0.185748 0.149696 -0.160221
-0.185727 0.147833 -0.143276
-0.185513 0.128631 0.0314401
-0.185483 0.129554 0.0562407
-0.185362 0.118276 0.155969
-0.155692 0.118117 0.171303
-0.144991 0.118684 0.171316
-0.185649 0.148989 -0.0795161
-0.185454 0.130439 0.0800132
-0.185427 0.127788 0.102819
-0.185613 0.149527 -0.0498502
-0.185401 0.128673 0.124716
-0.185578 0.150041 -0.0215272
-0.185748 0.171391 -0.160221
-0.185727 0.169258 -0.143276
-0.185687 0.165149 -0.110622
-0.185545 0.150532 0.00554264
-0.185388 0.134198 0.13534
-0.185513 0.151001 0.0314401
-0.185483 0.147801 0.0562402
-0.185649 0.169399 -0.0795162
-0.185454 0.148308 0.0800124
-0.185362 0.138266 0.155969
-0.155692 0.13808 0.171303
-0.144991 0.138743 0.171316
-0.185613 0.169464 -0.0498505
-0.185427 0.148794 0.102818
-0.185748 0.188747 -0.160221
-0.185578 0.169527 -0.0215274
-0.1854 0.14926 0.124715
-0.185727 0.190684 -0.143276
-0.185687 0.186054 -0.110622
-0.185545 0.169586 0.0055424
-0.185513 0.169643 0.03144
-0.185388 0.154583 0.13534
-0.185649 0.189808 -0.0795164
-0.185483 0.169698 0.05624
-0.185613 0.189401 -0.0498506
-0.185454 0.16975 0.0800116
-0.185362 0.158256 0.155969
-0.155692 0.158043 0.171303
-0.144991 0.158802 0.171316
-0.185748 0.210442 -0.160221
-0.185727 0.207824 -0.143276
-0.185578 0.189012 -0.0215274
-0.185426 0.1698 0.102817
-0.185545 0.188641 0.00554228
-0.1854 0.169848 0.124715
-0.185513 0.188286 0.0314399
-0.185687 0.215321 -0.110622
-0.185668 0.212739 -0.094883
-0.185483 0.187945 0.05624
-0.185387 0.174968 0.135339
-0.185748 0.227798 -0.160221
-0.185613 0.209338 -0.0498507
-0.185454 0.187619 0.0800109
-0.185727 0.229249 -0.143277
-0.185578 0.208498 -0.0215275
-0.185413 0.185421 0.113876
-0.185362 0.178246 0.155969
-0.155692 0.178007 0.171303
-0.144991 0.178861 0.171315
-0.185668 0.225132 -0.094883
-0.185545 0.207696 0.00554216
-0.185387 0.18516 0.135338
-0.185687 0.236226 -0.110623
-0.185513 0.210656 0.0314398
-0.185748 0.249493 -0.160221
-0.185613 0.229275 -0.0498509
-0.185483 0.209842 0.0562398
-0.185727 0.250674 -0.143277
-0.185578 0.227984 -0.0215276
-0.185454 0.209061 0.0800107
-0.185668 0.245786 -0.0948832
-0.185426 0.208312 0.102816
-0.185362 0.198237 0.155969
-0.155692 0.19797 0.171303
-0.14499 0.198921 0.171315
-0.185545 0.230561 0.00554204
-0.1854 0.207593 0.124713
-0.185387 0.205545 0.135338
-0.185513 0.229298 0.0314397
-0.185748 0.271188 -0.160221
-0.185727 0.267814 -0.143277
-0.185613 0.249212 -0.0498512
-0.185483 0.228089 0.0562397
-0.185687 0.265493 -0.110623
-0.185668 0.26644 -0.0948833
-0.185578 0.251367 -0.0215278
-0.185454 0.230503 0.0800107
-0.185545 0.249616 0.00554192
-0.185426 0.229318 0.102815
-0.185362 0.218227 0.155969
-0.155692 0.217934 0.171303
-0.14499 0.21898 0.171315
-0.185748 0.288544 -0.160221
-0.185513 0.24794 0.0314395
-0.185399 0.22818 0.124712
-0.185727 0.289239 -0.143277
-0.185613 0.269149 -0.0498512
-0.185687 0.286399 -0.110623
-0.185483 0.249985 0.0562396
-0.185387 0.232725 0.135337
-0.185578 0.270853 -0.021528
-0.185454 0.248372 0.0800105
-0.185649 0.287774 -0.079517
-0.185545 0.268671 0.0055418
-0.185748 0.310239 -0.160221
-0.185426 0.250325 0.102815
-0.185362 0.238217 0.155969
-0.155691 0.237897 0.171303
-0.14499 0.239039 0.171315
-0.185727 0.310664 -0.143277
-0.185613 0.289086 -0.0498512
-0.185513 0.270311 0.0314394
-0.185399 0.248768 0.124711
-0.185483 0.268232 0.0562395
-0.185578 0.290339 -0.0215282
-0.185386 0.253109 0.135336
-0.185748 0.327595 -0.160222
-0.185687 0.315666 -0.110623
-0.185649 0.308184 -0.0795171
-0.185545 0.287725 0.00554156
-0.185454 0.269814 0.0800104
-0.185727 0.327805 -0.143278
-0.185426 0.26783 0.102815
-0.18563 0.312643 -0.0645105
-0.185513 0.288953 0.0314393
-0.185361 0.258208 0.155968
-0.155691 0.257861 0.171302
-0.14499 0.259099 0.171315
-0.185595 0.309429 -0.0355277
-0.185399 0.269356 0.124711
-0.185578 0.309825 -0.0215284
-0.185483 0.290129 0.0562392
-0.185747 0.34929 -0.160222
-0.185687 0.336571 -0.110623
-0.185668 0.332534 -0.0948839
-0.185453 0.287682 0.0800103
-0.185386 0.273494 0.135335
-0.185727 0.34923 -0.143278
-0.185545 0.310591 0.00554144
-0.18563 0.332813 -0.0645107
-0.185513 0.307595 0.0314391
-0.185426 0.288836 0.102815
-0.185595 0.329138 -0.0355278
-0.185361 0.278198 0.155967
-0.155691 0.277824 0.171302
-0.14499 0.279158 0.171315
-0.185578 0.329311 -0.0215284
-0.185483 0.308376 0.0562392
-0.185399 0.289944 0.12471
-0.185747 0.370986 -0.160224
-0.185667 0.353188 -0.0948842
-0.185726 0.370655 -0.143279
-0.185545 0.329646 0.00554132
-0.185453 0.309125 0.0800101
-0.185386 0.293879 0.135334
-0.185687 0.365837 -0.110622
-0.18563 0.352984 -0.0645108
-0.185668 0.365581 -0.094883
-0.185595 0.348846 -0.0355279
-0.185513 0.329966 0.0314389
-0.185425 0.309843 0.102815
-0.185578 0.348797 -0.0215285
-0.185361 0.298189 0.155967
-0.155691 0.297787 0.171302
-0.14499 0.299217 0.171314
-0.119617 0.302607 0.171343
-0.18563 0.365086 -0.0645102
-0.185482 0.330273 0.0562392
-0.185399 0.310532 0.12471
-0.185545 0.3487 0.00554121
-0.185703 0.391499 -0.126762
-0.185453 0.330567 0.0800099
-0.185386 0.314264 0.135334
-0.185666 0.386237 -0.0948887
-0.185596 0.368554 -0.0355253
-0.185513 0.348608 0.0314388
-0.185683 0.395109 -0.110637
-0.185578 0.368282 -0.021526
-0.185425 0.330849 0.102814
-0.130561 0.317969 0.171331
-0.18563 0.385257 -0.0645128
-0.185482 0.34852 0.0562391
-0.185399 0.327689 0.12471
-0.185361 0.318179 0.155966
-0.155691 0.317751 0.171302
-0.185545 0.367754 0.00554323
-0.185453 0.348435 0.0800099
-0.185595 0.388264 -0.0355289
-0.185386 0.334649 0.135334
-0.185578 0.387768 -0.0215284
-0.185514 0.370977 0.0314428
-0.185425 0.348354 0.102814
-0.185645 0.410236 -0.0795308
-0.185628 0.40543 -0.0645199
-0.134186 0.337613 0.171326
-0.185483 0.370415 0.0562423
-0.185399 0.348276 0.12471
-0.18536 0.33817 0.155965
-0.155691 0.337714 0.171302
-0.185545 0.39062 0.00554264
-0.185594 0.407974 -0.0355318
-0.185454 0.369876 0.0800129
-0.185514 0.38962 0.0314419
-0.185386 0.355033 0.135334
-0.185577 0.411152 -0.0215303
-0.185426 0.369359 0.102817
-0.185484 0.388662 0.0562437
-0.134186 0.35777 0.171326
-0.185545 0.409674 0.00554442
-0.185399 0.368863 0.124712
-0.18536 0.35816 0.155965
-0.155691 0.357678 0.171301
-0.1856 0.427674 -0.0355084
-0.185455 0.387743 0.0800163
-0.185514 0.408261 0.031443
-0.185582 0.430632 -0.0215149
-0.185388 0.375416 0.13534
-0.118927 0.380485 0.152149
-0.185428 0.390364 0.102821
-0.153751 0.376438 0.156876
-0.185551 0.42872 0.00556445
-0.185485 0.410556 0.0562478
-0.167215 0.37837 0.15458
-0.137208 0.387805 0.142357
-0.1227 0.393243 0.134003
-0.185401 0.389448 0.124718
-0.185456 0.409184 0.0800191
-0.163256 0.393384 0.133733
-0.144377 0.400747 0.122422
-0.129298 0.410555 0.102629
-0.185521 0.430623 0.0314645
-0.145979 0.413584 0.0963069
-0.185429 0.407868 0.102824
-0.170807 0.410343 0.103024
