ply
format ascii 1.0
comment Created by Open3D
element vertex 634
property double x
property double y
property double z
end_header
0.140114 -0.391487 -0.202962
0.12059 -0.392294 -0.202968
0.100985 -0.393103 -0.202974
0.0812985 -0.393916 -0.20298
0.0615308 -0.394733 -0.202986
0.041681 -0.395553 -0.202992
0.0217485 -0.396376 -0.202998
0.001733 -0.397203 -0.203004
-0.0183662 -0.398033 -0.203011
-0.0385497 -0.398866 -0.203017
-0.0588178 -0.399703 -0.203023
-0.0791712 -0.400544 -0.203029
-0.0996104 -0.401388 -0.203036
-0.120136 -0.402236 -0.203042
-0.140748 -0.403087 -0.203048
-0.157992 -0.403799 -0.203054
-0.00830615 -0.38098 -0.203008
-0.0284474 -0.381777 -0.203014
0.140114 -0.371831 -0.202962
0.0714249 -0.374526 -0.202983
0.041681 -0.375692 -0.202992
0.0217485 -0.376474 -0.202998
-0.0486731 -0.379237 -0.20302
-0.0689838 -0.380033 -0.203026
-0.08938 -0.380833 -0.203033
-0.109862 -0.381637 -0.203039
0.12059 -0.369314 -0.202968
0.100985 -0.366787 -0.202974
-0.130431 -0.375705 -0.203045
-0.147638 -0.376368 -0.20305
-0.00830615 -0.361016 -0.203008
-0.0284474 -0.361772 -0.203014
0.140114 -0.352175 -0.202962
0.0812985 -0.35436 -0.20298
0.0516162 -0.355463 -0.202989
0.0317251 -0.356202 -0.202995
0.0117512 -0.356944 -0.203001
-0.0486731 -0.359189 -0.20302
-0.0689838 -0.359943 -0.203026
-0.08938 -0.360701 -0.203033
-0.109862 -0.361462 -0.203039
0.12059 -0.349617 -0.202968
0.100985 -0.347049 -0.202974
-0.130431 -0.355487 -0.203045
-0.147638 -0.356115 -0.20305
-0.00830615 -0.341052 -0.203008
-0.0284474 -0.341766 -0.203014
-0.0486731 -0.342482 -0.20302
0.0911517 -0.334236 -0.202977
0.0714249 -0.334928 -0.202983
0.0516162 -0.335623 -0.202989
0.0317251 -0.336321 -0.202995
0.0117512 -0.337021 -0.203001
-0.0689838 -0.339854 -0.203026
-0.08938 -0.340569 -0.203033
-0.109862 -0.341288 -0.203039
0.153491 -0.332103 -0.193515
0.130362 -0.329581 -0.202965
0.110797 -0.326975 -0.202971
-0.130431 -0.33527 -0.203045
-0.147638 -0.335862 -0.20305
-0.00830615 -0.321088 -0.203008
-0.0284474 -0.32176 -0.203014
-0.0486731 -0.322435 -0.20302
0.0911517 -0.314478 -0.202977
0.0516162 -0.315783 -0.202989
0.0317251 -0.31644 -0.202995
0.0117512 -0.317099 -0.203001
-0.0689838 -0.319764 -0.203026
-0.08938 -0.320437 -0.203033
-0.109862 -0.321113 -0.203039
0.153491 -0.312276 -0.193515
0.130362 -0.309905 -0.202965
0.110797 -0.307258 -0.202971
-0.130431 -0.315053 -0.203045
-0.147638 -0.315609 -0.20305
0.0714249 -0.30523 -0.202983
-0.00830615 -0.301124 -0.203008
-0.0284474 -0.301754 -0.203014
-0.0486731 -0.302387 -0.20302
-0.130431 -0.304944 -0.203045
0.100985 -0.294416 -0.202974
0.0516162 -0.295943 -0.202989
0.0317251 -0.296559 -0.202995
0.0117512 -0.297177 -0.203001
-0.0689838 -0.299674 -0.203026
-0.08938 -0.300305 -0.203033
-0.109862 -0.300938 -0.203039
0.153491 -0.292449 -0.193515
0.130362 -0.290228 -0.202965
-0.147638 -0.295356 -0.20305
0.0812985 -0.285136 -0.20298
0.001733 -0.284191 -0.203004
-0.0183662 -0.281454 -0.203011
-0.0385497 -0.282044 -0.203017
-0.130431 -0.284727 -0.203045
0.110797 -0.274396 -0.202971
0.0911517 -0.274963 -0.202977
0.0615308 -0.275818 -0.202986
0.041681 -0.27639 -0.202992
0.0217485 -0.276966 -0.202998
-0.0588178 -0.279291 -0.203023
-0.0791712 -0.279878 -0.203029
-0.0996104 -0.280468 -0.203036
0.140114 -0.270274 -0.202962
-0.147638 -0.275103 -0.20305
0.001733 -0.264248 -0.203004
-0.0183662 -0.261469 -0.203011
-0.0385497 -0.262017 -0.203017
-0.130431 -0.26451 -0.203045
-0.147638 -0.264976 -0.20305
0.110797 -0.254679 -0.202971
0.0714249 -0.255733 -0.202983
0.0516162 -0.256264 -0.202989
0.0317251 -0.256797 -0.202995
-0.0588178 -0.259222 -0.203023
-0.0791712 -0.259767 -0.203029
-0.0996104 -0.260314 -0.203036
0.140114 -0.250617 -0.202962
0.0911517 -0.245326 -0.202977
0.001733 -0.244304 -0.203004
-0.0183662 -0.241484 -0.203011
-0.0385497 -0.24199 -0.203017
-0.0588178 -0.242498 -0.203023
-0.130431 -0.244292 -0.203045
-0.147638 -0.244723 -0.20305
0.110797 -0.234962 -0.202971
0.0714249 -0.235935 -0.202983
0.0516162 -0.236424 -0.202989
0.0317251 -0.236916 -0.202995
-0.0791712 -0.239656 -0.203029
-0.0996104 -0.240161 -0.203036
0.140114 -0.230961 -0.202962
0.0911517 -0.225568 -0.202977
0.001733 -0.224361 -0.203004
-0.0183662 -0.221499 -0.203011
-0.0385497 -0.221963 -0.203017
-0.0588178 -0.222429 -0.203023
-0.140748 -0.224312 -0.203048
-0.157992 -0.224708 -0.203054
0.0714249 -0.216136 -0.202983
0.0516162 -0.216584 -0.202989
0.0317251 -0.217035 -0.202995
-0.0791712 -0.219545 -0.203029
-0.0996104 -0.220008 -0.203036
-0.120136 -0.220472 -0.203042
0.140114 -0.211305 -0.202962
0.12059 -0.21174 -0.202968
0.100985 -0.205598 -0.202974
0.0117512 -0.204205 -0.203001
-0.00830615 -0.201304 -0.203008
-0.0284474 -0.201725 -0.203014
-0.0486731 -0.202148 -0.20302
-0.147638 -0.204217 -0.20305
0.0812985 -0.196134 -0.20298
0.0615308 -0.196541 -0.202986
0.041681 -0.196949 -0.202992
-0.0689838 -0.199225 -0.203026
-0.08938 -0.199644 -0.203033
-0.109862 -0.200065 -0.203039
0.140114 -0.191649 -0.202962
0.12059 -0.192043 -0.202968
-0.130431 -0.197119 -0.203045
0.154169 -0.193179 -0.177716
0.154901 -0.193179 -0.160676
0.100985 -0.185861 -0.202974
0.0117512 -0.184283 -0.203001
-0.00830615 -0.18134 -0.203008
-0.0284474 -0.181719 -0.203014
-0.0486731 -0.1821 -0.20302
-0.0689838 -0.182483 -0.203026
-0.157992 -0.18416 -0.203054
0.0812985 -0.176356 -0.20298
0.0615308 -0.176721 -0.202986
0.041681 -0.177088 -0.202992
-0.08938 -0.179512 -0.203033
-0.109862 -0.179891 -0.203039
0.140114 -0.171992 -0.202962
0.12059 -0.172347 -0.202968
-0.130431 -0.176901 -0.203045
0.100985 -0.166123 -0.202974
0.0217485 -0.164189 -0.202998
0.001733 -0.164532 -0.203004
-0.0183662 -0.161545 -0.203011
-0.0385497 -0.161883 -0.203017
-0.0588178 -0.162223 -0.203023
0.0812985 -0.156578 -0.20298
0.0615308 -0.156902 -0.202986
0.041681 -0.157228 -0.202992
-0.0791712 -0.159212 -0.203029
-0.0996104 -0.159548 -0.203036
-0.120136 -0.159885 -0.203042
0.140114 -0.152336 -0.202962
-0.140748 -0.15685 -0.203048
-0.157992 -0.157127 -0.203054
0.12059 -0.149367 -0.202968
0.100985 -0.146386 -0.202974
0.0217485 -0.144287 -0.202998
0.001733 -0.144588 -0.203004
-0.0183662 -0.14156 -0.203011
-0.0385497 -0.141856 -0.203017
-0.0588178 -0.142154 -0.203023
-0.0791712 -0.142453 -0.203029
0.0812985 -0.136799 -0.20298
0.0615308 -0.137083 -0.202986
0.041681 -0.137368 -0.202992
-0.0996104 -0.139394 -0.203036
-0.120136 -0.139689 -0.203042
-0.140748 -0.136611 -0.203048
-0.157992 -0.136852 -0.203054
0.140114 -0.129404 -0.202962
0.12059 -0.12967 -0.202968
0.100985 -0.126648 -0.202974
0.0317251 -0.124256 -0.202995
0.0117512 -0.124515 -0.203001
-0.00830615 -0.121448 -0.203008
-0.0284474 -0.121702 -0.203014
-0.0486731 -0.121957 -0.20302
-0.0689838 -0.122213 -0.203026
-0.08938 -0.122471 -0.203033
0.0812985 -0.117021 -0.20298
0.0615308 -0.117264 -0.202986
-0.109862 -0.119367 -0.203039
-0.130431 -0.116249 -0.203045
-0.147638 -0.116455 -0.20305
0.140114 -0.109747 -0.202962
0.12059 -0.109974 -0.202968
0.100985 -0.106911 -0.202974
0.041681 -0.104267 -0.202992
0.0217485 -0.104484 -0.202998
0.001733 -0.104702 -0.203004
-0.0183662 -0.10159 -0.203011
-0.0385497 -0.101803 -0.203017
-0.0588178 -0.102016 -0.203023
-0.0791712 -0.102231 -0.203029
-0.0996104 -0.102446 -0.203036
0.0812985 -0.097243 -0.20298
0.0615308 -0.0974445 -0.202986
-0.120136 -0.0992967 -0.203042
0.146944 -0.094243 -0.193518
-0.140748 -0.0961337 -0.203048
-0.157992 -0.0963036 -0.203054
0.130362 -0.0901839 -0.202965
0.110797 -0.0870837 -0.202971
0.0615308 -0.0842317 -0.202986
0.041681 -0.0844066 -0.202992
0.0217485 -0.0845823 -0.202998
0.001733 -0.0847587 -0.203004
-0.0183662 -0.081605 -0.203011
-0.0385497 -0.0817759 -0.203017
-0.0588178 -0.0819475 -0.203023
-0.0791712 -0.0821199 -0.203029
-0.0996104 -0.0822929 -0.203036
-0.120136 -0.0824667 -0.203042
0.0911517 -0.0773847 -0.202977
0.153491 -0.0743515 -0.193515
-0.140748 -0.0758951 -0.203048
-0.157992 -0.0760292 -0.203054
0.130362 -0.0705074 -0.202965
0.110797 -0.0673666 -0.202971
0.0911517 -0.0642129 -0.202977
0.0714249 -0.0643458 -0.202983
0.0516162 -0.0644793 -0.202989
0.0317251 -0.0646134 -0.202995
0.0117512 -0.064748 -0.203001
-0.00830615 -0.0615558 -0.203008
-0.0284474 -0.0616846 -0.203014
-0.0486731 -0.0618139 -0.20302
-0.0689838 -0.0619438 -0.203026
-0.08938 -0.0620742 -0.203033
-0.109862 -0.0622051 -0.203039
0.153491 -0.0545244 -0.193515
0.110797 -0.0542219 -0.202971
-0.130431 -0.0555975 -0.203045
-0.147638 -0.0556957 -0.20305
0.130362 -0.0508309 -0.202965
0.0911517 -0.0444551 -0.202977
0.0714249 -0.0445471 -0.202983
0.0516162 -0.0446395 -0.202989
0.0317251 -0.0447323 -0.202995
0.0117512 -0.0448255 -0.203001
-0.00830615 -0.0415918 -0.203008
-0.0284474 -0.0416788 -0.203014
-0.0486731 -0.0417661 -0.20302
-0.0689838 -0.0418539 -0.203026
-0.08938 -0.041942 -0.203033
-0.109862 -0.0420305 -0.203039
0.153627 -0.0414813 -0.107161
0.153587 -0.0414836 -0.00907016
0.110797 -0.0345049 -0.202971
-0.130431 -0.0353803 -0.203045
-0.147638 -0.0354427 -0.20305
0.153491 -0.0313928 -0.193515
0.130362 -0.0311545 -0.202965
0.0911517 -0.0246972 -0.202977
0.0714249 -0.0247484 -0.202983
0.0516162 -0.0247997 -0.202989
0.0317251 -0.0248513 -0.202995
0.0117512 -0.0249031 -0.203001
-0.00830615 -0.0216277 -0.203008
-0.0284474 -0.021673 -0.203014
-0.0486731 -0.0217184 -0.20302
-0.0689838 -0.021764 -0.203026
-0.08938 -0.0218098 -0.203033
-0.109862 -0.0218558 -0.203039
0.110797 -0.0147878 -0.202971
-0.130431 -0.015163 -0.203045
-0.147638 -0.0151897 -0.20305
0.153491 -0.0115658 -0.193515
0.130362 -0.011478 -0.202965
0.0911517 -0.00493946 -0.202977
0.0714249 -0.00494968 -0.202983
0.0516162 -0.00495995 -0.202989
0.0317251 -0.00497027 -0.202995
0.0117512 -0.00498062 -0.203001
-0.00830615 -0.00166368 -0.203008
-0.0284474 -0.00166716 -0.203014
-0.0486731 -0.00167066 -0.20302
-0.0689838 -0.00167417 -0.203026
-0.08938 -0.00167769 -0.203033
-0.109862 -0.00168123 -0.203039
-0.130431 0.00505431 -0.203045
-0.147638 0.00506323 -0.20305
0.153491 0.00826128 -0.193515
0.130362 0.00819854 -0.202965
0.110797 0.0147878 -0.202971
-0.00830615 0.0183004 -0.203008
-0.0284474 0.0183387 -0.203014
-0.0486731 0.0183771 -0.20302
-0.0689838 0.0184157 -0.203026
-0.08938 0.0184545 -0.203033
-0.109862 0.0184934 -0.203039
0.0911517 0.0246973 -0.202977
0.0714249 0.0247484 -0.202983
0.0516162 0.0247997 -0.202989
0.0317251 0.0248513 -0.202995
0.0117512 0.0249031 -0.203001
-0.130431 0.0252716 -0.203045
-0.147638 0.0253162 -0.20305
0.153491 0.0280883 -0.193515
0.130362 0.027875 -0.202965
0.110797 0.0345048 -0.202971
-0.00830615 0.0382644 -0.203008
-0.0284474 0.0383445 -0.203014
-0.0486731 0.0384249 -0.20302
-0.0689838 0.0385056 -0.203026
-0.08938 0.0385867 -0.203033
-0.109862 0.0386681 -0.203039
0.0911517 0.0444551 -0.202977
0.0714249 0.0445471 -0.202983
0.0516162 0.0446395 -0.202989
0.0317251 0.0447323 -0.202995
0.0117512 0.0448255 -0.203001
-0.130431 0.0454889 -0.203045
-0.147638 0.0455692 -0.20305
0.153491 0.0479154 -0.193515
0.130362 0.0475515 -0.202965
0.110797 0.0542219 -0.202971
-0.00830615 0.0582284 -0.203008
-0.0284474 0.0583503 -0.203014
-0.0486731 0.0584726 -0.20302
-0.0689838 0.0585954 -0.203026
-0.08938 0.0587188 -0.203033
-0.109862 0.0588427 -0.203039
0.0911517 0.0642128 -0.202977
0.0714249 0.0643458 -0.202983
0.0516162 0.0644793 -0.202989
0.0317251 0.0646133 -0.202995
0.0117512 0.0647479 -0.203001
-0.130431 0.0657062 -0.203045
-0.147638 0.0658221 -0.20305
0.153491 0.0677425 -0.193515
0.130362 0.0705074 -0.202965
0.110797 0.073939 -0.202971
-0.00830615 0.0781925 -0.203008
-0.0284474 0.0783561 -0.203014
-0.0486731 0.0785204 -0.20302
-0.0689838 0.0786853 -0.203026
-0.08938 0.078851 -0.203033
-0.109862 0.0790173 -0.203039
0.0911517 0.0839707 -0.202977
0.0714249 0.0841445 -0.202983
0.0516162 0.0843191 -0.202989
0.0317251 0.0844944 -0.202995
0.0117512 0.0846704 -0.203001
0.153491 0.0875695 -0.193515
0.130362 0.0901839 -0.202965
-0.130431 0.0926626 -0.203045
-0.147638 0.0928261 -0.20305
0.110797 0.093656 -0.202971
-0.00830615 0.0981565 -0.203008
-0.0284474 0.0983619 -0.203014
-0.0486731 0.0985681 -0.20302
-0.0689838 0.0987752 -0.203026
-0.08938 0.0989831 -0.203033
-0.109862 0.099192 -0.203039
0.0911517 0.103728 -0.202977
0.0714249 0.103943 -0.202983
0.0516162 0.104159 -0.202989
0.0317251 0.104375 -0.202995
0.0117512 0.104593 -0.203001
0.143668 0.107507 -0.193519
0.153245 0.119703 -0.116857
0.12059 0.109974 -0.202968
-0.130431 0.11288 -0.203045
-0.147638 0.113079 -0.20305
0.152073 0.119703 -0.146527
0.154321 0.119704 -0.174189
-0.00830615 0.118121 -0.203008
-0.0284474 0.118368 -0.203014
-0.0486731 0.118616 -0.20302
-0.0689838 0.118865 -0.203026
-0.08938 0.119115 -0.203033
-0.109862 0.119367 -0.203039
0.100985 0.123359 -0.202974
0.0812985 0.123614 -0.20298
0.0615308 0.12387 -0.202986
0.041681 0.124127 -0.202992
0.0217485 0.124386 -0.202998
0.153491 0.130528 -0.193515
0.130362 0.129537 -0.202965
-0.130431 0.133097 -0.203045
-0.147638 0.133332 -0.20305
-0.00830615 0.138085 -0.203008
-0.0284474 0.138374 -0.203014
-0.0486731 0.138664 -0.20302
-0.0689838 0.138955 -0.203026
-0.08938 0.139247 -0.203033
-0.109862 0.139541 -0.203039
0.110797 0.142949 -0.202971
0.0911517 0.143244 -0.202977
0.0714249 0.143541 -0.202983
0.0516162 0.143838 -0.202989
0.0317251 0.144137 -0.202995
0.0117512 0.144438 -0.203001
0.153491 0.150355 -0.193515
0.130362 0.149213 -0.202965
-0.130431 0.153314 -0.203045
-0.147638 0.153585 -0.20305
-0.00830615 0.158049 -0.203008
-0.0284474 0.158379 -0.203014
-0.0486731 0.158711 -0.20302
-0.0689838 0.159045 -0.203026
-0.08938 0.15938 -0.203033
-0.109862 0.159716 -0.203039
0.110797 0.162666 -0.202971
0.0911517 0.163002 -0.202977
0.0714249 0.163339 -0.202983
0.0516162 0.163678 -0.202989
0.0317251 0.164019 -0.202995
0.0117512 0.16436 -0.203001
0.153491 0.170182 -0.193515
0.130362 0.16889 -0.202965
-0.130431 0.173532 -0.203045
-0.147638 0.173838 -0.20305
-0.00830615 0.178013 -0.203008
-0.0284474 0.178385 -0.203014
-0.0486731 0.178759 -0.20302
-0.0689838 0.179135 -0.203026
-0.08938 0.179512 -0.203033
-0.109862 0.17989 -0.203039
0.104258 0.182508 -0.202973
0.0845851 0.182886 -0.202979
0.0648311 0.183265 -0.202985
0.044995 0.183645 -0.202991
0.015086 0.184219 -0.203
0.153491 0.190009 -0.193515
0.130362 0.188566 -0.202965
-0.133868 0.193817 -0.203046
-0.154538 0.194228 -0.203053
0.110797 0.195528 -0.202971
0.001733 0.19777 -0.203004
-0.0183662 0.198184 -0.203011
-0.0385497 0.198599 -0.203017
-0.0588178 0.199015 -0.203023
-0.0791712 0.199434 -0.203029
-0.0996104 0.199854 -0.203036
0.0911517 0.202517 -0.202977
0.0714249 0.202937 -0.202983
0.0516162 0.203358 -0.202989
0.0317251 0.203781 -0.202995
0.153491 0.209836 -0.193515
0.130362 0.208243 -0.202965
-0.120136 0.21374 -0.203042
-0.140748 0.214193 -0.203048
-0.157992 0.214571 -0.203054
0.110797 0.215245 -0.202971
0.00507472 0.217638 -0.203003
-0.0150105 0.218093 -0.20301
-0.0351799 0.218549 -0.203016
-0.0554339 0.219008 -0.203022
-0.075773 0.219468 -0.203028
-0.103025 0.220085 -0.203037
0.0812985 0.222505 -0.20298
0.0615308 0.222966 -0.202986
0.041681 0.223429 -0.202992
0.153491 0.229663 -0.193515
0.130362 0.227919 -0.202965
-0.120136 0.233936 -0.203042
-0.140748 0.234431 -0.203048
-0.157992 0.234846 -0.203054
0.100985 0.235204 -0.202974
0.00507472 0.237574 -0.203003
-0.0150105 0.23807 -0.20301
-0.0351799 0.238569 -0.203016
-0.0554339 0.239069 -0.203022
-0.075773 0.239572 -0.203028
-0.103025 0.243606 -0.203037
0.0714249 0.242534 -0.202983
0.0516162 0.243037 -0.202989
0.0317251 0.243543 -0.202995
0.153491 0.249491 -0.193515
0.133615 0.247511 -0.202964
-0.123565 0.254222 -0.203043
-0.144192 0.25476 -0.20305
0.0944316 0.255117 -0.202976
0.00507472 0.257511 -0.203003
-0.0150105 0.258048 -0.20301
-0.0351799 0.258589 -0.203016
-0.0554339 0.259131 -0.203022
-0.075773 0.259676 -0.203028
-0.103025 0.263766 -0.203037
-0.154538 0.265164 -0.203053
0.154836 0.271403 -0.162171
0.0648311 0.262514 -0.202985
0.044995 0.263059 -0.202991
0.14426 0.271405 -0.175312
-0.120136 0.274328 -0.203042
0.140114 0.270274 -0.202962
0.12059 0.274113 -0.202968
0.0812985 0.275247 -0.20298
0.001733 0.277543 -0.203004
-0.0183662 0.278123 -0.203011
-0.0385497 0.278706 -0.203017
-0.0588178 0.279291 -0.203023
-0.0791712 0.279878 -0.203029
0.0317251 0.279991 -0.202995
-0.0996104 0.283827 -0.203036
-0.140748 0.285028 -0.203048
-0.157992 0.285532 -0.203054
0.0582282 0.282522 -0.202987
0.100985 0.284548 -0.202974
-0.120136 0.294524 -0.203042
0.150219 0.292549 -0.193516
0.130362 0.290228 -0.202965
0.0812985 0.295025 -0.20298
-0.00161104 0.29759 -0.203006
-0.0183662 0.298108 -0.203011
-0.0385497 0.298732 -0.203017
-0.0588178 0.299359 -0.203023
-0.0791712 0.299989 -0.203029
0.035046 0.299768 -0.202994
0.015086 0.300393 -0.203
-0.0996104 0.30398 -0.203036
-0.140748 0.305267 -0.203048
0.153491 0.305667 -0.193515
0.110797 0.303971 -0.202971
0.0615308 0.305546 -0.202986
-0.157992 0.312564 -0.203054
-0.120136 0.31472 -0.203042
0.130362 0.309905 -0.202965
-0.00161104 0.31754 -0.203006
-0.0183662 0.318093 -0.203011
-0.0385497 0.318759 -0.203017
-0.0588178 0.319428 -0.203023
-0.0791712 0.3201 -0.203029
0.041681 0.319421 -0.202992
0.0217485 0.320086 -0.202998
-0.0996104 0.324133 -0.203036
-0.130431 0.325161 -0.203045
0.153491 0.325494 -0.193515
0.110797 0.323688 -0.202971
0.0911517 0.324357 -0.202977
0.0714249 0.325029 -0.202983
-0.151087 0.332604 -0.203052
0.130362 0.329581 -0.202965
0.0516162 0.335623 -0.202989
-0.00495745 0.337608 -0.203007
-0.0150105 0.33796 -0.20301
-0.0351799 0.338668 -0.203016
-0.0554339 0.339378 -0.203022
-0.075773 0.340092 -0.203028
0.161059 0.401766 -0.0172179
0.0317251 0.339634 -0.202995
-0.103025 0.344408 -0.203037
-0.123565 0.345135 -0.203043
0.160136 0.401768 -0.0387141
0.110797 0.343406 -0.202971
0.0911517 0.344115 -0.202977
-0.144192 0.352615 -0.20305
0.159248 0.401769 -0.0594028
0.140114 0.348899 -0.202962
0.0714249 0.354727 -0.202983
0.0516162 0.355463 -0.202989
-0.00495745 0.357565 -0.203007
-0.0150105 0.357938 -0.20301
-0.0351799 0.358688 -0.203016
-0.0554339 0.35944 -0.203022
-0.075773 0.360196 -0.203028
-0.157992 0.36325 -0.203054
0.162073 0.401767 -0.0789722
0.0317251 0.359515 -0.202995
-0.103025 0.364568 -0.203037
-0.123565 0.365339 -0.203043
0.161182 0.401768 -0.0981834
0.12059 0.362749 -0.202968
0.100985 0.363497 -0.202974
-0.137307 0.372598 -0.203047
0.149673 0.401772 -0.117757
0.140114 0.368555 -0.202962
0.0812985 0.374138 -0.20298
0.0516162 0.375303 -0.202989
-0.00495745 0.377522 -0.203007
-0.0150105 0.377916 -0.20301
-0.0351799 0.378707 -0.203016
-0.0554339 0.379502 -0.203022
-0.075773 0.3803 -0.203028
0.149029 0.401772 -0.135623
0.0317251 0.379396 -0.202995
-0.103025 0.384729 -0.203037
-0.123565 0.385542 -0.203043
0.117328 0.382577 -0.202969
0.104258 0.383103 -0.202973
-0.140748 0.392968 -0.203048
-0.157992 0.393662 -0.203054
0.161701 0.401769 -0.159943
0.140114 0.388211 -0.202962
0.147515 0.401771 -0.177671
0.0845851 0.393781 -0.202979
0.0549233 0.395006 -0.202988
-0.00830615 0.397617 -0.203008
-0.0284474 0.398449 -0.203014
-0.0486731 0.399284 -0.20302
-0.0689838 0.400123 -0.203026
