ply
format ascii 1.0
comment Created by Open3D
element vertex 654
property double x
property double y
property double z
end_header
0.190773 -0.197013 0.41597
0.172023 -0.197249 0.416
0.196206 -0.196949 0.395264
0.190773 -0.17717 0.41597
0.172024 -0.177092 0.416001
0.196211 -0.176822 0.395267
0.190773 -0.157327 0.41597
0.172024 -0.156935 0.416001
0.196211 -0.156696 0.395267
-0.194378 -0.197162 0.416575
-0.171738 -0.194405 0.415911
-0.172 -0.196027 0.404189
-0.186323 -0.184942 0.416561
0.137742 -0.146594 0.416053
0.112035 -0.146613 0.416093
0.190773 -0.137484 0.41597
-0.170385 -0.177076 0.404992
0.0852396 -0.146633 0.416135
0.167242 -0.137321 0.416007
0.196211 -0.13657 0.395267
0.0572835 -0.146654 0.416178
0.0280904 -0.146675 0.416224
0.139026 -0.136604 0.39907
-0.172238 -0.164863 0.415669
-0.00242406 -0.146698 0.416271
0.114209 -0.136604 0.395951
-0.0343515 -0.146722 0.416321
0.0836515 -0.136604 0.396957
-0.060978 -0.146054 0.416362
0.0469459 -0.136605 0.402376
-0.194379 -0.155852 0.416574
-0.172219 -0.154988 0.40408
-0.0957086 -0.146063 0.416416
-0.0816169 -0.144665 0.416394
0.0157065 -0.136605 0.401349
0.19537 -0.117185 0.415963
-0.132159 -0.146073 0.416473
-0.017071 -0.136605 0.400274
0.172024 -0.116621 0.416001
0.196211 -0.116444 0.395267
-0.154909 -0.144614 0.416508
-0.0515082 -0.136604 0.399145
0.174306 -0.195829 -0.391048
0.18506 -0.194795 -0.390886
0.197463 -0.195414 -0.40846
-0.194379 -0.144585 0.416574
-0.0851305 -0.136603 0.39555
-0.125891 -0.136603 0.396706
-0.172238 -0.135225 0.415669
0.196211 -0.104943 0.395267
0.174173 -0.176033 -0.391308
0.195394 -0.174232 -0.391342
0.197463 -0.175625 -0.408459
0.19537 -0.0974189 0.415963
-0.172238 -0.12411 0.415669
-0.172219 -0.125111 0.40408
0.172024 -0.0964647 0.416001
-0.191275 -0.195353 -0.390397
-0.170497 -0.194644 -0.401466
-0.189622 -0.183397 -0.38832
0.174173 -0.156198 -0.391308
0.195394 -0.154601 -0.391342
0.197463 -0.155836 -0.408459
-0.194379 -0.114542 0.416574
-0.172219 -0.113907 0.40408
0.196211 -0.084817 0.395267
-0.170951 -0.172203 -0.411547
0.0963093 -0.146628 -0.391188
0.119146 -0.145072 -0.391224
0.141503 -0.143548 -0.391258
-0.176804 -0.159438 -0.390764
0.0185845 -0.146593 -0.391068
0.0430912 -0.144982 -0.391106
0.0551436 -0.144189 -0.391125
0.0847062 -0.142246 -0.39117
0.157965 -0.137429 -0.391284
0.179519 -0.136012 -0.391317
0.197463 -0.136048 -0.408459
0.172024 -0.0763079 0.416001
0.190773 -0.0751202 0.41597
-0.0649651 -0.146555 -0.390939
-0.0385984 -0.144885 -0.39098
-0.0192142 -0.143657 -0.39101
0.113759 -0.136598 -0.411181
-0.172238 -0.094472 0.415669
-0.155019 -0.146514 -0.3908
-0.140711 -0.145642 -0.390822
-0.1126 -0.143929 -0.390865
-0.0919468 -0.142669 -0.390897
0.0302357 -0.136598 -0.411998
0.195394 -0.125153 -0.391342
-0.191553 -0.142909 -0.390746
-0.0641988 -0.136599 -0.409109
-0.162402 -0.136598 -0.409906
0.174173 -0.116529 -0.391308
0.197463 -0.116259 -0.408459
-0.194379 -0.0844979 0.416574
-0.172219 -0.0840298 0.40408
0.196211 -0.064691 0.395267
-0.170963 -0.124978 -0.402069
0.195394 -0.105521 -0.391342
0.172024 -0.0561511 0.416001
0.190773 -0.0552771 0.41597
-0.191553 -0.113744 -0.390746
0.174173 -0.0966943 -0.391308
0.197463 -0.0964702 -0.408459
-0.172238 -0.0648337 0.415669
-0.170963 -0.101726 -0.402069
0.195394 -0.0858892 -0.391342
-0.191553 -0.0904117 -0.390746
0.174173 -0.0768596 -0.391308
0.197463 -0.0766814 -0.408459
-0.194379 -0.0544542 0.416574
-0.172219 -0.0541525 0.40408
-0.170963 -0.0784747 -0.402069
0.195394 -0.0662574 -0.391342
0.172024 -0.0359943 0.416001
0.190773 -0.0354341 0.41597
0.196211 -0.0359394 0.395267
-0.191553 -0.0670797 -0.390746
0.174173 -0.0570249 -0.391308
0.197463 -0.0568927 -0.408459
-0.172238 -0.0351954 0.415669
-0.170963 -0.0552229 -0.402069
0.195394 -0.0466256 -0.391342
-0.191553 -0.0437476 -0.390746
-0.170963 -0.043597 -0.402069
0.174173 -0.0371901 -0.391308
0.197463 -0.0371039 -0.408459
-0.194379 -0.0244105 0.416574
-0.172238 -0.0240811 0.415669
-0.172219 -0.0242753 0.40408
0.172024 -0.0158375 0.416001
0.190773 -0.015591 0.41597
0.196211 -0.0158133 0.395267
0.195394 -0.0269937 -0.391342
-0.191553 -0.0204156 -0.390746
-0.170963 -0.0203453 -0.402069
0.174173 -0.0173554 -0.391308
0.197463 -0.0173152 -0.408459
0.195394 -0.00736194 -0.391342
-0.191553 0.00291653 -0.390746
-0.170963 0.00290649 -0.402069
-0.194379 0.00563318 0.416574
-0.172238 0.00555716 0.415669
-0.172219 0.00560197 0.40408
0.172024 0.0043193 0.416001
0.190773 0.00425207 0.41597
0.196211 0.00431272 0.395267
0.174173 0.007438 -0.391308
0.195394 0.00736191 -0.391342
0.197463 0.00742076 -0.408459
-0.191553 0.0262486 -0.390746
-0.170963 0.0261582 -0.402069
0.174173 0.0272728 -0.391308
0.195394 0.0269938 -0.391342
0.197463 0.0272096 -0.408459
0.172024 0.0244761 0.416001
0.190773 0.0240951 0.41597
0.196211 0.0244388 0.395267
-0.191553 0.0495806 -0.390746
-0.170963 0.04941 -0.402069
-0.194379 0.0356769 0.416574
-0.172238 0.0351954 0.415669
-0.172219 0.0354793 0.40408
0.174173 0.0471075 -0.391308
0.195394 0.0466256 -0.391342
0.197463 0.0469983 -0.408459
-0.191553 0.0729126 -0.390746
-0.170963 0.0726617 -0.402069
0.174173 0.0669422 -0.391308
0.195394 0.0662574 -0.391342
0.197463 0.0667871 -0.408459
0.172024 0.0446329 0.416001
0.190773 0.0439382 0.41597
0.196211 0.0445649 0.395267
-0.176804 0.089865 -0.390764
-0.170951 0.0963168 -0.411547
-0.194379 0.0657206 0.416574
-0.172238 0.0648337 0.415669
-0.172219 0.0653565 0.40408
0.174173 0.0867769 -0.391308
0.195394 0.0858892 -0.391342
0.197463 0.0865758 -0.408459
-0.191553 0.107911 -0.390746
-0.170963 0.119165 -0.402069
0.174173 0.106612 -0.391308
0.195394 0.105521 -0.391342
0.197463 0.106365 -0.408459
-0.172238 0.0833576 0.415669
0.172024 0.0647897 0.416001
0.190773 0.0637813 0.41597
0.196211 0.064691 0.395267
-0.191553 0.131243 -0.390746
-0.142736 0.129877 -0.412511
-0.157112 0.136457 -0.41249
0.157557 0.118779 -0.412977
-0.121493 0.140177 -0.412547
-0.194379 0.0957643 0.416574
-0.172219 0.0952338 0.40408
-0.193073 0.144197 -0.320302
-0.1862 0.144979 -0.338555
-0.186172 0.146158 -0.356484
-0.176804 0.147842 -0.390764
-0.13785 0.146464 -0.405961
-0.102822 0.144329 -0.406015
0.140995 0.129897 -0.412951
0.174173 0.126446 -0.391308
0.195394 0.125153 -0.391342
0.197463 0.126153 -0.408459
0.190773 0.0751202 0.41597
-0.193824 0.144196 -0.236947
-0.186308 0.145956 -0.269639
-0.186268 0.147687 -0.294972
-0.0822909 0.148688 -0.406047
-0.0621129 0.14741 -0.406078
-0.042279 0.146153 -0.406109
-0.0163538 0.144511 -0.406149
-0.19452 0.144196 -0.159654
-0.186434 0.14577 -0.189323
-0.186397 0.147433 -0.212777
-0.196324 0.155994 -0.324158
-0.196239 0.159815 -0.378043
-0.170951 0.160528 -0.411547
-0.122228 0.157462 -0.413554
-0.101337 0.156089 -0.413587
0.00271112 0.148711 -0.406178
0.0152447 0.147887 -0.406198
0.0399001 0.146266 -0.406236
0.0580399 0.145073 -0.406264
0.0781624 0.144193 -0.412534
0.157554 0.138997 -0.412984
-0.172238 0.105586 0.415669
-0.195168 0.144196 -0.0877867
-0.186562 0.145072 -0.107674
-0.186528 0.14666 -0.129292
-0.196442 0.156071 -0.247993
-0.196296 0.162965 -0.341831
-0.0212953 0.156311 -0.413711
0.0992371 0.147542 -0.406327
0.122095 0.145984 -0.406363
0.172024 0.0849465 0.416001
0.196211 0.084817 0.395267
-0.195771 0.144195 -0.0207916
-0.18667 0.14493 -0.0388779
-0.186639 0.146461 -0.0590079
-0.196268 0.170049 -0.359791
-0.176803 0.171033 -0.390762
-0.150661 0.170919 -0.41351
0.174173 0.146281 -0.391308
0.197447 0.145131 -0.397797
-0.196335 0.144195 0.0418101
-0.186761 0.145287 0.0190641
-0.196589 0.159654 -0.154281
-0.196404 0.168973 -0.272789
-0.196378 0.170298 -0.289643
-0.177942 0.172015 -0.328546
-0.161422 0.172015 -0.343875
-0.149033 0.172016 -0.355372
-0.128384 0.172017 -0.374535
-0.111865 0.172017 -0.389865
-0.0740432 0.171126 -0.413629
-0.0539808 0.169663 -0.41366
0.0773934 0.160084 -0.413863
0.187994 0.1442 -0.314725
0.197339 0.144433 -0.326356
0.19737 0.145995 -0.346214
0.197402 0.14759 -0.366506
-0.186856 0.145147 0.0794466
-0.186828 0.146584 0.0617502
-0.196701 0.159042 -0.0822793
-0.196566 0.16611 -0.169321
-0.196517 0.168608 -0.20008
-0.19648 0.170532 -0.223763
-0.177527 0.172015 -0.259585
-0.161531 0.172015 -0.274426
-0.149534 0.172016 -0.285557
-0.12954 0.172016 -0.30411
-0.113545 0.172017 -0.318954
-0.0895526 0.172018 -0.341219
-0.0695586 0.172019 -0.359773
-0.0535635 0.172019 -0.374617
-0.0375681 0.17202 -0.389461
-0.00212097 0.171321 -0.41374
0.0229517 0.169433 -0.413779
0.0352819 0.168504 -0.413798
0.188677 0.144199 -0.257212
0.197264 0.145284 -0.278522
-0.194076 0.14419 0.152466
-0.196826 0.157393 -0.00234306
-0.196796 0.159016 -0.0217088
-0.196765 0.160672 -0.0414783
-0.196668 0.165855 -0.103338
-0.196646 0.167053 -0.11763
-0.18489 0.172015 -0.187676
-0.16551 0.172016 -0.205656
-0.150006 0.172016 -0.220041
-0.134502 0.172016 -0.234425
-0.118998 0.172017 -0.24881
-0.103495 0.172017 -0.263196
-0.0879921 0.172018 -0.277582
-0.0724891 0.172019 -0.291969
-0.0569862 0.172019 -0.306356
-0.041483 0.17202 -0.320743
-0.0259798 0.17202 -0.33513
-0.0143522 0.172021 -0.34592
0.005027 0.172022 -0.363904
0.0205306 0.172022 -0.378291
0.0360323 0.172023 -0.392682
0.189318 0.144198 -0.20324
0.197166 0.144624 -0.215592
-0.194379 0.125808 0.416574
-0.172219 0.125111 0.40408
-0.19464 0.14419 0.204287
-0.18702 0.145338 0.183937
-0.196885 0.158992 0.0352273
-0.196734 0.167359 -0.0616642
-0.184293 0.172015 -0.127037
-0.15421 0.172016 -0.154946
-0.139169 0.172016 -0.168901
-0.124127 0.172017 -0.182856
-0.105325 0.172017 -0.2003
-0.0940448 0.172017 -0.210767
-0.0752447 0.172018 -0.228213
-0.0639645 0.172019 -0.238681
-0.0414041 0.17202 -0.259617
-0.0188434 0.172021 -0.280553
-4.25577e-05 0.172021 -0.297999
0.0187585 0.172022 -0.315446
0.0375596 0.172023 -0.332893
0.0601211 0.172024 -0.35383
0.189921 0.144197 -0.15249
0.197099 0.14542 -0.173286
0.197464 0.165731 -0.408458
-0.195171 0.144189 0.253104
-0.187099 0.145209 0.234171
-0.196856 0.165391 0.0166318
-0.180079 0.172016 -0.0733008
-0.161822 0.172016 -0.0902385
-0.139914 0.172017 -0.110564
-0.121657 0.172017 -0.127502
-0.0997484 0.172017 -0.147827
-0.0814915 0.172018 -0.164765
-0.0595851 0.172019 -0.185094
-0.0449806 0.172019 -0.198646
-0.0267252 0.17202 -0.215586
-0.00846946 0.172021 -0.232527
0.00978649 0.172022 -0.249468
0.0280426 0.172022 -0.266409
0.0536013 0.172023 -0.290127
0.187422 0.144198 -0.101851
0.197024 0.145482 -0.125179
0.197193 0.155082 -0.233116
0.197221 0.156673 -0.250999
0.197309 0.161647 -0.306919
0.197339 0.163375 -0.326356
0.19737 0.165142 -0.346214
-0.154911 0.12997 0.416507
-0.195673 0.144189 0.299171
-0.187173 0.145087 0.281493
-0.197081 0.156972 0.161005
-0.196941 0.16518 0.0713239
-0.176102 0.172016 -0.0225918
-0.158359 0.172016 -0.0390522
-0.140617 0.172017 -0.0555128
-0.119326 0.172017 -0.0752657
-0.0944859 0.172018 -0.0983107
-0.0660973 0.172018 -0.124648
-0.0448076 0.172019 -0.144403
-0.0270663 0.17202 -0.160866
-0.00577658 0.172021 -0.180622
0.0155134 0.172022 -0.200379
0.040352 0.172023 -0.223428
0.0580941 0.172023 -0.239891
0.188044 0.144197 -0.0568171
0.196953 0.145541 -0.0797434
0.197125 0.155628 -0.189957
0.197402 0.171785 -0.366506
0.197434 0.173684 -0.387247
-0.17046 0.134988 0.416532
-0.132884 0.131744 0.416107
-0.196148 0.144189 0.342713
-0.18723 0.145793 0.31742
-0.197154 0.157006 0.207641
0.172024 0.105103 0.416001
0.190773 0.103467 0.41597
0.196211 0.104943 0.395267
-0.179246 0.172016 0.0317426
-0.161989 0.172017 0.0157332
-0.141282 0.172017 -0.00347823
-0.120574 0.172017 -0.0226897
-0.103317 0.172018 -0.0386994
-0.0757063 0.172018 -0.0643148
-0.0549982 0.172019 -0.0835267
-0.0342911 0.172019 -0.10274
-0.0170356 0.17202 -0.118752
0.00367099 0.172021 -0.137966
0.0243778 0.172022 -0.157181
0.0381824 0.172022 -0.169991
0.0588894 0.172023 -0.189206
0.188632 0.144196 -0.014251
0.196885 0.145596 -0.0367641
-0.190961 0.144189 0.37871
-0.187297 0.145661 0.360102
-0.197238 0.156119 0.261307
-0.182222 0.172016 0.0831791
-0.158707 0.172017 0.0613638
-0.141911 0.172017 0.0457813
-0.121755 0.172018 0.0270822
-0.104959 0.172018 0.0114996
-0.0848028 0.172018 -0.00719965
-0.0612875 0.172019 -0.0290154
-0.0411315 0.172019 -0.047715
-0.0243353 0.17202 -0.0632984
-0.00418085 0.17202 -0.0820003
0.0126145 0.172021 -0.0975852
0.0294101 0.172022 -0.11317
0.049565 0.172023 -0.131873
0.189189 0.144196 0.0260445
0.197264 0.172958 -0.278522
0.197323 0.176638 -0.316588
0.197464 0.185519 -0.408457
-0.197303 0.156172 0.302714
-0.197122 0.167635 0.187231
-0.155595 0.172017 0.104624
-0.135963 0.172017 0.0864109
-0.116331 0.172018 0.0681975
-0.0999707 0.172018 0.0530199
-0.0770664 0.172019 0.0317707
-0.060706 0.172019 0.0165927
-0.0410735 0.172019 -0.00162095
-0.024713 0.17202 -0.016799
-0.0018093 0.17202 -0.0380496
0.0243655 0.172022 -0.0623379
0.0407249 0.172022 -0.0775179
0.0570843 0.172023 -0.0926985
0.186964 0.144197 0.0667792
0.196751 0.145079 0.0488289
0.196918 0.155678 -0.0579593
0.197061 0.164703 -0.148884
0.197086 0.166309 -0.165073
0.197234 0.175739 -0.26008
0.197383 0.185291 -0.35631
0.197415 0.187327 -0.376825
-0.17046 0.146083 0.416532
-0.197364 0.156223 0.34205
-0.197185 0.167881 0.227564
-0.184533 0.172017 0.175281
-0.130317 0.172018 0.124983
-0.111182 0.172018 0.107231
-0.0952355 0.172018 0.0924377
-0.0761002 0.172019 0.0746854
-0.0569647 0.172019 0.056933
-0.0410184 0.17202 0.0421394
-0.0155043 0.17202 0.0184693
0.00363129 0.172021 0.000716388
0.0227653 0.172021 -0.0170382
0.0387105 0.172022 -0.031834
0.0546558 0.172023 -0.0466299
0.187539 0.144195 0.102988
0.196811 0.152747 0.010532
0.196853 0.155462 -0.0161341
0.197 0.164995 -0.109748
0.197024 0.166567 -0.125179
0.197165 0.175774 -0.215594
-0.154909 0.148275 0.416508
-0.111772 0.144191 0.415562
-0.177827 0.172017 0.210706
-0.162274 0.172017 0.196279
-0.106286 0.172018 0.144337
-0.0876237 0.172019 0.127024
-0.0720712 0.172019 0.112595
-0.0502976 0.17202 0.0923957
-0.0316346 0.17202 0.0750815
-0.00986087 0.17202 0.0548816
0.00880259 0.172021 0.0375676
0.0243546 0.172021 0.023138
0.0399059 0.172022 0.0087077
0.0585678 0.172023 -0.0086087
0.188081 0.144195 0.137403
0.197205 0.182983 -0.242016
0.197261 0.186795 -0.278528
0.19735 0.192821 -0.33624
-0.194378 0.155852 0.416575
-0.132159 0.149679 0.416473
-0.0816176 0.144665 0.416394
-0.197267 0.170774 0.279976
-0.177515 0.172017 0.250057
-0.162337 0.172017 0.235977
-0.150195 0.172018 0.224713
-0.0834141 0.172019 0.162759
-0.056094 0.17202 0.137414
-0.0378807 0.17202 0.120517
-0.0227028 0.17202 0.106436
-0.00752485 0.172021 0.0923557
0.00765312 0.172021 0.0782749
0.0228311 0.172021 0.064194
0.0380084 0.172022 0.0501122
0.188598 0.144194 0.17016
0.196885 0.165541 -0.0367641
0.197136 0.182837 -0.198421
0.197289 0.193422 -0.297362
0.197319 0.19548 -0.316594
-0.0609782 0.146054 0.416362
-0.041994 0.144191 0.41573
-0.177217 0.172017 0.287556
-0.162397 0.172017 0.273807
-0.144612 0.172018 0.257309
-0.126828 0.172018 0.24081
-0.114972 0.172018 0.229811
0.196217 0.122592 0.391635
-0.0616178 0.17202 0.180314
-0.0349405 0.17202 0.155565
-0.0171556 0.172021 0.139066
-0.00233471 0.172021 0.125316
0.0154504 0.172021 0.108817
0.0332354 0.172022 0.0923175
0.045092 0.172022 0.0813176
0.186592 0.144196 0.203666
0.196821 0.165069 0.00395316
0.196952 0.174239 -0.0797443
-0.0214058 0.145376 0.4163
-0.00226092 0.144197 0.409033
-0.159558 0.172018 0.307212
-0.142182 0.172018 0.291092
-0.121911 0.172019 0.272286
-0.101639 0.172019 0.25348
0.142755 0.128304 0.416043
0.172024 0.12526 0.416001
0.190773 0.123311 0.41597
-0.0408235 0.17202 0.197061
-0.0234475 0.172021 0.180941
-0.00607133 0.172021 0.164822
0.0142009 0.172021 0.146015
0.0315772 0.172022 0.129895
0.0489537 0.172022 0.113775
0.187127 0.144194 0.233401
0.196631 0.155328 0.125449
0.196771 0.165327 0.0362824
0.197189 0.19554 -0.233123
-0.0863333 0.155914 0.413882
0.0215182 0.144191 0.415886
-0.122876 0.172019 0.307601
-0.105891 0.172019 0.291843
-0.0889058 0.172019 0.276086
-0.0209638 0.172021 0.213056
-0.00397801 0.172021 0.197299
0.0130079 0.172021 0.181541
0.0328245 0.172022 0.163157
0.0498104 0.172022 0.147399
0.18763 0.144194 0.261791
0.19658 0.155145 0.158166
0.196685 0.162838 0.0911087
0.196852 0.175141 -0.016135
0.197096 0.193171 -0.173293
0.197122 0.195084 -0.189964
0.0399193 0.145389 0.416204
0.0581103 0.144197 0.40948
-0.0878066 0.172019 0.307973
-0.0739634 0.17202 0.29513
-0.00197673 0.172021 0.228349
0.022942 0.172022 0.205232
0.0340169 0.172022 0.194957
0.0478608 0.172022 0.182114
0.18811 0.144193 0.288933
0.196657 0.164459 0.108489
0.19679 0.174426 0.023518
0.196916 0.183984 -0.057963
0.197033 0.192787 -0.13301
0.197058 0.19465 -0.14889
-0.159997 0.17111 0.413997
-0.137132 0.168568 0.413962
-0.107681 0.165294 0.413915
0.0795696 0.14419 0.416031
-0.0542452 0.17202 0.308329
0.122443 0.139411 0.416076
0.0161937 0.172022 0.242983
0.0351582 0.172022 0.22539
0.0514135 0.172022 0.21031
0.186284 0.144196 0.317001
0.196722 0.173017 0.067253
0.196883 0.185487 -0.036768
0.196985 0.193324 -0.102146
0.011828 0.155279 0.413728
0.101449 0.144793 0.416108
0.186141 0.135175 0.415978
0.0335991 0.172022 0.257001
0.186784 0.144193 0.341848
0.196547 0.163037 0.179133
0.196829 0.185302 -0.00268704
0.19695 0.194739 -0.079748
-0.0388278 0.164421 0.413808
0.0502869 0.172023 0.270442
0.187251 0.144193 0.365659
0.196404 0.155051 0.270454
0.196499 0.162686 0.209391
0.196666 0.176021 0.102742
0.196788 0.185927 0.0235155
-0.194378 0.185895 0.416575
-0.0193981 0.165512 0.413777
0.064657 0.155565 0.413645
0.196217 0.142784 0.391635
0.196461 0.162954 0.233576
0.196613 0.175339 0.136528
-0.0677927 0.174369 0.416373
0.13774 0.149556 0.416052
0.196432 0.16381 0.252285
-0.154899 0.188546 0.416513
-0.13215 0.185745 0.416477
-0.0475405 0.175329 0.416341
0.196638 0.184639 0.119839
0.196739 0.193245 0.0550196
0.196759 0.194897 0.0425795
-0.17045 0.194159 0.416537
-0.102849 0.185674 0.416431
0.0813711 0.162896 0.413619
0.118766 0.158202 0.413561
0.157566 0.152991 0.416022
0.196342 0.162557 0.309477
0.196578 0.183037 0.158165
0.0976657 0.163914 0.413594
0.19631 0.162807 0.330113
0.196537 0.182923 0.184272
0.0280902 0.175688 0.416224
0.196273 0.1625 0.35396
0.196498 0.182812 0.20939
-0.0816104 0.193466 0.416398
-0.0213996 0.185478 0.416303
-0.0024246 0.182961 0.416271
0.196243 0.162742 0.373108
0.196369 0.174284 0.292441
0.196461 0.182706 0.233575
0.196595 0.195032 0.147432
0.196215 0.162976 0.391633
0.196424 0.182604 0.256876
-0.0475351 0.195754 0.416344
0.139182 0.170463 0.413529
0.181472 0.164275 0.415985
0.196192 0.163727 0.406024
0.0515459 0.185303 0.416187
0.0741999 0.185248 0.416151
0.0852391 0.183677 0.416134
0.117261 0.179123 0.416085
0.157566 0.173389 0.416022
0.196329 0.182952 0.317817
0.0280933 0.195029 0.416225
0.196297 0.182853 0.33817
0.196266 0.182756 0.35784
0.196369 0.193125 0.292441
0.196237 0.182663 0.376862
0.137741 0.188056 0.416053
0.157565 0.185046 0.416022
0.196208 0.182573 0.395265
0.181471 0.184274 0.415985
