ply
format ascii 1.0
comment Created by Open3D
element vertex 963
property double x
property double y
property double z
end_header
-0.290602 -0.265992 -0.277822
-0.272202 -0.265829 -0.277794
-0.29161 -0.247034 -0.276556
-0.270665 -0.247254 -0.276385
-0.282326 -0.231484 -0.2752
-0.260523 -0.233783 -0.275352
-0.280974 -0.210755 -0.273628
-0.262272 -0.206678 -0.273298
-0.28216 -0.191647 -0.27218
0.263413 -0.268521 0.304661
0.263336 -0.267803 0.27969
-0.260865 -0.185363 -0.271679
0.262258 -0.252179 0.298475
0.26215 -0.250981 0.276571
-0.280814 -0.170909 -0.270601
-0.262138 -0.165803 -0.270192
0.260844 -0.232103 0.295387
0.260707 -0.230441 0.276616
-0.282001 -0.151928 -0.26916
0.262656 -0.267324 -0.305968
0.262562 -0.265672 -0.286928
0.277403 -0.267906 -0.276566
0.259416 -0.211768 0.295406
0.259283 -0.210224 0.273509
-0.260574 -0.146914 -0.268757
0.261767 -0.254668 -0.305432
0.275169 -0.250749 -0.275303
0.26109 -0.244724 -0.286069
0.257993 -0.19149 0.295425
-0.291222 -0.129224 -0.267448
0.257845 -0.189774 0.273559
0.27239 -0.229407 -0.273731
0.259661 -0.224528 -0.29467
-0.270222 -0.126008 -0.267181
0.288485 -0.223918 -0.273304
-0.283793 -0.122668 -0.286371
0.270175 -0.212416 -0.272479
0.25657 -0.171268 0.295443
0.256426 -0.169595 0.270458
0.258228 -0.204265 -0.3033
-0.291599 -0.110838 -0.266983
0.285638 -0.202439 -0.27172
0.257577 -0.194694 -0.284017
-0.271448 -0.106896 -0.265733
0.255175 -0.151481 0.289269
-0.251836 -0.107394 -0.26575
0.254997 -0.149235 0.270512
0.282805 -0.181076 -0.270144
0.256176 -0.175025 -0.302064
0.256108 -0.173684 -0.27848
-0.283793 -0.0969658 -0.286371
-0.291599 -0.0902697 -0.266983
0.253817 -0.132478 0.267406
0.253759 -0.131322 0.289296
0.279993 -0.159829 -0.26858
0.254726 -0.154449 -0.305936
-0.270073 -0.0858379 -0.264134
-0.250403 -0.085762 -0.264107
0.254101 -0.145231 -0.286673
0.260857 -0.141008 -0.267211
0.2858 -0.13964 -0.26708
0.252392 -0.112196 0.267464
0.252335 -0.110942 0.295499
-0.283793 -0.0759371 -0.286371
0.253268 -0.133663 -0.305051
-0.2916 -0.0719872 -0.266982
0.252654 -0.124598 -0.285821
0.252335 -0.119744 -0.267012
-0.271297 -0.0668558 -0.262696
0.28297 -0.118476 -0.265518
-0.251712 -0.066264 -0.26263
0.250977 -0.0920876 0.264373
0.250949 -0.0913989 0.283153
0.250931 -0.0909454 0.295518
0.251233 -0.104663 -0.303815
0.25121 -0.104023 -0.284972
0.264308 -0.104418 -0.264501
-0.283793 -0.0572449 -0.286371
0.289369 -0.10232 -0.264317
-0.291604 -0.0515142 -0.270161
0.249786 -0.074974 0.273839
0.24953 -0.071004 0.295536
0.249785 -0.0840203 -0.302936
0.261584 -0.0837206 -0.262973
0.278473 -0.0848513 -0.263037
-0.269925 -0.0457893 -0.261096
-0.250117 -0.0470508 -0.261171
0.249196 -0.075317 -0.283787
0.248376 -0.054904 0.273888
-0.283793 -0.0362162 -0.286371
0.275683 -0.0639831 -0.261497
0.248134 -0.051118 0.295554
0.248048 -0.0588752 -0.278454
-0.291604 -0.0309085 -0.270161
0.247764 -0.0552195 -0.30171
0.249575 -0.0545659 -0.260831
-0.271148 -0.0269363 -0.259668
-0.251588 -0.0252617 -0.25952
0.290092 -0.0438158 -0.259992
0.24697 -0.0349773 0.267686
0.246617 -0.0386361 -0.286934
0.24674 -0.0313645 0.289431
0.246324 -0.0347713 -0.305556
0.246339 -0.0342978 -0.263594
0.270697 -0.0267022 -0.258746
0.245474 -0.0223428 -0.286256
-0.2916 -0.0102839 -0.266981
0.245565 -0.0149693 0.267743
0.244919 -0.0141241 -0.267385
0.260683 -0.0142596 -0.257837
0.277523 -0.0144518 -0.257834
0.245348 -0.0115393 0.289458
-0.283793 -0.00584132 -0.28637
-0.269777 -0.00586157 -0.258068
-0.249996 -0.00602281 -0.258059
0.244049 -0.00202829 -0.28541
0.243503 0.0060446 -0.266572
0.257983 0.00609503 -0.256335
0.28329 0.00621875 -0.2563
0.243919 0.00833388 0.258405
0.243947 0.00826158 0.280242
0.243971 0.00820059 0.29866
-0.291601 0.00799854 -0.266981
-0.283794 0.0128509 -0.28637
-0.270998 0.0128632 -0.256649
-0.251302 0.0132161 -0.256601
0.242027 0.0264761 -0.302927
0.242076 0.0262356 -0.274968
0.255297 0.026342 -0.254841
0.279363 0.0351067 -0.254168
0.242511 0.0283309 0.255329
0.242558 0.0280504 0.280281
0.242592 0.0278436 0.298674
0.240665 0.0463514 -0.274144
-0.291597 0.0285138 -0.263813
0.240351 0.050597 -0.287867
0.252093 0.0504975 -0.253059
-0.246799 0.0326112 -0.255125
0.268126 0.0552366 -0.252692
0.28514 0.0559843 -0.252619
-0.283794 0.0338796 -0.28637
-0.272365 0.0338168 -0.255061
0.241112 0.0482616 0.255404
0.241179 0.0477254 0.283401
0.239454 0.0630696 -0.306055
0.241002 0.0505681 0.304751
0.239245 0.0665108 -0.277931
0.239294 0.0661111 -0.259579
0.238603 0.0752123 -0.30553
0.265396 0.0754932 -0.251197
0.290964 0.0770323 -0.251057
0.239707 0.0682216 0.252333
0.239772 0.0676307 0.274186
-0.291597 0.0490437 -0.263813
0.237883 0.0861532 -0.263342
0.239597 0.0703909 0.292621
-0.283794 0.0525718 -0.28637
-0.270849 0.052543 -0.253639
-0.25118 0.0539824 -0.253509
0.237186 0.0954042 -0.304657
0.237278 0.0945406 -0.276774
0.262679 0.0956421 -0.24971
0.278412 0.105066 -0.248998
0.236471 0.106199 -0.267106
0.238313 0.0880657 0.252412
0.238368 0.0875203 0.268038
0.236242 0.109682 -0.253292
0.238215 0.0900215 0.289595
0.235773 0.115539 -0.303786
-0.279995 0.0679644 -0.252479
0.259438 0.11968 -0.247937
-0.25534 0.0727049 -0.252093
0.275635 0.12533 -0.247502
-0.240574 0.0537106 0.25284
-0.283794 0.0736005 -0.28637
0.23504 0.12644 -0.275457
0.234837 0.129637 -0.257038
0.236924 0.107855 0.25249
0.234554 0.135642 -0.303034
0.236757 0.11046 0.268103
0.236847 0.109512 0.289622
-0.241468 0.0837615 -0.25124
0.249352 0.138786 -0.246968
0.274592 0.145729 -0.246942
0.234586 0.146442 -0.27519
0.234607 0.149546 -0.256907
-0.281317 0.088454 -0.250927
0.234556 0.155887 -0.303035
0.235524 0.127747 0.249429
0.249357 0.1589 -0.246971
0.235381 0.130063 0.26816
0.235482 0.128949 0.289648
-0.283794 0.0946291 -0.28637
0.274591 0.166254 -0.246941
0.234585 0.166503 -0.275189
-0.238793 0.0733332 0.252647
-0.245742 0.102512 -0.249822
0.234606 0.169485 -0.256907
0.234562 0.179906 -0.29836
0.249362 0.179015 -0.246974
0.235161 0.147602 0.249451
0.23518 0.14979 0.268168
0.235204 0.148494 0.289653
0.234591 0.18628 -0.270598
-0.279982 0.109239 -0.249349
0.234612 0.18914 -0.252371
0.274602 0.194992 -0.246947
-0.283794 0.113321 -0.286369
0.211866 0.191887 -0.289047
0.260104 0.195422 -0.225507
0.264659 0.195422 -0.214324
0.276802 0.19542 -0.1845
0.186429 0.191887 -0.291313
0.195219 0.191891 -0.269809
0.249365 0.19913 -0.246976
0.250326 0.195783 -0.193726
0.255911 0.195422 -0.17454
0.267811 0.195421 -0.145319
0.272273 0.195421 -0.134362
-0.238223 0.122942 -0.248264
0.163436 0.191887 -0.289976
0.170616 0.191891 -0.272412
0.250369 0.197123 -0.154647
0.250392 0.195699 -0.133375
0.256258 0.195422 -0.11485
0.267923 0.195421 -0.0862086
0.276666 0.19542 -0.0647259
0.235161 0.167503 0.249451
0.141336 0.191887 -0.288692
0.148375 0.191891 -0.271468
0.250446 0.196174 -0.0835556
0.253733 0.195422 -0.0644994
0.265171 0.195421 -0.0364144
0.273744 0.19542 -0.0153493
0.23518 0.169542 0.268168
0.235202 0.168076 0.289653
0.118697 0.191887 -0.290835
0.126983 0.191891 -0.27056
0.222832 0.208459 -0.272827
0.234612 0.209049 -0.252371
0.250499 0.196634 -0.0354049
0.250512 0.195814 -0.0236182
0.259718 0.195422 0.00459543
0.268131 0.195421 0.0252585
0.276541 0.195419 0.0459218
-0.237405 0.0931386 0.250784
0.0982586 0.191887 -0.289582
0.106387 0.191891 -0.269685
0.222815 0.213403 -0.286563
0.250562 0.196269 0.0225614
0.25447 0.195422 0.0440722
0.262727 0.195421 0.0643485
0.27098 0.19542 0.0846253
0.288764 0.183339 0.298208
0.0772405 0.191887 -0.291631
0.0852208 0.191891 -0.2721
0.249365 0.219244 -0.246976
0.250765 0.195422 0.0854179
0.258871 0.195422 0.105322
0.266973 0.19542 0.125226
0.275074 0.195419 0.145131
0.269573 0.183342 0.298401
-0.278497 0.127802 -0.247939
0.0582861 0.191887 -0.290409
0.0661189 0.19189 -0.271227
0.25589 0.223368 -0.232335
0.251174 0.195422 0.135046
0.26311 0.19542 0.164364
0.271066 0.195419 0.18391
0.0400025 0.191887 -0.28923
0.0476932 0.191889 -0.270386
0.234555 0.228769 -0.303035
0.251568 0.195422 0.182918
0.265897 0.19542 0.218116
0.275014 0.195418 0.240515
-0.288638 0.132977 -0.280287
0.0210943 0.191887 -0.291178
0.0299085 0.191889 -0.269574
0.222821 0.229009 -0.28197
0.2346 0.22965 -0.261456
0.250777 0.195941 0.219455
0.255788 0.195421 0.238557
0.235161 0.190721 0.249451
0.235179 0.189294 0.268168
0.235202 0.187657 0.289653
-0.235904 0.142802 -0.247506
0.00407141 0.191887 -0.290026
0.0114974 0.191889 -0.271825
0.264367 0.23495 -0.205195
0.268905 0.234949 -0.194047
-0.00508106 0.191888 -0.271016
0.249365 0.239358 -0.246976
0.250328 0.235335 -0.193727
0.256127 0.234952 -0.174643
0.268024 0.234949 -0.145414
0.272486 0.234948 -0.134453
0.211925 0.191531 0.266091
-0.259427 0.143045 -0.247531
-0.0294839 0.191887 -0.29077
0.250283 0.242507 -0.233857
0.250371 0.236157 -0.154648
0.252542 0.234951 -0.134318
0.264247 0.23495 -0.105575
0.268635 0.234949 -0.0947953
-0.0377946 0.191888 -0.272365
0.189622 0.238841 -0.288819
0.196964 0.238847 -0.270868
0.253391 0.234951 -0.0847015
0.26491 0.23495 -0.056427
0.273542 0.234949 -0.0352191
0.180392 0.191531 0.267479
-0.0608914 0.191887 -0.291466
0.170141 0.238841 -0.289862
0.177364 0.238847 -0.272199
0.224363 0.24742 -0.260093
0.231794 0.247413 -0.241766
0.254214 0.23495 -0.0366729
0.262719 0.234951 -0.015808
0.271214 0.234949 0.00506032
0.164226 0.191531 0.265305
0.172324 0.191534 0.285149
-0.0752828 0.191887 -0.290401
-0.0673097 0.191887 -0.270832
0.151273 0.238841 -0.290873
0.159805 0.238847 -0.270011
0.211805 0.247413 -0.24391
0.223555 0.247413 -0.215074
0.227961 0.247413 -0.204261
0.250392 0.246077 -0.133375
0.250534 0.235207 -0.00419113
0.264777 0.23495 0.033802
0.273139 0.234949 0.0543409
-0.236006 0.113102 0.248905
0.250794 0.215022 0.235682
0.132991 0.238841 -0.291853
0.14139 0.238847 -0.271314
0.192436 0.247413 -0.245987
0.201111 0.247413 -0.224696
0.212679 0.247413 -0.196307
0.221355 0.247413 -0.175016
0.225692 0.247413 -0.16437
0.250447 0.245694 -0.0835558
0.259903 0.234949 0.0650248
0.268144 0.23495 0.0852431
0.276376 0.234949 0.105463
0.235169 0.213136 0.258845
0.135638 0.191532 0.266652
-0.103854 0.191887 -0.291076
-0.0961249 0.191886 -0.272104
0.124914 0.238848 -0.269206
0.172245 0.247416 -0.251503
0.180777 0.247414 -0.23053
0.193592 0.247414 -0.19908
0.200711 0.247414 -0.181608
0.209254 0.247414 -0.160642
0.217798 0.247414 -0.139675
0.224917 0.247414 -0.122203
0.23346 0.247414 -0.101237
0.250499 0.245324 -0.035405
0.25112 0.234948 0.0853393
0.259236 0.234949 0.105249
0.267351 0.234949 0.125159
0.275462 0.234949 0.145069
0.120895 0.191532 0.26459
0.235205 0.213502 0.292692
-0.291611 0.152816 -0.276556
-0.27883 0.153025 -0.247552
-0.11695 0.191887 -0.290065
0.0994332 0.238841 -0.290403
0.173676 0.247414 -0.205211
0.182091 0.247414 -0.18456
0.193311 0.247414 -0.157025
0.201725 0.247414 -0.136374
0.222762 0.247414 -0.084746
0.231177 0.247414 -0.0640948
0.254592 0.234948 0.134458
0.262585 0.234948 0.154068
0.270579 0.234949 0.173678
0.115293 0.191534 0.283906
-0.244902 0.162791 -0.247516
-0.122162 0.191885 -0.270669
0.0827314 0.238841 -0.291346
0.0907552 0.238847 -0.27172
0.137783 0.247417 -0.251859
0.146061 0.247414 -0.231506
0.154351 0.247414 -0.211161
0.162641 0.247414 -0.190815
0.183366 0.247414 -0.139952
0.191656 0.247414 -0.119607
0.199946 0.247414 -0.0992618
0.223435 0.247415 -0.0416169
0.231725 0.247415 -0.0212716
0.250587 0.245615 0.0450876
0.259273 0.234948 0.185341
0.275023 0.234949 0.223981
0.094862 0.191532 0.265899
0.22245 0.217464 0.289899
-0.256568 0.162598 -0.247528
-0.143052 0.191887 -0.29072
0.121984 0.247417 -0.250356
0.130144 0.247414 -0.230302
0.154651 0.247414 -0.170157
0.16282 0.247414 -0.150109
0.183242 0.247415 -0.0999882
0.191411 0.247415 -0.0799399
0.19958 0.247415 -0.0598917
0.224088 0.247415 0.000253171
0.232257 0.247415 0.0203015
0.250631 0.24559 0.0854476
-0.155019 0.191887 -0.289758
-0.14774 0.191885 -0.271873
0.0520683 0.238841 -0.289974
0.0598574 0.238846 -0.270911
0.113343 0.247414 -0.232426
0.122736 0.247414 -0.209373
0.130788 0.247415 -0.189613
0.154942 0.247415 -0.130333
0.162994 0.247415 -0.110574
0.183122 0.247415 -0.0611741
0.191174 0.247415 -0.0414143
0.199225 0.247415 -0.0216544
0.22338 0.247415 0.0376252
0.232773 0.247415 0.0606784
0.250674 0.245566 0.124638
0.250787 0.235934 0.229216
0.0692868 0.191532 0.264583
0.235219 0.225428 0.304774
0.0444275 0.238846 -0.27209
0.0904143 0.247418 -0.250729
0.114216 0.247415 -0.192284
0.123476 0.247415 -0.169558
0.131413 0.247415 -0.150078
0.155225 0.247415 -0.0916395
0.163162 0.247415 -0.0721599
0.184329 0.247415 -0.0202144
0.192266 0.247415 -0.000734836
0.200203 0.247415 0.0187448
0.225338 0.247416 0.0804302
0.233275 0.247416 0.0999098
0.250715 0.245542 0.16271
0.0647309 0.191534 0.282803
-0.178962 0.191887 -0.290394
-0.170877 0.191884 -0.270525
0.0218583 0.238841 -0.291766
0.083759 0.247415 -0.230093
0.0915853 0.247415 -0.210886
0.124195 0.247415 -0.130856
0.132021 0.247415 -0.111649
0.139847 0.247415 -0.0924421
0.156804 0.247415 -0.0508266
0.164631 0.247415 -0.0316195
0.193327 0.247416 0.0388068
0.201153 0.247416 0.058014
0.210284 0.247416 0.0804224
0.225937 0.247416 0.118837
0.233763 0.247416 0.138044
-0.281951 0.170056 -0.288683
0.0160863 0.238846 -0.271304
0.060586 0.247418 -0.251082
0.085016 0.247415 -0.191091
0.0927343 0.247415 -0.172148
0.101739 0.247415 -0.150049
0.133899 0.247415 -0.0711233
0.141617 0.247416 -0.052181
0.15834 0.247416 -0.0111395
0.166059 0.247416 0.0078027
0.203364 0.247416 0.0993571
0.211083 0.247416 0.118299
0.227806 0.247416 0.159341
0.235524 0.247416 0.178283
0.235161 0.240474 0.249451
0.0350653 0.191533 0.266412
-0.281933 0.170822 -0.272457
-0.198652 0.191886 -0.283748
-0.00547957 0.238842 -0.290457
0.00188172 0.238845 -0.27243
0.0545164 0.247415 -0.231001
0.0621297 0.247415 -0.212317
0.071012 0.247415 -0.190518
0.0951208 0.247415 -0.131351
0.104003 0.247416 -0.109552
0.111616 0.247416 -0.0908677
0.135725 0.247416 -0.0317
0.144608 0.247416 -0.00990134
0.152221 0.247416 0.00878316
0.161103 0.247416 0.0305819
0.168717 0.247416 0.0492664
0.17633 0.247416 0.067951
0.205515 0.247416 0.139575
0.213128 0.247416 0.15826
0.22201 0.247416 0.180059
0.0232953 0.191533 0.264577
0.0323592 0.247419 -0.251416
0.0648952 0.247416 -0.171528
0.0736581 0.247416 -0.150022
0.0811692 0.247416 -0.131588
0.106206 0.247416 -0.0701423
0.113718 0.247416 -0.0517085
0.122481 0.247416 -0.0302025
0.16254 0.247416 0.068111
0.171303 0.247416 0.089617
0.178814 0.247416 0.108051
0.187577 0.247416 0.129557
-0.234618 0.133218 0.247014
0.228889 0.247417 0.230943
0.0205687 0.191534 0.284197
0.203997 0.235498 0.290254
-0.241927 0.182817 -0.247513
-0.187974 0.197739 -0.263842
-0.0313694 0.238842 -0.289218
-0.024206 0.238845 -0.271665
0.0268231 0.247416 -0.231862
0.03547 0.247416 -0.21064
0.0428816 0.247416 -0.192451
0.0762342 0.247416 -0.110598
0.0836459 0.247416 -0.0924083
0.0922927 0.247416 -0.071187
0.116998 0.247416 -0.0105551
0.12441 0.247416 0.00763458
0.133057 0.247416 0.0288558
0.141704 0.247416 0.0500771
0.173821 0.247417 0.128899
0.182468 0.247417 0.15012
0.18988 0.247417 0.16831
0.198527 0.247417 0.189531
0.00260568 0.191533 0.265748
-0.270643 0.178078 -0.247544
-0.03615 0.238845 -0.269854
0.00560796 0.24742 -0.251732
0.0141289 0.247416 -0.230779
0.0226629 0.247416 -0.209835
0.0385115 0.247416 -0.17094
0.0470455 0.247416 -0.149996
0.0543602 0.247416 -0.132044
0.0628941 0.247416 -0.1111
0.0872768 0.247416 -0.0512607
0.0958107 0.247416 -0.0303169
0.103126 0.247416 -0.012365
0.136042 0.247417 0.0684184
0.144576 0.247417 0.0893623
0.15311 0.247417 0.110306
0.184808 0.247417 0.188098
0.204313 0.247417 0.23597
0.178852 0.235498 0.290738
0.227482 0.247418 0.292818
-0.207838 0.197959 -0.263864
-0.0570872 0.238842 -0.290891
-0.00665063 0.247419 -0.250406
0.0174065 0.247416 -0.19133
0.0342541 0.247416 -0.149983
0.0583221 0.247416 -0.0909159
0.0667459 0.247416 -0.0702424
0.0823902 0.247416 -0.0318486
0.0992378 0.247417 0.00949869
0.107662 0.247417 0.0301723
0.114882 0.247417 0.0478925
0.123306 0.247417 0.0685662
0.147374 0.247417 0.127634
0.155798 0.247417 0.148307
0.164222 0.247417 0.168981
-0.0179488 0.191534 0.264572
-0.0614184 0.238844 -0.272
-0.0114772 0.247416 -0.231612
-0.00316077 0.247416 -0.211202
0.0134722 0.247416 -0.170381
0.0289171 0.247416 -0.132477
0.0372336 0.247416 -0.112066
0.0538666 0.247416 -0.0712459
0.0621831 0.247417 -0.0508357
0.0788162 0.247417 -0.0100152
0.0942611 0.247417 0.0278896
0.119211 0.247417 0.0891205
0.127527 0.247417 0.109531
0.14416 0.247417 0.150351
0.159604 0.247417 0.188257
0.1798 0.247417 0.237825
-0.0200129 0.191534 0.283192
0.153857 0.235498 0.288422
-0.080376 0.238842 -0.289703
-0.0314111 0.24742 -0.250735
-0.006787 0.247416 -0.190266
0.00963688 0.247416 -0.149959
0.0330994 0.247417 -0.0923778
0.0577351 0.247417 -0.0319173
0.074159 0.247417 0.00838983
0.0905827 0.247417 0.048697
0.0987948 0.247417 0.0688505
0.12343 0.247417 0.129311
0.139853 0.247417 0.169619
-0.03656 0.191534 0.265684
-0.291167 0.182787 -0.254886
-0.0843129 0.238844 -0.271293
-0.0358111 0.247416 -0.232403
-0.0265427 0.247416 -0.209657
-0.0103229 0.247417 -0.169851
0.00589687 0.247417 -0.130045
0.0140067 0.247417 -0.110141
0.0302265 0.247417 -0.070335
0.0383363 0.247417 -0.0504318
0.0545561 0.247417 -0.0106255
0.0707759 0.247417 0.029181
0.0951057 0.247417 0.0888906
0.103216 0.247417 0.108794
0.119434 0.247417 0.148601
0.135653 0.247417 0.188407
0.156505 0.247416 0.239587
0.131207 0.235498 0.288928
-0.256199 0.191886 -0.232122
-0.103629 0.238842 -0.291282
-0.0958911 0.238844 -0.272309
-0.0549564 0.247421 -0.251049
-0.0309373 0.247417 -0.192063
-0.0137722 0.247417 -0.149936
-0.00576186 0.247417 -0.130277
0.0102589 0.247417 -0.0909595
0.03429 0.247417 -0.0319826
0.0514551 0.247417 0.0101439
0.067476 0.247417 0.0494619
0.0754864 0.247417 0.0691209
0.0834969 0.247417 0.08878
0.0995165 0.247417 0.128098
0.11668 0.247417 0.170225
0.12469 0.247417 0.189884
-0.0551447 0.191534 0.264567
-0.256142 0.191886 -0.210504
-0.0657378 0.24742 -0.249811
-0.0578347 0.247417 -0.230382
-0.0499215 0.247417 -0.210962
-0.0340949 0.247417 -0.17212
-0.0250512 0.247417 -0.149925
-0.00922465 0.247417 -0.111084
0.00660187 0.247417 -0.0722426
0.0156457 0.247417 -0.0500475
0.0314723 0.247417 -0.0112061
0.0472989 0.247417 0.0276354
0.064256 0.247417 0.0692513
0.0800815 0.247417 0.108093
0.0970372 0.247417 0.149709
0.10495 0.247417 0.16913
0.13434 0.247416 0.241264
-0.0557841 0.191534 0.284432
0.109655 0.235498 0.289409
-0.256953 0.191886 -0.191529
-0.124688 0.238842 -0.290141
-0.117137 0.238843 -0.271621
-0.0528139 0.247417 -0.191032
-0.0282416 0.247417 -0.130726
-0.0126044 0.247417 -0.0923503
0.00414956 0.247417 -0.0512329
0.0119681 0.247417 -0.0320447
0.028722 0.247417 0.00907272
0.0454761 0.247418 0.0501902
0.061112 0.247417 0.0885669
0.0778647 0.247417 0.129685
0.102435 0.247417 0.189991
-0.29161 0.194181 -0.276556
-0.256889 0.191886 -0.170903
-0.0876349 0.247421 -0.250135
-0.0799196 0.247417 -0.231165
-0.0721937 0.247417 -0.212205
-0.0556379 0.247417 -0.171574
-0.0468083 0.247417 -0.149904
-0.0313563 0.247417 -0.111982
-0.0148006 0.247417 -0.0713512
0.00948119 0.247418 -0.0117593
0.0260369 0.247418 0.0288716
0.0337625 0.247418 0.0478328
0.0425916 0.247418 0.0695029
0.059146 0.247417 0.110134
0.0745967 0.247417 0.148057
0.0834257 0.247417 0.169726
0.113223 0.247416 0.242862
-0.0800892 0.191534 0.266136
-0.0441644 0.198682 0.290647
0.0891238 0.235498 0.289867
-0.277681 0.194056 -0.221047
-0.256826 0.191886 -0.150759
-0.0736671 0.247417 -0.190049
-0.0496694 0.247417 -0.131155
-0.0333074 0.247417 -0.0909989
-0.0256718 0.247418 -0.0722597
-0.0169454 0.247418 -0.0508433
-0.00930965 0.247418 -0.032104
0.00705236 0.247418 0.00805172
0.0397744 0.247417 0.0883639
0.0561352 0.247417 0.12852
0.0812216 0.247417 0.190092
-0.234618 0.152888 0.247014
-0.281517 0.198291 -0.247556
-0.277657 0.193916 -0.200028
-0.277638 0.191898 -0.182417
-0.256764 0.191886 -0.131081
-0.100983 0.247417 -0.231913
-0.0923578 0.247417 -0.210744
-0.0761847 0.247417 -0.171053
-0.0675593 0.247417 -0.149884
-0.0513864 0.247418 -0.110192
-0.0114931 0.247418 -0.0122869
0.00575715 0.247418 0.0300511
0.0133039 0.247418 0.048574
0.0219288 0.247417 0.069743
0.0381005 0.247417 0.109435
0.0542721 0.247417 0.149126
0.0618188 0.247417 0.167649
0.0930837 0.247416 0.244386
0.0695416 0.235498 0.290304
-0.256704 0.191886 -0.111853
-0.094633 0.247417 -0.191728
-0.0701179 0.247418 -0.131563
-0.0541298 0.247418 -0.0923253
-0.0456029 0.247418 -0.0713984
-0.0296147 0.247418 -0.0321606
-0.0125616 0.247418 0.0096935
-0.00510103 0.247418 0.0280047
0.0194122 0.247417 0.0881701
0.0364648 0.247417 0.130024
0.0599121 0.247416 0.187573
0.0684382 0.247416 0.2085
-0.104149 0.191535 0.265573
-0.277616 0.193979 -0.16233
-0.255828 0.191886 -0.0910534
-0.0958031 0.247418 -0.170555
-0.0884262 0.247418 -0.152451
-0.071565 0.247418 -0.11107
-0.0473269 0.247418 -0.0515851
-0.0304663 0.247418 -0.010204
-0.00623006 0.247417 0.0492816
0.00220001 0.247417 0.0699722
0.0180061 0.247417 0.108767
0.0338123 0.247417 0.147562
0.0422422 0.247417 0.168252
0.0738543 0.247416 0.245841
0.0498417 0.235498 0.28826
-0.277592 0.193517 -0.139955
-0.254971 0.191886 -0.070719
-0.0896526 0.247418 -0.131953
-0.0729797 0.247418 -0.0910349
-0.049013 0.247418 -0.0322143
-0.0281734 0.247418 0.0189344
-4.00543e-05 0.247417 0.0879849
0.0166315 0.247417 0.128904
0.0405968 0.247416 0.187724
0.0489325 0.247416 0.208183
-0.119562 0.191535 0.264558
-0.277571 0.19339 -0.120867
-0.254133 0.191886 -0.0508339
-0.0908518 0.247418 -0.111909
-0.0743632 0.247418 -0.0714425
-0.0661193 0.247418 -0.0512091
-0.0496318 0.247418 -0.0107422
-0.0290225 0.247417 0.0398413
-0.0176874 0.247417 0.0676622
-0.00120008 0.247417 0.108129
0.023531 0.247416 0.168828
-0.119436 0.191534 0.282668
0.0319933 0.235498 0.288713
-0.276698 0.209218 -0.231331
-0.27755 0.193266 -0.102221
-0.253314 0.191886 -0.0313835
-0.0879477 0.247418 -0.0822964
-0.0675635 0.247418 -0.0322655
-0.0512562 0.247418 0.00775903
-0.0186418 0.247417 0.0878079
0.00174218 0.247417 0.137838
0.022126 0.247416 0.187868
0.0302796 0.247416 0.20788
0.046587 0.247416 0.247905
-0.29161 0.212564 -0.276556
-0.256954 0.217457 -0.231308
-0.276757 0.191884 -0.071841
-0.268156 0.191884 -0.0507313
-0.252512 0.191886 -0.0123536
-0.0881323 0.247418 -0.060747
-0.0679684 0.247418 -0.0112571
-0.0478047 0.247417 0.0382326
-0.0397393 0.247417 0.0580285
-0.0195756 0.247417 0.107518
0.00159615 0.247416 0.159482
-0.137141 0.191534 0.273654
0.0149165 0.235498 0.289147
-0.210696 0.238842 -0.270985
-0.277645 0.208149 -0.188246
-0.267204 0.191884 -0.0316983
-0.250953 0.191886 0.00816765
-0.0893102 0.247418 -0.0421067
-0.0683646 0.247418 0.0093019
-0.0404375 0.247417 0.0778464
-0.019492 0.247417 0.129255
0.000455797 0.247416 0.178215
0.0124245 0.247416 0.207591
0.0293814 0.247416 0.249206
-0.191353 0.246461 -0.263847
-0.277626 0.2082 -0.170878
-0.265507 0.191884 -0.0111896
-0.0894764 0.247418 -0.0214387
-0.0687524 0.247417 0.0294258
-0.0401339 0.247417 0.0996669
-0.0203971 0.247416 0.148109
-0.281516 0.218922 -0.247557
-0.277604 0.207896 -0.151065
-0.255511 0.191885 0.0293346
-0.0896391 0.247418 -0.00120366
-0.0691323 0.247417 0.0491282
-0.0408134 0.247417 0.118634
-0.0203066 0.247416 0.168965
-0.00858867 0.247416 0.197726
-0.160415 0.191535 0.26548
-0.00935739 0.235498 0.289763
-0.193206 0.247418 -0.235183
-0.270462 0.191884 0.00831798
-0.25397 0.191885 0.0487858
-0.0897984 0.247417 0.018612
-0.0695041 0.247417 0.0684222
-0.00862151 0.247416 0.217852
-0.234618 0.172558 0.247014
0.00491005 0.247416 0.251058
-0.207598 0.247421 -0.250739
-0.193257 0.247419 -0.215519
-0.25246 0.191886 0.0678381
-0.0899544 0.247417 0.0380212
-0.0689118 0.247417 0.089668
-0.0488257 0.247416 0.138967
-0.0287398 0.247416 0.188266
-0.0256204 0.235498 0.287919
-0.207509 0.247419 -0.23111
-0.193307 0.247419 -0.196254
-0.266405 0.191884 0.0486595
-0.250247 0.191886 0.0883056
-0.0891605 0.247417 0.05936
-0.0692784 0.247417 0.108159
-0.0484495 0.247416 0.159281
-0.0285673 0.247416 0.208079
-0.17568 0.191535 0.273995
-0.276698 0.22751 -0.231331
-0.207416 0.247419 -0.211882
-0.193356 0.247419 -0.177376
-0.277534 0.208101 -0.0865785
-0.0893198 0.247417 0.0779694
-0.0687003 0.247416 0.128578
-0.0480806 0.247416 0.179186
-0.255121 0.235463 -0.220806
-0.206396 0.247419 -0.190759
-0.192477 0.247418 -0.156596
-0.277517 0.20815 -0.0712402
-0.270426 0.191885 0.0679661
-0.253872 0.191885 0.108591
-0.0885481 0.247417 0.098486
-0.0681337 0.247416 0.148591
-0.0477192 0.247416 0.198696
-0.0474766 0.235498 0.288541
-0.291611 0.233246 -0.276555
-0.253952 0.235463 -0.200566
-0.206316 0.247419 -0.172307
-0.191615 0.247418 -0.136225
-0.268102 0.191885 0.0878275
-0.25171 0.191886 0.128052
-0.0877916 0.247416 0.118598
-0.0675783 0.247416 0.16821
-0.196438 0.191536 0.266294
-0.252806 0.235463 -0.180721
-0.19077 0.247418 -0.116252
-0.277484 0.208245 -0.0414409
-0.277407 0.198771 0.028312
-0.265117 0.191885 0.109033
-0.0542961 0.247416 0.218708
-0.278828 0.238168 -0.247554
-0.267973 0.235464 -0.20125
-0.251681 0.235463 -0.16126
-0.212468 0.247418 -0.151953
-0.189942 0.247418 -0.0966649
-0.254502 0.191885 0.148695
-0.0944316 0.247416 0.137754
-0.0737078 0.247416 0.188617
-0.178999 0.197867 0.290498
-0.0680658 0.235498 0.289127
-0.266715 0.235464 -0.181778
-0.250579 0.235463 -0.142171
-0.189129 0.247418 -0.0774526
-0.277452 0.208336 -0.0127567
-0.251704 0.191885 0.168913
-0.092748 0.247416 0.159103
-0.0722226 0.247416 0.20948
-0.215734 0.247418 -0.125862
-0.206011 0.247418 -0.101996
-0.187448 0.247418 -0.056435
-0.273641 0.191885 0.128173
-0.265414 0.191885 0.148365
-0.0919803 0.247416 0.177878
-0.209514 0.191535 0.288059
-0.271769 0.235465 -0.16234
-0.255103 0.235464 -0.121432
-0.254417 0.191885 0.188207
-0.222797 0.191535 0.268288
-0.253173 0.235464 -0.10122
-0.192854 0.247417 -0.036865
-0.251025 0.191885 0.209144
-0.0965604 0.247416 0.199476
-0.0887527 0.247415 0.218639
-0.094556 0.235498 0.287832
-0.275819 0.235465 -0.141611
-0.25128 0.235464 -0.0813801
-0.215251 0.247418 -0.0758712
-0.191185 0.247417 -0.0168027
-0.273028 0.191885 0.167524
-0.234618 0.194016 0.247014
-0.265631 0.235465 -0.10169
-0.213393 0.247417 -0.0556358
-0.207431 0.247417 -0.0410035
-0.189546 0.247417 0.00289321
-0.277376 0.208239 0.0566055
-0.249417 0.193253 0.228226
-0.10667 0.235498 0.288214
-0.289221 0.247415 -0.226328
-0.277571 0.236128 -0.120867
-0.255627 0.235465 -0.0624913
-0.107761 0.247415 0.219014
-0.287569 0.247415 -0.207159
-0.268886 0.235465 -0.0806526
-0.252966 0.235465 -0.0415792
-0.209776 0.247417 -0.016254
-0.193884 0.247417 0.0227496
-0.277349 0.208325 0.0817684
-0.250353 0.235465 -0.0210389
-0.208016 0.247417 0.00291178
-0.191437 0.247417 0.0436032
-0.277333 0.208065 0.0960434
-0.290924 0.247415 -0.185969
-0.205465 0.247417 0.0237565
-0.189032 0.247416 0.0640893
-0.249742 0.208365 0.174039
-0.288486 0.247415 -0.165656
-0.266192 0.235466 -0.0324008
-0.253789 0.235466 -0.00196138
-0.277307 0.208152 0.119854
-0.133728 0.247415 0.214154
-0.135104 0.235498 0.289112
-0.251236 0.235466 0.0177026
-0.192421 0.247416 0.0841801
-0.251739 0.208364 0.193061
-0.131865 0.247415 0.232808
-0.222965 0.205314 0.283557
-0.268536 0.235466 -0.011586
-0.216486 0.247417 0.0389549
-0.19007 0.247416 0.10379
-0.277281 0.208235 0.142865
-0.269567 0.208364 0.160963
-0.249432 0.207776 0.214177
-0.25306 0.235466 0.0393414
-0.21395 0.247416 0.0587831
-0.187759 0.247416 0.123067
-0.277505 0.243851 -0.0611795
-0.2708 0.235466 0.00852627
-0.250578 0.235466 0.0581591
-0.211457 0.247416 0.0782767
-0.184699 0.247416 0.143949
-0.17683 0.247416 0.163265
-0.16896 0.247415 0.18258
-0.160303 0.247415 0.203827
-0.152433 0.247415 0.223142
-0.222984 0.213583 0.264865
-0.156123 0.235498 0.289775
-0.287831 0.247415 -0.0960062
-0.208225 0.247416 0.0993594
