ply
format ascii 1.0
comment Created by Open3D
element vertex 599
property double x
property double y
property double z
end_header
0.165018 -0.43972 0.162364
0.165062 -0.436836 0.139486
0.15669 -0.439998 -0.137232
0.165149 -0.437643 -0.159376
0.165258 -0.420426 0.162358
0.140044 -0.438357 -0.137211
0.165351 -0.413635 0.139485
0.165302 -0.424888 -0.139142
0.165348 -0.421725 -0.159323
0.165498 -0.401141 0.162352
0.140903 -0.421874 -0.137002
0.165591 -0.39431 0.139484
0.165596 -0.401835 -0.159257
0.165648 -0.397096 -0.139056
0.165738 -0.381722 0.166147
0.141963 -0.40131 -0.136746
0.165832 -0.374714 0.147115
0.156297 -0.378811 0.124087
0.156214 -0.379547 0.104732
0.155923 -0.380642 0.0774989
0.155323 -0.381706 0.0540052
0.154126 -0.382837 0.0342632
0.156332 -0.37887 0.0147754
0.156204 -0.379916 -0.0129312
0.155921 -0.380733 -0.0328445
0.155416 -0.381629 -0.052881
0.154279 -0.382746 -0.0731304
0.165843 -0.381807 -0.155147
0.156369 -0.378787 -0.0928325
0.156287 -0.379537 -0.113022
0.156231 -0.379991 -0.125176
0.165978 -0.362461 0.16614
0.15623 -0.359406 0.124086
0.156304 -0.360054 0.104734
0.156314 -0.36113 0.0736198
0.156321 -0.361806 0.0540785
0.166121 -0.3513 0.15473
0.156193 -0.358879 0.0265841
0.156248 -0.359267 0.0147663
0.156343 -0.360187 -0.0129126
0.15635 -0.360866 -0.0327794
0.156356 -0.361549 -0.0527214
0.166092 -0.361527 -0.142974
0.166091 -0.361943 -0.155082
0.156211 -0.358733 -0.0848168
0.156304 -0.359386 -0.10494
0.166266 -0.339359 0.166132
0.0831925 -0.375484 -0.146672
0.144292 -0.356204 -0.136181
-0.136695 -0.438321 -0.137947
-0.136696 -0.438989 -0.158297
0.0648472 -0.376862 -0.146665
0.166361 -0.332031 0.154726
-0.15897 -0.440031 -0.137135
0.166339 -0.341564 -0.138883
0.166337 -0.342219 -0.159058
0.0258219 -0.379934 -0.146792
0.144925 -0.343934 -0.136027
0.0648472 -0.363941 -0.146665
0.166506 -0.320116 0.166126
-0.136445 -0.418209 -0.137898
-0.136446 -0.418846 -0.158245
0.00632095 -0.376744 -0.146644
0.0762124 -0.356363 -0.148339
-0.157624 -0.419286 -0.136877
-0.0144453 -0.37823 -0.146637
-0.0365546 -0.379959 -0.146773
0.0264388 -0.361979 -0.146652
0.166586 -0.321748 -0.138821
0.166585 -0.322365 -0.158991
0.166649 -0.308919 0.154721
0.00632095 -0.363208 -0.146644
0.14597 -0.323519 -0.135774
-0.136195 -0.398104 -0.137849
-0.136196 -0.39871 -0.158192
-0.0580524 -0.376614 -0.146622
0.166745 -0.300882 0.166119
-0.156281 -0.39858 -0.13662
-0.0809637 -0.378174 -0.146614
-0.0144615 -0.359896 -0.146641
-0.105379 -0.379985 -0.146753
-0.0358918 -0.361126 -0.14663
0.16684 -0.293736 0.147104
-0.145536 -0.377874 0.130806
-0.145529 -0.378436 0.111144
-0.145541 -0.379005 0.0914237
-0.145612 -0.379592 0.0716411
-0.145713 -0.380189 0.0517954
-0.145969 -0.380829 0.0318758
-0.146333 -0.3815 0.0118798
-0.146889 -0.382225 -0.00820649
-0.14851 -0.383241 -0.0284925
0.166833 -0.301941 -0.13876
-0.145476 -0.37799 -0.0482789
-0.14547 -0.37856 -0.0684774
-0.1455 -0.379142 -0.0887428
-0.145571 -0.379737 -0.109078
-0.145722 -0.380355 -0.129491
0.166881 -0.298552 -0.158912
-0.129195 -0.371484 -0.146597
-0.0815032 -0.359048 -0.146727
0.166984 -0.281656 0.166112
-0.104664 -0.360185 -0.146605
0.147425 -0.295003 -0.135421
-0.145897 -0.358207 0.130804
-0.145689 -0.35869 0.111142
-0.145616 -0.359207 0.0914214
-0.145541 -0.359726 0.0716443
-0.145509 -0.360257 0.0518075
-0.145503 -0.360797 0.0319101
-0.145496 -0.361338 0.011953
-0.14549 -0.36188 -0.00806402
0.16708 -0.274478 0.147101
-0.146 -0.357827 -0.0382665
-0.145792 -0.358315 -0.0584144
-0.145611 -0.358812 -0.0786214
-0.145536 -0.359337 -0.0989023
-0.14546 -0.359863 -0.119243
0.167079 -0.282143 -0.138698
-0.135631 -0.353296 -0.152984
0.167128 -0.278718 -0.158846
0.167224 -0.262439 0.166106
0.148466 -0.274678 -0.135169
-0.135382 -0.333065 -0.147849
0.167325 -0.262354 -0.138637
0.167367 -0.251192 0.154708
0.167375 -0.258892 -0.158779
0.14951 -0.254391 -0.134915
0.167511 -0.239389 0.166098
-0.135131 -0.312975 -0.147798
0.167607 -0.231966 0.154704
0.166893 -0.238685 -0.134721
0.167622 -0.238984 -0.154677
-0.134882 -0.292892 -0.147747
0.150553 -0.234141 -0.134663
0.16775 -0.22019 0.166091
-0.149233 -0.290506 -0.13527
0.167867 -0.218765 -0.134481
0.167868 -0.219184 -0.154612
0.167894 -0.208907 0.154699
-0.134631 -0.272817 -0.147697
0.134173 -0.221253 -0.134497
-0.147896 -0.270041 -0.135014
0.151593 -0.213929 -0.13441
0.167989 -0.200999 0.166084
0.168086 -0.193684 0.147091
-0.134382 -0.252748 -0.147646
0.168113 -0.199012 -0.134421
0.168114 -0.19924 -0.146487
-0.146562 -0.249615 -0.134759
0.152632 -0.193754 -0.134159
0.168227 -0.181817 0.166078
-0.134133 -0.232599 -0.142519
-0.13413 -0.232953 -0.162847
0.168325 -0.17447 0.147088
-0.14523 -0.229228 -0.134504
0.168359 -0.179268 -0.13436
0.16836 -0.179473 -0.146424
0.153668 -0.173618 -0.133907
-0.133884 -0.212472 -0.137399
-0.133881 -0.212795 -0.157707
0.168514 -0.158809 0.16607
0.168605 -0.159532 -0.1343
0.168606 -0.159715 -0.146361
0.168609 -0.160021 -0.166523
0.168611 -0.151311 0.154686
-0.133635 -0.19244 -0.13735
-0.13363 -0.192806 -0.16274
0.154703 -0.153519 -0.133656
0.168752 -0.139645 0.166063
0.16885 -0.139806 -0.13424
0.168852 -0.139966 -0.146297
0.168855 -0.140234 -0.166455
0.16885 -0.132129 0.154682
-0.133385 -0.172415 -0.137301
-0.133381 -0.172743 -0.162687
-0.168184 -0.166336 -0.133711
0.138868 -0.131392 -0.133376
0.168991 -0.120489 0.166056
-0.133136 -0.152398 -0.137253
-0.133132 -0.15263 -0.15755
0.169096 -0.120088 -0.134179
0.169098 -0.120225 -0.146234
0.169101 -0.120456 -0.166388
0.169136 -0.109121 0.154677
-0.166804 -0.145724 -0.133452
0.13993 -0.111073 -0.133122
0.169229 -0.101342 0.16605
-0.132887 -0.132388 -0.137204
-0.132883 -0.132589 -0.157498
0.165022 -0.0982937 0.124177
0.165029 -0.0984768 0.104977
0.165039 -0.0987711 0.0741068
0.165045 -0.098956 0.0547193
0.165054 -0.099216 0.0274546
0.165062 -0.0994399 0.00397056
0.169341 -0.100379 -0.134119
0.169344 -0.100494 -0.146171
0.169347 -0.100686 -0.16632
0.169329 -0.0938592 0.147078
0.165069 -0.0957203 -0.0156806
0.165075 -0.095901 -0.035406
0.165082 -0.0960824 -0.0552059
0.165088 -0.0962645 -0.0750809
0.165095 -0.0964473 -0.0950315
0.169467 -0.0821724 0.169828
0.165065 -0.0839046 -0.00388101
0.165069 -0.0839995 -0.0156806
0.165075 -0.0841581 -0.0354059
0.165082 -0.0843172 -0.0552059
0.165088 -0.084477 -0.0750809
0.165095 -0.0846374 -0.0950314
0.165102 -0.0847984 -0.115058
0.165019 -0.0789618 0.131837
0.165027 -0.0791382 0.108822
0.165033 -0.0792858 0.0895647
0.16504 -0.079434 0.0702351
0.165047 -0.0795827 0.0508331
0.165053 -0.079732 0.0313583
0.169589 -0.080771 -0.146108
0.169593 -0.0809256 -0.166252
0.169566 -0.0746603 0.150874
0.165063 -0.0643677 4.62234e-05
0.16507 -0.064489 -0.0196198
0.165076 -0.0646108 -0.03936
0.165083 -0.0647331 -0.0591749
0.16509 -0.0648558 -0.0790649
0.165097 -0.0649789 -0.0990305
0.169723 -0.0592267 0.16982
0.169736 -0.0594467 0.131853
0.169743 -0.0595795 0.108937
0.16975 -0.0596907 0.0897616
0.169756 -0.0598022 0.0705149
0.169762 -0.0599142 0.0511961
0.169769 -0.0600266 0.0318049
0.169822 -0.0609644 -0.129991
0.169829 -0.0610807 -0.150068
0.169836 -0.0611975 -0.170223
0.169729 -0.0440239 0.150871
0.169779 -0.04467 0.000627071
0.169786 -0.0447542 -0.0189546
0.169792 -0.0448387 -0.0386102
0.169799 -0.0449235 -0.0583401
0.101811 -0.0426255 0.16793
0.103576 -0.0426241 0.151801
0.105723 -0.0426246 0.13164
0.107869 -0.0426251 0.111479
0.110019 -0.0426255 0.0913175
0.112201 -0.0426246 0.0711575
0.114384 -0.0426238 0.0509983
0.116567 -0.0426229 0.03084
0.118749 -0.0426221 0.0106824
0.120932 -0.0426212 -0.00947434
0.123114 -0.0426203 -0.0296303
0.125297 -0.0426195 -0.0497855
0.127479 -0.0426186 -0.0699398
0.129661 -0.0426178 -0.0900933
0.131843 -0.0426169 -0.110246
0.134025 -0.0426161 -0.130398
0.136207 -0.0426152 -0.150549
-0.0200598 -0.0426233 0.166887
-0.0185206 -0.0426198 0.153516
-0.0156176 -0.0426185 0.12678
-0.0141954 -0.0426188 0.113411
-0.0113511 -0.0426195 0.0866747
-0.00992882 -0.0426198 0.073306
-0.00708425 -0.0426205 0.0465679
-0.00566173 -0.0426208 0.0331986
-0.00281703 -0.0426214 0.00645933
-0.00140679 -0.0426222 -0.00691198
0.00142801 -0.0426232 -0.0336541
0.00384319 -0.0426222 -0.0559321
0.00674081 -0.0426211 -0.0826645
0.0081898 -0.0426205 -0.0960302
0.0110873 -0.0426194 -0.122761
0.0125359 -0.0426189 -0.136125
0.0154331 -0.0426177 -0.162853
-0.132106 -0.0414625 0.169625
-0.1321 -0.0415241 0.150266
-0.166964 -0.0426239 0.130734
-0.164806 -0.0426232 0.110812
-0.162648 -0.0426225 0.0908892
-0.160489 -0.0426218 0.0709676
-0.158331 -0.0426211 0.0510466
-0.156173 -0.0426204 0.0311264
-0.154015 -0.0426196 0.0112068
-0.151859 -0.042619 -0.00871237
-0.149724 -0.0426189 -0.0286333
-0.147588 -0.0426189 -0.0485541
-0.145453 -0.0426189 -0.068475
-0.143318 -0.0426188 -0.0883959
-0.141183 -0.0426188 -0.108317
-0.139048 -0.0426188 -0.128238
-0.132002 -0.0424694 -0.147165
-0.131995 -0.042534 -0.167475
-0.161196 -0.0381981 -0.132398
-0.132106 -0.0219508 0.169625
-0.1321 -0.0219833 0.150266
-0.134308 -0.0224953 -0.132412
-0.132 -0.0224924 -0.152236
-0.161179 -0.0178256 -0.132395
-0.132106 -0.00243899 0.169625
-0.1321 -0.00244261 0.150266
-0.134308 -0.00249949 -0.132412
-0.132 -0.00249917 -0.152236
-0.13681 0.0024545 0.130835
-0.136803 0.00245815 0.111295
-0.136797 0.00246182 0.091697
-0.13679 0.00246549 0.0720405
-0.136784 0.00246918 0.0523252
-0.136775 0.0024738 0.0275982
-0.136769 0.00247751 0.00774969
-0.136762 0.00248123 -0.0121584
-0.136756 0.00248497 -0.0321264
-0.136749 0.00248871 -0.0521546
-0.136742 0.00249247 -0.0722431
-0.136736 0.00249623 -0.0923926
-0.136731 0.00249907 -0.107545
-0.136724 0.0175198 -0.127801
-0.132106 0.0219508 0.169625
-0.1321 0.0219833 0.150266
-0.13681 0.0220903 0.130835
-0.136803 0.0221232 0.111295
-0.136797 0.0221562 0.091697
-0.13679 0.0221893 0.0720405
-0.136784 0.0222224 0.0523252
-0.136775 0.0222641 0.0275982
-0.136769 0.0222974 0.00774969
-0.136762 0.0223309 -0.0121584
-0.136756 0.0223645 -0.0321264
-0.136749 0.0223983 -0.0521546
-0.136742 0.022432 -0.0722431
-0.136736 0.022466 -0.0923926
-0.136731 0.0224915 -0.107545
-0.132 0.0224924 -0.152236
-0.136724 0.0375426 -0.127801
-0.132106 0.0414625 0.169625
-0.1321 0.0415241 0.150266
-0.13681 0.0417262 0.130835
-0.136803 0.0417883 0.111295
-0.136797 0.0418506 0.091697
-0.13679 0.041913 0.0720405
-0.136784 0.0419757 0.0523252
-0.136775 0.0420543 0.0275982
-0.136769 0.0421174 0.00774969
-0.136762 0.0421807 -0.0121584
-0.136756 0.0422441 -0.0321264
-0.136749 0.0423078 -0.0521546
-0.136742 0.0423716 -0.0722431
-0.136736 0.0424357 -0.0923926
-0.136731 0.0424838 -0.107545
-0.132 0.0424856 -0.152236
-0.136724 0.0575653 -0.127801
-0.132106 0.0609743 0.169625
-0.1321 0.0610648 0.150266
-0.13681 0.061362 0.130835
-0.136803 0.0614533 0.111295
-0.136797 0.061545 0.091697
-0.13679 0.0616368 0.0720405
-0.136784 0.061729 0.0523252
-0.136775 0.0618446 0.0275982
-0.136769 0.0619373 0.00774969
-0.136762 0.0620304 -0.0121584
-0.136756 0.0621237 -0.0321264
-0.136749 0.0622173 -0.0521546
-0.136742 0.0623112 -0.0722431
-0.136736 0.0624054 -0.0923926
-0.136731 0.0624762 -0.107545
-0.132 0.0624787 -0.152236
-0.144864 0.0769564 0.0568087
-0.143853 0.0770167 0.0370055
-0.143846 0.0771321 0.0170868
-0.143839 0.0772479 -0.00289179
-0.143833 0.0773641 -0.0229305
-0.143826 0.0774805 -0.0430294
-0.161167 0.0789412 -0.132393
-0.132106 0.0804861 0.169625
-0.1321 0.0806056 0.150266
-0.134308 0.0824827 -0.132412
-0.132 0.082472 -0.152236
-0.144864 0.0968161 0.0568087
-0.143853 0.0968919 0.0370055
-0.143846 0.0970372 0.0170868
-0.143839 0.0971828 -0.00289179
-0.143833 0.0973289 -0.0229305
-0.143826 0.0974755 -0.0430294
-0.161167 0.0993131 -0.132393
-0.132106 0.0999979 0.169625
-0.1321 0.100146 0.150266
-0.134308 0.102478 -0.132412
-0.132 0.102465 -0.152236
-0.144864 0.116676 0.0568087
-0.143853 0.116767 0.0370055
-0.143846 0.116942 0.0170868
-0.143839 0.117118 -0.00289179
-0.143833 0.117294 -0.0229305
-0.143826 0.117471 -0.0430294
-0.161173 0.119686 -0.132394
-0.132106 0.11951 0.169625
-0.1321 0.119687 0.150266
-0.134308 0.122474 -0.132412
-0.132 0.122458 -0.152236
-0.144864 0.136536 0.0568087
-0.143853 0.136643 0.0370055
-0.143846 0.136847 0.0170868
-0.143839 0.137053 -0.00289179
-0.143833 0.137259 -0.0229305
-0.143826 0.137466 -0.0430294
-0.16118 0.140058 -0.132395
-0.132106 0.139021 0.169625
-0.1321 0.139228 0.150266
-0.134308 0.14247 -0.132412
-0.132 0.142452 -0.152236
-0.144864 0.156395 0.0568087
-0.143853 0.156518 0.0370055
-0.143846 0.156752 0.0170868
-0.143839 0.156988 -0.00289179
-0.143833 0.157224 -0.0229305
-0.143826 0.15746 -0.0430294
-0.161187 0.160431 -0.132397
-0.132106 0.158533 0.169625
-0.1321 0.158769 0.150266
-0.134308 0.162466 -0.132412
-0.132 0.162445 -0.152236
-0.144864 0.176255 0.0568087
-0.143853 0.176393 0.0370055
-0.143846 0.176657 0.0170868
-0.143839 0.176923 -0.00289179
-0.143833 0.177189 -0.0229305
-0.143826 0.177455 -0.0430294
-0.161193 0.180804 -0.132398
-0.132106 0.178045 0.169625
-0.132101 0.178309 0.150266
-0.134308 0.182462 -0.132412
-0.132 0.182438 -0.152236
-0.144864 0.196115 0.0568087
-0.143853 0.196268 0.0370055
-0.143846 0.196562 0.0170868
-0.143839 0.196858 -0.00289179
-0.143833 0.197154 -0.0229305
-0.143826 0.19745 -0.0430294
-0.1612 0.201177 -0.132399
-0.132106 0.197557 0.169625
-0.132101 0.19785 0.150266
-0.134308 0.202457 -0.132412
-0.132001 0.202431 -0.152237
-0.144864 0.215975 0.0568087
-0.143853 0.216144 0.0370055
-0.143846 0.216468 0.0170868
-0.143839 0.216793 -0.00289179
-0.143833 0.217118 -0.0229305
-0.143826 0.217445 -0.0430294
-0.161206 0.221551 -0.1324
-0.132097 0.217552 0.140566
-0.134308 0.222453 -0.132412
-0.132 0.222424 -0.152236
-0.132106 0.221947 0.169625
-0.144864 0.235834 0.0568087
-0.143853 0.236019 0.0370055
-0.143846 0.236373 0.0170868
-0.143839 0.236727 -0.00289179
-0.143833 0.237083 -0.0229305
-0.143826 0.23744 -0.0430294
-0.161213 0.241924 -0.132402
-0.134308 0.242449 -0.132412
-0.132 0.242418 -0.152236
-0.132106 0.241458 0.169625
-0.1321 0.241817 0.150266
-0.144864 0.255694 0.0568087
-0.143853 0.255894 0.0370055
-0.143846 0.256278 0.0170868
-0.143839 0.256662 -0.00289179
-0.143833 0.257048 -0.0229305
-0.143826 0.257435 -0.0430294
-0.16122 0.262298 -0.132403
-0.134308 0.262445 -0.132412
-0.132 0.262411 -0.152236
-0.132106 0.26097 0.169625
-0.1321 0.261357 0.150266
-0.161225 0.277579 -0.132404
-0.144864 0.275554 0.0568087
-0.143853 0.275769 0.0370055
-0.143846 0.276183 0.0170868
-0.143839 0.276597 -0.00289179
-0.143833 0.277013 -0.0229305
-0.143826 0.27743 -0.0430294
-0.134308 0.282441 -0.132412
-0.132 0.282404 -0.152236
-0.132106 0.280482 0.169625
-0.132101 0.280898 0.150266
-0.161231 0.297953 -0.132405
-0.144864 0.295413 0.0568087
-0.143853 0.295645 0.0370055
-0.143846 0.296088 0.0170868
-0.143839 0.296532 -0.00289179
-0.143833 0.296978 -0.0229305
-0.143826 0.297425 -0.0430294
-0.134308 0.302436 -0.132412
-0.132001 0.302397 -0.152237
-0.132106 0.299994 0.169625
-0.132101 0.300439 0.150266
-0.160109 0.312511 -0.111599
-0.160155 0.312503 0.105916
-0.158028 0.312503 0.0860505
-0.155901 0.312504 0.0661848
-0.142082 0.312507 -0.062944
-0.139951 0.312506 -0.0828094
-0.137819 0.312505 -0.102675
-0.131995 0.31275 -0.167475
-0.14037 0.312511 0.130823
-0.13828 0.312512 0.111269
-0.136797 0.312649 0.091697
-0.136762 0.315115 -0.0121584
-0.136755 0.315589 -0.0321264
-0.136727 0.322622 -0.117665
-0.132004 0.322146 -0.142096
-0.132106 0.319506 0.169625
-0.132101 0.31998 0.150266
-0.136788 0.323098 0.0671172
-0.136782 0.323581 0.0473873
-0.136777 0.323944 0.032551
-0.13677 0.32443 0.0127174
-0.136751 0.325896 -0.0471418
-0.136744 0.326388 -0.0672153
-0.136737 0.326881 -0.0873495
-0.13681 0.326446 0.130835
-0.136803 0.326932 0.111295
-0.131998 0.332513 -0.157312
-0.136759 0.335216 -0.0221349
-0.136731 0.337372 -0.107545
-0.136797 0.337267 0.091697
-0.136724 0.342889 -0.127801
-0.132106 0.339017 0.169625
-0.1321 0.33952 0.150266
-0.136788 0.342829 0.0671172
-0.136782 0.343342 0.0473873
-0.136777 0.343727 0.032551
-0.13677 0.344243 0.0127174
-0.136754 0.345538 -0.0371277
-0.136747 0.346059 -0.0571711
-0.136741 0.346581 -0.0772749
-0.136809 0.346082 0.130835
-0.136803 0.346597 0.111295
-0.131998 0.352514 -0.157312
-0.136759 0.355081 -0.0221349
-0.136732 0.357229 -0.10249
-0.136796 0.356961 0.091697
-0.136728 0.362637 -0.117665
-0.132003 0.362102 -0.142096
-0.132106 0.358529 0.169625
-0.1321 0.359061 0.150266
-0.136788 0.36256 0.0671172
-0.136782 0.363102 0.0473873
-0.136777 0.36351 0.032551
-0.13677 0.364055 0.0127174
-0.136754 0.365425 -0.0371278
-0.136747 0.365976 -0.0571711
-0.136741 0.366529 -0.0772748
-0.136809 0.365718 0.130835
-0.136803 0.366262 0.111295
-0.131998 0.372515 -0.157312
-0.136732 0.377214 -0.10249
-0.136796 0.376655 0.091697
-0.13679 0.377217 0.0720405
-0.136728 0.382644 -0.117665
-0.132003 0.38208 -0.142096
-0.132107 0.378041 0.169625
-0.1321 0.378602 0.150266
-0.136782 0.382863 0.0473872
-0.136778 0.383293 0.0325509
-0.136771 0.383868 0.0127174
-0.136764 0.384444 -0.0071758
-0.136757 0.385022 -0.0271288
-0.136751 0.385602 -0.0471418
-0.136744 0.386184 -0.0672153
-0.136807 0.385497 0.125955
-0.136801 0.386071 0.106401
-0.131999 0.392516 -0.157312
-0.136736 0.396899 -0.0923926
-0.136732 0.397349 -0.107545
-0.136795 0.396497 0.0867883
-0.136789 0.39709 0.0671172
-0.132103 0.397847 0.159953
-0.136783 0.402624 0.0473872
-0.136777 0.403076 0.032551
-0.13677 0.40368 0.0127174
-0.136764 0.404286 -0.00717577
-0.136754 0.405199 -0.0371277
-0.136747 0.40581 -0.0571711
-0.136802 0.405743 0.106401
-0.136741 0.416396 -0.0772749
-0.136796 0.4162 0.0867883
-0.136789 0.416821 0.0671172
-0.13678 0.422542 0.0424455
-0.136772 0.423334 0.0176814
-0.136766 0.42397 -0.00219686
-0.136759 0.424607 -0.0221349
-0.136752 0.425246 -0.0421329
-0.136746 0.425888 -0.0621914
