ply
format ascii 1.0
comment Created by Open3D
element vertex 993
property double x
property double y
property double z
end_header
-0.254889 -0.20908 0.312709
-0.254884 -0.208636 0.332862
-0.254879 -0.208194 0.35293
-0.239156 -0.209483 0.376458
-0.231043 -0.207786 0.312236
-0.255052 -0.210002 -0.360491
-0.255047 -0.209585 -0.340264
-0.255042 -0.209168 -0.320117
-0.242105 -0.209623 -0.312344
-0.241875 -0.208113 -0.374031
-0.254889 -0.190899 0.312709
-0.254884 -0.190494 0.332862
-0.254879 -0.19009 0.35293
-0.239156 -0.191037 0.376458
-0.231043 -0.191699 0.312236
-0.255041 -0.192491 -0.317245
-0.248903 -0.192133 -0.366978
-0.255051 -0.190424 -0.354704
-0.242105 -0.189926 -0.312344
-0.254886 -0.172489 0.325314
-0.254879 -0.171986 0.35293
-0.248178 -0.171673 0.312228
-0.239156 -0.169957 0.376458
-0.231043 -0.170251 0.312236
-0.248903 -0.172499 -0.366978
-0.255051 -0.170964 -0.354704
-0.255044 -0.170479 -0.325865
-0.242105 -0.17023 -0.312344
-0.254889 -0.15194 0.312709
-0.254884 -0.151617 0.332862
-0.254879 -0.151296 0.35293
-0.239156 -0.151512 0.376458
-0.231043 -0.151483 0.312236
-0.255052 -0.151591 -0.360491
-0.255047 -0.15129 -0.340264
-0.255042 -0.150989 -0.320117
-0.241875 -0.151484 -0.374031
-0.242105 -0.150534 -0.312344
-0.248178 -0.132358 0.312228
-0.254885 -0.130953 0.327832
-0.25488 -0.130675 0.347921
-0.247298 -0.131737 0.368291
0.233898 -0.209196 0.312341
0.23089 -0.208466 0.328651
0.230895 -0.208187 0.349692
0.2309 -0.207909 0.370676
-0.231043 -0.130034 0.312236
-0.255052 -0.132121 -0.360491
-0.255047 -0.131858 -0.340264
-0.255042 -0.131596 -0.320117
-0.241875 -0.131663 -0.374031
-0.242105 -0.130838 -0.312344
0.23072 -0.208834 -0.375795
0.230724 -0.2086 -0.357414
0.230727 -0.208425 -0.343656
0.230734 -0.208076 -0.316209
0.247298 -0.206197 -0.312224
0.233898 -0.191942 0.312341
0.23089 -0.191273 0.328651
0.230895 -0.191017 0.349692
0.2309 -0.190762 0.370676
-0.254878 -0.112472 0.355433
0.23072 -0.19087 -0.375795
0.230724 -0.190656 -0.357414
0.230727 -0.190496 -0.343656
0.230734 -0.190177 -0.316209
-0.248178 -0.111391 0.312228
-0.254885 -0.110208 0.327832
-0.239156 -0.111987 0.376458
-0.231043 -0.111266 0.312236
-0.255049 -0.11249 -0.346035
-0.255044 -0.112267 -0.325865
0.247298 -0.183538 -0.312224
-0.241875 -0.111843 -0.374031
-0.242105 -0.111142 -0.312344
0.233898 -0.170376 0.312341
0.23089 -0.169782 0.328651
0.230895 -0.169554 0.349692
0.2309 -0.169328 0.370676
0.230729 -0.17247 -0.334497
0.23072 -0.168414 -0.375795
0.230724 -0.168226 -0.357414
0.230893 -0.152466 0.341282
0.230897 -0.152303 0.358092
-0.254889 -0.0922029 0.312709
-0.254884 -0.0920072 0.332862
-0.254879 -0.0918122 0.35293
0.247298 -0.156347 -0.312224
0.233898 -0.148809 0.312341
-0.231043 -0.0924983 0.312236
-0.239156 -0.0909075 0.376458
0.23072 -0.15045 -0.375795
0.230724 -0.150282 -0.357414
0.230727 -0.150156 -0.343656
0.230734 -0.149904 -0.316209
-0.241875 -0.0920227 -0.374031
-0.255051 -0.0903469 -0.354704
-0.255044 -0.0900905 -0.325865
-0.242105 -0.0914461 -0.312344
0.233898 -0.131556 0.312341
0.23089 -0.131097 0.328651
0.230895 -0.130922 0.349692
0.2309 -0.130747 0.370676
0.23072 -0.132486 -0.375795
0.230724 -0.132338 -0.357414
0.230727 -0.132227 -0.343656
0.230734 -0.132005 -0.316209
0.247298 -0.133688 -0.312224
-0.248178 -0.0720763 0.312228
-0.254885 -0.071311 0.327832
-0.25488 -0.0711598 0.347921
-0.247298 -0.0717381 0.368291
-0.231043 -0.0710494 0.312236
-0.241875 -0.0722024 -0.374031
-0.255051 -0.0708876 -0.354704
-0.255044 -0.0706864 -0.325865
-0.242105 -0.07175 -0.312344
0.233898 -0.109989 0.312341
0.23089 -0.109606 0.328651
0.230895 -0.109459 0.349692
0.2309 -0.109313 0.370676
0.23072 -0.110031 -0.375795
0.230724 -0.109908 -0.357414
0.230727 -0.109815 -0.343656
0.230734 -0.109631 -0.316209
0.247298 -0.106497 -0.312224
0.230886 -0.0924873 0.315999
0.230894 -0.0923139 0.345488
0.230899 -0.0921903 0.366484
0.23072 -0.0920666 -0.375795
0.230724 -0.0919634 -0.357414
0.230727 -0.0918863 -0.343656
0.230734 -0.0917323 -0.316209
-0.231043 -0.0522817 0.312236
-0.248178 -0.0511087 0.312228
-0.254885 -0.050566 0.327832
-0.25488 -0.0504588 0.347921
-0.247298 -0.0508688 0.368291
-0.241875 -0.0523822 -0.374031
-0.255051 -0.0514283 -0.354704
-0.255044 -0.0512823 -0.325865
-0.242105 -0.0520539 -0.312344
0.247298 -0.0838383 -0.312224
0.233898 -0.0711697 0.312341
0.23089 -0.0709215 0.328651
0.230895 -0.0708265 0.349692
0.2309 -0.0707318 0.370676
0.23072 -0.0696113 -0.375795
0.230724 -0.0695333 -0.357414
0.230727 -0.069475 -0.343656
0.230734 -0.0693585 -0.316209
0.247298 -0.0566475 -0.312224
-0.254889 -0.0324658 0.312709
-0.254884 -0.0323969 0.332862
-0.254879 -0.0323282 0.35293
-0.248903 -0.0322559 -0.366978
-0.255051 -0.0319689 -0.354704
-0.255044 -0.0318782 -0.325865
-0.242105 -0.0323578 -0.312344
0.23072 -0.0516471 -0.375795
0.230724 -0.0515893 -0.357414
0.230727 -0.0515459 -0.343656
0.230734 -0.0514596 -0.316209
0.233898 -0.0496031 0.312341
0.23089 -0.0494302 0.328651
0.230895 -0.049364 0.349692
0.2309 -0.0492979 0.370676
-0.231043 -0.0308328 0.312236
-0.239156 -0.0303025 0.376458
0.247298 -0.0430521 -0.312224
0.233898 -0.0323498 0.312341
0.23089 -0.032237 0.328651
0.230895 -0.0321939 0.349692
0.2309 -0.0321508 0.370676
0.23072 -0.0291918 -0.375795
0.230724 -0.0291591 -0.357414
0.230727 -0.0291347 -0.343656
0.230734 -0.0290858 -0.316209
0.247298 -0.0249249 -0.312224
-0.255049 -0.0124989 -0.346035
-0.255044 -0.0124741 -0.325865
-0.231043 -0.012065 0.312236
-0.248178 -0.0117943 0.312228
-0.254885 -0.0116691 0.327832
-0.25488 -0.0116443 0.347921
-0.247298 -0.011739 0.368291
-0.241875 -0.00991014 -0.374031
-0.242105 -0.00984804 -0.312344
0.23072 -0.0112276 -0.375795
0.230724 -0.0112151 -0.357414
0.230727 -0.0112056 -0.343656
0.230734 -0.0111869 -0.316209
0.233898 -0.0107833 0.312341
0.23089 -0.0107457 0.328651
0.230895 -0.0107313 0.349692
0.2309 -0.0107169 0.370676
0.247298 0.00679768 -0.312224
0.23072 0.0112276 -0.375795
0.230724 0.0112151 -0.357414
0.230727 0.0112056 -0.343656
0.230734 0.0111869 -0.316209
0.233898 0.0107833 0.312341
0.23089 0.0107457 0.328651
0.230895 0.0107313 0.349692
0.2309 0.0107169 0.370676
-0.241875 0.00991012 -0.374031
-0.255051 0.00972965 -0.354704
-0.255044 0.00970203 -0.325865
-0.242105 0.00984802 -0.312344
-0.231043 0.00938387 0.312236
-0.248178 0.00917333 0.312228
-0.254885 0.00907593 0.327832
-0.25488 0.00905669 0.347921
-0.247298 0.00913029 0.368291
0.23072 0.0291918 -0.375795
0.230724 0.0291591 -0.357414
0.230727 0.0291347 -0.343656
0.230734 0.0290858 -0.316209
0.233898 0.0280365 0.312341
0.23089 0.0279388 0.328651
0.230895 0.0279014 0.349692
0.2309 0.027864 0.370676
0.247298 0.0339885 -0.312224
-0.241875 0.0297304 -0.374031
-0.255051 0.029189 -0.354704
-0.255044 0.0291061 -0.325865
-0.242105 0.0295441 -0.312344
-0.231043 0.0281517 0.312236
-0.248178 0.02752 0.312228
-0.243247 0.0275285 0.372354
0.23072 0.0516471 -0.375795
0.230724 0.0515893 -0.357414
0.230727 0.051546 -0.343656
0.230734 0.0514596 -0.316209
0.233898 0.0496031 0.312341
0.23089 0.0494302 0.328651
0.230895 0.049364 0.349692
0.2309 0.0492979 0.370676
-0.254885 0.029821 0.327832
-0.25488 0.0297577 0.347921
0.247298 0.0566475 -0.312224
0.23072 0.0696113 -0.375795
0.230724 0.0695333 -0.357414
0.230727 0.069475 -0.343656
0.230734 0.0693585 -0.316209
0.233898 0.0711697 0.312341
0.23089 0.0709215 0.328651
0.230895 0.0708266 0.349692
0.2309 0.0707318 0.370676
-0.241875 0.0495507 -0.374031
-0.255051 0.0486483 -0.354704
-0.255044 0.0485102 -0.325865
-0.242105 0.0492402 -0.312344
0.247298 0.0838383 -0.312224
-0.231043 0.0496006 0.312236
-0.248178 0.0484877 0.312228
-0.254885 0.0479729 0.327832
-0.25488 0.0478712 0.347921
-0.247298 0.0482602 0.368291
0.23072 0.0875755 -0.375795
0.230724 0.0919634 -0.357414
0.230727 0.0918863 -0.343656
0.230734 0.0917323 -0.316209
0.233898 0.0884229 0.312341
0.23089 0.0881146 0.328651
0.230895 0.0879966 0.349692
0.2309 0.0878789 0.370676
0.247298 0.106497 -0.312224
-0.241875 0.0693709 -0.374031
-0.255051 0.0681077 -0.354704
-0.255044 0.0679143 -0.325865
-0.242105 0.0689363 -0.312344
0.23072 0.110031 -0.375795
0.230724 0.109908 -0.357414
0.230727 0.109815 -0.343656
0.230734 0.109631 -0.316209
0.233898 0.10999 0.312341
0.23089 0.109606 0.328651
0.230895 0.109459 0.349692
0.2309 0.109313 0.370676
-0.231043 0.0683683 0.312236
-0.248178 0.0694554 0.312228
-0.254885 0.0687179 0.327832
-0.25488 0.0685722 0.347921
-0.247298 0.0691294 0.368291
0.23072 0.127995 -0.375795
0.230724 0.127852 -0.357414
0.230727 0.127744 -0.343656
0.230734 0.12753 -0.316209
0.247298 0.133688 -0.312224
0.233898 0.131556 0.312341
0.23089 0.131097 0.328651
0.230895 0.130922 0.349692
0.2309 0.130747 0.370676
-0.241875 0.0891912 -0.374031
-0.255051 0.087567 -0.354704
-0.247798 0.0880028 -0.312346
0.198449 0.13745 -0.323759
0.200773 0.137443 -0.293323
0.202815 0.137444 -0.267251
0.203836 0.137444 -0.254215
0.206219 0.137444 -0.223798
0.208601 0.137445 -0.19338
0.210643 0.137445 -0.167308
0.211664 0.137445 -0.154271
0.214046 0.137446 -0.123854
0.216429 0.137446 -0.0934352
0.218471 0.137447 -0.0673624
0.219492 0.137447 -0.0543259
0.221874 0.137447 -0.0239072
0.224257 0.137448 0.00651161
0.226299 0.137448 0.032585
0.22732 0.137448 0.0456219
0.229702 0.137449 0.0760411
-0.255044 0.0900905 -0.325865
0.160187 0.13745 -0.323996
0.162445 0.137444 -0.294497
0.164094 0.137444 -0.273439
0.166403 0.137445 -0.243958
0.168712 0.137445 -0.214476
0.170361 0.137446 -0.193418
0.17267 0.137446 -0.163936
0.174979 0.137446 -0.134454
0.176628 0.137447 -0.113395
0.178937 0.137447 -0.0839123
0.181246 0.137448 -0.0544297
0.182896 0.137448 -0.0333705
0.185205 0.137448 -0.00388755
0.187514 0.137449 0.0255956
0.189163 0.137449 0.0466551
0.191472 0.137449 0.0761385
0.193781 0.13745 0.105622
0.195431 0.13745 0.126682
0.19774 0.13745 0.156166
0.200049 0.137451 0.18565
0.201698 0.137451 0.20671
0.204007 0.137452 0.236195
0.206316 0.137452 0.265679
0.208622 0.137452 0.295163
0.210266 0.137452 0.316223
0.23072 0.15045 -0.375795
0.124209 0.13745 -0.324219
0.125764 0.137445 -0.303774
0.128004 0.137445 -0.275172
0.129604 0.137445 -0.254743
0.131204 0.137446 -0.234313
0.132804 0.137446 -0.213883
0.134404 0.137446 -0.193453
0.136644 0.137447 -0.164851
0.138244 0.137447 -0.144421
0.139844 0.137447 -0.123991
0.141444 0.137447 -0.10356
0.143684 0.137448 -0.0749578
0.145284 0.137448 -0.0545272
0.146884 0.137448 -0.0340967
0.148484 0.137449 -0.013666
0.150724 0.137449 0.0149371
0.152324 0.137449 0.035368
0.153924 0.13745 0.0557991
0.155524 0.13745 0.0762301
0.157764 0.13745 0.104834
0.159364 0.137451 0.125265
0.160964 0.137451 0.145696
0.162564 0.137451 0.166128
0.164164 0.137452 0.186559
0.166404 0.137452 0.215164
0.168002 0.137452 0.235595
0.169597 0.137452 0.256026
0.171193 0.137451 0.276457
0.173426 0.137451 0.30506
0.175021 0.137451 0.325491
-0.231043 0.0898172 0.312236
-0.248178 0.0878021 0.312228
-0.243247 0.087829 0.372354
0.0903165 0.13745 -0.324429
0.0918316 0.137445 -0.304577
0.093385 0.137445 -0.28474
0.0949384 0.137446 -0.264902
0.0971134 0.137446 -0.23713
0.0986668 0.137446 -0.217292
0.10022 0.137447 -0.197454
0.102085 0.137447 -0.173649
0.103638 0.137447 -0.15381
0.105192 0.137448 -0.133972
0.106745 0.137448 -0.114134
0.108299 0.137448 -0.094296
0.109852 0.137448 -0.0744576
0.111406 0.137449 -0.0546192
0.112959 0.137449 -0.0347807
0.114513 0.137449 -0.0149421
0.116688 0.13745 0.012832
0.118241 0.13745 0.0326708
0.119795 0.13745 0.0525097
0.121659 0.137451 0.0763164
0.123213 0.137451 0.0961555
0.124766 0.137451 0.115995
0.12632 0.137451 0.135834
0.127874 0.137452 0.155673
0.129427 0.137452 0.175512
0.130976 0.137452 0.195351
0.132525 0.137451 0.21519
0.134075 0.137451 0.235029
0.136243 0.137451 0.262803
0.137792 0.137451 0.282642
0.139651 0.13745 0.306448
0.230894 0.148132 0.345488
0.230899 0.147933 0.366484
-0.254885 0.0894629 0.327832
-0.25488 0.0892732 0.347921
0.0583336 0.13745 -0.324627
0.0607158 0.137446 -0.293769
0.0622255 0.137446 -0.27449
0.0643388 0.137447 -0.247499
0.0661505 0.137447 -0.224364
0.0682641 0.137447 -0.197374
0.0700758 0.137448 -0.174239
0.0715853 0.137448 -0.154959
0.0740011 0.137448 -0.124112
0.0755106 0.137449 -0.104833
0.0779263 0.137449 -0.0739856
0.0794359 0.137449 -0.054706
0.0818516 0.13745 -0.0238583
0.0833613 0.13745 -0.00457842
0.0857769 0.13745 0.0262695
0.0872865 0.137451 0.0455496
0.0894003 0.137451 0.0725418
0.0912119 0.137451 0.0956781
0.0933257 0.137452 0.122671
0.0951331 0.137452 0.145807
0.0966388 0.137451 0.165087
0.0990475 0.137451 0.195935
0.100553 0.137451 0.215215
0.102962 0.13745 0.246063
0.104467 0.13745 0.265343
0.106876 0.13745 0.29619
0.108382 0.137449 0.31547
0.0281031 0.13745 -0.324814
0.0304238 0.137446 -0.294802
0.0327729 0.137447 -0.264801
0.0351222 0.137447 -0.2348
0.0374713 0.137448 -0.204798
0.0398207 0.137448 -0.174797
0.0421699 0.137449 -0.144795
0.0445192 0.137449 -0.114793
0.0468684 0.137449 -0.0847904
0.0492178 0.13745 -0.054788
0.0515671 0.13745 -0.0247854
0.0539165 0.137451 0.00521743
0.0562657 0.137451 0.0352204
0.0586151 0.137452 0.0652236
0.0609612 0.137452 0.0952269
0.0633043 0.137451 0.12523
0.0656472 0.137451 0.155233
0.0679902 0.13745 0.185236
0.0703331 0.13745 0.215239
0.0726759 0.13745 0.245241
0.0750188 0.137449 0.275243
0.0773616 0.137449 0.305245
-0.000514984 0.13745 -0.324991
0.00174713 0.137447 -0.295781
0.0026046 0.137447 -0.28483
0.00489116 0.137447 -0.255629
0.00574851 0.137448 -0.244678
0.00803506 0.137448 -0.215477
0.00889242 0.137448 -0.204526
0.0111791 0.137449 -0.175325
0.0120363 0.137449 -0.164374
0.014323 0.137449 -0.135172
0.0151805 0.137449 -0.124221
0.0174669 0.13745 -0.095019
0.0183244 0.13745 -0.0840681
0.0206109 0.13745 -0.0548656
0.0228975 0.137451 -0.025663
0.023755 0.137451 -0.0147119
0.0260416 0.137451 0.0144909
0.026899 0.137451 0.0254421
0.0291821 0.137451 0.0546453
0.0300374 0.137451 0.0655965
0.0323179 0.137451 0.0947997
0.0331731 0.137451 0.105751
0.0354537 0.13745 0.134954
0.0363089 0.13745 0.145905
0.0385894 0.13745 0.175107
0.0408698 0.137449 0.20431
0.041725 0.137449 0.215261
0.0440055 0.137449 0.244463
0.0448606 0.137449 0.255414
0.0471411 0.137448 0.284616
0.0479963 0.137448 0.295567
0.0502766 0.137448 0.324768
-0.241875 0.109011 -0.374031
-0.247798 0.107559 -0.312346
-0.0276465 0.13745 -0.32516
-0.0268328 0.137447 -0.314485
-0.0246049 0.137448 -0.286042
-0.0229346 0.137448 -0.26471
-0.0207075 0.137448 -0.236267
-0.0190372 0.137449 -0.214935
-0.0168102 0.137449 -0.186492
-0.0151399 0.137449 -0.165159
-0.0143047 0.137449 -0.154493
-0.0120778 0.13745 -0.126049
-0.0104074 0.13745 -0.104716
-0.00818026 0.137451 -0.0762723
-0.0065099 0.137451 -0.0549392
-0.00428283 0.137451 -0.026495
-0.00261247 0.137452 -0.00516168
-0.00177908 0.137451 0.00550512
0.000442386 0.137451 0.0339499
0.00210834 0.137451 0.0552834
0.00432968 0.13745 0.0837279
0.00599575 0.13745 0.105061
0.0082171 0.13745 0.133505
0.00988317 0.137449 0.154839
0.010716 0.137449 0.165505
0.0129374 0.137449 0.193949
0.0146034 0.137449 0.215282
0.0168247 0.137448 0.243725
0.0184906 0.137448 0.265058
0.0207119 0.137448 0.293501
0.022378 0.137447 0.314834
0.0232105 0.137447 0.3255
-0.255051 0.109806 -0.354704
-0.255044 0.109495 -0.325865
-0.0534043 0.13745 -0.325319
-0.0526085 0.137447 -0.314915
-0.0509794 0.137448 -0.294124
-0.0488088 0.137448 -0.266401
-0.0471808 0.137449 -0.245609
-0.045553 0.137449 -0.224817
-0.0433823 0.137449 -0.197093
-0.0417544 0.13745 -0.176301
-0.0401265 0.13745 -0.155508
-0.0384986 0.13745 -0.134715
-0.036328 0.137451 -0.106992
-0.0347 0.137451 -0.0861986
-0.0330718 0.137451 -0.0654057
-0.0314439 0.137451 -0.0446125
-0.0292783 0.137451 -0.0168878
-0.0276542 0.137451 0.00390577
-0.0260304 0.137451 0.0246992
-0.0252184 0.13745 0.0350959
-0.0235944 0.13745 0.0558892
-0.0214294 0.13745 0.0836135
-0.0198055 0.137449 0.104407
-0.0181815 0.137449 0.1252
-0.0160164 0.137449 0.152924
-0.0143926 0.137449 0.173716
-0.0127686 0.137448 0.194509
-0.0111448 0.137448 0.215302
-0.00897968 0.137448 0.243025
-0.00735581 0.137447 0.263818
-0.00573206 0.137447 0.28461
-0.00492001 0.137447 0.295006
-0.00329614 0.137447 0.315799
-0.07789 0.13745 -0.325471
-0.0763162 0.137448 -0.305186
-0.0747285 0.137448 -0.284907
-0.0731409 0.137449 -0.264628
-0.0715532 0.137449 -0.24435
-0.0694363 0.137449 -0.217311
-0.0678486 0.13745 -0.197032
-0.0662609 0.13745 -0.176753
-0.0646731 0.13745 -0.156473
-0.0630854 0.137451 -0.136194
-0.0614977 0.137451 -0.115914
-0.05991 0.137451 -0.0956349
-0.058323 0.137451 -0.0753551
-0.056739 0.137451 -0.0550749
-0.0559471 0.137451 -0.0449348
-0.0543633 0.137451 -0.0246547
-0.0527794 0.13745 -0.00437463
-0.0506675 0.13745 0.0226653
-0.0490837 0.13745 0.0429452
-0.0475 0.137449 0.0632249
-0.045916 0.137449 0.0835047
-0.0443323 0.137449 0.103784
-0.0427483 0.137449 0.124064
-0.0411646 0.137448 0.144343
-0.0395807 0.137448 0.164623
-0.037997 0.137448 0.184902
-0.037205 0.137448 0.195042
-0.0356212 0.137447 0.215321
-0.0340375 0.137447 0.2356
-0.0324535 0.137447 0.255879
-0.030342 0.137447 0.282917
-0.0287582 0.137446 0.303196
-0.0271747 0.137446 0.323475
-0.231043 0.108585 0.312236
-0.101196 0.13745 -0.325615
-0.0996575 0.137449 -0.30582
-0.0981079 0.137449 -0.28603
-0.0965586 0.137449 -0.26624
-0.0950092 0.137449 -0.246449
-0.0934598 0.13745 -0.226659
-0.0919105 0.13745 -0.206869
-0.0903611 0.13745 -0.187078
-0.0888117 0.137451 -0.167287
-0.0872623 0.137451 -0.147497
-0.0862294 0.137451 -0.134303
-0.0846798 0.137451 -0.114512
-0.0831341 0.137451 -0.0947202
-0.0815883 0.137451 -0.0749287
-0.0792698 0.13745 -0.0452415
-0.077724 0.13745 -0.0254501
-0.0761782 0.13745 -0.00565879
-0.0746325 0.13745 0.0141324
-0.0730867 0.137449 0.0339236
-0.0715411 0.137449 0.0537147
-0.0699953 0.137449 0.0735057
-0.0684497 0.137449 0.0932966
-0.0669039 0.137448 0.113087
-0.0653583 0.137448 0.132878
-0.0638124 0.137448 0.152669
-0.0620092 0.137447 0.175758
-0.0604637 0.137447 0.195548
-0.0589178 0.137447 0.215339
-0.0573723 0.137447 0.235129
-0.0550538 0.137446 0.264815
-0.053508 0.137446 0.284605
-0.0519624 0.137446 0.304395
-0.0504173 0.137445 0.324185
-0.248178 0.10877 0.312228
-0.254885 0.107615 0.327832
-0.251308 0.107721 0.364268
-0.239156 0.109353 0.376458
-0.123405 0.13745 -0.325753
-0.1219 0.137449 -0.306424
-0.120387 0.137449 -0.2871
-0.118622 0.13745 -0.264554
-0.116353 0.13745 -0.235567
-0.11484 0.13745 -0.216242
-0.113327 0.137451 -0.196918
-0.111562 0.137451 -0.174372
-0.109293 0.137451 -0.145384
-0.107784 0.137451 -0.126058
-0.106274 0.137451 -0.106732
-0.104765 0.13745 -0.0874061
-0.103759 0.13745 -0.0745223
-0.101495 0.13745 -0.0455337
-0.0999852 0.13745 -0.0262081
-0.0984757 0.137449 -0.00688252
-0.0967148 0.137449 0.0156639
-0.0944508 0.137449 0.0446519
-0.0929413 0.137448 0.0639772
-0.091432 0.137448 0.0833024
-0.0899227 0.137448 0.102628
-0.0889163 0.137448 0.115511
-0.0866523 0.137447 0.144498
-0.0851431 0.137447 0.163823
-0.0836336 0.137447 0.183148
-0.0818727 0.137447 0.205694
-0.0803633 0.137446 0.225018
-0.0780994 0.137446 0.254005
-0.0765901 0.137446 0.27333
-0.0750807 0.137445 0.292654
-0.0740746 0.137445 0.305537
-0.144357 0.137448 -0.322733
-0.142135 0.13745 -0.294414
-0.139918 0.13745 -0.266093
-0.13844 0.13745 -0.247213
-0.137455 0.13745 -0.234626
-0.135238 0.137451 -0.206305
-0.13376 0.137451 -0.187424
-0.132775 0.137451 -0.174836
-0.130563 0.137451 -0.146514
-0.128842 0.13745 -0.124485
-0.12663 0.13745 -0.0961629
-0.125155 0.13745 -0.0772814
-0.124172 0.13745 -0.0646938
-0.12196 0.137449 -0.0363718
-0.120485 0.137449 -0.0174906
-0.119502 0.137449 -0.0049031
-0.11729 0.137448 0.0234186
-0.11557 0.137448 0.0454464
-0.113357 0.137448 0.0737678
-0.111883 0.137448 0.0926487
-0.1109 0.137447 0.105236
-0.108688 0.137447 0.133557
-0.106967 0.137447 0.155584
-0.104755 0.137446 0.183905
-0.10328 0.137446 0.202786
-0.102297 0.137446 0.215373
-0.100085 0.137446 0.243693
-0.0986106 0.137445 0.262573
-0.0976276 0.137445 0.27516
-0.0954155 0.137445 0.30348
-0.0936961 0.137444 0.325507
-0.164596 0.137449 -0.322929
-0.163147 0.13745 -0.304475
-0.160979 0.13745 -0.276791
-0.160016 0.13745 -0.264487
-0.157849 0.137451 -0.236802
-0.156886 0.137451 -0.224498
-0.15376 0.137451 -0.184508
-0.151597 0.13745 -0.156822
-0.150636 0.13745 -0.144517
-0.148474 0.13745 -0.116831
-0.147513 0.13745 -0.104526
-0.14535 0.137449 -0.0768404
-0.144389 0.137449 -0.0645357
-0.142227 0.137449 -0.0368503
-0.141265 0.137449 -0.0245457
-0.139103 0.137448 0.00313957
-0.138142 0.137448 0.0154441
-0.135979 0.137448 0.0431291
-0.135018 0.137448 0.0554335
-0.132856 0.137447 0.0831183
-0.131895 0.137447 0.0954227
-0.129733 0.137447 0.123107
-0.128771 0.137446 0.135412
-0.126609 0.137446 0.163096
-0.125648 0.137446 0.1754
-0.123486 0.137446 0.203084
-0.122525 0.137445 0.215388
-0.120362 0.137445 0.243072
-0.119401 0.137445 0.255376
-0.117239 0.137445 0.28306
-0.116278 0.137444 0.295364
-0.114116 0.137444 0.323047
-0.241875 0.128832 -0.374031
-0.242105 0.128025 -0.312344
-0.183945 0.137449 -0.323118
-0.181821 0.13745 -0.296044
-0.180173 0.137451 -0.274985
-0.177818 0.137451 -0.244901
-0.175467 0.137451 -0.214814
-0.173117 0.13745 -0.184728
-0.170767 0.13745 -0.154642
-0.168417 0.13745 -0.124556
-0.166302 0.137449 -0.0974788
-0.163012 0.137449 -0.0553589
-0.161602 0.137448 -0.0373077
-0.159957 0.137448 -0.016248
-0.158312 0.137448 0.00481164
-0.156902 0.137448 0.0228627
-0.155257 0.137447 0.0439222
-0.152202 0.137447 0.0830324
-0.151262 0.137447 0.0950663
-0.148912 0.137446 0.125151
-0.146562 0.137446 0.155235
-0.142803 0.137445 0.20337
-0.141863 0.137445 0.215403
-0.139513 0.137445 0.245487
-0.137398 0.137444 0.272562
-0.135753 0.137444 0.293621
-0.133404 0.137443 0.323704
-0.255051 0.129266 -0.354704
-0.255044 0.128899 -0.325865
-0.202462 0.137449 -0.323298
-0.200384 0.137451 -0.296807
-0.198771 0.137451 -0.2762
-0.19716 0.137451 -0.255593
-0.195551 0.137451 -0.234986
-0.191641 0.13745 -0.184939
-0.189342 0.137449 -0.1555
-0.187732 0.137449 -0.134893
-0.185433 0.137449 -0.105454
-0.183823 0.137449 -0.0848469
-0.181524 0.137448 -0.0554084
-0.179914 0.137448 -0.0348016
-0.177614 0.137447 -0.00536341
-0.176005 0.137447 0.0152432
-0.172096 0.137447 0.0652875
-0.169796 0.137446 0.0947252
-0.168187 0.137446 0.115331
-0.165887 0.137445 0.144769
-0.162898 0.137445 0.183037
-0.161289 0.137445 0.203643
-0.160369 0.137445 0.215418
-0.158069 0.137444 0.244854
-0.15669 0.137444 0.262516
-0.15508 0.137444 0.283122
-0.152781 0.137443 0.312558
-0.219747 0.13745 -0.317708
-0.218391 0.137451 -0.300419
-0.216815 0.137451 -0.280245
-0.215239 0.13745 -0.260071
-0.211412 0.13745 -0.211078
-0.209836 0.13745 -0.190905
-0.20826 0.137449 -0.170731
-0.206684 0.137449 -0.150558
-0.205109 0.137449 -0.130385
-0.201957 0.137448 -0.0900382
-0.200381 0.137448 -0.0698651
-0.198805 0.137448 -0.0496921
-0.197455 0.137447 -0.032401
-0.195879 0.137447 -0.0122282
-0.191827 0.137446 0.0396445
-0.190251 0.137446 0.0598171
-0.188676 0.137446 0.0799896
-0.1871 0.137446 0.100162
-0.185524 0.137445 0.120334
-0.182598 0.137445 0.157797
-0.181022 0.137445 0.177969
-0.179446 0.137444 0.198141
-0.177871 0.137444 0.218313
-0.176295 0.137444 0.238485
-0.171568 0.137443 0.299
-0.169993 0.137443 0.319172
-0.230808 0.13745 -0.241785
-0.229265 0.13745 -0.222027
-0.227721 0.137449 -0.202269
-0.225957 0.137449 -0.179689
-0.220666 0.137448 -0.11195
-0.219123 0.137448 -0.0921929
-0.217579 0.137448 -0.0724358
-0.215815 0.137447 -0.0498564
-0.211186 0.137446 0.00941413
-0.209642 0.137446 0.0291708
-0.208099 0.137446 0.0489274
-0.206556 0.137446 0.068684
-0.205012 0.137445 0.0884405
-0.201044 0.137445 0.139242
-0.199501 0.137444 0.158999
-0.197958 0.137444 0.178755
-0.196414 0.137444 0.198511
-0.191784 0.137443 0.257779
-0.190241 0.137443 0.277534
-0.188478 0.137443 0.300112
-0.186935 0.137442 0.319868
-0.231043 0.130034 0.312236
-0.239156 0.127797 0.376458
-0.230842 0.13879 -0.132255
-0.230626 0.137447 -0.0306563
-0.229114 0.137446 -0.0112986
-0.227602 0.137446 0.00805895
-0.225873 0.137446 0.0301818
-0.219825 0.137445 0.107611
-0.218097 0.137444 0.129734
-0.216585 0.137444 0.149091
-0.215073 0.137444 0.168448
-0.211184 0.137443 0.218222
-0.209672 0.137443 0.237579
-0.207944 0.137443 0.259701
-0.206432 0.137442 0.279058
-0.248178 0.129737 0.312228
-0.254885 0.12836 0.327832
-0.25488 0.128088 0.347921
-0.230791 0.138661 0.0799496
-0.229181 0.137443 0.188364
-0.227487 0.137443 0.210048
-0.226005 0.137443 0.229022
-0.230849 0.1448 -0.160847
-0.230743 0.138611 0.278291
-0.241875 0.148652 -0.374031
-0.242105 0.147721 -0.312344
-0.230798 0.144586 0.0497814
-0.255051 0.148725 -0.354704
-0.255044 0.148303 -0.325865
-0.23075 0.144419 0.249306
-0.230881 0.158031 -0.29151
-0.230876 0.157719 -0.270967
-0.230738 0.149059 0.299265
-0.230871 0.160245 -0.250505
-0.230842 0.158416 -0.132255
-0.230837 0.158108 -0.112336
-0.230833 0.157802 -0.0924931
-0.248178 0.148084 0.312228
-0.243247 0.14813 0.372354
-0.230866 0.16276 -0.230123
-0.230827 0.160239 -0.0699101
-0.230822 0.15993 -0.0502318
-0.230791 0.157881 0.0799496
-0.230786 0.157581 0.0990535
-0.230747 0.15505 0.259865
-0.254885 0.149105 0.327832
-0.25488 0.148789 0.347921
-0.230861 0.165266 -0.209821
-0.230857 0.164988 -0.192483
-0.230852 0.164666 -0.172329
-0.230847 0.164344 -0.152253
-0.230782 0.160016 0.118085
-0.230776 0.15967 0.139747
-0.230772 0.159367 0.158624
-0.241875 0.168472 -0.374031
-0.23633 0.168623 -0.312343
-0.230818 0.165173 -0.0306294
-0.230813 0.164855 -0.0111025
-0.230808 0.164538 0.00834943
-0.230803 0.164223 0.0277267
-0.230798 0.163864 0.0497814
-0.230743 0.160143 0.278291
-0.255051 0.168184 -0.354704
-0.255044 0.167707 -0.325865
-0.230766 0.16446 0.18011
-0.230762 0.16415 0.198835
-0.230757 0.163797 0.220149
-0.230752 0.16349 0.238723
-0.230881 0.177963 -0.29151
-0.230876 0.177612 -0.270967
-0.230738 0.167859 0.299265
-0.230871 0.180098 -0.250505
-0.230842 0.178043 -0.132255
-0.230837 0.177697 -0.112336
-0.230801 0.175071 0.0387662
-0.230866 0.182574 -0.230123
-0.230833 0.180145 -0.0924931
-0.230827 0.179747 -0.0699101
-0.230822 0.179399 -0.0502318
-0.230764 0.175192 0.188144
-0.248178 0.169052 0.312228
-0.247298 0.168258 0.368291
-0.230861 0.185041 -0.209821
-0.230857 0.18473 -0.192483
-0.230852 0.184369 -0.172329
-0.230847 0.184009 -0.152253
-0.230791 0.179847 0.0799496
-0.230786 0.179505 0.0990535
-0.230782 0.179164 0.118085
-0.230776 0.178775 0.139747
-0.230772 0.178437 0.158624
-0.254885 0.16985 0.327832
-0.25488 0.16949 0.347921
-0.241875 0.188293 -0.374031
-0.23633 0.188461 -0.312343
-0.230813 0.18425 -0.0111025
-0.230808 0.183896 0.00834943
-0.230796 0.182992 0.0580271
-0.230743 0.178984 0.278291
-0.255051 0.187644 -0.354704
-0.230759 0.182946 0.209503
-0.230755 0.182602 0.228118
-0.255044 0.189883 -0.325865
-0.23075 0.18491 0.249306
-0.230881 0.197895 -0.29151
-0.230876 0.197504 -0.270967
-0.230847 0.195246 -0.152253
-0.230818 0.192933 -0.0306294
-0.230871 0.199951 -0.250505
-0.230842 0.19767 -0.132255
-0.23081 0.195118 2.20463e-05
-0.230738 0.189345 0.299265
-0.230837 0.200084 -0.112336
-0.230833 0.199696 -0.0924931
-0.230827 0.199254 -0.0699101
-0.230822 0.198869 -0.0502318
-0.239156 0.188402 0.376458
-0.2326 0.204822 -0.232338
-0.230857 0.204473 -0.192483
-0.230852 0.204073 -0.172329
-0.230791 0.199068 0.0799496
-0.230786 0.198689 0.0990535
-0.230782 0.198311 0.118085
-0.230776 0.197881 0.139747
-0.230772 0.197507 0.158624
-0.248178 0.190019 0.312228
-0.254885 0.188002 0.327832
-0.25488 0.187603 0.347921
-0.247772 0.204823 -0.286381
-0.246254 0.204823 -0.266954
-0.230805 0.203031 0.0194313
-0.230801 0.202642 0.0387662
-0.230743 0.197824 0.278291
-0.255024 0.204886 -0.245981
-0.254405 0.204822 -0.234927
-0.252049 0.204822 -0.204808
-0.249908 0.204822 -0.177428
-0.248196 0.204822 -0.155523
-0.246698 0.204822 -0.136356
-0.245199 0.204822 -0.11719
-0.2315 0.204822 0.0580461
-0.230766 0.202517 0.18011
-0.255052 0.210002 -0.360491
-0.255047 0.209585 -0.340264
-0.255042 0.209168 -0.320117
-0.253892 0.204822 -0.0956755
-0.253047 0.204822 -0.0848684
-0.250723 0.204822 -0.0551487
-0.249244 0.204822 -0.0362362
-0.247765 0.204822 -0.0173237
-0.246075 0.204822 0.00429063
-0.24523 0.204822 0.0150978
-0.230866 0.204821 0.198819
-0.230757 0.204408 0.220149
-0.230752 0.204024 0.238723
-0.230747 0.203588 0.259865
-0.253184 0.204821 0.0426007
-0.251516 0.204821 0.0639324
-0.250057 0.204821 0.0825976
-0.248389 0.204821 0.103929
-0.246929 0.204821 0.122594
-0.245261 0.204821 0.143926
-0.253524 0.20482 0.164147
-0.252083 0.20482 0.182571
-0.250437 0.20482 0.203628
-0.24879 0.20482 0.224684
-0.246526 0.20482 0.253637
-0.254464 0.204819 0.2748
-0.253042 0.204819 0.29299
-0.254889 0.20908 0.312709
-0.254884 0.208636 0.332862
-0.254879 0.208194 0.35293
