ply
format ascii 1.0
comment Created by Open3D
element vertex 510
property double x
property double y
property double z
end_header
-0.207544 -0.145043 -0.36167
-0.200301 -0.143814 -0.342823
-0.207642 -0.127008 -0.364492
-0.201037 -0.146668 0.325815
-0.249171 -0.116977 -0.405133
-0.249181 -0.117467 -0.386517
-0.249193 -0.118033 -0.365049
-0.249204 -0.115676 -0.346095
-0.249215 -0.116168 -0.326979
-0.249227 -0.116735 -0.304932
-0.249243 -0.117452 -0.27707
-0.249254 -0.117958 -0.257362
-0.249265 -0.115545 -0.237482
-0.249276 -0.116048 -0.21743
-0.249287 -0.116555 -0.197203
-0.249299 -0.117067 -0.176797
-0.24931 -0.117583 -0.156212
-0.249322 -0.118104 -0.135445
-0.249332 -0.115553 -0.117497
-0.249343 -0.116069 -0.0963841
-0.249355 -0.11659 -0.0750818
-0.249365 -0.11704 -0.05667
-0.249377 -0.11757 -0.035009
-0.249388 -0.118027 -0.0162858
-0.211769 -0.131643 0.334401
-0.249398 -0.115411 0.00258377
-0.249405 -0.115713 0.0152456
-0.249421 -0.116397 0.0439782
-0.249432 -0.116857 0.0633227
-0.249443 -0.117322 0.082821
-0.249456 -0.117868 0.105766
-0.249215 -0.104695 -0.326979
-0.249467 -0.115185 0.125603
-0.249478 -0.115648 0.145601
-0.249489 -0.116116 0.16576
-0.249504 -0.116745 0.192893
-0.249516 -0.117221 0.213437
-0.249527 -0.117701 0.234149
-0.249539 -0.118185 0.255031
-0.249187 -0.100726 -0.375809
-0.249198 -0.101151 -0.356946
-0.249282 -0.104556 -0.205893
-0.249554 -0.115581 0.283143
-0.249566 -0.116061 0.304431
-0.249572 -0.116302 0.315141
-0.249588 -0.116951 0.343922
-0.2496 -0.117442 0.365719
-0.249617 -0.118104 0.395068
-0.251913 -0.0968746 -0.407118
-0.249249 -0.100298 -0.265829
-0.24926 -0.100732 -0.246023
-0.249355 -0.104477 -0.0750818
-0.249365 -0.10488 -0.05667
-0.249227 -0.0965586 -0.304932
-0.24931 -0.0997224 -0.156212
-0.249322 -0.100164 -0.135445
-0.249377 -0.102301 -0.035009
-0.249432 -0.104393 0.0633227
-0.249443 -0.104807 0.082821
-0.249271 -0.0953044 -0.226045
-0.249294 -0.0961398 -0.185564
-0.249388 -0.0996335 -0.0162858
-0.249456 -0.102152 0.105766
-0.249516 -0.104375 0.213437
-0.249332 -0.0945433 -0.117497
-0.249343 -0.0949656 -0.0963841
-0.249398 -0.0969453 0.00258377
-0.249405 -0.0971986 0.0152456
-0.249527 -0.101577 0.234149
-0.249539 -0.101995 0.255031
-0.2496 -0.104209 0.365719
-0.249421 -0.0946694 0.0439782
-0.249467 -0.0962503 0.125603
-0.249478 -0.0966377 0.145601
-0.249489 -0.0970281 0.16576
-0.249617 -0.101469 0.395068
-0.249221 -0.0848222 -0.315983
-0.249504 -0.0943552 0.192893
-0.249554 -0.0960458 0.283143
-0.249566 -0.0964446 0.304431
-0.249572 -0.0966453 0.315141
-0.249588 -0.0971844 0.343922
-0.249187 -0.0808642 -0.375809
-0.249198 -0.0812056 -0.356946
-0.249305 -0.0846784 -0.165057
-0.251913 -0.0772189 -0.407118
-0.249249 -0.0799474 -0.265829
-0.24926 -0.0802933 -0.246023
-0.249315 -0.0820167 -0.147334
-0.249398 -0.0846348 0.00258377
-0.249405 -0.0848559 0.0152456
-0.24921 -0.075873 -0.335191
-0.249227 -0.0763822 -0.304932
-0.249377 -0.0809245 -0.035009
-0.249388 -0.0812396 -0.0162858
-0.249493 -0.0844168 0.172516
-0.249271 -0.0747773 -0.226045
-0.249282 -0.0751036 -0.205893
-0.249294 -0.0754328 -0.185564
-0.249355 -0.0772219 -0.0750818
-0.249448 -0.0799376 0.0926283
-0.249456 -0.0801504 0.105766
-0.249527 -0.0822293 0.234149
-0.2496 -0.0843598 0.365719
-0.249365 -0.07448 -0.05667
-0.249432 -0.0763469 0.0633227
-0.249467 -0.0773158 0.125603
-0.249539 -0.0793295 0.255031
-0.249617 -0.0815082 0.395068
-0.249327 -0.0703981 -0.126488
-0.249478 -0.0744585 0.145601
-0.249516 -0.0754709 0.213437
-0.249554 -0.0765111 0.283143
-0.249566 -0.0768288 0.304431
-0.249572 -0.0769886 0.315141
-0.249588 -0.0774181 0.343922
-0.249221 -0.0646949 -0.315983
-0.249227 -0.0648528 -0.304932
-0.249187 -0.0610028 -0.375809
-0.249198 -0.0612603 -0.356946
-0.249338 -0.0646939 -0.105455
-0.249348 -0.0649421 -0.0872779
-0.249421 -0.0667342 0.0439782
-0.249249 -0.0595972 -0.265829
-0.24926 -0.059855 -0.246023
-0.24931 -0.0610242 -0.156212
-0.249467 -0.0646929 0.125603
-0.249504 -0.0655688 0.192893
-0.251913 -0.0547552 -0.407118
-0.24921 -0.0558311 -0.335191
-0.249282 -0.0574322 -0.205893
-0.249377 -0.0595482 -0.035009
-0.249388 -0.0597801 -0.0162858
-0.249448 -0.0611288 0.0926283
-0.249456 -0.0612915 0.105766
-0.249588 -0.0642406 0.343922
-0.2496 -0.0645105 0.365719
-0.249294 -0.0547258 -0.185564
-0.249398 -0.0569361 0.00258377
-0.249405 -0.0570849 0.0152456
-0.249527 -0.0596566 0.234149
-0.249539 -0.0599019 0.255031
-0.249617 -0.061547 0.395068
-0.249322 -0.0523246 -0.135445
-0.249427 -0.0544258 0.0536313
-0.249438 -0.0546416 0.0730525
-0.249489 -0.0556719 0.16576
-0.249516 -0.0562017 0.213437
-0.249554 -0.0569763 0.283143
-0.249566 -0.0572129 0.304431
-0.249572 -0.0573319 0.315141
-0.249227 -0.0446764 -0.304932
-0.249243 -0.0449506 -0.27707
-0.249271 -0.0454528 -0.226045
-0.24936 -0.0470292 -0.0658936
-0.249187 -0.0411414 -0.375809
-0.249198 -0.0413151 -0.356946
-0.249254 -0.0422321 -0.257362
-0.249398 -0.0446256 0.00258377
-0.249405 -0.0447422 0.0152456
-0.249478 -0.0459425 0.145601
-0.249504 -0.046378 0.192893
-0.24931 -0.0401866 -0.156212
-0.249377 -0.0412257 -0.035009
-0.249388 -0.0413862 -0.0162858
-0.249448 -0.0423199 0.0926283
-0.249456 -0.0424325 0.105766
-0.249572 -0.0442275 0.315141
-0.249588 -0.0444742 0.343922
-0.2496 -0.0446611 0.365719
-0.24921 -0.0357892 -0.335191
-0.249221 -0.0359416 -0.315983
-0.249282 -0.0368155 -0.205893
-0.249527 -0.0403085 0.234149
-0.249539 -0.0404743 0.255031
-0.249617 -0.0415858 0.395068
-0.249332 -0.0345158 -0.117497
-0.249343 -0.03467 -0.0963841
-0.249355 -0.0348256 -0.0750818
-0.249365 -0.03496 -0.05667
-0.249467 -0.0362911 0.125603
-0.249489 -0.0365844 0.16576
-0.249516 -0.0369326 0.213437
-0.249554 -0.0374416 0.283143
-0.249322 -0.0313948 -0.135445
-0.249566 -0.0343278 0.304431
-0.251913 -0.0266756 -0.407118
-0.249243 -0.0246503 -0.27707
-0.249265 -0.024864 -0.237482
-0.249276 -0.0249723 -0.21743
-0.249294 -0.0251443 -0.185564
-0.249421 -0.0263833 0.0439782
-0.249432 -0.0264877 0.0633227
-0.249478 -0.0269318 0.145601
-0.249504 -0.0271871 0.192893
-0.249187 -0.02128 -0.375809
-0.249198 -0.0213699 -0.356946
-0.249254 -0.0218442 -0.257362
-0.24931 -0.0223259 -0.156212
-0.249545 -0.0243346 0.265537
-0.249572 -0.0245708 0.315141
-0.249588 -0.0247079 0.343922
-0.2496 -0.0248117 0.365719
-0.249377 -0.0198494 -0.035009
-0.249388 -0.0199267 -0.0162858
-0.249448 -0.0203763 0.0926283
-0.249456 -0.0204305 0.105766
-0.249527 -0.0209604 0.234149
-0.249617 -0.0216246 0.395068
-0.24921 -0.0157472 -0.335191
-0.249221 -0.0158143 -0.315983
-0.249227 -0.0158529 -0.304932
-0.249398 -0.016927 0.00258377
-0.249405 -0.0169712 0.0152456
-0.249467 -0.0173566 0.125603
-0.249489 -0.0174969 0.16576
-0.249504 -0.0143932 0.192893
-0.249516 -0.0144519 0.213437
-0.24956 -0.0146814 0.293765
-0.249322 -0.0104649 -0.135445
-0.251913 -0.0070199 -0.407118
-0.249287 -0.0073769 -0.197203
-0.249299 -0.00740929 -0.176797
-0.249332 -0.00450207 -0.117497
-0.249343 -0.00452218 -0.0963841
-0.249355 -0.00454247 -0.0750818
-0.249365 -0.00456001 -0.05667
-0.249398 -0.00461645 0.00258377
-0.249405 -0.00462851 0.0152456
-0.249421 -0.00465588 0.0439782
-0.249432 -0.00467431 0.0633227
-0.249443 -0.00469288 0.082821
-0.249467 -0.00473363 0.125603
-0.249478 -0.00475268 0.145601
-0.249489 -0.00477188 0.16576
-0.249545 -0.00486692 0.265537
-0.249572 -0.00491417 0.315141
-0.249588 -0.00494159 0.343922
-0.2496 -0.00496235 0.365719
-0.249187 -0.00141868 -0.375809
-0.249198 -0.00142467 -0.356946
-0.249249 -0.0014536 -0.265829
-0.24926 -0.00145989 -0.246023
-0.24931 -0.0014884 -0.156212
-0.249377 -0.00152689 -0.035009
-0.249388 -0.00153283 -0.0162858
-0.249456 -0.00157159 0.105766
-0.249527 -0.00161235 0.234149
-0.249617 -0.00166344 0.395068
-0.24921 0.00429469 -0.335191
-0.249221 0.00431298 -0.315983
-0.249227 0.00432351 -0.304932
-0.249271 0.00439865 -0.226045
-0.249322 0.0104649 -0.135445
-0.251913 0.0126358 -0.407118
-0.249282 0.0132536 -0.205893
-0.249294 0.0133117 -0.185564
-0.249504 0.0143932 0.192893
-0.249516 0.0144519 0.213437
-0.24956 0.0146814 0.293765
-0.249527 0.0177358 0.234149
-0.249539 0.0178087 0.255031
-0.249604 0.0182208 0.373025
-0.249617 0.0182978 0.395068
-0.249187 0.0184427 -0.375809
-0.249198 0.0185206 -0.356946
-0.249249 0.0188967 -0.265829
-0.24926 0.0189784 -0.246023
-0.24931 0.0193491 -0.156212
-0.249377 0.0198494 -0.035009
-0.249388 0.0199267 -0.0162858
-0.249448 0.0203763 0.0926283
-0.249456 0.0204305 0.105766
-0.249332 0.0225103 -0.117497
-0.249343 0.0226109 -0.0963841
-0.249355 0.0227123 -0.0750818
-0.249365 0.0228 -0.05667
-0.249398 0.0230822 0.00258377
-0.249405 0.0231425 0.0152456
-0.249421 0.0232794 0.0439782
-0.249432 0.0233715 0.0633227
-0.249467 0.0236681 0.125603
-0.249478 0.0237634 0.145601
-0.249489 0.0238594 0.16576
-0.249572 0.0245709 0.315141
-0.249588 0.0247079 0.343922
-0.24921 0.0243366 -0.335191
-0.249221 0.0244403 -0.315983
-0.249227 0.0244999 -0.304932
-0.249271 0.0249257 -0.226045
-0.249282 0.0250345 -0.205893
-0.249294 0.0251443 -0.185564
-0.249322 0.0284048 -0.135445
-0.249504 0.033584 0.192893
-0.249516 0.033721 0.213437
-0.249552 0.0341623 0.279612
-0.249564 0.034304 0.300871
-0.249371 0.0350276 -0.0474106
-0.249398 0.0353927 0.00258377
-0.249405 0.0354852 0.0152456
-0.249602 0.0380713 0.369369
-0.249612 0.0382052 0.387699
-0.251913 0.0350995 -0.407118
-0.249383 0.0382461 -0.0256656
-0.249447 0.0391591 0.0893549
-0.249458 0.0393155 0.109061
-0.249527 0.0403085 0.234149
-0.249184 0.0382581 -0.38117
-0.249195 0.0384195 -0.362351
-0.249249 0.0392469 -0.265829
-0.24926 0.0394167 -0.246023
-0.24931 0.0401866 -0.156212
-0.249469 0.0426311 0.128925
-0.24948 0.0428028 0.148949
-0.249491 0.0429758 0.169135
-0.249539 0.0437122 0.255031
-0.249572 0.0442275 0.315141
-0.249588 0.0444742 0.343922
-0.249271 0.0425204 -0.226045
-0.249332 0.0435199 -0.117497
-0.249343 0.0437143 -0.0963841
-0.249355 0.0439105 -0.0750818
-0.249421 0.0450068 0.0439782
-0.249432 0.0451849 0.0633227
-0.249838 0.0483295 0.406005
-0.249207 0.0443248 -0.34065
-0.249218 0.0445134 -0.321487
-0.249229 0.0447036 -0.302162
-0.249322 0.0493346 -0.135445
-0.249502 0.0527392 0.189485
-0.249514 0.0529542 0.210001
-0.249552 0.0536836 0.279612
-0.249564 0.0539063 0.300871
-0.249461 0.0551152 0.115665
-0.249472 0.0553365 0.135582
-0.249484 0.0555596 0.15566
-0.249596 0.057813 0.358433
-0.249608 0.0580566 0.380352
-0.249279 0.0544191 -0.211669
-0.24929 0.0546573 -0.191391
-0.249443 0.0578788 0.082821
-0.249525 0.0596159 0.230685
-0.249175 0.0550636 -0.397174
-0.249307 0.0579743 -0.162112
-0.249377 0.0595482 -0.035009
-0.249388 0.0597801 -0.0162858
-0.249535 0.0630534 0.248051
-0.249574 0.0639285 0.318721
-0.249586 0.0641958 0.340307
-0.249187 0.0581655 -0.375809
-0.249243 0.0594508 -0.27707
-0.249254 0.0597074 -0.257362
-0.249398 0.0630914 0.00258377
-0.249405 0.0632562 0.0152456
-0.249498 0.0654359 0.182684
-0.249619 0.0682488 0.39876
-0.249265 0.0628913 -0.237482
-0.24933 0.0644885 -0.120498
-0.24934 0.0647351 -0.102436
-0.249352 0.0650252 -0.0811877
-0.249364 0.065318 -0.0597485
-0.249454 0.0675328 0.102475
-0.249198 0.0641097 -0.356946
-0.24921 0.0644205 -0.335191
-0.249221 0.0646949 -0.315983
-0.249227 0.0648528 -0.304932
-0.249545 0.0730037 0.265537
-0.24956 0.0734071 0.293765
-0.249322 0.0702645 -0.135445
-0.249421 0.072942 0.0439782
-0.249432 0.0732307 0.0633227
-0.249508 0.0752662 0.199722
-0.249594 0.0775804 0.354797
-0.2496 0.0777434 0.365719
-0.249295 0.07252 -0.182646
-0.249397 0.0753528 -0.000571385
-0.24952 0.0787895 0.220322
-0.249276 0.0749168 -0.21743
-0.249287 0.0752443 -0.197203
-0.249377 0.0778708 -0.035009
-0.249388 0.078174 -0.0162858
-0.249443 0.0797788 0.082821
-0.249537 0.0825109 0.251539
-0.249568 0.0834251 0.307996
-0.24958 0.0837732 0.329492
-0.24931 0.0788849 -0.156212
-0.249461 0.0834601 0.115665
-0.249472 0.0837953 0.135582
-0.249484 0.0841331 0.15566
-0.249612 0.088038 0.387699
-0.249181 0.0778399 -0.386517
-0.249193 0.0782147 -0.365049
-0.249243 0.0797511 -0.27707
-0.249254 0.0800953 -0.257362
-0.249332 0.0825378 -0.117497
-0.249343 0.0829065 -0.0963841
-0.249405 0.0848559 0.0152456
-0.249421 0.0853577 0.0439782
-0.249265 0.0833676 -0.237482
-0.249547 0.092535 0.269048
-0.249558 0.0929181 0.290219
-0.251913 0.0828348 -0.407118
-0.249204 0.0842582 -0.346095
-0.249215 0.0846163 -0.326979
-0.249227 0.0850292 -0.304932
-0.249322 0.0882043 -0.135445
-0.249452 0.0925998 0.0991883
-0.249497 0.0941003 0.17929
-0.249527 0.095128 0.234149
-0.249598 0.0975245 0.362073
-0.24936 0.0925413 -0.0658936
-0.249432 0.095044 0.0633227
-0.249514 0.097885 0.210001
-0.249276 0.0925443 -0.21743
-0.249299 0.0933571 -0.176797
-0.249348 0.0951478 -0.0872779
-0.249443 0.0985503 0.082821
-0.249572 0.103198 0.315141
-0.249265 0.0950683 -0.237482
-0.249371 0.0989911 -0.0474106
-0.249383 0.0994399 -0.0256656
-0.249467 0.102562 0.125603
-0.249478 0.102975 0.145601
-0.249535 0.105089 0.248051
-0.249547 0.105522 0.269048
-0.249611 0.107895 0.384023
-0.249617 0.108123 0.395068
-0.249252 0.0975105 -0.260187
-0.24931 0.0997224 -0.156212
-0.249393 0.102899 -0.00686944
-0.249405 0.10337 0.0152456
-0.249456 0.105296 0.105766
-0.249588 0.110362 0.343922
-0.249181 0.0976536 -0.386517
-0.249193 0.098124 -0.365049
-0.249243 0.100051 -0.27707
-0.249332 0.103547 -0.117497
-0.24956 0.112558 0.293765
-0.249286 0.104687 -0.200103
-0.249297 0.105146 -0.179723
-0.249491 0.11301 0.169135
-0.249502 0.113469 0.189485
-0.249171 0.102883 -0.405134
-0.249204 0.104252 -0.346095
-0.249215 0.104695 -0.326979
-0.249227 0.105206 -0.304932
-0.249318 0.108996 -0.141397
-0.249418 0.113144 0.0375639
-0.249467 0.115185 0.125603
-0.24936 0.11378 -0.0658936
-0.249393 0.115186 -0.00686944
-0.249514 0.12035 0.210001
-0.249568 0.122684 0.307996
-0.249274 0.113039 -0.220306
-0.249377 0.11757 -0.035009
-0.249436 0.120132 0.069805
-0.249525 0.124065 0.230685
-0.249547 0.125003 0.269048
-0.249558 0.125521 0.290219
-0.249604 0.127545 0.373025
-0.249617 0.128084 0.395068
-0.249254 0.115046 -0.257362
-0.249308 0.117509 -0.159164
-0.249447 0.123743 0.0893549
-0.24948 0.125238 0.148949
-0.249586 0.130038 0.340307
-0.249405 0.12497 0.0152456
-0.249183 0.117538 -0.383845
-0.24933 0.124478 -0.120498
-0.24934 0.124954 -0.102436
-0.2495 0.132557 0.186082
-0.249535 0.134191 0.248051
-0.249265 0.12432 -0.237482
-0.249282 0.125173 -0.205893
-0.249458 0.133673 0.109061
-0.249491 0.135294 0.169135
-0.249171 0.122614 -0.405134
-0.249198 0.123945 -0.356946
-0.24921 0.124546 -0.335191
-0.249221 0.125077 -0.315983
-0.249299 0.128922 -0.176797
-0.249418 0.134843 0.0375639
-0.24943 0.135465 0.060088
-0.248236 0.139911 0.214062
-0.247127 0.142722 0.30946
-0.242445 0.145323 0.377867
-0.240389 0.146185 0.39782
-0.249241 0.128973 -0.279871
-0.249322 0.133054 -0.135445
-0.249355 0.13476 -0.0750818
-0.248415 0.139297 0.0799004
-0.24603 0.143793 0.225521
-0.24287 0.145118 0.255095
-0.248697 0.138429 -0.0565554
-0.248432 0.1391 -0.0348231
-0.244438 0.144435 0.127542
-0.242104 0.145414 0.148617
-0.249227 0.134029 -0.304932
-0.248596 0.138537 -0.156174
-0.246723 0.143279 -0.0062561
-0.245174 0.144103 0.0131398
-0.242899 0.145056 0.0329543
-0.246819 0.142895 -0.120256
-0.246586 0.143482 -0.102112
-0.249186 0.137528 -0.378491
-0.24691 0.142529 -0.228984
-0.242209 0.145275 -0.260666
-0.249174 0.142515 -0.399831
-0.249195 0.143717 -0.362351
-0.249207 0.144413 -0.34065
