ply
format ascii 1.0
comment Created by Open3D
element vertex 570
property double x
property double y
property double z
end_header
-0.205554 -0.351479 -0.18344
-0.216048 -0.349206 -0.154682
-0.213902 -0.356573 0.150624
-0.215561 -0.354339 0.172961
-0.203457 -0.332301 -0.174719
-0.199762 -0.335746 -0.145257
-0.217311 -0.336731 0.152533
-0.210702 -0.316334 -0.151585
-0.188515 -0.322414 -0.138748
-0.196495 -0.337464 0.140879
-0.194506 -0.311736 -0.177568
-0.206882 -0.32605 0.169994
-0.21047 -0.31718 0.148701
-0.194184 -0.302075 -0.142026
-0.200866 -0.295856 -0.157103
-0.189365 -0.317504 0.136883
-0.203922 -0.314344 0.167895
-0.199763 -0.282027 -0.145257
-0.189364 -0.301549 0.136883
-0.205862 -0.297109 0.153824
-0.187727 -0.281459 -0.171588
-0.176938 -0.274906 -0.132049
-0.191783 -0.286792 0.172916
-0.182134 -0.284407 0.132831
-0.195185 -0.262379 -0.148026
-0.200027 -0.276292 0.142854
-0.183224 -0.261897 -0.16854
-0.190998 -0.267299 0.163109
-0.182761 -0.25157 -0.135422
-0.185761 -0.260986 0.134865
-0.174785 -0.257313 0.128725
0.223981 -0.347036 -0.200806
0.223706 -0.343561 -0.179041
-0.177352 -0.236373 -0.165428
-0.192644 -0.246989 0.149023
-0.183049 -0.23236 -0.153546
-0.176938 -0.234976 -0.132049
0.222948 -0.333504 -0.200792
-0.174786 -0.244367 0.128725
-0.18576 -0.241772 0.134865
0.223729 -0.346345 0.17804
-0.174139 -0.224995 -0.165362
0.239185 -0.345616 0.17756
0.221637 -0.316449 -0.179048
0.22271 -0.333173 0.201811
0.222281 -0.327378 0.17763
-0.187302 -0.225932 0.147721
0.22089 -0.306505 -0.200764
-0.1776 -0.21242 -0.153358
0.237679 -0.326426 0.177139
-0.174786 -0.224947 0.128725
-0.185759 -0.219357 0.134865
-0.176942 -0.20733 -0.132049
0.221198 -0.313181 0.177323
0.221248 -0.313977 0.196552
0.219863 -0.293038 -0.200751
0.219918 -0.293923 -0.179054
-0.181018 -0.214795 0.153515
0.23614 -0.307272 0.176709
-0.152736 -0.200914 -0.118045
0.219757 -0.294289 0.176915
-0.170762 -0.192401 -0.156171
-0.165017 -0.191702 -0.125151
0.219083 -0.285582 0.195906
-0.155974 -0.202675 0.11819
-0.185758 -0.196941 0.134866
0.217812 -0.266169 -0.200723
0.217862 -0.266972 -0.179061
0.233434 -0.273858 0.175953
0.216808 -0.253071 -0.192067
0.217642 -0.266705 0.195476
-0.183148 -0.184685 0.135823
0.216101 -0.243699 -0.205011
-0.164188 -0.172022 -0.159034
-0.176946 -0.170471 -0.132049
-0.152739 -0.172437 -0.118045
0.231912 -0.254831 0.175528
0.249243 -0.25337 0.175482
-0.152125 -0.176956 0.116039
-0.16834 -0.175317 0.158413
0.215866 -0.243478 0.204549
0.214782 -0.226572 -0.183404
0.215096 -0.233184 0.175596
-0.172472 -0.1644 0.146558
0.214063 -0.217004 -0.204976
-0.175405 -0.152309 -0.131959
0.247678 -0.234145 0.17505
0.213762 -0.213202 -0.183404
-0.161338 -0.150898 -0.155879
-0.146468 -0.154615 -0.114412
0.214433 -0.224673 0.204111
-0.174788 -0.156977 0.128724
-0.152125 -0.15711 0.116039
0.213048 -0.203689 -0.204959
0.213668 -0.214472 0.175192
0.246116 -0.214966 0.17462
0.228121 -0.207459 0.174469
-0.171996 -0.144762 0.139916
0.211727 -0.186526 -0.183404
-0.169667 -0.131546 -0.134699
0.212287 -0.196545 0.203455
-0.157204 -0.129717 -0.155751
-0.152743 -0.131305 -0.118045
0.226976 -0.1933 0.174149
-0.152125 -0.137265 0.116039
0.21102 -0.177122 -0.204925
0.211533 -0.186484 0.174587
0.210712 -0.173221 -0.183404
0.21001 -0.163871 -0.204908
0.225423 -0.174457 0.173715
0.210493 -0.17296 0.193345
-0.140421 -0.122064 0.109483
-0.155737 -0.111211 -0.152605
-0.165027 -0.110656 -0.125151
-0.152745 -0.112321 -0.118046
0.20976 -0.163232 0.174085
-0.159795 -0.116567 0.120326
-0.162943 -0.116745 0.146681
0.209034 -0.151273 -0.174774
0.209073 -0.154337 0.192921
0.240997 -0.152942 0.173209
0.208733 -0.149971 0.207151
0.207994 -0.137432 -0.204873
-0.133611 -0.101967 -0.106977
0.208346 -0.144677 0.173685
0.207677 -0.133431 -0.183405
-0.136465 -0.102377 0.107265
-0.157341 -0.100997 0.152228
-0.161558 -0.0920908 -0.137353
-0.155973 -0.0972184 0.118191
0.206986 -0.124244 -0.204856
-0.152747 -0.0901728 -0.118046
0.239407 -0.133954 0.172771
0.207314 -0.131365 0.206712
0.221157 -0.122872 0.172524
0.206003 -0.111542 -0.174795
-0.144352 -0.084964 0.111684
-0.133612 -0.0793072 -0.106977
-0.156245 -0.0811762 0.149165
-0.14647 -0.0749164 -0.114412
0.205544 -0.108167 0.206164
-0.155973 -0.0774452 0.118191
-0.157112 -0.0705467 -0.140236
0.237026 -0.105558 0.172115
0.219614 -0.104199 0.172093
0.205181 -0.103275 0.187009
0.204643 -0.0934983 -0.209084
0.204653 -0.0937212 -0.191985
0.204471 -0.0938659 0.172588
0.204132 -0.0896548 0.205727
-0.148255 -0.0647342 0.113869
-0.15861 -0.0643578 0.141372
-0.133609 -0.0598853 -0.106977
0.235458 -0.0866869 0.171683
0.203776 -0.0848734 0.191342
-0.132469 -0.0623289 0.105034
0.202986 -0.0719585 -0.179113
-0.155236 -0.0518425 -0.140146
-0.158929 -0.0518158 -0.121625
0.217306 -0.0762739 0.171448
0.202645 -0.0672987 -0.209043
0.202367 -0.0662819 0.171992
-0.127043 -0.0440386 -0.103173
0.233473 -0.0631606 0.171136
0.20202 -0.0619256 0.200316
-0.148255 -0.044816 0.113869
-0.158684 -0.0445236 0.137894
0.201647 -0.05423 -0.209023
0.20165 -0.054359 -0.191965
-0.132471 -0.042114 0.105033
-0.153643 -0.0299016 -0.140069
-0.158929 -0.0298333 -0.121625
0.231901 -0.044392 0.170702
0.214623 -0.0438226 0.170699
0.200618 -0.0434741 0.1904
-0.150072 -0.0270877 -0.0956197
-0.157315 -0.0269684 -0.0772725
-0.165686 -0.0268305 -0.0560707
-0.169287 -0.0268197 -0.0374906
-0.170863 -0.0268376 -0.024964
-0.173523 -0.0269052 0.00347131
-0.171016 -0.0270821 0.0235142
-0.168476 -0.0272614 0.0438223
-0.161849 -0.0275683 0.0655331
-0.0745551 -0.0255133 -0.173385
-0.0853963 -0.0252608 -0.166856
-0.105236 -0.0248171 -0.150867
-0.144444 -0.0249555 0.104734
-0.159794 -0.0246268 0.120327
-0.0351964 -0.0229323 -0.19037
-0.156864 -0.0214809 0.138548
0.199329 -0.0238171 -0.208976
-0.00837374 -0.0199036 -0.194108
-0.146468 -0.0143457 -0.114412
-0.170646 -0.0143614 0.0301392
-0.1681 -0.0144566 0.050525
-0.0597879 -0.0120714 -0.180033
-0.152836 -0.0110263 -0.14003
-0.161022 -0.0113693 0.0691165
-0.082063 -0.00506654 -0.170133
-0.0980826 -0.00499489 -0.157214
-0.154468 -0.00476558 -0.0865086
-0.162864 -0.00474118 -0.0652308
-0.168885 -0.00472638 -0.0469946
-0.170458 -0.00472953 -0.0344916
-0.174004 -0.00473664 -0.00629891
-0.173095 -0.00475911 0.0132763
-0.148644 -0.00496493 0.0999655
-0.159794 -0.00492537 0.120327
-0.00909781 -0.00180817 -0.1941
-0.156163 -0.00165368 0.1388
0.19842 0.00649085 -0.208957
-0.0362736 0.00528645 -0.190362
-0.0680769 0.00513335 -0.176692
-0.152583 0.00787813 -0.140017
-0.158929 0.00785088 -0.121625
-0.167694 0.00804013 0.0539431
-0.163292 0.00809521 0.06513
-0.0948204 0.0150268 -0.160426
-0.171291 0.0143598 0.0332561
-0.00995064 0.0198736 -0.194092
-0.125295 0.0177611 -0.167543
-0.17772 0.0170012 -0.0952162
-0.184733 0.0169265 -0.0774319
-0.192605 0.0168447 -0.0568458
-0.194133 0.016856 -0.0446971
-0.19758 0.0168812 -0.0173033
-0.199181 0.0169225 0.00429882
-0.196749 0.0170338 0.0238214
-0.194285 0.0171466 0.0436026
-0.189904 0.0172986 0.0641878
-0.185553 0.0174184 0.0752534
-0.17365 0.0177461 0.105525
-0.156271 0.0181882 0.138761
-0.139045 0.0185726 0.155543
-0.124067 0.0189008 0.168298
-0.0980804 0.0194664 0.189274
0.0660046 0.0250331 -0.23648
-0.0189773 0.0231874 -0.218531
-0.0451046 0.0226151 -0.214243
-0.0697241 0.0221021 -0.203507
-0.0932513 0.0216119 -0.193247
-0.10972 0.0212918 -0.180208
-0.0452203 0.0242941 0.21383
-0.15303 0.029922 -0.140039
-0.0495514 0.0353542 0.212123
-0.164186 0.0327799 -0.121989
-0.10746 0.0367747 0.181933
-0.0531639 0.039715 -0.210617
-0.0694524 0.0391145 -0.203513
-0.0852512 0.0385321 -0.19662
-0.109745 0.037669 -0.180208
-0.175599 0.035591 -0.101201
-0.183778 0.0354092 -0.0804099
-0.191874 0.0352292 -0.0598304
-0.194723 0.0352416 -0.0416916
-0.197385 0.0352835 -0.020387
-0.199671 0.0353195 -0.00208551
-0.159623 0.0378638 0.134114
-0.138906 0.0388395 0.155594
-0.00599742 0.0451506 -0.218971
-0.128095 0.0402682 -0.164411
-0.180997 0.0398449 0.0832119
-0.171846 0.0404147 0.106118
0.109275 0.0541294 -0.222873
-0.187019 0.0425488 0.0585019
0.0641307 0.0557173 0.230884
0.064375 0.0557619 -0.236403
-0.158961 0.0455335 -0.121627
-0.153866 0.0487748 -0.140079
0.109359 0.0661629 -0.222876
-0.148147 0.0547816 0.113904
-0.159999 0.0575945 0.13398
0.0630404 0.0762788 0.23048
0.0633469 0.0750539 -0.225084
-0.146642 0.0653402 -0.114426
0.109202 0.0862006 -0.222871
-0.153858 0.067656 -0.140079
-0.148155 0.0747015 0.113901
-0.158006 0.0775628 0.138138
0.0619931 0.105042 0.230092
0.109182 0.106245 -0.22287
0.0622514 0.105554 -0.236302
-0.154583 0.0896112 -0.140114
-0.154523 0.0939563 0.111809
-0.158963 0.0926368 -0.121627
-0.177425 0.0939481 0.0578952
-0.181249 0.0939478 0.0798337
-0.17546 0.0948685 0.0982385
-0.157088 0.0975275 0.141925
-0.167894 0.0951643 -0.103599
-0.180356 0.094338 -0.0768974
-0.187599 0.0939548 -0.0561092
-0.19135 0.0939489 -0.0348973
-0.196394 0.093975 -0.00453348
-0.195878 0.094556 0.0240322
-0.193285 0.0951961 0.043867
0.0632571 0.125861 0.234884
0.109163 0.12629 -0.22287
-0.166572 0.102648 0.118022
0.063399 0.125096 -0.225086
-0.150411 0.105631 -0.1493
-0.158966 0.105197 -0.121627
-0.191731 0.105075 0.0604227
-0.185109 0.112697 0.0852453
-0.156385 0.11753 0.145644
0.109252 0.146347 -0.222873
-0.200106 0.11253 0.0198471
-0.167357 0.118986 0.124552
-0.183737 0.11547 -0.0804051
-0.191195 0.114968 -0.0597328
-0.19603 0.114743 -0.0419074
-0.19961 0.114756 -0.020811
-0.20104 0.114987 -0.00237638
0.0684149 0.155462 0.236817
0.0680228 0.152579 -0.229035
-0.175936 0.125294 -0.101232
0.109369 0.166411 -0.222877
-0.157552 0.130055 -0.140257
-0.182042 0.132625 0.102768
-0.156182 0.137512 0.149188
-0.16501 0.132558 -0.122046
-0.197295 0.132527 0.0620677
-0.191933 0.133774 0.0798682
-0.17214 0.137798 0.122889
-0.194906 0.132789 -0.0602657
-0.200216 0.132533 -0.0395142
-0.203318 0.132538 -0.0215177
-0.204926 0.132859 -8.51601e-05
-0.204558 0.133411 0.018786
-0.202589 0.134219 0.0382308
0.0730966 0.172568 -0.23303
0.109237 0.18644 -0.222872
0.0768282 0.185031 -0.225586
-0.157662 0.148751 -0.143371
-0.190045 0.145201 -0.0811529
-0.192485 0.15285 0.0894998
-0.168513 0.158098 0.130954
-0.159371 0.160136 0.148005
-0.17347 0.153105 -0.11647
-0.204999 0.152584 0.0471168
-0.198241 0.15457 0.0747029
-0.181072 0.155222 -0.104788
-0.200798 0.153286 -0.0549877
-0.207154 0.153078 -0.0253309
-0.208762 0.153352 -0.00711648
-0.209192 0.153653 0.00520688
-0.207538 0.154815 0.0337871
0.0834981 0.20535 -0.237307
0.10924 0.214506 -0.222872
-0.174413 0.1652 -0.119621
-0.158579 0.170396 -0.146513
-0.199088 0.165255 -0.0700422
-0.21172 0.165123 -0.001554
-0.189307 0.172935 0.106984
-0.169451 0.17758 0.134026
-0.201547 0.172744 0.0769288
-0.211024 0.172602 0.0360325
-0.20619 0.174461 0.0627067
-0.159344 0.186792 0.154943
0.090304 0.226254 -0.237629
-0.189975 0.175252 -0.096452
-0.207697 0.173439 -0.0468884
-0.211341 0.173434 -0.0261136
-0.213102 0.174789 0.0229813
0.109283 0.234562 -0.222874
-0.161267 0.188587 -0.146624
-0.188492 0.192519 0.117203
-0.20751 0.185206 -0.0559994
-0.214942 0.185161 -0.0145487
-0.198254 0.192884 0.0974416
-0.169056 0.193584 -0.134665
-0.2087 0.192657 0.0683517
0.109354 0.254626 -0.222876
-0.216232 0.192548 0.028436
-0.213763 0.193838 0.0478809
0.0960438 0.255072 -0.237901
-0.20291 0.194466 -0.0766214
-0.21237 0.193597 -0.0446063
-0.217663 0.194641 0.0125695
-0.171524 0.209936 0.140089
0.0607296 0.2659 0.242581
0.142321 0.269296 -0.244104
0.137195 0.269094 -0.219799
0.0393353 0.265005 0.238645
0.120314 0.268375 -0.242988
0.0195408 0.264177 0.230998
0.0950177 0.267328 -0.222391
-0.16487 0.209557 -0.146773
-0.189243 0.205284 -0.111606
-0.19647 0.212678 0.111141
0.000444412 0.263377 0.22362
-0.00357139 0.263209 0.242548
0.0786437 0.266632 -0.240877
0.0746468 0.266476 -0.221701
-0.213357 0.205111 -0.0508325
-0.217345 0.205014 -0.0302771
-0.206411 0.212522 0.0883054
-0.0160893 0.263086 0.217233
-0.0219078 0.262443 0.235106
0.0596993 0.265841 -0.243648
0.0541533 0.265612 -0.217268
-0.176468 0.213461 -0.135075
-0.214234 0.212697 0.0635331
-0.185302 0.222676 0.135033
-0.0372839 0.261805 0.216958
-0.0411613 0.261637 0.235226
0.0406152 0.265042 -0.242617
-0.220649 0.212646 0.0273177
-0.0552099 0.261052 0.213787
-0.0597556 0.260859 0.235341
0.0221748 0.264271 -0.241621
0.0176351 0.264089 -0.219771
-0.201682 0.215228 -0.0916035
-0.20953 0.214153 -0.0714292
-0.221392 0.213876 -0.00975429
-0.221971 0.21452 0.00848551
-0.174786 0.232006 0.142289
-0.0762448 0.260169 0.228391
0.0035919 0.263492 -0.237074
-0.162698 0.225225 -0.155921
-0.166906 0.237964 0.158967
-0.0264164 0.275851 0.21724
-0.0885611 0.259653 0.204282
-0.0157983 0.262691 -0.225632
-0.105491 0.258945 0.204897
-0.107367 0.258928 0.215271
-0.20367 0.232615 0.105408
-0.0450513 0.261459 -0.241365
-0.0492642 0.26129 -0.220892
-0.172948 0.23254 -0.141001
-0.215089 0.225192 -0.0601544
-0.211454 0.232844 0.0866869
-0.124245 0.260066 0.182684
-0.127596 0.260286 0.206744
-0.0669494 0.26055 -0.210243
-0.218892 0.232821 0.0621618
-0.193848 0.242538 0.128577
-0.135489 0.260819 0.18901
-0.0772994 0.260108 -0.232975
-0.190895 0.234821 -0.120819
-0.225019 0.232533 0.0262112
-0.143222 0.261337 0.171659
-0.0966725 0.259305 -0.209438
-0.205941 0.235118 -0.0920631
-0.22165 0.233304 -0.040121
-0.224793 0.233423 -0.019563
-0.226251 0.233876 -0.00165296
-0.155433 0.262156 0.187953
-0.10379 0.259886 -0.225255
-0.170554 0.245085 -0.150064
-0.17314 0.259104 0.156558
-0.113846 0.278502 0.219942
-0.118045 0.259664 -0.215178
-0.120737 0.259838 -0.196139
-0.132204 0.260605 -0.180287
-0.209149 0.252831 0.103545
-0.136247 0.278524 0.206708
-0.0527818 0.28351 -0.240921
-0.0700166 0.278791 -0.23664
-0.137662 0.260997 -0.205228
-0.217615 0.24503 -0.0665219
-0.228343 0.24502 -0.00514771
-0.187552 0.264312 0.147625
-0.0866783 0.277553 -0.232499
-0.149241 0.261751 -0.18652
-0.152302 0.261955 -0.164911
-0.187738 0.253316 -0.132683
-0.223498 0.252722 0.0608057
-0.200019 0.26283 0.126337
-0.202979 0.253206 -0.106765
-0.228636 0.252743 0.0314424
-0.109586 0.277958 -0.221825
-0.167771 0.262996 -0.177382
-0.22468 0.252872 -0.0466395
-0.228329 0.252842 -0.026284
-0.230258 0.254282 0.0126608
-0.163982 0.282996 0.187909
-0.113848 0.299521 0.219941
-0.219259 0.264296 0.0841822
-0.217587 0.266331 0.113514
-0.132167 0.278311 -0.208476
-0.18774 0.264339 -0.153707
-0.136249 0.299028 0.206706
-0.0527413 0.304141 -0.240923
-0.0699881 0.299075 -0.236641
-0.201267 0.265245 -0.115599
-0.214223 0.262797 -0.0870023
-0.189267 0.283693 0.160429
-0.148472 0.280132 -0.198837
-0.233121 0.267573 0.0548797
-0.212604 0.278089 0.131521
-0.0866796 0.30082 -0.232499
-0.207613 0.267927 -0.139737
-0.217656 0.266343 -0.111032
-0.22771 0.267014 -0.0944122
-0.23186 0.267292 -0.0655709
-0.233171 0.268009 -0.0450764
-0.163982 0.302855 0.187909
-0.113849 0.320539 0.21994
-0.109586 0.300715 -0.221825
-0.172943 0.282866 -0.177418
-0.234258 0.272582 -0.0094357
-0.234486 0.273518 0.00862247
-0.234754 0.274619 0.0298477
-0.234668 0.274375 -0.0274919
-0.235944 0.279618 0.072612
-0.179347 0.303547 0.171211
-0.136258 0.319529 0.206703
-0.132166 0.300577 -0.208476
-0.19189 0.283947 -0.156825
-0.234709 0.283748 0.0854642
-0.208376 0.295476 0.139661
-0.148469 0.298913 -0.198837
-0.172943 0.295099 -0.177418
-0.216395 0.298109 0.123623
-0.0979218 0.320508 -0.228723
-0.207613 0.28865 -0.139737
-0.238279 0.289657 0.0533805
-0.163982 0.322714 0.187909
-0.217792 0.289317 -0.119847
-0.120997 0.319938 -0.215078
-0.238146 0.289319 -0.0518076
-0.238947 0.292614 0.00757585
-0.239231 0.293785 0.0286809
-0.225682 0.303007 0.104273
-0.179347 0.323026 0.171211
-0.137655 0.317944 -0.205229
-0.227233 0.293092 -0.100209
-0.239053 0.293157 -0.0312937
-0.239336 0.29432 -0.0105149
-0.240405 0.298724 0.0681293
-0.19189 0.30498 -0.156825
-0.236541 0.293919 -0.0808484
-0.158992 0.320565 -0.192581
-0.212336 0.305252 -0.131195
-0.218274 0.318814 0.119709
-0.210693 0.322524 0.135504
-0.242697 0.308578 0.0490435
-0.179347 0.342505 0.171211
-0.242555 0.308187 -0.0495918
-0.243616 0.312566 0.0245186
-0.227507 0.323405 0.100468
-0.183851 0.325439 -0.165562
-0.221855 0.314786 -0.111396
-0.231239 0.312554 -0.0918779
-0.243599 0.312593 -0.0203238
-0.243899 0.31383 0.000433043
-0.153784 0.337808 -0.195692
-0.19981 0.323597 -0.148218
-0.24109 0.313201 -0.0698079
-0.240004 0.323068 0.0744302
-0.19894 0.343474 0.149916
-0.218273 0.340377 0.119709
-0.217792 0.327501 -0.119847
-0.227233 0.325172 -0.100209
-0.245403 0.32774 0.0421926
-0.225682 0.342597 0.104273
-0.244108 0.327815 -0.0498483
-0.207613 0.338979 -0.139737
-0.248297 0.332655 0.002406
-0.248569 0.333782 0.0202488
-0.243011 0.33861 0.0581207
-0.236483 0.342839 0.0817657
-0.236541 0.334459 -0.0808484
-0.247129 0.333776 -0.0298665
-0.217792 0.348061 -0.119847
-0.245878 0.347893 0.0390301
-0.242383 0.345035 -0.0612565
-0.247129 0.345335 -0.0298665
