ply
format ascii 1.0
comment Created by Open3D
element vertex 1086
property double x
property double y
property double z
end_header
0.174125 -0.174581 0.385017
0.174211 -0.174752 0.374528
0.156186 -0.174567 0.350247
0.138672 -0.173744 0.350252
0.120562 -0.172893 0.350257
0.101828 -0.172014 0.350262
0.0824318 -0.175037 0.350268
0.161875 -0.173991 -0.350352
0.173375 -0.172506 -0.369386
0.0623447 -0.174163 0.350274
0.133988 -0.174329 -0.350344
0.164475 -0.154438 0.383854
0.16468 -0.154845 0.355568
0.0415261 -0.173259 0.350279
0.104672 -0.174686 -0.350336
0.0199326 -0.172321 0.350286
0.0173565 -0.172994 0.330447
0.017363 -0.173301 0.31006
0.0173694 -0.173609 0.289601
0.0173761 -0.173918 0.269069
0.0173826 -0.174228 0.248464
0.0173879 -0.174476 0.231928
0.0173944 -0.174788 0.21119
0.0174012 -0.175101 0.190378
0.0738144 -0.175061 -0.350327
0.120576 -0.153892 0.350254
0.017408 -0.171189 0.169491
0.0174147 -0.171497 0.148529
0.0174201 -0.171743 0.131705
0.0174268 -0.172053 0.110607
0.0174336 -0.172364 0.089433
0.0174391 -0.172614 0.0724385
0.0174462 -0.172926 0.051126
0.017453 -0.17324 0.0297361
0.0174597 -0.173556 0.00826829
0.0174652 -0.173809 -0.00896223
0.0174723 -0.174126 -0.0305711
0.0174779 -0.17438 -0.0479151
0.0174848 -0.1747 -0.0696665
0.0174918 -0.17502 -0.0914978
0.0174975 -0.175277 -0.109021
0.0523256 -0.17389 -0.350321
0.0824423 -0.155368 0.350266
0.0175046 -0.171264 -0.130997
0.0175102 -0.171517 -0.148636
0.0175172 -0.171834 -0.170758
0.017523 -0.172088 -0.188515
0.0175302 -0.172407 -0.210785
0.0175359 -0.172663 -0.22866
0.0175432 -0.172984 -0.251079
0.0175488 -0.173241 -0.269074
0.0175561 -0.173564 -0.291644
0.0175619 -0.173824 -0.309761
0.0175676 -0.174084 -0.327931
0.0186132 -0.174261 -0.350311
0.164665 -0.154329 -0.369415
0.13869 -0.14385 0.350248
0.101839 -0.148819 0.35026
0.0623513 -0.154144 0.350272
0.134 -0.15429 -0.350339
0.162805 -0.150457 -0.353999
0.0842867 -0.156812 -0.350327
0.104683 -0.154133 -0.350331
0.0824418 -0.143568 0.350266
0.0199294 -0.151559 0.350286
0.0173852 -0.153346 0.240202
0.0173919 -0.15362 0.219494
0.0173985 -0.153895 0.198711
0.0174038 -0.154115 0.182032
0.120577 -0.134893 0.350254
0.0415231 -0.144722 0.35028
0.0174106 -0.150162 0.161115
0.0174173 -0.150432 0.140123
0.017424 -0.150703 0.119056
0.0174297 -0.150921 0.102147
0.0174364 -0.151194 0.0809419
0.0174876 -0.153244 -0.0783894
0.0174946 -0.153525 -0.100253
0.0631669 -0.151074 -0.350323
0.159349 -0.125971 0.385089
0.159353 -0.126104 0.374465
0.0173563 -0.143815 0.330447
0.0173628 -0.14407 0.31006
0.0173693 -0.144325 0.289601
0.0173758 -0.144582 0.26907
0.0174433 -0.147201 0.0596602
0.01745 -0.147468 0.0383014
0.0175003 -0.14942 -0.117801
0.0175074 -0.149695 -0.13981
0.0175145 -0.149972 -0.161899
0.0175201 -0.150193 -0.17963
0.0175275 -0.150471 -0.201867
0.0412918 -0.149462 -0.350317
0.0842834 -0.144267 -0.350328
0.101837 -0.129492 0.35026
0.0623465 -0.134126 0.350273
0.0174556 -0.143402 0.0211583
0.0174625 -0.143663 -0.000340715
0.0174681 -0.143872 -0.0175963
0.017475 -0.144135 -0.0392368
0.017482 -0.144399 -0.0609564
0.0175331 -0.146327 -0.219716
0.0175388 -0.146544 -0.237618
0.0175459 -0.146817 -0.26007
0.0175518 -0.147036 -0.278092
0.0175589 -0.14731 -0.300696
0.133999 -0.134252 -0.350339
0.0175648 -0.143127 -0.318839
0.0175723 -0.143395 -0.341595
0.104677 -0.133582 -0.350333
0.159586 -0.127345 -0.351378
0.082435 -0.123902 0.350267
0.0199294 -0.130798 0.350286
0.0174391 -0.134255 0.0724385
0.0174458 -0.134498 0.051126
0.159591 -0.123613 -0.367697
0.138688 -0.113959 0.350249
0.0415211 -0.124339 0.35028
0.0174077 -0.12892 0.169491
0.0174143 -0.129152 0.148529
0.0174199 -0.129338 0.131705
0.0174266 -0.129571 0.110607
0.0174336 -0.129805 0.089433
0.0175003 -0.132096 -0.117801
0.0175074 -0.132339 -0.13981
0.0175331 -0.133223 -0.219716
0.0175388 -0.133421 -0.237618
0.0175459 -0.133669 -0.26007
0.0175518 -0.133868 -0.278092
0.0175589 -0.134118 -0.300696
0.0412949 -0.132133 -0.350316
0.0631669 -0.129796 -0.350323
0.0173693 -0.123409 0.289601
0.0173758 -0.123628 0.26907
0.0173824 -0.123849 0.248464
0.0173876 -0.124025 0.231928
0.0173941 -0.124247 0.21119
0.0174007 -0.12447 0.190378
0.0174876 -0.127344 -0.0783894
0.0175145 -0.128237 -0.161899
0.0175201 -0.128426 -0.17963
0.0175272 -0.128664 -0.201867
0.0842779 -0.12336 -0.35033
0.156183 -0.104408 0.382302
0.156341 -0.104614 0.360921
0.10183 -0.110166 0.350262
0.0623401 -0.114108 0.350274
0.0174946 -0.123253 -0.100253
0.133994 -0.114215 -0.350341
0.12057 -0.104495 0.350256
0.0173535 -0.114554 0.338581
0.0173588 -0.114716 0.322301
0.0824323 -0.104235 0.350268
0.0174074 -0.112012 0.169491
0.017414 -0.112214 0.148529
0.0174196 -0.112375 0.131705
0.01745 -0.113273 0.0383014
0.0174555 -0.113437 0.0211583
0.0174625 -0.113644 -0.000340715
0.0174681 -0.11381 -0.0175963
0.017475 -0.114017 -0.0392368
0.0174818 -0.114226 -0.0609565
0.0174876 -0.114393 -0.0783894
0.0175648 -0.116703 -0.318839
0.0175723 -0.116922 -0.341595
0.0523325 -0.113779 -0.350318
0.152743 -0.10446 -0.350344
0.156343 -0.104307 -0.369202
0.0415231 -0.103955 0.35028
0.0174261 -0.10833 0.110607
0.0174332 -0.108526 0.089433
0.0175003 -0.110441 -0.117801
0.0175072 -0.110644 -0.13981
0.0175145 -0.110849 -0.161899
0.0175201 -0.111013 -0.17963
0.0175272 -0.111218 -0.201867
0.104671 -0.104811 -0.350336
0.0173981 -0.103299 0.198711
0.0174386 -0.104421 0.0724385
0.0175328 -0.107015 -0.219716
0.0175388 -0.107174 -0.237618
0.0175459 -0.107373 -0.26007
0.0738219 -0.103348 -0.350324
0.143352 -0.0871517 0.381756
0.143489 -0.0873253 0.36011
0.101829 -0.0908385 0.350262
0.0623358 -0.094089 0.350275
0.0175518 -0.103144 -0.278092
0.0175589 -0.103337 -0.300696
0.0175648 -0.103491 -0.318839
0.0175723 -0.103685 -0.341595
0.133989 -0.0941779 -0.350344
0.0173535 -0.0937258 0.338581
0.0173588 -0.0938586 0.322301
0.0173655 -0.0940251 0.301885
0.0173719 -0.0941922 0.281397
0.0173784 -0.0943599 0.260836
0.017385 -0.0945282 0.240202
0.0173914 -0.0946971 0.219494
0.0174946 -0.0973049 -0.100253
0.0824256 -0.0845687 0.350269
0.0174074 -0.090878 0.169491
0.017414 -0.0910414 0.148529
0.0174196 -0.0911725 0.131705
0.017426 -0.091337 0.110607
0.0174328 -0.091502 0.089433
0.0175328 -0.0939112 -0.219716
0.0175385 -0.0940507 -0.237618
0.0175459 -0.0942257 -0.26007
0.142501 -0.0856869 -0.371464
0.0415173 -0.0835724 0.350281
0.0175003 -0.0887859 -0.117801
0.0175072 -0.0889495 -0.13981
0.0175142 -0.0891136 -0.161899
0.0175201 -0.0892454 -0.17963
0.0175272 -0.0894106 -0.201867
0.0412909 -0.0888109 -0.350317
0.104677 -0.0842597 -0.350333
0.120566 -0.074097 0.350256
0.017445 -0.083261 0.0511259
0.0174519 -0.0834121 0.029736
0.0174589 -0.0835639 0.00826821
0.0174645 -0.0836857 -0.0089623
0.0174716 -0.0838384 -0.0305712
0.0174772 -0.083961 -0.0479152
0.0174843 -0.0841147 -0.0696666
0.0174915 -0.084269 -0.0914979
0.101822 -0.0715116 0.350263
0.0623392 -0.0740699 0.350275
0.0631711 -0.0787287 -0.350321
0.0842916 -0.0773602 -0.350325
0.133989 -0.07414 -0.350343
0.138699 -0.0739607 -0.369049
0.138458 -0.0651929 0.382903
0.138464 -0.0653076 0.364812
0.0173758 -0.0733388 0.26907
0.0173824 -0.0734695 0.248464
0.0173876 -0.0735744 0.231928
0.0173941 -0.073706 0.21119
0.0174007 -0.073838 0.190378
0.0174383 -0.0745861 0.0724385
0.0175518 -0.0768096 -0.278092
0.0175589 -0.076953 -0.300696
0.0175648 -0.0770681 -0.318839
0.0175723 -0.0772125 -0.341595
0.08242 -0.0649018 0.35027
0.0199294 -0.0685132 0.350286
0.0174074 -0.0697436 0.169491
0.017414 -0.069869 0.148529
0.0174196 -0.0699696 0.131705
0.017426 -0.0700958 0.110607
0.0174328 -0.0702224 0.089433
0.0174997 -0.0714619 -0.117801
0.0175068 -0.0715935 -0.13981
0.0175141 -0.0717256 -0.161899
0.01752 -0.0718316 -0.17963
0.0175272 -0.0719646 -0.201867
0.0412922 -0.0714818 -0.350317
0.0173563 -0.0646124 0.330447
0.0173628 -0.0647269 0.31006
0.0173693 -0.0648419 0.289601
0.0842947 -0.0648151 -0.350323
0.104684 -0.0637082 -0.350331
0.136316 -0.0541231 0.383405
0.136394 -0.0542723 0.354358
0.0175327 -0.0633355 -0.219716
0.0175385 -0.0634295 -0.237618
0.0175459 -0.0635476 -0.26007
0.0175518 -0.0636423 -0.278092
0.0175589 -0.0637611 -0.300696
0.0175648 -0.0638564 -0.318839
0.0175723 -0.063976 -0.341595
0.0631676 -0.0617064 -0.350323
0.101816 -0.0521844 0.350265
0.0623444 -0.0540507 0.350274
0.0415168 -0.0550355 0.350281
-0.0162026 -0.0606327 -0.233985
-0.0033195 -0.0600275 -0.234794
0.133992 -0.0541021 -0.350342
0.136535 -0.0540785 -0.370035
0.120557 -0.0474984 0.350258
0.0199294 -0.0519039 0.350286
0.0174383 -0.0532758 0.0724385
0.017445 -0.0533724 0.0511259
0.0174519 -0.0534693 0.029736
0.0174587 -0.0535666 0.00826819
0.017464 -0.0536447 -0.00896235
0.0174708 -0.0537426 -0.0305713
0.0174764 -0.0538212 -0.0479153
-0.000478268 -0.0546792 -0.0637518
0.017482 -0.0539 -0.0653101
0.0174919 -0.0540385 -0.0958739
0.0174074 -0.0486092 0.169491
0.017414 -0.0486966 0.148529
0.0174196 -0.0487667 0.131705
0.017426 -0.0488547 0.110607
0.0174328 -0.0489429 0.089433
-0.0169038 -0.0509959 -0.0707856
0.0175018 -0.0498435 -0.126595
0.0175105 -0.0499537 -0.153054
0.0175151 -0.0500091 -0.166327
0.0175236 -0.0501201 -0.192962
-0.0107114 -0.0514797 -0.246136
0.0412946 -0.0498206 -0.350316
0.0173563 -0.0437697 0.330447
0.0173628 -0.0438473 0.31006
0.0173693 -0.0439251 0.289601
0.0173758 -0.0440033 0.26907
0.0173824 -0.0440817 0.248464
0.0173876 -0.0441447 0.231928
0.0173941 -0.0442236 0.21119
0.0174007 -0.0443028 0.190378
0.00416744 -0.0458242 -0.0806544
0.0738196 -0.0442922 -0.350325
0.0824226 -0.0373677 0.35027
0.0945797 -0.0393832 -0.350326
0.0623392 -0.0340321 0.350275
0.0415168 -0.034652 0.350281
0.0168738 -0.0372727 -0.260285
0.0175505 -0.0373076 -0.278093
0.0175589 -0.0373772 -0.300696
0.0175648 -0.0374331 -0.318839
0.0186135 -0.0374991 -0.350311
0.114627 -0.0346407 -0.350331
0.127704 -0.0342858 -0.361466
0.127733 -0.0343368 -0.378249
0.101811 -0.0289915 0.350266
0.0199294 -0.0311423 0.350286
0.0174074 -0.0317016 0.169491
0.017414 -0.0317586 0.148529
0.0174196 -0.0318044 0.131705
0.0174261 -0.0318617 0.110607
0.017433 -0.0319193 0.089433
-0.00741339 -0.033102 -0.104938
0.0174959 -0.0324588 -0.109021
-0.00432205 -0.0334505 -0.26249
0.0412946 -0.0324917 -0.350316
0.123128 -0.0245637 0.38283
0.123154 -0.0246065 0.364468
0.0175033 -0.0281827 -0.130997
0.0175087 -0.0282243 -0.148636
0.0174383 -0.0234414 0.0724385
0.017445 -0.0234839 0.0511259
0.0174518 -0.0235265 0.029736
0.0174586 -0.0235693 0.00826818
0.0174645 -0.0236036 -0.0089623
0.0175477 -0.0241222 -0.269075
0.0175549 -0.0241672 -0.291645
-0.0147189 -0.0248299 -0.31211
0.00820911 -0.0243902 -0.313138
0.0175706 -0.0242577 -0.337037
-0.137034 -0.0223056 -0.350256
-0.122605 -0.0220782 -0.35026
-0.0946125 -0.021637 -0.350267
0.0631663 -0.0191503 -0.350323
0.0945755 -0.0186553 -0.350328
0.0824289 -0.013767 0.350269
0.0623335 -0.0140133 0.350276
0.0414996 -0.0142687 0.350284
0.0173535 -0.0145796 0.338581
0.0173588 -0.0146002 0.322301
0.0173655 -0.0146261 0.301885
0.0173719 -0.0146521 0.281397
0.0173784 -0.0146782 0.260836
0.017385 -0.0147044 0.240202
0.0173914 -0.0147307 0.219494
0.017398 -0.014757 0.198711
0.0174031 -0.0147782 0.182032
-0.0122434 -0.0155251 -0.119327
-0.0677165 -0.0164991 -0.350274
-0.0100051 -0.0157705 -0.33365
0.114632 -0.0142638 -0.350329
0.118764 -0.0142377 -0.369666
0.101811 -0.00966383 0.350266
0.0174096 -0.0105748 0.161115
0.0174162 -0.0105938 0.140123
0.017423 -0.0106129 0.119056
0.0174285 -0.0106283 0.102147
0.0142181 -0.0108609 -0.122874
0.0175052 -0.0108435 -0.135402
-0.0157068 -0.0112615 -0.275338
-0.0546601 -0.0116707 -0.350277
0.0412942 -0.0108306 -0.350316
-0.00248408 -0.00634623 0.350294
-0.0103055 -0.00656817 0.0187198
0.00417793 -0.00665391 -0.278011
-0.166802 -0.0075916 -0.350249
-0.0292926 -0.00686918 -0.350284
-0.0257653 -0.00215619 0.350302
-0.0499537 -0.00219855 0.350309
-0.151763 -0.00250421 -0.350253
-0.122605 -0.00245315 -0.35026
-0.0946125 -0.00240413 -0.350267
-0.00489366 -0.00224701 -0.350298
0.0631666 -0.00212782 -0.350323
0.0945721 -0.00207282 -0.350329
-0.0751117 0.00224261 0.350316
-0.101299 0.00228847 0.350324
0.00343478 0.0021363 0.178435
-0.0119238 0.00221977 -0.13277
0.11743 0.00569774 0.384146
0.11744 0.00571381 0.354591
0.0824312 0.00590009 0.350268
0.0623287 0.0060057 0.350277
0.0414927 0.00611516 0.350286
-0.00247955 0.00634618 0.350293
-0.128579 0.00700865 0.350333
-0.157023 0.00715808 0.350341
0.0173602 0.00625944 0.318224
0.0173656 0.00626832 0.301885
0.0173717 0.00627946 0.281397
0.0173781 0.00629064 0.260836
0.0173844 0.00630186 0.240202
0.017391 0.00631312 0.219494
0.0173974 0.00632442 0.198711
0.0174365 0.00639077 0.0766917
0.0174406 0.00639771 0.0639227
-0.0677165 0.00707101 -0.350274
-0.0292958 0.00686916 -0.350285
0.0186143 0.00661747 -0.350311
0.114629 0.00611304 -0.35033
0.117673 0.00610786 -0.370155
0.101815 0.00966379 0.350265
0.0199258 0.0103808 0.350287
0.0175068 0.0108475 -0.13981
-0.166802 0.0126527 -0.350249
-0.0546601 0.0116707 -0.350277
0.0412942 0.0108306 -0.350316
-0.0257578 0.0194055 0.3503
-0.0499537 0.0197868 0.350309
-0.0751117 0.0201833 0.350316
-0.101299 0.0205961 0.350324
-0.151763 0.0225377 -0.350253
-0.122605 0.0220782 -0.35026
-0.0946125 0.021637 -0.350267
-0.00490677 0.0202232 -0.350303
0.0631684 0.0191503 -0.350322
0.0945678 0.0186554 -0.350331
-0.128579 0.0256985 0.350333
-0.157023 0.0262464 0.350341
-0.0677165 0.0259272 -0.350274
-0.0293157 0.0251874 -0.350293
0.0824257 0.0255673 0.350269
0.0623292 0.0260248 0.350277
0.0414927 0.0264991 0.350286
-0.0105534 0.0279681 0.230099
-0.166802 0.0328969 -0.350249
-0.0546601 0.0303439 -0.350277
0.0412942 0.0281595 -0.350316
0.114629 0.0264899 -0.35033
0.116168 0.0265033 -0.370829
0.10182 0.0289912 0.350264
0.0199186 0.0311427 0.350288
0.0186161 0.0330874 -0.35031
-0.00248837 0.035962 0.350294
-0.0751117 0.0381241 0.350316
-0.101299 0.0389037 0.350324
0.0173786 0.0356471 0.260836
0.0173852 0.0357106 0.240202
-0.151763 0.0425713 -0.350253
-0.122605 0.0417032 -0.35026
-0.0946125 0.0408699 -0.350267
-0.00490546 0.0381993 -0.350303
0.0738168 0.0358557 -0.350326
0.111367 0.0362955 0.381841
-0.0257586 0.0409672 0.350301
-0.0499475 0.041772 0.350308
-0.157023 0.0453347 0.350341
0.094565 0.0393837 -0.350332
-0.0146638 0.0452966 0.238938
-0.166802 0.0531411 -0.350249
-0.0546805 0.0490178 -0.350285
-0.0169982 0.0476321 -0.350299
0.0186172 0.0463223 -0.35031
0.0523316 0.0450824 -0.350318
0.0824202 0.0452346 0.35027
0.0623297 0.0460438 0.350276
0.019913 0.0477523 0.350289
-0.128579 0.0537332 0.350333
-0.0677276 0.0542117 -0.350278
0.101826 0.0483185 0.350263
-0.151763 0.0626048 -0.350253
-0.122605 0.0613283 -0.35026
-0.0946125 0.0601028 -0.350267
0.0414927 0.0550366 0.350286
-0.0257649 0.0582168 0.350302
-0.0499481 0.0593602 0.350308
-0.0751085 0.0605499 0.350316
-0.101299 0.0617882 0.350324
-0.00490391 0.0606694 -0.350302
0.0842816 0.0564525 -0.350329
0.102459 0.0556396 -0.359828
0.102388 0.0557484 -0.381297
0.102069 0.0558595 0.383958
-0.166802 0.0733854 -0.350249
-0.0546846 0.0676916 -0.350287
-0.0293204 0.0664034 -0.350294
-0.00249887 0.0655784 0.350296
-0.157023 0.0739671 0.350341
-0.0677391 0.0730686 -0.350282
0.0523311 0.0665503 -0.350318
0.0623301 0.0660629 0.350276
0.0199058 0.0685145 0.350291
-0.128579 0.0770955 0.350333
-0.151763 0.0826384 -0.350253
-0.122605 0.0809534 -0.35026
-0.0946194 0.0793361 -0.35027
0.0186189 0.0727921 -0.350309
0.0935972 0.0681158 0.355677
-0.075107 0.0784905 0.350316
-0.101299 0.0800958 0.350324
-0.00490236 0.0786454 -0.350302
0.0414927 0.0754206 0.350286
-0.0257726 0.0797791 0.350303
-0.0499561 0.081346 0.350309
-0.166802 0.0936296 -0.350249
-0.0677381 0.0872109 -0.350282
0.0880785 0.0760811 0.383357
-0.157023 0.0930554 0.350341
-0.0546829 0.0910333 -0.350286
-0.016995 0.0884593 -0.350298
0.0186199 0.086027 -0.350309
-0.128579 0.0957853 0.350333
-0.151763 0.102672 -0.350253
-0.122605 0.100578 -0.35026
-0.0946292 0.0985698 -0.350273
0.0412953 0.0888105 -0.350316
0.0738211 0.0864752 -0.350324
0.0821329 0.0860148 -0.368625
0.0623299 0.0860819 0.350276
0.0198984 0.089277 0.350292
-0.101295 0.0984031 0.350324
-0.00250924 0.0951953 0.350298
-0.0499625 0.0989348 0.350311
-0.0751153 0.100917 0.350317
-0.166802 0.113874 -0.350249
-0.0677364 0.106067 -0.350281
-0.00490069 0.101115 -0.350301
0.0794393 0.0925781 0.362356
0.041486 0.0958051 0.350287
-0.0257804 0.101342 0.350304
-0.0546815 0.109707 -0.350285
0.0779742 0.09647 0.381802
-0.157023 0.116916 0.350341
-0.151763 0.122705 -0.350253
-0.122616 0.120204 -0.350264
-0.0946279 0.117803 -0.350273
-0.0169933 0.111141 -0.350297
0.0523311 0.105192 -0.350318
0.0623136 0.106102 0.35028
0.0198914 0.11004 0.350293
-0.075122 0.118858 0.350318
-0.101303 0.121288 0.350325
-0.128578 0.12382 0.350332
-0.166802 0.134118 -0.350249
-0.00489938 0.119091 -0.3503
0.0186223 0.116908 -0.350308
-0.00251663 0.116351 0.350299
-0.0257865 0.118592 0.350306
-0.0499706 0.120921 0.350312
-0.0546801 0.12838 -0.350285
-0.0293159 0.125937 -0.350293
0.0707412 0.1164 -0.360372
0.0706787 0.116583 -0.377984
0.0414789 0.11619 0.350288
-0.157023 0.136004 0.350341
-0.151768 0.14274 -0.350254
-0.122615 0.13983 -0.350264
-0.0810472 0.13568 -0.350276
0.041298 0.1278 -0.350315
-0.101311 0.139597 0.350326
-0.128585 0.14251 0.350334
-0.209163 0.157809 -0.252955
-0.207026 0.157808 -0.273518
-0.204887 0.157808 -0.294081
-0.202752 0.157808 -0.314645
-0.200617 0.157808 -0.335209
-0.198483 0.157808 -0.355773
-0.166804 0.154363 -0.350249
0.070406 0.124849 0.383475
0.0704125 0.125069 0.3642
0.0198842 0.130803 0.350295
-0.0499771 0.13851 0.350313
-0.0751302 0.141285 0.35032
-0.209526 0.15781 0.202151
-0.207456 0.15781 0.182239
-0.205386 0.157809 0.162328
-0.203315 0.157809 0.142416
-0.200728 0.157809 0.117527
-0.198657 0.157808 0.097616
-0.196587 0.157808 0.0777049
-0.194517 0.157808 0.0577939
-0.192447 0.157807 0.037883
-0.190377 0.157807 0.0179721
-0.18831 0.157807 -0.00193895
-0.186244 0.157807 -0.0218501
-0.184177 0.157807 -0.0417611
-0.18211 0.157807 -0.0616722
-0.180043 0.157807 -0.0815833
-0.177976 0.157807 -0.101494
-0.17591 0.157807 -0.121406
-0.173843 0.157807 -0.141317
-0.171776 0.157807 -0.161228
-0.16971 0.157807 -0.181139
-0.167643 0.157807 -0.20105
-0.165576 0.157807 -0.220961
-0.163509 0.157807 -0.240872
-0.161443 0.157807 -0.260784
-0.159376 0.157807 -0.280695
-0.157313 0.157808 -0.300607
-0.155248 0.157808 -0.320519
-0.153183 0.157808 -0.340431
-0.00489759 0.141561 -0.3503
-0.0257945 0.140155 0.350307
-0.157026 0.155093 0.350342
-0.180771 0.157807 0.349416
-0.178765 0.157806 0.330117
-0.17676 0.157806 0.310818
-0.174757 0.157806 0.29152
-0.172754 0.157806 0.272222
-0.17025 0.157806 0.248099
-0.168247 0.157806 0.228801
-0.166244 0.157806 0.209502
-0.164241 0.157806 0.190204
-0.162238 0.157806 0.170906
-0.160235 0.157806 0.151608
-0.158232 0.157806 0.132309
-0.155728 0.157806 0.108186
-0.153725 0.157807 0.088888
-0.151721 0.157807 0.0695896
-0.149718 0.157807 0.0502912
-0.147715 0.157807 0.0309929
-0.145712 0.157807 0.0116945
-0.143709 0.157807 -0.00760388
-0.141205 0.157807 -0.0317269
-0.139202 0.157807 -0.0510253
-0.137198 0.157807 -0.0703236
-0.135196 0.157807 -0.0896221
-0.133192 0.157807 -0.10892
-0.131189 0.157807 -0.128219
-0.129186 0.157807 -0.147517
-0.126682 0.157807 -0.17164
-0.12468 0.157807 -0.190939
-0.12268 0.157808 -0.210238
-0.120678 0.157808 -0.229537
-0.118676 0.157808 -0.248836
-0.116674 0.157808 -0.268135
-0.114172 0.157808 -0.292259
-0.11217 0.157808 -0.311558
-0.110168 0.157809 -0.330857
-0.108167 0.157809 -0.350156
-0.0546782 0.151722 -0.350284
0.0186243 0.143378 -0.350307
0.0631728 0.138307 -0.350321
0.0414721 0.136575 0.350289
-0.12859 0.156528 0.350334
-0.137722 0.157806 0.33343
-0.135779 0.157806 0.314708
-0.132864 0.157806 0.286625
-0.130435 0.157806 0.263222
-0.128492 0.157806 0.2445
-0.125576 0.157806 0.216417
-0.123147 0.157806 0.193014
-0.121204 0.157806 0.174292
-0.118289 0.157806 0.146209
-0.116345 0.157806 0.127486
-0.114888 0.157806 0.113445
-0.112945 0.157806 0.0947224
-0.11003 0.157806 0.0666391
-0.1076 0.157806 0.0432363
-0.105657 0.157806 0.024514
-0.102742 0.157806 -0.00356942
-0.100313 0.157806 -0.0269722
-0.0983696 0.157806 -0.0456945
-0.0954546 0.157806 -0.073778
-0.0935112 0.157806 -0.0925002
-0.0920562 0.157807 -0.106542
-0.0901144 0.157807 -0.125265
-0.0872012 0.157807 -0.153349
-0.0847734 0.157807 -0.176752
-0.0828315 0.157808 -0.195475
-0.0799181 0.157808 -0.223559
-0.0774908 0.157808 -0.246963
-0.0755485 0.157808 -0.265686
-0.0726352 0.157809 -0.29377
-0.0702074 0.157809 -0.317174
-0.0682653 0.157809 -0.335897
-0.0293136 0.153414 -0.350292
-0.00252724 0.145968 0.350301
-0.100476 0.157805 0.350186
-0.0985883 0.157805 0.332007
-0.0962298 0.157806 0.309283
-0.0943427 0.157806 0.291103
-0.091984 0.157806 0.268379
-0.090097 0.157806 0.2502
-0.08821 0.157806 0.23202
-0.0858511 0.157806 0.209296
-0.0839642 0.157806 0.191116
-0.0816057 0.157806 0.168392
-0.0797184 0.157806 0.150212
-0.0778313 0.157806 0.132033
-0.0754727 0.157806 0.109308
-0.0735857 0.157806 0.0911289
-0.071227 0.157806 0.0684045
-0.0693398 0.157806 0.050225
-0.0674528 0.157806 0.0320454
-0.0650941 0.157806 0.00932096
-0.063207 0.157806 -0.00885862
-0.0608512 0.157806 -0.0315834
-0.0589653 0.157807 -0.0497632
-0.0570796 0.157807 -0.0679431
-0.0547222 0.157807 -0.0906678
-0.0528363 0.157807 -0.108848
-0.0504791 0.157807 -0.131573
-0.0485932 0.157808 -0.149753
-0.0467073 0.157808 -0.167933
-0.0443499 0.157808 -0.190658
-0.042464 0.157808 -0.208838
-0.0401067 0.157808 -0.231563
-0.0382209 0.157809 -0.249743
-0.036335 0.157809 -0.267924
-0.0339775 0.157809 -0.290649
-0.0320917 0.157809 -0.308829
-0.0297343 0.157809 -0.331555
0.0412997 0.149461 -0.350314
0.0675827 0.146539 -0.370512
-0.0708655 0.157809 0.419008
-0.0634935 0.157805 0.348331
-0.0616595 0.157805 0.330664
-0.0593672 0.157805 0.30858
-0.0575336 0.157805 0.290912
-0.0552411 0.157805 0.268828
-0.0534073 0.157805 0.251161
-0.051115 0.157805 0.229077
-0.0492812 0.157805 0.211409
-0.046989 0.157805 0.189325
-0.0451549 0.157805 0.171658
-0.0428627 0.157805 0.149574
-0.0410287 0.157805 0.131906
-0.0387365 0.157805 0.109822
-0.0369025 0.157806 0.0921547
-0.0346103 0.157806 0.0700704
-0.0327787 0.157806 0.0524029
-0.0304879 0.157806 0.0303185
-0.0281967 0.157806 0.00823402
-0.0263641 0.157806 -0.00943364
-0.0240731 0.157807 -0.0315181
-0.0222403 0.157807 -0.0491859
-0.0199494 0.157807 -0.0712706
-0.0181166 0.157807 -0.0889383
-0.0158255 0.157807 -0.111023
-0.0139929 0.157808 -0.128691
-0.0117019 0.157808 -0.150776
-0.00986886 0.157808 -0.168444
-0.00757813 0.157808 -0.190529
-0.00574541 0.157808 -0.208197
-0.00345409 0.157809 -0.230282
-0.00162148 0.157809 -0.24795
0.000669479 0.157809 -0.270035
0.0025022 0.157809 -0.287704
0.00479329 0.157809 -0.309789
0.00708449 0.15781 -0.331874
0.00891721 0.15781 -0.349543
0.0153937 0.157802 -0.411355
-0.0361546 0.157809 0.419615
0.0676833 0.145006 0.384076
0.067631 0.145269 0.364769
0.019877 0.151566 0.350296
-0.028538 0.157805 0.346578
-0.0272003 0.157805 0.33369
-0.0240791 0.157805 0.303619
-0.0209578 0.157805 0.273549
-0.0178363 0.157805 0.243478
-0.014715 0.157805 0.213407
-0.0115938 0.157805 0.183337
-0.00847232 0.157805 0.153266
-0.00579882 0.157805 0.127491
-0.00446188 0.157806 0.114603
-0.00134242 0.157806 0.0845324
0.00177681 0.157806 0.0544614
0.00489652 0.157806 0.0243902
0.00801599 0.157807 -0.00568113
0.0111356 0.157807 -0.0357525
0.014255 0.157807 -0.065824
0.0173746 0.157808 -0.0958955
0.0204941 0.157808 -0.125967
0.0236137 0.157808 -0.156039
0.0267334 0.157808 -0.186111
0.0298531 0.157809 -0.216183
0.0329725 0.157809 -0.246255
0.0360922 0.157809 -0.276327
0.0392117 0.15781 -0.3064
0.0486465 0.1578 -0.396584
-0.00329471 0.157809 0.420188
0.00585508 0.157805 0.332374
0.00802505 0.157805 0.311468
0.0101951 0.157805 0.290561
0.0123652 0.157805 0.269655
0.0145354 0.157805 0.248749
0.0162714 0.157805 0.232024
0.0184405 0.157805 0.211118
0.0206094 0.157805 0.190211
0.0227783 0.157805 0.169305
0.024947 0.157805 0.148399
0.0266821 0.157806 0.131673
0.0288508 0.157806 0.110767
0.0310197 0.157806 0.0898605
0.0331885 0.157806 0.068954
0.0349234 0.157806 0.0522287
0.0370923 0.157807 0.0313221
0.0392613 0.157807 0.0104154
0.0414301 0.157807 -0.0104914
0.043599 0.157807 -0.0313982
0.0453341 0.157807 -0.0481236
0.0475029 0.157808 -0.0690306
0.0496718 0.157808 -0.0899375
0.0518408 0.157808 -0.110845
0.0535758 0.157808 -0.12757
0.0557448 0.157808 -0.148477
0.0579135 0.157809 -0.169384
0.0600826 0.157809 -0.190292
0.0622513 0.157809 -0.211199
0.0639864 0.157809 -0.227925
0.066156 0.157809 -0.248832
0.0683265 0.157809 -0.269739
0.0704968 0.157809 -0.290646
0.0726672 0.157809 -0.311553
0.0744035 0.157809 -0.328278
0.076574 0.157809 -0.349185
0.0809881 0.157799 -0.390966
0.0827143 0.157801 -0.407695
0.0282849 0.157808 0.416658
0.0295659 0.157807 0.404437
0.0363477 0.157804 0.339271
0.0384613 0.157804 0.318908
0.0405751 0.157804 0.298545
0.0422657 0.157804 0.282254
0.044378 0.157805 0.261891
0.0464905 0.157805 0.241528
0.0486031 0.157805 0.221165
0.0507156 0.157805 0.200802
0.0528281 0.157805 0.180438
0.0549408 0.157806 0.160075
0.0570531 0.157806 0.139712
0.0591657 0.157806 0.119348
0.0612782 0.157806 0.0989846
0.0633909 0.157806 0.0786211
0.0650809 0.157807 0.0623302
0.0671948 0.157807 0.0419667
0.0693089 0.157807 0.0216032
0.0714228 0.157807 0.00123964
0.0735368 0.157807 -0.0191238
0.0756508 0.157807 -0.0394873
0.0777647 0.157807 -0.0598509
0.0798787 0.157807 -0.0802144
0.0819927 0.157807 -0.100578
0.0841067 0.157807 -0.120941
0.0862207 0.157807 -0.141305
0.0879118 0.157807 -0.157596
0.0900259 0.157807 -0.177959
0.0921398 0.157807 -0.198323
0.0942538 0.157807 -0.218686
0.0963677 0.157807 -0.23905
0.0984817 0.157807 -0.259413
0.100596 0.157807 -0.279777
0.10271 0.157807 -0.30014
0.104824 0.157807 -0.320504
0.106938 0.157807 -0.340868
0.109052 0.157807 -0.361231
0.110754 0.157805 -0.377517
0.11291 0.157799 -0.39786
0.115013 0.157801 -0.418228
0.0578494 0.157808 0.417278
0.0599402 0.157804 0.397423
0.0665325 0.157804 0.33391
0.068593 0.157804 0.314063
0.0706534 0.157804 0.294215
0.0727139 0.157804 0.274367
0.0747743 0.157804 0.25452
0.0768347 0.157804 0.234672
0.0788951 0.157804 0.214824
0.0809555 0.157804 0.194977
0.0838401 0.157804 0.16719
0.0859005 0.157804 0.147342
0.0879611 0.157804 0.127495
0.0904336 0.157804 0.103677
0.092494 0.157804 0.0838298
0.0945544 0.157804 0.0639821
0.0966148 0.157804 0.0441345
0.0986753 0.157804 0.0242868
0.100736 0.157804 0.0044391
0.102796 0.157804 -0.0154085
0.104856 0.157804 -0.0352562
0.106917 0.157804 -0.0551039
0.109801 0.157804 -0.0828906
0.111862 0.157804 -0.102738
0.113922 0.157804 -0.122586
0.116395 0.157804 -0.146403
0.118455 0.157804 -0.166251
0.120516 0.157804 -0.186099
0.122576 0.157804 -0.205946
0.124637 0.157804 -0.225794
0.126697 0.157804 -0.245641
0.128757 0.157804 -0.265489
0.130818 0.157804 -0.285337
0.132878 0.157804 -0.305185
0.134939 0.157804 -0.325032
0.137823 0.157804 -0.352819
0.139884 0.157804 -0.372667
0.141955 0.157802 -0.392509
0.144446 0.1578 -0.416317
0.0859536 0.157808 0.417867
0.0875841 0.157805 0.402375
0.0900199 0.157801 0.37914
0.0920302 0.157801 0.359783
0.0940405 0.157801 0.340425
0.0960507 0.157801 0.321068
0.0980608 0.157801 0.301711
0.100071 0.157801 0.282353
0.102484 0.157801 0.259125
0.104494 0.157801 0.239767
0.106504 0.157801 0.22041
0.108514 0.1578 0.201053
0.110525 0.1578 0.181696
0.112535 0.1578 0.162339
0.114947 0.1578 0.13911
0.116957 0.1578 0.119753
0.118968 0.1578 0.100396
0.120978 0.1578 0.0810388
0.122988 0.1578 0.0616818
0.124991 0.157801 0.0423243
0.127396 0.157802 0.019095
0.129404 0.157802 -0.000262439
0.131413 0.157802 -0.0196198
0.133423 0.157802 -0.0389771
0.135432 0.157802 -0.0583344
0.137442 0.157802 -0.0776917
0.139853 0.157802 -0.10092
0.141863 0.157802 -0.120278
0.143872 0.157802 -0.139635
0.145882 0.157802 -0.158992
0.147892 0.157802 -0.17835
0.149901 0.157802 -0.197707
0.152312 0.157802 -0.220936
0.154322 0.157802 -0.240293
0.156331 0.157802 -0.25965
0.158341 0.157802 -0.279008
0.160351 0.157802 -0.298365
0.16236 0.157802 -0.317723
0.164771 0.157802 -0.340951
0.166781 0.157802 -0.360309
0.16879 0.157802 -0.379666
0.1708 0.157802 -0.399023
0.172826 0.157799 -0.418372
0.112703 0.157808 0.418427
0.114696 0.157803 0.399528
0.116662 0.157803 0.380636
0.118624 0.157802 0.361745
0.120978 0.157802 0.339076
0.12294 0.157802 0.320184
0.124902 0.157802 0.301293
0.126864 0.157802 0.282402
0.129218 0.157802 0.259733
0.13118 0.157802 0.240842
0.133142 0.157802 0.221951
0.135496 0.157802 0.199282
0.137457 0.157802 0.180391
0.139419 0.157801 0.1615
0.141773 0.157801 0.138831
0.143735 0.157801 0.119941
0.145697 0.157801 0.10105
0.147659 0.157801 0.082159
0.150013 0.157801 0.0594902
0.151975 0.157801 0.0405995
0.153936 0.157801 0.0217088
0.156291 0.157801 -0.000960007
0.158252 0.1578 -0.0198507
0.160214 0.1578 -0.0387413
0.162176 0.1578 -0.0576318
0.16453 0.1578 -0.0803004
0.166492 0.1578 -0.099191
0.168454 0.1578 -0.118082
0.170808 0.1578 -0.14075
0.172769 0.1578 -0.159641
0.174731 0.1578 -0.178531
0.177085 0.157799 -0.201199
0.179047 0.157799 -0.22009
0.181009 0.157799 -0.23898
0.182971 0.157799 -0.257871
0.185325 0.157799 -0.280539
0.187283 0.157799 -0.29943
0.189243 0.1578 -0.318321
0.191597 0.1578 -0.34099
0.193558 0.1578 -0.359881
0.195519 0.1578 -0.378771
0.19748 0.1578 -0.397662
0.199837 0.157799 -0.420329
0.138194 0.157808 0.418962
0.140135 0.157804 0.400508
0.142051 0.157804 0.382061
0.14435 0.157804 0.359925
0.146265 0.157803 0.341478
0.148564 0.157803 0.319342
0.15048 0.157803 0.300896
0.152396 0.157803 0.282449
0.154694 0.157803 0.260313
0.15661 0.157803 0.241866
0.158909 0.157803 0.219731
0.160824 0.157803 0.201284
0.163123 0.157803 0.179148
0.165039 0.157803 0.160702
0.166954 0.157802 0.142255
0.169253 0.157802 0.120119
0.171169 0.157802 0.101673
0.173468 0.157802 0.0795373
0.175383 0.157802 0.0610909
0.177682 0.157802 0.0389553
0.179598 0.157802 0.0205089
0.181513 0.157802 0.00206265
0.183812 0.157802 -0.0200729
0.185728 0.157801 -0.0385192
0.188026 0.157801 -0.0606547
0.189942 0.157801 -0.0791009
0.191857 0.157801 -0.097547
0.194156 0.157801 -0.119682
0.196072 0.157801 -0.138128
0.19837 0.157801 -0.160264
0.200286 0.157801 -0.17871
0.202585 0.157801 -0.200845
0.2045 0.1578 -0.219291
0.206416 0.1578 -0.237737
0.208715 0.1578 -0.259872
0.209626 0.157956 -0.278719
0.209632 0.158253 -0.297981
0.20964 0.15861 -0.321192
0.209646 0.158909 -0.340614
0.209652 0.15921 -0.36011
0.162513 0.157807 0.419471
0.164401 0.157805 0.401444
0.166647 0.157805 0.379816
0.168519 0.157805 0.361794
0.170765 0.157805 0.340166
0.172636 0.157804 0.322143
0.174882 0.157804 0.300516
0.176754 0.157804 0.282493
0.179 0.157804 0.260866
0.181246 0.157804 0.239239
0.183117 0.157804 0.221216
0.185363 0.157804 0.199589
0.187235 0.157804 0.181567
0.189481 0.157804 0.15994
0.191352 0.157804 0.141917
0.193598 0.157803 0.12029
0.19547 0.157803 0.102267
0.197716 0.157803 0.0806405
0.199962 0.157803 0.0590135
0.201833 0.157803 0.0409911
0.204079 0.157803 0.0193642
0.205951 0.157803 0.00134189
0.208197 0.157803 -0.0202849
0.209549 0.157883 -0.0383919
0.209556 0.158231 -0.0604429
0.209562 0.158522 -0.0788931
0.209569 0.158872 -0.101123
0.209575 0.159165 -0.119723
0.185739 0.157807 0.419958
0.187577 0.157806 0.402338
0.189772 0.157806 0.381196
0.191968 0.157806 0.360055
0.193797 0.157806 0.342437
0.195993 0.157805 0.321295
0.198188 0.157805 0.300154
0.200384 0.157805 0.279012
0.202213 0.157805 0.261395
0.204409 0.157805 0.240253
0.206604 0.157805 0.219112
0.208434 0.157805 0.201494
0.209478 0.157983 0.180413
0.209485 0.158323 0.159316
0.209491 0.158608 0.141666
0.209498 0.158951 0.120401
0.208303 0.157807 0.416977
0.209409 0.157968 0.396575
0.209415 0.158301 0.3764
0.209422 0.158635 0.35614
0.209428 0.158971 0.335794
