ply
format ascii 1.0
comment Created by Open3D
element vertex 864
property double x
property double y
property double z
end_header
0.163162 -0.322826 0.208663
0.179434 -0.321622 0.198716
0.173931 -0.301107 0.208869
0.173931 -0.282371 0.208869
-0.155263 -0.357183 0.210592
-0.145391 -0.34144 0.197267
0.173931 -0.260959 0.208869
0.174542 -0.358537 -0.191595
-0.145391 -0.32085 0.197267
0.166733 -0.344954 -0.190844
0.173931 -0.242224 0.208869
0.192186 -0.235168 0.222448
0.192467 -0.234774 0.20207
-0.145391 -0.300261 0.197267
0.153825 -0.234972 0.22248
0.192498 -0.234494 0.180485
0.124337 -0.235296 0.22257
0.174542 -0.320994 -0.191595
-0.145955 -0.284888 0.205059
0.0933489 -0.235635 0.222664
0.179883 -0.217224 0.219999
0.0648132 -0.235264 0.222657
0.174542 -0.302223 -0.191595
0.0306785 -0.23562 0.222759
0.121944 -0.216989 0.220057
-0.155263 -0.264897 0.210592
-0.000836432 -0.23523 0.222754
0.164847 -0.206954 0.218787
0.192467 -0.205593 0.202071
0.192513 -0.211952 0.171587
-0.0194679 -0.235414 0.222808
0.0907548 -0.216862 0.220088
-0.0386232 -0.235603 0.222863
0.070537 -0.217464 0.220202
0.191595 -0.197265 0.217657
0.166733 -0.284635 -0.190844
0.0538074 -0.217405 0.22022
-0.144897 -0.251251 0.201739
-0.0736089 -0.235191 0.222861
0.192467 -0.194982 0.20207
0.19255 -0.205552 0.148636
-0.0943305 -0.235385 0.222919
0.0189932 -0.217283 0.220257
-0.115667 -0.235585 0.222979
0.000871301 -0.217219 0.220276
0.127343 -0.197209 0.217751
-0.0177537 -0.217153 0.220296
0.108239 -0.197492 0.217812
0.173583 -0.187264 0.216685
0.192581 -0.20079 0.129515
-0.15473 -0.235148 0.22298
-0.0369028 -0.217086 0.220316
0.0924587 -0.197179 0.217802
0.192512 -0.190073 0.171586
0.174542 -0.260925 -0.191595
-0.177914 -0.235353 0.223043
-0.0565987 -0.217016 0.220337
0.0722376 -0.197469 0.217866
-0.076865 -0.216945 0.220359
0.186661 -0.177454 0.215809
0.192613 -0.195849 0.109677
-0.0977269 -0.216872 0.220381
0.03408 -0.197445 0.217922
0.19255 -0.185976 0.148635
-0.119211 -0.216796 0.220404
0.151505 -0.177407 0.215859
-0.146828 -0.217499 0.220544
-0.00643379 -0.197419 0.217982
0.133116 -0.177382 0.215885
0.192646 -0.19072 0.0890807
0.174542 -0.242154 -0.191595
-0.169811 -0.217431 0.22057
-0.025299 -0.197076 0.217973
0.0459258 -0.187014 0.216861
0.114154 -0.177357 0.215912
0.192581 -0.180853 0.129515
0.188275 -0.234462 -0.180136
-0.193515 -0.21736 0.220596
-0.0495289 -0.197392 0.218046
0.0945903 -0.17733 0.21594
0.16513 -0.167488 0.215044
0.192479 -0.167235 0.193548
0.192677 -0.188407 0.0676782
0.193092 -0.233985 -0.203278
-0.0696256 -0.197037 0.218037
0.0105951 -0.186054 0.216831
0.0743967 -0.177303 0.215968
0.192702 -0.188141 0.0510719
0.130513 -0.235114 -0.180047
0.19312 -0.233059 -0.220306
-0.0954602 -0.197363 0.218114
0.19252 -0.166193 0.167078
0.192613 -0.175539 0.109677
0.100071 -0.235458 -0.18
-0.116913 -0.196995 0.218106
0.0319933 -0.177246 0.216029
0.188836 -0.156368 0.214318
0.192542 -0.165651 0.153308
0.192737 -0.185693 0.0281491
0.0730908 -0.235198 -0.179959
0.151606 -0.224629 -0.18008
-0.144517 -0.197332 0.218187
0.192766 -0.185376 0.0103427
-0.167468 -0.196951 0.218179
-0.0133297 -0.177186 0.216093
0.142915 -0.157079 0.214433
0.192644 -0.170022 0.0890787
0.192794 -0.185049 -0.00802004
0.17379 -0.212469 -0.168991
0.187234 -0.209053 -0.158253
0.193081 -0.213971 -0.194913
-0.191138 -0.196558 0.218172
-0.0371819 -0.177153 0.216127
0.0483769 -0.166345 0.215153
0.120462 -0.157216 0.214476
0.192573 -0.16018 0.13436
0.192676 -0.17032 0.0676768
0.192719 -0.174571 0.0397241
0.192832 -0.185692 -0.0334157
0.192852 -0.187686 -0.0465231
0.121926 -0.217097 -0.180034
0.15227 -0.210654 -0.163243
0.176256 -0.204195 -0.140996
0.192966 -0.199461 -0.123958
-0.0618846 -0.17712 0.216162
0.0971588 -0.157359 0.21452
0.192505 -0.151117 0.176055
0.192881 -0.187381 -0.0667207
0.192911 -0.190499 -0.0875925
-0.151899 -0.184928 0.216985
-0.0874838 -0.177086 0.216199
0.0770245 -0.157009 0.21453
0.15693 -0.147241 0.213833
0.192605 -0.157393 0.114706
0.192784 -0.174487 -0.00183582
-0.114029 -0.17705 0.216237
-0.130591 -0.175724 0.216146
0.0260339 -0.157301 0.214626
0.192542 -0.146163 0.153308
0.192747 -0.164677 0.0222741
0.19304 -0.191905 -0.170426
-0.170178 -0.176974 0.216317
-0.00102347 -0.157457 0.214677
0.184631 -0.135967 0.213368
0.192636 -0.151557 0.0943004
0.192813 -0.167481 -0.0205842
0.192852 -0.171076 -0.0465221
0.192967 -0.181809 -0.123957
-0.193952 -0.176263 0.216292
-0.0939307 -0.164951 0.215285
-0.0244679 -0.157081 0.21469
0.0640391 -0.147048 0.213968
0.192668 -0.151495 0.0731038
0.192892 -0.171435 -0.0735995
0.192991 -0.180336 -0.139089
-0.0536508 -0.157237 0.214745
0.127144 -0.137119 0.213501
0.192573 -0.140335 0.13436
0.192701 -0.151431 0.0510704
0.192912 -0.169904 -0.0875899
0.193079 -0.184202 -0.194916
-0.0738879 -0.156289 0.214717
0.100161 -0.137308 0.21355
0.192505 -0.132057 0.176055
-0.110544 -0.157 0.214817
0.076054 -0.137069 0.213579
0.192604 -0.137177 0.114705
0.192813 -0.154473 -0.0205846
-0.177749 -0.160736 0.215153
-0.143539 -0.157165 0.214878
0.149017 -0.126556 0.213074
0.19304 -0.169973 -0.170426
-0.160751 -0.155569 0.214806
0.016061 -0.137472 0.213688
0.192542 -0.126674 0.153308
0.192784 -0.145673 -0.00183713
0.192852 -0.151145 -0.0465217
0.192967 -0.160628 -0.123957
0.192991 -0.162481 -0.139089
-0.0114321 -0.137219 0.213721
0.187665 -0.117236 0.2129
0.192634 -0.130958 0.0942987
0.192684 -0.134802 0.0621943
0.192893 -0.151066 -0.073598
0.192934 -0.154455 -0.101892
-0.0449508 -0.137434 0.21378
0.0590804 -0.12724 0.213238
0.170356 -0.116306 0.212916
0.192737 -0.135759 0.0281486
-0.155829 -0.144904 0.214227
-0.0750431 -0.137169 0.213817
-0.0649187 -0.136199 0.213765
0.0376872 -0.126375 0.213246
0.130438 -0.117469 0.212991
0.192573 -0.120489 0.13436
0.192765 -0.134675 0.0103411
-0.190943 -0.144792 0.214277
-0.111806 -0.137392 0.213882
0.103589 -0.117227 0.213029
0.192812 -0.13496 -0.0205855
0.19304 -0.151697 -0.170426
0.193079 -0.154432 -0.194916
-0.144883 -0.137113 0.213922
0.0796128 -0.1166 0.213058
0.192505 -0.110275 0.176055
0.192603 -0.116962 0.114704
0.152436 -0.107225 0.212832
0.192852 -0.131214 -0.0465217
0.192967 -0.139446 -0.123957
0.192991 -0.141055 -0.139089
0.00642639 -0.117216 0.213178
0.192542 -0.107186 0.153308
0.192893 -0.130697 -0.0735971
0.192914 -0.132147 -0.087586
-0.0310093 -0.117347 0.213238
-0.0120576 -0.115741 0.213188
0.192634 -0.110358 0.0942976
0.192667 -0.112497 0.073103
0.192719 -0.115866 0.0397232
-0.156827 -0.124598 0.213527
-0.0705875 -0.117486 0.213301
-0.0505442 -0.115833 0.213249
0.0545849 -0.107162 0.212981
0.173815 -0.0973094 0.212861
0.192462 -0.0964143 0.206278
0.192746 -0.11449 0.022272
0.193053 -0.134212 -0.178493
-0.107131 -0.117202 0.213355
-0.086053 -0.115512 0.2133
0.0330517 -0.105957 0.212999
0.192479 -0.0949892 0.193548
0.192573 -0.100644 0.13436
-0.180173 -0.119599 0.213499
-0.13999 -0.116467 0.213397
0.103531 -0.0974635 0.212969
0.115191 -0.0965524 0.212962
0.19252 -0.0947713 0.167078
0.192967 -0.121795 -0.123957
0.0672283 -0.0973898 0.213027
0.192602 -0.0967465 0.114702
0.192701 -0.102484 0.0510693
0.192783 -0.107254 -0.00183892
0.192852 -0.111283 -0.0465228
0.192991 -0.119629 -0.139089
0.193093 -0.125416 -0.203276
0.192812 -0.105692 -0.0205868
0.192894 -0.110329 -0.0735968
0.192915 -0.111552 -0.0875851
-0.118129 -0.104794 0.213216
-0.0121019 -0.097229 0.21315
0.0109246 -0.0955862 0.213136
0.145334 -0.0859974 0.213044
-0.168724 -0.104958 0.213295
-0.0605628 -0.0974867 0.213221
-0.0407514 -0.0961182 0.213208
0.192542 -0.0849136 0.153308
0.192634 -0.0897575 0.0942976
0.192666 -0.0914974 0.0731022
0.19304 -0.111488 -0.170426
0.193092 -0.114185 -0.203278
-0.0965699 -0.0966929 0.213286
-0.0757428 -0.0953014 0.213272
0.041961 -0.0874379 0.213187
0.0797155 -0.0849156 0.213159
0.191326 -0.0774485 0.213213
0.192782 -0.0944475 -0.00183946
-0.145669 -0.0965811 0.213362
0.174185 -0.075924 0.213297
0.192572 -0.0807989 0.134359
0.192969 -0.100613 -0.123954
0.192991 -0.101774 -0.139089
-0.192187 -0.096086 0.21344
0.107805 -0.0773941 0.213343
0.130781 -0.0759606 0.213362
0.192718 -0.0849682 0.0397218
0.192745 -0.0862598 0.0222709
0.192851 -0.0913514 -0.0465236
-0.0654009 -0.0849805 0.213385
0.0592669 -0.0774901 0.213415
0.192505 -0.0721551 0.176055
0.192601 -0.0765309 0.114701
0.192811 -0.0861798 -0.0205877
0.192893 -0.0899605 -0.0735978
0.192915 -0.0909581 -0.0875851
0.0113329 -0.0773309 0.213496
0.193079 -0.0948918 -0.194916
-0.0451971 -0.077432 0.21358
-0.0257851 -0.0763534 0.21359
-0.00690651 -0.0753044 0.213599
0.145907 -0.0668129 0.213681
0.192633 -0.0721004 0.0942969
0.19304 -0.0895559 -0.170426
-0.179963 -0.0814459 0.213642
-0.10136 -0.0772571 0.213674
0.192666 -0.0704981 0.0731014
0.192763 -0.0744676 0.0103384
-0.162228 -0.0770676 0.213776
-0.13945 -0.0759054 0.213784
-0.117348 -0.0747778 0.213791
0.0295836 -0.0672814 0.213842
0.192601 -0.064979 0.114701
0.19297 -0.0794308 -0.123952
0.192992 -0.0803475 -0.139088
0.171357 -0.0573681 0.214085
0.188665 -0.0565232 0.214111
0.192556 -0.0604005 0.143919
0.192851 -0.0714203 -0.0465246
0.192936 -0.0746238 -0.101887
-0.0495508 -0.0649664 0.21405
0.112486 -0.0574305 0.214172
0.127788 -0.0567184 0.214193
0.19248 -0.0548528 0.19355
0.192791 -0.0659743 -0.00802511
0.19283 -0.0673753 -0.033419
0.192892 -0.0695922 -0.0735987
0.0474276 -0.0574995 0.214267
0.0726796 -0.0563818 0.214298
0.0929852 -0.055483 0.214323
0.1927 -0.0596548 0.0510675
0.19304 -0.0712792 -0.170426
-0.190931 -0.0645449 0.214284
-0.0200811 -0.0573761 0.214379
-0.00134552 -0.0565895 0.214399
-0.100267 -0.0574497 0.214497
-0.0792883 -0.0566166 0.214517
0.150496 -0.047492 0.21473
0.192633 -0.0515003 0.0942961
0.192665 -0.0524986 0.0731007
0.192735 -0.0546159 0.0281451
0.19297 -0.0617795 -0.123951
0.192993 -0.0624923 -0.139086
0.193077 -0.0651222 -0.194921
-0.166768 -0.0566472 0.214649
-0.143836 -0.0557887 0.214667
-0.116129 -0.0547516 0.214689
0.19252 -0.0453254 0.167078
0.19283 -0.054229 -0.0334196
0.0175177 -0.0467257 0.214982
0.0692871 -0.0449055 0.215015
0.192601 -0.0447634 0.1147
0.19285 -0.0514891 -0.0465256
-0.0144393 -0.0447547 0.215154
0.192556 -0.0407352 0.143918
0.192762 -0.0459482 0.0103371
0.192791 -0.0466648 -0.00802594
0.192892 -0.0492238 -0.0735998
0.192914 -0.0497696 -0.0875871
0.193079 -0.0539581 -0.194916
-0.10451 -0.0444185 0.215313
0.125175 -0.0373856 0.215441
0.165515 -0.0361496 0.215487
0.192462 -0.03566 0.206279
0.192699 -0.0412995 0.0510666
0.19304 -0.0493471 -0.170426
0.0358985 -0.0371404 0.2156
0.0862851 -0.0357112 0.215648
0.106153 -0.0351477 0.215667
-0.0776598 -0.0371237 0.215777
-0.0573304 -0.0365934 0.215792
-0.0327212 -0.0359513 0.21581
0.0139943 -0.0347326 0.215845
0.192505 -0.0313126 0.176055
0.192969 -0.040598 -0.123952
0.192993 -0.0410664 -0.139085
-0.188382 -0.0365244 0.216
-0.170626 -0.0361016 0.216009
-0.14758 -0.0355527 0.216022
-0.11974 -0.0348897 0.216037
0.192632 -0.0309002 0.0942954
0.192665 -0.0314992 0.0730997
0.192829 -0.0345094 -0.0334206
0.148371 -0.0257839 0.216419
0.190584 -0.0248746 0.216433
0.19285 -0.0315579 -0.0465266
0.192892 -0.0322501 -0.0736005
0.193053 -0.034932 -0.178493
0.0499746 -0.0249604 0.216644
0.192734 -0.0265278 0.0281439
0.192762 -0.0269352 0.0103362
0.19279 -0.0273552 -0.00802684
0.192913 -0.0291753 -0.0875881
-0.102372 -0.0246083 0.21691
0.192555 -0.02107 0.143917
0.170461 -0.0173038 0.217127
0.192699 -0.019885 0.0510657
0.193092 -0.0243344 -0.203279
-0.0552296 -0.0174502 0.217463
-0.0355544 -0.017205 0.217458
-0.0164223 -0.0169665 0.217455
0.0335568 -0.0163436 0.217447
0.0759105 -0.0158157 0.217441
0.0960776 -0.0155643 0.217438
0.115614 -0.0153208 0.217435
0.145631 -0.0149467 0.21743
0.192492 -0.014845 0.184878
0.192585 -0.015737 0.124619
0.192969 -0.0194165 -0.123953
0.192992 -0.0196405 -0.139086
-0.191585 -0.0156633 0.217873
-0.167928 -0.0154221 0.217863
-0.150657 -0.015246 0.217856
-0.117273 -0.0149057 0.217843
-0.0750114 -0.0144748 0.217825
0.19278 -0.0144073 -0.00184309
0.192809 -0.0146344 -0.020591
0.192632 -0.0103001 0.0942945
0.192664 -0.0104997 0.0730989
0.192849 -0.0116266 -0.0465274
0.192891 -0.0118816 -0.0736015
0.192913 -0.0120134 -0.087589
0.192467 -0.00663205 0.20207
0.19304 -0.00913835 -0.170425
-0.0996585 -0.00490425 0.218938
-0.0584316 -0.00476428 0.21889
-0.0386881 -0.00469724 0.218867
-0.0194926 -0.00463207 0.218844
-0.000822484 -0.00456868 0.218822
0.192716 -0.00463466 0.0397184
0.192743 -0.00470511 0.0222672
0.192555 -0.00140468 0.143917
0.192968 -0.00176515 -0.123954
0.192992 -0.00178551 -0.139087
0.208596 0.00133263 0.183894
0.225684 0.0013241 0.175853
0.225713 0.00134892 0.157406
0.225735 0.00136816 0.14311
0.225766 0.00139468 0.123403
0.225798 0.00142224 0.102917
0.225831 0.00145092 0.0816047
0.225866 0.00148078 0.0594151
0.225893 0.001504 0.0421641
0.22593 0.00153611 0.0183034
0.225959 0.0015611 -0.00027144
0.226 0.00159572 -0.0259992
0.226031 0.00162271 -0.0460567
0.226063 0.00165063 -0.0668042
0.226097 0.00167953 -0.0882782
0.226144 0.00171967 -0.118108
0.226193 0.00176178 -0.149398
0.226218 0.00178361 -0.165625
-0.194001 0.00521958 0.220274
-0.170362 0.00513954 0.220194
-0.147393 0.00506163 0.220147
0.0184898 0.004499 0.219813
0.0404596 0.00442448 0.219768
0.0575193 0.00436662 0.219734
0.0782272 0.00429637 0.219694
0.0982795 0.00422835 0.219656
0.117707 0.00416245 0.219618
0.169016 0.00398841 0.219519
0.189716 0.00391819 0.219479
-0.13424 0.0150344 0.221496
-0.0807473 0.0144907 0.221338
0.119156 0.0152219 0.22113
0.137914 0.014989 0.221069
0.192467 0.0145905 0.20207
0.226 0.0175529 -0.0259992
0.226031 0.0178498 -0.0460567
0.226063 0.0181569 -0.0668042
0.226097 0.0184747 -0.0882782
0.226144 0.0189163 -0.118108
0.226193 0.0193794 -0.149398
0.226218 0.0196196 -0.165625
0.225713 0.0175359 0.157406
0.225735 0.0177859 0.14311
0.225766 0.0181307 0.123403
0.225798 0.0184891 0.102917
0.225831 0.0188619 0.0816047
0.225866 0.0192501 0.0594151
0.225893 0.0195518 0.0421641
0.22593 0.0199692 0.0183034
0.225959 0.0202942 -0.00027144
-0.177923 0.0257688 0.223038
-0.160496 0.0254739 0.22297
-0.11053 0.0246284 0.222777
-0.058763 0.0237525 0.222577
-0.0390729 0.0234193 0.2225
-0.0199277 0.0230953 0.222426
-0.00130481 0.0227802 0.222354
0.198543 0.0201599 0.18391
0.21848 0.0198216 0.183879
0.0217327 0.0253664 0.222674
0.0392368 0.0250308 0.222601
0.0604766 0.0246236 0.222513
0.0810362 0.0242295 0.222427
0.100948 0.0238478 0.222344
0.160652 0.0227032 0.222094
0.178459 0.0249834 0.22238
-0.141201 0.0351612 0.224493
-0.0873666 0.0338881 0.224204
0.226231 0.0376892 -0.17389
-0.027092 0.0355391 0.224378
-0.0129616 0.0351733 0.224297
0.226042 0.0375338 -0.052894
0.226063 0.0379643 -0.0668042
0.226097 0.0386289 -0.0882782
0.226144 0.0395522 -0.118108
0.226193 0.0405206 -0.149398
0.0948272 0.0351834 0.224133
0.144148 0.0337961 0.223832
0.225893 0.0375997 0.0421641
0.22593 0.0384024 0.0183034
0.225959 0.0390273 -0.00027144
0.226 0.0398928 -0.0259992
-0.161123 0.0457439 0.226498
-0.122109 0.0445606 0.22621
-0.0697519 0.0429725 0.225824
0.225766 0.037656 0.123403
0.225798 0.0384004 0.102917
0.225831 0.0391747 0.0816047
0.225866 0.0399809 0.0594151
0.192944 0.0499497 -0.186908
0.193118 0.0511596 -0.22031
-0.0490867 0.0454591 0.226271
0.198543 0.0389758 0.18391
0.21848 0.0383217 0.183879
0.225713 0.0391185 0.157406
0.225735 0.0396763 0.14311
0.168093 0.0545155 -0.188165
-0.194004 0.0536037 0.228228
0.0515933 0.0450666 0.226041
0.0682443 0.0444874 0.225903
0.108057 0.0431023 0.225575
-0.0955212 0.0676757 -0.191493
0.17864 0.0434445 0.158018
0.133882 0.0595343 -0.189535
0.146665 0.0590807 -0.189426
-0.141135 0.0550737 0.228476
-0.0979944 0.0534792 0.228052
0.127542 0.0451383 0.225937
0.160256 0.0439275 0.225654
0.177683 0.0432824 0.225503
0.192448 0.0432158 0.214582
-0.0745214 0.0713037 -0.192554
-0.0530446 0.0704917 -0.192357
-0.0320514 0.0696979 -0.192164
-0.0115256 0.0689219 -0.191975
0.00854796 0.068163 -0.19179
0.0281844 0.0674206 -0.19161
0.0521367 0.066515 -0.19139
0.0708399 0.0658078 -0.191218
0.0891497 0.0651156 -0.191049
0.111502 0.0642705 -0.190844
0.166439 0.0660138 -0.191423
0.0102382 0.0554098 0.228317
0.0279097 0.0546783 0.228126
0.186334 0.0689956 -0.1923
0.193117 0.0701077 -0.220312
-0.121432 0.0641041 0.23061
-0.105052 0.0858314 -0.196627
0.109594 0.0762182 -0.194229
-0.0785089 0.0653828 0.230868
-0.0294987 0.0631412 0.230222
0.147992 0.055016 0.228015
0.192485 0.0550912 0.189231
-0.0948529 0.0898224 -0.197774
-0.0728459 0.0887855 -0.197513
-0.0460413 0.0875225 -0.197196
0.130866 0.0791868 -0.195104
0.147994 0.0783798 -0.194902
-0.19219 0.0739685 0.233347
-0.168957 0.0728569 0.232993
-0.00991988 0.065238 0.230725
-0.0259984 0.0908719 -0.198176
-0.00552815 0.0898595 -0.197921
0.014491 0.0888694 -0.197671
0.0626603 0.0864872 -0.197069
0.0766115 0.0857972 -0.196895
-0.150633 0.0752708 0.233657
-0.0968297 0.0725787 0.232802
0.048113 0.065317 0.230656
0.0688284 0.0642785 0.230359
0.0888955 0.0632725 0.230072
0.167814 0.0851338 -0.196848
-0.0553631 0.0735816 0.233026
0.109023 0.0649868 0.230478
0.032553 0.0963097 -0.199808
0.187753 0.0879072 -0.197666
0.193117 0.0890558 -0.220313
0.193151 0.0901582 -0.23775
-0.0255633 0.0750334 0.233396
0.167898 0.0644969 0.230262
0.18834 0.0633826 0.229947
0.192454 0.0644417 0.210446
-0.115758 0.108864 -0.203141
-0.0931993 0.10759 -0.202814
0.115271 0.0958137 -0.199796
-0.13005 0.0839425 0.2362
0.0250353 0.075174 0.233359
-0.0721034 0.110827 -0.203764
-0.0505328 0.109558 -0.203437
-0.0294508 0.108317 -0.203118
0.136488 0.0985538 -0.200606
-0.102161 0.0855261 0.236662
0.0760098 0.075068 0.23325
-0.00967431 0.111443 -0.204035
0.0105132 0.110207 -0.203716
0.0731388 0.106375 -0.202726
0.0869772 0.105528 -0.202507
-0.188652 0.0939315 0.239539
-0.165754 0.092543 0.239016
0.134207 0.0742962 0.232939
0.156642 0.105169 -0.202513
-0.152918 0.0950139 0.239863
0.00156933 0.085298 0.23643
-0.125626 0.127684 -0.208462
-0.108431 0.12655 -0.208167
0.0480982 0.116233 -0.205483
0.193116 0.108004 -0.220314
0.193147 0.109342 -0.237758
-0.0827391 0.0937005 0.239294
0.050063 0.0850604 0.236279
-0.0869442 0.129626 -0.209072
-0.0649669 0.128125 -0.208681
0.107626 0.116341 -0.205606
0.184583 0.111086 -0.204235
-0.0566508 0.095038 0.239723
0.0989947 0.0845798 0.23605
-0.0443884 0.131118 -0.209561
-0.0233636 0.129633 -0.209173
-0.00280988 0.128181 -0.208793
0.0222437 0.126411 -0.208329
0.12911 0.11886 -0.206354
-0.126384 0.102889 0.242596
0.147885 0.0838874 0.235754
0.192448 0.082503 0.214582
0.0789484 0.126517 -0.208447
-0.114173 0.10518 0.24346
0.0235142 0.0953655 0.239713
0.169547 0.0849287 0.236052
0.189745 0.0834839 0.235561
-0.118233 0.145503 -0.213527
0.149509 0.125315 -0.208216
-0.189186 0.1138 0.246914
-0.172118 0.112552 0.246387
-0.076953 0.105581 0.243557
-0.043053 0.103098 0.242549
0.0662684 0.0950688 0.239543
-0.102117 0.148845 -0.214499
0.0539865 0.136702 -0.211297
0.170035 0.127676 -0.208917
0.193131 0.127733 -0.228983
-0.0230208 0.10456 0.243081
0.102507 0.0950778 0.23949
0.12494 0.0933822 0.23886
-0.138449 0.156396 -0.217372
-0.0806826 0.15169 -0.215339
-0.0587643 0.149932 -0.214875
-0.0373482 0.148216 -0.214421
0.190092 0.129982 -0.209602
0.193173 0.134023 -0.255654
-0.0224664 0.151403 -0.215348
-0.00185293 0.149701 -0.214898
0.112712 0.140243 -0.212392
0.126023 0.139144 -0.212102
0.0893763 0.146289 -0.214071
-0.153268 0.123912 0.251101
-0.0467228 0.115241 0.247297
-0.157507 0.174032 -0.241283
-0.10831 0.168711 -0.230015
0.0262365 0.155996 -0.21736
0.0653524 0.152514 -0.215799
0.14657 0.14542 -0.213913
0.193173 0.145677 -0.255652
-0.129867 0.125122 0.251613
-0.00407815 0.114626 0.246974
0.135672 0.102925 0.24221
-0.115502 0.175605 -0.247044
-0.0911636 0.172437 -0.236981
-0.0715175 0.170267 -0.232596
-0.0472583 0.167736 -0.228605
0.193144 0.147708 -0.237765
-0.193589 0.133655 0.255576
-0.0920789 0.125 0.251499
0.0233459 0.11513 0.247143
0.0359884 0.114048 0.24667
0.164563 0.103013 0.242199
0.192437 0.102588 0.22275
-0.0660707 0.175821 -0.247799
-0.0241782 0.170502 -0.233065
0.00440621 0.167435 -0.228297
0.0466945 0.163112 -0.223259
0.175053 0.150792 -0.215481
-0.168921 0.134723 0.256046
0.175552 0.104549 0.242773
-0.0189676 0.176026 -0.248518
0.0150114 0.17144 -0.235079
0.116872 0.160547 -0.220944
-0.113688 0.132955 0.255136
-0.0312606 0.125589 0.251672
0.0826779 0.115377 0.247155
0.0466886 0.173143 -0.239099
0.0752661 0.175453 -0.246876
0.0996625 0.171869 -0.236104
0.143883 0.166619 -0.227455
0.193174 0.1651 -0.255651
-0.178645 0.145063 0.261149
-0.15141 0.142531 0.25984
-0.0654131 0.134526 0.255792
0.0613911 0.122674 0.250243
0.115932 0.175653 -0.247571
0.158678 0.169598 -0.231868
0.181432 0.166884 -0.227855
0.154857 0.175845 -0.248235
-0.120884 0.145742 0.261419
-0.00705105 0.134693 0.255784
0.0986439 0.124389 0.250927
0.118265 0.125022 0.251184
0.139734 0.122881 0.250209
-0.0487806 0.144484 0.260647
0.158036 0.123523 0.250449
0.192431 0.122849 0.226782
0.192448 0.124409 0.214582
-0.0993982 0.152527 0.264956
0.179069 0.1238 0.250536
-0.192619 0.165802 0.267425
-0.0778717 0.153213 0.265284
0.00795621 0.144231 0.26043
-0.162815 0.165744 0.267392
-0.144741 0.163611 0.267865
0.0304713 0.14455 0.260561
-0.0413816 0.155026 0.266138
-0.0189387 0.152583 0.264862
0.0482228 0.14529 0.260924
0.0679537 0.143142 0.259805
-0.10667 0.165636 0.267331
0.0884293 0.143467 0.259933
-0.0641437 0.163574 0.267749
-0.206126 0.19114 0.220297
-0.193998 0.189645 0.220276
0.0284837 0.155415 0.26621
0.137903 0.142874 0.259568
0.192448 0.142743 0.214582
-0.187154 0.1946 0.204651
-0.0887263 0.173743 0.261317
0.159486 0.142791 0.259494
0.192423 0.142943 0.230778
-0.187429 0.20134 0.183645
-0.0713577 0.175019 0.258891
-0.00648695 0.165443 0.267223
0.180282 0.142712 0.259424
0.109748 0.15354 0.265167
-0.187639 0.205236 0.204318
-0.187905 0.212666 0.157414
-0.187981 0.214786 0.144027
-0.206128 0.208676 0.220296
-0.188311 0.222949 0.116298
0.0725837 0.16351 0.267554
-0.193997 0.210523 0.220276
-0.188597 0.229861 0.0971233
0.092726 0.163501 0.267525
-0.188891 0.236969 0.0774052
0.049158 0.173238 0.261726
-0.188442 0.223702 0.178675
-0.189193 0.244282 0.0571205
0.134809 0.162948 0.267503
-0.1888 0.232602 0.147883
-0.189504 0.251808 0.0362445
-0.189639 0.255476 0.0149196
0.145598 0.164034 0.267319
0.192419 0.162869 0.234745
-0.188663 0.227994 0.195354
-0.189086 0.239489 0.129575
-0.189966 0.263394 -0.00721163
0.110732 0.172562 0.262442
0.192395 0.162737 0.250282
-0.212267 0.230629 0.220305
-0.188692 0.227925 0.215792
-0.189443 0.248259 0.101227
-0.190341 0.272576 -0.0357814
0.173597 0.165095 0.267027
-0.189131 0.238979 0.173902
-0.189848 0.258307 0.066652
-0.19069 0.281036 -0.0594723
-0.190609 0.277884 -0.0189783
-0.191009 0.288641 -0.0777794
0.151209 0.175148 0.258304
-0.191958 0.314182 -0.217391
-0.189837 0.25627 0.119758
-0.190349 0.269986 0.0458866
-0.190458 0.272907 0.0301533
-0.190959 0.286333 -0.0421529
-0.191379 0.297594 -0.102804
-0.191467 0.299954 -0.115511
-0.190212 0.265459 0.0909845
-0.190794 0.281006 0.00846708
-0.191853 0.30931 -0.141765
-0.192238 0.319612 -0.196443
-0.212268 0.248234 0.220304
-0.189613 0.248692 0.19884
-0.189858 0.255212 0.164728
-0.191473 0.298213 -0.0602497
-0.192203 0.317677 -0.162083
-0.192351 0.321613 -0.182675
-0.189627 0.248302 0.219182
-0.190188 0.263196 0.142355
-0.192822 0.333136 -0.218407
-0.190064 0.259157 0.181769
-0.190889 0.280979 0.0707711
-0.19152 0.29769 -0.0142303
-0.192278 0.31777 -0.11637
-0.190702 0.275255 0.119079
-0.191222 0.28897 0.050271
-0.19138 0.293144 0.0293337
-0.191883 0.30642 -0.0372708
-0.192338 0.318438 -0.0975639
-0.193092 0.338344 -0.197426
-0.19173 0.301552 0.00761163
-0.192349 0.317858 -0.073087
-0.192834 0.330629 -0.136287
-0.193144 0.338796 -0.176705
-0.193249 0.340623 -0.163245
-0.212269 0.269361 0.220303
-0.190559 0.269306 0.202311
-0.191449 0.29262 0.0899723
-0.191934 0.305306 0.0288413
-0.193143 0.336959 -0.123679
-0.202654 0.357549 -0.215556
-0.19059 0.269443 0.218538
-0.190926 0.278199 0.176895
-0.191101 0.282794 0.155042
-0.191786 0.300672 0.0700167
-0.192471 0.318574 -0.0151243
-0.192132 0.308957 0.0494837
-0.19257 0.320371 -0.00410652
-0.192945 0.330129 -0.0499168
-0.193241 0.337846 -0.0861483
-0.193658 0.348716 -0.137177
-0.191551 0.293112 0.141322
-0.191821 0.300124 0.108819
-0.193289 0.338275 -0.0680206
-0.198792 0.355518 -0.123261
-0.218454 0.288106 0.220314
-0.200041 0.288205 0.220285
-0.191832 0.298376 0.167632
-0.192642 0.319283 0.0742732
-0.193376 0.338244 -0.0103934
-0.193574 0.343342 -0.033155
-0.192275 0.309138 0.136249
-0.193045 0.328986 0.0486948
-0.193183 0.332544 0.0329977
-0.193897 0.350233 -0.0450116
-0.1919 0.298876 0.197257
-0.192696 0.319326 0.108123
-0.192825 0.322637 0.0936897
-0.193747 0.345643 0.0111918
-0.192583 0.315153 0.158353
-0.218454 0.309317 0.220314
-0.19354 0.338989 0.0735234
-0.20004 0.309165 0.220285
-0.193133 0.327978 0.135594
-0.19396 0.349057 0.0479041
-0.197171 0.354096 0.0294783
-0.19276 0.317883 0.192499
-0.193482 0.336264 0.116898
-0.193757 0.343269 0.0880848
-0.200205 0.356224 0.0876959
-0.218454 0.330527 0.220314
-0.193635 0.337781 0.170652
-0.20004 0.330125 0.220285
-0.194119 0.349462 0.139376
-0.193706 0.338496 0.196007
-0.224687 0.349591 0.220326
-0.20004 0.347592 0.220286
