ply
format ascii 1.0
comment Created by Open3D
element vertex 609
property double x
property double y
property double z
end_header
-0.18214 -0.340458 -0.21081
-0.178501 -0.340461 -0.191225
-0.174862 -0.340464 -0.171639
-0.166883 -0.342171 -0.150869
-0.163233 -0.342171 -0.131182
-0.159583 -0.34217 -0.111495
-0.155934 -0.342169 -0.0918072
-0.111029 -0.340461 0.17256
-0.106884 -0.340458 0.194946
-0.0972815 -0.340461 0.20924
-0.163532 -0.340462 -0.186044
-0.161187 -0.340458 -0.212088
-0.14275 -0.344782 -0.170471
-0.120524 -0.353746 -0.170459
-0.0877167 -0.340459 0.184025
-0.0839877 -0.34046 0.204118
-0.0971185 -0.360068 -0.170443
-0.143353 -0.340461 -0.195456
-0.0808045 -0.360243 -0.170434
-0.066991 -0.34046 0.175473
-0.0615239 -0.340461 0.204935
-0.123203 -0.340459 -0.211371
-0.0519989 -0.34046 0.172514
-0.0551944 -0.360518 -0.170419
-0.0412174 -0.340458 0.187639
-0.037277 -0.340462 0.208824
-0.102158 -0.340462 -0.184806
-0.0973577 -0.34046 -0.203513
-0.0373109 -0.36071 -0.170408
-0.0276182 -0.34046 0.172496
-0.022471 -0.340461 0.200234
-0.0807968 -0.341203 -0.170437
-0.0816521 -0.340459 -0.210586
-0.0769846 -0.340463 -0.185471
-0.0187356 -0.36091 -0.170398
-0.0106015 -0.34046 0.172483
0.00285584 -0.340461 0.197833
-0.0623723 -0.34046 -0.201933
-0.05702 -0.340465 -0.173137
0.000572383 -0.361117 -0.170386
0.00765902 -0.340459 0.175669
0.0227615 -0.340464 0.208002
-0.044765 -0.34046 -0.205989
-0.0423402 -0.340462 -0.192941
-0.0372998 -0.340768 -0.170413
0.0206574 -0.361333 -0.170375
0.0254244 -0.340459 0.172455
0.0278429 -0.340459 0.185504
-0.024602 -0.340461 -0.200227
-0.0202728 -0.340464 -0.176939
0.0415673 -0.361558 -0.170363
0.0457445 -0.340458 0.179095
0.0494596 -0.340462 0.199059
-0.00488174 -0.340461 -0.201019
-0.000464499 -0.340465 -0.177258
0.0656334 -0.340458 0.179215
0.0694262 -0.340463 0.199584
0.0633584 -0.35812 -0.170352
0.0156558 -0.340461 -0.201844
0.0195208 -0.340464 -0.181056
0.0850626 -0.340458 0.172409
0.0882844 -0.340461 0.189735
0.0921562 -0.340466 0.210528
0.0860784 -0.358286 -0.170339
0.0357474 -0.34046 -0.209781
0.0390362 -0.340463 -0.19209
0.0429834 -0.340466 -0.170861
0.106625 -0.340458 0.172392
0.109918 -0.340462 0.190085
0.113213 -0.340466 0.207779
0.109793 -0.358459 -0.170325
0.0580515 -0.34046 -0.210831
0.0620837 -0.340463 -0.189143
0.0654444 -0.340466 -0.17107
0.12912 -0.340458 0.172375
0.132486 -0.340463 0.190451
0.135853 -0.340467 0.208527
0.134568 -0.358639 -0.170311
0.0813414 -0.34046 -0.211928
0.085463 -0.340463 -0.189761
0.0888983 -0.340466 -0.171288
0.147379 -0.358733 -0.170304
0.150303 -0.339735 0.172358
0.152647 -0.339186 0.194447
0.106386 -0.340461 -0.209296
0.109899 -0.340464 -0.190406
0.113412 -0.340466 -0.171516
0.164313 -0.334621 0.205776
0.126089 -0.340467 -0.171634
0.131871 -0.340461 -0.210408
0.135465 -0.340464 -0.191082
0.173902 -0.350821 -0.170294
0.170235 -0.330689 0.172343
0.150044 -0.339749 -0.171151
0.174534 -0.327108 0.191131
0.175305 -0.326309 0.20983
0.15359 -0.338911 -0.209821
0.155667 -0.338422 -0.189599
0.187616 -0.342618 -0.170285
0.173886 -0.330537 -0.170289
0.172918 -0.328387 -0.212361
0.185972 -0.312138 0.172331
0.186361 -0.311461 0.187534
0.17992 -0.320961 -0.189148
0.187626 -0.313898 -0.170288
0.192498 -0.296487 0.210398
0.186138 -0.31146 -0.212653
0.193947 -0.290931 0.172325
0.194072 -0.290231 0.187632
0.191473 -0.299304 -0.188607
0.192784 -0.294731 -0.171868
0.193445 -0.292338 -0.206504
0.195756 -0.27454 0.199101
0.195723 -0.271832 0.172323
0.216054 -0.283612 -0.170273
0.195483 -0.275512 -0.189896
0.195523 -0.272288 -0.211542
0.1951 -0.254921 0.199086
0.194979 -0.25211 0.172324
0.201665 -0.263642 -0.170278
0.194872 -0.254659 -0.1897
0.194735 -0.251327 -0.211273
0.21606 -0.254201 -0.170274
0.193194 -0.234621 0.210421
0.192892 -0.232137 0.172326
0.192832 -0.23154 0.187616
0.193263 -0.237122 -0.172015
0.192847 -0.233535 -0.189049
0.192444 -0.230089 -0.210493
0.19005 -0.214631 0.210317
0.191711 -0.224441 -0.171539
0.189526 -0.211994 0.172328
0.189429 -0.211442 0.187573
0.188674 -0.208659 -0.209209
0.185659 -0.194898 0.19887
0.187758 -0.203813 -0.191698
0.184783 -0.191732 0.172332
0.187621 -0.194903 -0.170286
0.184518 -0.191549 -0.212095
0.183669 -0.183168 0.0639853
0.183546 -0.182796 0.0757907
0.183343 -0.182179 0.0953599
0.183061 -0.181322 0.122536
0.182821 -0.180594 0.145627
0.18357 -0.183093 -0.0687988
0.183404 -0.182587 -0.0523635
0.183197 -0.181958 -0.0319468
0.182991 -0.181333 -0.0116704
0.182787 -0.180712 0.00846738
0.182584 -0.180096 0.0284677
-0.11349 -0.131063 0.11031
-0.113769 -0.130434 0.130321
-0.114045 -0.129811 0.150141
-0.114318 -0.129195 0.169773
0.179771 -0.174787 0.194978
0.179652 -0.17444 0.206231
0.182918 -0.181344 -0.151926
0.182709 -0.18071 -0.130845
0.182502 -0.180079 -0.109911
0.182297 -0.179454 -0.0891231
-0.113524 -0.131112 0.00758526
-0.113809 -0.130469 0.0285557
-0.114092 -0.129832 0.0493214
-0.114371 -0.129202 0.0698853
-0.114648 -0.128577 0.0902504
0.178547 -0.171404 0.172337
-0.113602 -0.13107 -0.0967893
-0.113893 -0.130412 -0.0748226
-0.114263 -0.129577 -0.0469014
-0.114426 -0.129209 -0.0346065
-0.11479 -0.128388 -0.00719669
-0.11415 -0.129972 -0.169913
-0.114401 -0.129404 -0.150471
-0.11465 -0.128842 -0.131198
0.172282 -0.154631 0.191095
0.172061 -0.154115 0.209723
-0.122079 -0.112445 0.11664
-0.122414 -0.111685 0.144793
-0.122645 -0.111159 0.164276
0.170666 -0.151067 0.172343
-0.122135 -0.112464 0.000393853
-0.122341 -0.111995 0.018258
-0.12258 -0.111453 0.0389119
-0.122816 -0.110915 0.0593667
-0.123051 -0.110383 0.0796253
-0.123283 -0.109856 0.0996905
-0.122193 -0.112485 -0.122096
-0.12244 -0.111924 -0.100101
-0.12265 -0.111447 -0.081422
-0.122893 -0.110895 -0.0598301
-0.123098 -0.110427 -0.0414922
-0.123336 -0.109885 -0.0202927
-0.123149 -0.110473 -0.169349
-0.123358 -0.109995 -0.150109
0.16295 -0.134397 0.190944
0.162709 -0.133946 0.209414
0.160944 -0.130784 0.17235
-0.131325 -0.0924681 0.0691628
-0.131516 -0.09203 0.0891248
-0.131705 -0.091596 0.108899
-0.131892 -0.0911661 0.128487
-0.132078 -0.0907402 0.147892
-0.132288 -0.0902584 0.169848
-0.131398 -0.0924821 -0.072573
-0.13165 -0.0919016 -0.0452402
-0.131817 -0.0915187 -0.0272081
-0.13201 -0.0910759 -0.00635974
-0.1322 -0.0906375 0.0142879
-0.132389 -0.0902032 0.0347377
-0.132576 -0.0897731 0.0549925
-0.131965 -0.0913709 -0.168797
-0.132134 -0.09098 -0.149755
-0.132302 -0.0905925 -0.130875
-0.132469 -0.0902082 -0.112155
-0.132662 -0.089764 -0.0905153
0.15156 -0.114269 0.190759
0.151313 -0.113885 0.209038
0.149115 -0.110621 0.172359
-0.140582 -0.0724638 0.0246308
-0.140729 -0.0721209 0.0447794
-0.140875 -0.0717812 0.0647382
-0.141019 -0.0714447 0.0845099
-0.141162 -0.0711114 0.104097
-0.141243 -0.0709223 0.115208
-0.141443 -0.0704539 0.142728
-0.141602 -0.0700836 0.164484
0.137757 -0.0943211 0.190536
0.137512 -0.094004 0.208582
-0.14069 -0.0724497 -0.155673
-0.14082 -0.0721437 -0.136931
-0.140907 -0.0719412 -0.124524
-0.1411 -0.0714896 -0.0968609
-0.141185 -0.0712907 -0.0846774
-0.141395 -0.0707983 -0.0545132
-0.141602 -0.0703126 -0.0247628
-0.141807 -0.0698336 0.00458211
0.134812 -0.0906583 0.17237
0.121021 -0.0746425 0.190265
0.120792 -0.0743924 0.208029
0.117509 -0.0709883 0.172384
-0.149832 -0.0524725 -0.0168765
-0.149935 -0.0522246 0.00343022
-0.150037 -0.0519791 0.0235461
-0.150138 -0.0517359 0.0434736
-0.150238 -0.0514949 0.0632156
-0.150337 -0.0512562 0.0827745
-0.150449 -0.0509861 0.104907
-0.150547 -0.0507521 0.124082
-0.150643 -0.0505202 0.143082
-0.150752 -0.0502577 0.164585
-0.150449 -0.0513222 -0.170239
-0.150538 -0.0511072 -0.15159
-0.15064 -0.0508587 -0.130029
-0.150727 -0.0506476 -0.111715
-0.150828 -0.0504036 -0.090539
-0.150927 -0.0501618 -0.0695665
-0.151012 -0.0499565 -0.0517495
0.104876 -0.0590472 0.200517
0.100808 -0.0555301 0.172397
0.0857983 -0.0440771 0.179336
0.0855618 -0.0439009 0.200009
-0.159072 -0.0324905 -0.0494335
-0.159122 -0.0323594 -0.0319524
-0.159181 -0.0322078 -0.0117352
-0.159239 -0.0320576 0.00829341
-0.159297 -0.0319087 0.028136
-0.159354 -0.0317613 0.0477952
-0.159418 -0.0315944 0.0700416
-0.159474 -0.0314498 0.0893163
-0.15953 -0.0313066 0.108415
-0.159592 -0.0311445 0.130031
-0.159647 -0.031004 0.148762
-0.159708 -0.030845 0.169963
-0.160088 -0.0304351 -0.169091
-0.160136 -0.0303091 -0.150663
-0.160183 -0.0301842 -0.132387
-0.160238 -0.0300397 -0.111254
-0.160292 -0.0298966 -0.0903224
-0.160346 -0.0297549 -0.0695895
0.074809 -0.0366257 0.17927
0.0745783 -0.0364794 0.19972
0.0451584 -0.0186444 0.17244
0.0450621 -0.0185839 0.189036
0.0449479 -0.0185119 0.20881
-0.168285 -0.0124961 -0.023803
-0.168307 -0.0124137 0.00459097
-0.168323 -0.0123566 0.024245
-0.168338 -0.0123001 0.0437192
-0.168353 -0.0122441 0.0630161
-0.16837 -0.0121808 0.0848557
-0.168385 -0.0121258 0.103781
-0.168399 -0.0120714 0.122536
-0.168416 -0.0120098 0.143765
-0.168432 -0.0119488 0.164779
-0.169506 -0.0100284 -0.16797
-0.169514 -0.00998737 -0.149757
-0.169523 -0.00994666 -0.131693
-0.169533 -0.00989959 -0.110804
-0.169542 -0.00985296 -0.0901107
-0.169552 -0.00980677 -0.0696118
-0.16956 -0.00976753 -0.0521937
0.0330603 -0.011718 0.172449
0.0330046 -0.0116805 0.188841
0.0144852 -0.00164185 0.172463
0.0144857 -0.00163669 0.188541
0.0144854 -0.00163053 0.207701
-0.178714 0.00992111 -0.169889
-0.178685 0.00988094 -0.151863
-0.178652 0.00983449 -0.131015
-0.178619 0.00978847 -0.110363
-0.178586 0.00974288 -0.0899036
-0.178554 0.00969772 -0.0696337
-0.178526 0.00965934 -0.0524084
-0.178495 0.00961494 -0.0324838
-0.178459 0.0095647 -0.00993584
-0.178428 0.00952116 0.00960115
-0.178397 0.00947802 0.0289612
-0.178367 0.00943527 0.0481464
-0.178332 0.00938688 0.0698617
-0.178302 0.00934495 0.0886807
-0.178268 0.00929748 0.109983
-0.178239 0.00925634 0.128446
-0.178206 0.00920976 0.149348
-0.178173 0.00916365 0.17004
-0.010751 0.011187 0.172483
-0.0106711 0.0111528 0.188134
-0.0105569 0.0111053 0.209885
-0.0366769 0.0232988 0.172503
-0.0364404 0.0232025 0.193776
-0.187717 0.0294286 -0.168783
-0.187652 0.0293108 -0.150963
-0.187578 0.0291746 -0.130353
-0.187504 0.0290396 -0.109933
-0.18743 0.0289058 -0.0897012
-0.187358 0.0287733 -0.0696551
-0.187286 0.028642 -0.0497919
-0.187215 0.0285118 -0.0301092
-0.187144 0.0283829 -0.0106045
-0.187074 0.0282551 0.00872456
-0.187005 0.0281285 0.0278803
-0.186927 0.0279851 0.0495635
-0.186859 0.0278609 0.0683557
-0.186782 0.0277202 0.0896293
-0.186716 0.0275983 0.108068
-0.0563942 0.0319014 0.172518
-0.0560686 0.031773 0.193326
-0.0558837 0.0317 0.205141
-0.187825 0.0300279 0.129014
-0.187745 0.0298787 0.149649
-0.187675 0.0297493 0.167537
-0.076875 0.0400587 0.172534
-0.0764719 0.0399014 0.192858
-0.0826951 0.0423597 0.212715
-0.107855 0.0512654 -0.212012
-0.0978438 0.0477626 0.17255
-0.0972548 0.0475563 0.1952
-0.196519 0.0485023 -0.167702
-0.19642 0.0483102 -0.150084
-0.196306 0.0480881 -0.129705
-0.196209 0.0478994 -0.112385
-0.196097 0.047681 -0.0923504
-0.197199 0.0500944 -0.0720934
-0.197084 0.0498685 -0.0524538
-0.196953 0.0496128 -0.0302243
-0.19684 0.0493912 -0.0109597
-0.196728 0.0491715 0.00813356
-0.196601 0.0489229 0.0297476
-0.196491 0.0487074 0.0484813
-0.196367 0.0484634 0.0696902
-0.196259 0.0482519 0.0880744
-0.196136 0.0480124 0.10889
-0.196015 0.0477753 0.129499
-0.195896 0.0475405 0.149906
-0.196937 0.0498183 0.167607
-0.119152 0.0550079 0.172566
-0.118421 0.0547808 0.194643
-0.1397 0.0614059 -0.209946
-0.132401 0.059215 0.205043
-0.164757 0.0683589 -0.210307
-0.163976 0.0681465 -0.192027
-0.148487 0.0639044 0.172589
-0.147578 0.0636571 0.193876
-0.206362 0.0698269 -0.168992
-0.206226 0.0695537 -0.151579
-0.206068 0.0692378 -0.131435
-0.205913 0.0689247 -0.111474
-0.205758 0.0686144 -0.0916922
-0.205605 0.0683069 -0.0720878
-0.205432 0.0679588 -0.0498969
-0.205281 0.0676571 -0.0306646
-0.19104 0.0747083 -0.212326
-0.189967 0.074456 -0.191706
-0.2063 0.0698874 -0.0113062
-0.206147 0.0695804 0.00755692
-0.205975 0.0692328 0.0289129
-0.205804 0.0688887 0.0500566
-0.205656 0.0685903 0.0683856
-0.205489 0.0682525 0.0891397
-0.205323 0.067918 0.10969
-0.205179 0.067628 0.127508
-0.169953 0.0697406 0.193287
-0.206139 0.0697317 0.147724
-0.205972 0.0693952 0.167675
-0.178952 0.0718807 0.172612
-0.209319 0.0785323 -0.21174
-0.208078 0.0782872 -0.191652
-0.185059 0.0733366 0.20295
-0.22773 0.0820782 -0.210669
-0.225895 0.0817805 -0.185574
-0.233144 0.0833668 -0.170525
-0.209647 0.0786406 0.189803
-0.208367 0.0783858 0.209303
-0.246603 0.0851226 -0.200408
-0.245144 0.0848907 -0.181431
-0.214705 0.087914 -0.162178
-0.214511 0.0875179 -0.142152
-0.215488 0.0896601 -0.121826
-0.215293 0.0892604 -0.102191
-0.215071 0.0888079 -0.0799651
-0.214879 0.0884158 -0.0607011
-0.214689 0.0880271 -0.0416064
-0.214474 0.087587 -0.0199885
-0.225293 0.081724 0.194216
-0.215423 0.0896669 -0.000973955
-0.215233 0.0892787 0.0175723
-0.215018 0.0888391 0.0385723
-0.214806 0.0884038 0.0593666
-0.214595 0.0879728 0.079958
-0.214413 0.087599 0.0978115
-0.235879 0.0834293 0.170281
-0.232887 0.0829492 0.208082
-0.215309 0.0895651 0.118115
-0.215099 0.0891351 0.138109
-0.214891 0.0887092 0.157912
-0.250143 0.0858119 0.198072
-0.244526 0.102983 -0.170528
-0.224169 0.10841 -0.169191
-0.223968 0.107995 -0.152167
-0.223735 0.107515 -0.13247
-0.224643 0.109507 -0.112488
-0.224377 0.108957 -0.0904235
-0.224146 0.108481 -0.0712982
-0.223917 0.108009 -0.0523395
-0.224773 0.109891 -0.0305531
-0.224544 0.109417 -0.0119745
-0.224285 0.108881 0.00906311
-0.224028 0.10835 0.0298956
-0.223805 0.10789 0.0479582
-0.224641 0.109727 0.0685747
-0.224387 0.1092 0.0888023
-0.224135 0.108679 0.108837
-0.223885 0.108162 0.128681
-0.223638 0.10765 0.148337
-0.250159 0.103041 0.17034
-0.224455 0.109442 0.167815
-0.233358 0.128319 -0.170419
-0.233086 0.127754 -0.150794
-0.233931 0.129609 -0.130858
-0.233659 0.129044 -0.111607
-0.233351 0.128404 -0.089812
-0.233084 0.127849 -0.0709176
-0.233913 0.129668 -0.0518343
-0.233609 0.129034 -0.0306575
-0.233345 0.128485 -0.0122969
-0.233046 0.127863 0.00849621
-0.233821 0.129569 0.0293092
-0.233523 0.128948 0.0496724
-0.233228 0.128334 0.0698415
-0.232936 0.127725 0.0898193
-0.233696 0.129397 0.109704
-0.233405 0.12879 0.129277
-0.233117 0.128188 0.148668
-0.232831 0.127593 0.167879
-0.242293 0.14768 -0.168837
-0.243121 0.149496 -0.1517
-0.242811 0.148849 -0.132494
-0.242461 0.148115 -0.110748
-0.243232 0.149811 -0.0914828
-0.242883 0.149081 -0.0701686
-0.242581 0.148448 -0.0516885
-0.242238 0.147732 -0.0307595
-0.242996 0.149397 -0.0123284
-0.242655 0.148683 0.00819325
-0.242317 0.147976 0.0285197
-0.243021 0.149526 0.0488407
-0.242685 0.148822 0.0687544
-0.242352 0.148126 0.0884816
-0.243045 0.149651 0.108121
-0.242673 0.148872 0.129859
-0.242346 0.148186 0.148991
-0.242021 0.147506 0.167949
-0.252133 0.169001 -0.169503
-0.251787 0.168274 -0.150367
-0.251444 0.167554 -0.131394
-0.252158 0.169126 -0.112142
-0.251768 0.168307 -0.0908737
-0.25143 0.167597 -0.0724324
-0.252086 0.169044 -0.0512042
-0.251702 0.168239 -0.0305502
-0.252397 0.169766 -0.0123591
-0.252016 0.168965 0.00789809
-0.251638 0.168172 0.0279651
-0.252276 0.169578 0.0480303
-0.251901 0.168791 0.0676949
-0.251484 0.167914 0.0896004
-0.230679 0.16932 0.170259
-0.252112 0.169299 0.108976
-0.251744 0.168525 0.128052
-0.251335 0.167663 0.149306
-0.251954 0.169028 0.168024
-0.261723 0.189779 -0.170153
-0.261341 0.188974 -0.151255
-0.260908 0.188062 -0.129854
-0.261559 0.189495 -0.110863
-0.261182 0.188703 -0.0924911
-0.260756 0.187805 -0.0716816
-0.261346 0.189108 -0.0507324
-0.260923 0.188218 -0.0303463
-0.261558 0.189615 -0.012389
-0.261139 0.188732 0.00761046
-0.260672 0.187748 0.0298883
-0.230432 0.188876 0.170258
-0.261246 0.189017 0.0496778
-0.260836 0.188151 0.0690772
-0.261403 0.189404 0.0884225
-0.260945 0.188438 0.109808
-0.260542 0.187588 0.128635
-0.261052 0.188719 0.149646
-0.260653 0.187877 0.16809
-0.27 0.207714 -0.168632
-0.270656 0.209157 -0.152122
-0.270184 0.20816 -0.130983
-0.270774 0.209462 -0.11222
-0.270306 0.208474 -0.0914878
-0.270832 0.209638 -0.0705865
-0.270369 0.208659 -0.0502727
-0.26991 0.20769 -0.0301476
-0.270487 0.208962 -0.0124182
-0.269976 0.207881 0.00978579
-0.270489 0.209019 0.0295395
-0.27004 0.208069 0.0488775
-0.270548 0.209193 0.0681915
-0.270047 0.208135 0.0895123
-0.27055 0.209247 0.108376
-0.270055 0.2082 0.129264
-0.270552 0.209299 0.147692
-0.270062 0.208263 0.168161
-0.274186 0.229079 -0.16917
-0.274176 0.227979 -0.150395
-0.274165 0.229369 -0.1318
-0.274153 0.228124 -0.110766
-0.274142 0.229344 -0.0899578
-0.274131 0.228266 -0.0719347
-0.27412 0.229473 -0.0515433
-0.274109 0.228253 -0.0313688
-0.274097 0.229448 -0.0114078
-0.274086 0.22824 0.00834307
-0.274075 0.229423 0.0278871
-0.274063 0.228079 0.049631
-0.274052 0.22925 0.0687463
-0.274041 0.228069 0.0876646
-0.274029 0.22908 0.108716
-0.274018 0.227768 0.129526
-0.274186 0.249108 -0.16917
-0.274176 0.247912 -0.150395
-0.274007 0.228915 0.147825
-0.273996 0.227617 0.168191
-0.274165 0.249207 -0.1318
-0.274153 0.247853 -0.110766
-0.274142 0.248968 -0.0899578
-0.274131 0.247796 -0.0719347
-0.27412 0.2489 -0.0515433
-0.274109 0.247576 -0.0313688
-0.274097 0.248668 -0.0114078
-0.274086 0.24975 0.00834307
-0.274075 0.248442 0.0278871
-0.274063 0.249351 0.049631
-0.274052 0.24806 0.0687463
-0.274041 0.249121 0.0876646
-0.274029 0.247686 0.108716
-0.274186 0.269136 -0.16917
-0.274176 0.267844 -0.150395
-0.274018 0.248579 0.129526
-0.274165 0.269044 -0.1318
-0.274153 0.267583 -0.110766
-0.274007 0.249621 0.147825
-0.273996 0.248206 0.168191
-0.274142 0.268591 -0.0899578
-0.274131 0.269768 -0.0719347
-0.27412 0.268326 -0.0515433
-0.274109 0.269314 -0.0313688
-0.274097 0.267889 -0.0114078
-0.274086 0.268869 0.00834307
-0.274075 0.269839 0.0278871
-0.274063 0.268259 0.049631
-0.274052 0.269221 0.0687463
-0.274041 0.267834 0.0876646
-0.274186 0.289165 -0.16917
-0.274176 0.287777 -0.150395
-0.274029 0.268617 0.108716
-0.274165 0.288882 -0.1318
-0.274018 0.26939 0.129526
-0.274007 0.268026 0.147825
-0.274153 0.289779 -0.110766
-0.274142 0.288214 -0.0899578
-0.273996 0.268794 0.168191
-0.274131 0.289299 -0.0719347
-0.27412 0.287752 -0.0515433
-0.274109 0.288637 -0.0313688
