ply
format ascii 1.0
comment Created by Open3D
element vertex 1585
property double x
property double y
property double z
end_header
-0.302821 -0.150252 -0.353432
-0.313616 -0.149384 -0.353422
-0.278994 -0.150232 -0.353453
-0.28823 -0.149498 -0.353445
-0.304629 -0.142458 -0.35343
-0.313616 -0.141772 -0.353422
-0.278994 -0.142478 -0.353453
-0.28823 -0.141782 -0.353445
-0.24882 -0.136874 -0.353478
-0.258353 -0.136195 -0.35347
-0.267791 -0.135522 -0.353462
-0.311826 -0.132384 -0.353424
-0.318967 -0.131875 -0.353418
-0.221617 -0.136815 -0.353502
-0.227511 -0.136401 -0.353497
-0.239193 -0.135581 -0.353487
-0.284546 -0.132395 -0.353448
-0.293728 -0.131751 -0.35344
-0.191603 -0.136895 -0.353528
-0.19768 -0.136474 -0.353523
-0.207725 -0.135779 -0.353514
-0.162743 -0.136835 -0.353553
-0.173146 -0.136125 -0.353544
-0.130872 -0.136917 -0.353581
-0.13947 -0.13634 -0.353574
-0.147995 -0.135767 -0.353566
-0.27154 -0.127471 -0.353459
0.102459 -0.150257 -0.353785
0.0917858 -0.149551 -0.353776
-0.100199 -0.136855 -0.353608
-0.109057 -0.13627 -0.3536
-0.117839 -0.135689 -0.353592
-0.243055 -0.127408 -0.353484
-0.252645 -0.126774 -0.353475
-0.318967 -0.122388 -0.353418
0.135091 -0.150052 -0.353812
0.126846 -0.149515 -0.353805
0.115943 -0.148805 -0.353796
0.0917477 -0.148977 -0.345605
-0.0685892 -0.136792 -0.353635
-0.0777187 -0.136197 -0.353627
-0.0890197 -0.135461 -0.353617
-0.211714 -0.127473 -0.353511
-0.217668 -0.127086 -0.353506
-0.227511 -0.126445 -0.353497
-0.28823 -0.122492 -0.353444
-0.299194 -0.121778 -0.353435
-0.308234 -0.121189 -0.353427
0.0917405 -0.148403 -0.337188
-0.0336318 -0.136877 -0.353666
-0.0430669 -0.136273 -0.353657
-0.0547444 -0.135524 -0.353647
-0.181392 -0.127409 -0.353537
-0.187531 -0.127015 -0.353532
-0.19768 -0.126365 -0.353523
-0.278994 -0.121155 -0.353452
0.0917293 -0.148723 -0.324173
6.11544e-05 -0.136812 -0.353695
-0.00967339 -0.136198 -0.353686
-0.0193209 -0.13559 -0.353678
-0.147995 -0.127476 -0.353566
-0.158551 -0.126811 -0.353557
-0.168998 -0.126152 -0.353548
0.126846 -0.142452 -0.353805
0.115943 -0.141775 -0.353796
0.105143 -0.141105 -0.353788
0.0971098 -0.140607 -0.353781
0.0917477 -0.141939 -0.345605
0.0917216 -0.148127 -0.315226
0.0373605 -0.136901 -0.353727
0.0272892 -0.136276 -0.353718
0.0173093 -0.135657 -0.35371
-0.11565 -0.12741 -0.353594
-0.124376 -0.126868 -0.353587
-0.133028 -0.126332 -0.353579
0.135091 -0.1406 -0.353812
0.0917405 -0.141279 -0.337188
0.0733491 -0.136834 -0.353759
0.0655388 -0.136357 -0.353752
0.0552092 -0.135727 -0.353743
0.0449748 -0.135103 -0.353734
-0.0799887 -0.127479 -0.353625
-0.0890197 -0.126928 -0.353617
-0.097973 -0.126382 -0.35361
-0.244981 -0.117414 -0.353482
-0.252645 -0.116947 -0.353475
-0.264027 -0.116252 -0.353465
0.0864883 -0.135322 -0.35377
-0.0454128 -0.127411 -0.353655
-0.0547444 -0.126851 -0.353647
-0.0639944 -0.126296 -0.353639
-0.211714 -0.117436 -0.353511
-0.217668 -0.117079 -0.353506
-0.227511 -0.116489 -0.353497
-0.295554 -0.112407 -0.353438
-0.302821 -0.111972 -0.353432
-0.313616 -0.111324 -0.353422
-0.00724792 -0.127483 -0.353688
-0.014508 -0.127055 -0.353682
-0.0241125 -0.126488 -0.353674
-0.0336318 -0.125927 -0.353666
-0.177278 -0.117459 -0.353541
-0.183442 -0.117095 -0.353535
-0.193633 -0.116495 -0.353526
-0.273409 -0.111791 -0.353457
-0.282699 -0.111244 -0.353449
0.279308 -0.150331 -0.309449
0.115943 -0.132402 -0.353795
0.105144 -0.131776 -0.353786
0.097111 -0.131311 -0.353779
0.0297984 -0.127412 -0.353721
0.0222879 -0.126976 -0.353714
0.0123534 -0.126401 -0.353705
-0.141608 -0.117482 -0.353572
-0.147995 -0.117112 -0.353566
-0.158551 -0.116501 -0.353557
0.31885 -0.14992 -0.309483
0.312176 -0.14954 -0.309477
0.302229 -0.148974 -0.309469
0.292356 -0.148413 -0.30946
0.276819 -0.149037 -0.301375
0.135091 -0.131148 -0.353812
0.126846 -0.130679 -0.353805
0.0707397 -0.127486 -0.353756
0.0603621 -0.126896 -0.353747
0.0500802 -0.126311 -0.353738
0.0424309 -0.125875 -0.353732
-0.106849 -0.117381 -0.353602
-0.113457 -0.117005 -0.353596
-0.124376 -0.116383 -0.353587
0.276811 -0.148389 -0.290274
0.0864883 -0.126069 -0.35377
-0.0685892 -0.117404 -0.353635
-0.0777187 -0.116894 -0.353627
-0.0890197 -0.116262 -0.353617
-0.246903 -0.10744 -0.35348
-0.252645 -0.107119 -0.353475
-0.264027 -0.106483 -0.353465
0.279308 -0.142349 -0.309449
0.276801 -0.147722 -0.27886
0.276795 -0.149126 -0.27107
0.179444 -0.136871 -0.309362
0.170474 -0.136379 -0.309354
-0.0288827 -0.117428 -0.35367
-0.0383598 -0.116908 -0.353661
-0.0477534 -0.116392 -0.353653
-0.0593795 -0.115755 -0.353643
-0.211714 -0.107399 -0.353511
-0.217668 -0.107072 -0.353506
-0.227511 -0.106532 -0.353497
-0.302821 -0.102401 -0.353432
-0.313616 -0.101809 -0.353422
0.31885 -0.141816 -0.309483
0.312176 -0.141457 -0.309477
0.302229 -0.140922 -0.309469
0.292356 -0.14039 -0.30946
0.276819 -0.140981 -0.301375
0.225281 -0.13678 -0.309402
0.215979 -0.136279 -0.309393
0.206745 -0.135782 -0.309385
0.194538 -0.135125 -0.309375
0.105144 -0.122447 -0.353786
0.097111 -0.122015 -0.353779
0.0123534 -0.117452 -0.353705
6.11544e-05 -0.116791 -0.353695
-0.00967339 -0.116267 -0.353686
-0.0193209 -0.115747 -0.353678
-0.173146 -0.107467 -0.353544
-0.183442 -0.106913 -0.353535
-0.193633 -0.106365 -0.353526
-0.273409 -0.10207 -0.353457
-0.282699 -0.10157 -0.353449
-0.293728 -0.100977 -0.35344
0.269608 -0.136515 -0.30944
0.25998 -0.136007 -0.309432
0.250423 -0.135502 -0.309423
0.240936 -0.135001 -0.309415
0.135091 -0.121696 -0.353812
0.126846 -0.12126 -0.353805
0.115943 -0.120685 -0.353795
0.0552092 -0.117478 -0.353743
0.0449748 -0.116938 -0.353734
0.0373605 -0.116535 -0.353727
0.0272892 -0.116004 -0.353718
-0.13518 -0.107425 -0.353577
-0.143741 -0.106973 -0.35357
-0.154342 -0.106413 -0.353561
-0.162743 -0.10597 -0.353553
0.0864883 -0.116816 -0.35377
0.0759647 -0.116271 -0.353761
0.0655388 -0.115732 -0.353752
-0.093506 -0.107497 -0.353614
-0.104638 -0.10692 -0.353604
-0.113457 -0.106464 -0.353596
-0.124376 -0.105898 -0.353587
0.292357 -0.132368 -0.30946
0.279309 -0.131706 -0.309448
0.194538 -0.127404 -0.309375
0.18546 -0.126943 -0.309367
0.176447 -0.126485 -0.309359
-0.0524192 -0.107453 -0.353649
-0.0593795 -0.1071 -0.353643
-0.0685892 -0.106633 -0.353635
-0.0777187 -0.106169 -0.353627
-0.24882 -0.0974857 -0.353479
-0.258353 -0.097002 -0.35347
0.31885 -0.131011 -0.309483
0.312177 -0.130679 -0.309477
0.302229 -0.130185 -0.309468
0.247253 -0.127451 -0.309421
0.234651 -0.126824 -0.30941
0.225281 -0.126358 -0.309402
0.215979 -0.125896 -0.309393
0.206745 -0.125437 -0.309385
-0.00967339 -0.107408 -0.353686
-0.0193209 -0.106928 -0.353678
-0.0288827 -0.106453 -0.35367
-0.0383598 -0.105982 -0.353661
-0.209722 -0.0974606 -0.353512
-0.217668 -0.0970654 -0.353506
-0.227511 -0.096576 -0.353497
-0.239193 -0.0959951 -0.353487
-0.310032 -0.0924725 -0.353425
-0.318967 -0.0920282 -0.353418
0.269608 -0.125912 -0.30944
0.25998 -0.125443 -0.309432
0.135091 -0.112244 -0.353812
0.126846 -0.111842 -0.353805
0.115943 -0.111311 -0.353795
0.105144 -0.110785 -0.353786
0.097111 -0.110394 -0.353779
0.0373605 -0.107484 -0.353727
0.0272892 -0.106994 -0.353718
0.0173093 -0.106508 -0.35371
0.00741979 -0.106026 -0.353701
-0.168998 -0.0974343 -0.353548
-0.179337 -0.0969308 -0.353539
-0.187531 -0.0965318 -0.353532
-0.19768 -0.0960375 -0.353523
-0.27154 -0.0924405 -0.353459
-0.278994 -0.0920774 -0.353452
-0.28823 -0.0916277 -0.353444
-0.299194 -0.0910937 -0.353435
0.0838481 -0.107438 -0.353768
0.0759647 -0.107062 -0.353761
0.0655388 -0.106565 -0.353752
0.0552092 -0.106072 -0.353743
0.0449748 -0.105584 -0.353734
-0.126546 -0.097407 -0.353585
-0.133028 -0.097098 -0.353579
-0.143741 -0.0965872 -0.35357
-0.154342 -0.0960818 -0.353561
0.308852 -0.122441 -0.309474
0.302229 -0.122132 -0.309468
0.292357 -0.121672 -0.30946
0.279309 -0.121063 -0.309448
0.200627 -0.117392 -0.30938
0.191505 -0.116967 -0.309372
0.182448 -0.116544 -0.309364
0.170474 -0.115986 -0.309354
-0.0799887 -0.0974842 -0.353625
-0.0890197 -0.0970629 -0.353617
-0.097973 -0.0966452 -0.35361
-0.109057 -0.0961281 -0.3536
0.31885 -0.120206 -0.309483
0.256786 -0.117375 -0.309429
0.247253 -0.11694 -0.309421
0.234651 -0.116365 -0.30941
0.225281 -0.115937 -0.309402
0.215979 -0.115513 -0.309393
-0.0336318 -0.0974567 -0.353666
-0.0430669 -0.0970262 -0.353657
-0.0547444 -0.0964934 -0.353647
-0.0639944 -0.0960714 -0.353639
-0.252645 -0.0874642 -0.353475
0.269608 -0.115309 -0.30944
0.126846 -0.102424 -0.353805
0.115943 -0.101938 -0.353795
0.105144 -0.101456 -0.353786
0.097111 -0.101098 -0.353779
0.0148286 -0.097428 -0.353708
0.00741979 -0.0970975 -0.353701
-0.00481704 -0.0965518 -0.353691
-0.014508 -0.0961196 -0.353682
-0.0241125 -0.0956912 -0.353674
-0.209722 -0.0874131 -0.353513
-0.217668 -0.0870587 -0.353506
-0.227511 -0.0866197 -0.353497
-0.239193 -0.0860987 -0.353487
-0.320744 -0.0824615 -0.353416
0.135091 -0.100429 -0.353812
0.0655388 -0.0973979 -0.353752
0.0552092 -0.0969478 -0.353743
0.0449748 -0.0965018 -0.353734
0.0373605 -0.0961701 -0.353727
0.0272892 -0.0957312 -0.353718
-0.162743 -0.0874506 -0.353553
-0.173146 -0.0869973 -0.353544
-0.183442 -0.0865487 -0.353535
-0.193633 -0.0861046 -0.353526
-0.277136 -0.082466 -0.353454
-0.282699 -0.0822236 -0.353449
-0.293728 -0.081743 -0.35344
-0.302821 -0.0813468 -0.353432
0.31885 -0.112102 -0.309483
0.312177 -0.111819 -0.309477
0.302229 -0.111395 -0.309468
0.292357 -0.110975 -0.30946
0.279309 -0.11042 -0.309448
0.209816 -0.107463 -0.309388
0.200627 -0.107072 -0.30938
0.191505 -0.106684 -0.309372
0.182448 -0.106299 -0.309364
0.170474 -0.105789 -0.309354
0.0864883 -0.0959976 -0.35377
0.0759647 -0.0955498 -0.353761
-0.113457 -0.0874901 -0.353596
-0.124376 -0.0870255 -0.353587
-0.133028 -0.0866573 -0.353579
-0.143741 -0.0862015 -0.35357
-0.154342 -0.0857505 -0.353561
-0.264027 -0.0810835 -0.353465
0.269608 -0.107356 -0.30944
0.25998 -0.106957 -0.309432
0.250423 -0.10656 -0.309423
0.240936 -0.106166 -0.309415
0.23152 -0.105775 -0.309407
0.222173 -0.105387 -0.309399
-0.0639944 -0.0874358 -0.353639
-0.0731639 -0.087055 -0.353631
-0.084514 -0.0865837 -0.353621
-0.093506 -0.0862103 -0.353614
-0.104638 -0.0857481 -0.353604
0.113234 -0.0924544 -0.353793
0.105144 -0.0921267 -0.353786
0.097111 -0.0918014 -0.353779
-0.00967339 -0.0874768 -0.353686
-0.0193209 -0.0870861 -0.353678
-0.0288827 -0.0866988 -0.35367
-0.0383598 -0.086315 -0.353661
-0.0477534 -0.0859346 -0.353653
-0.256454 -0.0774825 -0.353472
0.279309 -0.102438 -0.309448
0.135091 -0.0909765 -0.353812
0.126846 -0.090651 -0.353805
0.0449748 -0.0874193 -0.353734
0.0373605 -0.0871188 -0.353727
0.0272892 -0.0867212 -0.353718
0.0173093 -0.0863273 -0.35371
0.00741979 -0.0859369 -0.353701
-0.207725 -0.0774444 -0.353514
-0.217668 -0.0770519 -0.353506
-0.227511 -0.0766634 -0.353497
-0.239193 -0.0762023 -0.353487
0.31885 -0.101297 -0.309483
0.312177 -0.101041 -0.309477
0.302229 -0.100658 -0.309468
0.292357 -0.100279 -0.30946
0.219072 -0.0974611 -0.309396
0.209816 -0.0971053 -0.309388
0.200627 -0.096752 -0.30938
0.191505 -0.0964012 -0.309372
0.182448 -0.096053 -0.309364
0.170474 -0.0955926 -0.309354
0.0864883 -0.0867448 -0.35377
0.0759647 -0.0863402 -0.353761
0.0655388 -0.0859393 -0.353752
0.0552092 -0.0855422 -0.353743
-0.154342 -0.0774853 -0.353561
-0.162743 -0.0771623 -0.353553
-0.173146 -0.0767624 -0.353544
-0.183442 -0.0763665 -0.353535
-0.193633 -0.0759747 -0.353526
-0.284546 -0.0724792 -0.353448
-0.293728 -0.0721262 -0.35344
-0.302821 -0.0717766 -0.353432
-0.313616 -0.0713616 -0.353422
0.269608 -0.0967534 -0.30944
0.25998 -0.0963931 -0.309432
0.250423 -0.0960354 -0.309423
0.240936 -0.0956804 -0.309415
0.23152 -0.095328 -0.309407
-0.100199 -0.0774453 -0.353608
-0.109057 -0.0771138 -0.3536
-0.117839 -0.0767851 -0.353592
-0.128712 -0.0763782 -0.353583
-0.13947 -0.0759756 -0.353574
-0.264027 -0.0713144 -0.353465
-0.273409 -0.0709633 -0.353457
0.094446 -0.0824081 -0.353777
-0.040716 -0.0774885 -0.353659
-0.0477534 -0.0772324 -0.353653
-0.0593795 -0.0768092 -0.353643
-0.0685892 -0.076474 -0.353635
-0.0777187 -0.0761417 -0.353627
-0.0890197 -0.0757304 -0.353617
0.29893 -0.092489 -0.309465
0.292357 -0.0922565 -0.30946
0.279309 -0.091795 -0.309448
0.135091 -0.0815244 -0.353812
0.126846 -0.0812328 -0.353805
0.115943 -0.0808471 -0.353795
0.105144 -0.0804651 -0.353786
0.0197958 -0.0774462 -0.353712
0.0123534 -0.0771829 -0.353705
6.11544e-05 -0.0767481 -0.353695
-0.00967339 -0.0764038 -0.353686
-0.0193209 -0.0760625 -0.353678
-0.0288827 -0.0757243 -0.35367
0.31885 -0.0904924 -0.309483
0.312177 -0.0902631 -0.309477
0.23152 -0.0874928 -0.309407
0.222173 -0.0871718 -0.309399
0.209816 -0.0867474 -0.309388
0.200627 -0.0864317 -0.30938
0.191505 -0.0861184 -0.309372
0.182448 -0.0858074 -0.309364
0.170474 -0.0853961 -0.309354
0.0864883 -0.077492 -0.35377
0.0759647 -0.0771306 -0.353761
0.0655388 -0.0767725 -0.353752
0.0552092 -0.0764177 -0.353743
0.0449748 -0.0760662 -0.353734
0.0373605 -0.0758046 -0.353727
-0.205724 -0.0674554 -0.353516
-0.213703 -0.0671814 -0.353509
-0.223586 -0.0668419 -0.3535
-0.23337 -0.0665059 -0.353492
-0.243055 -0.0661732 -0.353484
-0.252645 -0.0658438 -0.353475
0.269608 -0.0861503 -0.30944
0.25998 -0.0858294 -0.309432
0.250423 -0.085511 -0.309423
0.240936 -0.0851949 -0.309415
-0.14587 -0.0674363 -0.353568
-0.154342 -0.067154 -0.353561
-0.162743 -0.066874 -0.353553
-0.173146 -0.0665274 -0.353544
-0.183442 -0.0661843 -0.353535
-0.193633 -0.0658447 -0.353526
-0.295554 -0.0624486 -0.353438
-0.302821 -0.0622064 -0.353432
-0.313616 -0.0618467 -0.353422
-0.0799887 -0.067489 -0.353625
-0.0890197 -0.0671974 -0.353617
-0.097973 -0.0669082 -0.35361
-0.109057 -0.0665502 -0.3536
-0.117839 -0.0662666 -0.353592
-0.128712 -0.0659155 -0.353583
-0.264027 -0.0615453 -0.353465
-0.273409 -0.0612423 -0.353457
-0.282699 -0.0609422 -0.353449
0.31885 -0.0823886 -0.309483
0.312177 -0.0821799 -0.309477
0.302229 -0.0818688 -0.309468
0.292357 -0.0815601 -0.30946
0.279309 -0.0811521 -0.309448
0.135091 -0.0720723 -0.353812
0.126846 -0.0718145 -0.353805
0.115943 -0.0714735 -0.353795
0.105144 -0.0711358 -0.353786
0.097111 -0.0708846 -0.353779
-0.0120933 -0.0674697 -0.353684
-0.0193209 -0.0672437 -0.353678
-0.0288827 -0.0669447 -0.35367
-0.0383598 -0.0666483 -0.353661
-0.0477534 -0.0663546 -0.353653
-0.0593795 -0.065991 -0.353643
-0.0685892 -0.065703 -0.353635
0.244091 -0.0774261 -0.309418
0.234651 -0.0771406 -0.30941
0.225281 -0.0768572 -0.309402
0.215979 -0.0765759 -0.309393
0.206745 -0.0762966 -0.309385
0.194538 -0.0759274 -0.309375
0.18546 -0.0756528 -0.309367
0.176447 -0.0753802 -0.309359
0.0603621 -0.067449 -0.353747
0.0500802 -0.0671381 -0.353738
0.0424309 -0.0669067 -0.353732
0.0323133 -0.0666007 -0.353723
0.0222879 -0.0662975 -0.353714
0.0123534 -0.065997 -0.353705
6.11544e-05 -0.0656252 -0.353695
0.269608 -0.0755472 -0.30944
0.25998 -0.0752658 -0.309432
0.0864883 -0.0659261 -0.35377
0.0759647 -0.0656185 -0.353761
-0.203719 -0.057446 -0.353518
-0.213703 -0.0571543 -0.353509
-0.223586 -0.0568655 -0.3535
-0.23337 -0.0565796 -0.353492
-0.243055 -0.0562966 -0.353484
-0.252645 -0.0560164 -0.353475
-0.130872 -0.0574843 -0.353581
-0.13947 -0.0572419 -0.353574
-0.147995 -0.0570016 -0.353566
-0.158551 -0.0567039 -0.353557
-0.168998 -0.0564094 -0.353548
-0.179337 -0.0561179 -0.353539
-0.187531 -0.0558868 -0.353532
-0.308234 -0.0524836 -0.353427
-0.318967 -0.0521809 -0.353418
0.31885 -0.0715835 -0.309483
0.312177 -0.0714022 -0.309477
0.302229 -0.0711319 -0.309468
0.292357 -0.0708637 -0.30946
0.279309 -0.0705092 -0.309448
0.129588 -0.0624707 -0.353807
0.121382 -0.0622477 -0.3538
0.110531 -0.0619529 -0.353791
0.10246 -0.0617336 -0.353784
-0.0547444 -0.0574624 -0.353647
-0.0639944 -0.057211 -0.353639
-0.0731639 -0.0569619 -0.353631
-0.084514 -0.0566535 -0.353621
-0.093506 -0.0564092 -0.353614
-0.104638 -0.0561068 -0.353604
-0.113457 -0.0558671 -0.353596
-0.264027 -0.0517762 -0.353465
-0.273409 -0.0515213 -0.353457
-0.282699 -0.0512688 -0.353449
-0.293728 -0.0509692 -0.35344
0.263181 -0.0674268 -0.309434
0.256786 -0.0672596 -0.309429
0.247253 -0.0670104 -0.309421
0.234651 -0.0666809 -0.30941
0.225281 -0.0664359 -0.309402
0.215979 -0.0661927 -0.309393
0.206745 -0.0659513 -0.309385
0.194538 -0.0656321 -0.309375
0.18546 -0.0653948 -0.309367
0.176447 -0.0651591 -0.309359
0.0272892 -0.0574387 -0.353718
0.0173093 -0.0571778 -0.35371
0.00741979 -0.0569192 -0.353701
-0.00481704 -0.0565993 -0.353691
-0.014508 -0.0563459 -0.353682
-0.0241125 -0.0560948 -0.353674
-0.0336318 -0.055846 -0.353666
-0.0430669 -0.0555993 -0.353657
0.0917872 -0.0568064 -0.353774
0.0812142 -0.0565408 -0.353765
0.0707397 -0.0562777 -0.353756
0.0603621 -0.056017 -0.353747
0.0500802 -0.0557587 -0.353738
0.0424309 -0.0555666 -0.353732
0.276067 -0.0624489 -0.309446
-0.199697 -0.0474647 -0.353521
-0.207725 -0.0472713 -0.353514
-0.217668 -0.0470317 -0.353506
-0.227511 -0.0467945 -0.353497
-0.239193 -0.0465131 -0.353487
-0.24882 -0.0462811 -0.353479
0.31885 -0.0607785 -0.309483
0.312177 -0.0606245 -0.309477
0.302229 -0.060395 -0.309468
0.292357 -0.0601673 -0.30946
0.176447 -0.0574934 -0.309359
0.105144 -0.0524772 -0.353786
-0.111259 -0.0474851 -0.353598
-0.117839 -0.0473333 -0.353592
-0.128712 -0.0470825 -0.353583
-0.13947 -0.0468343 -0.353574
-0.147995 -0.0466376 -0.353566
-0.158551 -0.0463941 -0.353557
-0.168998 -0.0461531 -0.353548
-0.179337 -0.0459146 -0.353539
-0.187531 -0.0457256 -0.353532
0.266391 -0.0569208 -0.309437
0.256786 -0.0567091 -0.309429
0.247253 -0.0564989 -0.309421
0.234651 -0.0562211 -0.30941
0.225281 -0.0560146 -0.309402
0.215979 -0.0558095 -0.309393
0.206745 -0.055606 -0.309385
0.194538 -0.0553369 -0.309375
0.18546 -0.0551368 -0.309367
0.135091 -0.0508051 -0.353812
0.126846 -0.0506233 -0.353805
0.115943 -0.050383 -0.353795
-0.0169171 -0.0474543 -0.35368
-0.0241125 -0.0472957 -0.353674
-0.0336318 -0.0470858 -0.353666
-0.0430669 -0.0468778 -0.353657
-0.0547444 -0.0466204 -0.353647
-0.0639944 -0.0464165 -0.353639
-0.0731639 -0.0462144 -0.353631
-0.084514 -0.0459642 -0.353621
-0.093506 -0.045766 -0.353614
-0.258353 -0.0421322 -0.35347
-0.267791 -0.0419241 -0.353462
-0.278994 -0.0416772 -0.353452
-0.28823 -0.0414736 -0.353444
-0.299194 -0.0412319 -0.353435
-0.308234 -0.0410326 -0.353427
-0.318967 -0.040796 -0.353418
0.0891346 -0.0474761 -0.353772
0.0812142 -0.0473096 -0.353765
0.0707397 -0.0470895 -0.353756
0.0603621 -0.0468714 -0.353747
0.0500802 -0.0466553 -0.353738
0.0424309 -0.0464945 -0.353732
0.0323133 -0.0462818 -0.353723
0.0222879 -0.0460711 -0.353714
0.0123534 -0.0458623 -0.353705
6.11544e-05 -0.0456039 -0.353695
0.308852 -0.0524748 -0.309474
0.302229 -0.0523424 -0.309468
0.292357 -0.052145 -0.30946
0.279309 -0.0518841 -0.309448
0.31885 -0.0499734 -0.309483
0.18546 -0.0474433 -0.309367
0.176447 -0.0472723 -0.309359
-0.193633 -0.0374809 -0.353526
-0.203719 -0.0372895 -0.353518
-0.213703 -0.0371002 -0.353509
-0.223586 -0.0369127 -0.3535
-0.23337 -0.0367271 -0.353492
-0.243055 -0.0365434 -0.353484
0.269608 -0.0463886 -0.30944
0.25998 -0.0462158 -0.309432
0.250423 -0.0460444 -0.309423
0.240936 -0.0458742 -0.309415
0.23152 -0.0457052 -0.309407
0.222173 -0.0455375 -0.309399
0.209816 -0.0453158 -0.309388
0.200627 -0.0451509 -0.30938
0.135091 -0.041353 -0.353812
0.126846 -0.041205 -0.353805
0.115943 -0.0410094 -0.353795
0.105144 -0.0408156 -0.353786
-0.0799887 -0.0374939 -0.353625
-0.0890197 -0.0373319 -0.353617
-0.097973 -0.0371712 -0.35361
-0.109057 -0.0369724 -0.3536
-0.117839 -0.0368148 -0.353592
-0.128712 -0.0366197 -0.353583
-0.13947 -0.0364267 -0.353574
-0.147995 -0.0362737 -0.353566
-0.158551 -0.0360843 -0.353557
-0.168998 -0.0358969 -0.353548
-0.179337 -0.0357114 -0.353539
0.0449748 -0.0374654 -0.353734
0.0373605 -0.0373366 -0.353727
0.0272892 -0.0371662 -0.353718
0.0173093 -0.0369974 -0.35371
0.00741979 -0.0368301 -0.353701
-0.00481704 -0.0366231 -0.353691
-0.014508 -0.0364591 -0.353682
-0.0241125 -0.0362967 -0.353674
-0.0336318 -0.0361356 -0.353666
-0.0430669 -0.035976 -0.353657
-0.0547444 -0.0357785 -0.353647
-0.0639944 -0.035622 -0.353639
-0.252645 -0.0324305 -0.353475
-0.264027 -0.032238 -0.353465
-0.273409 -0.0320793 -0.353457
-0.282699 -0.0319221 -0.353449
-0.293728 -0.0317355 -0.35344
-0.302821 -0.0315817 -0.353432
-0.313616 -0.0313991 -0.353422
0.31885 -0.0418696 -0.309483
0.312177 -0.0417635 -0.309477
0.302229 -0.0416055 -0.309468
0.292357 -0.0414486 -0.30946
0.279309 -0.0412412 -0.309448
0.097111 -0.0360233 -0.353779
0.0864883 -0.0358545 -0.35377
0.0759647 -0.0356873 -0.353761
0.0655388 -0.0355216 -0.353752
0.0552092 -0.0353574 -0.353743
0.203682 -0.0374562 -0.309383
0.194538 -0.0373202 -0.309375
0.18546 -0.0371853 -0.309367
0.176447 -0.0370513 -0.309359
0.269608 -0.0357855 -0.30944
0.25998 -0.0356522 -0.309432
0.250423 -0.0355199 -0.309423
0.240936 -0.0353886 -0.309415
0.23152 -0.0352583 -0.309407
0.222173 -0.0351289 -0.309399
0.135091 -0.0319009 -0.353812
0.126846 -0.0317867 -0.353805
0.115943 -0.0316358 -0.353795
0.105144 -0.0314863 -0.353786
-0.183442 -0.0274919 -0.353535
-0.193633 -0.0273509 -0.353526
-0.203719 -0.0272113 -0.353518
-0.213703 -0.0270731 -0.353509
-0.223586 -0.0269363 -0.3535
-0.23337 -0.0268009 -0.353492
-0.243055 -0.0266668 -0.353484
-0.0241125 -0.0274975 -0.353674
-0.0336318 -0.0273755 -0.353666
-0.0430669 -0.0272546 -0.353657
-0.0547444 -0.0271049 -0.353647
-0.0639944 -0.0269863 -0.353639
-0.0731639 -0.0268688 -0.353631
-0.084514 -0.0267234 -0.353621
-0.093506 -0.0266081 -0.353614
-0.104638 -0.0264655 -0.353604
-0.113457 -0.0263524 -0.353596
-0.124376 -0.0262125 -0.353587
-0.133028 -0.0261016 -0.353579
-0.143741 -0.0259643 -0.35357
-0.154342 -0.0258285 -0.353561
-0.162743 -0.0257208 -0.353553
-0.173146 -0.0255875 -0.353544
0.31885 -0.0310646 -0.309483
0.312177 -0.0309859 -0.309477
0.302229 -0.0308686 -0.309468
0.292357 -0.0307522 -0.30946
0.279309 -0.0305983 -0.309448
0.097111 -0.026727 -0.353779
0.0864883 -0.0266017 -0.35377
0.0759647 -0.0264777 -0.353761
0.0655388 -0.0263547 -0.353752
0.0552092 -0.0262329 -0.353743
0.0449748 -0.0261123 -0.353734
0.0373605 -0.0260225 -0.353727
0.0272892 -0.0259037 -0.353718
0.0173093 -0.0257861 -0.35371
0.00741979 -0.0256695 -0.353701
-0.00481704 -0.0255252 -0.353691
-0.014508 -0.0254109 -0.353682
-0.262139 -0.0224912 -0.353467
-0.267791 -0.0224245 -0.353462
-0.278994 -0.0222924 -0.353452
-0.28823 -0.0221835 -0.353444
-0.299194 -0.0220543 -0.353435
-0.308234 -0.0219477 -0.353427
-0.318967 -0.0218211 -0.353418
0.23779 -0.0274906 -0.309412
0.23152 -0.0274231 -0.309407
0.222173 -0.0273225 -0.309399
0.209816 -0.0271895 -0.309388
0.200627 -0.0270906 -0.30938
0.191505 -0.0269923 -0.309372
0.182448 -0.0268949 -0.309364
0.170474 -0.0267659 -0.309354
0.269608 -0.0251824 -0.30944
0.25998 -0.0250886 -0.309432
0.250423 -0.0249955 -0.309423
0.135091 -0.0224488 -0.353812
0.126846 -0.0223684 -0.353805
0.115943 -0.0222623 -0.353795
0.105144 -0.0221571 -0.353786
-0.162743 -0.0174901 -0.353553
-0.173146 -0.0173995 -0.353544
-0.183442 -0.0173097 -0.353535
-0.193633 -0.0172209 -0.353526
-0.203719 -0.017133 -0.353518
-0.213703 -0.017046 -0.353509
-0.223586 -0.0169599 -0.3535
-0.23337 -0.0168746 -0.353492
-0.243055 -0.0167902 -0.353484
0.31885 -0.0202595 -0.309483
0.312177 -0.0202082 -0.309477
0.302229 -0.0201317 -0.309468
0.292357 -0.0200558 -0.30946
0.279309 -0.0199554 -0.309448
0.097111 -0.0174306 -0.353779
0.0864883 -0.017349 -0.35377
0.0759647 -0.017268 -0.353761
0.0655388 -0.0171879 -0.353752
0.0552092 -0.0171084 -0.353743
0.0449748 -0.0170297 -0.353734
0.0373605 -0.0169712 -0.353727
0.0272892 -0.0168937 -0.353718
0.0173093 -0.016817 -0.35371
0.00741979 -0.016741 -0.353701
-0.00481704 -0.0166469 -0.353691
-0.014508 -0.0165723 -0.353682
-0.0241125 -0.0164985 -0.353674
-0.0336318 -0.0164253 -0.353666
-0.043067 -0.0163527 -0.353657
-0.0547444 -0.0162629 -0.353647
-0.0639944 -0.0161918 -0.353639
-0.0731639 -0.0161213 -0.353631
-0.084514 -0.016034 -0.353621
-0.093506 -0.0159649 -0.353614
-0.104638 -0.0158793 -0.353604
-0.113457 -0.0158115 -0.353596
-0.124376 -0.0157275 -0.353587
-0.133028 -0.015661 -0.353579
-0.143741 -0.0155786 -0.35357
-0.154342 -0.0154971 -0.353561
0.269608 -0.0172301 -0.30944
0.25998 -0.0171659 -0.309432
0.250423 -0.0171022 -0.309423
0.240936 -0.017039 -0.309415
0.23152 -0.0169762 -0.309407
0.222173 -0.0169139 -0.309399
0.209816 -0.0168316 -0.309388
0.200627 -0.0167703 -0.30938
0.191505 -0.0167095 -0.309372
0.182448 -0.0166492 -0.309364
0.170474 -0.0165694 -0.309354
-0.295554 -0.0124897 -0.353438
-0.302821 -0.0124413 -0.353432
-0.313616 -0.0123693 -0.353422
-0.252645 -0.0108102 -0.353475
-0.264027 -0.010746 -0.353465
-0.273409 -0.0106931 -0.353457
-0.282699 -0.0106407 -0.353449
0.318927 -0.0123156 -0.298955
0.311087 -0.0123157 -0.296555
0.300634 -0.0123158 -0.293355
0.29018 -0.012316 -0.290155
0.28234 -0.0123161 -0.287755
0.271886 -0.0123162 -0.284555
0.261432 -0.0123163 -0.281355
0.250978 -0.0123164 -0.278155
0.240524 -0.0123166 -0.274955
0.230069 -0.0123167 -0.271754
0.222228 -0.0123168 -0.269354
0.211771 -0.0123169 -0.266157
0.135091 -0.0106336 -0.353812
0.126846 -0.0105956 -0.353805
0.115943 -0.0105453 -0.353795
0.105144 -0.0104954 -0.353786
-0.0799887 -0.00749878 -0.353625
-0.0890197 -0.00746638 -0.353617
-0.097973 -0.00743425 -0.35361
-0.109057 -0.00739447 -0.3536
-0.117839 -0.00736296 -0.353592
-0.128712 -0.00732394 -0.353583
-0.13947 -0.00728534 -0.353574
-0.147995 -0.00725474 -0.353566
-0.158551 -0.00721686 -0.353557
-0.168998 -0.00717937 -0.353548
-0.179337 -0.00714227 -0.353539
-0.187531 -0.00711287 -0.353532
-0.19768 -0.00707645 -0.353523
-0.207725 -0.0070404 -0.353514
-0.217668 -0.00700472 -0.353506
-0.227511 -0.0069694 -0.353497
-0.239193 -0.00692748 -0.353487
0.097111 -0.00581022 -0.353779
0.0864883 -0.00578299 -0.35377
0.0759647 -0.00575602 -0.353761
0.0655388 -0.00572929 -0.353752
0.0552092 -0.00570282 -0.353743
0.0449748 -0.00567658 -0.353734
0.0373605 -0.00565707 -0.353727
0.0272892 -0.00563125 -0.353718
0.0173093 -0.00560567 -0.35371
0.00741979 -0.00558032 -0.353701
-0.00481704 -0.00554896 -0.353691
-0.014508 -0.00552412 -0.353682
-0.0241125 -0.0054995 -0.353674
-0.0336318 -0.0054751 -0.353666
-0.043067 -0.00545091 -0.353657
-0.0547444 -0.00542098 -0.353647
-0.0639944 -0.00539727 -0.353639
0.135091 -0.00118152 -0.353812
0.126846 -0.00117729 -0.353805
0.115943 -0.0011717 -0.353795
0.105144 -0.00116617 -0.353786
-0.24882 -0.000984711 -0.353479
-0.258353 -0.000979824 -0.35347
-0.267791 -0.000974986 -0.353462
-0.278994 -0.000969242 -0.353452
-0.28823 -0.000964508 -0.353444
-0.299194 -0.000958887 -0.353435
-0.308234 -0.000954253 -0.353427
-0.318967 -0.00094875 -0.353418
0.097111 0.00348612 -0.353779
0.0864883 0.00346978 -0.35377
0.0759647 0.0034536 -0.353761
0.0655388 0.00343756 -0.353752
0.0552092 0.00342168 -0.353743
0.0449748 0.00340594 -0.353734
0.0373605 0.00339423 -0.353727
0.0272892 0.00337874 -0.353718
0.0173093 0.00336339 -0.35371
0.00741979 0.00334818 -0.353701
-0.00481704 0.00332936 -0.353691
-0.014508 0.00331446 -0.353682
-0.0241125 0.00329969 -0.353674
-0.0336318 0.00328505 -0.353666
-0.043067 0.00327054 -0.353657
-0.0547444 0.00325258 -0.353647
-0.0639944 0.00323835 -0.353639
-0.0731639 0.00322425 -0.353631
-0.084514 0.00320679 -0.353621
-0.093506 0.00319296 -0.353614
-0.104638 0.00317585 -0.353604
-0.113457 0.00316228 -0.353596
-0.124376 0.00314549 -0.353587
-0.133028 0.00313218 -0.353579
-0.143741 0.00311571 -0.35357
-0.154342 0.0030994 -0.353561
-0.162743 0.00308648 -0.353553
-0.173146 0.00307048 -0.353544
-0.183442 0.00305465 -0.353535
-0.193633 0.00303898 -0.353526
-0.203719 0.00302347 -0.353518
-0.213703 0.00300811 -0.353509
-0.223586 0.00299291 -0.3535
-0.23337 0.00297787 -0.353492
0.135091 0.00827058 -0.353812
0.126846 0.00824099 -0.353805
0.115943 0.00820187 -0.353795
0.105144 0.00816311 -0.353786
-0.243055 0.00888894 -0.353484
-0.252645 0.0088447 -0.353475
-0.264027 0.00879218 -0.353465
-0.273409 0.00874889 -0.353457
-0.282699 0.00870603 -0.353449
-0.293728 0.00865515 -0.35344
-0.302821 0.0086132 -0.353432
-0.313616 0.00856339 -0.353422
0.097111 0.0127825 -0.353779
0.0864883 0.0127226 -0.35377
0.0759647 0.0126632 -0.353761
0.0655388 0.0126044 -0.353752
0.0552092 0.0125462 -0.353743
0.0449748 0.0147591 -0.353734
0.0373605 0.0147084 -0.353727
0.0272892 0.0146412 -0.353718
0.0173093 0.0145747 -0.35371
0.00741979 0.0145088 -0.353701
-0.00481704 0.0144273 -0.353691
-0.014508 0.0143627 -0.353682
-0.0241125 0.0142987 -0.353674
-0.0336318 0.0142352 -0.353666
-0.043067 0.0141724 -0.353657
-0.0547444 0.0140945 -0.353647
-0.0639944 0.0140329 -0.353639
-0.0731639 0.0139718 -0.353631
-0.084514 0.0138961 -0.353621
-0.093506 0.0138362 -0.353614
-0.104638 0.013762 -0.353604
-0.113457 0.0137033 -0.353596
-0.124376 0.0136305 -0.353587
-0.133028 0.0135728 -0.353579
-0.143741 0.0135014 -0.35357
-0.154342 0.0134308 -0.353561
-0.162743 0.0133748 -0.353553
-0.173146 0.0133055 -0.353544
-0.183442 0.0132369 -0.353535
-0.193633 0.0131689 -0.353526
-0.203719 0.0131017 -0.353518
-0.213703 0.0130352 -0.353509
-0.223586 0.0129693 -0.3535
-0.23337 0.0129041 -0.353492
0.135091 0.0177227 -0.353812
0.126846 0.0176593 -0.353805
0.115943 0.0175755 -0.353795
0.105144 0.0198247 -0.353786
-0.243055 0.0187655 -0.353484
-0.252645 0.0186721 -0.353475
-0.264027 0.0185613 -0.353465
-0.273409 0.0184699 -0.353457
-0.282699 0.0183794 -0.353449
-0.293728 0.018272 -0.35344
-0.302821 0.0181834 -0.353432
-0.313616 0.0180783 -0.353422
0.194512 0.028184 -0.276592
0.097111 0.0244029 -0.353779
0.0864883 0.0242885 -0.35377
0.0759647 0.0241752 -0.353761
0.0655388 0.024063 -0.353752
0.0552092 0.0239518 -0.353743
0.0449748 0.0238416 -0.353734
0.0373605 0.0237597 -0.353727
0.0272892 0.0236512 -0.353718
0.0173093 0.0235438 -0.35371
0.00741979 0.0234373 -0.353701
-0.00481704 0.0233056 -0.353691
-0.014508 0.0232013 -0.353682
-0.0241125 0.0230979 -0.353674
-0.0336318 0.0229954 -0.353666
-0.043067 0.0228938 -0.353657
-0.0547444 0.0227681 -0.353647
-0.0639944 0.0226685 -0.353639
-0.0731639 0.0225698 -0.353631
-0.084514 0.0245855 -0.353621
-0.093506 0.0244795 -0.353614
-0.104638 0.0243482 -0.353604
-0.113457 0.0242442 -0.353596
-0.124376 0.0241155 -0.353587
-0.133028 0.0240135 -0.353579
-0.143741 0.0238872 -0.35357
-0.154342 0.0237622 -0.353561
-0.162743 0.0236631 -0.353553
-0.173146 0.0235405 -0.353544
-0.183442 0.0234191 -0.353535
-0.193633 0.0232989 -0.353526
-0.203719 0.02318 -0.353518
-0.213703 0.0230623 -0.353509
-0.223586 0.0229457 -0.3535
-0.23337 0.0228304 -0.353492
0.135091 0.0295378 -0.353812
0.126846 0.0294321 -0.353805
0.115943 0.0292924 -0.353795
0.105144 0.029154 -0.353786
0.192679 0.0359048 -0.283329
0.186701 0.0382845 -0.287237
0.097111 0.0336993 -0.353779
0.0864883 0.0335413 -0.35377
0.0759647 0.0333849 -0.353761
0.0655388 0.0332299 -0.353752
0.0552092 0.0330763 -0.353743
0.0449748 0.0329242 -0.353734
0.0373605 0.032811 -0.353727
0.0272892 0.0326612 -0.353718
0.0173093 0.0325129 -0.35371
-0.243055 0.0286421 -0.353484
-0.252645 0.0284996 -0.353475
-0.264027 0.0283304 -0.353465
-0.273409 0.0281909 -0.353457
-0.282699 0.0280528 -0.353449
-0.293728 0.0278888 -0.35344
-0.302821 0.0277536 -0.353432
-0.313616 0.0275931 -0.353422
0.00741979 0.034598 -0.353701
-0.00481704 0.0344035 -0.353691
-0.014508 0.0342495 -0.353682
-0.0241125 0.0340969 -0.353674
-0.0336318 0.0339456 -0.353666
-0.043067 0.0337956 -0.353657
-0.0547444 0.0336101 -0.353647
-0.0639944 0.0334631 -0.353639
-0.0731639 0.0333173 -0.353631
-0.084514 0.033137 -0.353621
-0.093506 0.0329941 -0.353614
-0.104638 0.0328172 -0.353604
-0.113457 0.032677 -0.353596
-0.124376 0.0325035 -0.353587
0.19547 0.0436747 -0.287943
0.135091 0.03899 -0.353812
0.126846 0.0388505 -0.353805
0.115943 0.038666 -0.353795
0.105144 0.0384833 -0.353786
-0.133028 0.0344541 -0.353579
-0.143741 0.0342729 -0.35357
-0.154342 0.0340936 -0.353561
-0.162743 0.0339514 -0.353553
-0.173146 0.0337754 -0.353544
-0.183442 0.0336013 -0.353535
-0.193633 0.0334289 -0.353526
-0.203719 0.0332582 -0.353518
-0.213703 0.0330893 -0.353509
-0.223586 0.0329222 -0.3535
-0.23337 0.0327566 -0.353492
0.185485 0.0458397 -0.29307
0.097111 0.0429956 -0.353779
0.0864883 0.0427941 -0.35377
0.0759647 0.0425945 -0.353761
0.0655388 0.0446884 -0.353752
0.0552092 0.0444819 -0.353743
0.0449748 0.0442773 -0.353734
0.0373605 0.0441251 -0.353727
0.0272892 0.0439237 -0.353718
0.0173093 0.0437242 -0.35371
0.00741979 0.0435265 -0.353701
-0.00481704 0.0432818 -0.353691
-0.014508 0.0430881 -0.353682
-0.0241125 0.042896 -0.353674
-0.0336318 0.0427057 -0.353666
-0.043067 0.0425171 -0.353657
-0.243055 0.0385187 -0.353484
-0.252645 0.038327 -0.353475
-0.264027 0.0380994 -0.353465
-0.273409 0.0379119 -0.353457
-0.282699 0.0377261 -0.353449
-0.293728 0.0375056 -0.35344
0.196101 0.053766 -0.295327
0.185989 0.0534703 -0.296522
0.177247 0.0533236 -0.295977
0.165437 0.0531024 -0.295576
0.156435 0.0529126 -0.295577
0.147497 0.0527241 -0.295578
0.135413 0.0524416 -0.29598
0.126362 0.0522225 -0.296391
0.13012 0.0539847 -0.272014
0.12135 0.0538222 -0.27169
0.111294 0.0538191 -0.268665
0.0972164 0.0529079 -0.277565
0.0830084 0.0516009 -0.292158
0.0773285 0.0514767 -0.292223
0.0660502 0.0512301 -0.292352
-0.0547444 0.044452 -0.353647
-0.0639944 0.0442576 -0.353639
-0.0731639 0.0440649 -0.353631
-0.084514 0.0438263 -0.353621
-0.093506 0.0436373 -0.353614
-0.104638 0.0434034 -0.353604
-0.113457 0.043218 -0.353596
-0.124376 0.0429885 -0.353587
-0.133028 0.0428066 -0.353579
-0.143741 0.0425815 -0.35357
-0.302821 0.0392379 -0.353432
-0.313616 0.039011 -0.353422
0.193468 0.0591722 -0.256081
0.185351 0.0588135 -0.258557
0.177482 0.0584781 -0.260786
0.165845 0.0579822 -0.264082
0.154403 0.0574946 -0.267323
0.146882 0.0571741 -0.269453
0.0568531 0.0534096 -0.293957
0.0457921 0.0531564 -0.294077
0.0348355 0.0529056 -0.294195
0.0266857 0.052719 -0.294284
0.0160868 0.0525036 -0.294023
0.00576738 0.052325 -0.293339
-0.00448212 0.0521475 -0.292661
-0.0146623 0.0519713 -0.291987
-0.0247739 0.0517962 -0.291317
-0.0348683 0.0516118 -0.290783
-0.0436229 0.0517023 -0.28686
-0.154342 0.0444249 -0.353561
-0.162743 0.0442397 -0.353553
-0.173146 0.0440104 -0.353544
-0.183442 0.0437834 -0.353535
-0.193633 0.0435588 -0.353526
-0.203719 0.0433365 -0.353518
-0.213703 0.0431164 -0.353509
-0.223586 0.0428985 -0.3535
-0.23337 0.0426829 -0.353492
-0.054133 0.054339 -0.280591
-0.0644787 0.0546365 -0.273506
-0.0728947 0.053673 -0.283652
-0.0840768 0.0525271 -0.29536
-0.0917172 0.0516693 -0.304347
-0.0989153 0.0514972 -0.30442
-0.108438 0.0512696 -0.304517
-0.117878 0.0510439 -0.304613
-0.129561 0.0507646 -0.304732
-0.138815 0.0505434 -0.304826
-0.14799 0.0503241 -0.304919
0.156427 0.0627671 -0.268899
0.0905831 0.0595931 -0.288901
0.0803848 0.0587286 -0.296711
0.0719453 0.0585183 -0.296791
-0.159612 0.052165 -0.306371
-0.168589 0.0519413 -0.306457
-0.179645 0.0516932 -0.306216
-0.188353 0.0515294 -0.305627
-0.199161 0.0513261 -0.304897
-0.20775 0.0511617 -0.30435
-0.217931 0.0513341 -0.299065
-0.228043 0.0516371 -0.292149
-0.237783 0.0501552 -0.3079
-0.248766 0.049036 -0.318688
0.14527 0.0649077 -0.27192
0.136347 0.0647026 -0.271681
0.1271 0.0644392 -0.272051
0.116977 0.0640259 -0.27397
0.103666 0.0634805 -0.276515
0.00587568 0.0591724 -0.298871
-0.00462201 0.0589044 -0.298914
-0.014713 0.058707 -0.298225
-0.0247366 0.058511 -0.297541
-0.0347015 0.0583144 -0.296881
-0.0426566 0.0585924 -0.291084
-0.258915 0.0507433 -0.320186
-0.266662 0.0512644 -0.311505
-0.272585 0.0516254 -0.305321
-0.279698 0.0703152 -0.0766437
-0.285204 0.0711223 -0.0651801
-0.310153 0.0895294 0.165518
-0.310041 0.0789189 0.036891
-0.309952 0.0705569 -0.0644777
-0.30988 0.0637971 -0.146423
-0.309821 0.0582194 -0.21404
-0.309771 0.0535385 -0.270783
-0.311139 0.0521916 -0.286689
-0.319142 0.0519906 -0.286682
0.197464 0.0699971 -0.259442
0.185461 0.0693849 -0.262907
0.173665 0.0687832 -0.266311
0.165914 0.0683879 -0.268548
0.0619293 0.0629733 -0.299849
0.0509093 0.0626766 -0.29994
-0.0900815 0.0583898 -0.306811
-0.097754 0.0580426 -0.308511
-0.109586 0.057724 -0.308609
0.0992714 0.0678826 -0.283913
0.0419511 0.0647535 -0.301474
0.0311397 0.0644515 -0.301557
0.0204287 0.0641523 -0.301639
-0.0535951 0.0635098 -0.286238
-0.0638583 0.0638549 -0.279238
-0.0717044 0.0628911 -0.287642
-0.119316 0.0595955 -0.310033
-0.128585 0.0593366 -0.310103
-0.137774 0.05908 -0.310174
-0.149149 0.0587623 -0.310261
-0.158162 0.0585106 -0.310329
-0.169319 0.0581989 -0.310415
-0.17816 0.057952 -0.310482
-0.189106 0.0576463 -0.310566
-0.216281 0.0575121 -0.303773
-0.2243 0.0577817 -0.298304
-0.234431 0.0581222 -0.291397
-0.239192 0.0573791 -0.298269
0.155832 0.0733514 -0.269792
0.146894 0.0731316 -0.269435
0.134707 0.0727793 -0.26952
0.125644 0.0725172 -0.269582
0.0879503 0.0687995 -0.298215
0.0797403 0.0681556 -0.302661
0.0713728 0.0679135 -0.30272
-0.0798111 0.0641383 -0.297326
-0.197959 0.0594457 -0.311922
-0.244118 0.0583674 -0.309472
-0.272648 0.0576057 -0.308987
-0.280632 0.0580826 -0.3014
-0.285189 0.0791998 -0.0720029
-0.290775 0.0800873 -0.0607143
-0.310041 0.0885824 0.036891
-0.309952 0.0791965 -0.0644777
-0.311139 0.0585825 -0.286689
-0.319142 0.0583568 -0.286682
0.194147 0.0776921 -0.264055
0.116416 0.0748415 -0.270022
0.0111036 0.0684391 -0.304573
0.000619292 0.0681255 -0.30464
-0.00976938 0.0678146 -0.304707
-0.0200636 0.0675066 -0.304773
-0.0402033 0.06757 -0.297964
-0.0918595 0.0646584 -0.312527
-0.252711 0.0595513 -0.316627
-0.259037 0.0587325 -0.323227
-0.2668 0.0591379 -0.316633
-0.30988 0.074213 -0.146423
-0.309821 0.0677246 -0.21404
0.185124 0.0797687 -0.267838
0.174877 0.0793364 -0.26906
0.165926 0.0791174 -0.268532
-0.0281952 0.0695095 -0.305972
-0.0486416 0.070127 -0.293515
-0.0851192 0.0677496 -0.306306
-0.208769 0.0633576 -0.312763
-0.309771 0.0644648 -0.270783
0.10568 0.0784343 -0.282898
0.0606388 0.07453 -0.307156
0.0524551 0.074269 -0.307198
0.0416323 0.0739238 -0.307254
0.0309096 0.0735818 -0.30731
0.0202856 0.073243 -0.307365
-0.0591614 0.0727757 -0.287659
-0.0997728 0.0686679 -0.315251
-0.109137 0.0683693 -0.315299
-0.118421 0.0680732 -0.315347
-0.127624 0.0677797 -0.315394
-0.290716 0.0881192 -0.0675943
-0.293533 0.0886118 -0.0619388
-0.309952 0.0878361 -0.0644777
0.154987 0.0843487 -0.266442
0.145744 0.0840414 -0.266516
0.136567 0.0837363 -0.26659
0.127457 0.0834335 -0.266664
0.0953706 0.07936 -0.295265
0.0853875 0.0777618 -0.307282
-0.0711779 0.0741486 -0.293541
-0.139325 0.0694783 -0.316759
-0.148332 0.0691823 -0.316799
-0.159483 0.0688158 -0.31685
-0.168319 0.0685253 -0.31689
-0.179258 0.0681667 -0.316931
-0.187899 0.0679025 -0.316783
-0.198607 0.0675752 -0.316599
-0.21885 0.0678415 -0.307908
-0.228824 0.0682364 -0.301141
-0.238914 0.0686359 -0.294295
-0.242656 0.069356 -0.286365
-0.288706 0.0665551 -0.298707
0.0754929 0.079605 -0.309976
-0.0872424 0.0738395 -0.312966
-0.245954 0.069336 -0.305656
-0.254612 0.068135 -0.313986
-0.274715 0.067555 -0.313147
-0.30988 0.0846289 -0.146423
-0.311139 0.0692338 -0.286689
-0.319142 0.0689671 -0.286682
0.0104097 0.0796356 -0.311544
0.000135213 0.0793027 -0.311358
-0.00751451 0.0790548 -0.311219
-0.0176391 0.078727 -0.311034
-0.0276787 0.0784023 -0.310847
-0.0386436 0.0784713 -0.306887
-0.0481534 0.0790362 -0.298977
-0.24166 0.0755697 -0.270625
-0.262947 0.0691305 -0.321199
-0.299136 0.0976402 -0.0574589
-0.309821 0.0796061 -0.21404
-0.309771 0.0732057 -0.270783
0.104475 0.0878907 -0.289674
0.0656107 0.0838162 -0.312876
0.0574569 0.0835243 -0.312898
0.0466731 0.0831384 -0.312928
0.0359886 0.082756 -0.312957
0.0254019 0.0823771 -0.312985
-0.0768717 0.0798771 -0.303278
-0.207509 0.0733295 -0.319746
-0.241144 0.0787923 -0.262462
-0.282657 0.0720185 -0.308087
-0.290696 0.0726127 -0.300518
0.0926909 0.0882434 -0.304434
0.0840001 0.0867514 -0.31426
-0.0589557 0.0839301 -0.294213
-0.0700122 0.0831419 -0.29743
-0.0947536 0.0793215 -0.321831
-0.104069 0.0789791 -0.32185
-0.113305 0.0786397 -0.321869
-0.124739 0.0782195 -0.321893
-0.133798 0.0778865 -0.321912
-0.142781 0.0775564 -0.321931
-0.246826 0.0782442 -0.284413
0.0749009 0.0886765 -0.315701
-0.0384004 0.0848077 -0.312583
-0.154123 0.0791856 -0.322987
-0.162884 0.0788779 -0.322816
-0.173739 0.0784966 -0.322603
-0.18449 0.0781191 -0.322392
-0.193016 0.0778202 -0.322221
-0.217652 0.077593 -0.316548
-0.229301 0.0783745 -0.306634
-0.239305 0.0788293 -0.29988
-0.240072 0.0854838 -0.245512
-0.250069 0.0777798 -0.305131
-0.311139 0.0777549 -0.286689
0.0261348 0.0890944 -0.31674
0.0158003 0.0887221 -0.316532
0.00555179 0.088353 -0.316327
-0.00445232 0.0880372 -0.315773
-0.0145997 0.0876537 -0.315711
-0.0481709 0.0876266 -0.305677
-0.0830278 0.0851455 -0.31468
-0.239212 0.0895755 -0.231921
-0.245931 0.0846828 -0.268609
-0.2586 0.0786759 -0.312304
-0.264852 0.0776662 -0.31839
-0.278713 0.0775089 -0.315404
-0.304623 0.108881 -0.059094
-0.309821 0.0891113 -0.21404
-0.319142 0.0795774 -0.286682
0.0841914 0.0935369 -0.318526
0.0651031 0.0927805 -0.318532
-0.02479 0.0895554 -0.31596
-0.0719441 0.0893511 -0.303141
-0.225889 0.119794 -0.0213536
-0.245467 0.0880222 -0.260412
-0.272884 0.07885 -0.322781
-0.309771 0.084132 -0.270783
0.100096 0.0988713 -0.301546
0.0563064 0.0946636 -0.319806
0.0457551 0.0942647 -0.319584
0.0353491 0.0938858 -0.319255
-0.0585468 0.0926244 -0.300071
-0.0882677 0.088296 -0.323533
-0.203889 0.0834918 -0.324348
-0.214316 0.0830945 -0.324151
-0.227725 0.0840958 -0.312531
-0.251526 0.0857382 -0.292918
-0.28862 0.0821566 -0.308516
-0.296679 0.0828319 -0.300979
0.0770372 0.0977147 -0.321337
-0.0325263 0.0938076 -0.316531
-0.043935 0.0936731 -0.314035
-0.0990773 0.0894306 -0.328303
-0.108266 0.0890491 -0.328295
-0.119608 0.0885948 -0.328163
-0.128577 0.0882477 -0.32797
-0.139686 0.0878194 -0.327718
-0.148359 0.0875687 -0.326908
-0.240917 0.098078 -0.221602
-0.244504 0.0949566 -0.243392
0.0937139 0.102148 -0.311972
0.0253454 0.0983463 -0.318299
0.0153907 0.0980514 -0.317369
0.00519219 0.0976555 -0.317088
-0.0780866 0.0945053 -0.314202
-0.159129 0.0894133 -0.325892
-0.167702 0.0891516 -0.325148
-0.178497 0.0887008 -0.325077
-0.189183 0.0882545 -0.325008
-0.237714 0.088706 -0.306961
-0.244004 0.0985581 -0.234551
-0.256276 0.0881135 -0.305534
-0.311139 0.0884063 -0.286689
-0.319142 0.0880657 -0.286682
-0.00261927 0.0996299 -0.317349
-0.0127599 0.0991966 -0.317281
-0.0228128 0.0987669 -0.317214
-0.0541231 0.0986697 -0.308334
-0.0708277 0.0981257 -0.307035
-0.25273 0.0949589 -0.273625
-0.262594 0.0892326 -0.31062
-0.270833 0.087711 -0.318735
-0.284632 0.0875276 -0.315803
-0.292578 0.08824 -0.3084
-0.302695 0.089147 -0.298975
0.086475 0.105015 -0.323797
0.0657822 0.104345 -0.322052
0.0555837 0.104028 -0.3211
0.0454468 0.103713 -0.320153
0.0353711 0.1034 -0.319213
-0.0834185 0.0975194 -0.323089
-0.242365 0.107624 -0.205593
-0.252355 0.098389 -0.265577
-0.278766 0.088848 -0.322639
0.102372 0.110667 -0.307042
-0.0330311 0.102865 -0.317762
-0.0933129 0.0979719 -0.332007
-0.10448 0.0976172 -0.330965
-0.197774 0.0941228 -0.325798
-0.208254 0.0936542 -0.325725
-0.218629 0.0931903 -0.325653
-0.22829 0.0937759 -0.318796
-0.25197 0.101905 -0.257329
0.10815 0.114146 -0.302332
0.096253 0.111358 -0.316891
0.0760556 0.109479 -0.322989
0.025252 0.107793 -0.318483
-0.0430211 0.104673 -0.317999
-0.0733854 0.103787 -0.314509
-0.113352 0.0995243 -0.330126
-0.124375 0.0991663 -0.329097
-0.133136 0.0988818 -0.328279
-0.144017 0.0985284 -0.327263
-0.152666 0.0982475 -0.326456
-0.163581 0.0977575 -0.326321
-0.245271 0.110987 -0.215047
-0.248503 0.108179 -0.232388
0.0919947 0.112529 -0.323746
0.0173113 0.109742 -0.318741
0.00701538 0.109261 -0.318666
-0.00319093 0.108785 -0.318593
-0.0133086 0.108313 -0.31852
-0.0233389 0.107844 -0.318447
-0.0594315 0.107537 -0.309389
-0.17445 0.0993537 -0.326529
-0.18302 0.0989536 -0.326468
-0.238167 0.098405 -0.313135
-0.255874 0.108355 -0.244196
-0.26244 0.098355 -0.306043
-0.312359 0.132348 -0.0737423
0.107616 0.118277 -0.307712
0.0658066 0.113947 -0.32201
0.0556073 0.113602 -0.321058
0.0454696 0.113258 -0.320111
0.035384 0.112913 -0.319188
-0.257719 0.112361 -0.233153
-0.268669 0.0993417 -0.311196
-0.276771 0.097679 -0.319116
-0.292474 0.0975149 -0.315347
-0.298433 0.098 -0.310496
0.101407 0.118848 -0.317562
-0.052683 0.111155 -0.317617
-0.0771431 0.108649 -0.32549
-0.193721 0.102597 -0.326953
-0.254326 0.119409 -0.205524
-0.257006 0.117932 -0.213748
-0.282672 0.098646 -0.323984
0.0812353 0.119294 -0.323427
-0.0336592 0.114136 -0.319293
-0.0435015 0.113647 -0.319218
-0.0840788 0.109431 -0.332123
-0.0932971 0.108989 -0.331958
-0.104465 0.108594 -0.330915
-0.113341 0.108281 -0.330087
-0.124364 0.107891 -0.329057
-0.133126 0.107582 -0.32824
-0.204259 0.104142 -0.327154
-0.21258 0.103729 -0.327091
-0.22289 0.103218 -0.327012
-0.264151 0.11927 -0.218126
0.027058 0.119462 -0.32007
0.016695 0.118938 -0.31999
0.00642258 0.118418 -0.31991
-0.0037604 0.117902 -0.319831
-0.0673499 0.114925 -0.317924
-0.144165 0.10924 -0.327899
-0.152965 0.108795 -0.327831
-0.163865 0.108243 -0.327747
-0.172505 0.107806 -0.32768
-0.263607 0.125144 -0.197921
0.0920504 0.124647 -0.323656
0.0709544 0.12374 -0.322446
0.0607231 0.123364 -0.321491
0.0505382 0.122984 -0.32057
-0.0139914 0.119656 -0.320061
-0.0239935 0.11914 -0.319982
-0.0534887 0.117618 -0.319749
-0.183255 0.109337 -0.327878
-0.232822 0.10745 -0.323622
-0.240525 0.108134 -0.317325
0.11231 0.129924 -0.313685
0.103114 0.127667 -0.323643
0.0424371 0.124891 -0.320822
-0.276722 0.108782 -0.314488
-0.298227 0.106847 -0.318863
0.0812608 0.128943 -0.323385
-0.0341594 0.123112 -0.320513
-0.04398 0.122586 -0.320433
-0.0712069 0.119577 -0.328819
-0.0793914 0.118543 -0.33206
-0.0887023 0.118031 -0.332056
-0.0977616 0.117633 -0.3315
-0.19393 0.11291 -0.328355
-0.282667 0.109634 -0.319444
0.0316236 0.128943 -0.321363
0.0212391 0.128377 -0.321277
0.0109453 0.127816 -0.321192
-0.108895 0.119401 -0.330451
-0.117746 0.119056 -0.329625
-0.128887 0.118515 -0.329172
-0.137796 0.118029 -0.329099
-0.204442 0.114396 -0.328547
-0.212743 0.113943 -0.328479
-0.223029 0.113382 -0.328394
-0.233103 0.113075 -0.326991
0.0948488 0.134501 -0.323585
0.0709791 0.13336 -0.322403
0.0604798 0.132851 -0.32192
0.000596911 0.129529 -0.321415
-0.00951299 0.128967 -0.32133
-0.0195358 0.128411 -0.321246
-0.148894 0.119525 -0.329293
-0.157637 0.11904 -0.32922
-0.168465 0.118439 -0.329128
-0.179185 0.117844 -0.329038
-0.303993 0.11259 -0.319047
0.11152 0.137895 -0.323574
0.052321 0.134724 -0.322167
0.0417638 0.134128 -0.322077
-0.0540586 0.128717 -0.321257
-0.0626767 0.12751 -0.324971
-0.242847 0.117713 -0.321451
-0.29419 0.113455 -0.328153
0.0866285 0.13887 -0.323546
-0.0746825 0.127697 -0.331996
0.0309761 0.138122 -0.32261
0.0206157 0.137517 -0.322519
-0.0298537 0.134569 -0.322074
-0.039689 0.133994 -0.321987
-0.0840295 0.129359 -0.331976
-0.0932686 0.128825 -0.331869
-0.104438 0.128358 -0.330826
-0.113447 0.127888 -0.33046
-0.187817 0.123544 -0.329805
-0.19833 0.12293 -0.329713
0.0948938 0.144212 -0.323514
0.0758564 0.143086 -0.323324
0.0101961 0.139186 -0.322736
2.11298e-05 0.138582 -0.322645
-0.0075523 0.138132 -0.322578
-0.0175741 0.137537 -0.322488
-0.122544 0.129476 -0.330668
-0.133709 0.128813 -0.330569
-0.142559 0.128287 -0.330489
-0.153521 0.127637 -0.330391
-0.208773 0.124355 -0.329897
-0.219075 0.123744 -0.329805
-0.229275 0.123138 -0.329714
-0.239251 0.122887 -0.327921
0.0569268 0.144283 -0.32347
0.0463477 0.143645 -0.323374
-0.0496729 0.137849 -0.322502
-0.164428 0.129066 -0.330576
-0.173025 0.128547 -0.330498
-0.298015 0.123396 -0.327464
-0.0278938 0.143636 -0.323308
-0.0377284 0.143024 -0.323216
-0.0595525 0.141664 -0.323012
-0.0690078 0.141141 -0.322608
-0.0840075 0.138219 -0.33191
-0.093256 0.137642 -0.331829
-0.116113 0.138341 -0.331879
-0.122853 0.137915 -0.331815
-0.183815 0.134058 -0.331238
-0.194344 0.133392 -0.331138
-0.202693 0.132864 -0.331059
-0.149467 0.138315 -0.331846
-0.15817 0.137756 -0.331763
-0.213068 0.13423 -0.331235
-0.223304 0.133572 -0.331137
-0.233441 0.132921 -0.33104
-0.245344 0.132609 -0.328842
