ply
format ascii 1.0
comment Created by Open3D
element vertex 716
property double x
property double y
property double z
end_header
-0.0597813 -0.147672 -0.461558
-0.0334638 -0.14842 -0.456119
-0.0737771 -0.146221 -0.440784
-0.077336 -0.148508 -0.42185
-0.0128466 -0.148257 -0.451857
-0.0810078 -0.147879 -0.402314
0.0085727 -0.148088 -0.44743
-0.084649 -0.147265 -0.382014
0.0308421 -0.147913 -0.442827
-0.0879362 -0.146736 -0.360598
0.0540131 -0.14773 -0.438038
-0.0467842 -0.134979 -0.458871
-0.0737771 -0.134639 -0.440784
-0.090764 -0.145759 -0.342175
-0.0942692 -0.148377 -0.319338
0.0781415 -0.14754 -0.43305
-0.0266764 -0.134565 -0.454715
-0.0791574 -0.134858 -0.412159
-0.09697 -0.147465 -0.299342
0.111907 -0.148385 -0.426071
-0.0661616 -0.126827 -0.462877
-0.0994692 -0.146589 -0.2784
-0.0128448 -0.130287 -0.451856
-0.101529 -0.145201 -0.261146
-0.104181 -0.147655 -0.238921
0.0308448 -0.132343 -0.442825
-0.089623 -0.132442 -0.349609
-0.092501 -0.134406 -0.330858
-0.105991 -0.146324 -0.22015
-0.107663 -0.148494 -0.200603
0.0540159 -0.131846 -0.438036
-0.0828878 -0.124972 -0.392311
-0.0862784 -0.127096 -0.371399
-0.09697 -0.134501 -0.299342
-0.109385 -0.147181 -0.180468
0.0864103 -0.132238 -0.43134
-0.111159 -0.145829 -0.159717
-0.112454 -0.148217 -0.137618
0.111909 -0.131713 -0.426071
0.0699924 -0.127208 -0.434733
-0.0467842 -0.114659 -0.458871
-0.0749511 -0.114961 -0.434538
-0.100492 -0.130978 -0.26983
-0.113347 -0.146381 -0.120419
-0.0708941 -0.110063 -0.456123
-0.104181 -0.130683 -0.238921
-0.114573 -0.145114 -0.0968009
-0.115201 -0.146366 -0.0846862
-0.0128448 -0.112316 -0.451856
-0.0334627 -0.110213 -0.456118
-0.0862784 -0.114846 -0.371399
-0.107663 -0.131024 -0.200603
-0.11591 -0.145201 -0.058974
-0.116279 -0.147286 -0.0387907
0.0159018 -0.112176 -0.445914
-0.090764 -0.114413 -0.342175
-0.105991 -0.125667 -0.22015
-0.110265 -0.13043 -0.170171
-0.112749 -0.134135 -0.131933
-0.11666 -0.145448 -0.018019
-0.116941 -0.147624 0.00353706
0.0699937 -0.114327 -0.434732
-0.114573 -0.133807 -0.0968009
-0.115201 -0.134961 -0.0846862
-0.116705 -0.145126 0.018946
-0.116342 -0.147509 0.0426919
-0.0942692 -0.110086 -0.319338
-0.111871 -0.12522 -0.148848
-0.116032 -0.134219 -0.0523099
-0.116093 -0.14494 0.0589606
-0.115839 -0.146563 0.0755934
0.111909 -0.111706 -0.426071
0.0461898 -0.105716 -0.439653
-0.0803877 -0.0998158 -0.405613
-0.0979599 -0.109278 -0.291047
-0.100492 -0.111083 -0.26983
-0.105174 -0.114502 -0.229711
-0.116405 -0.132209 -0.0319334
-0.116789 -0.134144 -0.01096
-0.114592 -0.144942 0.102711
-0.113675 -0.146763 0.121456
0.0947931 -0.106858 -0.429607
-0.108517 -0.114402 -0.190611
-0.116465 -0.134308 0.0346906
-0.112735 -0.144193 0.140678
-0.111583 -0.146094 0.16073
-0.109794 -0.148189 0.182422
-0.0533225 -0.090877 -0.460223
-0.0708941 -0.0900517 -0.456123
-0.0767351 -0.0923927 -0.425047
-0.0841121 -0.0953744 -0.385513
-0.102579 -0.105849 -0.252345
-0.111871 -0.114331 -0.148848
-0.115839 -0.133818 0.0755934
-0.107953 -0.145718 0.204746
-0.107012 -0.146786 0.216153
-0.0128448 -0.0913507 -0.451856
-0.0334627 -0.0896399 -0.456118
-0.106821 -0.105782 -0.210449
-0.110265 -0.108989 -0.170171
-0.114573 -0.114961 -0.0968009
-0.113675 -0.13362 0.121456
-0.104814 -0.144301 0.239996
-0.101784 -0.14672 0.266054
0.0308455 -0.091862 -0.442825
-0.0884951 -0.0913956 -0.356957
-0.0954658 -0.0946984 -0.311542
-0.11591 -0.114225 -0.058974
-0.116093 -0.123935 0.0589606
-0.110695 -0.133552 0.171499
-0.0986496 -0.144329 0.293001
-0.0970422 -0.14557 0.306822
-0.0925291 -0.148395 0.337631
0.0781469 -0.0924156 -0.433047
0.0619512 -0.0911598 -0.436395
-0.112749 -0.104736 -0.131933
-0.116405 -0.112476 -0.0319334
-0.116789 -0.114123 -0.01096
-0.114592 -0.123309 0.102711
-0.0876526 -0.146243 0.370037
-0.0851402 -0.147726 0.386733
0.111909 -0.0916986 -0.426071
-0.0803877 -0.0819383 -0.405613
-0.0919186 -0.0867115 -0.334652
-0.0979599 -0.0897061 -0.291047
-0.100492 -0.0911872 -0.26983
-0.105991 -0.0946806 -0.22015
-0.115201 -0.104547 -0.0846862
-0.116465 -0.113645 0.0346906
-0.10888 -0.126296 0.193504
-0.0816514 -0.144205 0.405695
-0.0780461 -0.145915 0.425178
-0.0743544 -0.147665 0.445127
-0.104181 -0.0899505 -0.238921
-0.109385 -0.0939832 -0.180468
-0.115486 -0.113251 0.0844248
-0.107012 -0.123486 0.216153
-0.101784 -0.127478 0.266054
-0.0901151 -0.134629 0.353673
-0.0841121 -0.0772078 -0.385513
-0.107663 -0.0890961 -0.200603
-0.113208 -0.112421 0.131006
-0.112255 -0.11386 0.150474
-0.0986496 -0.124759 0.293001
-0.0970422 -0.125832 0.306822
-0.0334627 -0.0720058 -0.456118
-0.0533225 -0.0706821 -0.460223
-0.0708941 -0.0700402 -0.456123
-0.0767351 -0.071861 -0.425047
-0.0857322 -0.0748176 -0.374958
-0.113954 -0.0915626 -0.10871
-0.11591 -0.0948648 -0.058974
-0.109794 -0.111711 0.182422
-0.107953 -0.113336 0.204746
-0.104814 -0.115914 0.239996
-0.0876526 -0.125718 0.370037
-0.0851402 -0.126992 0.386733
-0.0743544 -0.131556 0.445127
0.0159018 -0.0722228 -0.445914
-0.0128448 -0.070385 -0.451856
-0.111159 -0.0846168 -0.159717
-0.11666 -0.0936443 -0.018019
-0.101784 -0.113047 0.266054
-0.0816514 -0.12323 0.405695
-0.0780461 -0.124691 0.425178
0.0619512 -0.0719683 -0.436395
-0.093087 -0.0713679 -0.327041
-0.112454 -0.082343 -0.137618
-0.116941 -0.091001 0.00353706
-0.116093 -0.0945264 0.0589606
-0.114592 -0.0973493 0.102711
-0.107012 -0.104847 0.216153
-0.0901151 -0.114307 0.353673
0.111909 -0.0716916 -0.426071
0.086413 -0.0702005 -0.431338
0.0384666 -0.067396 -0.441249
-0.0822578 -0.0645724 -0.395663
-0.0901918 -0.0671963 -0.345903
-0.0974634 -0.0699068 -0.295208
-0.100492 -0.0712918 -0.26983
-0.106821 -0.0745676 -0.210449
-0.116279 -0.0844442 -0.0387907
-0.116342 -0.0893364 0.0426919
-0.113675 -0.0941911 0.121456
-0.0970422 -0.106093 0.306822
-0.104181 -0.0695844 -0.238921
-0.116705 -0.0838051 0.018946
-0.115839 -0.087088 0.0755934
-0.10888 -0.0941477 0.193504
-0.104814 -0.0969895 0.239996
-0.0876526 -0.105192 0.370037
-0.0851402 -0.106259 0.386733
-0.0743544 -0.110078 0.445127
-0.115201 -0.0741333 -0.0846862
-0.114592 -0.0843695 0.102711
-0.112735 -0.0865158 0.140678
-0.101784 -0.0938048 0.266054
-0.0986496 -0.095404 0.293001
-0.0780461 -0.103467 0.425178
-0.0266764 -0.0547133 -0.454715
-0.0785471 -0.0546889 -0.415406
-0.108517 -0.065121 -0.190611
-0.113954 -0.0691391 -0.10871
-0.11666 -0.07372 -0.018019
-0.111583 -0.0831613 0.16073
-0.0901151 -0.0939861 0.353673
-0.0876526 -0.0949296 0.370037
-0.0816514 -0.0970108 0.405695
-0.0128448 -0.0524143 -0.451856
-0.0533225 -0.0504872 -0.460223
-0.0708941 -0.0500287 -0.456123
-0.0901918 -0.0546946 -0.345903
-0.112749 -0.0643115 -0.131933
-0.116941 -0.0707786 0.00353706
-0.116093 -0.0735205 0.0589606
-0.115839 -0.0743434 0.0755934
-0.106057 -0.0821494 0.227729
-0.103311 -0.083484 0.252917
-0.0970422 -0.086355 0.306822
0.0947931 -0.0542509 -0.429607
0.0540173 -0.0524206 -0.438035
0.0308455 -0.0513804 -0.442825
-0.093087 -0.0523365 -0.327041
-0.101009 -0.0548936 -0.265502
-0.110265 -0.0589614 -0.170171
-0.11591 -0.0638885 -0.058974
-0.116279 -0.064806 -0.0387907
-0.116342 -0.0685605 0.0426919
-0.112735 -0.0732056 0.140678
-0.0851402 -0.0855255 0.386733
-0.0743544 -0.0885992 0.445127
0.111909 -0.0516847 -0.426071
-0.0857322 -0.0473336 -0.374958
-0.0974634 -0.0503979 -0.295208
-0.103643 -0.0524353 -0.243426
-0.108517 -0.0545609 -0.190611
-0.111871 -0.0562582 -0.148848
-0.109794 -0.0706746 0.182422
-0.101784 -0.0745628 0.266054
-0.0986496 -0.0758339 0.293001
-0.0780461 -0.0822429 0.425178
0.0699937 -0.0466968 -0.434732
-0.114573 -0.0546534 -0.0968009
-0.113675 -0.0635242 0.121456
-0.107953 -0.0670766 0.204746
-0.0901151 -0.0736648 0.353673
-0.0876526 -0.0744043 0.370037
-0.0816514 -0.0760355 0.405695
-0.105581 -0.0463104 -0.224948
-0.11666 -0.0537956 -0.018019
-0.116705 -0.0551887 0.018946
-0.107012 -0.0629081 0.216153
-0.104814 -0.0638711 0.239996
-0.0970422 -0.0666168 0.306822
-0.0743544 -0.0724902 0.445127
-0.116941 -0.0505561 0.00353706
-0.116342 -0.0519398 0.0426919
-0.115486 -0.0534203 0.0844248
-0.114592 -0.054083 0.102711
-0.111583 -0.05619 0.16073
-0.0851402 -0.0647921 0.386733
0.00134319 -0.0348876 -0.448923
-0.0822578 -0.0345388 -0.395663
-0.110265 -0.0410944 -0.170171
-0.112454 -0.0420865 -0.137618
-0.115201 -0.0437196 -0.0846862
-0.11591 -0.0445284 -0.058974
-0.109794 -0.052436 0.182422
-0.107953 -0.0531987 0.204746
-0.0986496 -0.0562639 0.293001
-0.0780461 -0.0610189 0.425178
0.0947931 -0.0345233 -0.429607
0.0233245 -0.0324818 -0.444379
-0.0334627 -0.0308596 -0.456118
-0.0533225 -0.0302923 -0.460223
-0.0708941 -0.0300172 -0.456123
-0.0767351 -0.0307976 -0.425047
-0.0984597 -0.0343631 -0.286859
-0.101009 -0.0349323 -0.265502
-0.116093 -0.0441123 0.0589606
-0.112735 -0.0465854 0.140678
-0.0901151 -0.0533435 0.353673
-0.0876526 -0.053879 0.370037
-0.0816514 -0.0550602 0.405695
0.111909 -0.0316777 -0.426071
0.0619512 -0.0303866 -0.436395
-0.0884951 -0.0294325 -0.356957
-0.093087 -0.0301331 -0.327041
-0.103643 -0.0321378 -0.243426
-0.113347 -0.0352054 -0.120419
-0.116279 -0.0373126 -0.0387907
-0.107012 -0.0442687 0.216153
-0.104814 -0.0449463 0.239996
-0.101784 -0.0456998 0.266054
-0.0970422 -0.0468785 0.306822
-0.0743544 -0.0510117 0.445127
-0.10724 -0.029589 -0.205544
-0.11666 -0.0338713 -0.018019
-0.116705 -0.0347484 0.018946
-0.113675 -0.0372383 0.121456
-0.0851402 -0.0440586 0.386733
-0.0816514 -0.0445725 0.405695
-0.108949 -0.0264993 -0.185558
-0.116941 -0.0303337 0.00353706
-0.116342 -0.0311639 0.0426919
-0.115042 -0.0322498 0.0935115
-0.112735 -0.0332753 0.140678
-0.111583 -0.033714 0.16073
-0.10888 -0.0344443 0.193504
-0.0986496 -0.0366938 0.293001
-0.0780461 -0.0397949 0.425178
-0.112749 -0.0238871 -0.131933
-0.114573 -0.0244998 -0.0968009
-0.115201 -0.0247111 -0.0846862
-0.0901151 -0.0330221 0.353673
-0.0876526 -0.0333536 0.370037
-0.113675 -0.0240954 0.121456
-0.101784 -0.0264577 0.266054
-0.0970422 -0.0271402 0.306822
-0.0743544 -0.0295331 0.445127
0.0947931 -0.0147957 -0.429607
0.0699937 -0.0144921 -0.434732
-0.0948657 -0.0144022 -0.315452
-0.0964797 -0.0145375 -0.303449
-0.101009 -0.014971 -0.265502
-0.11071 -0.0161416 -0.164964
-0.11591 -0.0174241 -0.058974
-0.106057 -0.0211241 0.227729
-0.0851402 -0.0233251 0.386733
-0.0816514 -0.0235972 0.405695
0.111909 -0.0116707 -0.426071
0.0308455 -0.0108989 -0.442825
-0.0128449 -0.0104829 -0.451856
-0.0334627 -0.0102865 -0.456118
-0.0533225 -0.0100974 -0.460223
-0.0708941 -0.0100057 -0.456123
-0.0767351 -0.0102659 -0.425047
-0.0803877 -0.0104285 -0.405613
-0.0884951 -0.0108436 -0.356957
-0.103643 -0.0118402 -0.243426
-0.10724 -0.0121837 -0.205544
-0.109823 -0.0124598 -0.175339
-0.116279 -0.0137467 -0.0387907
-0.11666 -0.013947 -0.018019
-0.116705 -0.0143082 0.018946
-0.116093 -0.0147041 0.0589606
-0.115839 -0.0148687 0.0755934
-0.103311 -0.0166968 0.252917
-0.0986496 -0.0171238 0.293001
-0.0780461 -0.018571 0.425178
-0.116941 -0.0101112 0.00353706
-0.116342 -0.010388 0.0426919
-0.109794 -0.0113991 0.182422
-0.0901151 -0.0127008 0.353673
-0.0876526 -0.0128283 0.370037
0.0461898 -0.00473357 -0.439653
-0.0841121 -0.00454164 -0.385513
-0.114592 -0.00648997 0.102711
-0.112735 -0.00665507 0.140678
-0.111583 -0.00674281 0.16073
-0.107953 -0.00693897 0.204746
-0.101784 -0.00721576 0.266054
-0.0970422 -0.00740187 0.306822
-0.0743544 -0.00805448 0.445127
-0.112161 -0.00182229 -0.143256
-0.113954 -0.00186864 -0.10871
-0.115669 -0.00191793 -0.0721152
-0.106057 -0.00234714 0.227729
-0.0851402 -0.0025917 0.386733
-0.0816514 -0.00262193 0.405695
-0.0780461 0.00265301 0.425178
-0.102052 0.0050236 -0.25676
-0.104722 0.00510879 -0.234386
-0.108088 0.00526043 -0.195625
-0.11071 0.00538051 -0.164964
-0.116032 0.00583557 -0.0523099
-0.11666 0.00597728 -0.018019
-0.116705 0.00613206 0.018946
-0.116093 0.00630174 0.0589606
-0.115839 0.00637227 0.0755934
-0.114592 0.00648994 0.102711
-0.113675 0.00657145 0.121456
-0.112735 0.00665504 0.140678
-0.111583 0.00674278 0.16073
-0.10888 0.00688884 0.193504
-0.103311 0.00715575 0.252917
-0.101784 0.00721573 0.266054
-0.0986496 0.00733874 0.293001
-0.0970422 0.00740184 0.306822
0.111909 0.00833624 -0.426071
0.086413 0.00816285 -0.431338
0.0308455 0.00778492 -0.442825
-0.0884951 0.0077454 -0.356957
-0.093087 0.00792978 -0.327041
-0.0974634 0.0081287 -0.295208
-0.109823 0.00889983 -0.175339
-0.116941 0.0101112 0.00353706
-0.116342 0.010388 0.0426919
-0.0925291 0.0125758 0.337631
-0.0876526 0.0128283 0.370037
-0.0743544 0.0134241 0.445127
-0.0128449 0.0104828 -0.451856
-0.0334627 0.0102865 -0.456118
-0.0533225 0.0100974 -0.460223
-0.0708941 0.0100057 -0.456123
-0.0767351 0.0102658 -0.425047
-0.0803877 0.0104285 -0.405613
-0.107012 0.0163095 0.216153
0.0699937 0.0144921 -0.434732
-0.0851402 0.0233251 0.386733
-0.0816514 0.0235972 0.405695
-0.0780461 0.023877 0.425178
-0.112161 0.0200451 -0.143256
-0.113954 0.0205549 -0.10871
-0.115669 0.0210971 -0.0721152
-0.10888 0.0252592 0.193504
-0.104814 0.0260216 0.239996
-0.101784 0.0264578 0.266054
-0.0986496 0.0269088 0.293001
-0.0970422 0.0271402 0.306822
-0.116032 0.0252875 -0.0523099
-0.11666 0.0259016 -0.018019
-0.115042 0.0279498 0.0935115
-0.113208 0.0286563 0.131006
-0.0925291 0.0326971 0.337631
-0.0876526 0.0333536 0.370037
-0.0743544 0.0349027 0.445127
0.0461898 0.0236678 -0.439653
-0.0841121 0.0227082 -0.385513
-0.102052 0.0251181 -0.25676
-0.104722 0.0255441 -0.234386
-0.116941 0.0303337 0.00353706
-0.116342 0.0311639 0.0426919
-0.114136 0.0326523 0.112025
-0.112255 0.0334883 0.150474
-0.110695 0.033954 0.171499
0.111909 0.0283432 -0.426071
0.086413 0.0277537 -0.431338
-0.0266765 0.0251385 -0.454715
-0.0785471 0.0251273 -0.415406
-0.0974634 0.0276375 -0.295208
-0.10724 0.029589 -0.205544
-0.109823 0.0302594 -0.175339
-0.116705 0.0347484 0.018946
-0.116093 0.03571 0.0589606
-0.0851402 0.0440586 0.386733
-0.0816514 0.0445725 0.405695
-0.0780461 0.0451009 0.425178
-0.0743544 0.045642 0.445127
0.0308455 0.0295827 -0.442825
-0.0128449 0.0284535 -0.451856
-0.0884951 0.0294325 -0.356957
-0.093087 0.0301331 -0.327041
-0.11071 0.0340767 -0.164964
-0.113347 0.0352054 -0.120419
-0.114573 0.0358074 -0.0968009
-0.115201 0.0361162 -0.0846862
-0.107012 0.0442687 0.216153
-0.103311 0.0453199 0.252917
-0.101784 0.0456998 0.266054
-0.0986496 0.0464789 0.293001
-0.0970422 0.0468785 0.306822
0.0699937 0.0338149 -0.434732
-0.0533225 0.0302923 -0.460223
-0.0708941 0.0300172 -0.456123
-0.112161 0.0382679 -0.143256
-0.114592 0.0454297 0.102711
-0.113675 0.0460003 0.121456
-0.112735 0.0465854 0.140678
-0.109794 0.0478763 0.182422
-0.0925291 0.0528185 0.337631
-0.0876526 0.0538789 0.370037
-0.0816514 0.0550602 0.405695
-0.116279 0.0451678 -0.0387907
-0.11666 0.0458259 -0.018019
-0.116342 0.0477846 0.0426919
-0.107953 0.0531987 0.204746
-0.116941 0.0505561 0.00353706
-0.115839 0.0531024 0.0755934
-0.111583 0.05619 0.16073
-0.106057 0.0586781 0.227729
-0.0851402 0.064792 0.386733
-0.0780461 0.0663249 0.425178
-0.0743544 0.0671205 0.445127
0.0461898 0.0426021 -0.439653
-0.102052 0.0452125 -0.25676
-0.109823 0.048059 -0.175339
-0.116705 0.0551887 0.018946
-0.0986496 0.0660489 0.293001
-0.0970422 0.0666168 0.306822
0.111909 0.0483502 -0.426071
-0.0822578 0.0435489 -0.395663
-0.0901918 0.0453184 -0.345903
-0.103643 0.0490524 -0.243426
-0.10724 0.0504755 -0.205544
-0.115201 0.0551248 -0.0846862
-0.11591 0.0561445 -0.058974
-0.10888 0.0665923 0.193504
-0.0925291 0.0729398 0.337631
-0.0876526 0.0744043 0.370037
-0.0851402 0.0751588 0.386733
-0.0816514 0.0760355 0.405695
0.086413 0.0506097 -0.431338
0.0308454 0.0482665 -0.442825
-0.0749511 0.0451112 -0.434538
-0.093087 0.0491646 -0.327041
-0.0974634 0.0503979 -0.295208
-0.11071 0.0555988 -0.164964
-0.113954 0.0579274 -0.10871
-0.116093 0.0651182 0.0589606
-0.115839 0.065847 0.0755934
-0.113208 0.0683343 0.131006
-0.103311 0.073943 0.252917
-0.101784 0.0745628 0.266054
0.0699937 0.0531378 -0.434732
-0.0128449 0.0494192 -0.451856
-0.0334627 0.0484937 -0.456118
-0.0533225 0.0476022 -0.460223
-0.112161 0.0601353 -0.143256
-0.11666 0.0657503 -0.018019
-0.116342 0.0685605 0.0426919
-0.107012 0.0768878 0.216153
-0.0780461 0.0875489 0.425178
-0.0743544 0.0885992 0.445127
0.0461898 0.0552249 -0.439653
-0.0708941 0.0500287 -0.456123
-0.0857322 0.0534411 -0.374958
-0.116941 0.0707786 0.00353706
-0.114592 0.0757161 0.102711
-0.0986496 0.0856189 0.293001
-0.0970422 0.086355 0.306822
-0.108949 0.0653651 -0.185558
-0.116279 0.0726613 -0.0387907
-0.116705 0.075629 0.018946
-0.112255 0.0826044 0.150474
-0.110695 0.0837532 0.171499
-0.107953 0.0855805 0.204746
-0.0925291 0.0930611 0.337631
-0.0876526 0.0949296 0.370037
-0.0851402 0.0958923 0.386733
-0.0816514 0.0970108 0.405695
-0.0803877 0.0581017 -0.405613
-0.102052 0.065307 -0.25676
-0.10724 0.0678807 -0.205544
-0.11591 0.0755046 -0.058974
-0.113675 0.0854291 0.121456
-0.103311 0.0930251 0.252917
-0.101784 0.0938047 0.266054
0.111909 0.0683571 -0.426071
-0.103643 0.0693499 -0.243426
-0.112749 0.0753364 -0.131933
-0.116093 0.0861241 0.0589606
-0.107012 0.0955272 0.216153
-0.0876526 0.105192 0.370037
-0.0780461 0.108773 0.425178
-0.0743544 0.110078 0.445127
0.086413 0.0702005 -0.431338
0.00134319 0.0652246 -0.448923
-0.0841121 0.0650968 -0.385513
-0.093087 0.068196 -0.327041
-0.09697 0.0696811 -0.299342
-0.113954 0.0803509 -0.10871
-0.11666 0.0856745 -0.018019
-0.116342 0.0893364 0.0426919
-0.112735 0.0953891 0.140678
-0.111583 0.0966468 0.16073
-0.109794 0.0980324 0.182422
-0.0986496 0.105189 0.293001
-0.0970422 0.106093 0.306822
0.0308454 0.0700642 -0.442825
-0.0467842 0.0653123 -0.458871
-0.0884951 0.0697085 -0.356957
-0.115201 0.0855384 -0.0846862
-0.116941 0.091001 0.00353706
-0.115839 0.0955844 0.0755934
-0.104814 0.106452 0.239996
-0.0925291 0.113182 0.337631
-0.0851402 0.116626 0.386733
0.0699937 0.0756811 -0.434732
-0.0334627 0.0690668 -0.456118
-0.0767351 0.0689279 -0.425047
-0.11071 0.0842949 -0.164964
-0.116705 0.0960692 0.018946
-0.101784 0.113047 0.266054
-0.0816514 0.12323 0.405695
-0.0708941 0.0700402 -0.456123
-0.116032 0.0953146 -0.0523099
-0.114592 0.106003 0.102711
-0.107953 0.113336 0.204746
-0.0876526 0.125718 0.370037
-0.0780461 0.129997 0.425178
-0.0743544 0.131556 0.445127
-0.102052 0.0854014 -0.25676
-0.10724 0.0887672 -0.205544
-0.109385 0.0904367 -0.180468
-0.110695 0.115444 0.171499
-0.0970422 0.125832 0.306822
0.111909 0.0883641 -0.426071
0.0461898 0.0836263 -0.439653
-0.0803877 0.0789587 -0.405613
-0.103643 0.0896475 -0.243426
-0.111159 0.095419 -0.159717
-0.113954 0.0990371 -0.10871
-0.11666 0.105599 -0.018019
-0.116342 0.110112 0.0426919
-0.113675 0.116096 0.121456
-0.107012 0.123486 0.216153
-0.104814 0.125377 0.239996
-0.10023 0.128556 0.279414
-0.0925291 0.133304 0.337631
-0.0851402 0.137359 0.386733
0.086413 0.0897914 -0.431338
-0.0964797 0.0888403 -0.303449
-0.112454 0.100642 -0.137618
-0.116093 0.115532 0.0589606
-0.112255 0.12279 0.150474
-0.10888 0.126296 0.193504
-0.0816514 0.144205 0.405695
-0.0743544 0.147665 0.445127
0.0308454 0.088748 -0.442825
-0.0884951 0.0882975 -0.356957
-0.093087 0.0903994 -0.327041
-0.115669 0.109321 -0.0721152
-0.0876526 0.146243 0.370037
0.0699937 0.0950039 -0.434732
-0.0128449 0.0883556 -0.451856
-0.116279 0.115865 -0.0387907
-0.116941 0.119312 0.00353706
-0.115839 0.125322 0.0755934
-0.0970422 0.14557 0.306822
-0.0334627 0.0896399 -0.456118
-0.0533225 0.087992 -0.460223
-0.0720385 0.087637 -0.450034
-0.0755427 0.0889969 -0.43139
-0.084649 0.0926096 -0.382014
-0.106405 0.105394 -0.215317
-0.108949 0.107764 -0.185558
-0.116705 0.124686 0.018946
-0.112735 0.135319 0.140678
-0.103311 0.145501 0.252917
-0.101784 0.14672 0.266054
-0.102052 0.105496 -0.25676
-0.113954 0.117723 -0.10871
-0.11666 0.125523 -0.018019
-0.116342 0.130888 0.0426919
-0.110695 0.142607 0.171499
-0.107953 0.145718 0.204746
-0.107012 0.146786 0.216153
0.111909 0.108371 -0.426071
0.0461898 0.102561 -0.439653
-0.103643 0.109945 -0.243426
-0.111871 0.117961 -0.148848
-0.114886 0.123025 -0.0907695
-0.11591 0.125841 -0.058974
0.086413 0.109382 -0.431338
-0.0791574 0.0992914 -0.412159
-0.0954658 0.107539 -0.311542
-0.0994692 0.110354 -0.2784
-0.112749 0.123111 -0.131933
-0.114592 0.144942 0.102711
-0.113675 0.146763 0.121456
-0.0919186 0.108783 -0.334652
-0.116279 0.135503 -0.0387907
-0.116941 0.139535 0.00353706
-0.116093 0.144941 0.0589606
-0.115839 0.146563 0.0755934
0.0308454 0.110546 -0.442825
-0.0879362 0.109666 -0.360598
-0.116705 0.145126 0.018946
-0.116342 0.147509 0.0426919
0.0461898 0.115183 -0.439653
-0.0128449 0.109321 -0.451856
-0.108949 0.128964 -0.185558
-0.113347 0.135263 -0.120419
-0.11666 0.145448 -0.018019
-0.0334627 0.110213 -0.456118
-0.0533225 0.108187 -0.460223
-0.0749511 0.10914 -0.434538
-0.0841121 0.113541 -0.385513
-0.101529 0.125173 -0.261146
-0.10724 0.13054 -0.205544
-0.115201 0.142564 -0.0846862
-0.11591 0.145201 -0.058974
0.111909 0.128378 -0.426071
0.0699921 0.123988 -0.434733
-0.0708941 0.110063 -0.456123
-0.0979599 0.125589 -0.291047
-0.111583 0.139165 -0.154394
-0.114573 0.145114 -0.0968009
0.0864104 0.128973 -0.43134
-0.0803877 0.117693 -0.405613
-0.104181 0.134077 -0.238921
0.0308429 0.129229 -0.442826
-0.0873804 0.12783 -0.364219
-0.0948657 0.13282 -0.315452
-0.108088 0.145539 -0.195625
-0.105174 0.145264 -0.229711
0.0619464 0.139138 -0.436398
-0.0128468 0.130287 -0.451857
-0.0334638 0.127847 -0.456119
0.111907 0.148385 -0.426071
-0.053323 0.128382 -0.460223
-0.0714648 0.127539 -0.453087
-0.0749511 0.129513 -0.434538
-0.0841121 0.134735 -0.385513
0.0781413 0.14754 -0.433051
-0.0948657 0.145622 -0.315452
-0.0791574 0.137822 -0.412159
0.0308419 0.147913 -0.442827
-0.0857322 0.145055 -0.374958
-0.0901918 0.148457 -0.345903
0.00857264 0.148088 -0.44743
-0.0128468 0.148257 -0.451857
-0.0334638 0.14842 -0.456119
-0.0761374 0.147738 -0.428227
-0.0714648 0.147601 -0.453087
