ply
format ascii 1.0
comment Created by Open3D
element vertex 1005
property double x
property double y
property double z
end_header
-0.246325 -0.1526 -0.407348
-0.246333 -0.153162 -0.386456
-0.229796 -0.153917 -0.372439
-0.246659 -0.154859 0.374235
-0.227521 -0.15493 0.372632
-0.246667 -0.152207 0.394509
-0.246325 -0.125104 -0.407348
-0.246333 -0.125565 -0.386456
-0.229796 -0.125675 -0.372439
-0.246338 -0.114738 -0.375952
-0.246667 -0.130239 0.394509
-0.243848 -0.127068 0.372641
-0.221946 -0.126948 0.372628
-0.246325 -0.105857 -0.407348
-0.229796 -0.105906 -0.372439
-0.246663 -0.114368 0.384356
0.211391 -0.15429 -0.406698
0.211385 -0.154506 -0.39414
-0.246672 -0.111585 0.404695
-0.246325 -0.0948592 -0.407348
0.233074 -0.153124 -0.372636
-0.227521 -0.107013 0.372632
0.217052 -0.154207 0.372444
0.21105 -0.153801 0.389799
-0.246333 -0.0869297 -0.386456
0.241964 -0.152199 0.372437
-0.229796 -0.086137 -0.372439
0.211391 -0.123866 -0.406698
0.211385 -0.12404 -0.39414
0.233074 -0.126494 -0.372636
0.211054 -0.134735 0.379898
-0.246667 -0.0894413 0.394509
0.229395 -0.131667 0.372441
-0.233029 -0.0873186 0.372635
-0.229796 -0.0748404 -0.372439
0.211046 -0.125534 0.399721
0.233074 -0.113178 -0.372636
-0.246325 -0.0673638 -0.407348
-0.246333 -0.0648523 -0.386456
0.241964 -0.108713 0.372437
0.217052 -0.106759 0.372444
0.21105 -0.106478 0.389799
-0.246667 -0.0706116 0.394509
0.211391 -0.0934431 -0.406698
0.211385 -0.0935739 -0.39414
-0.243848 -0.0674561 0.372641
-0.216303 -0.0662878 0.372625
0.233074 -0.0865483 -0.372636
0.241964 -0.0893866 0.372437
0.211056 -0.0874151 0.374954
0.211048 -0.0828579 0.394757
-0.246663 -0.054834 0.384356
-0.246325 -0.0453674 -0.407348
-0.229796 -0.0465987 -0.372439
0.233074 -0.0732331 -0.372636
-0.246672 -0.0518633 0.404695
0.211391 -0.0673659 -0.406698
0.211385 -0.0674603 -0.39414
0.217052 -0.0735448 0.372444
0.241964 -0.0700598 0.372437
-0.216303 -0.0468865 0.372625
-0.246333 -0.0372556 -0.386456
0.21105 -0.0638865 0.389799
0.211391 -0.0543274 -0.406698
0.211385 -0.0544034 -0.39414
0.217052 -0.0545655 0.372444
0.233074 -0.0466029 -0.372636
0.241964 -0.050733 0.372437
-0.246325 -0.0261207 -0.407348
-0.229796 -0.0268296 -0.372439
-0.211058 -0.0274529 -0.371905
-0.211067 -0.0275548 -0.349774
-0.211076 -0.0276446 -0.330274
-0.211084 -0.027735 -0.310646
-0.211093 -0.027826 -0.29089
-0.211101 -0.0279176 -0.271003
-0.21111 -0.0280098 -0.250986
-0.211118 -0.0281026 -0.230835
-0.211127 -0.028196 -0.210551
-0.211136 -0.0282901 -0.190131
-0.211144 -0.0283848 -0.169575
-0.211152 -0.0284664 -0.151845
-0.211161 -0.0285623 -0.131031
-0.21117 -0.0286588 -0.110077
-0.211177 -0.028742 -0.0920027
-0.211186 -0.0288398 -0.0707832
-0.211194 -0.0289241 -0.0524798
-0.211203 -0.029023 -0.0309902
-0.211211 -0.0291084 -0.0124531
-0.21122 -0.0292087 0.0093118
-0.211228 -0.0292951 0.0280871
-0.211238 -0.0293967 0.0501326
-0.211246 -0.0294843 0.0691508
-0.211254 -0.0295724 0.0882827
-0.211262 -0.029661 0.107529
0.21105 -0.0449572 0.389799
-0.246667 -0.0298138 0.394509
-0.211272 -0.0266319 0.13013
-0.21128 -0.0267123 0.149628
-0.211289 -0.0267931 0.169245
-0.211297 -0.0268745 0.188981
-0.211305 -0.0269563 0.208837
-0.211314 -0.0270386 0.228814
-0.211322 -0.0271214 0.248913
-0.211331 -0.0272048 0.269136
-0.21134 -0.0272886 0.289484
-0.211348 -0.027373 0.309958
-0.211357 -0.0274579 0.330558
-0.211365 -0.027529 0.347823
-0.216303 -0.0274852 0.372625
-0.238471 -0.0268281 0.372638
-0.152788 -0.0201034 -0.372247
-0.155762 -0.0201037 -0.35083
-0.158311 -0.0201039 -0.332472
-0.161286 -0.0201042 -0.311053
-0.16426 -0.0201045 -0.289635
-0.166809 -0.0201047 -0.271275
-0.169783 -0.020105 -0.249855
-0.172333 -0.0201052 -0.231495
-0.175307 -0.0201055 -0.210074
-0.177857 -0.0201058 -0.191712
-0.180832 -0.020106 -0.17029
-0.183382 -0.0201063 -0.151928
-0.186356 -0.0201066 -0.130504
-0.188906 -0.0201068 -0.112141
-0.191881 -0.0201071 -0.0907165
-0.194431 -0.0201073 -0.0723523
-0.246333 -0.0151782 -0.386456
0.00819421 -0.0201061 -0.369417
0.00568533 -0.0201063 -0.351335
0.00267458 -0.0201066 -0.329636
0.000165462 -0.0201068 -0.311554
-0.00284541 -0.0201071 -0.289854
-0.00535452 -0.0201073 -0.27177
-0.00836551 -0.0201076 -0.250069
-0.0108749 -0.0201079 -0.231984
-0.013886 -0.0201082 -0.210282
-0.0163956 -0.0201084 -0.192197
-0.0194069 -0.0201087 -0.170494
-0.0219165 -0.0201089 -0.152407
-0.0249279 -0.0201092 -0.130703
-0.0279396 -0.0201095 -0.108998
-0.0304493 -0.0201097 -0.0909097
-0.0334611 -0.02011 -0.0692036
-0.0359708 -0.0201102 -0.0511147
-0.0389829 -0.0201105 -0.0294075
-0.0414928 -0.0201108 -0.0113176
-0.0445049 -0.0201111 0.0103907
-0.0470152 -0.0201113 0.0284815
-0.0500274 -0.0201116 0.050191
-0.0525377 -0.0201118 0.0682828
-0.05555 -0.0201121 0.0899934
-0.0580634 -0.0201123 0.108085
-0.0610839 -0.0201124 0.129795
-0.063601 -0.0201125 0.147886
-0.0666215 -0.0201126 0.169596
-0.0691386 -0.0201127 0.187688
-0.0721594 -0.0201129 0.209399
-0.0751802 -0.020113 0.231109
-0.0776974 -0.0201131 0.249202
-0.0807182 -0.0201132 0.270913
-0.0832355 -0.0201133 0.289006
-0.0862563 -0.0201135 0.310718
-0.0887738 -0.0201136 0.328811
-0.0917947 -0.0201137 0.350523
-0.0943123 -0.0201138 0.368617
0.211391 -0.0195578 -0.406698
0.211385 -0.0195852 -0.39414
0.233074 -0.0199727 -0.372636
0.211249 -0.0201106 -0.153099
0.20756 -0.0201107 -0.12657
0.205715 -0.0201108 -0.113305
0.202026 -0.020111 -0.0867746
0.200181 -0.020111 -0.0735094
0.196491 -0.0201112 -0.0469785
0.194647 -0.0201113 -0.033713
0.190957 -0.0201114 -0.00718151
0.189112 -0.0201115 0.00608437
0.185422 -0.0201117 0.0326164
0.183577 -0.0201117 0.0458825
0.179272 -0.0201119 0.0768373
0.175583 -0.0201121 0.10337
0.173738 -0.0201121 0.116637
0.170048 -0.0201123 0.143171
0.168203 -0.0201124 0.156438
0.164513 -0.0201125 0.182972
0.162668 -0.0201126 0.19624
0.158977 -0.0201128 0.222775
0.157132 -0.0201128 0.236042
0.153442 -0.020113 0.262578
0.151597 -0.0201131 0.275846
0.147292 -0.0201132 0.306805
0.143601 -0.0201134 0.333341
0.141756 -0.0201135 0.34661
0.211043 -0.021328 0.404689
-0.216303 -0.014551 0.372625
0.241964 -0.016911 0.372437
0.217052 -0.0166069 0.372444
-0.246667 -0.010984 0.394509
-0.246325 -0.00687386 -0.407348
-0.229796 -0.00706042 -0.372439
-0.238471 -0.00473437 0.372638
0.211391 -0.00217311 -0.406698
0.211385 -0.00217615 -0.39414
0.233074 -0.0022192 -0.372636
0.211046 -0.00236859 0.399721
-0.246333 0.0041395 -0.386456
0.241964 0.00724754 0.372437
0.217052 0.00711722 0.372444
-0.246667 0.00784573 0.394509
0.21105 0.0165631 0.389799
-0.239819 0.0125514 -0.372436
-0.219519 0.01287 -0.372441
0.211391 0.0195578 -0.406698
0.211385 0.0195852 -0.39414
0.233074 0.0199727 -0.372636
-0.216303 0.014551 0.372625
-0.246325 0.0151225 -0.407348
-0.246333 0.0151782 -0.386456
0.241964 0.0265744 0.372437
0.217052 0.0260966 0.372444
0.21105 0.0354925 0.389799
-0.238471 0.0236718 0.372638
0.233074 0.0377262 -0.372636
0.211391 0.0412888 -0.406698
0.211385 0.0413466 -0.39414
0.241964 0.0459012 0.372437
0.217052 0.0450759 0.372444
-0.246667 0.0298138 0.394509
0.246587 0.0473976 -0.313919
0.242828 0.0473968 -0.287119
0.240949 0.0473964 -0.27372
0.237191 0.0473956 -0.246922
0.235311 0.0473952 -0.233524
0.231553 0.0473944 -0.206727
0.229674 0.047394 -0.19333
0.225916 0.0473931 -0.166535
0.224036 0.0473927 -0.153137
0.220319 0.0473934 -0.126343
0.21725 0.0473951 -0.104013
0.213567 0.047397 -0.0772143
0.211726 0.047398 -0.0638143
0.211232 0.0475182 -0.0367325
0.211226 0.0475875 -0.0231162
0.211218 0.0476803 -0.00489926
0.211207 0.0478201 0.0225597
0.211201 0.0478902 0.0363496
0.211189 0.0480313 0.0640514
0.211181 0.0481257 0.0826099
0.211175 0.0481968 0.0965769
0.211167 0.048292 0.115264
0.211155 0.0484354 0.143433
0.211145 0.0485555 0.167035
0.211137 0.0486521 0.186002
0.211129 0.048749 0.205043
0.211117 0.0488951 0.233749
0.211108 0.048993 0.252982
0.211098 0.049116 0.277132
0.21109 0.0492148 0.296539
0.211082 0.0493139 0.316024
0.211073 0.0494135 0.335588
0.20493 0.0493768 0.372449
0.181327 0.0485125 0.372458
0.158536 0.0476779 0.372468
0.147533 0.0473961 0.39618
-0.216303 0.0339523 0.372625
-0.219519 0.0328901 -0.372441
0.146724 0.0473937 -0.405604
0.143876 0.0473935 -0.385216
0.161997 0.0481908 -0.372601
0.184782 0.0491046 -0.372611
0.208447 0.0500537 -0.372621
0.211363 0.0503332 -0.343555
0.21135 0.0504991 -0.313784
0.211337 0.0506662 -0.283815
0.211324 0.0508344 -0.253647
0.211311 0.0510037 -0.223279
0.2113 0.0511498 -0.197087
0.211295 0.0512231 -0.183935
0.136516 0.0513356 0.372477
0.115228 0.0504819 0.372486
0.104847 0.0500656 0.37249
0.0845917 0.0492532 0.372499
0.0649827 0.0484668 0.372507
0.0371614 0.0474008 0.38142
0.0347706 0.0473958 0.397675
0.0524713 0.0473937 -0.407607
0.0498517 0.0473935 -0.38885
0.0597115 0.0479224 -0.372558
0.0787512 0.0487524 -0.372566
0.0984622 0.0496116 -0.372574
0.118881 0.0505017 -0.372583
0.0185949 0.0506591 0.372526
0.00102162 0.049893 0.372534
-0.0243635 0.0487864 0.372544
-0.0486472 0.0477278 0.372554
-0.0593888 0.0473972 0.3952
-0.028303 0.0473938 -0.40584
-0.0312073 0.0473938 -0.385
-0.0103787 0.0484564 -0.372528
0.00629234 0.0492413 -0.372535
0.041309 0.0508898 -0.37255
0.140045 0.0555383 -0.372592
-0.079432 0.0500968 0.372567
-0.108533 0.0487267 0.372579
-0.129335 0.0477473 0.372588
-0.139109 0.047399 0.389623
-0.238471 0.0426093 0.372638
-0.0983878 0.0473938 -0.401082
-0.101085 0.0473942 -0.381681
-0.072067 0.0489264 -0.372502
0.211261 0.065146 -0.104223
0.211249 0.065335 -0.0773444
0.211243 0.0654299 -0.0638465
0.211117 0.0675219 0.233749
0.211108 0.0676571 0.252982
0.211098 0.0678269 0.277132
0.21109 0.0679633 0.296539
0.211082 0.0681003 0.316024
0.211073 0.0682378 0.335588
0.211065 0.0683759 0.355231
0.193024 0.067585 0.372454
0.147432 0.0652795 0.372473
-0.149318 0.0502737 0.372596
-0.168528 0.0493023 0.372604
-0.193016 0.048064 0.372615
-0.246325 0.0426179 -0.407348
-0.246333 0.0427749 -0.386456
-0.161106 0.0473943 -0.38484
-0.139503 0.0486553 -0.372473
0.211373 0.0676497 -0.368919
0.211366 0.0677767 -0.352026
0.211357 0.067936 -0.33082
0.211348 0.0680961 -0.309515
0.211341 0.0682248 -0.292398
0.211332 0.0683862 -0.270911
0.211322 0.0685485 -0.249321
0.211315 0.0686788 -0.231976
0.211306 0.0688424 -0.210202
0.211296 0.0690068 -0.188323
0.211289 0.0691389 -0.170745
0.21128 0.0693047 -0.148678
0.211272 0.069438 -0.130947
0.211232 0.070146 -0.0367325
0.211226 0.0702483 -0.0231162
0.211218 0.0703852 -0.00489926
0.211207 0.0705915 0.0225597
-0.211231 0.0473983 -0.0248269
-0.215439 0.0473989 0.00542997
-0.219226 0.0473995 0.0326619
-0.222171 0.0473999 0.0538427
-0.225117 0.0474003 0.0750239
-0.22936 0.0473989 0.105273
-0.233605 0.0473975 0.135519
-0.237425 0.0473961 0.162739
-0.240396 0.0473951 0.183909
-0.243367 0.0473941 0.205079
-0.246598 0.0474266 0.232568
-0.246604 0.0475237 0.245483
-0.246616 0.0477435 0.274737
-0.246624 0.0478912 0.29439
-0.246633 0.0480398 0.314166
-0.246642 0.0481893 0.334064
-0.24665 0.0483398 0.354087
-0.246667 0.0486435 0.394509
-0.217401 0.0473954 -0.362044
-0.220168 0.0473958 -0.342152
-0.222935 0.0473962 -0.32226
-0.225701 0.0473966 -0.302367
-0.228468 0.047397 -0.282474
-0.23163 0.0473975 -0.259739
-0.234397 0.0473979 -0.239845
-0.237164 0.0473983 -0.219951
-0.239942 0.0473981 -0.200056
-0.242733 0.0473971 -0.18016
-0.245524 0.0473961 -0.160266
-0.246438 0.0475033 -0.140351
-0.246447 0.0476636 -0.120315
-0.246455 0.047825 -0.100143
-0.246464 0.0479874 -0.0798338
-0.246472 0.0481275 -0.0623159
-0.246481 0.0482921 -0.0417485
-0.246489 0.0484577 -0.02104
-0.246498 0.0486245 -0.000189006
-0.246506 0.0487684 0.0177979
-0.246515 0.0489373 0.0389176
-0.246524 0.0491075 0.0601841
-0.246532 0.0492542 0.0785306
-0.246541 0.0494266 0.100074
-0.246549 0.0495752 0.11866
-0.246559 0.0497498 0.140486
-0.246342 0.0484729 -0.365409
-0.24635 0.0486302 -0.346865
-0.246359 0.0488113 -0.325524
-0.246367 0.0489708 -0.306719
-0.246376 0.0491544 -0.285078
-0.246385 0.0493162 -0.266007
-0.246393 0.0494791 -0.246811
-0.246659 0.0641335 0.374235
-0.246569 0.0650875 0.165618
-0.246582 0.0653847 0.194136
-0.246669 0.0675086 0.397901
-0.246545 0.067501 0.109353
-0.246553 0.0677044 0.127995
-0.246563 0.0679432 0.149887
-0.246601 0.0689154 0.239019
-0.246609 0.0691274 0.258451
-0.246617 0.0693407 0.278004
-0.246626 0.0695553 0.297678
-0.246636 0.0698074 0.320785
-0.246644 0.0700249 0.340724
-0.246325 0.0646143 -0.407348
-0.246333 0.0648523 -0.386456
-0.246436 0.0675913 -0.146051
-0.246444 0.0678191 -0.126053
-0.246453 0.0680485 -0.10592
-0.246462 0.0682794 -0.0856505
-0.246471 0.0685119 -0.0652426
-0.246479 0.068746 -0.0446953
-0.246492 0.0690833 -0.0150972
-0.2465 0.0692872 0.00280142
-0.246509 0.0695266 0.0238172
-0.246518 0.0697677 0.0449787
-0.246526 0.0699757 0.0632343
-0.246531 0.070115 0.0754653
-0.246342 0.067862 -0.365409
-0.24635 0.0680823 -0.346865
-0.246359 0.0683358 -0.325524
-0.246367 0.0685591 -0.306719
-0.246376 0.0688162 -0.285078
-0.246385 0.0690427 -0.266007
-0.246393 0.0692707 -0.246811
-0.246401 0.0695002 -0.227488
-0.246588 0.0746977 0.210092
-0.246407 0.0725086 -0.213607
-0.246419 0.0728542 -0.185647
-0.246427 0.0730982 -0.165915
-0.246653 0.0796096 0.360789
0.0958778 0.114899 0.400396
-0.216303 0.085689 0.372625
-0.246663 0.0830343 0.384356
0.096177 0.114906 0.0745195
0.093299 0.114906 0.0951904
0.090421 0.114906 0.115862
0.087541 0.114907 0.136532
0.0834972 0.114906 0.165468
0.080615 0.114906 0.186139
0.0765799 0.114906 0.215077
0.0736978 0.114906 0.235747
0.0708156 0.114906 0.256417
0.0667806 0.114906 0.285355
0.0638984 0.114906 0.306025
0.0598633 0.114906 0.334964
0.0569812 0.114906 0.355634
0.05409 0.114905 0.3763
0.0499932 0.114899 0.405207
0.0963423 0.1149 -0.228514
0.0935657 0.114901 -0.20857
0.0907886 0.114901 -0.188626
0.0880117 0.114902 -0.168682
0.0852348 0.114902 -0.148738
0.0824578 0.114902 -0.128794
0.0796808 0.114903 -0.108849
0.0769038 0.114903 -0.0889047
0.0741267 0.114904 -0.0689599
0.0713496 0.114904 -0.0490151
0.0685725 0.114904 -0.0290701
0.0657953 0.114905 -0.00912492
0.0630183 0.114905 0.0108204
0.0602412 0.114906 0.0307657
0.0574639 0.114906 0.0507113
0.0546867 0.114906 0.070657
0.0519046 0.114906 0.0906018
0.049118 0.114906 0.110545
0.046337 0.114906 0.13049
0.043556 0.114906 0.150435
0.0407749 0.114906 0.17038
0.0379939 0.114906 0.190325
0.0352129 0.114906 0.21027
0.0324317 0.114906 0.230215
0.0296507 0.114906 0.25016
0.0268697 0.114906 0.270105
0.0240886 0.114906 0.290049
0.0213076 0.114906 0.309994
0.0185266 0.114906 0.329939
0.0157454 0.114906 0.349884
0.0129644 0.114906 0.369829
0.0101439 0.114902 0.389754
-0.246672 0.089582 0.404695
-0.229796 0.0833129 -0.372439
0.0820637 0.114903 -0.406953
0.0787976 0.114899 -0.383822
0.0761082 0.114899 -0.364554
0.0718156 0.114899 -0.333727
0.0691329 0.1149 -0.31446
0.0653768 0.1149 -0.287485
0.0621573 0.114901 -0.264364
0.0584013 0.114901 -0.23739
0.0551817 0.114902 -0.214268
0.0514257 0.114902 -0.187293
0.048206 0.114903 -0.164171
0.045523 0.114903 -0.144903
0.0412302 0.114904 -0.114074
0.0385474 0.114904 -0.094805
0.0342543 0.114905 -0.063975
0.0315711 0.114905 -0.044706
0.0272781 0.114906 -0.0138755
0.0245951 0.114906 0.00539388
0.0203 0.114906 0.0362246
0.0176075 0.114906 0.0554925
0.0133082 0.114906 0.0863224
0.0106214 0.114906 0.105591
0.0068599 0.114906 0.132568
0.00363576 0.114906 0.15569
-0.000125766 0.114906 0.182666
-0.0033499 0.114906 0.205789
-0.00603676 0.114906 0.225058
-0.0103356 0.114906 0.255888
-0.0130223 0.114906 0.275156
-0.0173212 0.114906 0.305987
-0.020008 0.114906 0.325255
-0.0243069 0.114906 0.356085
-0.0269997 0.114905 0.375351
-0.0313555 0.114899 0.406151
-0.246325 0.083861 -0.407348
-0.246333 0.08417 -0.386456
0.0453091 0.114903 -0.40596
0.0437301 0.114901 -0.394773
0.0395557 0.114899 -0.364952
0.0354037 0.1149 -0.335135
0.0338466 0.1149 -0.323954
0.0296947 0.114901 -0.294137
0.0255427 0.114901 -0.26432
0.0213903 0.114902 -0.234502
0.0172383 0.114903 -0.204684
0.0130861 0.114903 -0.174866
0.0089339 0.114904 -0.145047
0.00737667 0.114904 -0.133865
0.00322437 0.114905 -0.104046
-0.000927806 0.114905 -0.0742266
-0.00508022 0.114906 -0.044407
-0.00923264 0.114906 -0.014587
-0.0133969 0.114906 0.0152314
-0.0175548 0.114906 0.0450507
-0.0217127 0.114906 0.07487
-0.0232719 0.114906 0.0860521
-0.0274298 0.114906 0.115871
-0.0315878 0.114906 0.145691
-0.0357457 0.114906 0.17551
-0.0399036 0.114906 0.205329
-0.0440615 0.114906 0.235148
-0.0482194 0.114906 0.264968
-0.0497787 0.114906 0.27615
-0.0539366 0.114906 0.305969
-0.0580945 0.114906 0.335788
-0.0622525 0.114906 0.365607
-0.0664527 0.114901 0.395404
-0.246663 0.0955678 0.384356
0.0108879 0.114903 -0.40503
0.00935972 0.114901 -0.394199
0.00532353 0.1149 -0.365325
0.00381601 0.114901 -0.354499
-0.000204444 0.114901 -0.325628
-0.00171208 0.114901 -0.314802
-0.00573254 0.114902 -0.285931
-0.0087477 0.114902 -0.264278
-0.0127685 0.114903 -0.235406
-0.014276 0.114903 -0.22458
-0.0182965 0.114904 -0.195708
-0.0198042 0.114904 -0.184881
-0.0238249 0.114904 -0.156009
-0.0268404 0.114905 -0.134355
-0.030861 0.114905 -0.105482
-0.0323689 0.114906 -0.0946548
-0.0363897 0.114906 -0.0657818
-0.0378983 0.114906 -0.0549544
-0.0419291 0.114906 -0.0260823
-0.0449486 0.114906 -0.00442781
-0.0489744 0.114906 0.0244448
-0.0504842 0.114906 0.035272
-0.0545102 0.114906 0.0641446
-0.0575296 0.114906 0.085799
-0.0615555 0.114906 0.114672
-0.0630653 0.114906 0.125499
-0.0670911 0.114906 0.154371
-0.0686009 0.114906 0.165199
-0.0726268 0.114906 0.194071
-0.0756462 0.114906 0.215726
-0.0796721 0.114906 0.244598
-0.0811818 0.114906 0.255426
-0.0852077 0.114906 0.284298
-0.0867174 0.114906 0.295125
-0.0907433 0.114906 0.323998
-0.0937628 0.114906 0.345652
-0.0977926 0.114905 0.374523
-0.0993229 0.114903 0.385339
-0.0209215 0.114904 -0.407656
-0.0233871 0.114901 -0.39016
-0.0263153 0.114901 -0.369173
-0.0287508 0.114901 -0.351684
-0.0316734 0.114902 -0.330697
-0.0345962 0.114902 -0.30971
-0.0370317 0.114902 -0.292221
-0.0399543 0.114903 -0.271234
-0.042877 0.114903 -0.250247
-0.0457997 0.114904 -0.229259
-0.0482354 0.114904 -0.21177
-0.0511581 0.114905 -0.190782
-0.054081 0.114905 -0.169794
-0.0565168 0.114905 -0.152304
-0.0594395 0.114906 -0.131316
-0.0623626 0.114906 -0.110328
-0.0652887 0.114906 -0.0893397
-0.0677299 0.114906 -0.0718497
-0.0706565 0.114906 -0.0508616
-0.0735831 0.114906 -0.0298734
-0.0760219 0.114906 -0.0123832
-0.0789484 0.114906 0.0086049
-0.0818749 0.114906 0.0295931
-0.0848014 0.114906 0.0505812
-0.0872402 0.114906 0.0680714
-0.0901667 0.114906 0.0890596
-0.0930933 0.114906 0.110048
-0.0955321 0.114906 0.127538
-0.0984585 0.114906 0.148526
-0.101385 0.114906 0.169514
-0.104312 0.114906 0.190502
-0.10675 0.114906 0.207992
-0.109677 0.114906 0.228981
-0.112604 0.114906 0.249969
-0.11553 0.114906 0.270957
-0.117969 0.114906 0.288447
-0.120895 0.114906 0.309435
-0.123822 0.114906 0.330423
-0.126261 0.114906 0.347913
-0.129187 0.114906 0.368902
-0.132142 0.114902 0.389873
-0.216303 0.10509 0.372625
-0.0513107 0.114904 -0.406731
-0.0541736 0.114901 -0.386364
-0.0570107 0.114902 -0.366004
-0.0598462 0.114902 -0.345644
-0.0626817 0.114902 -0.325283
-0.0655173 0.114903 -0.304923
-0.0683528 0.114903 -0.284562
-0.0711884 0.114904 -0.264201
-0.0749692 0.114904 -0.237053
-0.0778049 0.114905 -0.216692
-0.0806405 0.114905 -0.196331
-0.0834762 0.114905 -0.17597
-0.0863119 0.114906 -0.155608
-0.0891476 0.114906 -0.135246
-0.0919906 0.114906 -0.114885
-0.0948297 0.114906 -0.0945231
-0.0976689 0.114906 -0.0741614
-0.101455 0.114906 -0.0470126
-0.104294 0.114906 -0.0266509
-0.107133 0.114906 -0.00628924
-0.109972 0.114906 0.0140724
-0.112811 0.114906 0.0344341
-0.11565 0.114906 0.0547957
-0.118489 0.114906 0.0751574
-0.121329 0.114906 0.095519
-0.124168 0.114906 0.115881
-0.127953 0.114906 0.14303
-0.130793 0.114906 0.163391
-0.133632 0.114906 0.183753
-0.136471 0.114906 0.204114
-0.13931 0.114906 0.224476
-0.142149 0.114906 0.244838
-0.143569 0.114906 0.255019
-0.146408 0.114906 0.27538
-0.149247 0.114906 0.295742
-0.153033 0.114906 0.322891
-0.155872 0.114906 0.343252
-0.158711 0.114906 0.363614
-0.161568 0.114903 0.383965
-0.246329 0.0950337 -0.396921
-0.0799384 0.114904 -0.40586
-0.0827147 0.114902 -0.386084
-0.0854682 0.114902 -0.366314
-0.0882214 0.114903 -0.346544
-0.090975 0.114903 -0.326773
-0.0937285 0.114904 -0.307003
-0.0964819 0.114904 -0.287232
-0.0992355 0.114904 -0.267462
-0.101071 0.114905 -0.254281
-0.103825 0.114905 -0.23451
-0.106578 0.114905 -0.214739
-0.109332 0.114906 -0.194968
-0.113464 0.114906 -0.165311
-0.116223 0.114906 -0.145539
-0.11898 0.114906 -0.125768
-0.121737 0.114906 -0.105996
-0.124494 0.114906 -0.0862249
-0.127251 0.114906 -0.0664534
-0.130008 0.114906 -0.046682
-0.132764 0.114906 -0.0269105
-0.135521 0.114906 -0.00713906
-0.138278 0.114906 0.0126324
-0.141495 0.114906 0.0356991
-0.144251 0.114906 0.0554706
-0.147008 0.114906 0.075242
-0.149765 0.114906 0.0950135
-0.1539 0.114906 0.124671
-0.156657 0.114906 0.144442
-0.159414 0.114906 0.164214
-0.162171 0.114906 0.183985
-0.164928 0.114906 0.203757
-0.167685 0.114906 0.223528
-0.170442 0.114906 0.243299
-0.173199 0.114906 0.263071
-0.175955 0.114906 0.282842
-0.178712 0.114906 0.302614
-0.18055 0.114906 0.315795
-0.183307 0.114906 0.335566
-0.186064 0.114906 0.355338
-0.188825 0.114905 0.375107
-0.246672 0.108441 0.404695
-0.107855 0.114903 -0.39863
-0.110544 0.114902 -0.379414
-0.113215 0.114903 -0.360202
-0.115891 0.114903 -0.340989
-0.118567 0.114904 -0.321775
-0.121689 0.114904 -0.299359
-0.124365 0.114905 -0.280145
-0.127041 0.114905 -0.260931
-0.129717 0.114905 -0.241717
-0.132839 0.114906 -0.219301
-0.135517 0.114906 -0.200086
-0.138197 0.114906 -0.180872
-0.140877 0.114906 -0.161657
-0.143556 0.114906 -0.142443
-0.146682 0.114906 -0.120026
-0.149361 0.114906 -0.100811
-0.15204 0.114906 -0.0815966
-0.154719 0.114906 -0.0623821
-0.157845 0.114906 -0.0399652
-0.160524 0.114906 -0.0207506
-0.163204 0.114906 -0.00153616
-0.165883 0.114906 0.0176783
-0.169009 0.114906 0.0400953
-0.171688 0.114906 0.0593098
-0.174367 0.114906 0.0785243
-0.177046 0.114906 0.0977389
-0.180172 0.114906 0.120156
-0.182851 0.114906 0.13937
-0.18553 0.114906 0.158585
-0.18821 0.114906 0.177799
-0.191335 0.114906 0.200216
-0.194015 0.114906 0.219431
-0.196694 0.114906 0.238645
-0.199373 0.114906 0.25786
-0.202499 0.114906 0.280277
-0.205178 0.114906 0.299491
-0.207857 0.114906 0.318706
-0.210536 0.114906 0.33792
-0.229796 0.103082 -0.372439
-0.134234 0.114903 -0.391799
-0.137272 0.114903 -0.369997
-0.139875 0.114904 -0.35131
-0.142911 0.114904 -0.329509
-0.145514 0.114905 -0.310821
-0.148117 0.114905 -0.292134
-0.151154 0.114905 -0.270332
-0.153756 0.114906 -0.251644
-0.156796 0.114906 -0.229841
-0.159402 0.114906 -0.211153
-0.162008 0.114906 -0.192465
-0.165048 0.114906 -0.170662
-0.167654 0.114906 -0.151974
-0.170694 0.114906 -0.130172
-0.1733 0.114906 -0.111483
-0.17634 0.114906 -0.0896806
-0.178946 0.114906 -0.0709926
-0.181551 0.114906 -0.0523045
-0.184591 0.114906 -0.0305017
-0.187197 0.114906 -0.0118136
-0.190237 0.114906 0.00998917
-0.192843 0.114906 0.0286773
-0.195883 0.114906 0.05048
-0.198489 0.114906 0.0691681
-0.201095 0.114906 0.0878562
-0.204135 0.114906 0.109659
-0.206741 0.114906 0.128347
-0.209781 0.114906 0.15015
-0.212387 0.114906 0.168838
-0.214993 0.114906 0.187526
-0.218033 0.114906 0.209329
-0.220639 0.114906 0.228017
-0.223679 0.114906 0.24982
-0.226284 0.114906 0.268508
-0.229324 0.114906 0.290311
-0.23193 0.114906 0.308999
-0.234536 0.114906 0.327687
-0.237575 0.114906 0.34949
-0.246338 0.103679 -0.375952
-0.159206 0.114903 -0.385333
-0.161736 0.114904 -0.367145
-0.164691 0.114904 -0.345924
-0.167647 0.114905 -0.324704
-0.171447 0.114905 -0.29742
-0.174403 0.114906 -0.276199
-0.177362 0.114906 -0.254978
-0.181589 0.114906 -0.224662
-0.185394 0.114906 -0.197377
-0.188353 0.114906 -0.176156
-0.191312 0.114906 -0.154934
-0.195539 0.114906 -0.124618
-0.199343 0.114906 -0.0973336
-0.202303 0.114906 -0.0761122
-0.205262 0.114906 -0.0548908
-0.209489 0.114906 -0.0245746
-0.213293 0.114906 0.00271003
-0.216252 0.114906 0.0239314
-0.219211 0.114906 0.0451528
-0.223439 0.114906 0.075469
-0.227243 0.114906 0.102754
-0.230202 0.114906 0.123975
-0.233161 0.114906 0.145197
-0.237388 0.114906 0.175513
-0.241192 0.114906 0.202798
-0.244151 0.114906 0.224019
-0.246604 0.114977 0.245483
-0.246616 0.115508 0.274737
-0.246625 0.115866 0.29439
-0.246633 0.116225 0.314166
-0.246642 0.116587 0.334064
-0.18288 0.114903 -0.379202
-0.18534 0.114905 -0.361487
-0.188219 0.114905 -0.340818
-0.191098 0.114905 -0.320149
-0.193566 0.114906 -0.302432
-0.196448 0.114906 -0.281762
-0.19933 0.114906 -0.261092
-0.202212 0.114906 -0.240421
-0.205094 0.114906 -0.219751
-0.207565 0.114906 -0.202034
-0.210447 0.114906 -0.181364
-0.213329 0.114906 -0.160694
-0.216211 0.114906 -0.140023
-0.218682 0.114906 -0.122306
-0.221564 0.114906 -0.101636
-0.224446 0.114906 -0.0809659
-0.227328 0.114906 -0.0602957
-0.23021 0.114906 -0.0396255
-0.232681 0.114906 -0.0219082
-0.235563 0.114906 -0.00123805
-0.238445 0.114906 0.0194322
-0.241327 0.114906 0.0401024
-0.243797 0.114906 0.0578197
-0.246532 0.114926 0.0785306
-0.246541 0.115329 0.100074
-0.246549 0.115675 0.11866
-0.246559 0.116083 0.140486
-0.246567 0.116434 0.159316
-0.205356 0.114903 -0.373381
-0.208952 0.114905 -0.347482
-0.211758 0.114906 -0.327336
-0.214567 0.114906 -0.307189
-0.217376 0.114906 -0.287043
-0.220186 0.114906 -0.266896
-0.222995 0.114906 -0.246749
-0.225804 0.114906 -0.226602
-0.228613 0.114906 -0.206455
-0.230218 0.114906 -0.194943
-0.233028 0.114906 -0.174796
-0.235837 0.114906 -0.154649
-0.23985 0.114906 -0.125868
-0.242659 0.114906 -0.105721
-0.245468 0.114906 -0.0855737
-0.246471 0.115158 -0.0652426
-0.246479 0.115552 -0.0446953
-0.246492 0.116119 -0.0150972
-0.246656 0.123445 0.367505
-0.229052 0.114906 -0.351011
-0.231792 0.114906 -0.331361
-0.234532 0.114906 -0.311712
-0.237271 0.114906 -0.292062
-0.240011 0.114906 -0.272413
-0.243142 0.114906 -0.249957
-0.245882 0.114906 -0.230307
-0.246408 0.115215 -0.210823
-0.246417 0.115599 -0.19126
-0.246425 0.115986 -0.171566
-0.246344 0.115056 -0.360123
-0.246352 0.11543 -0.341544
-0.246361 0.11586 -0.320163
-0.246664 0.130103 0.387737
-0.246499 0.125245 -0.000189096
-0.24665 0.132545 0.354087
-0.246439 0.125236 -0.140351
-0.246587 0.132559 0.206894
-0.246598 0.1331 0.232568
-0.246604 0.133373 0.245483
-0.246637 0.135031 0.324099
-0.246328 0.122523 -0.399531
-0.246336 0.122919 -0.381209
-0.246378 0.125051 -0.282361
-0.246526 0.132507 0.0632342
-0.246531 0.132771 0.0754652
-0.246574 0.13492 0.175095
-0.246507 0.134482 0.0177978
-0.246516 0.134948 0.0389175
-0.190604 0.149368 0.289634
-0.193322 0.149368 0.309121
-0.196041 0.149368 0.328609
-0.19876 0.149368 0.348096
-0.201478 0.149367 0.367582
-0.22701 0.145435 0.372948
-0.246448 0.134325 -0.120315
-0.246456 0.134779 -0.100143
-0.246465 0.135237 -0.0798339
-0.190468 0.149369 0.143538
-0.193128 0.149369 0.162607
-0.194902 0.149369 0.175319
-0.198892 0.149369 0.203921
-0.201552 0.149368 0.22299
-0.204656 0.149368 0.245236
-0.208646 0.149368 0.273838
-0.211306 0.149368 0.292906
-0.213079 0.149368 0.305618
-0.21707 0.149367 0.33422
-0.21973 0.149367 0.353288
-0.246372 0.133169 -0.295918
-0.24639 0.13411 -0.255054
-0.246398 0.134554 -0.235785
-0.246407 0.135001 -0.216389
-0.190338 0.14937 0.00359145
-0.193377 0.14937 0.0253699
-0.197283 0.14937 0.0533708
-0.200321 0.14937 0.0751491
-0.204227 0.149369 0.10315
-0.205963 0.149369 0.115594
-0.20987 0.149369 0.143595
-0.212908 0.149369 0.165373
-0.216814 0.149368 0.193373
-0.219852 0.149368 0.215151
-0.223758 0.149368 0.243151
-0.225494 0.149368 0.255595
-0.2294 0.149367 0.283595
-0.23244 0.149367 0.305372
-0.237646 0.149367 0.342706
-0.243286 0.149602 0.393338
-0.246355 0.135025 -0.336214
-0.190214 0.149372 -0.130586
-0.192764 0.149371 -0.112304
-0.19574 0.149371 -0.0909738
-0.198715 0.149371 -0.0696441
-0.201266 0.149371 -0.0513615
-0.204242 0.14937 -0.0300319
-0.206792 0.14937 -0.0117495
-0.209768 0.14937 0.00957993
-0.212318 0.14937 0.0278622
-0.215294 0.149369 0.0491916
-0.218269 0.149369 0.0705208
-0.220819 0.149369 0.088803
-0.22507 0.149369 0.119273
-0.227621 0.149368 0.137555
-0.230596 0.149368 0.158884
-0.236125 0.149367 0.198494
-0.239093 0.149368 0.219826
-0.241622 0.149372 0.238117
-0.190094 0.149373 -0.259344
-0.192593 0.149372 -0.241431
-0.195509 0.149372 -0.220532
-0.198424 0.149372 -0.199632
-0.200923 0.149372 -0.181719
-0.203839 0.149371 -0.16082
-0.206754 0.149371 -0.139921
-0.209253 0.149371 -0.122008
-0.215084 0.149371 -0.08021
-0.217583 0.14937 -0.0622968
-0.220498 0.14937 -0.0413981
-0.226329 0.14937 0.000398949
-0.228828 0.149369 0.0183119
-0.23591 0.149369 0.0690647
-0.238826 0.149368 0.0899627
-0.190011 0.149368 -0.382997
-0.193679 0.149369 -0.35666
-0.19531 0.149369 -0.344955
-0.199349 0.149376 -0.315699
-0.202227 0.149373 -0.295209
-0.205085 0.149372 -0.274724
-0.209167 0.149372 -0.245459
-0.216108 0.149371 -0.195709
-0.218965 0.149371 -0.175224
-0.225905 0.149371 -0.125474
-0.228763 0.14937 -0.104989
-0.235703 0.14937 -0.0552405
-0.238562 0.149369 -0.034756
-0.239983 0.142888 -0.401458
-0.237152 0.143972 -0.378477
-0.207074 0.149375 -0.378469
-0.209509 0.149369 -0.361242
-0.21509 0.149372 -0.321072
-0.217892 0.149372 -0.300985
-0.226299 0.149371 -0.240722
-0.229101 0.149371 -0.220634
-0.235906 0.149371 -0.171851
-0.238709 0.14937 -0.151763
-0.225892 0.149372 -0.35721
-0.235709 0.149372 -0.286835
-0.238458 0.149371 -0.26713
-0.242033 0.150146 -0.321061
