ply
format ascii 1.0
comment Created by Open3D
element vertex 784
property double x
property double y
property double z
end_header
0.260474 -0.169499 -0.385066
0.260501 -0.169527 -0.354476
0.260483 -0.167998 -0.374239
0.260495 -0.152467 -0.361104
0.260479 -0.151248 -0.378583
0.260514 -0.146707 -0.3411
0.260479 -0.132488 -0.378583
0.260501 -0.131591 -0.354476
0.261176 -0.169522 0.382891
0.261151 -0.167934 0.355448
0.260522 -0.125749 -0.332091
0.260627 -0.161125 0.344316
0.261155 -0.152443 0.359337
0.261184 -0.150918 0.390828
0.260497 -0.112395 -0.358899
0.260479 -0.111384 -0.378583
0.261137 -0.142062 0.339996
0.260526 -0.106805 -0.327559
0.0343798 -0.167381 0.392068
0.261184 -0.131855 0.390828
0.261165 -0.130968 0.371067
0.00404894 -0.167184 0.381509
-0.214693 -0.168116 -0.181103
0.260476 -0.0924398 -0.382909
0.261147 -0.120688 0.35157
0.250365 -0.121197 0.330456
0.0298082 -0.151777 0.381527
0.260512 -0.0917474 -0.343341
0.260493 -0.090916 -0.363304
-0.00256807 -0.151901 0.381504
-0.213181 -0.16625 0.195771
-0.229033 -0.167867 0.187649
-0.203575 -0.150263 -0.178314
-0.2224 -0.152164 -0.18844
0.261176 -0.112487 0.382891
-0.253141 -0.166133 0.18762
0.260534 -0.0855545 -0.31844
0.0298082 -0.132066 0.381527
0.00404894 -0.134956 0.381509
0.261151 -0.102016 0.355448
0.26114 -0.101608 0.343844
-0.201005 -0.146693 0.195422
-0.229033 -0.14947 0.187649
-0.192457 -0.132398 -0.183639
0.259443 -0.0979281 0.322399
-0.253141 -0.147414 0.18762
-0.222391 -0.131319 -0.188441
0.260505 -0.0724621 -0.350036
0.260489 -0.0718796 -0.367691
0.26047 -0.0711645 -0.389366
-0.205733 -0.133371 0.187673
0.26052 -0.0705869 -0.33435
0.261184 -0.0905509 0.390828
0.0298082 -0.112354 0.381527
0.00404894 -0.114813 0.381509
-0.189048 -0.127486 0.195079
-0.229033 -0.131074 0.187649
-0.253141 -0.133375 0.18762
-0.179123 -0.110992 -0.177205
0.260541 -0.0664796 -0.31155
0.261126 -0.0824102 0.328515
-0.222385 -0.110474 -0.188442
0.261165 -0.0804742 0.371067
0.261147 -0.0799364 0.35157
-0.18024 -0.11334 0.196043
-0.253141 -0.114655 0.18762
0.00404894 -0.0946706 0.381509
-0.205728 -0.106244 0.187671
-0.22903 -0.108078 0.187648
0.261184 -0.0714876 0.390828
0.0298082 -0.0887009 0.381527
-0.165917 -0.0897775 -0.178803
-0.185616 -0.091028 -0.188407
0.26047 -0.0524984 -0.389366
0.258856 -0.0666289 0.311545
-0.168646 -0.0947186 0.1957
-0.222385 -0.0896298 -0.188442
0.260526 -0.0516026 -0.327559
0.260508 -0.0511317 -0.347809
0.260489 -0.0506692 -0.367691
-0.217277 -0.093474 0.187658
0.261165 -0.0615391 0.371067
0.261147 -0.0611278 0.35157
0.26113 -0.060722 0.332332
-0.194369 -0.0874183 0.187681
-0.240982 -0.0904624 0.187634
0.260545 -0.0472375 -0.306934
0.00407469 -0.074526 0.381491
0.25054 -0.0546412 0.307379
0.0298082 -0.0689896 0.381527
-0.153008 -0.0690405 -0.180364
-0.185608 -0.070799 -0.188407
0.261184 -0.0524242 0.390828
-0.183199 -0.0733521 0.187691
-0.205723 -0.0745967 0.187669
-0.222385 -0.0687857 -0.188442
-0.151659 -0.067435 0.197578
-0.229024 -0.0712852 0.187645
0.261158 -0.0424896 0.363237
0.26113 -0.0420383 0.332332
0.00412309 -0.0543811 0.381456
-0.253141 -0.0631775 0.18762
0.26053 -0.0324681 -0.323009
0.260512 -0.0321712 -0.343341
0.260493 -0.0318796 -0.363304
0.260476 -0.0315933 -0.382909
0.0298082 -0.0492783 0.381527
-0.143323 -0.0540465 0.1985
-0.161412 -0.0546577 0.187712
-0.185608 -0.0505707 -0.188407
-0.222385 -0.0521104 -0.188442
-0.137921 -0.0448135 -0.17834
0.261102 -0.0323529 0.302077
-0.183195 -0.0466784 0.187689
-0.205719 -0.0474705 0.187667
-0.22902 -0.0482899 0.187643
0.260553 -0.0255411 -0.297643
0.261184 -0.0301837 0.390828
-0.253139 -0.0444582 0.187619
0.00417149 -0.0342383 0.381421
0.0298082 -0.029567 0.381527
-0.129566 -0.0319174 0.178246
-0.129489 -0.0317653 0.159782
-0.129412 -0.0316145 0.141493
-0.129316 -0.0314281 0.118875
-0.129241 -0.0312806 0.100972
-0.129147 -0.031098 0.0788272
-0.129073 -0.0309536 0.0612969
-0.128982 -0.0307748 0.0396118
-0.12891 -0.0306333 0.0224433
-0.12882 -0.0304583 0.00120327
-0.128731 -0.0302852 -0.0197954
-0.128644 -0.0301141 -0.0405566
-0.128557 -0.0299449 -0.0610847
-0.128471 -0.0297776 -0.0813833
-0.128387 -0.0296121 -0.101456
-0.128303 -0.0294485 -0.121308
-0.12822 -0.0292867 -0.140941
-0.128138 -0.0291267 -0.160359
-0.185608 -0.0303424 -0.188407
-0.222385 -0.0312662 -0.188442
0.261165 -0.020513 0.371067
0.261137 -0.0202946 0.339996
0.261119 -0.0170588 0.320911
-0.124263 -0.0234325 0.19905
-0.14714 -0.0233632 0.116781
-0.151051 -0.023363 0.104666
-0.157569 -0.0233626 0.0844748
-0.164087 -0.0233623 0.0642842
-0.170606 -0.0233619 0.0440942
-0.177123 -0.0233615 0.0239047
-0.183641 -0.0233612 0.00371605
-0.190151 -0.0233607 -0.0164739
-0.199251 -0.0233597 -0.0447416
-0.205751 -0.023359 -0.0649314
-0.21225 -0.0233583 -0.0851199
-0.218748 -0.0233576 -0.105307
-0.225247 -0.0233568 -0.125493
-0.231745 -0.0233561 -0.145678
-0.123171 -0.0211045 -0.187762
-0.150769 -0.0195163 0.187716
-0.1722 -0.0198393 0.187695
-0.194352 -0.0201732 0.187674
-0.20571 -0.0203443 0.187663
-0.229014 -0.0206955 0.187641
-0.253136 -0.0210591 0.187618
0.260539 -0.0108673 -0.313852
0.26052 -0.0107675 -0.33435
0.260501 -0.0106695 -0.354476
0.260483 -0.0105733 -0.374239
0.261184 -0.0111203 0.390828
0.261102 -0.0107843 0.302077
0.0343808 -0.0137843 0.392067
0.00421989 -0.0140974 0.381387
-0.150942 -0.0137535 -0.188375
-0.185608 -0.0101142 -0.188407
-0.222385 -0.0104221 -0.188442
0.26056 -0.00610019 -0.290625
0.261147 -0.00470215 0.35157
0.261119 -0.0046524 0.320911
0.261165 -0.00157793 0.371067
-0.140314 -0.00215099 0.187725
-0.161397 -0.00218629 0.187705
-0.183183 -0.00222277 0.187685
-0.20571 -0.0022605 0.187663
-0.229014 -0.00229952 0.187641
-0.253136 -0.00233991 0.187618
-0.118217 -0.00190999 -0.188344
0.26047 -0.00116664 -0.389366
0.0343809 0.00590755 0.392067
0.00426823 0.00604143 0.381352
-0.105761 0.00629109 0.194988
-0.150942 0.00589432 -0.188375
0.261184 0.00794307 0.390828
0.261102 0.00770306 0.302077
-0.185608 0.0101142 -0.188407
-0.222385 0.0104221 -0.188442
0.250713 0.01084 0.284674
-0.101797 0.0132124 -0.179101
0.260543 0.00846975 -0.309244
0.260526 0.00840041 -0.327559
0.260508 0.00832374 -0.347809
0.260489 0.00824847 -0.367691
-0.140314 0.0193588 0.187725
-0.161397 0.0196765 0.187705
-0.183183 0.0200048 0.187685
-0.20571 0.0203443 0.187663
-0.229014 0.0206955 0.187641
-0.253136 0.0210591 0.187618
-0.118209 0.0210097 -0.188345
0.260564 0.0134484 -0.285921
0.261165 0.020513 0.371067
0.261137 0.0202946 0.339996
0.0343812 0.0255994 0.392067
0.00431669 0.0261783 0.381317
-0.150942 0.0255421 -0.188375
0.261119 0.023262 0.320911
-0.0925916 0.0280114 -0.18767
-0.185608 0.0303425 -0.188407
-0.222385 0.0312662 -0.188442
-0.087798 0.0351435 0.195572
-0.109935 0.0357017 0.187754
-0.130025 0.0362737 0.187735
-0.183183 0.0377869 0.187685
-0.20571 0.0384282 0.187663
-0.229014 0.0390916 0.187641
-0.253136 0.0397782 0.187618
0.261184 0.0301837 0.390828
0.261102 0.0292716 0.302077
0.261081 0.0290427 0.279799
-0.150769 0.0412012 0.187715
-0.118209 0.0401093 -0.188345
0.0343813 0.0452913 0.392067
-0.150942 0.0451899 -0.188375
-0.222385 0.0479415 -0.188442
0.260553 0.0279736 -0.297643
0.260534 0.0277149 -0.31844
0.261165 0.0394481 0.371067
0.261137 0.039028 0.339996
-0.24097 0.0579881 0.187629
-0.185608 0.0505707 -0.188407
0.260516 0.0298488 -0.338855
0.260497 0.0295777 -0.358899
0.260479 0.0293116 -0.378583
0.00438422 0.0543666 0.381269
-0.0752522 0.0552922 0.198542
-0.100125 0.0562593 0.187763
-0.140313 0.0580763 0.187725
-0.161397 0.0590295 0.187705
-0.183183 0.0600145 0.187685
-0.20571 0.061033 0.187663
-0.0789316 0.0499389 -0.178363
0.260571 0.0331133 -0.278829
0.261119 0.0449732 0.320911
0.261184 0.049247 0.390828
0.261102 0.047759 0.302077
0.261074 0.0472622 0.272451
-0.1199 0.0656205 0.187745
-0.118209 0.059209 -0.188345
-0.222385 0.0687857 -0.188442
0.0298082 0.0689896 0.381527
-0.183183 0.0777966 0.187684
-0.20571 0.0791168 0.187663
-0.229014 0.0804826 0.187641
-0.253136 0.0818964 0.187618
-0.185608 0.070799 -0.188407
0.261165 0.0583832 0.371067
0.261137 0.0577615 0.339996
0.00443256 0.0744987 0.381234
-0.062996 0.0749805 0.197012
-0.0809594 0.0759086 0.187782
-0.140313 0.079586 0.187725
-0.161396 0.0808923 0.187705
-0.0678626 0.0677197 -0.179816
-0.0872537 0.0687509 -0.188316
-0.150942 0.0726968 -0.188375
0.260558 0.047532 -0.292969
0.261119 0.0635827 0.320911
-0.100125 0.0854308 0.187763
-0.118209 0.0783087 -0.188345
0.260539 0.0495065 -0.313851
0.26052 0.0490519 -0.33435
0.260501 0.0486056 -0.354476
0.260483 0.0481673 -0.374239
0.261184 0.0683103 0.390828
-0.217262 0.0980325 0.187652
-0.24097 0.0997395 0.187629
-0.222385 0.0896298 -0.188442
0.260577 0.0529019 -0.271692
0.261102 0.0693275 0.302077
0.261081 0.0687853 0.279799
0.0298082 0.0887009 0.381527
-0.1199 0.0952555 0.187744
-0.150769 0.0975816 0.187715
-0.172199 0.0991965 0.187695
-0.194352 0.100866 0.187674
-0.185608 0.0910273 -0.188407
0.00448102 0.0946288 0.3812
-0.0509927 0.0942624 0.195514
-0.0715963 0.0956875 0.18779
-0.057079 0.0850458 -0.184817
0.255319 0.0749116 0.26246
-0.246317 0.112705 0.135309
-0.0872537 0.0910484 -0.188316
-0.150942 0.0962742 -0.188375
0.261165 0.0804742 0.371067
0.261137 0.0796171 0.339996
-0.0904675 0.105443 0.187772
-0.24097 0.118296 0.187629
-0.192776 0.112705 0.134357
-0.217492 0.114549 0.12467
0.26047 0.0594982 -0.389366
-0.0438782 0.105689 0.196376
-0.183183 0.117806 0.187684
-0.205709 0.119805 0.187663
-0.143276 0.112705 0.133477
-0.155884 0.113573 0.12473
-0.257388 0.122581 0.124631
-0.228381 0.112708 -0.129245
-0.118209 0.101228 -0.188345
-0.222385 0.110474 -0.188442
0.261119 0.0852939 0.320911
0.0298082 0.108412 0.381527
-0.109934 0.115506 0.187754
-0.140313 0.118303 0.187725
-0.161396 0.120245 0.187705
-0.0973762 0.112705 0.132661
-0.10614 0.112698 0.105371
-0.243828 0.125958 0.124644
-0.181923 0.112709 -0.128295
-0.206555 0.114725 -0.136808
-0.185608 0.111256 -0.188407
0.261184 0.0905509 0.390828
0.261102 0.0878148 0.302077
0.00452924 0.114757 0.381165
-0.071596 0.116047 0.18779
-0.0535141 0.112709 0.135676
-0.0570779 0.112699 0.124363
-0.0668086 0.112699 0.0942962
-0.0765429 0.112699 0.0642311
-0.0862994 0.112701 0.0341733
-0.0960563 0.112703 0.00411436
-0.105814 0.112705 -0.0259459
-0.138724 0.112711 -0.127412
0.260566 0.0697599 -0.283562
0.260547 0.0691107 -0.304618
0.26053 0.0685437 -0.323009
0.260512 0.0679169 -0.343341
0.261081 0.0901852 0.279799
-0.0137677 0.112709 0.13484
-0.0231019 0.112701 0.105762
-0.0266269 0.112701 0.0948687
-0.036028 0.1127 0.0658209
-0.0395535 0.1127 0.054928
-0.0489542 0.112699 0.0258806
-0.0524869 0.1127 0.0149902
-0.0619122 0.112702 -0.0140499
-0.0689816 0.112704 -0.0358307
-0.0784075 0.112706 -0.0648727
-0.0819424 0.112707 -0.0757637
-0.091369 0.112709 -0.104807
-0.0949042 0.11271 -0.115699
-0.234336 0.125813 -0.136833
-0.0442383 0.105665 -0.179368
-0.0872537 0.10963 -0.188316
-0.150942 0.115922 -0.188375
0.260584 0.0728156 -0.26451
0.260493 0.0696629 -0.363304
0.261147 0.0956101 0.35157
0.261064 0.0926386 0.261499
0.0233695 0.112709 0.134061
0.0143303 0.112702 0.10594
0.00751048 0.112702 0.0848677
-0.00158256 0.112701 0.056772
-0.00840217 0.112701 0.0357004
-0.0152218 0.112701 0.0146289
-0.0243145 0.1127 -0.0134661
-0.0311474 0.112701 -0.0345336
-0.0345659 0.112702 -0.045067
-0.0436819 0.112704 -0.0731567
-0.0505195 0.112706 -0.0942245
-0.057357 0.112707 -0.115293
-0.0840454 0.114726 -0.136696
0.261165 0.0994093 0.371067
-0.0443463 0.125387 0.187816
0.0341172 0.114282 0.105142
0.0340992 0.113614 0.0855321
0.0340886 0.113217 0.0738761
0.0295764 0.112703 0.0448969
0.0229731 0.112702 0.024494
0.0141686 0.112702 -0.0027096
0.0075652 0.112701 -0.0231121
0.000961959 0.112701 -0.0435145
-0.00564575 0.112701 -0.0639156
-0.0122654 0.112703 -0.0843141
-0.0188853 0.112704 -0.104713
-0.0255052 0.112706 -0.125113
-0.154478 0.125918 -0.13676
-0.0579338 0.113969 -0.188289
-0.118209 0.120328 -0.188345
-0.222385 0.131318 -0.188442
0.0298234 0.128121 0.381516
-0.244544 0.15824 0.388491
-0.250545 0.158241 0.369986
-0.256546 0.158242 0.351481
0.0340155 0.114021 -0.00548896
0.0339886 0.112993 -0.0347349
0.0332172 0.112702 -0.0453479
0.026817 0.112702 -0.0651227
0.0172169 0.112702 -0.0947846
0.0108016 0.112703 -0.114556
0.00440788 0.112702 -0.134332
-0.106581 0.124702 -0.136717
-0.179961 0.132689 -0.136783
-0.206555 0.135584 -0.136808
-0.185608 0.131484 -0.188407
0.00457764 0.134883 0.381131
-0.200714 0.15824 0.389865
-0.206536 0.158241 0.371912
-0.213813 0.158242 0.349472
-0.219635 0.158243 0.331519
-0.226912 0.158244 0.309077
-0.0715959 0.136406 0.18779
0.0339233 0.113902 -0.105593
0.0338974 0.112906 -0.133069
-0.0623792 0.12358 -0.136677
-0.0840454 0.126011 -0.136696
0.260476 0.0783983 -0.382909
0.261184 0.109614 0.390828
0.261074 0.105197 0.272451
0.250327 0.105666 0.251795
-0.159425 0.15824 0.391159
-0.166491 0.158241 0.369369
-0.172144 0.158242 0.351936
-0.17921 0.158243 0.330145
-0.186276 0.158244 0.308354
-0.191929 0.158245 0.290922
0.0341356 0.125907 0.124983
-0.000886202 0.12995 0.124872
-0.0193467 0.132083 0.124855
-0.0384233 0.134287 0.124837
-0.0581473 0.136566 0.124818
-0.0785525 0.138924 0.124799
-0.130039 0.135086 -0.136738
-0.0872537 0.128211 -0.188316
-0.150942 0.13557 -0.188375
0.26113 0.110545 0.332332
0.261109 0.109672 0.309581
0.261091 0.108954 0.290894
-0.120453 0.158238 0.392374
-0.127329 0.158241 0.371203
-0.134196 0.158242 0.350027
-0.141062 0.158243 0.32885
-0.146556 0.158244 0.311908
-0.153423 0.158245 0.290731
-0.0996743 0.145462 0.124779
-0.121552 0.148063 0.124759
-0.144226 0.150759 0.124737
-0.155875 0.152144 0.124727
-0.179828 0.154992 0.124704
-0.204695 0.157948 0.124681
-0.213697 0.158234 0.1043
-0.223308 0.158235 0.0746504
-0.106581 0.136213 -0.136717
-0.0317388 0.12574 -0.17754
-0.222385 0.147993 -0.188442
-0.0849702 0.15824 0.389414
-0.0916485 0.158241 0.368818
-0.0969912 0.158242 0.352341
-0.103669 0.158243 0.331744
-0.110347 0.158244 0.311147
-0.117021 0.158244 0.290547
-0.123695 0.158245 0.269947
-0.0207728 0.142801 0.197751
-0.0443461 0.14529 0.187816
-0.179657 0.158234 0.0968678
-0.183663 0.158235 0.0845089
-0.19034 0.158236 0.0639108
-0.199688 0.158237 0.035073
-0.206366 0.158238 0.0144744
-0.213043 0.158239 -0.00612462
-0.222391 0.15824 -0.0349635
0.0165248 0.125001 -0.136605
-0.154478 0.145905 -0.13676
-0.234336 0.155667 -0.136833
-0.255748 0.15824 -0.137968
-0.118209 0.139428 -0.188345
-0.185608 0.147667 -0.188407
0.260571 0.0895285 -0.278829
0.260553 0.0887856 -0.297643
0.260534 0.0879645 -0.31844
0.261165 0.118344 0.371067
0.0298695 0.147825 0.381482
-0.050071 0.15824 0.390617
-0.0565708 0.158241 0.37057
-0.0630709 0.158242 0.350523
-0.0695667 0.158242 0.330473
-0.0760621 0.158243 0.310422
-0.0825578 0.158243 0.290372
-0.0890535 0.158243 0.270321
-0.0955491 0.158244 0.250271
-0.0384233 0.145964 0.124837
-0.146132 0.158235 0.0938416
-0.152631 0.158236 0.0737928
-0.15913 0.158236 0.0537437
-0.165629 0.158237 0.0336945
-0.172128 0.158238 0.013645
-0.178627 0.158239 -0.00640464
-0.185126 0.15824 -0.0264545
-0.191625 0.158241 -0.0465045
-0.200724 0.158242 -0.0745751
-0.0214617 0.133197 -0.13664
-0.0415334 0.135718 -0.136658
-0.179961 0.153103 -0.136783
-0.206555 0.156443 -0.136808
-0.0579338 0.135678 -0.188289
-0.238386 0.158242 -0.190875
-0.244883 0.158243 -0.210927
0.26059 0.0928553 -0.257283
0.260516 0.0895463 -0.338855
0.260497 0.0887332 -0.358899
0.00462586 0.155007 0.381096
-0.0182507 0.15824 0.387851
-0.0233133 0.15824 0.372229
-0.0309054 0.158241 0.348794
-0.0372319 0.158241 0.329264
-0.0435587 0.158241 0.309735
-0.0498855 0.158242 0.290206
-0.0562122 0.158242 0.270676
-0.062539 0.158243 0.251146
-0.0688659 0.158243 0.231616
-0.113082 0.158235 0.0948781
-0.12321 0.158236 0.0636331
-0.12954 0.158237 0.0441048
-0.13587 0.158238 0.0245762
-0.144733 0.158239 -0.0027642
-0.152329 0.15824 -0.0261992
-0.158657 0.158241 -0.045729
-0.164984 0.158241 -0.0652593
-0.0021221 0.134255 -0.136622
-0.211792 0.158242 -0.209787
0.261147 0.123823 0.35157
0.00456262 0.15824 0.362382
-0.00282729 0.158239 0.339533
-0.00900149 0.15824 0.320504
-0.015168 0.15824 0.301469
-0.0213344 0.158241 0.282434
-0.0287342 0.158241 0.259592
-0.0349007 0.158242 0.240556
-0.0410672 0.158242 0.221521
0.025713 0.145265 0.124897
0.00812227 0.147592 0.124881
-0.0100412 0.149995 0.124864
-0.0581473 0.156358 0.124818
-0.075537 0.158234 0.114896
-0.085408 0.158236 0.0844421
-0.0952793 0.158237 0.0539879
-0.101449 0.158238 0.0349537
-0.11132 0.158239 0.00449869
-0.121187 0.15824 -0.0259581
-0.12982 0.15824 -0.0526081
-0.13722 0.15824 -0.0754511
-0.0623792 0.145713 -0.136677
-0.163108 0.15824 -0.155404
-0.150942 0.155218 -0.188375
-0.174209 0.158241 -0.189669
-0.180377 0.158241 -0.208705
0.261184 0.128678 0.390828
0.0334334 0.158245 0.360471
0.0274298 0.158243 0.341898
0.0202256 0.158242 0.319611
0.0142224 0.15824 0.301039
0.00821489 0.158239 0.28247
0.00100249 0.158239 0.260189
-0.00500757 0.158239 0.241622
-0.0122361 0.158241 0.21935
-0.0242432 0.158238 0.182209
-0.0494728 0.158235 0.104223
-0.0590999 0.158236 0.0745213
-0.0687271 0.158238 0.0448188
-0.0783514 0.158238 0.0151148
-0.0819597 0.158239 0.00397554
-0.0915819 0.158239 -0.0257294
-0.101204 0.15824 -0.0554344
-0.110827 0.15824 -0.0851397
-0.106581 0.155398 -0.136717
-0.130066 0.15824 -0.144552
-0.133674 0.15824 -0.155691
-0.0872537 0.150509 -0.188316
-0.150513 0.158241 -0.207676
0.26113 0.129229 0.332332
0.261109 0.128208 0.309581
0.250385 0.126768 0.244478
0.0679863 0.158244 0.380372
0.0621215 0.158244 0.362251
0.0550836 0.158243 0.340506
0.0492187 0.158243 0.322385
0.042181 0.158242 0.30064
0.0351416 0.158242 0.278896
0.0292752 0.158242 0.260777
0.0222439 0.15824 0.239028
0.0163786 0.15824 0.220908
0.00934011 0.15824 0.199165
0.00347668 0.158239 0.181044
-0.00356007 0.158239 0.159299
-0.0211414 0.158235 0.104935
-0.0305364 0.158237 0.0759485
-0.0375805 0.158237 0.0542077
-0.0469707 0.158238 0.025219
-0.050492 0.158238 0.0143481
-0.0598823 0.158238 -0.0146408
-0.0634036 0.158238 -0.0255117
-0.072794 0.158239 -0.0545008
-0.0763155 0.158239 -0.0653718
-0.0857059 0.15824 -0.0943612
-0.0840454 0.156103 -0.136696
-0.105659 0.15824 -0.155965
-0.0196062 0.14523 -0.179217
-0.116219 0.15824 -0.188579
-0.123263 0.158241 -0.210321
0.261091 0.130438 0.290894
0.0894586 0.158243 0.363948
0.0802957 0.158242 0.335637
0.0734234 0.158242 0.314404
0.0642579 0.158241 0.286094
0.0573832 0.158241 0.264863
0.0482168 0.158241 0.236554
0.041342 0.158241 0.215323
0.0379047 0.158241 0.204707
0.0287434 0.15824 0.176396
0.0218765 0.158239 0.155161
0.018441 0.158239 0.144545
0.0024175 0.158236 0.0949985
-0.00675172 0.158236 0.0666923
-0.0136286 0.158237 0.0454625
-0.0170671 0.158237 0.0348475
-0.0262363 0.158237 0.00654092
-0.0331132 0.158238 -0.0146891
-0.0365517 0.158238 -0.0253042
-0.0457209 0.158238 -0.0536112
-0.052598 0.158239 -0.0748415
-0.0560366 0.158239 -0.0854567
0.0165248 0.145549 -0.136605
-0.0801132 0.158241 -0.159763
-0.096149 0.15824 -0.209303
0.260476 0.0994605 -0.382909
0.261074 0.132639 0.272451
0.109943 0.158242 0.348279
0.104348 0.158241 0.330992
0.0976325 0.158241 0.310248
0.0909159 0.158241 0.289504
0.0853187 0.158241 0.272218
0.0786018 0.158241 0.251475
0.0718851 0.158241 0.230732
0.0651681 0.158241 0.209989
0.0282581 0.158235 0.0958874
0.0215394 0.158236 0.0751459
0.0181802 0.158236 0.064775
0.00922185 0.158236 0.0371194
0.00250316 0.158237 0.0163776
-0.0042156 0.158237 -0.00436431
-0.0109345 0.158237 -0.0251063
-0.0176532 0.158238 -0.0458484
-0.0266117 0.158238 -0.0735046
-0.0333304 0.158238 -0.0942469
-0.0214618 0.154508 -0.13664
-0.0546199 0.158241 -0.159929
-0.0669218 0.158239 -0.19796
-0.0736418 0.15824 -0.218703
0.261165 0.140435 0.371067
0.128413 0.15824 0.329936
0.121847 0.15824 0.309659
0.115281 0.15824 0.289381
0.10981 0.15824 0.272484
0.103244 0.15824 0.252207
0.0966775 0.15824 0.23193
0.0901111 0.15824 0.211654
0.0332345 0.158236 0.0359099
0.0266668 0.158236 0.0156342
0.0200991 0.158236 -0.00464147
0.0135314 0.158237 -0.0249173
0.0102476 0.158237 -0.0350553
0.00367969 0.158237 -0.0553311
-0.00288808 0.158237 -0.0756072
-0.0116452 0.158238 -0.102642
-0.00212228 0.155178 -0.136622
-0.031369 0.158242 -0.163468
-0.0401033 0.158239 -0.190506
-0.0466722 0.158239 -0.210783
0.260575 0.10938 -0.274076
0.260558 0.10847 -0.292969
0.261147 0.142632 0.35157
0.147137 0.15824 0.315706
0.140716 0.15824 0.295874
0.131083 0.15824 0.266128
0.124661 0.15824 0.246297
0.118239 0.15824 0.226466
0.111817 0.15824 0.206635
0.0341341 0.166051 0.124984
0.0339985 0.158726 -0.0238297
0.0304982 0.158236 -0.0445668
0.0240749 0.158237 -0.0643971
0.0176514 0.158237 -0.0842274
0.011228 0.158237 -0.104058
-0.00806731 0.158242 -0.163546
-0.019817 0.158239 -0.199906
-0.0262405 0.158239 -0.219737
0.260597 0.113022 -0.25001
0.260539 0.10988 -0.313852
0.26052 0.108871 -0.33435
0.260501 0.107881 -0.354476
0.261184 0.147741 0.390828
0.165056 0.158239 0.302088
0.157725 0.158239 0.27945
0.151441 0.15824 0.260046
0.145157 0.15824 0.240641
0.138873 0.15824 0.221237
0.0591841 0.169225 0.192917
0.0339335 0.158627 -0.0951644
0.0299748 0.158237 -0.115115
0.0153004 0.158239 -0.16039
0.00901693 0.158239 -0.179794
0.00273538 0.158239 -0.199199
-0.00354469 0.158238 -0.218604
0.26113 0.147913 0.332332
0.179143 0.158239 0.279547
0.172992 0.158239 0.260552
0.16684 0.158239 0.241556
0.159663 0.158239 0.219394
0.0294576 0.15824 -0.182691
0.0253578 0.15824 -0.195355
0.261109 0.149833 0.309581
0.261091 0.148853 0.290894
0.250441 0.147758 0.2372
0.19767 0.158239 0.273439
0.191646 0.158239 0.254835
0.175772 0.158796 0.216397
0.0470527 0.15824 -0.19167
0.0380129 0.158241 -0.219576
0.261147 0.155171 0.35157
0.21053 0.158239 0.252388
0.203643 0.158239 0.231121
0.0590183 0.15824 -0.215477
0.261165 0.15937 0.371067
0.261074 0.153983 0.272451
0.228666 0.158238 0.250037
0.22288 0.158239 0.23217
0.08305 0.15824 -0.199628
0.0762976 0.15824 -0.220474
0.260489 0.119014 -0.367691
0.26047 0.11783 -0.389366
0.100467 0.15824 -0.201915
0.116304 0.158239 -0.206981
0.260579 0.129315 -0.269303
0.260562 0.128237 -0.288275
0.260604 0.133318 -0.24269
0.260543 0.129466 -0.309244
0.260526 0.128406 -0.327559
0.261126 0.169485 0.328515
0.261109 0.168369 0.309581
0.261064 0.165535 0.261499
0.23746 0.167912 0.228822
0.147989 0.158243 -0.211031
0.142649 0.158239 -0.22759
0.260508 0.129613 -0.347809
0.176598 0.158241 -0.21746
0.20325 0.158239 -0.223449
0.216289 0.158243 -0.225026
0.260483 0.139803 -0.374239
0.260588 0.149649 -0.259697
0.260571 0.148397 -0.278829
0.24035 0.158241 -0.230477
0.26061 0.153744 -0.235324
0.260553 0.149598 -0.297643
0.260534 0.148214 -0.31844
0.260516 0.149244 -0.338855
0.26047 0.148162 -0.389366
0.260493 0.159398 -0.363304
0.26059 0.169616 -0.257283
0.260566 0.167668 -0.283562
0.260547 0.168533 -0.304618
0.26053 0.169556 -0.323009
0.260512 0.168005 -0.343341
0.260474 0.169499 -0.385066
