ply
format ascii 1.0
comment Created by Open3D
element vertex 863
property double x
property double y
property double z
end_header
-0.22448 -0.257634 0.218534
-0.222486 -0.252536 0.238997
-0.20073 -0.255832 0.251661
-0.219661 -0.242126 0.217285
-0.189771 -0.241934 0.251601
-0.21717 -0.231996 0.250846
-0.253486 -0.331196 -0.234095
-0.25358 -0.331142 -0.246811
-0.234163 -0.329965 -0.220188
-0.215048 -0.222043 0.224714
-0.197123 -0.220412 0.251651
-0.246109 -0.311686 -0.222912
-0.246132 -0.311449 -0.235497
-0.234849 -0.310553 -0.218933
-0.213486 -0.309957 -0.220206
-0.174699 -0.211021 0.251524
-0.197131 -0.201055 0.251657
-0.238717 -0.291842 -0.224232
-0.183148 -0.216423 0.186474
-0.210525 -0.202284 0.221005
0.26029 -0.311127 0.247382
-0.239123 -0.292493 -0.242453
-0.221796 -0.291388 -0.217825
-0.183085 -0.216762 0.174039
0.260094 -0.310617 0.233839
-0.183357 -0.216606 0.151865
-0.183641 -0.216444 0.128711
-0.182318 -0.19158 0.251573
-0.204501 -0.279322 -0.217439
0.257446 -0.292133 0.23832
-0.232624 -0.27213 -0.22924
-0.183937 -0.216274 0.104511
-0.192704 -0.19749 0.188502
0.257297 -0.292165 0.221122
-0.200761 -0.18089 0.251685
-0.155054 -0.191102 0.251418
-0.232098 -0.269801 -0.249298
-0.184248 -0.216096 0.0791929
-0.193171 -0.196932 0.167197
-0.207038 -0.182275 0.2266
-0.184193 -0.216467 0.0639334
-0.193234 -0.197029 0.154418
-0.21241 -0.261201 -0.215975
-0.184521 -0.216287 0.0366747
-0.193364 -0.197228 0.127867
-0.134453 -0.18644 0.2513
0.254163 -0.272216 0.232793
0.264922 -0.271445 0.248973
-0.226352 -0.25185 -0.215836
-0.184468 -0.216675 0.0202121
-0.193432 -0.197332 0.11407
-0.202936 -0.177054 0.200225
-0.22642 -0.251163 -0.247048
-0.19395 -0.252349 -0.217102
-0.184817 -0.216493 -0.00921941
-0.193951 -0.196729 0.0894524
-0.194029 -0.196829 0.0746282
-0.202986 -0.177425 0.17291
-0.159066 -0.172197 0.251446
-0.185183 -0.216302 -0.0401567
-0.203314 -0.16172 0.248271
0.250668 -0.25197 0.247754
-0.20611 -0.239777 -0.214687
-0.185137 -0.216717 -0.0589083
-0.194192 -0.197039 0.0437371
-0.203357 -0.177127 0.147609
-0.203563 -0.162337 0.232173
0.250526 -0.252156 0.227394
-0.20355 -0.176972 0.134476
-0.130218 -0.17105 0.25128
-0.185527 -0.216523 -0.0924839
-0.194364 -0.197261 0.0110707
-0.203669 -0.161786 0.209622
-0.221581 -0.231982 -0.243187
-0.185974 -0.215888 -0.107036
-0.194454 -0.197377 -0.00597662
-0.203622 -0.177366 0.103271
-0.103886 -0.171374 0.251126
-0.192121 -0.229403 -0.214119
-0.185938 -0.216319 -0.127899
-0.21891 -0.221689 -0.216806
-0.19506 -0.196705 -0.0364578
-0.204037 -0.177045 0.0742881
0.246716 -0.232065 0.242582
-0.186373 -0.216103 -0.16531
-0.187379 -0.213897 -0.152682
-0.203334 -0.157269 0.182508
0.246519 -0.231969 0.222138
-0.186342 -0.216557 -0.188112
-0.191717 -0.204745 -0.119401
-0.195271 -0.196933 -0.0739575
-0.204129 -0.177465 0.0392846
-0.166973 -0.150527 0.251498
-0.195382 -0.197052 -0.0935878
-0.204353 -0.177298 0.0232168
-0.203558 -0.157025 0.154331
-0.200776 -0.142353 0.251696
-0.196474 -0.212193 -0.212877
-0.134468 -0.151696 0.25131
-0.216535 -0.210553 -0.246011
-0.193325 -0.202362 -0.165688
-0.204821 -0.17695 -0.0103159
-0.203879 -0.15726 0.121137
-0.201378 -0.142445 0.222057
-0.146951 -0.147251 0.251386
-0.205065 -0.176768 -0.0278218
-0.204047 -0.157384 0.103717
-0.108394 -0.151442 0.251158
-0.080719 -0.156088 0.250996
0.242406 -0.212059 0.237548
-0.214526 -0.202118 -0.230726
-0.201865 -0.18424 -0.0943163
-0.204947 -0.1774 -0.0510355
-0.20147 -0.14139 0.198978
0.242142 -0.211678 0.217033
0.255989 -0.20927 0.249044
-0.205202 -0.177219 -0.0697767
-0.204311 -0.157123 0.0708026
-0.201055 -0.186865 -0.153563
-0.204495 -0.15725 0.0516601
-0.0613113 -0.151818 0.250886
-0.211898 -0.190051 -0.210796
-0.204686 -0.157382 0.0318415
-0.201181 -0.137209 0.180599
-0.170875 -0.132072 0.251526
-0.212852 -0.191574 -0.246305
-0.201922 -0.185812 -0.191956
-0.203609 -0.182032 -0.166247
-0.206015 -0.176641 -0.129587
-0.20137 -0.137428 0.161946
-0.208066 -0.170769 -0.110706
-0.20499 -0.157103 -0.00572586
0.237809 -0.192448 0.229218
0.238581 -0.189882 0.249149
-0.205199 -0.157239 -0.027644
-0.201695 -0.137459 0.125831
-0.198913 -0.121759 0.247646
-0.138678 -0.130222 0.251342
-0.0947742 -0.136781 0.251084
-0.0410782 -0.144803 0.250772
0.255976 -0.189178 0.249049
-0.206373 -0.162098 -0.0877797
-0.205417 -0.157379 -0.0503919
-0.201827 -0.137255 0.108525
-0.199174 -0.122388 0.22593
-0.117265 -0.13106 0.251216
-0.207871 -0.167393 -0.153855
-0.207245 -0.164827 -0.133039
-0.205537 -0.156939 -0.0693038
-0.203767 -0.147085 0.00992405
-0.202043 -0.137492 0.0870461
-0.199319 -0.122332 0.208919
-0.209186 -0.171854 -0.21547
-0.202186 -0.137281 0.0684261
-0.199405 -0.121914 0.194237
-0.209541 -0.172331 -0.245891
-0.208337 -0.167456 -0.204873
-0.207679 -0.164792 -0.182457
-0.202334 -0.137063 0.0491571
-0.0662512 -0.131056 0.250921
-0.0199654 -0.137481 0.250654
-0.202573 -0.137309 0.0251957
0.232721 -0.172247 0.224494
0.232229 -0.169707 0.245008
0.255964 -0.172434 0.249054
-0.205283 -0.150844 -0.114887
-0.170884 -0.112093 0.251532
-0.202992 -0.137339 -0.0215479
-0.199225 -0.117168 0.15674
-0.204147 -0.142303 -0.0910077
-0.203167 -0.137104 -0.0441103
-0.199451 -0.117374 0.133825
-0.138686 -0.111782 0.251347
-0.0993724 -0.116824 0.251117
0.00208706 -0.129834 0.25053
-0.206257 -0.152161 -0.208405
-0.20533 -0.147282 -0.163489
-0.203446 -0.137371 -0.072251
-0.199616 -0.117214 0.113313
-0.197671 -0.102325 0.249394
-0.121639 -0.111618 0.251246
-0.0358962 -0.122387 0.250749
-0.206531 -0.152212 -0.238614
-0.201603 -0.126517 0.00296324
-0.199861 -0.11743 0.088385
0.0192829 -0.126594 0.250434
0.227613 -0.152464 0.246859
-0.204909 -0.14241 -0.175497
-0.203941 -0.137407 -0.127439
-0.200041 -0.117265 0.0660284
-0.198043 -0.102396 0.207864
0.227325 -0.15239 0.216457
0.255947 -0.152342 0.249061
-0.203223 -0.132404 -0.107604
-0.200308 -0.117492 0.0388106
-0.0711399 -0.11051 0.250956
-0.200346 -0.116508 0.0225067
-0.197539 -0.0956747 0.230229
0.0431484 -0.121171 0.250295
-0.197975 -0.0974292 0.19
-0.204492 -0.134605 -0.22356
-0.202987 -0.127143 -0.145055
-0.20201 -0.122299 -0.0941064
-0.201018 -0.117381 -0.042366
-0.20065 -0.11526 -0.0201242
-0.198155 -0.0972027 0.168533
-0.170892 -0.0921143 0.251538
-0.00352901 -0.110478 0.250568
0.0554947 -0.116954 0.250227
-0.201247 -0.117194 -0.0704825
-0.198387 -0.0972716 0.142845
0.221829 -0.132269 0.245871
-0.204272 -0.130487 -0.248925
-0.203382 -0.126177 -0.201313
-0.19863 -0.097344 0.115816
-0.138695 -0.0910375 0.251353
-0.0993836 -0.0951432 0.251123
-0.0411021 -0.10123 0.250785
0.0810838 -0.11399 0.250081
0.221344 -0.131433 0.219053
0.238533 -0.130434 0.249168
-0.202633 -0.121065 -0.179199
-0.201645 -0.116336 -0.125625
-0.200056 -0.105471 -0.00329131
-0.198886 -0.0974203 0.0873398
-0.121649 -0.0904681 0.251252
0.0192708 -0.104812 0.25044
-0.201239 -0.111578 -0.105395
-0.199107 -0.0971695 0.0611256
-0.196842 -0.0818677 0.237966
0.1011 -0.110203 0.249966
-0.19939 -0.097245 0.0296011
-0.197135 -0.0822927 0.207115
-0.0711511 -0.0906415 0.250962
-0.019989 -0.0955788 0.250666
0.0431362 -0.101671 0.250301
0.121864 -0.109268 0.249846
-0.202208 -0.11144 -0.215282
-0.201566 -0.107347 -0.163888
-0.200656 -0.101546 -0.0910389
-0.200007 -0.0974093 -0.0390995
-0.199784 -0.0959876 -0.0212462
0.00206667 -0.0923533 0.250541
0.0554812 -0.0972254 0.250233
0.143417 -0.105247 0.249722
0.15825 -0.1066 0.249636
0.215761 -0.112459 0.241709
-0.20244 -0.110584 -0.245822
-0.201919 -0.107332 -0.203763
-0.200285 -0.0971283 -0.0718296
-0.197126 -0.0774074 0.183173
0.189089 -0.106241 0.249457
0.238519 -0.110619 0.249173
-0.197407 -0.0774604 0.151792
-0.174759 -0.071805 0.251567
-0.200888 -0.0965184 -0.142868
-0.199201 -0.0864444 -0.00436783
-0.197664 -0.0772674 0.121801
-0.146984 -0.0719087 0.251408
-0.0993936 -0.0758724 0.25113
-0.0411136 -0.0807263 0.250791
0.087661 -0.0914509 0.25005
0.12895 -0.0948897 0.249809
-0.201148 -0.0957906 -0.175878
-0.200498 -0.0920011 -0.122077
-0.197981 -0.077319 0.0863698
-0.121657 -0.0716685 0.251258
0.107923 -0.0901817 0.249932
-0.199655 -0.0849739 -0.0630571
-0.19832 -0.0773742 0.0484839
-0.19809 -0.0760659 0.0676854
-0.0199994 -0.0772475 0.250672
0.0431238 -0.0821708 0.250308
-0.20114 -0.0910613 -0.199131
-0.198535 -0.0766143 0.0203201
-0.196577 -0.062436 0.235018
-0.0711624 -0.0707736 0.250969
0.205117 -0.091592 0.249368
-0.201562 -0.0909412 -0.247368
-0.201275 -0.0893904 -0.222958
-0.200534 -0.0853863 -0.159932
-0.199856 -0.0817255 -0.102309
-0.199073 -0.0774968 -0.0357472
-0.196879 -0.0624119 0.201026
0.0192541 -0.0748642 0.250448
0.0554678 -0.0774971 0.25024
0.158234 -0.0849693 0.249643
0.189075 -0.0872117 0.249463
0.229983 -0.090186 0.249229
-0.199437 -0.0772686 -0.0779017
0.00205505 -0.0709368 0.250547
-0.196819 -0.0568398 0.218397
-0.200375 -0.0773974 -0.18287
-0.199934 -0.075216 -0.144343
-0.198622 -0.0673136 -0.00509632
-0.197257 -0.0574894 0.167719
0.0876474 -0.0711272 0.250056
0.107912 -0.07244 0.249937
0.143396 -0.0747385 0.249732
-0.199608 -0.0710146 -0.123414
-0.197634 -0.0574578 0.125219
-0.197474 -0.0563635 0.145287
-0.174768 -0.0519196 0.251573
-0.103945 -0.0563201 0.251162
-0.0411254 -0.0602233 0.250798
0.189066 -0.0745256 0.249467
-0.200353 -0.0723191 -0.206384
-0.199183 -0.0648729 -0.0637089
-0.198044 -0.0574234 0.0789933
-0.197869 -0.0562829 0.100842
-0.146994 -0.0513625 0.251414
0.205103 -0.0723083 0.249374
-0.200716 -0.0712223 -0.248859
-0.200567 -0.0702978 -0.230324
-0.20001 -0.0668279 -0.16076
-0.198491 -0.0573859 0.0285313
-0.198331 -0.05639 0.048497
-0.125991 -0.0502737 0.25129
-0.0200112 -0.056298 0.250678
0.0431098 -0.059886 0.250315
0.22997 -0.070508 0.249234
-0.200242 -0.0647786 -0.183087
-0.199553 -0.0607162 -0.0976682
-0.198982 -0.0573448 -0.0267781
-0.0759997 -0.0506448 0.251003
-0.199443 -0.0568574 -0.0778934
-0.196863 -0.0424449 0.240709
0.0020448 -0.052198 0.250553
0.0554532 -0.0549514 0.250247
-0.199988 -0.0565547 -0.138839
-0.197317 -0.042467 0.189432
-0.197149 -0.0415828 0.210036
-0.0563922 -0.0466628 0.250892
0.158214 -0.0571598 0.249651
-0.198804 -0.0473615 0.0122646
0.0876338 -0.0508043 0.250063
0.107898 -0.051742 0.249944
-0.200939 -0.0543902 -0.24215
-0.199024 -0.0454652 -0.00895172
0.0192373 -0.0449174 0.250457
-0.200792 -0.050212 -0.217686
-0.200646 -0.0495745 -0.199952
-0.199557 -0.0448307 -0.0680012
-0.197849 -0.037389 0.138994
-0.197688 -0.0366864 0.158539
-0.103956 -0.0371466 0.251168
0.128917 -0.0466899 0.249824
0.205086 -0.0498115 0.249381
0.229956 -0.0508306 0.249239
-0.200325 -0.0448525 -0.154708
-0.198509 -0.0374868 0.0643146
-0.198415 -0.0371059 0.0756392
-0.198174 -0.0361271 0.104743
-0.198086 -0.0357733 0.115265
-0.174777 -0.032035 0.251579
-0.0359432 -0.0373575 0.250775
0.0430975 -0.0403876 0.250321
0.158206 -0.0448005 0.249655
0.189045 -0.0459828 0.249476
-0.200153 -0.0409175 -0.127882
-0.199981 -0.0402714 -0.107246
-0.198847 -0.036007 0.0289541
-0.147003 -0.030817 0.25142
-0.126 -0.0315667 0.251295
-0.199863 -0.036705 -0.0871812
-0.199583 -0.035733 -0.0536513
-0.0760106 -0.0308805 0.25101
-0.200712 -0.0363044 -0.182322
-0.0146015 -0.0302772 0.250655
0.128909 -0.0346406 0.249827
-0.201266 -0.0345889 -0.241578
-0.0564039 -0.0264838 0.250899
0.0876205 -0.0304821 0.250069
0.107885 -0.0310447 0.24995
-0.201114 -0.030755 -0.21714
-0.199583 -0.0266426 -0.0305165
-0.199427 -0.0261555 -0.00844085
-0.199305 -0.0257785 0.00864691
-0.19802 -0.0217763 0.190038
-0.197895 -0.0213857 0.207742
-0.197754 -0.0209473 0.22761
-0.1976 -0.0204679 0.249342
0.0554357 -0.0267706 0.250256
0.205072 -0.0305291 0.249387
0.229943 -0.0311538 0.249245
-0.200178 -0.0248448 -0.0817744
0.189022 -0.0269547 0.249485
-0.200632 -0.0224338 -0.111443
-0.198519 -0.0174986 0.172007
0.00769526 -0.020188 0.250529
0.0430847 -0.0208898 0.250327
-0.201025 -0.019747 -0.131883
-0.199788 -0.0173036 0.0300754
-0.199636 -0.017003 0.0499973
-0.199489 -0.0167127 0.0692389
-0.199347 -0.0164322 0.0878344
-0.199183 -0.0161077 0.109341
-0.199025 -0.0157958 0.130015
-0.198873 -0.0154957 0.149904
-0.103967 -0.0155773 0.251176
-0.0359552 -0.0167461 0.250782
-0.201738 -0.0174761 -0.192259
-0.20156 -0.017186 -0.16953
-0.201389 -0.0169054 -0.147544
-0.200716 -0.0158084 -0.0615926
-0.200159 -0.0148985 0.00969934
-0.182394 -0.0120404 0.251627
0.158184 -0.0169929 0.249664
-0.202419 -0.0148552 -0.245859
-0.147012 -0.0102722 0.251426
-0.126009 -0.0105221 0.251301
-0.0760214 -0.0111168 0.251016
-0.0146116 -0.0118474 0.25066
-0.202576 -0.0114476 -0.233047
-0.202428 -0.0113004 -0.214909
0.0876075 -0.0101605 0.250075
0.107871 -0.010348 0.249956
0.205057 -0.0112474 0.249393
0.229929 -0.0114775 0.24925
-0.201237 -0.00706796 -0.0420723
-0.201049 -0.00693772 -0.0196082
-0.0564153 -0.00630556 0.250905
0.0554234 -0.00704478 0.250262
-0.202732 -0.00475654 -0.19062
-0.202538 -0.00467774 -0.167964
-0.202397 -0.00462034 -0.151458
0.128888 -0.00451823 0.249836
0.158175 -0.00463437 0.249669
0.189006 -0.00475663 0.249492
-0.202451 -0.00151459 -0.129709
-0.20227 -0.0014906 -0.109016
-0.199671 -0.00114583 0.188439
-0.199491 -0.00112193 0.20906
-0.199318 -0.00109901 0.228838
-0.199152 -0.001077 0.247824
0.00768495 -0.00134586 0.250535
0.0430716 -0.00139263 0.250334
-0.202555 0.00439792 -0.0883049
-0.202378 0.00433047 -0.0689001
-0.201495 0.00399362 0.0280157
-0.201313 0.00392424 0.0479757
-0.201103 0.0038441 0.0710312
-0.200935 0.00377978 0.0895369
-0.20074 0.00370538 0.110942
-0.200583 0.00364559 0.128147
-0.200402 0.00357633 0.148073
-0.200199 0.00349878 0.170384
-0.103977 0.00359469 0.251182
-0.0359672 0.00386441 0.250788
-0.204165 0.0081867 -0.236508
-0.204052 0.00811611 -0.224319
0.205043 0.00803373 0.249399
0.229916 0.00819813 0.249255
-0.182402 0.00766192 0.251633
-0.151101 0.00795155 0.251455
-0.130299 0.00814406 0.251332
-0.0760323 0.00864621 0.251022
-0.0146233 0.00921447 0.250667
0.0875945 0.0101603 0.250081
0.107858 0.0103479 0.249962
-0.202875 0.0127777 -0.0491723
-0.202699 0.0125879 -0.0309517
0.0554111 0.0126804 0.250268
-0.202701 0.015098 -0.00864881
-0.202533 0.014881 0.00839221
-0.0564266 0.013872 0.250912
0.0309954 0.0151432 0.250408
-0.20434 0.0196945 -0.132158
-0.204113 0.0193832 -0.111444
-0.205576 0.023954 -0.203576
-0.205316 0.0235552 -0.180571
-0.205065 0.0231695 -0.158319
0.00767314 0.0201874 0.250541
0.128869 0.0225906 0.249845
0.158152 0.0231712 0.249678
0.188988 0.0237827 0.249499
-0.20651 0.0279504 -0.244954
-0.204712 0.0249108 -0.0901881
-0.204487 0.0245297 -0.0707844
-0.203314 0.0225465 0.0301971
-0.201459 0.0194081 0.189992
-0.201254 0.019062 0.207613
-0.200993 0.0186193 0.230154
-0.200774 0.0182485 0.249035
0.221483 0.0276839 0.249316
-0.203449 0.0247453 0.0504482
-0.20322 0.0243254 0.0695827
-0.202999 0.0239196 0.0880787
-0.202744 0.0234501 0.109475
-0.202498 0.0229986 0.130048
-0.202262 0.0225643 0.149844
-0.112937 0.0225413 0.251241
-0.0359793 0.0244742 0.250795
0.0875833 0.0275777 0.250086
0.107846 0.0280867 0.249967
-0.202361 0.0244608 0.169203
-0.0146334 0.027643 0.250672
0.0682655 0.0307917 0.215724
0.0582578 0.0299254 0.239721
-0.206782 0.035401 -0.155588
-0.206646 0.0351145 -0.144793
-0.205514 0.0327305 -0.0549719
-0.0855471 0.0281196 0.251083
0.0439326 0.032982 0.215954
0.0933549 0.0344847 0.215669
0.143318 0.0350781 0.249766
-0.208095 0.0404226 -0.223465
-0.206798 0.0375277 -0.123084
-0.205558 0.0347616 -0.0271691
-0.15111 0.028398 0.251461
-0.130309 0.0290855 0.251338
0.106211 0.0379052 0.215699
-0.208307 0.0430628 -0.204922
-0.182411 0.0295526 0.25164
-0.0663443 0.0336952 0.250975
0.0149827 0.0376814 0.216228
0.126342 0.0416556 0.215602
0.181106 0.0425272 0.249554
-0.209321 0.0476182 -0.246286
-0.208361 0.0452547 -0.175584
-0.207287 0.042611 -0.0965003
0.158135 0.0447967 0.249686
-0.207423 0.0448138 -0.0763738
0.155267 0.0490274 0.215013
-0.206794 0.0449143 -0.00342178
-0.20638 0.0438081 0.0256814
-0.206096 0.0430507 0.0456069
-0.204138 0.0378198 0.183222
-0.0162883 0.0447198 0.215657
0.0632721 0.0481925 0.215151
0.0756578 0.0487331 0.215072
-0.21007 0.0556183 -0.201928
-0.206179 0.0448508 0.0652596
-0.20575 0.0436644 0.0947002
-0.205596 0.0432355 0.105343
-0.204284 0.0396047 0.195438
-0.203788 0.0382288 0.229579
0.17968 0.0565292 0.213746
0.170168 0.0550973 0.238009
-0.210861 0.0597486 -0.224798
-0.208344 0.0525512 -0.0557902
-0.205532 0.0445088 0.13306
-0.20524 0.0436733 0.152678
-0.203813 0.0395863 0.248646
-0.108496 0.0441131 0.251222
0.0357131 0.0527381 0.214107
0.20458 0.0610172 0.212682
0.220408 0.0617933 0.212548
-0.21002 0.0591273 -0.139501
-0.209703 0.058192 -0.118656
-0.20846 0.0545262 -0.0369602
-0.208256 0.0539267 -0.0236
-0.0389813 0.0517638 0.213968
0.105924 0.0592605 0.212564
0.126191 0.0603092 0.212364
-0.210919 0.0630999 -0.160104
-0.130317 0.0476995 0.251344
-0.213172 0.0703603 -0.245728
-0.210445 0.06328 -0.101998
-0.151119 0.0488437 0.251467
-0.00402033 0.0591728 0.211531
0.153143 0.0681735 0.209294
-0.210649 0.0651357 -0.08158
0.0503452 0.0652621 0.209261
0.0880606 0.0675291 0.208601
-0.213181 0.0732405 -0.179121
-0.209611 0.0635968 0.000176609
-0.0151345 0.064143 0.208755
0.0726428 0.0696695 0.206926
0.209154 0.0782872 0.203666
0.225572 0.0793249 0.20325
-0.214856 0.0791755 -0.230142
-0.213459 0.0753339 -0.161595
-0.209728 0.0650724 0.0214998
-0.209323 0.0639555 0.0414281
-0.20893 0.0628763 0.0606838
-0.174813 0.0541243 0.251604
0.0161411 0.0690407 0.206093
-0.212978 0.0752697 -0.108473
-0.209053 0.0642898 0.0798584
-0.208679 0.0632415 0.0978398
-0.207057 0.0582807 0.182759
-0.045149 0.067784 0.205484
0.11815 0.0790837 0.19968
0.17119 0.0827918 0.19716
0.187586 0.0839462 0.196245
-0.215746 0.0843385 -0.210182
-0.214215 0.0799867 -0.138317
-0.212535 0.0752104 -0.0594413
-0.212145 0.0741041 -0.0411726
-0.211675 0.0727662 -0.0190786
-0.208729 0.0643955 0.119156
-0.208303 0.0631841 0.139162
-0.207014 0.0592706 0.20369
-0.206667 0.0580658 0.223499
-0.186174 0.0577467 0.251668
0.139099 0.0840985 0.192376
-0.215629 0.0852679 -0.175053
-0.208359 0.0642955 0.158869
-0.206634 0.0590202 0.242748
-0.00626928 0.0764553 0.197056
0.0311142 0.0793452 0.194172
0.0521082 0.0810068 0.191951
-0.0530071 0.0758738 0.194928
-0.214745 0.0850122 -0.0805659
-0.219198 0.0994595 -0.247543
-0.218778 0.0981963 -0.229378
-0.213977 0.0847903 0.00146061
-0.219606 0.103052 -0.209504
-0.218135 0.0985332 -0.148455
-0.217144 0.0954877 -0.107315
-0.21363 0.0846899 0.0385469
-0.213166 0.0832634 0.0578179
-0.218341 0.10024 -0.131799
-0.216656 0.0950069 -0.063174
-0.216207 0.0936104 -0.0448637
-0.213125 0.0840377 0.0806575
-0.212686 0.082674 0.0985376
-0.174819 0.0740058 0.251609
-0.212656 0.0834323 0.119738
-0.211141 0.0786785 0.180298
-0.215776 0.094139 0.0165053
-0.212627 0.0841608 0.140103
-0.21214 0.0826154 0.159245
-0.211142 0.0794545 0.198399
-0.210636 0.0778506 0.218266
-0.224012 0.118354 -0.2451
-0.222377 0.114037 -0.192738
-0.210577 0.0783902 0.237682
-0.189908 0.0791768 0.2517
-0.224445 0.120374 -0.23166
-0.218398 0.105034 -0.0190504
-0.217886 0.10356 -0.00212204
-0.225284 0.124295 -0.205576
-0.22365 0.11989 -0.156108
-0.222961 0.118031 -0.135231
-0.221327 0.113627 -0.0857632
-0.217307 0.10251 0.0389691
-0.225505 0.12569 -0.187347
-0.220661 0.112549 -0.0433123
-0.217283 0.103233 0.0587422
-0.224113 0.122663 -0.122681
-0.217259 0.10393 0.0778232
-0.229264 0.137529 -0.248173
-0.217145 0.104265 0.0997622
-0.229434 0.138775 -0.228832
-0.22372 0.122995 -0.0674595
-0.217047 0.104583 0.120837
-0.216441 0.102642 0.140573
-0.215438 0.0992548 0.174964
-0.227813 0.135028 -0.160418
-0.215359 0.0996487 0.193173
-0.230379 0.142892 -0.208637
-0.223989 0.125059 -0.0340484
-0.215032 0.0991681 0.219074
-0.189916 0.0986982 0.251706
-0.227245 0.134819 -0.102115
-0.223572 0.124516 -0.00334102
-0.214883 0.0992667 0.238357
-0.227245 0.135469 -0.081888
-0.223176 0.124 0.0258243
-0.230021 0.14396 -0.134664
-0.226726 0.134628 -0.0487785
-0.223089 0.12433 0.0459999
-0.236039 0.159313 -0.248302
-0.233405 0.153047 -0.191269
-0.223006 0.12465 0.0654618
-0.23618 0.160224 -0.228939
-0.222508 0.123766 0.0947972
-0.222098 0.122596 0.105148
-0.233992 0.155537 -0.161298
-0.220375 0.118171 0.16392
-0.237253 0.163899 -0.208419
-0.232704 0.152964 -0.114339
-0.226121 0.135188 0.0376832
-0.222237 0.124004 0.133044
-0.220103 0.117865 0.18539
-0.228919 0.14381 -0.013738
-0.232129 0.152551 -0.0647858
-0.228386 0.142806 0.0157983
-0.220282 0.119287 0.209229
-0.193609 0.117688 0.251733
-0.236829 0.164414 -0.139823
-0.220024 0.118971 0.228795
-0.243298 0.180639 -0.247359
-0.240397 0.173579 -0.190725
-0.232467 0.154283 -0.0359405
-0.22803 0.14279 0.0559341
-0.219777 0.118668 0.24757
-0.236081 0.163536 -0.0884534
-0.244264 0.184012 -0.226386
-0.228162 0.144145 0.0827972
-0.241709 0.178229 -0.15942
-0.239821 0.173599 -0.124056
-0.227842 0.143664 0.104303
-0.244311 0.185091 -0.189643
-0.227984 0.144533 0.115056
-0.225957 0.138522 0.159772
-0.240235 0.175502 -0.0972102
-0.236099 0.1653 -0.0217066
-0.234972 0.162521 -0.0011422
-0.232007 0.155217 0.0529224
-0.227678 0.144058 0.13529
-0.2257 0.138179 0.178345
-0.24973 0.198837 -0.247859
-0.247405 0.193404 -0.208113
-0.243509 0.184022 -0.139615
-0.240053 0.175477 -0.0773343
-0.239301 0.173617 -0.0637742
-0.239138 0.173622 -0.0449435
-0.235444 0.164469 0.020779
-0.225606 0.138699 0.205178
-0.197267 0.138658 0.251757
-0.251855 0.205412 -0.230879
-0.22539 0.138809 0.233195
-0.215054 0.137727 0.251862
-0.251776 0.20566 -0.212241
-0.248606 0.197892 -0.158786
-0.235166 0.164876 0.0683896
-0.251382 0.205105 -0.188713
-0.247355 0.19533 -0.122331
-0.239224 0.175365 0.0131415
-0.23467 0.163984 0.09028
-0.234392 0.163623 0.107993
-0.256678 0.21973 -0.247204
-0.250331 0.20329 -0.13903
-0.233929 0.162787 0.128329
-0.232417 0.158997 0.153318
-0.246182 0.193648 -0.0582253
-0.231831 0.157832 0.1749
-0.249932 0.203065 -0.102287
-0.245909 0.193344 -0.0396952
-0.241585 0.182694 0.028788
-0.249599 0.202596 -0.0824168
-0.245645 0.19305 -0.0217318
-0.232108 0.159121 0.193375
-0.258313 0.22604 -0.212214
-0.25548 0.21825 -0.163759
-0.241913 0.18419 0.0494204
-0.232069 0.159306 0.205099
-0.257837 0.225118 -0.188759
-0.241501 0.183469 0.0683888
-0.261141 0.235112 -0.231916
-0.250305 0.20546 -0.0519852
-0.231655 0.158808 0.232903
-0.218526 0.15806 0.251888
-0.262818 0.240771 -0.248011
-0.256924 0.223371 -0.144239
-0.24182 0.184898 0.0875533
-0.204489 0.162992 0.251809
-0.256479 0.222547 -0.123105
-0.241206 0.183634 0.108528
-0.238893 0.17774 0.143613
-0.249358 0.204044 0.00120646
-0.256509 0.223374 -0.0967236
-0.249061 0.2036 0.0178925
-0.239035 0.178659 0.16316
-0.261631 0.238905 -0.169976
-0.256087 0.222581 -0.0771308
-0.253024 0.214202 -0.0292305
-0.248519 0.202517 0.0378326
-0.238781 0.178541 0.18762
-0.267248 0.258229 -0.245608
-0.260377 0.235815 -0.121841
-0.248715 0.203614 0.0579861
-0.266043 0.25461 -0.20973
-0.262777 0.243791 -0.150714
-0.238729 0.178915 0.208177
-0.265781 0.254185 -0.191874
-0.24866 0.20404 0.0808447
-0.248154 0.203012 0.0986146
-0.238678 0.179274 0.227853
-0.221969 0.178215 0.251914
-0.259676 0.235212 -0.0616149
-0.256173 0.224885 -0.00668156
-0.255384 0.222641 0.00528449
-0.24602 0.197921 0.137877
-0.266779 0.258944 -0.17217
-0.262796 0.245458 -0.101861
-0.258958 0.233442 -0.0388905
-0.248113 0.203435 0.119778
-0.238449 0.179149 0.24919
-0.270533 0.273521 -0.232463
-0.26231 0.244294 -0.0821595
-0.246032 0.198427 0.157508
-0.25558 0.224105 0.0349298
-0.272482 0.282543 -0.24806
-0.270484 0.274379 -0.207282
-0.26739 0.262572 -0.148076
-0.254967 0.222677 0.054178
-0.245819 0.198363 0.179215
-0.254869 0.222685 0.0657357
-0.267687 0.264577 -0.130873
-0.245615 0.198302 0.19997
-0.261892 0.244745 -0.0206978
-0.27203 0.282746 -0.192024
-0.261196 0.242846 0.000498891
-0.254828 0.223387 0.0956129
-0.24542 0.198243 0.219834
-0.274663 0.295138 -0.237025
-0.264328 0.253699 -0.0400686
-0.225382 0.198196 0.251941
-0.274047 0.292896 -0.212728
-0.267208 0.264466 -0.0792009
-0.261358 0.244018 0.0178822
-0.253012 0.218827 0.13876
-0.245233 0.198187 0.238864
-0.272165 0.284875 -0.162177
-0.269304 0.272916 -0.106569
-0.266713 0.263001 -0.0602221
-0.254785 0.224051 0.123818
-0.271614 0.282933 -0.140468
-0.264467 0.255253 -0.0124004
-0.261268 0.244353 0.0384603
-0.252871 0.218919 0.158187
-0.260617 0.242559 0.0575433
-0.27479 0.298718 -0.186707
-0.252517 0.218396 0.179703
-0.274716 0.298909 -0.174921
-0.277759 0.315974 -0.237181
-0.27171 0.285275 -0.102452
-0.26086 0.24422 0.0808223
-0.252391 0.218492 0.197554
-0.277181 0.313296 -0.212756
-0.266104 0.262938 0.00751567
-0.273567 0.294749 -0.120514
-0.271634 0.285855 -0.081985
-0.269225 0.275562 -0.0372077
-0.260784 0.244533 0.0991076
-0.258756 0.237952 0.128288
-0.221983 0.217812 0.251926
-0.275135 0.303255 -0.145292
-0.270899 0.282968 -0.0583979
-0.265916 0.262919 0.0283763
-0.252626 0.219802 0.217879
-0.258504 0.23766 0.148008
-0.277699 0.318804 -0.187112
-0.265736 0.2629 0.0484577
-0.252096 0.218718 0.239338
-0.275073 0.305002 -0.107186
-0.270789 0.284138 -0.020986
-0.265561 0.262882 0.067803
-0.258352 0.23792 0.17328
-0.27811 0.32416 -0.162651
-0.276645 0.315001 -0.125918
-0.270518 0.283699 0.000883162
-0.265635 0.264101 0.0904391
-0.258411 0.23883 0.194505
-0.270467 0.284254 0.0179998
-0.27597 0.31268 -0.0848835
-0.274726 0.305606 -0.0570964
-0.265469 0.264063 0.108283
-0.264218 0.259242 0.127674
-0.257984 0.23789 0.214331
-0.274445 0.304594 -0.0431644
-0.270211 0.283828 0.0383886
-0.232115 0.237644 0.25199
-0.263655 0.257762 0.150333
-0.273902 0.302639 -0.0162752
-0.269965 0.283417 0.0580253
-0.258048 0.238763 0.233746
-0.251603 0.237711 0.252102
-0.263786 0.258978 0.169567
