ply
format ascii 1.0
comment Created by Open3D
element vertex 565
property double x
property double y
property double z
end_header
0.128239 -0.328318 0.217468
0.140772 -0.333086 0.193456
-0.211262 -0.394665 0.217984
0.128239 -0.311833 0.217468
-0.204394 -0.394435 0.202314
0.135213 -0.305925 0.195419
-0.200305 -0.374815 0.217664
0.131806 -0.291785 0.217462
0.132933 -0.294792 0.197037
-0.198475 -0.366219 0.19831
0.142168 -0.395079 -0.190673
-0.196058 -0.354668 0.20011
0.153863 -0.394149 -0.210057
-0.199883 -0.347003 0.217967
0.124653 -0.271381 0.217473
0.128147 -0.271444 0.204395
0.137972 -0.376687 -0.190667
-0.19181 -0.334347 0.207427
-0.191761 -0.334201 0.194914
0.133757 -0.36208 -0.190661
0.147831 -0.365326 -0.214005
0.145853 -0.356066 -0.191702
0.124216 -0.252313 0.216957
-0.187544 -0.314023 0.202287
-0.188664 -0.306864 0.217951
0.123809 -0.250228 0.203514
0.143456 -0.344516 -0.205455
0.129521 -0.339642 -0.190655
-0.183397 -0.294184 0.209535
-0.203724 -0.394139 -0.213983
0.119902 -0.231219 0.216136
0.125266 -0.320988 -0.190648
-0.17932 -0.274675 0.216663
-0.180545 -0.280699 0.190748
-0.199529 -0.373593 -0.208806
0.137345 -0.315314 -0.209383
0.118569 -0.224568 0.197185
0.133758 -0.303992 -0.190658
0.13517 -0.304902 -0.213903
-0.195376 -0.353253 -0.203681
-0.176245 -0.2601 0.202465
0.113771 -0.209779 0.21749
-0.177601 -0.246853 0.217934
-0.191265 -0.333116 -0.198607
0.130813 -0.284172 -0.205292
0.113783 -0.201226 0.204623
0.116695 -0.279507 -0.190635
-0.171805 -0.238919 0.201673
-0.172128 -0.232427 0.217925
-0.196198 -0.313853 -0.190159
0.0989727 -0.186887 0.217514
0.112379 -0.260578 -0.190628
-0.185016 -0.302677 -0.212887
0.125013 -0.256534 -0.199709
-0.168147 -0.221469 0.200298
-0.184433 -0.293894 -0.190176
-0.172127 -0.212069 0.217925
0.120992 -0.243747 -0.19064
0.102703 -0.172343 0.217507
0.108555 -0.17559 0.19403
0.122332 -0.243638 -0.213802
-0.180207 -0.279173 -0.214241
-0.163739 -0.20044 0.199513
-0.1903 -0.267293 -0.19017
-0.162424 -0.194041 0.217054
0.106363 -0.164859 0.191421
-0.176173 -0.259418 -0.209117
0.108042 -0.22192 -0.190622
0.118267 -0.224239 -0.213258
-0.17371 -0.247247 -0.191338
-0.159971 -0.182439 0.202436
0.0989716 -0.150353 0.217513
-0.184435 -0.23466 -0.190179
0.114186 -0.204769 -0.212713
-0.170412 -0.231254 -0.209194
0.0993069 -0.199302 -0.190608
-0.166691 -0.16738 0.217917
-0.155611 -0.161636 0.201652
0.100326 -0.135415 0.20193
0.0989715 -0.130681 0.217513
-0.167028 -0.210138 -0.190204
0.109864 -0.184194 -0.204011
-0.16487 -0.204213 -0.216992
-0.161292 -0.146587 0.217909
0.0949078 -0.172087 -0.190602
-0.167028 -0.192061 -0.190204
-0.15137 -0.141424 0.196593
0.0961195 -0.11491 0.210048
-0.160934 -0.184937 -0.211883
0.105197 -0.161866 -0.213152
-0.150606 -0.1322 0.217891
0.0959628 -0.114019 0.192477
0.0949074 -0.152307 -0.190603
0.0838307 -0.106608 0.217538
-0.167029 -0.169466 -0.190205
-0.147856 -0.124685 0.190927
0.101063 -0.142144 -0.212602
-0.150605 -0.112119 0.217892
0.0876476 -0.0949619 0.21753
-0.16703 -0.15139 -0.190206
0.0989686 -0.132294 -0.191249
0.091894 -0.0941258 0.192172
-0.153178 -0.146952 -0.201815
-0.153444 -0.148355 -0.217104
-0.142642 -0.0997519 0.199321
-0.150309 -0.132899 -0.19809
0.0961134 -0.118516 -0.213595
-0.150604 -0.0920379 0.217892
0.0815831 -0.109578 -0.190582
0.087798 -0.0740993 0.191865
-0.155584 -0.11461 -0.190223
-0.139022 -0.0824568 0.202206
-0.145861 -0.111267 -0.214619
0.0919418 -0.0986108 -0.213043
0.0761274 -0.0671969 0.21755
-0.144261 -0.100578 -0.19024
0.0770987 -0.0898719 -0.190575
-0.150605 -0.071957 0.217892
-0.142139 -0.0930849 -0.217215
-0.134845 -0.0612898 0.217867
-0.134762 -0.0621335 0.201433
0.0869352 -0.0747122 -0.214042
-0.149908 -0.0784401 -0.190233
0.0725926 -0.0700699 -0.190568
0.0858312 -0.0695913 -0.190986
0.072242 -0.0473186 0.217556
-0.138355 -0.0745551 -0.212158
-0.145315 -0.0516997 0.217884
0.0818293 -0.0449653 0.198228
-0.144262 -0.0603471 -0.190241
0.0826497 -0.0543117 -0.205198
-0.130421 -0.0413139 0.217262
-0.130495 -0.041748 0.204857
0.0680644 -0.0501716 -0.190561
0.0593664 -0.0350201 0.16382
0.0577146 -0.0357235 0.143139
-0.117827 -0.0355957 0.177032
-0.117355 -0.0359595 0.164229
0.0619592 -0.0330845 0.12388
0.0613531 -0.0337104 0.10295
0.0605201 -0.0343728 0.0809506
0.059388 -0.035078 0.0577167
0.0580328 -0.0356558 0.0390114
-0.111669 -0.0332502 0.132802
-0.112242 -0.0337795 0.113246
-0.112932 -0.0343304 0.0929608
-0.11405 -0.0350555 0.0664296
-0.115539 -0.0356847 0.0438048
0.0644037 -0.0274041 0.217569
0.0761257 -0.0271648 0.217548
0.062463 -0.0326221 0.0219038
0.0619938 -0.0332852 -0.00278908
0.0616266 -0.0336344 -0.0156989
0.0607207 -0.0343641 -0.0425714
0.0602484 -0.0347412 -0.0564564
0.0589192 -0.0353599 -0.0788054
0.0776659 -0.0246396 0.202241
0.0629462 -0.0322447 -0.107548
0.0624346 -0.0329705 -0.137803
0.0617163 -0.0337405 -0.169768
0.0783969 -0.0340663 -0.196422
0.064176 -0.0248456 0.0640697
0.0641934 -0.0301402 -0.189349
-0.140062 -0.0216071 0.217876
-0.126297 -0.02174 0.199896
-0.11275 -0.0219646 0.177019
-0.109629 -0.0239366 0.0656999
-0.109441 -0.024313 0.0447693
0.0641408 -0.0240966 -0.0774847
-0.0780695 -0.0181753 0.176973
-0.0589339 -0.0179491 0.176943
-0.0402689 -0.0177284 0.176915
-0.0220571 -0.0175131 0.176887
9.47118e-05 -0.0172512 0.176854
0.0215938 -0.016997 0.176821
0.0667317 -0.0164633 0.176752
0.0863251 -0.0162317 0.176723
0.091561 -0.0163559 0.164566
-0.109967 -0.0225711 -0.0852624
-0.109764 -0.0229673 -0.11128
0.0759768 -0.0223965 -0.217631
-0.138488 -0.0154552 0.177061
-0.113237 -0.0191356 -0.136045
-0.112877 -0.0193892 -0.156552
-0.112508 -0.0196496 -0.177611
-0.127242 -0.0202272 -0.212294
0.0239759 -0.0181471 -0.163281
0.0426266 -0.0179667 -0.16331
0.0832644 -0.0175736 -0.163371
-0.192584 -0.0124277 0.177144
-0.124514 -0.0115176 0.217851
-0.17386 -0.0156029 -0.162986
-0.151091 -0.0154316 -0.163019
-0.128816 -0.015264 -0.163051
-0.0856897 -0.0149395 -0.163116
-0.0648069 -0.0147824 -0.163147
-0.0443587 -0.0146286 -0.163178
-0.0243318 -0.0144779 -0.163209
-0.0047133 -0.0143303 -0.163238
0.0604494 -0.00723285 0.217575
0.116109 -0.00722183 0.176124
0.14535 -0.00706202 0.176463
0.173185 -0.00691124 0.176592
0.194145 -0.00685652 0.168244
0.203468 -0.00691615 0.152473
0.204237 -0.00708509 0.127621
0.203978 -0.00720296 0.110898
0.203619 -0.00736635 0.0877151
0.203339 -0.00749384 0.0696259
0.202949 -0.00767086 0.0445096
0.202541 -0.00785645 0.0181772
0.202221 -0.00800165 -0.00242364
0.201889 -0.00815232 -0.0238004
0.201661 -0.00825595 -0.0385046
0.200268 -0.00848948 -0.0709581
0.199336 -0.00861537 -0.0883127
0.198375 -0.00874506 -0.106192
0.196879 -0.00894708 -0.134042
-0.0135477 -0.00473226 0.180847
0.0127412 -0.00464703 0.180919
-0.122091 -0.00166885 0.199133
-0.0890871 -0.00165362 0.184549
-0.0696773 -0.00163274 0.184535
-0.0507516 -0.00161238 0.184522
-0.0322921 -0.00159251 0.184509
0.072925 -0.00145579 0.201313
0.0695716 -0.00148291 0.184438
0.0890534 -0.00146195 0.184424
0.211274 -0.00180049 -0.153114
0.21621 0.00469966 0.0110062
0.216299 0.00481374 -0.0163645
0.216369 0.00490301 -0.0377808
0.216466 0.00502731 -0.0676026
0.216569 0.00515808 -0.0989761
0.216622 0.00522605 -0.115283
-0.209538 0.00896806 0.177167
-0.129661 0.00825454 0.21786
0.0295755 0.00759416 0.189567
0.217323 0.00754127 0.0520034
0.217435 0.00771737 0.0266322
0.108751 0.0100325 0.189815
0.130693 0.00986765 0.18976
0.148434 0.00973434 0.189715
0.169101 0.00957904 0.189664
0.189732 0.00946118 0.185801
0.20878 0.0094652 0.170662
0.217043 0.00962108 0.148287
0.217566 0.00981523 0.12797
0.217628 0.0100291 0.105987
0.217659 0.0101396 0.0946321
0.217742 0.0104267 0.0651196
-0.112174 0.0150324 0.190441
0.0564718 0.0130576 0.217582
0.218086 0.0160499 -0.146064
-0.0877574 0.0180904 0.190003
-0.0683765 0.0178608 0.190004
-0.0494814 0.017637 0.190005
-0.203214 0.0234581 0.164483
-0.0318164 0.0206094 0.189284
0.0687435 0.0189888 0.201035
0.0896952 0.018902 0.189628
-0.0106241 0.023463 0.188076
0.0112843 0.0231067 0.188189
0.215777 0.0236644 0.0033955
0.215627 0.0241079 -0.0177156
0.21547 0.0245684 -0.0396332
0.215181 0.0252147 -0.0703449
0.214824 0.0257303 -0.0947435
-0.215261 0.0305958 0.177179
-0.203841 0.0303871 0.177164
-0.12966 0.0280654 0.21786
0.0619388 0.0283219 0.184795
0.21316 0.0275165 0.0983101
0.212819 0.0279998 0.0803115
0.212465 0.0285005 0.0616686
0.212096 0.0290195 0.0423434
0.207294 0.0331822 -0.111236
0.206239 0.0337047 -0.130162
0.203461 0.0343799 -0.153527
-0.133031 0.0361894 0.16849
-0.0897939 0.0350143 0.175232
0.110521 0.0302582 0.182955
0.129322 0.0298171 0.183499
0.150995 0.0293153 0.1839
0.168476 0.0289117 0.184182
0.189249 0.0285531 0.180379
0.20575 0.0285997 0.166029
0.211807 0.0290761 0.14506
0.21167 0.0293929 0.134336
0.207591 0.032798 0.0210783
0.204862 0.0342079 -0.0250124
0.203008 0.034992 -0.0503849
0.201728 0.0355347 -0.0679486
-0.114321 0.0375917 0.217835
-0.113763 0.0380921 0.201785
0.00020647 0.0363501 0.168043
0.0524706 0.0334683 0.217588
-0.203442 0.045124 0.164304
-0.214946 0.0568288 -0.162926
0.0167636 0.0515499 -0.190479
0.0357426 0.0510399 -0.190507
0.0595752 0.0509289 -0.205746
-0.215261 0.0485934 0.177179
-0.203841 0.0482619 0.177164
0.0645338 0.0395712 0.200756
-0.100174 0.0590676 -0.190305
-0.0788258 0.0584481 -0.190341
-0.0579176 0.0578413 -0.19037
-0.0374393 0.057247 -0.190399
-0.017378 0.0566647 -0.190428
-0.00259906 0.0562359 -0.190452
-0.0943332 0.0467752 0.217806
-0.0748662 0.0461684 0.217776
-0.0471218 0.0454883 0.213162
-0.0322503 0.0454886 0.201657
-0.0238436 0.0476523 0.2177
0.00253093 0.0467736 0.21766
0.0153568 0.0463463 0.21764
0.0362202 0.0456511 0.217608
-0.214946 0.075014 -0.162926
0.0564699 0.0536814 0.21758
-0.215261 0.0701905 0.177179
-0.203842 0.0697117 0.177164
0.0529397 0.0576218 0.201189
-0.20344 0.0740032 0.164306
-0.214946 0.106838 -0.162926
-0.215261 0.088188 0.177179
-0.203842 0.0875865 0.177164
-0.203439 0.0956625 0.164307
-0.214946 0.125023 -0.162926
-0.184804 0.122861 -0.101736
-0.184064 0.122946 -0.0508881
-0.178533 0.124119 -0.0694355
-0.174764 0.128287 -0.123059
-0.215261 0.109785 0.177179
-0.203842 0.109036 0.177164
-0.185253 0.122829 0.000458837
-0.178358 0.124214 -0.0211726
-0.184545 0.12291 0.0448865
-0.178194 0.124304 0.024093
-0.185645 0.122801 0.0900344
-0.17891 0.124057 0.0709518
-0.166989 0.138783 -0.100912
-0.169052 0.142767 -0.143322
-0.186649 0.124013 0.118316
-0.167029 0.138944 -0.0568517
-0.203436 0.124541 0.164309
-0.167621 0.135935 0.018075
-0.167251 0.138026 -0.00396925
-0.167066 0.139097 -0.0152519
-0.166754 0.144829 -0.0751324
-0.168922 0.152856 -0.156979
-0.215261 0.127783 0.177179
-0.170023 0.131089 0.10877
-0.169064 0.13287 0.0900238
-0.167374 0.137683 0.04005
-0.166801 0.145997 -0.0444673
-0.203842 0.130486 0.177164
-0.190342 0.132874 0.143238
-0.167225 0.138867 0.0664293
-0.166687 0.157809 -0.120269
-0.203436 0.135371 0.16431
-0.166717 0.16008 -0.100599
-0.166633 0.165672 -0.154194
-0.169861 0.167813 -0.172195
-0.172467 0.13856 0.144292
-0.166784 0.159633 -0.0565841
-0.166864 0.157953 -0.00357169
-0.166848 0.159212 -0.0150244
-0.166752 0.165818 -0.0751302
-0.179831 0.144535 0.160827
-0.167046 0.148455 0.116195
-0.166923 0.157591 0.0351226
-0.166798 0.16656 -0.044464
-0.215261 0.14938 0.177179
-0.203842 0.148361 0.177163
-0.167016 0.154358 0.096822
-0.166904 0.162734 0.0242843
-0.166702 0.177905 -0.107095
-0.166674 0.180196 -0.126935
-0.166986 0.160437 0.0768697
-0.166619 0.189418 -0.168194
-0.166781 0.180364 -0.0565811
-0.167089 0.159646 0.144226
-0.167012 0.165515 0.0968257
-0.166953 0.170532 0.0563141
-0.166859 0.177946 -0.00356615
-0.166843 0.179364 -0.01502
-0.166651 0.195744 -0.1473
-0.181746 0.160527 0.176913
-0.16674 0.192606 -0.0877645
-0.166681 0.197566 -0.126944
-0.167602 0.164588 0.161861
-0.167043 0.170448 0.116198
-0.166921 0.180938 0.0351241
-0.166898 0.18305 0.0187973
-0.166701 0.200189 -0.113661
-0.16715 0.208304 -0.175954
-0.215261 0.170977 0.177179
-0.203843 0.169811 0.177163
-0.166983 0.179311 0.0768725
-0.166805 0.19535 -0.0444712
-0.166778 0.197762 -0.06272
-0.16674 0.205305 -0.0877645
-0.167082 0.177583 0.144231
-0.166956 0.189693 0.0563108
-0.166884 0.196389 0.00769842
-0.166849 0.199519 -0.0150262
-0.166691 0.218339 -0.120274
-0.16664 0.223107 -0.154204
-0.183781 0.180294 0.188255
-0.167047 0.188776 0.116195
-0.166933 0.199626 0.0404792
-0.166619 0.22953 -0.168194
-0.215261 0.188974 0.177179
-0.167739 0.183923 0.174973
-0.167017 0.195272 0.0968208
-0.166987 0.198187 0.0768682
-0.166787 0.217683 -0.0565872
-0.166805 0.220025 -0.0444712
-0.16674 0.22647 -0.0877645
-0.166651 0.235333 -0.1473
-0.166956 0.208854 0.0563108
-0.166892 0.215382 0.0132686
-0.166849 0.219673 -0.0150262
-0.166671 0.237665 -0.13367
-0.167095 0.198406 0.148782
-0.166711 0.237923 -0.107105
-0.16715 0.248621 -0.175954
-0.186171 0.197707 0.190683
-0.166925 0.21985 0.0351208
-0.167122 0.20269 0.16669
-0.167054 0.210008 0.120951
-0.166787 0.238414 -0.0565872
-0.215261 0.210571 0.177179
-0.16701 0.218392 0.091888
-0.166832 0.237689 -0.0266622
-0.166759 0.24558 -0.0751383
-0.16698 0.225453 0.0717866
-0.166892 0.235141 0.0132686
-0.166681 0.258355 -0.126944
-0.16664 0.262869 -0.154204
-0.166721 0.258263 -0.100604
-0.166619 0.269642 -0.168194
-0.167116 0.217549 0.16226
-0.166933 0.238389 0.0404792
-0.186171 0.218702 0.190683
-0.167082 0.22502 0.139637
-0.167054 0.22827 0.120951
-0.166796 0.258088 -0.0505045
-0.215261 0.228569 0.177179
-0.167025 0.235321 0.101718
-0.166832 0.258005 -0.0266622
-0.169799 0.224985 0.182007
-0.166867 0.257924 -0.00357401
-0.166701 0.277682 -0.113661
-0.166681 0.280066 -0.126944
-0.166651 0.283719 -0.1473
-0.16715 0.288938 -0.175954
-0.166972 0.249121 0.066667
-0.166759 0.274966 -0.0751383
-0.166933 0.25777 0.0404792
-0.167122 0.237941 0.16669
-0.166823 0.275363 -0.0325507
-0.166787 0.279878 -0.0565872
-0.16674 0.285734 -0.0877645
-0.186171 0.239698 0.190683
-0.167068 0.24839 0.130361
-0.166671 0.298717 -0.13367
-0.16664 0.30263 -0.154204
-0.215261 0.250166 0.177179
-0.167102 0.247579 0.153306
-0.167017 0.258503 0.0968208
-0.166908 0.272532 0.0242795
-0.166867 0.277918 -0.00357401
-0.166711 0.29794 -0.107105
-0.166619 0.309754 -0.168194
-0.166972 0.268138 0.066667
-0.166778 0.297683 -0.06272
-0.166941 0.279955 0.0457968
-0.166823 0.29576 -0.0325507
-0.167129 0.258192 0.171089
-0.167054 0.268446 0.120951
-0.167002 0.275406 0.0869185
-0.166691 0.317781 -0.120274
-0.166651 0.323308 -0.1473
-0.166619 0.327581 -0.168194
-0.215261 0.268164 0.177179
-0.186171 0.260693 0.190683
-0.167075 0.269182 0.135016
-0.1669 0.293275 0.0187954
-0.166867 0.297912 -0.00357401
-0.166759 0.312748 -0.0751383
-0.166721 0.318027 -0.100604
-0.166778 0.3185 -0.06272
-0.166644 0.336501 -0.147291
-0.166949 0.298124 0.0510738
-0.1669 0.305085 0.0187954
-0.166759 0.325342 -0.0751383
-0.166663 0.337961 -0.133661
-0.167116 0.277684 0.16226
-0.167032 0.289847 0.106579
-0.166972 0.298565 0.066667
-0.166841 0.317675 -0.0208209
-0.166694 0.337951 -0.113653
-0.186171 0.27819 0.190683
-0.167068 0.288278 0.130361
-0.166867 0.317906 -0.00357401
-0.215261 0.289761 0.177179
-0.169799 0.284284 0.182007
-0.16701 0.304255 0.091888
-0.166812 0.333821 -0.0384843
-0.166781 0.337924 -0.0565809
-0.166677 0.358222 -0.126939
-0.166708 0.362923 -0.147369
-0.167032 0.308308 0.106579
-0.166972 0.317582 0.066667
-0.166933 0.323666 0.0404792
-0.166835 0.337907 -0.0208156
-0.166732 0.35346 -0.0877557
-0.166707 0.357955 -0.1071
-0.167122 0.297867 0.16669
-0.1669 0.332641 0.0187953
-0.166862 0.337899 -0.00356913
-0.186171 0.299185 0.190683
-0.167102 0.304576 0.153306
-0.169296 0.375703 -0.143615
-0.167061 0.314789 0.125673
-0.16701 0.322921 0.091888
-0.1668 0.35574 -0.0444661
-0.166785 0.358657 -0.0565846
-0.167178 0.378541 -0.120845
-0.16696 0.337867 0.061512
-0.166926 0.343045 0.0404855
-0.166838 0.358142 -0.0208184
-0.166744 0.373065 -0.0814189
-0.166716 0.377788 -0.100599
-0.167109 0.317706 0.157799
-0.16704 0.32926 0.111404
-0.166984 0.33786 0.0768716
-0.166864 0.357894 -0.00357151
-0.186171 0.32018 0.190683
-0.167082 0.32943 0.139637
-0.166804 0.376305 -0.0444704
-0.167025 0.379503 -0.0568476
-0.169799 0.322653 0.182007
-0.166906 0.362721 0.0242817
-0.166922 0.363821 0.0351234
-0.166903 0.378407 -0.0208861
-0.167036 0.347653 0.111407
-0.166979 0.358072 0.0717874
-0.166862 0.377887 -0.00356954
-0.167113 0.337819 0.162262
-0.183848 0.33786 0.188204
-0.167071 0.348671 0.135019
-0.167653 0.382686 0.0235403
-0.167002 0.369081 0.0869187
-0.167928 0.383223 0.0501354
-0.16704 0.369728 0.111404
-0.167703 0.382589 0.0659807
-0.182637 0.358492 0.176212
-0.169661 0.358932 0.164625
-0.167067 0.368053 0.130362
-0.171724 0.389542 0.0975122
-0.180634 0.385821 0.142072
