ply
format ascii 1.0
comment Created by Open3D
element vertex 932
property double x
property double y
property double z
end_header
0.255193 -0.24112 0.242268
0.269307 -0.24494 0.221261
0.256206 -0.222132 0.244159
0.262307 -0.215799 0.220848
0.25397 -0.202469 0.244215
0.257836 -0.197182 0.216522
0.243277 -0.18188 0.245629
-0.29905 -0.277797 0.242529
-0.28825 -0.277971 0.2218
0.252778 -0.176179 0.229101
-0.287463 -0.263981 0.239563
0.264785 -0.279551 -0.212373
0.278283 -0.279577 -0.221963
-0.286073 -0.262222 0.219701
0.251747 -0.170681 0.20911
0.239122 -0.162026 0.246507
0.265327 -0.262468 -0.210388
-0.290692 -0.244675 0.244314
0.207573 -0.170586 0.221817
0.251781 -0.170709 0.190216
0.27393 -0.261424 -0.226414
0.178893 -0.170714 0.22167
0.251816 -0.170738 0.170327
-0.284728 -0.241116 0.213502
0.248019 -0.156351 0.228871
0.148629 -0.170848 0.221516
0.251854 -0.170768 0.149364
0.134757 -0.170507 0.222043
0.251654 -0.169764 0.132368
0.255255 -0.241106 -0.211684
-0.281215 -0.222353 0.240103
0.101991 -0.17064 0.221894
0.247073 -0.152254 0.209212
0.268863 -0.240289 -0.23342
0.207934 -0.152184 0.226571
0.251689 -0.169768 0.109267
-0.280252 -0.220025 0.219995
0.0672833 -0.170782 0.221736
0.19261 -0.152177 0.226593
0.227397 -0.144073 0.242619
0.247487 -0.151537 0.191237
0.0513968 -0.170415 0.222304
0.251726 -0.169773 0.0848152
0.160604 -0.152162 0.22664
0.247409 -0.15106 0.171322
0.0136065 -0.170556 0.222152
0.143882 -0.152154 0.226665
0.251765 -0.169778 0.0588917
0.252418 -0.221248 -0.21019
0.26457 -0.22247 -0.225105
0.247327 -0.150557 0.150327
-0.287083 -0.200153 0.246549
-0.0265957 -0.170706 0.22199
0.0319851 -0.162157 0.226829
0.108888 -0.152137 0.226716
0.247711 -0.152133 0.129206
0.251539 -0.168632 0.0377387
-0.277455 -0.199694 0.225329
-0.278634 -0.201921 0.213989
0.0905671 -0.152129 0.226743
0.251828 -0.169786 0.0169411
-0.0638624 -0.169903 0.223238
-0.0103942 -0.16248 0.226892
0.0716623 -0.15212 0.226771
0.242037 -0.131402 0.222118
0.247413 -0.150686 0.111259
0.251851 -0.169789 0.00206172
-0.0890397 -0.170458 0.222451
0.0521451 -0.152111 0.2268
0.210445 -0.132444 0.226567
0.251383 -0.132229 0.199023
0.247819 -0.152345 0.0880055
-0.109181 -0.170039 0.223103
0.19261 -0.132471 0.226593
0.251898 -0.169795 -0.0291744
0.245606 -0.202271 -0.211052
0.260075 -0.203738 -0.229634
-0.136147 -0.170617 0.222286
0.0111502 -0.152091 0.22686
0.174167 -0.132498 0.22662
0.232738 -0.121838 0.247651
0.256985 -0.130308 0.18121
0.247508 -0.150828 0.068175
-0.28614 -0.181324 0.247133
-0.274985 -0.181666 0.237265
-0.157679 -0.170186 0.222958
0.247699 -0.151554 0.0486934
0.251653 -0.168533 -0.0548173
-0.275109 -0.182042 0.216337
-0.186628 -0.170787 0.222109
-0.032685 -0.152071 0.226924
0.138196 -0.132222 0.226673
0.256793 -0.129441 0.160138
0.247899 -0.152313 0.0283357
0.251975 -0.169805 -0.0801077
-0.209703 -0.170343 0.222803
-0.0557615 -0.15206 0.226958
0.0285604 -0.142436 0.226834
0.117837 -0.132246 0.226703
0.25712 -0.130584 0.139057
0.252002 -0.169808 -0.098289
-0.233482 -0.169885 0.223518
-0.0796661 -0.152048 0.226993
0.0967375 -0.132271 0.226734
0.247323 -0.149634 0.0123646
-0.25154 -0.168565 0.225117
-0.104444 -0.152037 0.22703
-0.0103942 -0.141682 0.226892
0.0748548 -0.132297 0.226766
0.25692 -0.129677 0.115542
0.247522 -0.150379 -0.00969195
0.25143 -0.167116 -0.119019
0.242724 -0.182306 -0.209633
0.255121 -0.183162 -0.223795
-0.134521 -0.152498 0.227074
0.0521451 -0.132324 0.2268
0.195795 -0.119871 0.206659
0.237285 -0.111664 0.23075
0.256815 -0.129202 0.103256
0.247731 -0.15116 -0.0328065
0.251448 -0.16707 -0.138626
-0.279363 -0.161875 0.247998
-0.161364 -0.152494 0.227113
0.174486 -0.119891 0.206691
0.245712 -0.112337 0.206586
0.257167 -0.130424 0.0789655
0.247685 -0.150848 -0.0493869
0.251467 -0.167022 -0.158969
0.252122 -0.169824 -0.177949
-0.272038 -0.160355 0.232316
-0.189248 -0.15249 0.227154
0.014671 -0.131276 0.226855
0.152342 -0.119911 0.206723
0.233659 -0.111451 0.206604
0.253788 -0.111179 0.194296
0.257299 -0.130824 0.0594408
0.247907 -0.151674 -0.0744733
-0.218235 -0.152486 0.227197
0.129312 -0.119932 0.206757
0.253817 -0.111892 0.174539
0.247862 -0.151357 -0.0925053
0.248708 -0.15497 -0.117927
-0.248392 -0.152482 0.227241
-0.0479795 -0.132442 0.226947
-0.0289164 -0.130536 0.226919
-0.279722 -0.221025 -0.231325
0.105344 -0.119953 0.206792
0.256841 -0.128926 0.0374445
0.257332 -0.130748 0.0243258
-0.0756227 -0.132475 0.226987
0.0297207 -0.122489 0.224434
-0.289852 -0.21443 -0.208971
0.0803781 -0.119976 0.206829
0.253847 -0.110368 0.153713
0.249881 -0.159693 -0.19647
0.250532 -0.162467 -0.216776
0.250907 -0.165517 -0.238867
-0.100252 -0.132107 0.227024
-0.165881 -0.170621 -0.00827873
0.0576647 -0.119682 0.206862
0.253888 -0.111876 0.126041
0.25711 -0.129712 -0.00654542
-0.130145 -0.132134 0.227068
-0.00736129 -0.121161 0.222704
-0.165941 -0.161572 0.0324954
-0.165911 -0.164255 0.0124469
0.217881 -0.0967205 0.246872
0.269016 -0.100639 0.1817
0.26518 -0.105747 0.146269
0.253905 -0.111075 0.114422
0.246804 -0.1463 -0.143494
0.247964 -0.151234 -0.181138
-0.27758 -0.139982 0.24911
-0.269181 -0.142071 0.227272
-0.161364 -0.132161 0.227113
-0.165997 -0.153095 0.0706894
-0.165963 -0.156184 0.0471071
0.0131674 -0.118733 0.206927
0.17669 -0.102177 0.218325
0.220981 -0.102098 0.187811
0.256872 -0.128603 -0.0395795
0.257405 -0.130578 -0.0550154
0.246735 -0.145859 -0.164085
-0.194001 -0.132191 0.227161
-0.166044 -0.145697 0.10218
-0.0270411 -0.119737 0.206986
0.172825 -0.102099 0.204131
0.257922 -0.0946171 0.202701
0.287571 -0.0966745 0.165825
0.285131 -0.100634 0.136659
0.262181 -0.111001 0.0719281
0.28021 -0.104264 0.111801
-0.228154 -0.132221 0.227212
-0.208446 -0.130489 0.227183
-0.166094 -0.138169 0.136154
-0.166076 -0.139734 0.123654
-0.0578922 -0.119758 0.207031
0.13241 -0.101515 0.218882
0.146896 -0.100213 0.219095
0.151238 -0.102099 0.200993
0.232381 -0.0912535 0.230517
0.282847 -0.104894 0.0862326
0.256889 -0.12842 -0.0832314
0.257447 -0.130481 -0.100066
-0.248392 -0.130919 0.227241
-0.166142 -0.131078 0.168157
-0.0902063 -0.119779 0.207079
0.105587 -0.101503 0.218768
0.118817 -0.102099 0.204604
0.239282 -0.0918733 0.203476
0.280801 -0.0883958 0.202705
0.28688 -0.104148 0.0697974
0.257325 -0.129896 -0.119698
0.245635 -0.140713 -0.19982
0.245909 -0.144743 -0.232919
-0.166181 -0.124826 0.194675
-0.119765 -0.119439 0.207122
0.0769428 -0.101611 0.218014
0.0948881 -0.102099 0.201326
0.28647 -0.105377 0.0393161
0.257198 -0.129288 -0.140088
-0.17471 -0.120749 0.209834
-0.150602 -0.119083 0.207168
0.048361 -0.101399 0.218934
0.0635956 -0.102099 0.202228
0.29779 -0.0932004 0.113949
0.289106 -0.104409 0.0239994
0.257066 -0.128657 -0.16128
0.25767 -0.130881 -0.180766
-0.276129 -0.121304 0.250014
0.0202344 -0.10124 0.218089
0.0349447 -0.102099 0.200208
0.18022 -0.114055 -0.00690323
0.299451 -0.0932956 0.0917262
0.290208 -0.104119 0.00311917
-0.266437 -0.1198 0.229076
-0.0230104 -0.102031 0.218233
-0.00169802 -0.102099 0.202652
0.296192 -0.0806369 0.186837
-0.0524223 -0.101495 0.219333
-0.0358436 -0.102099 0.202098
-0.0158128 -0.102098 0.188029
0.221681 -0.0774688 0.249122
0.301198 -0.0816761 0.154318
0.292479 -0.102554 -0.0327839
-0.225347 -0.111633 0.21869
-0.21094 -0.110599 0.218402
-0.0806646 -0.100904 0.219057
-0.0695736 -0.102099 0.199909
0.171805 -0.0822465 0.21909
0.185011 -0.0812984 0.218828
0.303197 -0.0820198 0.128936
0.303278 -0.0909165 0.0442835
0.294145 -0.101033 -0.0454937
0.25497 -0.120311 -0.201275
-0.254527 -0.110579 0.219592
-0.109688 -0.100216 0.219148
-0.112257 -0.102098 0.20255
0.144039 -0.0819909 0.219068
0.305152 -0.0861247 0.0654624
-0.181486 -0.102431 0.218913
-0.153128 -0.100396 0.219457
-0.145314 -0.102097 0.196852
0.116919 -0.0816958 0.217855
0.273 -0.0720395 0.20534
0.295337 -0.0988396 -0.0799572
-0.270595 -0.10249 0.250148
-0.174284 -0.101223 0.195609
-0.163942 -0.101882 0.181511
-0.0936167 -0.0949351 0.204076
0.0746236 -0.082081 0.219046
0.0888933 -0.0824101 0.205612
0.227524 -0.0710192 0.226227
0.235447 -0.0724926 0.205396
-0.1316 -0.0945588 0.204517
0.0533043 -0.0822867 0.205663
0.223146 -0.071136 0.205416
0.297796 -0.0949966 -0.101833
-0.265666 -0.0995168 0.212024
0.0226009 -0.0817085 0.205708
0.30438 -0.0671164 0.168515
0.308433 -0.081073 0.0118966
0.294666 -0.0953084 -0.135274
-0.209985 -0.0922987 0.219091
-0.0373268 -0.0816467 0.218998
-0.0232142 -0.0808599 0.218036
0.00488448 -0.0802062 0.205734
0.309151 -0.0720231 0.0850856
0.308606 -0.0807623 -0.0139759
-0.262513 -0.0913413 0.231656
-0.0805574 -0.0815384 0.219151
-0.0552449 -0.0811598 0.205822
0.208433 -0.0618734 0.247473
0.296045 -0.0609248 0.19708
0.308763 -0.0674039 0.11192
0.310387 -0.0724677 0.0512045
0.308321 -0.0806047 -0.0430745
0.307622 -0.0816933 -0.0553904
-0.123284 -0.0812885 0.218552
0.311145 -0.0717563 0.0294211
-0.180816 -0.0815706 0.219416
0.168666 -0.0621913 0.21846
0.308549 -0.0608201 0.137488
0.303058 -0.0828469 -0.136641
0.300318 -0.0847869 -0.1592
-0.269084 -0.0809205 0.251096
-0.174284 -0.0800717 0.195609
0.12674 -0.0621299 0.219101
0.154758 -0.060689 0.218288
0.308791 -0.0753197 -0.0815443
-0.261586 -0.0801469 0.214796
-0.148459 -0.0750072 0.20527
0.0995229 -0.0612105 0.218826
0.306405 -0.0756772 -0.123416
0.0317337 -0.0621411 0.219265
0.0453109 -0.0614678 0.219265
0.0825734 -0.0605829 0.20562
0.22291 -0.0518399 0.230877
0.247473 -0.0524217 0.205379
0.273 -0.0511585 0.205339
0.307548 -0.0522767 0.165228
0.309124 -0.0710373 -0.10164
0.30179 -0.0767497 -0.177408
-0.209403 -0.0710592 0.219511
-0.0999123 -0.0667732 0.205887
0.00335252 -0.0609765 0.218946
0.218146 -0.0516742 0.205422
0.313258 -0.0564443 0.0681527
0.313961 -0.0607056 0.00472581
0.313204 -0.0634271 -0.0349354
-0.259546 -0.0698529 0.226704
-0.235798 -0.0693097 0.2184
-0.0804502 -0.0621793 0.219244
-0.0523839 -0.060893 0.219368
-0.024502 -0.0605042 0.205776
0.31135 -0.0508022 0.119473
0.313039 -0.0620511 -0.0552272
-0.122715 -0.0612694 0.219017
0.313147 -0.0502861 0.0900947
0.312663 -0.0606714 -0.0772094
0.308349 -0.0646634 -0.138618
-0.267823 -0.0624998 0.251887
-0.174284 -0.0619423 0.195609
-0.136859 -0.0590555 0.218189
0.299781 -0.0422709 0.195585
0.314764 -0.0502738 0.0495705
0.315122 -0.0516478 0.0260568
0.310739 -0.0603078 -0.117478
-0.148994 -0.0574039 0.204838
0.204204 -0.0410007 0.24864
0.306963 -0.060372 -0.168325
0.0840888 -0.0449778 0.218972
0.16357 -0.0419992 0.219013
0.1771 -0.0414959 0.218948
0.310569 -0.0405384 0.143142
0.0988741 -0.0420709 0.218019
0.116542 -0.0420727 0.205571
0.137577 -0.0406983 0.218049
0.313412 -0.0502906 -0.0957224
-0.256937 -0.0508917 0.231892
-0.234363 -0.0507316 0.2194
-0.09991 -0.0468831 0.205889
0.0313979 -0.0418785 0.218905
0.0533036 -0.0417764 0.205663
0.316097 -0.042197 0.0121865
-0.052366 -0.0419472 0.219385
-0.0245015 -0.0416806 0.205777
0.00372899 -0.0401897 0.219328
0.277511 -0.0322242 0.205335
0.315153 -0.0372411 0.0665546
0.31627 -0.0408171 -0.014299
0.315809 -0.0421948 -0.0448245
-0.136279 -0.0417345 0.218654
-0.122437 -0.0413035 0.219245
-0.0803278 -0.0400631 0.219351
0.217487 -0.0303651 0.242243
0.217961 -0.0311789 0.22243
0.308979 -0.0309835 0.163162
0.315702 -0.0399116 -0.0552578
-0.267008 -0.0411162 0.252399
-0.256526 -0.0422963 0.214695
-0.174284 -0.0407913 0.195609
0.313915 -0.031462 0.0924613
0.308911 -0.0419077 -0.172564
-0.163755 -0.0366869 0.218276
-0.148952 -0.0367951 0.204871
0.242695 -0.0268664 0.205386
0.263861 -0.026332 0.205353
0.307574 -0.0262526 0.176848
0.315547 -0.030542 0.0521516
0.315112 -0.0352505 -0.0782757
0.313079 -0.0367843 -0.119431
0.312074 -0.0373754 -0.135139
0.312456 -0.0260551 0.115995
-0.254351 -0.0320728 0.240416
-0.177716 -0.0311153 0.218223
0.199508 -0.0221623 0.24913
0.298318 -0.02163 0.197305
0.313875 -0.030443 -0.104925
-0.104116 -0.027074 0.205895
-0.0109736 -0.0249204 0.219137
0.0681851 -0.0234006 0.219043
0.134287 -0.0224989 0.205544
0.146884 -0.0218862 0.219078
0.310627 -0.0209845 0.13698
-0.219496 -0.0258807 0.219318
-0.163171 -0.024926 0.218726
-0.134279 -0.024742 0.205939
0.0305268 -0.0216116 0.217971
0.0533033 -0.0215212 0.205662
0.0963995 -0.0204586 0.218771
0.171769 -0.0191552 0.219036
0.315782 -0.0215573 0.0197805
0.31605 -0.022181 -0.00587362
-0.170148 -0.0226078 0.195201
-0.0802208 -0.0207186 0.219445
-0.0523456 -0.0202963 0.219403
0.315715 -0.0200057 -0.0257308
0.31545 -0.0204514 -0.0461725
0.31489 -0.0209453 -0.0686339
-0.267252 -0.0198028 0.252246
-0.252683 -0.0201992 0.220846
0.00846612 -0.0170461 0.205728
0.308344 -0.02023 -0.174954
0.213281 -0.0117387 0.231255
0.208005 -0.0122066 0.205437
0.2281 -0.0119834 0.205407
0.268452 -0.0115351 0.205348
0.307196 -0.0117543 0.164292
0.310508 -0.0123612 0.123668
0.311795 -0.0162819 -0.124639
0.310807 -0.0165418 -0.140347
-0.230712 -0.0138152 0.218434
0.312021 -0.0104868 0.0938333
0.313764 -0.0109841 0.0542528
-0.251994 -0.0106248 0.245319
-0.205734 -0.010566 0.218643
-0.190799 -0.0104564 0.21902
-0.113731 -0.0100523 0.204948
0.247473 -0.00748881 0.20538
0.305315 -0.00736871 0.176651
0.312189 -0.0101155 -0.100555
-0.186246 -0.00762898 0.193596
-0.169796 -0.00766751 0.17669
0.312316 -0.00597639 0.0727479
-0.250541 -0.00463348 0.225791
-0.251724 -0.00468613 0.214439
-0.137075 -0.00443248 0.192579
0.306358 -0.00465672 -0.170843
-0.13539 -0.0014372 0.219367
-0.122545 -0.0014245 0.219157
-0.0804089 -0.00138168 0.21928
-0.0936179 -0.00141695 0.204075
-0.0523277 -0.00135305 0.21942
-0.0207539 -0.00134076 0.205773
0.00342989 -0.00129719 0.219025
0.0279255 -0.00127261 0.218874
0.0542585 -0.00124709 0.21809
0.0857415 -0.00123319 0.205616
0.105626 -0.00119405 0.218817
0.129578 -0.00116956 0.218987
0.15521 -0.00114369 0.218934
0.195144 -0.00105826 0.250177
0.295619 -0.00103453 0.196062
0.312651 -0.00126213 0.0261154
0.312841 -0.00128568 0.00963026
0.312944 -0.00131071 -0.00781494
0.312795 -0.00133833 -0.0268797
0.312465 -0.00136825 -0.0474126
0.311852 -0.00140127 -0.0699028
0.308141 -0.00150523 -0.13946
-0.173849 0.00157065 0.153759
-0.162238 0.00439275 0.219445
0.07297 0.00373825 0.205634
-0.260118 0.00757182 0.25343
-0.204888 0.00753847 0.219258
-0.188225 0.00762349 0.195748
-0.175894 0.00770684 0.175514
-0.176377 0.00802841 0.131211
0.173527 0.00871996 -0.210621
0.271634 0.00822449 -0.210763
0.306977 0.00740015 -0.121155
-0.176067 0.0103475 0.219468
-0.177711 0.011475 0.108825
-0.0571453 0.0096605 0.204044
0.208657 0.00753813 0.227758
0.20544 0.007786 0.205439
0.233009 0.00759106 0.2054
0.302617 0.00751625 0.163916
0.304335 0.00769906 0.144581
0.305862 0.00790082 0.123501
0.307631 0.00817795 0.094778
0.309256 0.00856349 0.0554064
0.30726 0.0101249 -0.0980237
-0.228943 0.0137829 0.219676
0.263861 0.00947953 0.205353
0.305839 0.0156769 -0.0822756
-0.135242 0.0186793 0.219485
-0.180908 0.0203998 0.159708
-0.0523098 0.0175891 0.219436
-0.0315955 0.0177743 0.194993
0.0777678 0.0158859 0.218989
0.283171 0.0134824 0.203013
0.29881 0.0137655 0.176911
0.305906 0.0179558 -0.051816
0.298664 0.019965 -0.154005
0.296381 0.0203875 -0.174961
-0.246738 0.0229796 0.231808
0.00321114 0.0194658 0.218802
-0.0043444 0.0199073 0.203682
0.0281515 0.0190804 0.219114
0.0204065 0.0195389 0.203339
0.0519333 0.0187175 0.219202
0.102704 0.0179516 0.218974
0.126774 0.0175824 0.219147
0.145827 0.0175875 0.205528
0.305613 0.0188288 0.0358271
0.305671 0.0191783 0.0196142
0.305585 0.0197433 -0.00647157
0.305155 0.0201724 -0.0260261
-0.0929779 0.0237097 0.219076
0.19027 0.018066 0.250511
0.298108 0.0253382 -0.12218
-0.261119 0.0288095 0.252798
-0.204402 0.0286272 0.219611
-0.199661 0.0292285 0.194312
-0.184477 0.0293282 0.180003
-0.25353 0.0334766 0.0769611
-0.252695 0.0338149 0.0640168
-0.250679 0.0346313 0.0327734
-0.24948 0.0351157 0.0142359
-0.249097 0.0356528 -0.00565505
-0.248768 0.0363556 -0.0315599
-0.248564 0.0367907 -0.0475989
0.0421514 0.0243005 0.204459
0.0755871 0.0236453 0.204904
0.297611 0.0277905 -0.102518
-0.254041 0.0333373 0.198403
-0.25279 0.0338457 0.180718
-0.251499 0.0343699 0.162485
-0.249122 0.0359954 0.107085
-0.245037 0.035272 0.229506
-0.215071 0.034924 0.218957
-0.251602 0.0454517 -0.0730991
-0.252653 0.0458936 -0.0856948
0.103253 0.0280059 0.204098
0.294577 0.0330543 -0.0826747
-0.251302 0.0452575 0.0418196
-0.205932 0.0450159 0.0166531
-0.198232 0.0458306 -0.0113785
-0.198065 0.0463947 -0.0271571
-0.197777 0.0473663 -0.054336
-0.197658 0.0477664 -0.065529
0.0609299 0.0318344 0.195151
0.124244 0.029918 0.203879
0.203073 0.0275452 0.214377
0.287089 0.0264285 0.186356
0.291592 0.0271018 0.164497
0.293937 0.0280982 0.135186
0.294575 0.0284691 0.12444
0.296057 0.0294645 0.0957609
0.29649 0.029907 0.0831703
0.28481 0.038204 -0.13899
0.27647 0.0399264 -0.180955
-0.206085 0.0450149 0.109369
-0.198451 0.045562 0.0899411
-0.198249 0.0462521 0.072056
-0.197987 0.0471448 0.0489229
-0.196446 0.0524041 -0.0873692
0.0378499 0.0356048 0.179908
0.20348 0.0290664 0.231635
0.217999 0.0296992 0.205164
0.25896 0.0285936 0.204811
0.291315 0.0378212 -0.0551464
0.276813 0.0421848 -0.157139
-0.198359 0.0462927 0.153167
-0.0522893 0.0392358 0.219455
0.00282627 0.0376616 0.218412
0.292448 0.0375201 0.018322
0.291885 0.0382987 8.2016e-05
0.290715 0.0392066 -0.0208269
0.281615 0.0431254 -0.108231
-0.202583 0.0477152 0.195769
-0.192018 0.0483579 0.173956
-0.0928437 0.0432259 0.219191
-0.0260111 0.0411396 0.218953
0.0276266 0.0394743 0.218555
0.0509082 0.0387662 0.218056
-0.21505 0.0639554 -0.159108
0.0774801 0.0394837 0.183321
0.239535 0.0334774 0.203956
0.290156 0.0384257 0.0575941
0.290086 0.039104 0.0424532
-0.254536 0.0497764 0.253666
-0.224822 0.050429 0.219061
-0.197715 0.0535943 0.133439
0.0996634 0.0395938 0.219
-0.199274 0.0675558 -0.159133
-0.199622 0.0688561 -0.186239
0.123619 0.0388003 0.218861
0.135491 0.0383907 0.219135
0.160365 0.0375968 0.218359
-0.239453 0.0773915 -0.24477
-0.213045 0.0750811 -0.217504
0.10928 0.0436503 0.179385
0.272265 0.050531 -0.0715798
-0.159227 0.0541288 0.218242
-0.119481 0.0526465 0.218126
-0.311493 0.0832224 -0.220582
0.0744625 0.0453445 0.218857
-0.285712 0.0824726 -0.224627
-0.220363 0.0765324 -0.1591
-0.171324 0.0778496 -0.218264
0.134618 0.0451087 0.181018
0.18572 0.0394443 0.25138
0.187749 0.0424557 0.19346
-0.186968 0.0581442 0.21834
-0.273993 0.085678 -0.210569
0.273827 0.0435009 0.155228
0.27565 0.0451336 0.124887
0.276537 0.0467286 0.0958773
0.276602 0.0474568 0.0828712
0.274164 0.050731 0.0263098
0.271797 0.0520782 0.00399446
0.267669 0.0538368 -0.0244048
-0.241418 0.0625817 0.231949
-0.198605 0.0650032 0.160876
-0.193432 0.0868571 -0.212744
0.21522 0.0463103 0.186607
0.266581 0.0447852 0.176342
0.270368 0.0515373 0.0593697
0.193157 0.0709683 -0.215349
-0.2133 0.0666972 0.195039
-0.0523622 0.0581844 0.219388
-0.218022 0.0841026 -0.0826094
-0.213428 0.0850431 -0.101018
-0.21302 0.0865057 -0.124916
-0.21281 0.0872561 -0.137176
-0.207813 0.0894731 -0.176474
0.198361 0.0475379 0.215102
0.243955 0.0474691 0.18418
0.264244 0.0497731 0.132733
0.264798 0.052298 0.0915864
-0.255775 0.0679843 0.252878
-0.22394 0.0686862 0.219685
-0.200633 0.0700444 0.182361
-0.145412 0.0651893 0.218456
-0.0927095 0.0627337 0.219306
-0.0257356 0.059689 0.219218
0.00238258 0.0584897 0.217962
-0.220302 0.0839633 -0.0185199
-0.213549 0.0849371 -0.0382847
-0.213161 0.0863302 -0.0600454
-0.223915 0.0965778 -0.21056
-0.14508 0.0929568 -0.210092
0.0259005 0.0856741 -0.217879
0.0470182 0.0846952 -0.217616
0.245806 0.0516526 0.152405
0.252338 0.0540539 0.110776
0.163619 0.079397 -0.217811
0.192059 0.0794926 -0.239266
-0.172414 0.0693538 0.218711
-0.106666 0.0662656 0.218128
-0.220526 0.0839553 0.0368683
-0.213749 0.0845143 0.0238518
-0.213383 0.0858338 0.00410706
0.0383025 0.0593112 0.218986
-0.232064 0.0978528 -0.160272
-0.170664 0.0983128 -0.210203
-0.07978 0.0958432 -0.237582
0.0715747 0.0872929 -0.217641
0.103343 0.0857812 -0.217634
-0.220731 0.0839479 0.0877258
-0.213673 0.0850661 0.0669256
-0.218152 0.0958546 -0.0827543
-0.232918 0.0981732 -0.105225
0.0871566 0.0594195 0.218881
0.107968 0.0584538 0.217941
-0.0679358 0.0979734 -0.218305
-0.0596337 0.0987761 -0.235508
0.126292 0.088321 -0.218027
-0.132437 0.0732299 0.218203
-0.219207 0.084051 0.131886
-0.213685 0.0852753 0.111344
-0.217881 0.0956304 -0.0266442
-0.232304 0.0978828 -0.0471668
0.132336 0.0595198 0.218784
0.155261 0.05832 0.219007
-0.0460962 0.101005 -0.22048
-0.0386198 0.101991 -0.239151
0.0467552 0.0960404 -0.218146
-0.313503 0.0841141 0.240477
-0.294484 0.0832393 0.238572
-0.241592 0.0796249 0.248748
-0.18583 0.0788907 0.219189
-0.213616 0.0857652 0.148676
-0.217632 0.0954241 0.0249982
-0.234446 0.0987467 -0.00670403
-0.0342456 0.103971 -0.215781
-0.022861 0.104857 -0.235379
-0.236412 0.0864914 0.196372
-0.23251 0.0979085 0.0495417
-0.218136 0.115514 -0.18275
0.180609 0.0589092 0.25149
0.196297 0.0589219 0.240309
-0.0038588 0.108897 -0.249773
0.177676 0.0955654 -0.209066
0.187721 0.0975736 -0.241469
-0.22108 0.0847032 0.245677
-0.20099 0.0843462 0.23591
-0.21352 0.0884389 0.194874
-0.231978 0.0976592 0.095559
-0.234493 0.0987105 0.0845245
0.0245308 0.0727284 0.218945
-0.236471 0.118829 -0.159076
-0.00632435 0.11003 -0.21362
0.00752646 0.110439 -0.228335
-0.181437 0.0858177 0.23968
-0.144566 0.0853629 0.219126
-0.232687 0.0979307 0.133178
-0.0524537 0.0798471 0.219304
-0.0255455 0.078232 0.2194
-0.0357837 0.1154 -0.210679
0.0343066 0.111834 -0.217969
0.0252028 0.114617 -0.244318
0.0993206 0.107944 -0.217888
0.1452 0.105197 -0.217803
-0.271923 0.0934667 0.249315
-0.162381 0.0872199 0.243439
-0.0925562 0.085018 0.219437
-0.236217 0.122746 -0.10894
-0.228694 0.124211 -0.130903
0.193604 0.0676688 0.215811
0.122557 0.110165 -0.217841
-0.141629 0.0888758 0.242121
-0.0112413 0.0826717 0.218872
-0.234828 0.122837 -0.0665805
0.0475393 0.0790008 0.218021
-0.228558 0.124961 -0.0943885
0.0713807 0.077391 0.219007
0.055189 0.118069 -0.217803
0.049938 0.12016 -0.237155
-0.124881 0.0906523 0.241515
-0.235742 0.122782 -0.023712
-0.228832 0.124183 -0.0435199
-0.236472 0.135506 -0.159078
0.0935148 0.0783897 0.219029
0.00818664 0.124266 -0.210931
0.0794262 0.120247 -0.218061
0.0667117 0.124498 -0.254519
-0.234449 0.122867 0.0136415
0.116876 0.0793361 0.217799
0.140599 0.0776831 0.218257
0.182895 0.117542 -0.224394
0.18266 0.118608 -0.235282
-0.101498 0.0937655 0.249888
-0.23323 0.122947 0.0488769
-0.228954 0.124157 0.0336979
-0.230195 0.145918 -0.184334
0.0336433 0.130147 -0.211049
0.0874166 0.129748 -0.244815
-0.146567 0.0991916 0.255073
-0.0817304 0.0958203 0.242482
-0.0714849 0.0973823 0.220012
-0.22919 0.123476 0.0757111
0.130194 0.127668 -0.217769
0.152505 0.126098 -0.218087
-0.235633 0.115068 0.193256
-0.122966 0.100112 0.256313
-0.0371599 0.0976795 0.219156
0.0140328 0.0939187 0.218949
0.175368 0.0785765 0.251484
0.107175 0.132966 -0.217775
0.109787 0.135992 -0.248384
-0.0617784 0.0989798 0.249184
0.0348771 0.0949079 0.218964
-0.236473 0.156354 -0.159078
0.0706718 0.13865 -0.211016
-0.220879 0.121071 0.185616
-0.0446001 0.101252 0.240426
0.12991 0.1417 -0.246801
-0.22311 0.126762 0.164809
-0.0115419 0.103725 0.218575
0.045241 0.0991155 0.219188
-0.249774 0.161787 -0.124203
-0.244243 0.162738 -0.136447
-0.240507 0.168569 -0.190306
0.188776 0.0879482 0.216466
0.0905309 0.144475 -0.211181
0.177532 0.138446 -0.219331
0.177328 0.140832 -0.240146
-0.0223235 0.10513 0.236616
-0.247609 0.161934 -0.0918868
0.125633 0.145174 -0.210486
0.145725 0.146458 -0.235602
-0.0758258 0.109738 0.257377
-0.0319555 0.105934 0.258365
-0.247966 0.161914 -0.0580271
0.114069 0.149763 -0.210761
-0.244316 0.163024 -0.0377997
-0.258346 0.179078 -0.159043
0.0808574 0.103616 0.218886
-0.24359 0.179653 -0.174099
0.0996138 0.101996 0.218939
0.123656 0.0999311 0.21891
0.135522 0.0988775 0.219176
-0.227401 0.137514 0.184457
-0.0110897 0.109346 0.257221
0.00856352 0.110853 0.23139
0.15525 0.153384 -0.210997
0.175076 0.15609 -0.246517
-0.245132 0.141081 0.193743
0.00811267 0.111267 0.248348
0.0349318 0.112612 0.219023
-0.249752 0.194743 -0.188144
0.16995 0.0984741 0.251304
0.186864 0.0981883 0.241601
0.18167 0.158892 -0.217781
-0.232553 0.150577 0.161361
-0.251701 0.161687 0.0918872
-0.244298 0.163734 0.0714101
0.028261 0.115391 0.240742
-0.250283 0.196506 -0.168986
0.197998 0.164203 -0.242831
-0.251931 0.161676 0.11754
0.0552095 0.118235 0.21916
-0.267377 0.200687 -0.15665
0.198507 0.164593 -0.220238
-0.252151 0.161664 0.142131
-0.259654 0.202044 -0.141553
0.184632 0.107575 0.222329
-0.235363 0.157592 0.182263
0.0383418 0.119386 0.257843
0.0533971 0.121079 0.235398
0.108619 0.117917 0.218767
0.21849 0.171437 -0.233671
0.223206 0.173591 -0.252082
-0.257795 0.21547 -0.17787
0.0800859 0.123333 0.217967
-0.247346 0.163194 0.195834
-0.239333 0.167671 0.160036
-0.266834 0.200735 -0.0176943
0.0728833 0.125792 0.239058
0.205156 0.179792 -0.210847
0.227313 0.185113 -0.261591
-0.267226 0.200712 0.00753415
0.0677288 0.125848 0.257864
-0.267605 0.20069 0.0318312
0.129687 0.127446 0.219133
0.164437 0.118597 0.251072
0.181503 0.117634 0.245218
0.225825 0.184276 -0.210308
-0.24344 0.177957 0.180038
-0.265611 0.20082 0.0526454
0.0926217 0.131163 0.236557
-0.259583 0.180658 0.194484
-0.266005 0.200796 0.0752913
0.0883718 0.130766 0.256496
-0.247344 0.187857 0.161731
-0.266385 0.200774 0.0971446
0.179723 0.128009 0.22293
-0.266752 0.200752 0.118246
0.11297 0.13664 0.231828
-0.267106 0.200731 0.138634
-0.28744 0.243955 -0.0992041
-0.28875 0.243449 -0.0718616
0.108739 0.137074 0.259109
-0.251342 0.197871 0.181776
-0.288626 0.243512 -0.0495918
-0.272959 0.249729 -0.0956871
-0.262858 0.20001 0.195856
-0.288506 0.243572 -0.0280238
-0.27176 0.250297 -0.077133
-0.275535 0.259996 -0.128338
0.133377 0.142742 0.235486
-0.288389 0.24363 -0.0071249
0.127733 0.141734 0.257444
0.158657 0.13902 0.250555
0.176585 0.137604 0.245697
-0.256865 0.211856 0.162346
-0.288277 0.243687 0.0131354
-0.273088 0.253545 -0.0505784
-0.277826 0.265706 -0.112688
-0.280893 0.27358 -0.152899
-0.281941 0.276304 -0.166821
-0.288167 0.243742 0.0327863
-0.273063 0.253401 -0.0290029
-0.288061 0.243795 0.0518544
-0.272213 0.250083 0.00790471
-0.279076 0.268753 -0.0847133
0.174977 0.147746 0.227822
-0.259299 0.217923 0.183526
-0.287958 0.243847 0.0703658
-0.272343 0.250042 0.0275454
-0.274768 0.257625 -0.00973999
-0.277993 0.265896 -0.0500029
-0.274284 0.220918 0.195238
-0.289106 0.243402 0.0917299
-0.27247 0.250002 0.0466062
-0.277889 0.265555 -0.0283918
-0.288991 0.243458 0.109115
0.172962 0.15773 0.212667
-0.28888 0.243512 0.126015
-0.272129 0.25065 0.0791093
-0.272119 0.25056 0.0967935
-0.278949 0.26806 0.0166464
-0.267615 0.238942 0.166022
-0.278836 0.267703 0.0362237
-0.284713 0.279053 -0.0139764
0.138824 0.158784 0.2642
0.168308 0.155326 0.26004
-0.278681 0.237562 0.195878
-0.279109 0.247415 0.149652
-0.272101 0.250389 0.130683
0.188048 0.160554 0.231601
0.190572 0.16455 0.210954
-0.279942 0.270406 0.0588139
-0.278946 0.267795 0.0867997
0.187629 0.160897 0.250401
-0.279156 0.268213 0.116847
-0.275434 0.258632 0.17189
0.207633 0.167761 0.234264
-0.284022 0.257812 0.195888
-0.279355 0.26861 0.145469
0.188462 0.167696 0.26644
0.207846 0.168248 0.250443
-0.283775 0.277963 0.165874
0.227514 0.175003 0.234607
0.228305 0.180731 0.210246
-0.288017 0.279547 0.189449
0.228392 0.175663 0.248326
0.208827 0.178503 0.267106
