ply
format ascii 1.0
comment Created by Open3D
element vertex 798
property double x
property double y
property double z
end_header
-0.226181 -0.21135 -0.267205
-0.226212 -0.217419 -0.24717
-0.226495 -0.223694 -0.226216
-0.253654 -0.215788 -0.226173
-0.269216 -0.207168 -0.228005
-0.251265 -0.201991 -0.226177
-0.226228 -0.202128 -0.236715
-0.226181 -0.191895 -0.267205
-0.265375 -0.187495 -0.226155
0.227539 -0.288326 -0.269894
-0.244003 -0.182012 -0.226189
0.255206 -0.289226 -0.26994
0.227061 -0.287509 -0.249758
-0.260437 -0.289557 0.226969
0.227035 -0.289042 -0.231746
-0.226181 -0.17244 -0.267205
-0.226212 -0.177392 -0.24717
-0.269976 -0.289479 0.247696
-0.236673 -0.289264 0.226931
-0.269216 -0.166616 -0.228005
0.241212 -0.271357 -0.269916
0.255206 -0.271608 -0.26994
0.227057 -0.27069 -0.246794
0.227039 -0.270549 -0.234787
-0.245693 -0.272266 0.226945
-0.269114 -0.267045 0.226983
-0.269976 -0.271664 0.247696
-0.233636 -0.271948 0.226926
-0.251265 -0.162136 -0.226177
-0.226228 -0.161517 -0.236715
0.241212 -0.251042 -0.269916
0.227061 -0.252482 -0.249758
0.255206 -0.251054 -0.26994
-0.226181 -0.151217 -0.267205
-0.257517 -0.25195 0.226964
0.227035 -0.250503 -0.231746
-0.242701 -0.252052 0.226941
-0.269976 -0.250881 0.247696
-0.269216 -0.147222 -0.228005
-0.269114 -0.234941 0.226983
0.248168 -0.232074 -0.269928
0.227078 -0.229691 -0.26146
0.227048 -0.23091 -0.240822
-0.251265 -0.142209 -0.226177
-0.251634 -0.232447 0.226955
0.269533 -0.230268 -0.269964
-0.269976 -0.230098 0.247696
-0.226228 -0.141212 -0.236715
-0.226181 -0.131762 -0.267205
0.227078 -0.212356 -0.26146
-0.227518 -0.221959 0.226916
0.248168 -0.211639 -0.269928
0.269533 -0.212441 -0.269964
0.227048 -0.210319 -0.240822
-0.248671 -0.212235 0.22695
-0.269964 -0.210884 0.23997
-0.270001 -0.206115 0.26346
-0.253654 -0.121888 -0.226173
0.227078 -0.192132 -0.26146
-0.269216 -0.117248 -0.228005
0.255206 -0.192328 -0.26994
-0.226228 -0.120907 -0.236715
0.227048 -0.189728 -0.240822
-0.242701 -0.192395 0.226941
-0.269964 -0.190238 0.23997
-0.226181 -0.112307 -0.267205
-0.270001 -0.185052 0.26346
0.227078 -0.171907 -0.26146
0.255206 -0.171774 -0.26994
0.227048 -0.172079 -0.240822
-0.236673 -0.172359 0.226931
-0.269964 -0.169592 0.23997
-0.251265 -0.102354 -0.226177
-0.226228 -0.102448 -0.236715
-0.270001 -0.166998 0.26346
-0.269216 -0.0960907 -0.228005
0.241212 -0.152366 -0.269916
0.262327 -0.152113 -0.269952
0.227061 -0.150322 -0.249758
-0.226181 -0.0910839 -0.267205
-0.251634 -0.152497 0.226955
-0.269964 -0.151895 0.23997
-0.270001 -0.154962 0.26346
0.227035 -0.149709 -0.231746
-0.230585 -0.152125 0.226921
0.241212 -0.132051 -0.269916
-0.251265 -0.0824267 -0.226177
0.269533 -0.132219 -0.269964
0.227061 -0.12989 -0.249758
0.227035 -0.131922 -0.231746
-0.226228 -0.0821432 -0.236715
-0.245693 -0.132413 0.226945
-0.269964 -0.131249 0.23997
-0.269216 -0.0766962 -0.228005
-0.227518 -0.131364 0.226916
-0.270001 -0.124872 0.26346
-0.226181 -0.0716291 -0.267205
0.248168 -0.112388 -0.269928
0.227078 -0.111234 -0.26146
0.269533 -0.11142 -0.269964
0.227048 -0.110307 -0.240822
-0.236673 -0.112408 0.226931
-0.269964 -0.110603 0.23997
-0.251265 -0.0624994 -0.226177
-0.226228 -0.0618381 -0.236715
-0.269216 -0.0573018 -0.228005
-0.269114 -0.0948522 0.226983
0.255206 -0.0924937 -0.26994
0.241212 -0.0914199 -0.269916
0.227061 -0.0919444 -0.249758
-0.270001 -0.0947826 0.26346
0.227035 -0.0904183 -0.231746
-0.227518 -0.0921056 0.226916
-0.226181 -0.0521743 -0.267205
-0.251634 -0.0873527 0.226955
0.262327 -0.0723645 -0.269952
0.241212 -0.0711044 -0.269916
0.227061 -0.0715123 -0.249758
-0.269964 -0.0722609 0.23997
0.227035 -0.0696666 -0.231746
-0.253654 -0.0424352 -0.226173
-0.227518 -0.0709666 0.226916
-0.226228 -0.0415331 -0.236715
-0.248671 -0.0667874 0.22695
-0.270001 -0.0646929 0.26346
-0.248671 -0.0549141 0.22695
0.269533 -0.0519961 -0.269964
0.248168 -0.0510854 -0.269928
0.227078 -0.050561 -0.26146
0.227048 -0.0514767 -0.240822
-0.226181 -0.0309508 -0.267205
-0.269964 -0.0516149 0.23997
-0.227518 -0.0498276 0.226916
-0.269216 -0.0273285 -0.228005
-0.226228 -0.021228 -0.236715
-0.270001 -0.0346032 0.26346
0.269533 -0.0311977 -0.269964
0.248168 -0.0306512 -0.269928
0.227078 -0.0303366 -0.26146
0.227048 -0.030886 -0.240822
-0.227518 -0.0317085 0.226916
-0.269964 -0.030969 0.23997
-0.248671 -0.0252308 0.22695
-0.226181 -0.011496 -0.267205
-0.253654 -0.0117374 -0.226173
0.269533 -0.0103992 -0.269964
0.248168 -0.0102171 -0.269928
0.227078 -0.0101122 -0.26146
0.227048 -0.0102953 -0.240822
-0.227518 -0.0105695 0.226916
-0.269964 -0.010323 0.23997
-0.248671 -0.00742082 0.22695
-0.270001 -0.00451347 0.26346
-0.226228 -0.000922963 -0.236715
-0.227518 0.00754964 0.226916
0.269533 0.0103992 -0.269964
0.248168 0.0102171 -0.269928
0.227078 0.0101122 -0.26146
0.227048 0.0102953 -0.240822
-0.269964 0.010323 0.23997
-0.226181 0.00795879 -0.267205
-0.253654 0.0081259 -0.226173
-0.248671 0.0133575 0.22695
-0.270001 0.0225673 0.26346
-0.239694 0.0254166 0.226936
-0.257517 0.0250476 0.226964
0.269533 0.0282265 -0.269964
0.248168 0.0277321 -0.269928
0.227074 0.0275173 -0.258557
0.227048 0.0279445 -0.240822
-0.226228 0.0175362 -0.236715
-0.269976 0.0400816 0.247696
-0.226185 0.0275096 -0.264762
-0.253654 0.0279892 -0.226173
-0.269114 0.0452372 0.226983
0.269533 0.0490249 -0.269964
0.248168 0.0481662 -0.269928
0.227078 0.0476718 -0.26146
0.227048 0.0485352 -0.240822
-0.227518 0.0498276 0.226916
-0.248671 0.0549141 0.22695
-0.269976 0.0578957 0.247696
-0.226228 0.0378412 -0.236715
-0.227518 0.0679468 0.226916
0.269533 0.0698233 -0.269964
0.248168 0.0686004 -0.269928
0.227078 0.0678962 -0.26146
0.227048 0.0691259 -0.240822
-0.248671 0.072724 0.22695
-0.269114 0.0744225 0.226983
-0.253654 0.0478525 -0.226173
-0.269976 0.0786788 0.247696
-0.226181 0.048637 -0.267205
-0.239694 0.0852205 0.226936
0.269533 0.0876505 -0.269964
0.227031 0.0876824 -0.228689
0.248168 0.0890345 -0.269928
0.227078 0.0881206 -0.26146
-0.226216 0.0575179 -0.244584
-0.257517 0.0928235 0.226964
-0.269976 0.0994618 0.247696
-0.248671 0.105376 0.22695
0.269533 0.108449 -0.269964
0.227044 0.107644 -0.237812
-0.227518 0.110225 0.226916
0.248168 0.109469 -0.269928
0.227078 0.108345 -0.26146
-0.253654 0.0677158 -0.226173
-0.226181 0.0680918 -0.267205
-0.269952 0.112809 0.232345
-0.269988 0.11806 0.255525
-0.226216 0.0776035 -0.244584
-0.227518 0.128344 0.226916
-0.257517 0.125238 0.226964
0.269533 0.129247 -0.269964
0.227052 0.127626 -0.243816
0.248168 0.129903 -0.269928
0.227078 0.128569 -0.26146
-0.269976 0.138059 0.247696
-0.253654 0.0875791 -0.226173
-0.239694 0.145024 0.226936
-0.226181 0.0875466 -0.267205
0.269533 0.150046 -0.269964
0.227057 0.147782 -0.246794
0.227039 0.14932 -0.234787
0.248168 0.150337 -0.269928
0.255259 0.214924 0.185918
-0.257517 0.154706 0.226964
0.227539 0.153487 -0.269894
0.256816 0.214923 0.154279
0.242359 0.214926 0.168192
-0.226216 0.0976891 -0.244584
-0.269976 0.158842 0.247696
0.255477 0.214923 0.126532
0.240314 0.215411 0.144628
0.12482 0.214923 0.2521
0.256975 0.214923 0.0971051
0.240362 0.214955 0.113296
0.0979874 0.214921 0.249891
-0.227518 0.167602 0.226916
0.269533 0.167873 -0.269964
0.227031 0.167934 -0.228689
0.25568 0.214923 0.0713527
0.240401 0.215224 0.0881321
0.240289 0.22563 0.160781
0.0748737 0.214929 0.245164
0.248168 0.167852 -0.269928
0.227061 0.167835 -0.249758
0.257123 0.214923 0.0439087
0.240439 0.215484 0.0637839
0.0471532 0.214928 0.245744
0.25587 0.214923 0.0199462
0.240483 0.21505 0.0355876
0.105048 0.226113 0.240244
0.0340506 0.215995 0.240354
0.012427 0.214922 0.253911
-0.248671 0.173647 0.22695
0.257261 0.214923 -0.00571126
0.240517 0.215304 0.0128994
0.0758657 0.225749 0.240289
-0.0133099 0.214922 0.254326
-0.269114 0.173652 0.226983
-0.269988 0.177837 0.255525
0.227539 0.173569 -0.269894
0.256047 0.214923 -0.0280616
0.240701 0.214925 -0.0133028
0.240362 0.23432 0.113296
-0.253654 0.109248 -0.226173
-0.0330681 0.214926 0.249826
0.25739 0.214923 -0.0521041
0.240584 0.215788 -0.0304115
0.240314 0.243078 0.144628
-0.226181 0.10877 -0.267205
-0.0547132 0.214925 0.247872
0.256213 0.214923 -0.0729968
0.241365 0.214926 -0.0587064
0.0569997 0.234258 0.240318
-0.0731896 0.214924 0.243599
-0.227518 0.188741 0.226916
0.269533 0.188671 -0.269964
0.227039 0.187758 -0.234787
0.257511 0.214923 -0.0955744
0.242896 0.214926 -0.0815097
0.240394 0.242688 0.0930984
0.240298 0.252711 0.15536
-0.234097 0.117691 -0.226204
0.105048 0.245439 0.240244
0.0431477 0.235864 0.24034
-0.0225328 0.225703 0.240442
-0.0935172 0.214925 0.241812
-0.108152 0.214922 0.255855
0.248168 0.188286 -0.269928
0.227539 0.185045 -0.269894
0.227065 0.187785 -0.252706
0.256369 0.214923 -0.115145
0.240431 0.242503 0.0685901
0.0854733 0.246229 0.240274
0.0161784 0.23534 0.240382
-0.10552 0.216218 0.240571
-0.269964 0.190238 0.23997
0.257625 0.214923 -0.13639
0.241094 0.214926 -0.120483
0.240629 0.225044 -0.0591978
0.240558 0.232647 -0.0134064
0.240461 0.243101 0.04955
0.24037 0.252839 0.108196
0.0569997 0.245503 0.240318
-0.13467 0.214929 0.240678
-0.248671 0.194425 0.22695
0.240746 0.215664 -0.135217
0.240497 0.242914 0.0264263
0.240314 0.262841 0.144628
-0.0431866 0.23302 0.240474
-0.14533 0.216473 0.240633
-0.169465 0.214923 0.254648
-0.269988 0.198759 0.255525
0.257731 0.214923 -0.174787
0.243971 0.214923 -0.161563
0.240517 0.244252 0.0128994
-0.0553007 0.234532 0.240493
0.256652 0.214923 -0.192059
0.240653 0.232587 -0.0751159
-0.0750434 0.234712 0.240524
-0.192785 0.215064 0.240709
-0.208867 0.214921 0.255344
0.257832 0.214923 -0.210974
0.242244 0.214924 -0.195988
0.240591 0.243121 -0.0345985
0.240417 0.263012 0.0782971
0.221635 0.270373 0.138069
0.0854733 0.265316 0.240274
0.0250615 0.255088 0.240368
-0.214342 0.214928 0.24286
-0.227518 0.20988 0.226916
0.269533 0.20947 -0.269964
0.227044 0.207915 -0.237812
0.240712 0.232549 -0.113322
0.240454 0.262501 0.0542641
0.232219 0.270374 0.106164
-0.226212 0.128268 -0.24717
0.105157 0.270373 0.22828
0.0663754 0.265854 0.240304
0.00739944 0.255725 0.240396
-0.00557774 0.253496 0.240416
-0.112933 0.235058 0.240583
-0.269964 0.207934 0.23997
0.248168 0.20872 -0.269928
0.227539 0.205127 -0.269894
0.240004 0.222899 -0.183971
0.240552 0.254741 -0.00908959
0.223441 0.270374 0.0934739
0.207099 0.270373 0.109179
-0.253654 0.129111 -0.226173
0.0872625 0.270373 0.224352
-0.134703 0.2346 0.240617
-0.270001 0.215142 0.26346
0.240511 0.263168 0.0173801
0.222963 0.270374 0.0733898
0.185358 0.270373 0.109529
-0.226181 0.128225 -0.267205
0.0698611 0.270373 0.220533
-0.0349957 0.255491 0.240461
-0.094247 0.245026 0.240554
-0.248671 0.215204 0.22695
0.240876 0.222748 -0.219033
0.24079 0.233135 -0.163289
0.240629 0.25253 -0.0591978
0.222499 0.270374 0.053852
0.201302 0.270374 0.0742221
0.180106 0.270373 0.0945922
0.0767779 0.270373 0.1939
0.0449852 0.270373 0.224457
-0.0553007 0.25538 0.240493
-0.172867 0.234329 0.240676
-0.242305 0.215493 0.206476
0.207712 0.214514 -0.246712
0.240735 0.242971 -0.128001
0.240653 0.252959 -0.0751159
0.222047 0.270374 0.0348387
0.201135 0.270374 0.0549355
0.182837 0.270373 0.0725201
-0.234097 0.138078 -0.226204
0.0599844 0.270373 0.190592
-0.14533 0.242514 0.240633
-0.21327 0.228341 0.230995
-0.242806 0.215494 0.191463
-0.257994 0.216458 0.211155
0.186907 0.214513 -0.241746
0.240033 0.232858 -0.197098
0.240604 0.262521 -0.0428969
0.224186 0.270374 0.0138504
0.162281 0.270373 0.0733419
0.0591112 0.270373 0.172498
0.0410567 0.270373 0.189851
0.020423 0.270373 0.209682
-0.241231 0.215499 0.174886
0.186864 0.214518 -0.25631
0.240707 0.253063 -0.1096
0.231361 0.270375 -0.0114822
0.200813 0.270374 0.0178749
0.180448 0.270374 0.0374462
0.142263 0.270373 0.0741423
0.0429877 0.270373 0.169556
0.0200783 0.270373 0.191575
0.00225979 0.270373 0.208701
-0.112933 0.255063 0.240583
-0.255944 0.215494 0.174304
0.269533 0.230268 -0.269964
0.166874 0.214519 -0.251344
0.24316 0.243181 -0.178993
0.208197 0.270374 -0.00718272
0.180556 0.270374 0.0193807
0.160453 0.270373 0.0386994
0.0423562 0.270373 0.152201
0.0197425 0.270373 0.173935
0.00466657 0.270373 0.188425
-0.0179473 0.270373 0.21016
-0.0750434 0.26555 0.240524
-0.134703 0.254287 0.240617
-0.193364 0.242966 0.239462
-0.242224 0.2155 0.146827
-0.269964 0.22858 0.23997
0.248168 0.229154 -0.269928
0.227539 0.22521 -0.269894
0.214736 0.225096 -0.258157
0.147393 0.21452 -0.246504
0.220354 0.270375 -0.0363701
0.190584 0.270374 -0.00776088
0.160815 0.270374 0.0208481
0.136007 0.270373 0.044689
-0.0376396 0.270373 0.211582
-0.14533 0.255535 0.240633
-0.240725 0.215499 0.131434
-0.257898 0.215903 0.149966
0.128402 0.21452 -0.241786
0.240784 0.25286 -0.159847
0.232205 0.270375 -0.0648233
0.197911 0.270374 -0.0318657
0.170966 0.270374 -0.00597048
0.141571 0.270373 0.0222787
0.119524 0.270373 0.0434656
0.0264443 0.270373 0.132924
0.00929827 0.270373 0.149404
-0.00539833 0.270373 0.163529
-0.020095 0.270373 0.177655
-0.037241 0.270373 0.194134
-0.059286 0.270373 0.215323
-0.172867 0.253458 0.240676
-0.269988 0.237614 0.255525
0.240735 0.262539 -0.128001
0.231667 0.270375 -0.0809453
0.212313 0.270375 -0.0623463
0.180864 0.270374 -0.032123
0.149415 0.270374 -0.00189978
0.122804 0.270373 0.0236736
0.0115278 0.270373 0.13062
-0.0634615 0.270373 0.202695
-0.0803945 0.270373 0.21897
-0.241695 0.215499 0.105498
-0.257859 0.216272 0.124819
0.116446 0.214517 -0.256392
0.231141 0.270375 -0.0966717
0.212025 0.270375 -0.0783008
0.185741 0.270374 -0.0530409
0.161846 0.270374 -0.0300775
0.126004 0.270373 0.00436741
0.0973301 0.270373 0.0319234
0.0113134 0.270373 0.114594
-0.00780123 0.270373 0.132966
-0.0293051 0.270373 0.153634
-0.0484198 0.270373 0.172006
-0.0794811 0.270373 0.20186
-0.100985 0.270374 0.222528
-0.242161 0.215499 0.0930087
0.104136 0.214517 -0.257127
0.0872911 0.214521 -0.240922
0.214104 0.270375 -0.0961371
0.190499 0.270375 -0.0734519
0.166894 0.270374 -0.0507668
0.136207 0.270374 -0.0212763
0.110242 0.270373 0.00367719
-0.253654 0.148975 -0.226173
-0.066788 0.270373 0.173821
-0.257674 0.215494 0.0952737
0.269533 0.248096 -0.269964
0.189177 0.234235 -0.258117
0.223131 0.270375 -0.12027
0.192811 0.270375 -0.0911326
0.167156 0.270374 -0.0664778
0.146166 0.270374 -0.0463057
0.115847 0.270373 -0.0171684
0.0901926 0.270373 0.0074861
-0.226181 0.14768 -0.267205
-0.010089 0.270373 0.103867
-0.0287458 0.270373 0.121798
-0.0520668 0.270373 0.144213
-0.0870482 0.270373 0.177835
-0.112702 0.270374 0.202491
-0.129026 0.270374 0.218181
-0.241204 0.215498 0.0671384
-0.257794 0.215588 0.083508
-0.257994 0.242607 0.211155
0.0767322 0.214517 -0.25503
0.06577 0.21452 -0.244482
0.172022 0.270375 -0.0862467
0.130539 0.270374 -0.0463799
0.0890551 0.270373 -0.00651348
0.0706182 0.270373 0.011205
-0.226204 0.152644 -0.252286
-0.046912 0.270373 0.124165
-0.0722616 0.270373 0.148529
-0.088393 0.270373 0.164034
-0.109134 0.270374 0.183968
-0.129874 0.270374 0.203903
-0.14831 0.270374 0.221622
-0.269964 0.249226 0.23997
0.248168 0.249588 -0.269928
0.227539 0.245292 -0.269894
0.214736 0.245169 -0.258157
0.164705 0.234748 -0.258079
0.215495 0.270375 -0.142765
0.201829 0.270375 -0.129631
0.185885 0.270375 -0.114309
0.151719 0.270374 -0.081475
0.110721 0.270374 -0.0420746
0.0947773 0.270373 -0.0267522
-0.234097 0.158465 -0.226204
-0.0168249 0.270373 0.0805069
-0.0327676 0.270373 0.0958301
-0.242105 0.215497 0.0442246
-0.257759 0.215941 0.0613161
-0.25796 0.243834 0.190006
0.0564478 0.214681 -0.257909
0.0381032 0.214521 -0.241008
0.183667 0.270375 -0.126577
0.165657 0.270375 -0.109268
0.131886 0.270374 -0.0768136
0.111624 0.270374 -0.0573412
0.0688484 0.270373 -0.0162328
-0.0504675 0.270373 0.0984421
-0.0662259 0.270373 0.113588
-0.0842357 0.270373 0.130898
-0.108999 0.270373 0.154699
-0.12926 0.270374 0.174172
-0.149521 0.270374 0.193646
-0.269988 0.258536 0.255525
0.13554 0.234022 -0.258033
0.145891 0.270374 -0.104342
0.0924756 0.270374 -0.0530089
0.0501891 0.270373 -0.0123703
-0.0432822 0.270373 0.0774657
-0.241192 0.215497 0.0206533
-0.257726 0.21628 0.0400708
-0.257918 0.243546 0.162992
-0.263606 0.270374 0.289226
0.124292 0.234272 -0.258015
0.0372449 0.215505 -0.257879
0.0169215 0.214521 -0.242726
0.161779 0.270375 -0.133363
0.126571 0.270374 -0.0995276
0.111168 0.270374 -0.0847246
0.0913638 0.270374 -0.0656922
0.0715596 0.270373 -0.0466599
0.0517555 0.270373 -0.0276275
-0.0362594 0.270373 0.0569635
-0.0626634 0.270373 0.0823413
-0.0890675 0.270373 0.107719
-0.113271 0.270373 0.130982
-0.128674 0.270373 0.145786
-0.148477 0.270374 0.164819
0.288285 0.270377 -0.268383
0.142498 0.270375 -0.128278
0.10986 0.270374 -0.0969118
-0.0837874 0.270373 0.0891989
-0.107721 0.270373 0.112202
-0.129478 0.270373 0.133114
-0.242055 0.215496 -0.000198424
-0.257664 0.215495 0.014798
-0.257878 0.243271 0.137245
-0.283958 0.270374 0.281589
0.269533 0.268894 -0.269964
0.189177 0.253871 -0.258117
0.102474 0.234756 -0.257981
-0.00332397 0.21452 -0.244369
0.117188 0.270374 -0.117102
0.0913658 0.270374 -0.0922859
0.0719993 0.270374 -0.0736741
0.0504809 0.270373 -0.0529944
0.0311145 0.270373 -0.0343827
-0.0484998 0.270373 0.0421351
-0.0635618 0.270373 0.0566115
-0.102293 0.270373 0.093837
-0.149631 0.270374 0.139335
-0.25783 0.238984 0.106711
-0.257994 0.262946 0.211155
0.281854 0.270377 -0.288211
0.0815144 0.232678 -0.257948
0.0711476 0.270374 -0.0857158
0.0519927 0.270373 -0.0673075
0.0307097 0.270373 -0.0468538
-0.0842142 0.270373 0.0636005
-0.128906 0.270373 0.106555
-0.241182 0.215496 -0.0217672
-0.269964 0.269872 0.23997
-0.288522 0.270374 0.259967
0.251373 0.270377 -0.2715
0.227074 0.267932 -0.258557
0.214736 0.265241 -0.258157
0.164705 0.253967 -0.258079
-0.0126784 0.214518 -0.255577
0.112421 0.270374 -0.137963
0.0955781 0.270374 -0.121776
0.0787356 0.270374 -0.10559
-0.0686317 0.270373 0.0360412
-0.10442 0.270373 0.0704383
-0.127577 0.270373 0.0926954
-0.257642 0.215974 -0.0139406
0.256953 0.270377 -0.289175
0.0613644 0.233174 -0.257917
0.0187526 0.223468 -0.25785
-0.0337197 0.21452 -0.245112
0.0507539 0.270374 -0.0910118
0.0320088 0.270373 -0.0729972
0.011181 0.270373 -0.052981
-0.226196 0.167707 -0.257329
-0.253654 0.168838 -0.226173
-0.0658787 0.270373 0.0210817
-0.149186 0.270373 0.101151
-0.242008 0.215495 -0.04082
-0.257803 0.242758 0.0892113
-0.257939 0.263409 0.176335
-0.288726 0.270374 0.235267
0.243867 0.270377 -0.288652
0.189177 0.265092 -0.258117
0.13554 0.252744 -0.258033
0.0913693 0.270374 -0.142097
0.060458 0.270374 -0.11239
-0.0879115 0.270373 0.0302053
-0.104397 0.270373 0.0460497
-0.122942 0.270373 0.0638745
-0.257918 0.26303 0.162992
-0.279552 0.270374 0.214396
0.21882 0.270377 -0.276381
0.124292 0.252802 -0.258015
-0.0534617 0.21452 -0.245064
0.0719979 0.270374 -0.13528
0.0414103 0.270374 -0.105884
0.0210187 0.270373 -0.0862873
0.000626981 0.270373 -0.0666903
-0.144147 0.270373 0.0724545
-0.241172 0.215495 -0.0606338
-0.2576 0.216439 -0.0409533
-0.257768 0.242519 0.066773
-0.226228 0.178131 -0.236715
-0.082177 0.270373 0.00133747
-0.10841 0.270373 0.0265509
-0.277917 0.270374 0.189469
-0.289537 0.288257 0.27363
0.285972 0.288763 -0.289519
0.196234 0.270376 -0.277548
0.102474 0.252914 -0.257981
-0.0739777 0.214521 -0.243493
0.050426 0.270374 -0.137423
0.0224633 0.270373 -0.110549
0.00248992 0.270373 -0.0913543
-0.0993702 0.270373 0.00654376
-0.133323 0.270373 0.0391768
-0.240371 0.215495 -0.0796341
-0.257743 0.243595 0.050579
-0.257868 0.263471 0.130996
0.270889 0.288105 -0.289496
0.0261292 0.270374 -0.125161
-0.019343 0.270373 -0.0814605
-0.0984219 0.270373 -0.00545686
-0.118191 0.270373 0.0135443
-0.257554 0.215852 -0.0705318
-0.257821 0.258637 0.100812
-0.278326 0.270374 0.167454
-0.289499 0.288084 0.24901
0.184341 0.270376 -0.288074
0.166726 0.270376 -0.271145
0.0815144 0.253021 -0.257948
0.0419775 0.243438 -0.257886
0.000932097 0.233489 -0.257822
-0.093669 0.214521 -0.241986
0.00232083 0.270373 -0.113146
-0.138591 0.270373 0.0222851
-0.25771 0.243347 0.0297843
0.248955 0.288585 -0.289462
-0.0829291 0.215303 -0.257691
0.0119274 0.270373 -0.133027
-0.019076 0.270373 -0.103232
-0.117895 0.270373 -0.0082562
-0.241548 0.215494 -0.104496
-0.278718 0.270374 0.146315
-0.289462 0.287917 0.225397
0.163324 0.270376 -0.288965
0.146056 0.270376 -0.27237
0.0613644 0.253125 -0.257917
0.0187526 0.242588 -0.25785
-0.0204534 0.232894 -0.257789
-0.112584 0.214521 -0.240538
-0.00551611 0.270373 -0.126703
-0.0381325 0.270373 -0.0953574
-0.137896 0.270373 0.000527322
-0.257516 0.216292 -0.0943698
-0.257679 0.243109 0.00984901
0.227807 0.289047 -0.289429
-0.0283189 0.270373 -0.115025
-0.111912 0.270373 -0.0346837
-0.257785 0.263178 0.0778678
-0.279095 0.270374 0.126001
-0.289426 0.287758 0.202731
0.214125 0.288417 -0.289407
0.126185 0.270376 -0.273547
-0.104273 0.216349 -0.257657
-0.127821 0.270373 -0.0294313
-0.241155 0.215494 -0.129354
-0.257649 0.24288 -0.00927907
-0.0409099 0.23457 -0.257757
-0.133696 0.214517 -0.244163
-0.0278903 0.270373 -0.13532
-0.0483892 0.270373 -0.11562
-0.253654 0.188701 -0.226173
-0.149016 0.270373 -0.0189064
-0.277594 0.270374 0.104674
-0.289392 0.287604 0.180957
0.194198 0.288869 -0.289376
0.107068 0.270376 -0.27468
-0.12551 0.270373 -0.0511579
-0.240415 0.215494 -0.145611
-0.257621 0.242661 -0.027648
-0.257743 0.263582 0.050579
-0.0604967 0.233977 -0.257726
-0.134413 0.2148 -0.25761
-0.0475917 0.270373 -0.135524
-0.226181 0.188358 -0.267205
-0.148158 0.270373 -0.0388692
-0.257493 0.22285 -0.109545
0.168684 0.287664 -0.289336
0.138376 0.279726 -0.289289
0.08685 0.270375 -0.274029
0.0419775 0.263011 -0.257886
-0.153619 0.214518 -0.247576
-0.0671309 0.270373 -0.126047
-0.226228 0.198436 -0.236715
-0.25771 0.262912 0.0297843
-0.289349 0.288303 0.153223
0.000932097 0.254608 -0.257822
-0.167605 0.21452 -0.241369
-0.138357 0.270373 -0.066721
-0.241504 0.215492 -0.166814
-0.257586 0.243521 -0.0496089
-0.278348 0.270374 0.0678277
0.115307 0.278777 -0.289253
0.0833771 0.270375 -0.288785
0.0673708 0.270375 -0.273403
-0.289318 0.288146 0.133334
0.104143 0.278317 -0.289236
0.0187526 0.264099 -0.25785
-0.0204534 0.253545 -0.257789
-0.257448 0.223163 -0.138308
-0.257672 0.263305 0.00499332
-0.278705 0.270374 0.0504052
-0.188678 0.214517 -0.242078
-0.0876401 0.270373 -0.141875
-0.241135 0.215496 -0.188205
-0.257547 0.243191 -0.0745982
-0.289288 0.287995 0.11418
0.0567612 0.270375 -0.28914
-0.0409099 0.252527 -0.257757
-0.174392 0.215945 -0.257547
0.0373352 0.270375 -0.278811
-0.0792682 0.244166 -0.257697
-0.117935 0.233475 -0.257636
-0.257416 0.223384 -0.158599
-0.278358 0.270374 0.0245981
-0.25751 0.242879 -0.0982156
-0.257621 0.263362 -0.027648
-0.0604967 0.25375 -0.257726
-0.194361 0.216085 -0.257516
-0.253654 0.208565 -0.226173
-0.289231 0.287708 0.077916
0.0161621 0.270375 -0.282624
-0.100788 0.244512 -0.257663
-0.137632 0.234055 -0.257605
-0.254783 0.215495 -0.207763
-0.257381 0.222672 -0.181002
-0.257593 0.262748 -0.0453022
-0.278029 0.270373 0.000120103
0.0825142 0.289757 -0.289202
-0.00391436 0.270374 -0.271109
-0.213122 0.214518 -0.257278
-0.226181 0.207813 -0.267205
-0.226233 0.217688 -0.234053
-0.289204 0.287573 0.0607352
-0.25747 0.243563 -0.124181
-0.277717 0.270373 -0.0231287
