ply
format ascii 1.0
comment Created by Open3D
element vertex 787
property double x
property double y
property double z
end_header
0.118705 -0.165847 0.330854
0.14251 -0.162304 0.330495
0.0814449 -0.164314 0.331542
0.0533999 -0.164726 0.331579
0.0228443 -0.165329 0.33135
-0.0106578 -0.166163 0.330802
0.142953 -0.142159 0.330617
-0.0566001 -0.164357 0.331725
-0.0423548 -0.162573 0.33108
-0.0919443 -0.164823 0.331769
-0.131465 -0.16561 0.331355
-0.111358 -0.163138 0.331576
-0.136957 -0.153724 0.33019
0.142953 -0.122089 0.330617
0.106453 -0.16596 -0.316943
0.126345 -0.163672 -0.316258
0.0667757 -0.16576 -0.31675
0.0875769 -0.163443 -0.316212
0.0249019 -0.165548 -0.316545
0.0465143 -0.163227 -0.316309
-0.0193547 -0.165324 -0.316329
0.00311816 -0.162999 -0.31641
0.143484 -0.102559 0.442176
0.162208 -0.100677 0.442151
0.166524 -0.101344 0.422021
0.166552 -0.102504 0.400731
-0.0751641 -0.166024 -0.316751
-0.0500861 -0.163462 -0.316019
0.124046 -0.101296 0.442201
0.166577 -0.100335 0.38209
0.166606 -0.10151 0.35987
0.166632 -0.102538 0.340406
-0.125404 -0.165799 -0.316527
-0.107454 -0.164019 -0.315944
0.143841 -0.139605 -0.31738
0.0828618 -0.101964 0.442255
0.103854 -0.0999842 0.442228
0.166658 -0.100299 0.320543
0.166685 -0.101337 0.30027
0.166712 -0.102396 0.279573
0.0382818 -0.102686 0.442313
0.0610218 -0.100612 0.442284
0.166735 -0.0999088 0.261992
0.166763 -0.100973 0.240482
0.166787 -0.101878 0.222204
0.0145842 -0.101293 0.442344
0.166817 -0.099494 0.199834
0.166842 -0.100403 0.180817
0.166867 -0.101329 0.16145
0.166893 -0.102273 0.141722
-0.136106 -0.151023 -0.317999
-0.0359349 -0.102034 0.442411
-0.0101322 -0.0998407 0.442377
0.166919 -0.0996113 0.121623
0.166946 -0.100556 0.101143
0.166974 -0.101519 0.0802705
0.167002 -0.102501 0.0589945
0.143841 -0.121878 -0.31738
-0.091098 -0.102843 0.442483
-0.0628967 -0.100533 0.442446
0.162208 -0.0820907 0.442151
0.167025 -0.0995434 0.0416752
0.167053 -0.100523 0.0196424
0.167077 -0.101321 0.00170159
0.167107 -0.102336 -0.0211287
-0.120626 -0.10129 0.442522
0.124046 -0.0820015 0.442201
0.166524 -0.0795157 0.422021
0.166565 -0.0808232 0.391457
0.166594 -0.0817644 0.369456
0.167131 -0.0992694 -0.0397251
0.167156 -0.100078 -0.0586243
0.167182 -0.1009 -0.077834
0.167214 -0.101946 -0.102294
0.16724 -0.102799 -0.122231
-0.151577 -0.0996625 0.442562
0.0828618 -0.0819052 0.442255
0.103854 -0.0803152 0.442228
0.143484 -0.0773134 0.442176
0.166619 -0.07935 0.350187
0.166645 -0.0801582 0.330525
0.166671 -0.080983 0.310459
0.166698 -0.0818249 0.289975
0.167267 -0.099601 -0.142504
0.167294 -0.100448 -0.163122
0.167321 -0.10131 -0.184093
0.167349 -0.102187 -0.205428
0.0610218 -0.0801489 0.442284
0.166726 -0.0793096 0.269061
0.166749 -0.0800101 0.251294
0.166778 -0.0808672 0.229555
0.166802 -0.0815956 0.21108
0.166827 -0.0823372 0.192269
0.166909 -0.0848037 0.129708
0.167378 -0.0988723 -0.227136
0.167414 -0.0999633 -0.254809
0.167429 -0.100406 -0.26605
0.167467 -0.101532 -0.294594
0.167482 -0.101989 -0.306191
-0.0101322 -0.0816878 0.442377
0.0145842 -0.0799685 0.442344
0.166857 -0.0797028 0.16924
0.166883 -0.080442 0.149657
0.166935 -0.0819623 0.109381
0.167002 -0.0838642 0.0589945
0.167513 -0.0985366 -0.329702
0.167536 -0.0992128 -0.347617
0.167568 -0.100129 -0.371891
0.167593 -0.100827 -0.390393
0.167625 -0.101774 -0.415466
0.167659 -0.102738 -0.441016
-0.0628967 -0.0815645 0.442446
-0.0359349 -0.0797723 0.442411
0.0382818 -0.0748392 0.442313
0.166963 -0.0790667 0.0886672
0.167025 -0.0807617 0.0416752
0.167053 -0.0815564 0.0196424
0.167077 -0.0822035 0.00170159
-0.120626 -0.0814295 0.442522
0.143484 -0.0646909 0.442176
0.166552 -0.0646566 0.400731
0.167107 -0.0791653 -0.0211287
0.167131 -0.0798048 -0.0397251
0.167156 -0.0804548 -0.0586243
0.167182 -0.0811155 -0.077834
0.167214 -0.0819567 -0.102294
-0.151577 -0.0793233 0.442562
-0.091098 -0.0756772 0.442483
0.162208 -0.0604064 0.442151
0.166524 -0.0608061 0.422021
0.166577 -0.0621124 0.38209
0.167253 -0.0789413 -0.132325
0.16728 -0.0796101 -0.152769
0.167307 -0.0802903 -0.173563
0.167335 -0.0809823 -0.194715
0.167349 -0.0813328 -0.205428
0.167378 -0.082043 -0.227136
0.0828618 -0.0618468 0.442255
0.103854 -0.0606462 0.442228
0.124046 -0.0594913 0.442201
0.166606 -0.0596168 0.35987
0.166645 -0.0605276 0.330525
0.166671 -0.0611504 0.310459
0.166698 -0.0617862 0.289975
0.166726 -0.0624353 0.269061
0.167414 -0.0786945 -0.254809
0.167429 -0.0790434 -0.26605
0.167467 -0.0799293 -0.294594
0.167482 -0.0802893 -0.306191
0.167513 -0.081019 -0.329702
0.167536 -0.081575 -0.347617
0.167568 -0.0823284 -0.371891
0.167659 -0.0844738 -0.441016
0.0145842 -0.0621977 0.442344
0.0610218 -0.0596853 0.442284
0.166749 -0.059582 0.251294
0.166778 -0.0602202 0.229555
0.166802 -0.0607626 0.21108
0.166827 -0.0613149 0.192269
0.166857 -0.061991 0.16924
0.167593 -0.0784214 -0.390393
0.167625 -0.0791575 -0.415466
-0.091098 -0.0640346 0.442483
-0.0359349 -0.0612206 0.442411
-0.0101322 -0.0599044 0.442377
0.166883 -0.0589908 0.149657
0.166919 -0.0597668 0.121623
0.166946 -0.0603337 0.101143
0.166974 -0.0609115 0.0802705
0.167013 -0.0617392 0.0503684
0.167042 -0.0623444 0.0285074
0.167119 -0.0639747 -0.0303895
-0.120626 -0.0615687 0.442522
-0.0628967 -0.0588023 0.442446
0.167065 -0.0590288 0.0107076
0.167095 -0.0596178 -0.0119419
0.167144 -0.060585 -0.0491362
0.167169 -0.0610804 -0.0681898
0.167195 -0.0615841 -0.0875574
0.167227 -0.0622254 -0.112221
0.167364 -0.0649302 -0.216235
-0.151577 -0.0589839 0.442562
0.167253 -0.0586999 -0.132325
0.16728 -0.0591972 -0.152769
0.167307 -0.0597031 -0.173563
0.167335 -0.0602176 -0.194715
0.1674 -0.0614084 -0.243667
0.167429 -0.0619529 -0.26605
0.0382818 -0.0469921 0.442313
0.162208 -0.0418198 0.442151
0.166524 -0.0420965 0.422021
0.167467 -0.0583268 -0.294594
0.167482 -0.0585894 -0.306191
0.167513 -0.0591219 -0.329702
0.167536 -0.0595277 -0.347617
0.167568 -0.0600775 -0.371891
0.167593 -0.0604965 -0.390393
0.167625 -0.0610644 -0.415466
0.0828618 -0.0417884 0.442255
0.103854 -0.0409771 0.442228
0.124046 -0.0401968 0.442201
0.166565 -0.0396192 0.391457
0.166594 -0.0400806 0.369456
0.166619 -0.0404847 0.350187
0.166645 -0.040897 0.330525
0.166671 -0.0413178 0.310459
0.166698 -0.0417474 0.289975
0.166726 -0.042186 0.269061
0.167659 -0.0570769 -0.441016
-0.091098 -0.0446302 0.442483
-0.0101322 -0.0417516 0.442377
0.0145842 -0.0408728 0.442344
0.0610218 -0.0392218 0.442284
0.143484 -0.03629 0.442176
0.166749 -0.0391539 0.251294
0.166778 -0.0395733 0.229555
0.166802 -0.0399297 0.21108
0.166827 -0.0402927 0.192269
0.166857 -0.040737 0.16924
0.166883 -0.0411148 0.149657
0.166919 -0.0416557 0.121623
0.166946 -0.0420508 0.101143
0.166974 -0.0424535 0.0802705
0.167119 -0.0445885 -0.0303895
-0.120626 -0.0417078 0.442522
-0.0628967 -0.0398338 0.442446
-0.0359349 -0.0389586 0.442411
0.167013 -0.0392886 0.0503684
0.167042 -0.0396737 0.0285074
0.167065 -0.0399873 0.0107076
0.167095 -0.0403862 -0.0119419
0.167144 -0.0410414 -0.0491362
0.167169 -0.0413771 -0.0681898
0.167195 -0.0417182 -0.0875574
0.167227 -0.0421527 -0.112221
0.167364 -0.043985 -0.216235
-0.151577 -0.0386447 0.442562
0.167253 -0.0384586 -0.132325
0.16728 -0.0387844 -0.152769
0.167307 -0.0391158 -0.173563
0.167335 -0.0394529 -0.194715
0.1674 -0.0402331 -0.243667
0.167429 -0.0405899 -0.26605
0.167467 -0.0410448 -0.294594
0.167482 -0.0412296 -0.306191
0.167513 -0.0416043 -0.329702
0.167536 -0.0418899 -0.347617
0.167568 -0.0422767 -0.371891
0.167659 -0.0433784 -0.441016
0.167593 -0.0380904 -0.390393
0.167625 -0.0384479 -0.415466
0.0382818 -0.0261067 0.442313
0.166632 -0.0244139 0.340406
0.0610218 -0.0221688 0.442284
0.0828618 -0.02173 0.442255
0.103854 -0.0213081 0.442228
0.124046 -0.0209023 0.442201
0.162208 -0.0201355 0.442151
0.166524 -0.0202687 0.422021
0.166565 -0.020602 0.391457
0.166594 -0.0208419 0.369456
0.166658 -0.0213753 0.320543
0.166685 -0.0215964 0.30027
0.166712 -0.0218221 0.279573
0.166735 -0.0220138 0.261992
0.166763 -0.0222484 0.240482
0.166787 -0.0224477 0.222204
0.167002 -0.0242274 0.0589945
-0.151577 -0.0223732 0.442562
-0.120626 -0.0218469 0.442522
-0.0628967 -0.0208653 0.442446
-0.0359349 -0.0204069 0.442411
-0.0101322 -0.0199681 0.442377
0.0145842 -0.0195479 0.442344
0.143484 -0.0173561 0.442176
0.166817 -0.0192006 0.199834
0.166842 -0.0193761 0.180817
0.166867 -0.0195548 0.16145
0.166893 -0.0197368 0.141722
0.166919 -0.0199223 0.121623
0.166946 -0.0201112 0.101143
0.166974 -0.0203038 0.0802705
0.167025 -0.02066 0.0416752
0.167053 -0.0208633 0.0196424
0.167077 -0.0210288 0.00170159
0.167107 -0.0212395 -0.0211287
0.167131 -0.021411 -0.0397251
0.167156 -0.0215854 -0.0586243
0.167182 -0.0217627 -0.077834
0.167214 -0.0219884 -0.102294
0.167253 -0.0222655 -0.132325
0.16728 -0.0224541 -0.152769
-0.091098 -0.017464 0.442483
0.167307 -0.0185285 -0.173563
0.167335 -0.0186882 -0.194715
0.167349 -0.0187691 -0.205428
0.167378 -0.018933 -0.227136
0.167414 -0.0191419 -0.254809
0.167429 -0.0192268 -0.26605
0.167467 -0.0194423 -0.294594
0.167482 -0.0195298 -0.306191
0.167513 -0.0197073 -0.329702
0.167536 -0.0198426 -0.347617
0.167568 -0.0200258 -0.371891
0.167593 -0.0201655 -0.390393
0.167625 -0.0203548 -0.415466
0.167659 -0.0159815 -0.441016
0.0382818 -0.00522135 0.442313
0.143484 -0.00473348 0.442176
0.166552 -0.00473098 0.400731
0.166632 -0.00488279 0.340406
-0.151577 -0.00203394 0.442562
-0.120626 -0.0019861 0.442522
-0.0628967 -0.00189686 0.442446
-0.0359349 -0.00185518 0.442411
-0.0101322 -0.0018153 0.442377
0.0145842 -0.00177709 0.442344
0.0610218 -0.00170531 0.442284
0.0828618 -0.00167155 0.442255
0.103854 -0.0016391 0.442228
0.124046 -0.00160788 0.442201
0.162208 -0.00154889 0.442151
0.166524 -0.00155914 0.422021
0.166577 -0.00159264 0.38209
0.166606 -0.00161128 0.35987
0.166658 -0.00164426 0.320543
0.166685 -0.00166127 0.30027
0.166712 -0.00167863 0.279573
0.166735 -0.00169338 0.261992
0.166763 -0.00171142 0.240482
0.166787 -0.00172676 0.222204
0.166817 -0.00174552 0.199834
0.166842 -0.00176147 0.180817
0.166867 -0.00177772 0.16145
0.166893 -0.00179427 0.141722
0.166919 -0.00181113 0.121623
0.166946 -0.00182831 0.101143
0.166974 -0.00184581 0.0802705
0.167013 -0.0018709 0.0503684
0.167042 -0.00188924 0.0285074
0.167065 -0.00190417 0.0107076
0.167095 -0.00192317 -0.0119419
0.167131 -0.00194647 -0.0397251
0.167156 -0.00196233 -0.0586243
0.167182 -0.00197844 -0.077834
0.167214 -0.00199896 -0.102294
0.167253 -0.00202415 -0.132325
0.16728 -0.0020413 -0.152769
0.167307 -0.00205874 -0.173563
0.167335 -0.00207648 -0.194715
0.167349 -0.00208547 -0.205428
0.167378 -0.00210368 -0.227136
0.167414 -0.00212689 -0.254809
0.167429 -0.00213632 -0.26605
0.167467 -0.00216027 -0.294594
0.167482 -0.00216999 -0.306191
0.167513 -0.00218972 -0.329702
0.167536 -0.00220474 -0.347617
0.167568 -0.0022251 -0.371891
0.167593 -0.00224062 -0.390393
0.167625 -0.00226166 -0.415466
-0.091098 0.00582131 0.442483
0.0382818 0.00522132 0.442313
0.167659 0.0068492 -0.441016
-0.151577 0.0183054 0.442562
-0.120626 0.0178748 0.442522
0.167131 0.0175181 -0.0397251
0.167156 0.0176608 -0.0586243
0.167182 0.0178058 -0.077834
0.167214 0.0179905 -0.102294
0.167253 0.0182172 -0.132325
0.16728 0.0183716 -0.152769
0.167307 0.0185285 -0.173563
0.167335 0.0186882 -0.194715
0.167349 0.0187691 -0.205428
0.167378 0.018933 -0.227136
0.167414 0.0191419 -0.254809
0.167429 0.0192268 -0.26605
0.167467 0.0194423 -0.294594
0.167482 0.0195298 -0.306191
0.167513 0.0197073 -0.329702
0.167536 0.0198426 -0.347617
0.167568 0.0200258 -0.371891
0.167593 0.0201655 -0.390393
0.167625 0.0203548 -0.415466
-0.0628967 0.0208654 0.442446
-0.0359349 0.0204069 0.442411
-0.0101322 0.0199682 0.442377
0.0145842 0.0195479 0.442344
0.0610218 0.0187583 0.442284
0.0828618 0.0183869 0.442255
0.103854 0.01803 0.442228
0.124046 0.0176866 0.442201
0.166577 0.0175189 0.38209
0.166606 0.0177239 0.35987
0.166645 0.0179947 0.330525
0.166671 0.0181799 0.310459
0.166698 0.0183689 0.289975
0.166726 0.0185619 0.269061
0.166749 0.0187258 0.251294
0.166778 0.0189264 0.229555
0.166802 0.0190969 0.21108
0.166827 0.0192704 0.192269
0.166857 0.0194829 0.16924
0.166883 0.0196636 0.149657
0.166919 0.0199223 0.121623
0.166946 0.0201113 0.101143
0.166974 0.0203039 0.0802705
0.167013 0.0205798 0.0503684
0.167042 0.0207815 0.0285074
0.167065 0.0209457 0.0107076
0.167095 0.0211547 -0.0119419
0.167659 0.0251139 -0.441016
-0.091098 0.0252257 0.442483
0.162208 0.0201355 0.442151
0.166524 0.0202687 0.422021
0.143484 0.0236674 0.442176
0.166552 0.0236549 0.400731
0.167364 0.0356069 -0.216235
0.167544 0.0375663 -0.353644
0.16756 0.0377394 -0.365781
0.167593 0.0380904 -0.390393
0.167625 0.0384479 -0.415466
-0.151577 0.0386447 0.442562
-0.120626 0.0377356 0.442522
0.0382818 0.0330685 0.442313
0.166996 0.035341 0.0632825
0.167175 0.0375131 -0.0730019
0.167207 0.0379013 -0.0973617
0.167253 0.0384586 -0.132325
0.16728 0.0387844 -0.152769
0.167307 0.0391158 -0.173563
0.167335 0.0394529 -0.194715
0.1674 0.0402331 -0.243667
0.167429 0.0405899 -0.26605
0.167467 0.0410448 -0.294594
0.167482 0.0412296 -0.306191
0.167513 0.0416043 -0.329702
-0.0628967 0.0398338 0.442446
-0.0359349 0.0389586 0.442411
-0.0101322 0.038121 0.442377
0.166883 0.0375396 0.149657
0.166919 0.0380334 0.121623
0.166946 0.0383942 0.101143
0.166974 0.0387618 0.0802705
0.16703 0.0395187 0.037303
0.167048 0.0397516 0.0240836
0.167083 0.0402257 -0.00282818
0.167101 0.040467 -0.0165262
0.167131 0.0408756 -0.0397251
0.0145842 0.0408728 0.442344
0.0610218 0.0392218 0.442284
0.0828618 0.0384453 0.442255
0.103854 0.037699 0.442228
0.166645 0.0376253 0.330525
0.166671 0.0380124 0.310459
0.166698 0.0384076 0.289975
0.166726 0.0388111 0.269061
0.166749 0.0391539 0.251294
0.166778 0.0395733 0.229555
0.166802 0.0399298 0.21108
0.166827 0.0402927 0.192269
0.166857 0.040737 0.16924
0.167659 0.0525107 -0.441016
0.124046 0.0401968 0.442201
0.162208 0.038722 0.442151
0.166524 0.0389783 0.422021
0.166565 0.0396192 0.391457
0.166594 0.0400806 0.369456
0.166619 0.0404847 0.350187
0.143484 0.0426013 0.442176
0.167364 0.0565521 -0.216235
0.167422 0.0575527 -0.260417
0.167452 0.0580665 -0.2831
0.167482 0.0585894 -0.306191
0.167513 0.0591219 -0.329702
0.167536 0.0595277 -0.347617
0.167568 0.0600775 -0.371891
0.167593 0.0604965 -0.390393
0.167625 0.0610644 -0.415466
-0.151577 0.058984 0.442562
-0.120626 0.0575965 0.442522
-0.091098 0.0562728 0.442483
0.167113 0.0561074 -0.0257499
0.167195 0.0576109 -0.0875574
0.167247 0.0585769 -0.127267
0.16728 0.0591973 -0.152769
0.167307 0.0597031 -0.173563
0.167335 0.0602176 -0.194715
0.1674 0.0614085 -0.243667
0.167659 0.0662092 -0.441016
-0.0628967 0.0588023 0.442446
-0.0359349 0.0575103 0.442411
0.0382818 0.0539538 0.442313
0.166909 0.0559343 0.129708
0.167002 0.0577732 0.0589944
0.167024 0.0582235 0.0416751
0.167053 0.0587965 0.0196424
0.167077 0.059263 0.00170159
0.16715 0.0607081 -0.0538707
0.167175 0.0612056 -0.0730019
-0.0101322 0.0599044 0.442377
0.0145842 0.0586436 0.442344
0.166817 0.0576018 0.199834
0.166842 0.0581282 0.180817
0.166867 0.0586643 0.16145
0.166935 0.0601057 0.109381
0.166963 0.0606791 0.0886672
0.167227 0.06624 -0.112221
0.0610218 0.0596853 0.442284
0.0828618 0.0585037 0.442255
0.143484 0.0552239 0.442176
0.166552 0.0551946 0.400731
0.166658 0.0575489 0.320543
0.166685 0.0581441 0.30027
0.166712 0.0587518 0.279573
0.166735 0.0592679 0.261992
0.166763 0.0598994 0.240482
0.166787 0.060436 0.222204
0.167552 0.0775202 -0.359699
0.167576 0.0780584 -0.37803
0.167609 0.0787877 -0.402871
0.167625 0.0791575 -0.415466
0.103854 0.0606462 0.442228
0.124046 0.0594913 0.442201
0.166517 0.0575018 0.428016
0.166577 0.0589272 0.38209
0.166606 0.0596168 0.35987
0.167371 0.0776661 -0.221673
0.1674 0.0783487 -0.243667
0.167429 0.0790434 -0.26605
0.167467 0.0799293 -0.294594
0.167482 0.0802893 -0.306191
0.167513 0.081019 -0.329702
-0.151577 0.0793232 0.442562
-0.091098 0.0756772 0.442483
0.166632 0.0634761 0.340406
0.167107 0.0753035 -0.0211287
0.167201 0.0776367 -0.0924494
0.167253 0.0789412 -0.132325
0.16728 0.0796101 -0.152769
0.167307 0.0802903 -0.173563
0.167335 0.0809823 -0.194715
-0.120626 0.0814295 0.442522
-0.0628967 0.0777708 0.442446
0.166979 0.0758232 0.0760478
0.167048 0.0776103 0.0240836
0.167083 0.0785359 -0.00282818
0.167131 0.0798048 -0.0397251
0.167156 0.0804548 -0.0586243
0.167659 0.0936061 -0.441016
-0.0359347 0.0797723 0.442411
-0.0101322 0.0780572 0.442377
0.0382818 0.0748392 0.442313
0.166914 0.0777318 0.125673
0.16693 0.0781717 0.113477
0.166996 0.0799823 0.0632825
0.16703 0.0809193 0.037303
0.167227 0.0863126 -0.112221
0.0145842 0.0799685 0.442344
0.166782 0.0775645 0.225886
0.166797 0.0779829 0.214801
0.166837 0.0791211 0.184648
0.166877 0.080293 0.153602
0.167482 0.0976491 -0.306191
0.167513 0.0985366 -0.329702
0.167536 0.0992128 -0.347617
0.167568 0.100129 -0.371891
0.167593 0.100827 -0.390393
0.167625 0.101774 -0.415466
0.0610218 0.0801489 0.442284
0.0828618 0.0785622 0.442255
0.166667 0.0775446 0.313832
0.166703 0.0786214 0.28652
0.16673 0.0794488 0.265532
0.166744 0.0798691 0.254872
0.167356 0.098229 -0.21082
0.167385 0.0990886 -0.232622
0.167414 0.0999633 -0.254809
0.167429 0.100406 -0.26605
0.167467 0.101532 -0.294594
-0.151577 0.0996625 0.442562
-0.091098 0.0950816 0.442483
0.0382818 0.0852819 0.442313
0.103854 0.0803152 0.442228
0.124046 0.0787857 0.442201
0.166565 0.0776537 0.391457
0.166594 0.078558 0.369456
0.166619 0.07935 0.350187
0.166645 0.0801582 0.330525
0.167201 0.0975436 -0.0924494
0.167253 0.0991826 -0.132325
0.16728 0.100023 -0.152769
0.167307 0.100878 -0.173563
-0.120626 0.10129 0.442522
0.162208 0.078993 0.442151
0.166524 0.0795157 0.422021
0.167107 0.0984739 -0.0211287
0.167131 0.0992694 -0.0397251
0.167156 0.100078 -0.0586243
0.167335 0.1059 -0.194715
0.167659 0.116437 -0.441016
-0.0628967 0.100533 0.442446
-0.0359347 0.098324 0.442411
0.143484 0.0836247 0.442176
0.166893 0.0950955 0.141722
0.166968 0.0976405 0.0844769
0.166996 0.0985828 0.0632825
0.16703 0.0997378 0.037303
0.167048 0.100326 0.0240836
0.167227 0.106385 -0.112221
0.16756 0.117658 -0.365781
0.167593 0.118752 -0.390393
0.167625 0.119867 -0.415466
-0.0101322 0.0998407 0.442377
0.0145842 0.0977393 0.442344
0.166862 0.0975939 0.165352
0.166919 0.0996113 0.121623
0.166946 0.100556 0.101143
0.167083 0.105353 -0.00282818
0.167436 0.117758 -0.271708
0.167467 0.118814 -0.294594
0.167482 0.119349 -0.306191
0.167513 0.120434 -0.329702
0.167536 0.12126 -0.347617
0.166763 0.0975505 0.240482
0.166787 0.0984244 0.222204
0.166817 0.099494 0.199834
0.167349 0.118871 -0.205428
0.167378 0.119909 -0.227136
0.167414 0.121232 -0.254809
-0.151577 0.120002 0.442562
0.0610218 0.100612 0.442284
0.0828618 0.0986206 0.442255
0.166671 0.0975101 0.310459
0.166698 0.0985239 0.289975
0.166726 0.0995589 0.269061
0.167247 0.119174 -0.127267
0.16728 0.120436 -0.152769
-0.120626 0.121151 0.442522
0.103854 0.0999842 0.442228
0.124046 0.0980802 0.442201
0.16659 0.0976342 0.372631
0.166645 0.0997887 0.330525
0.167101 0.117547 -0.0165262
0.167125 0.118495 -0.0350479
0.167163 0.119945 -0.0633973
0.167188 0.120932 -0.0826856
0.167617 0.137637 -0.409154
0.167642 0.138611 -0.428181
-0.0628967 0.119501 0.442446
0.162208 0.0975795 0.442151
0.166524 0.0982253 0.422021
0.166565 0.0998405 0.391457
0.167007 0.117637 0.0546897
0.167048 0.119255 0.0240836
0.16722 0.126195 -0.107247
0.167307 0.1297 -0.173563
0.167505 0.137638 -0.323784
0.167521 0.138265 -0.335647
0.167552 0.139536 -0.359699
0.167576 0.140505 -0.37803
-0.091098 0.126129 0.442483
-0.0359347 0.120586 0.442411
-0.0101322 0.117994 0.442377
0.0382818 0.113129 0.442313
0.143484 0.102559 0.442176
0.166914 0.117502 0.125673
0.16693 0.118167 0.113477
0.166968 0.119748 0.0844769
0.167335 0.134971 -0.194715
0.1674 0.13764 -0.243667
0.167429 0.13886 -0.26605
0.167467 0.140416 -0.294594
0.0145842 0.119064 0.442344
0.166832 0.117588 0.188466
0.166857 0.118669 0.16924
0.167349 0.139726 -0.205428
-0.151577 0.140341 0.442562
0.0610218 0.117665 0.442284
0.166754 0.11767 0.247703
0.166778 0.11872 0.229555
0.166802 0.119789 0.21108
0.166883 0.123344 0.149657
0.167253 0.139665 -0.132325
0.16728 0.140849 -0.152769
-0.120626 0.141012 0.442522
0.0828618 0.118679 0.442255
0.166623 0.11517 0.346938
0.166676 0.117544 0.307074
0.166703 0.118768 0.28652
0.16673 0.120018 0.265532
0.167071 0.135463 0.00621355
0.167119 0.137643 -0.0303895
0.167144 0.138759 -0.0491363
0.167169 0.139894 -0.0681899
0.167195 0.141047 -0.0875574
0.16756 0.157618 -0.365781
0.167592 0.159083 -0.390393
0.167625 0.160577 -0.415466
-0.0628967 0.13847 0.442446
0.103854 0.119653 0.442228
0.143484 0.115181 0.442176
0.166552 0.11512 0.400731
0.166649 0.119622 0.327209
0.167036 0.137644 0.0329137
0.167307 0.150287 -0.173563
0.167467 0.157698 -0.294594
0.167482 0.158409 -0.306191
0.167513 0.159848 -0.329702
0.167536 0.160945 -0.347618
-0.091098 0.145533 0.442483
-0.0359347 0.139138 0.442411
0.124046 0.12059 0.442201
0.166577 0.119447 0.38209
0.166957 0.137644 0.0928416
0.166985 0.138968 0.0718091
0.167013 0.140316 0.0503684
0.167227 0.150545 -0.112221
0.167378 0.157775 -0.227136
0.167414 0.159516 -0.254809
0.167429 0.160223 -0.26605
-0.0101322 0.139777 0.442377
0.0382818 0.134014 0.442313
0.162208 0.119264 0.442151
0.166888 0.137901 0.145697
0.166904 0.138674 0.133727
0.16693 0.139982 0.113477
0.167335 0.159888 -0.194715
0.167349 0.16058 -0.205428
-0.151577 0.16068 0.442562
0.0145842 0.140389 0.442344
0.166812 0.137646 0.203596
0.166837 0.138902 0.184648
0.167253 0.159907 -0.132325
-0.120626 0.160873 0.442522
0.0610218 0.138129 0.442284
0.166744 0.137647 0.254872
0.166782 0.139616 0.225886
0.167083 0.155156 -0.00282818
0.167131 0.157663 -0.0397251
0.167156 0.158947 -0.0586243
0.167182 0.160253 -0.077834
0.0828618 0.138737 0.442255
0.166524 0.129408 0.422021
0.16668 0.137647 0.303678
0.166716 0.139569 0.276081
0.167059 0.157733 0.0151838
0.167101 0.159941 -0.0165262
0.167214 0.165912 -0.102294
-0.0628967 0.161232 0.442446
-0.0359347 0.157689 0.442411
0.103854 0.139322 0.442228
0.166623 0.13788 0.346938
0.166649 0.139286 0.327209
0.166991 0.1578 0.0675541
0.167013 0.159025 0.0503684
-0.0101322 0.15793 0.442377
0.124046 0.139885 0.442201
0.166561 0.137649 0.394558
0.166598 0.139713 0.366272
0.166919 0.157567 0.121623
0.166946 0.159062 0.101143
0.0145842 0.15816 0.442344
0.0382818 0.1549 0.442313
0.162208 0.13785 0.442151
0.166857 0.157634 0.16924
0.166883 0.159096 0.149657
0.143484 0.143582 0.442176
0.166797 0.157699 0.214801
0.0610218 0.158592 0.442284
0.16674 0.157761 0.258438
0.166763 0.159161 0.240482
0.0382818 0.165342 0.442313
0.0828618 0.158796 0.442255
0.166524 0.148117 0.422021
0.16668 0.157548 0.303678
0.166716 0.159747 0.276081
0.103854 0.158991 0.442228
0.166628 0.15761 0.343677
0.166662 0.159765 0.317193
0.124046 0.159179 0.442201
0.166577 0.15767 0.38209
0.166552 0.159276 0.400731
0.166606 0.162738 0.35987
0.143484 0.162516 0.442176
0.162208 0.159535 0.442151
