ply
format ascii 1.0
comment Created by Open3D
element vertex 1197
property double x
property double y
property double z
end_header
-0.199063 -0.327074 0.162875
-0.198304 -0.322524 0.175593
-0.189935 -0.316265 0.197077
-0.169918 -0.320083 0.197636
0.182256 -0.381695 0.213775
0.199446 -0.381755 0.214097
0.18224 -0.381724 0.18664
-0.186439 -0.301571 0.195603
-0.196775 -0.310377 0.157043
-0.174844 -0.301115 0.195584
0.171114 -0.36246 0.207454
0.188444 -0.362478 0.207486
-0.195571 -0.296184 0.183076
0.170513 -0.361928 0.189833
0.171547 -0.364005 0.174593
-0.195439 -0.292413 0.153639
-0.186084 -0.280648 0.194776
0.161343 -0.340718 0.199655
-0.16569 -0.281559 0.194817
0.180988 -0.340285 0.201689
0.19859 -0.340098 0.201673
-0.195117 -0.277425 0.174857
0.161659 -0.341677 0.166248
-0.214562 -0.382073 -0.189729
-0.194249 -0.378654 -0.179928
0.15579 -0.321398 0.196447
-0.213866 -0.38012 -0.207894
-0.186082 -0.262029 0.19477
0.156381 -0.324197 0.176983
0.175628 -0.32092 0.198207
-0.165682 -0.260012 0.194798
0.155803 -0.321673 0.163072
-0.207034 -0.359854 -0.174768
-0.18543 -0.361983 -0.170228
-0.20812 -0.363336 -0.200159
-0.174215 -0.359622 -0.169017
-0.195148 -0.262188 0.152895
-0.195127 -0.255147 0.167657
0.152293 -0.301704 0.195629
0.152553 -0.304001 0.176466
0.169037 -0.30097 0.196025
0.190821 -0.30106 0.19606
-0.195771 -0.338713 -0.160427
-0.18421 -0.340646 -0.161045
-0.186082 -0.240747 0.19477
-0.165682 -0.241151 0.194798
-0.201917 -0.339613 -0.194397
0.1517 -0.297187 0.152875
-0.16196 -0.33185 -0.158167
-0.195137 -0.240754 0.160337
0.15264 -0.282497 0.19525
-0.19707 -0.32229 -0.155706
0.151001 -0.284879 0.173393
0.16546 -0.281136 0.195245
0.181994 -0.382109 -0.189813
0.198015 -0.382295 -0.181804
0.181985 -0.382128 -0.206986
-0.198041 -0.317266 -0.180058
-0.186082 -0.222126 0.19477
-0.175034 -0.309801 -0.153183
-0.165682 -0.22229 0.194798
0.170156 -0.362159 -0.170615
0.150829 -0.27666 0.153887
0.191594 -0.271758 0.195264
0.170038 -0.36196 -0.187303
0.189686 -0.359967 -0.168711
-0.196326 -0.300708 -0.158409
-0.155992 -0.304665 -0.152362
-0.195137 -0.221494 0.160337
0.150874 -0.261501 0.18785
0.169778 -0.262221 0.195237
-0.144928 -0.218422 0.188943
-0.117189 -0.219274 0.189207
0.161349 -0.341978 -0.164611
0.150842 -0.260837 0.163812
-0.196076 -0.296484 -0.187394
-0.175685 -0.290414 -0.150988
-0.0948792 -0.219376 0.189264
0.161164 -0.341565 -0.181159
0.17896 -0.338805 -0.159968
0.200407 -0.341847 -0.160994
-0.189275 -0.218379 0.130179
0.160974 -0.341142 -0.198098
0.191594 -0.251993 0.195264
-0.189484 -0.219083 0.11483
-0.186082 -0.200844 0.19477
-0.0650048 -0.217608 0.188839
-0.195607 -0.282191 -0.174923
-0.164292 -0.280508 -0.150588
-0.165682 -0.200734 0.194798
-0.044633 -0.217289 0.188797
0.150874 -0.24201 0.18785
-0.189478 -0.218941 0.0899336
-0.195137 -0.202233 0.160337
-0.144549 -0.202162 0.188159
-0.0168348 -0.217777 0.18894
0.169778 -0.23942 0.195237
-0.194721 -0.269273 -0.150621
0.00470632 -0.217451 0.188897
0.0154296 -0.218686 0.189222
0.150842 -0.240901 0.163812
-0.195598 -0.273983 -0.18918
-0.189472 -0.218791 0.0636794
-0.116883 -0.199887 0.188622
0.0451634 -0.219207 0.1894
-0.188574 -0.201728 0.128374
-0.0945585 -0.199725 0.188686
-0.0746545 -0.202181 0.188247
0.191594 -0.232229 0.195264
-0.164294 -0.26168 -0.150581
-0.189466 -0.218633 0.0359531
-0.188491 -0.20235 0.11222
-0.133755 -0.197219 0.16585
-0.0546013 -0.201633 0.188364
-0.0267653 -0.204973 0.187969
0.0726232 -0.216422 0.188765
0.0958579 -0.219 0.189412
-0.1897 -0.219414 0.017293
-0.186082 -0.182223 0.19477
-0.110938 -0.197219 0.164866
0.116268 -0.218238 0.189238
0.15088 -0.221529 0.192529
-0.194721 -0.250703 -0.150621
-0.188643 -0.201636 0.0876685
-0.165682 -0.181873 0.194798
-0.123336 -0.197223 0.144315
-0.0900097 -0.197219 0.162458
-0.0720609 -0.19722 0.172218
-0.00582787 -0.201346 0.188475
0.169778 -0.219875 0.195237
-0.195598 -0.254823 -0.18918
-0.1897 -0.219266 -0.013131
-0.188557 -0.202283 0.0700464
-0.102279 -0.197223 0.141564
-0.0502329 -0.19722 0.169884
0.0158679 -0.200763 0.188607
-0.195148 -0.181728 0.152895
-0.195117 -0.177282 0.174857
-0.11229 -0.197223 0.121486
-0.0805799 -0.197223 0.138729
-0.0611707 -0.197648 0.147185
-0.0250958 -0.19722 0.168917
0.0457721 -0.201042 0.188594
-0.1897 -0.21911 -0.0453972
-0.188719 -0.201535 0.0432197
-0.17091 -0.197223 0.0745154
-0.0850424 -0.197223 0.121214
-0.0365828 -0.197292 0.147217
-0.00722939 -0.19722 0.163541
0.0846892 -0.202225 0.188448
0.104939 -0.204475 0.188184
-0.164294 -0.239089 -0.150581
-0.18863 -0.202211 0.0239204
-0.100548 -0.197222 0.0972188
-0.0705654 -0.197222 0.113522
-0.0514854 -0.197223 0.123897
-0.0324054 -0.197223 0.134272
0.00847411 -0.197221 0.156514
0.0275537 -0.197221 0.166889
0.13368 -0.204365 0.188234
-0.194721 -0.232132 -0.150621
-0.189701 -0.218944 -0.0796778
-0.171932 -0.197223 0.0423292
-0.0943959 -0.197221 0.084503
-0.00577739 -0.197223 0.13269
0.013608 -0.197223 0.143231
0.0260265 -0.197742 0.1473
0.0551423 -0.197221 0.165827
0.14605 -0.202396 0.188499
-0.188307 -0.205752 -0.0279919
-0.0711572 -0.197221 0.0805551
-0.0514567 -0.197222 0.0912674
-0.0317563 -0.197222 0.10198
-0.0120558 -0.197222 0.112692
0.00764474 -0.197222 0.123404
0.0498604 -0.197223 0.146359
0.0779993 -0.197221 0.161669
0.0977003 -0.197222 0.172381
0.165472 -0.199886 0.195232
-0.195577 -0.229186 -0.175035
-0.189701 -0.218767 -0.116168
-0.18912 -0.199875 -0.0149097
-0.17016 -0.197223 0.00956994
-0.150133 -0.197224 0.0204558
-0.186082 -0.160941 0.19477
-0.081481 -0.19722 0.0578106
-0.0500113 -0.197221 0.0749215
0.0300932 -0.197222 0.118479
0.0501194 -0.197222 0.129368
0.0701458 -0.197223 0.140258
0.1245 -0.197222 0.169819
-0.188431 -0.211531 -0.0958112
-0.170686 -0.197223 -0.00842321
-0.15032 -0.197224 0.00264257
-0.165682 -0.160318 0.194798
-0.0746981 -0.19722 0.0437916
-0.0252457 -0.197221 0.0706802
-0.00488308 -0.197221 0.0817524
0.0242065 -0.197221 0.0975701
0.0532962 -0.197222 0.113388
0.073659 -0.197222 0.12446
0.0852949 -0.197222 0.130787
0.114385 -0.197223 0.146605
0.143473 -0.197222 0.162425
-0.18889 -0.201304 -0.0591928
-0.171229 -0.197222 -0.0270312
-0.150514 -0.197224 -0.0157797
-0.195148 -0.162307 0.152895
-0.0499309 -0.19722 0.0389451
-0.0321788 -0.19722 0.0485974
-0.0114682 -0.19722 0.0598589
0.0181185 -0.197221 0.0759467
0.0388292 -0.197221 0.0872083
0.0684162 -0.197221 0.103296
0.0891272 -0.197222 0.114558
0.109838 -0.197222 0.125819
0.12759 -0.197222 0.135472
0.150015 -0.197756 0.144718
-0.188798 -0.202044 -0.0826476
-0.171791 -0.197221 -0.0462864
-0.129657 -0.197217 -0.0233504
-0.195127 -0.156909 0.167657
-0.0604243 -0.197219 0.0142907
-0.0423634 -0.197219 0.0241104
-0.012262 -0.19722 0.0404773
0.00880882 -0.19722 0.0519345
0.0298795 -0.19722 0.063392
0.0479404 -0.197221 0.0732126
0.0690114 -0.197221 0.0846699
0.108143 -0.197221 0.105948
0.129214 -0.197222 0.117405
0.191594 -0.189407 0.195264
-0.195557 -0.211619 -0.161208
-0.172373 -0.197221 -0.066223
-0.150923 -0.197225 -0.0545806
-0.129494 -0.197216 -0.0428808
-0.0161474 -0.197219 0.0187442
0.00529626 -0.197219 0.0304041
0.0451203 -0.19722 0.0520586
0.0941349 -0.197221 0.0787102
0.112515 -0.197221 0.0887047
0.13396 -0.197221 0.100365
0.155405 -0.197222 0.112023
0.15267 -0.182421 0.195217
-0.195577 -0.210245 -0.175035
-0.18899 -0.20117 -0.118595
-0.169855 -0.197221 -0.0851865
-0.151138 -0.197225 -0.0750298
-0.132443 -0.197216 -0.0648103
-0.0451222 -0.197218 -0.0173357
-0.0264104 -0.197218 -0.00716245
-0.00457987 -0.197219 0.00470644
0.032843 -0.197219 0.0250552
0.0453173 -0.197219 0.0318381
0.0733847 -0.19722 0.0470996
0.0952149 -0.19722 0.0589698
0.123282 -0.19722 0.0742316
0.145113 -0.197221 0.0861017
0.182538 -0.197222 0.106449
0.165472 -0.180385 0.195232
-0.170423 -0.19722 -0.106568
-0.151361 -0.197225 -0.0962293
-0.132324 -0.197215 -0.0858178
-0.110094 -0.197215 -0.0737317
-0.0243466 -0.197217 -0.0271126
0.023291 -0.197218 -0.00121206
0.0455215 -0.197219 0.0108758
0.0741037 -0.197219 0.0264174
0.0931586 -0.197219 0.0367783
0.115389 -0.19722 0.0488663
0.143972 -0.19722 0.0644079
0.163031 -0.197221 0.0747641
0.185263 -0.197222 0.0868515
-0.189846 -0.197605 -0.141321
-0.171012 -0.197219 -0.128749
-0.151592 -0.197225 -0.118222
-0.132201 -0.197214 -0.10761
-0.109555 -0.197215 -0.0952985
-0.186082 -0.14232 0.19477
-0.0286761 -0.197217 -0.0513263
0.000440747 -0.197217 -0.0354962
0.019852 -0.197218 -0.0249426
0.039263 -0.197218 -0.0143882
0.0683794 -0.197218 0.00144356
0.0877903 -0.197219 0.0119983
0.110437 -0.197219 0.0243121
0.129848 -0.197219 0.0348668
0.149885 -0.197414 0.0445855
0.178381 -0.197221 0.0612473
0.150848 -0.176959 0.168707
-0.165027 -0.19722 -0.1482
-0.14526 -0.197213 -0.137403
-0.12548 -0.197213 -0.126648
-0.105699 -0.197214 -0.115894
-0.165682 -0.141457 0.194798
-0.0199833 -0.197216 -0.0692927
-0.000202358 -0.197216 -0.0585383
0.0195787 -0.197217 -0.0477839
0.0393597 -0.197217 -0.0370294
0.0591403 -0.197218 -0.0262737
0.0789208 -0.197218 -0.0155181
0.108592 -0.197218 0.000615358
0.128373 -0.197218 0.011371
0.149853 -0.197748 0.0197918
0.167941 -0.197221 0.0328735
0.187726 -0.197222 0.0436242
0.150829 -0.176056 0.153887
-0.145368 -0.197221 -0.161091
-0.125196 -0.197225 -0.150146
-0.105055 -0.197213 -0.139117
-0.0949724 -0.197213 -0.133636
-0.195137 -0.141701 0.160337
-0.0109529 -0.197215 -0.0879566
0.00921208 -0.197216 -0.0769935
0.0293771 -0.197216 -0.0660304
0.0495423 -0.197217 -0.0550672
0.0797894 -0.197217 -0.0386208
0.099954 -0.197217 -0.0276564
0.120119 -0.197218 -0.016692
0.140283 -0.197218 -0.00572735
0.170539 -0.197221 0.0107082
0.191594 -0.169643 0.195264
-0.195577 -0.191304 -0.175035
-0.195557 -0.189146 -0.161208
-0.138652 -0.197214 -0.181908
-0.12151 -0.197217 -0.172606
-0.10094 -0.197221 -0.161443
-0.0803678 -0.197225 -0.150282
-0.00156495 -0.197214 -0.10736
0.0189993 -0.197215 -0.0961795
0.0498458 -0.197216 -0.0794091
0.0704102 -0.197216 -0.0682288
0.0875467 -0.197216 -0.058911
0.108111 -0.197217 -0.0477296
0.128675 -0.197217 -0.036548
0.149794 -0.19739 -0.0261689
0.169814 -0.197221 -0.0141999
-0.103685 -0.197212 -0.188382
-0.0757041 -0.197217 -0.173198
0.00820231 -0.197214 -0.127546
0.0291819 -0.197214 -0.11614
0.0501616 -0.197215 -0.104735
0.0676447 -0.197215 -0.0952296
0.0886245 -0.197216 -0.0838233
0.109604 -0.197216 -0.072416
0.130583 -0.197216 -0.0610088
0.149758 -0.197743 -0.0540233
0.169059 -0.197221 -0.0401148
0.150874 -0.160799 0.18785
0.169778 -0.161242 0.195237
0.0188452 -0.197398 -0.149543
0.0397842 -0.197214 -0.136924
0.0576277 -0.197214 -0.127224
0.07904 -0.197214 -0.115583
0.100453 -0.197215 -0.103942
0.118296 -0.197215 -0.0942396
0.139708 -0.197216 -0.0825972
0.157564 -0.19722 -0.0729158
0.178983 -0.197222 -0.0612819
0.0289855 -0.197218 -0.170501
0.0508598 -0.197223 -0.158636
0.0694769 -0.197364 -0.149476
0.0909152 -0.197214 -0.136793
0.109134 -0.197214 -0.126887
0.130997 -0.197215 -0.115001
0.14969 -0.197362 -0.10584
0.1711 -0.197221 -0.0932384
0.189325 -0.197223 -0.0833407
0.150848 -0.157113 0.168707
-0.175802 -0.174183 -0.150596
-0.164294 -0.175081 -0.150581
-0.195107 -0.124838 0.18194
0.0474687 -0.197212 -0.189269
0.0660878 -0.197215 -0.179167
0.0958815 -0.197221 -0.163007
0.125634 -0.197213 -0.146773
0.15543 -0.19722 -0.130613
0.185218 -0.197223 -0.114437
0.150829 -0.155935 0.153887
-0.195598 -0.174353 -0.18918
-0.195557 -0.170419 -0.161208
-0.177403 -0.121701 0.194782
0.10482 -0.197212 -0.188214
0.116238 -0.197214 -0.182021
0.135269 -0.197218 -0.171699
0.150424 -0.196027 -0.154991
0.167663 -0.196664 -0.150144
0.188541 -0.197224 -0.142767
0.191594 -0.149878 0.195264
-0.195137 -0.122441 0.160337
-0.156777 -0.120567 0.19481
0.150373 -0.196376 -0.188851
-0.164294 -0.163785 -0.150581
0.150874 -0.141308 0.18785
0.169778 -0.141697 0.195237
0.167663 -0.183697 -0.150144
-0.187192 -0.15466 -0.150611
0.150373 -0.183137 -0.188851
0.150848 -0.137267 0.168707
0.150399 -0.176579 -0.171718
0.150424 -0.174485 -0.154991
0.18815 -0.176445 -0.150119
0.150829 -0.135815 0.153887
-0.195577 -0.149634 -0.175035
0.191594 -0.130114 0.195264
-0.164294 -0.144959 -0.150581
-0.186082 -0.102417 0.19477
-0.165682 -0.101041 0.194798
0.150386 -0.164486 -0.180232
0.18815 -0.163375 -0.150119
0.150874 -0.121817 0.18785
0.169778 -0.122153 0.195237
-0.195148 -0.101268 0.152895
-0.194721 -0.131851 -0.150621
-0.195127 -0.0968741 0.167657
0.167663 -0.153441 -0.150144
0.150848 -0.117421 0.168707
-0.195577 -0.130693 -0.175035
0.150829 -0.115694 0.153887
0.150424 -0.144327 -0.154991
0.191594 -0.11035 0.195264
0.150373 -0.14342 -0.188851
0.150399 -0.137339 -0.171718
0.18815 -0.137235 -0.150119
0.150874 -0.102327 0.18785
-0.175802 -0.114249 -0.150596
-0.164294 -0.114838 -0.150581
-0.186082 -0.0811357 0.19477
-0.165682 -0.0821799 0.194798
0.169778 -0.099351 0.195237
-0.195577 -0.111752 -0.175035
-0.195557 -0.110491 -0.161208
-0.195148 -0.0818471 0.152895
0.150855 -0.0971329 0.173558
-0.195117 -0.0771378 0.174857
0.150399 -0.124259 -0.171718
0.167663 -0.123185 -0.150144
0.18815 -0.124165 -0.150119
0.150829 -0.0955733 0.153887
0.191594 -0.0905859 0.195264
0.150373 -0.116943 -0.188851
0.150424 -0.114169 -0.154991
0.150842 -0.0847306 0.163812
0.15088 -0.0824669 0.192529
-0.195598 -0.0938822 -0.18918
-0.195557 -0.0917638 -0.161208
0.169778 -0.0798065 0.195237
0.150373 -0.103704 -0.188851
-0.175802 -0.084282 -0.150596
-0.164294 -0.0847165 -0.150581
-0.195148 -0.0624257 0.152895
-0.186082 -0.0598542 0.19477
-0.165682 -0.0606245 0.194798
0.167663 -0.0972514 -0.150144
0.150399 -0.0937395 -0.171718
0.18815 -0.0936684 -0.150119
0.191594 -0.0708217 0.195264
-0.195127 -0.0559414 0.167657
-0.195598 -0.0747226 -0.18918
0.150424 -0.0840114 -0.154991
0.167663 -0.0842846 -0.150144
0.150842 -0.064794 0.163812
-0.195557 -0.0692911 -0.161208
0.150868 -0.0603665 0.183129
0.161186 -0.0599953 0.195227
0.150373 -0.0772264 -0.188851
-0.186082 -0.0412329 0.19477
-0.165682 -0.0417635 0.194798
0.178446 -0.0507154 0.195248
-0.187192 -0.0540379 -0.150611
-0.164294 -0.0545951 -0.150581
-0.195148 -0.0402299 0.152895
0.150373 -0.0639876 -0.188851
0.18815 -0.0631717 -0.150119
-0.195577 -0.0511407 -0.175035
-0.195127 -0.0368394 0.167657
0.150842 -0.0448574 0.163812
0.150399 -0.0544997 -0.171718
0.150424 -0.0538535 -0.154991
0.167663 -0.0540286 -0.150144
0.150868 -0.0407882 0.183129
0.161186 -0.0405374 0.195227
0.178446 -0.0310836 0.195248
-0.195577 -0.0321997 -0.175035
-0.195557 -0.0318364 -0.161208
0.18815 -0.0370317 -0.150119
-0.195148 -0.0208086 0.152895
-0.186082 -0.0199514 0.19477
-0.165682 -0.0202082 0.194798
0.150373 -0.033097 -0.188851
0.150842 -0.0249207 0.163812
-0.175802 -0.0243481 -0.150596
-0.164294 -0.0244737 -0.150581
0.150868 -0.0212099 0.183129
0.161186 -0.0210794 0.195227
-0.195127 -0.0150087 0.167657
0.150399 -0.0239799 -0.171718
0.150424 -0.0236955 -0.154991
0.167663 -0.0237726 -0.150144
0.18815 -0.0239617 -0.150119
0.178446 -0.0114519 0.195248
-0.195577 -0.00947051 -0.175035
-0.195557 -0.00936366 -0.161208
0.150373 -0.00661941 -0.188851
0.150842 -0.00498416 0.163812
-0.195148 -0.00138725 0.152895
-0.186082 -0.0013301 0.19477
-0.165682 -0.00134722 0.194798
0.150868 -0.00163154 0.183129
0.161186 -0.0016215 0.195227
-0.195598 0.00574787 -0.18918
-0.187192 0.00559011 -0.150611
-0.164294 0.00564775 -0.150581
-0.195127 0.00409326 0.167657
0.150373 0.00661938 -0.188851
0.150399 0.00653995 -0.171718
0.150424 0.00646239 -0.154991
0.167663 0.00648341 -0.150144
0.18815 0.00653499 -0.150119
0.178446 0.00817991 0.195248
0.150829 0.0150905 0.153887
-0.195127 0.0150087 0.167657
0.150868 0.0179468 0.183129
0.161186 0.0178365 0.195227
-0.195148 0.0180341 0.152895
-0.165682 0.0175137 0.194798
-0.195577 0.0284115 -0.175035
-0.195557 0.028091 -0.161208
-0.186082 0.0199514 0.19477
0.150373 0.033097 -0.188851
0.150399 0.0326999 -0.171718
0.177866 0.0325456 -0.150131
0.150424 0.0366203 -0.154991
0.182809 0.0278739 0.195253
-0.175802 0.0355857 -0.150596
-0.164294 0.0357692 -0.150581
0.150373 0.0463358 -0.188851
0.150399 0.0457798 -0.171718
0.167663 0.045384 -0.150144
0.18815 0.045745 -0.150119
0.150829 0.0352112 0.153887
0.150868 0.0375251 0.183129
0.161186 0.0405373 0.195227
-0.195577 0.0511407 -0.175035
-0.195557 0.0505637 -0.161208
0.0350243 0.0567098 -0.182982
0.064487 0.0567068 -0.166888
0.0755346 0.0567057 -0.160853
0.104994 0.0567028 -0.144762
0.116052 0.0567028 -0.138748
0.145546 0.0567033 -0.122722
0.175028 0.0567028 -0.106675
-0.138113 0.0567138 -0.183577
-0.120959 0.0567125 -0.174219
-0.100376 0.0567109 -0.16299
-0.0797933 0.0567094 -0.151761
-0.195148 0.0402299 0.152895
-0.186082 0.0385727 0.19477
-0.165682 0.0390691 0.194798
-0.000903249 0.0567034 -0.108727
0.0196876 0.0567034 -0.0975289
0.0402786 0.0567034 -0.0863307
0.0608694 0.0567034 -0.0751325
0.0780337 0.0567039 -0.0658095
0.0986324 0.0567046 -0.0546237
0.119232 0.0567054 -0.0434374
0.139831 0.0567061 -0.0322511
0.160432 0.0567068 -0.0210643
0.17759 0.0567067 -0.0117297
0.182809 0.0475496 0.195253
-0.189803 0.0572584 -0.141472
-0.17982 0.056704 -0.124483
-0.160558 0.056704 -0.114007
-0.141295 0.056704 -0.103531
-0.122032 0.056704 -0.0930551
-0.0321395 0.0567039 -0.0441681
-0.00966647 0.0567039 -0.0319463
0.00959715 0.056704 -0.0214723
0.0288661 0.0567047 -0.0110075
0.0481355 0.0567054 -0.000542521
0.0706172 0.0567062 0.011667
0.0898876 0.0567069 0.0221325
0.109158 0.0567075 0.0325984
0.12843 0.0567082 0.0430644
0.147702 0.0567089 0.0535306
0.170186 0.0567097 0.0657417
0.189449 0.0567096 0.0762199
-0.189419 0.0584647 -0.0925235
-0.189722 0.0572018 -0.0679462
-0.180226 0.0567045 -0.0530399
-0.162131 0.0567045 -0.0431989
-0.141019 0.0567045 -0.0317177
-0.195127 0.045026 0.167657
-0.0595902 0.0567044 0.0125667
-0.0414942 0.0567045 0.0224065
-0.0203766 0.0567052 0.0338761
-0.00227547 0.0567059 0.0437074
0.0188431 0.0567066 0.0551776
0.0399622 0.0567074 0.0666481
0.0580648 0.056708 0.0764802
0.0791849 0.0567087 0.0879513
0.100306 0.0567095 0.0994225
0.11841 0.0567101 0.109255
0.139531 0.0567109 0.120727
0.157636 0.0567115 0.130561
0.150829 0.0553319 0.153887
-0.189363 0.0583388 -0.0247173
-0.189651 0.0571516 -0.00294209
-0.172055 0.0567049 0.0148782
-0.15215 0.0567048 0.0257034
-0.153787 0.0475017 0.194814
-0.0839029 0.0567049 0.062816
-0.0554592 0.056706 0.0782658
-0.035548 0.0567067 0.0890809
-0.0156363 0.0567074 0.0998964
0.00427583 0.0567081 0.110712
0.0241884 0.0567088 0.121528
0.0441016 0.0567095 0.132344
0.0640151 0.0567102 0.143161
0.0838916 0.0567071 0.154027
0.095277 0.0567082 0.160199
0.115203 0.05671 0.171002
0.135129 0.0567118 0.181805
-0.195577 0.0700817 -0.175035
-0.195557 0.0692911 -0.161208
-0.189077 0.0593828 0.0154485
-0.189314 0.0582271 0.0355129
-0.186286 0.0567052 0.0637518
-0.167457 0.0567052 0.0739918
-0.105584 0.056706 0.107627
-0.0948217 0.0567064 0.113473
-0.0652243 0.0567074 0.12955
-0.0463891 0.0567081 0.139782
-0.0248717 0.0567077 0.15149
0.00474173 0.0567104 0.167548
0.0235836 0.0567116 0.177773
0.0451145 0.0567126 0.189465
0.0761313 0.0576885 0.18928
0.0960829 0.0583175 0.18914
0.116456 0.0589585 0.189018
0.15267 0.0597308 0.195217
-0.189145 0.0586706 0.0804291
-0.189402 0.0575921 0.0981678
-0.125042 0.0567069 0.147843
-0.107161 0.0567094 0.157525
-0.0867371 0.0567104 0.168616
-0.0663126 0.0567113 0.179708
-0.0449799 0.0568294 0.189351
-0.024056 0.0575254 0.189192
0.00465167 0.0584802 0.188976
-0.189005 0.075109 -0.131265
-0.189105 0.0585535 0.129741
-0.126587 0.0569379 0.189216
-0.104403 0.0577143 0.189037
0.191594 0.0675277 0.195264
-0.195148 0.0596512 0.152895
-0.177403 0.0575072 0.194782
0.169778 0.0700343 0.195237
-0.195598 0.0862183 -0.18918
-0.175802 0.084282 -0.150596
-0.189797 0.0787939 -0.0793594
-0.195557 0.0880184 -0.161208
-0.164294 0.0884817 -0.150581
-0.189795 0.0790079 -0.0341287
-0.189386 0.0775676 -0.0140943
-0.195098 0.062584 0.18891
-0.189595 0.0785043 0.0169834
-0.188761 0.0751508 0.0616849
0.0457779 0.0751998 0.188586
0.104106 0.077559 0.189178
0.116195 0.0780463 0.189322
0.150868 0.0799448 0.183129
-0.175802 0.0955196 -0.150596
-0.156777 0.0690888 0.19481
0.150829 0.085513 0.153887
-0.189606 0.0789037 0.0902802
-0.0309834 0.0778756 0.189085
-0.0100022 0.0787888 0.189354
-0.195598 0.105378 -0.18918
-0.195127 0.0750433 0.167657
-0.101132 0.0775834 0.188915
-0.0817896 0.0784563 0.189172
0.150399 0.119899 -0.171718
0.150424 0.118478 -0.154991
0.167663 0.118863 -0.150144
0.18815 0.119808 -0.150119
0.161186 0.0891822 0.195227
0.178446 0.0899789 0.195248
-0.156556 0.107678 -0.15057
-0.195148 0.0790726 0.152895
0.150373 0.125769 -0.188851
-0.195557 0.110491 -0.161208
-0.186082 0.0784756 0.19477
0.150868 0.0995232 0.183129
-0.183408 0.117593 -0.150606
0.193323 0.137509 -0.150112
0.150829 0.105634 0.153887
-0.165682 0.0875687 0.194798
0.150399 0.141699 -0.171718
0.150424 0.140019 -0.154991
0.167663 0.140474 -0.150144
0.161186 0.10864 0.195227
0.178446 0.109611 0.195248
-0.195577 0.130693 -0.175035
-0.195557 0.129218 -0.161208
-0.164294 0.129899 -0.150581
-0.195148 0.0984939 0.152895
0.150373 0.156659 -0.188851
0.150399 0.159139 -0.171718
0.167663 0.157763 -0.150144
0.18815 0.159019 -0.150119
0.150868 0.119102 0.183129
-0.186082 0.099757 0.19477
0.150424 0.16156 -0.154991
0.150829 0.125754 0.153887
-0.175802 0.144216 -0.150596
-0.195127 0.105061 0.167657
-0.195577 0.149634 -0.175035
-0.195557 0.147946 -0.161208
-0.164294 0.148725 -0.150581
0.161186 0.128098 0.195227
0.178446 0.129242 0.195248
-0.165682 0.109124 0.194798
-0.175802 0.155453 -0.150596
0.150373 0.183137 -0.188851
0.150399 0.180939 -0.171718
0.150424 0.178793 -0.154991
0.167663 0.179375 -0.150144
0.18815 0.180802 -0.150119
-0.195148 0.117915 0.152895
0.150868 0.13868 0.183129
-0.150785 0.118295 0.194818
-0.195577 0.168575 -0.175035
-0.164294 0.16755 -0.150581
-0.186082 0.118378 0.19477
0.150373 0.196376 -0.188851
-0.195557 0.170419 -0.161208
0.150399 0.198379 -0.171718
0.182998 0.197835 -0.150125
0.150829 0.152582 0.153887
0.161186 0.147556 0.195227
0.178446 0.148874 0.195248
0.150424 0.200335 -0.154991
-0.171564 0.127516 0.19479
-0.195598 0.185848 -0.18918
0.150868 0.158258 0.183129
-0.175802 0.18542 -0.150596
-0.195127 0.135078 0.167657
-0.195557 0.189146 -0.161208
-0.164294 0.190142 -0.150581
-0.195148 0.140111 0.152895
0.150373 0.222853 -0.188851
0.150399 0.220179 -0.171718
0.150424 0.217568 -0.154991
0.172755 0.218707 -0.150138
0.193323 0.22045 -0.150112
0.150829 0.172703 0.153887
0.169778 0.167757 0.195237
0.191594 0.169643 0.195264
-0.186082 0.13966 0.19477
-0.195598 0.205008 -0.18918
0.150373 0.236092 -0.188851
-0.156777 0.14766 0.19481
0.150399 0.237619 -0.171718
0.193323 0.237912 -0.150112
0.150868 0.177837 0.183129
-0.195557 0.207873 -0.161208
-0.164294 0.208967 -0.150581
0.150424 0.239109 -0.154991
0.167663 0.239887 -0.150144
-0.175802 0.215387 -0.150596
-0.195148 0.159532 0.152895
0.150829 0.192823 0.153887
0.174102 0.187718 0.195243
0.150386 0.256598 -0.180232
-0.186082 0.158281 0.19477
0.172755 0.257684 -0.150138
0.193323 0.259739 -0.150112
-0.195577 0.229186 -0.175035
-0.164294 0.227793 -0.150581
-0.195127 0.165095 0.167657
0.150424 0.260651 -0.154991
-0.195557 0.230346 -0.161208
0.150868 0.200678 0.183129
-0.171564 0.167784 0.19479
-0.150785 0.169964 0.194818
0.150373 0.275809 -0.188851
0.150829 0.212944 0.153887
0.178446 0.20777 0.195248
-0.195148 0.178954 0.152895
0.150399 0.281219 -0.171718
0.150424 0.277884 -0.154991
0.167663 0.278787 -0.150144
0.18815 0.281005 -0.150119
0.161186 0.209173 0.195227
-0.195577 0.248127 -0.175035
-0.175802 0.245354 -0.150596
-0.152667 0.247897 -0.150566
0.150855 0.215668 0.173558
-0.195557 0.249073 -0.161208
0.150386 0.296075 -0.180232
0.182998 0.29784 -0.150125
-0.195598 0.266319 -0.18918
-0.195098 0.185089 0.18891
-0.162724 0.187607 0.194802
0.150424 0.299425 -0.154991
0.150829 0.233065 0.153887
0.182809 0.22791 0.195253
-0.177403 0.18857 0.194782
0.15088 0.227997 0.192529
-0.195557 0.267801 -0.161208
-0.164294 0.26921 -0.150581
-0.195148 0.198375 0.152895
-0.195127 0.195113 0.167657
0.150373 0.315525 -0.188851
0.150855 0.235424 0.173558
-0.175802 0.275321 -0.150596
0.150399 0.320458 -0.171718
0.167663 0.317688 -0.150144
0.18815 0.320215 -0.150119
-0.195598 0.285478 -0.18918
0.150424 0.320967 -0.154991
0.150829 0.253185 0.153887
0.182809 0.247586 0.195253
-0.164294 0.288036 -0.150581
-0.153787 0.20765 0.194814
0.150386 0.335552 -0.180232
0.156919 0.247541 0.195222
-0.195557 0.290273 -0.161208
-0.174489 0.207672 0.194786
0.151473 0.348974 -0.217333
0.18815 0.337642 -0.150119
0.150855 0.25518 0.173558
-0.195148 0.217796 0.152895
-0.186082 0.208825 0.19477
0.119957 0.348975 -0.215932
0.151186 0.348985 -0.198991
0.150424 0.3382 -0.154991
0.167663 0.339299 -0.150144
0.209696 0.348979 -0.167148
0.0853809 0.348976 -0.216662
0.116213 0.348984 -0.199928
0.208662 0.348981 -0.149638
0.0516638 0.348976 -0.217373
0.0706888 0.348978 -0.207034
0.0897239 0.348986 -0.196714
0.203855 0.348984 -0.134639
0.215253 0.348976 -0.128409
-0.195577 0.308738 -0.175035
-0.175802 0.305288 -0.150596
-0.156556 0.30792 -0.15057
0.0450831 0.34898 -0.203772
0.0741509 0.350713 -0.194837
0.214177 0.348977 -0.111803
0.150829 0.273306 0.153887
0.187192 0.267861 0.195258
-0.195557 0.309001 -0.161208
-0.195127 0.22513 0.167657
0.148707 0.365339 -0.19474
0.150399 0.359698 -0.171718
0.177866 0.358001 -0.150131
0.161186 0.267547 0.195227
0.13345 0.367629 -0.19476
0.150424 0.359741 -0.154991
0.195135 0.349685 -0.0917433
0.215764 0.348977 -0.0777836
-0.0679759 0.348979 -0.216107
-0.195098 0.225036 0.18891
-0.165682 0.227679 0.194798
0.103462 0.367779 -0.194799
0.203862 0.348985 -0.0683002
-0.097928 0.348979 -0.216783
-0.0692715 0.34898 -0.201202
0.0741509 0.367926 -0.194837
0.116043 0.368141 -0.17287
0.187837 0.368141 -0.133826
0.202969 0.348986 -0.0531741
0.150868 0.278991 0.183129
-0.195577 0.327679 -0.175035
-0.127188 0.348979 -0.217444
-0.095322 0.34898 -0.200117
-0.195148 0.239992 0.152895
0.0454952 0.368069 -0.194875
0.0829492 0.368142 -0.174777
0.124034 0.368142 -0.152434
0.165118 0.368142 -0.130092
0.194998 0.368142 -0.113842
0.212704 0.348979 -0.0326018
-0.195557 0.327728 -0.161208
-0.164294 0.329453 -0.150581
-0.131278 0.34898 -0.204766
-0.153787 0.237508 0.194814
0.0543037 0.368142 -0.174633
0.0949186 0.368142 -0.152545
0.135534 0.368142 -0.130458
0.165072 0.368142 -0.114395
0.150829 0.293427 0.153887
0.187192 0.287581 0.195258
0.0299561 0.368142 -0.172507
0.0701121 0.368142 -0.150669
0.0993164 0.368142 -0.134787
0.117569 0.368142 -0.124861
0.139473 0.368142 -0.112949
0.179629 0.368142 -0.0911113
0.203867 0.348985 -0.0079568
0.165472 0.287641 0.195232
-0.207622 0.348981 -0.217476
-0.175802 0.335255 -0.150596
0.0350306 0.368142 -0.154724
0.0747379 0.368142 -0.13313
0.154153 0.368142 -0.0899421
0.183031 0.368142 -0.0742375
0.20985 0.348982 0.00955164
-0.207304 0.348981 -0.203377
-0.067316 0.367956 -0.195022
0.0185737 0.368143 -0.148982
0.0507025 0.368143 -0.131509
0.0899711 0.368143 -0.110154
0.10782 0.368143 -0.100447
0.12924 0.368143 -0.0887986
0.157799 0.368143 -0.0732678
0.215699 0.348978 0.0266741
-0.0929126 0.368091 -0.195056
0.0236616 0.368143 -0.131844
0.0554393 0.368143 -0.114563
0.0942788 0.368143 -0.0934408
0.133118 0.368143 -0.072319
0.175489 0.368143 -0.0492771
0.195294 0.349308 0.0280355
0.150868 0.29857 0.183129
-0.21 0.348981 -0.17789
-0.164294 0.348279 -0.150581
-0.1221 0.367582 -0.195094
-0.0901121 0.368143 -0.179658
-0.174489 0.247867 0.194786
0.0391175 0.368143 -0.109379
0.0705518 0.368143 -0.0922843
0.108972 0.368143 -0.0713907
0.140406 0.368143 -0.0542962
0.157869 0.368143 -0.0447991
0.178826 0.368143 -0.0334027
0.195227 0.367569 -0.0224777
0.203871 0.348985 0.0471688
-0.209667 0.348981 -0.164665
-0.135801 0.368144 -0.190745
-0.115069 0.368144 -0.179471
-0.0874259 0.368143 -0.164438
-0.195148 0.259414 0.152895
-0.195127 0.255147 0.167657
-0.186082 0.248728 0.19477
0.00241297 0.368143 -0.115581
0.0196896 0.368143 -0.106186
0.0404218 0.368143 -0.0949109
0.0784305 0.368143 -0.0742407
0.119895 0.368143 -0.0516916
0.150829 0.313548 0.153887
0.191594 0.307992 0.195264
-0.21896 0.366998 -0.218583
-0.112147 0.368144 -0.164414
-0.00274587 0.368144 -0.104919
0.0246044 0.368144 -0.0900449
0.0553734 0.368144 -0.0733119
0.09298 0.368144 -0.0528605
0.134006 0.368144 -0.03055
0.154518 0.368144 -0.0193948
0.175031 0.368144 -0.00823945
0.195777 0.348988 0.0685676
0.169778 0.307825 0.195237
-0.218572 0.349074 -0.144556
-0.199402 0.348981 -0.133815
-0.143116 0.368144 -0.16807
-0.0957544 0.368144 -0.142313
0.029416 0.368144 -0.0742422
0.0700118 0.368144 -0.0521652
0.110608 0.368144 -0.0300884
0.15797 0.368144 -0.00433201
0.178268 0.368144 0.00670648
0.204674 0.348985 0.0859193
-0.219776 0.368894 -0.199357
-0.136616 0.368144 -0.151623
-0.116529 0.368144 -0.140698
-0.012743 0.368144 -0.0842568
0.0140404 0.368144 -0.0696912
0.0441718 0.368144 -0.053305
0.084347 0.368144 -0.0314569
0.124522 0.368144 -0.00960875
0.14461 0.368144 0.0013153
0.194829 0.368144 0.0286254
-0.219513 0.368428 -0.184996
-0.217828 0.34898 -0.119601
-0.202122 0.348981 -0.111062
-0.179611 0.364599 -0.150601
-0.160432 0.367737 -0.150576
-0.110368 0.368144 -0.124701
0.0188618 0.368144 -0.0544215
0.0619385 0.368144 -0.0309953
0.0983882 0.368144 -0.0111734
0.148092 0.368144 0.0158567
0.171288 0.368144 0.0284708
0.150868 0.318148 0.183129
-0.150252 0.368145 -0.134
-0.130573 0.368145 -0.123297
-0.150785 0.267863 0.194818
-0.022334 0.368144 -0.064434
0.00062567 0.368144 -0.051948
0.0399851 0.368144 -0.0305433
0.0695048 0.368144 -0.0144898
0.108864 0.368144 0.00691485
0.128544 0.368145 0.0176169
0.187584 0.368145 0.0497238
-0.219519 0.349775 -0.0998463
-0.201655 0.348981 -0.0875498
-0.166606 0.368145 -0.130751
-0.114654 0.368145 -0.102498
-0.168628 0.267603 0.194794
0.0152259 0.368145 -0.0318661
0.0541898 0.368145 -0.0106766
0.0834129 0.368145 0.00521553
0.145106 0.368145 0.0387656
0.174329 0.368145 0.0546576
0.193811 0.368145 0.0652523
0.150829 0.333668 0.153887
0.191594 0.327756 0.195264
-0.221759 0.371909 -0.160951
-0.150487 0.368145 -0.110085
-0.131199 0.368145 -0.0995955
-0.195148 0.278835 0.152895
-0.0218994 0.368145 -0.0401554
0.00381806 0.368145 -0.0261695
0.0327502 0.368145 -0.0104355
0.0648972 0.368145 0.0070467
0.103474 0.368145 0.0280251
0.122762 0.368145 0.0385145
0.154909 0.368145 0.0559967
0.174197 0.368145 0.066486
0.174102 0.328099 0.195243
-0.219875 0.369192 -0.139486
-0.219027 0.349352 -0.0758386
-0.201206 0.348981 -0.0649658
-0.179248 0.368145 -0.11406
-0.11877 0.368145 -0.0811709
-0.036012 0.368145 -0.0361645
0.00536716 0.368145 -0.0136614
0.0435634 0.368145 0.0071106
0.0817597 0.368145 0.0278826
0.189983 0.368145 0.0867364
-0.218752 0.349194 -0.0643383
-0.160168 0.368145 -0.0922457
-0.141256 0.368145 -0.081961
-0.195107 0.275181 0.18194
-0.0309376 0.368145 -0.0219666
-0.0120258 0.368145 -0.0116819
0.0194938 0.368145 0.00545925
0.0604695 0.368145 0.0277427
0.0982932 0.368145 0.0483119
0.120357 0.368145 0.0603107
0.148725 0.368146 0.0757377
0.167637 0.368146 0.0860223
0.217313 0.348979 0.173484
-0.219372 0.368316 -0.113757
-0.200774 0.348981 -0.0432546
-0.178915 0.368146 -0.0912238
-0.119607 0.368146 -0.0589699
-0.00098896 0.368146 0.00553727
0.0395907 0.368146 0.0276055
0.0801705 0.368146 0.0496736
0.130115 0.368146 0.0768344
0.150868 0.337726 0.183129
-0.218134 0.349 -0.0423235
-0.160204 0.368146 -0.0700455
-0.141654 0.368146 -0.0599576
-0.0489047 0.368146 -0.00951803
-0.0303548 0.368146 0.00056988
0.0191115 0.368146 0.0274709
0.059303 0.368146 0.0493278
0.0902195 0.368146 0.0661409
0.108769 0.368146 0.0762287
0.148961 0.368146 0.0980856
0.167511 0.368146 0.108173
0.20388 0.348985 0.187225
0.215594 0.34898 0.193609
-0.200359 0.348981 -0.0223665
-0.178595 0.368146 -0.0692534
-0.129598 0.368146 -0.0426071
-0.0162912 0.368146 0.0190121
0.038831 0.368146 0.0489886
0.0694545 0.368146 0.0656424
0.130701 0.368146 0.0989498
0.150829 0.353789 0.153887
-0.219966 0.369462 -0.085154
-0.217412 0.348979 -0.0215946
-0.160238 0.368146 -0.0486791
-0.159756 0.288015 0.194806
-0.0540628 0.368146 0.00906217
-0.00552532 0.368146 0.035458
0.0126763 0.368146 0.0453564
0.0490794 0.368146 0.0651532
0.0885161 0.368146 0.0865997
0.109751 0.368146 0.0981479
0.149188 0.368146 0.119594
0.174102 0.347687 0.195243
0.205316 0.348983 0.208285
-0.219708 0.369057 -0.0733636
-0.199959 0.348982 -0.0022558
-0.178287 0.368146 -0.0481004
-0.151239 0.368146 -0.0333906
-0.130201 0.368146 -0.0219499
-0.195148 0.298256 0.152895
-0.177403 0.287536 0.194782
-0.0370349 0.368146 0.0287166
0.0741641 0.368146 0.0891889
0.128261 0.368146 0.118608
-0.216702 0.348979 -0.00168246
-0.172182 0.368147 -0.0345775
-0.056053 0.368146 0.0285767
-0.00543246 0.368146 0.0561052
0.0154113 0.368146 0.0674406
0.0541211 0.368147 0.0884917
0.092831 0.368147 0.109543
0.107719 0.368147 0.11764
0.140474 0.368147 0.135452
-0.219247 0.368216 -0.0503616
-0.196776 0.348983 0.0186393
-0.151436 0.368147 -0.0132791
-0.0363674 0.368147 0.0492983
0.0344443 0.368147 0.0878073
0.0728006 0.368147 0.108666
0.130469 0.348987 0.19659
0.15004 0.348983 0.207245
0.169629 0.348989 0.217881
-0.216017 0.348979 0.017509
-0.171999 0.368147 -0.0146263
-0.0550473 0.368147 0.0489749
-0.00534293 0.368147 0.0760051
0.0531329 0.368147 0.107805
0.0852945 0.368147 0.125296
0.108685 0.368147 0.138016
0.11104 0.348987 0.195347
-0.151626 0.368147 0.00611115
-0.195127 0.304266 0.167657
-0.0357239 0.368147 0.069142
0.0135348 0.368147 0.0959298
0.0743836 0.368147 0.129021
0.0947057 0.348987 0.195621
-0.221189 0.371418 -0.0316309
-0.201744 0.348981 0.0434147
-0.00525671 0.368147 0.0951975
0.119573 0.349031 0.218012
-0.219559 0.35013 0.0392888
-0.171735 0.368147 0.0139821
-0.156777 0.307513 0.19481
-0.0834936 0.368147 0.0619703
-0.0635681 0.368147 0.0728063
-0.035103 0.368147 0.0882861
0.0246737 0.368147 0.120794
0.0474457 0.368147 0.133178
0.0759109 0.368147 0.148658
0.0629007 0.348987 0.196155
0.203396 0.367823 0.218912
-0.220614 0.370707 -0.0106679
-0.212045 0.348979 0.0553347
-0.160364 0.368148 0.029323
-0.195148 0.317678 0.152895
-0.195098 0.304931 0.18891
-0.0757146 0.368147 0.0753577
0.00329158 0.368148 0.118323
0.0343298 0.368148 0.135202
0.217898 0.372721 0.22212
-0.195127 0.315182 0.167657
-0.183199 0.30781 0.194774
-0.0596786 0.368148 0.0930767
0.0550074 0.368148 0.155445
0.0295461 0.348987 0.195227
0.168754 0.36762 0.218782
-0.220124 0.369934 0.00971067
-0.157619 0.368148 0.048658
-0.0466911 0.368148 0.108983
-0.0217322 0.368148 0.122557
0.00599995 0.368148 0.137638
0.0146125 0.348986 0.195491
0.05685 0.349099 0.218146
0.100126 0.357874 0.217335
0.151893 0.367521 0.218718
-0.218767 0.349308 0.0759299
-0.195556 0.348984 0.0894448
-0.0971657 0.368148 0.0902277
-0.0834177 0.368148 0.0977042
-0.00642857 0.368148 0.139572
0.0844058 0.357844 0.217319
-0.219652 0.36919 0.0293213
-0.176779 0.368148 0.0554786
-0.043185 0.368148 0.12813
-0.0144986 0.348986 0.196004
0.122855 0.367984 0.218874
-0.0955477 0.368148 0.108058
-0.0685118 0.368148 0.122761
-0.0286887 0.348986 0.196254
