ply
format ascii 1.0
comment Created by Open3D
element vertex 1440
property double x
property double y
property double z
end_header
0.170912 -0.129453 -0.439363
0.161963 -0.12991 -0.439371
0.171533 -0.12772 -0.431657
0.149932 -0.127657 -0.439383
0.140834 -0.128112 -0.439391
0.13167 -0.12857 -0.4394
0.122441 -0.129031 -0.439409
0.110032 -0.129652 -0.43942
0.100646 -0.127197 -0.439429
0.0911925 -0.127659 -0.439438
0.0816698 -0.128125 -0.439447
0.0720775 -0.128594 -0.439456
0.0624147 -0.129066 -0.439465
0.04942 -0.129701 -0.439478
0.171533 -0.12198 -0.431657
0.170912 -0.120917 -0.439363
0.161963 -0.121345 -0.439371
0.149932 -0.121919 -0.439382
0.140833 -0.122354 -0.439391
0.0395896 -0.127189 -0.439487
0.0296862 -0.127662 -0.439496
0.0197088 -0.128139 -0.439506
0.00965676 -0.128619 -0.439515
-0.000470936 -0.129102 -0.439525
-0.0106751 -0.12959 -0.439535
-0.0175208 -0.129917 -0.439541
0.13167 -0.119902 -0.439399
0.122441 -0.120333 -0.439408
0.110032 -0.120911 -0.43942
0.0911923 -0.12179 -0.439438
0.0816696 -0.122234 -0.439447
-0.0278544 -0.127342 -0.439551
-0.0382668 -0.127827 -0.439561
-0.0487589 -0.128317 -0.439571
-0.0593315 -0.12881 -0.439581
-0.0699858 -0.129307 -0.439591
-0.0807225 -0.129807 -0.439601
0.0720772 -0.119725 -0.439456
0.0624143 -0.120165 -0.439465
0.0494197 -0.120757 -0.439477
0.0296859 -0.121655 -0.439496
0.0197086 -0.122109 -0.439505
-0.0879269 -0.127007 -0.439607
-0.0988033 -0.127502 -0.439618
-0.109765 -0.128001 -0.439628
-0.120813 -0.128504 -0.439639
-0.128226 -0.128842 -0.439646
-0.13942 -0.129351 -0.439657
-0.150702 -0.129864 -0.439667
0.170912 -0.112382 -0.439363
0.100646 -0.115501 -0.439428
0.00965634 -0.11954 -0.439515
-0.000471324 -0.119989 -0.439524
-0.0106755 -0.120442 -0.439534
-0.0175212 -0.120746 -0.43954
-0.038267 -0.121667 -0.43956
-0.0487592 -0.122133 -0.43957
-0.158273 -0.126994 -0.439674
-0.169706 -0.127501 -0.439685
0.171533 -0.1105 -0.431657
0.161963 -0.109924 -0.439371
0.143281 -0.112103 -0.428716
0.135018 -0.112101 -0.431521
0.126756 -0.1121 -0.434326
0.115739 -0.112097 -0.438065
0.0395891 -0.115219 -0.439486
-0.059332 -0.119498 -0.43958
-0.0699863 -0.119959 -0.43959
-0.080723 -0.120424 -0.4396
-0.0988037 -0.121206 -0.439617
-0.109765 -0.12168 -0.439628
-0.120813 -0.122158 -0.439638
-0.128226 -0.122479 -0.439645
0.0739518 -0.112101 -0.428879
0.0654698 -0.112099 -0.431759
0.056988 -0.112097 -0.434638
-0.027855 -0.115068 -0.43955
-0.13942 -0.119769 -0.439656
-0.150702 -0.120245 -0.439667
-0.169706 -0.121046 -0.439685
0.000826478 -0.112098 -0.429052
-0.00788656 -0.112096 -0.43201
-0.0195145 -0.112097 -0.435934
-0.0382674 -0.112427 -0.439559
-0.0879274 -0.114464 -0.439607
-0.158274 -0.117349 -0.439673
0.171533 -0.101889 -0.431657
0.170912 -0.101001 -0.439363
0.161963 -0.101359 -0.439371
-0.0764151 -0.112096 -0.429234
-0.0853772 -0.112095 -0.432267
-0.100335 -0.112098 -0.43729
-0.109766 -0.112199 -0.439627
-0.154443 -0.111971 -0.429238
-0.169706 -0.111362 -0.439685
0.170912 -0.0924661 -0.439363
-0.154483 -0.10435 -0.43967
0.171533 -0.0904087 -0.431657
0.161963 -0.0899379 -0.439371
-0.154443 -0.102234 -0.429238
-0.165885 -0.101543 -0.439681
-0.154483 -0.0947181 -0.43967
0.171534 -0.0817983 -0.431658
0.170912 -0.0810857 -0.439363
0.161963 -0.0813724 -0.439371
-0.154443 -0.0924979 -0.429238
-0.165885 -0.0918724 -0.439681
-0.154483 -0.0850857 -0.43967
-0.165885 -0.0822016 -0.439681
0.171534 -0.0703178 -0.431658
0.170912 -0.0697052 -0.439363
0.161963 -0.0699517 -0.439371
-0.154443 -0.0795157 -0.429238
-0.154483 -0.0754534 -0.43967
0.172356 -0.129407 0.432287
0.161154 -0.129572 0.430696
0.149669 -0.129865 0.430715
0.138228 -0.12433 0.430151
0.132442 -0.12447 0.43016
0.12083 -0.124753 0.430177
0.109166 -0.125037 0.430194
0.097448 -0.125322 0.430212
0.0856767 -0.125608 0.430229
0.0738516 -0.125896 0.430247
0.0619721 -0.126185 0.430264
0.0500379 -0.126476 0.430282
0.0380487 -0.126767 0.4303
0.0320334 -0.126914 0.430309
0.0199608 -0.127208 0.430327
0.00783232 -0.127503 0.430345
0.00174686 -0.127651 0.430354
-0.0104664 -0.127948 0.430372
-0.0227368 -0.128247 0.43039
-0.0350645 -0.128547 0.430409
-0.0474499 -0.128848 0.430427
-0.0536646 -0.128999 0.430436
-0.0661376 -0.129303 0.430455
-0.0786694 -0.129608 0.430474
0.171534 -0.0617074 -0.431659
0.170912 -0.0611699 -0.439363
0.161963 -0.0613862 -0.439371
-0.154443 -0.0697791 -0.429237
-0.165885 -0.0693073 -0.439681
0.172356 -0.117904 0.432287
0.161329 -0.117971 0.429539
0.149852 -0.118237 0.429554
0.00797805 -0.121528 0.429749
0.00189504 -0.121669 0.429757
-0.0103134 -0.121953 0.429774
-0.0225789 -0.122237 0.429791
-0.135599 -0.124859 0.429947
-0.148457 -0.125157 0.429964
-0.161376 -0.125457 0.429982
-0.167859 -0.125607 0.429991
-0.154483 -0.0658211 -0.43967
0.172356 -0.112153 0.432287
0.161416 -0.112177 0.428962
0.149944 -0.11243 0.428975
0.13842 -0.112684 0.428989
0.126843 -0.11294 0.429004
0.115214 -0.113196 0.429019
0.103531 -0.113454 0.429033
0.091796 -0.113713 0.429048
0.0800067 -0.113973 0.429063
0.0681634 -0.114234 0.429078
0.0622214 -0.114365 0.429086
0.0502965 -0.114628 0.429101
0.0383165 -0.114892 0.429116
0.0323057 -0.115025 0.429124
0.0202424 -0.115291 0.429139
-0.0347397 -0.116504 0.429209
-0.0471154 -0.116777 0.429224
-0.0533251 -0.116914 0.429232
-0.0657881 -0.117189 0.429248
-0.07831 -0.117465 0.429264
-0.0811919 -0.1121 0.438963
-0.135194 -0.112594 0.428726
-0.148041 -0.112862 0.428741
-0.16095 -0.113132 0.428755
-0.154439 -0.060371 -0.423913
-0.165885 -0.0596365 -0.439681
0.172356 -0.10065 0.432287
0.161591 -0.100601 0.427809
0.171534 -0.0502269 -0.431659
0.170912 -0.0497894 -0.439363
0.161963 -0.0499655 -0.439371
-0.154277 -0.106849 0.428136
-0.167211 -0.107105 0.428148
-0.154448 -0.0564897 -0.434502
0.172356 -0.0891472 0.432287
0.161765 -0.0890411 0.426657
-0.153857 -0.0945674 0.426913
-0.16678 -0.0947936 0.426922
-0.154439 -0.0505811 -0.423913
-0.165885 -0.0499657 -0.439681
0.171545 -0.0420955 -0.421754
0.171534 -0.0416166 -0.43166
0.170912 -0.0412541 -0.439363
0.161963 -0.0414 -0.439371
-0.154448 -0.0468057 -0.434502
0.172356 -0.0776443 0.432285
0.161938 -0.0774976 0.425508
-0.153629 -0.0823318 0.42625
-0.16635 -0.0825005 0.425698
0.172356 -0.0718928 0.432285
-0.166135 -0.0763608 0.425087
-0.154439 -0.0407912 -0.423913
-0.165885 -0.0402949 -0.439681
0.162112 -0.0659702 0.42436
-0.153631 -0.0701347 0.426255
-0.154448 -0.0371218 -0.434502
0.172357 -0.06039 0.432284
0.184107 -0.0310235 -0.40208
0.176121 -0.0309701 -0.406303
0.171546 -0.030483 -0.421755
0.171534 -0.0301361 -0.43166
0.170912 -0.0298737 -0.439363
0.161963 -0.0299793 -0.439371
0.141982 -0.0313729 -0.406336
-0.165705 -0.0640952 0.423865
0.162285 -0.0544589 0.423214
0.184201 -0.031152 -0.304769
0.184188 -0.0307301 -0.318086
0.184176 -0.0303194 -0.331047
0.184164 -0.0299196 -0.343667
0.184152 -0.0295302 -0.355957
0.18414 -0.0291508 -0.367932
0.184129 -0.028781 -0.379604
0.184118 -0.0284205 -0.390982
0.129347 -0.0285199 -0.406347
0.119791 -0.0286219 -0.406356
0.110167 -0.0287247 -0.406365
0.100474 -0.0288282 -0.406375
0.0907102 -0.0289324 -0.406384
0.0808758 -0.0290374 -0.406393
0.0709697 -0.0291431 -0.406402
0.0609913 -0.0292497 -0.406412
0.0509396 -0.029357 -0.406422
0.0408139 -0.0294651 -0.406431
0.0306134 -0.029574 -0.406441
0.0203371 -0.0296837 -0.406451
0.00998446 -0.0297942 -0.40646
-0.000445753 -0.0299056 -0.40647
-0.0109541 -0.0300177 -0.40648
-0.0180037 -0.030093 -0.406487
-0.0286444 -0.0302066 -0.406497
-0.0393659 -0.030321 -0.406507
-0.0501688 -0.0304364 -0.406518
-0.0610543 -0.0305526 -0.406528
-0.0683576 -0.0306306 -0.406535
-0.0793827 -0.0307483 -0.406545
-0.0904928 -0.0308669 -0.406556
-0.0979473 -0.0309464 -0.406563
-0.109201 -0.0310666 -0.406574
-0.120543 -0.0311877 -0.406584
-0.128154 -0.0312689 -0.406592
-0.154439 -0.0310014 -0.423913
-0.165885 -0.0306241 -0.439681
0.172357 -0.048887 0.432282
0.184271 -0.0299274 -0.232294
0.184256 -0.0294926 -0.247631
0.184242 -0.0290703 -0.26253
0.184228 -0.0286598 -0.277007
0.184215 -0.0282609 -0.291081
-0.139644 -0.0280872 -0.406603
-0.151225 -0.0281978 -0.406614
-0.158996 -0.028272 -0.406621
-0.154448 -0.0274378 -0.434502
0.168149 -0.0429157 0.422071
0.162458 -0.0429637 0.422069
0.184118 -0.0224372 -0.390982
0.184107 -0.0221597 -0.40208
0.176121 -0.0221215 -0.406303
0.171546 -0.0217735 -0.421755
0.171534 -0.0215258 -0.431661
0.170912 -0.0213383 -0.439363
0.161963 -0.0214138 -0.439371
0.141982 -0.0224092 -0.406336
0.172357 -0.0373842 0.432281
0.168234 -0.0371806 0.4215
0.156842 -0.0372639 0.421494
0.184242 -0.0222302 -0.26253
0.184228 -0.0219164 -0.277007
0.184215 -0.0216113 -0.291081
0.184201 -0.0213145 -0.304769
0.184188 -0.0210258 -0.318086
0.184176 -0.0207449 -0.331047
0.184164 -0.0204713 -0.343667
0.184152 -0.0202049 -0.355957
0.18414 -0.0199453 -0.367932
0.184129 -0.0196923 -0.379604
0.129347 -0.0195136 -0.406349
0.119792 -0.0195834 -0.406358
0.110168 -0.0196537 -0.406367
0.100474 -0.0197245 -0.406376
0.0907108 -0.0197958 -0.406385
0.0808763 -0.0198676 -0.406394
0.0709703 -0.01994 -0.406404
0.0609918 -0.0200129 -0.406413
0.0509401 -0.0200863 -0.406423
0.0408144 -0.0201603 -0.406432
0.0306139 -0.0202348 -0.406442
0.0203376 -0.0203099 -0.406452
0.00998488 -0.0203855 -0.406461
-0.000445336 -0.0204617 -0.406471
-0.0109538 -0.0205384 -0.406481
-0.0180033 -0.0205899 -0.406488
-0.0286441 -0.0206676 -0.406498
-0.0393656 -0.020746 -0.406508
-0.0501685 -0.0208249 -0.406518
-0.061054 -0.0209044 -0.406528
-0.0683573 -0.0209577 -0.406535
-0.0793824 -0.0210383 -0.406546
-0.0904926 -0.0211194 -0.406556
-0.0979471 -0.0211739 -0.406563
-0.109201 -0.0212561 -0.406574
-0.120543 -0.0213389 -0.406585
-0.128154 -0.0213945 -0.406592
-0.139644 -0.0214784 -0.406602
-0.151225 -0.021563 -0.406614
-0.158996 -0.0216198 -0.406621
-0.15444 -0.0212115 -0.423913
-0.165885 -0.0209533 -0.439681
0.184856 -0.0306686 0.383955
0.184818 -0.0299691 0.345819
0.184782 -0.0293007 0.309383
0.184747 -0.0286616 0.274538
0.184714 -0.0280497 0.24118
0.181152 -0.027895 0.231547
0.171608 -0.0278885 0.227965
0.161454 -0.0279512 0.227955
0.151254 -0.0280143 0.227946
0.141007 -0.0280776 0.227936
0.130715 -0.0281412 0.227926
0.120375 -0.0282051 0.227916
0.109989 -0.0282693 0.227907
0.0995549 -0.0283338 0.227897
0.0890733 -0.0283986 0.227887
0.184271 -0.0193648 -0.232294
0.184256 -0.0190834 -0.247631
-0.154448 -0.0145259 -0.434502
0.184856 -0.0195164 0.383955
0.184818 -0.0190712 0.345819
0.184782 -0.0186459 0.309383
0.184747 -0.0182392 0.274538
0.184714 -0.0178498 0.24118
0.181152 -0.0177514 0.231547
0.171608 -0.0177472 0.227965
0.161454 -0.0177871 0.227955
0.151254 -0.0178273 0.227946
0.141007 -0.0178676 0.227936
0.130715 -0.017908 0.227926
0.120375 -0.0179487 0.227916
0.109989 -0.0179896 0.227907
0.0995549 -0.0180306 0.227897
0.0890733 -0.0180718 0.227887
0.184271 -0.012323 -0.232294
0.184256 -0.012144 -0.247631
0.184242 -0.0119701 -0.26253
0.184228 -0.0118011 -0.277007
0.184215 -0.0116368 -0.291081
0.184201 -0.0114771 -0.304769
0.184188 -0.0113216 -0.318086
0.184176 -0.0111703 -0.331047
0.184164 -0.011023 -0.343667
0.184152 -0.0108796 -0.355957
0.18414 -0.0107398 -0.367932
0.184129 -0.0106035 -0.379604
0.184118 -0.0104707 -0.390982
0.184107 -0.0103412 -0.40208
0.176121 -0.0103234 -0.406303
0.171546 -0.010161 -0.421756
0.171535 -0.0100454 -0.431661
0.170912 -0.00995789 -0.439363
0.161963 -0.0099931 -0.439371
0.141983 -0.0104576 -0.406337
0.129347 -0.0105073 -0.406349
0.119792 -0.0105449 -0.406358
0.110168 -0.0105828 -0.406367
0.100474 -0.0106209 -0.406376
0.0907108 -0.0106593 -0.406385
0.0808763 -0.010698 -0.406394
0.0709702 -0.0107369 -0.406404
0.0609917 -0.0107762 -0.406413
0.05094 -0.0108157 -0.406423
0.0408144 -0.0108555 -0.406432
0.0306138 -0.0108957 -0.406442
0.0203375 -0.0109361 -0.406451
0.00998482 -0.0109768 -0.406461
-0.000445396 -0.0110178 -0.406471
-0.0109538 -0.0110592 -0.406481
-0.0180033 -0.0110869 -0.406488
-0.0286441 -0.0111287 -0.406498
-0.0393656 -0.0111709 -0.406508
-0.0501686 -0.0112134 -0.406518
-0.0610541 -0.0112562 -0.406528
-0.0683573 -0.0112849 -0.406535
-0.0793824 -0.0113283 -0.406546
-0.0904927 -0.011372 -0.406556
-0.0979472 -0.0114013 -0.406563
-0.109201 -0.0114456 -0.406574
-0.120543 -0.0114902 -0.406584
-0.128154 -0.0115201 -0.406592
-0.139644 -0.0115653 -0.406602
-0.151225 -0.0116109 -0.406613
-0.158997 -0.0116414 -0.40662
-0.15444 -0.0114216 -0.423912
-0.165885 -0.0112826 -0.439681
0.184856 -0.00836417 0.383955
0.184818 -0.00817339 0.345819
0.184782 -0.00799112 0.309383
0.184747 -0.00781681 0.274538
0.184714 -0.00764993 0.24118
0.181152 -0.00760775 0.231547
0.171608 -0.00760596 0.227965
0.161454 -0.00762307 0.227955
0.151254 -0.00764027 0.227946
0.141007 -0.00765754 0.227936
0.130715 -0.00767489 0.227926
0.120375 -0.00769232 0.227916
0.109989 -0.00770982 0.227907
0.0995549 -0.00772741 0.227897
0.0890733 -0.00774508 0.227887
-0.154448 -0.00484198 -0.434502
0.184271 -0.00176045 -0.232294
0.184256 -0.00173487 -0.247631
0.184242 -0.00171003 -0.26253
0.184228 -0.00168588 -0.277007
0.184215 -0.00166242 -0.291081
0.184201 -0.00163959 -0.304769
0.184188 -0.00161738 -0.318086
0.184176 -0.00159577 -0.331047
0.184164 -0.00157473 -0.343667
0.184152 -0.00155423 -0.355957
0.18414 -0.00153426 -0.367932
0.184129 -0.0015148 -0.379604
0.184118 -0.00149583 -0.390982
0.184107 -0.00147732 -0.40208
0.176121 -0.00147478 -0.406303
0.171546 -0.00145158 -0.421756
0.171535 -0.00143506 -0.431662
0.170912 -0.00142256 -0.439363
0.161963 -0.00142759 -0.439371
0.141983 -0.00149396 -0.406337
0.129347 -0.00150106 -0.406348
0.119792 -0.00150642 -0.406357
0.110168 -0.00151183 -0.406367
0.100474 -0.00151728 -0.406376
0.0907107 -0.00152277 -0.406385
0.0808763 -0.00152829 -0.406394
0.0709702 -0.00153386 -0.406404
0.0609917 -0.00153946 -0.406413
0.05094 -0.00154511 -0.406423
0.0408143 -0.0015508 -0.406432
0.0306138 -0.00155653 -0.406442
0.0203375 -0.00156231 -0.406451
0.00998473 -0.00156812 -0.406461
-0.000445426 -0.00157398 -0.406471
-0.0109538 -0.00157989 -0.406481
-0.0180034 -0.00158385 -0.406488
-0.0286442 -0.00158983 -0.406498
-0.0393656 -0.00159585 -0.406508
-0.0501686 -0.00160192 -0.406518
-0.0610541 -0.00160804 -0.406528
-0.0683574 -0.00161214 -0.406535
-0.0793825 -0.00161834 -0.406546
-0.0904928 -0.00162458 -0.406556
-0.0979473 -0.00162877 -0.406563
-0.109201 -0.00163509 -0.406574
-0.120544 -0.00164147 -0.406584
-0.128154 -0.00164574 -0.406591
-0.139645 -0.0016522 -0.406602
-0.151225 -0.00165871 -0.406613
-0.158997 -0.00166307 -0.40662
-0.154436 -0.00164064 -0.41853
-0.165885 -0.00161181 -0.439681
0.184856 0.00278807 0.383955
0.184818 0.00272448 0.345819
0.184782 0.00266372 0.309383
0.184747 0.00260561 0.274538
0.184714 0.00254999 0.24118
0.181152 0.00253593 0.231547
0.171608 0.00253533 0.227965
0.161454 0.00254104 0.227955
0.151254 0.00254677 0.227946
0.141007 0.00255253 0.227936
0.130715 0.00255831 0.227926
0.120375 0.00256412 0.227916
0.109989 0.00256995 0.227907
0.0995549 0.00257582 0.227897
0.0890733 0.00258171 0.227887
-0.154444 0.0048683 -0.429236
-0.154483 0.00481616 -0.43967
0.184856 0.0139403 0.383955
0.184818 0.0136223 0.345819
0.184782 0.0133185 0.309383
0.184747 0.013028 0.274538
0.184714 0.0127499 0.24118
0.181152 0.0126796 0.231547
0.171608 0.0126766 0.227965
0.161454 0.0127051 0.227955
0.151254 0.0127338 0.227946
0.141007 0.0127626 0.227936
0.130715 0.0127915 0.227926
0.120375 0.0128205 0.227916
0.109989 0.0128497 0.227907
0.0995549 0.012879 0.227897
0.0890733 0.0129085 0.227887
0.184271 0.00880217 -0.232294
0.184256 0.0086743 -0.247631
0.184242 0.00855008 -0.26253
0.184228 0.00842938 -0.277007
0.184215 0.00831203 -0.291081
0.184201 0.0081979 -0.304769
0.184188 0.00808687 -0.318086
0.184176 0.0079788 -0.331047
0.184164 0.00787359 -0.343667
0.184152 0.00777111 -0.355957
0.18414 0.00767127 -0.367932
0.184129 0.00757396 -0.379604
0.129347 0.00750524 -0.406348
0.119792 0.00753208 -0.406357
0.110168 0.00755912 -0.406366
0.100474 0.00758635 -0.406376
0.0907106 0.00761378 -0.406385
0.0808763 0.00764141 -0.406394
0.0709701 0.00766924 -0.406403
0.0609917 0.00769728 -0.406413
0.0509399 0.00772552 -0.406422
0.0408143 0.00775396 -0.406432
0.0306137 0.00778262 -0.406442
0.0203374 0.00781149 -0.406451
0.0099847 0.00784058 -0.406461
-0.000445515 0.00786988 -0.406471
-0.0109539 0.0078994 -0.406481
-0.0180035 0.00791921 -0.406487
-0.0286442 0.0079491 -0.406498
-0.0393657 0.00797922 -0.406508
-0.0501687 0.00800957 -0.406518
-0.0610542 0.00804016 -0.406528
-0.0683576 0.00806067 -0.406535
-0.0793826 0.00809165 -0.406545
-0.0904928 0.00812286 -0.406556
-0.0979476 0.00814381 -0.406562
-0.109202 0.00817543 -0.406573
-0.120544 0.00820729 -0.406584
-0.128154 0.00822867 -0.406591
-0.139645 0.00826095 -0.406602
-0.151225 0.00829349 -0.406613
-0.158997 0.00831532 -0.40662
-0.154436 0.00820314 -0.41853
-0.165885 0.00805899 -0.439681
0.184118 0.0104707 -0.390982
0.184107 0.0103412 -0.40208
0.176121 0.0103233 -0.406303
0.171546 0.0101609 -0.421757
0.171535 0.0100453 -0.431662
0.170912 0.00995787 -0.439363
0.161963 0.00999308 -0.439371
0.141983 0.0104576 -0.406336
0.184856 0.0250925 0.383955
0.184818 0.0245201 0.345819
0.184782 0.0239733 0.309383
0.184747 0.0234504 0.274538
0.184714 0.0229498 0.24118
0.176668 0.0227922 0.22797
0.166537 0.0228435 0.22796
0.15636 0.0228949 0.22795
0.146136 0.0229466 0.227941
0.135867 0.0229986 0.227931
0.125551 0.0230507 0.227921
0.115188 0.0231031 0.227911
0.104778 0.0231558 0.227902
0.0943201 0.0232087 0.227892
0.0838145 0.0232618 0.227882
-0.154444 0.014605 -0.429236
-0.154483 0.0144485 -0.43967
0.0732606 0.0284964 0.227872
0.17888 0.0192584 -0.239915
0.178867 0.0189864 -0.254742
0.179052 0.0187059 -0.269965
0.179474 0.0184142 -0.285722
0.179883 0.0181314 -0.300996
0.18028 0.0178572 -0.315807
0.180665 0.0175911 -0.330177
-0.0322091 0.0175101 -0.406501
-0.0393657 0.0175543 -0.406507
-0.0501687 0.0176211 -0.406518
-0.0610542 0.0176884 -0.406528
-0.0683576 0.0177335 -0.406535
-0.079383 0.0178016 -0.406545
-0.0904932 0.0178703 -0.406555
-0.0979477 0.0179164 -0.406562
-0.109202 0.017986 -0.406573
-0.120544 0.0180561 -0.406584
-0.128154 0.0181031 -0.406591
-0.139645 0.0181741 -0.406602
-0.151226 0.0182457 -0.406612
-0.158997 0.0182937 -0.40662
-0.154436 0.0180469 -0.418529
-0.165885 0.0177298 -0.439681
0.184856 0.0362447 0.383955
0.184818 0.035418 0.345819
0.184782 0.0346281 0.309383
0.184747 0.0338728 0.274538
0.184714 0.0331497 0.24118
0.181152 0.0329668 0.231547
0.171608 0.0329591 0.227965
0.161454 0.0330333 0.227955
0.151254 0.0331078 0.227946
0.141007 0.0331826 0.227936
0.130715 0.0332578 0.227926
0.120375 0.0333333 0.227916
0.109989 0.0334092 0.227907
0.0995549 0.0334854 0.227897
0.0890733 0.033562 0.227887
0.184271 0.0228856 -0.232294
0.178784 0.0204198 -0.34786
0.178773 0.0201607 -0.359812
0.178763 0.0199081 -0.371465
0.178753 0.0196617 -0.382829
0.178743 0.0194214 -0.393916
0.178731 0.0191871 -0.404725
0.169979 0.0192168 -0.406309
0.171546 0.0188703 -0.421757
0.171535 0.0186556 -0.431662
0.170912 0.0184932 -0.439363
0.161963 0.0185586 -0.439371
0.141983 0.0194213 -0.406336
0.129347 0.0195136 -0.406348
0.119792 0.0195834 -0.406357
0.110168 0.0196537 -0.406366
0.100474 0.0197245 -0.406375
0.0907106 0.0197958 -0.406385
0.0808762 0.0198677 -0.406394
0.0709701 0.01994 -0.406403
0.0609917 0.0200129 -0.406413
0.0509399 0.0200863 -0.406422
0.0408142 0.0201603 -0.406432
0.0306137 0.0202348 -0.406441
0.0203374 0.0203099 -0.406451
0.00998461 0.0203855 -0.406461
-0.000445515 0.0204617 -0.406471
-0.0109539 0.0205384 -0.406481
-0.0180035 0.0205899 -0.406487
-0.154444 0.0243416 -0.429236
-0.154483 0.0240809 -0.43967
0.184856 0.0473969 0.383955
0.184818 0.0463158 0.345819
0.184782 0.0452829 0.309383
0.184747 0.0442952 0.274538
0.184714 0.0433495 0.24118
0.181152 0.0431105 0.231547
0.171608 0.0431003 0.227965
0.161454 0.0431973 0.227955
0.151254 0.0432948 0.227946
0.141007 0.0433926 0.227936
0.130715 0.0434909 0.227926
0.120375 0.0435897 0.227916
0.109989 0.0436889 0.227907
0.0995549 0.0437886 0.227897
0.0890733 0.0438887 0.227887
0.184256 0.0294926 -0.247631
0.184242 0.0290703 -0.26253
0.184228 0.0286598 -0.277007
0.184215 0.0282609 -0.291081
0.184201 0.0278728 -0.304769
-0.079383 0.0275116 -0.406545
-0.0904932 0.0276177 -0.406555
-0.0979477 0.0276889 -0.406562
-0.109202 0.0277964 -0.406573
-0.120544 0.0279048 -0.406584
-0.128154 0.0279775 -0.406591
-0.139645 0.0280872 -0.406602
-0.151226 0.0281978 -0.406612
-0.158997 0.0282721 -0.40662
-0.154436 0.0278907 -0.418529
0.184856 0.052973 0.383955
0.184271 0.0334483 -0.232294
0.184188 0.0307301 -0.318086
0.184176 0.0303194 -0.331047
0.184164 0.0299196 -0.343667
0.184152 0.0295302 -0.355957
0.18414 0.0291508 -0.367932
0.184129 0.028781 -0.379604
0.184118 0.0284205 -0.390982
0.184107 0.0280689 -0.40208
0.176121 0.0280206 -0.406303
0.171546 0.0275797 -0.421758
0.141982 0.028385 -0.406336
0.129347 0.0285199 -0.406348
0.119792 0.0286219 -0.406357
0.110168 0.0287247 -0.406366
0.100474 0.0288281 -0.406375
0.0907106 0.0289324 -0.406385
0.0808761 0.0290374 -0.406394
0.0709701 0.0291431 -0.406403
0.0609916 0.0292496 -0.406413
0.0509399 0.029357 -0.406422
0.0408142 0.0294651 -0.406432
0.0306136 0.029574 -0.406441
0.0203373 0.0296837 -0.406451
0.00998461 0.0297942 -0.406461
-0.000445604 0.0299055 -0.406471
-0.010954 0.0300177 -0.406481
-0.0180036 0.030093 -0.406487
-0.0286444 0.0302066 -0.406497
-0.0393658 0.030321 -0.406507
-0.050169 0.0304364 -0.406517
-0.0610546 0.0305526 -0.406527
-0.0683579 0.0306306 -0.406534
-0.165885 0.0306241 -0.439681
0.184818 0.0572136 0.345819
0.184782 0.0559378 0.309383
0.184747 0.0547175 0.274538
0.184714 0.0535494 0.24118
0.181152 0.0532541 0.231547
0.171608 0.0532416 0.227965
0.161454 0.0533614 0.227955
0.151254 0.0534818 0.227946
0.141007 0.0536027 0.227936
0.130715 0.0537241 0.227926
0.120375 0.0538461 0.227916
0.109989 0.0539687 0.227907
0.0995549 0.0540918 0.227897
0.0890733 0.0542155 0.227887
0.171535 0.030136 -0.431663
0.170912 0.0298737 -0.439363
0.161963 0.0299793 -0.439371
-0.154445 0.0340782 -0.429235
-0.154483 0.0337132 -0.43967
0.182823 0.0632197 0.359664
0.184256 0.0399018 -0.247631
0.184242 0.0393304 -0.26253
0.184228 0.0387751 -0.277007
0.184215 0.0382353 -0.291081
0.184201 0.0377103 -0.304769
-0.101689 0.0375099 -0.406566
-0.109202 0.037607 -0.406573
-0.120544 0.0377535 -0.406583
-0.128154 0.0378519 -0.406591
-0.139645 0.0380004 -0.406601
-0.151226 0.0381501 -0.406612
-0.158996 0.0382504 -0.40662
-0.154436 0.0377345 -0.418529
0.184856 0.0697013 0.383955
0.179445 0.0681757 0.345543
0.17941 0.0666882 0.309862
0.17989 0.0651186 0.272386
0.181152 0.0633978 0.231547
0.171608 0.0633828 0.227965
0.161454 0.0635255 0.227955
0.151254 0.0636688 0.227946
0.141007 0.0638127 0.227936
0.130715 0.0639573 0.227926
0.120375 0.0641025 0.227916
0.109989 0.0642484 0.227907
0.0995549 0.064395 0.227897
0.0890733 0.0645422 0.227887
0.184271 0.0440108 -0.232294
0.184188 0.0404343 -0.318086
0.184176 0.039894 -0.331047
0.184164 0.0393679 -0.343667
0.184152 0.0388555 -0.355957
0.18414 0.0383563 -0.367932
0.184129 0.0378698 -0.379604
0.129347 0.0375261 -0.406348
0.119792 0.0376604 -0.406357
0.110168 0.0377956 -0.406366
0.100474 0.0379317 -0.406375
0.0907105 0.0380689 -0.406384
0.0808761 0.038207 -0.406394
0.07097 0.0383462 -0.406403
0.0609915 0.0384864 -0.406413
0.0509398 0.0386275 -0.406422
0.0408141 0.0387698 -0.406432
0.0306136 0.0389131 -0.406441
0.0203373 0.0390574 -0.406451
0.00998452 0.0392029 -0.406461
-0.000445634 0.0393494 -0.406471
-0.0109541 0.039497 -0.40648
-0.0180036 0.039596 -0.406487
-0.0286447 0.0397455 -0.406497
-0.0393662 0.0398961 -0.406507
-0.0501691 0.0400479 -0.406517
-0.0610546 0.0402008 -0.406527
-0.068358 0.0403034 -0.406534
-0.0793831 0.0404582 -0.406545
-0.0904934 0.0406143 -0.406555
-0.165885 0.0402949 -0.439681
0.179346 0.0690118 0.242976
0.184118 0.040387 -0.390982
0.184107 0.0398874 -0.40208
0.176121 0.0398187 -0.406303
0.171546 0.0391922 -0.421758
0.171535 0.0387463 -0.431663
0.170912 0.038409 -0.439363
0.161963 0.0385448 -0.439371
0.141982 0.0403366 -0.406336
-0.154445 0.0438149 -0.429235
-0.154483 0.0433456 -0.43967
0.184856 0.0808536 0.383955
0.184818 0.0790094 0.345819
0.184782 0.0772474 0.309383
0.184747 0.0755624 0.274538
0.181152 0.0735415 0.231547
0.171608 0.0735242 0.227965
0.161454 0.0736896 0.227955
0.151254 0.0738558 0.227946
0.141007 0.0740228 0.227936
0.130715 0.0741905 0.227926
0.120375 0.074359 0.227916
0.109989 0.0745282 0.227907
0.0995549 0.0746982 0.227897
0.0890733 0.074869 0.227887
0.184256 0.0503109 -0.247631
0.184242 0.0495905 -0.26253
0.184228 0.0488904 -0.277007
0.184215 0.0482098 -0.291081
0.184201 0.0475478 -0.304769
-0.116753 0.0475405 -0.40658
-0.124344 0.0476642 -0.406587
-0.135805 0.047851 -0.406598
-0.143495 0.0479763 -0.406605
-0.155106 0.0481655 -0.406617
-0.154432 0.0478414 -0.413087
0.184782 0.0825748 0.309383
0.184714 0.0790492 0.24118
0.184271 0.0545734 -0.232294
0.184188 0.0501386 -0.318086
0.184176 0.0494686 -0.331047
0.184164 0.0488162 -0.343667
0.184152 0.0481809 -0.355957
0.18414 0.0475618 -0.367932
0.07097 0.0475493 -0.406403
0.0609915 0.0477231 -0.406412
0.0509398 0.0478982 -0.406422
0.0408141 0.0480746 -0.406431
0.0306135 0.0482522 -0.406441
0.0203372 0.0484312 -0.406451
0.00998446 0.0486116 -0.406461
-0.000445724 0.0487932 -0.40647
-0.0109543 0.0489763 -0.40648
-0.0180039 0.0490991 -0.406487
-0.0286447 0.0492845 -0.406497
-0.0393662 0.0494712 -0.406507
-0.0501692 0.0496594 -0.406517
-0.0610547 0.049849 -0.406527
-0.068358 0.0499762 -0.406534
-0.0793831 0.0501682 -0.406545
-0.0904934 0.0503618 -0.406555
-0.0979479 0.0504916 -0.406562
-0.165885 0.0499657 -0.439681
0.184856 0.0920057 0.383955
0.184818 0.0899072 0.345819
0.184747 0.0859848 0.274538
0.181152 0.0836851 0.231547
0.171608 0.0836654 0.227965
0.161454 0.0838537 0.227955
0.151254 0.0840428 0.227946
0.141007 0.0842328 0.227936
0.130715 0.0844237 0.227926
0.120375 0.0846154 0.227916
0.109989 0.084808 0.227907
0.0995551 0.0850014 0.227896
0.0890737 0.0851957 0.227885
0.184129 0.0499881 -0.379604
0.184118 0.049362 -0.390982
0.184107 0.0487513 -0.40208
0.176121 0.0486673 -0.406303
0.171547 0.0479016 -0.421759
0.141982 0.0493003 -0.406336
0.129347 0.0495346 -0.406348
0.119792 0.0497117 -0.406357
0.110167 0.0498902 -0.406366
0.100474 0.0500699 -0.406375
0.0907105 0.050251 -0.406384
0.0808761 0.0504333 -0.406394
-0.154441 0.0538446 -0.423911
-0.154449 0.0532618 -0.434501
0.184856 0.0975818 0.383955
0.184782 0.0932296 0.309383
0.184714 0.0892491 0.24118
0.184256 0.06072 -0.247631
0.184242 0.0598505 -0.26253
0.184228 0.0590056 -0.277007
0.184215 0.0581841 -0.291081
0.171535 0.0502266 -0.431664
0.170912 0.0497894 -0.439363
0.161963 0.0499655 -0.439371
-0.124344 0.0575258 -0.406587
-0.135805 0.0577511 -0.406598
-0.143495 0.0579024 -0.406605
-0.155106 0.0581307 -0.406617
-0.154432 0.0577397 -0.413087
0.184818 0.100805 0.345819
0.184747 0.0964072 0.274538
0.181152 0.0938287 0.231547
0.171608 0.0938067 0.227965
0.161454 0.0940178 0.227955
0.151254 0.0942298 0.227946
0.141007 0.0944428 0.227936
0.130715 0.0946568 0.227926
0.120376 0.0948717 0.227915
0.109989 0.0950876 0.227904
0.0995556 0.0953044 0.227894
0.0890739 0.0955223 0.227884
0.0785443 0.0957412 0.227874
0.184201 0.0606645 -0.304769
0.184188 0.0598428 -0.318086
0.184176 0.0590431 -0.331047
0.184164 0.0582645 -0.343667
0.184152 0.0575062 -0.355958
0.034022 0.0575205 -0.406438
0.0271964 0.0576624 -0.406444
0.0168949 0.0578766 -0.406454
0.00651613 0.0580924 -0.406463
-0.00393996 0.0583098 -0.406473
-0.0144747 0.0585288 -0.406483
-0.0250889 0.0587495 -0.406493
-0.0357833 0.0589718 -0.406503
-0.0429581 0.059121 -0.40651
-0.0537885 0.0593461 -0.40652
-0.0647018 0.059573 -0.406531
-0.0756988 0.0598016 -0.406541
-0.083077 0.059955 -0.406548
-0.0942159 0.0601866 -0.406558
-0.105441 0.06042 -0.406569
-0.112973 0.0605766 -0.406576
-0.165885 0.0596365 -0.439681
0.17791 0.112099 0.433339
0.179481 0.10878 0.382852
0.184782 0.103884 0.309383
0.184714 0.099449 0.24118
0.17888 0.0682796 -0.239915
0.18414 0.0598359 -0.367932
0.184129 0.0590768 -0.379604
0.184118 0.0583368 -0.390982
0.184107 0.0576151 -0.40208
0.176121 0.0575159 -0.406303
0.141982 0.0582639 -0.406336
0.129347 0.0585408 -0.406348
0.119792 0.0587502 -0.406357
0.110167 0.0589611 -0.406366
0.100474 0.0591735 -0.406375
0.0907104 0.0593875 -0.406384
0.080876 0.059603 -0.406394
0.0709699 0.0598201 -0.406403
0.0609914 0.0600387 -0.406412
0.0509397 0.060259 -0.406422
-0.154441 0.0636345 -0.423911
-0.154449 0.0629457 -0.434501
0.179509 0.117034 0.42197
0.179441 0.11181 0.34557
0.181152 0.103972 0.231547
0.171608 0.103948 0.227965
0.161454 0.104182 0.227955
0.151254 0.104417 0.227945
0.141008 0.104653 0.227934
0.130715 0.10489 0.227923
0.120376 0.105128 0.227913
0.109989 0.105367 0.227903
0.0995556 0.105608 0.227894
0.0890739 0.105849 0.227884
0.184271 0.0721778 -0.232294
0.184256 0.0711292 -0.247631
0.184242 0.0701106 -0.26253
0.184228 0.0691208 -0.277007
0.178842 0.0688235 -0.283175
0.178829 0.067891 -0.296813
0.171547 0.0595141 -0.421759
0.171535 0.0588369 -0.431664
0.170912 0.0583248 -0.439363
0.161963 0.058531 -0.439371
-0.131975 0.0675631 -0.406594
-0.139645 0.0677398 -0.406601
-0.151225 0.0680066 -0.406613
-0.154432 0.0676379 -0.413086
0.179509 0.122743 0.42197
0.179472 0.119942 0.382914
0.179403 0.114707 0.309911
0.179376 0.112255 0.275715
0.179346 0.109908 0.242974
0.184201 0.0705019 -0.304769
0.184188 0.069547 -0.318086
0.178795 0.0684217 -0.335597
0.178784 0.0675424 -0.34786
0.00651613 0.0675128 -0.406463
-0.00394002 0.0677654 -0.406473
-0.0144747 0.0680199 -0.406483
-0.0250889 0.0682764 -0.406493
-0.0357833 0.0685348 -0.406503
-0.0429581 0.0687081 -0.40651
-0.0537885 0.0689698 -0.40652
-0.0647018 0.0692335 -0.406531
-0.0756988 0.0694992 -0.406541
-0.0830771 0.0696774 -0.406548
-0.0942159 0.0699466 -0.406558
-0.105441 0.0702178 -0.406569
-0.112973 0.0703998 -0.406576
-0.165885 0.0693072 -0.439681
0.179437 0.122721 0.345599
0.179316 0.112664 0.211583
0.171046 0.112096 0.20122
0.161613 0.112097 0.19805
0.15218 0.112098 0.194881
0.120667 0.119275 0.27985
0.110633 0.119275 0.276459
0.100599 0.119275 0.273068
0.0905654 0.119275 0.269677
0.0805319 0.119275 0.266285
0.184271 0.0792195 -0.232294
0.184256 0.0780686 -0.247631
0.178773 0.069787 -0.359812
0.178763 0.0689126 -0.371465
0.178753 0.0680598 -0.382829
0.129347 0.0675471 -0.406348
0.119792 0.0677887 -0.406357
0.110167 0.0680321 -0.406366
0.100474 0.0682772 -0.406375
0.0907104 0.0685241 -0.406384
0.080876 0.0687727 -0.406393
0.0709699 0.0690232 -0.406403
0.0609914 0.0692755 -0.406412
0.0509397 0.0695297 -0.406422
0.0408138 0.0697857 -0.406431
0.0306133 0.0700436 -0.406441
0.020337 0.0703035 -0.40645
-0.154441 0.0734244 -0.423911
-0.154449 0.0726297 -0.434501
0.179403 0.125378 0.309913
0.17937 0.122701 0.275751
0.179339 0.120135 0.243018
0.179284 0.115311 0.18147
0.17926 0.113041 0.152507
0.176669 0.112096 0.139572
0.163122 0.112097 0.135016
0.154091 0.112099 0.131981
0.145059 0.1121 0.128946
0.118537 0.119276 0.211517
0.10893 0.119276 0.20827
0.0993234 0.119276 0.205024
0.0897165 0.119275 0.201778
0.184242 0.0803707 -0.26253
0.184228 0.0792361 -0.277007
0.184215 0.078133 -0.291081
0.184107 0.0694337 -0.40208
0.176121 0.069314 -0.406303
0.171547 0.0682234 -0.421759
0.141982 0.0702156 -0.406336
-0.135805 0.0775516 -0.406598
-0.143495 0.0777547 -0.406605
-0.155106 0.0780612 -0.406617
-0.154432 0.0775362 -0.413086
0.179309 0.122682 0.211625
0.179232 0.115578 0.124686
0.179208 0.11339 0.0979049
0.177502 0.112096 0.0815015
0.16884 0.112097 0.0785856
0.160177 0.112098 0.0756721
0.151514 0.112099 0.0727602
0.121189 0.119276 0.150318
0.111974 0.119276 0.147204
0.184201 0.0803394 -0.304769
0.184188 0.0792513 -0.318086
0.184176 0.0781922 -0.331047
0.171536 0.0703172 -0.431665
0.170912 0.0697052 -0.439363
0.161963 0.0699517 -0.439371
-0.0144747 0.0775111 -0.406483
-0.0250889 0.0778033 -0.406493
-0.0357834 0.0780978 -0.406503
-0.0429581 0.0782953 -0.40651
-0.0537886 0.0785935 -0.40652
-0.0647018 0.078894 -0.406531
-0.0756988 0.0791968 -0.406541
-0.0830771 0.0793999 -0.406548
-0.0942159 0.0797066 -0.406558
-0.105441 0.0800156 -0.406569
-0.112973 0.080223 -0.406576
-0.124344 0.0805361 -0.406587
-0.165885 0.078978 -0.439681
0.179281 0.125127 0.181492
0.179253 0.122665 0.152545
0.179183 0.115826 0.0721263
0.179159 0.113713 0.0472864
0.17827 0.112097 0.0279852
0.169947 0.112098 0.025183
0.161625 0.112099 0.0223808
0.149139 0.1121 0.018183
0.140816 0.112101 0.0153846
0.119206 0.119276 0.0924236
0.184271 0.0897821 -0.232294
0.184256 0.0884778 -0.247631
0.184164 0.0803106 -0.343667
0.184152 0.0792653 -0.355958
0.18414 0.0782469 -0.367932
0.0939727 0.0775671 -0.406381
0.0874401 0.0777543 -0.406387
0.0742799 0.0781315 -0.406399
0.0643256 0.0784167 -0.406409
0.0542983 0.0787041 -0.406418
0.0441974 0.0789935 -0.406428
0.037422 0.0791877 -0.406434
0.0271963 0.0794807 -0.406444
0.0168946 0.0797759 -0.406453
0.00651607 0.0800733 -0.406463
-0.00394002 0.080373 -0.406473
-0.154441 0.0832144 -0.423911
0.179227 0.125016 0.124715
0.179202 0.12265 0.0979391
0.179114 0.114014 0.000230551
0.17898 0.112098 -0.0214928
0.170971 0.112098 -0.0241895
0.158958 0.112099 -0.0282347
0.150949 0.1121 -0.0309291
0.184242 0.0906308 -0.26253
0.184228 0.0893513 -0.277007
0.184215 0.0881074 -0.291081
0.184129 0.0802839 -0.379604
0.184118 0.0792783 -0.390982
0.184107 0.0782975 -0.40208
0.176121 0.0781626 -0.406303
0.141982 0.0791792 -0.406336
0.129347 0.0795555 -0.406348
0.119792 0.0798401 -0.406357
0.110167 0.0801267 -0.406366
-0.139645 0.0875661 -0.406601
-0.151225 0.0879109 -0.406613
-0.15445 0.0855417 -0.434501
0.179177 0.124913 0.0721577
0.179153 0.122635 0.0473167
0.179131 0.120438 0.0233637
0.179072 0.114294 -0.0436257
0.179052 0.112384 -0.0644553
0.17192 0.112099 -0.0699718
0.160344 0.1121 -0.0738703
0.184201 0.0901769 -0.304769
0.184188 0.0889555 -0.318086
0.184176 0.0877668 -0.331047
0.171547 0.0798358 -0.42176
0.171536 0.0789274 -0.431665
0.170912 0.0782406 -0.439363
0.161963 0.0785172 -0.439371
-0.0322096 0.0875504 -0.4065
-0.0393663 0.0877715 -0.406507
-0.0501693 0.0881054 -0.406517
-0.0610548 0.0884418 -0.406527
-0.0683582 0.0886675 -0.406534
-0.0793833 0.0890082 -0.406544
-0.0904935 0.0893516 -0.406555
-0.097948 0.0895819 -0.406562
-0.109202 0.0899297 -0.406572
-0.120544 0.0902802 -0.406583
-0.128155 0.0905154 -0.40659
-0.154432 0.0907338 -0.413086
-0.165885 0.0886488 -0.439681
0.179109 0.122622 0.000257611
0.17909 0.1205 -0.022061
0.179033 0.114556 -0.0845984
0.179014 0.112703 -0.104091
0.172803 0.112099 -0.112541
0.165356 0.1121 -0.115049
0.184271 0.100345 -0.232294
0.184256 0.0988869 -0.247631
0.184164 0.0897589 -0.343667
0.184152 0.0885906 -0.355958
0.0676517 0.0875357 -0.406406
0.0609913 0.087749 -0.406412
0.0509395 0.0880709 -0.406421
0.0408138 0.0883952 -0.406431
0.0306133 0.0887219 -0.406441
0.020337 0.089051 -0.40645
0.00998417 0.0893826 -0.40646
-0.000446051 0.0897167 -0.40647
-0.0109544 0.0900532 -0.40648
-0.018004 0.090279 -0.406486
-0.154441 0.0930043 -0.42391
0.179131 0.129198 0.0233656
0.179067 0.122609 -0.0436019
0.17905 0.120558 -0.0644472
0.178996 0.114801 -0.122962
0.178979 0.113002 -0.141244
0.177223 0.112099 -0.151014
0.184242 0.100891 -0.26253
0.184228 0.0994666 -0.277007
0.184215 0.0980819 -0.291081
0.18414 0.0905209 -0.367932
0.184129 0.0893727 -0.379604
0.184118 0.0882532 -0.390982
0.141982 0.088143 -0.406336
0.129347 0.0885618 -0.406347
0.119792 0.0888786 -0.406356
0.110167 0.0891977 -0.406366
0.100474 0.089519 -0.406375
0.0907103 0.0898427 -0.406384
0.0808758 0.0901687 -0.406393
-0.0575511 0.0941672 -0.412525
-0.069634 0.0941669 -0.416609
-0.0786961 0.0941667 -0.419672
-0.0877581 0.0941665 -0.422735
-0.0998408 0.0941662 -0.42682
-0.108903 0.094166 -0.429883
-0.117965 0.0941657 -0.432946
-0.130047 0.0941654 -0.437031
-0.13942 0.0942187 -0.439655
-0.150703 0.0945928 -0.439666
0.179088 0.128957 -0.0220512
0.179029 0.122597 -0.084579
0.178961 0.115031 -0.158959
0.178945 0.113283 -0.176139
0.177874 0.1121 -0.188135
0.170915 0.1121 -0.190479
0.184201 0.100014 -0.304769
0.184188 0.0986597 -0.318086
0.184107 0.090116 -0.40208
0.176121 0.0899607 -0.406303
0.171547 0.0885451 -0.42176
0.171536 0.0875376 -0.431665
0.0337277 0.0941671 -0.413063
0.0249626 0.0941669 -0.416026
0.0161974 0.0941667 -0.418989
0.00743225 0.0941665 -0.421952
-0.00425348 0.094166 -0.425904
-0.0130172 0.0941655 -0.428869
-0.024702 0.0941648 -0.432823
-0.0334655 0.0941643 -0.435788
-0.0452532 0.094185 -0.439566
-0.055799 0.0945465 -0.439576
-0.0628746 0.094789 -0.439583
-0.0735563 0.0951551 -0.439593
-0.0843208 0.095524 -0.439603
-0.0951691 0.0958958 -0.439614
-0.106102 0.0962706 -0.439624
-0.158274 0.0980587 -0.439673
-0.169706 0.0984505 -0.439685
0.179047 0.128733 -0.0644318
0.17901 0.124569 -0.104071
0.178994 0.122585 -0.122952
0.178914 0.113548 -0.208976
0.178483 0.1121 -0.2229
0.178882 0.110297 -0.239923
0.178867 0.10874 -0.254741
0.184176 0.100533 -0.331047
0.184164 0.0992072 -0.343667
0.184152 0.097916 -0.355958
0.170912 0.089621 -0.439363
0.161963 0.0899379 -0.439371
0.122041 0.0941669 -0.412613
0.110726 0.0941663 -0.416441
0.10224 0.0941658 -0.419312
0.0909249 0.0941652 -0.423141
0.082439 0.0941647 -0.426012
0.0711246 0.094164 -0.42984
0.0598103 0.0941634 -0.433668
0.0513248 0.0941629 -0.436539
0.039589 0.0942698 -0.439486
0.0296856 0.0946204 -0.439495
0.0197082 0.0949735 -0.439505
0.00965616 0.0953294 -0.439514
-0.000471622 0.0956879 -0.439524
-0.0106758 0.0960491 -0.439533
0.178975 0.124496 -0.141225
0.178961 0.122574 -0.158956
0.178929 0.118906 -0.192801
0.178855 0.11063 -0.269159
0.178841 0.109111 -0.283171
0.18414 0.0997265 -0.367932
0.184129 0.0984614 -0.379604
0.150086 0.0941627 -0.43075
0.141861 0.0941622 -0.433533
0.130895 0.0941616 -0.437243
0.12244 0.0942366 -0.439407
0.110031 0.0946898 -0.439419
0.100646 0.0950326 -0.439428
0.091192 0.0953778 -0.439437
0.0816693 0.0957256 -0.439446
0.072077 0.096076 -0.439455
-0.106102 0.102583 -0.439624
-0.113438 0.102851 -0.439631
-0.124515 0.103256 -0.439642
-0.135679 0.103664 -0.439652
-0.143171 0.103937 -0.439659
0.178942 0.124428 -0.176124
0.178898 0.119003 -0.224677
0.178829 0.110944 -0.296811
0.178816 0.109461 -0.310081
0.184118 0.10022 -0.390982
0.184107 0.0989799 -0.40208
0.176121 0.0988094 -0.406303
0.149932 0.0961012 -0.439381
-0.0209571 0.102534 -0.439544
-0.0278548 0.102794 -0.43955
-0.038267 0.103186 -0.43956
-0.0487592 0.103581 -0.43957
-0.0593319 0.103979 -0.43958
-0.0699861 0.10438 -0.43959
-0.080723 0.104784 -0.4396
-0.0879271 0.105056 -0.439607
-0.154483 0.107561 -0.43967
-0.165885 0.10799 -0.439681
0.178912 0.124363 -0.208968
0.178883 0.120801 -0.239929
0.178869 0.119095 -0.254753
0.178805 0.111242 -0.323004
0.178793 0.109794 -0.33559
0.179416 0.108085 -0.350229
0.171547 0.100158 -0.421761
0.171536 0.099018 -0.431666
0.170912 0.0981563 -0.439363
0.161963 0.0985034 -0.439371
0.0559329 0.102614 -0.439471
0.046151 0.102993 -0.43948
0.0362964 0.103375 -0.43949
0.0263684 0.10376 -0.439499
0.0163662 0.104148 -0.439508
0.00628904 0.104539 -0.439518
-0.00386411 0.104932 -0.439528
-0.176619 0.1121 -0.435608
0.178926 0.129884 -0.192787
0.178855 0.120841 -0.269162
0.178842 0.119182 -0.283177
0.178829 0.117567 -0.296812
0.178771 0.110109 -0.359804
0.178763 0.108729 -0.371464
0.13167 0.102567 -0.439399
0.122441 0.102935 -0.439408
0.110032 0.10343 -0.43942
0.100646 0.103805 -0.439429
0.0911923 0.104182 -0.439438
0.0816696 0.104562 -0.439447
0.0720773 0.104944 -0.439456
-0.141786 0.11263 -0.446805
-0.175769 0.113985 -0.446837
0.178895 0.129662 -0.224665
0.178881 0.127805 -0.239919
0.178816 0.119264 -0.310081
0.178804 0.117691 -0.323003
0.17875 0.110409 -0.38282
0.178742 0.109059 -0.393913
0.178731 0.107743 -0.404725
0.149932 0.104707 -0.439382
0.140833 0.10508 -0.439391
-0.0620246 0.112531 -0.44673
-0.0690888 0.112821 -0.446736
-0.0797538 0.113258 -0.446746
-0.0905019 0.113699 -0.446756
-0.0977138 0.113995 -0.446763
-0.108602 0.114441 -0.446773
-0.119577 0.114891 -0.446784
-0.130637 0.115345 -0.446794
0.178867 0.129453 -0.254742
0.178853 0.12765 -0.269153
0.178792 0.119342 -0.335586
0.178781 0.117808 -0.347848
0.171559 0.110134 -0.411626
0.171547 0.108867 -0.421761
0.171536 0.107628 -0.431666
0.0100176 0.112578 -0.446662
-4.16338e-05 0.113002 -0.446671
-0.0101769 0.113429 -0.446681
-0.020389 0.113859 -0.44669
-0.030679 0.114293 -0.4467
-0.0375826 0.114584 -0.446707
-0.0480042 0.115023 -0.446716
-0.149268 0.11929 -0.446812
-0.160565 0.119766 -0.446822
0.17884 0.129255 -0.283167
0.178827 0.127504 -0.296803
0.178769 0.119415 -0.359797
0.178759 0.117919 -0.371449
0.178718 0.112292 -0.415273
0.170912 0.109537 -0.439363
0.161963 0.109924 -0.439371
0.0783729 0.112622 -0.446598
0.072014 0.112898 -0.446603
0.0624171 0.113313 -0.446613
0.0495109 0.113871 -0.446625
0.0397474 0.114294 -0.446634
0.0299113 0.114719 -0.446643
0.0200016 0.115148 -0.446652
-0.168146 0.123288 -0.446829
0.178814 0.129068 -0.310073
0.178748 0.119486 -0.38281
0.178737 0.118025 -0.393896
0.178707 0.113851 -0.425579
0.178696 0.112525 -0.435645
0.146329 0.112531 -0.446534
0.137272 0.112933 -0.446542
0.125095 0.113474 -0.446554
0.115885 0.113883 -0.446562
0.106609 0.114294 -0.446571
0.0972652 0.114709 -0.44658
-0.0797538 0.122567 -0.446746
-0.0905019 0.123044 -0.446756
-0.0977138 0.123364 -0.446763
-0.108602 0.123847 -0.446773
-0.119577 0.124335 -0.446784
-0.130637 0.124826 -0.446794
-0.13806 0.125155 -0.446801
0.17879 0.12889 -0.335578
0.178727 0.119552 -0.404711
0.178717 0.118126 -0.415271
0.178686 0.114046 -0.445479
-0.0101769 0.122503 -0.446681
-0.020389 0.122968 -0.44669
-0.030679 0.123436 -0.4467
-0.0375826 0.123751 -0.446707
-0.0480042 0.124225 -0.446716
-0.0585059 0.124703 -0.446726
-0.0690888 0.125184 -0.446736
-0.149268 0.128834 -0.446812
-0.160565 0.129348 -0.446822
0.178767 0.128722 -0.359789
0.161282 0.117532 -0.446519
0.0527494 0.122593 -0.446622
0.0462644 0.122896 -0.446628
0.0364769 0.123352 -0.446637
0.0266162 0.123812 -0.446646
0.0166819 0.124275 -0.446656
0.00667295 0.124742 -0.446665
0.178746 0.128561 -0.382803
0.170169 0.119939 -0.446511
0.115885 0.122532 -0.446562
0.106609 0.122975 -0.446571
0.0972652 0.123421 -0.44658
0.0847009 0.124021 -0.446592
0.0751973 0.124475 -0.446601
0.0656239 0.124932 -0.446609
0.178735 0.129979 -0.393886
0.178725 0.128409 -0.404705
0.178706 0.125381 -0.425575
0.178696 0.12392 -0.435645
0.152332 0.123633 -0.446528
0.140298 0.124222 -0.446539
0.131198 0.124666 -0.446548
0.178714 0.129794 -0.415262
0.178686 0.12531 -0.445479
0.170169 0.128406 -0.446511
0.161282 0.12886 -0.446519
