ply
format ascii 1.0
comment Created by Open3D
element vertex 538
property double x
property double y
property double z
end_header
-0.166406 -0.115617 -0.000800431
-0.173048 -0.113427 0.0256212
-0.174572 -0.111978 0.0469559
-0.171301 -0.0922301 0.370286
-0.171271 -0.0910075 0.390071
-0.171242 -0.0898169 0.409337
-0.145456 -0.0914107 0.418332
-0.166888 -0.115511 -0.0651992
-0.172862 -0.113696 -0.0429021
-0.171363 -0.0915639 0.329078
-0.171331 -0.090317 0.349963
-0.167403 -0.115398 -0.134151
-0.17349 -0.113197 -0.104218
-0.162114 -0.103969 0.0709641
-0.16677 -0.115441 -0.209512
-0.174001 -0.112687 -0.169738
-0.184144 -0.0787392 0.426904
-0.168577 -0.115143 -0.287762
-0.173556 -0.113355 -0.261061
-0.17531 -0.111684 -0.232217
-0.179305 -0.100074 -0.0206875
-0.179477 -0.0989273 0.000509858
-0.166319 -0.115793 -0.385159
-0.169266 -0.114996 -0.37363
-0.173823 -0.113223 -0.345302
-0.175192 -0.111918 -0.321768
-0.179088 -0.102288 -0.139748
-0.179543 -0.0992279 -0.0808631
-0.17705 -0.0942678 0.018946
-0.17593 -0.0923406 0.0579283
-0.184317 -0.0787549 0.310809
-0.132218 -0.0761073 0.43247
-0.114364 -0.0773426 0.432497
-0.173193 -0.113207 -0.437805
-0.17506 -0.112173 -0.419371
-0.17826 -0.101594 -0.209204
-0.164892 -0.101654 -0.192421
-0.178903 -0.0972517 -0.122046
-0.177208 -0.0943399 -0.0607328
-0.174373 -0.0894694 0.0418251
-0.184413 -0.0786679 0.247278
-0.184372 -0.0773493 0.274064
-0.184356 -0.0767976 0.285271
-0.184225 -0.0724891 0.372792
-0.14951 -0.0718532 0.432444
-0.0864705 -0.076037 0.43254
-0.0670879 -0.0773234 0.432569
-0.0470382 -0.0786541 0.432599
0.144952 -0.0921792 0.417012
-0.179605 -0.100575 -0.280983
-0.184522 -0.0787735 0.174015
-0.184503 -0.0781761 0.186688
-0.18446 -0.0768169 0.215525
-0.184296 -0.0716557 0.32503
-0.184162 -0.0674372 0.414533
-0.0262864 -0.0766257 0.432631
-0.00479478 -0.0779914 0.432663
0.144917 -0.0893472 0.393876
0.165843 -0.0895014 0.418798
-0.179644 -0.101359 -0.39745
-0.179094 -0.0971095 -0.302552
-0.177734 -0.0947874 -0.249266
-0.175355 -0.0907196 -0.155926
-0.172348 -0.0855782 -0.0379475
-0.184635 -0.0786792 0.0983737
-0.184601 -0.0776456 0.121323
-0.184574 -0.0768381 0.139252
-0.18426 -0.0673783 0.349292
-0.166267 -0.0647206 0.432419
0.0174767 -0.0758774 0.432697
0.0405712 -0.0772797 0.432732
0.0645357 -0.0787348 0.432768
-0.177953 -0.0948963 -0.354548
-0.177433 -0.0940112 -0.333278
-0.174817 -0.0895561 -0.226221
-0.171881 -0.0845474 -0.105866
-0.169757 -0.0809267 -0.0188606
-0.184664 -0.0758272 0.0795701
-0.114364 -0.0647152 0.432497
0.0768596 -0.0757862 0.432787
0.102224 -0.0772547 0.432825
0.115278 -0.0780105 0.432845
-0.177288 -0.0934724 -0.43196
-0.175891 -0.0911041 -0.372217
-0.170539 -0.0820117 -0.142869
-0.184904 -0.0786927 -0.0811322
-0.184783 -0.0753735 0.000125527
-0.172311 -0.0839744 -0.304103
-0.169834 -0.0805455 -0.212466
-0.185056 -0.078579 -0.18233
-0.184752 -0.0707128 0.0206494
-0.184424 -0.0622332 0.239457
-0.184395 -0.0614809 0.258869
-0.184328 -0.0597475 0.303598
-0.1842 -0.0564327 0.389131
-0.132218 -0.0574688 0.43247
-0.0571486 -0.0613909 0.432584
-0.17165 -0.0833047 -0.408555
-0.185235 -0.0787094 -0.301753
-0.185203 -0.0779443 -0.280882
-0.185133 -0.0762156 -0.233725
-0.185103 -0.075498 -0.21415
-0.184879 -0.0700051 -0.064313
-0.184722 -0.0661546 0.0407218
-0.184692 -0.0654348 0.0603573
-0.184664 -0.0647305 0.0795701
-0.184529 -0.0614247 0.169747
-0.184497 -0.0606503 0.19087
-0.184367 -0.0574629 0.277818
-0.18426 -0.0548428 0.349292
-0.0864705 -0.0566233 0.43254
-0.00479478 -0.06066 0.432663
0.0768596 -0.0646956 0.432787
0.184577 -0.0700193 0.43295
-0.185266 -0.0749474 -0.323038
-0.185019 -0.0692283 -0.157574
-0.184846 -0.0652453 -0.0423392
-0.184814 -0.0645031 -0.0208652
-0.184783 -0.0637775 0.000125527
-0.184635 -0.0603817 0.0983737
-0.184601 -0.0595885 0.121323
-0.184466 -0.0564727 0.211468
-0.18423 -0.0510111 0.36948
-0.14951 -0.0504501 0.432444
-0.0367523 -0.0557045 0.432615
-0.0156356 -0.0566885 0.432647
0.0524418 -0.0598608 0.43275
0.142168 -0.064042 0.432885
0.156019 -0.0646874 0.432906
-0.167104 -0.0749578 -0.438505
-0.184991 -0.0644426 -0.1394
-0.184956 -0.0636722 -0.115675
-0.184896 -0.0623675 -0.0754929
-0.184574 -0.0553949 0.139252
-0.184307 -0.0495926 0.317952
-0.184172 -0.0466602 0.408266
0.0174767 -0.0547023 0.432697
0.115278 -0.0589835 0.432845
-0.163471 -0.0685331 -0.381413
-0.185183 -0.0641666 -0.267191
-0.185163 -0.0637561 -0.253677
-0.185133 -0.0631501 -0.233725
-0.185056 -0.061589 -0.18233
-0.184722 -0.0548138 0.0407218
-0.184692 -0.0542174 0.0603573
0.102224 -0.0546436 0.432825
-0.161355 -0.0646199 -0.407258
-0.185235 -0.0607187 -0.301753
-0.184939 -0.055127 -0.104024
-0.184863 -0.0536914 -0.0532625
-0.184752 -0.0516012 0.0206494
-0.184378 -0.0445414 0.270293
-0.184139 -0.0400259 0.429963
-0.0670879 -0.0444198 0.432569
-0.185103 -0.0539271 -0.21415
-0.185019 -0.0524457 -0.157574
-0.184588 -0.0449068 0.130334
-0.184561 -0.0444422 0.148077
-0.184424 -0.0420494 0.239457
-0.184334 -0.040465 0.299967
-0.105219 -0.0397834 0.432511
-0.0470382 -0.0418373 0.432599
0.0405712 -0.0449301 0.432732
0.184577 -0.0500138 0.43295
-0.155621 -0.0543157 -0.36926
-0.184814 -0.0449567 -0.0208652
-0.184783 -0.044451 0.000125527
-0.184649 -0.0423095 0.0890222
-0.184622 -0.0418613 0.107626
-0.184529 -0.0403648 0.169747
-0.184497 -0.0398559 0.19087
-0.1842 -0.0350798 0.389131
-0.184172 -0.0346189 0.408266
-0.132218 -0.0357238 0.43247
-0.0864705 -0.0372096 0.43254
-0.00479478 -0.0398623 0.432663
0.0645357 -0.042114 0.432768
0.142168 -0.0446353 0.432885
-0.153817 -0.0508842 -0.425429
-0.153406 -0.0502242 -0.394931
-0.185065 -0.0447372 -0.188615
-0.184991 -0.0436547 -0.1394
-0.184913 -0.0424978 -0.0868045
-0.184466 -0.0359372 0.211468
-0.18423 -0.0324616 0.36948
-0.14951 -0.0321046 0.432444
-0.0262864 -0.0357587 0.432631
0.115278 -0.0399566 0.432845
-0.185266 -0.0431516 -0.323038
-0.185214 -0.0424502 -0.287793
-0.184307 -0.0303955 0.317952
0.0768595 -0.0351205 0.432787
0.156019 -0.0372443 0.432906
-0.185173 -0.0374942 -0.260412
-0.185133 -0.037019 -0.233725
-0.184956 -0.034917 -0.115675
-0.184862 -0.0338057 -0.0532627
-0.184752 -0.0324896 0.0206494
-0.184275 -0.0268214 0.338989
-0.145774 -0.0363197 -0.412939
-0.185037 -0.0316607 -0.169876
-0.184378 -0.0247452 0.270293
-0.18435 -0.0244517 0.288971
-0.184139 -0.0222366 0.429963
-0.0864705 -0.0242671 0.43254
-0.0670879 -0.0246777 0.432569
0.0174766 -0.0264689 0.432697
0.184577 -0.0300083 0.43295
-0.14296 -0.0312643 -0.393552
-0.184722 -0.0245717 0.0407218
-0.184692 -0.0243044 0.0603573
-0.184664 -0.0240428 0.0795701
-0.18443 -0.0219193 0.235517
-0.105219 -0.0206873 0.432511
-0.0470382 -0.0217554 0.432599
0.0768595 -0.0240298 0.432787
0.102224 -0.0244954 0.432825
-0.140661 -0.0269758 -0.435618
-0.185266 -0.0249825 -0.323038
-0.185183 -0.024339 -0.267191
-0.185163 -0.0241833 -0.253677
-0.185133 -0.0239535 -0.233725
-0.185103 -0.0237279 -0.21415
-0.185065 -0.0234337 -0.188615
-0.184913 -0.0222607 -0.0868045
-0.184783 -0.0212592 0.000125527
-0.184635 -0.0201272 0.0983737
-0.184601 -0.0198628 0.121323
-0.184542 -0.019404 0.161146
-0.184516 -0.0192068 0.178261
-0.1842 -0.0167773 0.389131
-0.132218 -0.0170853 0.43247
-0.00479478 -0.0190646 0.432663
0.0524418 -0.0199536 0.43275
0.115278 -0.0209296 0.432845
-0.137898 -0.0219926 -0.423587
-0.185235 -0.0202396 -0.301753
-0.184574 -0.0160824 0.139252
-0.184485 -0.0155176 0.199171
-0.184454 -0.0153253 0.219563
-0.0262864 -0.0153251 0.432631
0.142168 -0.017466 0.432885
-0.18501 -0.0146401 -0.151479
-0.184974 -0.0144641 -0.127466
-0.184862 -0.01392 -0.0532627
-0.18483 -0.0137607 -0.0315408
-0.184312 -0.0112245 0.314389
-0.18423 -0.0108205 0.36948
-0.14951 -0.0107015 0.432444
0.156019 -0.0137216 0.432906
-0.132429 -0.0121319 -0.399784
-0.185037 -0.0105536 -0.169876
-0.184752 -0.00955579 0.0206494
0.184577 -0.0100028 0.43295
-0.184395 -0.00498494 0.258869
-0.184367 -0.0049254 0.277818
-0.184296 -0.00477705 0.32503
-0.184265 -0.00471156 0.345874
-0.1842 -0.00457563 0.389131
-0.184172 -0.00451551 0.408266
-0.166267 -0.0045154 0.432419
-0.132218 -0.00465964 0.43247
-0.114364 -0.00473527 0.432497
-0.0864705 -0.00485343 0.43254
-0.0670879 -0.00493554 0.432569
0.0174766 -0.00529378 0.432697
-0.127134 -0.00245755 -0.422342
-0.185235 -0.00224885 -0.301753
-0.185203 -0.00222699 -0.280882
-0.184913 -0.00202372 -0.0868045
-0.184783 -0.00193267 0.000125527
-0.184649 -0.00183955 0.0890222
-0.184622 -0.00182007 0.107626
-0.184542 -0.00176401 0.161146
-0.184516 -0.00174609 0.178261
-0.184442 -0.00169443 0.22758
-0.0470382 -0.0016735 0.432599
-0.00479478 -0.00173315 0.432663
0.0524418 -0.00181398 0.43275
0.115278 -0.00190271 0.432845
-0.12171 0.00744331 -0.4375
-0.185266 0.00681338 -0.323038
-0.185163 0.00659544 -0.253677
-0.185133 0.00653274 -0.233725
-0.185103 0.00647123 -0.21415
-0.185065 0.006391 -0.188615
-0.18501 0.00627431 -0.151479
-0.184974 0.00619886 -0.127466
-0.184862 0.0059657 -0.0532627
-0.18483 0.00589744 -0.0315408
-0.184722 0.00567038 0.0407218
-0.184692 0.00560868 0.0603573
-0.184588 0.0053888 0.130334
-0.184485 0.0051725 0.199171
-0.0262864 0.00510837 0.432631
0.0174766 0.00529376 0.432697
0.0768595 0.00554532 0.432787
0.102224 0.00565276 0.432825
0.142168 0.00582198 0.432885
0.156019 0.00588066 0.432906
-0.185037 0.0105536 -0.169876
-0.184752 0.00955579 0.0206494
-0.184334 0.008093 0.299967
-0.18423 0.00772896 0.36948
-0.14951 0.00764396 0.432444
0.184577 0.0100028 0.43295
-0.185183 0.0154885 -0.267191
-0.113495 0.0223137 -0.424705
-0.113579 0.0220909 -0.401239
-0.113694 0.0218007 -0.370665
-0.113805 0.021518 -0.340884
-0.113914 0.0212425 -0.311865
-0.113993 0.0210405 -0.290583
-0.114097 0.020777 -0.26283
-0.114173 0.0205837 -0.242467
-0.123181 0.0201884 -0.212751
-0.100949 0.020268 -0.191229
-0.114439 0.0199047 -0.17094
-0.114507 0.0197273 -0.152246
-0.114598 0.0194955 -0.127831
-0.184561 0.0159992 0.148077
-0.184454 0.0153253 0.219563
-0.110683 0.0274501 -0.436321
-0.112268 0.0236836 -0.112199
-0.112384 0.0234102 -0.0886731
-0.112497 0.023143 -0.0656841
-0.112553 0.0230117 -0.0543853
-0.112663 0.0227535 -0.0321679
-0.11277 0.0225011 -0.0104435
-0.112875 0.0222541 0.0108039
-0.112977 0.0220126 0.0315904
-0.113078 0.0217762 0.0519306
-0.10884 0.0216501 0.0685596
-0.064605 0.0224877 0.0555934
-0.0369343 0.0227385 0.0711413
-0.0668486 0.0219764 0.0968558
-0.0684481 0.0216084 0.126581
-0.0677907 0.0213028 0.153935
-0.0672556 0.0210547 0.176145
-0.066527 0.0207169 0.206384
-0.105219 0.0175047 0.432511
0.124287 0.0218531 0.364992
0.13559 0.0220264 0.365209
0.15875 0.0223814 0.36565
-0.0730297 0.0239678 0.23543
-0.0724618 0.023702 0.255682
-0.0719066 0.0234419 0.275489
-0.0711492 0.0230873 0.302501
-0.065722 0.0229093 0.322857
-0.127809 0.0213398 0.35426
-0.110578 0.0215201 0.364254
-0.0947602 0.021806 0.364607
-0.0702305 0.0222493 0.365155
-0.0446831 0.0227111 0.365725
-0.00892329 0.0233573 0.366524
0.00973082 0.0236945 0.36694
0.0289314 0.0240415 0.367369
0.0487027 0.0243988 0.367811
0.0690706 0.0247669 0.368265
0.0900623 0.0251463 0.368734
-0.144349 0.0332404 -0.215413
-0.107687 0.0382251 -0.197008
-0.0892713 0.0386656 -0.196893
-0.104686 0.0375649 -0.155964
-0.105048 0.0367932 -0.113196
-0.105298 0.036261 -0.0837076
-0.105492 0.0358463 -0.0607242
-0.105683 0.0354409 -0.0382603
-0.105869 0.0350446 -0.016299
-0.131812 0.0275313 0.369868
0.10883 0.0331693 0.378005
-0.0631527 0.0440603 -0.204123
-0.0428222 0.0446215 -0.204882
-0.0656071 0.0431816 -0.163364
-0.06638 0.0427744 -0.143984
-0.0673882 0.0422432 -0.118707
-0.0681279 0.0418535 -0.100157
-0.0688543 0.0414708 -0.081946
-0.0698022 0.0409714 -0.0581767
-0.0704983 0.0406046 -0.0407221
-0.103804 0.0387266 0.00859541
-0.104006 0.0383031 0.0295596
-0.104205 0.0378888 0.0500708
-0.0726426 0.0389136 0.0411894
-0.0560728 0.0386931 0.0745667
-0.0790239 0.0360849 0.17445
-0.0791788 0.0356414 0.196481
-0.0793891 0.0350386 0.226429
0.0353632 0.0350571 0.380068
0.0551838 0.035577 0.380697
0.129439 0.0375245 0.383053
0.152192 0.0381214 0.383767
-0.145736 0.0468948 -0.233537
-0.138957 0.0466857 -0.214919
-0.0216093 0.0501181 -0.212591
0.00715077 0.0509982 -0.213787
0.0293925 0.0516789 -0.214711
0.0599885 0.0526152 -0.215983
0.0836731 0.0533401 -0.216967
0.0998288 0.0538345 -0.217639
-0.0627404 0.0445221 -0.0140891
-0.0639778 0.0438727 0.013707
-0.0423228 0.0432775 0.0698807
-0.0719271 0.0417267 0.100369
-0.073052 0.0412556 0.120228
-0.0739679 0.0408032 0.139523
-0.105129 0.034593 0.379321
-0.0126722 0.0372668 0.382541
0.00569558 0.037798 0.383181
0.0847199 0.0400833 0.385933
-0.102138 0.0523518 -0.215859
-0.0760767 0.053228 -0.217054
-0.0627162 0.0536772 -0.217667
-0.0422482 0.0543654 -0.218605
0.125547 0.0600067 -0.226292
0.159882 0.0611613 -0.227876
-0.0708851 0.042203 0.246673
-0.0724102 0.0414517 0.275743
-0.08193 0.0385315 0.383893
-0.0571715 0.0393138 0.384832
-0.0401 0.0398533 0.38548
-0.14566 0.0561817 -0.246947
-0.0208862 0.0600572 -0.226588
0.00807917 0.061119 -0.228039
-0.0656747 0.0446601 0.299907
-0.0634662 0.044262 0.318056
-0.145598 0.0401118 0.365604
0.124935 0.0488723 0.396118
0.136061 0.0492535 0.396574
-0.12733 0.0608345 -0.227843
0.054139 0.0680408 -0.237718
0.0698947 0.0686665 -0.238574
0.0940795 0.0696269 -0.23989
-0.131502 0.0442327 0.352407
-0.129627 0.0432598 0.389266
0.00273466 0.0481467 0.395098
0.0214134 0.0488364 0.395921
0.0406352 0.049546 0.396767
0.0604237 0.0502767 0.397639
0.101805 0.0518045 0.399461
0.157224 0.0538508 0.401896
-0.101864 0.0666321 -0.235968
-0.0822102 0.067473 -0.237123
-0.0620538 0.0683354 -0.238308
0.119851 0.076118 -0.248993
0.154275 0.0775909 -0.251015
-0.0758716 0.0484824 0.395365
-0.0594302 0.0491329 0.39614
-0.0163297 0.0508381 0.398169
-0.145543 0.0703354 -0.267386
-0.0410811 0.0742366 -0.246587
-0.0125623 0.075545 -0.248387
0.00949526 0.0765569 -0.24978
0.0321507 0.0775963 -0.251209
-0.100339 0.0506729 0.397852
0.0782374 0.0582076 0.406802
-0.127294 0.0750482 -0.247859
0.0482209 0.0836465 -0.259706
0.0882611 0.0856079 -0.262407
0.130224 0.0876636 -0.265237
0.165268 0.0893802 -0.267596
0.163841 0.065655 0.415505
-0.101585 0.0811845 -0.25646
-0.0817379 0.082219 -0.257888
-0.0613782 0.0832801 -0.259352
0.0727409 0.0902705 -0.268998
0.148606 0.0942243 -0.274447
-0.143867 0.0557716 0.378414
-0.0449404 0.0595727 0.408188
0.139563 0.0683212 0.418544
-0.145427 0.0847637 -0.288219
-0.0330752 0.0898786 -0.268602
0.0185051 0.0927295 -0.272541
0.0898343 0.096672 -0.277987
0.114977 0.0980615 -0.279906
-0.13904 0.0583854 0.399676
-0.117336 0.0592105 0.407662
0.0544832 0.0678033 0.41782
0.09501 0.06983 0.420215
0.116196 0.0708895 0.421468
-0.135934 0.089199 -0.271852
-0.0109576 0.0963266 -0.27765
0.0501094 0.0998955 -0.282586
0.133114 0.104746 -0.289293
0.0152283 0.0692388 0.419414
-0.101301 0.0960171 -0.277347
-0.0812565 0.0972525 -0.279057
-0.0466778 0.0993837 -0.282008
0.0195395 0.103465 -0.287657
-0.0216514 0.0705875 0.420911
0.043449 0.110405 -0.297395
0.0594056 0.111439 -0.298828
0.075664 0.112494 -0.300289
0.100637 0.114113 -0.302532
0.117689 0.115219 -0.304064
-0.0962335 0.0695558 0.41961
-0.00489765 0.0748276 0.425821
0.070732 0.0791929 0.430964
0.144537 0.0834528 0.435983
0.155744 0.0840998 0.436742
-0.143753 0.104291 -0.311374
-0.135993 0.103897 -0.292574
-0.0317525 0.110786 -0.298043
-0.0812564 0.0735266 0.424207
-0.0571082 0.0749819 0.42592
0.0897323 0.0838313 0.436336
0.110561 0.0850865 0.437814
-0.114215 0.110197 -0.297341
-0.0807654 0.112582 -0.300644
-0.059987 0.114064 -0.3027
-0.0412682 0.0791301 0.430722
0.0204086 0.0830033 0.435277
-0.120534 0.0771313 0.428295
0.0476003 0.088114 0.441206
-0.140115 0.0791679 0.422689
-0.0753488 0.0831616 0.435314
-0.0173186 0.087098 0.439937
0.000284195 0.088292 0.441339
0.0658869 0.0927421 0.446565
0.144528 0.0981854 0.450796
-0.138816 0.0834728 0.40286
0.0896257 0.0979279 0.450696
0.159761 0.103187 0.450626
-0.0607587 0.0903399 0.443605
-0.0368761 0.0952115 0.449254
0.0263063 0.100213 0.450756
0.120403 0.107857 0.449728
-0.115855 0.092188 0.445652
-0.101001 0.0933431 0.447004
0.0505641 0.105748 0.450821
-0.136902 0.0954548 0.415087
0.00172949 0.105107 0.45105
0.066124 0.114822 0.442972
-0.139416 0.0994859 0.444363
-0.0835427 0.104177 0.450859
-0.0196557 0.113915 0.444008
-0.107305 0.108399 0.449077
-0.0774789 0.115025 0.442502
