ply
format ascii 1.0
comment Created by Open3D
element vertex 1680
property double x
property double y
property double z
end_header
-0.0779578 -0.115308 0.444939
-0.0780259 -0.115258 0.402129
-0.0780134 -0.114626 0.410105
-0.0780009 -0.114001 0.417993
-0.0779823 -0.113076 0.429667
-0.0705945 -0.11219 0.448498
-0.056474 -0.113353 0.448519
-0.0420579 -0.11454 0.448542
-0.0780985 -0.115205 0.356641
-0.0780849 -0.114554 0.365122
-0.0780717 -0.11391 0.373508
-0.0780519 -0.112957 0.385911
-0.027336 -0.11219 0.448564
-0.0123 -0.11339 0.448588
0.00305963 -0.114615 0.448613
-0.0781827 -0.115488 0.303658
-0.0781683 -0.114812 0.312747
-0.078147 -0.113813 0.326183
-0.078133 -0.113156 0.335011
-0.0781191 -0.112507 0.343737
-0.0780078 -0.107278 0.41406
-0.0770033 -0.106523 0.425237
-0.0779766 -0.105831 0.433516
-0.077958 -0.104982 0.444939
-0.057576 -0.106531 0.445308
-0.049303 -0.106931 0.44853
-0.0420573 -0.107491 0.448542
0.0187588 -0.11219 0.448636
0.0348007 -0.113429 0.448662
0.0429553 -0.114059 0.448675
0.0595394 -0.11534 0.448701
-0.0782655 -0.115439 0.251693
-0.07825 -0.114741 0.261398
-0.0782349 -0.114051 0.270987
-0.0782198 -0.11337 0.280461
-0.0782049 -0.112696 0.289823
-0.0780855 -0.10728 0.365122
-0.0780721 -0.106677 0.373508
-0.0718166 -0.106527 0.382088
-0.0642955 -0.106529 0.389875
-0.0568103 -0.106527 0.397683
-0.0705944 -0.101834 0.448497
-0.0267893 -0.106527 0.428869
-0.0167472 -0.106531 0.439246
-0.00466001 -0.106761 0.448599
0.00306183 -0.107338 0.448611
0.0679764 -0.112189 0.448713
0.0851306 -0.113471 0.44874
0.0938558 -0.114123 0.448754
0.102681 -0.114782 0.448769
-0.0999259 -0.114025 0.193281
-0.100214 -0.113263 0.203931
-0.0986763 -0.112748 0.212933
-0.0924785 -0.113195 0.212942
-0.079934 -0.114101 0.21296
-0.0783049 -0.113248 0.226905
-0.0782891 -0.112553 0.236912
-0.0781687 -0.107283 0.312747
-0.0767058 -0.106522 0.325202
-0.0688757 -0.106529 0.333231
-0.0611151 -0.106528 0.341306
0.0217162 -0.106525 0.427405
0.0269166 -0.106527 0.432774
0.0347182 -0.10653 0.440828
0.0429588 -0.10658 0.448673
0.120647 -0.112189 0.448795
0.129786 -0.112848 0.44881
0.139034 -0.113516 0.448825
0.148391 -0.114191 0.44884
0.15786 -0.114875 0.448855
-0.0784442 -0.115331 0.136577
-0.0784268 -0.114584 0.14772
-0.0784094 -0.113847 0.158719
-0.0783923 -0.113119 0.169578
-0.0782579 -0.107286 0.25656
-0.0782425 -0.106639 0.266207
-0.0738358 -0.106524 0.272501
-0.0657333 -0.10653 0.280827
-0.0577036 -0.106528 0.289206
-0.0779828 -0.0956796 0.429667
-0.077964 -0.0949096 0.441152
-0.0775471 -0.0944461 0.448487
0.0764431 -0.106523 0.428617
0.0845295 -0.106527 0.436963
0.0899262 -0.10653 0.442525
0.102688 -0.107001 0.448766
0.177148 -0.112188 0.448884
0.186966 -0.112872 0.448899
-0.0785449 -0.115271 0.0725975
-0.0785261 -0.114497 0.0845819
-0.0785074 -0.113733 0.0964061
-0.0784891 -0.112979 0.108074
-0.0784709 -0.112235 0.119588
-0.103144 -0.105969 0.190784
-0.10341 -0.105261 0.201445
-0.103673 -0.104562 0.211965
-0.0818955 -0.106525 0.204254
-0.0735565 -0.106524 0.212945
-0.0651447 -0.10653 0.221579
-0.0568122 -0.106528 0.230276
-0.0705944 -0.0914784 0.448497
0.168559 -0.11527 0.329303
0.168573 -0.114663 0.338699
0.168588 -0.114062 0.347997
0.16861 -0.113172 0.361762
0.168624 -0.112587 0.370821
0.168638 -0.112008 0.379786
0.168652 -0.111435 0.388659
0.168672 -0.110586 0.4018
0.132502 -0.106521 0.427032
0.138097 -0.106523 0.432806
0.149289 -0.106528 0.444355
0.15787 -0.106814 0.448851
-0.0786533 -0.115207 0.00367451
-0.078633 -0.114403 0.0165994
-0.0786228 -0.114005 0.0229943
-0.078603 -0.113218 0.0356519
-0.0785832 -0.112442 0.0481359
-0.0785639 -0.111677 0.06045
-0.0784531 -0.107293 0.130951
-0.0784354 -0.106596 0.142167
-0.073255 -0.106523 0.148719
-0.0674205 -0.106529 0.154692
0.168443 -0.115507 0.255528
0.168459 -0.114874 0.265715
0.168475 -0.114247 0.275791
0.16849 -0.113627 0.285758
0.17858 -0.106527 0.410249
0.18725 -0.106526 0.419274
0.182179 -0.105529 0.43002
0.18219 -0.105006 0.438429
0.186968 -0.104663 0.448899
-0.0787703 -0.115137 -0.070788
-0.0787483 -0.114302 -0.0568075
-0.0787267 -0.113478 -0.0430282
-0.078716 -0.113071 -0.0362128
-0.0786949 -0.112266 -0.0227275
-0.0786843 -0.111867 -0.0160568
-0.0786635 -0.111079 -0.00285631
-0.0785449 -0.106571 0.0725975
-0.0698929 -0.106525 0.0823568
-0.0638235 -0.106531 0.0885732
-0.106603 -0.0972668 0.198962
-0.106845 -0.0966217 0.209492
0.168326 -0.115432 0.180945
0.168344 -0.114774 0.191964
0.168361 -0.114123 0.202858
0.168378 -0.11348 0.21363
0.168394 -0.112844 0.22428
0.168411 -0.112215 0.234812
0.168427 -0.111593 0.245227
-0.0779828 -0.0852418 0.429667
-0.077964 -0.0845558 0.441152
-0.0775471 -0.0841428 0.448487
0.168551 -0.106853 0.324567
0.171067 -0.106523 0.332699
0.180176 -0.10653 0.342049
0.186173 -0.106527 0.348321
-0.0789095 -0.115501 -0.159158
-0.0788974 -0.115061 -0.151485
-0.0788735 -0.114192 -0.136314
-0.07885 -0.113335 -0.121371
-0.0788268 -0.112492 -0.10665
-0.078804 -0.111661 -0.092146
-0.0787816 -0.110842 -0.077855
-0.0725753 -0.106522 0.00387055
-0.0662439 -0.106528 0.0103431
-0.0568143 -0.106529 0.0201221
0.1682 -0.115352 0.100123
0.168219 -0.114667 0.11208
0.168228 -0.114327 0.118006
0.168246 -0.113654 0.129753
0.168264 -0.112989 0.141361
0.168283 -0.112332 0.152835
0.1683 -0.111682 0.164177
0.169245 -0.106523 0.255051
0.178742 -0.10653 0.264793
0.188135 -0.106527 0.274597
-0.0705944 -0.0811223 0.448497
0.182179 -0.0972521 0.43002
0.18219 -0.0967701 0.438429
0.186968 -0.0964542 0.448899
-0.0790483 -0.115437 -0.247595
-0.101329 -0.112092 -0.209856
-0.101504 -0.111624 -0.201526
-0.0974005 -0.11127 -0.190812
-0.0849645 -0.111978 -0.190795
-0.0789338 -0.111437 -0.17468
-0.0721902 -0.106521 -0.0782088
-0.0655771 -0.106527 -0.0714536
-0.109681 -0.0895798 0.191157
0.168062 -0.115264 0.0122452
0.168072 -0.114906 0.0187759
0.168093 -0.114196 0.031716
0.168103 -0.113844 0.0381263
0.168123 -0.113147 0.0508292
0.168142 -0.112459 0.0633776
0.168162 -0.111779 0.0757741
0.168181 -0.111107 0.0880216
0.170567 -0.106525 0.17389
0.180471 -0.106531 0.184071
0.190273 -0.106527 0.194318
-0.077958 -0.0774455 0.444939
-0.0791953 -0.115369 -0.344154
-0.0791813 -0.114889 -0.335011
-0.0791677 -0.114414 -0.325944
-0.0791538 -0.113943 -0.316952
-0.079127 -0.113011 -0.299187
-0.0791136 -0.112551 -0.290413
-0.0791004 -0.112095 -0.281711
-0.0790741 -0.111194 -0.264516
-0.103561 -0.105989 -0.190819
-0.0717691 -0.10652 -0.167922
-0.0648485 -0.106527 -0.160858
0.167912 -0.115169 -0.0836545
0.167923 -0.114794 -0.076515
0.167946 -0.114053 -0.0623747
-0.111439 -0.0851491 0.197891
-0.111648 -0.0845857 0.208403
0.168031 -0.111181 -0.00759333
0.168042 -0.110832 -0.000938833
0.178917 -0.106531 0.0922795
0.185762 -0.106529 0.0994263
-0.0779828 -0.074804 0.429667
-0.0793452 -0.114791 -0.439954
-0.0793271 -0.114294 -0.430004
-0.0793108 -0.113801 -0.420138
-0.0792961 -0.113312 -0.410354
-0.0792811 -0.112827 -0.400654
-0.0792668 -0.112346 -0.391037
-0.0792521 -0.111869 -0.381501
-0.0792377 -0.111397 -0.372046
-0.0792093 -0.110464 -0.353374
-0.0791136 -0.107316 -0.290413
-0.0713071 -0.10652 -0.266387
-0.105335 -0.102062 -0.212706
-0.105493 -0.101637 -0.20437
-0.0973979 -0.101379 -0.190815
0.167735 -0.115458 -0.196618
0.16776 -0.114672 -0.180889
0.167784 -0.113896 -0.165374
0.167808 -0.113131 -0.150067
0.16782 -0.112753 -0.14249
0.167843 -0.112003 -0.127488
0.167867 -0.111263 -0.112683
0.167878 -0.110896 -0.105355
0.18082 -0.106532 -0.00473434
0.187993 -0.106529 0.00276792
-0.0705944 -0.0707663 0.448497
0.182179 -0.084837 0.43002
0.18219 -0.0844165 0.438429
0.186968 -0.0841409 0.448899
-0.0792811 -0.107323 -0.400654
-0.0707976 -0.106519 -0.374948
-0.063167 -0.106526 -0.367174
-0.00835699 -0.112048 -0.426188
-0.00144184 -0.112389 -0.426177
0.0125188 -0.113079 -0.426158
0.0266495 -0.113777 -0.426137
0.0337803 -0.114129 -0.426126
0.0481755 -0.11484 -0.426103
-0.107707 -0.0960475 -0.19341
0.167553 -0.115362 -0.31306
0.167566 -0.114948 -0.304355
0.16758 -0.114537 -0.295712
0.167594 -0.114129 -0.28713
0.16762 -0.113322 -0.27015
0.167633 -0.112923 -0.261749
0.167659 -0.112132 -0.245124
0.167672 -0.111741 -0.236899
0.167698 -0.110967 -0.220619
0.167723 -0.110204 -0.204563
0.16782 -0.107253 -0.14249
0.179126 -0.106532 -0.115625
-0.114618 -0.0771888 0.195416
-0.114806 -0.0766784 0.20594
-0.110925 -0.0765382 0.212914
-0.0779703 -0.0674805 0.437344
-0.077958 -0.0671195 0.444939
-0.0793452 -0.103592 -0.439954
-0.0793271 -0.103143 -0.430004
-0.0222734 -0.106528 -0.445654
-0.0142716 -0.106531 -0.437398
0.0125194 -0.10728 -0.426159
-0.109476 -0.0916624 -0.20721
0.0849585 -0.110675 -0.426044
0.100001 -0.111379 -0.426021
0.107594 -0.111735 -0.426009
0.122926 -0.112454 -0.425986
0.138457 -0.113182 -0.425962
0.154191 -0.113919 -0.425937
0.167381 -0.114389 -0.422633
0.167396 -0.11396 -0.413125
0.167411 -0.113534 -0.403688
0.167426 -0.113112 -0.394322
0.16744 -0.112692 -0.385025
0.167455 -0.112276 -0.375797
0.167469 -0.111863 -0.366637
0.167497 -0.111046 -0.348516
0.167512 -0.110641 -0.339556
0.167525 -0.11024 -0.33066
0.167633 -0.107132 -0.261749
0.181241 -0.106533 -0.234363
0.189202 -0.106531 -0.226056
0.182179 -0.0765602 0.43002
0.18219 -0.0761808 0.438429
0.186968 -0.075932 0.448899
-0.1114 -0.0868609 -0.212793
-0.111663 -0.0861417 -0.196239
0.107694 -0.106535 -0.44555
0.116126 -0.106535 -0.436784
0.138458 -0.107064 -0.425962
0.167411 -0.107397 -0.403688
0.167426 -0.106997 -0.394322
0.16744 -0.106601 -0.385025
0.175155 -0.106533 -0.375428
0.183596 -0.106534 -0.366671
-0.0705944 -0.0604102 0.448497
-0.0793452 -0.0923928 -0.439954
-0.0793271 -0.0919926 -0.430004
0.180815 -0.103231 -0.438662
0.180828 -0.102843 -0.429039
-0.11942 -0.0651552 0.194358
-0.119576 -0.0647254 0.204863
-0.116978 -0.0645101 0.212905
-0.0779828 -0.0574077 0.429667
-0.077964 -0.0569457 0.441152
-0.0775471 -0.0566676 0.448487
-0.115499 -0.0765653 -0.207313
-0.115728 -0.0759343 -0.190882
0.180815 -0.0969741 -0.438662
0.180828 -0.0966104 -0.429039
0.182179 -0.064145 0.43002
0.18219 -0.0638271 0.438429
0.186968 -0.0636187 0.448899
-0.0793452 -0.0811937 -0.439954
-0.0793271 -0.080842 -0.430004
-0.117428 -0.0717518 -0.212879
-0.122587 -0.0572284 0.191893
-0.122721 -0.0568511 0.202408
-0.122788 -0.0566643 0.207614
-0.116977 -0.0566907 0.212905
-0.0705944 -0.0500542 0.448497
-0.11956 -0.0663679 -0.201885
-0.115759 -0.066134 -0.190842
0.180815 -0.0844614 -0.438662
0.180828 -0.0841445 -0.429039
-0.0779828 -0.04697 0.429667
-0.077964 -0.046592 0.441152
-0.0775471 -0.0463644 0.448487
0.182179 -0.0558682 0.43002
0.18219 -0.0555914 0.438429
0.186968 -0.0554098 0.448899
-0.0793452 -0.0699946 -0.439954
-0.0793271 -0.0696914 -0.430004
-0.12342 -0.0567342 -0.212964
-0.123501 -0.0564998 -0.204703
-0.123582 -0.0562673 -0.196508
-0.115757 -0.0563365 -0.190844
0.180815 -0.0719486 -0.438662
0.180828 -0.0716787 -0.429039
-0.127356 -0.0452783 0.190846
-0.127458 -0.0449806 0.201342
-0.12756 -0.0446866 0.211703
-0.0705944 -0.0396982 0.448497
0.182184 -0.0474732 0.434235
0.182195 -0.0472386 0.442602
-0.0793452 -0.0587954 -0.439954
-0.0793271 -0.0585408 -0.430004
-0.0779828 -0.0365322 0.429667
-0.077964 -0.0362382 0.441152
-0.0775471 -0.0360612 0.448487
-0.127437 -0.0466442 -0.207517
-0.127502 -0.0464523 -0.199316
-0.127566 -0.0462621 -0.191182
-0.1218 -0.0463934 -0.190853
0.180815 -0.0594358 -0.438662
0.180828 -0.0592128 -0.429039
-0.130549 -0.0372616 0.193661
-0.13063 -0.0370175 0.204099
-0.128942 -0.0368542 0.212887
-0.0793452 -0.0475963 -0.439954
-0.0793271 -0.0473901 -0.430004
-0.0705944 -0.0293421 0.448497
0.182179 -0.0351763 0.43002
0.18219 -0.035002 0.438429
0.186968 -0.0348877 0.448899
-0.0793452 -0.0419967 -0.439954
-0.131369 -0.036801 -0.210326
-0.131417 -0.0366498 -0.20212
-0.127807 -0.0365122 -0.190861
-0.121804 -0.0366262 -0.190848
0.180815 -0.046923 -0.438662
0.180828 -0.0467469 -0.429039
-0.0779828 -0.0260944 0.429667
-0.077964 -0.0258844 0.441152
-0.0775471 -0.025758 0.448487
-0.0793271 -0.0362395 -0.430004
-0.13527 -0.0254335 0.192616
-0.135319 -0.0252673 0.203036
-0.134855 -0.0251187 0.212879
-0.0705944 -0.0224381 0.448497
0.182179 -0.0268995 0.43002
0.18219 -0.0267662 0.438429
0.186968 -0.0266788 0.448899
-0.0793452 -0.0307976 -0.439954
-0.135295 -0.0269703 -0.213133
-0.135326 -0.0268596 -0.204921
-0.135359 -0.0267497 -0.196775
0.180815 -0.0344102 -0.438662
0.180828 -0.0342811 -0.429039
-0.0782089 -0.0210739 0.285153
-0.0781947 -0.0209491 0.29446
-0.0781807 -0.0208257 0.303657
-0.0781668 -0.0207038 0.312746
-0.0781463 -0.0205236 0.326182
-0.078133 -0.0204052 0.335011
-0.0781196 -0.0202882 0.343737
-0.0780976 -0.0201152 0.35664
-0.0780857 -0.0200014 0.365122
-0.0780724 -0.019889 0.373508
-0.0780526 -0.0197227 0.385911
-0.0780396 -0.0196133 0.394065
-0.0780204 -0.0194516 0.406128
-0.0780077 -0.0193452 0.41406
-0.0564742 -0.0191828 0.44852
-0.0420582 -0.0193836 0.448542
-0.0273372 -0.0195887 0.448565
-0.0123008 -0.0197982 0.448588
0.00306076 -0.0200122 0.448612
0.0187581 -0.0202309 0.448636
0.0348024 -0.0204544 0.448661
0.0429583 -0.0205681 0.448673
0.0595447 -0.0207992 0.448699
0.0679784 -0.0209167 0.448712
-0.0793271 -0.0250889 -0.430004
-0.078754 -0.0210707 -0.0637782
-0.0787432 -0.0209943 -0.0568131
-0.0787222 -0.0208431 -0.0430333
-0.0787117 -0.0207683 -0.0362175
-0.0786912 -0.0206203 -0.0227315
-0.0786811 -0.0205471 -0.0160603
-0.0786608 -0.0204023 -0.00285918
-0.0786507 -0.0203306 0.00367177
-0.078631 -0.0201888 0.0165973
-0.0786213 -0.0201186 0.0229926
-0.0786018 -0.0199797 0.0356507
-0.0785828 -0.0198427 0.0481354
-0.0785639 -0.0197076 0.06045
-0.0785453 -0.0195743 0.0725979
-0.078527 -0.0194428 0.0845828
-0.0785089 -0.0193131 0.0964075
-0.0784911 -0.0191851 0.108076
-0.0784681 -0.0190588 0.119585
-0.0784507 -0.0189342 0.130949
-0.138428 -0.017484 0.200605
-0.138458 -0.0173705 0.210902
-0.128941 -0.0174573 0.212886
-0.112052 -0.0177522 0.203597
-0.0997048 -0.0178942 0.203504
-0.0871726 -0.0180381 0.203421
-0.0783195 -0.0179925 0.216773
-0.078305 -0.0178813 0.226905
-0.0782898 -0.0177715 0.236912
-0.0782729 -0.0176631 0.246795
-0.0782569 -0.0175559 0.25656
-0.0782431 -0.0174501 0.266208
-0.0782273 -0.0173455 0.275738
-0.0779887 -0.0156991 0.425797
-0.0779764 -0.0156144 0.433516
-0.077958 -0.0154891 0.444939
0.0851304 -0.0173091 0.44874
0.0938566 -0.0174086 0.448754
0.102684 -0.0175092 0.448767
0.120648 -0.017714 0.448795
0.129788 -0.0178182 0.448809
0.139037 -0.0179236 0.448824
0.148395 -0.0180303 0.448838
0.157866 -0.0181382 0.448853
0.177152 -0.0183581 0.448882
-0.0793452 -0.0195985 -0.439954
-0.0793106 -0.0194294 -0.420138
-0.0792951 -0.0193459 -0.410355
-0.0792798 -0.0192632 -0.400656
-0.0792646 -0.0191811 -0.39104
-0.0792496 -0.0190997 -0.381505
-0.0792345 -0.019019 -0.372051
-0.0792053 -0.0188597 -0.353379
-0.0791906 -0.018781 -0.344161
-0.0791763 -0.018703 -0.335019
-0.0791619 -0.0186257 -0.325952
-0.0791476 -0.0185489 -0.31696
-0.0791196 -0.0183973 -0.299197
-0.139232 -0.0170817 -0.207718
-0.139248 -0.0170119 -0.199566
-0.139264 -0.0169426 -0.19148
-0.121048 -0.0171763 -0.199896
-0.108867 -0.0172847 -0.199924
-0.096531 -0.0173944 -0.199952
-0.0840393 -0.0175056 -0.199978
-0.0789484 -0.0174694 -0.190456
-0.0789282 -0.0173348 -0.174687
-0.0789161 -0.0172683 -0.166896
-0.0788924 -0.0171368 -0.151491
-0.0788692 -0.0170074 -0.13632
-0.0788462 -0.0168798 -0.121375
-0.0788234 -0.0167542 -0.106654
-0.0788009 -0.0166304 -0.0921496
-0.0787784 -0.0165085 -0.0778586
-0.130237 -0.0139139 0.172232
-0.130247 -0.0138681 0.177581
-0.139968 -0.0136621 0.191577
-0.130335 -0.0134689 0.224188
-0.130354 -0.0133833 0.234183
-0.130372 -0.0132988 0.244052
-0.130391 -0.0132153 0.253797
-0.130409 -0.0131329 0.26342
-0.130426 -0.0130515 0.272924
-0.130452 -0.0129313 0.286961
-0.130469 -0.0128524 0.296176
-0.130486 -0.0127744 0.30528
-0.130503 -0.0126974 0.314274
-0.13052 -0.0126213 0.32316
-0.130544 -0.0125089 0.33629
-0.13056 -0.012435 0.344915
-0.130576 -0.012362 0.353439
-0.1306 -0.0122541 0.366038
-0.130615 -0.0121832 0.374316
-0.130638 -0.0120784 0.386555
-0.130653 -0.0120095 0.394598
-0.130668 -0.0119414 0.402549
-0.130689 -0.0118407 0.414309
-0.130711 -0.0117417 0.425873
-0.130725 -0.0116766 0.433475
-0.130746 -0.0115802 0.444721
-0.117806 -0.0116635 0.448419
-0.070595 -0.012082 0.448498
-0.0564748 -0.0122072 0.44852
-0.0420589 -0.012335 0.448542
-0.027338 -0.0124655 0.448566
0.186966 -0.0143655 0.4489
-0.131295 -0.0137193 -0.448112
-0.131303 -0.013657 -0.437922
-0.131312 -0.0135953 -0.427823
-0.13132 -0.0135341 -0.417816
-0.131328 -0.0134735 -0.407898
-0.131336 -0.0134134 -0.398068
-0.131344 -0.0133539 -0.388326
-0.131352 -0.0132949 -0.378669
-0.13136 -0.0132364 -0.369098
-0.131368 -0.0131785 -0.359611
-0.131376 -0.013121 -0.350206
-0.131384 -0.013064 -0.340883
-0.131391 -0.0130075 -0.331641
-0.131399 -0.0129515 -0.322478
-0.131414 -0.012841 -0.304387
-0.131421 -0.0127864 -0.295457
-0.131428 -0.0127323 -0.286602
-0.131443 -0.0126255 -0.269116
-0.13145 -0.0125727 -0.260482
-0.131457 -0.0125204 -0.25192
-0.131471 -0.0124171 -0.235009
-0.131518 -0.0121169 -0.1859
-0.131531 -0.0120201 -0.170056
-0.131538 -0.0119723 -0.162229
-0.131552 -0.0118777 -0.146759
-0.131565 -0.0117847 -0.131532
-0.131578 -0.0116931 -0.116541
-0.131591 -0.0116029 -0.101782
-0.131603 -0.0115141 -0.0872486
-0.131616 -0.0114266 -0.0729359
-0.131622 -0.0113834 -0.0658609
-0.131634 -0.0112979 -0.0518703
-0.131646 -0.0112137 -0.0380882
-0.131652 -0.011172 -0.031274
-0.131663 -0.0110897 -0.0177962
-0.131669 -0.0110489 -0.0111316
-0.13168 -0.0109684 0.00205201
-0.131686 -0.0109285 0.00857198
-0.131697 -0.0108497 0.0214708
-0.131703 -0.0108107 0.0278506
-0.131714 -0.0107336 0.0404739
-0.131724 -0.0106575 0.0529182
-0.131735 -0.0105825 0.0651874
-0.131745 -0.0105086 0.0772851
-0.131751 -0.010472 0.0832709
-0.131761 -0.0103996 0.0951183
-0.131771 -0.0103282 0.106803
-0.131776 -0.0102929 0.112585
-0.131786 -0.010223 0.124032
-0.131796 -0.0101539 0.135324
-0.131805 -0.0100859 0.146465
-0.131815 -0.0100187 0.157458
-0.0123023 -0.00899918 0.448589
0.00305849 -0.00909645 0.448613
0.0187551 -0.00919585 0.448638
0.0347984 -0.00929745 0.448663
0.0429537 -0.00934909 0.448676
0.0595391 -0.00945412 0.448701
0.0679726 -0.00950752 0.448715
0.102681 -0.00972732 0.448769
0.120643 -0.00984107 0.448797
0.129783 -0.00989894 0.448811
0.139031 -0.00995751 0.448826
0.148389 -0.0100168 0.448841
0.157859 -0.0100767 0.448855
0.177144 -0.0101989 0.448886
-0.133457 -0.00749426 -0.249089
-0.143132 -0.00731612 -0.210511
-0.143132 -0.00728624 -0.202353
-0.139706 -0.00725725 -0.19088
-0.133415 -0.00597982 0.164367
-0.133414 -0.00594046 0.175112
-0.143087 -0.00583313 0.194365
-0.143085 -0.00579524 0.204709
-0.140723 -0.00577434 0.21287
-0.13341 -0.00575118 0.226786
-0.133409 -0.00571477 0.236728
-0.133408 -0.00567881 0.246544
-0.133408 -0.0056433 0.256239
-0.133407 -0.00560823 0.265812
-0.133406 -0.0055736 0.275267
-0.133405 -0.00553939 0.284607
-0.133404 -0.0055056 0.293832
-0.133403 -0.00547222 0.302946
-0.133402 -0.0054229 0.31641
-0.133401 -0.00539051 0.325253
-0.1334 -0.0053585 0.33399
-0.0779844 -0.00521889 0.429668
-0.0779658 -0.00517688 0.441153
-0.0775471 -0.00515161 0.448487
0.0851282 -0.0057697 0.448742
0.093854 -0.00580286 0.448755
0.186963 -0.00615663 0.448901
-0.135666 -0.00272951 -0.440899
-0.135655 -0.00271719 -0.430794
-0.135644 -0.00270498 -0.42078
-0.135632 -0.00269287 -0.410856
-0.135621 -0.00268087 -0.40102
-0.13561 -0.00266898 -0.391271
-0.135599 -0.0026572 -0.381608
-0.135589 -0.00264552 -0.37203
-0.135567 -0.00262246 -0.353125
-0.135557 -0.00261108 -0.343796
-0.135547 -0.0025998 -0.334547
-0.135536 -0.00258862 -0.325378
-0.135526 -0.00257753 -0.316287
-0.135516 -0.00256654 -0.307274
-0.135496 -0.00254483 -0.289476
-0.135486 -0.00253411 -0.280689
-0.135476 -0.00252349 -0.271977
-0.135438 -0.00248186 -0.237844
-0.135429 -0.00247166 -0.229486
-0.135382 -0.00241219 -0.180735
-0.135365 -0.002393 -0.165005
-0.135356 -0.00238352 -0.157233
-0.13534 -0.00236479 -0.141873
-0.135323 -0.00234635 -0.126752
-0.135307 -0.00232819 -0.111866
-0.135291 -0.00231031 -0.0972074
-0.135275 -0.0022927 -0.082773
-0.135268 -0.002284 -0.0756379
-0.135252 -0.00226679 -0.0615289
-0.135237 -0.00224984 -0.0476311
-0.13523 -0.00224146 -0.0407596
-0.135215 -0.00222488 -0.0271695
-0.135201 -0.00220855 -0.0137787
-0.135193 -0.00220047 -0.00715691
-0.135179 -0.0021845 0.00594246
-0.135165 -0.00216875 0.0188531
-0.135151 -0.00215323 0.0315788
-0.135144 -0.00214555 0.0378736
-0.135131 -0.00213036 0.0503296
-0.135117 -0.00211538 0.0626103
-0.135104 -0.00210061 0.0747198
-0.135091 -0.00208604 0.086661
-0.135085 -0.00207884 0.09257
-0.135072 -0.00206457 0.104266
-0.13506 -0.0020505 0.115802
-0.135047 -0.00203662 0.127183
-0.135041 -0.00202975 0.132815
-0.135029 -0.00201615 0.143967
-0.135017 -0.00200273 0.154971
-0.134816 -0.00177262 0.343624
-0.134802 -0.00175709 0.356356
-0.134793 -0.00174688 0.364721
-0.134785 -0.0017368 0.372989
-0.134771 -0.00172189 0.385214
-0.134763 -0.00171209 0.393248
-0.13475 -0.0016976 0.405129
-0.134742 -0.00168807 0.412938
-0.134729 -0.00167398 0.424489
-0.134717 -0.00166013 0.435849
-0.134709 -0.00165102 0.443318
-0.124289 -0.00165801 0.448411
-0.070595 -0.00172602 0.448498
-0.0564748 -0.0017439 0.44852
-0.0420589 -0.00176216 0.448542
-0.027338 -0.0017808 0.448566
-0.0123023 -0.00179985 0.448589
0.00305849 -0.0018193 0.448613
0.0187551 -0.00183918 0.448638
0.0347984 -0.0018595 0.448663
0.0429537 -0.00186983 0.448676
0.0595391 -0.00189083 0.448701
0.0679726 -0.00190152 0.448715
0.102681 -0.00194547 0.448769
0.120643 -0.00196822 0.448797
0.129783 -0.0019798 0.448811
0.139031 -0.00199151 0.448826
0.148389 -0.00200337 0.448841
0.157859 -0.00201536 0.448855
0.177144 -0.00203978 0.448886
-0.137856 0.00273477 -0.447475
-0.137835 0.00272239 -0.437321
-0.137814 0.00271013 -0.427259
-0.137793 0.00269798 -0.417286
-0.137772 0.00268594 -0.407403
-0.137731 0.00266218 -0.387899
-0.137711 0.00265045 -0.378275
-0.137691 0.00263883 -0.368736
-0.137671 0.00262731 -0.359281
-0.137651 0.00261589 -0.349907
-0.137632 0.00260456 -0.340615
-0.137613 0.00259334 -0.331403
-0.137593 0.00258221 -0.322269
-0.137555 0.00256024 -0.304237
-0.137537 0.00254939 -0.295334
-0.137518 0.00253864 -0.286507
-0.137482 0.0025174 -0.269075
-0.137464 0.00250691 -0.260468
-0.139426 0.00747159 -0.249109
-0.148962 0.00729424 -0.210602
-0.148937 0.00726453 -0.202468
-0.1456 0.00723482 -0.19089
-0.138183 0.00596536 0.163355
-0.13815 0.00592619 0.174081
-0.147737 0.0058192 0.193327
-0.147704 0.0057815 0.203654
-0.146545 0.00575218 0.212861
-0.137995 0.00573781 0.225667
-0.137965 0.00570156 0.235593
-0.137936 0.00566577 0.245395
-0.137907 0.00563042 0.255074
-0.137878 0.00559551 0.264633
-0.13785 0.00556103 0.274074
-0.137822 0.00552698 0.2834
-0.137794 0.00549334 0.292612
-0.137753 0.00544364 0.306222
-0.137726 0.005411 0.315159
-0.137699 0.00537875 0.32399
-0.137673 0.00534689 0.332716
-0.0779943 0.00523299 0.4258
-0.07798 0.00520477 0.433518
-0.0779588 0.00516301 0.44494
0.0851282 0.00576968 0.448742
0.093854 0.00580283 0.448755
0.182782 0.00614945 0.44651
-0.142179 0.0136025 -0.440289
-0.142138 0.0135412 -0.43022
-0.142098 0.0134806 -0.420241
-0.142058 0.0134205 -0.410352
-0.142018 0.0133609 -0.40055
-0.141979 0.0133018 -0.390834
-0.14194 0.0132432 -0.381205
-0.141901 0.0131852 -0.371659
-0.141863 0.0131277 -0.362197
-0.141788 0.0130141 -0.343519
-0.141751 0.0129581 -0.3343
-0.141714 0.0129025 -0.325161
-0.141677 0.0128474 -0.316099
-0.141641 0.0127928 -0.307114
-0.141569 0.0126849 -0.289373
-0.141534 0.0126317 -0.280614
-0.141499 0.0125789 -0.271928
-0.141364 0.0123719 -0.237896
-0.141331 0.0123213 -0.229561
-0.141143 0.0120257 -0.180951
-0.14108 0.0119303 -0.165264
-0.141018 0.0118364 -0.149825
-0.140988 0.01179 -0.142196
-0.140927 0.0116983 -0.127115
-0.140868 0.0116081 -0.112268
-0.14081 0.0115192 -0.0976478
-0.140781 0.0114752 -0.0904216
-0.140724 0.0113884 -0.0761328
-0.140667 0.0113028 -0.0620588
-0.140612 0.0112185 -0.0481949
-0.140585 0.0111768 -0.0413401
-0.14053 0.0110944 -0.0277823
-0.140503 0.0110536 -0.0210781
-0.14045 0.010973 -0.00781637
-0.140424 0.0109331 -0.00125778
-0.140372 0.0108542 0.0117173
-0.140347 0.0108152 0.018135
-0.140296 0.010738 0.0308327
-0.140246 0.0106619 0.0433505
-0.140196 0.0105869 0.055692
-0.140148 0.0105129 0.067861
-0.1401 0.0104399 0.079861
-0.140052 0.010368 0.0916959
-0.140029 0.0103323 0.0975522
-0.139983 0.0102619 0.109145
-0.139937 0.0101923 0.120581
-0.139892 0.0101237 0.131863
-0.139847 0.0100561 0.142994
-0.139803 0.00998928 0.153977
-0.139036 0.00881808 0.346603
-0.139003 0.00876669 0.355055
-0.138969 0.00871589 0.36341
-0.13892 0.00864079 0.375762
-0.138888 0.00859144 0.383879
-0.13884 0.00851846 0.395882
-0.138809 0.00847049 0.403771
-0.138762 0.00839954 0.41544
-0.138732 0.0083529 0.423111
-0.138686 0.0082839 0.43446
-0.138642 0.00821603 0.445622
-0.130705 0.0082494 0.4484
-0.0644367 0.0088547 0.418097
-0.0562489 0.0089108 0.417413
-0.0395581 0.00902517 0.416019
-0.031051 0.00908346 0.415309
-0.0224333 0.00914251 0.414589
-0.00485688 0.00926294 0.413121
0.00410664 0.00932436 0.412372
0.0131897 0.0093866 0.411613
0.0317249 0.00951361 0.410065
0.0411817 0.00957841 0.409275
0.0507683 0.0096441 0.408474
0.0604873 0.0097107 0.407662
0.0703415 0.00977822 0.406838
0.0803338 0.00984669 0.406003
0.0904668 0.00991613 0.405157
0.100744 0.00998655 0.404298
0.111168 0.010058 0.403427
0.121742 0.0101304 0.402544
0.13247 0.0102039 0.401647
0.143354 0.0102785 0.400738
0.154399 0.0103542 0.399815
0.165608 0.010431 0.398879
0.176984 0.010509 0.397928
0.188531 0.0105881 0.396963
-0.143442 0.017495 -0.260453
-0.1434 0.0174226 -0.251942
-0.152802 0.01694 -0.205243
-0.152762 0.0168713 -0.197169
-0.145603 0.0168812 -0.190886
-0.14133 0.0138663 0.16627
-0.141277 0.0137756 0.176936
-0.150834 0.0135714 0.190906
-0.150781 0.0134835 0.201243
-0.150731 0.0133967 0.211449
-0.141098 0.0134673 0.213196
-0.141049 0.0133817 0.22326
-0.140999 0.0132972 0.233196
-0.140951 0.0132138 0.243008
-0.140903 0.0131314 0.252697
-0.140832 0.0130097 0.267007
-0.140786 0.0129298 0.2764
-0.14074 0.0128509 0.285679
-0.140694 0.012773 0.294845
-0.14065 0.012696 0.303901
-0.140606 0.0126199 0.312848
-0.14054 0.0125074 0.326069
-0.146516 0.0244675 -0.443253
-0.146456 0.0243574 -0.433178
-0.146397 0.0242484 -0.423193
-0.146338 0.0241403 -0.413296
-0.146279 0.0240332 -0.403488
-0.146221 0.023927 -0.393766
-0.146163 0.0238218 -0.38413
-0.146106 0.0237174 -0.374579
-0.14605 0.023614 -0.36511
-0.145994 0.0235115 -0.355724
-0.145939 0.0234099 -0.346419
-0.145883 0.0233091 -0.337193
-0.145775 0.0231102 -0.31898
-0.145721 0.023012 -0.309989
-0.145668 0.0229147 -0.301074
-0.145615 0.0228181 -0.292234
-0.145511 0.0226274 -0.274776
-0.145461 0.0225333 -0.266155
-0.145311 0.0222554 -0.240717
-0.145262 0.0221643 -0.232377
-0.144934 0.0215468 -0.175847
-0.144841 0.0213767 -0.160272
-0.14475 0.0212093 -0.144941
-0.144705 0.0211265 -0.137366
-0.144617 0.020963 -0.12239
-0.144529 0.0208019 -0.107645
-0.144486 0.0207223 -0.100357
-0.1444 0.0205649 -0.0859469
-0.144316 0.0204099 -0.0717542
-0.144233 0.0202572 -0.0577737
-0.144192 0.0201817 -0.0508617
-0.144111 0.0200324 -0.0371908
-0.144031 0.0198853 -0.023721
-0.143992 0.0198125 -0.0170599
-0.143914 0.0196686 -0.00388294
-0.143875 0.0195974 0.00263393
-0.143799 0.0194566 0.0155274
-0.143723 0.0193178 0.0282367
-0.143649 0.019181 0.0407662
-0.143576 0.019046 0.0531192
-0.143503 0.018913 0.0652995
-0.143432 0.0187818 0.0773112
-0.143397 0.0187169 0.0832546
-0.143327 0.0185884 0.0950191
-0.143258 0.0184617 0.106623
-0.14319 0.0183366 0.11807
-0.143123 0.0182133 0.129363
-0.143057 0.0180916 0.140505
-0.142991 0.0179715 0.151499
-0.141902 0.0159589 0.335766
-0.14737 0.0273611 -0.254771
-0.156661 0.0266035 -0.208014
-0.156606 0.0264957 -0.199935
-0.156552 0.0263888 -0.191918
-0.146925 0.026485 -0.189081
-0.143243 0.0193584 0.345318
-0.143185 0.0192458 0.35376
-0.143099 0.0190793 0.36624
-0.143043 0.01897 0.374441
-0.142987 0.0188618 0.382549
-0.142905 0.0187019 0.394539
-0.142824 0.0185447 0.406327
-0.14277 0.0184414 0.414076
-0.142691 0.0182885 0.425539
-0.142639 0.018188 0.433076
-0.142563 0.0180393 0.444228
-0.137057 0.0180602 0.44839
-0.124294 0.018238 0.448414
-0.150848 0.0353175 -0.446213
-0.150768 0.0351587 -0.436132
-0.15069 0.0350014 -0.42614
-0.150612 0.0348455 -0.416237
-0.150534 0.034691 -0.406422
-0.150457 0.0345378 -0.396695
-0.150381 0.034386 -0.387052
-0.150306 0.0342355 -0.377494
-0.150157 0.0339385 -0.358626
-0.150084 0.0337919 -0.349315
-0.150011 0.0336466 -0.340083
-0.149939 0.0335025 -0.330931
-0.149867 0.0333596 -0.321857
-0.149725 0.0330775 -0.303939
-0.149656 0.0329382 -0.295092
-0.149588 0.0328001 -0.286319
-0.149452 0.0325272 -0.268992
-0.149254 0.0321264 -0.243535
-0.149189 0.031995 -0.235188
-0.149124 0.0318646 -0.226909
-0.148751 0.0311041 -0.178615
-0.14869 0.030981 -0.17079
-0.148568 0.0307375 -0.155326
-0.148449 0.0304978 -0.140102
-0.148331 0.0302618 -0.125115
-0.148215 0.0300295 -0.110357
-0.148101 0.0298007 -0.0958242
-0.147989 0.0295753 -0.0815113
-0.147878 0.0293533 -0.0674133
-0.147769 0.0291347 -0.0535253
-0.147715 0.0290266 -0.0466586
-0.147608 0.0288127 -0.0330769
-0.147555 0.028707 -0.0263608
-0.147451 0.0284978 -0.0130757
-0.147399 0.0283944 -0.00650525
-0.147297 0.0281897 0.00649333
-0.147247 0.0280885 0.0129225
-0.147147 0.0278882 0.0256436
-0.147048 0.0276907 0.0381845
-0.146091 0.0257747 0.159883
-0.146007 0.0256059 0.170601
-0.145924 0.0254394 0.181179
-0.155411 0.0250626 0.195056
-0.155329 0.0249012 0.205309
-0.152323 0.0248311 0.212852
-0.145564 0.0247159 0.227129
-0.145487 0.0245607 0.236987
-0.145411 0.0244074 0.246722
-0.145335 0.024256 0.256336
-0.145261 0.0241065 0.265832
-0.145187 0.0239588 0.275212
-0.145115 0.023813 0.284477
-0.145043 0.0236688 0.29363
-0.144972 0.0235265 0.302673
-0.144867 0.0233161 0.316035
-0.144799 0.0231779 0.324812
-0.144731 0.0230413 0.333484
-0.151334 0.037287 -0.257597
-0.160516 0.0362548 -0.210782
-0.160375 0.0359624 -0.194675
-0.151461 0.0360628 -0.190896
-0.148611 0.0316621 0.0523304
-0.148557 0.0315514 0.0584292
-0.14845 0.0313323 0.0704995
-0.148345 0.0311163 0.0824033
-0.148293 0.0310094 0.0882938
-0.14819 0.0307978 0.0999545
-0.148089 0.030589 0.111457
-0.147988 0.0303831 0.122805
-0.14789 0.0301799 0.134
-0.147792 0.0299794 0.145047
-0.155075 0.0459452 -0.439081
-0.154977 0.0457397 -0.429083
-0.15488 0.0455361 -0.419174
-0.154783 0.0453343 -0.409353
-0.154688 0.0451343 -0.399619
-0.154593 0.0449361 -0.38997
-0.1545 0.0447396 -0.380405
-0.154407 0.0445447 -0.370924
-0.154314 0.0443516 -0.361525
-0.154223 0.0441602 -0.352207
-0.154043 0.0437822 -0.333811
-0.153953 0.0435956 -0.32473
-0.153866 0.0434106 -0.315726
-0.153779 0.0432271 -0.306798
-0.153608 0.0428648 -0.289165
-0.153523 0.0426859 -0.280459
-0.153439 0.0425085 -0.271825
-0.153192 0.041985 -0.246349
-0.15303 0.0416431 -0.229711
-0.152564 0.0406498 -0.181379
-0.152412 0.0403293 -0.165779
-0.152262 0.0400138 -0.150424
-0.152114 0.0397031 -0.135306
-0.151969 0.0393973 -0.120422
-0.151826 0.0390961 -0.105766
-0.151685 0.0387995 -0.0913314
-0.151546 0.0385074 -0.0771143
-0.151409 0.0382197 -0.0631099
-0.151341 0.0380774 -0.0561859
-0.151207 0.037796 -0.0424913
-0.151075 0.0375187 -0.0289978
-0.149252 0.0336883 0.157421
-0.149199 0.0335777 0.162802
-0.149095 0.0333587 0.173461
-0.158486 0.0327579 0.19265
-0.158384 0.032547 0.202912
-0.158058 0.0323479 0.212844
-0.148693 0.0325105 0.214741
-0.147432 0.0298536 0.344038
-0.147309 0.0295945 0.356649
-0.147228 0.0294243 0.364935
-0.147148 0.0292559 0.373127
-0.14703 0.029007 0.385239
-0.146952 0.0288435 0.393201
-0.146837 0.0286015 0.404976
-0.146762 0.0284424 0.412717
-0.14665 0.0282071 0.424168
-0.14654 0.0279757 0.435432
-0.146468 0.0278235 0.442838
-0.137059 0.0279111 0.448391
-0.124286 0.0281862 0.448409
-0.155294 0.0472002 -0.260419
-0.16428 0.0457084 -0.205454
-0.164194 0.0455242 -0.197427
-0.157283 0.0455395 -0.190905
-0.152727 0.0416916 -0.0203197
-0.152586 0.0413897 -0.00716144
-0.152446 0.0410922 0.0058077
-0.152309 0.0407989 0.0185917
-0.152174 0.0405097 0.0311945
-0.152041 0.0402247 0.0436198
-0.151909 0.0399436 0.0558715
-0.151779 0.0396664 0.0679532
-0.151651 0.0393931 0.0798682
-0.151525 0.0391235 0.0916201
-0.151401 0.0388575 0.103212
-0.151278 0.0385952 0.114648
-0.151157 0.0383363 0.12593
-0.151037 0.0380809 0.137062
-0.150978 0.0379545 0.142573
-0.150084 0.0360401 0.226018
-0.149978 0.0358143 0.235861
-0.149874 0.0355913 0.245581
-0.149771 0.035371 0.255181
-0.14967 0.0351535 0.264662
-0.149569 0.0349386 0.274028
-0.14947 0.0347264 0.28328
-0.149324 0.0344128 0.296949
-0.149228 0.0342068 0.305925
-0.149133 0.0340033 0.314795
-0.149039 0.0338022 0.32356
-0.1489 0.033505 0.336514
-0.159375 0.0567168 -0.442026
-0.159258 0.0564634 -0.432022
-0.159142 0.0562122 -0.422107
-0.159027 0.0559633 -0.41228
-0.1588 0.0554719 -0.392883
-0.158688 0.0552295 -0.383313
-0.158577 0.0549892 -0.373825
-0.158466 0.0547509 -0.36442
-0.158357 0.0545147 -0.355096
-0.158249 0.0542806 -0.345852
-0.158141 0.0540484 -0.336686
-0.157931 0.0535899 -0.318587
-0.157827 0.0533636 -0.309652
-0.157724 0.0531391 -0.300792
-0.157622 0.0529166 -0.292007
-0.157124 0.0518311 -0.24916
-0.157027 0.0516193 -0.240801
-0.156281 0.0499853 -0.176303
-0.1561 0.0495929 -0.160813
-0.155922 0.0492067 -0.145566
-0.155747 0.0488264 -0.130553
-0.155574 0.0484519 -0.115771
-0.155404 0.0480832 -0.101214
-0.155237 0.04772 -0.0868776
-0.158057 0.0399592 0.212844
-0.161587 0.0622367 -0.448535
-0.159464 0.057576 -0.28038
-0.159355 0.0573374 -0.271773
-0.158827 0.0561736 -0.229785
-0.168109 0.0552969 -0.208209
-0.168008 0.0550742 -0.200176
-0.167908 0.0548533 -0.192207
-0.158325 0.0550558 -0.189462
-0.156823 0.0517611 -0.0705901
-0.156648 0.0513768 -0.056724
-0.156476 0.0509981 -0.0430625
-0.15639 0.0508109 -0.0363069
-0.156222 0.0504405 -0.0229434
-0.156138 0.0502573 -0.0163344
-0.155973 0.0498949 -0.00325954
-0.155891 0.0497157 0.00320745
-0.15573 0.049361 0.0160028
-0.15557 0.0490114 0.028617
-0.155413 0.0486667 0.0410535
-0.155258 0.0483269 0.0533164
-0.155105 0.0479917 0.0654093
-0.154954 0.0476611 0.0773358
-0.153954 0.0454689 0.156431
-0.153818 0.0451721 0.167141
-0.153685 0.0448791 0.177711
-0.163058 0.0442149 0.191625
-0.162927 0.043931 0.201871
-0.153106 0.0436064 0.22363
-0.152982 0.0433333 0.233483
-0.152859 0.0430636 0.243213
-0.152738 0.0427972 0.252823
-0.151603 0.0403043 0.342764
-0.151444 0.0399553 0.355359
-0.15134 0.0397259 0.363635
-0.151185 0.0393867 0.375873
-0.151084 0.0391637 0.383916
-0.150934 0.038834 0.395811
-0.150835 0.0386173 0.403631
-0.150689 0.0382967 0.415198
-0.150593 0.0380859 0.422803
-0.150451 0.0377741 0.434055
-0.14335 0.0375789 0.448381
-0.137061 0.037762 0.448392
-0.163534 0.0671723 -0.434957
-0.163399 0.0668737 -0.425036
-0.163265 0.0665777 -0.415202
-0.163132 0.0662844 -0.405455
-0.163001 0.0659936 -0.395793
-0.16287 0.0657054 -0.386216
-0.162741 0.0654197 -0.376722
-0.162613 0.0651364 -0.367311
-0.16236 0.0645772 -0.348729
-0.162237 0.0643011 -0.339556
-0.162113 0.0640274 -0.330462
-0.161992 0.063756 -0.321444
-0.161751 0.06322 -0.303637
-0.161632 0.0629554 -0.294845
-0.161166 0.0619187 -0.260401
-0.161052 0.0616648 -0.251967
-0.16007 0.0594701 -0.179053
-0.159964 0.0592359 -0.171272
-0.159755 0.0587731 -0.155892
-0.15955 0.0583174 -0.140751
-0.159347 0.0578687 -0.125842
-0.156484 0.0515258 0.0849121
-0.156325 0.0511752 0.0965606
-0.156169 0.0508293 0.108052
-0.156015 0.0504882 0.119388
-0.155863 0.0501515 0.130574
-0.155713 0.0498193 0.141612
-0.164344 0.0475105 0.208279
-0.154717 0.0476117 0.214962
-0.154059 0.0461509 0.263498
-0.153932 0.0458695 0.27285
-0.153745 0.0454536 0.286666
-0.153622 0.0451806 0.295738
-0.1535 0.0449108 0.304702
-0.15338 0.0446442 0.31356
-0.153202 0.0442502 0.326651
-0.153086 0.0439914 0.335251
-0.165742 0.0726835 -0.441419
-0.163446 0.0675461 -0.283208
-0.162833 0.0661703 -0.240842
-0.171934 0.0648734 -0.210961
-0.171702 0.0643534 -0.194947
-0.161029 0.0621214 -0.116159
-0.160818 0.0616499 -0.10164
-0.16061 0.0611855 -0.0873392
-0.160405 0.0607281 -0.0732521
-0.160304 0.0605019 -0.0662873
-0.160104 0.0600546 -0.0525121
-0.160005 0.0598334 -0.0457007
-0.159809 0.0593959 -0.0322273
-0.159616 0.0589648 -0.0189496
-0.159521 0.0587516 -0.0123827
-0.159332 0.0583297 0.000609457
-0.159146 0.0579138 0.0134162
-0.158962 0.0575039 0.0260419
-0.15718 0.0535254 0.148565
-0.157023 0.053175 0.159355
-0.156869 0.0528292 0.170006
-0.152906 0.043965 0.442982
-0.167959 0.0782157 -0.447905
-0.16765 0.0775208 -0.42796
-0.167497 0.0771779 -0.41812
-0.167346 0.0768381 -0.408367
-0.167196 0.0765013 -0.398699
-0.167047 0.0761674 -0.389116
-0.1669 0.0758364 -0.379616
-0.166754 0.0755082 -0.370197
-0.16661 0.0751828 -0.360859
-0.166468 0.0748602 -0.351601
-0.166326 0.0745404 -0.342422
-0.166047 0.0739089 -0.324298
-0.165909 0.0735971 -0.31535
-0.165772 0.073288 -0.306478
-0.165236 0.0720769 -0.271722
-0.164975 0.0714863 -0.254771
-0.164591 0.0706182 -0.229859
-0.163854 0.0689435 -0.181801
-0.163614 0.068403 -0.166288
-0.163378 0.0678709 -0.151015
-0.160512 0.0614207 0.0341122
-0.160321 0.0609913 0.0464353
-0.160227 0.0607789 0.0525326
-0.16004 0.0603584 0.0646001
-0.159855 0.0599437 0.0765022
-0.159674 0.0595347 0.0882417
-0.159494 0.0591312 0.099822
-0.159317 0.0587332 0.111247
-0.159143 0.0583404 0.122518
-0.15897 0.0579529 0.13364
-0.167609 0.0556179 0.190606
-0.167449 0.0552616 0.200834
-0.157595 0.0548557 0.222531
-0.157368 0.0543432 0.237241
-0.157219 0.0540068 0.246896
-0.157071 0.0536745 0.256432
-0.156926 0.0533463 0.265852
-0.156782 0.0530221 0.275157
-0.15664 0.0527018 0.284349
-0.155691 0.0505637 0.345713
-0.155562 0.0502724 0.354075
-0.155371 0.0498416 0.366439
-0.155245 0.0495585 0.374564
-0.155121 0.0492786 0.382598
-0.154937 0.0488646 0.39448
-0.154756 0.0484575 0.406164
-0.154638 0.0481898 0.413846
-0.154462 0.0477938 0.425211
-0.154346 0.0475334 0.432684
-0.137056 0.0476133 0.448389
-0.167565 0.0778268 -0.294723
-0.167423 0.0775034 -0.286031
-0.166729 0.0759258 -0.243635
-0.175623 0.0741387 -0.205663
-0.174536 0.073624 -0.190935
-0.165053 0.0721093 -0.141072
-0.164809 0.0715561 -0.126203
-0.164569 0.0710112 -0.11156
-0.164332 0.0704747 -0.097139
-0.164099 0.0699461 -0.082934
-0.163983 0.0696848 -0.0759109
-0.163755 0.069168 -0.0620213
-0.16353 0.0686588 -0.0483361
-0.163419 0.068407 -0.0415689
-0.163199 0.0679089 -0.0281823
-0.163091 0.0676626 -0.0215618
-0.15981 0.0602339 0.178093
-0.168758 0.058589 0.212252
-0.159223 0.0589024 0.213878
-0.1579 0.0559013 0.294533
-0.157754 0.0555683 0.303485
-0.157537 0.055076 0.316714
-0.157394 0.0547527 0.325404
-0.157253 0.0544331 0.333992
-0.143353 0.0506496 0.448383
-0.172067 0.0885464 -0.440815
-0.171894 0.0881533 -0.430881
-0.171723 0.0877637 -0.421035
-0.171554 0.0873775 -0.411275
-0.171385 0.0869948 -0.401601
-0.171219 0.0866153 -0.392011
-0.170891 0.085866 -0.373078
-0.17073 0.0854963 -0.363734
-0.170569 0.0851297 -0.354469
-0.17041 0.0847662 -0.345284
-0.170253 0.0844058 -0.336178
-0.170096 0.0840485 -0.327148
-0.169788 0.0833429 -0.309315
-0.169186 0.0819665 -0.274534
-0.169039 0.0816295 -0.266018
-0.168461 0.0803087 -0.232641
-0.167498 0.078097 -0.176752
-0.164542 0.0713609 -0.00651699
-0.164318 0.0708517 0.00635308
-0.164208 0.0705998 0.0127194
-0.163989 0.0701013 0.0253175
-0.163773 0.0696098 0.0377388
-0.163561 0.0691252 0.0499871
-0.163351 0.0686472 0.0620661
-0.163247 0.0684107 0.0680431
-0.163041 0.0679426 0.0798744
-0.161865 0.0652629 0.147596
-0.161677 0.0648367 0.158367
-0.161493 0.064416 0.168999
-0.170571 0.0630548 0.19335
-0.158467 0.0575125 0.343464
-0.1567 0.0534846 0.445256
-0.171553 0.0878127 -0.297549
-0.170773 0.0860191 -0.254771
-0.170621 0.0856691 -0.246424
-0.179423 0.0836533 -0.208402
-0.179277 0.0833185 -0.200415
-0.179133 0.0829862 -0.192491
-0.169594 0.0832963 -0.189838
-0.169167 0.0823195 -0.16654
-0.168888 0.081681 -0.151309
-0.168614 0.0810523 -0.136313
-0.168344 0.0804331 -0.121545
-0.168077 0.0798234 -0.107002
-0.167815 0.0792228 -0.0926772
-0.167686 0.0789259 -0.0855956
-0.167429 0.0783387 -0.0715904
-0.167177 0.0777602 -0.0577919
-0.164412 0.0714305 0.093187
-0.164201 0.0709492 0.104667
-0.163994 0.0704743 0.115992
-0.163789 0.0700058 0.127168
-0.163688 0.0697739 0.1327
-0.162805 0.0677536 0.180887
-0.161974 0.065847 0.226364
-0.161796 0.0654378 0.236124
-0.161619 0.0650336 0.245764
-0.161445 0.0646344 0.255286
-0.161273 0.06424 0.264691
-0.161104 0.0638505 0.273983
-0.160936 0.0634656 0.283162
-0.160688 0.062897 0.296725
-0.160525 0.0625235 0.305633
-0.159662 0.0605462 0.352796
-0.159436 0.0600284 0.365145
-0.159288 0.0596881 0.373261
-0.159068 0.0591849 0.385264
-0.158924 0.0588541 0.393154
-0.158711 0.0583648 0.404826
-0.158501 0.0578835 0.416305
-0.158363 0.057567 0.423853
-0.176325 0.0992115 -0.443738
-0.176134 0.0987714 -0.433798
-0.175944 0.0983351 -0.423946
-0.175756 0.0979027 -0.41418
-0.17557 0.097474 -0.404498
-0.175386 0.097049 -0.394901
-0.175204 0.0966278 -0.385387
-0.175023 0.0962101 -0.375955
-0.174843 0.0957961 -0.366604
-0.174666 0.0953856 -0.357334
-0.174314 0.0945751 -0.33903
-0.174141 0.094175 -0.329994
-0.173969 0.0937782 -0.321034
-0.173799 0.0933848 -0.312149
-0.173296 0.0922241 -0.285936
-0.173131 0.0918436 -0.277343
-0.172327 0.0899872 -0.235419
-0.17217 0.0896249 -0.227237
-0.171259 0.0875104 -0.179487
-0.168745 0.0817279 -0.0488901
-0.168615 0.081429 -0.0421388
-0.168358 0.0808377 -0.0287836
-0.168231 0.0805452 -0.0221784
-0.16798 0.0799666 -0.00911045
-0.167732 0.0793962 0.00377107
-0.167487 0.078834 0.01647
-0.167366 0.0785558 0.0227523
-0.167127 0.0780054 0.0351849
-0.16501 0.0731366 0.145147
-0.164802 0.0726592 0.155928
-0.173315 0.0699889 0.20619
-0.169395 0.069873 0.212826
-0.161735 0.0655945 0.315484
-0.161568 0.0652102 0.324162
-0.161403 0.0648304 0.33274
-0.159421 0.0602674 0.435795
-0.143347 0.0604532 0.448379
-0.137058 0.0607478 0.448391
-0.175537 0.0977858 -0.300372
-0.174845 0.0961824 -0.265984
-0.174507 0.0954002 -0.24921
-0.183219 0.0931562 -0.211137
-0.174536 0.0926236 -0.190935
-0.172903 0.0916724 -0.169264
-0.172749 0.0913157 -0.161613
-0.172444 0.0906105 -0.146488
-0.172143 0.0899161 -0.131595
-0.171847 0.0892323 -0.116928
-0.171556 0.0885588 -0.102483
-0.171268 0.0878954 -0.0882548
-0.171126 0.0875674 -0.08122
-0.168616 0.0817701 0.043124
-0.168371 0.0812042 0.0552616
-0.168129 0.080646 0.0672325
-0.16801 0.0803698 0.0731565
-0.167773 0.0798231 0.0848835
-0.16754 0.0792837 0.0964519
-0.167309 0.0787516 0.107865
-0.167082 0.0782266 0.119126
-0.166857 0.0777085 0.130238
-0.166202 0.0761946 0.162708
-0.175077 0.0743448 0.192333
-0.164966 0.0733371 0.223995
-0.164769 0.0728816 0.233766
-0.162498 0.0676303 0.346393
-0.160532 0.063085 0.443881
-0.180577 0.109862 -0.446658
-0.180367 0.109375 -0.436711
-0.18016 0.108892 -0.426851
-0.179954 0.108414 -0.417078
-0.17975 0.107939 -0.40739
-0.179347 0.107003 -0.388266
-0.179149 0.10654 -0.378828
-0.178952 0.106082 -0.369472
-0.178756 0.105628 -0.360195
-0.178563 0.105178 -0.350998
-0.178371 0.104731 -0.341878
-0.177992 0.103849 -0.32387
-0.177805 0.103414 -0.314979
-0.177252 0.102129 -0.288748
-0.177071 0.101708 -0.280149
-0.176188 0.0996537 -0.238194
-0.176015 0.0992527 -0.230005
-0.184862 0.0973171 -0.200534
-0.172689 0.0915196 -0.0720869
-0.172398 0.0908456 -0.0583221
-0.172254 0.0905123 -0.0515153
-0.17197 0.089853 -0.0380506
-0.171829 0.0895269 -0.0313916
-0.171551 0.0888818 -0.0182174
-0.171413 0.0885628 -0.0117013
-0.171141 0.0879314 0.00119174
-0.171006 0.0876192 0.00756937
-0.167477 0.0794375 0.174659
-0.17643 0.0777644 0.198775
-0.166 0.0760108 0.244637
-0.1658 0.0755453 0.254144
-0.165602 0.0750854 0.263536
-0.165406 0.0746311 0.272814
-0.165117 0.0739598 0.286522
-0.164927 0.073519 0.295524
-0.164739 0.0730834 0.30442
-0.164554 0.0726529 0.313211
-0.163658 0.0705745 0.355657
-0.163485 0.070173 0.363856
-0.163229 0.0695792 0.375982
-0.163061 0.0691889 0.383953
-0.162812 0.0686116 0.395742
-0.162649 0.0682321 0.403493
-0.162407 0.0676706 0.41496
-0.179515 0.107746 -0.303191
-0.178758 0.10598 -0.268778
-0.178573 0.105548 -0.260351
-0.178389 0.105119 -0.251992
-0.185865 0.101507 -0.190953
-0.176805 0.10141 -0.179703
-0.176635 0.101014 -0.171985
-0.176298 0.100231 -0.156731
-0.175967 0.0994608 -0.14171
-0.175641 0.098702 -0.126919
-0.17532 0.0979546 -0.112352
-0.172356 0.0910599 0.0220387
-0.172218 0.0907405 0.0282633
-0.171947 0.0901085 0.0405825
-0.171679 0.0894852 0.0527315
-0.171415 0.0888705 0.0647134
-0.171154 0.0882642 0.0765318
-0.170897 0.0876661 0.08819
-0.169782 0.0850719 0.138755
-0.169543 0.0845161 0.149588
-0.169307 0.0839676 0.16028
-0.177659 0.0808932 0.210156
-0.169392 0.0812041 0.212823
-0.165723 0.0756231 0.322926
-0.165441 0.0749657 0.335738
-0.163512 0.0704734 0.423299
-0.163267 0.0699022 0.434432
-0.149579 0.069917 0.448369
-0.182631 0.115363 -0.353848
-0.182422 0.114874 -0.344723
-0.182215 0.114388 -0.335675
-0.182009 0.113907 -0.326702
-0.181203 0.112022 -0.291556
-0.180044 0.109308 -0.240965
-0.188811 0.107174 -0.211225
-0.176716 0.10152 -0.0957792
-0.176392 0.100765 -0.081692
-0.176073 0.10002 -0.0678133
-0.175915 0.0996522 -0.0609504
-0.175604 0.0989241 -0.0473749
-0.175296 0.0982065 -0.0339966
-0.175144 0.0978516 -0.02738
-0.172186 0.0909495 0.101302
-0.171926 0.0903426 0.112617
-0.171669 0.0897438 0.123782
-0.179562 0.0855821 0.19132
-0.169392 0.0844271 0.222904
-0.169168 0.0839038 0.23266
-0.168837 0.083131 0.247068
-0.16862 0.0826236 0.256527
-0.166585 0.0778711 0.34513
-0.164349 0.0726478 0.442512
-0.182466 0.115294 -0.263136
-0.182266 0.114826 -0.254771
-0.181678 0.113444 -0.230078
-0.190415 0.111234 -0.200651
-0.185865 0.110949 -0.190953
-0.180547 0.110777 -0.182426
-0.180179 0.109916 -0.16704
-0.179816 0.109068 -0.151891
-0.17946 0.108233 -0.136975
-0.176479 0.101258 -0.0123373
-0.176171 0.100538 0.000526726
-0.175868 0.099828 0.0132091
-0.175569 0.0991282 0.0257136
-0.175274 0.0984381 0.038044
-0.174983 0.0977576 0.0502039
-0.172924 0.0929387 0.136308
-0.172156 0.0911416 0.168419
-0.171906 0.0905579 0.178849
-0.18089 0.0889374 0.197753
-0.180648 0.0883752 0.2078
-0.171059 0.0885725 0.214324
-0.1698 0.0856226 0.267032
-0.16958 0.0851072 0.27624
-0.169363 0.084598 0.285339
-0.169148 0.0840949 0.294329
-0.168936 0.0835977 0.303212
-0.168622 0.0828628 0.316342
-0.167713 0.0807338 0.354384
-0.167517 0.0802754 0.362573
-0.167228 0.0795976 0.374685
-0.167038 0.079152 0.382646
-0.166756 0.078493 0.394423
-0.166479 0.0778448 0.406005
-0.181011 0.112162 -0.127275
-0.180651 0.111315 -0.112745
-0.180472 0.110896 -0.105562
-0.180119 0.110068 -0.0913577
-0.179772 0.109253 -0.0773638
-0.179429 0.108449 -0.0635756
-0.17926 0.108051 -0.0567572
-0.17641 0.101365 0.0579555
-0.176115 0.100673 0.069831
-0.175824 0.0999899 0.0815453
-0.175537 0.0993163 0.0931018
-0.175254 0.0986517 0.104504
-0.174974 0.0979959 0.115754
-0.174291 0.096394 0.143236
-0.174025 0.0957678 0.153979
-0.169755 0.0857415 0.325985
-0.169544 0.0852457 0.334491
-0.16756 0.0805857 0.414436
-0.167281 0.0799303 0.425679
-0.167097 0.0794992 0.433075
-0.155751 0.0792899 0.44836
-0.180575 0.11141 -0.0412296
-0.180233 0.110607 -0.0279789
-0.180064 0.110209 -0.0214251
-0.17973 0.109423 -0.00845748
-0.179565 0.109035 -0.00204283
-0.179238 0.108265 0.0106508
-0.178916 0.107507 0.0231665
-0.176346 0.101464 0.122867
-0.175235 0.0988494 0.166007
-0.174966 0.0982167 0.176447
-0.173672 0.0951706 0.226704
-0.173423 0.0945839 0.236383
-0.173176 0.0940044 0.245945
-0.172934 0.0934319 0.255389
-0.172693 0.0928665 0.264719
-0.170655 0.088069 0.343872
-0.180176 0.110723 0.0373012
-0.180014 0.11034 0.0433893
-0.179692 0.109582 0.0554403
-0.179375 0.108834 0.0673267
-0.179218 0.108464 0.0732092
-0.178907 0.107731 0.0848552
-0.177559 0.104552 0.135372
-0.17727 0.103871 0.146196
-0.176985 0.103199 0.156879
-0.185464 0.100377 0.191673
-0.185193 0.099742 0.201767
-0.184926 0.099115 0.211734
-0.17548 0.0996517 0.213252
-0.173832 0.0957615 0.275075
-0.17359 0.0951898 0.28416
-0.17335 0.0946249 0.293138
-0.172996 0.09379 0.306406
-0.172764 0.0932416 0.315122
-0.172534 0.0926995 0.323737
-0.171751 0.0908508 0.353116
-0.171424 0.0900809 0.365351
-0.17121 0.0895749 0.373393
-0.170893 0.0888264 0.385288
-0.170684 0.0883343 0.393109
-0.170376 0.0876063 0.404678
-0.169287 0.0850366 0.445516
-0.180123 0.110831 0.0979567
-0.179811 0.110094 0.109261
-0.179503 0.109366 0.120415
-0.176634 0.102586 0.224354
-0.173629 0.0954824 0.333248
-0.171426 0.0902732 0.413102
-0.171116 0.0895404 0.424334
-0.170811 0.0888195 0.435386
-0.161863 0.088573 0.448351
-0.179773 0.110219 0.165019
-0.179475 0.109516 0.175441
-0.188324 0.107558 0.194378
-0.177769 0.105474 0.23528
-0.177496 0.104829 0.244826
-0.177228 0.104192 0.254257
-0.176962 0.103563 0.263573
-0.1767 0.102941 0.272778
-0.174709 0.0982242 0.342619
-0.181853 0.115356 0.145244
-0.181539 0.114611 0.155908
-0.18945 0.110429 0.205737
-0.186085 0.110172 0.2128
-0.177798 0.105736 0.282988
-0.177404 0.104799 0.296395
-0.177145 0.104184 0.305203
-0.176888 0.103576 0.313907
-0.176635 0.102975 0.322511
-0.175651 0.10064 0.35595
-0.175412 0.100072 0.364074
-0.175059 0.0992332 0.376089
-0.174826 0.0986815 0.383988
-0.174482 0.0978654 0.395674
-0.173056 0.0944794 0.444154
-0.180997 0.11352 0.223271
-0.180704 0.112822 0.232946
-0.17757 0.105373 0.336217
-0.175508 0.100469 0.40419
-0.175163 0.0996508 0.415534
-0.174937 0.0991126 0.422995
-0.174602 0.0983161 0.434035
-0.161863 0.0982355 0.448351
-0.18165 0.115254 0.248435
-0.181357 0.114558 0.257794
-0.180925 0.113528 0.271623
-0.180641 0.112852 0.280705
-0.178615 0.108028 0.34552
-0.181558 0.115208 0.295209
-0.181275 0.114534 0.304004
-0.180995 0.113867 0.312698
-0.180582 0.112881 0.325549
-0.179645 0.110645 0.354687
-0.179383 0.110023 0.362801
-0.178997 0.109102 0.374803
-0.178744 0.108497 0.382694
-0.178368 0.107601 0.394366
-0.17681 0.103886 0.442798
-0.18161 0.115495 0.33498
-0.179364 0.110131 0.402875
-0.178989 0.109236 0.414207
-0.17862 0.108355 0.425356
-0.178378 0.107776 0.43269
-0.180425 0.112956 0.445031
-0.167919 0.113795 0.448342
