ply
format ascii 1.0
comment Created by Open3D
element vertex 643
property double x
property double y
property double z
end_header
-0.174342 -0.19576 -0.39724
-0.174368 -0.194804 -0.375637
-0.175158 -0.17559 -0.397258
-0.17517 -0.164975 -0.38652
-0.17517 -0.144891 -0.38652
-0.163444 -0.197022 0.373267
-0.175189 -0.196002 0.387177
0.158818 -0.195378 -0.397233
-0.175169 -0.187309 0.372457
-0.176005 -0.184492 0.391359
-0.16435 -0.177332 0.372453
0.158007 -0.175524 -0.397246
-0.17517 -0.124807 -0.38652
-0.169784 -0.164885 0.372454
0.158007 -0.163691 -0.397246
-0.176005 -0.157303 0.391359
0.172438 -0.197463 0.372903
0.157976 -0.19631 0.386732
-0.167085 -0.109405 -0.36978
-0.167106 -0.11036 -0.350267
-0.167127 -0.111331 -0.33041
0.158007 -0.143969 -0.397246
-0.144542 -0.107766 -0.399341
-0.17517 -0.104723 -0.38652
-0.167149 -0.109325 -0.3102
-0.167171 -0.110304 -0.289628
-0.16719 -0.111158 -0.271699
-0.167213 -0.109098 -0.250428
-0.167232 -0.109957 -0.231885
-0.167256 -0.110976 -0.209879
-0.167276 -0.111865 -0.190689
0.171182 -0.177283 0.372086
0.157156 -0.176581 0.392032
-0.175169 -0.137102 0.372457
-0.167297 -0.109591 -0.171189
-0.167319 -0.110484 -0.151372
-0.16734 -0.11139 -0.13123
-0.158864 -0.135079 0.372451
-0.176005 -0.133999 0.391359
-0.07029 -0.106972 -0.400906
-0.10466 -0.10331 -0.398579
-0.167362 -0.109056 -0.110754
-0.167385 -0.109966 -0.0899366
-0.167403 -0.110736 -0.0723216
-0.167426 -0.111674 -0.0508552
-0.0538008 -0.105542 -0.400642
-0.16745 -0.109267 -0.0290221
-0.16747 -0.11005 -0.0105405
-0.16749 -0.110845 0.00820795
-0.167514 -0.111815 0.0310669
-0.0303859 -0.104721 -0.400267
-0.167085 -0.0919 -0.36978
-0.167535 -0.10917 0.0504234
-0.167556 -0.109977 0.0700663
-0.167577 -0.110796 0.090002
-0.167599 -0.111628 0.110237
0.171184 -0.157308 0.372088
0.157156 -0.156685 0.392032
-0.00324392 -0.104121 -0.399831
-0.167106 -0.0897591 -0.350267
-0.167127 -0.0905493 -0.33041
-0.167149 -0.0913535 -0.3102
-0.167171 -0.0921721 -0.289628
-0.167621 -0.108902 0.130778
-0.167643 -0.109731 0.151632
-0.167661 -0.110405 0.168545
-0.167685 -0.111258 0.189981
0.0275184 -0.103693 -0.399338
-0.17517 -0.0846393 -0.38652
-0.16719 -0.0898401 -0.271699
-0.167213 -0.0906588 -0.250428
-0.167233 -0.0913725 -0.231885
-0.167256 -0.0922195 -0.209879
-0.167708 -0.108448 0.21175
-0.167727 -0.109127 0.229412
-0.167751 -0.109989 0.251802
-0.167771 -0.110688 0.26997
-0.167791 -0.111397 0.288371
-0.158864 -0.115502 0.372451
-0.175995 -0.1142 0.381504
0.0610988 -0.103327 -0.3988
-0.167277 -0.089807 -0.190689
-0.167298 -0.0905321 -0.171189
-0.167319 -0.091269 -0.151372
-0.167341 -0.0920179 -0.13123
-0.167816 -0.108488 0.311707
-0.167837 -0.109192 0.330647
-0.167857 -0.109906 0.349835
0.141692 -0.106863 -0.401134
0.0982417 -0.103062 -0.398204
-0.167363 -0.0895239 -0.110754
-0.167385 -0.0902708 -0.0899369
-0.167404 -0.0909028 -0.0723219
-0.167427 -0.091673 -0.0508556
-0.167451 -0.0924564 -0.0290223
-0.149295 -0.077826 -0.399432
-0.16747 -0.0897333 -0.0105409
-0.16749 -0.0903815 0.00820756
-0.167515 -0.0911719 0.0310663
-0.167536 -0.0918411 0.050423
0.158007 -0.100581 -0.397246
-0.167557 -0.0890289 0.0700659
-0.167578 -0.0896922 0.0900014
-0.1676 -0.0903654 0.110236
-0.167622 -0.0910488 0.130777
-0.167644 -0.0917426 0.151631
-0.167663 -0.0923053 0.168545
-0.167084 -0.0714778 -0.36978
-0.167105 -0.0721016 -0.350267
-0.167686 -0.0893707 0.18998
-0.167709 -0.0900666 0.21175
-0.167728 -0.0906311 0.229411
-0.167752 -0.0913468 0.251801
-0.167771 -0.0919276 0.26997
-0.175995 -0.0948437 0.381504
-0.167126 -0.0697675 -0.33041
-0.167148 -0.0703872 -0.3102
-0.16717 -0.0710179 -0.289628
-0.167189 -0.0715676 -0.271699
-0.167212 -0.0722198 -0.250428
-0.167791 -0.0887396 0.288371
-0.167816 -0.0894551 0.311706
-0.167837 -0.0900358 0.330647
-0.167857 -0.0906242 0.349835
-0.167232 -0.069691 -0.231885
-0.167256 -0.070337 -0.209879
-0.167276 -0.0709003 -0.190689
-0.167297 -0.0714727 -0.171189
-0.167318 -0.0720545 -0.151372
0.157626 -0.0991299 -0.0435861
0.157596 -0.0999456 -0.0157991
0.157575 -0.100497 0.00298104
0.15756 -0.100914 0.0172027
0.157539 -0.101476 0.0363498
0.157518 -0.102045 0.0557113
0.157497 -0.10262 0.0752909
0.157476 -0.0986141 0.0950922
0.157454 -0.0991759 0.115119
0.157432 -0.0997441 0.135376
0.15741 -0.100319 0.155866
0.157388 -0.1009 0.176593
0.157365 -0.101488 0.197562
0.157342 -0.102084 0.218777
0.157319 -0.102686 0.240243
0.158007 -0.0808593 -0.397246
0.157295 -0.0984906 0.261963
0.157272 -0.0990784 0.283942
0.15726 -0.099375 0.29503
0.157236 -0.0999735 0.317408
0.157205 -0.100732 0.345761
0.157174 -0.101502 0.374547
0.157162 -0.101813 0.386186
-0.130649 -0.058466 -0.399076
-0.175158 -0.0556748 -0.397258
0.157626 -0.0815068 -0.0435861
0.157596 -0.0821775 -0.0157991
0.157497 -0.0843761 0.0752909
-0.167084 -0.0510556 -0.36978
-0.167105 -0.0515011 -0.350267
-0.167126 -0.0519545 -0.33041
-0.167148 -0.052416 -0.3102
0.157576 -0.0781643 0.00298116
0.15756 -0.078489 0.0172028
0.15754 -0.0789261 0.0363499
0.157519 -0.0793682 0.0557115
0.157476 -0.0802673 0.0950922
0.157454 -0.0807246 0.115119
0.157432 -0.081187 0.135376
0.15741 -0.0816549 0.155866
0.157388 -0.0821281 0.176593
0.157319 -0.0835814 0.240243
-0.16717 -0.0498636 -0.289628
-0.167189 -0.0502496 -0.271699
-0.167212 -0.0507075 -0.250428
-0.167232 -0.0511067 -0.231885
-0.167256 -0.0515804 -0.209879
-0.167276 -0.0519936 -0.190689
-0.167297 -0.0524133 -0.171189
0.157366 -0.0778865 0.197563
0.157342 -0.0783432 0.218777
0.157295 -0.0792729 0.261963
0.157272 -0.079746 0.283942
0.15726 -0.0799847 0.29503
0.157236 -0.0804664 0.317408
0.157205 -0.0810768 0.345761
0.157174 -0.0816965 0.374547
0.157162 -0.0819471 0.386186
-0.158866 -0.0646029 0.372449
-0.175995 -0.0638744 0.381504
0.158007 -0.0611375 -0.397246
-0.167318 -0.0496375 -0.151372
-0.130076 -0.0625656 0.393119
-0.110878 -0.0444191 -0.398698
-0.175158 -0.035689 -0.397258
0.170487 -0.0623877 0.371634
0.157156 -0.0621765 0.392032
-0.112459 -0.0511796 0.393336
-0.169784 -0.0446159 0.372455
-0.176005 -0.0446664 0.391359
0.158007 -0.0414157 -0.397246
-0.167084 -0.0306334 -0.36978
-0.167105 -0.0309007 -0.350267
-0.167126 -0.0311727 -0.33041
-0.167148 -0.0314496 -0.3102
-0.16717 -0.0317314 -0.289628
-0.167189 -0.031977 -0.271699
-0.167212 -0.0322684 -0.250428
-0.090064 -0.0297536 -0.3983
-0.171736 -0.0293119 -0.229733
-0.171757 -0.0295448 -0.210943
-0.167276 -0.0299357 -0.190689
-0.167297 -0.0301774 -0.171189
-0.167318 -0.030423 -0.151372
0.17119 -0.0424483 0.372092
0.157156 -0.04228 0.392032
-0.086964 -0.0355253 0.394659
-0.0668398 -0.017625 -0.400851
-0.175158 -0.0157031 -0.397258
-0.0765224 -0.0231633 0.393068
0.17119 -0.0224726 0.372092
0.157156 -0.0223835 0.392032
-0.169784 -0.0174584 0.372455
-0.176005 -0.0174781 0.391359
-0.167084 -0.0102111 -0.36978
-0.167105 -0.0103002 -0.350267
-0.167127 -0.0103909 -0.33041
-0.167148 -0.0104832 -0.3102
-0.16717 -0.0105771 -0.289628
-0.16719 -0.010659 -0.271699
-0.167212 -0.0107561 -0.250428
-0.167232 -0.0108408 -0.231885
-0.167256 -0.0109413 -0.209879
-0.167276 -0.0110289 -0.190689
-0.167297 -0.011118 -0.171189
-0.167319 -0.0112085 -0.151372
-0.0640371 -0.0148829 0.393013
-0.0503968 -0.00488798 -0.400587
0.17119 -0.00249697 0.372092
0.157156 -0.00248708 0.392032
-0.0383101 0.00216813 0.392913
-0.175158 0.00428266 -0.397258
-0.158864 0.00587298 0.372451
-0.175995 0.00580674 0.381504
-0.0325128 0.00829373 -0.400301
-0.167155 0.00750705 -0.30436
-0.167186 0.00760377 -0.274707
-0.167216 0.00769297 -0.247358
-0.167229 0.0077333 -0.234996
-0.167259 0.00782559 -0.206702
-0.16728 0.00788835 -0.187461
-0.167294 0.00793075 -0.174461
-0.167315 0.00799521 -0.154697
-0.167084 0.0102111 -0.36978
-0.167105 0.0103002 -0.350267
-0.167127 0.0103909 -0.33041
-0.0181639 0.0154076 0.392973
0.17119 0.0224726 0.372092
0.157156 0.0223835 0.392032
-0.0135686 0.0219688 -0.399997
0.00273681 0.0290597 0.393137
-0.158864 0.0254497 0.372451
-0.175995 0.0251626 0.381504
-0.175158 0.0242685 -0.397258
0.17119 0.0424483 0.372092
0.157156 0.04228 0.392032
0.0171723 0.0384047 0.393354
-0.167084 0.0277159 -0.36978
-0.171606 0.0278137 -0.350608
-0.171627 0.0280586 -0.330853
-0.171649 0.0283078 -0.310748
-0.171671 0.0285615 -0.290282
-0.17169 0.0287825 -0.272445
-0.171713 0.0290448 -0.251284
-0.171736 0.0293119 -0.229733
-0.171757 0.0295448 -0.210943
-0.171777 0.0297814 -0.191852
-0.171798 0.0300219 -0.172453
-0.167322 0.0304643 -0.148038
0.00622129 0.0361718 -0.39968
-0.158864 0.0450263 0.372451
0.17119 0.0624239 0.372092
0.157156 0.0621765 0.392032
0.0386209 0.0573498 0.393097
-0.176011 0.0525217 0.396311
0.0270057 0.0509432 -0.399346
-0.175995 0.056132 0.381504
-0.175158 0.0442543 -0.397258
-0.167204 0.0475107 -0.256545
-0.167228 0.0479465 -0.234995
-0.167259 0.0485186 -0.206701
-0.167279 0.0489077 -0.187461
-0.167294 0.0491706 -0.174461
-0.167315 0.0495703 -0.154697
-0.167083 0.0481382 -0.36978
-0.167102 0.0485584 -0.350267
-0.167124 0.0489859 -0.33041
-0.167145 0.0494209 -0.3102
-0.167168 0.0498638 -0.289628
0.17119 0.0823996 0.372092
0.157156 0.082073 0.392032
0.0684695 0.0773073 0.392885
0.0486395 0.0663134 -0.398999
-0.158864 0.076349 0.372451
-0.175995 0.0754879 0.381504
0.17119 0.102375 0.372092
0.157156 0.101969 0.392032
0.0997443 0.0981412 0.392759
-0.167269 0.0675688 -0.197119
-0.167294 0.0682044 -0.174461
-0.167315 0.0687587 -0.154697
0.0714334 0.0823388 -0.398634
-0.175158 0.0642402 -0.397258
-0.167152 0.0675636 -0.304359
-0.167184 0.068434 -0.274706
-0.167214 0.0692368 -0.247358
-0.167228 0.0695997 -0.234995
-0.167083 0.0685605 -0.36978
-0.167102 0.0691589 -0.350267
-0.167124 0.0697678 -0.33041
0.124338 0.114395 0.392819
0.17119 0.122351 0.372092
0.157156 0.121866 0.392032
-0.158864 0.0959257 0.372451
-0.176005 0.0951588 0.391359
0.0891645 0.094805 -0.39835
0.142224 0.130574 0.393563
-0.17182 0.0876127 -0.152738
0.109343 0.107983 -0.394489
-0.171727 0.0875905 -0.239017
-0.171747 0.0882837 -0.220375
-0.167265 0.0894489 -0.200322
-0.167286 0.0901682 -0.180978
0.17119 0.142327 0.372092
0.157156 0.141762 0.392032
-0.175158 0.084226 -0.397258
-0.175181 0.0850567 -0.375676
-0.17164 0.0875698 -0.319408
-0.171658 0.088239 -0.302021
-0.167178 0.0894941 -0.280698
-0.1672 0.0903064 -0.259591
-0.158864 0.115502 0.372451
-0.16709 0.089314 -0.361459
-0.167112 0.0900963 -0.341799
0.166328 0.14786 0.272593
0.160954 0.147862 0.286095
0.157247 0.148294 0.306185
0.157217 0.149416 0.334368
0.157205 0.149869 0.345761
0.129302 0.12142 -0.394108
0.166343 0.147861 0.154947
0.15767 0.147865 0.176733
0.157364 0.148692 0.197562
0.157341 0.149564 0.218777
0.157318 0.150446 0.240242
0.157149 0.156926 0.397896
-0.176011 0.122551 0.396311
0.166356 0.147862 0.044539
0.157951 0.147867 0.0656519
0.157485 0.148647 0.085163
0.157463 0.149491 0.105077
0.157442 0.150345 0.125218
0.157174 0.160917 0.374547
-0.175995 0.125813 0.381504
0.159846 0.147867 -0.0428954
0.157593 0.148808 -0.0157999
0.157573 0.149628 0.00298035
0.157558 0.15025 0.017202
0.132671 0.163985 0.392805
0.103384 0.160889 0.395341
0.146214 0.134742 -0.397435
-0.167249 0.107565 -0.216208
-0.16727 0.108424 -0.19712
-0.167294 0.109444 -0.174461
-0.167315 0.110334 -0.154697
0.157247 0.167743 0.306185
0.157217 0.169011 0.334368
0.157205 0.169524 0.345761
0.0768211 0.162605 0.393331
0.0633922 0.161155 0.394778
-0.158864 0.135079 0.372451
-0.167176 0.107558 -0.283682
-0.167205 0.108815 -0.256545
0.157365 0.167574 0.197562
0.157342 0.168557 0.218777
0.157318 0.169551 0.240243
0.157295 0.170557 0.261963
0.157272 0.171575 0.283942
0.140967 0.173128 0.358128
0.157149 0.176853 0.397896
0.0321214 0.162148 0.39373
-0.175158 0.104212 -0.397258
-0.175181 0.10524 -0.375676
-0.167107 0.107551 -0.347451
-0.167132 0.108636 -0.324672
-0.167163 0.110023 -0.295543
0.15747 0.167652 0.100078
0.157448 0.168608 0.120162
0.157426 0.169576 0.140476
0.157404 0.170554 0.161025
0.157382 0.171544 0.181813
0.137633 0.174825 0.299868
0.127435 0.174364 0.315702
0.114764 0.173791 0.335378
0.0971628 0.172996 0.362708
0.00952494 0.163982 0.392943
-0.0155888 0.161084 0.395011
0.15757 0.167726 0.00770831
0.157544 0.168892 0.0315429
0.157523 0.169837 0.0508505
0.157502 0.170792 0.0703753
0.139441 0.176692 0.235772
0.126903 0.176119 0.255438
0.114446 0.175551 0.274977
0.102069 0.174986 0.294391
0.0946813 0.174649 0.30598
0.0824316 0.174089 0.325195
0.0629945 0.173202 0.355684
-0.0376974 0.162708 0.393407
-0.175995 0.145169 0.381504
0.157626 0.169622 -0.0435862
0.157596 0.171018 -0.0157991
0.141192 0.178499 0.173728
0.133776 0.178157 0.185473
0.116582 0.177365 0.212704
0.101966 0.176691 0.235853
0.0898716 0.176133 0.25501
0.0706784 0.175249 0.285411
0.0516768 0.174373 0.315508
0.0328641 0.173506 0.345306
-0.057754 0.164499 0.392943
-0.16 0.147866 0.318227
-0.167847 0.147986 0.34021
0.158007 0.155802 -0.397246
0.142887 0.180249 0.11364
0.135585 0.179909 0.125314
0.123475 0.179346 0.144672
0.116246 0.17901 0.156229
0.104257 0.178452 0.175395
0.0852295 0.177566 0.205812
0.0734334 0.177018 0.224671
0.0663909 0.17669 0.23593
0.054711 0.176147 0.254603
0.0477376 0.175822 0.265752
0.0292665 0.174963 0.295283
0.0109751 0.174112 0.324526
0.00416148 0.173795 0.335419
-0.160066 0.147867 0.244079
-0.167767 0.147975 0.265406
-0.167796 0.149397 0.293008
-0.167277 0.12762 -0.190689
-0.167298 0.128651 -0.171189
-0.167319 0.129698 -0.151372
0.14453 0.181945 0.0554168
0.125409 0.181048 0.0862568
0.113555 0.180491 0.105378
0.0947382 0.179608 0.135728
0.076105 0.178733 0.165783
0.0645515 0.17819 0.184419
0.0576534 0.177867 0.195546
0.0393797 0.177009 0.225023
0.0212816 0.176159 0.254217
0.0145397 0.175843 0.265093
-0.161484 0.147868 0.176979
-0.167699 0.148423 0.203002
-0.167714 0.149118 0.216145
0.135739 0.16065 -0.397603
-0.167212 0.127537 -0.250428
-0.167232 0.128541 -0.231885
-0.167256 0.129733 -0.209879
0.139037 0.183254 0.0104993
0.127285 0.182697 0.0296177
0.115604 0.182144 0.0486203
0.103994 0.181594 0.0675082
0.0901543 0.180939 0.0900237
0.0786971 0.180397 0.108663
0.0650387 0.17975 0.130883
0.0537317 0.179214 0.149278
0.0424922 0.178682 0.167565
0.0290927 0.178048 0.189366
0.0157878 0.177418 0.211012
-0.161523 0.147866 0.109799
-0.167622 0.148178 0.130777
-0.167644 0.149307 0.151631
0.108462 0.160707 -0.39804
-0.167154 0.12762 -0.30436
-0.167186 0.129264 -0.274707
0.136939 0.184013 -0.0500228
0.128905 0.184013 -0.0299445
0.119889 0.183858 -0.0102098
0.108433 0.183311 0.00858304
0.0947742 0.182659 0.0309874
0.0834662 0.182119 0.0495363
0.0722246 0.181582 0.0679758
0.058822 0.180942 0.0899603
0.0477251 0.180412 0.108163
0.0344951 0.179781 0.129866
-0.16284 0.147867 0.0490161
-0.167556 0.148382 0.0700661
-0.167578 0.149487 0.0900017
-0.167873 0.164702 0.364392
-0.176011 0.165346 0.396311
0.0831913 0.160871 -0.398445
-0.175158 0.124198 -0.397258
-0.167095 0.12754 -0.358671
-0.167113 0.128498 -0.341799
-0.167135 0.129633 -0.321792
0.109872 0.184014 -0.0584448
0.102022 0.184014 -0.038828
0.0941731 0.184014 -0.0192111
0.0836544 0.183579 -0.000581503
0.0725825 0.183046 0.0177249
0.0593803 0.18241 0.0395527
0.0484484 0.181884 0.0576271
-0.162847 0.147865 -0.012131
-0.16749 0.148362 0.00820783
-0.167515 0.14966 0.0310666
0.0591319 0.161047 -0.398831
0.0840203 0.184015 -0.0664884
0.0794164 0.184015 -0.0549828
0.0671397 0.184015 -0.024301
0.0512999 0.183417 0.00500575
-0.164075 0.147866 -0.0674425
-0.167423 0.148135 -0.0544582
-0.167454 0.149825 -0.0253469
-0.167781 0.167503 0.279141
-0.167801 0.168578 0.29766
-0.167826 0.169942 0.321146
-0.167847 0.171049 0.34021
0.0365145 0.16128 -0.399194
0.0593047 0.184016 -0.0741786
-0.164055 0.147864 -0.123341
-0.167377 0.148943 -0.0969142
-0.167714 0.167527 0.216145
-0.167742 0.16911 0.242803
-0.167757 0.169913 0.256322
-0.167868 0.176039 0.359524
0.178233 0.185375 -0.415527
0.173771 0.185372 -0.404435
0.0151839 0.161561 -0.399536
-0.175181 0.134072 -0.375676
-0.167293 0.147512 -0.174461
-0.167315 0.148711 -0.154697
-0.167649 0.167551 0.15584
-0.167681 0.16936 0.185667
0.152566 0.185375 -0.415547
0.148199 0.185371 -0.404688
-0.00510526 0.161864 -0.399861
-0.167239 0.147512 -0.225639
-0.167259 0.148686 -0.206702
-0.16728 0.149878 -0.187461
-0.167587 0.167573 0.0980592
-0.167609 0.168835 0.118416
-0.167631 0.170115 0.139081
-0.175995 0.183881 0.381504
-0.174749 0.185377 0.402478
0.127958 0.185374 -0.415566
0.123681 0.185371 -0.404931
-0.0354077 0.160632 -0.397256
-0.167186 0.147513 -0.274707
-0.167216 0.149244 -0.247358
-0.167527 0.167594 0.0426463
-0.167553 0.169079 0.0661141
-0.194485 0.185899 0.398515
0.104344 0.185374 -0.415584
-0.0554056 0.160683 -0.397638
-0.167136 0.147514 -0.321792
-0.167158 0.148829 -0.301428
-0.16747 0.167615 -0.0105409
-0.167491 0.168826 0.0082075
-0.17778 0.185376 0.289497
-0.186128 0.185374 0.310329
-0.193083 0.185373 0.327691
-0.194433 0.186608 0.350129
0.0816655 0.185373 -0.415601
-0.175158 0.144183 -0.397258
-0.167087 0.147514 -0.367013
-0.167109 0.148803 -0.347451
-0.167415 0.167635 -0.0616339
-0.167439 0.169061 -0.0399854
-0.178526 0.185375 0.23466
-0.186709 0.185373 0.25508
0.059868 0.185373 -0.415618
-0.0923408 0.160909 -0.398344
-0.167363 0.167654 -0.110754
-0.167385 0.169053 -0.0899369
-0.177906 0.185374 0.178615
-0.18593 0.185372 0.198639
0.0389007 0.185372 -0.415634
0.025268 0.184149 -0.399374
-0.109577 0.161053 -0.398673
-0.167312 0.167672 -0.158014
-0.16733 0.168814 -0.141342
-0.178622 0.185373 0.127979
-0.186492 0.185372 0.147623
0.0187174 0.185372 -0.41565
-0.125869 0.161249 -0.398984
-0.167263 0.16769 -0.203516
-0.178023 0.185373 0.0760247
-0.185746 0.185371 0.0953011
-0.000725031 0.185372 -0.415665
-0.167216 0.167707 -0.247358
-0.167229 0.168586 -0.234996
-0.17871 0.185372 0.0291308
-0.186291 0.18537 0.0480544
-0.019467 0.185371 -0.41568
-0.167167 0.167509 -0.29259
-0.167187 0.168803 -0.274707
-0.175554 0.185127 -0.0289745
-0.181854 0.18537 -0.00987872
-0.189291 0.18537 0.00870773
-0.0375452 0.185371 -0.415694
-0.167124 0.167528 -0.333268
-0.167152 0.169444 -0.307284
-0.175504 0.185032 -0.0755136
-0.183667 0.185369 -0.0505489
-0.0585952 0.185368 -0.406737
-0.175158 0.164169 -0.397258
-0.167085 0.167754 -0.36978
-0.167106 0.169218 -0.350267
-0.177034 0.18537 -0.110731
-0.0777419 0.185367 -0.401026
-0.17348 0.184017 -0.179416
-0.175413 0.185102 -0.160411
-0.183573 0.185369 -0.136531
-0.0881337 0.18537 -0.415733
-0.101983 0.184015 -0.398528
-0.175368 0.185012 -0.202327
-0.175328 0.185167 -0.239753
-0.183485 0.185368 -0.216828
-0.193854 0.185838 -0.184984
-0.119117 0.185369 -0.415757
-0.132512 0.184015 -0.399111
-0.175289 0.185318 -0.276021
-0.182885 0.185368 -0.256415
-0.177903 0.185367 -0.305739
-0.148149 0.185369 -0.415779
-0.15249 0.185367 -0.404949
-0.175208 0.185142 -0.350881
-0.182823 0.185367 -0.329142
-0.166263 0.185367 -0.405128
-0.186963 0.185368 -0.386928
-0.193658 0.185742 -0.365828
-0.18842 0.185368 -0.41581
