ply
format ascii 1.0
comment Created by Open3D
element vertex 983
property double x
property double y
property double z
end_header
-0.259712 -0.255932 -0.263032
-0.278988 -0.252398 -0.263009
-0.297738 -0.248961 -0.262986
-0.317981 -0.245249 -0.262961
-0.323909 -0.254091 -0.236726
-0.323927 -0.259278 -0.223014
-0.245328 -0.242216 -0.266436
-0.302495 -0.23235 -0.266366
-0.231958 -0.24235 -0.266452
-0.32053 -0.227199 -0.266344
-0.277673 -0.232427 -0.266396
-0.327294 -0.23122 -0.245752
-0.32733 -0.241064 -0.217611
-0.206774 -0.242234 -0.266483
-0.192656 -0.242372 -0.266501
-0.327348 -0.241849 -0.202622
-0.166042 -0.242253 -0.266533
-0.151112 -0.242395 -0.266552
-0.122943 -0.242272 -0.266586
-0.247531 -0.222489 -0.266433
-0.327311 -0.221087 -0.231974
-0.327388 -0.241199 -0.170591
-0.234204 -0.222435 -0.26645
-0.298421 -0.212337 -0.266371
-0.0936938 -0.242145 -0.266622
-0.316564 -0.20744 -0.266348
-0.327294 -0.212387 -0.245752
-0.327409 -0.242044 -0.153457
-0.206774 -0.222324 -0.266483
-0.273447 -0.212044 -0.266401
-0.0604796 -0.242444 -0.266663
-0.327348 -0.221788 -0.202622
-0.028762 -0.242315 -0.266702
-0.163575 -0.22215 -0.266536
-0.0109216 -0.242471 -0.266724
-0.180678 -0.217339 -0.266515
-0.327454 -0.241356 -0.116678
-0.13073 -0.222405 -0.266577
0.0228273 -0.242339 -0.266765
-0.254101 -0.20219 -0.266425
-0.327311 -0.201862 -0.231974
-0.327388 -0.220225 -0.170591
-0.327478 -0.242269 -0.0969087
0.0418288 -0.2425 -0.266789
-0.0990949 -0.222285 -0.266616
0.0579965 -0.242201 -0.266808
-0.0827779 -0.222223 -0.266636
-0.222903 -0.202338 -0.266463
-0.292262 -0.192495 -0.266379
-0.327409 -0.220582 -0.153457
0.2625 -0.269272 -0.263673
0.0778106 -0.242364 -0.266833
-0.314572 -0.187282 -0.266351
-0.327294 -0.191463 -0.245752
-0.327503 -0.240598 -0.0761241
0.283224 -0.269206 -0.263698
0.0980902 -0.242531 -0.266858
-0.0462179 -0.222495 -0.26668
-0.327348 -0.201727 -0.202622
0.30869 -0.269729 -0.263729
0.25893 -0.268255 -0.244765
0.115357 -0.242222 -0.266879
-0.028762 -0.222433 -0.266702
-0.32753 -0.241539 -0.0542444
0.136534 -0.242391 -0.266905
-0.0109216 -0.22237 -0.266724
-0.158614 -0.202317 -0.266542
-0.195028 -0.197373 -0.266498
-0.269194 -0.187303 -0.266407
-0.327454 -0.221348 -0.116678
0.00731611 -0.222306 -0.266746
-0.178259 -0.197394 -0.266518
-0.327558 -0.24253 -0.0311809
0.258894 -0.267766 -0.213716
0.176708 -0.242244 -0.266954
0.0259645 -0.22224 -0.266769
-0.122943 -0.202479 -0.266586
-0.327388 -0.201582 -0.170591
-0.327478 -0.221759 -0.0969087
0.266609 -0.252154 -0.263678
0.199393 -0.242419 -0.266982
0.291639 -0.252449 -0.263708
0.218732 -0.242091 -0.267006
0.0645504 -0.222103 -0.266817
-0.0882549 -0.202294 -0.266629
-0.243117 -0.182218 -0.266439
-0.327311 -0.180501 -0.231974
-0.327409 -0.201505 -0.153457
-0.327503 -0.222192 -0.0761241
-0.327588 -0.240727 -0.00683481
0.313 -0.252198 -0.263734
0.24248 -0.242268 -0.267035
0.0878912 -0.222465 -0.266845
-0.0689155 -0.202377 -0.266653
-0.302495 -0.172455 -0.266366
0.10841 -0.222398 -0.26687
-0.0490907 -0.202463 -0.266677
-0.2091 -0.182211 -0.266481
-0.326434 -0.16736 -0.266336
-0.327619 -0.241752 0.0189042
0.129419 -0.222329 -0.266896
-0.0316977 -0.202184 -0.266698
-0.273447 -0.171956 -0.266402
-0.327294 -0.170538 -0.245752
-0.327348 -0.181665 -0.202622
-0.32753 -0.219949 -0.0542444
0.150937 -0.222258 -0.266923
-0.0109216 -0.202269 -0.266724
-0.327454 -0.201339 -0.116678
0.326195 -0.240873 -0.267138
0.172981 -0.222186 -0.26695
0.0103953 -0.202356 -0.26675
-0.153621 -0.182351 -0.266549
-0.327653 -0.239821 0.0461589
0.279257 -0.23219 -0.26708
0.195573 -0.222112 -0.266977
0.0322744 -0.202446 -0.266777
-0.175832 -0.177383 -0.266521
-0.327478 -0.20125 -0.0969087
0.304579 -0.232244 -0.267111
0.218732 -0.222036 -0.267006
-0.115075 -0.182347 -0.266596
-0.327388 -0.180608 -0.170591
-0.327558 -0.214812 -0.0311809
-0.327588 -0.220786 -0.00683481
-0.327688 -0.24088 0.0750672
0.246497 -0.22243 -0.26704
0.0744763 -0.202241 -0.266829
-0.096399 -0.182186 -0.266619
-0.327409 -0.182427 -0.153457
-0.327503 -0.201156 -0.0761241
-0.319045 -0.268647 0.198283
0.0946773 -0.201937 -0.266853
0.0547382 -0.197311 -0.266804
-0.0744898 -0.182342 -0.266646
-0.247531 -0.162299 -0.266434
-0.327311 -0.161276 -0.231974
-0.327619 -0.22124 0.0189042
-0.327725 -0.242006 0.105784
0.12236 -0.202426 -0.266887
-0.0548055 -0.182177 -0.26667
-0.227445 -0.162445 -0.266458
-0.32753 -0.201057 -0.0542444
0.321834 -0.222202 -0.267133
0.143706 -0.202116 -0.266914
-0.0316977 -0.182337 -0.266698
-0.209101 -0.162333 -0.266481
-0.296374 -0.152492 -0.266373
-0.327653 -0.221721 0.0461589
-0.324504 -0.269602 0.250282
0.16927 -0.20221 -0.266945
-0.0109216 -0.182168 -0.266724
-0.277673 -0.152497 -0.266396
-0.324472 -0.147292 -0.266339
-0.327294 -0.151705 -0.245752
-0.327348 -0.161604 -0.202622
-0.327454 -0.18133 -0.116678
-0.327765 -0.239895 0.138486
0.287624 -0.212403 -0.267091
0.270961 -0.210576 -0.26707
0.195573 -0.202306 -0.266977
0.0134859 -0.182332 -0.266754
-0.327688 -0.222231 0.0750672
0.222649 -0.202405 -0.267011
0.0354471 -0.182157 -0.266781
-0.148594 -0.162252 -0.266555
-0.192656 -0.157486 -0.266501
-0.327478 -0.18074 -0.0969087
-0.327588 -0.200844 -0.00683481
-0.327808 -0.241063 0.17337
0.246497 -0.202077 -0.26704
-0.133308 -0.16158 -0.266573
-0.173397 -0.157306 -0.266524
-0.327388 -0.161965 -0.170591
0.084518 -0.182147 -0.266841
-0.104459 -0.162287 -0.266609
-0.327503 -0.18012 -0.0761241
-0.327619 -0.200728 0.0189042
-0.327725 -0.219568 0.105784
-0.327854 -0.24231 0.210654
0.101517 -0.181248 -0.266862
0.0645504 -0.17742 -0.266817
-0.0800248 -0.162448 -0.266639
-0.327409 -0.160965 -0.153457
-0.32753 -0.182166 -0.0542444
-0.327558 -0.187094 -0.0311809
0.326195 -0.201485 -0.267138
0.136534 -0.182135 -0.266905
-0.0576476 -0.162324 -0.266666
-0.327311 -0.142051 -0.231974
-0.327653 -0.200605 0.0461589
-0.327765 -0.220042 0.138486
0.26684 -0.192491 -0.267065
0.165573 -0.182315 -0.266941
0.115357 -0.177269 -0.266879
-0.0316977 -0.162491 -0.266698
-0.231958 -0.142367 -0.266453
-0.247532 -0.140802 -0.266434
-0.327906 -0.239977 0.250581
0.296065 -0.192444 -0.267101
0.195573 -0.1825 -0.266977
-0.00790995 -0.162364 -0.266728
-0.209101 -0.142455 -0.266481
-0.327454 -0.161321 -0.116678
-0.327688 -0.200474 0.0750672
-0.327808 -0.220547 0.17337
0.222649 -0.182308 -0.267011
0.0165881 -0.162234 -0.266758
-0.290197 -0.132347 -0.266381
-0.327348 -0.141543 -0.202622
-0.327588 -0.180902 -0.00683481
0.254582 -0.182499 -0.26705
0.0418288 -0.162099 -0.266789
-0.163575 -0.142404 -0.266537
-0.269194 -0.132276 -0.266407
-0.32053 -0.127354 -0.266344
-0.327294 -0.13078 -0.245752
-0.327478 -0.160231 -0.0969087
-0.327725 -0.200336 0.105784
-0.327854 -0.221086 0.210654
-0.138438 -0.142497 -0.266567
-0.192656 -0.137381 -0.266501
-0.327503 -0.161714 -0.0761241
-0.327619 -0.180215 0.0189042
0.317492 -0.182498 -0.267127
0.101517 -0.162452 -0.266862
0.0811578 -0.160562 -0.266837
-0.327388 -0.140991 -0.170591
-0.327765 -0.200189 0.138486
-0.327906 -0.221658 0.250581
0.129419 -0.162314 -0.266896
0.0612672 -0.156093 -0.266812
-0.0882549 -0.142444 -0.266629
-0.109785 -0.140478 -0.266603
-0.327409 -0.141888 -0.153457
-0.32753 -0.160576 -0.0542444
-0.327558 -0.16492 -0.0311809
-0.327653 -0.179488 0.0461589
0.270961 -0.172289 -0.26707
0.158225 -0.162171 -0.266931
-0.0633015 -0.142289 -0.266659
-0.327688 -0.181826 0.0750672
-0.327808 -0.200031 0.17337
0.304579 -0.17231 -0.267111
0.191769 -0.162358 -0.266973
-0.0346227 -0.142387 -0.266695
0.222649 -0.162211 -0.267011
-0.00488716 -0.142488 -0.266731
-0.236443 -0.122416 -0.266448
-0.327311 -0.12069 -0.231974
-0.327454 -0.141312 -0.116678
-0.327588 -0.16096 -0.00683481
-0.327725 -0.181104 0.105784
-0.327854 -0.199861 0.210654
0.250531 -0.161714 -0.267045
0.0228273 -0.142326 -0.266765
-0.21142 -0.12238 -0.266478
-0.327478 -0.142285 -0.0969087
0.0418288 -0.14135 -0.266789
-0.327348 -0.121482 -0.202622
-0.327619 -0.159703 0.0189042
-0.327765 -0.180335 0.138486
-0.327906 -0.199675 0.250581
0.326195 -0.162097 -0.267138
0.084518 -0.142261 -0.266841
-0.158615 -0.122305 -0.266543
-0.279776 -0.11236 -0.266394
-0.327294 -0.111948 -0.245752
-0.327503 -0.140678 -0.0761241
-0.327653 -0.161389 0.0461589
0.104956 -0.141248 -0.266866
0.0579965 -0.137465 -0.266808
-0.128143 -0.122473 -0.26658
-0.190277 -0.117468 -0.266504
-0.262766 -0.11163 -0.266415
-0.314572 -0.107457 -0.266351
-0.327388 -0.122347 -0.170591
-0.32753 -0.141685 -0.0542444
-0.327808 -0.179515 0.17337
0.279257 -0.152329 -0.26708
0.154574 -0.142478 -0.266927
0.125883 -0.140211 -0.266892
-0.099095 -0.122435 -0.266616
-0.327688 -0.160069 0.0750672
-0.327854 -0.182174 0.210654
0.304579 -0.151333 -0.267111
0.18798 -0.142299 -0.266968
0.16927 -0.14085 -0.266945
-0.0689156 -0.122396 -0.266653
-0.327409 -0.120426 -0.153457
-0.327725 -0.161871 0.105784
0.226582 -0.142413 -0.267016
0.214832 -0.141521 -0.267001
-0.0375372 -0.122355 -0.266691
-0.327558 -0.137203 -0.0311809
-0.327588 -0.141018 -0.00683481
-0.327906 -0.181356 0.250581
0.262736 -0.142226 -0.26706
-0.00488716 -0.122313 -0.266731
-0.0228585 -0.120976 -0.266709
-0.327454 -0.121303 -0.116678
-0.327619 -0.142121 0.0189042
-0.327765 -0.160482 0.138486
0.0322744 -0.122499 -0.266777
-0.243117 -0.10243 -0.266439
-0.327311 -0.101465 -0.231974
-0.327478 -0.121775 -0.0969087
-0.327808 -0.162419 0.17337
0.326195 -0.140888 -0.267138
0.0450377 -0.120831 -0.266793
-0.213731 -0.10237 -0.266476
-0.327503 -0.122271 -0.0761241
-0.327653 -0.140272 0.0461589
0.104956 -0.122415 -0.266866
0.084518 -0.120988 -0.266841
-0.192657 -0.10164 -0.266502
-0.327348 -0.101421 -0.202622
-0.327688 -0.14142 0.0750672
-0.327854 -0.16095 0.210654
0.291835 -0.132483 -0.267096
0.143706 -0.12237 -0.266914
-0.148594 -0.102414 -0.266555
-0.32753 -0.120095 -0.0542444
0.184208 -0.122323 -0.266963
-0.128143 -0.101477 -0.266581
-0.262766 -0.0924931 -0.266415
-0.327294 -0.0910232 -0.245752
-0.327388 -0.101373 -0.170591
-0.327725 -0.139434 0.105784
-0.327906 -0.159374 0.250581
0.226582 -0.122274 -0.267016
0.214832 -0.121508 -0.267001
0.115357 -0.115022 -0.266879
-0.0772624 -0.102462 -0.266643
-0.168502 -0.0965131 -0.266531
-0.308561 -0.087381 -0.266359
-0.327409 -0.101348 -0.153457
-0.327588 -0.121076 -0.00683481
-0.327765 -0.140628 0.138486
0.26684 -0.12196 -0.267065
0.254582 -0.121179 -0.26705
-0.0404413 -0.102396 -0.266688
-0.0576478 -0.1013 -0.266667
-0.283964 -0.0868911 -0.266388
-0.327558 -0.115028 -0.0311809
-0.327619 -0.121609 0.0189042
-0.327808 -0.141903 0.17337
0.321834 -0.122438 -0.267133
0.158225 -0.112272 -0.266931
-0.00185335 -0.102326 -0.266735
-0.0198908 -0.101205 -0.266713
-0.104459 -0.0959506 -0.266609
-0.327454 -0.101295 -0.116678
-0.327653 -0.122173 0.0461589
0.0418288 -0.102447 -0.266789
0.0197019 -0.101106 -0.266761
-0.327478 -0.101266 -0.0969087
-0.327854 -0.139726 0.210654
0.084518 -0.102374 -0.266841
-0.327311 -0.0822399 -0.231974
-0.327503 -0.101235 -0.0761241
-0.327688 -0.119663 0.0750672
-0.327906 -0.141055 0.250581
0.304579 -0.112376 -0.267111
0.111877 -0.101289 -0.266875
-0.216035 -0.0824239 -0.266473
-0.32753 -0.101203 -0.0542444
-0.327725 -0.120202 0.105784
0.18045 -0.102428 -0.266959
0.140113 -0.100169 -0.266909
0.0645504 -0.0959382 -0.266817
-0.187889 -0.081802 -0.266508
-0.327348 -0.0813594 -0.202622
-0.327765 -0.120775 0.138486
0.230531 -0.10235 -0.26702
0.210948 -0.101283 -0.266996
-0.135877 -0.0823937 -0.266571
-0.243117 -0.0765531 -0.266439
-0.327588 -0.101134 -0.00683481
-0.327808 -0.121387 0.17337
0.279257 -0.102045 -0.26708
0.25865 -0.100955 -0.267055
-0.0909795 -0.0824491 -0.266626
-0.122943 -0.0807573 -0.266587
-0.327294 -0.0721908 -0.245752
-0.327388 -0.0803997 -0.170591
-0.327409 -0.0822711 -0.153457
-0.327558 -0.0956261 -0.0311809
-0.327619 -0.101096 0.0189042
-0.327854 -0.122039 0.210654
0.326195 -0.1015 -0.267138
-0.0462182 -0.0823598 -0.266681
-0.0744901 -0.0809068 -0.266646
-0.163575 -0.0763282 -0.266537
-0.262766 -0.0712304 -0.266415
-0.327653 -0.101056 0.0461589
0.00424814 -0.0824176 -0.266743
-0.0228588 -0.0810661 -0.26671
-0.296374 -0.0674283 -0.266374
-0.322504 -0.0661256 -0.266341
-0.327454 -0.0812858 -0.116678
-0.327688 -0.101014 0.0750672
-0.327906 -0.119072 0.250581
0.0514923 -0.0821649 -0.266801
0.0322742 -0.0812361 -0.266777
-0.283964 -0.0659534 -0.266389
-0.327478 -0.0807562 -0.0969087
-0.327725 -0.100969 0.105784
0.304579 -0.091399 -0.267111
0.111877 -0.082382 -0.266875
0.0912776 -0.0814181 -0.266849
-0.327503 -0.0801994 -0.0761241
-0.32753 -0.082312 -0.0542444
-0.327765 -0.100921 0.138486
0.172981 -0.0824465 -0.26695
0.154574 -0.0816134 -0.266927
-0.327808 -0.10087 0.17337
0.234497 -0.0823414 -0.267025
0.214832 -0.0814815 -0.267001
0.0711549 -0.0751994 -0.266825
-0.220621 -0.0624417 -0.266467
-0.327311 -0.0608789 -0.231974
-0.327588 -0.0811921 -0.00683481
-0.327854 -0.100815 0.210654
0.283431 -0.0815167 -0.267085
0.254582 -0.0802996 -0.26705
-0.17826 -0.0620379 -0.26652
-0.19975 -0.0611312 -0.266494
-0.327348 -0.0612981 -0.202622
-0.327558 -0.0762237 -0.0311809
-0.327619 -0.0805841 0.0189042
-0.327906 -0.100754 0.250581
0.326195 -0.0802911 -0.267138
-0.115076 -0.0623508 -0.266597
-0.143533 -0.0611938 -0.266562
-0.238675 -0.0573258 -0.266445
-0.327388 -0.0617563 -0.170591
-0.327653 -0.0799402 0.0461589
-0.327688 -0.0823654 0.0750672
-0.0519536 -0.0624674 -0.266674
-0.0689159 -0.0618038 -0.266653
-0.0882554 -0.0610472 -0.26663
-0.327409 -0.060809 -0.153457
-0.327725 -0.081737 0.105784
0.125883 -0.0667022 -0.266892
0.0134856 -0.0624774 -0.266754
-0.0139226 -0.0614472 -0.266721
-0.0346231 -0.0606691 -0.266695
-0.163575 -0.0558221 -0.266538
-0.262766 -0.0520939 -0.266414
-0.327294 -0.0512659 -0.245752
-0.327454 -0.061277 -0.116678
-0.327765 -0.0810681 0.138486
0.304579 -0.0704222 -0.267111
0.0845178 -0.0624883 -0.266841
0.054738 -0.0614146 -0.266805
0.0259642 -0.0603772 -0.26677
-0.327478 -0.0602467 -0.0969087
-0.327503 -0.061793 -0.0761241
-0.327808 -0.0803544 0.17337
0.158225 -0.0623735 -0.266931
0.104956 -0.0605347 -0.266866
-0.283964 -0.0471095 -0.266389
-0.304523 -0.0463999 -0.266364
-0.322504 -0.0457792 -0.266341
-0.32753 -0.060722 -0.0542444
-0.327854 -0.0795908 0.210654
-0.327906 -0.0824347 0.250581
0.24248 -0.0623805 -0.267035
0.218732 -0.0615972 -0.267006
0.199393 -0.0609593 -0.266982
0.18045 -0.0603345 -0.266959
-0.327588 -0.0612502 -0.00683481
0.326195 -0.062112 -0.267138
0.283431 -0.060767 -0.267085
-0.327558 -0.0568213 -0.0311809
-0.327619 -0.0600718 0.0189042
-0.327653 -0.0618405 0.0461589
-0.327311 -0.041654 -0.231974
-0.327688 -0.0606085 0.0750672
0.12236 -0.050267 -0.266888
-0.168503 -0.0420115 -0.266532
-0.187889 -0.0414613 -0.266508
-0.209101 -0.0408593 -0.266481
-0.327348 -0.0412369 -0.202622
-0.327725 -0.0592994 0.105784
-0.327765 -0.0612147 0.138486
0.304579 -0.0524421 -0.267111
-0.0661141 -0.0424896 -0.266657
-0.109786 -0.0413171 -0.266604
-0.128143 -0.0408242 -0.266581
-0.327388 -0.0407824 -0.170591
-0.327409 -0.0417317 -0.153457
-0.327808 -0.0598384 0.17337
-0.327854 -0.0619039 0.210654
0.140113 -0.0452821 -0.266909
0.0291131 -0.0424722 -0.266774
0.0103948 -0.0419984 -0.266751
-0.00791043 -0.041535 -0.266728
-0.0287625 -0.0410071 -0.266703
-0.0490912 -0.0404925 -0.266678
-0.229705 -0.0359205 -0.266456
-0.327454 -0.0412682 -0.116678
-0.327478 -0.0423009 -0.0969087
-0.327906 -0.0604521 0.250581
0.101516 -0.0416199 -0.266862
0.0547378 -0.0405075 -0.266805
-0.0936944 -0.0369778 -0.266623
-0.148595 -0.0356722 -0.266557
-0.327294 -0.0324335 -0.245752
-0.327503 -0.0407571 -0.0761241
-0.32753 -0.0418307 -0.0542444
0.25865 -0.0424303 -0.267055
0.24248 -0.0420706 -0.267035
0.218732 -0.0415423 -0.267006
0.199393 -0.0411121 -0.266982
0.18045 -0.0406907 -0.266959
0.161892 -0.0402778 -0.266936
-0.247531 -0.03117 -0.266433
-0.327588 -0.0413082 -0.00683481
-0.327619 -0.0424898 0.0189042
0.326195 -0.040903 -0.267138
0.283431 -0.0400173 -0.267085
0.0811573 -0.0358279 -0.266837
-0.322504 -0.0274675 -0.266341
-0.327558 -0.0374189 -0.0311809
-0.327653 -0.0407243 0.0461589
-0.327688 -0.0419598 0.0750672
-0.269194 -0.0264552 -0.266407
-0.288126 -0.0260922 -0.266384
-0.327725 -0.0400672 0.105784
-0.327765 -0.0413613 0.138486
0.12236 -0.031247 -0.266888
-0.327808 -0.0393224 0.17337
-0.327854 -0.0406797 0.210654
-0.327906 -0.0421333 0.250581
0.304579 -0.0314653 -0.267111
-0.327311 -0.0224291 -0.231974
0.140113 -0.0260715 -0.26691
-0.107127 -0.022468 -0.266607
-0.133309 -0.0220864 -0.266575
-0.163576 -0.0216453 -0.266538
-0.18309 -0.0213609 -0.266514
-0.20444 -0.0210498 -0.266486
-0.327348 -0.0211757 -0.202622
-0.327388 -0.022139 -0.170591
0.0612666 -0.0222989 -0.266813
0.0418282 -0.0220454 -0.266789
0.0197013 -0.0217569 -0.266762
0.00119126 -0.0215155 -0.26674
-0.0198913 -0.0212406 -0.266714
-0.0375379 -0.0210104 -0.266692
-0.0576483 -0.0207482 -0.266668
-0.0800255 -0.0204564 -0.26664
-0.327409 -0.0202697 -0.153457
-0.327454 -0.0212594 -0.116678
-0.327478 -0.0217914 -0.0969087
-0.327503 -0.0223506 -0.0761241
0.283431 -0.0222318 -0.267085
0.254582 -0.0218999 -0.26705
0.234497 -0.0216688 -0.267025
0.214832 -0.0214425 -0.267001
0.184207 -0.0210901 -0.266964
0.101516 -0.0201386 -0.266862
-0.222903 -0.0164058 -0.266465
-0.32753 -0.0202407 -0.0542444
-0.327588 -0.0213663 -0.00683481
-0.327619 -0.0219775 0.0189042
0.326195 -0.019694 -0.267138
0.0811572 -0.0172505 -0.266837
-0.327653 -0.019608 0.0461589
-0.327688 -0.0202028 0.0750672
-0.327725 -0.0208349 0.105784
-0.327765 -0.0215079 0.138486
-0.327808 -0.0222257 0.17337
-0.254101 -0.0117677 -0.266425
-0.327294 -0.0115087 -0.245752
-0.327558 -0.0152447 -0.0311809
-0.327854 -0.0194555 0.210654
-0.327906 -0.0201507 0.250581
0.158225 -0.0124747 -0.266932
0.125882 -0.0122514 -0.266892
0.304579 -0.0104884 -0.267111
-0.273447 -0.00738462 -0.266402
-0.294321 -0.00727254 -0.266376
-0.312574 -0.00717453 -0.266354
0.326195 -0.00151494 -0.267138
0.283431 -0.00148213 -0.267085
0.254582 -0.00146 -0.26705
0.234497 -0.00144459 -0.267025
0.214832 -0.00142951 -0.267001
0.184207 -0.00140602 -0.266964
0.111876 -0.00135053 -0.266875
0.0645497 -0.00131423 -0.266817
0.0354464 -0.0012919 -0.266782
0.0165873 -0.00127744 -0.266759
-0.00488797 -0.00126096 -0.266732
-0.0228593 -0.00124718 -0.26671
-0.0433355 -0.00123147 -0.266685
-0.0633023 -0.00121615 -0.266661
-0.0990958 -0.00118869 -0.266617
-0.117708 -0.00117442 -0.266595
-0.168503 -0.00113545 -0.266532
-0.187889 -0.00112058 -0.266507
-0.209101 -0.00110431 -0.266481
-0.327311 -0.00106806 -0.231974
-0.327348 -0.00111452 -0.202622
-0.327388 -0.00116522 -0.170591
-0.327409 -0.00119234 -0.153457
-0.327454 -0.00125056 -0.116678
-0.327478 -0.00128185 -0.0969087
-0.327503 -0.00131475 -0.0761241
-0.32753 -0.00134939 -0.0542444
-0.327588 -0.00142443 -0.00683481
-0.327619 -0.00146517 0.0189042
-0.327653 -0.00150832 0.0461589
-0.327688 -0.00155407 0.0750672
-0.327725 -0.0016027 0.105784
-0.327765 -0.00165446 0.138486
-0.327808 -0.00170968 0.17337
-0.327854 -0.0017687 0.210654
-0.327906 -0.00183189 0.250581
0.0912769 0.00400415 -0.26685
-0.0827787 0.0036036 -0.266637
-0.138439 0.00347551 -0.266569
-0.229705 0.00326549 -0.266456
-0.327558 0.00415764 -0.0311809
0.304579 0.0104884 -0.267111
0.136534 0.00958605 -0.266906
-0.247531 0.00752378 -0.266433
-0.327294 0.00941619 -0.245752
-0.327558 0.0152448 -0.0311809
-0.327725 0.0176296 0.105784
-0.327765 0.018199 0.138486
-0.327808 0.0188064 0.17337
-0.327854 0.0194555 0.210654
-0.327906 0.0201507 0.250581
0.324454 0.0197201 -0.265027
0.277128 0.0192406 -0.265336
0.264618 0.0191138 -0.265417
0.244129 0.0189063 -0.265551
0.224097 0.0187036 -0.265667
0.204548 0.018507 -0.265724
0.17411 0.0182008 -0.265814
0.116159 0.017618 -0.265985
-0.269194 0.0137567 -0.266408
-0.288126 0.0135679 -0.266384
-0.308561 0.0133641 -0.266359
-0.32753 0.0175419 -0.0542444
-0.327588 0.0185175 -0.00683481
-0.327619 0.0190471 0.0189042
-0.327653 0.019608 0.0461589
-0.327688 0.0202028 0.0750672
0.0763327 0.0199022 -0.264588
0.0563782 0.0196684 -0.264742
0.0368873 0.0194399 -0.264893
0.0147122 0.0191801 -0.265064
-0.012942 0.018856 -0.265278
-0.0337821 0.0186129 -0.265391
-0.0548064 0.0183399 -0.266671
-0.088256 0.017955 -0.266631
-0.109786 0.0177073 -0.266605
-0.327409 0.017885 -0.153457
-0.327454 0.0187583 -0.116678
-0.327478 0.0192277 -0.0969087
-0.327503 0.0197212 -0.0761241
0.0965387 0.0229244 -0.260708
-0.163575 0.0193669 -0.266537
-0.18309 0.0191124 -0.266512
-0.204441 0.0188339 -0.266487
-0.327311 0.0181569 -0.231974
-0.327348 0.0189467 -0.202622
-0.327388 0.0198086 -0.170591
-0.0744908 0.0229437 -0.266648
-0.128144 0.0244945 -0.266582
-0.222903 0.0229681 -0.266464
-0.327906 0.0384695 0.250581
-0.327765 0.0380524 0.138486
-0.327808 0.0393224 0.17337
-0.327854 0.0406797 0.210654
-0.327653 0.0377076 0.0461589
-0.327688 0.0388516 0.0750672
-0.327725 0.0400672 0.105784
-0.0577141 0.0360112 -0.195122
-0.243117 0.0291118 -0.266438
-0.327294 0.0282486 -0.245752
-0.327588 0.0384594 -0.00683481
-0.327619 0.0395594 0.0189042
-0.327503 0.0381276 -0.0761241
-0.32753 0.039132 -0.0542444
-0.262766 0.0329573 -0.266416
-0.327431 0.0378432 -0.135506
-0.327454 0.0387671 -0.116678
-0.327478 0.0397372 -0.0969087
-0.327558 0.0429624 -0.0311809
-0.115077 0.0388221 -0.266598
-0.153621 0.0378465 -0.26655
-0.283964 0.034547 -0.266389
-0.304523 0.0340266 -0.266364
-0.322504 0.0335715 -0.266341
-0.327368 0.0375968 -0.186964
-0.327388 0.038452 -0.170591
-0.327854 0.0583666 0.210654
-0.327906 0.0604522 0.250581
-0.078634 0.0461194 -0.195098
-0.173397 0.0396093 -0.266524
-0.192657 0.0390922 -0.266502
-0.32733 0.0381775 -0.217611
-0.327765 0.0579058 0.138486
-0.327808 0.0598384 0.17337
-0.327688 0.0575004 0.0750672
-0.327725 0.0592994 0.105784
-0.213731 0.0429294 -0.266475
-0.327653 0.0588239 0.0461589
-0.327588 0.0584013 -0.00683481
-0.327619 0.0600718 0.0189042
-0.32753 0.0580232 -0.0542444
-0.327906 0.0787709 0.250581
-0.0637428 0.0598105 -0.195115
-0.0990561 0.0585914 -0.195074
-0.234204 0.0488273 -0.266449
-0.327478 0.057683 -0.0969087
-0.327503 0.0591635 -0.0761241
-0.327854 0.0795908 0.210654
-0.327294 0.0491735 -0.245752
-0.327454 0.0587759 -0.116678
-0.327558 0.0651366 -0.0311809
-0.327765 0.0777592 0.138486
-0.327808 0.0803545 0.17337
-0.327409 0.0584244 -0.153457
-0.327725 0.0785317 0.105784
-0.148594 0.0586867 -0.266555
-0.168502 0.0579079 -0.266531
-0.254102 0.0545591 -0.266426
-0.273447 0.0538022 -0.266402
-0.294321 0.0529856 -0.266376
-0.327368 0.0581041 -0.186964
-0.327388 0.0594258 -0.170591
-0.327688 0.0792573 0.0750672
-0.0845187 0.0695987 -0.195091
-0.187889 0.0593905 -0.266508
-0.312574 0.0543214 -0.266354
-0.32733 0.0578117 -0.217611
-0.327619 0.0776537 0.0189042
-0.327653 0.0799402 0.0461589
-0.327588 0.0783433 -0.00683481
-0.327906 0.100754 0.250581
-0.209101 0.0629454 -0.266481
-0.327854 0.100815 0.210654
-0.327503 0.0775699 -0.0761241
-0.32753 0.0796133 -0.0542444
-0.327765 0.0976126 0.138486
-0.327808 0.10087 0.17337
-0.124609 0.0782282 -0.195042
-0.327478 0.0781925 -0.0969087
-0.327725 0.0977639 0.105784
-0.229705 0.0685757 -0.266454
-0.327454 0.0787847 -0.116678
-0.327688 0.0979061 0.0750672
-0.104802 0.0843455 -0.195067
-0.327294 0.0680058 -0.245752
-0.327409 0.0775018 -0.153457
-0.327653 0.0980399 0.0461589
-0.327906 0.119072 0.250581
-0.0786336 0.0882859 -0.195097
-0.327388 0.0780692 -0.170591
-0.327558 0.0928543 -0.0311809
-0.327619 0.098166 0.0189042
-0.327854 0.118502 0.210654
-0.166043 0.0784761 -0.266534
-0.247532 0.074163 -0.266434
-0.269194 0.0730163 -0.266408
-0.327368 0.0786115 -0.186964
-0.327588 0.0982852 -0.00683481
-0.327808 0.117967 0.17337
-0.288126 0.0741017 -0.266384
-0.308561 0.0729888 -0.266359
-0.099056 0.0950483 -0.195074
-0.327311 0.0779677 -0.231974
-0.32753 0.0985046 -0.0542444
-0.327765 0.120775 0.138486
-0.192657 0.0837689 -0.266502
-0.213731 0.0825567 -0.266474
-0.327503 0.0986058 -0.0761241
-0.327725 0.120202 0.105784
-0.118998 0.0990786 -0.195049
-0.138476 0.0979281 -0.195025
-0.327478 0.098702 -0.0969087
-0.327688 0.119663 0.0750672
-0.327906 0.141055 0.250581
-0.327454 0.0987935 -0.116678
-0.327653 0.119156 0.0461589
-0.327854 0.139726 0.210654
-0.327431 0.0988807 -0.135506
-0.327619 0.118678 0.0189042
-0.327808 0.138483 0.17337
-0.0786334 0.109369 -0.195097
-0.327558 0.115028 -0.0311809
-0.327588 0.118227 -0.00683481
-0.327294 0.0889307 -0.245752
-0.327388 0.099043 -0.170591
-0.327765 0.140628 0.138486
-0.180679 0.0979712 -0.266517
-0.234204 0.0943995 -0.266449
-0.254102 0.0930713 -0.266427
-0.327368 0.0991188 -0.186964
-0.327725 0.139434 0.105784
-0.327906 0.159374 0.250581
-0.273447 0.0938902 -0.266402
-0.32753 0.120095 -0.0542444
-0.327688 0.138312 0.0750672
-0.10766 0.117884 -0.195063
-0.294321 0.094543 -0.266376
-0.312574 0.0932689 -0.266354
-0.32733 0.0992616 -0.217611
-0.327503 0.119642 -0.0761241
-0.327854 0.16095 0.210654
-0.130184 0.118868 -0.195035
-0.19975 0.103368 -0.266492
-0.327478 0.119212 -0.0969087
-0.327653 0.140272 0.0461589
-0.327808 0.158999 0.17337
-0.149405 0.120024 -0.195011
-0.327454 0.118802 -0.116678
-0.327619 0.139191 0.0189042
-0.327431 0.118413 -0.135506
-0.327588 0.138169 -0.00683481
-0.327765 0.160482 0.138486
-0.327906 0.177693 0.250581
-0.218331 0.108625 -0.266468
-0.327725 0.158666 0.105784
-0.327388 0.117686 -0.170591
-0.327854 0.178637 0.210654
-0.0874455 0.135027 -0.195086
-0.327294 0.107763 -0.245752
-0.32753 0.138986 -0.0542444
-0.327558 0.142746 -0.0311809
-0.327688 0.160069 0.0750672
-0.238675 0.11357 -0.266445
-0.327368 0.119626 -0.186964
-0.327503 0.138048 -0.0761241
-0.327653 0.158372 0.0461589
-0.327808 0.179515 0.17337
-0.113348 0.138144 -0.195056
-0.258447 0.11411 -0.266421
-0.277673 0.112532 -0.266397
-0.132957 0.139087 -0.195032
-0.298421 0.112901 -0.266371
-0.32733 0.118896 -0.217611
-0.327478 0.139721 -0.0969087
-0.327619 0.159703 0.0189042
-0.327765 0.180335 0.138486
-0.327906 0.199675 0.250581
-0.154815 0.139778 -0.195004
-0.190276 0.124181 -0.266504
-0.31855 0.113259 -0.266346
-0.327454 0.138811 -0.116678
-0.327588 0.158111 -0.00683481
-0.327725 0.177898 0.105784
-0.327431 0.137945 -0.135506
-0.327854 0.199861 0.210654
-0.327688 0.178717 0.0750672
-0.2091 0.129204 -0.26648
-0.32753 0.157877 -0.0542444
-0.327808 0.200031 0.17337
-0.327388 0.13866 -0.170591
-0.327558 0.16492 -0.0311809
-0.327653 0.179488 0.0461589
-0.327906 0.217994 0.250581
-0.0932701 0.158083 -0.195079
-0.327368 0.137855 -0.186964
-0.327503 0.159084 -0.0761241
-0.327765 0.200189 0.138486
-0.113348 0.158801 -0.195056
-0.229705 0.133886 -0.266456
-0.327294 0.128688 -0.245752
-0.327478 0.157667 -0.0969087
-0.327619 0.180215 0.0189042
-0.327854 0.217548 0.210654
-0.132957 0.159503 -0.195032
-0.247532 0.134353 -0.266435
-0.327588 0.178053 -0.00683481
-0.327725 0.200336 0.105784
-0.154815 0.159926 -0.195004
-0.269194 0.134392 -0.266408
-0.288126 0.132548 -0.266384
-0.32733 0.13853 -0.217611
-0.327454 0.15882 -0.116678
-0.308561 0.132613 -0.266359
-0.327688 0.200474 0.0750672
-0.327808 0.220547 0.17337
-0.327431 0.159918 -0.135506
-0.327653 0.197588 0.0461589
-0.32753 0.179467 -0.0542444
-0.327558 0.184323 -0.0311809
-0.327765 0.220042 0.138486
-0.20444 0.149564 -0.266485
-0.327619 0.197797 0.0189042
-0.0990552 0.178379 -0.195072
-0.327388 0.159634 -0.170591
-0.327503 0.18012 -0.0761241
-0.327725 0.219568 0.105784
-0.118997 0.178856 -0.195049
-0.327368 0.158362 -0.186964
-0.327478 0.178176 -0.0969087
-0.327588 0.197995 -0.00683481
-0.138476 0.179323 -0.195025
-0.222903 0.154214 -0.266464
-0.327294 0.14752 -0.245752
-0.327688 0.219123 0.0750672
-0.157507 0.179779 -0.195001
-0.243117 0.154184 -0.26644
-0.327454 0.178829 -0.116678
-0.262766 0.154155 -0.266416
-0.32733 0.158164 -0.217611
-0.327653 0.218704 0.0461589
-0.283964 0.153891 -0.266389
-0.327431 0.17945 -0.135506
-0.32753 0.198359 -0.0542444
-0.327558 0.203725 -0.0311809
-0.304523 0.153635 -0.266364
-0.327619 0.21831 0.0189042
-0.327503 0.198526 -0.0761241
-0.104801 0.198537 -0.195065
-0.20444 0.169506 -0.266485
-0.327388 0.178278 -0.170591
-0.327588 0.217937 -0.00683481
-0.124609 0.198777 -0.195042
-0.327478 0.198686 -0.0969087
-0.143958 0.199011 -0.195018
-0.327368 0.17887 -0.186964
-0.162865 0.199241 -0.194994
-0.222903 0.173901 -0.266465
-0.327454 0.198838 -0.116678
-0.243117 0.173592 -0.26644
-0.327294 0.168445 -0.245752
-0.327558 0.223127 -0.0311809
-0.262766 0.173292 -0.266416
-0.32733 0.177798 -0.217611
-0.327431 0.198982 -0.135506
-0.32753 0.219949 -0.0542444
-0.283964 0.172735 -0.266389
-0.327503 0.219562 -0.0761241
-0.113348 0.218191 -0.195055
-0.202098 0.187536 -0.266488
-0.304523 0.174257 -0.266364
-0.132957 0.218201 -0.195031
-0.327388 0.199251 -0.170591
-0.327478 0.219195 -0.0969087
-0.154815 0.217852 -0.195004
-0.173476 0.217866 -0.194981
-0.327368 0.199377 -0.186964
-0.327454 0.218846 -0.116678
-0.218332 0.194209 -0.266471
-0.238675 0.19361 -0.266446
-0.31855 0.182643 -0.266346
-0.327431 0.218514 -0.135506
-0.258447 0.193028 -0.266421
-0.327294 0.18937 -0.245752
-0.32733 0.199614 -0.217611
-0.118997 0.238046 -0.195048
-0.277673 0.194565 -0.266397
-0.138476 0.237826 -0.195024
-0.298421 0.193693 -0.266371
-0.327388 0.217895 -0.170591
-0.157507 0.23761 -0.195001
-0.327368 0.217606 -0.186964
-0.178729 0.239497 -0.194975
-0.206774 0.213476 -0.266484
-0.234205 0.213754 -0.266452
-0.254102 0.212887 -0.266427
-0.31855 0.20305 -0.266346
-0.327294 0.208202 -0.245752
-0.124609 0.257769 -0.195041
-0.32733 0.219248 -0.217611
-0.273447 0.214154 -0.266402
-0.143958 0.259856 -0.195018
-0.294321 0.212981 -0.266376
-0.162865 0.259389 -0.194994
-0.183949 0.258515 -0.194968
-0.204496 0.260105 -0.194943
-0.308561 0.223078 -0.266359
-0.327294 0.229127 -0.245752
