ply
format ascii 1.0
comment Created by Open3D
element vertex 1091
property double x
property double y
property double z
end_header
0.0649756 -0.243087 -0.25224
0.0586939 -0.239975 -0.26905
0.0442181 -0.240778 -0.280908
0.0234965 -0.232486 -0.280942
0.0447373 -0.23262 -0.251622
0.283802 -0.300114 0.252565
-0.197236 -0.28656 -0.281285
-0.218087 -0.292253 -0.281321
-0.239802 -0.298183 -0.281351
-0.184609 -0.281292 -0.278424
-0.270141 -0.300869 -0.281401
0.25739 -0.298719 0.251816
-0.187752 -0.282742 -0.256487
0.285183 -0.295768 0.279222
-0.170974 -0.274552 -0.260742
-0.154988 -0.265329 -0.279874
0.235113 -0.298914 0.251782
0.0246062 -0.221127 -0.251645
-0.240296 -0.287472 -0.259942
0.265963 -0.290648 0.272817
-0.150889 -0.262756 -0.256211
-0.137286 -0.253338 -0.27954
-0.264302 -0.290336 -0.261924
0.214884 -0.295453 0.251751
-0.00282127 -0.216416 -0.280983
0.246652 -0.289778 0.272635
-0.131045 -0.248654 -0.262204
-0.122328 -0.241905 -0.28076
0.234914 -0.288901 0.280822
0.184716 -0.291145 0.251704
0.207137 -0.285734 0.27663
0.196592 -0.284132 0.259263
-0.0166169 -0.206908 -0.281004
-0.112167 -0.233983 -0.262928
-0.0028435 -0.203639 -0.271847
0.193613 -0.283604 0.279631
0.156198 -0.28585 0.251661
-0.0967138 -0.221635 -0.279469
-0.00280845 -0.203644 -0.253021
0.166791 -0.278289 0.269487
0.136424 -0.281139 0.251624
-0.0866241 -0.213216 -0.264536
0.152024 -0.274737 0.266459
-0.018759 -0.192444 -0.279965
-0.0790986 -0.206823 -0.27522
0.115998 -0.273119 0.251592
0.132167 -0.269175 0.27916
-0.0227929 -0.189454 -0.256811
-0.0406319 -0.188136 -0.28104
-0.0614799 -0.191779 -0.2737
0.0948897 -0.264833 0.251562
0.111633 -0.262393 0.272215
0.0910315 -0.254452 0.277152
0.0656273 -0.254438 0.251516
-0.0376195 -0.177642 -0.251548
-0.0370424 -0.171977 -0.280412
-0.0608145 -0.171898 -0.281072
0.0719503 -0.246037 0.265714
0.0543073 -0.246692 0.2515
-0.21591 -0.292907 0.251078
-0.243947 -0.298045 0.251028
-0.255443 -0.300152 0.251011
-0.19416 -0.284989 0.25111
-0.0275802 -0.164304 -0.251878
-0.0185224 -0.157053 -0.270851
0.0466523 -0.234792 0.251488
-0.175991 -0.277578 0.271964
-0.167792 -0.272492 0.251149
0.0513574 -0.235731 0.280968
0.0271255 -0.234845 0.251454
-0.164401 -0.271402 0.270651
-0.266001 -0.290496 0.279098
-0.012735 -0.152598 -0.25247
-0.00477773 -0.146554 -0.28001
-0.142416 -0.257619 0.25712
-0.0765576 -0.156333 -0.281099
-0.0633687 -0.155184 -0.26076
0.0322858 -0.225157 0.28019
0.00701416 -0.221185 0.251426
-0.123101 -0.243158 0.257747
-0.074701 -0.16118 -0.205561
0.00750643 -0.137648 -0.256285
0.0138772 -0.133186 -0.278183
-0.0746594 -0.160565 -0.17727
0.0118477 -0.212742 0.26837
-0.00534058 -0.212793 0.251408
-0.109744 -0.232731 0.276966
-0.10385 -0.228021 0.252045
-0.0745783 -0.161149 -0.156535
-0.0752821 -0.161482 -0.137577
-0.0723729 -0.142308 -0.246401
-0.0928648 -0.140225 -0.281122
-0.0744625 -0.16112 -0.10249
0.0331974 -0.120348 -0.274935
-0.00517344 -0.201461 0.269148
-0.0875089 -0.214678 0.278909
-0.0826873 -0.210569 0.25497
-0.0751509 -0.161457 -0.0815226
-0.0264286 -0.198463 0.25137
-0.0661293 -0.151312 -0.124756
-0.074312 -0.161081 -0.0426432
-0.0728065 -0.141772 -0.181282
-0.0862553 -0.132483 -0.262242
-0.0712031 -0.200835 0.27578
-0.0749623 -0.161418 -0.0193536
0.0441221 -0.113517 -0.253607
-0.0805422 -0.134125 -0.226707
-0.0751662 -0.194427 0.251296
-0.0741211 -0.160328 -0.00441504
-0.0669548 -0.15253 -0.0559255
-0.0725436 -0.140957 -0.148692
0.0525957 -0.108421 -0.267774
-0.0258433 -0.186558 0.268422
-0.0570582 -0.188423 0.251324
-0.0741744 -0.161046 0.0240374
-0.0695111 -0.122117 -0.269986
-0.0437701 -0.183127 0.251345
-0.0747136 -0.160814 0.0456716
-0.0710618 -0.142379 -0.0948583
-0.0586827 -0.122148 -0.240653
-0.0477898 -0.115713 -0.280032
-0.0956329 -0.122494 -0.275125
-0.076563 -0.161456 0.073845
-0.0441292 -0.117939 -0.240665
-0.0486911 -0.116014 -0.260608
-0.0348456 -0.111945 -0.279141
-0.0739977 -0.161001 0.0987427
0.072081 -0.0973337 -0.272428
-0.0239098 -0.112089 -0.248922
-0.0374276 -0.174966 0.278548
-0.0744556 -0.160726 0.123011
-0.0717728 -0.141559 -0.0334916
-0.0821305 -0.132376 -0.12019
-0.00943613 -0.104333 -0.279971
-0.0615432 -0.171009 0.251318
-0.0735107 -0.16068 0.151675
-0.0649601 -0.150711 0.0757363
-0.0719646 -0.142337 -0.00233233
-0.0540828 -0.120845 -0.166614
-0.00132948 -0.104587 -0.251422
-0.115506 -0.114626 -0.281159
-0.0393946 -0.16484 0.251351
-0.073871 -0.16036 0.17785
-0.0820501 -0.132376 -0.0728167
-0.063079 -0.123201 -0.133216
-0.031793 -0.114395 -0.178027
0.00822127 -0.0993179 -0.268384
-0.0235819 -0.161749 0.27128
-0.0742266 -0.161266 0.216045
-0.0723398 -0.159553 0.202781
-0.0718033 -0.142409 0.0515289
-0.0729531 -0.140251 0.0312651
-0.0820117 -0.132377 -0.047565
-0.0629848 -0.123451 -0.10745
-0.0268259 -0.112964 -0.163912
-0.014003 -0.109248 -0.183914
0.0876698 -0.0891454 -0.259603
0.0933025 -0.0863665 -0.278539
0.0260046 -0.0940976 -0.2778
-0.0553928 -0.161902 0.272836
-0.0426024 -0.117552 -0.115781
0.0264761 -0.0939675 -0.259782
-0.0528259 -0.100544 -0.280039
-0.00998676 -0.151089 0.252077
-0.0716253 -0.142487 0.110403
-0.0647122 -0.123973 -0.054095
-0.0565403 -0.121603 -0.0678273
-0.0199025 -0.11098 -0.129341
0.00798976 -0.102892 -0.176178
0.0492543 -0.0872776 -0.279262
-0.0663024 -0.152325 0.240055
-0.0709381 -0.142135 0.138806
-0.0784031 -0.135793 0.0711752
-0.0394729 -0.116666 -0.0709562
-0.0179682 -0.110432 -0.108401
-0.00490743 -0.106642 -0.131185
0.0294547 -0.0966772 -0.19107
0.107923 -0.0797605 -0.272469
-0.00345278 -0.146224 0.278855
-0.0718944 -0.142139 0.170348
-0.0666502 -0.124557 0.00494909
-0.0377872 -0.116191 -0.0472242
-0.0230003 -0.111901 -0.0739822
0.0293377 -0.0967222 -0.168669
0.107239 -0.0800671 -0.251963
0.0659649 -0.0814721 -0.279852
-0.0735434 -0.0959093 -0.280072
-0.0850176 -0.0971309 -0.279759
-0.0707555 -0.142217 0.206333
-0.085838 -0.127346 0.0432431
-0.052338 -0.120419 0.00804794
-0.0440234 -0.118011 -0.00754446
-0.0210352 -0.111344 -0.0507274
0.00896579 -0.102645 -0.107075
0.0215945 -0.0987531 -0.133076
0.0497022 -0.0908266 -0.18364
0.0112315 -0.135604 0.257189
-0.073234 -0.144846 0.266465
-0.0641224 -0.123852 0.0615237
-0.0554134 -0.1213 0.0442628
-0.00487727 -0.10667 -0.0541064
0.00179124 -0.104734 -0.0671336
0.026262 -0.0976386 -0.114879
0.0491285 -0.0873524 -0.196777
0.0810976 -0.0817308 -0.221945
-0.0330151 -0.0872952 -0.280008
-0.0448539 -0.118278 0.0553981
-0.0245016 -0.112372 0.0140751
-0.013187 -0.109094 -0.0088436
0.0173658 -0.0999359 -0.073927
0.0453373 -0.0921147 -0.127622
0.0693841 -0.0851392 -0.176416
0.126321 -0.0724874 -0.251512
0.132911 -0.0701454 -0.269388
0.00854111 -0.0810955 -0.279943
-0.133222 -0.0946083 -0.281184
-0.0816166 -0.131379 0.192143
-0.0613654 -0.123083 0.123399
-0.0520329 -0.120376 0.103709
0.0196599 -0.099577 -0.0475897
0.0482824 -0.0912746 -0.10798
0.0746808 -0.0836129 -0.163726
0.0852684 -0.08054 -0.186085
0.102505 -0.0755396 -0.222459
-0.0140518 -0.0811019 -0.279978
0.0280292 -0.124222 0.262143
-0.0824237 -0.131528 0.231643
-0.0647325 -0.124083 0.167281
-0.0412821 -0.117272 0.115697
-0.0202128 -0.111158 0.0694166
-0.0123658 -0.108883 0.0522048
0.00584859 -0.103596 0.0121757
0.0168084 -0.100155 -0.0147737
0.0374809 -0.0944181 -0.0572909
0.0687477 -0.0853459 -0.125961
0.0864539 -0.0802082 -0.16485
0.117811 -0.0711104 -0.233712
0.146385 -0.0658011 -0.263561
-0.0856924 -0.132173 0.276572
-0.058282 -0.122227 0.191282
-0.022029 -0.111701 0.108312
0.0570669 -0.0887488 -0.0725639
0.072021 -0.0844107 -0.106746
0.105518 -0.0746859 -0.183398
0.0463746 -0.0714272 -0.279883
0.0379755 -0.117868 0.277434
-0.0618568 -0.123276 0.24014
-0.0562857 -0.121219 0.221724
-0.0373026 -0.116156 0.181706
-0.0155477 -0.109836 0.129794
0.0112923 -0.102047 0.0658474
0.0187339 -0.0995674 0.0443842
0.0345693 -0.0952906 0.0103785
0.0432823 -0.0923895 -0.0147305
0.0576683 -0.0885868 -0.0446592
0.0868101 -0.0801299 -0.114087
0.0937691 -0.0779142 -0.132958
0.0476998 -0.111847 0.255893
-0.0448986 -0.118373 0.241207
-0.0387256 -0.116239 0.221753
-0.0215753 -0.111608 0.18333
-0.0134948 -0.109212 0.162639
-0.000880539 -0.105595 0.131842
0.010499 -0.102289 0.103529
0.0280514 -0.0971987 0.0599797
0.0468787 -0.0917321 0.0131856
0.0555379 -0.08922 -0.00831115
0.0788419 -0.0824538 -0.0662285
0.118051 -0.0710721 -0.163647
0.126619 -0.0685831 -0.184958
0.143531 -0.0636733 -0.226983
0.165354 -0.0598385 -0.251141
0.105883 -0.0624319 -0.279789
-0.052827 -0.0756902 -0.280039
-0.0735443 -0.0774209 -0.280072
-0.023674 -0.112232 0.230239
0.0171957 -0.100365 0.124267
0.0472452 -0.0916414 0.0463712
0.0824457 -0.0814212 -0.044894
0.108636 -0.0738191 -0.112773
0.116278 -0.0715964 -0.132635
0.155421 -0.0602341 -0.23409
0.0846254 -0.0622911 -0.279823
0.0341454 -0.0663822 -0.279902
-0.00488657 -0.106641 0.221809
0.00891167 -0.102793 0.186478
0.0166647 -0.100543 0.165505
0.0375421 -0.0940578 0.103572
0.0507348 -0.090644 0.073188
0.0735503 -0.0840195 0.0114238
0.0824039 -0.0812828 -0.0146664
0.0955185 -0.0776389 -0.0480725
0.104264 -0.0751012 -0.0717278
0.148079 -0.0623743 -0.190405
-0.094965 -0.0744723 -0.28022
-0.145391 -0.0783626 -0.281204
0.0639208 -0.102355 0.279148
0.067836 -0.100154 0.254011
0.00378782 -0.104295 0.244269
0.0447637 -0.0923944 0.128307
0.0663152 -0.0861368 0.0673403
0.0719421 -0.0845025 0.051415
0.0851168 -0.0806757 0.0141267
0.127734 -0.0682999 -0.106455
0.135231 -0.0657275 -0.132889
0.147537 -0.0625464 -0.162524
-0.102149 -0.086575 -0.0963692
-0.0281978 -0.0670388 -0.28
0.019326 -0.0998027 0.245246
0.0232722 -0.0986576 0.23358
0.0381733 -0.0943317 0.189498
0.0451458 -0.0923076 0.168874
0.0581576 -0.088522 0.13027
0.0642985 -0.0867386 0.112095
0.0865593 -0.0802723 0.0461891
0.105849 -0.0743974 -0.0146283
0.118441 -0.0710099 -0.0482184
0.126259 -0.0687408 -0.0713382
0.177891 -0.0537375 -0.224272
0.158323 -0.0519905 -0.267817
-0.102641 -0.0848091 -0.0822178
0.14195 -0.0523243 -0.279732
-0.136012 -0.0744322 -0.257497
-0.121831 -0.0727505 -0.266193
0.0789605 -0.0941153 0.272677
0.0382694 -0.0943213 0.234647
0.0771233 -0.0830308 0.11415
0.0907115 -0.079084 0.0720333
0.109945 -0.0734961 0.0123997
0.147923 -0.0624623 -0.10535
0.156022 -0.05994 -0.132855
0.168353 -0.0565246 -0.168724
-0.10307 -0.083242 -0.0641637
-0.00943768 -0.0613095 -0.279971
0.049431 -0.091098 0.24714
0.0563922 -0.0890757 0.224521
0.0694376 -0.0852873 0.18215
0.0869857 -0.0801834 0.125038
0.10503 -0.0749419 0.0664113
0.109745 -0.0735703 0.0510625
0.125016 -0.0691342 0.00144327
0.140315 -0.0646838 -0.0483575
0.183623 -0.0520965 -0.189175
-0.1028 -0.0838856 -0.0116774
-0.103436 -0.0818693 -0.0418535
0.0858272 -0.0805444 0.173686
0.104614 -0.0750792 0.109508
0.262063 -0.0467813 -0.162256
0.243317 -0.0475224 -0.169851
0.168694 -0.0564538 -0.109158
0.187835 -0.0508873 -0.17452
0.201598 -0.0468827 -0.221549
-0.103258 -0.0822056 0.0086934
-0.100705 -0.0643231 -0.260581
0.103927 -0.0818582 0.260668
0.0814447 -0.0818375 0.23772
0.0961179 -0.0775725 0.185106
0.111786 -0.0730132 0.128843
0.11662 -0.0716082 0.111511
0.127933 -0.0683208 0.0709582
0.260191 -0.0470071 -0.132683
0.151223 -0.0615466 -0.0126261
0.184046 -0.0518486 -0.132809
0.200779 -0.0471346 -0.190444
-0.103732 -0.0804676 0.0297667
0.0463743 -0.0513069 -0.279883
0.0952612 -0.0778425 0.238704
0.0980917 -0.0766522 0.221979
0.114224 -0.0723299 0.16714
0.274391 -0.0455782 -0.111579
0.275736 -0.0443815 -0.129904
-0.104223 -0.0786686 0.0515796
0.0172514 -0.0510741 -0.279929
-0.0527291 -0.0557753 -0.273039
-0.157866 -0.0617109 -0.281223
0.119042 -0.0755572 0.277919
0.122881 -0.0737967 0.251603
0.121797 -0.0701472 0.187952
0.12664 -0.0687399 0.1687
0.268049 -0.0463107 -0.0735141
-0.103628 -0.0766796 0.0731253
-0.0986741 -0.0663597 -0.0987973
-0.0793177 -0.0557884 -0.26054
0.12462 -0.0693484 0.229933
0.274719 -0.0454552 -0.046838
0.217949 -0.042186 -0.162487
0.223304 -0.0406237 -0.185071
-0.103216 -0.0743889 0.0909463
0.109313 -0.0417395 -0.279784
-0.0297683 -0.0499739 -0.272287
0.140635 -0.0678569 0.27585
0.142852 -0.0671565 0.264958
0.273892 -0.0457735 -0.00385213
0.273129 -0.0414616 -0.0854123
0.217653 -0.0379175 -0.207634
-0.102359 -0.0722439 0.113567
-0.0969322 -0.0648027 -0.0203998
-0.0921998 -0.0631336 -0.0469114
-0.0917122 -0.0617346 -0.0726349
0.0846254 -0.041208 -0.279823
-0.084573 -0.0504137 -0.277571
-0.0965656 -0.050953 -0.279533
-0.123807 -0.0523827 -0.280152
0.265461 -0.0465515 0.0447912
0.273299 -0.0424367 -0.0281827
-0.100355 -0.0699109 0.135767
-0.0965118 -0.0631597 0.00696725
-0.0819836 -0.0569494 -0.100455
-0.0793225 -0.0558762 -0.118866
0.275295 -0.0452305 0.0743067
-0.0964075 -0.0673166 0.156597
-0.089335 -0.0620626 0.0551711
-0.0916109 -0.0612342 0.0357679
-0.0122492 -0.047507 -0.16797
0.274906 -0.0455026 0.130347
0.276177 -0.0442612 0.104595
0.273239 -0.0407169 0.0244613
0.259165 -0.0327022 -0.164223
-0.0940663 -0.0648246 0.17986
-0.0820844 -0.0570645 0.0229346
-0.0797138 -0.0561073 0.00447607
-0.0757512 -0.0545072 -0.0263787
-0.0720084 -0.0529959 -0.0555224
-0.066792 -0.0514305 -0.0843616
-0.053025 -0.0432522 -0.248596
0.275159 -0.0454171 0.185254
0.275975 -0.0447334 0.170337
0.255709 -0.0324554 -0.132689
0.241771 -0.0317787 -0.162291
-0.0952486 -0.0625955 0.20802
-0.0844125 -0.0580491 0.114266
-0.0811927 -0.0567478 0.0875489
-0.0133352 -0.0476397 -0.0538436
0.145057 -0.0309042 -0.279728
0.275423 -0.0453245 0.246621
0.276151 -0.0446228 0.230224
0.273504 -0.0415117 0.151603
-0.0849697 -0.058326 0.201452
-0.0795485 -0.0561317 0.153331
-0.0769855 -0.055095 0.1306
-0.0144461 -0.0493974 0.0544155
-0.0670311 -0.0521556 0.0688488
-0.0665931 -0.0513995 0.0508313
-0.0326638 -0.0455099 -0.0588261
-0.053969 -0.0463736 -0.0591755
-0.0169172 -0.0412525 -0.146927
0.0233581 -0.0343821 -0.274146
-0.0631863 -0.0397332 -0.230574
-0.15889 -0.0420295 -0.2708
0.27357 -0.0412147 0.209337
0.265803 -0.0306322 -0.0735172
0.240937 -0.0311439 -0.0852363
-0.0790989 -0.0560056 0.238923
-0.0770582 -0.0551787 0.219486
-0.0718968 -0.0530884 0.170351
-0.0281419 -0.046984 0.0557209
-0.0637857 -0.0423643 -0.100208
0.0474382 -0.031123 -0.280464
-0.0676758 -0.0364173 -0.258686
0.273644 -0.0408818 0.274036
0.272581 -0.0324961 0.0399914
0.265702 -0.0307886 -0.0143669
0.241021 -0.0311449 -0.0292997
0.2438 -0.0303205 -0.049408
0.246436 -0.0295386 -0.0684791
-0.0123885 -0.0473678 0.166447
-0.0475566 -0.0444293 0.0494247
-0.0168998 -0.0403799 -0.0322313
-0.0162011 -0.038525 -0.0830626
-0.0401 -0.0394681 -0.0809054
-0.0181346 -0.0369951 -0.127512
0.125997 -0.0262955 -0.279758
0.241118 -0.0311461 0.0349283
0.244813 -0.0300491 0.00591064
0.246218 -0.0296317 -0.00513202
-0.0514669 -0.0486076 0.261607
-0.01544 -0.0438122 0.154758
-0.0403419 -0.0449764 0.164443
-0.0314945 -0.0404283 0.0376295
-0.0482281 -0.0408381 0.0330222
-0.0167809 -0.0352273 -0.102766
-0.000753045 -0.0321435 -0.178663
-0.0842602 -0.0315602 -0.280089
-0.095229 -0.0319294 -0.280107
0.241231 -0.0311475 0.109439
0.243652 -0.0304277 0.0886766
0.245964 -0.0297403 0.0688523
0.248174 -0.0290834 0.0499037
0.267299 -0.0233981 -0.114079
-0.0323688 -0.0443461 0.259522
-0.0157113 -0.0415616 0.186544
-0.054449 -0.0413355 0.140281
-0.0152536 -0.0383052 0.0820595
-0.014618 -0.0365091 0.0248131
-0.0181096 -0.0359666 0.00381547
0.00300515 -0.0334029 -0.0575601
0.00223219 -0.0303209 -0.157665
-0.117955 -0.0302727 -0.280142
-0.177167 -0.0320867 -0.281256
0.241363 -0.0311491 0.196916
0.243127 -0.0306241 0.1803
0.245664 -0.0298689 0.156399
0.247287 -0.0293859 0.141109
0.267579 -0.0233451 -0.0500834
0.271603 -0.0220886 -0.090049
-0.0154575 -0.0367474 0.134628
-0.0181655 -0.0360835 0.10865
-0.00531411 -0.0337671 0.040434
-0.0041213 -0.0315377 -0.0364602
-0.00373173 -0.0302904 -0.0797606
0.0954034 -0.0217324 -0.279806
0.244383 -0.0302977 0.271207
0.246206 -0.0297543 0.252192
0.247964 -0.02923 0.233847
0.258739 -0.0260198 0.121526
0.268455 -0.0231199 0.0200449
0.271638 -0.0218582 -0.0251622
-0.0165959 -0.0362729 0.237877
-0.0178442 -0.0359025 0.222409
0.00827932 -0.0308793 0.0559732
-0.00266004 -0.0271645 -0.0975596
0.0761162 -0.0232696 -0.167731
-0.00227737 -0.0265534 -0.120618
0.0024758 -0.0259278 -0.139837
0.0208147 -0.0247083 -0.168174
-0.0603306 -0.0257936 -0.208178
0.262533 -0.0249393 0.184605
0.265203 -0.0241383 0.153326
-0.00179219 -0.0312095 0.184549
-0.00454766 -0.0302557 0.141331
0.0758595 -0.0236926 -0.0560781
-0.00240946 -0.0266952 -0.00749958
0.0462089 -0.019599 -0.259496
0.265346 -0.0241517 0.274527
0.267451 -0.0235184 0.246629
0.268801 -0.0231137 0.228811
0.270107 -0.0227227 0.211591
0.271426 -0.0204312 0.104317
0.00803667 -0.0271131 0.155993
-0.00193489 -0.0265321 0.118426
0.00346428 -0.0256872 0.0838117
0.00535887 -0.0244061 0.0250043
0.00282562 -0.0240835 0.00716817
0.0153687 -0.022825 -0.0398585
0.0288784 -0.0221917 -0.056281
0.0521178 -0.0193266 -0.168687
-0.0598924 -0.0204167 -0.229721
-0.141798 -0.0210908 -0.280179
0.270519 -0.0174849 0.0742573
0.00564009 -0.0247191 0.196323
0.0787603 -0.0207384 0.0560802
0.00627118 -0.0228975 0.0991163
0.0316194 -0.0216172 0.0558535
0.0627624 -0.0188656 -0.0606087
0.0198336 -0.0192532 -0.0829855
0.0304078 -0.0170813 -0.189005
-0.062709 -0.0188568 -0.187324
0.268532 -0.0118072 -0.135138
0.0576088 -0.0182418 0.0514413
0.0261568 -0.0185058 0.0361559
0.0232159 -0.0163145 -0.102614
0.0744055 -0.0140976 -0.188504
0.145057 -0.0114787 -0.279728
0.117411 -0.0119132 -0.280614
-0.0640089 -0.0153838 -0.248054
0.269014 -0.0124747 0.0472845
0.268689 -0.0116786 -0.0113513
0.268342 -0.0108281 -0.0739935
0.0369205 -0.01712 0.154012
0.0285967 -0.0153612 0.0168149
0.0560312 -0.0137304 -0.0750282
0.0376434 -0.0137971 -0.0886448
0.0726874 -0.0126341 -0.138569
0.0505039 -0.0121308 -0.197753
-0.0668534 -0.0141574 -0.167393
0.0760885 -0.0127131 0.0775679
0.0728385 -0.0121585 0.0246437
0.0470157 -0.0124571 0.0254007
0.0732687 -0.011613 -0.0237538
0.0778912 -0.0114208 -0.0363093
0.0753668 -0.0109225 -0.0834541
0.0734466 -0.00954284 -0.208898
0.0721848 -0.00934173 -0.22817
-0.0743583 -0.0105467 -0.267744
-0.0952296 -0.0106432 -0.280106
-0.117956 -0.0108982 -0.280142
-0.177572 -0.0116993 -0.268408
0.0550432 -0.0104799 0.124525
0.0726132 -0.00928272 0.00440633
0.0741054 -0.00831529 -0.105442
0.267313 -0.0061983 0.130654
0.0839503 -0.00675895 0.0365075
-0.0613527 -0.00611766 -0.213021
0.0940532 -0.00364173 -0.064415
0.0926072 -0.00330724 -0.155703
0.266044 -0.00135483 0.222165
0.266005 -0.00132984 0.20199
0.265943 -0.00129018 0.16997
0.265829 -0.00121755 0.111338
0.265681 -0.00112274 0.0348036
0.265563 -0.00104667 -0.0266052
0.265439 -0.000967099 -0.0908365
0.0868535 -0.00132291 0.0161529
0.0855805 -0.00130124 -0.00258756
0.0859241 -0.00117542 -0.103611
0.0882963 -0.00113461 -0.134101
0.095191 -0.00106516 -0.183123
-0.0656521 -0.00131078 -0.147055
-0.0665041 -0.00126469 -0.185053
-0.0631955 -0.00120084 -0.233166
-0.141798 -0.00124064 -0.280179
0.105117 0.00134014 0.0484101
0.0933278 0.00126595 -0.0232221
0.0978576 0.00124454 -0.0359116
0.0902666 0.00103365 -0.213462
0.0912384 0.00100703 -0.233934
0.26448 0.00421854 0.26197
0.264425 0.00379867 0.149152
0.264394 0.00356883 0.0873959
0.264384 0.003492 0.0667518
0.264359 0.00329681 0.0143061
0.2643 0.00283571 -0.109589
0.166928 0.00340102 -0.0557377
0.11617 0.00358833 -0.0564997
-0.0714068 0.00355415 -0.254407
-0.197231 0.00392544 -0.281287
0.105792 0.00587703 -0.0836264
0.165578 0.00501017 -0.163158
0.113567 0.00537452 -0.156779
0.263034 0.00805394 0.054566
0.263093 0.00753295 -0.00534111
0.115157 0.00910348 0.026583
0.14685 0.0080756 -0.0598378
0.153567 0.00705044 -0.171074
0.116 0.00726644 -0.18401
0.106795 0.00718221 -0.202967
0.134634 0.00644654 -0.259631
-0.0670549 0.00938699 -0.124114
-0.0826552 0.00826637 -0.268793
-0.100811 0.00832671 -0.280115
-0.117956 0.00847634 -0.280142
0.262544 0.00915734 -0.053151
0.262675 0.00829841 -0.129912
0.262717 0.0080247 -0.154372
0.109142 0.00896293 -0.224897
0.26125 0.0151393 0.234643
0.261497 0.0137403 0.132422
0.135685 0.0125897 -0.078439
0.123042 0.0124922 -0.0983002
0.165661 0.0107564 -0.182556
0.15651 0.00982516 -0.259972
-0.0774099 0.0142302 -0.17268
-0.0690924 0.0135501 -0.214126
0.164134 0.0143276 -0.0839684
0.163167 0.0134337 -0.140342
0.154807 0.0127922 -0.188512
0.13025 0.0130278 -0.198618
-0.0718358 0.0179919 -0.0942893
-0.204093 0.0171215 -0.281298
0.259505 0.0212992 0.268053
0.259877 0.0195063 0.172123
0.260129 0.0182961 0.107374
0.154158 0.0164351 -0.0992071
0.148127 0.0138396 -0.244685
-0.075178 0.0198991 -0.143887
-0.072113 0.0181694 -0.233707
-0.0783285 0.0179163 -0.253556
-0.141798 0.0186095 -0.280179
0.258923 0.022994 0.213199
0.259016 0.0225705 0.193222
0.260025 0.0179438 -0.0250389
0.155982 0.0162454 -0.210214
0.143198 0.0162196 -0.224297
-0.0864725 0.0245895 -0.0586975
0.258493 0.0241035 0.145101
0.258766 0.0228948 0.094121
0.25967 0.0188943 -0.074609
0.259728 0.0186372 -0.0854526
-0.0779165 0.0241224 -0.192569
0.258177 0.0248092 0.0745151
0.258447 0.0236466 0.0301833
0.258559 0.0231642 0.0117868
0.182603 0.0230613 -0.0685819
-0.0775973 0.0287134 -0.113527
-0.160464 0.0265421 -0.280208
0.174815 0.0244913 -0.103261
0.174063 0.0241699 -0.11528
0.188651 0.0222732 -0.167043
-0.0878163 0.0304914 -0.15732
-0.106459 0.0275212 -0.280123
0.243116 0.0332882 0.180325
0.257756 0.0286532 0.045679
0.25821 0.0236894 -0.113835
0.172365 0.022646 -0.233831
-0.0895959 0.0370244 -0.034016
-0.0896643 0.0357808 -0.0741623
-0.0934978 0.0298618 -0.268775
0.239023 0.0374835 0.221929
0.236377 0.0369085 0.202109
0.221529 0.0370548 0.191537
0.25779 0.0291266 -0.00856149
0.185648 0.0288385 -0.089743
-0.092136 0.0393916 -0.054319
-0.0882472 0.0382091 -0.0856947
-0.0883305 0.0362346 -0.144697
-0.0818201 0.0337396 -0.212599
0.242282 0.0364055 0.118118
0.241862 0.0353043 0.0871042
0.23159 0.0349471 0.0668432
0.244867 0.0334017 0.0372677
0.257581 0.025557 -0.167885
0.18612 0.030224 -0.110124
0.184809 0.0272899 -0.192961
-0.0938436 0.0377256 -0.183392
-0.204089 0.0387522 -0.26579
0.223907 0.0385978 0.0913572
0.242323 0.0352786 0.0236206
0.245493 0.0323895 -0.0482791
0.256915 0.0282812 -0.143562
0.193321 0.0307556 -0.143236
-0.0888311 0.0467459 -0.01153
-0.0854856 0.0380301 -0.234686
-0.129734 0.0379934 -0.28016
0.241399 0.036758 0.00324035
0.240776 0.0356319 -0.0248806
0.226738 0.0355104 -0.041971
0.210305 0.0310267 -0.167973
0.186066 0.03012 -0.214499
0.224338 0.0387869 -0.0185033
-0.0887544 0.0486821 -0.10573
-0.2181 0.0467078 -0.281316
0.24074 0.0365624 -0.0987034
0.242542 0.0344594 -0.142684
0.241983 0.0330553 -0.17382
0.204438 0.0340969 -0.188916
0.193148 0.0325977 -0.23292
-0.0898483 0.0569844 0.0133802
-0.0915198 0.0551311 -0.0286588
-0.0965257 0.0494211 -0.158032
-0.092627 0.0449367 -0.251759
0.236937 0.0377051 -0.119751
-0.0938314 0.071222 0.23987
-0.0916057 0.0701653 0.220279
-0.0919768 0.0608604 0.0276774
-0.0890751 0.0490133 -0.214148
-0.0935686 0.0728641 0.200629
0.231862 0.036363 -0.189228
0.205418 0.036764 -0.207955
-0.0986332 0.065498 0.0507824
-0.0978851 0.0603375 -0.0498745
-0.0920109 0.0583537 -0.0829477
-0.100755 0.0493848 -0.267994
-0.098406 0.0755487 0.179467
-0.0989725 0.0745072 0.159381
-0.0963583 0.0696329 0.0706827
-0.0928556 0.0579378 -0.144925
-0.147944 0.0536768 -0.280189
-0.105749 0.083984 0.260192
-0.0955122 0.0767269 0.140558
-0.093166 0.0753656 0.118546
-0.0931273 0.0743017 0.0995367
-0.0915865 0.0681413 -0.00920981
-0.0975915 0.0591983 -0.175369
-0.173303 0.0575963 -0.280228
-0.0902285 0.0582306 -0.229653
-0.129734 0.0576029 -0.28016
-0.0982847 0.0893914 0.233866
-0.0933766 0.0753736 0.00831383
-0.0920466 0.0687011 -0.100062
-0.111388 0.0956052 0.261205
-0.100162 0.0908515 0.197403
-0.0974931 0.0802513 0.0326277
-0.217361 0.068985 -0.265959
-0.127005 0.101636 0.280184
-0.0964935 0.0793144 -0.0284503
-0.100389 0.0782903 -0.0479389
-0.0929289 0.0730975 -0.119372
-0.0925226 0.0675022 -0.204022
-0.0953193 0.0647985 -0.247935
-0.109147 0.0964001 0.16526
-0.102323 0.0895572 0.0718853
-0.0981304 0.079245 -0.0749583
-0.100613 0.095854 0.11658
-0.100764 0.0942084 0.0931668
-0.106386 0.0690594 -0.267969
-0.110106 0.109122 0.242288
-0.107364 0.0948469 0.0501053
-0.0967965 0.0801999 -0.139279
-0.10039 0.0790409 -0.158721
-0.147945 0.0736497 -0.280188
-0.125474 0.115821 0.266442
-0.1089 0.109674 0.201931
-0.108145 0.105225 0.14393
-0.101446 0.0952882 0.0194231
-0.0998967 0.0926343 -0.0140709
-0.173303 0.078075 -0.280227
-0.099978 0.0899282 -0.087603
-0.101396 0.0828899 -0.17904
-0.0946422 0.0787854 -0.224737
-0.118662 0.115949 0.18075
-0.104632 0.0975355 -0.0333783
-0.108676 0.0957174 -0.0599824
-0.101024 0.079534 -0.252881
-0.224651 0.088523 -0.265844
-0.116298 0.122694 0.221337
-0.123221 0.11815 0.159726
-0.111948 0.110285 0.0764908
-0.118997 0.109196 0.0562952
-0.100138 0.0939653 -0.107878
-0.125527 0.129523 0.249024
-0.111875 0.115533 0.0994024
-0.115772 0.111185 0.0447112
-0.105838 0.105715 -0.00917327
-0.0996233 0.0888241 -0.200144
-0.102641 0.0979231 -0.129144
-0.135731 0.0875481 -0.280169
-0.18647 0.0920399 -0.280248
-0.119377 0.125316 0.125903
-0.106341 0.0992263 -0.148927
-0.1175 0.0890009 -0.27301
-0.137383 0.143738 0.268811
-0.12312 0.138192 0.223581
-0.126217 0.135755 0.194282
-0.110576 0.108755 -0.0800335
-0.112537 0.100598 -0.169631
-0.239801 0.102117 -0.281352
-0.115056 0.120354 0.00648433
-0.121996 0.115619 -0.0500479
-0.108536 0.10967 -0.0987456
-0.173303 0.0985537 -0.280227
-0.128248 0.148311 0.246453
-0.130831 0.13984 0.157459
-0.127935 0.129993 0.0599465
-0.118364 0.120206 -0.03023
-0.106498 0.0977061 -0.247764
-0.125857 0.135593 0.0850091
-0.123776 0.140917 0.106283
-0.129313 0.134605 0.0394441
-0.112168 0.109446 -0.187527
-0.105568 0.104949 -0.224541
-0.18647 0.107596 -0.280248
-0.12454 0.135137 0.0185391
-0.114657 0.118644 -0.127849
-0.118006 0.116543 -0.151135
-0.127624 0.161347 0.228717
-0.134269 0.155869 0.171302
-0.129841 0.128959 -0.0734569
-0.122615 0.12649 -0.0890486
-0.128416 0.118429 -0.169538
-0.141801 0.107936 -0.280178
-0.235256 0.119491 -0.267195
-0.139854 0.169868 0.25997
-0.128336 0.162782 0.207412
-0.127822 0.155203 0.139324
-0.130863 0.147554 0.0670186
-0.130899 0.145139 0.0451183
-0.124164 0.137856 -0.0140328
-0.130745 0.165183 0.193864
-0.130547 0.138332 -0.0436707
-0.114023 0.117752 -0.209253
-0.112174 0.115279 -0.229293
-0.126824 0.15859 0.109239
-0.123395 0.133001 -0.108995
-0.173303 0.119032 -0.280227
-0.136542 0.179112 0.244584
-0.119516 0.118841 -0.249448
-0.162195 0.190254 0.279994
-0.133715 0.180115 0.224435
-0.129399 0.163205 0.0883254
-0.127834 0.15545 0.0254842
-0.125547 0.128321 -0.197554
-0.145805 0.189106 0.255221
-0.131848 0.148053 -0.0648407
-0.124656 0.139405 -0.127979
-0.193182 0.129166 -0.280258
-0.134205 0.168249 0.0700389
-0.126896 0.158056 -0.00391769
-0.124651 0.145127 -0.104796
-0.131565 0.139257 -0.158583
-0.14333 0.186245 0.175564
-0.139009 0.182503 0.15064
-0.127838 0.159884 -0.0150488
-0.133122 0.128116 -0.268868
-0.241885 0.14229 -0.267418
-0.143855 0.197785 0.235835
-0.140947 0.193377 0.204936
-0.13557 0.182567 0.127398
-0.133763 0.1796 0.106448
-0.138732 0.173149 0.0519521
-0.131439 0.160309 -0.0392383
-0.14399 0.2001 0.224764
-0.130766 0.144554 -0.180181
-0.147946 0.133568 -0.280188
-0.172045 0.215046 0.279367
-0.150834 0.196362 0.162602
-0.137415 0.184251 0.0865809
-0.129322 0.160014 -0.0844298
-0.125359 0.138576 -0.238899
-0.159454 0.213665 0.253371
-0.148641 0.205144 0.202398
-0.133874 0.177701 0.0180649
-0.127086 0.157754 -0.119895
-0.124671 0.143951 -0.217652
-0.142757 0.197111 0.124689
-0.144331 0.189058 0.0656894
-0.140996 0.185114 0.0409246
-0.133345 0.178475 0.00128537
-0.13784 0.170435 -0.060561
-0.126981 0.149395 -0.199654
-0.19998 0.14839 -0.280268
-0.163647 0.210861 0.175563
-0.149126 0.203804 0.140729
-0.143032 0.195281 0.0871523
-0.132359 0.159181 -0.155029
-0.179845 0.148129 -0.280237
-0.162515 0.225322 0.251034
-0.15803 0.221475 0.229052
-0.137415 0.180155 -0.0347487
-0.130203 0.168971 -0.104507
-0.130529 0.163804 -0.140412
-0.167826 0.216388 0.15912
-0.133916 0.149679 -0.258412
-0.146285 0.148568 -0.27838
-0.247511 0.165139 -0.268035
-0.182288 0.24022 0.279043
-0.158973 0.226026 0.207992
-0.157959 0.203621 0.0598209
-0.136972 0.179577 -0.0791608
-0.145501 0.199531 0.0235211
-0.146671 0.187837 -0.0542535
-0.159515 0.236235 0.225088
-0.164555 0.230293 0.181717
-0.1618 0.223881 0.143156
-0.15788 0.218899 0.114988
-0.157076 0.215006 0.0907091
-0.143623 0.199058 0.00144643
-0.142636 0.1957 -0.0192015
-0.133973 0.179409 -0.115487
-0.128374 0.162545 -0.218556
-0.129467 0.159447 -0.239619
-0.157356 0.210113 0.0375589
-0.136154 0.17823 -0.143374
-0.136778 0.172579 -0.179851
-0.131023 0.16798 -0.203237
-0.206868 0.167865 -0.280279
-0.138511 0.188516 -0.0990314
-0.193182 0.168307 -0.280258
-0.170446 0.254079 0.254091
-0.165972 0.22288 0.0667136
-0.14816 0.197501 -0.0714548
-0.173304 0.167669 -0.280227
-0.144087 0.184609 -0.163721
-0.139114 0.168103 -0.258711
-0.193921 0.270155 0.280113
-0.164184 0.255835 0.224573
-0.166581 0.249404 0.18378
-0.165486 0.243854 0.151758
-0.160706 0.238953 0.127318
-0.159543 0.235353 0.107007
-0.158297 0.218723 0.00900871
-0.155466 0.214504 -0.0133233
-0.158233 0.210764 -0.0384302
-0.132457 0.175195 -0.22477
-0.262392 0.187613 -0.281391
-0.174393 0.266151 0.25268
-0.165304 0.256288 0.203819
-0.161446 0.235494 0.085411
-0.165626 0.22924 0.0444251
-0.153064 0.172663 -0.275661
-0.142622 0.188913 -0.185574
-0.136428 0.177701 -0.244327
-0.172325 0.257959 0.163545
-0.169708 0.238777 0.0565732
-0.158799 0.225069 -0.0107832
-0.166342 0.21605 -0.0699056
-0.153723 0.210486 -0.089004
-0.146842 0.203158 -0.123953
-0.146941 0.200345 -0.14013
-0.213846 0.187596 -0.280289
-0.202878 0.29142 0.27807
-0.174339 0.268803 0.18111
-0.161325 0.228723 -0.0284996
-0.156363 0.204173 -0.159919
-0.186471 0.187969 -0.280247
-0.228081 0.195492 -0.280311
-0.169402 0.264199 0.140525
-0.164685 0.256355 0.102277
-0.16102 0.23981 0.0152861
-0.166587 0.22936 -0.0475904
-0.173304 0.188148 -0.280227
-0.203313 0.296366 0.260905
-0.181588 0.285948 0.226433
-0.17888 0.282878 0.212552
-0.167045 0.263325 0.118734
-0.165506 0.247688 0.0357261
-0.158203 0.219339 -0.110219
-0.149281 0.190075 -0.259481
-0.162659 0.216841 -0.143739
-0.157293 0.208334 -0.183729
-0.1434 0.197986 -0.224966
-0.256208 0.210268 -0.272931
-0.206282 0.301121 0.241061
-0.187665 0.288721 0.194495
-0.1842 0.281462 0.159759
-0.169882 0.263415 0.079127
-0.173381 0.260388 0.0596659
-0.162248 0.247678 0.00393951
-0.145003 0.198995 -0.235073
-0.206149 0.300702 0.218555
-0.176265 0.278304 0.1322
-0.206508 0.301532 0.202545
-0.197695 0.293999 0.172754
-0.173072 0.275083 0.100453
-0.163513 0.250683 -0.0151434
-0.163371 0.238195 -0.0790864
-0.206868 0.207518 -0.280278
-0.17591 0.275076 0.0798087
-0.166754 0.260605 0.0156883
-0.16762 0.249177 -0.0430887
-0.168358 0.225738 -0.162603
-0.15773 0.215466 -0.20396
-0.204494 0.299018 0.153547
-0.174253 0.269964 0.0385764
-0.161144 0.240017 -0.0980987
-0.186471 0.20871 -0.280247
-0.188048 0.291363 0.113893
-0.183299 0.28021 0.063543
-0.170577 0.208366 -0.278771
-0.206459 0.301113 0.125522
-0.170915 0.255147 -0.0631655
-0.165049 0.229468 -0.182654
-0.15836 0.219748 -0.223386
-0.163919 0.212649 -0.263645
-0.235343 0.22395 -0.280322
-0.259254 0.230065 -0.274524
-0.206334 0.300724 0.106163
-0.195135 0.294451 0.0871634
-0.169742 0.268096 -0.0144374
-0.161811 0.24496 -0.118076
-0.163291 0.240025 -0.143375
-0.198799 0.295562 0.071965
-0.18804 0.286814 0.0410859
-0.177875 0.280304 0.0202768
-0.169061 0.258394 -0.0753086
-0.174059 0.27114 -0.0346925
-0.160906 0.223914 -0.243969
-0.213846 0.227511 -0.280289
-0.205461 0.299418 0.0506385
-0.180919 0.275082 -0.0526453
-0.193182 0.228324 -0.280258
-0.198344 0.296977 0.0151752
-0.185959 0.289504 -0.00637811
-0.167645 0.263942 -0.10431
-0.169918 0.249121 -0.17406
-0.167638 0.259518 -0.137639
-0.163601 0.245174 -0.198141
-0.160607 0.238515 -0.2251
-0.235343 0.242952 -0.280322
-0.261109 0.249553 -0.276537
-0.2068 0.301463 -0.00323743
-0.191831 0.291237 -0.0336952
-0.18006 0.279238 -0.0752632
-0.168535 0.265685 -0.123997
-0.170619 0.234821 -0.263478
-0.206681 0.301103 -0.0193668
-0.195313 0.292318 -0.0466053
-0.220917 0.247768 -0.2803
-0.198338 0.294683 -0.0669891
-0.178089 0.268954 -0.169733
-0.199981 0.248192 -0.280268
-0.195503 0.294755 -0.0904216
-0.181255 0.285202 -0.116385
-0.178831 0.275772 -0.153727
-0.177569 0.248284 -0.268409
-0.166425 0.255279 -0.238845
-0.270149 0.272884 -0.281399
-0.207086 0.301756 -0.111312
-0.177593 0.275711 -0.188158
-0.170472 0.268819 -0.209181
-0.196849 0.295052 -0.140559
-0.220917 0.269197 -0.2803
-0.235865 0.27299 -0.280137
-0.202958 0.2977 -0.159737
-0.196772 0.293507 -0.181516
-0.182579 0.268932 -0.263823
-0.184424 0.287051 -0.205368
-0.206914 0.300558 -0.197601
-0.181579 0.284123 -0.234868
-0.197583 0.284189 -0.270905
-0.207118 0.301388 -0.226455
-0.195931 0.292614 -0.247779
