ply
format ascii 1.0
comment Created by Open3D
element vertex 907
property double x
property double y
property double z
end_header
0.101276 -0.20164 -0.389688
0.0916054 -0.201048 -0.392213
-0.0893076 -0.201875 -0.387017
-0.098138 -0.200612 -0.392504
-0.108224 -0.202203 -0.38541
0.101276 -0.192262 -0.389688
0.0916054 -0.191697 -0.392213
-0.0893076 -0.192486 -0.387017
-0.098138 -0.191281 -0.392504
-0.108224 -0.189664 -0.38541
0.0978946 -0.18245 -0.391763
0.0916054 -0.182346 -0.392213
-0.0921309 -0.182415 -0.3903
-0.098138 -0.18195 -0.392504
-0.108224 -0.180259 -0.38541
0.101276 -0.170378 -0.389688
0.0916054 -0.169878 -0.392213
-0.0893076 -0.170577 -0.387017
-0.098138 -0.169509 -0.392504
-0.108224 -0.170854 -0.38541
0.128741 -0.159821 -0.41321
0.119607 -0.159807 -0.413209
0.110474 -0.159792 -0.413209
0.101343 -0.159778 -0.413209
0.0922131 -0.159763 -0.413209
0.0800428 -0.159744 -0.413208
0.070917 -0.15973 -0.413208
0.0617929 -0.159715 -0.413208
0.04963 -0.159696 -0.413208
0.0405097 -0.159682 -0.413207
0.0313911 -0.159667 -0.413207
0.0222741 -0.159653 -0.413207
0.0101207 -0.159634 -0.413206
0.00100756 -0.159619 -0.413206
-0.00810393 -0.159605 -0.413206
-0.02025 -0.159585 -0.413206
-0.0293577 -0.159571 -0.413205
-0.0384636 -0.159557 -0.413205
-0.047568 -0.159542 -0.413205
-0.0597046 -0.159523 -0.413205
-0.0688051 -0.159509 -0.413204
-0.077904 -0.159494 -0.413204
-0.0900333 -0.159475 -0.413204
-0.0991283 -0.159461 -0.413204
-0.108222 -0.159446 -0.413203
-0.120344 -0.159427 -0.413203
-0.129433 -0.159413 -0.413203
0.128741 -0.150689 -0.41321
0.119607 -0.150675 -0.413209
0.110474 -0.150661 -0.413209
0.101343 -0.150648 -0.413209
0.0922131 -0.150634 -0.413209
0.0800428 -0.150616 -0.413208
0.070917 -0.150602 -0.413208
0.0617929 -0.150589 -0.413208
0.04963 -0.150571 -0.413208
0.0405097 -0.150557 -0.413207
0.0313911 -0.150543 -0.413207
0.0222741 -0.15053 -0.413207
0.0101207 -0.150512 -0.413206
0.00100756 -0.150498 -0.413206
-0.00810393 -0.150484 -0.413206
-0.02025 -0.150466 -0.413206
-0.0293577 -0.150453 -0.413205
-0.0384636 -0.150439 -0.413205
-0.047568 -0.150426 -0.413205
-0.0597046 -0.150407 -0.413205
-0.0688051 -0.150394 -0.413204
-0.077904 -0.15038 -0.413204
-0.0900333 -0.150362 -0.413204
-0.0991283 -0.150349 -0.413204
-0.108222 -0.150335 -0.413203
-0.120344 -0.150317 -0.413203
-0.129433 -0.150303 -0.413203
0.128741 -0.141556 -0.41321
0.119607 -0.141543 -0.413209
0.110474 -0.14153 -0.413209
0.101343 -0.141518 -0.413209
0.0922131 -0.141505 -0.413209
0.0800428 -0.141488 -0.413208
0.070917 -0.141475 -0.413208
0.0617929 -0.141462 -0.413208
0.04963 -0.141445 -0.413208
0.0405097 -0.141432 -0.413207
0.0313911 -0.14142 -0.413207
0.0222741 -0.141407 -0.413207
0.0101207 -0.14139 -0.413206
0.00100756 -0.141377 -0.413206
-0.00810393 -0.141364 -0.413206
-0.02025 -0.141347 -0.413206
-0.0293577 -0.141334 -0.413205
-0.0384636 -0.141322 -0.413205
-0.047568 -0.141309 -0.413205
-0.0597046 -0.141292 -0.413205
-0.0688051 -0.141279 -0.413204
-0.077904 -0.141266 -0.413204
-0.0900333 -0.141249 -0.413204
-0.0991283 -0.141237 -0.413204
-0.108222 -0.141224 -0.413203
-0.120344 -0.141207 -0.413203
-0.129433 -0.141194 -0.413203
0.128741 -0.132423 -0.41321
0.119607 -0.132411 -0.413209
0.110474 -0.132399 -0.413209
0.101343 -0.132387 -0.413209
0.0922131 -0.132375 -0.413209
0.0800428 -0.132359 -0.413208
0.070917 -0.132348 -0.413208
0.0617929 -0.132336 -0.413208
0.04963 -0.13232 -0.413208
0.0405097 -0.132308 -0.413207
0.0313911 -0.132296 -0.413207
0.0222741 -0.132284 -0.413207
0.0101207 -0.132268 -0.413206
0.00100756 -0.132256 -0.413206
-0.00810393 -0.132244 -0.413206
-0.02025 -0.132228 -0.413206
-0.0293577 -0.132216 -0.413205
-0.0384636 -0.132204 -0.413205
-0.047568 -0.132192 -0.413205
-0.0597046 -0.132176 -0.413205
-0.0688051 -0.132164 -0.413204
-0.077904 -0.132152 -0.413204
-0.0900333 -0.132136 -0.413204
-0.0991283 -0.132125 -0.413204
-0.108222 -0.132113 -0.413203
-0.120344 -0.132097 -0.413203
-0.129433 -0.132085 -0.413203
0.128741 -0.120246 -0.41321
0.119607 -0.120236 -0.413209
0.110474 -0.120225 -0.413209
0.101343 -0.120214 -0.413209
0.0922131 -0.120203 -0.413209
0.0800428 -0.120189 -0.413208
0.070917 -0.120178 -0.413208
0.0617929 -0.120167 -0.413208
0.04963 -0.120152 -0.413208
0.0405097 -0.120141 -0.413207
0.0313911 -0.120131 -0.413207
0.0222741 -0.12012 -0.413207
0.0101207 -0.120105 -0.413206
0.00100756 -0.120094 -0.413206
-0.00810393 -0.120084 -0.413206
-0.02025 -0.120069 -0.413206
-0.0293577 -0.120058 -0.413205
-0.0384636 -0.120047 -0.413205
-0.047568 -0.120037 -0.413205
-0.0597046 -0.120022 -0.413205
-0.0688051 -0.120011 -0.413204
-0.077904 -0.12 -0.413204
-0.0900333 -0.119986 -0.413204
-0.0991283 -0.119975 -0.413204
-0.108222 -0.119964 -0.413203
-0.120344 -0.11995 -0.413203
-0.129433 -0.119939 -0.413203
0.128741 -0.111114 -0.41321
0.119607 -0.111104 -0.413209
0.110474 -0.111094 -0.413209
0.101343 -0.111084 -0.413209
0.0922131 -0.111074 -0.413209
0.0800428 -0.11106 -0.413208
0.070917 -0.11105 -0.413208
0.0617929 -0.11104 -0.413208
0.04963 -0.111027 -0.413208
0.0405097 -0.111017 -0.413207
0.0313911 -0.111007 -0.413207
0.0222741 -0.110997 -0.413207
0.0101207 -0.110983 -0.413206
0.00100756 -0.110973 -0.413206
-0.00810393 -0.110963 -0.413206
-0.02025 -0.11095 -0.413206
-0.0293577 -0.11094 -0.413205
-0.0384636 -0.11093 -0.413205
-0.047568 -0.11092 -0.413205
-0.0597046 -0.110907 -0.413205
-0.0688051 -0.110896 -0.413204
-0.077904 -0.110886 -0.413204
-0.0900333 -0.110873 -0.413204
-0.0991283 -0.110863 -0.413204
-0.108222 -0.110853 -0.413203
-0.120344 -0.11084 -0.413203
-0.129433 -0.11083 -0.413203
0.128741 -0.101981 -0.41321
0.119607 -0.101972 -0.413209
0.110474 -0.101963 -0.413209
0.101343 -0.101954 -0.413209
0.0922131 -0.101944 -0.413209
0.0800428 -0.101932 -0.413208
0.070917 -0.101923 -0.413208
0.0617929 -0.101914 -0.413208
0.04963 -0.101901 -0.413208
0.0405097 -0.101892 -0.413207
0.0313911 -0.101883 -0.413207
0.0222741 -0.101874 -0.413207
0.0101207 -0.101861 -0.413206
0.00100756 -0.101852 -0.413206
-0.00810393 -0.101843 -0.413206
-0.02025 -0.101831 -0.413206
-0.0293577 -0.101822 -0.413205
-0.0384636 -0.101812 -0.413205
-0.047568 -0.101803 -0.413205
-0.0597046 -0.101791 -0.413205
-0.0688051 -0.101782 -0.413204
-0.077904 -0.101773 -0.413204
-0.0900333 -0.10176 -0.413204
-0.0991283 -0.101751 -0.413204
-0.108222 -0.101742 -0.413203
-0.120344 -0.10173 -0.413203
-0.129433 -0.10172 -0.413203
0.128741 -0.0898043 -0.41321
0.119607 -0.0897962 -0.413209
0.110474 -0.0897881 -0.413209
0.101343 -0.08978 -0.413209
0.0922131 -0.0897719 -0.413209
0.0800428 -0.089761 -0.413208
0.070917 -0.0897529 -0.413208
0.0617929 -0.0897448 -0.413208
0.04963 -0.089734 -0.413208
0.0405097 -0.0897259 -0.413207
0.0313911 -0.0897178 -0.413207
0.0222741 -0.0897097 -0.413207
0.0101207 -0.0896989 -0.413206
0.00100756 -0.0896908 -0.413206
-0.00810393 -0.0896827 -0.413206
-0.02025 -0.0896719 -0.413206
-0.0293577 -0.0896638 -0.413205
-0.0384636 -0.0896557 -0.413205
-0.047568 -0.0896476 -0.413205
-0.0597046 -0.0896368 -0.413205
-0.0688051 -0.0896287 -0.413204
-0.077904 -0.0896206 -0.413204
-0.0900333 -0.0896098 -0.413204
-0.0991283 -0.0896017 -0.413204
-0.108222 -0.0895936 -0.413203
-0.120344 -0.0895828 -0.413203
-0.129433 -0.0895748 -0.413203
0.128741 -0.0806717 -0.41321
0.119607 -0.0806644 -0.413209
0.110474 -0.0806571 -0.413209
0.101343 -0.0806498 -0.413209
0.0922131 -0.0806425 -0.413209
0.0800428 -0.0806328 -0.413208
0.070917 -0.0806255 -0.413208
0.0617929 -0.0806182 -0.413208
0.04963 -0.0806085 -0.413208
0.0405097 -0.0806012 -0.413207
0.0313911 -0.0805939 -0.413207
0.0222741 -0.0805866 -0.413207
0.0101207 -0.0805769 -0.413206
0.00100756 -0.0805696 -0.413206
-0.00810393 -0.0805624 -0.413206
-0.02025 -0.0805527 -0.413206
-0.0293577 -0.0805454 -0.413205
-0.0384636 -0.0805381 -0.413205
-0.047568 -0.0805308 -0.413205
-0.0597046 -0.0805212 -0.413205
-0.0688051 -0.0805139 -0.413204
-0.077904 -0.0805066 -0.413204
-0.0900333 -0.0804969 -0.413204
-0.0991283 -0.0804897 -0.413204
-0.108222 -0.0804824 -0.413203
-0.120344 -0.0804727 -0.413203
-0.129433 -0.0804654 -0.413203
0.128741 -0.071539 -0.41321
0.119607 -0.0715326 -0.413209
0.110474 -0.0715261 -0.413209
0.101343 -0.0715196 -0.413209
0.0922131 -0.0715132 -0.413209
0.0800428 -0.0715045 -0.413208
0.070917 -0.0714981 -0.413208
0.0617929 -0.0714916 -0.413208
0.04963 -0.071483 -0.413208
0.0405097 -0.0714765 -0.413207
0.0313911 -0.0714701 -0.413207
0.0222741 -0.0714636 -0.413207
0.0101207 -0.071455 -0.413206
0.00100756 -0.0714486 -0.413206
-0.00810393 -0.0714421 -0.413206
-0.02025 -0.0714335 -0.413206
-0.0293577 -0.0714271 -0.413205
-0.0384636 -0.0714206 -0.413205
-0.047568 -0.0714141 -0.413205
-0.0597046 -0.0714056 -0.413205
-0.0688051 -0.0713991 -0.413204
-0.077904 -0.0713927 -0.413204
-0.0900333 -0.0713841 -0.413204
-0.0991283 -0.0713776 -0.413204
-0.108222 -0.0713712 -0.413203
-0.120344 -0.0713626 -0.413203
-0.129433 -0.0713562 -0.413203
0.128741 -0.0624064 -0.41321
0.119607 -0.0624008 -0.413209
0.110474 -0.0623951 -0.413209
0.101343 -0.0623895 -0.413209
0.0922131 -0.0623838 -0.413209
0.0800428 -0.0623763 -0.413208
0.070917 -0.0623707 -0.413208
0.0617929 -0.062365 -0.413208
0.04963 -0.0623575 -0.413208
0.0405097 -0.0623519 -0.413207
0.0313911 -0.0623463 -0.413207
0.0222741 -0.0623406 -0.413207
0.0101207 -0.0623331 -0.413206
0.00100756 -0.0623275 -0.413206
-0.00810393 -0.0623218 -0.413206
-0.02025 -0.0623143 -0.413206
-0.0293577 -0.0623087 -0.413205
-0.0384636 -0.0623031 -0.413205
-0.047568 -0.0622975 -0.413205
-0.0597046 -0.06229 -0.413205
-0.0688051 -0.0622843 -0.413204
-0.077904 -0.0622787 -0.413204
-0.0900333 -0.0622712 -0.413204
-0.0991283 -0.0622656 -0.413204
-0.108222 -0.06226 -0.413203
-0.120344 -0.0622525 -0.413203
-0.129433 -0.0622469 -0.413203
0.128741 -0.0502295 -0.41321
0.119607 -0.050225 -0.413209
0.110474 -0.0502205 -0.413209
0.101343 -0.0502159 -0.413209
0.0922131 -0.0502114 -0.413209
0.0800428 -0.0502053 -0.413208
0.070917 -0.0502008 -0.413208
0.0617929 -0.0501962 -0.413208
0.04963 -0.0501902 -0.413208
0.0405097 -0.0501857 -0.413207
0.0313911 -0.0501811 -0.413207
0.0222741 -0.0501766 -0.413207
0.0101207 -0.0501705 -0.413206
0.00100756 -0.050166 -0.413206
-0.00810393 -0.0501615 -0.413206
-0.02025 -0.0501554 -0.413206
-0.0293577 -0.0501509 -0.413205
-0.0384636 -0.0501464 -0.413205
-0.047568 -0.0501418 -0.413205
-0.0597046 -0.0501358 -0.413205
-0.0688051 -0.0501313 -0.413204
-0.077904 -0.0501268 -0.413204
-0.0900333 -0.0501207 -0.413204
-0.0991283 -0.0501162 -0.413204
-0.108222 -0.0501117 -0.413203
-0.120344 -0.0501056 -0.413203
-0.129433 -0.0501011 -0.413203
0.128741 -0.0410969 -0.41321
0.119607 -0.0410932 -0.413209
0.110474 -0.0410895 -0.413209
0.101343 -0.0410857 -0.413209
0.0922131 -0.041082 -0.413209
0.0800428 -0.0410771 -0.413208
0.070917 -0.0410734 -0.413208
0.0617929 -0.0410697 -0.413208
0.04963 -0.0410647 -0.413208
0.0405097 -0.041061 -0.413207
0.0313911 -0.0410573 -0.413207
0.0222741 -0.0410536 -0.413207
0.0101207 -0.0410486 -0.413206
0.00100756 -0.0410449 -0.413206
-0.00810393 -0.0410412 -0.413206
-0.02025 -0.0410363 -0.413206
-0.0293577 -0.0410326 -0.413205
-0.0384636 -0.0410289 -0.413205
-0.047568 -0.0410252 -0.413205
-0.0597046 -0.0410202 -0.413205
-0.0688051 -0.0410165 -0.413204
-0.077904 -0.0410128 -0.413204
-0.0900333 -0.0410079 -0.413204
-0.0991283 -0.0410042 -0.413204
-0.108222 -0.0410005 -0.413203
-0.120344 -0.0409955 -0.413203
-0.129433 -0.0409918 -0.413203
0.128741 -0.0319643 -0.41321
0.119607 -0.0319614 -0.413209
0.110474 -0.0319585 -0.413209
0.101343 -0.0319556 -0.413209
0.0922131 -0.0319527 -0.413209
0.0800428 -0.0319489 -0.413208
0.070917 -0.031946 -0.413208
0.0617929 -0.0319431 -0.413208
0.04963 -0.0319392 -0.413208
0.0405097 -0.0319363 -0.413207
0.0313911 -0.0319335 -0.413207
0.0222741 -0.0319306 -0.413207
0.0101207 -0.0319267 -0.413206
0.00100756 -0.0319238 -0.413206
-0.00810393 -0.031921 -0.413206
-0.02025 -0.0319171 -0.413206
-0.0293577 -0.0319142 -0.413205
-0.0384636 -0.0319113 -0.413205
-0.047568 -0.0319085 -0.413205
-0.0597046 -0.0319046 -0.413205
-0.0688051 -0.0319017 -0.413204
-0.077904 -0.0318989 -0.413204
-0.0900333 -0.031895 -0.413204
-0.0991283 -0.0318921 -0.413204
-0.108222 -0.0318893 -0.413203
-0.120344 -0.0318854 -0.413203
-0.129433 -0.0318825 -0.413203
0.128741 -0.0197874 -0.41321
0.119607 -0.0197856 -0.413209
0.110474 -0.0197838 -0.413209
0.101343 -0.019782 -0.413209
0.0922131 -0.0197802 -0.413209
0.0800428 -0.0197778 -0.413208
0.070917 -0.0197761 -0.413208
0.0617929 -0.0197743 -0.413208
0.04963 -0.0197719 -0.413208
0.0405097 -0.0197701 -0.413207
0.0313911 -0.0197683 -0.413207
0.0222741 -0.0197665 -0.413207
0.0101207 -0.0197641 -0.413207
0.00100756 -0.0197624 -0.413206
-0.00810393 -0.0197606 -0.413206
-0.02025 -0.0197582 -0.413206
-0.0293577 -0.0197564 -0.413205
-0.0384636 -0.0197546 -0.413205
-0.047568 -0.0197528 -0.413205
-0.0597046 -0.0197505 -0.413205
-0.0688051 -0.0197487 -0.413204
-0.077904 -0.0197469 -0.413204
-0.0900333 -0.0197445 -0.413204
-0.0991283 -0.0197427 -0.413204
-0.108222 -0.019741 -0.413203
-0.120344 -0.0197386 -0.413203
-0.129433 -0.0197368 -0.413203
0.128741 -0.0106548 -0.41321
0.119607 -0.0106538 -0.413209
0.110474 -0.0106528 -0.413209
0.101343 -0.0106519 -0.413209
0.0922131 -0.0106509 -0.413209
0.0800428 -0.0106496 -0.413208
0.070917 -0.0106487 -0.413208
0.0617929 -0.0106477 -0.413208
0.04963 -0.0106464 -0.413208
0.0405097 -0.0106454 -0.413207
0.0313911 -0.0106445 -0.413207
0.0222741 -0.0106435 -0.413207
0.0101207 -0.0106422 -0.413207
0.00100756 -0.0106413 -0.413206
-0.00810393 -0.0106403 -0.413206
-0.02025 -0.010639 -0.413206
-0.0293577 -0.0106381 -0.413205
-0.0384636 -0.0106371 -0.413205
-0.047568 -0.0106362 -0.413205
-0.0597046 -0.0106349 -0.413205
-0.0688051 -0.0106339 -0.413204
-0.077904 -0.010633 -0.413204
-0.0900333 -0.0106317 -0.413204
-0.0991283 -0.0106307 -0.413204
-0.108222 -0.0106298 -0.413203
-0.120344 -0.0106285 -0.413203
-0.129433 -0.0106275 -0.413203
0.128741 -0.00152212 -0.41321
0.119607 -0.00152198 -0.413209
0.110474 -0.00152184 -0.413209
0.101343 -0.0015217 -0.413209
0.0922131 -0.00152157 -0.413209
0.0800428 -0.00152138 -0.413208
0.070917 -0.00152125 -0.413208
0.0617929 -0.00152111 -0.413208
0.04963 -0.00152092 -0.413208
0.0405097 -0.00152079 -0.413207
0.0313911 -0.00152065 -0.413207
0.0222741 -0.00152051 -0.413207
0.0101207 -0.00152033 -0.413207
0.00100756 -0.00152019 -0.413206
-0.00810393 -0.00152005 -0.413206
-0.02025 -0.00151987 -0.413206
-0.0293577 -0.00151973 -0.413205
-0.0384636 -0.0015196 -0.413205
-0.047568 -0.00151946 -0.413205
-0.0597046 -0.00151928 -0.413205
-0.0688051 -0.00151914 -0.413204
-0.077904 -0.001519 -0.413204
-0.0900333 -0.00151882 -0.413204
-0.0991283 -0.00151868 -0.413204
-0.108222 -0.00151855 -0.413203
-0.120344 -0.00151836 -0.413203
-0.129433 -0.00151823 -0.413203
0.128741 0.00761054 -0.41321
0.119607 0.00760985 -0.413209
0.110474 0.00760916 -0.413209
0.101343 0.00760848 -0.413209
0.0922131 0.00760779 -0.413209
0.0800428 0.00760687 -0.413208
0.070917 0.00760618 -0.413208
0.0617929 0.0076055 -0.413208
0.04963 0.00760458 -0.413208
0.0405097 0.00760389 -0.413207
0.0313911 0.0076032 -0.413207
0.0222741 0.00760252 -0.413207
0.0101207 0.0076016 -0.413207
0.00100756 0.00760092 -0.413206
-0.00810393 0.00760023 -0.413206
-0.02025 0.00759931 -0.413206
-0.0293577 0.00759863 -0.413205
-0.0384636 0.00759794 -0.413205
-0.047568 0.00759725 -0.413205
-0.0597046 0.00759634 -0.413205
-0.0688051 0.00759565 -0.413204
-0.077904 0.00759497 -0.413204
-0.0900333 0.00759405 -0.413204
-0.0991283 0.00759337 -0.413204
-0.108222 0.00759268 -0.413203
-0.120344 0.00759177 -0.413203
-0.129433 0.00759109 -0.413203
0.128741 0.0197874 -0.41321
0.119607 0.0197856 -0.413209
0.110474 0.0197838 -0.413209
0.101343 0.019782 -0.413209
0.0922131 0.0197802 -0.413209
0.0800428 0.0197778 -0.413208
0.070917 0.0197761 -0.413208
0.0617929 0.0197743 -0.413208
0.04963 0.0197719 -0.413208
0.0405097 0.0197701 -0.413207
0.0313911 0.0197683 -0.413207
0.0222741 0.0197665 -0.413207
0.0101207 0.0197641 -0.413207
0.00100756 0.0197624 -0.413206
-0.00810393 0.0197606 -0.413206
-0.02025 0.0197582 -0.413206
-0.0293577 0.0197564 -0.413205
-0.0384636 0.0197546 -0.413205
-0.047568 0.0197528 -0.413205
-0.0597046 0.0197505 -0.413205
-0.0688051 0.0197487 -0.413204
-0.077904 0.0197469 -0.413204
-0.0900333 0.0197445 -0.413204
-0.0991283 0.0197427 -0.413204
-0.108222 0.019741 -0.413203
-0.120344 0.0197386 -0.413203
-0.129433 0.0197368 -0.413203
0.128741 0.02892 -0.41321
0.119607 0.0289174 -0.413209
0.110474 0.0289148 -0.413209
0.101343 0.0289122 -0.413209
0.0922131 0.0289096 -0.413209
0.0800428 0.0289061 -0.413208
0.070917 0.0289035 -0.413208
0.0617929 0.0289009 -0.413208
0.04963 0.0288974 -0.413208
0.0405097 0.0288948 -0.413207
0.0313911 0.0288922 -0.413207
0.0222741 0.0288896 -0.413207
0.0101207 0.0288861 -0.413207
0.00100755 0.0288835 -0.413206
-0.00810393 0.0288809 -0.413206
-0.02025 0.0288774 -0.413206
-0.0293577 0.0288748 -0.413205
-0.0384636 0.0288722 -0.413205
-0.047568 0.0288696 -0.413205
-0.0597046 0.0288661 -0.413205
-0.0688051 0.0288635 -0.413204
-0.077904 0.0288609 -0.413204
-0.0900333 0.0288574 -0.413204
-0.0991283 0.0288548 -0.413204
-0.108222 0.0288522 -0.413203
-0.120344 0.0288487 -0.413203
-0.129433 0.0288461 -0.413203
0.127715 0.037773 -0.419555
0.12167 0.0377708 -0.419552
0.109583 0.0377665 -0.419546
0.100519 0.0377633 -0.419542
0.0914567 0.03776 -0.419538
0.0823961 0.0377568 -0.419533
0.0703177 0.0377525 -0.419528
0.0612607 0.0377493 -0.419523
0.0522052 0.037746 -0.419519
0.0401337 0.0377417 -0.419514
0.0310819 0.0377385 -0.419509
0.0220316 0.0377352 -0.419505
0.00996701 0.0377309 -0.4195
0.000920366 0.0377277 -0.419495
-0.00812474 0.0377245 -0.41949
-0.0201824 0.0377202 -0.419484
-0.029224 0.037717 -0.419479
-0.0382639 0.0377138 -0.419475
-0.0503148 0.0377095 -0.419469
-0.0593512 0.0377063 -0.419464
-0.068386 0.0377031 -0.41946
-0.0809365 0.0379736 -0.413204
-0.0900333 0.0379702 -0.413204
-0.0991283 0.0379668 -0.413204
-0.108222 0.0379634 -0.413203
-0.120344 0.0379588 -0.413203
-0.129433 0.0379554 -0.413203
0.129354 0.0463825 -0.427924
0.120375 0.0463785 -0.427921
0.111397 0.0463745 -0.427917
0.102422 0.0463704 -0.427914
0.0904561 0.0463651 -0.42791
0.0814839 0.046361 -0.427907
0.0695234 0.0463557 -0.427902
0.0605548 0.0463516 -0.427899
0.0515878 0.0463476 -0.427896
0.0396342 0.0463422 -0.427892
0.0306709 0.0463382 -0.427888
0.021709 0.0463342 -0.427885
0.00976235 0.0463288 -0.42788
0.000804152 0.0463248 -0.427877
-0.00815249 0.0463208 -0.427873
-0.0200922 0.0463155 -0.427869
-0.0290453 0.0463115 -0.427865
-0.0379968 0.0463075 -0.427862
-0.0499297 0.0463022 -0.427857
-0.0588775 0.0462982 -0.427853
-0.0678239 0.0462942 -0.42785
-0.0809365 0.0501253 -0.413204
-0.0900333 0.0501207 -0.413204
-0.0991283 0.0501162 -0.413204
-0.108222 0.0501117 -0.413203
-0.120344 0.0501057 -0.413203
-0.129433 0.0501011 -0.413203
0.128447 0.055002 -0.433409
0.122499 0.0549988 -0.433407
0.110606 0.0549923 -0.433404
0.101688 0.0549875 -0.433402
0.0898002 0.054981 -0.433399
0.0808859 0.0549762 -0.433396
0.0719732 0.0549714 -0.433394
0.060092 0.0549649 -0.433391
0.051183 0.0549601 -0.433388
0.0422755 0.0549553 -0.433386
0.0304013 0.0549488 -0.433383
0.0214975 0.054944 -0.433381
0.00962811 0.0549376 -0.433378
0.000727921 0.0549327 -0.433375
-0.0081707 0.0549279 -0.433373
-0.0200331 0.0549215 -0.43337
-0.0289281 0.0549167 -0.433367
-0.0378214 0.0549118 -0.433365
-0.0496769 0.0549054 -0.433363
-0.0585666 0.0549005 -0.43336
-0.0704172 0.0548941 -0.433358
-0.0809365 0.0592389 -0.413204
-0.0900333 0.0592336 -0.413204
-0.0991283 0.0592282 -0.413204
-0.108222 0.0592229 -0.413203
-0.120344 0.0592158 -0.413203
-0.129433 0.0592104 -0.413203
0.127857 0.0636509 -0.436975
0.121935 0.0636471 -0.436973
0.110092 0.0636397 -0.43697
0.101212 0.0636341 -0.436967
0.0923333 0.0636285 -0.436965
0.0804975 0.0636211 -0.436962
0.0716225 0.0636155 -0.436959
0.0597916 0.063608 -0.436956
0.0509202 0.0636024 -0.436954
0.0420504 0.0635968 -0.436951
0.0302264 0.0635894 -0.436948
0.0213602 0.0635838 -0.436946
0.0124956 0.0635782 -0.436943
0.000678495 0.0635708 -0.43694
-0.0081825 0.0635652 -0.436938
-0.0199947 0.0635578 -0.436935
-0.0288521 0.0635522 -0.436932
-0.0377079 0.0635466 -0.43693
-0.0495132 0.0635392 -0.436927
-0.0583654 0.0635336 -0.436924
-0.0701659 0.0635262 -0.436921
-0.0809365 0.0683526 -0.413204
-0.0900333 0.0683464 -0.413204
-0.0991283 0.0683403 -0.413204
-0.108222 0.0683341 -0.413203
-0.120344 0.0683259 -0.413203
-0.129433 0.0683197 -0.413203
0.12757 0.0753367 -0.438712
0.12166 0.0753322 -0.438712
0.109841 0.0753232 -0.43871
0.100979 0.0753165 -0.438709
0.0921188 0.0753097 -0.438708
0.0803074 0.0753007 -0.438707
0.0714507 0.075294 -0.438706
0.0596443 0.075285 -0.438704
0.0507913 0.0752783 -0.438703
0.0419399 0.0752716 -0.438702
0.0301404 0.0752626 -0.4387
0.0212927 0.0752559 -0.438699
0.0124466 0.0752492 -0.438698
0.00065414 0.0752402 -0.438697
-0.00818832 0.0752335 -0.438696
-0.0199758 0.0752245 -0.438694
-0.0288146 0.0752178 -0.438693
-0.0376518 0.0752111 -0.438692
-0.0494323 0.0752022 -0.43869
-0.0582657 0.0751954 -0.438689
-0.0700413 0.0751865 -0.438688
-0.0809365 0.0805042 -0.413204
-0.0900333 0.0804969 -0.413204
-0.0991283 0.0804897 -0.413204
-0.108222 0.0804824 -0.413203
-0.120344 0.0804727 -0.413203
-0.129433 0.0804654 -0.413203
0.127656 0.0842523 -0.43819
0.121742 0.0842472 -0.43819
0.109916 0.0842369 -0.438191
0.101048 0.0842291 -0.438192
0.0921822 0.0842214 -0.438193
0.0803633 0.0842111 -0.438194
0.071501 0.0842034 -0.438195
0.0596871 0.0841931 -0.438196
0.0508286 0.0841854 -0.438197
0.0419717 0.0841777 -0.438197
0.0301651 0.0841674 -0.438199
0.021312 0.0841597 -0.438199
0.0124605 0.084152 -0.4382
0.000661015 0.0841417 -0.438201
-0.00818669 0.084134 -0.438202
-0.0199811 0.0841238 -0.438203
-0.028825 0.0841161 -0.438204
-0.0376673 0.0841084 -0.438204
-0.0494545 0.0840981 -0.438205
-0.058293 0.0840904 -0.438206
-0.0700753 0.0840802 -0.438207
-0.0809365 0.0896179 -0.413204
-0.0900333 0.0896098 -0.413204
-0.0991283 0.0896017 -0.413204
-0.108222 0.0895936 -0.413203
-0.120344 0.0895828 -0.413203
-0.129433 0.0895748 -0.413203
0.12795 0.0933185 -0.436412
0.122023 0.0933126 -0.436414
0.110172 0.0933008 -0.436418
0.101285 0.093292 -0.436422
0.0923997 0.0932831 -0.436425
0.0805554 0.0932713 -0.43643
0.0716742 0.0932625 -0.436433
0.0598352 0.0932507 -0.436438
0.050958 0.0932418 -0.436442
0.0420824 0.093233 -0.436445
0.0302509 0.0932212 -0.43645
0.0213792 0.0932124 -0.436453
0.00955289 0.0932006 -0.436458
0.000685136 0.0931918 -0.436461
-0.00818094 0.0931829 -0.436465
-0.0199997 0.0931712 -0.436469
-0.0288619 0.0931623 -0.436473
-0.0377223 0.0931535 -0.436476
-0.0495337 0.0931417 -0.436481
-0.0583902 0.0931329 -0.436484
-0.0701964 0.0931212 -0.436489
-0.0809365 0.0987316 -0.413204
-0.0900333 0.0987227 -0.413204
-0.0991283 0.0987138 -0.413204
-0.108222 0.0987048 -0.413203
-0.120344 0.098693 -0.413203
-0.129433 0.0986841 -0.413203
0.128589 0.102676 -0.432551
0.119658 0.102666 -0.432554
0.110728 0.102656 -0.432558
0.101801 0.102646 -0.432562
0.0898996 0.102633 -0.432567
0.0809758 0.102624 -0.432571
0.0720538 0.102614 -0.432575
0.0601604 0.102601 -0.43258
0.0512423 0.102591 -0.432584
0.0423259 0.102581 -0.432588
0.0304401 0.102568 -0.432593
0.0215277 0.102558 -0.432597
0.00964705 0.102545 -0.432602
0.00073859 0.102536 -0.432606
-0.00816817 0.102526 -0.432609
-0.0200412 0.102513 -0.432615
-0.028944 0.102503 -0.432618
-0.0379097 0.105718 -0.430595
-0.0498035 0.105703 -0.430605
-0.0587217 0.105693 -0.430613
-0.0676382 0.105682 -0.430621
-0.0809365 0.107845 -0.413204
-0.0900333 0.107836 -0.413204
-0.0991283 0.107826 -0.413204
-0.108222 0.107816 -0.413203
-0.120344 0.107803 -0.413203
-0.129433 0.107793 -0.413203
0.126773 0.112549 -0.425377
0.114763 0.112534 -0.425388
0.105759 0.112523 -0.425397
0.0967557 0.112511 -0.425406
0.0847546 0.112496 -0.425417
0.0757558 0.112485 -0.425426
0.0667589 0.112473 -0.425435
0.0547659 0.112458 -0.425446
0.0457732 0.112447 -0.425455
0.0367824 0.112436 -0.425464
0.0247974 0.112421 -0.425475
0.0158108 0.112409 -0.425484
0.006826 0.112398 -0.425493
-0.00515094 0.112383 -0.425504
-0.0141315 0.112371 -0.425513
-0.0231102 0.11236 -0.425522
-0.0351736 0.115793 -0.422199
-0.044183 0.11578 -0.422216
-0.0531905 0.115767 -0.422232
-0.0651973 0.11575 -0.422253
0.128108 0.119701 -0.417126
0.122044 0.119692 -0.417138
0.109918 0.119674 -0.417161
0.100826 0.119661 -0.417179
0.0917365 0.119648 -0.417196
0.07962 0.11963 -0.417219
0.0705349 0.119617 -0.417237
0.0614519 0.119604 -0.417254
0.0523709 0.11959 -0.417272
0.040266 0.119573 -0.417294
0.0311898 0.11956 -0.417311
0.0221155 0.119546 -0.417328
0.0100195 0.119529 -0.41735
0.000949875 0.119516 -0.417366
-0.00811776 0.119502 -0.417383
-0.0202048 0.119485 -0.417405
-0.0745528 0.119406 -0.417505
-0.083969 0.119993 -0.413204
-0.0930651 0.119982 -0.413204
-0.105191 0.119968 -0.413203
-0.114283 0.119957 -0.413203
-0.123374 0.119946 -0.413203
-0.0293872 0.123295 -0.41182
-0.0385065 0.123278 -0.41186
-0.0476233 0.123261 -0.4119
-0.0597752 0.123239 -0.411953
-0.0688863 0.123222 -0.411993
-0.0777249 0.19729 0.0741234
-0.0777233 0.184184 -0.0155623
-0.0777211 0.172709 -0.0940887
-0.0777192 0.16258 -0.163404
-0.0777175 0.153573 -0.225039
-0.077716 0.145512 -0.280204
-0.0777146 0.138255 -0.329866
-0.0777106 0.131682 -0.374846
-0.077904 0.129114 -0.413204
-0.0900333 0.129099 -0.413204
-0.0991283 0.129087 -0.413204
-0.108222 0.129076 -0.413203
-0.120344 0.12906 -0.413203
-0.129433 0.129048 -0.413203
-0.0777233 0.19306 -0.0155623
-0.077716 0.152525 -0.280204
-0.0777109 0.138029 -0.374843
-0.0777211 0.185194 -0.0940887
-0.0777192 0.174333 -0.163404
-0.0777175 0.164675 -0.225039
-0.0777146 0.148249 -0.329866
-0.077904 0.138228 -0.413204
-0.0900333 0.138212 -0.413204
-0.0991283 0.138199 -0.413204
-0.108222 0.138187 -0.413203
-0.120344 0.13817 -0.413203
-0.129433 0.138158 -0.413203
-0.0777211 0.193517 -0.0940887
-0.077716 0.163043 -0.280204
-0.0777112 0.147548 -0.374839
-0.0777192 0.186085 -0.163404
-0.0777175 0.175777 -0.225039
-0.0777146 0.158243 -0.329866
-0.0777192 0.193921 -0.163404
-0.0777175 0.183178 -0.225039
-0.077716 0.173562 -0.280204
-0.077904 0.15038 -0.413204
-0.0900333 0.150362 -0.413204
-0.0991283 0.150349 -0.413204
-0.108222 0.150335 -0.413203
-0.120344 0.150317 -0.413203
-0.129433 0.150303 -0.413203
-0.0777146 0.168238 -0.329866
-0.0777106 0.160239 -0.374847
-0.0777175 0.194279 -0.225039
-0.077716 0.184081 -0.280204
-0.077904 0.159494 -0.413204
-0.0900333 0.159475 -0.413204
-0.0991283 0.159461 -0.413204
-0.108222 0.159446 -0.413203
-0.120344 0.159427 -0.413203
-0.129433 0.159413 -0.413203
-0.0777146 0.178232 -0.329866
-0.0777101 0.169757 -0.374854
-0.077716 0.1946 -0.280204
-0.077904 0.168608 -0.413204
-0.0900333 0.168588 -0.413204
-0.0991283 0.168573 -0.413204
-0.108222 0.168557 -0.413203
-0.120344 0.168537 -0.413203
-0.129433 0.168522 -0.413203
-0.0777146 0.188226 -0.329866
-0.0777096 0.179275 -0.374861
-0.077904 0.177722 -0.413204
-0.0900333 0.177701 -0.413204
-0.0991283 0.177685 -0.413204
-0.108222 0.177669 -0.413203
-0.120344 0.177647 -0.413203
-0.129433 0.177631 -0.413203
-0.0777146 0.198221 -0.329866
-0.0777091 0.188793 -0.374867
-0.0777086 0.19831 -0.374874
-0.077904 0.189874 -0.413204
-0.0900333 0.189851 -0.413204
-0.0991283 0.189834 -0.413204
-0.108222 0.189817 -0.413203
-0.120344 0.189794 -0.413203
-0.129433 0.189777 -0.413203
-0.077904 0.198988 -0.413204
-0.0900333 0.198964 -0.413204
-0.0991283 0.198946 -0.413204
-0.108222 0.198928 -0.413203
-0.120344 0.198904 -0.413203
-0.129433 0.198886 -0.413203
