ply
format ascii 1.0
comment Created by Open3D
element vertex 763
property double x
property double y
property double z
end_header
0.111858 -0.173937 -0.376974
-0.0834001 -0.173341 -0.385641
-0.0828581 -0.1723 -0.373073
0.110755 -0.15084 -0.38039
0.128581 -0.130547 -0.412001
-0.0883153 -0.151987 -0.384875
0.128606 -0.130751 -0.392396
0.109318 -0.128612 -0.417088
0.0893892 -0.130169 -0.417114
0.128633 -0.130964 -0.371883
0.0724097 -0.128728 -0.417136
0.0515719 -0.130321 -0.417164
0.0302116 -0.129118 -0.417191
0.0119979 -0.130481 -0.417215
0.128682 -0.130628 -0.333601
-0.0103726 -0.129251 -0.417244
-0.0294582 -0.130648 -0.417269
0.128712 -0.130852 -0.310237
-0.0489607 -0.129107 -0.417295
-0.0688943 -0.130534 -0.41732
0.128743 -0.131088 -0.285687
-0.0892731 -0.128957 -0.417347
0.128768 -0.130487 -0.266441
0.154866 -0.109084 -0.418371
0.128587 -0.112327 -0.407182
0.109318 -0.112366 -0.417088
0.128802 -0.130725 -0.239587
0.134877 -0.106817 -0.426093
0.0893892 -0.110986 -0.417114
0.0724097 -0.112118 -0.417136
0.128838 -0.130975 -0.211268
0.160326 -0.107376 -0.386595
0.0515719 -0.110703 -0.417164
0.0302116 -0.112091 -0.417191
0.128867 -0.130326 -0.188993
0.160928 -0.107093 -0.365951
0.16949 -0.101623 -0.407077
0.0119979 -0.110407 -0.417215
-0.0103726 -0.111824 -0.417244
0.128907 -0.130577 -0.157805
0.155482 -0.109132 -0.327516
-0.0316231 -0.110017 -0.4191
-0.0489607 -0.111299 -0.417295
0.128949 -0.130843 -0.124778
0.157337 -0.10851 -0.306384
-0.0722874 -0.109198 -0.42203
-0.0892731 -0.110752 -0.417347
0.128983 -0.130137 -0.0986993
0.159264 -0.107864 -0.284302
0.165726 -0.0913176 -0.430678
0.12903 -0.130404 -0.0620364
0.129006 -0.128407 -0.0806486
0.128928 -0.121876 -0.141531
0.160383 -0.10743 -0.259439
0.176352 -0.0939746 -0.376329
0.126107 -0.0908779 -0.431808
0.112225 -0.173587 0.379623
0.12908 -0.130688 -0.02302
0.129054 -0.128624 -0.0428364
0.161074 -0.107106 -0.232307
0.0870163 -0.0903979 -0.431858
0.0101609 -0.094633 -0.431958
0.129133 -0.130991 0.0185838
0.129106 -0.128855 -0.0025574
0.161803 -0.106764 -0.203685
0.177489 -0.0923494 -0.337925
0.106797 -0.086642 -0.431832
0.0424554 -0.0900817 -0.431916
0.129175 -0.130198 0.0516434
0.156445 -0.108882 -0.151402
0.162574 -0.106403 -0.173445
0.177844 -0.0918547 -0.313791
0.18158 -0.08203 -0.412054
0.066746 -0.0860514 -0.431884
-0.00832182 -0.089941 -0.431982
0.129235 -0.130503 0.0984384
0.129205 -0.128246 0.0746362
0.158692 -0.108131 -0.1217
0.175052 -0.0961261 -0.239532
0.177734 -0.0920933 -0.280607
-0.0582911 -0.0895927 -0.432047
-0.0987487 -0.0916241 -0.432083
0.112753 -0.152679 0.377925
0.1293 -0.130829 0.148648
0.129267 -0.128485 0.123093
0.160459 -0.107503 -0.0889819
0.181695 -0.0818124 -0.35762
0.147203 -0.0768029 -0.43048
-0.0310325 -0.0853325 -0.432012
0.129351 -0.129951 0.188778
0.161274 -0.107124 -0.0517258
0.164909 -0.105256 -0.0708676
0.175165 -0.0961017 -0.168662
0.177994 -0.0918074 -0.215591
-0.0782846 -0.0846551 -0.432073
0.129424 -0.130278 0.245933
0.129405 -0.129021 0.23123
0.152506 -0.109327 0.0133116
0.165484 -0.104906 -0.0314912
0.178684 -0.0904628 -0.193292
0.166405 -0.0706161 -0.431754
0.129503 -0.130632 0.307724
0.129483 -0.129321 0.291811
0.163073 -0.106289 0.0302744
0.177754 -0.0923543 -0.130947
0.178638 -0.0906664 -0.150949
0.181784 -0.0820458 -0.253836
0.182664 -0.0709853 -0.387515
0.124631 -0.0704245 -0.425074
0.0866214 -0.0719337 -0.426913
0.0151857 -0.0748537 -0.429359
0.129589 -0.131016 0.374739
0.129545 -0.128304 0.340538
0.157933 -0.108494 0.105894
0.164071 -0.105826 0.0755287
0.16676 -0.10413 0.0555695
0.175726 -0.0955514 -0.0478002
0.177608 -0.0926653 -0.0831788
0.178589 -0.0908871 -0.105071
0.182732 -0.0724149 -0.335699
0.0445875 -0.0710627 -0.425956
-0.12268 -0.0778266 -0.429353
0.129635 -0.128596 0.410417
0.129612 -0.127222 0.392387
0.160563 -0.107606 0.151451
0.173862 -0.0964405 0.0120325
0.182773 -0.0719802 -0.304126
0.182756 -0.0709985 -0.317013
0.122044 -0.0673272 -0.397351
0.102572 -0.0673371 -0.40754
0.0673798 -0.067844 -0.419542
-0.00345933 -0.0702928 -0.424963
-0.0588683 -0.0723405 -0.427465
0.161566 -0.107147 0.205785
0.165681 -0.104962 0.178076
0.17869 -0.0905159 -0.0126023
0.182808 -0.0710059 -0.277251
0.136916 -0.062023 -0.424429
0.0628667 -0.0673577 -0.390712
0.0374672 -0.0673707 -0.403996
0.0171406 -0.0673811 -0.414627
-0.025411 -0.0685173 -0.42164
-0.0992999 -0.070655 -0.431563
0.162648 -0.106653 0.264424
0.166415 -0.104523 0.235997
0.175627 -0.0960026 0.119169
0.179327 -0.0897473 0.0317771
0.181342 -0.0845351 -0.0416092
0.182838 -0.0755222 -0.16956
0.182905 -0.0731883 -0.202864
0.182884 -0.0720847 -0.218639
0.182701 -0.062232 -0.359478
-0.014908 -0.0673978 -0.390416
-0.0334989 -0.0674074 -0.400133
-0.0547521 -0.0674182 -0.411241
0.163819 -0.106118 0.327901
0.167209 -0.104048 0.298756
0.176876 -0.0942294 0.157107
0.17761 -0.0930988 0.140596
0.179303 -0.0899615 0.094593
0.181159 -0.0845531 0.0147276
0.182472 -0.0562001 -0.408422
-0.0873352 -0.0661386 -0.402847
0.16509 -0.105536 0.396845
0.168073 -0.103531 0.366983
0.177419 -0.0935291 0.21513
0.178173 -0.0923623 0.197237
0.181801 -0.0835733 0.0613635
0.182953 -0.0760184 -0.0564722
0.183012 -0.0746977 -0.0771464
0.183018 -0.0722101 -0.116144
0.182982 -0.070458 -0.143633
-0.07653 -0.0612297 -0.425853
-0.119777 -0.0622991 -0.432007
0.178006 -0.0927699 0.278125
0.178718 -0.0915797 0.258885
0.183043 -0.0698456 -0.0970462
0.182845 -0.0606446 -0.248803
0.18192 -0.0520096 -0.391616
0.175975 -0.050007 -0.427773
0.119481 -0.051599 -0.431475
0.0999125 -0.0522344 -0.431374
0.178645 -0.0919428 0.346745
0.179213 -0.0907514 0.326349
0.182274 -0.0824483 0.183721
0.182882 -0.0789941 0.124033
0.183073 -0.0710701 -0.0135295
0.182937 -0.0615914 -0.178275
0.18204 -0.052283 -0.340466
0.0802301 -0.0501341 -0.431757
0.0597374 -0.0507614 -0.431719
0.0422207 -0.0513007 -0.431634
0.0207033 -0.0519631 -0.43153
0.179757 -0.0898451 0.400086
0.183267 -0.0724551 0.0825644
0.183218 -0.0703974 0.0447478
0.183096 -0.064869 -0.0568509
0.182096 -0.0522321 -0.289467
0.181864 -0.0511843 -0.308833
0.157287 -0.0452 -0.431766
-0.000958681 -0.0497599 -0.431887
-0.0197166 -0.0503019 -0.431875
-0.0546284 -0.0513158 -0.431756
0.182356 -0.0831274 0.370615
0.182895 -0.0801507 0.312917
0.183298 -0.0765515 0.243021
0.183364 -0.0748948 0.210787
0.183284 -0.068987 0.0956664
0.18218 -0.0647131 0.011832
0.182768 -0.055836 -0.160774
0.181754 -0.050355 -0.268073
-0.0986086 -0.0497578 -0.428294
0.183517 -0.0734817 0.275688
0.183355 -0.0674609 0.150757
0.181715 -0.0498138 -0.216036
0.144963 -0.0403484 -0.431784
0.183659 -0.0736724 0.38507
0.183319 -0.0618418 0.122658
0.182858 -0.0547418 -0.0349618
0.182309 -0.0520385 -0.0951734
0.182027 -0.0507882 -0.123036
0.181846 -0.0499876 -0.140877
0.177536 -0.0401349 -0.361554
0.18361 -0.0669896 0.346906
0.183586 -0.0662164 0.328485
0.183495 -0.0632941 0.258865
0.183453 -0.0619276 0.22631
0.183393 -0.059985 0.18003
0.182984 -0.0548623 0.0578533
0.178715 -0.0421391 -0.247315
0.174147 -0.0354184 -0.409741
-0.0702349 -0.0399211 -0.432062
-0.119647 -0.0410183 -0.432126
0.183634 -0.0627603 0.365763
0.183562 -0.0606119 0.310484
0.18308 -0.0544442 0.151644
0.182619 -0.0523559 0.0977072
0.182505 -0.0518593 0.0848773
0.182069 -0.0499636 0.0359025
0.18047 -0.0454659 -0.080588
0.178624 -0.0417677 -0.176656
0.183251 -0.0545576 0.276634
0.182629 -0.0517467 0.197745
0.17619 -0.0377892 -0.195751
0.17244 -0.0333331 -0.322276
0.171888 -0.0327272 -0.339504
0.124974 -0.0303723 -0.43018
0.0959545 -0.0309118 -0.430483
0.0760252 -0.0312824 -0.430687
0.0555694 -0.0316648 -0.430844
0.0346074 -0.0320565 -0.431004
0.183207 -0.0534136 0.386809
0.174744 -0.0357238 -0.159156
0.171455 -0.0322297 -0.267852
0.170507 -0.0314248 -0.292991
0.166891 -0.0285895 -0.381694
0.156703 -0.0273156 -0.426089
0.00480413 -0.0298158 -0.430062
-0.0249472 -0.0303216 -0.430349
-0.0440598 -0.0306465 -0.430533
-0.0967595 -0.0319643 -0.418125
0.182314 -0.0490318 0.410194
0.181681 -0.0473846 0.35413
0.18048 -0.0444078 0.252783
0.179997 -0.0435102 0.22216
0.17931 -0.0422297 0.178476
0.178456 -0.0406351 0.124075
0.174361 -0.0373465 0.0106468
0.174855 -0.035679 -0.0455072
0.174085 -0.0348433 -0.0741895
0.172424 -0.0330375 -0.136163
0.179238 -0.0416939 0.326259
0.178996 -0.0412474 0.309248
0.17331 -0.0338141 0.0251703
0.17201 -0.0324429 -0.0273691
0.169979 -0.03073 -0.0932116
0.169437 -0.0302734 -0.110766
0.165149 -0.0272855 -0.226014
0.164342 -0.0267608 -0.246284
0.158178 -0.0239568 -0.355575
0.154934 -0.0228669 -0.398505
0.176981 -0.0378778 0.371734
0.171031 -0.0314541 0.0933032
0.170384 -0.0309133 0.0697868
0.169759 -0.0303909 0.0470654
0.161392 -0.0252192 -0.178992
0.160034 -0.0245679 -0.207623
0.152209 -0.02229 -0.309385
0.14976 -0.0218579 -0.329202
0.136955 -0.0215903 -0.347456
0.116626 -0.0215904 -0.358226
0.0963056 -0.02159 -0.36901
0.0759874 -0.0215896 -0.379795
0.0556697 -0.0215892 -0.39058
0.0353529 -0.0215889 -0.401364
0.0150368 -0.0215885 -0.412148
-0.0650778 -0.0223685 -0.421182
-0.0985331 -0.0231796 -0.404154
-0.134982 -0.0230307 -0.429851
0.16881 -0.0293924 0.197556
0.167211 -0.0283467 0.145
0.154668 -0.0227408 -0.138838
0.13978 -0.0215925 -0.203509
0.122186 -0.0215925 -0.21283
0.10166 -0.0215926 -0.223705
0.0811332 -0.0215927 -0.23458
0.0606064 -0.0215928 -0.245455
0.0400863 -0.0215926 -0.256341
0.0195712 -0.0215922 -0.267233
0.00198746 -0.0215918 -0.276569
-0.0185262 -0.0215914 -0.28746
-0.0390391 -0.021591 -0.298351
-0.0408481 -0.0211364 -0.321788
-0.0409163 -0.0207403 -0.341411
-0.040982 -0.0203588 -0.360313
-0.0410453 -0.019991 -0.378531
-0.0411217 -0.0195496 -0.400398
-0.0989929 -0.0208857 -0.365
0.167705 -0.0284557 0.406477
0.167243 -0.0281589 0.388886
0.166348 -0.0275834 0.354783
0.164612 -0.0265036 0.290764
0.16357 -0.0260096 0.261346
0.162079 -0.0253022 0.219216
0.160668 -0.0246322 0.179313
0.157825 -0.0236295 0.119212
0.15486 -0.0227247 0.0647696
0.152479 -0.0222534 0.0359668
0.150945 -0.0219499 0.0174197
0.131181 -0.0220615 0.0134625
0.126304 -0.0215955 -0.0163523
0.105508 -0.0215956 -0.0273691
0.0847124 -0.0215957 -0.038386
0.0569842 -0.0215958 -0.0530754
0.0361877 -0.0215958 -0.0640925
0.0153912 -0.0215959 -0.0751098
0.00499278 -0.021596 -0.0806183
-0.0158039 -0.021596 -0.0916358
-0.0405384 -0.0214884 -0.111036
-0.0406052 -0.0211248 -0.132317
-0.0406697 -0.0207733 -0.152891
-0.0407115 -0.0205454 -0.16623
-0.0407728 -0.0202128 -0.185699
-0.0408511 -0.0197857 -0.210699
-0.0409263 -0.0193763 -0.234663
-0.0409627 -0.0191779 -0.246277
-0.0410334 -0.018793 -0.268806
0.156023 -0.0229055 0.373398
0.154136 -0.0225085 0.344044
0.152219 -0.0221302 0.31601
0.140852 -0.0215934 0.271642
0.119701 -0.0215921 0.26034
0.0985523 -0.0215908 0.249039
0.0816354 -0.0215897 0.24
0.0604913 -0.0215885 0.228702
0.0393498 -0.0215872 0.217405
0.0224125 -0.0215872 0.208429
0.00122976 -0.0215876 0.197235
-0.0199539 -0.0215881 0.18604
-0.040163 -0.0215533 0.172846
-0.0402236 -0.0212544 0.151463
-0.0402825 -0.0209636 0.130665
-0.0403399 -0.0206807 0.110428
-0.0403956 -0.0204053 0.0907298
-0.04045 -0.0201372 0.0715497
-0.0405269 -0.0197478 0.0437026
-0.0982841 -0.0212445 0.119986
-0.0983682 -0.0209802 0.101067
-0.0984905 -0.0205959 0.0735558
-0.0401251 -0.018646 -0.0347795
-0.0401328 -0.0183096 -0.0588108
-0.0408964 -0.0179021 -0.0883214
-0.0395799 -0.019352 0.410836
-0.039602 -0.019041 0.382264
-0.0402226 -0.0187586 0.356009
-0.0402557 -0.0186122 0.34254
-0.0403214 -0.018326 0.316226
-0.0403535 -0.0181862 0.30337
-0.0404164 -0.0179128 0.278238
-0.0404771 -0.0176476 0.25385
-0.0405363 -0.0173901 0.230173
-0.0405937 -0.01714 0.207178
-0.0491566 -0.0103913 -0.41709
-0.103437 -0.0106325 -0.423711
-0.056303 -0.0109761 0.0359914
-0.0416871 -0.00725418 0.18698
-0.0826266 -0.00682534 0.0733968
-0.102665 -0.00464582 -0.404224
-0.123889 -0.00456807 -0.43213
-0.0422397 -0.00238626 0.166236
-0.0422713 -0.00235328 0.14502
-0.0422869 -0.00233713 0.13463
-0.0423173 -0.00230548 0.114273
-0.0423467 -0.00227468 0.0944587
-0.0423897 -0.00222999 0.0657115
-0.0424158 -0.00220116 0.0471631
-0.102544 -0.0023169 0.0896925
-0.102574 -0.0022886 0.0714892
-0.0390849 -0.00204314 -0.0526481
-0.0394479 -0.00201992 -0.0677626
-0.0400668 -0.00198637 -0.0896571
-0.0408607 -0.00194333 -0.117743
-0.0414339 -0.00191226 -0.138021
-0.041989 -0.00188216 -0.157662
-0.0427026 -0.00184348 -0.182907
-0.0427712 -0.00182388 -0.195539
-0.0428104 -0.00178563 -0.220145
-0.0428363 -0.00175798 -0.237936
-0.0428697 -0.00172241 -0.260818
-0.0429018 -0.00168825 -0.282792
-0.0429325 -0.00165542 -0.303912
-0.0429621 -0.00162384 -0.324225
-0.0429906 -0.00159345 -0.343779
-0.0430181 -0.00156417 -0.362613
-0.043038 -0.00154291 -0.376291
-0.0457916 -0.00150223 -0.403898
-0.103297 -0.00160328 -0.369418
-0.0382333 0.00271391 0.378976
-0.0390795 0.00267469 0.353315
-0.0397986 0.00263613 0.328148
-0.0404972 0.00259867 0.303695
-0.0411763 0.00256225 0.279929
-0.0418366 0.00252684 0.256819
-0.0421142 0.00747258 0.233557
-0.0427437 0.00737215 0.211705
-0.043256 0.00727317 0.190225
-0.0552515 0.00657433 0.0341278
-0.13753 0.00460505 -0.431432
-0.0824606 0.0111622 0.0460573
-0.106649 0.0159239 0.0604985
-0.0687538 0.010545 -0.413362
-0.049027 0.024474 0.376753
-0.0487062 0.0242687 0.362259
-0.0480807 0.0238682 0.333988
-0.0474753 0.0234808 0.306634
-0.04718 0.0232917 0.293288
-0.0466033 0.0229226 0.267229
-0.0463218 0.0227424 0.254508
-0.0452939 0.0215857 0.172441
-0.0450997 0.0212794 0.150665
-0.0449111 0.0209816 0.129499
-0.0447276 0.0206921 0.108917
-0.0448076 0.0204192 0.0893846
-0.0447993 0.0201505 0.0702004
-0.0784019 0.019842 0.0303556
-0.0441481 0.0182136 -0.0677971
-0.0434553 0.0177699 -0.0991191
-0.0500475 0.0273607 0.227083
-0.049746 0.0271506 0.214965
-0.0491569 0.02674 0.191279
-0.0595076 0.0244281 0.0506963
-0.0462896 0.0213259 -0.123581
-0.0459282 0.0210739 -0.138117
-0.0454018 0.0207068 -0.159289
-0.0447983 0.0202392 -0.186296
-0.044583 0.0199093 -0.205455
-0.0443065 0.019486 -0.230049
-0.0441068 0.0191801 -0.24782
-0.04385 0.0187868 -0.270663
-0.0442218 0.0184283 -0.291809
-0.0448174 0.0180904 -0.31187
-0.045063 0.017755 -0.331602
-0.0583708 0.0353366 0.37107
-0.0453952 0.0206044 -0.350504
-0.0453825 0.0202279 -0.369113
-0.10826 0.0205584 -0.386096
-0.108167 0.0199686 -0.41521
-0.0571593 0.0361765 0.174733
-0.0980242 0.0334764 0.0373701
-0.0543733 0.0230573 -0.385991
-0.128149 0.0228929 -0.432135
-0.0672296 0.0458029 0.351005
-0.0662991 0.0450477 0.322943
-0.0653987 0.044317 0.29579
-0.0649595 0.0439604 0.282542
-0.0641016 0.0432643 0.256674
-0.0614088 0.0404422 0.151393
-0.0611057 0.0398804 0.13031
-0.060811 0.039334 0.109805
-0.0605243 0.0388023 0.0898545
-0.0602451 0.0382849 0.0704359
-0.0752121 0.0377539 0.0424258
-0.0699126 0.0471023 0.21124
-0.0694739 0.0464209 0.188417
-0.112534 0.0420772 0.0186412
-0.0618126 0.0386619 -0.0700223
-0.0609605 0.0379474 -0.0937436
-0.0590897 0.0363786 -0.145825
-0.0583346 0.0357453 -0.16685
-0.0576053 0.0351337 -0.187156
-0.0680782 0.0290859 -0.397313
-0.0918745 0.0291839 -0.40661
-0.0845315 0.0581492 0.389868
-0.0835643 0.0576222 0.374248
-0.0797794 0.0551935 0.301911
-0.0791635 0.0543476 0.276346
-0.0788625 0.0539343 0.263855
-0.0782743 0.0531263 0.239435
-0.0635067 0.0411745 -0.118581
-0.0600228 0.0381733 -0.208598
-0.0592898 0.0375419 -0.227539
-0.0583493 0.0367317 -0.251839
-0.0576702 0.0361467 -0.269387
-0.0950543 0.0637603 0.386332
-0.0919179 0.0620554 0.340346
-0.0842535 0.0559777 0.174549
-0.0836191 0.0551824 0.152658
-0.0830022 0.0544094 0.13138
-0.0824025 0.0536577 0.11069
-0.0808796 0.0518587 0.0612199
-0.0599221 0.0389634 -0.28807
-0.0590535 0.038168 -0.30984
-0.0580247 0.036876 -0.345404
-0.118641 0.0350285 -0.429163
-0.141153 0.0353518 -0.43206
-0.10444 0.0687538 0.367195
-0.101078 0.0669296 0.322072
-0.0989342 0.0657663 0.293297
-0.0968637 0.0646427 0.265505
-0.0958548 0.0640952 0.251962
-0.0931412 0.0625275 0.213091
-0.0891078 0.0578177 0.0941296
-0.0887833 0.0556765 0.0392478
-0.108384 0.0556718 0.0287373
-0.11741 0.0551239 0.0098685
-0.0635613 0.0408195 -0.329389
-0.112386 0.0389627 -0.403007
-0.119695 0.0765297 0.413286
-0.119475 0.0753894 0.386254
-0.119369 0.0748319 0.373038
-0.100407 0.0664779 0.184199
-0.0989198 0.0654614 0.160786
-0.09808 0.0645348 0.139173
-0.0972639 0.0636342 0.118163
-0.0810613 0.056 -0.0550001
-0.0789767 0.0548718 -0.0807558
-0.0759486 0.0522509 -0.141547
-0.0751348 0.0513517 -0.162524
-0.120406 0.0793498 0.349763
-0.120184 0.0782079 0.324569
-0.119969 0.0770984 0.30009
-0.11976 0.0760199 0.276295
-0.119657 0.0754919 0.264646
-0.119456 0.0744575 0.241826
-0.113086 0.0732648 0.218764
-0.102599 0.0663717 0.0715326
-0.0852524 0.0582042 -0.100312
-0.0831526 0.0570687 -0.124367
-0.079706 0.0538379 -0.194153
-0.0791406 0.0532417 -0.207069
-0.0777806 0.0518073 -0.238143
-0.0767442 0.0507142 -0.261822
-0.0719491 0.045657 -0.371377
-0.121781 0.0856051 0.36527
-0.120211 0.0776005 0.20012
-0.120011 0.0765775 0.179015
-0.119816 0.0755813 0.158461
-0.119626 0.0746106 0.138434
-0.10815 0.0698344 0.0454789
-0.0985028 0.065305 -0.0433285
-0.0960294 0.0639691 -0.0697188
-0.0814647 0.0535713 -0.277603
-0.0803862 0.0524772 -0.299718
-0.0786012 0.0506664 -0.336321
-0.0757459 0.0480385 -0.389298
-0.120526 0.078543 0.120792
-0.120237 0.0770747 0.0923446
-0.12005 0.076126 0.0739636
-0.0981274 0.0650475 -0.130215
-0.0846332 0.0549465 -0.319819
-0.0904075 0.0505732 -0.408066
-0.124756 0.0992136 0.410757
-0.122623 0.0885034 0.215187
-0.120624 0.0784476 0.0315641
-0.120085 0.0757306 -0.0180511
-0.109948 0.0713732 -0.0927056
-0.108188 0.070424 -0.109204
-0.103986 0.0681581 -0.148593
-0.0992869 0.0656243 -0.192638
-0.0977976 0.0648211 -0.206601
-0.095633 0.0636527 -0.226912
-0.0875787 0.0562248 -0.359063
-0.125292 0.101248 0.347316
-0.125144 0.100514 0.334645
-0.124857 0.0990775 0.309844
-0.124577 0.0976816 0.285743
-0.12444 0.0969984 0.273945
-0.124172 0.0956601 0.250838
-0.12071 0.0783627 -0.0478353
-0.120448 0.0770563 -0.0703923
-0.10887 0.0707448 -0.173906
-0.0989094 0.0653755 -0.261909
-0.0977628 0.0643427 -0.279244
-0.0953154 0.0620639 -0.317536
-0.116535 0.0575492 -0.407216
-0.127036 0.109317 0.389182
-0.124681 0.0976336 0.19787
-0.124421 0.0963465 0.176794
-0.124169 0.0950929 0.156266
-0.123923 0.0938715 0.136265
-0.123604 0.0862854 0.0113986
-0.1207 0.0778691 -0.12578
-0.120452 0.0766441 -0.14584
-0.101831 0.0666782 -0.300229
-0.098932 0.0640365 -0.342235
-0.0962029 0.0615913 -0.381091
-0.128507 0.11601 0.405444
-0.124528 0.0963665 0.0995877
-0.124286 0.0951729 0.0810019
-0.123935 0.0934369 0.0539708
-0.120769 0.0778212 -0.189177
-0.120455 0.0762759 -0.213237
-0.120154 0.0747908 -0.23636
-0.129098 0.0626606 -0.43128
-0.150524 0.0633718 -0.431484
-0.129267 0.119196 0.368085
-0.127288 0.10948 0.223879
-0.125871 0.102515 0.120525
-0.120533 0.0763046 -0.26847
-0.120245 0.0748864 -0.289518
-0.107987 0.0697296 -0.360109
-0.104512 0.0670545 -0.398258
-0.130178 0.123149 0.344869
-0.129816 0.121376 0.319741
-0.129463 0.119654 0.295327
-0.129291 0.118811 0.283378
-0.128954 0.117161 0.259977
-0.128625 0.115555 0.237218
-0.125656 0.10102 0.031172
-0.124604 0.0958539 -0.0420731
-0.120465 0.0756464 -0.328533
-0.129151 0.11767 0.19562
-0.128832 0.116118 0.174572
-0.12837 0.113867 0.144019
-0.124794 0.0964165 -0.0927435
-0.124579 0.0953724 -0.106909
-0.122662 0.0860535 -0.233344
-0.120471 0.0753751 -0.378228
-0.133777 0.139712 0.416641
-0.133346 0.137618 0.389401
-0.132927 0.135586 0.362965
-0.129025 0.116641 0.1165
-0.128724 0.115178 0.0974671
-0.131253 0.108384 0.00700915
-0.126993 0.106504 -0.0154004
-0.126204 0.102915 -0.0620617
-0.124761 0.0959263 -0.152979
-0.124557 0.0949345 -0.165882
-0.122638 0.0856374 -0.286828
-0.122315 0.0840693 -0.307227
-0.120864 0.0770181 -0.398959
-0.123294 0.0751401 -0.424883
-0.133791 0.139323 0.339856
-0.133377 0.137321 0.314844
-0.131834 0.129858 0.221592
-0.129057 0.116413 0.0536078
-0.124731 0.095479 -0.207951
-0.134212 0.140937 0.292945
-0.133405 0.137048 0.246199
-0.130582 0.123423 0.0824521
-0.126911 0.105693 -0.130644
-0.124799 0.0955263 -0.252825
-0.137534 0.156532 0.411286
-0.135026 0.144465 0.271582
-0.133814 0.138635 0.204093
-0.133244 0.135893 0.17235
-0.132877 0.134125 0.151877
-0.130704 0.123665 0.0307782
-0.129119 0.11601 -0.0578429
-0.126675 0.104273 -0.193727
-0.141048 0.0845241 -0.432152
-0.138362 0.1601 0.386893
-0.137869 0.157735 0.360492
-0.13739 0.15544 0.33486
-0.133456 0.136561 0.124041
-0.129142 0.11583 -0.107459
-0.127898 0.109872 -0.173986
-0.126883 0.105011 -0.228267
-0.124923 0.0956114 -0.333234
-0.124487 0.0935187 -0.356602
-0.137949 0.157741 0.300211
-0.137485 0.155522 0.276282
-0.136596 0.151267 0.230389
-0.133479 0.136344 0.0694555
-0.136395 0.130737 0.00682652
-0.131375 0.126227 -0.0396436
-0.130642 0.122724 -0.0774204
-0.129164 0.115663 -0.153573
-0.126871 0.104708 -0.271707
-0.138253 0.158842 0.255306
-0.135114 0.14385 0.0989908
-0.133672 0.136957 0.0271118
-0.132991 0.133003 -0.0141886
-0.129183 0.115507 -0.196543
-0.127061 0.105389 -0.302033
-0.138541 0.159887 0.212681
-0.138093 0.157751 0.19112
-0.137657 0.155671 0.170128
-0.137232 0.153645 0.149681
-0.135263 0.144258 0.0549475
-0.131399 0.125811 -0.131217
-0.125753 0.0989276 -0.402527
-0.140211 0.167519 0.237067
-0.137945 0.15674 0.13168
-0.133547 0.135776 -0.0733075
-0.129335 0.115772 -0.2689
-0.127126 0.105267 -0.371622
-0.138013 0.156775 0.0857034
-0.141128 0.148639 0.00599647
-0.135723 0.14585 -0.0178927
-0.133719 0.136347 -0.108011
-0.132378 0.129994 -0.168251
-0.128812 0.103166 -0.423749
-0.149746 0.103445 -0.432164
-0.139543 0.163758 0.106349
-0.138077 0.156807 0.0423734
-0.133729 0.136167 -0.147604
-0.131493 0.125586 -0.244991
-0.129361 0.11549 -0.337914
-0.143703 0.173692 0.151115
-0.139777 0.164599 0.0708646
-0.135957 0.14648 -0.0911531
-0.133592 0.135307 -0.191055
-0.133021 0.132609 -0.215173
-0.138205 0.156869 -0.0371928
-0.135899 0.145987 -0.131793
-0.131386 0.124694 -0.316893
-0.140634 0.168157 0.0214279
-0.149643 0.166548 0.00286353
-0.130117 0.118524 -0.398385
-0.13607 0.115335 -0.428875
-0.136752 0.1496 -0.16886
-0.135793 0.145087 -0.206027
-0.133765 0.135546 -0.284601
-0.140424 0.166665 -0.0635737
-0.138005 0.1553 -0.154766
-0.136048 0.146103 -0.228559
-0.133773 0.135411 -0.314349
-0.158527 0.122543 -0.432176
-0.140224 0.165529 -0.105967
-0.135993 0.145671 -0.261316
-0.13378 0.135284 -0.342573
-0.1334 0.133499 -0.356535
-0.14351 0.173104 -0.0806928
-0.133418 0.133423 -0.382659
-0.140401 0.165817 -0.194522
-0.133923 0.135498 -0.415107
-0.143442 0.172873 -0.172709
-0.140396 0.165631 -0.2234
-0.138247 0.155587 -0.294804
-0.140565 0.166259 -0.245343
-0.13833 0.155684 -0.342505
-0.137888 0.153626 -0.3565
-0.136633 0.147764 -0.396349
-0.149961 0.143631 -0.431977
-0.167936 0.145047 -0.431722
-0.140219 0.164357 -0.307477
-0.137794 0.153052 -0.382684
-0.143891 0.173258 -0.27337
-0.144274 0.173585 -0.359045
-0.140662 0.165788 -0.404867
-0.142008 0.162853 -0.423548
-0.143996 0.173215 -0.380983
