ply
format ascii 1.0
comment Created by Open3D
element vertex 531
property double x
property double y
property double z
end_header
-0.227348 -0.339759 -0.151627
-0.228131 -0.337594 -0.130026
-0.21056 -0.343926 -0.11937
-0.201752 -0.327497 0.115839
-0.215183 -0.320918 0.128088
-0.211153 -0.320785 0.149126
-0.222357 -0.323851 -0.141726
-0.215859 -0.324896 -0.123235
-0.199445 -0.30648 0.115581
-0.190023 -0.326033 -0.121704
-0.186428 -0.301494 0.136377
-0.20445 -0.307448 -0.140519
-0.197205 -0.308212 -0.115651
-0.187421 -0.293834 0.122602
-0.183145 -0.294089 0.102496
-0.17477 -0.292456 0.126968
0.0386491 -0.361614 0.22189
-0.18574 -0.296789 -0.104658
0.0433149 -0.351521 0.239019
-0.180177 -0.294478 -0.128926
0.0501506 -0.349494 0.201365
0.0351144 -0.339703 0.218428
0.0341132 -0.336824 0.204799
-0.174006 -0.285337 -0.0965753
-0.157622 -0.278581 0.0817199
0.0370808 -0.332224 0.235418
0.0403467 -0.361101 -0.22859
-0.156346 -0.274513 0.104958
0.0346709 -0.354214 -0.210067
0.0462073 -0.357705 -0.206649
-0.143784 -0.272613 0.106421
0.0399123 -0.324485 0.208242
0.060403 -0.328721 0.24308
-0.156261 -0.277952 -0.0807704
-0.16037 -0.27498 -0.101644
-0.139938 -0.267472 0.0670681
0.0314096 -0.334446 -0.212748
0.0577327 -0.341353 -0.194912
0.0435975 -0.310494 0.225402
0.0430714 -0.336012 -0.242
-0.140417 -0.268832 -0.102513
-0.135655 -0.267945 -0.0651454
-0.032882 -0.295126 -0.00885743
-0.0330446 -0.294001 0.00857216
0.0333951 -0.302551 0.191117
0.0362732 -0.302353 0.208221
0.0576414 -0.307861 0.222251
0.201347 -0.360542 -0.00510374
-0.124882 -0.258428 0.0921365
0.0426514 -0.323865 -0.233643
-0.123022 -0.265081 -0.0593456
-0.13245 -0.254234 0.0749834
-0.122055 -0.2556 0.0518018
0.028365 -0.292036 0.167169
0.0489515 -0.316468 -0.207745
-0.132137 -0.254078 -0.0760126
-0.126041 -0.254579 -0.0551726
0.0200552 -0.283486 0.153751
0.0330342 -0.303783 -0.197393
-0.0293957 -0.275869 -0.0131441
-0.0276754 -0.274762 0.0144321
0.0302738 -0.298514 -0.184381
-0.107898 -0.249317 -0.0408491
-0.111087 -0.242145 0.0717635
0.0297176 -0.274918 0.167121
-0.0489564 -0.260686 -0.0190353
-0.0576993 -0.257292 8.7291e-05
-0.0496947 -0.258397 0.0187874
-0.108291 -0.24157 0.0398993
0.0142965 -0.269922 0.119618
0.0222927 -0.284548 -0.173466
0.0250596 -0.28384 -0.147123
-0.110609 -0.244192 -0.0764264
-0.0909098 -0.246976 -0.0322342
0.0141309 -0.277287 -0.147167
-0.0666664 -0.247309 0.0188088
0.0129107 -0.261475 0.140412
0.0106815 -0.272052 -0.134455
-0.069534 -0.245228 -0.0175099
-0.0893933 -0.237952 0.0233872
-0.0923477 -0.234771 0.068939
0.00305492 -0.257817 0.0964501
0.00580496 -0.262073 -0.106296
-0.100907 -0.23297 -0.0594294
-0.100775 -0.231973 -0.0395292
-0.0862439 -0.234602 -0.0201135
-0.00176257 -0.250738 0.0762178
0.00744426 -0.250587 0.12363
0.0291021 -0.255547 0.132412
-0.0715924 -0.234304 -0.0069131
-0.0936524 -0.226452 0.040382
-0.0157328 -0.244796 0.0573913
-0.0423414 -0.237956 -0.00328866
-0.00403821 -0.241866 0.104079
0.0134401 -0.254311 -0.131562
-0.00806272 -0.247505 -0.0982357
-0.0822515 -0.227908 -0.0615912
-0.0723475 -0.226732 0.00998023
-0.0674843 -0.225484 0.0586461
-0.0143108 -0.241655 -0.0816102
-0.0746329 -0.21822 0.0401798
-0.0116425 -0.230754 0.0843624
-0.0743356 -0.218218 -0.0264602
-0.0332991 -0.227286 -0.0192584
-0.0242507 -0.226478 0.0414979
-0.0240769 -0.227888 -0.0606777
-0.0626705 -0.218512 -0.0465863
-0.00984299 -0.229592 -0.0283569
-0.0426041 -0.220857 0.000217572
-0.0334747 -0.222039 0.019031
0.014632 -0.232834 0.0205425
-0.0177528 -0.220366 0.0576958
0.0295475 -0.228783 0.0251259
0.00982302 -0.223523 -0.0330438
-0.00041467 -0.217074 0.0620896
0.000305474 -0.219599 -0.0710932
0.0511483 -0.226325 0.0213251
-0.0330693 -0.20683 -0.0193123
-0.0424524 -0.200658 0.000184774
-0.0333505 -0.201726 0.0190068
-0.0328395 -0.186363 -0.0193663
-0.0390187 -0.181085 -0.000557348
-0.0138863 -0.184851 0.0222594
-0.0289751 -0.175412 0.0181574
-0.0353268 -0.161762 -0.0117965
-0.0366477 -0.160831 0.00931123
-0.0134595 -0.150475 0.018665
-0.0218775 -0.146798 -0.0148522
-0.0780061 -0.135132 -0.00876965
-0.0801086 -0.134325 0.00832364
-0.0825987 -0.133369 0.028568
-0.0869798 -0.131719 -0.046696
-0.0877973 -0.131018 -0.0263818
-0.0898871 -0.128537 0.0493592
-0.0740689 -0.13073 0.0499034
-0.0236175 -0.13442 0.0482814
0.015424 -0.139814 0.0455542
-0.0954013 -0.122404 0.0148782
-0.0986102 -0.119401 -0.00720163
-0.0996625 -0.118391 0.0254559
-0.0456178 -0.124584 0.0551932
0.0406826 -0.135912 0.0488882
-0.104164 -0.114146 0.0454831
-0.108782 -0.109867 -0.0570792
-0.109364 -0.109307 -0.0371608
-0.0823983 -0.110178 0.0577749
0.0065428 -0.120851 0.0540339
0.0398694 -0.124849 0.0526612
0.0351743 -0.122685 0.117875
0.0192128 -0.120412 0.1331
-0.114065 -0.104868 -0.00673175
-0.114611 -0.104343 0.0125976
-0.114972 -0.103996 0.0253766
-0.0281249 -0.1133 0.0558475
0.0713241 -0.124885 0.0517907
0.0446463 -0.121016 0.0847306
0.0395792 -0.120159 0.0960908
0.0152721 -0.11932 -0.139863
0.0262005 -0.120093 -0.120393
-0.119256 -0.0999547 0.0450731
-0.124726 -0.094856 -0.0297089
-0.125216 -0.094384 -0.0103903
0.0428594 -0.108743 0.142069
-0.116162 -0.0932161 -0.0581585
-0.126623 -0.0903431 0.0277665
-0.0113611 -0.101458 0.0567324
0.0207591 -0.104752 0.0554731
0.0445541 -0.107476 -0.138094
-0.129815 -0.0872712 0.012808
-0.0692678 -0.0924167 0.0523762
-0.0502806 -0.0941426 0.0592664
0.051041 -0.104193 0.0547026
0.0874121 -0.107796 0.053291
-0.123778 -0.0838889 0.0582905
-0.0440573 -0.0911201 0.0750301
-0.0713065 -0.0854303 0.0690196
-0.138053 -0.078415 -0.0451491
-0.0630065 -0.0823717 -0.0847091
-0.143019 -0.0745634 -0.0247337
-0.0675599 -0.0789681 0.0879624
-0.145116 -0.0700492 0.0528376
-0.0946984 -0.0739653 0.0629434
-0.0548695 -0.0765806 0.0994497
-0.0849595 -0.0738885 -0.0812432
-0.150279 -0.0674341 0.00511234
-0.15073 -0.0669559 0.0327113
-0.0876864 -0.0710213 0.0841569
-0.0578789 -0.0729614 -0.103994
-0.15253 -0.0649758 -0.0408833
-0.0285074 -0.0718062 0.113221
-0.156624 -0.0612385 -0.0117735
-0.0732298 -0.0653831 0.107882
-0.0450852 -0.0672239 0.118049
-0.0828236 -0.0644776 -0.102604
-0.101574 -0.0629867 -0.0860697
-0.115036 -0.05992 0.0692591
-0.099063 -0.0606353 0.0950446
-0.153474 -0.0561784 -0.0658187
-0.162791 -0.0540539 0.0500828
-0.145158 -0.0549039 0.0709113
-0.0817216 -0.0581094 -0.116888
-0.16652 -0.0514204 0.00898278
-0.119828 -0.0523042 -0.0899995
-0.168343 -0.0490195 -0.0454743
-0.169943 -0.0480664 0.0277402
-0.124137 -0.0499513 0.0889995
-0.100417 -0.0509724 0.116899
-0.0808565 -0.0519229 0.130694
-0.0513879 -0.0534755 0.141228
-0.0958795 -0.05077 -0.122167
-0.172399 -0.045615 -0.0258658
-0.0822426 -0.0483372 -0.137711
-0.116568 -0.0463465 -0.111193
-0.122397 -0.0437663 0.110005
-0.0766892 -0.0456789 0.146024
-0.178074 -0.0387339 0.0500231
-0.135686 -0.0402303 0.0995196
-0.0606979 -0.0431607 0.157694
-0.0414908 -0.0440328 0.159979
-0.0952888 -0.0411565 -0.143181
-0.138974 -0.0388571 -0.0964988
-0.170271 -0.0372968 -0.0728171
-0.181436 -0.0362133 -0.00530487
-0.174055 -0.0358626 0.069678
-0.119208 -0.0377086 0.127763
-0.0963793 -0.0385187 0.147257
-0.184644 -0.0329399 0.0250629
-0.0864974 -0.0350212 -0.160729
-0.117656 -0.0337214 -0.137823
-0.135291 -0.0329312 -0.117575
-0.186197 -0.0305523 -0.0460632
-0.0389932 -0.0342184 0.175956
-0.189706 -0.0271169 0.0145086
-0.154368 -0.0278221 0.0812411
-0.0864159 -0.029459 0.168143
-0.0653922 -0.0300897 0.176702
-0.183573 -0.0240807 0.0741154
-0.152033 -0.0248567 0.0985842
-0.139319 -0.0250774 0.123636
-0.188732 -0.0218833 -0.069584
-0.194927 -0.0215186 -0.0313689
-0.194062 -0.021089 0.0530689
-0.126256 -0.0223602 0.14322
-0.0941553 -0.021559 -0.171683
-0.107151 -0.0212261 -0.16271
-0.154342 -0.0168346 -0.103885
-0.199221 -0.0156244 -0.0123838
-0.199525 -0.0154585 0.028389
-0.110031 -0.0166272 0.163091
-0.128544 -0.0111235 -0.143608
-0.203142 -0.00998113 -0.0466888
-0.0914434 -0.010777 0.174409
-0.0558513 -0.0111701 0.188993
-0.0369372 -0.0113911 0.191909
-0.133396 -0.00787024 -0.124938
-0.188214 -0.00733213 -0.0882038
-0.20094 -0.00694287 0.0684979
-0.187345 -0.00702362 0.0889254
0.0449626 -0.00885039 0.187516
-0.096528 -0.00494304 -0.15315
-0.136487 -0.00446579 0.0996176
-0.125964 -0.00449906 0.11939
-0.11028 -0.00455909 0.139093
-0.0574012 -0.00479595 0.17333
-0.00969422 -0.00503725 0.178432
0.0845104 -0.00552315 0.17971
-0.0706564 -0.00169218 -0.152821
-0.0983925 -0.00163678 -0.131581
-0.207455 -0.0014106 -0.0246995
-0.207442 -0.00139004 0.0330037
-0.121901 -0.00151547 0.0947953
-0.110958 -0.00152718 0.114878
-0.0897214 -0.00155569 0.137591
-0.0695112 -0.00158544 0.151859
-0.0306058 -0.00164864 0.162741
0.0115773 -0.00172079 0.164367
-0.204905 0.00429346 -0.0700119
-0.208717 0.00419378 0.00469004
-0.20804 0.00414566 0.0529213
-0.192558 0.0102548 -0.105112
-0.214644 0.00986244 -0.0547517
-0.213155 0.00958116 0.0650564
-0.200867 0.00965807 0.0936461
-0.186358 0.0125859 0.111322
-0.215908 0.0152448 0.00368226
-0.215895 0.0152004 0.0150764
-0.214793 0.0150676 0.0542324
-0.203338 0.018741 -0.0917463
-0.212944 0.0184117 -0.0671802
-0.216227 0.0181426 -0.0250118
-0.136705 0.0222436 0.114517
-0.182719 0.0252926 -0.121549
-0.215953 0.0295146 -0.0513693
-0.213436 0.028733 0.0651069
-0.202501 0.0289133 0.0938749
-0.13821 0.0309748 0.129415
-0.182842 0.0321917 0.124935
-0.136494 0.0426005 -0.150412
-0.197144 0.0393531 -0.1064
-0.21215 0.0383081 -0.0704381
-0.217887 0.0376545 -0.0303103
-0.217983 0.0398179 0.0297039
-0.218597 0.0429693 -0.00990774
-0.218562 0.0427502 0.0100613
-0.137087 0.045527 0.152718
-0.217063 0.0451339 0.0491064
-0.211187 0.0451865 0.0730383
-0.178147 0.052571 -0.139342
-0.202946 0.0481613 0.0939372
-0.18878 0.0486564 0.122739
-0.136942 0.0585695 -0.167052
-0.204238 0.0532779 -0.0914048
-0.158203 0.053163 0.13974
-0.190254 0.0575183 -0.121609
-0.176852 0.0547628 0.141167
-0.212408 0.0581519 -0.070346
-0.217238 0.0575267 -0.0509416
-0.219513 0.0590078 0.0244296
-0.136916 0.0628966 0.170088
-0.219495 0.0626247 -0.029818
-0.220257 0.0650527 -0.0123083
-0.13721 0.0777773 -0.180486
-0.175825 0.0739816 -0.149979
-0.200774 0.0675176 0.099181
-0.192302 0.067912 0.117558
-0.202752 0.0736333 -0.0950151
-0.216861 0.0696695 0.054634
-0.209326 0.0699019 0.0782748
-0.162021 0.07268 0.154193
-0.187232 0.0785846 -0.129147
-0.181672 0.0740263 0.13876
-0.207322 0.0787627 -0.0841902
-0.145395 0.0795827 0.173268
-0.157691 0.0882731 -0.171162
-0.216765 0.0801454 -0.0569799
-0.218852 0.0796877 -0.0445573
-0.220898 0.0781913 0.0191263
-0.196478 0.0890519 -0.109753
-0.136711 0.100212 -0.187523
-0.175072 0.095281 -0.153537
-0.173704 0.0884966 0.154885
-0.217643 0.0888324 0.0492234
-0.209149 0.0891112 0.0782461
-0.200722 0.0895702 0.0991741
-0.192559 0.0900581 0.117586
-0.189332 0.0990041 -0.125126
-0.221369 0.0928045 -0.0205998
-0.204178 0.0993636 -0.0914273
-0.211973 0.0979211 -0.0705011
-0.221652 0.0950463 -0.000501066
-0.152334 0.0988695 0.179159
-0.165072 0.109049 -0.17109
-0.217578 0.0995749 -0.0508284
-0.22155 0.100054 0.019284
-0.166263 0.103127 0.168433
-0.177032 0.107868 0.149533
-0.181593 0.118239 -0.141057
-0.196158 0.115377 -0.10988
-0.219686 0.10799 0.0384912
-0.210722 0.108239 0.07296
-0.202787 0.108729 0.0939149
-0.192574 0.109453 0.117588
-0.134756 0.115283 0.190149
-0.161393 0.128154 -0.176088
-0.203739 0.119592 -0.0915941
-0.211533 0.117857 -0.0706576
-0.221188 0.115165 -0.0264133
-0.157371 0.118205 0.179302
-0.221571 0.119677 0.0051586
-0.216898 0.124931 -0.0510549
-0.221516 0.12298 -0.0119514
-0.176689 0.127535 0.14951
-0.176812 0.140135 -0.146329
-0.183442 0.138659 -0.133906
-0.210177 0.127511 0.0728681
-0.195512 0.128644 0.109605
-0.195729 0.138715 -0.106959
-0.219875 0.130018 0.0329374
-0.137301 0.13831 0.18733
-0.157575 0.15047 -0.177857
-0.145543 0.151747 -0.156598
-0.144592 0.15123 -0.137074
-0.204614 0.139397 -0.0851971
-0.208619 0.138363 -0.0746918
-0.215697 0.132711 0.0544079
-0.201859 0.133663 0.093785
-0.157427 0.138134 0.179303
-0.150376 0.152585 -0.115101
-0.153056 0.151748 -0.104363
-0.158574 0.15286 -0.0768013
-0.220133 0.139405 -0.000908539
-0.159556 0.15489 -0.0544204
-0.218489 0.143 -0.0156844
-0.156695 0.150291 0.0845253
-0.152163 0.150363 0.104461
-0.146674 0.150608 0.124327
-0.143384 0.150454 0.144412
-0.160157 0.156733 -0.0262421
-0.159919 0.155972 -0.00478844
-0.159522 0.15491 0.0254878
-0.159126 0.153862 0.0553535
-0.160665 0.165232 -0.173114
-0.149756 0.169657 -0.154782
-0.156272 0.169734 -0.109611
-0.159893 0.157817 0.173777
-0.15099 0.174824 -0.134469
-0.162566 0.16501 0.0530081
-0.162105 0.173949 -0.0914384
-0.164596 0.172641 -0.071606
-0.165405 0.174556 -0.0494772
-0.162217 0.169572 0.0853181
-0.157142 0.169772 0.105052
-0.149576 0.170119 0.1333
-0.165511 0.175047 0.00874232
-0.165272 0.174205 0.0297227
-0.164688 0.172694 0.0681314
-0.150511 0.174867 0.153512
-0.142325 0.17548 0.178876
-0.163567 0.188832 -0.161914
-0.158418 0.187876 -0.115243
-0.16556 0.185123 -0.0870306
-0.154101 0.192954 -0.139751
-0.168302 0.185277 -0.0362361
-0.168048 0.184379 -0.0148783
-0.158249 0.178079 0.17372
-0.168215 0.185108 0.0333249
-0.170539 0.195079 -0.0664881
-0.168363 0.188977 0.0745757
-0.164162 0.189003 0.094317
-0.158593 0.189345 0.113916
-0.155449 0.18953 0.125152
-0.170882 0.195062 -0.0050323
-0.160388 0.207746 -0.156757
-0.170781 0.195151 0.0545132
-0.154319 0.194616 0.145173
-0.146822 0.195005 0.173318
-0.160586 0.209022 -0.120852
-0.173449 0.205023 -0.0408428
-0.172818 0.202628 0.0104838
-0.167094 0.215627 -0.102322
-0.174698 0.215137 -0.0713089
-0.173233 0.208216 0.0695422
-0.16913 0.208224 0.0892034
-0.163503 0.208623 0.108691
-0.158281 0.208914 0.128292
-0.169582 0.204437 0.160225
-0.162664 0.225069 -0.145955
-0.176049 0.215165 -0.0218001
-0.175385 0.212673 0.0289163
-0.162996 0.230051 -0.126348
-0.178312 0.225145 -0.0546686
-0.178494 0.224855 0.00290209
-0.171888 0.235161 -0.0973628
-0.178268 0.225013 0.0529746
-0.162851 0.223829 0.148596
-0.17633 0.240095 -0.15298
-0.170791 0.227533 0.0951977
-0.162819 0.228142 0.122983
-0.177276 0.229865 0.0730985
-0.181097 0.235001 0.0154167
-0.167818 0.250273 -0.130834
-0.178923 0.244071 -0.0791641
-0.164801 0.235005 0.143075
-0.182523 0.245 -0.0624984
-0.183202 0.242978 -0.0318457
-0.17617 0.234033 0.152255
-0.183587 0.244501 -0.0107104
-0.164801 0.242691 0.157168
-0.179816 0.262906 -0.148226
-0.183677 0.248754 0.0597624
-0.179649 0.248754 0.0792297
-0.173736 0.249338 0.0984531
-0.168182 0.249805 0.117807
-0.174904 0.264724 -0.105695
-0.181562 0.264303 -0.0844333
-0.186248 0.254909 0.0399965
-0.180657 0.252591 0.147005
-0.176787 0.274712 -0.130333
-0.188924 0.264734 -0.0361655
-0.188623 0.263467 -0.0153059
-0.189031 0.265036 0.00258328
-0.188687 0.263794 0.0230478
-0.162245 0.263571 0.154207
-0.19012 0.274629 -0.0599693
-0.181723 0.267572 0.0852662
-0.173446 0.26842 0.11268
-0.17896 0.28508 -0.116747
-0.181396 0.282929 -0.0969493
-0.191735 0.275119 -0.0323213
-0.189503 0.269899 0.055074
-0.191165 0.27334 0.0381165
-0.18873 0.28491 -0.0757095
-0.177174 0.274288 0.132805
-0.165918 0.28264 0.148798
-0.197813 0.294044 -0.124713
-0.194199 0.284609 0.0243002
-0.193689 0.294076 -0.0648402
-0.194807 0.288571 0.044623
-0.192373 0.288001 0.064175
-0.189526 0.28821 0.075077
-0.180659 0.289155 0.105015
-0.183876 0.308461 -0.133722
-0.188014 0.304084 -0.094463
-0.19641 0.294647 -0.00727122
-0.196466 0.295081 0.0248152
-0.198252 0.304719 -0.0363198
-0.196892 0.292859 0.126305
-0.207644 0.310093 -0.114459
-0.197047 0.313481 -0.0697477
-0.180858 0.303614 0.135912
-0.200638 0.314032 -0.0208091
-0.20019 0.312595 -0.000415593
-0.199193 0.309578 0.0426516
-0.196648 0.308792 0.0649271
-0.191973 0.309072 0.083955
-0.190362 0.308153 0.103404
-0.198207 0.328489 -0.11834
-0.202999 0.324505 -0.091875
-0.202063 0.30775 0.121349
-0.203667 0.323937 -0.0524753
-0.204055 0.323688 0.0179282
-0.221618 0.328967 -0.0967248
-0.20855 0.332137 -0.07172
-0.212794 0.315865 0.103503
-0.209955 0.333721 -0.0298087
-0.206809 0.329226 0.0385475
-0.205457 0.328129 0.0580551
-0.203748 0.326958 0.0801631
-0.192054 0.328108 0.12307
-0.228977 0.333402 -0.0849579
-0.210788 0.334683 -0.0120903
