ply
format ascii 1.0
comment Created by Open3D
element vertex 628
property double x
property double y
property double z
end_header
-0.306347 -0.134067 0.35808
-0.29281 -0.127167 0.360075
-0.308551 -0.116528 0.343561
-0.309678 -0.107337 0.357135
-0.294977 -0.107422 0.362536
-0.310946 -0.0973193 0.342376
-0.288279 -0.0910944 0.364584
-0.31234 -0.085899 0.363419
-0.0696238 -0.134058 0.086795
-0.307043 -0.133931 -0.346145
-0.313368 -0.0780503 0.317706
-0.313339 -0.0764677 0.339281
-0.313405 -0.0780316 0.291028
-0.271874 -0.0775899 0.366222
-0.313444 -0.0780119 0.262978
-0.313485 -0.0779913 0.233447
-0.28719 -0.0719298 0.3662
-0.247459 -0.0764216 0.366256
-0.309722 -0.114794 -0.347144
-0.291638 -0.116575 -0.343957
-0.313532 -0.0781324 0.19985
-0.313308 -0.0674239 0.361842
-0.23014 -0.0762896 0.36628
-0.313577 -0.0781139 0.166844
-0.21191 -0.0761506 0.366305
0.293029 -0.131414 0.348054
-0.0702625 -0.133824 -0.353412
-0.313626 -0.0780943 0.131941
-0.313603 -0.0770724 0.148296
-0.182693 -0.0770445 0.366345
-0.313677 -0.0780736 0.0949731
-0.161845 -0.0769169 0.366374
-0.313731 -0.0780516 0.055752
-0.313363 -0.062398 0.321695
-0.139789 -0.0767821 0.366404
-0.313789 -0.0780282 0.014065
-0.313762 -0.0769122 0.0336262
-0.313411 -0.0624686 0.286805
-0.271873 -0.0618756 0.366222
-0.116417 -0.0766391 0.366437
-0.104201 -0.0777993 0.366453
-0.289769 -0.0974515 -0.341569
-0.313851 -0.0780033 -0.0303282
-0.313822 -0.076852 -0.0094862
-0.31345 -0.0620472 0.258534
-0.313337 -0.0574808 0.3412
-0.0786235 -0.0776814 0.366489
0.290678 -0.112482 0.3518
-0.0726612 -0.114668 -0.361858
-0.313916 -0.0779767 -0.0776998
-0.31389 -0.0769835 -0.0591086
-0.313498 -0.0618555 0.224044
-0.0513976 -0.0775559 0.366526
0.30924 -0.109842 0.363073
-0.312804 -0.0902157 -0.363514
-0.313986 -0.0779483 -0.12836
-0.313964 -0.0771246 -0.112402
-0.31357 -0.0624429 0.172041
-0.313545 -0.0615218 0.189887
-0.0223582 -0.0774221 0.366566
-0.314068 -0.078134 -0.187003
-0.31405 -0.0774892 -0.174056
-0.31363 -0.062387 0.129173
-0.313596 -0.0611677 0.153653
-0.313472 -0.0567329 0.242698
-0.24746 -0.0560425 0.366256
-0.23014 -0.0574785 0.366279
-0.172411 -0.0622648 0.366359
0.00868171 -0.077279 0.366609
-0.290816 -0.0845097 -0.339956
-0.314149 -0.0781092 -0.245688
-0.314123 -0.0772204 -0.227169
-0.314104 -0.076567 -0.213553
-0.313677 -0.0617597 0.094973
-0.287195 -0.0508299 0.366201
-0.21191 -0.0568449 0.366305
-0.150971 -0.0617136 0.366388
0.0250179 -0.0757741 0.366632
-0.314236 -0.0780826 -0.308934
-0.314209 -0.0771599 -0.288956
-0.314182 -0.0762589 -0.269445
-0.313736 -0.0613844 0.0526357
-0.313718 -0.0608127 0.0650137
-0.313305 -0.0470196 0.363678
-0.128271 -0.0611299 0.366419
0.0594702 -0.0755633 0.366679
0.0776522 -0.0769612 0.366704
-0.314272 -0.0761588 -0.334588
-0.313794 -0.0608357 0.0107494
-0.104197 -0.0605109 0.366453
-0.0786179 -0.0624003 0.366488
0.0965199 -0.0753367 0.36673
0.116112 -0.0767839 0.366757
0.287923 -0.0904378 0.345339
0.289067 -0.0896228 0.365565
-0.314009 -0.064967 -0.144663
-0.313921 -0.0622778 -0.0814759
-0.31385 -0.0601009 -0.0303283
-0.313762 -0.057379 0.0336261
-0.0513915 -0.0617823 0.366525
-0.00709945 -0.0649204 0.366587
0.136472 -0.0750924 0.366785
0.157645 -0.0765925 0.366815
-0.314311 -0.0712396 -0.366428
-0.314098 -0.0648269 -0.209066
-0.313981 -0.0613743 -0.124339
-0.313822 -0.0566941 -0.00948632
0.179682 -0.0748281 0.366845
0.202635 -0.0763851 0.366877
0.226564 -0.0780083 0.36691
0.310595 -0.0837371 0.366328
-0.314292 -0.0674475 -0.35036
-0.314202 -0.0648648 -0.284035
-0.314074 -0.0612565 -0.191367
-0.31389 -0.0561066 -0.0591087
-0.313369 -0.041434 0.317706
-0.27187 -0.0422328 0.366221
0.0776539 -0.0648889 0.366704
0.251533 -0.0761598 0.366944
-0.314162 -0.0607739 -0.255108
-0.314038 -0.0574486 -0.165543
-0.313953 -0.055184 -0.104548
-0.313463 -0.0420377 0.24954
-0.31343 -0.041132 0.273936
-0.31425 -0.0600694 -0.319103
-0.314136 -0.0571477 -0.236375
-0.313545 -0.0420939 0.189887
-0.313505 -0.0410556 0.219285
-0.313339 -0.0368178 0.339282
0.00868589 -0.0547981 0.366609
0.0250228 -0.0557586 0.366631
0.27761 -0.0706083 0.36698
-0.314222 -0.0563115 -0.298886
-0.313637 -0.0421561 0.123599
-0.31361 -0.0415098 0.142892
-0.313581 -0.0407949 0.164228
-0.313403 -0.0364761 0.293128
-0.172406 -0.0418875 0.366358
0.0594756 -0.0548208 0.366678
0.0965227 -0.0568871 0.36673
-0.314286 -0.0547314 -0.34507
-0.313735 -0.0421265 0.0526356
-0.313718 -0.0417342 0.0650136
-0.313677 -0.0407847 0.0949729
-0.247472 -0.0356626 0.366259
-0.23015 -0.0365766 0.366282
-0.150969 -0.0407543 0.366388
-0.128265 -0.0419523 0.366418
0.116115 -0.0548458 0.366757
0.136475 -0.05592 0.366785
0.157648 -0.0570371 0.366814
0.226567 -0.0606733 0.36691
0.304874 -0.0648048 0.367017
-0.314312 -0.0522423 -0.366427
-0.31386 -0.0424103 -0.0374151
-0.313793 -0.040971 0.0107493
-0.287218 -0.0316475 0.366207
-0.211924 -0.0353932 0.366308
-0.104194 -0.0407524 0.366452
-0.0786105 -0.0420251 0.366486
-0.0223598 -0.0448232 0.366567
0.179685 -0.0548741 0.366845
0.202639 -0.0560159 0.366876
-0.31411 -0.0449112 -0.218066
-0.313986 -0.0423929 -0.12836
-0.313927 -0.0411834 -0.0852714
-0.313911 -0.0408654 -0.0739435
-0.051388 -0.0407502 0.366525
0.251537 -0.0549061 0.366944
-0.31408 -0.0414277 -0.195755
-0.313831 -0.0367169 -0.0163651
-0.313766 -0.0354886 0.0304048
-0.313305 -0.0267366 0.363678
0.0965205 -0.0445871 0.36673
-0.314257 -0.0417119 -0.324234
-0.314168 -0.040138 -0.25986
-0.314014 -0.0374225 -0.148794
-0.313964 -0.0365327 -0.112402
0.277614 -0.0488828 0.36698
-0.314142 -0.0367383 -0.241018
-0.314049 -0.0352224 -0.174057
0.0250104 -0.0357422 0.366633
-0.314229 -0.0351088 -0.303895
-0.314202 -0.0346952 -0.284035
-0.313375 -0.0222461 0.313687
0.0776421 -0.0347076 0.366706
0.136474 -0.0367474 0.366785
0.157647 -0.0374815 0.366815
0.226567 -0.039871 0.36691
-0.313512 -0.0221981 0.214487
-0.313463 -0.0215315 0.24954
-0.313436 -0.0211504 0.269579
-0.271929 -0.0206232 0.366235
0.179663 -0.0349191 0.366848
0.202616 -0.0356457 0.366879
-0.314312 -0.0300789 -0.366426
-0.313677 -0.0221403 0.0949728
-0.313637 -0.0216478 0.123599
-0.313611 -0.0213158 0.142892
-0.313581 -0.0209487 0.164228
-0.313553 -0.020594 0.184842
-0.172472 -0.0215077 0.366371
-0.151032 -0.0221218 0.3664
0.00863665 -0.026695 0.366617
0.304818 -0.0351781 0.367024
-0.314286 -0.0265838 -0.345069
-0.314136 -0.0249105 -0.236376
-0.313916 -0.0224679 -0.0777001
-0.31386 -0.0218477 -0.0374151
-0.313803 -0.0212091 0.00406969
-0.313735 -0.0204615 0.0526355
-0.313718 -0.0202709 0.0650135
-0.313409 -0.016824 0.288921
-0.313347 -0.016138 0.333485
-0.128339 -0.0203747 0.366433
-0.104264 -0.0209916 0.366465
-0.0786858 -0.0216471 0.3665
-0.0514584 -0.0223449 0.366537
0.0418828 -0.0247369 0.366664
0.0594179 -0.0251863 0.366687
0.116063 -0.0266379 0.366765
0.277536 -0.0307759 0.366989
-0.314175 -0.0223638 -0.264639
-0.314092 -0.0215483 -0.204604
-0.313992 -0.0205676 -0.132403
-0.313486 -0.0155982 0.233447
-0.238981 -0.0154758 0.366284
-0.221216 -0.0158775 0.366308
-0.192768 -0.0165208 0.366347
0.157569 -0.0244425 0.366825
0.25144 -0.0265651 0.366956
-0.314257 -0.0200835 -0.324234
-0.313953 -0.0174974 -0.104549
-0.31389 -0.0169625 -0.0591089
-0.313831 -0.0164593 -0.0163652
-0.313775 -0.0159851 0.0239157
-0.28727 -0.012466 0.36622
0.304733 -0.0240674 0.367034
-0.314229 -0.0167912 -0.303895
-0.314049 -0.0154978 -0.174057
-0.0224496 -0.0149394 0.366582
0.096423 -0.0169106 0.366745
0.226428 -0.0190663 0.366928
0.136345 -0.0143775 0.366804
-0.314313 -0.0110817 -0.366425
-0.313326 -0.00654797 0.348802
0.00855559 -0.00702433 0.36663
0.0593361 -0.00740707 0.3667
-0.314286 -0.00469127 -0.345069
-0.314272 -0.0046628 -0.334588
-0.314229 -0.00457941 -0.303895
-0.314202 -0.00452546 -0.284036
0.0774948 -0.00452636 0.366728
0.0963544 -0.00461164 0.366755
0.115938 -0.00470021 0.366783
0.157462 -0.00488799 0.36684
-0.314175 -0.00149093 -0.264639
-0.314092 -0.00143657 -0.204604
-0.313997 -0.00137487 -0.136468
-0.313942 -0.00133892 -0.0967773
-0.31387 -0.00129165 -0.0445737
-0.313807 -0.00125065 0.000705361
-0.313736 -0.00120362 0.0526357
-0.313719 -0.00119241 0.0650138
-0.313677 -0.00116528 0.0949732
-0.313638 -0.00113936 0.1236
-0.313611 -0.00112189 0.142892
-0.313581 -0.00110257 0.164228
-0.313553 -0.0010839 0.184842
-0.313519 -0.00106144 0.209648
-0.313473 -0.00103151 0.242698
-0.313445 -0.00101315 0.262978
-0.313383 -0.000972739 0.307602
-0.271983 -0.000981969 0.366249
-0.172538 -0.00113188 0.366385
-0.151102 -0.00116419 0.366414
-0.128405 -0.00119841 0.366446
-0.104335 -0.00123469 0.366479
-0.0787611 -0.00127324 0.366514
-0.0515389 -0.00131428 0.366551
-0.314136 0.00439597 -0.236376
-0.314049 0.00422667 -0.174057
-0.31398 0.00409161 -0.124339
-0.313911 0.0039547 -0.0739437
-0.313831 0.00379829 -0.0163653
-0.313779 0.00369774 0.0206477
-0.313417 0.00298625 0.282549
-0.313355 0.0028638 0.327623
-0.239035 0.00309487 0.366297
-0.221273 0.0031752 0.366321
-0.19283 0.00330383 0.36636
0.041748 0.00436466 0.366685
-0.314313 0.00791548 -0.366424
-0.287326 0.00862945 0.366234
0.00846666 0.0126425 0.366644
0.0592276 0.0133311 0.366717
0.1362 0.0143754 0.366824
-0.314008 0.0152051 -0.144663
-0.31398 0.0150026 -0.124339
-0.0225691 0.0149373 0.366602
-0.314257 0.0200835 -0.324234
-0.314175 0.019382 -0.264639
-0.314092 0.0186752 -0.204605
-0.314286 0.0234563 -0.345069
-0.314229 0.0228971 -0.303895
-0.314201 0.0226273 -0.284036
-0.313942 0.0200837 -0.0967775
-0.31387 0.0193747 -0.0445738
-0.313817 0.0188517 -0.00607234
-0.313749 0.0181824 0.0431985
-0.313685 0.0175591 0.0890909
-0.313321 0.0139803 0.352561
-0.128472 0.0179743 0.366458
-0.104405 0.0185185 0.366492
-0.0788363 0.0190967 0.366527
-0.0516194 0.0197121 0.366565
0.0773618 0.0226285 0.366748
0.0962204 0.0230549 0.366775
0.115804 0.0234977 0.366802
0.157317 0.0244364 0.36686
-0.314135 0.0249106 -0.236376
-0.314049 0.0239512 -0.174057
-0.313637 0.019369 0.1236
-0.313611 0.019072 0.142892
-0.313581 0.0187436 0.164228
-0.313553 0.0184262 0.184842
-0.313525 0.0181195 0.20477
-0.313485 0.017678 0.233447
-0.172604 0.0192399 0.366399
-0.151172 0.0197891 0.366429
0.0416497 0.0247304 0.3667
0.0591747 0.0251795 0.366725
-0.314314 0.0300788 -0.366423
-0.31391 0.0250465 -0.0739439
-0.313789 0.0235323 0.0140649
-0.313719 0.0226557 0.0650138
-0.313451 0.0193262 0.258534
-0.313388 0.0185524 0.303506
-0.272037 0.0186555 0.366262
-0.2121 0.0225166 0.366347
-0.192892 0.0231246 0.366373
0.136107 0.0335393 0.366837
-0.314229 0.0351088 -0.303895
-0.313423 0.022984 0.278259
-0.239096 0.0237251 0.36631
0.0247021 0.0328711 0.366682
0.0961632 0.0353487 0.366783
-0.314257 0.0386221 -0.324234
-0.314049 0.0352224 -0.174057
-0.31336 0.0239544 0.323679
-0.0226591 0.0339445 0.366617
-0.314175 0.0402549 -0.264639
-0.314091 0.0387871 -0.204605
0.15722 0.0439811 0.366874
-0.314301 0.0456275 -0.355679
-0.314201 0.0437461 -0.284036
-0.313997 0.0398709 -0.136468
-0.313942 0.0388286 -0.0967773
-0.287378 0.0278034 0.366247
-0.051703 0.0381059 0.36658
0.0772653 0.0437438 0.366763
0.115699 0.0454239 0.366817
-0.314135 0.0454252 -0.236376
-0.31387 0.0400409 -0.0445734
-0.313817 0.0389601 -0.00607234
-0.313749 0.037577 0.0431984
-0.104476 0.0382679 0.366505
-0.0789184 0.0394621 0.366542
0.0415604 0.045092 0.366714
-0.31398 0.0450078 -0.124339
-0.313693 0.0388073 0.0831544
-0.313649 0.0378513 0.115146
-0.151234 0.0384107 0.366441
-0.128546 0.0395394 0.366473
0.136014 0.0526997 0.36685
-0.313789 0.043349 0.0140649
-0.313614 0.0393522 0.140172
-0.313588 0.0387566 0.158963
-0.313553 0.0379364 0.184842
-0.313339 0.0330416 0.339282
-0.17267 0.0396077 0.366412
-0.314188 0.0554871 -0.274281
-0.313665 0.042823 0.103697
-0.313525 0.0394365 0.20477
-0.313485 0.0384757 0.233447
-0.313457 0.0377852 0.254055
-0.313313 0.0342975 0.35815
0.0246159 0.0528743 0.366696
0.0590422 0.0547944 0.366745
-0.314257 0.0602506 -0.324234
-0.313403 0.0384477 0.293128
-0.272091 0.0382892 0.366275
-0.192954 0.0429416 0.366387
-0.0227365 0.0529485 0.36663
0.157123 0.0635221 0.366887
-0.314229 0.0625853 -0.303896
-0.314091 0.0588989 -0.204605
-0.313953 0.0551841 -0.104549
-0.313911 0.0540478 -0.0739436
-0.230385 0.0428303 0.366335
-0.212165 0.0439564 0.366361
0.0960343 0.0630042 0.366802
0.135952 0.0654712 0.366859
-0.314314 0.0680729 -0.366422
-0.313997 0.0591188 -0.136468
-0.313429 0.0431384 0.273936
0.0771689 0.0648546 0.366777
-0.314049 0.0634003 -0.174057
-0.31387 0.0581239 -0.0445735
-0.313374 0.043525 0.313687
-0.0517855 0.0591237 0.366594
-0.314286 0.0734965 -0.34507
-0.313817 0.0590686 -0.00607246
-0.104557 0.0580126 0.36652
-0.0789997 0.0598233 0.366557
0.115565 0.0736077 0.366837
-0.313748 0.0593959 0.0431983
-0.313693 0.057623 0.0831544
-0.128621 0.0587037 0.366488
0.0589626 0.0725591 0.366757
0.0959771 0.075293 0.366811
-0.314257 0.0787893 -0.324234
-0.314148 0.0751618 -0.245689
-0.314123 0.0743065 -0.227169
-0.313789 0.0631657 0.0140648
-0.313649 0.0584975 0.115146
-0.172728 0.057709 0.366425
-0.151308 0.0593556 0.366456
0.0245299 0.0728735 0.36671
0.0414328 0.0741729 0.366734
0.157026 0.0830594 0.366901
-0.314067 0.0752928 -0.187003
-0.31361 0.0594599 0.142892
-0.313567 0.057937 0.174623
-0.00757074 0.0731666 0.366666
-0.314229 0.0839559 -0.303896
-0.314201 0.0829668 -0.284036
-0.31398 0.0750131 -0.124339
-0.313911 0.0725031 -0.0739437
-0.313665 0.0636558 0.103697
-0.313532 0.0588669 0.19985
0.0770863 0.0829461 0.36679
-0.314315 0.0902361 -0.366421
-0.313997 0.0783668 -0.136468
-0.313485 0.0592733 0.233447
-0.313457 0.0582097 0.254055
-0.313347 0.0541098 0.333485
-0.31332 0.0531251 0.352561
-0.302056 0.053386 0.366244
-0.193017 0.0627548 0.3664
-0.314104 0.0852351 -0.213554
-0.314049 0.0831248 -0.174057
-0.313942 0.078996 -0.0967774
-0.313403 0.0581646 0.293128
-0.272146 0.0579192 0.366288
-0.212224 0.0632484 0.366374
-0.0518576 0.0775106 0.366607
0.135812 0.0942012 0.366879
-0.314286 0.095389 -0.34507
-0.31387 0.0787902 -0.0445737
-0.23921 0.062911 0.366337
-0.0790671 0.0776361 0.366569
0.115461 0.095523 0.366852
-0.314201 0.0950346 -0.284036
-0.313817 0.079177 -0.00607258
-0.313429 0.0632028 0.273936
-0.104629 0.077754 0.366534
0.0588698 0.0932806 0.366772
0.0770313 0.0950053 0.366798
0.156929 0.102593 0.366914
-0.314257 0.100418 -0.324234
-0.314135 0.0952464 -0.236376
-0.313748 0.0787905 0.0431982
-0.313374 0.0628695 0.313687
-0.128689 0.0778649 0.366501
0.0244438 0.0928687 0.366724
0.0413435 0.0945246 0.366748
-0.314174 0.0998917 -0.264639
-0.314067 0.0951815 -0.187004
-0.313789 0.0829824 0.0140647
-0.313693 0.0787907 0.0831543
-0.151375 0.0779695 0.366469
0.0958483 0.102938 0.36683
-0.288785 0.1101 -0.337822
-0.2883 0.108897 -0.317805
-0.313649 0.0791437 0.115146
-0.172801 0.0780683 0.36644
-0.0229021 0.0936591 0.366658
-0.289047 0.11092 -0.301459
-0.288569 0.109733 -0.282246
-0.313997 0.0976149 -0.136468
-0.31391 0.0935949 -0.0739439
-0.31361 0.0796538 0.142892
-0.313567 0.0776137 0.174623
-0.287486 0.0680571 0.366274
-0.289179 0.111411 -0.261936
-0.288596 0.109959 -0.239045
-0.314049 0.102849 -0.174057
-0.313942 0.0977409 -0.0967776
-0.313665 0.0844886 0.103697
-0.313538 0.0784603 0.194889
0.158102 0.120437 0.345332
-0.28919 0.111592 -0.219772
-0.288733 0.110454 -0.202297
-0.288175 0.109064 -0.180948
-0.313498 0.0786298 0.224044
-0.193085 0.0825634 0.366415
-0.05194 0.0985201 0.366622
0.137153 0.121344 0.345648
-0.288645 0.110377 -0.158908
-0.288102 0.109025 -0.138652
-0.31387 0.0994565 -0.0445737
-0.313463 0.078949 0.249539
-0.313347 0.0730957 0.333485
-0.212287 0.0825362 0.366388
-0.0791442 0.0979897 0.366583
0.102998 0.120634 0.34533
0.116998 0.122217 0.345953
-0.275222 0.127637 -0.33733
-0.279913 0.125834 -0.319974
-0.288667 0.110572 -0.121676
-0.288137 0.109249 -0.102338
-0.313816 0.0992855 -0.00607264
-0.313402 0.0778813 0.293128
-0.31332 0.0736296 0.352561
-0.2722 0.0775454 0.366301
-0.230505 0.0825104 0.366363
0.0840975 0.121494 0.345631
-0.264089 0.131895 -0.332786
-0.276048 0.127298 -0.290133
-0.288585 0.110496 -0.0824291
-0.287968 0.108952 -0.0604056
-0.313748 0.0981851 0.0431981
-0.10471 0.0999583 0.366549
0.0531811 0.120813 0.345328
-0.262808 0.132366 -0.293675
-0.272285 0.128724 -0.261078
-0.281251 0.125277 -0.230231
-0.288405 0.11017 -0.0415869
-0.313789 0.102799 0.0140646
-0.313693 0.0976064 0.0831542
-0.313435 0.0835947 0.269578
-0.128765 0.0994168 0.366516
0.0240743 0.120173 0.345044
-0.275378 0.127515 -0.210345
-0.28873 0.111104 -0.0198252
-0.288136 0.109616 0.000450313
-0.151446 0.0989062 0.366484
-0.262739 0.132352 -0.212601
-0.269574 0.129726 -0.190704
-0.278259 0.126386 -0.162846
-0.288554 0.110776 0.0177326
-0.287883 0.109093 0.0401627
-0.313649 0.0997899 0.115146
-0.31361 0.097604 0.142892
-0.313374 0.0841484 0.313687
-0.172869 0.098424 0.366454
-0.0186211 0.12036 0.345055
-0.263839 0.131911 -0.171299
-0.274751 0.127716 -0.13751
-0.280956 0.125329 -0.118267
-0.288198 0.109992 0.0595594
-0.313665 0.103007 0.103697
-0.277523 0.126631 -0.0942257
-0.288504 0.110865 0.0784048
-0.287862 0.109252 0.0989975
-0.313566 0.0994768 0.174623
-0.313538 0.0978067 0.194889
-0.247844 0.0926646 0.366346
-0.0576574 0.120534 0.345061
-0.26373 0.131918 -0.100962
-0.27619 0.127126 -0.0649139
-0.288075 0.109886 0.119584
-0.313498 0.097501 0.224044
-0.264716 0.13152 -0.0650858
-0.272903 0.128372 -0.0421885
-0.280708 0.125371 -0.0203615
-0.28828 0.110499 0.139529
-0.28767 0.108964 0.158354
-0.313472 0.0979931 0.242698
-0.202879 0.103176 0.366416
-0.0935316 0.120689 0.345071
-0.277483 0.126594 0.0010938
-0.287791 0.10936 0.179707
-0.313355 0.0925965 0.327623
-0.287552 0.0929682 0.366291
-0.221577 0.102615 0.366389
-0.114762 0.120144 0.344835
-0.262523 0.132327 -0.00879902
-0.274329 0.127789 0.0220794
-0.287992 0.109954 0.197857
-0.313417 0.0985466 0.282548
-0.313325 0.0926071 0.348802
-0.126589 0.120833 0.345081
-0.271244 0.128959 0.0426105
-0.27685 0.126806 0.0567781
-0.288104 0.110322 0.217892
-0.146209 0.120305 0.344854
-0.275647 0.127253 0.0808511
-0.288131 0.110472 0.239609
-0.263368 0.131954 0.0778635
-0.27153 0.128639 0.0990809
-0.288237 0.110819 0.258301
-0.287528 0.109026 0.27829
-0.313388 0.102527 0.303505
-0.175336 0.120454 0.344871
-0.269778 0.12948 0.118566
-0.278587 0.126098 0.138747
-0.287563 0.109191 0.297913
-0.277435 0.126528 0.160138
-0.287523 0.109161 0.318914
-0.202389 0.120592 0.344888
-0.262336 0.132312 0.150873
-0.276316 0.126946 0.180897
-0.278868 0.110836 0.336558
-0.309239 0.102757 0.366268
-0.218555 0.120118 0.344685
-0.264976 0.131286 0.179726
-0.273564 0.127991 0.197587
-0.253515 0.117291 0.335234
-0.275805 0.127119 0.223913
-0.264843 0.131315 0.223443
-0.274762 0.127509 0.242797
-0.28105 0.125094 0.255084
-0.272757 0.128257 0.279012
-0.273339 0.128023 0.299128
-0.273901 0.127797 0.318532
-0.265164 0.128967 0.340651
