ply
format ascii 1.0
comment Created by Open3D
element vertex 538
property double x
property double y
property double z
end_header
0.235669 -0.365804 0.163052
0.221491 -0.370683 0.153373
0.233972 -0.336021 -0.154369
0.234738 -0.347235 0.156865
0.223602 -0.322255 -0.16456
0.207495 -0.354367 0.153365
0.232282 -0.30219 -0.162597
0.233727 -0.326803 0.164038
0.207487 -0.326021 0.153368
0.221491 -0.311746 0.153373
-0.124613 -0.402034 -0.155279
0.231043 -0.277319 -0.162474
0.193358 -0.286935 -0.164586
-0.131689 -0.407841 0.157063
-0.119832 -0.380256 -0.155638
0.231761 -0.287365 0.161692
0.20749 -0.29452 0.153367
-0.146969 -0.408127 0.153127
-0.120248 -0.391677 0.162138
0.229975 -0.255748 -0.15393
0.193357 -0.266335 -0.164586
-0.146968 -0.390667 0.153126
-0.118815 -0.359818 -0.155714
0.221492 -0.27142 0.153373
0.193056 -0.27675 0.153357
-0.119095 -0.369904 0.161734
0.193356 -0.254564 -0.164586
-0.146965 -0.368841 0.153125
-0.117799 -0.339417 -0.15579
0.229004 -0.236252 -0.153823
-0.118218 -0.352233 0.156933
0.221492 -0.249707 0.153372
-0.146963 -0.35138 0.153124
0.193055 -0.254355 0.153358
-0.116785 -0.319052 -0.155866
-0.117151 -0.330858 0.161053
0.22803 -0.216708 -0.153716
0.193354 -0.225135 -0.164586
-0.146961 -0.329555 0.153124
-0.115955 -0.3023 -0.163854
0.221493 -0.231095 0.153372
-0.116074 -0.309223 0.160675
-0.146958 -0.312094 0.153123
0.193054 -0.22556 0.153358
0.193352 -0.207477 -0.164586
-0.114964 -0.282485 -0.156003
0.227055 -0.197117 -0.153609
0.221493 -0.212483 0.153372
-0.115213 -0.291943 0.160374
-0.146956 -0.290269 0.153122
-0.113954 -0.26222 -0.156079
0.193053 -0.206364 0.153358
-0.114148 -0.270612 0.164486
0.193351 -0.186877 -0.164586
-0.133456 -0.269917 0.153131
0.226077 -0.177478 -0.153502
0.2269 -0.18983 0.157428
0.214546 -0.192234 0.153369
-0.146954 -0.268444 0.153121
-0.112947 -0.241991 -0.156154
0.193053 -0.187167 0.153359
-0.113075 -0.249071 0.164106
-0.133445 -0.248321 0.153127
-0.146952 -0.250984 0.153121
0.22616 -0.174862 0.164514
0.19335 -0.166277 -0.164586
0.207482 -0.174824 0.153371
0.225073 -0.157418 -0.16188
-0.111941 -0.221797 -0.15623
0.193052 -0.174369 0.153359
-0.112219 -0.231867 0.163802
-0.133441 -0.231046 0.153126
-0.146949 -0.229158 0.15312
0.212814 -0.148883 -0.146276
0.212833 -0.147051 -0.120091
-0.110937 -0.201638 -0.156305
-0.11115 -0.210398 0.163423
0.193348 -0.145676 -0.164585
0.224929 -0.1502 0.161766
-0.133442 -0.209453 0.153126
-0.146947 -0.211698 0.153119
0.213012 -0.148107 0.137231
0.212844 -0.138988 -0.102421
0.223614 -0.134863 -0.164561
0.212998 -0.144242 0.117173
0.21282 -0.131854 -0.137589
-0.109935 -0.181515 -0.156381
-0.110083 -0.188969 0.163045
-0.133442 -0.192179 0.153126
0.21286 -0.130952 -0.0815894
0.212983 -0.134245 0.0973217
-0.146945 -0.189873 0.153118
0.212832 -0.126668 -0.12009
0.224012 -0.131768 0.162224
0.212872 -0.125681 -0.0635431
0.193307 -0.125082 -0.164582
0.212967 -0.127311 0.0744172
0.212847 -0.12153 -0.09946
-0.10923 -0.171855 0.162743
0.212891 -0.120656 -0.0361385
-0.108935 -0.161427 -0.156456
0.212947 -0.120256 0.0453654
0.212934 -0.119651 0.0262415
0.21291 -0.118557 -0.00832419
0.212826 -0.114743 -0.128861
0.213011 -0.120045 0.137231
0.21292 -0.116038 0.00730897
0.212811 -0.111212 -0.149162
0.212997 -0.116324 0.117174
0.212865 -0.110624 -0.072588
0.212976 -0.112354 0.0874721
0.193315 -0.107422 -0.164582
-0.123202 -0.14777 -0.139357
0.222939 -0.110211 0.16276
0.230057 -0.102867 -0.0643225
0.230043 -0.10228 -0.0849526
0.230028 -0.1017 -0.105349
0.229985 -0.100886 -0.134085
-0.107936 -0.141374 -0.156531
0.212967 -0.105837 0.0744173
0.230132 -0.102921 0.0424827
0.230117 -0.102317 0.02062
0.230104 -0.101805 0.00208387
0.230089 -0.101213 -0.0193084
0.230074 -0.100629 -0.0404536
0.228292 -0.102777 0.140086
0.230186 -0.102003 0.119441
0.230172 -0.101479 0.0999049
0.230159 -0.10096 0.0805684
0.230145 -0.100446 0.0614287
0.160665 -0.102342 -0.164601
0.205874 -0.0916872 -0.151282
0.125515 -0.100028 -0.164628
0.0874351 -0.100834 -0.164654
-0.10431 -0.121076 -0.156803
0.220851 -0.0918195 0.163804
0.193263 -0.086826 -0.164578
0.0460907 -0.101708 -0.164682
0.226137 -0.0824442 -0.0871306
0.225837 -0.081873 -0.113351
0.225607 -0.0814342 -0.133496
0.00104284 -0.102662 -0.164712
0.223334 -0.0848883 0.14244
0.22598 -0.081977 0.0219733
0.225741 -0.0815211 0.000321791
0.225538 -0.0811344 -0.0180458
0.225303 -0.0806879 -0.0392556
0.225637 -0.0811461 0.121489
0.225429 -0.0807485 0.101925
0.225187 -0.0802895 0.0793416
0.224976 -0.079901 0.0601902
0.223296 -0.077498 -0.0598336
0.160752 -0.0809494 -0.164609
-0.0481031 -0.0999215 -0.164754
0.222832 -0.0766986 0.0419013
0.12553 -0.0809736 -0.164629
-0.102191 -0.100879 -0.164793
0.205088 -0.0714946 -0.145373
0.0874438 -0.0809967 -0.164654
0.193061 -0.075186 0.153355
0.0461521 -0.0810169 -0.164686
0.00114155 -0.0846427 -0.164719
0.205646 -0.0712177 0.164522
0.211698 -0.0664141 -0.0753569
0.210967 -0.0659335 -0.105065
0.193295 -0.0662207 -0.164581
0.212393 -0.0667993 0.12077
0.211926 -0.0664932 0.101059
0.211464 -0.0661899 0.0815275
0.208188 -0.0645259 -0.0287759
0.207435 -0.0641593 -0.0532078
0.204416 -0.0629933 -0.133583
0.178996 -0.0647161 -0.142322
0.144445 -0.0672247 -0.144532
-0.0481031 -0.0810684 -0.164754
0.204409 -0.0629543 0.0418936
0.203518 -0.0626517 0.0197209
0.202752 -0.0623953 0.000887141
0.110309 -0.0665056 -0.144018
0.0668285 -0.0695264 -0.146154
0.135022 -0.0645703 -0.156066
-0.102191 -0.0810986 -0.164793
0.162793 -0.0645792 0.164024
0.197745 -0.0618262 0.137455
0.194405 -0.0609145 0.0650151
0.183262 -0.060744 0.00659047
0.178311 -0.0607426 -0.0146229
0.174068 -0.0607414 -0.0328051
0.169118 -0.06074 -0.0540166
0.164168 -0.0607386 -0.0752272
0.157097 -0.0607366 -0.105526
0.0510546 -0.067214 -0.144587
0.0274618 -0.068773 -0.145752
0.0882025 -0.0645694 -0.154869
0.110132 -0.0645808 0.162228
0.163378 -0.0607523 0.131863
0.158159 -0.0607508 0.109497
0.153687 -0.0607495 0.0903269
0.149214 -0.0607482 0.0711576
0.144742 -0.060747 0.0519891
0.139524 -0.0607455 0.0296269
0.135053 -0.0607442 0.0104602
0.130581 -0.0607429 -0.00870582
0.126109 -0.0607416 -0.0278709
0.120893 -0.0607402 -0.0502292
0.116422 -0.0607389 -0.0693926
0.111954 -0.0607374 -0.0885558
0.107488 -0.0607358 -0.107718
0.00939679 -0.0664178 -0.14402
-0.0160922 -0.0680164 -0.145232
0.052295 -0.0645823 0.163814
0.108906 -0.0607522 0.132981
0.102603 -0.0607504 0.105959
0.0978762 -0.0607491 0.0856936
0.0931495 -0.0607477 0.0654292
0.0884229 -0.0607464 0.0451657
0.0836965 -0.060745 0.0249031
0.0789704 -0.0607437 0.00464134
0.0742444 -0.0607423 -0.0156195
0.0679446 -0.0607405 -0.0426328
0.0632241 -0.0607388 -0.0628924
0.0585038 -0.0607372 -0.0831508
0.053784 -0.0607355 -0.103408
0.0490641 -0.0607339 -0.123665
-0.0364602 -0.0655883 -0.14335
-0.0636376 -0.0672006 -0.144654
-0.0134526 -0.0645843 0.161787
0.0460259 -0.0608635 0.134924
0.0411491 -0.0607503 0.105574
0.038643 -0.0607496 0.0948276
0.0319605 -0.0607477 0.0661706
0.0269492 -0.0607462 0.044679
0.0202672 -0.0607443 0.0160251
0.0152582 -0.0607428 -0.00546457
0.00858462 -0.0607405 -0.0341167
0.00357985 -0.0607387 -0.0556044
-0.003093 -0.0607363 -0.0842527
-0.00809717 -0.0607346 -0.105737
-0.0153517 -0.060766 -0.134322
-0.115608 -0.0663088 -0.144023
-0.147593 -0.0681002 -0.145384
-0.0805335 -0.0641826 -0.154738
-0.0802367 -0.0642117 0.161196
-0.0220115 -0.0607519 0.131835
-0.0273452 -0.0607504 0.108954
-0.0317899 -0.0607491 0.0898868
-0.0362346 -0.0607479 0.0708207
-0.040679 -0.0607466 0.0517554
-0.0460067 -0.0607448 0.0288767
-0.0504454 -0.0607432 0.00981204
-0.0548841 -0.0607417 -0.00925159
-0.0593222 -0.0607401 -0.0283144
-0.064648 -0.0607382 -0.0511883
-0.0690856 -0.0607367 -0.0702489
-0.0735232 -0.0607351 -0.0893085
-0.0779605 -0.0607336 -0.108367
-0.0832849 -0.0607317 -0.131236
-0.0986228 -0.0614674 -0.137606
-0.102253 -0.0613218 -0.164788
-0.10728 -0.0613196 0.153143
-0.133436 -0.0626197 0.153124
-0.100538 -0.0607519 0.133182
-0.107187 -0.06075 0.104646
-0.111932 -0.0607484 0.0842634
-0.116675 -0.0607467 0.0638812
-0.121418 -0.060745 0.0435001
-0.128058 -0.0607427 0.0149685
-0.132801 -0.060741 -0.00540987
-0.137543 -0.0607394 -0.0257871
-0.142285 -0.0607377 -0.0461632
-0.147027 -0.060736 -0.0665383
-0.146935 -0.0458312 0.153115
-0.109719 -0.0418137 -0.164279
-0.110062 -0.040341 0.163038
-0.133438 -0.0367081 0.153125
-0.133438 -0.0237523 0.153125
-0.146936 -0.0240068 0.153115
-0.11451 -0.0219942 -0.163953
-0.114849 -0.0191727 0.160246
-0.118241 -0.0021366 0.161435
-0.118492 -0.00200642 -0.163681
-0.146936 0.00654729 0.153115
-0.133442 0.0151151 0.153126
-0.155585 0.0193297 0.0298523
-0.148626 0.0191535 0.0108135
-0.148905 0.0190797 -0.0107801
-0.157388 0.0191384 -0.0307506
-0.1225 0.0181205 -0.163408
-0.161391 0.0238387 0.0533888
-0.142102 0.0233958 0.0354855
-0.138537 0.0230587 -0.0256035
-0.157263 0.023313 -0.0479495
-0.160726 0.0286789 0.153106
-0.161915 0.0270449 -0.164832
-0.158524 0.0325639 0.0750183
-0.140852 0.0312762 -0.0632598
-0.133454 0.0367086 0.15313
-0.141432 0.0364068 0.0748951
-0.132729 0.0358689 0.0332714
-0.131299 0.0356485 0.00710464
-0.131275 0.0355602 -0.00571971
-0.133128 0.0354138 -0.0350585
-0.144375 0.0354665 -0.0753323
-0.156701 0.0357799 -0.0820459
-0.132883 0.0401935 0.0463363
-0.126537 0.0383879 -0.163133
-0.146943 0.0458314 0.153118
-0.143168 0.0451897 0.0931664
-0.152587 0.0439396 -0.095195
-0.133622 0.0476616 -0.0643615
-0.144381 0.0539878 0.106956
-0.13011 0.0566534 0.0154227
-0.130057 0.056419 -0.00596686
-0.130331 0.0561107 -0.0355552
-0.146922 0.0560438 -0.112517
-0.16815 0.0569603 -0.118603
-0.161934 0.0561711 -0.164831
-0.131137 0.062602 0.161411
-0.131328 0.0613677 0.0546614
-0.134857 0.0599162 -0.0849857
-0.130603 0.0587974 -0.162856
-0.160729 0.0683884 0.153107
-0.138408 0.0666054 0.105185
-0.132967 0.0659654 0.0770115
-0.148625 0.0718208 0.130852
-0.13253 0.06832 -0.064528
-0.13375 0.0757236 0.162316
-0.150641 0.0725873 -0.132799
-0.134377 0.0785017 0.0554386
-0.139214 0.0762993 -0.113364
-0.133893 0.0753491 -0.154582
-0.146961 0.0851168 0.153124
-0.13493 0.0805819 -0.0849758
-0.166831 0.0817928 -0.143807
-0.144335 0.0889827 0.134032
-0.136241 0.0877815 0.095635
-0.136035 0.0867526 0.0340524
-0.135958 0.0862489 0.00380467
-0.135874 0.0857505 -0.0260956
-0.135799 0.0852584 -0.0556509
-0.161953 0.0852982 -0.16483
-0.141023 0.0885958 -0.125498
-0.137865 0.0960784 0.0739326
-0.138017 0.0960518 -0.154272
-0.139894 0.106571 0.164445
-0.140388 0.105811 0.123742
-0.139077 0.101603 -0.0844178
-0.139008 0.101189 -0.105146
-0.145618 0.1109 0.138989
-0.140542 0.109593 0.0968771
-0.140046 0.106611 -0.0465366
-0.142344 0.105029 -0.133566
-0.161966 0.106104 -0.164829
-0.141222 0.112827 0.0440182
-0.14217 0.117665 0.066245
-0.141973 0.116486 0.0137158
-0.141857 0.115809 -0.0164434
-0.158953 0.125559 0.152519
-0.142481 0.118726 -0.0756007
-0.142399 0.11824 -0.0964578
-0.143821 0.125878 0.0446516
-0.144919 0.13157 0.0981412
-0.144266 0.127766 -0.0542999
-0.145162 0.126025 -0.129199
-0.155473 0.126621 -0.148853
-0.143839 0.125282 -0.153835
-0.146463 0.136747 0.125635
-0.145719 0.135524 0.0805015
-0.146493 0.139339 0.0585266
-0.145916 0.136005 -0.0667035
-0.145743 0.135002 -0.104358
-0.147866 0.146586 0.162607
-0.147179 0.142647 0.0192021
-0.148466 0.149398 0.103662
-0.147965 0.146521 0.00199632
-0.147854 0.145909 -0.0195899
-0.147749 0.145303 -0.0409958
-0.156553 0.155821 0.142524
-0.148033 0.14634 -0.15352
-0.149978 0.156821 0.0549864
-0.149814 0.155896 0.0241552
-0.149073 0.15168 -0.116427
-0.1512 0.163174 0.118029
-0.15098 0.161923 0.0774721
-0.150015 0.156461 -0.0996897
-0.151966 0.166935 0.0956738
-0.151033 0.161681 -0.0701689
-0.153252 0.173628 0.164452
-0.151992 0.166553 -0.0530673
-0.153879 0.176626 0.118844
-0.169334 0.184269 0.151302
-0.154527 0.179732 0.0784294
-0.154013 0.176862 -0.00544509
-0.153344 0.172943 -0.120126
-0.158773 0.173041 -0.140334
-0.161969 0.172679 -0.164829
-0.155303 0.183573 0.060772
-0.155163 0.182794 0.0385709
-0.15451 0.179148 -0.0654246
-0.154378 0.178406 -0.0865702
-0.155933 0.186601 0.0211404
-0.155594 0.184726 -0.0310692
-0.157747 0.196181 0.16136
-0.163166 0.196246 0.140048
-0.15735 0.193988 0.101732
-0.155907 0.185994 -0.1157
-0.159323 0.185784 -0.136145
-0.161974 0.185163 -0.164828
-0.158095 0.197647 0.0793925
-0.157972 0.196972 0.0614521
-0.15782 0.196135 0.0391986
-0.157228 0.192856 -0.0479552
-0.157776 0.195441 -0.0945517
-0.160144 0.208073 0.116185
-0.159317 0.203503 -2.59429e-05
-0.159157 0.202646 -0.0217924
-0.158823 0.200789 -0.0690375
-0.174844 0.216336 0.153104
-0.159851 0.206025 -0.0475272
-0.161854 0.216601 0.103032
-0.161248 0.213288 0.0223172
-0.174392 0.208604 -0.151542
-0.162551 0.220004 0.0760899
-0.161973 0.216838 0.00051333
-0.161802 0.215923 -0.0213037
-0.163275 0.223568 0.0538549
-0.162318 0.218335 -0.0685298
-0.161987 0.216525 -0.110862
-0.162732 0.215968 -0.127514
-0.164856 0.231077 0.122182
-0.163959 0.226914 0.0273392
-0.165897 0.237072 0.154817
-0.1639 0.2262 -0.089561
-0.166277 0.238765 0.0906618
-0.165938 0.236922 0.0500405
-0.165605 0.235109 0.0100415
-0.165131 0.232537 -0.0466658
-0.178409 0.230438 -0.15124
-0.169972 0.245735 0.132964
-0.166161 0.237779 -0.0291928
-0.1679 0.246834 0.0684855
-0.167203 0.243065 -0.0115746
-0.169624 0.255804 0.160714
-0.169211 0.253579 0.114316
-0.167223 0.24281 -0.110286
-0.185774 0.263081 0.151971
-0.169554 0.255078 0.0509215
-0.16935 0.253986 0.0285529
-0.168639 0.250131 -0.0504111
-0.168484 0.249291 -0.0676343
-0.168253 0.24804 -0.0932531
-0.169654 0.246545 -0.131042
-0.181664 0.248016 -0.150996
-0.170796 0.261434 0.087364
-0.169888 0.256543 -0.0110589
-0.173462 0.268425 0.129422
-0.171583 0.265339 0.0739621
-0.170619 0.260163 -0.0284012
-0.169898 0.256253 -0.105767
-0.183187 0.275754 0.146443
-0.171938 0.266926 0.0158032
-0.173768 0.276442 0.111066
-0.172204 0.268027 -0.0498423
-0.171911 0.266449 -0.0799992
-0.174465 0.279859 0.0883683
-0.173576 0.275078 -0.00154468
-0.173936 0.268569 -0.130646
-0.185773 0.270124 -0.150687
-0.172044 0.26687 -0.155877
-0.17632 0.28661 0.125668
-0.175019 0.282517 0.0522531
-0.174299 0.278666 -0.018994
-0.189243 0.295399 0.153092
-0.175703 0.285879 0.0299828
-0.175251 0.283146 -0.100909
-0.178303 0.29918 0.103181
-0.177915 0.297102 0.066535
-0.17678 0.291039 -0.0404114
-0.176597 0.290053 -0.0578126
-0.176323 0.288586 -0.0836948
-0.175959 0.286652 -0.1178
-0.182314 0.306148 0.132147
-0.181278 0.291013 -0.138411
-0.179611 0.305574 0.053372
-0.179071 0.302688 0.00398487
-0.177972 0.296824 -0.0963228
-0.177321 0.293365 -0.155499
-0.179636 0.305436 -0.0268
-0.18208 0.318162 0.108874
-0.181872 0.317049 0.0903952
-0.181666 0.315944 0.0720453
-0.181201 0.313485 0.0312205
-0.180253 0.308419 -0.0529103
-0.189288 0.305275 -0.146198
-0.189118 0.325566 0.12956
-0.181866 0.316741 0.00900371
-0.180859 0.311376 -0.078795
-0.180854 0.308884 -0.12154
-0.182577 0.320248 -0.00862151
-0.185609 0.335816 0.091418
-0.185113 0.333185 0.0501754
-0.184143 0.328046 -0.0304015
-0.183726 0.325814 -0.0654204
-0.183362 0.323884 -0.0956737
-0.188432 0.341904 0.106067
-0.185821 0.336683 0.0322605
-0.185549 0.335229 0.00976484
-0.184847 0.331505 -0.047825
-0.187975 0.327575 -0.125094
-0.18726 0.344034 0.0734922
-0.186251 0.338696 -0.00791562
-0.204291 0.35599 0.119998
-0.187851 0.346916 0.0462923
-0.186511 0.337084 -0.103883
-0.192676 0.355953 0.0979861
-0.189484 0.355059 0.028569
-0.188733 0.351089 -0.0296031
-0.188453 0.349587 -0.0516314
-0.188226 0.348393 -0.0691194
-0.197158 0.347573 -0.11992
-0.192203 0.363557 0.0793719
-0.190066 0.357876 0.00174327
-0.191909 0.366712 0.0609386
-0.191339 0.35652 -0.0903913
-0.205327 0.377092 0.0921401
-0.192551 0.370288 -0.0200673
-0.192311 0.369013 -0.0378218
-0.193971 0.372073 -0.0639324
-0.207772 0.389791 0.0694997
-0.198778 0.385691 0.0488735
-0.195982 0.38355 0.0300077
-0.194751 0.380974 -0.00180645
-0.199038 0.377065 -0.0763485
-0.198388 0.389663 -0.0190098
-0.199492 0.38843 -0.0410599
-0.20188 0.387923 -0.0583753
-0.203053 0.397501 0.00885423
-0.215274 0.406914 0.0250791
