ply
format ascii 1.0
comment Created by Open3D
element vertex 834
property double x
property double y
property double z
end_header
0.0725409 -0.464215 0.139274
0.0860999 -0.458897 0.137735
0.0494226 -0.46169 0.139293
0.0253525 -0.463105 0.139313
0.0725409 -0.444792 0.139274
0.0860999 -0.439696 0.137735
0.000270724 -0.46458 0.139333
0.127274 -0.416338 0.137496
0.0844126 -0.461511 -0.13166
0.0494226 -0.441875 0.139293
0.127291 -0.415027 0.114917
0.127316 -0.414506 0.0844025
0.0632825 -0.46122 -0.131644
-0.0258883 -0.4619 0.139355
0.0947794 -0.417115 0.139259
0.127339 -0.41357 0.0573103
0.127358 -0.416015 0.033791
0.127291 -0.403861 0.114917
0.127375 -0.414256 0.0139783
0.127392 -0.416316 -0.00603172
0.0301664 -0.465051 -0.131619
-0.0531954 -0.463413 0.139377
0.000270724 -0.443932 0.139333
0.0253525 -0.434793 0.139313
0.127408 -0.414542 -0.026242
0.0844126 -0.440999 -0.13166
0.0494226 -0.42206 0.139293
0.0725409 -0.413715 0.139274
0.127274 -0.394133 0.137496
0.127358 -0.404617 0.033791
0.12743 -0.413581 -0.0548784
0.127447 -0.415674 -0.0755816
0.0414013 -0.452423 -0.131628
-0.0817275 -0.464994 0.1394
0.127392 -0.404805 -0.00603172
0.127463 -0.413865 -0.0964952
-0.0258883 -0.440809 0.139355
0.127332 -0.393914 0.0650888
0.127487 -0.412882 -0.126134
0.0947794 -0.394259 0.139259
0.127447 -0.403965 -0.0755816
-0.111569 -0.462139 0.139424
0.0253525 -0.41457 0.139313
0.0494226 -0.402245 0.139293
0.0725409 -0.394292 0.139274
0.127348 -0.384485 0.0455853
0.12743 -0.394164 -0.0548784
-0.0531954 -0.433238 0.139377
0.000270724 -0.415025 0.139333
0.127291 -0.374083 0.114917
0.127375 -0.383711 0.0139783
0.127463 -0.394251 -0.0964952
-0.0258883 -0.419717 0.139355
0.124751 -0.374896 0.076079
0.127408 -0.383692 -0.026242
0.127494 -0.393934 -0.13468
-0.0817275 -0.434142 0.1394
0.127274 -0.364527 0.137496
0.127365 -0.374962 0.0258894
0.127447 -0.384449 -0.0755816
-0.111569 -0.439596 0.139424
0.0253525 -0.394347 0.139313
0.127392 -0.374109 -0.00603172
0.0494226 -0.38243 0.139293
0.0725409 -0.374868 0.139274
0.124761 -0.364659 0.0644393
0.000270724 -0.394377 0.139333
0.0947794 -0.363785 0.139259
0.127375 -0.364621 0.0139783
-0.0531954 -0.407373 0.139377
-0.0258883 -0.398626 0.139355
0.124736 -0.354331 0.095328
0.127408 -0.364411 -0.026242
0.127494 -0.374139 -0.13468
-0.111569 -0.421561 0.139424
0.124857 -0.363997 -0.0558257
0.0253525 -0.374124 0.139313
0.127392 -0.354924 -0.00603172
0.12747 -0.363607 -0.10492
-0.0817275 -0.403289 0.1394
-0.0531954 -0.39444 0.139377
0.124745 -0.344083 0.0838011
0.124776 -0.347463 0.0448873
-0.0258883 -0.381753 0.139355
0.000270724 -0.373729 0.139333
0.0494226 -0.358652 0.139293
0.0947794 -0.344739 0.139259
0.127274 -0.334921 0.137496
0.124875 -0.3541 -0.0765795
0.127297 -0.333783 0.107333
0.127487 -0.353617 -0.126134
-0.111569 -0.399018 0.139424
0.0725421 -0.343791 0.139274
0.124761 -0.334428 0.0644393
0.124857 -0.344532 -0.0558257
0.0253525 -0.353902 0.139313
0.127375 -0.334077 0.0139783
0.127408 -0.337418 -0.026242
0.12747 -0.343953 -0.10492
-0.0817275 -0.376844 0.1394
-0.0258883 -0.360662 0.139355
0.0494226 -0.338837 0.139293
0.124776 -0.324679 0.0448873
0.124875 -0.334536 -0.0765795
-0.111569 -0.380983 0.139424
-0.0531954 -0.364264 0.139377
0.127291 -0.314527 0.114917
0.127392 -0.324228 -0.00603172
0.127487 -0.333862 -0.126134
0.000270724 -0.344822 0.139333
0.0725434 -0.324367 0.139275
0.124745 -0.313999 0.0838011
0.124846 -0.324088 -0.0434735
-0.0817275 -0.363621 0.1394
0.0253525 -0.333679 0.139313
0.0947794 -0.314265 0.139259
0.127274 -0.305314 0.137496
0.127375 -0.314987 0.0139783
0.12747 -0.324298 -0.10492
0.124857 -0.31728 -0.0558257
-0.0258883 -0.33957 0.139355
0.0494226 -0.319022 0.139293
0.124761 -0.304197 0.0644393
0.124875 -0.314973 -0.0765795
-0.111569 -0.35844 0.139424
0.127274 -0.294212 0.137496
0.127487 -0.314107 -0.126134
0.000270724 -0.324174 0.139333
0.0725445 -0.304944 0.139275
0.124736 -0.294338 0.095328
0.126129 -0.303694 -0.0348307
-0.0531954 -0.334089 0.139377
0.0253525 -0.313456 0.139313
0.124776 -0.294299 0.0448873
0.127392 -0.297369 -0.00603172
0.12747 -0.304644 -0.10492
-0.0817275 -0.337176 0.1394
-0.111569 -0.340405 0.139424
-0.0258883 -0.318479 0.139355
0.0494226 -0.299207 0.139293
0.124745 -0.283916 0.0838011
0.124857 -0.293922 -0.0558257
0.0947794 -0.28379 0.139259
0.127375 -0.284443 0.0139783
0.127487 -0.294351 -0.126134
-0.0817275 -0.323953 0.1394
0.000270724 -0.303526 0.139333
0.116196 -0.274645 0.139249
0.127297 -0.274112 0.107333
0.126129 -0.28435 -0.0348307
0.124761 -0.273967 0.0644393
0.124875 -0.283671 -0.0765795
0.12747 -0.28499 -0.10492
-0.111569 -0.32237 0.139424
-0.0258883 -0.301606 0.139355
0.127392 -0.274347 -0.00603172
-0.0531954 -0.303913 0.139377
0.0253525 -0.285144 0.139313
0.0494226 -0.279392 0.139293
0.0725466 -0.273866 0.139275
0.124857 -0.274457 -0.0558257
0.0947794 -0.264744 0.139259
0.124776 -0.26392 0.0448873
0.127487 -0.274596 -0.126134
0.127283 -0.254236 0.126239
0.127291 -0.254972 0.114917
0.127408 -0.26415 -0.026242
0.124745 -0.253832 0.0838011
0.124875 -0.264108 -0.0765795
-0.111569 -0.299827 0.139424
-0.0817275 -0.293101 0.1394
-0.0258883 -0.280515 0.139355
0.000270724 -0.274619 0.139333
0.127375 -0.253899 0.0139783
0.0253525 -0.264921 0.139313
0.0494231 -0.259577 0.139293
0.0725478 -0.254443 0.139275
0.124857 -0.254992 -0.0558257
0.12747 -0.257473 -0.10492
0.124761 -0.243736 0.0644393
0.124776 -0.244933 0.0448873
0.127392 -0.247488 -0.00603172
0.127487 -0.254841 -0.126134
-0.0531954 -0.273737 0.139377
0.127274 -0.235 0.137496
0.127408 -0.244869 -0.026242
-0.111569 -0.281792 0.139424
0.124736 -0.234346 0.095328
0.124875 -0.244544 -0.0765795
-0.0258883 -0.259423 0.139355
0.000270724 -0.253971 0.139333
0.0947794 -0.23427 0.139259
0.127375 -0.234808 0.0139783
-0.0817275 -0.266656 0.1394
0.0253525 -0.244698 0.139313
0.0494243 -0.239761 0.139293
0.124745 -0.223748 0.0838011
0.124761 -0.224842 0.0644393
0.12747 -0.233888 -0.10492
0.0725497 -0.22725 0.139276
0.127392 -0.224465 -0.00603172
-0.111569 -0.259249 0.139424
-0.0817275 -0.253433 0.1394
0.116196 -0.214859 0.139249
0.127291 -0.214027 0.114917
0.124857 -0.223848 -0.0558257
0.124875 -0.224981 -0.0765795
0.127487 -0.227184 -0.126134
-0.0531954 -0.243561 0.139377
-0.0258883 -0.238332 0.139355
0.124776 -0.214554 0.0448873
0.0253525 -0.224475 0.139313
0.0494256 -0.219946 0.139294
0.127408 -0.214019 -0.026242
0.000270724 -0.225063 0.139333
0.124745 -0.204946 0.0838011
0.12747 -0.214234 -0.10492
-0.111569 -0.241214 0.139424
0.0947794 -0.203796 0.139259
0.127375 -0.204264 0.0139783
-0.0258883 -0.221459 0.139355
0.0725511 -0.203942 0.139276
0.127274 -0.194291 0.137496
0.124857 -0.204383 -0.0558257
0.127487 -0.207429 -0.126134
-0.0817275 -0.226988 0.1394
0.124761 -0.194611 0.0644393
0.0253525 -0.204252 0.139313
0.0494272 -0.200131 0.139294
0.127392 -0.193769 -0.00603172
0.127408 -0.194738 -0.026242
-0.0531954 -0.213386 0.139377
0.000270724 -0.204415 0.139333
0.127291 -0.18425 0.114917
0.124875 -0.193679 -0.0765795
0.12747 -0.194579 -0.10492
-0.111569 -0.218671 0.139424
-0.0817275 -0.213765 0.1394
0.0947797 -0.184749 0.139259
0.124776 -0.184174 0.0448873
-0.0258883 -0.200368 0.139355
0.0725523 -0.184519 0.139276
0.124857 -0.184918 -0.0558257
0.124745 -0.174862 0.0838011
0.127487 -0.183723 -0.126134
0.0253525 -0.184029 0.139313
0.0494282 -0.180316 0.139294
0.127375 -0.17372 0.0139783
0.127392 -0.174584 -0.00603172
-0.111569 -0.200636 0.139424
0.000270724 -0.183767 0.139333
0.116196 -0.166282 0.139249
0.124875 -0.174115 -0.0765795
0.12747 -0.174925 -0.10492
0.124761 -0.16438 0.0644393
-0.0817275 -0.18732 0.1394
-0.0531954 -0.18321 0.139377
-0.0258883 -0.179276 0.139355
0.127408 -0.163889 -0.026242
0.127283 -0.154026 0.126239
0.127291 -0.154472 0.114917
0.127487 -0.163968 -0.126134
0.0253527 -0.163806 0.139313
0.0494298 -0.160501 0.139294
0.0725542 -0.157326 0.139277
0.0947815 -0.154275 0.139259
0.124776 -0.153795 0.0448873
0.127375 -0.15463 0.0139783
-0.111569 -0.178093 0.139424
-0.0817275 -0.174097 0.1394
0.124857 -0.153774 -0.0558257
0.124875 -0.154552 -0.0765795
-0.0258883 -0.162403 0.139355
0.124745 -0.144778 0.0838011
0.000270724 -0.15486 0.139333
0.127392 -0.143888 -0.00603172
0.127408 -0.144608 -0.026242
0.12747 -0.147408 -0.10492
-0.0531954 -0.157345 0.139377
0.127487 -0.144212 -0.126134
-0.111569 -0.160058 0.139424
0.0253541 -0.143583 0.139313
0.049431 -0.140686 0.139294
0.124761 -0.134149 0.0644393
0.124776 -0.134808 0.0448873
0.0725557 -0.134018 0.139277
0.124857 -0.134309 -0.0558257
0.124875 -0.134988 -0.0765795
-0.0531954 -0.144413 0.139377
-0.0258883 -0.141312 0.139355
0.116196 -0.125178 0.139249
0.127291 -0.124694 0.114917
-0.0817275 -0.143245 0.1394
0.000270724 -0.134212 0.139333
0.0947835 -0.123801 0.13926
0.127375 -0.124086 0.0139783
0.127392 -0.124703 -0.00603172
-0.111569 -0.142023 0.139424
0.12747 -0.123823 -0.10492
0.127487 -0.124457 -0.126134
0.0494322 -0.120871 0.139295
0.116196 -0.113968 0.139249
0.124745 -0.114694 0.0838011
0.0725569 -0.114595 0.139277
0.127408 -0.113758 -0.026242
0.124857 -0.114844 -0.0558257
-0.0258883 -0.120221 0.139355
0.0253561 -0.11527 0.139313
0.000270724 -0.113564 0.139333
0.0947847 -0.104754 0.13926
0.124761 -0.103918 0.0644393
0.124776 -0.104429 0.0448873
0.127375 -0.104996 0.0139783
-0.111569 -0.11948 0.139424
-0.0817275 -0.1168 0.1394
-0.0531954 -0.114237 0.139377
0.124875 -0.103687 -0.0765795
0.12747 -0.104169 -0.10492
0.127487 -0.104702 -0.126134
0.0494336 -0.101056 0.139295
0.127274 -0.0943699 0.137496
0.127291 -0.0949165 0.114917
0.127392 -0.0940069 -0.00603172
0.127408 -0.0944769 -0.026242
-0.0817275 -0.103577 0.1394
-0.0258883 -0.0991293 0.139355
0.0253574 -0.0950474 0.139314
-0.111569 -0.101445 0.139424
0.0725586 -0.0874031 0.139277
0.124745 -0.0846106 0.0838011
0.124857 -0.0836997 -0.0558257
0.124875 -0.0841232 -0.0765795
0.12747 -0.0845142 -0.10492
0.127487 -0.0849471 -0.126134
0.000270724 -0.0846568 0.139333
0.0494349 -0.0812407 0.139295
0.124761 -0.0774665 0.0644393
-0.0531954 -0.084061 0.139377
-0.0258883 -0.0822562 0.139355
0.0947866 -0.0742802 0.13926
0.124776 -0.0740495 0.0448873
0.127375 -0.0744515 0.0139783
0.127392 -0.0748218 -0.00603172
0.0253589 -0.0748245 0.139314
-0.111569 -0.0789018 0.139424
-0.0817275 -0.0771318 0.1394
0.116196 -0.0653917 0.139249
0.127291 -0.0651388 0.114917
0.127408 -0.0674835 -0.026242
0.0725601 -0.0640955 0.139278
0.124857 -0.0642347 -0.0558257
0.124875 -0.0645597 -0.0765795
0.12747 -0.0648597 -0.10492
0.000270724 -0.0640088 0.139333
0.0494362 -0.0614258 0.139295
-0.0817275 -0.0639092 0.1394
-0.0258883 -0.0611649 0.139355
0.116196 -0.0541817 0.139249
0.127291 -0.0539721 0.114917
0.124745 -0.0545268 0.0838011
0.124761 -0.0547933 0.0644393
0.127487 -0.0572899 -0.126134
-0.111569 -0.0608671 0.139424
0.02536 -0.0546016 0.139314
-0.0531954 -0.0538853 0.139377
0.124776 -0.0474676 0.0448873
0.0725615 -0.0446726 0.139278
0.0947887 -0.0438062 0.139261
0.127375 -0.0439073 0.0139783
0.127392 -0.0441257 -0.00603172
0.127408 -0.0443463 -0.026242
0.124857 -0.0447696 -0.0558257
0.124875 -0.0449961 -0.0765795
0.0494374 -0.041611 0.139296
-0.0258883 -0.0400735 0.139355
0.12747 -0.0373435 -0.10492
-0.111569 -0.0383237 0.139424
-0.0817275 -0.037464 0.1394
0.000272632 -0.0351015 0.139334
0.0253614 -0.0343787 0.139314
0.127487 -0.0335837 -0.126134
0.0947897 -0.02476 0.139261
0.116196 -0.0242883 0.139249
0.127291 -0.0241944 0.114917
0.124745 -0.0244431 0.0838011
0.124761 -0.0245625 0.0644393
0.124776 -0.0246832 0.0448873
0.127375 -0.0248171 0.0139783
0.127392 -0.0249406 -0.00603172
-0.0817275 -0.0242414 0.1394
-0.0531954 -0.0237095 0.139377
0.0494388 -0.0217962 0.139296
-0.111569 -0.020289 0.139424
-0.0258883 -0.0189822 0.139355
0.0725632 -0.0174805 0.139278
0.127408 -0.0173529 -0.026242
0.000273943 -0.0144536 0.139334
0.025363 -0.0141559 0.139314
0.124857 -0.0136255 -0.0558257
0.124875 -0.0136945 -0.0765795
0.12747 -0.0137581 -0.10492
0.127487 -0.0138286 -0.126134
-0.111569 -0.00225435 0.139424
-0.0258883 -0.00210915 0.139355
0.04944 -0.00198148 0.139296
-0.0817275 0.00661127 0.1394
-0.0531954 0.00646621 0.139377
0.000275373 0.00619436 0.139334
0.0253643 0.0060668 0.139315
0.0725647 0.00582682 0.139278
0.0947919 0.00571382 0.139261
0.116196 0.00560499 0.139249
0.127291 0.00558331 0.114917
0.124745 0.00564069 0.0838011
0.124761 0.00566826 0.0644393
0.124776 0.0056961 0.0448873
0.127375 0.00572702 0.0139783
0.127392 0.00575551 -0.00603172
0.127408 0.00578428 -0.026242
0.124857 0.0058395 -0.0558257
0.124875 0.00586904 -0.0765795
0.12747 0.00589632 -0.10492
0.127487 0.00592652 -0.126134
-0.111569 0.020289 0.139424
-0.0258883 0.0189822 0.139355
0.0494413 0.0178332 0.139296
0.0253655 0.0262895 0.139315
0.0725658 0.0252496 0.139279
0.127408 0.0250653 -0.026242
0.124857 0.0253046 -0.0558257
0.124875 0.0254326 -0.0765795
0.12747 0.0255508 -0.10492
0.127487 0.0256817 -0.126134
-0.0817275 0.0330565 0.1394
-0.111569 0.0383237 0.139424
-0.0531954 0.036642 0.139377
0.0002774 0.0351014 0.139334
0.127382 0.0325176 0.00599813
0.127392 0.0326146 -0.00603172
-0.0258883 0.0400735 0.139355
0.0494428 0.0376479 0.139296
0.0947937 0.0361876 0.139262
0.116196 0.0354984 0.139249
0.127291 0.0353611 0.114917
0.124745 0.0357245 0.0838011
0.124761 0.0358991 0.0644393
0.124776 0.0360754 0.0448873
-0.0817275 0.046279 0.1394
0.0253669 0.0465122 0.139315
0.124882 0.0450874 -0.0849398
0.12747 0.0452053 -0.10492
0.127487 0.0454368 -0.126134
-0.111569 0.0608671 0.139424
0.000278831 0.0557492 0.139335
0.124854 0.0525028 -0.0517
-0.0531954 0.0625069 0.139377
-0.0258873 0.0611648 0.139355
0.0725681 0.056326 0.139279
0.0947947 0.0552336 0.139262
0.124776 0.0550625 0.0448873
0.127375 0.0553614 0.0139783
0.127392 0.0556368 -0.00603172
0.127408 0.0559149 -0.026242
0.0494443 0.0614254 0.139297
-0.0817275 0.0727243 0.1394
0.127487 0.065192 -0.126134
-0.111569 0.0789018 0.139424
-0.0531954 0.0754394 0.139377
0.116196 0.0653917 0.139249
0.127291 0.0651388 0.114917
0.124745 0.0658082 0.0838011
0.124761 0.0661299 0.0644393
-0.0258859 0.0780378 0.139355
0.00028038 0.076397 0.139335
0.0253688 0.0748238 0.139315
0.124882 0.0725319 -0.0849398
0.12747 0.0727215 -0.10492
-0.0817275 0.0859468 0.1394
0.0725691 0.0757486 0.139279
0.127401 0.0750458 -0.0181337
0.124843 0.0756092 -0.0393726
0.124861 0.0759902 -0.0599597
0.0494456 0.0812399 0.139297
0.127491 0.0850342 -0.130403
-0.111569 0.101445 0.139424
0.0947968 0.0857071 0.139262
0.124761 0.0850241 0.0644393
0.124776 0.0854417 0.0448873
0.127375 0.0859055 0.0139783
-0.0258846 0.099129 0.139355
0.0253702 0.0950464 0.139316
0.127477 0.0925647 -0.11338
-0.0531954 0.105615 0.139377
0.0725704 0.0951712 0.139279
0.124846 0.0950916 -0.0434735
0.124857 0.0953788 -0.0558257
0.124875 0.0958613 -0.0765795
0.000282168 0.105304 0.139335
0.0494468 0.101054 0.139297
0.116196 0.0952851 0.139249
0.127291 0.0949165 0.114917
0.124745 0.095892 0.0838011
-0.111569 0.11948 0.139424
-0.0817275 0.1168 0.1394
0.127382 0.105204 0.00599813
0.127392 0.105518 -0.00603172
-0.0258832 0.12022 0.139355
0.0253717 0.115269 0.139316
0.127291 0.106083 0.114917
0.127487 0.112604 -0.126134
0.124868 0.115192 -0.0682528
0.126173 0.115633 -0.0886177
0.127473 0.11608 -0.109146
-0.111569 0.137515 0.139424
0.000283599 0.125951 0.139335
0.049448 0.120869 0.139297
0.0947987 0.116181 0.139262
0.124761 0.115255 0.0644393
0.12607 0.115905 0.0373719
-0.0531954 0.135791 0.139377
-0.0817275 0.143245 0.1394
0.0725724 0.126247 0.13928
0.127408 0.125327 -0.026242
0.12743 0.12621 -0.0548784
-0.0258815 0.141311 0.139356
0.0253727 0.135491 0.139316
0.116196 0.125178 0.139249
0.127307 0.125299 0.0959009
0.127316 0.125665 0.0844026
0.127494 0.132631 -0.13468
0.127395 0.132509 -0.0100576
0.127456 0.135065 -0.0881042
0.127473 0.135754 -0.109146
-0.111569 0.160058 0.139424
-0.0817275 0.156467 0.1394
0.000285029 0.146599 0.139336
0.0494497 0.140683 0.139298
0.0947999 0.135226 0.139263
0.127365 0.135139 0.0258894
0.127375 0.13554 0.0139783
-0.0258805 0.158184 0.139356
0.0725735 0.14567 0.13928
0.127418 0.145043 -0.0384655
0.127434 0.145774 -0.0590023
-0.0531946 0.165967 0.139377
0.0253743 0.155714 0.139316
0.127332 0.145126 0.0650888
0.127348 0.145839 0.0455853
-0.111569 0.178093 0.139424
0.12747 0.15527 -0.10492
0.127487 0.156066 -0.126134
0.0494508 0.160498 0.139298
0.127385 0.155091 0.00199616
0.127401 0.155864 -0.0181337
-0.0817275 0.182913 0.1394
0.116196 0.155072 0.139249
0.127291 0.154472 0.114917
-0.0258788 0.179275 0.139356
0.000287294 0.175506 0.139336
0.0725751 0.165092 0.13928
0.12743 0.165044 -0.0548784
0.127447 0.165879 -0.0755816
0.0253757 0.175936 0.139317
0.0948019 0.1657 0.139263
0.12731 0.16286 0.0920756
0.127362 0.165429 0.0298441
-0.111569 0.200636 0.139424
-0.0817275 0.196135 0.1394
0.127291 0.165639 0.114917
0.127473 0.175103 -0.109146
0.127491 0.176001 -0.130403
-0.0531925 0.196142 0.139377
0.0494522 0.180312 0.139298
0.127401 0.175107 -0.0181337
0.127332 0.175282 0.0650888
-0.0258775 0.200366 0.139356
0.000288486 0.196153 0.139336
0.127274 0.175787 0.137496
0.127447 0.185394 -0.0755816
-0.111569 0.218671 0.139424
0.0253769 0.196158 0.139317
0.127345 0.183539 0.0495013
0.127378 0.185358 0.00999215
0.127307 0.185143 0.0959009
0.126149 0.192659 -0.0594802
0.12748 0.195176 -0.117622
-0.0817275 0.22258 0.1394
0.0494535 0.200126 0.139298
0.072577 0.196168 0.13928
0.126132 0.195566 -0.0389183
0.0948036 0.196173 0.139263
0.12606 0.195133 0.0491573
0.127362 0.195853 0.0298441
-0.0531904 0.226317 0.139378
-0.025876 0.221457 0.139356
0.116196 0.196175 0.139249
0.124868 0.205002 -0.0682528
0.124886 0.206043 -0.0891327
-0.111569 0.241214 0.139424
-0.0817275 0.235803 0.1394
0.0253786 0.216381 0.139317
0.127392 0.20528 -0.00603172
0.000290394 0.225059 0.139336
0.127289 0.202665 0.118698
0.124748 0.205145 0.0799438
0.127487 0.215331 -0.126134
0.0494547 0.21994 0.139298
0.0725782 0.21559 0.139281
0.124843 0.215196 -0.0393726
-0.0258746 0.238329 0.139357
0.0948051 0.215218 0.139264
0.127368 0.215292 0.0219269
0.127477 0.222549 -0.11338
-0.111569 0.259249 0.139424
0.124736 0.215598 0.095328
0.124879 0.225209 -0.0807554
-0.0531881 0.256492 0.139378
0.000291944 0.245707 0.139337
0.124764 0.225062 0.0605442
0.125619 0.225986 0.0411848
0.127491 0.235327 -0.130403
-0.0817275 0.266656 0.1394
0.0253804 0.244692 0.139317
0.049456 0.239755 0.139299
0.0725795 0.235013 0.139281
0.116196 0.226069 0.139249
0.127398 0.232602 -0.0140916
0.124857 0.235527 -0.0558257
-0.0258733 0.25942 0.139357
0.127378 0.235041 0.00999215
-0.111569 0.281792 0.139424
0.124745 0.235029 0.0838011
0.124846 0.242581 -0.0434735
0.124882 0.24504 -0.0849398
0.12747 0.245681 -0.10492
0.000293255 0.266354 0.139337
0.0948069 0.245691 0.139264
0.12607 0.245111 0.0373719
0.127491 0.255103 -0.130403
0.0253816 0.264914 0.139318
0.0494574 0.259569 0.139299
0.127291 0.243805 0.114917
0.124864 0.255507 -0.0641021
-0.111569 0.299827 0.139424
-0.081726 0.2931 0.1394
-0.0531861 0.286667 0.139378
-0.0258718 0.280511 0.139357
0.127392 0.255162 -0.00603172
0.124764 0.255322 0.0605442
0.126182 0.265393 -0.101233
0.0725814 0.266088 0.139281
0.116196 0.255962 0.139249
0.127411 0.264414 -0.0303083
-0.0817251 0.306323 0.139401
0.127375 0.265353 0.0139783
-0.111569 0.317862 0.139424
0.025383 0.285136 0.139318
0.0494587 0.279383 0.139299
0.127294 0.26267 0.111129
0.124739 0.264598 0.0914931
0.124864 0.275011 -0.0641021
0.124875 0.275846 -0.0765795
-0.0258703 0.301601 0.139357
0.000295281 0.29526 0.139337
0.127401 0.275168 -0.0181337
0.127491 0.282788 -0.130403
-0.0531843 0.312532 0.139379
0.0948088 0.276164 0.139264
0.124776 0.275312 0.0448873
0.126182 0.285052 -0.101233
0.0725828 0.285511 0.139281
0.124846 0.285275 -0.0434735
0.127385 0.28529 0.00199616
-0.111569 0.340405 0.139424
-0.0817232 0.332767 0.139401
-0.0531832 0.325464 0.139379
-0.0258691 0.318474 0.139358
0.0253843 0.305358 0.139318
0.0494598 0.299197 0.139299
0.124736 0.283089 0.095328
0.124745 0.283916 0.0838011
0.124761 0.285303 0.0644393
0.124879 0.295709 -0.0807554
0.000296831 0.315907 0.139337
0.116196 0.285855 0.139249
0.127491 0.302564 -0.130403
0.09481 0.29521 0.139264
0.127368 0.295312 0.0219268
-0.0817223 0.34599 0.139401
0.124745 0.295197 0.0838011
0.124857 0.305601 -0.0558257
-0.111569 0.35844 0.139424
0.127291 0.295916 0.114917
0.127392 0.305043 -0.00603172
0.126182 0.312574 -0.101233
-0.0258676 0.339564 0.139358
0.0253859 0.32558 0.139318
0.0494614 0.319011 0.1393
0.0725845 0.312702 0.139282
0.124776 0.305692 0.0448873
0.124879 0.315292 -0.0807554
0.000298023 0.336555 0.139338
0.127408 0.31428 -0.026242
0.127494 0.32267 -0.13468
-0.0531811 0.355639 0.139379
0.127274 0.305314 0.137496
0.127382 0.315612 0.00599813
0.124761 0.315534 0.0644393
0.124857 0.325066 -0.0558257
-0.111569 0.380983 0.139424
0.127297 0.315136 0.107333
0.127408 0.325849 -0.026242
0.127477 0.332839 -0.11338
-0.08172 0.376842 0.139401
-0.0258663 0.360655 0.139358
0.0253872 0.345802 0.139318
0.0494624 0.338825 0.1393
0.0948119 0.325682 0.139265
0.127362 0.325154 0.0298441
0.124886 0.335555 -0.0891327
0.0725859 0.336008 0.139282
0.124745 0.325281 0.0838011
0.127398 0.332564 -0.0140916
0.12748 0.345008 -0.117622
-0.111569 0.399018 0.139424
0.00030005 0.365461 0.139338
0.124767 0.335083 0.0566415
0.124868 0.345575 -0.0682528
-0.0531789 0.385813 0.139379
-0.025865 0.377527 0.139358
0.116196 0.334432 0.139249
0.127411 0.345475 -0.0303083
0.0253885 0.366024 0.139319
0.049464 0.358639 0.1393
0.127375 0.345531 0.0139783
0.124886 0.355178 -0.0891327
-0.0817182 0.403286 0.139402
0.0725874 0.35543 0.139282
0.124736 0.343082 0.095328
0.116196 0.345642 0.139249
0.127395 0.355278 -0.0100577
0.127487 0.36547 -0.126134
-0.111567 0.421561 0.139425
0.00030148 0.386108 0.139338
0.0948139 0.356155 0.139265
0.125619 0.35512 0.0411848
0.12485 0.363265 -0.0475827
0.124868 0.365099 -0.0682528
-0.0817171 0.416508 0.139402
-0.0258633 0.398618 0.139358
0.124745 0.355365 0.0838011
0.0253898 0.386246 0.139319
0.0494652 0.378453 0.1393
0.127291 0.355472 0.114917
0.127382 0.365345 0.00599813
0.12489 0.375182 -0.0933342
-0.0531768 0.415988 0.13938
0.124764 0.365016 0.0605442
0.126129 0.373331 -0.0348307
-0.111566 0.439595 0.139425
0.127473 0.383653 -0.109146
0.127491 0.38562 -0.130403
0.072589 0.382621 0.139283
0.0948151 0.3752 0.139265
0.12485 0.382691 -0.0475827
-0.025862 0.419708 0.139359
0.127398 0.382544 -0.0140916
-0.0817151 0.442952 0.139402
0.000303745 0.415013 0.139339
0.0253912 0.406467 0.139319
0.0494665 0.398266 0.1393
0.116196 0.375535 0.139249
0.127365 0.382575 0.0258894
0.124871 0.39283 -0.072412
0.126182 0.39514 -0.101233
-0.111565 0.457629 0.139425
0.124773 0.385059 0.048813
0.126129 0.392674 -0.0348307
0.126016 0.383109 0.103253
0.124745 0.385448 0.0838011
0.127494 0.405812 -0.13468
-0.0817142 0.456174 0.139402
-0.0531744 0.446162 0.13938
0.127378 0.395557 0.00999215
0.124854 0.402521 -0.0517
0.124879 0.405375 -0.0807554
-0.0258605 0.440799 0.139359
0.0725906 0.405927 0.139283
0.000304937 0.43566 0.139339
0.0494679 0.41808 0.139301
0.127392 0.404805 -0.00603172
0.127477 0.415556 -0.11338
0.0948169 0.405673 0.139266
0.127283 0.395271 0.126239
0.127362 0.405016 0.0298441
0.124861 0.415024 -0.0599597
0.0253931 0.434778 0.139319
0.124736 0.403074 0.095328
0.124751 0.405039 0.076079
0.127411 0.414957 -0.0303083
0.127491 0.425171 -0.130403
-0.0258592 0.457671 0.139359
0.127385 0.415489 0.00199616
0.126173 0.425295 -0.0886177
0.0725917 0.425349 0.139283
0.124761 0.413784 0.0644393
0.000306487 0.456307 0.139339
0.049469 0.437894 0.139301
0.127291 0.415027 0.114917
0.0253946 0.454999 0.13932
0.127408 0.433823 -0.026242
0.127473 0.442676 -0.109146
0.116199 0.424111 0.139249
0.127372 0.432917 0.0179565
0.127444 0.442547 -0.0714242
0.0948189 0.436145 0.139266
0.127342 0.432879 0.0534096
0.127427 0.4442 -0.0507629
0.127491 0.452857 -0.130403
0.0494704 0.457707 0.139301
0.127313 0.432841 0.0882428
0.127329 0.434954 0.0689666
0.127389 0.442735 -0.00201374
0.127411 0.445837 -0.0303083
0.12746 0.452634 -0.0922954
0.0725935 0.452539 0.139283
0.1162 0.43532 0.139249
0.127348 0.445093 0.0455853
0.127427 0.455839 -0.0507629
0.127477 0.462823 -0.11338
0.127395 0.455139 -0.0100577
0.0948203 0.45519 0.139266
0.127291 0.444805 0.114917
0.127358 0.454007 0.033791
