ply
format ascii 1.0
comment Created by Open3D
element vertex 1175
property double x
property double y
property double z
end_header
0.0127515 -0.459556 0.138483
0.0344913 -0.453482 0.13845
0.0451472 -0.450504 0.138433
0.0660445 -0.444665 0.138401
0.0864069 -0.438975 0.138369
0.106255 -0.433429 0.138338
0.125608 -0.428022 0.138308
0.144856 -0.427665 0.122296
0.144891 -0.434718 0.0998177
0.144918 -0.440163 0.0824659
0.144955 -0.447638 0.0586426
0.144992 -0.455371 0.0339959
0.145032 -0.459499 0.00848293
-0.0152563 -0.45956 0.138527
0.144992 -0.443939 0.0339959
0.145062 -0.45778 -0.0112485
-0.0442346 -0.459564 0.138572
0.145093 -0.459996 -0.0315143
-0.056109 -0.458764 0.13859
0.00722522 -0.441807 0.138492
0.0451472 -0.431654 0.138433
0.0813653 -0.421958 0.138377
0.111139 -0.413987 0.138331
0.139808 -0.406311 0.138286
0.144954 -0.428909 0.0586417
-0.00957876 -0.442408 0.138518
0.0344913 -0.430713 0.13845
0.123686 -0.421014 0.0914905
0.145032 -0.440111 0.00848293
0.145125 -0.458236 -0.0523365
-0.0865328 -0.458753 0.138638
-0.0325236 -0.444546 0.138554
0.145062 -0.442062 -0.0112485
-0.105311 -0.459571 0.138667
0.144483 -0.394446 0.138279
0.11999 -0.421013 0.0694799
0.144992 -0.424887 0.033995
0.145157 -0.456427 -0.0737385
-0.0501511 -0.441198 0.138581
0.102461 -0.421013 0.0721006
0.145093 -0.440083 -0.0315142
0.14518 -0.456571 -0.0883404
-0.130994 -0.457905 0.138701
-0.0681502 -0.441813 0.138609
0.0127515 -0.4211 0.138483
0.0504228 -0.411454 0.138425
0.0864069 -0.402241 0.138369
0.107554 -0.421013 0.05433
0.145125 -0.442087 -0.0523365
-0.0927477 -0.444019 0.138647
0.115992 -0.391062 0.138323
0.124319 -0.421013 0.0259179
0.141685 -0.421013 0.010447
0.145157 -0.444147 -0.0737385
0.145226 -0.456865 -0.118381
-0.0325236 -0.424789 0.138554
0.085893 -0.421012 0.0464238
0.10342 -0.421012 0.030809
0.123868 -0.421013 0.0125917
0.145061 -0.422415 -0.0112495
0.14518 -0.444175 -0.0883404
-0.118057 -0.442137 0.138686
0.0291104 -0.405489 0.138458
-0.0501511 -0.421234 0.138581
-0.00957876 -0.411225 0.138518
0.07234 -0.421011 0.0302625
0.0931759 -0.421012 0.0117
0.114012 -0.421012 -0.00686258
0.131871 -0.421012 -0.0227734
0.145103 -0.422075 -0.0383933
0.145226 -0.444233 -0.118381
-0.0681502 -0.421639 0.138609
0.0127515 -0.401871 0.138483
0.0556639 -0.391386 0.138417
0.145135 -0.42384 -0.059406
-0.0865328 -0.422053 0.138638
0.0864069 -0.3802 0.138369
0.120815 -0.371873 0.138316
0.139808 -0.367277 0.138286
0.0643314 -0.421011 0.00807071
0.0825357 -0.421011 -0.00814772
0.103774 -0.421011 -0.0270689
0.115911 -0.421012 -0.0378811
0.11842 -0.421011 -0.0552087
0.145179 -0.423516 -0.0883415
-0.118057 -0.421379 0.138686
0.0291104 -0.386452 0.138458
0.0405378 -0.42101 -0.00121438
0.059101 -0.42101 -0.0177521
0.077664 -0.421011 -0.0342899
0.0931333 -0.421011 -0.0480713
0.13026 -0.421011 -0.0811469
-0.0501511 -0.40127 0.138581
-0.0325236 -0.397128 0.138554
-0.00957876 -0.391736 0.138518
0.0423469 -0.42101 -0.0185221
0.0642194 -0.42101 -0.038008
0.0985904 -0.421011 -0.068629
0.132962 -0.421011 -0.09925
-0.0681502 -0.401465 0.138609
0.0608711 -0.371448 0.138409
0.144848 -0.354651 0.127802
0.0441921 -0.42101 -0.0361779
0.0725965 -0.42101 -0.0614831
0.110469 -0.421011 -0.0952234
0.135717 -0.421011 -0.117717
-0.0865328 -0.401664 0.138638
0.0914164 -0.360679 0.138361
0.0173824 -0.421009 -0.0286298
0.0524511 -0.42101 -0.0598724
0.0779558 -0.42101 -0.0825943
0.122589 -0.421011 -0.122358
-0.105311 -0.401867 0.138667
0.115992 -0.351415 0.138323
0.0190094 -0.421009 -0.0467514
0.0576587 -0.42101 -0.0811837
0.0737627 -0.42101 -0.0955306
0.0930873 -0.42101 -0.112747
-0.0267283 -0.380014 0.138545
0.00722522 -0.372353 0.138492
0.0291104 -0.367415 0.138458
0.00114554 -0.421009 -0.0478539
0.0206704 -0.421009 -0.0652485
0.0401952 -0.421009 -0.082643
0.0945829 -0.419631 -0.125661
-0.0501511 -0.381307 0.138581
-0.00957876 -0.372247 0.138518
0.00263667 -0.421008 -0.0665562
0.038807 -0.421009 -0.0987802
0.0585365 -0.421009 -0.116357
-0.0681502 -0.381291 0.138609
-0.0157787 -0.421008 -0.0678916
0.0108054 -0.421008 -0.0915752
0.0407125 -0.421009 -0.118219
-0.130994 -0.390997 0.138701
-0.0865328 -0.381275 0.138638
0.0451472 -0.352486 0.138433
0.0711845 -0.346794 0.138393
0.0914164 -0.342371 0.138361
-0.0144365 -0.421008 -0.0872081
0.0090732 -0.421008 -0.108153
0.115269 -0.402062 -0.125693
0.140489 -0.396549 -0.125731
-0.105311 -0.381259 0.138667
0.120815 -0.332351 0.138316
0.144483 -0.327231 0.138279
-0.0334345 -0.421007 -0.0887956
-0.00627577 -0.421008 -0.112991
0.012682 -0.419951 -0.125535
0.0945829 -0.402237 -0.125661
-0.0267283 -0.360324 0.138545
0.0127515 -0.351878 0.138483
0.0344913 -0.347226 0.13845
-0.035688 -0.421007 -0.105705
0.0734259 -0.402415 -0.125628
-0.0501511 -0.361343 0.138581
-0.0280591 -0.419492 -0.125473
0.14525 -0.384744 -0.133835
-0.0742345 -0.36239 0.138619
-0.0613977 -0.421006 -0.121903
0.0352194 -0.401614 -0.12557
0.130484 -0.381678 -0.125716
-0.130994 -0.370088 0.138701
-0.0865328 -0.360886 0.138638
0.0556639 -0.331461 0.138417
0.012682 -0.401791 -0.125535
0.110141 -0.381623 -0.125685
-0.111661 -0.361949 0.138677
-0.0152563 -0.342225 0.138527
0.0398368 -0.330953 0.138441
0.0864069 -0.321425 0.138369
-0.0103911 -0.401972 -0.1255
0.0893384 -0.381567 -0.125653
0.0182408 -0.331539 0.138475
0.115992 -0.311768 0.138323
0.139808 -0.306951 0.138286
-0.0340193 -0.402157 -0.125464
0.0680612 -0.38151 -0.12562
-0.0501511 -0.341379 0.138581
-0.00393957 -0.332141 0.138509
-0.0582225 -0.402346 -0.125427
0.046293 -0.381451 -0.125587
0.14525 -0.363488 -0.133835
-0.0742345 -0.342145 0.138619
0.0240163 -0.381391 -0.125553
0.120369 -0.362354 -0.125701
-0.0865328 -0.340497 0.138638
0.0608711 -0.311717 0.138409
-0.00457162 -0.38246 -0.125509
0.099798 -0.362082 -0.125669
-0.111661 -0.341267 0.138677
0.10134 -0.300178 0.138346
0.144848 -0.294057 0.127802
-0.0280591 -0.38241 -0.125473
0.0787601 -0.361804 -0.125637
-0.130994 -0.340815 0.138701
-0.0267283 -0.320945 0.138545
0.0813653 -0.300346 0.138377
-0.0521166 -0.38236 -0.125436
0.0572395 -0.36152 -0.125604
-0.0501511 -0.321415 0.138581
0.00166172 -0.311663 0.138501
0.0291104 -0.306496 0.138458
0.0296342 -0.36228 -0.125561
-0.0742345 -0.3219 0.138619
0.115992 -0.286538 0.138323
0.00696462 -0.361994 -0.125527
0.115269 -0.341861 -0.125693
0.140489 -0.337172 -0.125731
-0.0865328 -0.320108 0.138638
-0.0162453 -0.361701 -0.125491
0.0893384 -0.34232 -0.125653
-0.118057 -0.321743 0.138686
0.0451472 -0.292168 0.138433
0.10134 -0.281985 0.138346
-0.0460476 -0.362494 -0.125445
0.0680612 -0.341815 -0.12562
-0.0267283 -0.301255 0.138545
0.0344913 -0.290304 0.13845
0.0813653 -0.281919 0.138377
0.120815 -0.274863 0.138316
0.0407722 -0.342286 -0.125578
0.140489 -0.324449 -0.125731
-0.0501511 -0.301452 0.138581
0.00166172 -0.292305 0.138501
0.144483 -0.267092 0.138279
0.0183659 -0.341767 -0.125544
-0.0742345 -0.301654 0.138619
-0.0103911 -0.34225 -0.1255
0.104984 -0.322152 -0.125677
0.115269 -0.32036 -0.125693
-0.0865328 -0.299719 0.138638
-0.0340193 -0.341717 -0.125464
0.0787601 -0.322334 -0.125637
-0.124501 -0.302078 0.138694
0.0504228 -0.272424 0.138425
-0.0643657 -0.342212 -0.125417
0.0572395 -0.321597 -0.125604
-0.0267283 -0.281565 0.138545
0.0344913 -0.27133 0.13845
0.10134 -0.260154 0.138346
0.144848 -0.25485 0.127802
0.0296342 -0.321777 -0.125561
0.14525 -0.303969 -0.133835
-0.056109 -0.28247 0.13859
0.00722522 -0.27203 0.138492
0.0813653 -0.259808 0.138377
0.00121349 -0.321961 -0.125518
0.120369 -0.302319 -0.125701
-0.0803618 -0.282405 0.138628
-0.0280591 -0.322152 -0.125473
0.0945829 -0.302221 -0.125661
0.115992 -0.246892 0.138323
-0.0582225 -0.322348 -0.125427
0.0680612 -0.30212 -0.12562
-0.130994 -0.28227 0.138701
-0.111661 -0.279218 0.138677
0.0407722 -0.302017 -0.125578
-0.0267283 -0.261875 0.138545
0.0236937 -0.254035 0.138466
0.0451472 -0.250699 0.138433
0.10134 -0.241961 0.138346
0.012682 -0.301911 -0.125535
0.0762913 -0.242159 0.138385
-0.0162453 -0.301801 -0.125491
0.110141 -0.282444 -0.125685
0.130484 -0.279328 -0.125716
0.145238 -0.277126 -0.126071
-0.099007 -0.2649 0.138657
-0.0803618 -0.262088 0.138628
-0.0621085 -0.259335 0.1386
-0.00393957 -0.250562 0.138509
-0.0460476 -0.301688 -0.125445
0.0840642 -0.282065 -0.125645
0.125608 -0.227443 0.138308
0.051782 -0.282485 -0.125595
-0.130994 -0.261361 0.138701
0.0240163 -0.282094 -0.125553
-0.0267283 -0.242185 0.138545
0.0236937 -0.234934 0.138466
0.0451472 -0.231849 0.138433
-0.00457162 -0.281692 -0.125509
0.130484 -0.26227 -0.125716
0.0914164 -0.221534 0.138361
0.139808 -0.214688 0.138286
-0.0400152 -0.282126 -0.125454
-0.0221345 -0.279596 -0.125482
0.099798 -0.262347 -0.125669
0.14525 -0.257205 -0.133835
-0.099007 -0.244365 0.138657
-0.0803618 -0.241771 0.138628
-0.0621085 -0.239232 0.1386
-0.00957876 -0.231923 0.138518
0.0660445 -0.221402 0.138401
0.111139 -0.215128 0.138331
-0.0643657 -0.28085 -0.125417
0.0680612 -0.262426 -0.12562
0.0407722 -0.261748 -0.125578
-0.130994 -0.240453 0.138701
0.00696462 -0.261819 -0.125527
0.140489 -0.243867 -0.125731
-0.0267283 -0.222495 0.138545
0.106255 -0.204927 0.138338
-0.0280591 -0.261893 -0.125473
-0.0103911 -0.259559 -0.1255
0.120369 -0.242284 -0.125701
0.0344913 -0.210613 0.13845
0.0451472 -0.20923 0.138433
-0.0643657 -0.26197 -0.125417
0.0893384 -0.242023 -0.125653
-0.0865328 -0.222241 0.138638
-0.0742345 -0.220673 0.138619
-0.00957876 -0.212434 0.138518
0.0127515 -0.209588 0.138483
0.0864069 -0.200202 0.138369
0.130371 -0.1946 0.138301
0.051782 -0.242448 -0.125595
0.0734259 -0.23969 -0.125628
-0.118057 -0.222106 0.138686
0.0660445 -0.199076 0.138401
0.0183659 -0.24218 -0.125544
-0.0162453 -0.241902 -0.125491
-0.00457162 -0.240469 -0.125509
-0.0501511 -0.205626 0.138581
-0.0582225 -0.242349 -0.125427
-0.0400152 -0.240156 -0.125454
0.110141 -0.222074 -0.125685
0.130484 -0.219625 -0.125716
0.0344913 -0.191639 0.13845
0.0734259 -0.222098 -0.125628
0.0945829 -0.219599 -0.125661
0.14525 -0.214691 -0.133835
-0.0865328 -0.201852 0.138638
-0.0742345 -0.200428 0.138619
-0.0325236 -0.1956 0.138554
-0.00393957 -0.192292 0.138509
0.0451472 -0.18661 0.138433
0.0813653 -0.182418 0.138377
0.0352194 -0.222122 -0.12557
-0.124501 -0.20208 0.138694
0.10134 -0.176468 0.138346
-0.00457162 -0.222147 -0.125509
0.0240163 -0.218905 -0.125553
-0.0460476 -0.222174 -0.125445
-0.0340193 -0.220838 -0.125464
-0.0501511 -0.185662 0.138581
-0.0209727 -0.18249 0.138536
0.120815 -0.167074 0.138316
0.139808 -0.165008 0.138286
0.0945829 -0.202205 -0.125661
0.115269 -0.199956 -0.125693
0.0236937 -0.173813 0.138466
0.0556639 -0.170412 0.138417
0.051782 -0.202411 -0.125595
0.0734259 -0.200108 -0.125628
0.14525 -0.193435 -0.133835
-0.0865328 -0.181462 0.138638
-0.0742345 -0.180183 0.138619
0.00166172 -0.172286 0.138501
0.012682 -0.202031 -0.125535
-0.130994 -0.181908 0.138701
-0.111661 -0.179941 0.138677
0.0762913 -0.160823 0.138385
-0.0340193 -0.202241 -0.125464
-0.0103911 -0.199837 -0.1255
0.0963939 -0.155128 0.138354
-0.0643657 -0.200607 -0.125417
0.0296342 -0.191266 -0.125561
0.120369 -0.182249 -0.125701
-0.0501511 -0.165699 0.138581
-0.0152563 -0.162313 0.138527
0.139808 -0.147266 0.138286
0.0787601 -0.181998 -0.125637
0.099798 -0.179957 -0.125669
0.0236937 -0.154713 0.138466
0.0556639 -0.151685 0.138417
0.120815 -0.145516 0.138316
0.051782 -0.180168 -0.125595
-0.0865328 -0.161073 0.138638
-0.0742345 -0.159938 0.138619
-0.0162453 -0.182002 -0.125491
-0.00457162 -0.180924 -0.125509
0.145238 -0.167122 -0.126071
-0.130994 -0.160999 0.138701
-0.111661 -0.159258 0.138677
-0.00393957 -0.14956 0.138509
0.0762913 -0.142338 0.138385
-0.0643657 -0.181727 -0.125417
-0.0400152 -0.179534 -0.125454
0.130484 -0.164185 -0.125716
0.0963939 -0.136878 0.138354
0.0240163 -0.169257 -0.125553
0.104984 -0.162157 -0.125677
-0.0501511 -0.145735 0.138581
0.051782 -0.162373 -0.125595
0.0734259 -0.160526 -0.125628
0.145238 -0.154429 -0.126071
-0.0267283 -0.139798 0.138545
0.0451472 -0.133832 0.138433
0.125608 -0.127153 0.138308
0.00121349 -0.162122 -0.125518
-0.0865328 -0.140684 0.138638
-0.0742345 -0.139692 0.138619
0.0344913 -0.130921 0.13845
-0.0582225 -0.16235 -0.125427
-0.0400152 -0.160882 -0.125454
-0.0221345 -0.159439 -0.125482
-0.130994 -0.14009 0.138701
-0.111661 -0.138575 0.138677
-0.00393957 -0.130137 0.138509
0.0660445 -0.124655 0.138401
0.0240163 -0.151203 -0.125553
0.120369 -0.143655 -0.125701
0.0864069 -0.119387 0.138369
0.144483 -0.114973 0.138279
0.0840642 -0.142126 -0.125645
0.104984 -0.140536 -0.125677
-0.0501511 -0.125771 0.138581
0.106255 -0.114251 0.138338
0.144857 -0.112732 0.122297
0.0352194 -0.14135 -0.12557
0.0572395 -0.139728 -0.125604
0.1355 -0.133964 -0.125724
-0.0267283 -0.120108 0.138545
0.0451472 -0.114982 0.138433
0.144891 -0.110953 0.0998177
0.144918 -0.112343 0.0824659
-0.0103911 -0.140116 -0.1255
-0.118057 -0.12247 0.138686
-0.0865328 -0.120295 0.138638
-0.0742345 -0.119447 0.138619
0.0344913 -0.111947 0.13845
0.144955 -0.110505 0.0586426
0.144992 -0.112414 0.0339959
-0.00393957 -0.110714 0.138509
0.0914164 -0.104359 0.138361
0.145032 -0.110512 0.00848293
0.145062 -0.111989 -0.0112485
0.145093 -0.109523 -0.0315142
0.145125 -0.111026 -0.0523365
0.145158 -0.112572 -0.0737382
-0.0501511 -0.105808 0.138581
0.125608 -0.094917 0.138308
0.144857 -0.0948378 0.122297
0.14518 -0.109494 -0.0883404
-0.099007 -0.104728 0.138657
-0.0267283 -0.100418 0.138545
0.0660445 -0.0948867 0.138401
0.145226 -0.107374 -0.11838
-0.130994 -0.102454 0.138701
-0.0742345 -0.0992018 0.138619
0.144891 -0.0891263 0.0998177
0.144918 -0.0902425 0.0824659
0.144955 -0.0917751 0.0586426
-0.00957876 -0.0916 0.138518
0.0127515 -0.0903729 0.138483
0.0344913 -0.0891784 0.13845
0.106255 -0.085235 0.138338
0.144992 -0.08955 0.0339959
0.145032 -0.0911243 0.00848293
0.145062 -0.0923418 -0.0112485
0.0451472 -0.0848229 0.138433
0.145093 -0.0896096 -0.0315142
0.145125 -0.0908398 -0.0523365
0.145226 -0.0947416 -0.11838
-0.0501511 -0.0858439 0.138581
0.14518 -0.088835 -0.0883404
-0.099007 -0.084193 0.138657
-0.0267283 -0.0807284 0.138545
0.0864069 -0.0753054 0.138369
0.106255 -0.074354 0.138338
0.145158 -0.0839171 -0.0737382
-0.130994 -0.0815448 0.138701
-0.0742345 -0.0789565 0.138619
0.0236937 -0.0744914 0.138466
0.144874 -0.0703571 0.111149
0.144909 -0.0715271 0.0882979
0.144936 -0.0724305 0.0706545
-0.0501511 -0.0738657 0.138581
-0.00393957 -0.0718667 0.138509
0.130371 -0.0660568 0.138301
0.144973 -0.0698931 0.0464248
0.144992 -0.0704968 0.0339959
0.145032 -0.0717361 0.00848293
0.0660445 -0.0651183 0.138401
0.0864069 -0.0642851 0.138369
0.145061 -0.0687652 -0.0112495
0.145093 -0.0696964 -0.0315142
0.145125 -0.0706532 -0.0523365
0.14518 -0.0723075 -0.0883404
0.145226 -0.0736879 -0.11838
-0.099007 -0.0636581 0.138657
-0.0267283 -0.0610385 0.138545
0.144483 -0.0548334 0.138279
0.145157 -0.0634496 -0.0737395
-0.130994 -0.0606359 0.138701
-0.0742345 -0.0587113 0.138619
0.0451472 -0.0546637 0.138433
0.0660445 -0.0539552 0.138401
0.0875418 -0.0564262 0.0544369
0.113658 -0.0564268 0.0311548
0.133971 -0.0564273 0.013046
-0.0501511 -0.053902 0.138581
-0.00393957 -0.0524433 0.138509
0.0344913 -0.0512301 0.13845
0.034684 -0.0564275 -0.00814521
0.0533846 -0.056428 -0.0248171
0.075202 -0.0564285 -0.0442682
0.0939029 -0.056429 -0.0609409
0.112604 -0.0564294 -0.0776135
0.125072 -0.0564298 -0.0887291
0.106255 -0.0453378 0.138338
-0.0266252 -0.0564285 -0.0807337
-0.0064292 -0.0564291 -0.0987407
0.0137672 -0.0564296 -0.116748
0.0296342 -0.0562547 -0.125561
0.051782 -0.0556073 -0.125595
0.0734259 -0.0549747 -0.125628
0.0945829 -0.0543563 -0.125661
0.115269 -0.0537517 -0.125693
0.1355 -0.0531603 -0.125724
-0.0643657 -0.054282 -0.125417
-0.0400152 -0.0536272 -0.125454
-0.0221345 -0.0531464 -0.125482
-0.0681502 -0.0423657 0.138609
-0.0267283 -0.0413487 0.138545
-0.130994 -0.039727 0.138701
-0.111661 -0.0392974 0.138677
-0.0865328 -0.0387392 0.138638
0.0864069 -0.0348976 0.138369
0.106255 -0.0344567 0.138338
0.00121349 -0.0433849 -0.125518
-0.0501511 -0.0339383 0.138581
0.0344913 -0.032256 0.13845
0.0556639 -0.0318352 0.138417
-0.00393957 -0.0291351 0.138509
0.130371 -0.0267798 0.138301
-0.0400152 -0.0349742 -0.125454
-0.0221345 -0.0346607 -0.125482
0.0240163 -0.0338513 -0.125553
0.0352194 -0.0336548 -0.12557
0.0572395 -0.0332687 -0.125604
-0.0865328 -0.0224279 0.138638
-0.0742345 -0.0222698 0.138619
-0.0267283 -0.0216588 0.138545
-0.0643657 -0.0259609 -0.125417
0.0840642 -0.024052 -0.125645
0.104984 -0.023783 -0.125677
0.115269 -0.0236507 -0.125693
0.1355 -0.0233905 -0.125724
-0.130994 -0.018818 0.138701
-0.111661 -0.0186145 0.138677
-0.0501511 -0.0139746 0.138581
0.00121349 -0.0159839 -0.125518
-0.00393957 -0.00971172 0.138509
0.0344913 -0.00948707 0.13845
0.0556639 -0.0093633 0.138417
0.0762913 -0.00924272 0.138385
0.0963939 -0.00547513 0.138354
0.115992 -0.00540639 0.138323
0.135104 -0.00533936 0.138294
-0.0643657 -0.00708027 -0.125417
-0.0400152 -0.00699486 -0.125454
-0.0221345 -0.00693214 -0.125482
0.0240163 -0.00677027 -0.125553
0.0352194 -0.00673098 -0.12557
0.0572395 -0.00665374 -0.125604
-0.130994 -0.00209091 0.138701
-0.111661 -0.0020683 0.138677
-0.0865328 -0.00203892 0.138638
-0.0742345 -0.00202454 0.138619
-0.0267283 -0.001969 0.138545
-0.0501511 0.00598909 0.138581
0.0236937 0.00573009 0.138466
0.0451472 0.00565484 0.138433
0.0660445 0.00558155 0.138401
0.0864069 0.00551013 0.138369
0.106255 0.00544052 0.138338
0.125608 0.00537264 0.138308
-0.0643657 0.00708023 -0.125417
-0.0400152 0.00699483 -0.125454
-0.0221345 0.00693211 -0.125482
0.00121349 0.00685022 -0.125518
0.0240163 0.00677024 -0.125553
0.0352194 0.00673095 -0.12557
0.0572395 0.00665371 -0.125604
0.0840642 0.00655963 -0.125645
0.104984 0.00648625 -0.125677
0.115269 0.00645018 -0.125693
0.1355 0.00637922 -0.125724
-0.00393957 0.00971172 0.138509
-0.130994 0.018818 0.138701
-0.111661 0.0186145 0.138677
-0.0865328 0.0183501 0.138638
-0.0742345 0.0182207 0.138619
-0.0267283 0.0177209 0.138545
-0.0643657 0.025961 -0.125417
-0.0400152 0.0256478 -0.125454
-0.0221345 0.0254179 -0.125482
0.00121349 0.0251176 -0.125518
-0.0501511 0.0259528 0.138581
-0.00393957 0.0291352 0.138509
0.0344913 0.0284612 0.13845
0.0556639 0.0280899 0.138417
0.0762913 0.0277282 0.138385
0.0240163 0.0338513 -0.125553
0.0352194 0.0336549 -0.12557
0.0572395 0.0332687 -0.125604
0.0840642 0.0327983 -0.125645
0.104984 0.0367555 -0.125677
0.115269 0.0365511 -0.125693
0.1355 0.036149 -0.125724
-0.130994 0.039727 0.138701
-0.111661 0.0392974 0.138677
-0.0865328 0.0387392 0.138638
-0.0742345 0.038466 0.138619
0.0963939 0.0346758 0.138354
0.115992 0.0342404 0.138323
0.135104 0.0338159 0.138294
-0.0267283 0.0413487 0.138545
0.046293 0.0468449 -0.125587
0.0734259 0.0461787 -0.125628
-0.0501511 0.0459165 0.138581
-0.0643657 0.054282 -0.125417
-0.0400152 0.0536272 -0.125454
-0.0221345 0.0531464 -0.125482
0.00121349 0.0525185 -0.125518
-0.00393957 0.0485585 0.138509
0.0864069 0.0459179 0.138369
0.106255 0.0453378 0.138338
0.0240163 0.0564188 -0.125553
-0.099007 0.0554442 0.138657
0.0344913 0.0512301 0.13845
0.0556639 0.0505618 0.138417
-0.130994 0.0606359 0.138701
-0.0742345 0.0587113 0.138619
-0.0221345 0.0670106 -0.125482
0.00121349 0.066219 -0.125518
0.0352194 0.0650661 -0.12557
0.0945829 0.0630533 -0.125661
-0.0267283 0.0610385 0.138545
0.125608 0.0555175 0.138308
-0.0643657 0.0731626 -0.125417
0.115269 0.066652 -0.125693
0.1355 0.0659188 -0.125724
-0.0501511 0.0658802 0.138581
-0.0400152 0.0769434 -0.125454
0.0572395 0.0731911 -0.125604
-0.00393957 0.067982 0.138509
0.0451472 0.0659734 0.138433
0.0660445 0.0651183 0.138401
0.0840642 0.0765292 -0.125645
0.104984 0.0756732 -0.125677
-0.099007 0.0759791 0.138657
0.0344913 0.0702043 0.13845
-0.0175751 0.0826009 -0.0700186
-0.000922918 0.0826008 -0.0848525
0.0190598 0.0826008 -0.102653
-0.130994 0.0815448 0.138701
-0.0742345 0.0789565 0.138619
0.0243853 0.082602 -0.0203386
0.0433437 0.082602 -0.0372266
0.0591421 0.0826019 -0.0513
0.0781003 0.0826019 -0.0681882
0.0970584 0.0826019 -0.0850762
0.122336 0.0826018 -0.107594
-0.0267283 0.0807284 0.138545
0.0864069 0.0753054 0.138369
0.106255 0.074354 0.138338
0.0622533 0.0826031 0.0244961
0.0772812 0.0826031 0.0111089
0.0953149 0.082603 -0.00495559
0.113348 0.082603 -0.0210201
0.128377 0.0826029 -0.0344072
0.140399 0.0826029 -0.0451168
0.145158 0.0839171 -0.0737382
0.14518 0.0847031 -0.0883404
-0.0501511 0.0858439 0.138581
0.0965993 0.082604 0.0651608
0.110928 0.082604 0.0523961
0.128124 0.0826039 0.0370786
0.145022 0.0830042 0.014945
0.145062 0.0844829 -0.0112485
0.145093 0.0856269 -0.0315142
0.0236937 0.0859516 0.138466
0.127893 0.0826049 0.102212
0.144918 0.0828758 0.0824659
0.144955 0.0842833 0.0586426
0.145226 0.0947416 -0.11838
-0.130994 0.098272 0.138701
-0.099007 0.096514 0.138657
-0.00393957 0.0912901 0.138509
0.0556639 0.088015 0.138417
0.106255 0.0852351 0.138338
0.125608 0.0841717 0.138308
0.144857 0.0841014 0.122297
0.145136 0.0953133 -0.0594048
0.104984 0.101618 -0.125677
0.115269 0.101053 -0.125693
-0.0742345 0.0992018 0.138619
0.145032 0.0950019 0.00848293
0.0572395 0.108678 -0.125604
0.0840642 0.107141 -0.125645
-0.0267283 0.100418 0.138545
0.144955 0.095521 0.0586426
0.00696462 0.116111 -0.125527
0.0352194 0.114426 -0.12557
0.1355 0.108447 -0.125724
-0.0501511 0.105808 0.138581
0.0762913 0.0979728 0.138385
0.144874 0.0956134 0.111149
-0.0460476 0.123949 -0.125445
-0.0340193 0.123204 -0.125464
-0.0103911 0.12174 -0.1255
0.0236937 0.105052 0.138466
0.104984 0.118915 -0.125677
0.115269 0.118254 -0.125693
-0.130994 0.119181 0.138701
-0.111661 0.117892 0.138677
-0.00393957 0.110714 0.138509
-0.0865328 0.120295 0.138638
-0.0742345 0.119447 0.138619
0.0556639 0.110487 0.138417
0.125608 0.105662 0.138308
-0.0643657 0.139245 -0.125417
-0.0280591 0.136741 -0.125473
0.0572395 0.130857 -0.125604
0.14525 0.125414 -0.133834
-0.0267283 0.120108 0.138545
-0.0103911 0.140116 -0.1255
0.0352194 0.136863 -0.12557
0.0840642 0.133379 -0.125645
-0.0501511 0.125771 0.138581
0.0864069 0.115713 0.138369
0.106255 0.114251 0.138338
0.012682 0.14301 -0.125535
0.104984 0.140536 -0.125677
0.115269 0.139754 -0.125693
-0.130994 0.14009 0.138701
-0.111661 0.138575 0.138677
-0.00393957 0.130137 0.138509
-0.0643657 0.158126 -0.125417
-0.0400152 0.156218 -0.125454
0.0572395 0.1486 -0.125604
0.0840642 0.146499 -0.125645
-0.0865328 0.140684 0.138638
-0.0742345 0.139692 0.138619
0.0344913 0.130921 0.13845
0.0556639 0.129213 0.138417
0.106255 0.125132 0.138338
-0.0221345 0.159439 -0.125482
0.012682 0.15663 -0.125535
0.145238 0.145967 -0.126071
-0.0267283 0.139798 0.138545
0.144483 0.125586 0.138279
-0.0501511 0.145735 0.138581
0.0352194 0.163787 -0.12557
0.104984 0.157833 -0.125677
0.0762913 0.138641 0.138385
-0.0521166 0.175932 -0.125436
0.115269 0.161255 -0.125693
-0.130994 0.160999 0.138701
-0.111661 0.159258 0.138677
-0.00393957 0.14956 0.138509
0.0451472 0.145141 0.138433
-0.0221345 0.177925 -0.125482
0.00121349 0.175823 -0.125518
0.0572395 0.170779 -0.125604
-0.0865328 0.161073 0.138638
-0.0742345 0.159938 0.138619
0.0344913 0.149896 0.13845
0.0840642 0.172737 -0.125645
0.1355 0.167987 -0.125724
-0.0267283 0.159488 0.138545
0.115992 0.145972 0.138323
0.0240163 0.182797 -0.125553
-0.0501511 0.165699 0.138581
0.0352194 0.186223 -0.12557
0.104984 0.179454 -0.125677
0.115269 0.178456 -0.125693
-0.130994 0.177726 0.138701
0.0864069 0.156121 0.138369
-0.0643657 0.200607 -0.125417
-0.0280591 0.196999 -0.125473
0.0572395 0.188522 -0.125604
0.0840642 0.185857 -0.125645
-0.111661 0.179941 0.138677
-0.00393957 0.168984 0.138509
0.0236937 0.166173 0.138466
0.135104 0.154841 0.138294
-0.0103911 0.199837 -0.1255
0.0240163 0.196338 -0.125553
-0.0865328 0.181462 0.138638
-0.0742345 0.180183 0.138619
0.0660445 0.165587 0.138401
0.1355 0.189251 -0.125724
-0.0267283 0.179178 0.138545
0.106255 0.16503 0.138338
-0.0501511 0.185662 0.138581
0.0451472 0.175301 0.138433
0.135104 0.16552 0.138294
-0.0643657 0.219488 -0.125417
-0.0400152 0.21684 -0.125454
0.104984 0.201074 -0.125677
0.115269 0.199956 -0.125693
-0.130994 0.198635 0.138701
-0.099007 0.195081 0.138657
-0.0221345 0.219518 -0.125482
0.00121349 0.216924 -0.125518
0.0352194 0.213147 -0.12557
0.0572395 0.210702 -0.125604
-0.00393957 0.188407 0.138509
0.0236937 0.185273 0.138466
0.145238 0.2052 -0.126071
-0.0742345 0.200428 0.138619
0.0240163 0.223419 -0.125553
0.0840642 0.216468 -0.125645
-0.0267283 0.198868 0.138545
0.0864069 0.185508 0.138369
-0.0503386 0.234504 -0.10881
0.0352194 0.226609 -0.12557
0.104984 0.218371 -0.125677
-0.0501511 0.205626 0.138581
0.115992 0.185619 0.138323
-0.0338116 0.234505 -0.0892421
-0.00663817 0.234504 -0.113446
0.0572395 0.228445 -0.125604
0.115269 0.221457 -0.125693
-0.130994 0.219544 0.138701
-0.099007 0.215616 0.138657
0.0660445 0.195355 0.138401
-0.0179142 0.234505 -0.0704201
-0.0012545 0.234505 -0.0852594
0.0187374 0.234504 -0.103066
-0.00393957 0.207831 0.138509
-0.00261122 0.234505 -0.0523017
0.0137372 0.234505 -0.0668636
0.0300857 0.234505 -0.0814254
0.0497038 0.234504 -0.0988997
0.1355 0.227526 -0.125724
-0.0742345 0.220673 0.138619
0.0451472 0.20546 0.138433
0.135104 0.193996 0.138294
0.0121303 0.234506 -0.0348481
0.0281789 0.234505 -0.0491428
0.0506468 0.234505 -0.0691554
0.0699049 0.234505 -0.086309
0.0891629 0.234504 -0.103463
-0.0267283 0.218557 0.138545
0.0344913 0.210613 0.13845
0.0263407 0.234506 -0.0180234
0.045252 0.234506 -0.034868
0.0641631 0.234505 -0.0517126
0.0830743 0.234505 -0.0685572
0.0988335 0.234505 -0.0825943
0.117745 0.234504 -0.0994388
-0.0501511 0.22559 0.138581
0.0400481 0.234506 -0.00179428
0.0679129 0.234506 -0.026614
0.0926814 0.234505 -0.0486761
0.105066 0.234505 -0.0597071
0.123642 0.234505 -0.0762536
0.142218 0.234505 -0.0927998
-0.130994 0.240453 0.138701
-0.111661 0.237852 0.138677
0.125608 0.205952 0.138308
0.0624055 0.234507 0.00574112
0.0776168 0.234506 -0.00780785
0.0989124 0.234506 -0.0267764
0.117166 0.234506 -0.0430354
0.135419 0.234505 -0.0592942
-0.0865328 0.238552 0.138638
0.0864069 0.214896 0.138369
0.0660571 0.234507 0.0289997
0.0839986 0.234507 0.0130187
0.10194 0.234506 -0.00296217
0.119881 0.234506 -0.018943
0.137823 0.234506 -0.0349239
-0.0742345 0.240919 0.138619
-0.00393957 0.231139 0.138509
0.106255 0.215808 0.138338
0.0872259 0.234507 0.0357642
0.104866 0.234507 0.0200517
0.122506 0.234507 0.00433928
0.140145 0.234506 -0.0113729
0.130484 0.253741 -0.125716
0.14525 0.252953 -0.133834
-0.0267283 0.238247 0.138545
0.0344913 0.229587 0.13845
0.0660445 0.225123 0.138401
0.0903466 0.234508 0.0577577
0.107695 0.234507 0.0423051
0.127935 0.234507 0.0242769
0.145032 0.234596 0.00848293
0.145136 0.245381 -0.0594048
0.110141 0.260883 -0.125685
-0.0501511 0.245553 0.138581
0.0864069 0.225916 0.138369
0.107588 0.234508 0.0663683
0.130343 0.234507 0.0460997
0.145002 0.235371 0.0277007
0.0945829 0.267433 -0.125661
-0.130994 0.261361 0.138701
-0.111661 0.258535 0.138677
0.0451472 0.235619 0.138433
0.129875 0.234508 0.0697171
0.145062 0.24559 -0.0112485
0.0734259 0.274873 -0.125628
0.130484 0.266535 -0.125716
0.14525 0.265707 -0.133834
-0.0865328 0.258941 0.138638
0.135104 0.226033 0.138294
0.123912 0.234508 0.0974985
0.145032 0.246229 0.00848293
-0.0742345 0.261164 0.138619
-0.00393957 0.250562 0.138509
0.142543 0.234508 0.102677
0.0352194 0.289432 -0.12557
-0.0267283 0.257937 0.138545
0.0344913 0.248561 0.13845
0.115992 0.236079 0.138323
0.144581 0.234509 0.12197
0.0183659 0.2965 -0.125544
0.0572395 0.290546 -0.125604
0.0840642 0.286438 -0.125645
-0.130994 0.278089 0.138701
-0.0501511 0.265517 0.138581
-0.00457162 0.304594 -0.125509
0.104984 0.287558 -0.125677
-0.111661 0.279218 0.138677
0.0762913 0.249553 0.138385
-0.0280591 0.312881 -0.125473
0.115269 0.290259 -0.125693
0.145238 0.285588 -0.126071
-0.0865328 0.27933 0.138638
-0.0460476 0.320398 -0.125445
-0.0742345 0.281409 0.138619
-0.00393957 0.269986 0.138509
0.0236937 0.265495 0.138466
0.0556639 0.2603 0.138417
0.0963939 0.253681 0.138354
0.012682 0.315531 -0.125535
0.0352194 0.311868 -0.12557
0.0572395 0.30829 -0.125604
-0.0267283 0.277627 0.138545
-0.0103911 0.323874 -0.1255
0.0945829 0.306569 -0.125661
-0.130994 0.298998 0.138701
-0.0501511 0.285481 0.138581
0.135104 0.254509 0.138294
0.125441 0.305759 -0.125708
-0.111661 0.299901 0.138677
0.0762913 0.268039 0.138385
-0.0643657 0.342212 -0.125417
-0.0280591 0.336057 -0.125473
-0.0865328 0.299719 0.138638
-0.0742345 0.297605 0.138619
0.115992 0.264913 0.138323
0.00121349 0.335662 -0.125518
0.0352194 0.329817 -0.12557
-0.00393957 0.289409 0.138509
0.0556639 0.279026 0.138417
0.135104 0.265188 0.138294
0.0572395 0.330469 -0.125604
0.0840642 0.325796 -0.125645
0.145238 0.315204 -0.126071
0.0963939 0.275581 0.138354
0.0240163 0.34077 -0.125553
-0.130994 0.319906 0.138701
-0.0501511 0.305445 0.138581
-0.0267283 0.301255 0.138545
0.0344913 0.290304 0.13845
0.115992 0.275726 0.138323
-0.0643657 0.361093 -0.125417
-0.0400152 0.356737 -0.125454
0.104984 0.3308 -0.125677
0.115269 0.32896 -0.125693
-0.111661 0.320584 0.138677
-0.0221345 0.35816 -0.125482
0.0352194 0.347767 -0.12557
-0.0865328 0.320108 0.138638
-0.0742345 0.317851 0.138619
0.0451472 0.295938 0.138433
0.0762913 0.290221 0.138385
0.012682 0.356391 -0.125535
0.0572395 0.348212 -0.125604
-0.00393957 0.308833 0.138509
0.0945829 0.345706 -0.125661
0.145238 0.336359 -0.126071
-0.0643657 0.379974 -0.125417
-0.0400152 0.37539 -0.125454
-0.130994 0.340815 0.138701
-0.0501511 0.325408 0.138581
-0.0267283 0.320945 0.138545
0.0344913 0.309278 0.13845
0.106255 0.295602 0.138338
0.115269 0.350461 -0.125693
-0.111661 0.341267 0.138677
0.125608 0.295496 0.138308
-0.0221345 0.381267 -0.125482
0.00121349 0.376763 -0.125518
0.0352194 0.370203 -0.12557
-0.0865328 0.340497 0.138638
-0.0742345 0.338096 0.138619
0.0762913 0.308707 0.138385
0.0572395 0.370391 -0.125604
0.0840642 0.365154 -0.125645
0.1355 0.355111 -0.125724
-0.00393957 0.328256 0.138509
-0.0643657 0.398855 -0.125417
0.0240163 0.381391 -0.125553
-0.130994 0.357543 0.138701
0.0556639 0.320225 0.138417
-0.0280591 0.396316 -0.125473
0.104984 0.369718 -0.125677
0.115269 0.367661 -0.125693
-0.111661 0.357813 0.138677
-0.0501511 0.345372 0.138581
-0.0267283 0.340635 0.138545
0.0344913 0.328252 0.13845
0.0963939 0.315732 0.138354
0.00121349 0.395031 -0.125518
0.0352194 0.388153 -0.12557
0.115992 0.315372 0.138323
0.0572395 0.388134 -0.125604
-0.0865328 0.360886 0.138638
-0.0742345 0.358341 0.138619
0.135104 0.315022 0.138294
-0.0643657 0.417735 -0.125417
0.0240163 0.399445 -0.125553
0.1355 0.376375 -0.125724
-0.00393957 0.347679 0.138509
0.0762913 0.330889 0.138385
-0.130994 0.378451 0.138701
0.0236937 0.345717 0.138466
0.0556639 0.338951 0.138417
-0.0221345 0.418239 -0.125482
0.0840642 0.395765 -0.125645
0.104984 0.391339 -0.125677
0.115269 0.389162 -0.125693
-0.111661 0.378496 0.138677
-0.0501511 0.365336 0.138581
-0.0267283 0.360324 0.138545
-0.0400152 0.426686 -0.125454
0.012682 0.415411 -0.125535
0.0352194 0.410589 -0.12557
0.106255 0.3355 0.138338
0.0572395 0.410314 -0.125604
-0.0865328 0.381275 0.138638
-0.0742345 0.378586 0.138619
-0.0643657 0.441336 -0.125417
0.145238 0.395592 -0.126071
0.0451472 0.356256 0.138433
0.0762913 0.349375 0.138385
0.104984 0.408635 -0.125677
-0.130994 0.39936 0.138701
-0.00393957 0.370987 0.138509
-0.0400152 0.445339 -0.125454
-0.0221345 0.441346 -0.125482
0.00121349 0.436132 -0.125518
0.0352194 0.428538 -0.12557
0.115269 0.410663 -0.125693
0.133294 0.403643 -0.113794
-0.111661 0.399178 0.138677
-0.0501511 0.385299 0.138581
-0.0267283 0.380014 0.138545
0.125608 0.345641 0.138308
-0.0483164 0.447047 -0.106415
0.0572395 0.428057 -0.125604
-0.0865328 0.397586 0.138638
0.0344913 0.369995 0.13845
0.0963939 0.355883 0.138354
-0.0293478 0.447048 -0.105245
0.0240163 0.440067 -0.125553
0.0840642 0.426377 -0.125645
0.134633 0.403644 -0.0820186
-0.0742345 0.398832 0.138619
-0.0310736 0.447047 -0.0860004
-0.0107645 0.447049 -0.104099
0.132231 0.403642 -0.0638842
0.145169 0.405091 -0.0810052
0.145214 0.412788 -0.110763
0.0451472 0.375106 0.138433
0.0762913 0.36786 0.138385
0.00744528 0.447049 -0.102975
0.145 0.403644 -0.0596026
0.14525 0.423006 -0.133835
-0.130994 0.420269 0.138701
-0.00393957 0.390411 0.138509
-0.0145169 0.447047 -0.0663977
0.0053879 0.447048 -0.084136
0.0252928 0.44705 -0.101874
0.133553 0.403643 -0.0340499
-0.111661 0.419861 0.138677
-0.0501511 0.405263 0.138581
-0.0267283 0.399704 0.138545
0.115992 0.365832 0.138323
0.0493585 0.447051 -0.106649
-0.0865328 0.417975 0.138638
0.0344913 0.38897 0.13845
0.144848 0.365344 0.127802
0.00464612 0.447047 -0.0504591
0.0339211 0.447049 -0.0765469
0.0534377 0.447051 -0.0939392
0.134822 0.403644 -0.00537956
0.14525 0.43576 -0.133835
-0.0742345 0.419077 0.138619
0.0660445 0.385128 0.138401
0.018782 0.447047 -0.0470265
0.132535 0.403642 0.0111383
0.145103 0.414073 -0.038392
0.145214 0.433741 -0.110763
0.0166948 0.447046 -0.0294439
0.0454094 0.447049 -0.0550326
0.145082 0.414317 -0.0246982
0.145136 0.42384 -0.0594048
-0.130994 0.441178 0.138701
-0.00393957 0.409834 0.138509
0.0963939 0.385084 0.138354
0.0430896 0.447048 -0.0375407
0.133787 0.403643 0.0381367
0.145002 0.403766 0.0277007
0.145052 0.412718 -0.00461304
0.145169 0.433879 -0.0810052
-0.111661 0.440544 0.138677
-0.0501511 0.425227 0.138581
-0.0267283 0.419394 0.138545
0.0314215 0.447046 -0.0120079
0.0595969 0.447048 -0.0371159
-0.0865328 0.438364 0.138638
0.0344913 0.407944 0.13845
0.0451472 0.405265 0.138433
0.125608 0.385041 0.138308
0.0478837 0.447047 -0.0118246
0.132198 0.403641 0.0666317
-0.0742345 0.439322 0.138619
0.145062 0.426344 -0.0112485
0.145103 0.434077 -0.0383921
0.145202 0.452546 -0.10322
-0.130994 0.457905 0.138701
0.0525028 0.447046 0.0129517
0.133411 0.403642 0.0916303
0.145136 0.444119 -0.0594048
-0.00393957 0.429258 0.138509
0.0762913 0.408528 0.138385
0.145002 0.422902 0.0277007
0.145168 0.454443 -0.0810065
-0.0501511 0.44519 0.138581
-0.0267283 0.439084 0.138545
0.0236937 0.425938 0.138466
0.137276 0.403646 0.113321
-0.0865328 0.458753 0.138638
0.115992 0.405479 0.138323
0.144964 0.423213 0.0525598
0.145022 0.434324 0.014945
-0.0742345 0.459567 0.138619
0.0963939 0.414284 0.138354
0.145103 0.454081 -0.0383933
0.0556639 0.428839 0.138417
0.144927 0.423514 0.0765849
0.145082 0.453965 -0.0246994
-0.00393957 0.448681 0.138509
-0.0267283 0.458774 0.138545
0.0236937 0.445038 0.138466
0.0762913 0.43071 0.138385
0.0963939 0.425234 0.138354
0.135104 0.41469 0.138294
0.144891 0.423805 0.0998177
0.144992 0.443939 0.0339959
0.145041 0.453738 0.00196266
0.144973 0.443915 0.0464248
0.144857 0.424086 0.122297
0.0556639 0.447566 0.138417
0.135104 0.425368 0.138294
0.144936 0.443869 0.0706545
