ply
format ascii 1.0
comment Created by Open3D
element vertex 1612
property double x
property double y
property double z
end_header
0.0979277 -0.0958647 -0.434982
0.0902057 -0.0959045 -0.439431
-0.0708735 -0.102846 -0.435431
0.0822718 -0.0904558 -0.439439
-0.0794127 -0.0999835 -0.436375
0.100848 -0.0869506 -0.433885
0.0902054 -0.0870518 -0.43943
-0.063849 -0.0964811 -0.429131
0.110503 -0.0836771 -0.431646
0.112109 -0.0830684 -0.437802
0.113491 -0.0821371 -0.447897
0.107169 -0.0823491 -0.449379
0.0955475 -0.0829691 -0.449394
0.0837516 -0.0835982 -0.449411
0.0988737 -0.0950729 -0.264096
0.0901497 -0.0950655 -0.269676
0.110174 -0.0837615 -0.395
0.112952 -0.082586 -0.407593
0.113981 -0.0816889 -0.417892
0.0757877 -0.0810747 -0.449422
0.0636891 -0.0816974 -0.449439
0.0555196 -0.0821178 -0.449451
0.0472656 -0.0825425 -0.449463
0.0347233 -0.083188 -0.449481
0.0262522 -0.0836239 -0.449493
-0.074578 -0.0899 -0.436371
0.11214 -0.083108 -0.36347
0.113625 -0.0821064 -0.375218
0.114448 -0.0812201 -0.385922
0.115924 -0.0773946 -0.433431
0.0955472 -0.0771467 -0.449394
0.0133775 -0.0812215 -0.449511
0.00468063 -0.0816528 -0.449524
-0.00410914 -0.0820886 -0.449536
-0.0129932 -0.0825292 -0.449549
-0.0264996 -0.083199 -0.449568
-0.0356265 -0.0836516 -0.449581
-0.0663265 -0.0866356 -0.431119
0.11216 -0.0831297 -0.321905
0.11306 -0.0825876 -0.328472
0.11416 -0.0816219 -0.340487
0.114856 -0.0807337 -0.351737
0.115974 -0.0772202 -0.397264
0.115961 -0.0765149 -0.406554
0.0837513 -0.0747984 -0.449411
0.0472654 -0.0765394 -0.449463
0.034723 -0.0771379 -0.449481
-0.0448531 -0.0809352 -0.449594
-0.0541812 -0.0813803 -0.449607
-0.0636125 -0.0818304 -0.449621
-0.0731485 -0.0822854 -0.449635
-0.0827913 -0.0827456 -0.449648
-0.0925484 -0.0832115 -0.449657
0.102128 -0.0977213 -0.083733
0.0914354 -0.0978186 -0.0891293
0.112183 -0.0831531 -0.276923
0.113119 -0.0825887 -0.284064
0.114261 -0.0815843 -0.297101
0.114643 -0.0811174 -0.303256
0.116028 -0.0770325 -0.358328
0.115936 -0.0721954 -0.424632
0.115905 -0.0706119 -0.446338
0.107168 -0.0707915 -0.449378
0.0757873 -0.0722303 -0.449422
0.0262518 -0.0745013 -0.449493
-0.0129936 -0.0763006 -0.449549
-0.0264999 -0.0769198 -0.449568
-0.0356267 -0.0773383 -0.449581
0.112207 -0.0831785 -0.228085
0.113872 -0.08205 -0.243151
0.114749 -0.0810601 -0.256733
0.115084 -0.0805879 -0.263264
0.116086 -0.0768298 -0.316292
0.116071 -0.0760727 -0.327112
0.115993 -0.0721616 -0.383004
0.115948 -0.0698755 -0.415675
0.0636886 -0.0698141 -0.449439
0.0555192 -0.0701734 -0.449451
0.0133772 -0.0720266 -0.449511
0.00468022 -0.0724091 -0.449523
-0.0827917 -0.0762558 -0.449648
-0.0925483 -0.0766851 -0.449658
0.104652 -0.0893451 -0.0880935
0.0960562 -0.0896389 -0.0891215
0.0867922 -0.0900291 -0.0891336
0.112223 -0.0832078 -0.174854
0.113259 -0.0825903 -0.183411
0.114484 -0.0815 -0.198899
0.115204 -0.0805068 -0.213257
0.116141 -0.0762153 -0.276666
0.116133 -0.0758244 -0.282501
0.116056 -0.0721249 -0.33772
0.116042 -0.0714278 -0.348124
0.116014 -0.0700735 -0.368339
0.115923 -0.0657125 -0.43343
0.0955477 -0.0655019 -0.449394
0.0837505 -0.0659987 -0.44941
-0.00410974 -0.069698 -0.449536
-0.0448536 -0.0714135 -0.449594
-0.0541817 -0.0718062 -0.449607
-0.0636129 -0.0722033 -0.449621
0.0972221 -0.0968478 0.0862921
0.112241 -0.0832398 -0.116629
0.113344 -0.0825904 -0.12607
0.114067 -0.0820047 -0.134755
0.11461 -0.0814522 -0.143036
0.115333 -0.0804186 -0.158711
0.11621 -0.0759609 -0.227728
0.116116 -0.0717187 -0.293993
0.116101 -0.0709978 -0.305255
0.11598 -0.0654088 -0.392554
0.11596 -0.0645126 -0.406553
0.115905 -0.0619656 -0.446338
0.107168 -0.0621231 -0.449378
0.0472648 -0.0645333 -0.449462
0.0347224 -0.0650379 -0.44948
0.0262514 -0.0653788 -0.449492
-0.0129941 -0.0669577 -0.449548
-0.0731493 -0.069378 -0.449634
0.0871845 -0.0927284 0.0862787
0.112231 -0.0832793 -0.0526193
0.113436 -0.0825907 -0.0631307
0.114181 -0.0819786 -0.0726813
0.115142 -0.0808533 -0.0904953
0.115471 -0.0803226 -0.0989748
0.116286 -0.0756836 -0.174392
0.116266 -0.0748425 -0.18817
0.116192 -0.0716573 -0.240353
0.116174 -0.0709029 -0.252712
0.116157 -0.0701642 -0.264813
0.116085 -0.0670218 -0.316292
0.11607 -0.0663614 -0.327111
0.116027 -0.0644558 -0.358328
0.115948 -0.0609552 -0.415674
0.115936 -0.0604085 -0.424632
0.0757851 -0.0604378 -0.44942
0.0636882 -0.0609017 -0.449439
0.0555187 -0.0612151 -0.44945
-0.0265006 -0.0643616 -0.449567
-0.0356274 -0.0647117 -0.44958
-0.0827922 -0.066521 -0.449648
-0.092548 -0.0668955 -0.449658
0.06466 -0.103116 0.328675
0.0566913 -0.102953 0.32085
0.0436392 -0.102897 0.311678
0.0341406 -0.10299 0.307305
0.112234 -0.0833207 0.0179981
0.113527 -0.0825928 0.00628543
0.114308 -0.0819495 -0.00429165
0.114884 -0.0813444 -0.0143408
0.1153 -0.0807704 -0.0239563
0.115621 -0.0802172 -0.0332733
0.11638 -0.0758262 -0.108352
0.116358 -0.0749392 -0.123628
0.116296 -0.0723985 -0.167386
0.116247 -0.0704093 -0.201646
0.116237 -0.0700245 -0.208273
0.116219 -0.0692673 -0.221313
0.11614 -0.0660534 -0.276665
0.116132 -0.0657146 -0.282501
0.116048 -0.0622047 -0.342947
0.116013 -0.0607304 -0.368338
0.116 -0.06016 -0.378161
0.115923 -0.0569508 -0.43343
0.0955476 -0.0567683 -0.449394
0.0837515 -0.0571988 -0.449411
0.0133765 -0.0597669 -0.44951
0.00467962 -0.0600842 -0.449523
-0.00411022 -0.060405 -0.449535
-0.044854 -0.0618917 -0.449593
-0.0541822 -0.0622321 -0.449607
0.0776764 -0.100163 0.379216
0.0780787 -0.0993272 0.364314
0.0764762 -0.0988381 0.354435
0.0741956 -0.0984685 0.346297
0.0238199 -0.0979192 0.304631
0.112187 -0.0833743 0.0964379
0.113621 -0.0825958 0.083221
0.114449 -0.0819172 0.0714333
0.115038 -0.0812826 0.0602952
0.115473 -0.0806789 0.0496193
0.115787 -0.0801008 0.0393302
0.11605 -0.0795373 0.029277
0.116472 -0.0755129 -0.0434486
0.116448 -0.0745862 -0.0602717
0.116391 -0.072366 -0.100577
0.116337 -0.0702742 -0.138551
0.116316 -0.0694709 -0.153133
0.116209 -0.0653618 -0.227728
0.116116 -0.0617115 -0.293993
0.116101 -0.0610911 -0.305254
0.115986 -0.0565438 -0.387801
0.115967 -0.0557656 -0.40193
0.0472645 -0.0555287 -0.449462
0.034722 -0.0559629 -0.44948
0.026251 -0.0562562 -0.449492
-0.0636135 -0.0593672 -0.44962
-0.0731498 -0.0596974 -0.449634
0.0679487 -0.0927219 0.334236
0.060674 -0.0924662 0.324756
0.052715 -0.0923204 0.31695
0.0436392 -0.0923433 0.311678
0.0341406 -0.092427 0.307305
0.11656 -0.0746787 0.0188746
0.116547 -0.0741968 0.00962687
0.116496 -0.0723298 -0.0262018
0.116484 -0.0718777 -0.034879
0.116436 -0.0701242 -0.0685291
0.116413 -0.0692792 -0.0847458
0.116358 -0.0672532 -0.123627
0.116285 -0.064608 -0.174391
0.116266 -0.06389 -0.18817
0.116219 -0.062163 -0.221313
0.116191 -0.0611709 -0.240352
0.116174 -0.0605269 -0.252711
0.116157 -0.0598963 -0.264813
0.116085 -0.0572137 -0.316292
0.11607 -0.0566499 -0.327111
0.116034 -0.0552879 -0.35325
0.115954 -0.0522715 -0.411134
0.115942 -0.0518005 -0.420173
0.115905 -0.0504371 -0.446338
0.107167 -0.0505654 -0.449378
0.0757873 -0.051593 -0.449422
0.0636876 -0.0519893 -0.449438
0.055519 -0.0522568 -0.44945
-0.0129946 -0.0545005 -0.449548
-0.026501 -0.0549428 -0.449567
-0.0356278 -0.0552417 -0.44958
-0.0827932 -0.0567863 -0.449647
-0.0925478 -0.0571059 -0.449658
0.0776764 -0.0893343 0.379216
0.110656 -0.0837137 0.285672
0.0741956 -0.0878232 0.346297
0.0679487 -0.0874235 0.334236
0.0238199 -0.0873333 0.304631
0.116669 -0.0742707 0.097425
0.116657 -0.073765 0.087135
0.116614 -0.0722894 0.0571004
0.1166 -0.0718106 0.0473542
0.116573 -0.0708717 0.028244
0.116534 -0.0695085 0.00049758
0.116521 -0.0690657 -0.00851536
0.116472 -0.0673494 -0.043448
0.116448 -0.0665229 -0.0602713
0.11638 -0.0641607 -0.108351
0.116326 -0.0623167 -0.145884
0.116316 -0.0619605 -0.153133
0.116295 -0.0612603 -0.167385
0.116247 -0.0595771 -0.201646
0.116237 -0.0592515 -0.208273
0.11614 -0.0558913 -0.276665
0.116132 -0.0556046 -0.282501
0.11602 -0.051632 -0.363357
0.116007 -0.0511448 -0.373273
0.0133761 -0.050572 -0.44951
0.0046792 -0.0508405 -0.449522
-0.00411063 -0.0511119 -0.449535
-0.0448545 -0.0523699 -0.449593
0.116284 -0.0829368 0.382227
0.117472 -0.0820883 0.364605
0.118187 -0.0813231 0.34849
0.1187 -0.0805996 0.333152
0.119065 -0.0799091 0.318433
0.119334 -0.0792431 0.304186
0.119537 -0.078597 0.290327
0.0998032 -0.0789549 0.285656
0.0888637 -0.0792722 0.28564
0.0778359 -0.0795921 0.285624
0.0722885 -0.079753 0.285617
0.0611262 -0.0800768 0.2856
0.049873 -0.0804031 0.285584
0.0385275 -0.0807322 0.285568
0.116642 -0.0688261 0.0769885
0.116628 -0.0683641 0.0669777
0.11656 -0.066144 0.0188755
0.116547 -0.0657172 0.00962734
0.116436 -0.0621101 -0.068529
0.116413 -0.0613616 -0.0847458
0.116402 -0.0609941 -0.0927086
0.116285 -0.0572242 -0.174391
0.116266 -0.0565883 -0.18817
0.116209 -0.0547626 -0.227728
0.116116 -0.0517042 -0.293993
0.116101 -0.0511844 -0.305254
0.116056 -0.049686 -0.33772
0.115986 -0.0473746 -0.387801
0.115967 -0.0467225 -0.40193
0.115929 -0.0454707 -0.429051
0.0955473 -0.0451235 -0.449394
0.0837512 -0.0454657 -0.44941
0.0472653 -0.046524 -0.449463
0.0347216 -0.0468879 -0.449479
0.0262505 -0.0471336 -0.449491
-0.0541828 -0.0494666 -0.449606
-0.063614 -0.0497401 -0.44962
-0.0731503 -0.0500167 -0.449633
0.118922 -0.080505 0.451432
0.119301 -0.0797702 0.434667
0.119552 -0.0790659 0.418529
0.119731 -0.0783839 0.402858
0.119857 -0.0777204 0.387584
0.11984 -0.0770878 0.372935
0.110658 -0.0735663 0.285666
0.116669 -0.0652682 0.0974255
0.116657 -0.0648239 0.0871356
0.116573 -0.0622812 0.0282444
0.116534 -0.0610832 0.000497937
0.116521 -0.0606941 -0.00851524
0.116496 -0.0599305 -0.0262014
0.116484 -0.0595558 -0.0348785
0.11638 -0.0563836 -0.108351
0.116358 -0.0557241 -0.123627
0.116247 -0.0523556 -0.201646
0.116237 -0.0520695 -0.208273
0.116219 -0.0515065 -0.221313
0.116191 -0.0506844 -0.240352
0.116174 -0.0501508 -0.252711
0.116157 -0.0496283 -0.264813
0.116085 -0.0474057 -0.316292
0.11607 -0.0469385 -0.327111
0.116041 -0.0460313 -0.348123
0.115917 -0.0421606 -0.437771
0.114818 -0.0416894 -0.449367
0.107167 -0.041897 -0.449378
-0.012995 -0.0451576 -0.449547
-0.0265014 -0.0455241 -0.449566
-0.0356283 -0.0457717 -0.44958
-0.0827936 -0.0470515 -0.449646
-0.0925475 -0.0473163 -0.449658
0.119861 -0.0723598 0.387573
0.11982 -0.0711925 0.358533
0.1198 -0.0706228 0.34436
0.11978 -0.0700622 0.330414
0.11976 -0.0695104 0.316686
0.119741 -0.0689672 0.303174
0.119724 -0.0684322 0.289867
0.0998033 -0.0687672 0.285656
0.0888637 -0.0690436 0.28564
0.0778359 -0.0693221 0.285624
0.0722886 -0.0694623 0.285616
0.0611262 -0.0697443 0.2856
0.049873 -0.0700286 0.285584
0.0385275 -0.0703152 0.285568
0.116642 -0.0599454 0.0769885
0.116628 -0.059543 0.066978
0.116614 -0.0591459 0.0571007
0.1166 -0.0587541 0.0473546
0.116547 -0.0572376 0.00962734
0.116472 -0.0551041 -0.043448
0.116448 -0.0544278 -0.0602713
0.116337 -0.0512811 -0.138551
0.116316 -0.050695 -0.153133
0.116295 -0.0501221 -0.167385
0.11614 -0.0457292 -0.276665
0.116132 -0.0454947 -0.282501
0.116027 -0.0424465 -0.358328
0.116013 -0.0420441 -0.368338
0.116 -0.0416492 -0.378161
0.115954 -0.0403238 -0.411134
0.115942 -0.0399604 -0.420173
0.0757871 -0.0398004 -0.449422
0.0636883 -0.040106 -0.449439
0.0555186 -0.0403124 -0.44945
0.0133758 -0.0413771 -0.44951
0.00467885 -0.0415968 -0.449522
-0.00411105 -0.0418189 -0.449534
0.119949 -0.0692715 0.448607
0.119926 -0.0686894 0.432966
0.119904 -0.0681168 0.417583
0.119882 -0.0675538 0.402454
0.11984 -0.066455 0.372935
0.110658 -0.0634192 0.285666
0.116669 -0.0562657 0.0974255
0.116657 -0.0558826 0.0871356
0.11656 -0.053342 0.0188755
0.116521 -0.0523225 -0.00851524
0.116496 -0.0516642 -0.0262014
0.116484 -0.0513412 -0.0348785
0.116436 -0.0500888 -0.068529
0.116413 -0.0494852 -0.0847458
0.116402 -0.0491888 -0.0927086
0.116285 -0.0461486 -0.174391
0.116266 -0.0456357 -0.18817
0.116209 -0.0441634 -0.227728
0.116116 -0.0416969 -0.293993
0.116101 -0.0412778 -0.305254
0.116056 -0.0400694 -0.33772
0.115929 -0.0366699 -0.429051
0.0955471 -0.03639 -0.449394
0.0837511 -0.0366659 -0.44941
-0.0448551 -0.0396742 -0.449592
-0.0541832 -0.0398924 -0.449606
-0.0636147 -0.0401131 -0.449619
-0.0731508 -0.0403361 -0.449633
0.119882 -0.0621495 0.402454
0.119861 -0.0616399 0.387573
0.11982 -0.0606455 0.358533
0.1198 -0.0601602 0.344361
0.11978 -0.0596826 0.330414
0.11976 -0.0592125 0.316686
0.119741 -0.0587498 0.303174
0.119724 -0.0582941 0.289867
0.0998055 -0.0585793 0.285651
0.0888661 -0.0588147 0.285635
0.0778369 -0.0590521 0.285622
0.0722886 -0.0591716 0.285616
0.0611262 -0.0594118 0.2856
0.0498731 -0.059654 0.285584
0.0385275 -0.0598981 0.285568
0.116642 -0.0510646 0.0769885
0.116628 -0.0507218 0.066978
0.116614 -0.0503836 0.0571007
0.1166 -0.0500498 0.0473546
0.116573 -0.0493954 0.0282444
0.116534 -0.0484453 0.000497937
0.116472 -0.0469405 -0.043448
0.116448 -0.0463644 -0.0602713
0.11638 -0.0447181 -0.108351
0.116358 -0.044195 -0.123627
0.116247 -0.0415234 -0.201646
0.116237 -0.0412965 -0.208273
0.116219 -0.04085 -0.221313
0.116191 -0.040198 -0.240352
0.116174 -0.0397748 -0.252711
0.116157 -0.0393604 -0.264813
0.116078 -0.0374114 -0.321728
0.116063 -0.0370446 -0.332442
0.116041 -0.0365076 -0.348123
0.115986 -0.0351489 -0.387801
0.115967 -0.0346651 -0.40193
0.0472643 -0.0345179 -0.449462
0.034721 -0.0347878 -0.449479
0.026251 -0.0349701 -0.449492
-0.0129955 -0.0358147 -0.449547
-0.026502 -0.0361053 -0.449566
-0.0356287 -0.0363018 -0.449579
-0.082794 -0.0373168 -0.449646
0.119949 -0.0581881 0.448607
0.119926 -0.0576991 0.432966
0.119904 -0.0572181 0.417583
0.11984 -0.0558222 0.372935
0.110658 -0.0532722 0.285667
0.116669 -0.0472632 0.0974255
0.116657 -0.0469414 0.0871356
0.11656 -0.0448073 0.0188754
0.116547 -0.0445181 0.00962734
0.116436 -0.0420746 -0.068529
0.116413 -0.0415675 -0.0847458
0.116402 -0.0413186 -0.0927086
0.116337 -0.0398853 -0.138551
0.116316 -0.0394294 -0.153133
0.116296 -0.0389838 -0.167385
0.116209 -0.0370972 -0.227728
0.11614 -0.0355672 -0.276665
0.116132 -0.0353848 -0.282501
0.116 -0.0323939 -0.378161
0.115954 -0.0313629 -0.411134
0.115942 -0.0310803 -0.420173
0.115917 -0.0305301 -0.437771
0.114818 -0.0301889 -0.449367
0.107167 -0.0303393 -0.449377
0.0757868 -0.0309559 -0.449421
0.0636881 -0.0311936 -0.449438
0.0555184 -0.0313541 -0.44945
0.0133753 -0.0321822 -0.449509
0.00467837 -0.0323531 -0.449521
-0.092547 -0.0342635 -0.449659
0.119926 -0.0522039 0.432966
0.119882 -0.0513409 0.402454
0.119861 -0.0509199 0.387573
0.11982 -0.0500984 0.358533
0.1198 -0.0496975 0.344361
0.11978 -0.049303 0.330414
0.11976 -0.0489147 0.316686
0.119741 -0.0485325 0.303174
0.119724 -0.048156 0.289867
0.0998051 -0.0483916 0.285652
0.0888658 -0.0485861 0.285636
0.0778379 -0.0487821 0.28562
0.0722906 -0.0488807 0.285612
0.0611274 -0.0490792 0.285598
0.0498731 -0.0492794 0.285584
0.0385277 -0.049481 0.285568
0.116642 -0.0421838 0.0769885
0.116628 -0.0419006 0.066978
0.116614 -0.0416212 0.0571007
0.1166 -0.0413455 0.0473546
0.116573 -0.0408049 0.0282444
0.116534 -0.0400201 0.000497937
0.116521 -0.0397651 -0.00851524
0.116496 -0.0392648 -0.0262014
0.116484 -0.0390194 -0.0348785
0.11638 -0.036941 -0.108351
0.116358 -0.0365089 -0.123627
0.116285 -0.0350729 -0.174391
0.116266 -0.0346831 -0.18817
0.116116 -0.0316897 -0.293993
0.116101 -0.0313711 -0.305254
0.116056 -0.0304527 -0.33772
0.116027 -0.0298698 -0.358328
0.116013 -0.0295866 -0.368339
-0.00411165 -0.0294281 -0.449534
-0.0448557 -0.0301525 -0.449592
-0.0541837 -0.0303183 -0.449605
-0.0636151 -0.0304859 -0.449619
-0.0731503 -0.0306554 -0.449633
0.119949 -0.0471046 0.448607
0.119904 -0.0463194 0.417583
0.11984 -0.0451894 0.372935
0.110657 -0.0431251 0.285668
0.11656 -0.0362725 0.0188754
0.116547 -0.0360385 0.00962734
0.116472 -0.0346951 -0.043448
0.116448 -0.0342693 -0.0602713
0.116337 -0.0322881 -0.138551
0.116316 -0.031919 -0.153133
0.116296 -0.0315583 -0.167385
0.116247 -0.0306912 -0.201646
0.116237 -0.0305235 -0.208273
0.116219 -0.0301934 -0.221313
0.116191 -0.0297116 -0.240352
0.116174 -0.0293988 -0.252711
0.116157 -0.0290925 -0.264813
0.116063 -0.0273808 -0.332442
0.116041 -0.0269839 -0.348123
0.115986 -0.0259796 -0.387801
0.115967 -0.025622 -0.40193
0.115929 -0.0249356 -0.429051
0.0955468 -0.0247452 -0.449394
0.0837507 -0.0249328 -0.44941
0.047264 -0.0255132 -0.449461
0.0347214 -0.0257127 -0.449479
0.0262484 -0.0258475 -0.449489
-0.0129959 -0.0264717 -0.449546
-0.0265024 -0.0266866 -0.449566
-0.0356292 -0.0268317 -0.449579
0.119926 -0.0412136 0.432966
0.119882 -0.0405322 0.402454
0.119861 -0.0401999 0.387573
0.11982 -0.0395514 0.358533
0.1198 -0.0392349 0.344361
0.11978 -0.0389234 0.330414
0.11976 -0.0386169 0.316686
0.119741 -0.0383151 0.303174
0.119724 -0.0380179 0.289867
0.0998049 -0.0382039 0.285652
0.0888654 -0.0383574 0.285636
0.0778377 -0.0385122 0.28562
0.0722903 -0.03859 0.285612
0.0611281 -0.0387467 0.285596
0.0498734 -0.0389047 0.285583
0.0385272 -0.039064 0.285568
0.116669 -0.0337594 0.0974255
0.116657 -0.0335296 0.0871356
0.116587 -0.0324264 0.0377364
0.116573 -0.0322144 0.0282444
0.116534 -0.0315948 0.000497937
0.116521 -0.0313935 -0.00851524
0.116496 -0.0309985 -0.0262014
0.116484 -0.0308047 -0.0348785
0.116436 -0.0300532 -0.068529
0.116413 -0.0296911 -0.0847458
0.116402 -0.0295133 -0.0927086
0.116266 -0.0273814 -0.18817
0.116209 -0.026498 -0.227728
0.11614 -0.0254051 -0.276665
0.116132 -0.0252748 -0.282501
0.116085 -0.0245202 -0.316292
0.115954 -0.0224021 -0.411134
0.115942 -0.0222002 -0.420173
0.115917 -0.0218072 -0.437771
0.114817 -0.0215635 -0.449366
0.107167 -0.0216709 -0.449377
0.0757867 -0.0221113 -0.449421
0.0636878 -0.0222811 -0.449438
0.0555182 -0.0223958 -0.44945
-0.0827944 -0.024337 -0.449646
-0.0925468 -0.0244739 -0.449659
0.119949 -0.0360212 0.448607
0.119904 -0.0354207 0.417583
0.11984 -0.0345566 0.372935
0.110657 -0.032978 0.285668
0.116642 -0.0288626 0.0769885
0.116628 -0.0286688 0.066978
0.116614 -0.0284777 0.0571007
0.116472 -0.0265316 -0.043448
0.116448 -0.026206 -0.0602713
0.11638 -0.0252754 -0.108351
0.116358 -0.0249797 -0.123627
0.116285 -0.0239972 -0.174391
0.116174 -0.0224814 -0.252711
0.116157 -0.0222472 -0.264813
0.116116 -0.0216824 -0.293993
0.116101 -0.0214644 -0.305254
0.116056 -0.0208361 -0.33772
0.116027 -0.0204372 -0.358328
0.116013 -0.0202434 -0.368339
0.116 -0.0200533 -0.378161
0.0133746 -0.0199223 -0.449508
0.00467908 -0.0200281 -0.449522
-0.00411206 -0.020135 -0.449533
-0.0448562 -0.0206306 -0.449592
-0.0541842 -0.0207441 -0.449605
-0.0636156 -0.0208588 -0.449618
-0.0731524 -0.0209748 -0.449631
0.119926 -0.0302233 0.432966
0.119882 -0.0297236 0.402454
0.119861 -0.0294799 0.387573
0.11982 -0.0290043 0.358533
0.1198 -0.0287722 0.344361
0.11978 -0.0285438 0.330414
0.11976 -0.028319 0.316686
0.119741 -0.0280977 0.303174
0.119724 -0.0278798 0.289867
0.0998045 -0.0280162 0.285653
0.0888652 -0.0281288 0.285637
0.0778373 -0.0282423 0.285621
0.0722899 -0.0282994 0.285613
0.0611278 -0.0284143 0.285597
0.0498745 -0.0285301 0.285581
0.0385293 -0.0286468 0.285564
0.116669 -0.0247569 0.0974255
0.116657 -0.0245884 0.0871356
0.11656 -0.0234705 0.0188754
0.116547 -0.023319 0.00962734
0.116436 -0.0220391 -0.068529
0.116413 -0.0217735 -0.0847458
0.116402 -0.0216431 -0.0927086
0.116337 -0.0208923 -0.138551
0.116316 -0.0206535 -0.153133
0.116296 -0.0204201 -0.167385
0.116247 -0.019859 -0.201646
0.116237 -0.0197505 -0.208273
0.116219 -0.0195369 -0.221313
0.116191 -0.0192251 -0.240352
0.116043 -0.0174601 -0.348125
0.115985 -0.0168104 -0.387799
0.115965 -0.016579 -0.401927
0.115926 -0.0161349 -0.429046
-0.0977321 -0.0220601 -0.202025
0.0955466 -0.0160116 -0.449393
0.0837505 -0.016133 -0.44941
0.0472637 -0.0165085 -0.449461
0.0347211 -0.0166376 -0.449479
0.0262498 -0.0167248 -0.449491
-0.0129963 -0.0171288 -0.449546
-0.0265028 -0.0172678 -0.449565
-0.0356296 -0.0173617 -0.449578
0.119949 -0.0249377 0.448607
0.119904 -0.0245221 0.417583
0.11984 -0.0239238 0.372935
0.110657 -0.022831 0.285669
0.116642 -0.0199818 0.0769885
0.116628 -0.0198477 0.066978
0.116614 -0.0197153 0.0571007
0.1166 -0.0195847 0.0473546
0.116573 -0.0193286 0.0282444
0.116534 -0.0189569 0.000497937
0.116521 -0.0188361 -0.00851524
0.116496 -0.0185991 -0.0262014
0.116484 -0.0184828 -0.0348785
0.116382 -0.0174983 -0.108354
0.116359 -0.0172936 -0.123629
0.116284 -0.0166135 -0.174388
0.116266 -0.0164288 -0.188171
0.116213 -0.0158987 -0.227732
-0.0973779 -0.0213398 0.0435582
0.116143 -0.015243 -0.276669
0.116134 -0.0151648 -0.282503
0.116084 -0.0147121 -0.316289
0.116069 -0.0145672 -0.327109
-0.082795 -0.0146022 -0.449645
-0.0925465 -0.0146843 -0.449659
0.119926 -0.019233 0.432966
0.119882 -0.0189151 0.402454
0.119861 -0.01876 0.387573
0.11982 -0.0184573 0.358533
0.1198 -0.0183096 0.344361
0.11978 -0.0181643 0.330414
0.11976 -0.0180212 0.316686
0.119741 -0.0178804 0.303174
0.119724 -0.0177417 0.289867
0.0998043 -0.0178285 0.285654
0.0888648 -0.0179002 0.285638
0.0778371 -0.0179724 0.285622
0.0722897 -0.0180087 0.285614
0.0611274 -0.0180818 0.285598
0.0498744 -0.0181555 0.285581
0.0385289 -0.0182298 0.285565
0.116669 -0.0157544 0.0974255
0.11666 -0.0156471 0.0871292
0.11656 -0.0149357 0.0188746
0.116548 -0.0148393 0.00962484
0.116474 -0.0142862 -0.0434512
0.116449 -0.0141109 -0.0602725
0.116218 -0.0124326 -0.221313
0.116195 -0.0122341 -0.240357
0.116175 -0.0121054 -0.252713
0.116116 -0.0116751 -0.293993
0.116101 -0.0115578 -0.305254
0.116056 -0.0112194 -0.33772
0.116029 -0.0110046 -0.358329
0.116017 -0.0109003 -0.368342
0.116003 -0.0107979 -0.378165
0.115955 -0.0104543 -0.411135
0.115943 -0.0103601 -0.420174
0.115918 -0.0101767 -0.437772
0.114817 -0.010063 -0.449366
0.107166 -0.0101131 -0.449377
0.0757864 -0.0103186 -0.449421
0.0636876 -0.0103979 -0.449438
0.0555179 -0.0104514 -0.449449
0.0133749 -0.0107274 -0.449509
0.00467753 -0.0107844 -0.449521
-0.00411284 -0.010842 -0.449533
-0.0448566 -0.0111088 -0.449591
-0.0541847 -0.0111699 -0.449605
-0.063616 -0.0112317 -0.449618
-0.0731533 -0.0112942 -0.449631
0.119949 -0.0138543 0.448607
0.119904 -0.0136234 0.417581
0.119842 -0.013291 0.372931
0.110657 -0.0126839 0.28567
0.116641 -0.011101 0.0769902
0.116627 -0.0110265 0.066981
0.116612 -0.010953 0.0571053
0.116597 -0.0108805 0.0473604
0.116573 -0.0107381 0.0282447
0.116535 -0.0105316 0.000495553
0.116522 -0.0104645 -0.00851727
0.116496 -0.0103328 -0.0262012
0.116483 -0.0102683 -0.0348774
0.116435 -0.0100178 -0.0685267
0.115761 -0.0099087 -0.0835909
0.116403 -0.00983775 -0.0927102
0.116336 -0.00949652 -0.13855
0.116316 -0.00938796 -0.153133
0.116297 -0.00928185 -0.167387
0.11625 -0.00902679 -0.20165
0.11624 -0.00897745 -0.208278
0.115927 -0.00733403 -0.429048
0.0955464 -0.007278 -0.449393
0.0837504 -0.00733319 -0.44941
0.119931 -0.00824265 0.43295
0.119887 -0.00810639 0.402441
0.119865 -0.00803994 0.387564
0.119821 -0.00791027 0.35853
0.119799 -0.007847 0.344362
0.11978 -0.0077847 0.330414
0.119761 -0.00772337 0.316683
0.119744 -0.00766299 0.303167
0.119724 -0.00760359 0.289867
0.099804 -0.0076408 0.285654
0.0888645 -0.00767151 0.285638
0.0778368 -0.00770246 0.285622
0.0722894 -0.00771803 0.285614
0.0611272 -0.00774936 0.285598
0.0498739 -0.00778095 0.285582
0.0385287 -0.00781279 0.285565
0.116669 -0.00675189 0.0974255
0.116562 -0.00640102 0.0188708
0.116549 -0.00635971 0.00962257
0.116475 -0.00612265 -0.0434529
0.116451 -0.00604751 -0.0602764
0.116383 -0.00583276 -0.108357
0.116362 -0.00576453 -0.123633
0.11629 -0.00553779 -0.174399
0.116271 -0.00547624 -0.188178
0.116216 -0.00529955 -0.227737
0.10659 -0.00519551 -0.257069
0.116138 -0.00508105 -0.276663
0.116084 -0.00490406 -0.316289
0.116069 -0.00485573 -0.327109
0.11604 -0.00476188 -0.348121
0.115985 -0.00458466 -0.387799
0.115965 -0.00452155 -0.401928
0.0472635 -0.00450234 -0.449461
0.0347208 -0.00453755 -0.449478
0.0262495 -0.00456133 -0.44949
-0.0129973 -0.0046715 -0.449545
-0.0265033 -0.00470941 -0.449565
-0.0356303 -0.00473503 -0.449578
-0.0827953 -0.00486742 -0.449645
-0.0925462 -0.00489479 -0.449659
0.119949 -0.00277088 0.448607
0.11971 -0.00272565 0.418105
0.119709 -0.00265885 0.373277
0.110656 -0.00253679 0.285671
0.115657 -0.00222417 0.0790215
0.115735 -0.00220887 0.068804
0.1158 -0.00219382 0.0587504
0.115846 -0.00217906 0.0488703
0.115891 -0.00216449 0.0391226
0.115935 -0.00215012 0.0295042
0.116065 -0.00210812 0.00140071
0.116107 -0.00209448 -0.00772464
0.11619 -0.00206773 -0.0256259
0.11623 -0.0020546 -0.0344061
0.116387 -0.00200374 -0.06844
0.10728 -0.00199998 -0.0766932
0.114975 -0.00196085 -0.098111
0.115271 -0.00190297 -0.136768
0.115328 -0.0018918 -0.144227
0.11544 -0.00186985 -0.158885
0.115761 -0.00180696 -0.200889
0.115812 -0.00179689 -0.207616
0.115913 -0.00177707 -0.220848
0.116061 -0.00174816 -0.240159
0.116157 -0.0017294 -0.252687
0.114359 -0.00168174 -0.285802
0.114452 -0.00166442 -0.297365
0.114514 -0.00165585 -0.30308
0.114874 -0.0016062 -0.336169
0.115158 -0.00156705 -0.362265
0.115267 -0.00155192 -0.37235
0.115375 -0.00153708 -0.382243
0.115685 -0.00149421 -0.410817
0.115785 -0.00148044 -0.419991
0.115905 -0.00144107 -0.446338
0.107166 -0.00144474 -0.449377
0.0757862 -0.0014741 -0.449421
0.0636873 -0.00148542 -0.449438
0.0555177 -0.00149306 -0.449449
0.0133746 -0.0015325 -0.449508
0.00467741 -0.00154064 -0.449521
-0.0041126 -0.00154886 -0.449533
-0.0448571 -0.00158698 -0.449591
-0.0541852 -0.00159571 -0.449604
-0.063615 -0.00160453 -0.449619
-0.0731537 -0.00161346 -0.44963
0.119949 0.00277088 0.448607
0.108874 0.00277932 0.447301
0.0972403 0.0027902 0.447284
0.0855147 0.00280118 0.447268
0.0736967 0.00281223 0.447251
0.0617848 0.00282338 0.447235
0.119724 0.00253454 0.289867
0.110656 0.00253679 0.285671
0.0998037 0.00254695 0.285655
0.0888643 0.00255718 0.285639
0.0778365 0.0025675 0.285623
0.0722891 0.00257269 0.285615
0.0611268 0.00258313 0.285599
0.0498737 0.00259366 0.285583
0.0385282 0.00260428 0.285566
0.104606 0.00225322 0.0915611
0.0946069 0.00226257 0.0915469
0.084524 0.00227201 0.0915325
0.0743567 0.00228152 0.0915179
0.064104 0.00229111 0.0915033
0.0682978 0.0022608 0.0738008
0.0587684 0.00226779 0.0724936
0.0491799 0.00227482 0.0711782
0.0938778 0.0020233 -0.069483
0.0844885 0.00203214 -0.0694603
0.0750167 0.00204105 -0.0694376
0.0914888 0.0019731 -0.104669
0.0786873 0.00198247 -0.106443
0.0700843 0.00198876 -0.107634
0.0614266 0.00199509 -0.108832
0.0483362 0.00200467 -0.110644
0.0395392 0.0020111 -0.111862
0.0306855 0.00201758 -0.113087
0.0965153 0.0017537 -0.248745
0.0835733 0.00176588 -0.248715
0.104859 0.00169316 -0.284115
0.0937516 0.0017006 -0.286118
0.0860804 0.00170621 -0.287181
0.0744782 0.00171469 -0.288789
0.0666791 0.00172039 -0.28987
0.0548829 0.00172902 -0.291504
0.0469527 0.00173482 -0.292603
0.0350367 0.00174337 -0.294362
0.0271298 0.00174885 -0.295666
0.0151761 0.00175712 -0.297639
0.107108 0.00147694 -0.427805
0.116669 0.00675186 0.0974255
0.0537651 0.00690228 0.0914874
0.0433382 0.00693155 0.0914724
0.0328223 0.00696107 0.0914574
0.0222167 0.00699084 0.0914419
0.0115197 0.00702086 0.0914266
0.000730693 0.00705115 0.091411
-0.010152 0.00708169 0.0913954
-0.0211291 0.00711251 0.0913794
-0.0322025 0.00714359 0.0913635
-0.0377755 0.00715923 0.0913554
-0.048995 0.00719072 0.0913393
-0.0612925 0.00715244 0.0750359
-0.0613256 0.00711355 0.0663159
-0.0620564 0.00704343 0.0501705
-0.0642207 0.00698846 0.0365117
-0.0642653 0.00691469 0.0199827
-0.0642866 0.00687838 0.0118476
-0.0643286 0.0068069 -0.00416934
-0.0643697 0.00673689 -0.0198567
-0.0643899 0.00670242 -0.0275798
-0.0644298 0.00663453 -0.0427916
-0.0644688 0.006568 -0.0576985
-0.0645065 0.00650278 -0.07231
-0.0590122 0.0064221 -0.0869014
-0.0754367 0.00650221 -0.0793166
-0.0619895 0.00635368 -0.104079
-0.0620459 0.0062926 -0.117777
-0.0631815 0.00624188 -0.129838
-0.0646968 0.00619533 -0.141205
-0.0647147 0.00616617 -0.147739
-0.0647487 0.00610867 -0.160624
-0.064782 0.00605222 -0.173271
-0.0648147 0.00599681 -0.185686
-0.064847 0.00594241 -0.197876
-0.0648785 0.00588898 -0.209847
-0.0649095 0.00583651 -0.221605
-0.0649399 0.00578496 -0.233155
0.0955461 0.00436679 -0.449393
0.0837501 0.0043999 -0.449409
0.0472633 0.00450232 -0.449461
0.0347207 0.00453753 -0.449478
0.0262493 0.00456131 -0.44949
-0.0129972 0.00467148 -0.449545
-0.0265042 0.00470939 -0.449564
-0.0356289 0.004735 -0.449579
-0.0926241 0.00498545 -0.429423
-0.092628 0.00494901 -0.437578
-0.0926286 0.0048953 -0.449593
0.119949 0.0138543 0.448607
0.108874 0.0138965 0.447301
0.09724 0.0139509 0.447285
0.0855144 0.0140058 0.447269
0.0736964 0.0140611 0.447252
0.0617847 0.0141168 0.447236
0.119724 0.0126726 0.289867
0.110656 0.0126839 0.285671
0.0998034 0.0127347 0.285656
0.0888638 0.0127858 0.28564
0.077836 0.0128374 0.285624
0.0722888 0.0128634 0.285616
0.0611265 0.0129156 0.2856
0.0498732 0.0129683 0.285583
0.038528 0.0130213 0.285567
0.104607 0.011266 0.0915608
0.0946072 0.0113128 0.0915464
0.0845244 0.01136 0.0915319
0.0743572 0.0114075 0.0915172
0.0641044 0.0114555 0.0915023
0.0133743 0.00766245 -0.449508
0.00467718 0.00770313 -0.44952
-0.00411284 0.00774426 -0.449533
-0.0448546 0.00793485 -0.449593
-0.0541857 0.00797852 -0.449604
0.116669 0.0157544 0.0974255
0.0537651 0.0161054 0.0914874
0.0433382 0.0161736 0.0914724
0.0328223 0.0162425 0.0914574
0.0222167 0.016312 0.0914419
0.0115197 0.016382 0.0914266
0.000730693 0.0164527 0.091411
-0.010152 0.016524 0.0913954
-0.0211291 0.0165959 0.0913794
-0.0322025 0.0166684 0.0913635
-0.0377755 0.0167049 0.0913554
-0.048995 0.0167784 0.0913393
-0.0559967 0.0164774 0.0580751
-0.0560579 0.0163889 0.0495561
-0.0583916 0.0162642 0.0361342
-0.0608871 0.0161458 0.0232083
-0.0617198 0.0160784 0.0162226
-0.0617915 0.015911 0.000136137
-0.0618253 0.0158286 -0.00778425
-0.061892 0.0156664 -0.0233816
-0.0619574 0.0155074 -0.0386623
-0.0620213 0.0153517 -0.0536362
-0.0620835 0.015199 -0.0683129
-0.0654191 0.0151166 -0.0783085
-0.0793959 0.0152524 -0.0740834
-0.0658654 0.0149038 -0.0989924
-0.0572732 0.0146581 -0.117143
-0.0573237 0.0145881 -0.123885
-0.0586485 0.0144744 -0.135617
-0.0606979 0.0143771 -0.146232
-0.0624688 0.0142762 -0.157016
-0.0624977 0.0142099 -0.163393
-0.0625525 0.014079 -0.175976
-0.0626054 0.0139505 -0.188329
-0.0626575 0.0138243 -0.200459
-0.0627084 0.0137004 -0.212371
-0.0627337 0.0136393 -0.218248
-0.0627835 0.0135186 -0.229845
-0.0628315 0.0134001 -0.241239
0.115905 0.0100874 -0.446338
0.107166 0.0101131 -0.449376
0.0757859 0.0103186 -0.44942
0.063687 0.0103979 -0.449437
0.0555174 0.0104514 -0.449449
-0.0696808 0.0113665 -0.440504
0.119949 0.0249377 0.448607
0.108874 0.0250137 0.447301
0.09724 0.0251117 0.447285
0.0855144 0.0252104 0.447269
0.0736964 0.02531 0.447252
0.0617847 0.0254103 0.447236
0.119724 0.0228107 0.289867
0.110655 0.022831 0.285672
0.0998031 0.0229224 0.285656
0.0888636 0.0230145 0.28564
0.0778359 0.0231074 0.285624
0.0722885 0.0231541 0.285617
0.0611262 0.0232481 0.2856
0.0498731 0.0233428 0.285584
0.0385275 0.0234384 0.285568
0.104607 0.0202788 0.0915608
0.0946072 0.020363 0.0915464
0.0845244 0.0204479 0.0915319
0.0743572 0.0205335 0.0915172
0.0641044 0.0206199 0.0915023
-0.0950335 0.0199215 -0.0607164
0.0955459 0.0131004 -0.449393
0.0837499 0.0131997 -0.449409
0.047263 0.013507 -0.44946
0.0347204 0.0136126 -0.449478
0.0262491 0.013684 -0.44949
-0.0129974 0.0140145 -0.449545
-0.0265042 0.0141282 -0.449564
-0.0356313 0.0142051 -0.449577
-0.0952168 0.0151187 -0.418956
-0.0951939 0.0149517 -0.43139
-0.095179 0.0148424 -0.439528
-0.0951616 0.0147347 -0.44755
0.116669 0.0247569 0.0974255
0.0537651 0.0253085 0.0914874
0.0433382 0.0254158 0.0914724
0.0328223 0.025524 0.0914574
0.0222167 0.0256332 0.0914419
0.0115197 0.0257433 0.0914266
0.000730693 0.0258543 0.091411
-0.010152 0.0259663 0.0913954
-0.0211446 0.0260799 0.091405
-0.0322707 0.0261958 0.0914757
-0.0378706 0.0262542 0.0915109
-0.0491469 0.0263717 0.0915836
-0.0507447 0.0257058 0.0499533
-0.0509897 0.0255743 0.0417786
-0.0535406 0.0253879 0.0288033
-0.0548022 0.0252958 0.0223863
-0.057298 0.0251134 0.009691
-0.0592878 0.0249176 -0.00350666
-0.0593853 0.0246619 -0.0191686
-0.0594761 0.0244112 -0.0345187
-0.0595652 0.0241656 -0.04956
-0.0596521 0.0239248 -0.064302
-0.0642157 0.0238342 -0.0727029
-0.0799249 0.0239851 -0.073384
-0.0553133 0.0229721 -0.119696
-0.0526621 0.0227772 -0.129915
-0.0541712 0.0226057 -0.141326
-0.0495098 0.0175046 -0.449596
0.119974 0.0363289 0.464509
0.110258 0.0363462 0.459284
0.0984048 0.0364993 0.45973
0.0924404 0.0365764 0.459954
0.0804357 0.0367315 0.460406
0.0683289 0.0368879 0.460861
0.0622367 0.0369666 0.46109
0.119707 0.0326952 0.276764
0.119688 0.0324456 0.263867
0.109053 0.032573 0.263751
0.0982915 0.0327039 0.263735
0.0874425 0.0328359 0.26372
0.0765055 0.0329689 0.263704
0.0654799 0.033103 0.263688
0.0543638 0.0332382 0.263672
0.0431567 0.0333745 0.263656
0.10329 0.0293598 0.0942535
0.0932079 0.0294847 0.0943578
0.08304 0.0296107 0.094463
0.072785 0.0297378 0.0945688
-0.0917535 0.0286522 -0.0650205
-0.0699536 0.0276968 -0.100622
-0.0529943 0.0265451 -0.149402
-0.0550557 0.0263689 -0.159793
-0.05709 0.0261951 -0.170047
-0.0590988 0.0260235 -0.180165
-0.0593143 0.0257918 -0.192266
-0.0593568 0.0256752 -0.198311
-0.0594379 0.025445 -0.210243
-0.059517 0.0252189 -0.221963
-0.0595561 0.0251074 -0.227746
-0.0596327 0.0248872 -0.239159
0.115905 0.0187338 -0.446338
0.107166 0.0187815 -0.449376
0.0757858 0.0191632 -0.44942
0.0636868 0.0193103 -0.449437
0.0555171 0.0194097 -0.449449
0.013374 0.0199224 -0.449508
0.00467688 0.0200281 -0.44952
-0.0041132 0.0201351 -0.449532
0.116701 0.0342283 0.11842
0.116685 0.0339922 0.107851
0.115523 0.0338293 0.0998323
0.0642234 0.0345808 0.101167
0.0536887 0.0347351 0.101441
0.0430596 0.0348908 0.101718
0.0323348 0.0350479 0.101997
0.0214953 0.0352074 0.10231
0.0105184 0.0353704 0.102694
-0.000560641 0.0355349 0.103082
-0.0117433 0.035701 0.103473
-0.0230309 0.0358686 0.103868
-0.0344248 0.0360377 0.104267
-0.0459269 0.0362085 0.104669
-0.046185 0.0346416 0.0344054
-0.0487538 0.0343909 0.0215693
-0.0512857 0.0341437 0.00891757
-0.0537815 0.0339 -0.00355339
-0.0562418 0.0336598 -0.0158477
-0.0569221 0.0335163 -0.0226994
-0.0570424 0.0331769 -0.0379556
-0.0571569 0.0328443 -0.0529107
-0.0599408 0.0326377 -0.0639062
-0.0688636 0.0325445 -0.0736889
-0.0993786 0.0332286 -0.0622872
0.0472628 0.0225117 -0.44946
0.0347202 0.0226877 -0.449478
0.0262488 0.0228067 -0.44949
-0.0129976 0.0233575 -0.449545
-0.0265045 0.0235471 -0.449564
-0.0356316 0.0236752 -0.449577
-0.0978322 0.0252839 -0.416749
-0.0977962 0.0250964 -0.425115
-0.0977622 0.0249117 -0.433356
-0.0977113 0.0246397 -0.445494
-0.0510853 0.0485247 0.397029
-0.0510119 0.0481972 0.384145
-0.0515662 0.0479156 0.372683
-0.0529466 0.0476923 0.362998
-0.0543142 0.047471 0.353403
-0.0556692 0.0472518 0.343897
-0.0568856 0.0470265 0.334235
-0.0567369 0.0467162 0.322082
-0.0627587 0.0465086 0.310096
-0.0708555 0.0464362 0.302142
-0.0839148 0.0466728 0.303262
-0.0945177 0.0470395 0.311066
-0.099576 0.0467782 0.297567
-0.0995215 0.0464938 0.286374
-0.0551342 0.0353215 -0.126717
-0.046501 0.0347327 -0.144526
-0.0486069 0.0345021 -0.154956
-0.0506848 0.0342745 -0.165248
-0.0527357 0.0340499 -0.175404
-0.0547597 0.0338283 -0.185429
-0.0567575 0.0336094 -0.195324
-0.057237 0.033325 -0.206852
-0.0572882 0.0331762 -0.212761
-0.0573881 0.0328824 -0.224423
-0.0574844 0.0325936 -0.235882
0.0955457 0.0247452 -0.449392
0.0837495 0.0249329 -0.449409
-0.0924877 0.0284556 -0.421259
-0.0551529 0.0545394 0.405273
-0.0560808 0.0531853 0.356862
-0.0574309 0.0529391 0.347316
-0.101084 0.0527026 0.311491
-0.0517237 0.0442187 0.042905
-0.0514022 0.0439593 0.0339459
-0.0513584 0.0437196 0.0255054
-0.0524541 0.0433187 0.0106568
-0.0541319 0.0429608 -0.0030396
-0.055782 0.0426088 -0.0165117
-0.086433 0.0415838 -0.0720025
0.0746076 0.027946 -0.452341
0.0667816 0.0280788 -0.452577
0.0549024 0.0282803 -0.452937
0.0142334 0.0289649 -0.45435
0.0058654 0.0291057 -0.454644
-0.00258428 0.0292478 -0.454941
-0.045813 0.0299678 -0.456715
-0.0547098 0.0301159 -0.457085
-0.0592666 0.0606223 0.413612
-0.0581398 0.0597291 0.385777
-0.0582268 0.0593443 0.373425
-0.0618546 0.0581146 0.331847
-0.0623713 0.0577862 0.321027
-0.0681782 0.0575136 0.308661
-0.076116 0.0574117 0.300409
-0.0920596 0.0579208 0.306643
-0.102385 0.0576472 0.291402
-0.0589409 0.0468097 -0.02758
-0.0598627 0.0463892 -0.0415984
-0.0597506 0.0461459 -0.0493021
-0.0621372 0.0458302 -0.060895
-0.0680539 0.0457394 -0.0675176
-0.0767341 0.0455948 -0.0776017
-0.0988424 0.0464876 -0.062986
-0.0608082 0.0439739 -0.119378
-0.0512503 0.0431895 -0.138428
-0.0509973 0.042762 -0.15193
-0.0511575 0.0425683 -0.158223
-0.0625495 0.0401849 -0.241556
0.115897 0.0301302 -0.450563
0.10638 0.0301202 -0.456872
0.0916339 0.0303852 -0.457683
0.0804107 0.0305867 -0.458309
0.0461003 0.0311939 -0.460498
0.0344413 0.0313976 -0.461325
0.0267612 0.0315262 -0.462049
0.0151083 0.0317217 -0.463134
0.00744367 0.0318446 -0.464031
0.00611997 0.031542 -0.474533
-0.00258905 0.0317131 -0.474546
-0.0158312 0.0319733 -0.474564
-0.0247806 0.0321492 -0.474577
-0.0338291 0.032327 -0.47459
-0.0429782 0.0325067 -0.474603
-0.100302 0.0347376 -0.439388
-0.102407 0.0344572 -0.449674
-0.0622326 0.0657853 0.39393
-0.062126 0.0644978 0.356429
-0.0624319 0.0641095 0.344908
-0.0768014 0.0629373 0.301663
-0.101353 0.0638201 0.31197
-0.0582531 0.0540122 0.0529248
-0.0578899 0.0536925 0.0438257
-0.0575311 0.0533766 0.0348339
-0.0571766 0.0530643 0.0259472
-0.0573041 0.0525102 0.00970006
-0.0539279 0.0463608 -0.167599
-0.0552523 0.0460124 -0.178599
-0.0565571 0.0456691 -0.189435
-0.0578424 0.045331 -0.20011
-0.0591089 0.0449978 -0.210628
-0.0592121 0.0445995 -0.222316
-0.0591169 0.044394 -0.22825
0.115884 0.0327141 -0.458906
0.115866 0.0322947 -0.471155
0.103743 0.0324451 -0.474395
0.0960631 0.0326104 -0.474406
0.0843962 0.0328615 -0.474422
0.076518 0.033031 -0.474433
0.064547 0.0332886 -0.47445
0.056462 0.0334626 -0.474462
0.0441748 0.0337271 -0.474479
0.035875 0.0339057 -0.474491
0.0274867 0.0340862 -0.474503
0.0147354 0.0343606 -0.474521
-0.0669988 0.0724497 0.416269
-0.0651445 0.0708541 0.374606
-0.0653948 0.0704192 0.362774
-0.0666993 0.0691996 0.329215
-0.067986 0.0688829 0.319903
-0.0695462 0.0685954 0.311206
-0.0884302 0.0686249 0.300112
-0.105274 0.0688842 0.296473
-0.105237 0.0684695 0.285364
-0.0603175 0.0567108 -0.00200856
-0.0604669 0.056426 -0.00974596
-0.0620316 0.0559621 -0.0231831
-0.0636013 0.0555081 -0.0363579
-0.0643767 0.0552839 -0.0428655
-0.0641199 0.0547075 -0.0581768
-0.0724367 0.0545031 -0.0688965
-0.0781505 0.0543825 -0.0757295
-0.0940131 0.0549947 -0.0692776
-0.0665717 0.0527627 -0.111924
-0.0569835 0.0518248 -0.131065
-0.0639325 0.0479294 -0.240002
-0.0715058 0.0477907 -0.248492
-0.0581253 0.0419867 -0.395869
-0.0579697 0.0416528 -0.404733
-0.0578166 0.0413242 -0.413457
-0.0660741 0.0411608 -0.423041
-0.0743949 0.0410058 -0.43244
-0.102197 0.0422226 -0.417274
-0.102128 0.0419088 -0.425652
-0.0716539 0.0787399 0.425622
-0.0710676 0.078158 0.411528
-0.07049 0.0775847 0.397641
-0.0699207 0.0770196 0.383957
-0.0689616 0.0759299 0.357475
-0.0692269 0.0754715 0.345915
-0.0781697 0.0740183 0.304166
-0.10683 0.074995 0.310408
-0.0644956 0.0636023 0.0538851
-0.0640943 0.0632247 0.0447524
-0.0636979 0.0628515 0.0357275
-0.063306 0.0624827 0.0268085
-0.0628839 0.0617874 0.00979102
-0.0592642 0.0556102 -0.141465
-0.058959 0.0553227 -0.148417
-0.0586386 0.0547777 -0.161762
-0.0587478 0.0545292 -0.168007
-0.0589632 0.0540388 -0.18033
-0.0600135 0.0536189 -0.191429
-0.0612736 0.0532218 -0.202091
-0.062515 0.0528306 -0.212596
-0.0794685 0.0514948 -0.256465
-0.0914023 0.0520906 -0.249167
-0.10466 0.0527715 -0.240587
-0.0741072 0.0504749 -0.27844
-0.0633003 0.0495315 -0.295088
-0.0552796 0.0487834 -0.308635
-0.054812 0.0483447 -0.319245
-0.0543525 0.0479137 -0.329666
-0.0545024 0.0475299 -0.339301
-0.0548704 0.0471665 -0.348565
-0.0563703 0.0466932 -0.361271
-0.0573535 0.046383 -0.369601
-0.0583239 0.0460769 -0.37782
-0.10293 0.0449783 -0.433196
-0.102823 0.0444857 -0.445372
-0.0779222 0.084724 0.425182
-0.076049 0.0828698 0.383454
-0.0754427 0.0822696 0.369947
-0.0736541 0.0805179 0.330536
-0.0732385 0.079968 0.318075
-0.0863613 0.0793878 0.296389
-0.0935727 0.0796572 0.298085
-0.108184 0.0802057 0.301583
-0.108072 0.0797152 0.290301
-0.0658684 0.0659382 -0.00194561
-0.0659902 0.0656064 -0.00970149
-0.06623 0.0649526 -0.0249814
-0.0674655 0.0643991 -0.0385679
-0.0687685 0.0638625 -0.0518037
-0.0686101 0.0635286 -0.0594305
-0.0767707 0.0632785 -0.0703544
-0.088212 0.0633096 -0.0768354
-0.0628086 0.0605985 -0.123585
-0.0651128 0.0561839 -0.227191
-0.0609935 0.0490879 -0.388804
-0.0614724 0.0485498 -0.401558
-0.0612909 0.048165 -0.410349
-0.0653151 0.0478784 -0.419512
-0.0736977 0.0476999 -0.42892
-0.103922 0.0489068 -0.420012
-0.084912 0.0914133 0.439105
-0.0835316 0.0900566 0.410603
-0.0828605 0.0893936 0.396675
-0.0815468 0.0880966 0.369422
-0.0808985 0.0874614 0.35608
-0.0802575 0.086835 0.342925
-0.0793605 0.0851192 0.306345
-0.0712223 0.0736936 0.0641286
-0.0707771 0.0732521 0.0548515
-0.0703372 0.0728158 0.0456848
-0.0690483 0.0715377 0.0188283
-0.0686286 0.0711216 0.0100843
-0.0753784 0.066208 -0.100533
-0.0650698 0.064357 -0.134115
-0.0643973 0.0636898 -0.148135
-0.0637388 0.0630363 -0.161866
-0.0637017 0.0627392 -0.168276
-0.0669023 0.059673 -0.236666
-0.0710809 0.0594859 -0.243346
-0.0784726 0.0593003 -0.252015
-0.0832145 0.0591646 -0.257936
-0.0589544 0.0542382 -0.349315
-0.0590836 0.053811 -0.358643
-0.0603467 0.053261 -0.371345
-0.0612975 0.0529094 -0.379554
-0.090526 0.0967565 0.424297
-0.0883704 0.0946317 0.382443
-0.0876725 0.0939439 0.368896
-0.0869794 0.0932655 0.355536
-0.0862939 0.0925965 0.342363
-0.0856192 0.0919371 0.329379
-0.0849568 0.0912874 0.316583
-0.0875635 0.0904814 0.298553
-0.0987222 0.090704 0.296056
-0.0731404 0.0769812 0.0330926
-0.0714453 0.0752089 -0.00188231
-0.0715393 0.0748295 -0.00965667
-0.0717242 0.074082 -0.0249722
-0.0718152 0.0737139 -0.032516
-0.0720753 0.0729964 -0.0472702
-0.0728139 0.0727026 -0.0537094
-0.0687279 0.0695139 -0.115983
-0.0683658 0.0691464 -0.123228
-0.0662985 0.0664038 -0.1777
-0.0664454 0.0658089 -0.189891
-0.0665898 0.0652245 -0.201866
-0.0667247 0.0649418 -0.2077
-0.067924 0.0644652 -0.218147
-0.100791 0.0641764 -0.244704
-0.107677 0.0644746 -0.242972
-0.0671514 0.0608564 -0.291047
-0.0628587 0.0602472 -0.300734
-0.0623175 0.0596998 -0.311526
-0.061786 0.0591622 -0.322123
-0.0612639 0.0586342 -0.332532
-0.105549 0.0551598 -0.431056
-0.105457 0.0547542 -0.439247
-0.107379 0.0543005 -0.449682
-0.0976619 0.103583 0.438267
-0.096863 0.102805 0.423854
-0.0960844 0.10204 0.409671
-0.0953181 0.101286 0.3957
-0.0930817 0.0990897 0.35499
-0.0916359 0.0976765 0.328803
-0.0807123 0.0842676 0.0785804
-0.0801867 0.0837544 0.0690717
-0.0796695 0.0832477 0.0596809
-0.0791581 0.082747 0.0504025
-0.0776598 0.0812804 0.023225
-0.0771721 0.080803 0.0143784
-0.0760447 0.0766751 -0.0640577
-0.0843639 0.0763922 -0.0747176
-0.0705968 0.0728595 -0.13379
-0.0710028 0.0677476 -0.232058
-0.0927916 0.0673595 -0.253213
-0.0651906 0.0593518 -0.389379
-0.0665464 0.0587736 -0.401319
-0.0664534 0.0583165 -0.410024
-0.0673342 0.057943 -0.417741
-0.0736394 0.0577804 -0.424826
-0.0816057 0.0575354 -0.434536
-0.106578 0.059228 -0.4178
-0.0984344 0.10418 0.341241
-0.0976734 0.103436 0.328225
-0.096923 0.102702 0.315394
-0.0961807 0.101979 0.30274
-0.0963513 0.101385 0.291859
-0.0837108 0.0870777 0.0403239
-0.0816272 0.085041 0.0046953
-0.0811214 0.0845467 -0.00395274
-0.0806218 0.084058 -0.0125008
-0.0796396 0.0830975 -0.0293034
-0.0791568 0.0826255 -0.0375617
-0.0750428 0.078606 -0.107874
-0.0741838 0.0777655 -0.122578
-0.072929 0.0765379 -0.144054
-0.0721143 0.0757408 -0.157998
-0.0713165 0.0749601 -0.171655
-0.0712501 0.0746087 -0.177988
-0.071353 0.0739388 -0.190202
-0.0714538 0.0732809 -0.202199
-0.0715036 0.0729563 -0.208118
-0.0731876 0.0712011 -0.241011
-0.0805456 0.0709738 -0.249765
-0.0697416 0.0684727 -0.288329
-0.067703 0.0677112 -0.300858
-0.0654185 0.0653099 -0.342972
-0.065473 0.0645291 -0.357168
-0.0655505 0.0640225 -0.366405
-0.0656268 0.0635238 -0.375498
-0.0910974 0.0941757 0.0768198
-0.0905064 0.0936004 0.067293
-0.0893506 0.0924713 0.0485919
-0.0882223 0.0913691 0.0303364
-0.0876678 0.0908278 0.0213702
-0.0829581 0.0862297 -0.0547856
-0.0824623 0.0857472 -0.0627764
-0.0855966 0.0852619 -0.0731
-0.0800714 0.0834142 -0.101416
-0.0880967 0.0745957 -0.258207
-0.0696753 0.0709667 -0.30906
-0.0690741 0.0703239 -0.319741
-0.0684837 0.0696927 -0.33023
-0.108187 0.0654105 -0.428901
-0.108019 0.0646892 -0.441208
-0.107909 0.0642171 -0.449262
-0.0969447 0.0997659 0.0855892
-0.095075 0.0979463 0.0569839
-0.0938698 0.0967702 0.038492
-0.0921147 0.095058 0.0115712
-0.0909781 0.0939497 -0.00585389
-0.0904198 0.0934052 -0.0144147
-0.089868 0.092867 -0.0228769
-0.0887833 0.0918089 -0.0395119
-0.0943096 0.0893564 -0.083132
-0.0841902 0.0873312 -0.109911
-0.0832283 0.0863947 -0.124634
-0.0822888 0.0854783 -0.139043
-0.0813695 0.0845812 -0.153148
-0.0804694 0.0837027 -0.166961
-0.0800262 0.0832702 -0.17376
-0.0791539 0.0824186 -0.187149
-0.0787244 0.0819994 -0.193742
-0.0778784 0.0811734 -0.206728
-0.0770492 0.080364 -0.219455
-0.0764768 0.0795962 -0.231662
-0.077132 0.0789715 -0.242299
-0.0818248 0.0787807 -0.248376
-0.0704057 0.0728612 -0.338078
-0.0699031 0.069972 -0.385051
-0.0699451 0.0694344 -0.393877
-0.0711535 0.0687496 -0.405846
-0.0715178 0.0682612 -0.41407
-0.0756813 0.0678714 -0.42307
-0.0836016 0.0675776 -0.432863
-0.109191 0.0693592 -0.419807
-0.101544 0.104143 0.0750489
-0.100887 0.103505 0.065505
-0.0983481 0.10103 0.0284839
-0.0977322 0.10043 0.0195037
-0.0930501 0.095872 -0.0486794
-0.0919443 0.0947964 -0.0647701
-0.0914029 0.0942678 -0.0726781
-0.0898101 0.0927165 -0.0958868
-0.100397 0.0828739 -0.256158
-0.0767564 0.0799925 -0.286248
-0.0759854 0.0792424 -0.29747
-0.0756051 0.0788725 -0.303003
-0.0748552 0.0781431 -0.313914
-0.0723364 0.0756931 -0.350566
-0.0719365 0.0750505 -0.360343
-0.0719634 0.0744608 -0.369562
-0.102146 0.104629 0.00968504
-0.101515 0.104014 0.000908494
-0.10089 0.103406 -0.00776589
-0.0996599 0.10221 -0.0248175
-0.0990548 0.101623 -0.0331972
-0.0982438 0.0981059 -0.0851338
-0.0939225 0.0966268 -0.104472
-0.0928514 0.0955827 -0.119368
-0.0917995 0.0945605 -0.133949
-0.0907699 0.09356 -0.148222
-0.0897641 0.0925807 -0.162193
-0.0892691 0.0920987 -0.16907
-0.0882947 0.0911496 -0.18261
-0.0873404 0.09022 -0.195874
-0.0864054 0.089309 -0.208869
-0.0854889 0.0884163 -0.221606
-0.0850376 0.0879766 -0.227879
-0.0841486 0.0871103 -0.240239
-0.0876026 0.0863845 -0.253237
-0.0779883 0.0811178 -0.325728
-0.110776 0.0754499 -0.430886
-0.110644 0.0748933 -0.439104
-0.112381 0.0742568 -0.449688
-0.102693 0.105076 -0.0506649
-0.102081 0.104482 -0.0587671
-0.100881 0.103314 -0.0746927
-0.0856274 0.0884724 -0.277001
-0.085193 0.0880506 -0.282749
-0.0843381 0.0872193 -0.294082
-0.0834999 0.0864035 -0.305201
-0.0826756 0.0856027 -0.316117
-0.0810711 0.0840448 -0.337352
-0.0806791 0.0836641 -0.342541
-0.0799057 0.082913 -0.352778
-0.0791461 0.0821753 -0.362833
-0.0784001 0.0814506 -0.372711
-0.0773055 0.0803873 -0.387205
-0.0765916 0.0796937 -0.396659
-0.076218 0.0790467 -0.405662
-0.0762116 0.0784481 -0.414205
-0.0797066 0.0779313 -0.423783
-0.0872493 0.0775552 -0.4339
-0.102629 0.104919 -0.114017
-0.101464 0.103788 -0.128771
-0.100323 0.102681 -0.143212
-0.0992067 0.101598 -0.157348
-0.098657 0.101065 -0.164305
-0.0975763 0.100015 -0.178001
-0.0965191 0.098987 -0.191413
-0.0959988 0.0984809 -0.198016
-0.0949739 0.0974842 -0.211021
-0.0939699 0.0965075 -0.223766
-0.0929856 0.0955501 -0.236258
-0.0920206 0.0946116 -0.248505
-0.0933693 0.0939738 -0.258089
-0.0861737 0.0889324 -0.322605
-0.112623 0.0826509 -0.425277
-0.094229 0.0966874 -0.273394
-0.0932761 0.0957635 -0.284951
-0.0923425 0.0948572 -0.296289
-0.0914276 0.0939681 -0.307413
-0.0909763 0.0935297 -0.312897
-0.0892113 0.0918163 -0.334333
-0.0883518 0.0909827 -0.34476
-0.0875075 0.0901641 -0.355
-0.0866786 0.0893602 -0.365057
-0.0858646 0.0885705 -0.374936
-0.0850647 0.0877946 -0.384642
-0.0842786 0.0870322 -0.394179
-0.0835063 0.086283 -0.403552
-0.0827472 0.0855465 -0.412765
-0.0940058 0.0839782 -0.440486
-0.113363 0.0854828 -0.43287
-0.113138 0.0845407 -0.445126
-0.103036 0.105166 -0.219592
-0.101954 0.104115 -0.232218
-0.101421 0.103597 -0.238437
-0.10037 0.102577 -0.250692
-0.0940069 0.0964061 -0.324826
-0.0855834 0.0882388 -0.422938
-0.102954 0.105021 -0.269735
-0.101911 0.10401 -0.28141
-0.100887 0.103019 -0.292862
-0.0998846 0.102046 -0.304097
-0.0989013 0.101092 -0.315121
-0.0969889 0.0992361 -0.336561
-0.096058 0.0983334 -0.34699
-0.0942436 0.096576 -0.36729
-0.0933607 0.0957207 -0.37717
-0.0916415 0.0940548 -0.396414
-0.0908047 0.0932435 -0.405787
-0.101874 0.103913 -0.327057
-0.0994459 0.101558 -0.353253
-0.0966684 0.098869 -0.383166
-0.0936106 0.0959065 -0.41612
-0.0927699 0.0950923 -0.425177
-0.091989 0.0942975 -0.434043
-0.0975956 0.0939566 -0.441585
-0.102324 0.10429 -0.364526
-0.101363 0.10336 -0.374495
-0.0994937 0.10155 -0.39391
-0.0985832 0.100668 -0.403365
-0.101348 0.103292 -0.413782
-0.103142 0.104978 -0.433022
