ply
format ascii 1.0
comment Created by Open3D
element vertex 665
property double x
property double y
property double z
end_header
-0.154073 -0.416889 -0.188414
-0.154088 -0.41513 -0.169992
-0.154102 -0.417061 -0.1514
-0.114281 -0.416763 -0.190752
-0.154088 -0.404059 -0.169992
-0.154073 -0.394851 -0.188414
-0.154102 -0.394818 -0.1514
-0.153124 -0.420943 0.150364
-0.154359 -0.41856 0.171504
-0.154373 -0.42025 0.189018
-0.114281 -0.393927 -0.190752
-0.133903 -0.41972 0.150349
-0.154088 -0.374539 -0.169992
-0.114043 -0.418456 0.150333
-0.153124 -0.400993 0.150364
-0.154073 -0.365467 -0.188414
-0.154359 -0.398533 0.171504
-0.154373 -0.400142 0.189018
-0.114281 -0.374897 -0.190752
-0.154102 -0.36516 -0.1514
-0.133903 -0.399444 0.150349
-0.114043 -0.401965 0.150333
-0.154073 -0.354447 -0.188414
-0.154102 -0.354038 -0.1514
-0.153124 -0.381043 0.150364
-0.154359 -0.378506 0.171504
-0.154373 -0.380034 0.189018
-0.154088 -0.345019 -0.169992
-0.124055 -0.382295 0.150341
-0.114281 -0.344448 -0.190752
-0.154088 -0.333949 -0.169992
-0.153124 -0.361093 0.150364
-0.154359 -0.362485 0.171504
-0.154373 -0.359927 0.189018
0.153702 -0.417464 -0.190099
-0.154073 -0.325063 -0.188414
-0.124055 -0.361851 0.150341
0.153686 -0.414261 -0.171347
-0.154102 -0.324381 -0.1514
0.192289 -0.414449 -0.191006
0.153702 -0.403312 -0.190099
-0.154073 -0.314044 -0.188414
-0.153124 -0.341143 0.150364
-0.154359 -0.342458 0.171504
-0.154373 -0.339819 0.189018
0.15779 -0.421345 0.150115
-0.124055 -0.341408 0.150341
-0.114281 -0.314 -0.190752
-0.154088 -0.304428 -0.169992
0.153414 -0.416584 0.169909
0.153702 -0.384444 -0.190099
0.153686 -0.385855 -0.171347
0.188673 -0.419802 0.150093
-0.153124 -0.321193 0.150364
-0.154359 -0.322431 0.171504
0.192289 -0.385365 -0.191006
-0.143584 -0.294669 -0.190728
-0.154102 -0.294723 -0.1514
0.15779 -0.40116 0.150115
-0.133903 -0.322394 0.150349
-0.154373 -0.319711 0.189018
0.153414 -0.396386 0.169909
0.153686 -0.366917 -0.171347
-0.114281 -0.294969 -0.190752
0.188673 -0.399198 0.150093
-0.114043 -0.319511 0.150333
0.192289 -0.365976 -0.191006
0.153702 -0.356141 -0.190099
0.15779 -0.380976 0.150115
-0.153124 -0.301243 0.150364
-0.154359 -0.302405 0.171504
0.153678 -0.353362 -0.161919
-0.154088 -0.274908 -0.169992
0.153414 -0.376188 0.169909
-0.133903 -0.302117 0.150349
-0.154373 -0.299604 0.189018
0.188673 -0.378594 0.150093
-0.154073 -0.266295 -0.188414
-0.114043 -0.298897 0.150333
0.192289 -0.346586 -0.191006
0.153702 -0.337273 -0.190099
-0.154102 -0.265065 -0.1514
0.15779 -0.360792 0.150115
0.153686 -0.333776 -0.171347
0.153414 -0.35599 0.169909
-0.153124 -0.281294 0.150364
-0.154359 -0.282378 0.171504
-0.114281 -0.264521 -0.190752
0.188673 -0.357991 0.150093
-0.133903 -0.281841 0.150349
-0.154373 -0.279496 0.189018
0.153702 -0.323121 -0.190099
-0.143584 -0.253897 -0.190728
-0.154102 -0.253944 -0.1514
-0.114043 -0.282406 0.150333
0.192289 -0.327197 -0.191006
0.15779 -0.340608 0.150115
0.153686 -0.314839 -0.171347
-0.154088 -0.245388 -0.169992
0.153414 -0.335792 0.169909
0.188673 -0.337387 0.150093
-0.153124 -0.261344 0.150364
-0.154359 -0.262351 0.171504
0.192289 -0.312655 -0.191006
0.153702 -0.304253 -0.190099
-0.133903 -0.261565 0.150349
-0.154373 -0.259389 0.189018
-0.154088 -0.234318 -0.169992
0.15779 -0.320424 0.150115
-0.114043 -0.261793 0.150333
0.153414 -0.315594 0.169909
-0.114281 -0.234072 -0.190752
-0.154073 -0.225891 -0.188414
0.188673 -0.316783 0.150093
0.192289 -0.293265 -0.191006
0.153686 -0.286432 -0.171347
-0.154102 -0.224286 -0.1514
-0.153124 -0.241394 0.150364
-0.154359 -0.242324 0.171504
0.15779 -0.300239 0.150115
-0.133903 -0.241288 0.150349
-0.154373 -0.239281 0.189018
0.153702 -0.27595 -0.190099
-0.154073 -0.214872 -0.188414
0.153414 -0.295396 0.169909
-0.114043 -0.241179 0.150333
0.188673 -0.296179 0.150093
0.192289 -0.273876 -0.191006
0.153686 -0.267494 -0.171347
-0.154088 -0.204797 -0.169992
0.15779 -0.280055 0.150115
-0.153124 -0.221444 0.150364
-0.154359 -0.222297 0.171504
0.153702 -0.257082 -0.190099
-0.114281 -0.20743 -0.190752
0.153414 -0.275198 0.169909
-0.133903 -0.221012 0.150349
-0.154373 -0.219173 0.189018
0.153686 -0.253291 -0.171347
0.188673 -0.275576 0.150093
-0.114043 -0.220566 0.150333
0.192289 -0.254486 -0.191006
-0.143584 -0.194593 -0.190728
-0.154102 -0.194628 -0.1514
0.153702 -0.242931 -0.190099
0.15779 -0.259871 0.150115
0.153414 -0.255 0.169909
-0.153124 -0.201494 0.150364
-0.154359 -0.202271 0.171504
0.153686 -0.234353 -0.171347
0.188673 -0.254972 0.150093
-0.124055 -0.202391 0.150341
-0.154373 -0.199066 0.189018
-0.114281 -0.184594 -0.190752
0.153414 -0.244901 0.169909
0.153702 -0.224062 -0.190099
-0.154073 -0.174469 -0.188414
-0.154088 -0.175277 -0.169992
0.15779 -0.239687 0.150115
0.192289 -0.225402 -0.191006
0.188673 -0.234368 0.150093
-0.153124 -0.181544 0.150364
-0.154359 -0.182244 0.171504
-0.154088 -0.164207 -0.169992
-0.154102 -0.164971 -0.1514
0.153414 -0.224703 0.169909
-0.124055 -0.181948 0.150341
-0.154373 -0.178958 0.189018
0.153686 -0.205947 -0.171347
0.15779 -0.219503 0.150115
0.192289 -0.206013 -0.191006
0.153702 -0.19576 -0.190099
-0.143584 -0.153821 -0.190728
0.188673 -0.213764 0.150093
-0.114281 -0.154145 -0.190752
0.153414 -0.204505 0.169909
-0.153124 -0.161594 0.150364
-0.154359 -0.162217 0.171504
0.153686 -0.187009 -0.171347
0.15779 -0.199319 0.150115
-0.124055 -0.161504 0.150341
-0.154373 -0.15885 0.189018
0.192289 -0.186623 -0.191006
0.153702 -0.176891 -0.190099
0.188673 -0.19316 0.150093
0.153686 -0.172806 -0.171347
-0.154073 -0.134066 -0.188414
-0.154088 -0.134686 -0.169992
-0.154102 -0.135313 -0.1514
0.153414 -0.184307 0.169909
0.15779 -0.179135 0.150115
-0.153124 -0.141644 0.150364
-0.154359 -0.14219 0.171504
0.192289 -0.167234 -0.191006
-0.114043 -0.142234 0.150333
-0.133903 -0.139907 0.150349
-0.154373 -0.138743 0.189018
-0.154102 -0.124191 -0.1514
0.188673 -0.172557 0.150093
0.153702 -0.153306 -0.190099
0.153686 -0.153868 -0.171347
-0.114281 -0.123697 -0.190752
0.153414 -0.164109 0.169909
0.192289 -0.152692 -0.191006
0.15779 -0.15895 0.150115
-0.154079 -0.112234 -0.181066
-0.153124 -0.121694 0.150364
-0.154359 -0.122163 0.171504
-0.114043 -0.12162 0.150333
-0.133903 -0.11963 0.150349
-0.154373 -0.118635 0.189018
0.153702 -0.134437 -0.190099
0.153686 -0.134931 -0.171347
0.188673 -0.146802 0.150093
0.153414 -0.143911 0.169909
0.192289 -0.133302 -0.191006
-0.114281 -0.104667 -0.190752
0.15779 -0.138766 0.150115
-0.143584 -0.0945164 -0.190728
-0.154088 -0.094096 -0.169992
-0.154102 -0.0945338 -0.1514
-0.153124 -0.101744 0.150364
-0.154359 -0.102137 0.171504
0.188673 -0.126198 0.150093
0.173073 -0.1249 0.150104
0.153414 -0.123713 0.169909
-0.114043 -0.101007 0.150333
-0.133903 -0.099354 0.150349
-0.154373 -0.0985274 0.189018
0.192289 -0.113913 -0.191006
0.153702 -0.106135 -0.190099
0.153686 -0.106524 -0.171347
0.188673 -0.105594 0.150093
0.173073 -0.104508 0.150104
0.153414 -0.103515 0.169909
-0.143591 -0.0824583 0.150357
-0.154359 -0.0821098 0.171504
-0.154373 -0.0824413 0.189018
0.192289 -0.0945235 -0.191006
-0.114281 -0.0742181 -0.190752
-0.154079 -0.0717564 -0.181066
-0.114043 -0.0803931 0.150333
0.153702 -0.0872664 -0.190099
0.153686 -0.0828522 -0.171347
-0.154096 -0.0647556 -0.158858
0.188673 -0.0849906 0.150093
0.173073 -0.0841162 0.150104
0.153414 -0.0833168 0.169909
0.153702 -0.0731151 -0.190099
-0.143591 -0.0623465 0.150357
-0.154359 -0.062083 0.171504
-0.154373 -0.0623337 0.189018
-0.114043 -0.0597795 0.150333
0.192289 -0.0654394 -0.191006
0.153686 -0.0639146 -0.171347
-0.154079 -0.0496775 -0.181066
0.188673 -0.0643868 0.150093
0.173073 -0.0637244 0.150104
0.153414 -0.0631188 0.169909
0.153702 -0.0542467 -0.190099
-0.114281 -0.0437697 -0.190752
-0.143591 -0.0422348 0.150357
-0.154359 -0.0420563 0.171504
-0.154373 -0.042226 0.189018
0.192289 -0.0460499 -0.191006
0.153686 -0.0449769 -0.171347
-0.154073 -0.0348938 -0.188414
-0.154096 -0.0351531 -0.158858
-0.114043 -0.0391659 0.150333
0.188673 -0.043783 0.150093
0.173073 -0.0433326 0.150104
0.153414 -0.0429208 0.169909
-0.0161062 -0.0310464 -0.190834
-0.0506881 -0.0301654 -0.190805
-0.083362 -0.0293331 -0.190778
-0.154111 -0.0278819 -0.140161
-0.154126 -0.0280126 -0.121289
-0.154141 -0.0281445 -0.102239
-0.154159 -0.0283045 -0.0791412
-0.154175 -0.0284391 -0.0596914
-0.15419 -0.0285751 -0.0400557
-0.154206 -0.0287124 -0.0202313
-0.154222 -0.028851 -0.000215441
-0.154238 -0.028991 0.0199945
-0.154254 -0.0291323 0.0404016
-0.15427 -0.029275 0.0610085
-0.154284 -0.0293902 0.0776401
-0.1543 -0.0295354 0.0986144
-0.154317 -0.0296821 0.119797
0.145093 -0.0304658 -0.190968
0.100923 -0.0294906 -0.190931
0.0594938 -0.028576 -0.190896
0.0205565 -0.0277163 -0.190864
-0.114281 -0.0247394 -0.190752
-0.154088 -0.0239853 -0.169992
0.192289 -0.0266605 -0.191006
-0.154334 -0.0218755 0.141191
-0.154348 -0.0219632 0.158461
-0.154366 -0.0220738 0.180243
0.145095 -0.0117176 -0.190967
0.100924 -0.0113426 -0.190931
0.0594939 -0.0109908 -0.190896
0.0205565 -0.0106601 -0.190864
-0.0161062 -0.0103488 -0.190834
-0.0506881 -0.0100551 -0.190805
-0.083362 -0.00977769 -0.190778
-0.154111 -0.00929397 -0.140161
-0.154126 -0.00933753 -0.121289
-0.154141 -0.00938151 -0.102239
-0.154159 -0.00943483 -0.0791412
-0.154175 -0.00947972 -0.0596915
-0.15419 -0.00952505 -0.0400557
-0.154206 -0.00957081 -0.0202314
-0.154222 -0.00961701 -0.00021559
-0.154238 -0.00966367 0.0199945
-0.154254 -0.00971077 0.0404015
-0.154271 -0.00975834 0.0610084
-0.154284 -0.00979673 0.0776399
-0.154301 -0.00984515 0.0986142
-0.154317 -0.00989405 0.119797
0.192289 -0.00727105 -0.191006
-0.14358 -0.00555981 -0.190727
-0.154335 -0.0019887 0.141191
-0.154348 -0.00199667 0.158461
-0.154366 -0.00200673 0.180243
0.192289 0.00727102 -0.191006
-0.114281 0.00570907 -0.190752
-0.14358 0.00555979 -0.190727
-0.154088 0.00553504 -0.169992
-0.154102 0.00556079 -0.1514
0.145097 0.0117177 -0.190967
0.100926 0.0113426 -0.190931
0.0594957 0.0109908 -0.190896
0.0205579 0.0106601 -0.190864
-0.0161055 0.0103488 -0.190833
-0.050688 0.0100551 -0.190805
-0.083362 0.00977769 -0.190778
-0.15412 0.00932006 -0.128859
-0.154135 0.00936387 -0.109881
-0.154151 0.00940809 -0.090723
-0.154166 0.00945273 -0.0713836
-0.154181 0.0094978 -0.0518598
-0.154197 0.0095433 -0.0321489
-0.154213 0.00958924 -0.0122482
-0.154229 0.00963562 0.00784487
-0.154245 0.00968245 0.0281333
-0.154261 0.00972974 0.0486199
-0.154278 0.00977749 0.0693077
-0.154294 0.00982572 0.0901994
-0.154311 0.00987442 0.111298
-0.154325 0.0178447 0.128329
-0.154342 0.017934 0.149808
-0.154359 0.0180241 0.171504
-0.154373 0.0180969 0.189018
-0.154079 0.0275986 -0.181066
-0.154112 0.0278819 -0.140161
-0.154127 0.0280126 -0.121289
-0.154142 0.0281445 -0.102239
-0.15416 0.0283045 -0.0791414
-0.154176 0.0284391 -0.0596917
-0.154191 0.0285751 -0.0400559
-0.154207 0.0287124 -0.0202316
-0.154223 0.028851 -0.000215828
-0.154239 0.028991 0.0199942
-0.152876 0.0291708 0.0408863
-0.154296 0.0292743 0.0609992
-0.15432 0.0293892 0.0776259
-0.147432 0.0297299 0.101412
-0.119612 0.0325832 -0.141751
-0.117603 0.0327971 -0.121945
-0.115567 0.0330139 -0.101876
-0.115959 0.034195 0.0496171
-0.114043 0.0350431 0.150333
-0.133903 0.0344697 0.150349
-0.114281 0.0361575 -0.190752
-0.154723 0.035132 -0.158958
-0.153123 0.0379048 0.150365
-0.155281 0.0380173 0.171064
-0.155311 0.0381702 0.188555
-0.115959 0.0462639 0.0496169
-0.139838 0.0453311 0.0496334
-0.155798 0.045837 -0.188642
-0.138422 0.0477043 -0.0910745
-0.156287 0.0486973 0.0602596
-0.156328 0.0489359 0.0810198
-0.15561 0.0507326 -0.0910527
-0.156413 0.0509348 -0.0719328
-0.156453 0.0511765 -0.0524574
-0.124054 0.0551977 0.150341
-0.143578 0.0537449 -0.190727
-0.12065 0.0562123 -0.0910881
-0.143591 0.0583242 0.150357
-0.157302 0.0577973 0.161416
-0.15734 0.0580288 0.178799
-0.128021 0.0657026 0.049625
-0.157711 0.0643515 -0.170536
-0.157757 0.0646489 -0.152013
-0.151421 0.0682936 0.0496411
-0.158291 0.0681791 0.0677853
-0.158342 0.0685132 0.0885832
-0.138422 0.0706024 -0.0910746
-0.155612 0.0695223 -0.0910532
-0.158334 0.0696708 -0.0724024
-0.124054 0.0756413 0.150342
-0.12065 0.0755958 -0.0910882
-0.14359 0.078436 0.150357
-0.15933 0.0775758 0.160465
-0.159376 0.077886 0.17781
-0.143577 0.0759842 -0.190727
-0.158784 0.0749572 -0.189037
-0.158834 0.0753017 -0.170704
-0.158885 0.0756495 -0.152202
-0.159153 0.0775108 -0.053168
-0.128022 0.0856123 0.0496247
-0.151422 0.0878059 0.0496408
-0.160284 0.0875771 0.0711688
-0.160331 0.0879197 0.0877886
-0.1599 0.0858343 -0.189185
-0.138422 0.0896841 -0.0910747
-0.155614 0.0883119 -0.0910537
-0.16026 0.0884209 -0.0690052
-0.124054 0.0960849 0.150342
-0.14359 0.0985478 0.150357
-0.16139 0.0975683 0.172485
-0.161444 0.0979588 0.189897
-0.128023 0.105522 0.0496244
-0.16219 0.106318 0.0498611
-0.162505 0.108848 0.150371
-0.143576 0.105637 -0.190727
-0.161817 0.104387 -0.171151
-0.138423 0.108766 -0.0910747
-0.162653 0.110678 0.0702608
-0.124053 0.116529 0.150342
-0.155617 0.110859 -0.0910542
-0.16255 0.110751 -0.0695735
-0.14359 0.11866 0.150358
-0.163455 0.117602 0.184531
-0.163001 0.115004 -0.0502859
-0.162863 0.114726 -0.189576
-0.162931 0.115251 -0.171318
-0.128024 0.125432 0.0496241
-0.162754 0.12558 0.0496562
-0.164304 0.126634 0.0903662
-0.162505 0.128639 0.150371
-0.138423 0.127847 -0.0910748
-0.164618 0.129848 0.0695073
-0.133901 0.135852 0.15035
-0.16397 0.125518 -0.189723
-0.155619 0.129649 -0.0910547
-0.164451 0.129285 -0.0700451
-0.16582 0.14077 0.170353
-0.165891 0.141331 0.187681
-0.143575 0.135289 -0.190726
-0.128025 0.145342 0.0496237
-0.166256 0.145696 0.0854227
-0.153122 0.149624 0.150365
-0.166051 0.144741 -0.0510998
-0.151414 0.150247 0.0496437
-0.166541 0.148657 0.06055
-0.133901 0.156128 0.15035
-0.165891 0.144108 -0.171762
-0.138423 0.150745 -0.0910749
-0.155621 0.148438 -0.0910552
-0.166327 0.147612 -0.0743561
-0.167781 0.159969 0.160795
-0.16786 0.160604 0.178017
-0.128026 0.165251 0.0496234
-0.16691 0.154183 -0.190112
-0.167049 0.155312 -0.160938
-0.153122 0.169574 0.150365
-0.167947 0.163237 -0.0516061
-0.151415 0.169759 0.0496432
-0.168488 0.167646 0.0598191
-0.1339 0.176404 0.15035
-0.143574 0.164942 -0.190726
-0.138424 0.169827 -0.091075
-0.168137 0.165376 -0.0900801
-0.169018 0.1726 0.088465
-0.168607 0.16982 -0.0710767
-0.16977 0.179371 0.159854
-0.169879 0.18026 0.181356
-0.168429 0.168915 -0.179431
-0.143573 0.176062 -0.190726
-0.153122 0.189524 0.150365
-0.151416 0.189272 0.0496427
-0.169685 0.180935 -0.15033
-0.138424 0.188909 -0.0910751
-0.170214 0.185344 -0.0522112
-0.170815 0.190338 0.0589457
-0.171519 0.196191 0.189215
-0.155626 0.189775 -0.0910563
-0.170486 0.188138 -0.0715429
-0.171314 0.195049 0.0792753
-0.1339 0.204791 0.150351
-0.171752 0.198698 0.158917
-0.170623 0.190304 -0.179744
-0.153121 0.209474 0.150365
-0.151418 0.208784 0.0496422
-0.171523 0.198855 -0.150645
-0.138425 0.20799 -0.0910752
-0.172699 0.208769 0.0500994
-0.173483 0.215377 0.183897
-0.143572 0.205714 -0.190726
-0.155628 0.208564 -0.0910567
-0.133899 0.225068 0.150351
-0.173701 0.217737 0.153726
-0.172146 0.20507 -0.169059
-0.172731 0.210031 -0.0721
-0.173976 0.221072 0.0700132
-0.153121 0.229424 0.150365
-0.151419 0.228296 0.0496417
-0.174488 0.225919 0.0903897
-0.171399 0.214917 -0.190705
-0.173881 0.227659 0.0496652
-0.17372 0.220275 -0.151021
-0.138425 0.230888 -0.0910753
-0.174296 0.2252 -0.0609977
-0.175747 0.237596 0.165573
-0.155631 0.231111 -0.0910573
-0.176057 0.24072 0.152621
-0.17628 0.242622 0.186823
-0.171399 0.225753 -0.190705
-0.139847 0.246363 0.0496302
-0.175901 0.239843 0.0692677
-0.143587 0.251398 0.150359
-0.143572 0.235367 -0.190726
-0.162762 0.245362 0.0496531
-0.162504 0.25134 0.150372
-0.175056 0.233442 -0.169505
-0.175658 0.23863 -0.0804403
-0.175543 0.238055 -0.151333
-0.138425 0.24997 -0.0910754
-0.155633 0.2499 -0.0910578
-0.17752 0.255546 0.0809245
-0.178013 0.259793 0.151704
-0.178131 0.260813 0.168701
-0.139848 0.266071 0.0496299
-0.177762 0.25805 0.0604
-0.143587 0.27151 0.150359
-0.178674 0.265938 0.189937
-0.177274 0.254237 -0.0617701
-0.162504 0.271131 0.150372
-0.176788 0.250414 -0.180625
-0.177307 0.255308 -0.158942
-0.138426 0.269051 -0.0910755
-0.177821 0.259782 -0.0885299
-0.143572 0.265019 -0.190726
-0.155635 0.268688 -0.0910583
-0.178386 0.265082 -0.0620585
-0.162764 0.276273 0.0496524
-0.143586 0.2876 0.150359
-0.179961 0.278792 0.15079
-0.139849 0.28578 0.0496296
-0.180477 0.283691 0.167562
-0.180637 0.285087 0.188942
-0.171397 0.265486 -0.190705
-0.180049 0.280357 0.0595323
-0.162503 0.290922 0.150372
-0.180584 0.285428 0.0797009
-0.179659 0.277704 -0.0889586
-0.181679 0.295379 0.171248
-0.162766 0.295593 0.0496519
-0.143586 0.307712 0.150359
-0.180826 0.298035 0.150384
-0.179864 0.280215 -0.155721
-0.155637 0.291235 -0.0910588
-0.18091 0.289759 -0.0703316
-0.181948 0.298871 0.0588122
-0.162503 0.310712 0.150372
-0.143572 0.294672 -0.190726
-0.18038 0.285436 -0.181138
-0.181433 0.294705 -0.0513728
-0.181856 0.299127 -0.0894712
-0.151425 0.318052 0.0496394
-0.180826 0.317514 0.150384
-0.143572 0.305792 -0.190726
-0.181664 0.297766 -0.156023
-0.15564 0.310024 -0.0910593
-0.182539 0.305493 -0.0516722
-0.18363 0.315131 0.0784845
-0.15312 0.329174 0.150366
-0.184469 0.322531 0.178423
-0.182746 0.307659 -0.070794
-0.173887 0.319486 0.0496629
-0.171396 0.305219 -0.190705
-0.146697 0.34017 0.114493
-0.151294 0.339695 0.125365
-0.151427 0.337563 0.049639
-0.167448 0.338025 0.114181
-0.17641 0.3371 0.135511
-0.186131 0.338644 0.190452
-0.155642 0.328812 -0.0910598
-0.184044 0.320457 -0.0899815
-0.146018 0.340231 0.0145504
-0.150512 0.339767 0.0253128
-0.185813 0.336172 0.11046
-0.186257 0.340096 0.160513
-0.183784 0.318458 -0.160005
-0.145672 0.340266 -0.0337349
-0.157497 0.339045 -0.00524646
-0.16631 0.338135 0.0159862
-0.184793 0.335339 0.0496739
-0.18494 0.329053 -0.0713467
-0.165747 0.338193 -0.0314847
-0.178737 0.336852 -7.18236e-06
-0.185776 0.336484 0.021377
-0.186207 0.340327 0.069328
-0.146472 0.340178 -0.123601
-0.185477 0.334147 -0.0524676
-0.185144 0.33619 -0.0293105
-0.186769 0.345645 0.089476
-0.156157 0.339175 -0.144273
-0.167516 0.338004 -0.116419
-0.188068 0.357533 0.189462
-0.171395 0.334116 -0.190705
-0.176761 0.337043 -0.136839
-0.185089 0.336185 -0.116304
-0.185825 0.337852 -0.094141
-0.187754 0.355054 0.113757
-0.188063 0.357804 0.146991
-0.185366 0.334056 -0.18185
-0.186647 0.345487 -0.0451361
-0.18825 0.359794 0.125989
-0.185924 0.339331 -0.160357
-0.188013 0.357991 0.0605402
-0.188159 0.3596 0.0364346
-0.187488 0.353897 -0.0719884
-0.18804 0.358837 -0.0146781
-0.189834 0.374886 0.171497
-0.188711 0.365141 0.0164205
-0.190382 0.380104 0.188279
-0.171394 0.355788 -0.190705
-0.187065 0.350679 -0.189222
-0.18792 0.358342 -0.102073
-0.188586 0.364313 -0.0341705
-0.189669 0.374007 0.0760731
-0.189868 0.375792 0.0963798
-0.190069 0.377595 0.116881
-0.190354 0.380148 0.145916
-0.190984 0.386099 0.170929
-0.188056 0.360115 -0.160706
-0.188346 0.362718 -0.131681
-0.190018 0.37773 0.0357662
-0.190217 0.379515 0.0556754
-0.189224 0.370886 -0.079953
-0.189413 0.37259 -0.061131
-0.189721 0.375348 -0.0306538
-0.188546 0.365061 -0.182304
-0.153128 0.408971 0.150362
-0.180826 0.399328 0.150384
-0.190649 0.384244 -0.0116046
-0.191582 0.392634 0.0793631
-0.190037 0.379014 -0.106251
-0.190706 0.385302 -0.0765606
-0.193275 0.40845 0.169796
-0.193496 0.410438 0.19096
-0.171393 0.384685 -0.190705
-0.190141 0.380472 -0.164646
-0.190368 0.382524 -0.143003
-0.171393 0.395522 -0.190705
-0.190929 0.388351 -0.189747
-0.192173 0.40035 -0.172132
-0.19241 0.402501 -0.150614
-0.193024 0.408778 -0.190031
-0.193695 0.415115 -0.161632
