ply
format ascii 1.0
comment Created by Open3D
element vertex 1278
property double x
property double y
property double z
end_header
0.248035 -0.239956 -0.173158
0.248006 -0.234553 -0.192538
0.247973 -0.228669 -0.213644
0.247942 -0.223072 -0.233717
0.247912 -0.217743 -0.252831
0.247881 -0.212044 -0.273272
0.165542 -0.253112 -0.219023
0.146905 -0.256158 -0.229119
0.232004 -0.210565 -0.296463
0.209409 -0.217667 -0.296498
0.192314 -0.22304 -0.296525
0.170651 -0.229849 -0.296559
0.151564 -0.235848 -0.296589
0.131452 -0.24217 -0.296621
0.110233 -0.248839 -0.296654
0.0923966 -0.254445 -0.296682
0.0689384 -0.261819 -0.296719
0.04917 -0.268032 -0.29675
0.0284404 -0.274548 -0.296782
0.0122195 -0.279646 -0.296808
-0.0103693 -0.286746 -0.296843
-0.0280783 -0.292313 -0.296871
-0.0527881 -0.300079 -0.29691
-0.065642 -0.304119 -0.29693
-0.0924171 -0.312535 -0.296972
-0.113491 -0.316489 -0.297005
-0.128044 -0.318315 -0.297028
0.146634 -0.250514 -0.210466
0.12714 -0.253629 -0.220793
0.248081 -0.235663 -0.143872
-0.158439 -0.316553 -0.297075
0.04917 -0.252332 -0.29675
0.110233 -0.232181 -0.296654
0.0122195 -0.260925 -0.296808
-0.0220994 -0.27099 -0.296861
-0.0527881 -0.27999 -0.29691
-0.128044 -0.302061 -0.297028
0.247977 -0.212112 -0.211064
0.111717 -0.251267 -0.213012
0.209409 -0.201273 -0.296498
0.139625 -0.221556 -0.296608
0.0689384 -0.2421 -0.296719
-0.113491 -0.295122 -0.297005
-0.190681 -0.317557 -0.297126
0.248049 -0.222069 -0.164576
0.247927 -0.201934 -0.243389
0.132055 -0.247206 -0.197075
0.170651 -0.210615 -0.296559
-0.0788469 -0.282473 -0.29695
0.247874 -0.191412 -0.277669
0.232004 -0.191182 -0.296463
-0.207549 -0.316623 -0.297152
0.248675 -0.318607 0.236517
0.248124 -0.230257 -0.115756
0.248014 -0.212366 -0.18709
0.0284404 -0.246978 -0.296782
0.247902 -0.192333 -0.259766
0.0923966 -0.226765 -0.296682
-0.158439 -0.29703 -0.297075
-0.233851 -0.318155 -0.297193
0.248703 -0.317304 0.255304
0.230811 -0.317263 0.234972
0.248144 -0.229192 -0.10268
0.192314 -0.19691 -0.296525
0.248081 -0.216976 -0.143872
0.112044 -0.244307 -0.185281
0.091773 -0.247098 -0.196697
-0.0527881 -0.262412 -0.29691
-0.0993439 -0.275209 -0.296983
-0.190681 -0.300314 -0.297126
-0.207549 -0.30495 -0.297152
0.248741 -0.317552 0.281236
0.211571 -0.316486 0.234942
0.04917 -0.232145 -0.29675
0.0122195 -0.242204 -0.296808
-0.0220994 -0.251547 -0.296861
-0.128044 -0.280388 -0.297028
0.248675 -0.300825 0.236517
0.191672 -0.315683 0.234911
0.110233 -0.211357 -0.296654
0.0689384 -0.222382 -0.296719
-0.0788469 -0.261836 -0.29695
0.221271 -0.304749 0.234957
0.17108 -0.318016 0.234879
0.248192 -0.225556 -0.071858
0.24804 -0.202471 -0.170317
0.247973 -0.192312 -0.213644
0.0921988 -0.242209 -0.176761
0.139624 -0.201506 -0.296607
-0.233851 -0.30023 -0.297193
0.24812 -0.212376 -0.118967
0.071665 -0.243731 -0.182997
0.209409 -0.181237 -0.296498
0.170651 -0.19138 -0.296559
-0.174319 -0.281663 -0.2971
0.248741 -0.302211 0.281236
0.248703 -0.296251 0.255304
0.149759 -0.317212 0.234846
0.247926 -0.181649 -0.243389
0.0284404 -0.226301 -0.296782
0.24801 -0.191989 -0.189823
0.247874 -0.172006 -0.277669
0.232004 -0.1718 -0.296463
-0.0993439 -0.256774 -0.296983
-0.190681 -0.280197 -0.297126
0.131405 -0.315429 0.234817
0.248246 -0.223992 -0.0389275
0.248148 -0.210389 -0.0993531
0.0844666 -0.238513 -0.159123
0.0923966 -0.205473 -0.296682
-0.0527881 -0.242323 -0.29691
-0.128044 -0.261425 -0.297028
0.201706 -0.294502 0.234927
0.181465 -0.299586 0.234895
0.112492 -0.316911 0.234787
0.248071 -0.196949 -0.149887
0.247902 -0.172467 -0.259766
-0.0220994 -0.232104 -0.296861
0.248675 -0.280078 0.236517
0.160513 -0.301657 0.234862
0.047462 -0.240475 -0.169558
0.192314 -0.176379 -0.296525
0.04917 -0.211959 -0.29675
0.0122195 -0.221143 -0.296808
-0.207549 -0.275769 -0.297152
-0.233851 -0.282306 -0.297193
0.0890231 -0.316046 0.234751
0.248288 -0.222966 -0.0117102
0.0615687 -0.237685 -0.154784
-0.0788469 -0.241199 -0.29695
0.248186 -0.206841 -0.0753822
-0.174319 -0.261847 -0.2971
0.248751 -0.282153 0.287882
0.248712 -0.276561 0.261691
0.230811 -0.275162 0.234972
0.142483 -0.29642 0.234834
0.120126 -0.3018 0.234799
0.248325 -0.223437 0.0128339
0.248204 -0.206879 -0.0647296
0.110233 -0.190534 -0.296654
0.0689384 -0.200472 -0.296719
-0.199051 -0.264969 -0.297139
0.248344 -0.223681 0.0255536
0.248115 -0.192493 -0.122157
0.24804 -0.182324 -0.170317
0.247965 -0.172097 -0.218756
0.0422139 -0.236259 -0.147282
0.139624 -0.181455 -0.296607
0.181465 -0.280764 0.234895
0.0222873 -0.237247 -0.152534
0.170651 -0.172146 -0.296559
0.0284404 -0.205624 -0.296782
-0.0993439 -0.235705 -0.296983
-0.128044 -0.242462 -0.297028
0.248675 -0.262295 0.236517
0.248397 -0.226064 0.0610359
0.248144 -0.192261 -0.10268
0.0468808 -0.233245 -0.131354
0.209409 -0.161201 -0.296498
-0.0527881 -0.222234 -0.29691
-0.224946 -0.262309 -0.297179
0.248655 -0.256837 0.224296
0.248439 -0.229269 0.0892459
0.24801 -0.172298 -0.189823
0.247926 -0.161363 -0.243389
0.0923966 -0.186309 -0.296682
0.248616 -0.24911 0.200549
0.248581 -0.244494 0.177676
0.248556 -0.241142 0.16107
0.248521 -0.236816 0.139629
0.248486 -0.232642 0.118945
0.232004 -0.152417 -0.296463
0.0122195 -0.202422 -0.296808
-0.0220994 -0.21023 -0.296861
-0.242898 -0.260465 -0.297208
0.248741 -0.262325 0.281236
0.248703 -0.257152 0.255304
0.248276 -0.202308 -0.019637
0.248076 -0.176924 -0.146889
0.247874 -0.150836 -0.277669
0.0255378 -0.231954 -0.122297
0.00579768 -0.233893 -0.134841
0.04917 -0.191772 -0.29675
-0.0788469 -0.220561 -0.29695
-0.174319 -0.242032 -0.2971
0.248252 -0.196888 -0.0351279
0.247898 -0.152152 -0.26205
-0.00507218 -0.233737 -0.134032
-0.199051 -0.244698 -0.297139
0.248192 -0.187403 -0.071857
0.192314 -0.155848 -0.296525
0.0101416 -0.229984 -0.107659
0.110231 -0.171793 -0.296653
0.0689384 -0.180754 -0.296719
-0.0993439 -0.21727 -0.296983
0.248675 -0.241549 0.236517
0.24839 -0.207315 0.0564711
0.248313 -0.197437 0.00452185
-0.0135505 -0.230931 -0.114748
0.0284404 -0.187244 -0.296782
-0.128044 -0.220789 -0.297028
-0.224946 -0.241561 -0.297179
0.248722 -0.244525 0.268141
0.248655 -0.23629 0.224297
0.248616 -0.231831 0.200549
0.248447 -0.211837 0.0940885
0.248332 -0.197365 0.0170391
0.248124 -0.172425 -0.115756
0.24804 -0.162178 -0.170317
0.247957 -0.152132 -0.223804
0.139624 -0.161405 -0.296607
-0.0527881 -0.202145 -0.29691
-0.242898 -0.242398 -0.297208
0.248581 -0.224708 0.177676
0.248556 -0.221628 0.16107
-0.0061273 -0.227901 -0.0921901
-0.0344275 -0.230385 -0.110715
0.248751 -0.242066 0.287882
0.24837 -0.197217 0.0430022
0.170651 -0.150989 -0.296559
0.0923966 -0.167146 -0.296682
-0.0220994 -0.190787 -0.296861
-0.174319 -0.222216 -0.2971
0.248263 -0.181967 -0.0274418
0.248221 -0.177195 -0.0538368
0.248006 -0.152116 -0.192538
0.209409 -0.141165 -0.296498
0.0122195 -0.181361 -0.296808
-0.065642 -0.197232 -0.29693
0.248495 -0.206657 0.124047
0.248153 -0.167383 -0.0960018
-0.0276337 -0.226476 -0.0763007
-0.0526734 -0.22823 -0.0947073
0.04917 -0.171586 -0.29675
-0.190681 -0.219847 -0.297126
0.248684 -0.224858 0.242717
0.248521 -0.2067 0.139628
0.248085 -0.157298 -0.140833
-0.0924171 -0.19746 -0.296972
0.248191 -0.167204 -0.0718564
0.247881 -0.132195 -0.273272
-0.0430363 -0.225558 -0.064921
-0.0730422 -0.227416 -0.0880665
0.232004 -0.131273 -0.296463
-0.128044 -0.201826 -0.297028
-0.207549 -0.217405 -0.297152
0.248655 -0.215743 0.224297
0.248616 -0.211671 0.200549
0.24839 -0.186965 0.0564709
0.248307 -0.177352 0.00041616
-0.0686857 -0.226174 -0.0726174
0.192314 -0.137184 -0.296525
0.0689384 -0.161035 -0.296719
-0.113491 -0.196303 -0.297005
-0.158439 -0.204992 -0.297075
-0.233851 -0.219571 -0.297193
0.248741 -0.22244 0.281236
0.248581 -0.204923 0.177676
0.248556 -0.202113 0.16107
0.248463 -0.192444 0.1039
0.247916 -0.132499 -0.250492
-0.0899978 -0.226492 -0.0766001
0.110231 -0.15097 -0.296653
0.0284404 -0.166567 -0.296782
-0.0527881 -0.182056 -0.29691
0.248712 -0.216111 0.261691
0.248433 -0.186544 0.0844423
0.248351 -0.177439 0.0298613
0.248114 -0.15208 -0.122156
-0.0677994 -0.224196 -0.0466256
0.24804 -0.142031 -0.170317
-0.0865915 -0.224245 -0.0484807
-0.105102 -0.225361 -0.0625643
0.139624 -0.141355 -0.296607
-0.0220994 -0.171344 -0.296861
-0.0788469 -0.181866 -0.29695
0.248487 -0.18692 0.118944
0.247964 -0.132163 -0.218755
-0.087233 -0.223815 -0.0322676
-0.190681 -0.19973 -0.297126
0.248269 -0.161457 -0.023554
0.248227 -0.157206 -0.0501511
-0.111575 -0.22398 -0.0385523
0.170651 -0.131754 -0.296559
0.0923946 -0.145854 -0.296681
0.0122195 -0.160299 -0.296808
0.248675 -0.200056 0.236517
0.248645 -0.197184 0.218275
0.248148 -0.147163 -0.0993529
0.248006 -0.132488 -0.192538
-0.107745 -0.223412 -0.017113
-0.134259 -0.224089 -0.0426993
0.04917 -0.151399 -0.29675
-0.207549 -0.196978 -0.297152
-0.233851 -0.201647 -0.297193
0.248616 -0.191512 0.200549
0.248071 -0.137143 -0.149886
-0.128206 -0.223451 -0.0186226
-0.147811 -0.223951 -0.0375033
0.209409 -0.121128 -0.296498
-0.0993439 -0.175133 -0.296983
-0.128044 -0.180153 -0.297028
0.248751 -0.201978 0.287882
0.248702 -0.197 0.255305
0.248448 -0.172364 0.0940866
0.248397 -0.167313 0.0610355
0.248298 -0.157427 -0.00365496
0.248191 -0.147005 -0.0718559
-0.130758 -0.223365 -0.000110626
-0.151788 -0.223555 -0.0225724
0.248556 -0.179811 0.16107
0.248531 -0.17738 0.144915
-0.149898 -0.223401 0.00117642
-0.168519 -0.223469 -0.0193574
0.0689384 -0.141316 -0.296719
-0.0527881 -0.161967 -0.29691
0.248345 -0.156947 0.025552
0.247878 -0.11235 -0.275477
-0.15729 -0.223892 0.019492
-0.171701 -0.223362 -0.000320196
0.232004 -0.11189 -0.296463
0.110231 -0.132229 -0.296653
0.0284404 -0.145889 -0.296782
-0.158439 -0.177102 -0.297075
-0.190681 -0.182488 -0.297126
0.24859 -0.177479 0.183314
0.24848 -0.167356 0.113884
0.248109 -0.132475 -0.125323
0.247895 -0.112207 -0.264321
-0.17752 -0.223937 0.021141
-0.192115 -0.223398 0.00100452
0.192314 -0.116653 -0.296525
-0.0220994 -0.1519 -0.296861
-0.0788469 -0.161229 -0.29695
0.248675 -0.182273 0.236517
0.248129 -0.132193 -0.112521
-0.187541 -0.224953 0.041842
-0.198416 -0.223984 0.0228444
-0.224946 -0.182283 -0.297179
0.248644 -0.176735 0.218276
0.248263 -0.142052 -0.0274411
0.248045 -0.122289 -0.167457
0.247933 -0.11225 -0.238582
-0.205434 -0.226015 0.0550615
-0.209569 -0.225153 0.0443052
-0.222156 -0.223952 0.0216245
0.139624 -0.121304 -0.296607
0.0122195 -0.141578 -0.296808
-0.242898 -0.182175 -0.297208
0.248616 -0.171353 0.200549
0.248233 -0.137067 -0.046437
-0.226878 -0.226533 0.0614852
-0.235107 -0.224779 0.0395976
0.0923946 -0.126691 -0.296681
-0.0993439 -0.156698 -0.296983
-0.128044 -0.16119 -0.297028
0.248761 -0.181309 0.294597
0.248712 -0.176818 0.261691
0.247973 -0.111943 -0.213644
-0.246832 -0.229104 0.0856475
-0.248199 -0.22683 0.0674709
0.04917 -0.131212 -0.29675
0.248556 -0.160297 0.16107
0.248522 -0.157421 0.139628
0.248457 -0.151967 0.098971
0.248404 -0.147495 0.0656385
0.248286 -0.137119 -0.0117078
0.248171 -0.127179 -0.0858058
0.170651 -0.110597 -0.296559
0.248319 -0.137419 0.00866109
0.248196 -0.127274 -0.0683048
0.248066 -0.116127 -0.152864
-0.0527881 -0.141878 -0.29691
-0.174319 -0.159939 -0.2971
-0.190681 -0.162371 -0.297126
-0.207549 -0.164878 -0.297152
0.248582 -0.156872 0.177676
0.248346 -0.137174 0.0255515
0.209409 -0.101092 -0.296498
0.0689362 -0.121598 -0.296718
0.248674 -0.161527 0.236517
0.248496 -0.147226 0.124046
0.248377 -0.137488 0.0474542
0.0284404 -0.125212 -0.296782
-0.0220994 -0.132457 -0.296861
-0.0788469 -0.140592 -0.29695
0.248654 -0.157038 0.224299
-0.248169 -0.209835 0.0866355
-0.248199 -0.207443 0.0674709
-0.248233 -0.204528 0.0441197
0.110231 -0.111405 -0.296653
-0.233851 -0.159824 -0.297193
0.248751 -0.161891 0.287882
0.248617 -0.151194 0.200548
0.248124 -0.112451 -0.115755
-0.128044 -0.142226 -0.297028
0.248722 -0.156435 0.268141
0.248573 -0.144894 0.172089
0.24828 -0.122333 -0.0156869
0.248023 -0.102401 -0.181572
0.247895 -0.0924586 -0.264321
0.232004 -0.0907454 -0.296463
0.192314 -0.0961218 -0.296525
0.0122195 -0.120517 -0.296808
-0.0993439 -0.135629 -0.296983
0.248244 -0.117219 -0.038925
0.248048 -0.102415 -0.164576
0.139624 -0.101254 -0.296607
0.248539 -0.136745 0.150252
0.248473 -0.131966 0.108868
0.248404 -0.126974 0.065638
0.247941 -0.0924027 -0.233716
0.0923946 -0.105398 -0.296681
0.0491673 -0.111026 -0.296748
-0.174319 -0.140124 -0.2971
-0.190681 -0.142254 -0.297126
0.248442 -0.12708 0.0892418
0.248311 -0.117494 0.00452512
0.248171 -0.107272 -0.0858062
-0.248169 -0.190224 0.0866356
-0.248213 -0.18699 0.0580512
-0.0527881 -0.12179 -0.29691
0.248674 -0.14078 0.236518
0.248346 -0.117401 0.025551
0.248202 -0.107397 -0.0647274
0.247981 -0.0914671 -0.208467
-0.24824 -0.181081 0.039528
0.170651 -0.0913625 -0.296559
-0.224946 -0.140787 -0.297179
0.248654 -0.136491 0.224299
0.248505 -0.126173 0.129193
0.248377 -0.117306 0.0474539
0.248089 -0.0972112 -0.137772
0.247878 -0.0822717 -0.275477
0.0689362 -0.10188 -0.296718
0.0284404 -0.106832 -0.296782
-0.0788469 -0.119954 -0.29695
-0.242898 -0.140019 -0.297208
0.248761 -0.141018 0.294597
0.248703 -0.136847 0.255303
0.248617 -0.131035 0.200548
-0.0220994 -0.110583 -0.296861
0.209409 -0.0810558 -0.296498
-0.0993439 -0.117194 -0.296983
-0.128044 -0.120554 -0.297028
0.248555 -0.121268 0.161072
-0.24817 -0.170613 0.0866358
0.110231 -0.0905819 -0.296653
0.0122195 -0.101796 -0.296808
0.248458 -0.112323 0.0989692
0.248291 -0.101747 -0.0076955
0.248129 -0.0913527 -0.112521
-0.248199 -0.164791 0.067471
-0.248233 -0.162475 0.0441198
-0.174319 -0.120308 -0.2971
-0.190681 -0.122137 -0.297126
0.248664 -0.122403 0.23038
0.248582 -0.1173 0.177675
0.248489 -0.111614 0.118941
0.248419 -0.107355 0.0749589
0.248262 -0.0974407 -0.0274403
0.248019 -0.0822494 -0.18434
0.192314 -0.0774574 -0.296525
0.248049 -0.0821349 -0.164577
0.232004 -0.0713629 -0.296463
0.139624 -0.0812038 -0.296607
0.0923946 -0.086235 -0.296681
0.0491673 -0.0908398 -0.296748
-0.0527881 -0.101701 -0.29691
-0.224946 -0.12004 -0.297179
-0.242898 -0.121952 -0.297208
0.248761 -0.122423 0.294597
0.248634 -0.114839 0.212312
0.24834 -0.0972342 0.0212766
0.248172 -0.087366 -0.0858066
0.247919 -0.0724063 -0.248138
-0.0788469 -0.101897 -0.29695
0.24872 -0.116947 0.268144
0.248694 -0.115225 0.248979
0.248522 -0.105403 0.139627
0.248377 -0.0971241 0.0474535
0.248208 -0.0873715 -0.0611234
0.247948 -0.0723112 -0.22879
-0.24817 -0.151003 0.0866359
0.247985 -0.0724396 -0.205854
-0.248254 -0.142162 0.030422
0.170651 -0.0721283 -0.296559
0.0689362 -0.082161 -0.296718
0.0284373 -0.0861556 -0.296781
-0.0220994 -0.0911402 -0.296861
-0.128044 -0.10159 -0.297028
0.248554 -0.101754 0.161074
0.248109 -0.0773658 -0.125322
-0.24822 -0.140326 0.0533811
-0.0993439 -0.0961256 -0.296983
-0.174319 -0.100493 -0.2971
-0.190681 -0.102021 -0.297126
0.24872 -0.104797 0.268143
0.248674 -0.102251 0.236518
0.248482 -0.09238 0.113881
0.248285 -0.0822716 -0.0117057
0.247881 -0.0612178 -0.273272
-0.248185 -0.134538 0.0769989
0.110231 -0.0718408 -0.296653
0.0122186 -0.0807348 -0.296807
-0.224946 -0.102256 -0.297179
0.248599 -0.0955738 0.189005
0.248435 -0.0874013 0.084439
0.248237 -0.0774649 -0.0426938
0.248133 -0.072262 -0.109264
0.209409 -0.0610195 -0.296498
-0.242898 -0.100874 -0.297208
0.248761 -0.100727 0.294597
-0.0527881 -0.0816115 -0.29691
-0.0924171 -0.0849991 -0.296972
0.248523 -0.0862389 0.139626
0.248331 -0.07723 0.01704
0.248019 -0.0624302 -0.18434
-0.24822 -0.121104 0.0533812
-0.248247 -0.11975 0.0349624
0.0923946 -0.0670716 -0.296681
0.0491673 -0.0706532 -0.296748
0.248384 -0.077262 0.0519429
0.248172 -0.0674598 -0.0858071
0.248061 -0.0624779 -0.155821
0.192314 -0.0569265 -0.296525
0.139624 -0.0611535 -0.296607
0.248653 -0.0865912 0.2243
0.248553 -0.0822399 0.161076
0.248203 -0.0666988 -0.064729
-0.248199 -0.114384 0.067471
0.232004 -0.0519804 -0.296463
-0.0220994 -0.0716969 -0.296861
-0.065642 -0.0750755 -0.29693
-0.128044 -0.0799175 -0.297028
0.248617 -0.0820765 0.200548
0.247919 -0.0522425 -0.248138
-0.24817 -0.111781 0.0866362
0.0689362 -0.0624424 -0.296718
0.0284373 -0.0654783 -0.296781
-0.113491 -0.0761175 -0.297005
-0.174319 -0.0806773 -0.2971
-0.190681 -0.0819038 -0.297126
0.248674 -0.0815044 0.236519
0.248089 -0.0574905 -0.137772
0.247948 -0.0516509 -0.22879
-0.224946 -0.0815085 -0.297179
0.248761 -0.0821316 0.294597
0.248582 -0.0749026 0.177675
0.24849 -0.0712712 0.118939
0.247981 -0.051029 -0.208467
-0.24822 -0.101881 0.0533812
-0.248247 -0.100742 0.0349625
0.170651 -0.0509706 -0.296559
0.012216 -0.062014 -0.296806
-0.242898 -0.0797958 -0.297208
0.248722 -0.0774581 0.268139
0.248459 -0.0673936 0.0989676
0.248428 -0.0662461 0.0796777
0.242274 -0.0629514 0.0174604
0.221242 -0.0633977 0.00124705
0.212379 -0.0627793 -0.019119
0.24853 -0.0673771 0.144916
0.242313 -0.0617117 0.0389686
0.221648 -0.0625319 0.0300028
0.203333 -0.0629655 0.0169355
0.187034 -0.0633294 0.0049212
-0.248199 -0.0949971 0.0674711
0.110231 -0.0510174 -0.296653
-0.0527881 -0.0615225 -0.29691
0.240381 -0.0602102 0.0553135
0.221697 -0.0609328 0.0474133
0.200134 -0.0617667 0.0382959
0.180465 -0.0625274 0.0299795
0.161058 -0.0629809 0.0163657
0.248144 -0.0510522 -0.102681
0.247888 -0.041943 -0.268822
-0.24817 -0.0921705 0.0866363
-0.0788469 -0.0606221 -0.29695
0.248643 -0.0657281 0.218278
0.248545 -0.06244 0.15564
0.202421 -0.0599973 0.0572078
0.182361 -0.0607641 0.0491811
0.161919 -0.0615332 0.0407709
0.140954 -0.0623221 0.0321451
0.209409 -0.0409832 -0.296498
0.0491673 -0.0504665 -0.296748
-0.128044 -0.060954 -0.297028
0.248713 -0.0649842 0.261689
0.248617 -0.0619173 0.200547
0.231459 -0.0567513 0.0784016
0.16153 -0.0597305 0.0588809
0.142308 -0.0604826 0.0521848
0.120478 -0.0612801 0.043455
0.248015 -0.0424732 -0.187091
-0.248227 -0.082425 0.0487375
-0.248255 -0.0815063 0.0304224
0.0923946 -0.045779 -0.296681
-0.0220994 -0.0522537 -0.296861
-0.0993439 -0.0566219 -0.296983
-0.174319 -0.0608618 -0.2971
-0.190681 -0.0617871 -0.297126
0.248674 -0.0607579 0.236519
0.211427 -0.0555362 0.0855573
0.192201 -0.0563528 0.0809346
0.141048 -0.0584548 0.0671572
0.120108 -0.0593153 0.0615191
0.101662 -0.0600734 0.0565534
0.24807 -0.0422772 -0.149886
0.248041 -0.0412999 -0.170317
0.139624 -0.0411032 -0.296607
0.0284373 -0.0470984 -0.296781
-0.224946 -0.0607609 -0.297179
-0.242898 -0.0617288 -0.297208
0.248761 -0.0604365 0.294597
0.24849 -0.0524448 0.118938
0.240914 -0.0520488 0.101709
0.170679 -0.0550247 0.0878544
0.119455 -0.0571101 0.0758834
0.0816026 -0.058607 0.0660712
0.192314 -0.0363956 -0.296525
0.221666 -0.0506045 0.108348
0.190479 -0.0518695 0.102457
0.151551 -0.0534484 0.0951031
0.100258 -0.0555288 0.0854141
0.0604872 -0.0570637 0.0760907
-0.00248539 -0.0527398 -0.0948808
-0.0181029 -0.0536893 -0.0905225
-0.0426127 -0.0551793 -0.0836826
-0.0626633 -0.056452 -0.0768441
-0.0769956 -0.0574226 -0.0705492
0.0689362 -0.0405328 -0.296718
0.171941 -0.0502292 0.110011
0.131486 -0.0517952 0.102708
0.0815524 -0.0537283 0.0936987
0.0424976 -0.0552404 0.0866538
0.247919 -0.0320787 -0.248138
0.0250303 -0.0477893 -0.11521
0.0125544 -0.0484611 -0.112844
-0.00683111 -0.049505 -0.109167
-0.0448573 -0.0516298 -0.100072
0.232004 -0.0308358 -0.296463
0.012216 -0.0409526 -0.296806
0.248582 -0.0466375 0.177675
0.24853 -0.0453765 0.144917
0.220224 -0.0458662 0.125716
0.199764 -0.0466471 0.122909
0.150276 -0.048536 0.116118
0.110448 -0.0500562 0.110653
0.0900608 -0.0508093 0.107207
0.061964 -0.0518442 0.102379
0.021408 -0.053338 0.0954103
0.247955 -0.0311825 -0.223803
0.0450395 -0.0436188 -0.129993
0.170651 -0.0317364 -0.296559
-0.0527881 -0.0414335 -0.29691
0.248653 -0.0454971 0.224301
0.182267 -0.0447746 0.129541
0.130932 -0.0466288 0.122871
0.0715156 -0.0487749 0.115152
0.0416207 -0.0498546 0.111267
-0.000730872 -0.0513424 0.104608
0.0218893 -0.0416961 -0.136184
-0.00158411 -0.0427664 -0.133092
0.110231 -0.0322763 -0.296653
-0.0788469 -0.0399848 -0.29695
-0.128044 -0.0419905 -0.297028
-0.199051 -0.0448854 -0.297139
0.248617 -0.0417582 0.200547
0.248553 -0.0404231 0.161077
0.201629 -0.0415129 0.140355
0.16079 -0.0429275 0.136071
0.110692 -0.0446328 0.129935
0.0895207 -0.0453535 0.127341
0.0216942 -0.0476624 0.119033
0.00161105 -0.048346 0.116572
0.0733478 -0.0365417 -0.150908
0.0527204 -0.0374133 -0.148436
-0.174319 -0.0410463 -0.2971
0.248761 -0.0418406 0.294597
0.248673 -0.0400113 0.236519
0.221367 -0.0382449 0.149763
0.13211 -0.0411512 0.141283
0.0711842 -0.0431264 0.135223
0.052363 -0.0437274 0.133059
-0.0199653 -0.0460368 0.124742
0.0491673 -0.0302799 -0.296748
-0.0993439 -0.0355533 -0.296983
-0.224946 -0.0400133 -0.297179
-0.242898 -0.0406507 -0.297208
0.179992 -0.0368862 0.153597
0.0908406 -0.0395906 0.145696
0.0291735 -0.0414613 0.140231
0.00868928 -0.0420827 0.138416
-0.00814521 -0.0425934 0.136924
0.247881 -0.0221804 -0.273271
0.0923946 -0.0266157 -0.296681
-0.0221035 -0.0303802 -0.29686
0.248722 -0.0349321 0.268139
0.200738 -0.033556 0.162861
0.162081 -0.0346497 0.15999
0.141896 -0.0352165 0.158331
0.11035 -0.0361024 0.155739
0.0501648 -0.0377925 0.150795
-0.0290543 -0.0400171 0.144286
0.247996 -0.0224279 -0.197914
0.209409 -0.020947 -0.296498
0.0284373 -0.0264211 -0.296781
0.0707687 -0.034191 0.16117
0.0312024 -0.0352118 0.158179
0.0105196 -0.0357455 0.156615
-0.0107995 -0.0362955 0.155003
-0.0508747 -0.0373295 0.151973
0.248053 -0.0213653 -0.161677
0.248027 -0.0209462 -0.178786
0.139624 -0.0210528 -0.296607
0.248582 -0.0268519 0.177675
-0.0317403 -0.0335293 0.162501
0.0689362 -0.0208141 -0.296718
0.012216 -0.0222314 -0.296806
0.248653 -0.02495 0.224301
0.054662 -0.0216749 -0.159184
0.192314 -0.0158648 -0.296525
-0.0527881 -0.0213445 -0.29691
-0.0788469 -0.0219271 -0.29695
-0.199051 -0.0246146 -0.297139
0.248673 -0.0222285 0.23652
0.248617 -0.0215991 0.200547
0.180841 -0.0222768 0.162831
0.0488933 -0.0248798 0.162626
-0.128044 -0.020318 -0.297028
-0.174319 -0.0212308 -0.2971
-0.224946 -0.0222296 -0.297179
0.248761 -0.0201455 0.294597
0.0187149 -0.0220784 0.162579
0.247964 -0.0123606 -0.218755
0.247926 -0.011987 -0.243388
0.0844869 -0.016065 -0.159138
0.232004 -0.0114533 -0.296463
-0.0993439 -0.0171183 -0.296983
-0.242898 -0.0195725 -0.297208
0.24153 -0.0154584 0.162925
0.219945 -0.0157706 0.162891
0.142448 -0.0168918 0.162771
0.120385 -0.0172109 0.162737
0.101352 -0.0174863 0.162707
0.170651 -0.0105788 -0.296559
0.110231 -0.0114529 -0.296653
0.0491673 -0.0123363 -0.296748
0.0695999 -0.0146828 0.162658
0.00081265 -0.015497 0.162552
-0.0510793 -0.0161112 0.162471
-0.0221035 -0.0109369 -0.29686
0.0923946 -0.0074524 -0.296681
0.248582 -0.00706628 0.177675
0.200738 -0.00729478 0.162861
0.0284373 -0.00574371 -0.296781
0.248722 -0.00455636 0.268139
0.160218 -0.00453674 0.162799
0.142448 -0.00460685 0.162771
0.120385 -0.0046939 0.162737
0.101352 -0.00476899 0.162707
0.0488933 -0.00497597 0.162626
-0.017593 -0.00523829 0.162523
0.248761 -0.00154966 0.294597
0.248673 -0.00148191 0.23652
0.248617 -0.00143995 0.200547
0.180841 -0.00148513 0.162831
0.0187149 -0.00169835 0.162579
0.248054 -0.0010174 -0.161678
0.248027 -0.000997442 -0.178786
0.247996 -0.000975131 -0.197914
0.247902 -0.000902976 -0.259766
0.247872 -0.000882094 -0.277668
0.0546619 -0.00127501 -0.159184
0.209409 -0.000910745 -0.296498
0.139624 -0.00100252 -0.296607
0.0689362 -0.00109549 -0.296718
0.012216 -0.00117008 -0.296806
-0.052793 -0.00125558 -0.296908
-0.0788469 -0.00128984 -0.29695
-0.128044 -0.00135454 -0.297028
-0.174319 -0.0014154 -0.2971
-0.190681 -0.00143692 -0.297126
-0.224946 -0.00148198 -0.297179
-0.242898 -0.00150559 -0.297208
0.248652 0.00440294 0.224302
0.24153 0.00421591 0.162925
0.219945 0.00430107 0.162891
0.00081265 0.00516564 0.162552
-0.017593 0.00523826 0.162523
-0.0413407 0.00533196 0.162486
-0.0609594 0.00540936 0.162456
0.0844868 0.00370731 -0.159138
0.192314 0.00279966 -0.296525
-0.0993439 0.00395035 -0.296983
0.0817007 0.00807754 0.162677
0.0491673 0.00785034 -0.296748
-0.0221035 0.00850645 -0.29686
0.248582 0.0127193 0.177675
0.200738 0.0131306 0.162861
0.0404158 0.0150282 0.162613
0.247964 0.00855731 -0.218755
0.247933 0.00834917 -0.238581
0.232004 0.00792921 -0.296463
0.170651 0.00865539 -0.296559
0.110231 0.00937054 -0.296653
0.0187149 0.0186818 0.162579
0.0284373 0.0126362 -0.296781
-0.14302 0.0151165 -0.297051
0.248761 0.0201455 0.294597
0.248673 0.0192647 0.23652
0.248617 0.0187192 0.200547
0.180841 0.0193066 0.162831
0.0923946 0.0138402 -0.296681
-0.174319 0.0184001 -0.2971
-0.190681 0.0186798 -0.297126
-0.224946 0.0192656 -0.297179
-0.242898 0.0195725 -0.297208
0.248722 0.0227818 0.268139
0.160218 0.0226837 0.162799
0.142448 0.0230342 0.162771
0.120385 0.0234695 0.162737
0.101352 0.0238449 0.162707
0.0613994 0.0246331 0.162645
0.00081265 0.0258283 0.162552
0.0546619 0.019125 -0.159184
0.012216 0.0175511 -0.296806
-0.052793 0.0188336 -0.296908
-0.0788509 0.0193476 -0.296949
0.248652 0.0249501 0.224302
0.24153 0.0238902 0.162925
0.219945 0.0243728 0.162891
0.0776934 0.0275532 0.162671
0.0689362 0.0186232 -0.296718
-0.106368 0.0225424 -0.296994
-0.017593 0.0331758 0.162523
-0.0413407 0.0337692 0.162486
-0.0609594 0.0342594 0.162456
0.248054 0.0193304 -0.161679
0.248027 0.0189513 -0.178786
0.247996 0.0185274 -0.197914
0.0844868 0.0234797 -0.159138
0.199252 0.0175578 -0.296514
0.139624 0.0190478 -0.296607
0.0404118 0.0350661 0.162618
0.247902 0.0189624 -0.259766
0.247872 0.0185239 -0.277668
0.248582 0.0325049 0.177674
0.149615 0.0351026 0.162792
0.0182596 0.03909 0.163112
-0.0221035 0.0279498 -0.29686
0.248759 0.0387415 0.294601
-0.0622382 0.0451591 0.163785
0.0321724 0.0326143 -0.159219
0.0491673 0.028037 -0.296748
-0.242898 0.0376395 -0.297208
0.248673 0.0400114 0.236521
0.248617 0.0388783 0.200546
0.197108 0.0395394 0.163448
0.177017 0.0402557 0.163511
0.112125 0.0425696 0.163715
0.0604185 0.0444133 0.163877
0.110231 0.0281116 -0.296653
-0.174319 0.0382155 -0.2971
-0.190681 0.0387966 -0.297126
-0.224946 0.0400133 -0.297179
0.248723 0.0440448 0.268139
0.248652 0.0425619 0.224303
0.134283 0.0448881 0.164054
0.247964 0.0275736 -0.218755
0.170651 0.0278896 -0.296559
0.0284373 0.0333135 -0.296781
-0.128044 0.0392815 -0.297028
0.240905 0.043631 0.164055
0.222371 0.0443902 0.164126
0.0801672 0.0502155 0.164671
-0.00160539 0.0535769 0.165304
-0.0203687 0.0543535 0.165596
-0.0396842 0.055153 0.165896
0.247933 0.0287582 -0.238581
0.0554901 0.03947 -0.159765
0.0923946 0.0330035 -0.296681
-0.047695 0.0387325 -0.296414
-0.0738122 0.0398023 -0.296314
0.0418738 0.055172 0.166031
0.232004 0.0290738 -0.296463
0.0111327 0.0386779 -0.29633
-0.0883309 0.0430166 -0.295914
-0.113492 0.0440681 -0.297004
0.110304 0.0553692 0.16622
0.018648 0.0596607 0.167851
0.0859242 0.0431423 -0.1602
0.0680248 0.0384018 -0.296278
0.248694 0.055368 0.248978
-0.0196537 0.0650296 0.170011
0.248055 0.0376434 -0.16168
0.0436968 0.0476369 -0.160855
0.248752 0.0601308 0.287881
0.248582 0.0551169 0.177674
0.191464 0.0575759 0.167259
0.059781 0.0644597 0.169899
0.248027 0.0389 -0.178786
0.247996 0.0380299 -0.197914
0.150748 0.0385485 -0.29613
-0.0260655 0.047672 -0.295206
-0.224946 0.0577969 -0.297179
-0.242898 0.0587176 -0.297208
0.248618 0.0590374 0.200546
0.155937 0.0625425 0.169256
0.134016 0.0637484 0.16972
-0.0588205 0.074456 0.175884
0.205535 0.037565 -0.296174
-0.174319 0.058031 -0.2971
-0.190681 0.0589133 -0.297126
0.248723 0.0653077 0.268139
0.248652 0.063109 0.224302
0.2098 0.0625475 0.169342
0.0862076 0.0697036 0.172469
-0.00207996 0.0748962 0.176309
0.247902 0.0388277 -0.259766
0.247872 0.0379298 -0.277668
0.129345 0.0437469 -0.295481
0.0505294 0.0482336 -0.295014
-0.128045 0.058245 -0.297027
0.231438 0.0642123 0.170063
0.0545585 0.0750333 0.176501
-0.0808462 0.0834063 0.183128
-0.011341 0.0541995 -0.293952
-0.0771797 0.0581825 -0.292408
0.106559 0.0751592 0.176678
0.0256174 0.080382 0.180552
-0.0375715 0.0845176 0.184639
-0.0587674 0.0859285 0.186438
0.0617162 0.0592163 -0.164135
0.111085 0.0489828 -0.294821
-0.045831 0.0588458 -0.292085
-0.113497 0.062764 -0.297003
0.0031988 0.0855647 0.186063
0.0307143 0.0563582 -0.292994
0.00778717 0.0578715 -0.292404
-0.0163636 0.0907724 0.192797
-0.0887015 0.0961872 0.202129
0.247964 0.0484915 -0.218755
0.0848818 0.0626184 -0.165505
0.174974 0.0488655 -0.294738
0.248672 0.0785409 0.236521
0.200673 0.0783449 0.179263
0.179973 0.0798596 0.180391
0.143636 0.0825185 0.18237
-0.0465785 0.0972264 0.205478
-0.0886754 0.10098 0.218633
0.247932 0.0491673 -0.238581
0.0792191 0.05761 -0.292401
-0.034322 0.0657321 -0.289221
-0.224946 0.0785445 -0.297179
-0.242898 0.0797958 -0.297208
0.248618 0.0791965 0.200546
0.159689 0.0846457 0.18511
0.0829818 0.0906998 0.192857
0.0564269 0.0927956 0.195538
0.0265037 0.0953127 0.200979
0.00516468 0.097139 0.205346
-0.00581491 0.0980787 0.207593
-0.0885844 0.108481 0.276165
-0.0886022 0.107722 0.264336
-0.0886468 0.10587 0.235475
0.2325 0.0485342 -0.294692
-0.174319 0.0778465 -0.2971
-0.190681 0.07903 -0.297126
0.248653 0.083656 0.224302
0.224349 0.0827089 0.182692
0.248051 0.0577984 -0.164578
-0.0894578 0.0751168 -0.284942
-0.135483 0.0777661 -0.297038
0.241672 0.0844202 0.184943
0.141968 0.0929179 0.19583
0.107103 0.0961254 0.203061
0.0932255 0.0974166 0.206149
0.0577245 0.101231 0.221463
0.247996 0.0575324 -0.197914
0.146955 0.0589132 -0.291757
-0.0692806 0.0763551 -0.282471
-0.0887021 0.115047 0.20213
-0.0887309 0.113517 0.180631
0.100775 0.0732159 -0.171171
0.128139 0.0625262 -0.290293
0.0609627 0.0680789 -0.288103
-0.0456027 0.0770836 -0.281877
0.248704 0.09474 0.255302
0.220242 0.0927124 0.195686
0.194372 0.0952581 0.201109
0.174575 0.0972517 0.205878
-0.0885617 0.125588 0.29423
-0.0886642 0.120442 0.224207
0.0724468 0.0777101 -0.174657
0.205792 0.0580048 -0.292041
-0.0993495 0.0829583 -0.29698
0.248653 0.0953972 0.224301
-0.0885926 0.127755 0.270229
-0.0886317 0.125986 0.246903
0.248018 0.0644122 -0.18434
0.247902 0.0586931 -0.259766
0.023938 0.0761387 -0.282492
-0.242898 0.0978628 -0.297208
0.248672 0.0992876 0.236522
0.247872 0.0590999 -0.277668
-0.224946 0.0992921 -0.297179
0.104759 0.0733159 -0.284527
0.00150359 0.083302 -0.277045
-0.120721 0.0927984 -0.297014
-0.174319 0.0976619 -0.2971
-0.190681 0.0991468 -0.297126
0.247964 0.0675077 -0.218755
0.174242 0.0686826 -0.287678
-0.0243785 0.0886939 -0.270329
-0.0885617 0.145523 0.294231
-0.0886642 0.139559 0.224207
-0.0887315 0.135849 0.180632
0.247932 0.0677211 -0.238581
0.122193 0.0760723 -0.28239
-0.0694355 0.0965634 -0.258144
-0.0876803 0.0987675 -0.252868
-0.0886113 0.146382 0.258483
0.117773 0.0872398 -0.18373
0.10066 0.0887551 -0.185726
0.142313 0.076179 -0.282277
0.0773 0.0830527 -0.277117
0.0382741 0.0873588 -0.271967
-0.0503002 0.0975243 -0.255801
-0.143025 0.103068 -0.29705
-0.0887026 0.145224 0.202131
0.194634 0.0726705 -0.284882
0.0632238 0.0871357 -0.272218
-0.031804 0.0984532 -0.253536
-0.0893751 0.106224 -0.232059
0.248032 0.0790557 -0.175982
0.00153762 0.0972873 -0.256289
-0.0894408 0.105099 -0.274206
-0.0894695 0.103379 -0.292863
-0.233851 0.118001 -0.297193
-0.0886503 0.155919 0.235479
-0.0887657 0.148759 0.159704
0.0182497 0.0981715 -0.254134
-0.0893348 0.114276 -0.205241
-0.0885618 0.165458 0.294231
-0.0886647 0.158677 0.224208
0.205953 0.0774528 -0.281202
0.0950626 0.0909283 -0.267238
0.07611 0.0932957 -0.264189
-0.089317 0.11829 -0.192927
-0.182441 0.118364 -0.297112
-0.0886109 0.165899 0.258483
0.134379 0.0957943 -0.195999
0.229357 0.076641 -0.281787
0.063346 0.0979178 -0.254673
-0.106373 0.112713 -0.296992
-0.199051 0.123073 -0.297139
0.247988 0.0842968 -0.203224
0.247902 0.0785585 -0.259765
-0.0892692 0.126897 -0.164286
-0.089399 0.11827 -0.249287
-0.128049 0.117845 -0.297026
-0.0887323 0.165624 0.180633
0.247872 0.0785059 -0.277668
-0.150677 0.123203 -0.297062
-0.0886499 0.175168 0.235479
0.166444 0.0911852 -0.266793
0.117662 0.0984709 -0.253256
-0.0892219 0.135918 -0.134268
-0.0886662 0.177795 0.224209
-0.0887025 0.1754 0.20213
-0.0887654 0.170797 0.159704
-0.0887963 0.168585 0.139315
0.141365 0.0974754 -0.255617
-0.0893484 0.130221 -0.214314
-0.0893796 0.127981 -0.234965
-0.224946 0.137823 -0.297179
-0.242898 0.140019 -0.297208
-0.0885782 0.18804 0.282146
-0.0886105 0.185417 0.258482
0.24794 0.0886695 -0.233715
-0.0891721 0.145382 -0.102774
-0.0894626 0.124901 -0.287594
0.165766 0.0989606 -0.252002
-0.0892953 0.139664 -0.180362
-0.182441 0.138329 -0.297112
0.186727 0.0980059 -0.254269
-0.0891257 0.15489 -0.0734488
-0.199053 0.143344 -0.297138
-0.0888264 0.180746 0.119448
0.206481 0.0971062 -0.256405
-0.089097 0.160258 -0.0544448
-0.089439 0.134366 -0.274206
-0.135483 0.137796 -0.297038
-0.0887653 0.189162 0.159704
0.247973 0.0985477 -0.213644
-0.0892048 0.155082 -0.12394
-0.089408 0.139344 -0.254918
-0.158442 0.143635 -0.297074
-0.0886679 0.200737 0.224211
-0.0887332 0.195399 0.180634
-0.088796 0.190338 0.139315
-0.0888555 0.185532 0.100082
0.23516 0.0969435 -0.256753
-0.0890425 0.170966 -0.0188453
-0.0892443 0.155173 -0.147785
-0.0893398 0.147763 -0.20828
-0.242898 0.158086 -0.297208
-0.088649 0.205967 0.235478
-0.0890186 0.176273 -0.00241709
-0.113497 0.142888 -0.297003
-0.224947 0.158571 -0.297179
-0.0886101 0.212741 0.258482
-0.0887023 0.205577 0.20213
-0.0888853 0.1902 0.0812007
-0.089143 0.169118 -0.0845982
-0.0892751 0.158573 -0.167534
-0.0893164 0.155345 -0.192927
-0.0893797 0.149999 -0.234965
-0.089439 0.145009 -0.274206
-0.0894697 0.142637 -0.292863
-0.0888262 0.198642 0.119448
-0.0889229 0.190718 0.0582516
-0.0889522 0.188406 0.0403932
-0.0891716 0.169868 -0.102774
-0.182441 0.158294 -0.297112
-0.0887651 0.207528 0.159703
-0.0889876 0.188938 0.0186698
-0.0890901 0.179808 -0.0505799
-0.199053 0.163615 -0.297138
-0.0886678 0.219855 0.224211
-0.0887958 0.208465 0.139315
-0.0886487 0.225216 0.235478
-0.0890485 0.189952 -0.0228927
-0.0893997 0.159053 -0.249287
-0.128049 0.158481 -0.297026
-0.158442 0.163158 -0.297074
-0.0888704 0.208951 0.0905822
-0.0892048 0.179172 -0.12394
-0.240303 0.179044 -0.295148
-0.0887338 0.225175 0.180634
-0.0888401 0.215162 0.109703
-0.0889 0.209831 0.0719354
-0.0891372 0.188258 -0.0809025
-0.0893632 0.168166 -0.223252
-0.199053 0.175198 -0.297138
-0.223754 0.179477 -0.294715
-0.0889375 0.210048 0.0492679
-0.0890128 0.20323 0.00175077
-0.0891656 0.188748 -0.0991788
-0.0892605 0.180346 -0.157736
-0.106373 0.163102 -0.296992
-0.0886673 0.238973 0.224211
-0.0887021 0.235753 0.20213
-0.0887649 0.229566 0.159703
-0.0888108 0.225135 0.129317
-0.0889874 0.209002 0.0186696
-0.0890778 0.20004 -0.0427828
-0.0892388 0.185218 -0.144432
-0.0893158 0.178147 -0.192927
-0.0894607 0.164343 -0.287595
-0.247859 0.190947 -0.283975
-0.176804 0.180706 -0.293487
-0.0890428 0.210044 -0.018845
-0.233401 0.195208 -0.27995
-0.0888704 0.230022 0.0905822
-0.0891991 0.197772 -0.12046
-0.089384 0.179832 -0.237858
-0.089439 0.174277 -0.274206
-0.131768 0.178292 -0.295686
-0.163949 0.184767 -0.289651
-0.0887486 0.245871 0.170099
-0.0888999 0.230641 0.0719352
-0.0891255 0.208085 -0.073449
-0.0889372 0.23054 0.0492676
-0.0890129 0.223057 0.00175083
-0.089286 0.195383 -0.17398
-0.0893497 0.189031 -0.214314
-0.203018 0.199534 -0.275838
-0.0887802 0.249964 0.149442
-0.0888401 0.243613 0.109703
-0.0889871 0.229066 0.0186694
-0.0890721 0.219872 -0.0388503
-0.0891656 0.210231 -0.0991789
-0.106508 0.182546 -0.291649
-0.169932 0.195997 -0.27911
-0.0887178 0.260403 0.19131
-0.0894607 0.182749 -0.287595
-0.246021 0.215788 -0.260633
-0.0888106 0.253952 0.129317
-0.0888703 0.247581 0.0905821
-0.089043 0.229583 -0.0188449
-0.0892444 0.208375 -0.147784
-0.209874 0.211531 -0.264578
-0.228865 0.215698 -0.260692
-0.0888999 0.247982 0.0719352
-0.0893161 0.203801 -0.192927
-0.0893717 0.19776 -0.229137
-0.142556 0.200072 -0.275241
-0.0889369 0.247617 0.0492674
-0.0891371 0.225599 -0.0809025
-0.0891991 0.218908 -0.12046
-0.0894213 0.194753 -0.263264
-0.0887645 0.269969 0.159703
-0.089013 0.242885 0.00175095
-0.089102 0.232588 -0.0582891
-0.180271 0.21544 -0.260862
-0.0887953 0.270099 0.139314
-0.0888399 0.264951 0.109703
-0.0889868 0.24913 0.0186691
-0.0890723 0.239131 -0.0388501
-0.0893365 0.210212 -0.20524
-0.116358 0.20397 -0.27154
-0.164967 0.215359 -0.260915
-0.2364 0.233111 -0.239463
-0.0893163 0.215202 -0.192927
-0.218471 0.232556 -0.240138
-0.0888702 0.268652 0.0905821
-0.0890431 0.249122 -0.0188448
-0.0891654 0.234783 -0.0991789
-0.0892761 0.222585 -0.167533
-0.135591 0.215203 -0.261018
-0.201093 0.232017 -0.240792
-0.0888399 0.275621 0.109703
-0.0888999 0.268792 0.0719352
-0.0891019 0.245246 -0.0582892
-0.0892444 0.229065 -0.147784
-0.121487 0.215128 -0.261067
-0.184235 0.231493 -0.241429
-0.0889366 0.268109 0.0492671
-0.0887874 0.289162 0.144362
-0.0890132 0.262712 0.00175107
-0.0894085 0.215105 -0.254918
-0.151955 0.230478 -0.242667
-0.0889865 0.269194 0.0186689
-0.0890724 0.25839 -0.0388501
-0.0891484 0.249108 -0.0882738
-0.0891991 0.243063 -0.12046
-0.0893411 0.229385 -0.20828
-0.0893801 0.224311 -0.234965
-0.121521 0.229521 -0.243834
-0.0888702 0.289722 0.0905821
-0.0890433 0.268661 -0.0188447
-0.0892968 0.237573 -0.180361
-0.188643 0.252517 -0.214819
-0.0888998 0.289602 0.0719351
-0.0892276 0.248768 -0.137674
-0.171828 0.251677 -0.215856
-0.0889363 0.288601 0.0492668
-0.0889651 0.285124 0.0316243
-0.0891991 0.255141 -0.12046
-0.0890133 0.282539 0.00175118
-0.0891194 0.268287 -0.0696911
-0.100938 0.238405 -0.232553
-0.139692 0.250073 -0.217837
-0.0890726 0.277649 -0.03885
-0.0891484 0.267675 -0.0882738
-0.089261 0.253658 -0.157736
-0.124328 0.249306 -0.218784
-0.0893268 0.248143 -0.199115
-0.0888924 0.307897 0.0765533
-0.0890435 0.2882 -0.0188445
-0.0890135 0.295758 0.0017513
-0.0889287 0.310039 0.0537447
-0.0892277 0.269623 -0.137674
-0.089261 0.265388 -0.157736
-0.0889719 0.307816 0.0272795
-0.089182 0.278529 -0.109906
-0.0892971 0.263491 -0.180361
-0.0891016 0.292713 -0.0582894
-0.0890728 0.300118 -0.0388498
-0.0891482 0.289336 -0.0882739
-0.0889928 0.315069 0.0144014
-0.0890436 0.307739 -0.0188445
-0.0891016 0.305371 -0.0582894
-0.0892277 0.290478 -0.137674
-0.0891818 0.299838 -0.109906
