ply
format ascii 1.0
comment Created by Open3D
element vertex 579
property double x
property double y
property double z
end_header
-0.194829 -0.312839 0.188709
-0.168426 -0.312347 0.186747
-0.152318 -0.318026 0.171241
0.173627 -0.288943 0.202078
0.188483 -0.28223 0.216378
0.205277 -0.270398 0.242698
0.222143 -0.262774 0.258936
0.239656 -0.258637 0.266753
0.155758 -0.289561 0.18488
0.144075 -0.289649 0.173634
-0.152318 -0.302058 0.171241
-0.184486 -0.291959 0.193974
0.173626 -0.272017 0.20208
0.20398 -0.263242 0.220776
0.229338 -0.242148 0.265863
0.119415 -0.289834 0.149899
0.155758 -0.272162 0.184882
0.212892 -0.242382 0.250029
0.247549 -0.237285 0.259343
0.101043 -0.289434 0.132216
0.144075 -0.27194 0.173636
-0.152319 -0.280768 0.171241
-0.142406 -0.287596 0.151552
-0.188446 -0.272474 0.190951
-0.172364 -0.271927 0.190537
0.124491 -0.27209 0.154787
-0.120613 -0.288798 0.130575
0.0730426 -0.289623 0.105265
0.233557 -0.222444 0.265803
-0.102425 -0.288663 0.113068
0.0581999 -0.289723 0.0909788
0.103727 -0.272249 0.1348
-0.142405 -0.27124 0.151552
0.0427496 -0.289828 0.0761079
-0.152319 -0.262139 0.171241
-0.0762428 -0.287739 0.0878659
0.0816713 -0.272417 0.113571
0.207199 -0.222164 0.244549
0.248771 -0.21729 0.253754
-0.120613 -0.272056 0.130576
-0.0613533 -0.2891 0.0735339
-0.189443 -0.252463 0.188556
-0.172364 -0.251109 0.190537
0.0233534 -0.288167 0.0574389
-0.102425 -0.271599 0.113068
-0.0381601 -0.289704 0.051209
-0.145098 -0.263241 0.134832
0.00611192 -0.289146 0.0384515
0.0520948 -0.271924 0.0851032
-0.0220941 -0.288068 0.0357447
-0.0762426 -0.270212 0.0878665
0.036391 -0.271662 0.0699879
0.0696388 -0.263242 0.0920668
0.233772 -0.201085 0.264717
-0.0613532 -0.271309 0.0735344
-0.152319 -0.240848 0.17124
-0.17297 -0.334977 -0.123753
-0.104315 -0.263243 0.0947648
0.019752 -0.27224 0.0515797
-0.157433 -0.334846 -0.137009
-0.03816 -0.271503 0.0512094
-0.186546 -0.231296 0.188979
-0.193991 -0.334611 -0.143993
0.00262842 -0.271954 0.0350985
0.203342 -0.2009 0.240836
-0.022094 -0.269582 0.0357449
0.0322659 -0.283614 -0.0165801
0.0473801 -0.288249 -0.0335271
0.219839 -0.334607 -0.205552
0.238782 -0.334547 -0.207609
-0.166445 -0.226599 0.184838
-0.0567409 -0.263246 0.0506279
0.0631067 -0.288968 -0.0486649
-0.0781405 -0.288848 -0.042639
-0.0615412 -0.283481 -0.0266632
0.0174194 -0.273387 -0.00228947
-0.0910084 -0.289581 -0.0550238
-0.0416398 -0.273807 -0.00750881
-0.00190485 -0.263245 0.0235118
0.0825734 -0.287139 -0.0674023
0.246476 -0.186264 0.25451
-0.152319 -0.222219 0.17124
-0.165934 -0.309415 -0.125782
-0.0263574 -0.265741 0.00720012
0.0993142 -0.287864 -0.0835165
0.227613 -0.181989 0.263843
-0.113299 -0.289681 -0.0764778
-0.00455216 -0.26325 0.00221056
0.120057 -0.289465 -0.103483
0.234575 -0.314406 -0.20356
-0.180582 -0.212427 0.190286
-0.188652 -0.306499 -0.138853
0.0631068 -0.272264 -0.048664
0.251571 -0.31468 -0.219916
-0.136713 -0.289785 -0.0990137
-0.0781408 -0.271956 -0.0426406
0.0186223 -0.26325 -0.0232184
0.137914 -0.286688 -0.12067
-0.0910088 -0.272446 -0.0550258
-0.0514671 -0.263244 -0.0266237
0.0306497 -0.263241 -0.0363787
0.0892119 -0.271705 -0.0737905
0.163833 -0.289205 -0.14562
0.20933 -0.306629 -0.213709
0.201394 -0.181055 0.238962
-0.17297 -0.29056 -0.123753
0.17915 -0.289114 -0.160363
-0.113299 -0.272125 -0.07648
0.120057 -0.271921 -0.103479
0.194852 -0.289021 -0.175477
0.215044 -0.289849 -0.194914
-0.152319 -0.200929 0.17124
-0.193991 -0.285459 -0.143994
-0.136714 -0.271787 -0.099016
0.0888488 -0.263241 -0.0934693
0.145207 -0.270505 -0.127687
0.163832 -0.271015 -0.145614
0.243017 -0.285773 -0.211685
0.232018 -0.162479 0.262914
-0.184531 -0.192475 0.187255
-0.168118 -0.270892 -0.119814
-0.124816 -0.263243 -0.0951991
0.123876 -0.263241 -0.124768
0.179149 -0.270698 -0.160357
0.194851 -0.270373 -0.175471
-0.142261 -0.263241 -0.121767
0.215043 -0.270903 -0.194907
0.243017 -0.274266 -0.211685
-0.193991 -0.266555 -0.143995
-0.149996 -0.263746 -0.137833
0.201394 -0.160558 0.238962
-0.152319 -0.1823 0.17124
-0.167852 -0.25222 -0.118827
0.20553 -0.264271 -0.213544
0.222461 -0.251742 -0.194857
0.238782 -0.254256 -0.207609
-0.185511 -0.172101 0.184857
-0.188652 -0.246327 -0.138854
-0.152651 -0.244049 -0.133187
0.227945 -0.140966 0.262088
-0.166445 -0.166347 0.184837
0.211006 -0.142308 0.248215
-0.167853 -0.230128 -0.118828
0.205346 -0.240673 -0.211461
0.234575 -0.234376 -0.20356
-0.152319 -0.161009 0.17124
-0.186953 -0.151826 0.181327
-0.188652 -0.216242 -0.138854
-0.167853 -0.211718 -0.118828
-0.146028 -0.214894 -0.137221
0.205193 -0.221075 -0.20973
0.230395 -0.214624 -0.199537
-0.166445 -0.14539 0.184837
0.228122 -0.121474 0.261149
-0.188652 -0.20496 -0.138855
0.211006 -0.122138 0.248215
-0.152319 -0.14238 0.17124
-0.154701 -0.19439 -0.126288
0.20158 -0.202281 -0.211643
-0.166445 -0.134912 0.184837
-0.167853 -0.189626 -0.118828
0.226242 -0.195 -0.195539
-0.160272 -0.174717 -0.118644
0.204889 -0.18206 -0.206279
-0.188652 -0.174874 -0.138855
0.22831 -0.101933 0.260156
-0.152319 -0.12109 0.17124
0.243017 -0.174533 -0.211685
0.209108 -0.102295 0.246389
0.218326 -0.164112 -0.190675
-0.184854 -0.112419 0.17973
-0.144893 -0.154402 -0.132562
0.201258 -0.159352 -0.20784
-0.178143 -0.150699 -0.128736
-0.15968 -0.14497 -0.116388
-0.152319 -0.102461 0.171239
0.238782 -0.147201 -0.207609
0.22421 -0.08238 0.259304
0.201111 -0.139935 -0.206116
0.218088 -0.137409 -0.188344
0.207198 -0.0823244 0.24455
-0.141439 -0.132205 -0.133988
-0.18337 -0.129056 -0.133769
-0.181829 -0.0858483 0.180419
0.234575 -0.123857 -0.20356
-0.162789 -0.115381 -0.113954
0.1975 -0.121023 -0.208019
0.241586 -0.0703096 0.247156
-0.152319 -0.0811701 0.171239
0.214545 -0.115026 -0.189844
-0.18337 -0.110352 -0.13377
-0.141021 -0.109676 -0.132248
-0.162789 -0.104393 -0.113954
0.204286 -0.104753 -0.199445
0.226242 -0.104126 -0.195539
0.203341 -0.0624263 0.240838
0.218477 -0.0608522 0.255408
-0.17875 -0.06725 0.181263
-0.18337 -0.0916484 -0.13377
0.238751 -0.0522065 0.250496
-0.152319 -0.0598796 0.171239
0.210926 -0.0849551 -0.19068
-0.146493 -0.0793375 -0.123675
0.230395 -0.0740738 -0.199536
-0.18337 -0.0692039 -0.13377
0.197461 -0.0424073 0.235178
0.218477 -0.0409369 0.255408
-0.179762 -0.0463153 0.178714
-0.162789 -0.0641008 -0.113955
-0.14012 -0.0611213 -0.128496
-0.152319 -0.0412504 0.171239
0.197053 -0.0592561 -0.202526
0.214023 -0.0544187 -0.184537
0.226242 -0.0549028 -0.195539
0.23981 -0.032472 0.245252
-0.18337 -0.0505002 -0.133771
-0.148773 -0.0422087 -0.117743
0.193443 -0.0402264 -0.204416
-0.181329 -0.0252799 0.174766
-0.162455 -0.0249985 0.180994
0.193477 -0.0219198 0.231343
0.218477 -0.0210217 0.255408
-0.14195 -0.0201892 0.16126
-0.178143 -0.0241864 -0.128738
0.200245 -0.02469 -0.195896
0.218015 -0.0244539 -0.18762
0.238783 -0.0248521 -0.207609
-0.203899 -0.0153591 0.13984
-0.188598 -0.0148684 0.163531
-0.160888 -0.0141154 0.19939
-0.145369 -0.0202058 -0.119136
-0.140456 -0.0112006 0.219099
-0.122363 -0.010927 0.234335
-0.102002 -0.0107472 0.243339
-0.116004 -0.0118698 0.173665
-0.177565 -0.0156954 -0.062139
-0.171786 -0.0159585 -0.0795475
-0.165934 -0.016238 -0.0980083
-0.08155 -0.0081911 0.254624
-0.0608666 -0.00808948 0.260467
-0.065289 -0.00878149 0.20445
-0.136195 -0.0131501 -0.144077
-0.117125 -0.013346 -0.162348
-0.114732 -0.0141585 -0.229025
0.23723 -0.00781652 0.247319
-0.177352 -0.00662149 0.177854
-0.0410909 -0.00572286 0.264446
-0.0220359 -0.00568376 0.266653
-0.0229173 -0.00615192 0.213204
-0.0862168 -0.00968985 -0.183985
-0.0644391 -0.00976328 -0.194975
-0.0487877 -0.0102628 -0.253975
-0.00101365 -0.00338756 0.26848
0.0193423 -0.0033801 0.267481
0.0194172 -0.00365627 0.21482
-0.0222293 -0.00587629 -0.203487
0.00117469 -0.00587143 -0.205344
0.0206642 -0.00586632 -0.206688
0.0206527 -0.00614245 -0.259331
0.0375659 -0.00112121 0.268456
0.0576903 -0.00111884 0.267418
0.0608473 -0.00121027 0.214751
0.0402912 -0.00194876 -0.205195
0.0597207 -0.00194473 -0.205198
0.079052 -0.00194193 -0.205901
0.0898293 -0.00203327 -0.259423
0.193477 -0.00115368 0.231343
0.216627 -0.00110991 0.253628
0.0778221 0.00111299 0.268371
0.0977105 0.00111116 0.267055
0.101704 0.00120189 0.214682
0.106025 0.0019351 -0.205199
0.125183 0.00193115 -0.20522
0.158051 0.00201924 -0.259514
0.119681 0.00331377 0.268193
0.139631 0.00358093 0.214884
0.170843 0.00576482 -0.205202
0.189738 0.00575325 -0.205241
0.203426 0.00566311 -0.189685
0.226242 0.00567958 -0.195538
0.139266 0.0054994 0.26856
0.158755 0.00548341 0.268071
0.179391 0.00592732 0.214836
0.240844 0.00999637 -0.257945
0.250767 0.00986063 -0.243598
-0.205887 0.00983639 0.134973
-0.14154 0.0087497 0.216113
-0.117089 0.00848152 0.235119
-0.0964861 0.00832716 0.245282
-0.07662 0.00817831 0.255081
0.178024 0.00764306 0.268533
0.19942 0.00762104 0.267788
0.218338 0.00975271 0.268448
0.239522 0.00972963 0.267395
0.251974 0.0101516 0.239096
-0.197512 0.0151789 0.14845
-0.182595 0.0147 0.171577
-0.165414 0.0142187 0.194557
-0.0562711 0.0127113 0.259962
-0.0367484 0.0126077 0.263024
-0.0151932 0.0147685 0.266248
0.0237182 0.0191756 0.266229
0.0440968 0.0191036 0.266231
0.0643228 0.019032 0.266232
0.0843979 0.018961 0.266234
0.00318148 0.0237781 0.266205
0.104324 0.0233361 0.266214
0.124102 0.0232497 0.266216
-0.144884 0.028848 0.214052
-0.129618 0.028215 0.227977
-0.11094 0.0276976 0.238623
-0.180915 0.0332153 0.175809
-0.0905513 0.0295583 0.24873
-0.071104 0.0290648 0.257708
-0.203169 0.037611 0.141628
-0.164806 0.0348227 0.196134
0.173993 0.0296137 0.266188
0.193261 0.0295055 0.26619
0.214505 0.0293861 0.266193
0.233478 0.0292795 0.266195
-0.0513368 0.0334378 0.260828
-0.0318967 0.0331661 0.263876
0.143738 0.0341973 0.266164
-0.194655 0.0451097 0.155509
0.0191548 0.0395186 0.266128
0.0395709 0.0393699 0.266131
0.0575899 0.0392387 0.266133
0.0777183 0.0390921 0.266135
-0.144338 0.0488103 0.215539
-0.0106129 0.0442782 0.266103
0.0976964 0.0433991 0.266115
0.117527 0.0432381 0.266117
-0.179019 0.0541146 0.180585
-0.164277 0.0527759 0.197508
-0.116683 0.0495877 0.236325
-0.104843 0.0490688 0.242154
-0.0847084 0.0481865 0.252069
-0.208934 0.0604731 0.134677
0.167548 0.0494242 0.266091
0.189003 0.0492232 0.266093
0.208165 0.0490438 0.266096
0.229293 0.0488459 0.266098
0.248162 0.0486692 0.2661
-0.0562223 0.0542955 0.260154
-0.0367058 0.0538534 0.263213
-0.200232 0.0676112 0.148818
0.139393 0.0541065 0.266065
0.014584 0.0576407 0.266039
0.0327709 0.0597016 0.26603
0.053088 0.0594774 0.266033
0.073253 0.059255 0.266035
-0.184502 0.0733127 0.17375
-0.147696 0.0690721 0.213473
-0.132349 0.0675547 0.227428
-0.0222672 0.0626333 0.265516
-0.177147 0.0747405 0.185299
-0.104664 0.0681602 0.24271
0.0932673 0.0634918 0.266016
0.113134 0.0632561 0.266019
-0.206186 0.0878302 0.141341
-0.190845 0.0850317 0.164924
-0.0760919 0.0733935 0.256938
-0.0562006 0.0727694 0.260239
0.163244 0.069261 0.265993
0.182596 0.0690072 0.265996
0.203934 0.0687274 0.265998
0.22299 0.0684775 0.266001
0.244001 0.0682019 0.266004
-0.0366844 0.074467 0.263307
0.128486 0.0741459 0.265966
0.00313772 0.078161 0.265937
0.0236802 0.077866 0.26594
0.0440682 0.0775731 0.265943
-0.182575 0.094015 0.178556
-0.151077 0.089474 0.211393
-0.135604 0.0875018 0.22544
0.0643027 0.0795239 0.265935
-0.167188 0.0940896 0.196892
-0.116302 0.0881401 0.237456
-0.0152577 0.0829745 0.265912
-0.0957636 0.0889032 0.247609
0.0843864 0.0836934 0.265916
0.104322 0.0833821 0.265919
-0.211985 0.111193 0.134382
-0.204023 0.109376 0.146589
-0.0760097 0.0943208 0.257227
-0.0561761 0.0935467 0.260334
-0.0366655 0.0927852 0.263391
0.154604 0.0892094 0.265894
0.174023 0.0888819 0.265897
0.1933 0.0885568 0.2659
-0.188112 0.113673 0.171678
-0.154554 0.107518 0.209108
0.124112 0.0941577 0.265868
-0.170806 0.112563 0.1945
0.00312129 0.0985664 0.265837
0.0236671 0.0981942 0.26584
0.0440583 0.0978249 0.265844
-0.131274 0.108825 0.230454
0.064296 0.0997004 0.265836
-0.110156 0.109193 0.241003
-0.0152771 0.10345 0.265812
-0.210037 0.130099 0.139064
-0.0898539 0.109569 0.251032
0.0843829 0.103796 0.265817
0.104322 0.10341 0.265821
-0.194268 0.12854 0.163419
-0.0709968 0.112704 0.258095
-0.0512449 0.114084 0.261199
0.154612 0.10905 0.265797
0.174033 0.10865 0.2658
0.193058 0.107932 0.267689
-0.186156 0.134176 0.176513
-0.162029 0.128933 0.203334
-0.14218 0.127803 0.221424
0.124114 0.114115 0.265769
-0.124932 0.12757 0.234162
-0.00148276 0.119079 0.265736
0.0191009 0.118628 0.26574
0.0395296 0.118182 0.265743
0.0575597 0.117788 0.265747
-0.208112 0.148775 0.14369
-0.200045 0.148982 0.156237
-0.0954041 0.128977 0.248767
-0.0318054 0.124577 0.264294
0.0776989 0.124059 0.265717
0.0976905 0.123597 0.265721
-0.0759576 0.133874 0.25741
-0.0561301 0.132776 0.260515
-0.184225 0.154408 0.181284
-0.161437 0.149029 0.204872
0.148112 0.129056 0.265698
0.167585 0.128582 0.265702
0.189053 0.128058 0.265707
-0.1494 0.14899 0.215873
-0.214195 0.17 0.136101
-0.130813 0.147667 0.231751
0.117535 0.134243 0.26567
-0.00609606 0.139632 0.265635
0.0145256 0.139104 0.265639
0.0327255 0.138637 0.265642
0.053055 0.138116 0.265646
-0.197965 0.169695 0.161282
-0.109767 0.149721 0.242187
-0.0366134 0.143135 0.263622
0.0732307 0.144319 0.265617
0.0932586 0.143781 0.265621
-0.0923117 0.154433 0.250917
-0.182319 0.174376 0.185993
-0.164914 0.170003 0.202732
-0.0709433 0.154486 0.258288
-0.212236 0.188513 0.140765
-0.144959 0.16772 0.22086
0.143771 0.149056 0.265599
0.163278 0.148507 0.265604
0.182643 0.147963 0.265608
-0.196168 0.187589 0.165641
-0.12451 0.168572 0.235373
-0.0107166 0.157951 0.265544
0.113138 0.154365 0.265571
0.00765341 0.159687 0.265537
0.0281746 0.159084 0.265541
0.0485414 0.158486 0.265546
-0.0463023 0.164391 0.262197
-0.0269607 0.163059 0.265224
-0.168493 0.188611 0.200382
-0.0950037 0.173598 0.250057
0.0687536 0.164619 0.265517
0.088818 0.164005 0.265522
-0.0759056 0.173405 0.257593
-0.218103 0.212882 0.133788
-0.210027 0.209397 0.146026
-0.152214 0.189295 0.215297
0.139421 0.169095 0.265501
0.158964 0.168472 0.265505
0.178363 0.167854 0.26551
-0.19414 0.207784 0.17056
-0.130379 0.188816 0.232972
-0.112348 0.188225 0.241855
-0.0153483 0.178584 0.265442
0.00305739 0.177982 0.265447
0.113139 0.174381 0.265473
-0.0609949 0.183887 0.259978
0.0236146 0.179571 0.26544
0.0440188 0.178895 0.265445
-0.0414153 0.184679 0.263053
-0.172021 0.209879 0.19821
0.0642685 0.182715 0.265428
-0.0919602 0.194172 0.252063
0.0843687 0.184269 0.265422
-0.215831 0.233795 0.139148
-0.151653 0.2089 0.21678
-0.199861 0.228833 0.163517
-0.192139 0.22771 0.175413
-0.127137 0.207575 0.23503
0.132879 0.189251 0.265401
0.154641 0.188475 0.265406
0.174074 0.187783 0.265411
0.0976854 0.192736 0.265381
-0.0708809 0.203199 0.258513
-0.0223031 0.199343 0.26534
-0.00154956 0.198586 0.265345
0.019047 0.197835 0.26535
-0.175653 0.228777 0.195825
-0.0511427 0.203836 0.261612
0.0394872 0.199346 0.265344
-0.106224 0.213235 0.24549
-0.205966 0.247787 0.155695
-0.0946467 0.213372 0.251207
0.057527 0.203177 0.265327
0.18882 0.197544 0.267516
-0.213592 0.254418 0.144433
-0.155035 0.229702 0.214719
0.0776805 0.204657 0.265321
-0.139404 0.229448 0.228994
-0.22088 0.266439 0.134166
-0.189919 0.249813 0.180798
-0.120891 0.227996 0.238612
0.128509 0.209377 0.265302
0.148137 0.208603 0.265307
0.167622 0.207836 0.265312
-0.0269554 0.217784 0.265249
0.097684 0.212823 0.265283
-0.175022 0.248901 0.197399
-0.0708541 0.224066 0.25861
-0.00616578 0.219232 0.265243
0.0144688 0.218402 0.265249
0.03268 0.217669 0.265254
-0.0511191 0.224532 0.261707
-0.203843 0.267862 0.160752
-0.100221 0.233242 0.248942
-0.158439 0.250648 0.212644
0.0530193 0.223604 0.265226
0.0732101 0.222767 0.265232
0.18887 0.219505 0.267131
-0.138962 0.248634 0.2302
-0.178672 0.267978 0.195007
0.124129 0.229542 0.265202
0.143793 0.228693 0.265208
0.163313 0.227851 0.265213
-0.194764 0.278297 0.175768
-0.0758137 0.243111 0.257916
-0.0316914 0.238672 0.264817
-0.0107892 0.237641 0.265153
0.0888082 0.233302 0.265181
-0.217739 0.294605 0.141512
-0.120625 0.254239 0.239386
-0.0560001 0.243421 0.261025
0.0075923 0.23911 0.265147
0.0281262 0.238207 0.265153
-0.231939 0.30777 0.115347
-0.161941 0.269286 0.210365
-0.100027 0.254315 0.249554
0.0485026 0.244072 0.265125
0.0687303 0.243157 0.265131
0.178401 0.238196 0.265164
-0.222482 0.307615 0.137269
-0.135646 0.269696 0.232351
-0.208126 0.304747 0.157331
0.117544 0.247624 0.265113
-0.192772 0.297626 0.180555
-0.17377 0.288882 0.200523
-0.041337 0.257956 0.263389
0.139441 0.248822 0.265109
0.158995 0.247905 0.265115
-0.117452 0.272568 0.241401
-0.0807894 0.264555 0.257231
-0.0223625 0.258695 0.265048
-0.00159924 0.257712 0.265055
0.0932468 0.253224 0.265084
-0.0608971 0.26469 0.260351
0.0190053 0.259004 0.26505
-0.157288 0.289693 0.215629
-0.0969604 0.274639 0.251565
0.0394541 0.262544 0.265034
-0.141629 0.288101 0.229849
0.0575037 0.263918 0.265028
0.182707 0.257784 0.265068
-0.177398 0.308027 0.198154
