ply
format ascii 1.0
comment Created by Open3D
element vertex 710
property double x
property double y
property double z
end_header
0.155718 -0.152612 -0.386094
0.155703 -0.151844 -0.405494
0.155681 -0.150706 -0.434231
0.155784 -0.152527 -0.299707
0.155769 -0.151742 -0.319984
0.155753 -0.150965 -0.340054
0.155738 -0.150196 -0.359919
0.155856 -0.152571 -0.205801
0.155835 -0.151502 -0.234088
0.155818 -0.150709 -0.255045
0.155803 -0.149925 -0.275783
0.155932 -0.152618 -0.107311
0.155917 -0.151932 -0.125911
0.155895 -0.150845 -0.155325
0.155873 -0.149775 -0.184322
0.155669 -0.139964 -0.450011
0.156008 -0.152526 -0.00781351
0.15599 -0.151684 -0.0311972
0.155975 -0.150989 -0.0504872
0.155961 -0.1503 -0.0696011
0.155946 -0.149617 -0.0885414
0.156091 -0.152575 0.100711
0.156075 -0.151854 0.0801957
0.15606 -0.151139 0.0598738
0.156044 -0.150432 0.0397421
0.156029 -0.149731 0.019798
0.156179 -0.152625 0.214947
0.156162 -0.151885 0.19334
0.156139 -0.150861 0.163441
0.156116 -0.14985 0.133943
0.155721 -0.132147 -0.382841
0.155704 -0.131371 -0.405494
0.155682 -0.130386 -0.434231
0.156267 -0.152526 0.330782
0.15625 -0.151767 0.30804
0.156236 -0.151166 0.290009
0.156222 -0.150569 0.272121
0.156205 -0.149829 0.249958
0.156192 -0.149243 0.232384
0.155862 -0.13486 -0.198667
0.155805 -0.132402 -0.272342
0.155782 -0.131375 -0.303101
0.155766 -0.1307 -0.323344
0.155751 -0.130031 -0.343379
0.155736 -0.129369 -0.36321
0.156357 -0.152265 0.447988
0.156342 -0.151643 0.428832
0.156328 -0.151026 0.409833
0.156313 -0.150414 0.390988
0.156299 -0.149807 0.372295
0.156281 -0.149055 0.349139
0.155937 -0.134474 -0.0998233
0.155889 -0.132435 -0.162613
0.155873 -0.13173 -0.184322
0.155845 -0.130571 -0.219995
0.155832 -0.129999 -0.237596
0.155978 -0.132469 -0.0466434
0.155964 -0.131865 -0.0657923
0.155923 -0.1302 -0.118491
0.155906 -0.129499 -0.140671
0.156069 -0.132381 0.0720439
0.156054 -0.13176 0.0517983
0.156038 -0.131144 0.031742
0.156023 -0.130534 0.0118722
0.155999 -0.12957 -0.0195378
0.156169 -0.132417 0.201958
0.156152 -0.131776 0.180477
0.156136 -0.131142 0.159203
0.156123 -0.130639 0.142331
0.156107 -0.130016 0.121421
0.156088 -0.129276 0.0965921
0.156274 -0.132454 0.339942
0.15626 -0.131925 0.321658
0.156243 -0.13127 0.299007
0.156229 -0.130751 0.281047
0.156212 -0.130108 0.258797
0.156199 -0.129597 0.241154
0.155793 -0.114252 -0.289489
0.155744 -0.112406 -0.35332
0.155721 -0.111552 -0.382841
0.155704 -0.110897 -0.405494
0.155682 -0.110066 -0.434231
0.156357 -0.131407 0.447988
0.156342 -0.13087 0.428832
0.156328 -0.130338 0.409833
0.156313 -0.129809 0.390988
0.156299 -0.129286 0.372295
0.156182 -0.124997 0.219293
0.15584 -0.112487 -0.227054
0.155819 -0.111702 -0.255045
0.155777 -0.110165 -0.309872
0.155762 -0.1096 -0.330045
0.156008 -0.114866 -0.0078136
0.155938 -0.112369 -0.0998234
0.155923 -0.111862 -0.118491
0.155907 -0.11126 -0.140671
0.155893 -0.110763 -0.158973
0.155876 -0.110173 -0.18072
0.155857 -0.109492 -0.205801
0.156098 -0.114165 0.108971
0.156048 -0.112453 0.0437532
0.156032 -0.111929 0.0237718
0.15599 -0.110486 -0.0311973
0.155976 -0.109979 -0.0504873
0.155961 -0.109478 -0.0696012
0.156162 -0.112434 0.19334
0.156139 -0.111676 0.163441
0.156117 -0.110928 0.133943
0.156085 -0.109877 0.0924813
0.156069 -0.109358 0.0720438
0.156285 -0.112415 0.353752
0.156264 -0.111741 0.326215
0.156247 -0.111185 0.303519
0.156226 -0.110526 0.27658
0.156216 -0.1102 0.263229
0.156196 -0.109552 0.236764
0.155729 -0.0946301 -0.373051
0.156357 -0.110549 0.447988
0.156342 -0.110097 0.428832
0.156328 -0.109649 0.409833
0.156314 -0.109205 0.390988
0.156299 -0.108764 0.372294
0.15577 -0.0924403 -0.319984
0.155755 -0.091967 -0.340054
0.155714 -0.0907285 -0.392582
0.155704 -0.090424 -0.405494
0.155682 -0.0897465 -0.434231
0.156179 -0.101089 0.214946
0.15595 -0.094289 -0.0847673
0.155887 -0.0924402 -0.166248
0.155863 -0.0917046 -0.198667
0.155846 -0.0912207 -0.219995
0.155833 -0.0908213 -0.237597
0.155817 -0.0903467 -0.258516
0.155793 -0.0896439 -0.289489
0.156104 -0.0949957 0.117263
0.156003 -0.0920985 -0.0156371
0.155988 -0.0916748 -0.0350696
0.155941 -0.090345 -0.0960697
0.155918 -0.0896945 -0.125911
0.156153 -0.0924401 0.180477
0.156136 -0.0919953 0.159203
0.156123 -0.0916425 0.142331
0.156095 -0.0908585 0.104837
0.156079 -0.0904287 0.084283
0.156063 -0.090003 0.0639226
0.156048 -0.0895812 0.0437531
0.156033 -0.0891634 0.0237716
0.156018 -0.0887494 0.00397578
0.155669 -0.0792566 -0.450011
0.156303 -0.09244 0.376953
0.156292 -0.0921608 0.363004
0.156268 -0.0915157 0.330781
0.15625 -0.0910604 0.30804
0.156236 -0.0906994 0.290009
0.156223 -0.0903413 0.272121
0.156206 -0.0898975 0.249958
0.155902 -0.08193 -0.148011
0.156357 -0.0896906 0.447988
0.156342 -0.0893241 0.428832
0.156328 -0.0889606 0.409833
0.156192 -0.0855659 0.232384
0.156176 -0.0811889 0.210608
0.155877 -0.0740507 -0.18072
0.155791 -0.0720044 -0.292901
0.155776 -0.0716332 -0.313248
0.15576 -0.0712659 -0.333387
0.155745 -0.0709023 -0.35332
0.155724 -0.0704233 -0.379583
0.155709 -0.0700682 -0.399049
0.155694 -0.0697167 -0.418319
0.155968 -0.0724988 -0.0619768
0.155942 -0.0719072 -0.0960698
0.155919 -0.0713895 -0.125911
0.155863 -0.0701271 -0.198667
0.155847 -0.069757 -0.219995
0.155833 -0.0694516 -0.237597
0.155818 -0.0690886 -0.258516
0.156192 -0.0736265 0.232383
0.15614 -0.0724916 0.163441
0.156117 -0.072006 0.133943
0.156098 -0.0715949 0.108971
0.156086 -0.0713235 0.092481
0.15607 -0.0709871 0.0720436
0.156055 -0.0706538 0.051798
0.156039 -0.0703236 0.0317417
0.156024 -0.0699966 0.0118719
0.156009 -0.0696725 -0.00781387
0.155991 -0.0692876 -0.0311976
0.144768 -0.0666587 -0.233272
0.139297 -0.0666585 -0.254164
0.133826 -0.0666584 -0.275055
0.128355 -0.0666583 -0.295947
0.12106 -0.0666581 -0.323802
0.115589 -0.066658 -0.344693
0.155674 -0.0624971 -0.443714
0.156332 -0.0724835 0.414568
0.15631 -0.0720433 0.3863
0.156293 -0.0716806 0.363004
0.156275 -0.0713215 0.339942
0.156261 -0.0710368 0.321658
0.156243 -0.0706841 0.299007
0.15623 -0.0704044 0.281047
0.156213 -0.0700579 0.258797
0.156159 -0.0689718 0.189044
0.144324 -0.0666567 -0.00437617
0.141432 -0.0666566 -0.0154188
0.13372 -0.0666564 -0.0448655
0.130829 -0.0666564 -0.055908
0.123117 -0.0666562 -0.0853546
0.115406 -0.066656 -0.114801
0.112514 -0.0666559 -0.125843
0.104803 -0.0666558 -0.155289
0.0970917 -0.0666556 -0.184735
0.0941999 -0.0666555 -0.195778
0.0864887 -0.0666553 -0.225223
0.0787776 -0.0666551 -0.254669
0.0758859 -0.0666551 -0.265711
0.0681748 -0.0666549 -0.295156
0.0604637 -0.0666547 -0.324602
0.0575721 -0.0666546 -0.335644
0.156357 -0.0688323 0.447988
0.156342 -0.068551 0.428832
0.144847 -0.0666545 0.256153
0.14178 -0.0666544 0.244441
0.136669 -0.0666543 0.224922
0.12849 -0.0666541 0.193691
0.123379 -0.066654 0.174171
0.118267 -0.0666539 0.154652
0.111111 -0.0666537 0.127325
0.104977 -0.0666536 0.103903
0.0998658 -0.0666534 0.0843836
0.0947543 -0.0666533 0.0648647
0.086576 -0.0666531 0.0336346
0.0814646 -0.066653 0.014116
0.0763533 -0.0666529 -0.00540271
0.0691974 -0.0666527 -0.0327287
0.0630637 -0.0666526 -0.0561509
0.0579524 -0.0666525 -0.0756692
0.0528413 -0.0666523 -0.0951875
0.0456855 -0.0666522 -0.122513
0.0395521 -0.066652 -0.145935
0.0344408 -0.0666519 -0.165453
0.0272851 -0.0666518 -0.192778
0.0211517 -0.0666516 -0.2162
0.0160403 -0.0666515 -0.235717
0.0109292 -0.0666514 -0.255235
0.00377357 -0.0666512 -0.28256
-0.00235975 -0.0666511 -0.305981
-0.00747085 -0.066651 -0.325499
0.141768 -0.0644522 0.377235
0.112558 -0.0659942 0.377214
0.0942863 -0.0666512 0.354966
0.0888454 -0.0666511 0.334188
0.0834043 -0.0666509 0.31341
0.0757869 -0.0666508 0.284321
0.0703458 -0.0666507 0.263543
0.0627284 -0.0666505 0.234455
0.0572873 -0.0666504 0.213677
0.0496701 -0.0666502 0.184589
0.0442292 -0.0666501 0.163812
0.0366119 -0.0666499 0.134723
0.0311711 -0.0666498 0.113946
0.0235536 -0.0666496 0.0848584
0.018113 -0.0666495 0.0640814
0.010496 -0.0666493 0.0349938
0.00505507 -0.0666492 0.0142171
-0.000385642 -0.0666491 -0.00655967
-0.00800252 -0.0666489 -0.0356469
-0.00899327 -0.0662801 -0.0660893
-0.00901675 -0.0658625 -0.096368
-0.00903964 -0.0654501 -0.126268
-0.00906241 -0.0650429 -0.155795
-0.00908458 -0.0646407 -0.184957
-0.00910056 -0.0643565 -0.205568
-0.00911629 -0.0640747 -0.225998
-0.00913179 -0.0637954 -0.246249
0.0819145 -0.0632498 0.377193
0.0497317 -0.0648391 0.37717
0.0245129 -0.0660845 0.377152
0.0076766 -0.0666469 0.356348
0.00186086 -0.0666468 0.334139
-0.00511801 -0.0666466 0.307488
-0.00860739 -0.0666465 0.294162
-0.00873196 -0.066394 0.274175
-0.00874722 -0.0661374 0.254287
-0.00876236 -0.0658828 0.234553
-0.00877738 -0.0656302 0.21497
-0.00879991 -0.0652548 0.185875
-0.00881445 -0.0650069 0.166663
-0.00883269 -0.0646997 0.142852
-0.00884712 -0.064456 0.123965
-0.00886869 -0.0640939 0.0958991
-0.00888312 -0.0638548 0.0773632
-0.00889373 -0.0636766 0.0635517
-0.00891471 -0.0633232 0.0361587
-0.00893211 -0.0630316 0.0135625
0.152043 -0.0503742 -0.350157
0.155732 -0.0499381 -0.369776
0.155717 -0.0496857 -0.389341
0.155702 -0.0494358 -0.408708
-0.00865364 -0.0630379 0.375973
-0.0086695 -0.0627895 0.355293
-0.00917161 -0.0549411 -0.298087
-0.00918663 -0.0547053 -0.317717
-0.00920451 -0.054425 -0.341051
0.156357 -0.0521457 0.447988
0.156342 -0.0519326 0.428832
0.156328 -0.0517213 0.409833
0.156314 -0.0515117 0.390987
0.105035 -0.0535414 0.377209
-0.00895262 -0.0540391 -0.0132798
-0.00896311 -0.053891 -0.0265906
-0.00898337 -0.0535974 -0.0529948
-0.00899327 -0.0534517 -0.0660893
0.0575049 -0.0474506 -0.35023
0.155687 -0.0424039 -0.427882
0.155669 -0.0421578 -0.450011
-0.00868547 -0.0532774 0.334774
-0.00870085 -0.0530691 0.314417
-0.00915027 -0.0470858 -0.27032
0.141768 -0.0436612 0.377235
0.00715494 -0.048475 0.37714
-0.00878108 -0.0474798 0.210098
-0.00879598 -0.0472986 0.190701
-0.00881076 -0.0471187 0.171453
-0.00900984 -0.044697 -0.0877559
-0.00902653 -0.0444964 -0.109228
-0.00904274 -0.0442976 -0.130508
-0.00905907 -0.0441005 -0.151599
-0.00907195 -0.0439442 -0.168337
-0.00908768 -0.0437502 -0.189094
-0.00910354 -0.043558 -0.209668
-0.00865364 -0.04436 0.375973
-0.0086695 -0.0441852 0.355293
-0.00871634 -0.043669 0.294217
-0.00873196 -0.0434996 0.274175
-0.00874722 -0.0433314 0.254287
-0.00876236 -0.0431646 0.234553
0.155712 -0.032498 -0.395818
0.0819145 -0.0370775 0.377193
-0.00887954 -0.0374671 0.0819842
-0.0088973 -0.037293 0.058965
-0.00891137 -0.0371548 0.0407031
-0.00892854 -0.0369836 0.0180651
-0.00911939 -0.035107 -0.230062
-0.00913489 -0.0349541 -0.250279
-0.00915027 -0.0348025 -0.27032
-0.00916564 -0.0346522 -0.290188
-0.00918066 -0.0345033 -0.309885
-0.00919557 -0.0343556 -0.329414
-0.00921047 -0.0342091 -0.348776
0.152043 -0.0295297 -0.350157
0.155732 -0.029274 -0.369776
0.156357 -0.0312874 0.447988
0.156342 -0.0311596 0.428832
0.156328 -0.0310328 0.409833
0.156314 -0.030907 0.390987
0.0974216 -0.0323193 0.377204
0.0497317 -0.0335375 0.37717
0.0245129 -0.0341816 0.377152
-0.00868547 -0.0347461 0.334774
-0.00870085 -0.0346103 0.314417
-0.00877738 -0.0339466 0.21497
-0.00879991 -0.0337525 0.185875
-0.00881445 -0.0336243 0.166663
-0.00883269 -0.0334654 0.142852
-0.00884712 -0.0333393 0.123965
-0.00886869 -0.033152 0.0958991
0.0575049 -0.0246743 -0.35023
0.155694 -0.0221053 -0.418319
0.155677 -0.0219767 -0.440558
0.0819145 -0.0239913 0.377193
-0.00876236 -0.02499 0.234553
-0.00888312 -0.0242208 0.0773632
-0.00889373 -0.0241532 0.0635517
-0.00891471 -0.0240191 0.0361587
-0.00893211 -0.0239085 0.0135625
-0.00895262 -0.0237772 -0.0132798
-0.00896311 -0.023712 -0.0265906
-0.00898337 -0.0235828 -0.0529948
-0.00899327 -0.0235187 -0.0660893
-0.00901675 -0.0233706 -0.096368
0.141768 -0.0145537 0.377235
0.112558 -0.0149019 0.377214
-0.00865364 -0.0163432 0.375973
-0.0086695 -0.0162788 0.355293
-0.00871634 -0.0160886 0.294217
-0.00873196 -0.0160261 0.274175
-0.00874722 -0.0159642 0.254287
-0.00903964 -0.0147791 -0.126268
-0.00906217 -0.0146871 -0.155795
-0.00908458 -0.0145963 -0.184957
-0.00910056 -0.0145321 -0.205568
-0.00911629 -0.0144685 -0.225998
-0.00913179 -0.0144054 -0.246249
-0.00914717 -0.0143429 -0.266325
-0.00916255 -0.0142809 -0.286228
-0.00917757 -0.0142195 -0.305959
-0.00919271 -0.0141585 -0.325521
0.152043 -0.0121593 -0.350157
0.155732 -0.012054 -0.369776
0.155717 -0.0119931 -0.389341
0.156357 -0.0104291 0.447988
0.156342 -0.0103865 0.428832
0.156328 -0.0103443 0.409833
0.156314 -0.0103023 0.390987
0.00715494 -0.0115417 0.37714
-0.0086931 -0.0115594 0.324576
0.0497317 -0.0067075 0.37717
-0.00877738 -0.00678934 0.21497
-0.00879991 -0.00675051 0.185875
-0.00881445 -0.00672486 0.166663
-0.00883269 -0.00669308 0.142852
-0.00884712 -0.00666788 0.123965
-0.00886869 -0.00663042 0.0958991
0.155702 -0.00170469 -0.408708
0.155687 -0.00169616 -0.427882
0.155669 -0.00168632 -0.450011
0.141768 0.00623729 0.377235
0.112558 0.00638652 0.377214
0.0819145 0.00654306 0.377193
0.0497317 0.00670747 0.37717
0.0245129 0.00683631 0.377152
-0.00865364 0.00700419 0.375973
-0.0086695 0.00697659 0.355293
-0.00868547 0.00694921 0.334774
-0.00870085 0.00692204 0.314417
-0.00871634 0.00689508 0.294217
-0.00873196 0.00686833 0.274175
-0.00874722 0.00684178 0.254287
-0.00876236 0.00681544 0.234553
-0.00877738 0.00678931 0.21497
-0.00879991 0.00675048 0.185875
-0.00881445 0.00672483 0.166663
-0.00883269 0.00669305 0.142852
-0.00884712 0.00666784 0.123965
-0.00886869 0.00663039 0.0958991
-0.00888312 0.00660565 0.0773632
-0.00889373 0.00658721 0.0635517
-0.00891471 0.00655065 0.0361587
-0.00893211 0.00652049 0.0135625
-0.00895262 0.00648467 -0.0132798
-0.00896311 0.0064669 -0.0265906
-0.00898337 0.00643166 -0.0529948
-0.00899327 0.00641418 -0.0660893
-0.00901675 0.00637377 -0.096368
-0.00903964 0.00633387 -0.126268
-0.00906217 0.00629446 -0.155795
-0.00908458 0.00625553 -0.184957
-0.00910056 0.00622803 -0.205568
-0.00911629 0.00620076 -0.225998
-0.00913179 0.00617373 -0.246249
-0.00914717 0.00614693 -0.266325
-0.00916255 0.00612037 -0.286228
-0.00917757 0.00609404 -0.305959
-0.00919271 0.00606793 -0.325521
0.0575049 0.00569406 -0.35023
0.15574 0.00517915 -0.359919
0.156357 0.0104291 0.447988
0.156342 0.0103865 0.428832
0.156328 0.0103443 0.409833
0.156314 0.0103023 0.390987
0.155724 0.00858821 -0.379583
0.0245129 0.0250666 0.377152
-0.00865364 0.0256822 0.375973
-0.0086695 0.0255809 0.355293
-0.00868547 0.0254805 0.334774
-0.00870085 0.0253809 0.314417
-0.00871634 0.0252821 0.294217
-0.00873196 0.025184 0.274175
-0.00874722 0.0250866 0.254287
0.155709 0.0187988 -0.399049
0.155694 0.0187045 -0.418319
0.155677 0.0185957 -0.440558
0.0974216 0.0280101 0.377204
-0.00915337 0.0265906 -0.274307
-0.00916255 0.0265217 -0.286228
-0.00917757 0.0264076 -0.305959
-0.00919271 0.0262944 -0.325521
0.156357 0.0312874 0.447988
0.156342 0.0311596 0.428832
0.156328 0.0310328 0.409833
0.156314 0.030907 0.390987
0.0819145 0.0327154 0.377193
0.0497317 0.0335375 0.37717
-0.00876236 0.0340773 0.234553
-0.00877738 0.0339467 0.21497
-0.00879991 0.0337525 0.185875
-0.00881445 0.0336243 0.166663
-0.00883269 0.0334654 0.142852
-0.00884712 0.0333393 0.123965
-0.00886869 0.0331521 0.0958991
-0.00888312 0.0330284 0.0773632
-0.00889373 0.0329362 0.0635517
-0.00891471 0.0327534 0.0361587
-0.00893211 0.0326026 0.0135625
0.15574 0.0258958 -0.359919
-0.00860095 0.040248 0.449665
-0.00861597 0.0400871 0.428399
-0.00863123 0.0399276 0.407304
-0.00895262 0.0367466 -0.0132798
-0.00896287 0.0366459 -0.0265907
-0.00898337 0.0364462 -0.0529948
-0.00899327 0.0363471 -0.0660893
-0.00901675 0.0361181 -0.096368
-0.00903964 0.035892 -0.126268
-0.00906217 0.0356687 -0.155795
-0.00908458 0.0354481 -0.184957
-0.00910056 0.0352922 -0.205568
-0.00911629 0.0351377 -0.225998
-0.00913179 0.0349846 -0.246249
0.155724 0.0291999 -0.379583
-0.00921345 0.0382012 -0.352628
-0.00864625 0.0491267 0.386375
-0.00869322 0.0485493 0.324576
-0.00883269 0.0468515 0.142852
-0.00884712 0.046675 0.123965
-0.00886869 0.0464128 0.0958991
-0.008883 0.0462396 0.0773631
-0.00889361 0.0461106 0.0635516
-0.00891459 0.0458547 0.0361587
-0.00893199 0.0456436 0.0135625
-0.00923097 0.0420077 -0.375607
-0.00925386 0.0417248 -0.405884
-0.00927639 0.0414457 -0.435756
-0.00866187 0.053593 0.365613
-0.00867796 0.0533822 0.345014
-0.00870895 0.0529656 0.304298
-0.00872433 0.0527597 0.284177
-0.00873935 0.0525554 0.264212
-0.00919271 0.0465209 -0.325521
-0.00860095 0.0591882 0.449665
-0.00861597 0.0589517 0.428399
-0.00863123 0.058717 0.407304
-0.00875473 0.0569051 0.244401
-0.00876975 0.0566864 0.224743
-0.00879216 0.0563616 0.195536
-0.00880682 0.056147 0.176251
-0.00882149 0.0559342 0.157112
-0.00906205 0.0566503 -0.155795
-0.00908434 0.0563 -0.184957
-0.00910032 0.0560524 -0.205568
-0.00911617 0.055807 -0.225998
-0.00913143 0.0555637 -0.246249
-0.00914681 0.0553226 -0.266325
-0.00916219 0.0550835 -0.286228
-0.00917745 0.0548465 -0.305959
-0.00864685 0.0678417 0.386376
-0.00870168 0.0669133 0.314417
-0.00871694 0.0666527 0.294218
-0.00873208 0.0663941 0.274175
-0.0089525 0.0626853 -0.0132799
-0.00896275 0.0625136 -0.0265907
-0.00921321 0.0583071 -0.352628
-0.00923097 0.0580106 -0.375607
-0.00925386 0.05762 -0.405884
-0.00898302 0.0664607 -0.0529948
-0.00899315 0.0662801 -0.0660893
-0.00901639 0.0658625 -0.096368
-0.00903916 0.0654501 -0.126268
-0.00927639 0.0611817 -0.435756
-0.00860095 0.0781285 0.449665
-0.00861597 0.0778162 0.428399
-0.00863123 0.0775065 0.407304
-0.00866294 0.0768944 0.365613
-0.00867844 0.0765919 0.345014
-0.0086863 0.0764416 0.334775
-0.00874782 0.0752599 0.254288
-0.00883257 0.0736238 0.142852
-0.008847 0.0733465 0.123965
-0.00886846 0.0729345 0.095899
-0.00888276 0.0726623 0.0773631
-0.00889337 0.076851 0.0635516
-0.00891435 0.0764245 0.0361587
-0.00893176 0.0760726 0.0135624
-0.00895226 0.0756547 -0.0132799
-0.00896251 0.0754474 -0.0265908
-0.00870216 0.0853721 0.314417
-0.00871742 0.0850396 0.294218
-0.00876307 0.0840575 0.234553
-0.00877798 0.0837351 0.21497
-0.00880015 0.0832562 0.185876
-0.00881469 0.0829399 0.166663
-0.00911582 0.0764762 -0.225998
-0.00913131 0.0761429 -0.246249
-0.00914681 0.0758124 -0.266325
-0.00916219 0.0754848 -0.286228
-0.00917733 0.07516 -0.305959
-0.00919235 0.074838 -0.325521
-0.00864732 0.0912354 0.386376
-0.00884032 0.0868458 0.133391
-0.00885463 0.0865193 0.114574
-0.00887585 0.0860341 0.0866138
-0.00921309 0.0784129 -0.352628
-0.00923085 0.0780142 -0.375607
-0.00866318 0.0955354 0.365613
-0.00867903 0.0951597 0.345014
-0.00873303 0.0938675 0.274176
-0.00903904 0.0865631 -0.126268
-0.00906169 0.0860245 -0.155795
-0.00908422 0.0854925 -0.184957
-0.00910008 0.0851166 -0.205568
-0.00925386 0.0814627 -0.405884
-0.00927639 0.0809178 -0.435756
-0.00860095 0.101804 0.449665
-0.00861597 0.101397 0.428399
-0.00863171 0.100993 0.407304
-0.008793 0.096942 0.195537
-0.00880802 0.096573 0.176251
-0.00882244 0.0962069 0.157112
-0.00868714 0.104239 0.334775
-0.00874853 0.102627 0.254288
-0.0089761 0.0966507 -0.0442256
-0.00899279 0.096213 -0.0660894
-0.00901616 0.0956068 -0.096368
-0.00864792 0.10995 0.386376
-0.00876355 0.106776 0.234554
-0.00889397 0.1032 0.0635518
-0.00891495 0.102627 0.0361588
-0.00913727 0.0965537 -0.254301
-0.00914681 0.0963023 -0.266325
-0.00916195 0.0958861 -0.286228
-0.00917709 0.0954735 -0.305959
-0.00919223 0.0950645 -0.325521
-0.00870299 0.11306 0.314418
-0.00871837 0.11262 0.294219
-0.00893235 0.106502 0.0135626
-0.0089525 0.105917 -0.0132799
-0.00921297 0.0985188 -0.352628
-0.00923061 0.0980179 -0.375607
-0.00860095 0.120744 0.449665
-0.00861597 0.120261 0.428399
-0.00863218 0.119783 0.407304
-0.00873375 0.116762 0.274176
-0.00874889 0.116311 0.254288
-0.00877881 0.115419 0.214971
-0.00883389 0.113782 0.142853
-0.00884831 0.113354 0.123965
-0.00886965 0.112717 0.0958994
-0.00907457 0.106627 -0.172504
-0.00909042 0.106157 -0.193223
-0.00909972 0.105877 -0.205568
-0.00911546 0.105413 -0.225998
-0.00925386 0.101332 -0.405884
-0.00927639 0.100654 -0.435756
-0.00866425 0.123497 0.365614
-0.00867987 0.123011 0.345015
-0.00868762 0.12277 0.334776
-0.00888383 0.1167 0.0773634
-0.00889432 0.116375 0.0635519
-0.00891531 0.115729 0.0361589
-0.00864851 0.128665 0.386377
-0.00870335 0.126905 0.314418
-0.00871861 0.12641 0.294219
-0.00880134 0.123759 0.185876
-0.008816 0.123289 0.166664
-0.00902295 0.116643 -0.104949
-0.00903904 0.116121 -0.126268
-0.0088414 0.126929 0.133391
-0.00885582 0.126451 0.114575
-0.00896323 0.122872 -0.0265906
-0.00915253 0.11659 -0.274307
-0.00916171 0.116287 -0.286228
-0.00917685 0.115787 -0.305959
-0.00919175 0.115291 -0.325521
-0.00860095 0.139684 0.449665
-0.00861681 0.139126 0.4284
-0.0086329 0.138572 0.407305
-0.00868034 0.136937 0.345015
-0.00868809 0.136668 0.334776
-0.00873423 0.135078 0.274176
-0.00876439 0.134038 0.234554
-0.00898349 0.12649 -0.0529947
-0.00899351 0.126146 -0.0660892
-0.00921261 0.118625 -0.352628
-0.00923026 0.118022 -0.375607
-0.00881624 0.136739 0.166664
-0.00893295 0.132584 0.0135628
-0.00909984 0.126637 -0.205568
-0.00911546 0.126082 -0.225998
-0.00913095 0.125533 -0.246249
-0.00925362 0.121201 -0.405884
-0.00927639 0.12039 -0.435756
-0.0086571 0.147089 0.375975
-0.00870371 0.145364 0.314418
-0.00874972 0.143678 0.254289
-0.00877976 0.142576 0.214971
-0.00895357 0.136179 -0.0132796
-0.00896382 0.135805 -0.0265905
-0.00880206 0.146261 0.185876
-0.00883472 0.145017 0.142853
-0.00887764 0.143391 0.0866144
-0.00889516 0.142724 0.0635522
-0.00906241 0.13638 -0.155795
-0.00908458 0.135537 -0.184957
-0.00891614 0.146299 0.0361592
-0.00893331 0.145625 0.0135629
-0.00916779 0.136453 -0.294141
-0.00917685 0.1361 -0.305959
-0.00919163 0.135517 -0.325521
-0.00901723 0.146597 -0.0963679
-0.00904 0.145679 -0.126267
-0.00921249 0.138731 -0.352628
-0.00923014 0.138025 -0.375607
-0.00912237 0.146495 -0.23412
-0.00913155 0.146112 -0.246249
-0.00914681 0.145478 -0.266325
-0.00925338 0.141069 -0.405884
-0.00927639 0.140126 -0.435756
