ply
format ascii 1.0
comment Created by Open3D
element vertex 1053
property double x
property double y
property double z
end_header
0.207383 -0.209841 -0.373134
0.20736 -0.207863 -0.393628
0.168997 -0.208978 -0.404742
0.207357 -0.192431 -0.396524
0.207393 -0.192245 -0.364231
0.20737 -0.190425 -0.384893
0.168997 -0.190123 -0.404742
0.207373 -0.172377 -0.381965
0.207353 -0.170988 -0.399413
0.207397 -0.170947 -0.361247
0.168997 -0.171268 -0.404742
0.207424 -0.163494 -0.337079
0.207474 -0.163544 -0.293474
0.207449 -0.161947 -0.315489
0.20827 -0.209729 0.400198
0.208246 -0.208194 0.378627
0.206595 -0.207055 0.358894
0.207526 -0.163597 -0.248113
0.207504 -0.162197 -0.267775
0.183619 -0.206622 0.358867
0.207581 -0.163651 -0.200889
0.207561 -0.162459 -0.217976
0.207397 -0.152466 -0.361247
0.207376 -0.151226 -0.379029
0.207353 -0.149804 -0.399413
0.133438 -0.16123 -0.404784
-0.162073 -0.209838 -0.384389
-0.162088 -0.209002 -0.396382
0.207633 -0.163463 -0.155267
0.207601 -0.16153 -0.183549
0.168997 -0.152413 -0.404742
0.206595 -0.194755 0.358894
0.207692 -0.163516 -0.104109
0.207679 -0.16277 -0.115254
0.207645 -0.160814 -0.144485
0.095181 -0.160574 -0.404828
0.208258 -0.192408 0.389373
0.18362 -0.194099 0.358866
0.207753 -0.163572 -0.0507146
0.207731 -0.162305 -0.0700497
0.0539132 -0.16338 -0.404876
0.207817 -0.163631 0.00506559
0.207794 -0.162335 -0.0151398
-0.162083 -0.192368 -0.392395
0.207879 -0.163425 0.0591407
0.20786 -0.162367 0.0422597
0.207493 -0.142318 -0.27748
0.207463 -0.14072 -0.302962
0.207449 -0.139935 -0.315489
0.00926399 -0.162758 -0.404929
0.207949 -0.163483 0.119998
0.207929 -0.162399 0.102322
0.207904 -0.161065 0.0805539
0.207553 -0.142352 -0.224741
0.207417 -0.135093 -0.343171
0.207366 -0.132357 -0.387812
0.133438 -0.141687 -0.404784
0.208234 -0.174574 0.36796
0.208022 -0.163543 0.183765
0.207991 -0.161885 0.156067
0.207617 -0.142388 -0.169492
0.207523 -0.137483 -0.251413
0.207403 -0.131264 -0.355255
-0.0391998 -0.162083 -0.404985
0.20827 -0.172352 0.400198
0.208099 -0.163607 0.250656
0.208077 -0.16247 0.231212
0.208055 -0.161349 0.212037
0.207679 -0.14221 -0.115254
0.207585 -0.137404 -0.197441
0.168997 -0.130415 -0.404742
0.095181 -0.140291 -0.404828
0.171818 -0.170595 0.358852
0.208174 -0.16338 0.315771
0.208151 -0.162219 0.295415
0.208128 -0.161073 0.275346
0.207744 -0.142023 -0.0584847
0.207722 -0.140926 -0.0777003
0.207645 -0.137115 -0.144485
-0.0919889 -0.161348 -0.405046
-0.162098 -0.170548 -0.404324
0.208216 -0.161369 0.352104
0.207975 -0.149698 0.142427
0.207874 -0.144827 0.0548998
0.207799 -0.141152 -0.0111243
0.207776 -0.140042 -0.0310751
0.207696 -0.136185 -0.100371
0.00926399 -0.144471 -0.404929
0.207949 -0.144692 0.119998
0.207899 -0.142318 0.0762432
0.20785 -0.140021 0.0339009
0.207526 -0.124722 -0.248113
0.207463 -0.121747 -0.302962
0.207449 -0.121067 -0.315489
0.0539132 -0.135271 -0.404876
0.208234 -0.154036 0.36796
0.208033 -0.144797 0.193124
0.207929 -0.14 0.102322
0.207817 -0.13486 0.00506559
0.207546 -0.122362 -0.231467
0.207504 -0.120444 -0.267775
0.199456 -0.117327 -0.344975
0.133438 -0.122144 -0.404784
0.20827 -0.151586 0.400198
0.208111 -0.1444 0.26048
0.208066 -0.1424 0.221591
0.208012 -0.139977 0.174469
0.207617 -0.122287 -0.169492
0.207565 -0.119968 -0.214578
0.192611 -0.117326 -0.299955
0.184886 -0.117325 -0.317603
0.175871 -0.117325 -0.338193
0.207397 -0.112424 -0.361247
0.207376 -0.11151 -0.379029
0.207353 -0.110461 -0.399413
-0.0391998 -0.139201 -0.404985
-0.14971 -0.152205 -0.405114
0.208186 -0.143725 0.326059
0.208156 -0.142445 0.300477
0.208133 -0.141438 0.280337
0.208088 -0.139465 0.2409
0.207688 -0.12202 -0.107835
0.207662 -0.120914 -0.129958
0.193317 -0.117326 -0.234251
0.184079 -0.117321 -0.255428
0.172113 -0.117327 -0.282635
0.148286 -0.119806 -0.287618
0.131775 -0.121695 -0.287637
0.114736 -0.123645 -0.287656
0.0789639 -0.127739 -0.287697
-0.185 -0.160282 -0.241488
0.158881 -0.117325 -0.312879
0.149615 -0.117325 -0.334049
0.168997 -0.11156 -0.404742
0.095181 -0.120008 -0.404828
0.0539131 -0.124731 -0.404876
-0.0919889 -0.141429 -0.405046
0.20821 -0.140687 0.346858
0.20798 -0.130969 0.146958
0.207749 -0.121171 -0.0546058
0.207735 -0.120607 -0.0662068
0.20087 -0.117327 -0.149176
0.192703 -0.117325 -0.167851
0.183174 -0.117324 -0.189637
0.175027 -0.11732 -0.208317
0.153024 -0.119216 -0.21965
0.127008 -0.12211 -0.219679
0.113521 -0.12361 -0.219695
0.0855278 -0.126724 -0.219727
0.0709956 -0.12834 -0.219743
0.158673 -0.11732 -0.245657
0.146359 -0.117326 -0.273651
0.0601747 -0.126231 -0.287719
0.040742 -0.128392 -0.287741
0.13001 -0.117325 -0.310994
0.121837 -0.117325 -0.329665
0.207865 -0.122429 0.0464594
0.20785 -0.121837 0.0339009
0.207794 -0.119522 -0.0151398
0.193455 -0.117325 -0.0942817
0.185061 -0.117322 -0.113521
0.176625 -0.117324 -0.132743
0.170989 -0.117326 -0.145554
0.152711 -0.11908 -0.150234
0.130963 -0.121429 -0.150258
0.10834 -0.123872 -0.150284
0.158345 -0.117328 -0.174392
0.149957 -0.117324 -0.193631
0.0407897 -0.127882 -0.219778
0.127523 -0.117321 -0.244911
0.119067 -0.117325 -0.264131
0.0206324 -0.126843 -0.287764
-0.18502 -0.150413 -0.259275
0.0980119 -0.117325 -0.3122
0.0909983 -0.117324 -0.328224
0.20824 -0.133742 0.373284
0.207944 -0.121939 0.115557
0.207919 -0.120932 0.0935717
0.191347 -0.117327 -0.0227857
0.182725 -0.117319 -0.0426339
0.172577 -0.117322 -0.0657463
0.143262 -0.119703 -0.0808242
0.123965 -0.121725 -0.0808466
0.104005 -0.123816 -0.0808699
0.155245 -0.117318 -0.105396
0.146532 -0.117322 -0.125203
0.0847886 -0.122642 -0.150311
0.0602492 -0.125213 -0.150338
0.124782 -0.117328 -0.174735
0.116137 -0.117324 -0.194566
0.00896013 -0.1274 -0.219814
0.094456 -0.117321 -0.244119
0.0857388 -0.117325 -0.263931
-0.000190258 -0.125238 -0.287788
-0.0217646 -0.127498 -0.287813
0.0640453 -0.117324 -0.313481
0.0553703 -0.117324 -0.333302
0.0279334 -0.117318 -0.396067
0.20827 -0.130821 0.400198
0.208116 -0.124839 0.265418
0.208055 -0.122469 0.212037
0.208017 -0.121008 0.179109
0.196613 -0.117323 0.0702662
0.18767 -0.117321 0.0498098
0.158414 -0.120659 0.0580253
0.180238 -0.117317 0.0327521
0.168268 -0.117321 0.00550422
0.152164 -0.118205 -0.0114004
0.126375 -0.120824 -0.0114297
0.108537 -0.122635 -0.0114499
0.150374 -0.117318 -0.0354008
0.141399 -0.117321 -0.0558401
0.0833473 -0.122104 -0.0808939
0.0619545 -0.124276 -0.0809188
0.119025 -0.117319 -0.106966
0.107036 -0.117324 -0.134213
0.0346589 -0.123959 -0.150367
0.0890883 -0.117328 -0.1751
0.0801698 -0.117324 -0.19556
-0.00760531 -0.125162 -0.219833
0.0592887 -0.117322 -0.243278
0.0502937 -0.117326 -0.263718
-0.0441322 -0.125847 -0.287838
-0.0673374 -0.128203 -0.287865
0.0294142 -0.117324 -0.311435
0.0219554 -0.117324 -0.328477
-0.00635064 -0.117318 -0.393235
-0.0391998 -0.120132 -0.404985
-0.14971 -0.131355 -0.405114
0.208192 -0.123704 0.33123
0.208156 -0.122382 0.300477
0.208094 -0.120031 0.245769
0.208072 -0.119198 0.226393
0.19448 -0.117323 0.151839
0.185252 -0.11732 0.130706
0.173853 -0.118177 0.124569
0.15257 -0.12027 0.124544
0.171379 -0.11732 0.0990268
0.16366 -0.117321 0.0814352
0.135025 -0.119129 0.0579989
0.110696 -0.121521 0.0579716
0.142102 -0.117318 0.0321449
0.132828 -0.117321 0.011039
0.0901566 -0.120549 -0.0114707
0.0712079 -0.122412 -0.0114923
0.112813 -0.117318 -0.0347299
0.108178 -0.117319 -0.0452844
0.0397865 -0.122511 -0.0809447
0.0819767 -0.117319 -0.105122
0.0695926 -0.117324 -0.133262
0.00794864 -0.12265 -0.150398
-0.0058496 -0.124007 -0.150413
0.0510534 -0.117329 -0.175489
0.0387735 -0.117323 -0.203663
-0.0421278 -0.124583 -0.219873
-0.0601248 -0.126353 -0.219893
-0.0786403 -0.128173 -0.219914
0.0202668 -0.117323 -0.245899
0.0079062 -0.117326 -0.274052
-0.0914282 -0.126502 -0.287893
-0.185041 -0.136187 -0.276866
-0.00902855 -0.117324 -0.312775
0.207357 -0.0924275 -0.396524
-0.0919889 -0.121509 -0.405046
0.20821 -0.120298 0.346858
0.192174 -0.117327 0.238966
0.184196 -0.117328 0.220775
0.174653 -0.117325 0.198924
0.147983 -0.119656 0.19396
0.161876 -0.117328 0.169828
0.153941 -0.117324 0.151609
0.130519 -0.118424 0.124519
0.0998498 -0.121341 0.124483
0.131655 -0.117321 0.100642
0.123673 -0.117322 0.0824543
0.0853705 -0.119945 0.0579433
0.0589854 -0.122455 0.0579136
0.101378 -0.11732 0.0314967
0.0917891 -0.117323 0.00967497
0.0516641 -0.120258 -0.0115145
0.0314972 -0.122176 -0.0115374
0.0711081 -0.117318 -0.037651
0.061523 -0.117321 -0.0594759
0.0168005 -0.12068 -0.0809715
0.00498652 -0.121804 -0.0809852
-0.0193138 -0.124115 -0.0810135
0.0408161 -0.117319 -0.106789
-0.0343829 -0.122655 -0.150445
-0.049139 -0.124058 -0.150462
0.0104398 -0.117329 -0.175904
-0.0976971 -0.125783 -0.219936
-0.117319 -0.12765 -0.219958
-0.0198007 -0.117324 -0.24506
-0.0325634 -0.117325 -0.274172
-0.116456 -0.124735 -0.287921
-0.142478 -0.12721 -0.287951
-0.050077 -0.117323 -0.314206
0.207397 -0.0908636 -0.361247
0.207376 -0.0901244 -0.379029
-0.0818937 -0.117317 -0.386994
0.193033 -0.117328 0.339722
0.171115 -0.119065 0.332824
0.179809 -0.117331 0.309607
0.17158 -0.117328 0.290755
0.16335 -0.117326 0.271904
0.141811 -0.118962 0.263368
0.121727 -0.120807 0.263345
0.148481 -0.117328 0.238017
0.14025 -0.117326 0.219169
0.132019 -0.117324 0.200321
0.105431 -0.11951 0.193911
0.0906001 -0.120872 0.193894
0.118794 -0.117327 0.170204
0.110582 -0.117322 0.151345
0.0758382 -0.119434 0.124455
0.0593219 -0.120951 0.124436
0.0874903 -0.117322 0.0986061
0.0792277 -0.117323 0.0797797
0.0407732 -0.119977 0.0578931
0.0220383 -0.121698 0.057872
0.05945 -0.117321 0.0345674
0.0106765 -0.119947 -0.0115611
-0.0108305 -0.121923 -0.0115854
0.0281301 -0.117318 -0.0370118
0.0198615 -0.11732 -0.0558374
-0.0445544 -0.122227 -0.0810429
-0.0575442 -0.12342 -0.0810581
-0.00157607 -0.117319 -0.104808
-0.00654757 -0.117321 -0.116101
-0.0796885 -0.12266 -0.150497
-0.0955063 -0.124113 -0.150515
-0.0330243 -0.117329 -0.176348
-0.041236 -0.117326 -0.195192
-0.137533 -0.12518 -0.219982
-0.158365 -0.127094 -0.220005
-0.0626804 -0.117325 -0.244163
-0.0676539 -0.117327 -0.255459
-0.169552 -0.125385 -0.287982
-0.0923573 -0.117323 -0.31197
0.168997 -0.0895621 -0.404742
-0.123642 -0.117317 -0.383545
0.189445 -0.114273 0.35887
0.171818 -0.115836 0.358852
0.13383 -0.120103 0.381957
0.152945 -0.117325 0.354087
0.144382 -0.117326 0.334579
0.114336 -0.119921 0.332758
0.132378 -0.117331 0.307281
0.122144 -0.117328 0.283836
0.10101 -0.118405 0.263321
0.0723512 -0.120946 0.263288
0.101638 -0.117326 0.236979
0.0931088 -0.117324 0.217445
0.0598999 -0.119353 0.193858
0.0725803 -0.117325 0.170606
0.0640715 -0.11732 0.151062
0.0423807 -0.118209 0.124417
0.0249977 -0.11975 0.124397
0.0418253 -0.117322 0.100324
0.0332617 -0.117324 0.0808127
-0.00709426 -0.120011 0.0578394
-0.0272384 -0.121797 0.0578167
0.0127573 -0.117322 0.0339602
0.00418329 -0.117325 0.0144525
-0.0330578 -0.119616 -0.0116107
-0.0560426 -0.121654 -0.0116368
-0.0179733 -0.117318 -0.0363263
-0.0265423 -0.11732 -0.0558368
-0.0843002 -0.121462 -0.0810892
-0.0980819 -0.122684 -0.0811052
-0.048769 -0.11732 -0.106585
-0.0573552 -0.117323 -0.126092
-0.128293 -0.122665 -0.150552
-0.145291 -0.124172 -0.150571
-0.0796496 -0.11733 -0.176824
-0.088161 -0.117326 -0.196353
-0.179843 -0.124538 -0.22003
-0.108679 -0.117326 -0.2432
-0.117225 -0.117326 -0.262721
-0.185065 -0.121782 -0.302892
-0.16207 -0.116733 -0.38037
0.20827 -0.110056 0.400198
0.10194 -0.11846 0.38192
0.0820757 -0.120157 0.381897
0.102723 -0.117323 0.353342
0.0874722 -0.117855 0.332726
0.0736361 -0.119037 0.33271
0.0831358 -0.117331 0.308833
0.0742874 -0.117329 0.288558
0.0500365 -0.118454 0.263262
0.0269798 -0.120424 0.263236
0.0530316 -0.117324 0.239917
0.0441817 -0.117322 0.219646
0.0352957 -0.117323 0.1994
0.0194492 -0.118469 0.193812
-0.0060097 -0.120644 0.193783
0.0211147 -0.117322 0.166983
0.0158179 -0.117319 0.154814
-0.0111647 -0.118485 0.124355
-0.0299817 -0.120093 0.124333
-0.0493165 -0.121745 0.124311
-0.00906408 -0.117323 0.098122
-0.0161743 -0.117325 0.0819239
-0.0479913 -0.119141 0.0577934
-0.0693808 -0.120968 0.0577694
-0.0374609 -0.117324 0.033307
-0.0798239 -0.119261 -0.0116638
-0.104444 -0.121365 -0.0116917
-0.117083 -0.122445 -0.0117061
-0.067556 -0.117317 -0.0355891
-0.0764433 -0.117319 -0.0558378
-0.126494 -0.12065 -0.0811383
-0.156098 -0.123179 -0.0811727
-0.0977411 -0.117319 -0.104447
-0.106651 -0.117323 -0.124691
-0.180571 -0.122671 -0.150611
-0.129794 -0.11733 -0.177336
-0.159934 -0.117328 -0.246215
-0.168762 -0.117324 -0.266479
0.208246 -0.105128 0.378627
0.206595 -0.104553 0.358894
0.0706927 -0.117322 0.403056
0.0546873 -0.117875 0.381865
0.0262105 -0.120216 0.381832
0.048563 -0.117322 0.352539
0.030411 -0.118099 0.33266
7.28369e-05 -0.120593 0.332625
0.0281928 -0.117331 0.306294
0.0226762 -0.11733 0.293651
0.00985086 -0.117321 0.264123
-0.0132014 -0.119183 0.26319
-0.0299224 -0.120558 0.263171
-0.00122452 -0.117322 0.238872
-0.00858092 -0.11732 0.222019
-0.0414453 -0.119004 0.193742
-0.0598387 -0.120516 0.193721
-0.0325503 -0.11732 0.16729
-0.038053 -0.117317 0.154645
-0.0691906 -0.118784 0.124288
-0.0896269 -0.120464 0.124264
-0.0620986 -0.117324 0.0999556
-0.0713122 -0.117324 0.0789025
-0.0914366 -0.118217 0.0577447
-0.11419 -0.120087 0.057719
-0.125839 -0.121045 0.0577059
-0.0916195 -0.117326 0.0326026
-0.102659 -0.117324 0.007332
-0.143047 -0.119959 -0.0117356
-0.156385 -0.121055 -0.0117507
-0.183807 -0.123309 -0.0117818
-0.122876 -0.117317 -0.039002
-0.132102 -0.117318 -0.0600487
-0.184817 -0.120867 -0.0818801
-0.152407 -0.11732 -0.106349
-0.184916 -0.117762 -0.168308
-0.189296 -0.117321 -0.190544
-0.198506 -0.11732 -0.211596
-0.205896 -0.117321 -0.228433
-0.162098 -0.107382 -0.404324
0.012992 -0.117322 0.404268
-0.00342 -0.117842 0.381798
-0.0186902 -0.119048 0.38178
-0.0100162 -0.11732 0.35167
-0.0235351 -0.117728 0.332597
-0.0397006 -0.119005 0.332579
-0.029322 -0.117332 0.307933
-0.0369751 -0.117329 0.290388
-0.0464896 -0.117321 0.268424
-0.0734628 -0.119269 0.26312
-0.0916116 -0.120702 0.2631
-0.059907 -0.117319 0.237741
-0.0675782 -0.117319 0.220211
-0.0791458 -0.117324 0.193951
-0.0980637 -0.118809 0.193677
-0.117934 -0.120379 0.193654
-0.0905936 -0.117317 0.167623
-0.0982746 -0.117318 0.150099
-0.107929 -0.117323 0.128221
-0.132284 -0.119109 0.124215
-0.154558 -0.120869 0.124189
-0.165943 -0.121768 0.124176
-0.121386 -0.117326 0.0975588
-0.129038 -0.117323 0.0800195
-0.149704 -0.118183 0.0576791
-0.174355 -0.12013 0.0576514
-0.150201 -0.117328 0.0318407
-0.15975 -0.117324 0.0099121
-0.184756 -0.117854 -0.0318671
-0.186553 -0.117318 -0.0514558
-0.198077 -0.117318 -0.0777424
-0.207691 -0.11732 -0.0996453
-0.16207 -0.103998 -0.38037
-0.0516491 -0.117326 0.401037
-0.0664359 -0.117806 0.381725
-0.0999832 -0.120348 0.381686
-0.0715752 -0.117318 0.355293
-0.079653 -0.117325 0.337073
-0.0991499 -0.118652 0.332509
-0.126089 -0.120693 0.332478
-0.093727 -0.117332 0.305139
-0.101677 -0.117327 0.286829
-0.107625 -0.117321 0.27309
-0.12925 -0.118627 0.263056
-0.148774 -0.120107 0.263034
-0.123581 -0.117317 0.236514
-0.133619 -0.11732 0.213694
-0.148743 -0.1178 0.193619
-0.169984 -0.119409 0.193594
-0.153574 -0.117315 0.167985
-0.161622 -0.117319 0.149735
-0.183712 -0.117326 0.0995226
-0.191602 -0.117316 0.0811992
-0.201621 -0.117317 0.0583657
0.207397 -0.0723828 -0.361247
0.207376 -0.071794 -0.379029
0.207353 -0.071119 -0.399413
0.183624 -0.0939183 0.358862
-0.11992 -0.117327 0.402267
-0.13501 -0.117767 0.381646
-0.140697 -0.117316 0.35447
-0.163483 -0.118269 0.332435
-0.182846 -0.119674 0.332412
-0.161774 -0.117333 0.306872
-0.172126 -0.117324 0.282955
-0.180405 -0.117316 0.263823
-0.188781 -0.117318 0.244748
-0.201331 -0.117319 0.216128
0.168997 -0.0707069 -0.404742
-0.162094 -0.0948749 -0.400358
0.20827 -0.0892906 0.400198
-0.161169 -0.114901 0.399891
-0.161209 -0.113943 0.368265
-0.184382 -0.115252 0.358449
-0.203887 -0.116604 0.35842
0.208246 -0.0845144 0.378627
0.206595 -0.084052 0.358894
-0.184382 -0.104531 0.358449
0.171818 -0.0737137 0.358852
-0.16117 -0.0935243 0.399891
-0.1612 -0.0928994 0.374547
-0.203887 -0.0949102 0.35842
-0.16207 -0.0742844 -0.38037
-0.162094 -0.0737915 -0.400358
0.20827 -0.0685253 0.400198
0.207397 -0.050822 -0.361247
0.207376 -0.0504086 -0.379029
0.207353 -0.0499346 -0.399413
0.168997 -0.0518517 -0.404742
0.208246 -0.0639011 0.378627
0.206595 -0.0635515 0.358894
-0.184382 -0.0830889 0.358449
-0.161185 -0.0719055 0.387177
-0.203887 -0.0732165 0.35842
0.20827 -0.0519131 0.400198
-0.1612 -0.0663568 0.374547
-0.184382 -0.0616466 0.358449
0.195213 -0.0434363 0.358878
0.183624 -0.0438286 0.358862
0.207397 -0.0323413 -0.361247
0.207376 -0.0320782 -0.379029
0.207353 -0.0317766 -0.399413
-0.16207 -0.0445707 -0.38037
-0.162094 -0.0442749 -0.400358
-0.161185 -0.0506002 0.387177
-0.203887 -0.0515227 0.35842
0.168997 -0.029854 -0.404742
0.208246 -0.0350425 0.378627
-0.1612 -0.0451226 0.374547
0.20827 -0.0311479 0.400198
-0.184382 -0.0402043 0.358449
-0.161169 -0.0347376 0.399891
-0.1612 -0.0345055 0.374547
-0.203887 -0.0298289 0.35842
-0.16207 -0.0233465 -0.38037
0.208246 -0.0144293 0.378627
0.206595 -0.0143503 0.358894
0.183624 -0.0146095 0.358862
-0.184382 -0.018762 0.358449
0.207397 -0.0107804 -0.361247
0.207376 -0.0106927 -0.379029
0.207353 -0.0105922 -0.399413
0.168997 -0.0109989 -0.404742
-0.162094 -0.0147583 -0.400358
0.20827 -0.0103826 0.400198
-0.161169 -0.0133606 0.399891
-0.1612 -0.0132714 0.374547
-0.203887 -0.00813518 0.35842
-0.184382 0.0026803 0.358449
0.208246 0.00618396 0.378627
0.206595 0.00615013 0.358894
0.183624 0.0062612 0.358862
-0.16207 0.00636721 -0.38037
-0.162094 0.00632497 -0.400358
0.20827 0.0103826 0.400198
-0.161169 0.0133606 0.399891
-0.161201 0.0132714 0.374547
-0.203887 0.0135586 0.35842
0.207397 0.00770031 -0.361247
0.207376 0.00763766 -0.379029
0.207353 0.00756586 -0.399413
0.168997 0.00785633 -0.404742
-0.184382 0.0241226 0.358449
-0.161169 0.0347376 0.399891
-0.161201 0.0345055 0.374548
-0.194077 0.0350468 0.358434
0.20827 0.0311479 0.400198
0.208246 0.0350425 0.378627
0.206595 0.0348508 0.358894
0.183624 0.0354802 0.358862
-0.161169 0.0454261 0.399891
-0.161201 0.0451226 0.374548
-0.16207 0.036081 -0.38037
-0.162094 0.0358416 -0.400358
0.207397 0.0292612 -0.361247
0.207376 0.0290231 -0.379029
0.207353 0.0287502 -0.399413
0.168997 0.029854 -0.404742
-0.184382 0.056286 0.358449
-0.203887 0.0569461 0.35842
0.20827 0.0477601 0.400198
-0.161169 0.066803 0.399891
-0.161201 0.0663568 0.374548
0.208246 0.0556558 0.378627
0.206595 0.0553513 0.358894
0.183624 0.056351 0.358862
-0.184382 0.0777283 0.358449
-0.203887 0.0786399 0.35842
0.207397 0.0477419 -0.361247
0.168997 0.0487092 -0.404742
-0.16207 0.0657948 -0.38037
-0.162094 0.0653582 -0.400358
0.20827 0.0685254 0.400198
-0.161201 0.087591 0.374548
0.207376 0.0504086 -0.379029
0.207353 0.0499346 -0.399413
-0.161169 0.0935243 0.399891
0.208246 0.0762691 0.378627
0.206595 0.0758518 0.358894
-0.184382 0.0991706 0.358449
-0.203887 0.100334 0.35842
0.165834 0.0825144 0.358847
-0.161201 0.108825 0.374548
-0.162094 0.0864415 -0.400358
0.20827 0.0892906 0.400198
-0.161169 0.114901 0.399891
-0.194077 0.115924 0.358434
0.168997 0.0675644 -0.404742
0.189445 0.0934961 0.35887
0.207397 0.0693027 -0.361247
0.207376 0.0687389 -0.379029
0.207353 0.0680927 -0.399413
-0.16207 0.0955085 -0.38037
0.208234 0.0965292 0.36796
-0.161169 0.12559 0.399891
-0.174786 0.125246 0.358456
0.171818 0.103199 0.358852
-0.194077 0.137492 0.358434
0.20827 0.110056 0.400198
0.171818 0.115836 0.358852
-0.161169 0.146967 0.399891
-0.161217 0.145499 0.362003
-0.16207 0.116733 -0.38037
-0.162094 0.115958 -0.400358
-0.184897 0.152079 0.339949
-0.193486 0.152083 0.320439
-0.202074 0.152087 0.300928
0.207397 0.0877834 -0.361247
0.168997 0.0895621 -0.404742
0.189445 0.122584 0.35887
-0.101905 0.15209 0.401667
-0.117305 0.152722 0.381666
-0.13501 0.154406 0.381646
-0.184378 0.155551 0.296401
-0.184392 0.155045 0.284243
-0.18442 0.154044 0.260162
-0.184441 0.153302 0.242305
-0.184468 0.152323 0.218761
-0.190687 0.152082 0.198777
-0.198984 0.152086 0.179925
-0.207282 0.15209 0.161071
0.207376 0.0901244 -0.379029
0.207353 0.0892771 -0.399413
0.208246 0.125741 0.378627
0.206595 0.125053 0.358894
-0.048244 0.15209 0.404525
-0.0664359 0.152897 0.381725
-0.0999832 0.156196 0.381686
-0.184307 0.163488 0.3584
-0.184515 0.155747 0.178274
-0.184541 0.15477 0.155538
-0.184554 0.154286 0.144277
-0.18458 0.153327 0.121964
-0.184605 0.15238 0.0999272
-0.190077 0.152082 0.0805347
-0.198103 0.152086 0.0622977
0.20827 0.130821 0.400198
6.34193e-05 0.152091 0.402791
-0.0186902 0.153061 0.38178
-0.144009 0.165788 0.381635
-0.161217 0.166663 0.362003
-0.184343 0.167461 0.327146
-0.184655 0.155455 0.0566595
-0.18468 0.154513 0.0354193
-0.184692 0.154046 0.0248955
-0.184716 0.15312 0.00403771
-0.18474 0.152205 -0.016571
-0.195335 0.152086 -0.0434462
-0.201163 0.152088 -0.0566922
0.183624 0.13566 0.358862
0.0453988 0.152092 0.401165
0.0334355 0.152459 0.381841
0.011544 0.154753 0.381815
-0.0501882 0.161221 0.381744
-0.184495 0.166749 0.195516
-0.184775 0.155642 -0.0470263
-0.184798 0.154726 -0.0670311
-0.184821 0.153821 -0.0868017
-0.184843 0.152926 -0.106342
-0.185205 0.152081 -0.125563
-0.198386 0.152088 -0.155522
0.0898576 0.152092 0.403781
0.0753272 0.152626 0.381889
0.0616338 0.154105 0.381873
-0.117305 0.17343 0.381666
-0.161192 0.178134 0.380851
-0.184357 0.17751 0.314788
-0.184392 0.176068 0.284243
-0.18442 0.174932 0.260162
-0.184441 0.174089 0.242305
-0.184468 0.172977 0.218761
-0.184899 0.155372 -0.154214
-0.18492 0.154486 -0.17298
-0.184937 0.153828 -0.186915
-0.184958 0.15296 -0.205311
-0.190294 0.152084 -0.235993
-0.203082 0.15209 -0.265062
0.124657 0.152094 0.390123
0.10194 0.154222 0.38192
-0.0664359 0.172949 0.381725
-0.0999832 0.17668 0.381686
-0.184307 0.184929 0.3584
-0.184508 0.176451 0.184003
-0.184541 0.175067 0.155538
-0.184554 0.17452 0.144277
-0.18458 0.173435 0.121964
-0.184605 0.172364 0.099927
-0.184631 0.171306 0.0781604
-0.184728 0.1672 -0.00629747
-0.18505 0.153623 -0.285589
0.168997 0.108417 -0.404742
-0.16207 0.146446 -0.38037
-0.162094 0.145475 -0.400358
0.208246 0.146354 0.378627
0.206595 0.145554 0.358894
-0.00342 0.17075 0.381798
-0.0264431 0.173385 0.381771
-0.13501 0.18581 0.381646
-0.18442 0.185375 0.260162
-0.184655 0.175196 0.0566595
-0.18468 0.174133 0.0354193
-0.184692 0.173607 0.0248955
-0.184752 0.171022 -0.0267832
-0.184843 0.167042 -0.106342
0.207397 0.109344 -0.361247
0.207376 0.108455 -0.379029
0.202126 0.107768 -0.404702
0.20827 0.151586 0.400198
0.0820757 0.1655 0.381897
0.040589 0.170381 0.381849
0.0189139 0.172932 0.381824
-0.0501882 0.181063 0.381744
-0.161217 0.193117 0.362003
-0.184307 0.195649 0.3584
-0.184328 0.194682 0.339586
-0.184482 0.187868 0.207101
-0.184798 0.173769 -0.0670311
-0.184821 0.172753 -0.0868017
-0.184866 0.170754 -0.125657
-0.184958 0.166658 -0.205311
-0.138699 0.152085 -0.382301
0.208198 0.152369 0.336421
0.201751 0.152085 0.316332
0.192006 0.152083 0.294059
-0.18261 0.198437 0.313706
-0.184392 0.197091 0.284243
-0.184441 0.194875 0.242305
-0.18492 0.172932 -0.17298
-0.184989 0.169786 -0.23252
-0.18506 0.166523 -0.294264
-0.105449 0.152084 -0.385048
0.208151 0.154208 0.295415
0.208128 0.153119 0.275346
0.207871 0.152085 0.255752
0.203117 0.152086 0.244911
0.190462 0.152084 0.215986
-0.0664359 0.193001 0.381725
-0.0999832 0.197165 0.381686
-0.116017 0.198433 0.368399
-0.124296 0.198436 0.349545
-0.132558 0.198436 0.33068
-0.140821 0.198436 0.311815
-0.15115 0.198436 0.288234
-0.159413 0.198436 0.269369
-0.184508 0.196909 0.184003
-0.184541 0.195365 0.155538
-0.184554 0.194754 0.144277
-0.18458 0.193544 0.121964
-0.184605 0.192348 0.099927
-0.184631 0.191167 0.0781604
-0.184716 0.187146 0.00403771
-0.184775 0.184376 -0.0470263
-0.184937 0.176788 -0.186915
-0.185005 0.173585 -0.245953
-0.0739264 0.152084 -0.387652
-0.0919896 0.153381 -0.405046
0.20806 0.153838 0.216806
0.208033 0.15252 0.193124
0.199789 0.152087 0.166534
0.190537 0.152085 0.14539
0.185912 0.152085 0.134818
-0.0971227 0.198436 0.319214
-0.105176 0.198436 0.300827
-0.11323 0.198435 0.282439
-0.123297 0.198435 0.259455
-0.13135 0.198435 0.241068
-0.141417 0.198435 0.218084
-0.149471 0.198435 0.199696
-0.157525 0.198435 0.181309
-0.18468 0.193754 0.0354193
-0.184692 0.193168 0.0248955
-0.18474 0.19086 -0.016571
-0.184821 0.186951 -0.0868017
-0.184843 0.185864 -0.106342
-0.184899 0.1832 -0.154214
-0.0440005 0.152083 -0.390124
0.20827 0.168199 0.400198
0.208234 0.166359 0.36796
0.20821 0.165154 0.346858
0.20798 0.153747 0.146958
0.207965 0.152974 0.13341
0.202648 0.152087 0.10577
0.193617 0.152087 0.0851534
0.189106 0.152086 0.0748426
-0.096819 0.198435 0.232098
-0.106637 0.198435 0.209681
-0.114492 0.198435 0.191748
-0.124311 0.198435 0.169331
-0.132165 0.198435 0.151398
-0.141984 0.198435 0.128982
-0.149839 0.198435 0.111048
-0.159657 0.198435 0.0886317
-0.171439 0.198435 0.0617317
-0.184798 0.192813 -0.0670311
-0.184866 0.189467 -0.125657
-0.18492 0.186767 -0.17298
-0.0155528 0.152083 -0.392475
-0.149711 0.168885 -0.405114
0.208186 0.168016 0.326059
0.208151 0.166224 0.295415
0.208127 0.165051 0.275347
0.207919 0.154421 0.0935717
0.207884 0.152657 0.0633954
0.203903 0.152086 0.044579
0.195081 0.152088 0.0244643
0.186275 0.152087 0.00434008
-0.0984467 0.198435 0.144805
-0.111861 0.198435 0.114178
-0.125276 0.198435 0.0835513
-0.136774 0.198435 0.0572996
-0.142523 0.198435 0.0441738
-0.155938 0.198435 0.0135469
-0.184979 0.188424 -0.223501
-0.185015 0.186591 -0.254847
-0.18504 0.185303 -0.276866
0.207397 0.127825 -0.361247
0.168997 0.130415 -0.404742
0.0115167 0.152083 -0.394711
-0.0919946 0.165333 -0.405046
0.208105 0.167843 0.255559
0.208071 0.166096 0.226393
0.207808 0.152356 -0.00305516
0.200789 0.152087 -0.0235518
0.192176 0.152088 -0.043195
-0.0981264 0.198434 0.065893
-0.107483 0.198434 0.0445314
-0.120582 0.198434 0.0146251
-0.129938 0.198434 -0.00673643
-0.143037 0.198434 -0.0366427
-0.156136 0.198434 -0.066549
-0.184899 0.197113 -0.154214
-0.184937 0.195155 -0.186915
0.207376 0.12984 -0.379029
0.207353 0.128619 -0.399413
0.0373061 0.152085 -0.396842
0.208001 0.166256 0.165237
0.20798 0.165135 0.146958
0.207771 0.153981 -0.0350277
0.207643 0.152085 -0.0661638
0.199222 0.152087 -0.0853526
0.186605 0.152088 -0.114143
-0.097821 0.198434 -0.00939062
-0.106962 0.198434 -0.0302611
-0.116103 0.198434 -0.0511316
-0.123416 0.198434 -0.067828
-0.132558 0.198434 -0.0886985
-0.141699 0.198434 -0.109569
-0.15084 0.198434 -0.130439
-0.159981 0.198434 -0.15131
-0.18507 0.192638 -0.302891
0.0619099 0.152086 -0.398874
-0.0392066 0.165898 -0.404984
0.208049 0.172714 0.207284
0.207954 0.16752 0.124454
0.207919 0.165584 0.0935717
0.207679 0.15249 -0.115254
0.197725 0.152088 -0.144376
0.189496 0.15209 -0.163136
-0.0975289 0.198433 -0.0812905
-0.104678 0.198433 -0.0976117
-0.113613 0.198433 -0.118013
-0.122549 0.198433 -0.138415
-0.131485 0.198433 -0.158816
-0.140421 0.198433 -0.179217
-0.149357 0.198433 -0.199619
-0.158293 0.198433 -0.22002
-0.167228 0.198433 -0.240422
0.0854086 0.152087 -0.400816
0.20827 0.188964 0.400198
0.208221 0.186218 0.357371
0.208033 0.175688 0.193124
0.20785 0.165479 0.0339009
0.207633 0.153351 -0.155267
0.203004 0.152086 -0.185516
0.190927 0.15209 -0.213037
0.185567 0.15209 -0.225271
-0.0972502 0.198433 -0.15003
-0.10599 0.198433 -0.169983
-0.114729 0.198433 -0.189936
-0.123468 0.198433 -0.209889
-0.132208 0.198433 -0.229842
-0.140947 0.198433 -0.249795
-0.149687 0.198433 -0.269748
-0.158426 0.198433 -0.289701
0.107875 0.152089 -0.402672
-0.149711 0.189735 -0.405114
0.208197 0.188938 0.336421
0.20815 0.186251 0.295416
0.207874 0.170492 0.0548998
0.207785 0.165379 -0.0231327
0.207565 0.152836 -0.214578
0.194925 0.152089 -0.254808
0.187047 0.152091 -0.272762
-0.0986948 0.198433 -0.219716
-0.107246 0.198433 -0.23924
-0.115798 0.198433 -0.258764
-0.124349 0.198433 -0.278288
-0.132901 0.198433 -0.297812
0.129375 0.15209 -0.404448
0.00925553 0.170074 -0.404928
-0.0919946 0.185253 -0.405046
0.208245 0.195826 0.378628
0.208104 0.187589 0.25556
0.208082 0.186283 0.236048
0.207808 0.17028 -0.00305516
0.20753 0.154099 -0.244803
0.207507 0.15278 -0.264521
0.198755 0.152087 -0.294819
0.189757 0.15209 -0.315325
-0.0984058 0.198433 -0.282646
-0.108452 0.198433 -0.305582
0.168997 0.14927 -0.404742
0.208173 0.195653 0.315772
0.208127 0.192891 0.275347
0.208001 0.185366 0.165237
0.207735 0.169549 -0.0662068
0.207449 0.152513 -0.315489
0.197391 0.152088 -0.344657
0.207397 0.149386 -0.361247
0.207376 0.148171 -0.379029
0.0539049 0.170408 -0.404876
0.20806 0.192785 0.216806
0.207771 0.175219 -0.0350277
0.207679 0.169624 -0.115254
0.207353 0.149804 -0.399413
0.20827 0.209729 0.400198
0.208209 0.205934 0.346859
0.207954 0.190108 0.124454
0.207884 0.185763 0.0633955
0.207713 0.175182 -0.0853036
0.207613 0.16894 -0.173022
-0.0392092 0.192595 -0.404984
0.20815 0.206278 0.295416
0.20798 0.195505 0.146959
0.207831 0.186099 0.0173443
0.207645 0.174356 -0.144485
0.207553 0.168532 -0.224741
0.207507 0.165645 -0.264521
0.133431 0.167745 -0.404783
0.0951715 0.174098 -0.404828
0.00925124 0.188363 -0.404928
-0.0919946 0.205172 -0.405046
0.208081 0.205892 0.236048
0.208032 0.202717 0.193125
0.207918 0.195352 0.0935719
0.207808 0.188204 -0.00305501
0.207588 0.17408 -0.193984
0.207449 0.165091 -0.315489
0.207794 0.190878 -0.0151397
0.20753 0.173565 -0.244803
0.207485 0.170617 -0.283905
0.168995 0.168126 -0.404742
0.0538977 0.187977 -0.404875
0.208011 0.209007 0.17447
0.207964 0.205854 0.133411
0.207735 0.190524 -0.0662067
0.207658 0.185348 -0.133607
0.207403 0.168327 -0.355255
0.207933 0.207543 0.106719
0.207762 0.195843 -0.0428956
0.207463 0.175505 -0.302962
0.20737 0.169098 -0.384893
0.202126 0.168483 -0.404702
0.20785 0.205486 0.0339012
0.207705 0.195394 -0.0928602
0.207613 0.189012 -0.173022
0.207565 0.185703 -0.214578
0.207417 0.175466 -0.343171
0.0951635 0.194382 -0.404827
0.207807 0.209713 -0.00305477
0.207793 0.208717 -0.0151395
0.207588 0.193975 -0.193984
0.207542 0.190609 -0.234815
0.133422 0.190548 -0.404782
0.207735 0.208003 -0.0662065
0.207496 0.190561 -0.274254
0.0538977 0.209059 -0.404875
0.207658 0.205753 -0.133606
0.207519 0.19543 -0.254705
0.207438 0.189455 -0.324794
0.168986 0.190125 -0.404741
0.207403 0.189947 -0.355255
0.207612 0.209084 -0.173022
0.207565 0.205424 -0.214578
0.207474 0.198476 -0.293474
0.20737 0.190425 -0.384893
0.202126 0.189733 -0.404702
0.207496 0.209777 -0.274254
0.207417 0.203416 -0.343171
0.207438 0.208244 -0.324794
0.16898 0.208982 -0.404741
0.207403 0.208478 -0.355255
0.20737 0.208706 -0.384893
0.202124 0.207948 -0.404702
