ply
format ascii 1.0
comment Created by Open3D
element vertex 867
property double x
property double y
property double z
end_header
0.113494 -0.276208 -0.240387
0.0916115 -0.274661 -0.243769
0.11352 -0.266705 -0.221325
0.0749831 -0.274462 -0.243791
0.113498 -0.255935 -0.237694
0.0488231 -0.27415 -0.243827
0.030515 -0.273932 -0.243852
0.0114629 -0.273705 -0.243878
0.0916115 -0.24547 -0.243769
-0.00837952 -0.273468 -0.243905
0.113494 -0.237305 -0.240387
0.0749831 -0.247422 -0.243791
-0.0290623 -0.276241 -0.243933
0.113517 -0.237355 -0.224078
-0.0506399 -0.276049 -0.243963
0.0916115 -0.234855 -0.243769
0.0488231 -0.246318 -0.243827
-0.073172 -0.275848 -0.243994
0.030515 -0.245545 -0.243852
-0.0967233 -0.275639 -0.244026
0.0933727 -0.227482 -0.21942
0.0114629 -0.244741 -0.243878
-0.0290623 -0.255108 -0.243933
0.0721672 -0.227476 -0.237287
0.0397567 -0.234693 -0.243839
-0.00837952 -0.246861 -0.243905
-0.121364 -0.275419 -0.24406
0.0714763 -0.22748 -0.220029
-0.0506399 -0.254458 -0.243963
-0.073172 -0.256933 -0.243994
-0.147173 -0.27519 -0.244095
0.114135 -0.275832 0.224802
0.0484924 -0.227478 -0.220669
0.11416 -0.275104 0.243755
-0.0967258 -0.256296 -0.244025
-0.174233 -0.274949 -0.244132
0.0858282 -0.274982 0.219627
0.0243373 -0.227477 -0.221342
-0.0290706 -0.236996 -0.243931
-0.188262 -0.274824 -0.244151
0.0658287 -0.276171 0.219599
-0.12137 -0.25563 -0.244058
0.11416 -0.264722 0.243755
-0.0010801 -0.227475 -0.22205
-0.011682 -0.227476 -0.239938
0.0451258 -0.273775 0.219571
0.0344989 -0.276204 0.219556
-0.147179 -0.254932 -0.244093
0.114129 -0.254649 0.220121
-0.029076 -0.224921 -0.24393
-0.073184 -0.234868 -0.243991
0.012669 -0.273745 0.219526
-0.0506536 -0.226703 -0.243959
-0.0967342 -0.236955 -0.244023
-0.174236 -0.254199 -0.244131
-0.0157527 -0.276258 0.219487
0.0658287 -0.25479 0.219599
-0.0204203 -0.2168 -0.222025
-0.121373 -0.23584 -0.244057
0.0858282 -0.246958 0.219627
-0.0455188 -0.274989 0.219446
-0.188263 -0.246817 -0.244151
0.0344989 -0.254254 0.219556
-0.0157527 -0.264826 0.219487
-0.0703648 -0.276316 0.219411
-0.147179 -0.234673 -0.244093
0.11416 -0.237039 0.243755
0.114135 -0.234714 0.224802
0.0451258 -0.244766 0.219571
-0.00422794 -0.254851 0.219503
-0.0961877 -0.273641 0.219376
0.0759141 -0.234942 0.219613
-0.0703648 -0.264389 0.219411
-0.116231 -0.273622 0.219348
-0.0506536 -0.205112 -0.243959
-0.14943 -0.227482 -0.223265
-0.136884 -0.273602 0.21932
-0.0204353 -0.197167 -0.234299
-0.16605 -0.227483 -0.222213
-0.176636 -0.227478 -0.240129
0.0915852 -0.227478 0.242626
-0.158174 -0.273582 0.219291
0.0727663 -0.227479 0.241814
0.0236811 -0.234384 0.219542
-0.0274931 -0.244221 0.219471
-0.187604 -0.274997 0.21925
-0.200862 -0.227486 -0.220009
0.0533449 -0.22748 0.240976
-0.0455196 -0.243785 0.219446
-0.102804 -0.254623 0.219367
-0.0617963 -0.194883 -0.243974
0.0314086 -0.227481 0.236931
-0.0703658 -0.24451 0.219412
-0.123048 -0.254318 0.21934
0.0144905 -0.227482 0.242447
0.00109023 -0.227482 0.219825
-0.14391 -0.254003 0.219312
-0.0397493 -0.184609 -0.243944
-0.00689006 -0.227483 0.241577
-0.172737 -0.250711 0.219271
-0.187604 -0.253344 0.21925
-0.0204203 -0.177382 -0.222025
-0.0204428 -0.17546 -0.240369
-0.0455217 -0.224283 0.219448
-0.102806 -0.234254 0.219369
-0.0198073 -0.216331 0.222905
-0.123049 -0.233642 0.219341
-0.0197836 -0.214481 0.242805
-0.097972 -0.227473 0.241258
-0.123374 -0.227474 0.240285
-0.029076 -0.164539 -0.24393
-0.0198073 -0.204845 0.222905
-0.147558 -0.227473 0.242926
-0.158406 -0.227479 0.224672
-0.0617936 -0.166819 -0.243975
-0.0455217 -0.20478 0.219448
-0.174872 -0.227474 0.241947
-0.188142 -0.227481 0.219627
-0.0204203 -0.156156 -0.222025
-0.0197836 -0.187429 0.242805
-0.0397493 -0.144941 -0.243944
-0.0617902 -0.144992 -0.243976
-0.0198073 -0.174214 0.222905
-0.0455217 -0.177476 0.219448
-0.0204279 -0.137462 -0.228184
-0.0197836 -0.164242 0.242805
-0.0506536 -0.124918 -0.243959
-0.0455217 -0.154073 0.219448
-0.0198073 -0.147412 0.222905
-0.0204203 -0.116738 -0.222025
-0.0204428 -0.115473 -0.240369
-0.0197836 -0.144919 0.242805
-0.0455217 -0.13457 0.219448
-0.0617946 -0.104457 -0.243975
-0.0198073 -0.124438 0.222905
-0.0204428 -0.0974775 -0.240369
-0.0204203 -0.0955132 -0.222025
-0.0397493 -0.0961186 -0.243944
-0.0197836 -0.114003 0.242805
-0.0455217 -0.107266 0.219448
-0.0506482 -0.0848202 -0.243961
-0.0204203 -0.0773202 -0.222025
-0.0204428 -0.0764823 -0.240369
-0.0197836 -0.0946806 0.242805
-0.0198073 -0.0938073 0.222905
-0.0455211 -0.0838622 0.219448
-0.0204279 -0.0649544 -0.228184
-0.0198073 -0.074663 0.222905
-0.0397493 -0.0564506 -0.243944
-0.0197895 -0.067472 0.237795
-0.0617903 -0.0545668 -0.243976
-0.0455188 -0.0643592 0.219446
-0.0204428 -0.0374914 -0.240369
-0.0197836 -0.0444419 0.242805
-0.0198073 -0.044032 0.222905
-0.0455161 -0.0448563 0.219443
-0.0204203 -0.0348699 -0.222025
-0.0397433 -0.0350907 -0.243946
-0.0617793 -0.0265035 -0.243979
-0.0198073 -0.0248877 0.222905
-0.0204428 -0.0164962 -0.240369
-0.0397443 -0.0167825 -0.243946
-0.0197836 -0.0173903 0.242805
0.13179 -0.0131572 -0.0254554
0.13266 -0.0129181 -0.0535921
0.133294 -0.0127444 -0.0740342
0.133915 -0.0125752 -0.0939354
0.14007 -0.0109096 0.0961691
0.140188 -0.0108322 0.084047
0.140383 -0.0107056 0.0642215
0.140572 -0.010582 0.0448539
0.140867 -0.0103899 0.0147797
0.141152 -0.0102047 -0.0142223
0.105272 -0.0100626 -0.0974165
0.14649 -0.00706289 -0.0556216
0.146552 -0.00697329 -0.0754859
0.0931296 -0.00727944 -0.0974328
0.135219 -0.0064166 -0.218682
0.13896 -0.00500906 0.21817
0.149328 -0.00428372 -0.0337533
0.0743236 -0.00445306 -0.0974587
0.122805 -0.00390461 -0.219339
-0.0204203 -0.00454825 -0.222025
-0.029076 -0.00452862 -0.24393
-0.0506428 -0.00462654 -0.243962
0.12076 -0.00169724 0.218144
0.133473 -0.00138104 -0.112747
0.133498 -0.00136982 -0.125212
0.133553 -0.00134522 -0.15253
0.133594 -0.00132669 -0.173109
0.133634 -0.00130866 -0.193128
0.141558 0.00165104 0.201772
0.141491 0.00163109 0.179421
0.141438 0.00161547 0.161926
0.141373 0.00159636 0.140523
0.141309 0.0015777 0.119621
0.155831 0.00459972 0.0946077
0.155774 0.00454692 0.0748978
0.155684 0.00446491 0.0442863
0.155599 0.00438581 0.0147593
0.155515 0.00430946 -0.0137396
0.145452 0.00413007 -0.0973584
0.197882 0.0119592 0.360839
0.197768 0.0118297 0.340032
0.197656 0.011703 0.319672
0.197547 0.011579 0.299742
0.19744 0.0114575 0.280231
0.197335 0.0113386 0.261125
0.197233 0.0112221 0.242411
0.197108 0.0110799 0.219552
0.19701 0.0109686 0.201678
0.196891 0.0108327 0.179834
0.196774 0.0107001 0.158525
0.196683 0.0105963 0.14185
0.196572 0.0104693 0.121455
0.196463 0.0103454 0.101544
0.196356 0.0102244 0.0820978
0.196232 0.0100828 0.0593551
0.196131 0.00996785 0.0408784
0.157264 0.00979303 -0.0525575
0.157224 0.00971051 -0.0657612
0.147189 0.00889449 -0.212602
0.197862 0.0126343 0.0213289
0.197722 0.0124661 0.000267923
0.197586 0.0123024 -0.0202395
0.197454 0.0121428 -0.0402152
0.197325 0.0119874 -0.0596794
0.197199 0.0118359 -0.0786515
0.197056 0.0116639 -0.100188
0.196937 0.0115204 -0.118156
0.196802 0.0113574 -0.138568
0.19667 0.0111989 -0.158411
0.196542 0.0110448 -0.177707
0.1964 0.0108738 -0.199119
0.196262 0.010708 -0.219879
0.196145 0.010567 -0.237531
0.195999 0.0103911 -0.259555
0.195874 0.0102396 -0.278526
0.195736 0.0100744 -0.299217
0.195604 0.00991438 -0.319251
0.196886 0.0119013 -0.338994
0.19674 0.0117185 -0.357757
0.190928 0.0292044 0.359622
0.191414 0.0288624 0.338029
0.191888 0.0285284 0.316936
0.192351 0.0282021 0.296326
0.192804 0.0278831 0.276182
0.193247 0.0275713 0.256489
0.194208 0.0268945 0.21375
0.194823 0.0264615 0.186404
0.19532 0.0261111 0.164279
0.195995 0.025636 0.134271
0.184382 0.0183092 -0.365588
0.188479 0.030726 0.243221
0.191764 0.0284276 0.113971
0.192281 0.0280657 0.0936154
0.192785 0.0277128 0.0737721
0.195649 0.0257088 -0.0389248
0.196157 0.0253539 -0.0588805
0.188716 0.0303979 0.0545902
0.189571 0.0298029 0.024462
0.190393 0.0292308 -0.00450945
0.190693 0.0290218 -0.015089
0.192499 0.027765 -0.078733
0.188908 0.0301321 -0.0982235
0.189585 0.0296631 -0.119802
0.190149 0.0292726 -0.13777
0.190788 0.0288298 -0.158145
0.191408 0.0284002 -0.177912
0.192094 0.0279247 -0.199793
0.192676 0.0275215 -0.218347
0.168898 0.0438377 0.362112
0.169656 0.043314 0.340047
0.170397 0.0428026 0.318504
0.17112 0.0423032 0.297463
0.171827 0.0418152 0.276908
0.172517 0.0413384 0.256821
0.174015 0.0403044 0.213259
0.174657 0.0398613 0.19459
0.175594 0.0392145 0.167344
0.176051 0.0388989 0.15405
0.189597 0.0295467 -0.239942
0.190283 0.0290728 -0.259906
0.190948 0.0286139 -0.27924
0.191592 0.0281692 -0.297972
0.192293 0.0276852 -0.318363
0.167717 0.0445141 0.243294
0.172168 0.0414509 0.124386
0.174022 0.040175 0.0748551
0.179206 0.0366067 -0.0636622
0.189526 0.0295038 -0.339389
0.168051 0.0441665 0.103801
0.170332 0.0426006 0.0474814
0.171261 0.041963 0.0245488
0.172457 0.041142 -0.00498095
0.173607 0.0403524 -0.0333774
0.162297 0.0322028 -0.365618
0.151827 0.0551748 0.36263
0.17174 0.0415375 -0.0939642
0.146989 0.0583699 0.34215
0.148018 0.0576665 0.320136
0.149022 0.0569799 0.298646
0.150245 0.0561443 0.272493
0.151432 0.0553328 0.247096
0.152358 0.0547003 0.227301
0.153038 0.0542354 0.212749
0.153927 0.0536276 0.193727
0.155224 0.0527411 0.165981
0.156273 0.0520244 0.14355
0.168294 0.0438089 -0.113574
0.169304 0.0431182 -0.135193
0.170694 0.0421683 -0.164922
0.171631 0.0415279 -0.184964
0.154486 0.0531498 0.0759827
0.161535 0.0483408 -0.0652278
0.168393 0.0436624 -0.202601
0.16974 0.0427432 -0.229594
0.17065 0.0421224 -0.247822
0.171658 0.0414347 -0.268017
0.14487 0.0596149 0.162988
0.147465 0.0578474 0.114137
0.150553 0.0557439 0.0560005
0.151186 0.0553129 0.0440885
0.152219 0.0546092 0.0246391
0.168868 0.0432694 -0.28878
0.169876 0.0425826 -0.307762
0.170972 0.0418356 -0.328409
0.172031 0.0411143 -0.348345
0.128471 0.0706836 0.359496
0.130069 0.0695964 0.331128
0.132226 0.0681292 0.292849
0.134004 0.06692 0.2613
0.149044 0.0566904 -0.00559649
0.125353 0.07271 0.310791
0.130047 0.0695218 0.232062
0.132386 0.0679331 0.192831
0.1357 0.0656817 0.137236
0.145964 0.0587096 -0.0349312
0.146599 0.058278 -0.0455889
0.149445 0.056345 -0.0933217
0.150607 0.0555553 -0.112823
0.151365 0.055041 -0.125523
0.125874 0.0722717 0.208397
0.131154 0.0686892 0.12447
0.134131 0.0666696 0.0771577
0.134912 0.0661392 0.0647333
0.148676 0.056801 -0.15403
0.149989 0.0559097 -0.17491
0.151262 0.055046 -0.195143
0.154362 0.0529429 -0.244413
0.150742 0.0485009 -0.365636
0.110191 0.0828241 0.359991
0.111723 0.0817861 0.336872
0.113584 0.0805246 0.308775
0.114673 0.0797862 0.292329
0.12303 0.0741221 0.166178
0.124561 0.0730844 0.143066
0.131085 0.0686628 0.0445856
0.1324 0.0677714 0.0247331
0.138951 0.0633318 -0.0741473
0.148879 0.0566025 -0.224023
0.15151 0.0548194 -0.263737
0.110083 0.0828169 0.272362
0.111913 0.0815778 0.246074
0.114384 0.0799042 0.210565
0.121837 0.074858 0.103505
0.129467 0.0696913 -0.00611123
0.132778 0.0674499 -0.0536664
0.148718 0.0566567 -0.282656
0.150253 0.0556165 -0.304725
0.151572 0.0547234 -0.323673
0.107435 0.0845342 0.226804
0.130964 0.0686164 -0.0954716
0.132413 0.0676367 -0.115307
0.149067 0.0563692 -0.343432
0.126477 0.0570682 -0.365668
0.0913346 0.0953475 0.360502
0.0944467 0.0932438 0.319791
0.104523 0.086433 0.187987
0.106 0.0854346 0.168665
0.113227 0.0805495 0.0741271
0.120822 0.0754159 -0.0252196
0.129237 0.0697277 -0.135299
0.13138 0.0682793 -0.163329
0.132304 0.0676547 -0.175417
0.0866479 0.0984406 0.33901
0.0898431 0.0962825 0.299029
0.0916067 0.0950913 0.27696
0.0945902 0.093076 0.239626
0.102458 0.087762 0.141179
0.104646 0.0862841 0.1138
0.109476 0.083022 0.0533662
0.111756 0.0814817 0.024831
0.118971 0.0766087 -0.0654463
0.129948 0.0691944 -0.202802
0.131537 0.0681212 -0.222685
0.133293 0.0669347 -0.244666
0.087106 0.0980621 0.256852
0.0943207 0.0931925 0.17037
0.108766 0.0834428 -0.00278127
0.130597 0.0687073 -0.264479
0.132109 0.0676869 -0.282601
0.113745 0.065116 -0.365685
0.0718741 0.108272 0.361029
0.0840209 0.100079 0.22136
0.111472 0.0815629 -0.0942831
0.129708 0.0692613 -0.303991
0.1314 0.0681198 -0.323451
0.0672416 0.111329 0.339191
0.0693629 0.109899 0.315764
0.0704034 0.109198 0.304275
0.0744354 0.10648 0.259747
0.0796624 0.102956 0.20202
0.0845546 0.0996582 0.147992
0.089947 0.0960231 0.0884405
0.100323 0.0890289 -0.0261445
0.103015 0.0872139 -0.0558796
0.108387 0.0835925 -0.115208
0.111055 0.0817944 -0.144666
0.129077 0.069644 -0.343729
0.0700163 0.109396 0.239629
0.0803575 0.102429 0.129815
0.0820978 0.101257 0.111334
0.0858715 0.0987143 0.0712603
0.0878872 0.0973562 0.0498548
0.0898482 0.0960351 0.0290303
0.0917567 0.0947492 0.00876337
0.108069 0.0837592 -0.164464
0.10981 0.0825862 -0.182952
0.111781 0.0812586 -0.203878
0.05178 0.121618 0.361573
0.0696528 0.109583 0.178875
0.0882401 0.0970667 -0.0111297
0.109184 0.0829635 -0.225231
0.111919 0.0811219 -0.253189
0.0472078 0.124634 0.339379
0.051396 0.121815 0.298126
0.0537052 0.120261 0.27538
0.0548378 0.119499 0.264223
0.0592284 0.116544 0.220976
0.0613432 0.11512 0.200145
0.0743704 0.106353 0.071828
0.0847798 0.0993471 -0.0307045
0.0893041 0.0963021 -0.0752691
0.109406 0.0827719 -0.273291
0.111528 0.0813434 -0.294199
0.0426968 0.12761 0.317481
0.0591894 0.116515 0.160796
0.0622499 0.114456 0.13172
0.0666432 0.111501 0.0899825
0.0708153 0.108694 0.0503463
0.0813744 0.101591 -0.0499687
0.0870725 0.0977581 -0.104102
0.0892331 0.0963047 -0.124628
0.0913304 0.0948938 -0.144553
0.10909 0.0829452 -0.313302
0.11116 0.0815528 -0.332966
0.0869752 0.0820378 -0.365722
0.0310206 0.135405 0.362136
0.058647 0.116829 0.108769
0.06732 0.110997 0.0292264
0.0695778 0.109479 0.00852123
0.0884733 0.0967729 -0.164776
0.0905308 0.0953891 -0.18365
0.0938326 0.0931687 -0.213936
0.109047 0.0829368 -0.353495
0.0265152 0.138376 0.339573
0.0312461 0.135197 0.297653
0.0332079 0.133878 0.280271
0.0382565 0.130485 0.235536
0.0412838 0.12845 0.208709
0.0447946 0.12609 0.177602
0.0545928 0.119505 0.0907798
0.0657167 0.112028 -0.00778735
0.0739077 0.106523 -0.0803669
0.0910839 0.094977 -0.232579
0.0220712 0.141308 0.317316
0.0288632 0.136744 0.259123
0.0417892 0.12806 0.148375
0.0521463 0.121101 0.0596373
0.0541849 0.119732 0.0421706
0.0623582 0.11424 -0.0278572
0.0722926 0.107566 -0.112974
0.0887141 0.0965315 -0.25369
0.0909705 0.0950153 -0.273026
0.0110852 0.148633 0.350094
0.0376929 0.130763 0.129499
0.0507931 0.121965 0.0208898
0.0533035 0.120279 7.7039e-05
0.0590543 0.116417 -0.0476011
0.0695143 0.109391 -0.134325
0.0719348 0.107766 -0.154395
0.0886652 0.0965278 -0.293122
0.0911716 0.0948443 -0.313903
0.0935919 0.0932185 -0.333973
0.0728953 0.0934317 -0.365742
0.0104387 0.149015 0.297164
0.0176046 0.144204 0.239635
0.0210168 0.141913 0.212242
0.0236695 0.140132 0.190946
0.0336464 0.133434 0.110852
0.0680191 0.110356 -0.165102
0.0715941 0.107956 -0.193807
0.074269 0.10616 -0.215284
0.0913616 0.0946828 -0.352522
0.000761032 0.15546 0.317145
0.00613397 0.151854 0.275349
0.00762373 0.150854 0.263761
0.020855 0.141974 0.160837
0.0234444 0.140236 0.140694
0.0296488 0.136072 0.0924303
0.0326149 0.134081 0.0693575
0.0349261 0.13253 0.0513796
0.0441797 0.12632 -0.0206034
0.0544784 0.119407 -0.100719
0.072776 0.107126 -0.243072
-0.014582 0.164779 0.365305
-0.0092482 0.162126 0.337811
0.0316252 0.134703 0.029537
0.0409554 0.128443 -0.0408334
0.0435367 0.126711 -0.0603026
0.0460491 0.125025 -0.0792536
0.0513477 0.12147 -0.119221
0.0705872 0.10856 -0.264347
-0.00941902 0.162192 0.284657
-0.00384814 0.158455 0.243894
0.000726759 0.155387 0.21042
0.00367934 0.153406 0.188816
0.014112 0.146409 0.112479
0.0277995 0.137228 0.0123263
0.0487368 0.123184 -0.140883
0.0510563 0.121628 -0.157857
0.0684487 0.109961 -0.285133
0.0724661 0.107266 -0.314531
0.0749215 0.105619 -0.332501
-0.0275458 0.174299 0.361552
-0.0186703 0.168348 0.298514
-0.0136301 0.164968 0.262716
0.00107509 0.155108 0.158271
0.00323778 0.153658 0.14291
0.0121604 0.147675 0.079537
0.0246072 0.139329 -0.00886819
0.0346639 0.132585 -0.0803021
0.0485073 0.123301 -0.178639
0.0512253 0.121479 -0.197946
-0.0299917 0.175891 0.325281
0.00828278 0.150234 0.0612584
0.0115698 0.14803 0.0385846
0.0141307 0.146313 0.020919
0.0214688 0.141394 -0.0297019
0.048737 0.123113 -0.217825
0.0518202 0.121046 -0.239095
0.0683441 0.109968 -0.353093
0.0432031 0.112291 -0.365782
-0.0296676 0.175628 0.271904
-0.0244255 0.172114 0.236766
-0.0177539 0.167643 0.192045
-0.00687611 0.160353 0.119132
0.0183828 0.143425 -0.050184
0.0258418 0.138425 -0.100187
0.0285739 0.136594 -0.118503
0.0493914 0.122642 -0.258058
0.0523845 0.120635 -0.278123
0.0583261 0.112835 -0.365764
-0.0489914 0.18853 0.348957
-0.040228 0.182659 0.291851
-0.028492 0.174796 0.215374
-0.0185214 0.168115 0.1504
-0.00928485 0.161927 0.0902095
-0.00635529 0.159964 0.071119
0.00468534 0.152566 -0.000829041
0.0153485 0.145421 -0.0703235
0.0261431 0.138188 -0.140674
0.0288075 0.136403 -0.158039
0.0319155 0.13432 -0.178294
0.0504337 0.121912 -0.298981
-0.0541846 0.191964 0.331682
-0.0501627 0.18927 0.30619
-0.039663 0.182237 0.239642
-0.0290641 0.175137 0.172465
-0.00799268 0.161022 0.038911
0.00426304 0.152812 -0.0387745
0.0123646 0.147385 -0.090129
0.0295427 0.135877 -0.199018
0.0485278 0.123159 -0.319361
0.0522291 0.120679 -0.342823
-0.0503186 0.189331 0.258897
-0.0296142 0.175465 0.131205
-0.0117359 0.163492 0.0209401
-0.00538737 0.15924 -0.018217
0.00322062 0.153475 -0.0713116
0.0124097 0.14732 -0.127989
0.0272176 0.137403 -0.219325
0.0302416 0.135377 -0.237976
-0.0774212 0.206513 0.364751
-0.0708848 0.203059 0.3361
-0.0687113 0.201604 0.323052
-0.063412 0.198055 0.291236
-0.0485768 0.188123 0.20217
-0.0334656 0.178005 0.111447
-0.0285133 0.174689 0.0817142
0.00346679 0.153275 -0.110302
0.0118758 0.147645 -0.160792
0.0284624 0.136538 -0.260383
0.0313887 0.134579 -0.277953
-0.0653453 0.199308 0.256102
-0.0632929 0.197934 0.244102
-0.0496812 0.188822 0.16452
-0.0314628 0.176626 0.0579982
-0.0282564 0.17448 0.0392495
-0.0213193 0.169836 -0.001313
0.00905991 0.149498 -0.178949
0.0124942 0.147199 -0.199031
0.0296423 0.135719 -0.2993
0.034779 0.13228 -0.329336
0.0396619 0.129012 -0.357887
0.0112884 0.132561 -0.365826
-0.0800584 0.209114 0.295038
-0.0778438 0.207632 0.282423
-0.0602144 0.195833 0.182007
-0.0535245 0.191356 0.1439
-0.0480288 0.187678 0.112598
-0.0444813 0.185303 0.0923896
-0.0319417 0.17691 0.0209569
-0.0212214 0.169735 -0.0401123
-0.0176004 0.167311 -0.0607393
-0.0127013 0.164032 -0.088647
-0.10268 0.223288 0.365396
-0.0956325 0.219494 0.336252
-0.09324 0.217893 0.322971
-0.0752863 0.20588 0.223306
-0.047334 0.187176 0.0681316
-0.0316207 0.17666 -0.0191047
-0.0154971 0.165871 -0.108618
-0.011436 0.163153 -0.131164
-0.00815201 0.160956 -0.149396
0.00414449 0.152727 -0.217662
0.00815642 0.150042 -0.239936
-0.090172 0.2158 0.261031
-0.0856645 0.212784 0.236635
-0.0780717 0.207705 0.195544
-0.0698267 0.202189 0.150922
-0.0591806 0.195066 0.0933005
-0.0492591 0.188428 0.0396006
-0.0416301 0.183324 -0.00169092
-0.0275484 0.173902 -0.0779076
-0.00704157 0.160182 -0.1889
0.00605285 0.151421 -0.259773
0.00937903 0.149196 -0.277776
-0.1174 0.233974 0.361528
-0.109664 0.228799 0.320694
-0.105922 0.226296 0.300946
-0.101059 0.223043 0.275279
-0.073572 0.204657 0.130197
-0.0528798 0.190815 0.0209743
-0.0411091 0.182942 -0.0411564
-0.0379224 0.18081 -0.0579772
-0.0168669 0.166725 -0.169118
0.00785923 0.150185 -0.299634
0.0115986 0.147684 -0.319372
0.0172296 0.143917 -0.349095
-0.00557667 0.146005 -0.365849
-0.122614 0.23742 0.343249
-0.0989726 0.221609 0.221518
-0.0955247 0.219303 0.203764
-0.0899352 0.215565 0.174981
-0.0684012 0.201163 0.0640938
-0.0521095 0.190267 -0.0197982
-0.0367243 0.179977 -0.0990245
-0.0307329 0.175969 -0.129876
-0.00921738 0.161579 -0.240669
-0.00556898 0.159139 -0.259456
-0.134653 0.24543 0.359605
-0.126446 0.239942 0.318367
-0.116058 0.232996 0.266169
-0.113554 0.231322 0.253589
-0.0936422 0.218007 0.153534
-0.0882151 0.214378 0.126262
-0.0850447 0.212258 0.11033
-0.0798975 0.208816 0.0844661
-0.0682004 0.200994 0.0256863
-0.0635811 0.197905 0.0024744
-0.0556147 0.192578 -0.0375575
-0.0333611 0.177697 -0.149384
-0.0255318 0.172461 -0.188727
-0.0214528 0.169734 -0.209225
-0.00753933 0.16043 -0.279141
-0.139857 0.248869 0.34113
-0.130219 0.242426 0.29386
-0.116044 0.232949 0.224331
-0.105246 0.225729 0.171362
-0.0582135 0.194284 -0.0593391
-0.05397 0.191447 -0.0801544
-0.0458441 0.186014 -0.120013
-0.0359457 0.179396 -0.168567
-0.0094704 0.161695 -0.298434
-0.00139719 0.156297 -0.338034
-0.14502 0.252282 0.322799
-0.129947 0.242206 0.250609
-0.11972 0.235369 0.201627
-0.108883 0.228125 0.149726
-0.105418 0.225809 0.133128
-0.0890956 0.214897 0.0549521
-0.0790631 0.208191 0.00690103
-0.0733385 0.204364 -0.0205165
-0.0565229 0.193123 -0.101055
-0.0483946 0.187689 -0.139985
-0.0299436 0.175355 -0.228356
-0.0258706 0.172632 -0.247864
-0.0107696 0.162537 -0.32019
-0.16203 0.263612 0.360213
-0.150143 0.255668 0.304612
-0.145869 0.252811 0.284617
-0.108993 0.228163 0.11212
-0.10335 0.224392 0.0857221
-0.100053 0.222188 0.0702984
-0.0767747 0.206629 -0.0385901
-0.0676408 0.200524 -0.0813169
-0.0276861 0.173819 -0.268217
-0.165683 0.266015 0.334348
-0.149496 0.255197 0.260374
-0.145307 0.252398 0.241232
-0.139863 0.248759 0.216353
-0.129432 0.241789 0.168686
-0.12567 0.239275 0.151493
-0.0981716 0.220898 0.0258293
-0.0889183 0.214714 -0.0164573
-0.0792261 0.208237 -0.0607495
-0.0510151 0.189384 -0.18967
-0.0464257 0.186317 -0.210643
-0.0162305 0.166138 -0.348632
-0.0413236 0.168817 -0.365898
-0.178711 0.274682 0.351002
-0.16775 0.267358 0.302056
-0.143416 0.251098 0.193391
-0.129188 0.241591 0.129854
-0.118324 0.234332 0.0813413
-0.0994892 0.221747 -0.00276771
-0.0779225 0.207336 -0.099075
-0.0734063 0.204318 -0.119243
-0.0690197 0.201387 -0.138832
-0.0647569 0.198539 -0.157867
-0.0352356 0.178813 -0.289697
-0.172821 0.270709 0.28382
-0.165278 0.265669 0.250894
-0.155176 0.258921 0.206806
-0.132657 0.243876 0.108517
-0.118275 0.234267 0.0457433
-0.0997378 0.221882 -0.0351665
-0.0663006 0.199543 -0.181109
-0.055047 0.192024 -0.230227
-0.0504797 0.188973 -0.250162
-0.0369278 0.179919 -0.309311
-0.0322567 0.176798 -0.329699
-0.170245 0.268952 0.233264
-0.160056 0.262145 0.189786
-0.154462 0.258409 0.165916
-0.15037 0.255675 0.148455
-0.134832 0.245296 0.0821565
-0.118228 0.234204 0.0113033
-0.0989641 0.221336 -0.0708952
-0.087256 0.213515 -0.120853
-0.0781134 0.207407 -0.159865
-0.0686421 0.20108 -0.20028
-0.0528243 0.190514 -0.267775
-0.0602816 0.180916 -0.365924
-0.153773 0.257915 0.126468
-0.149759 0.255234 0.109722
-0.138204 0.247516 0.0615093
-0.129689 0.241829 0.0259798
-0.120424 0.235641 -0.012677
-0.0992121 0.221473 -0.101184
-0.0395389 0.181616 -0.350171
-0.182409 0.276085 0.200008
-0.175561 0.272434 0.180022
-0.169706 0.268523 0.156127
-0.153107 0.257438 0.0883871
-0.124842 0.238561 -0.0269604
-0.118137 0.234084 -0.0543215
-0.0974991 0.220301 -0.138543
-0.0871516 0.21339 -0.180771
-0.0774335 0.2069 -0.220429
-0.068289 0.200793 -0.257747
-0.0604321 0.195546 -0.28981
-0.0559121 0.192527 -0.308256
-0.050812 0.189121 -0.329069
-0.173028 0.270709 0.133698
-0.165933 0.265971 0.105375
-0.155085 0.258727 0.0620646
-0.149879 0.255251 0.0412821
-0.138662 0.247761 -0.00349662
-0.135068 0.245361 -0.0178446
-0.118094 0.234026 -0.0856072
-0.109667 0.228399 -0.119249
-0.0800223 0.193514 -0.365951
-0.169201 0.268122 0.0838538
-0.153124 0.257388 0.0210574
-0.129012 0.241288 -0.0731288
-0.10674 0.226418 -0.160125
-0.0970713 0.219962 -0.19789
-0.0861729 0.212686 -0.24046
-0.0759724 0.205875 -0.280303
-0.0581421 0.19397 -0.34995
-0.143859 0.251173 -0.0465505
-0.119061 0.234618 -0.141343
-0.108839 0.227793 -0.180419
-0.0982593 0.22073 -0.220859
-0.0883163 0.214092 -0.258867
-0.0781298 0.207292 -0.297805
-0.179837 0.275161 0.0575672
-0.175599 0.272332 0.0417118
-0.170083 0.26865 0.0210716
-0.164714 0.265066 0.000981987
-0.159485 0.261576 -0.0185786
-0.138721 0.247715 -0.0962692
-0.079434 0.208139 -0.318092
-0.100595 0.206643 -0.365979
-0.162602 0.263628 -0.0380008
-0.155003 0.258556 -0.0658356
-0.139501 0.248209 -0.122617
-0.129476 0.241518 -0.159337
-0.118953 0.234494 -0.197882
-0.108062 0.227225 -0.237772
-0.0969261 0.219792 -0.278561
-0.0799992 0.205327 -0.365954
-0.182775 0.27614 -0.00314283
-0.143692 0.25098 -0.136016
-0.109113 0.227902 -0.26003
-0.0980642 0.220529 -0.299655
-0.0868743 0.213061 -0.339786
-0.183059 0.276302 -0.0328884
-0.163603 0.264241 -0.0940288
-0.138775 0.247673 -0.181227
-0.128015 0.240492 -0.219017
-0.178292 0.274016 -0.0721058
-0.165335 0.265371 -0.116674
-0.129903 0.241729 -0.238554
-0.117826 0.23367 -0.280098
-0.106528 0.226131 -0.318961
-0.122048 0.223418 -0.366009
-0.178593 0.27419 -0.099941
-0.16579 0.265648 -0.143081
-0.159683 0.261574 -0.163659
-0.14915 0.254547 -0.199151
-0.119721 0.234912 -0.298315
-0.107547 0.22679 -0.339335
-0.147532 0.253443 -0.23057
-0.138825 0.247634 -0.259316
-0.177887 0.273669 -0.157658
-0.169106 0.267812 -0.186061
-0.137446 0.246692 -0.288471
-0.128304 0.240594 -0.318043
-0.144451 0.237783 -0.36604
-0.168291 0.267244 -0.214652
-0.15772 0.260193 -0.248163
-0.129107 0.241108 -0.338864
-0.159367 0.261269 -0.26766
-0.178748 0.274172 -0.232722
-0.153211 0.257141 -0.310491
-0.167862 0.252795 -0.366072
-0.177802 0.273518 -0.260184
-0.168296 0.26718 -0.288562
-0.154836 0.258204 -0.328745
-0.14844 0.253939 -0.347841
-0.16868 0.267414 -0.310847
-0.170195 0.268403 -0.329353
-0.168387 0.266257 -0.363032
