ply
format ascii 1.0
comment Created by Open3D
element vertex 790
property double x
property double y
property double z
end_header
-0.205327 -0.26211 0.225654
-0.185652 -0.259487 0.238941
-0.205186 -0.264548 0.208277
0.24503 -0.311052 0.236074
0.244703 -0.311392 0.221081
-0.19662 -0.242485 0.240012
-0.177144 -0.240565 0.240152
0.243969 -0.291783 0.237298
0.263683 -0.291534 0.237334
-0.206922 -0.237141 0.22134
0.243447 -0.291669 0.222565
-0.196835 -0.220426 0.241414
-0.17738 -0.220513 0.241427
0.242211 -0.272141 0.231749
0.262579 -0.272182 0.238564
-0.208198 -0.217204 0.214374
-0.201273 -0.202386 0.242556
0.241446 -0.260438 0.209057
0.240906 -0.251556 0.23707
-0.181944 -0.202289 0.242581
0.258004 -0.249802 0.239982
-0.208992 -0.204887 0.20324
-0.209527 -0.196183 0.224645
0.240288 -0.242187 0.214479
0.239687 -0.232389 0.238485
0.260226 -0.230973 0.24118
-0.200139 -0.308541 -0.209979
-0.182265 -0.310282 -0.210074
-0.201477 -0.18056 0.243943
-0.182169 -0.18244 0.243842
0.238968 -0.221399 0.220037
-0.203787 -0.289637 -0.208781
-0.210822 -0.175971 0.217759
0.238362 -0.211616 0.236244
0.259136 -0.211861 0.242394
-0.17524 -0.284776 -0.208446
-0.210994 -0.173492 0.20138
0.238335 -0.211671 0.204702
-0.201659 -0.161 0.245186
-0.203883 -0.271121 -0.207604
-0.182418 -0.160482 0.245237
0.244603 -0.309555 -0.209618
0.263151 -0.311145 -0.209702
0.237729 -0.201909 0.221521
0.244168 -0.309695 -0.227297
-0.205235 -0.270429 -0.235318
0.248197 -0.192004 0.243646
0.278007 -0.194489 0.243516
-0.2121 -0.15574 0.227909
-0.175447 -0.254924 -0.206549
0.24319 -0.294499 -0.234785
0.253164 -0.289153 -0.208313
0.267108 -0.290267 -0.208371
-0.20639 -0.252068 -0.220647
-0.201841 -0.14152 0.246424
0.236479 -0.182455 0.211049
-0.180481 -0.140968 0.24648
0.243388 -0.271542 -0.207203
0.2664 -0.269043 -0.207023
0.243732 -0.170193 0.245028
0.263409 -0.17165 0.244954
-0.207621 -0.230271 -0.205012
-0.189912 -0.231562 -0.205078
-0.213004 -0.141988 0.199514
0.241244 -0.263872 -0.230817
0.235521 -0.16706 0.231937
-0.172056 -0.225432 -0.20467
-0.213411 -0.135263 0.221099
0.240467 -0.251286 -0.210542
0.261187 -0.25178 -0.205931
-0.208525 -0.218836 -0.239662
-0.207713 -0.211906 -0.203844
-0.179315 -0.21381 -0.203939
0.23515 -0.161691 0.204513
0.275749 -0.15631 0.24594
-0.206203 -0.121882 0.247465
0.23997 -0.244012 -0.237768
0.242686 -0.151426 0.246219
0.255735 -0.152286 0.246177
-0.187114 -0.120984 0.247483
-0.165443 -0.12237 0.247504
0.23921 -0.231686 -0.217277
0.242044 -0.229506 -0.204533
0.260489 -0.230679 -0.20459
0.23448 -0.150955 0.2175
-0.20964 -0.201118 -0.224877
-0.214072 -0.122118 0.208484
-0.214055 -0.116692 0.226352
-0.207823 -0.189921 -0.202447
-0.190158 -0.190983 -0.202498
-0.172348 -0.184658 -0.202079
0.238033 -0.213524 -0.233783
0.237849 -0.210272 -0.214526
0.259793 -0.209632 -0.203253
0.244736 -0.130251 0.247567
0.264366 -0.131363 0.247515
0.233287 -0.132263 0.214942
-0.21142 -0.171454 -0.201277
-0.206203 -0.100685 0.247465
-0.187114 -0.101712 0.247483
0.232931 -0.126341 0.234999
-0.190292 -0.168932 -0.201097
-0.165443 -0.100712 0.247504
0.236684 -0.191763 -0.202961
-0.214072 -0.101952 0.208484
0.23674 -0.193374 -0.24076
0.236576 -0.190414 -0.221299
0.263726 -0.188879 -0.201931
-0.211834 -0.166946 -0.244031
-0.214055 -0.0970614 0.226352
-0.179711 -0.154782 -0.200187
-0.14551 -0.0930074 0.247523
-0.127439 -0.0938769 0.24754
0.244446 -0.111771 0.247896
-0.211525 -0.1496 -0.199888
-0.106702 -0.0926424 0.24756
-0.0855192 -0.0936377 0.24758
0.235562 -0.174651 -0.228702
0.235417 -0.172003 -0.20961
0.263166 -0.172101 -0.200865
0.232838 -0.111975 0.223452
0.264 -0.11006 0.247914
-0.212908 -0.149879 -0.229133
-0.214091 -0.0932948 0.189614
-0.0663042 -0.0922624 0.247599
-0.0467151 -0.0931606 0.247617
0.27696 -0.168556 -0.200628
0.232816 -0.112 0.203276
-0.21411 -0.0936185 0.169653
-0.0267408 -0.0917536 0.247637
-0.00636989 -0.0926646 0.247656
0.0144097 -0.0935939 0.247676
-0.21413 -0.0939615 0.148505
-0.206203 -0.0816082 0.247465
-0.187114 -0.0824403 0.247483
0.0329366 -0.092032 0.247694
0.0545161 -0.0929726 0.247714
0.0737632 -0.0938115 0.247733
-0.165443 -0.0812191 0.247504
0.0933608 -0.0922069 0.247751
0.113319 -0.0930543 0.24777
0.133647 -0.0939173 0.24779
-0.211612 -0.131431 -0.198734
-0.190514 -0.13231 -0.198769
-0.214151 -0.0918101 0.126061
-0.214072 -0.0817853 0.208484
0.145433 -0.0918999 0.247801
0.175455 -0.0931406 0.24783
-0.214174 -0.0921176 0.102198
-0.214055 -0.077431 0.226352
0.203177 -0.091703 0.247856
0.225215 -0.0925887 0.247877
-0.214199 -0.0924451 0.0767769
0.254182 -0.091112 0.247905
-0.214225 -0.0927948 0.0496401
-0.214252 -0.0931689 0.0206079
-0.115973 -0.0722101 0.247551
0.273902 -0.0865558 0.247923
-0.214282 -0.09357 -0.0105255
-0.0759578 -0.0714154 0.247589
-0.21447 -0.110616 -0.207474
-0.14551 -0.0667465 0.247523
-0.0267408 -0.0708477 0.247637
-0.214314 -0.0909193 -0.0439968
-0.0973433 -0.0661668 0.247569
0.0249565 -0.0702515 0.247686
0.0436715 -0.0708765 0.247704
0.0849183 -0.0722541 0.247743
-0.214349 -0.091264 -0.0800798
-0.214151 -0.0716873 0.126061
-0.214091 -0.0656519 0.189614
-0.206203 -0.0604113 0.247465
-0.187114 -0.0610272 0.247483
-0.165443 -0.0617265 0.247504
-0.0565571 -0.0652399 0.247608
-0.00636989 -0.0668593 0.247656
0.145433 -0.0717575 0.247801
-0.214386 -0.0916367 -0.119092
-0.214174 -0.0713587 0.102198
-0.21413 -0.0671153 0.148505
-0.21411 -0.0651774 0.169653
-0.214379 -0.0613733 0.211062
-0.152821 -0.0644943 0.197981
-0.126348 -0.0653185 0.198007
-0.106666 -0.0659313 0.198025
-0.110747 -0.0629245 0.229437
0.0627225 -0.0666645 0.247722
0.203177 -0.0710375 0.247856
0.244446 -0.0723224 0.247896
-0.214427 -0.0920409 -0.161407
-0.214199 -0.0710086 0.0767769
-0.159359 -0.0601748 0.218104
-0.140594 -0.0608163 0.217233
-0.0911227 -0.0627203 0.212529
-0.0661736 -0.0647486 0.198064
-0.0453409 -0.0653737 0.198084
-0.0267795 -0.0659306 0.198102
-0.0343346 -0.0629253 0.229551
0.104721 -0.0655004 0.247762
0.124889 -0.0661055 0.247782
0.264 -0.0702792 0.247914
-0.21447 -0.0924821 -0.207474
-0.0704142 -0.0605087 0.217757
-0.0523801 -0.0611045 0.216889
-0.0117688 -0.0625887 0.213261
0.00854409 -0.0644624 0.198136
0.028039 -0.0650252 0.198154
0.0478773 -0.065598 0.198173
0.0480738 -0.0629262 0.229673
0.175455 -0.0650708 0.24783
0.0102136 -0.0603534 0.218065
0.0297678 -0.0609707 0.217166
0.0676678 -0.0622387 0.214549
0.0915873 -0.0642379 0.198215
0.109546 -0.0647361 0.198232
0.127785 -0.065242 0.19825
0.149428 -0.0658423 0.19827
0.137212 -0.0629271 0.229806
-0.214314 -0.0724272 -0.0439968
-0.214252 -0.0673683 0.0206079
-0.214225 -0.0650949 0.0496402
0.0883626 -0.0599317 0.218619
0.109331 -0.0605499 0.217869
0.169777 -0.0624685 0.213964
0.190697 -0.0642529 0.19831
0.210232 -0.0647726 0.198328
0.230085 -0.0653008 0.198348
0.23283 -0.0637171 0.2195
-0.214349 -0.0720505 -0.0800798
-0.214282 -0.0668357 -0.0105255
0.188306 -0.0599269 0.218719
0.207961 -0.0604776 0.218072
-0.214386 -0.0716432 -0.119092
-0.214427 -0.0712015 -0.161407
0.219935 -0.0539508 0.238994
-0.21447 -0.0707216 -0.207474
-0.206203 -0.041334 0.247465
-0.187114 -0.0417555 0.247483
0.244446 -0.0512832 0.247895
0.264002 -0.051715 0.247912
-0.212801 -0.0629216 -0.139229
-0.186446 -0.0633 -0.13639
-0.193762 -0.0571062 -0.0384396
-0.218367 -0.0414203 0.207549
-0.162598 -0.0416548 0.222742
-0.137241 -0.0421859 0.222766
-0.20153 -0.0629217 -0.193699
-0.193465 -0.0576435 -0.100467
-0.194815 -0.0550873 -0.0571068
-0.195362 -0.053131 -0.0237548
-0.116008 -0.0403263 0.222786
-0.0820754 -0.0409986 0.222818
-0.0520762 -0.041593 0.222847
-0.0315889 -0.0419989 0.222867
0.117898 -0.0449607 0.223009
-0.193033 -0.0583126 -0.172376
-0.194743 -0.0554065 -0.120119
-0.195387 -0.0532789 -0.0816545
-9.69172e-05 -0.0401873 0.222897
0.0187093 -0.0405386 0.222915
0.0601366 -0.0413125 0.222954
0.088645 -0.041845 0.222981
-0.215468 -0.0580831 -0.243978
-0.0967557 -0.0360554 0.222804
0.178757 -0.0408903 0.223067
0.197657 -0.041222 0.223085
-0.171996 -0.0312971 0.247498
0.0378472 -0.035939 0.222933
0.199957 -0.0379626 0.236281
-0.21717 -0.0494497 -0.219251
0.138834 -0.035004 0.223029
0.16016 -0.0353299 0.223049
0.270881 -0.0370842 0.221777
-0.211642 -0.0449935 -0.19833
-0.195756 -0.0415329 -0.109864
-0.221247 -0.0268775 0.233188
-0.195823 -0.0408791 -0.179508
-0.195697 -0.0358687 -0.0487564
-0.219233 -0.039226 -0.241813
-0.195788 -0.0360649 -0.143511
-0.221904 -0.0237484 0.199499
-0.21248 -0.0221822 0.247459
-0.19139 -0.0224329 0.247479
-0.164419 -0.0241059 0.208864
0.218875 -0.0273101 0.247871
-0.221987 -0.0236559 0.130967
-0.222128 -0.0228294 0.157018
-0.222258 -0.0220588 0.181311
-0.137241 -0.0216631 0.222766
-0.116008 -0.0218914 0.222786
-0.086992 -0.0222035 0.222814
0.169421 -0.0249614 0.223058
-0.220843 -0.0310423 -0.217229
-0.22209 -0.0235426 0.0470445
-0.222241 -0.0226313 0.0791566
-0.222381 -0.0217879 0.108875
-0.0571363 -0.0201536 0.222842
-0.0367481 -0.0203498 0.222862
-9.69172e-05 -0.0207025 0.222897
0.0187093 -0.0208835 0.222915
0.0601366 -0.0212822 0.222954
0.088645 -0.0215565 0.222981
0.109042 -0.0217528 0.223001
0.183723 -0.0218486 0.245056
-0.222218 -0.0234006 -0.0581101
-0.222382 -0.0223852 -0.0175493
-0.222533 -0.0214543 0.0196378
-0.222383 -0.0232175 -0.19372
-0.222562 -0.0220713 -0.140882
-0.222724 -0.021033 -0.0930142
-0.015959 -0.0157146 0.222882
0.0378472 -0.0161106 0.222933
0.129814 -0.0167874 0.223021
0.147925 -0.0169207 0.223038
-0.222974 -0.0204841 -0.239662
-0.223512 -0.0168377 -0.0409483
-0.223618 -0.0161203 -0.00184906
-0.224226 -0.0120219 0.221493
0.249588 -0.0149505 0.223135
0.270881 -0.0151084 0.221777
-0.223858 -0.0157283 -0.171197
-0.223961 -0.014968 -0.120544
0.203178 -0.0116243 0.247855
-0.224496 -0.0127439 -0.215199
-0.225957 -0.00484085 -0.0915289
-0.225962 -0.00424364 0.0279144
-0.225963 -0.00407599 0.0614433
-0.225966 -0.00377753 0.121136
-0.226692 -0.00185653 -0.237523
-0.22666 -0.00176137 -0.180414
-0.226569 -0.00152687 -0.0396833
-0.226545 -0.00146198 -0.000740886
-0.226483 -0.00129663 0.0984934
-0.22645 -0.00120571 0.153053
-0.226435 -0.00116487 0.177561
-0.226421 -0.0011267 0.20047
-0.216642 -0.00105394 0.247455
-0.195646 -0.00106583 0.247475
-0.155688 -0.00118638 0.188755
-0.151405 -0.00114781 0.213356
-0.13022 -0.0011597 0.213438
-0.111015 -0.00117048 0.213509
-0.0865011 -0.00118425 0.213598
-0.0563051 -0.00120124 0.213689
-0.0356846 -0.00121286 0.213742
-0.00667128 -0.00122921 0.213815
0.0149254 -0.00124138 0.21387
0.0537666 -0.00126326 0.213969
0.0651169 -0.00126965 0.213998
0.0881658 -0.00128264 0.214057
0.108724 -0.00129422 0.214109
0.178504 -0.00127763 0.247831
0.163815 0.00208547 -0.241875
0.173651 0.00205914 -0.222731
0.196111 0.00207186 -0.222708
-0.228127 0.00544538 -0.213181
-0.228025 0.00517204 -0.158477
-0.227838 0.00470093 -0.0641891
-0.227553 0.00397641 0.0808142
0.162903 0.00392786 0.223519
0.162964 0.00386513 0.236084
-0.228335 0.00742521 -0.015193
-0.229333 0.0118176 -0.13745
-0.228163 0.00767428 0.218096
-0.184969 0.00750306 0.247485
0.200065 0.00902881 0.247851
-0.230388 0.0166579 -0.235397
-0.230171 0.0158056 -0.178503
0.152898 0.0186419 -0.237113
0.164743 0.0184868 -0.222739
0.182601 0.0185777 -0.22272
0.196111 0.0186466 -0.222708
-0.230588 0.0181929 -0.117279
-0.230377 0.0173585 -0.0716916
-0.230007 0.0159 0.00799143
-0.229845 0.0152589 0.043014
-0.230194 0.0171934 0.081657
-0.232397 0.026844 -0.199313
-0.231531 0.0232201 -0.0540631
-0.230871 0.0204587 0.0566222
-0.230512 0.0189558 0.116861
-0.230351 0.0182842 0.143779
-0.230202 0.0176584 0.168864
0.175457 0.0191385 0.247828
-0.230487 0.0192161 0.196887
-0.220785 0.0178771 0.247451
-0.201994 0.0180579 0.247469
0.143622 0.0354142 -0.247393
-0.234062 0.0350601 -0.233285
-0.211642 0.0341951 -0.198332
-0.231643 0.0245305 0.100059
0.141785 0.0390593 -0.231557
0.160306 0.0389799 -0.222743
0.17812 0.0391715 -0.222725
0.149615 0.024687 0.224978
0.150036 0.0240403 0.245544
-0.225544 0.0483806 -0.198345
-0.201135 0.0487536 -0.19832
-0.232521 0.0294946 0.218973
0.144261 0.0350461 0.223941
0.132742 0.0599877 -0.242312
0.142664 0.059206 -0.222758
0.155879 0.059423 -0.222746
-0.238309 0.0563936 -0.219058
0.163351 0.0393405 0.247817
0.187693 0.0397676 0.247842
0.178121 0.0680348 -0.222726
-0.184969 0.0375153 0.247485
0.139466 0.0446778 0.235205
-0.240776 0.0686369 -0.24144
-0.226965 0.0387795 0.247445
-0.206203 0.0392143 0.247465
-0.240566 0.0679107 -0.173117
-0.204645 0.0703444 -0.198324
-0.235356 0.0436188 0.202384
0.125887 0.080861 -0.247538
0.126352 0.0794567 -0.225774
0.155879 0.0799136 -0.222746
-0.240317 0.0673512 -0.113878
-0.215129 0.0737085 -0.198335
-0.242442 0.0771246 -0.205134
-0.241624 0.0733071 -0.151587
-0.239715 0.0673506 -0.0678219
-0.221949 0.0673434 -0.0616702
0.271238 0.0937769 -0.262529
0.275656 0.0918196 -0.233713
-0.242969 0.0798367 -0.193646
-0.241382 0.0723707 -0.0935561
-0.240695 0.0691372 -0.0502079
-0.239166 0.0673502 -0.0258604
-0.22219 0.0673435 -0.0199894
-0.236482 0.0493117 0.21557
0.181559 0.057571 0.247834
-0.244427 0.0869227 -0.239304
-0.242638 0.0784817 -0.130936
-0.240524 0.0685025 -0.00282049
-0.230536 0.0673473 0.0153301
0.26195 0.100073 -0.234706
0.154356 0.0594059 0.247809
-0.243995 0.0850779 -0.171275
-0.240369 0.0679299 0.0399387
0.121101 0.101382 -0.246562
0.121524 0.0995948 -0.224536
0.13828 0.0999161 -0.222763
0.160305 0.100527 -0.222742
0.251793 0.106285 -0.262086
0.131917 0.0632248 0.224357
-0.240229 0.0674106 0.078716
0.131719 0.0639304 0.24635
-0.244978 0.0901 -0.14984
-0.244084 0.0858572 -0.101502
-0.239788 0.0673494 0.109486
0.240465 0.112562 -0.238785
-0.246456 0.0972914 -0.191703
-0.241632 0.0743479 0.0602358
-0.239336 0.0673491 0.137369
-0.238259 0.0583067 0.236381
-0.216642 0.0579666 0.247455
-0.195646 0.0586203 0.247475
0.251167 0.115666 -0.222656
0.269888 0.116248 -0.222639
-0.248055 0.105098 -0.237181
-0.244162 0.0865385 -0.0404915
-0.238916 0.0673487 0.163296
-0.239424 0.0639514 0.198885
0.218879 0.122628 -0.262668
0.232631 0.119273 -0.222673
-0.248536 0.107568 -0.22496
-0.246378 0.0972516 -0.119315
-0.245446 0.0928048 -0.073775
-0.240239 0.0679426 0.180838
0.118191 0.12121 -0.238788
0.129546 0.120016 -0.222772
0.151463 0.120747 -0.222749
0.213872 0.124689 -0.241581
-0.244231 0.0871383 0.0133197
0.196684 0.130737 -0.265347
0.169387 0.0776204 0.247823
-0.248314 0.106798 -0.148102
-0.245439 0.0930432 -0.0161201
0.189161 0.132941 -0.248075
0.194923 0.131263 -0.230136
0.1484 0.0794168 0.247803
-0.245039 0.0912504 0.0278315
-0.244292 0.0876711 0.0611256
0.205173 0.135003 -0.222699
0.125596 0.0835806 0.224873
-0.249584 0.119144 -0.198367
-0.248118 0.106137 -0.0813892
-0.243978 0.0862698 0.0979396
-0.241638 0.0750315 0.19938
-0.241143 0.0726686 0.220708
0.117034 0.138572 -0.247479
0.164742 0.137624 -0.222737
0.125484 0.0841643 0.242638
0.275523 0.091934 0.224163
-0.252101 0.125424 -0.22291
0.0708892 0.143022 -0.265922
0.0904967 0.143024 -0.259267
0.116971 0.140003 -0.223972
0.142663 0.140869 -0.222757
0.272415 0.0933042 0.235053
-0.250024 0.115544 -0.107989
-0.245427 0.0934406 0.0803723
-0.244046 0.0867966 0.136989
-0.030735 0.143023 -0.265516
-0.0116815 0.143026 -0.259048
0.0111835 0.143029 -0.251285
0.0302317 0.143028 -0.244794
0.0492784 0.143027 -0.238297
0.0683261 0.143027 -0.231805
0.0911833 0.143026 -0.224015
0.274034 0.0925059 0.265206
-0.249336 0.11236 -0.0548287
-0.248336 0.107548 -0.0149371
-0.201994 0.0775428 0.247469
-0.108263 0.143027 -0.258841
-0.0897324 0.143029 -0.252548
-0.0712039 0.14303 -0.246243
-0.0489734 0.143029 -0.238659
-0.0304478 0.143028 -0.232341
-0.0119216 0.143027 -0.226027
0.011555 0.143618 -0.222884
0.0279341 0.144295 -0.222868
0.0486265 0.14515 -0.222849
0.182602 0.150686 -0.222722
-0.254838 0.139019 -0.245351
-0.247794 0.105045 0.0288471
-0.245422 0.0936082 0.121148
-0.231063 0.0784331 0.247441
-0.113135 0.143028 -0.229161
-0.0874324 0.14335 -0.222978
-0.0641933 0.144336 -0.222956
-0.244442 0.088964 0.177122
0.0950243 0.155126 -0.222805
0.151464 0.157586 -0.222752
0.169387 0.0979798 0.247823
0.254897 0.104686 0.224692
-0.252988 0.140331 -0.19837
-0.249466 0.113309 0.00805604
-0.245417 0.0937594 0.157919
0.011555 0.155422 -0.222884
0.116522 0.160116 -0.222784
0.145434 0.0994535 0.2478
0.254598 0.104877 0.243794
-0.248009 0.10637 0.0812028
-0.0797215 0.155171 -0.22297
-0.0602889 0.156062 -0.222952
0.0822493 0.162598 -0.222817
0.121148 0.103647 0.227113
0.254914 0.104703 0.264853
-0.249234 0.11238 0.0563304
-0.244214 0.0881037 0.233532
0.127801 0.103661 0.247784
0.266299 0.107599 0.266489
-0.258443 0.157077 -0.243205
-0.245729 0.0954952 0.195826
-0.248199 0.10754 0.127409
-0.259167 0.160815 -0.218817
-0.256385 0.157923 -0.198373
-0.235892 0.158955 -0.198353
-0.249355 0.113221 0.105388
-0.247746 0.105422 0.15851
-0.245113 0.0926594 0.24545
0.22621 0.119717 0.223574
0.229537 0.118163 0.235187
-0.256964 0.158773 -0.18078
-0.257697 0.158773 -0.158515
-0.241554 0.15877 -0.152998
-0.22491 0.097581 0.247447
0.16335 0.118021 0.247818
0.243838 0.11938 0.266469
-0.262026 0.175026 -0.241072
-0.258399 0.158773 -0.137186
0.139525 0.119278 0.247794
0.212178 0.125556 0.232889
0.22317 0.121082 0.264893
-0.258871 0.159775 -0.122868
0.11836 0.124009 0.226852
-0.262669 0.178351 -0.216782
-0.256685 0.158772 -0.0960829
-0.244554 0.158771 -0.0919425
-0.249267 0.11315 0.182949
-0.257366 0.158772 -0.0772573
-0.23245 0.180584 -0.198351
-0.248098 0.107537 0.23027
0.187479 0.133569 0.223986
0.201419 0.129347 0.253812
-0.263284 0.181536 -0.193566
-0.25802 0.158772 -0.059163
-0.240529 0.15877 -0.0531979
-0.258621 0.158908 -0.0425296
0.177662 0.13601 0.23692
-0.263873 0.184589 -0.171354
-0.262064 0.175774 -0.121305
-0.256448 0.158771 -0.0240504
-0.250408 0.118952 0.201297
0.117816 0.133459 0.245366
0.184681 0.134356 0.263112
-0.26615 0.195785 -0.214768
-0.246064 0.158771 -0.00417811
-0.249194 0.113095 0.24619
0.160344 0.138141 0.247815
0.206344 0.137605 0.266432
-0.264437 0.187515 -0.150063
-0.262637 0.178737 -0.102001
-0.2083 0.117511 0.247463
0.139525 0.139367 0.247794
-0.266688 0.198586 -0.191673
-0.258286 0.15877 0.0226029
-0.242342 0.158771 0.0280308
-0.231063 0.118173 0.247441
0.0855661 0.143029 0.223305
0.114286 0.143027 0.233098
-0.269127 0.210599 -0.236844
-0.263188 0.181586 -0.0834468
0.0460869 0.143029 0.223064
0.074308 0.143027 0.232687
0.0931217 0.143026 0.239102
-0.267203 0.20127 -0.169563
-0.256839 0.15877 0.0519187
0.0102689 0.14303 0.22362
0.0287618 0.143028 0.229925
0.0495659 0.143027 0.237018
0.129545 0.142709 0.265892
-0.262093 0.176383 -0.0249915
-0.257414 0.15877 0.0654088
-0.0266182 0.14303 0.223382
-0.00616288 0.143029 0.230356
0.0142919 0.143027 0.23733
0.0733896 0.143026 0.257463
0.0938458 0.143026 0.264433
0.167099 0.147585 0.266395
0.194119 0.149405 0.266421
-0.263976 0.185658 -0.0569265
-0.252261 0.128382 0.231079
-0.0622859 0.14303 0.223151
0.029364 0.143027 0.254385
0.0494822 0.143026 0.26124
0.149448 0.148857 0.266379
-0.272437 0.227121 -0.247099
-0.267936 0.20509 -0.138098
-0.265996 0.195608 -0.0911841
-0.258487 0.158871 0.0905834
-0.0967939 0.143031 0.222929
-0.0770031 0.143029 0.229676
-0.0572105 0.143029 0.236418
-0.0374181 0.143029 0.24316
-0.0154294 0.143028 0.250657
0.00656104 0.143027 0.25815
0.0334309 0.143239 0.266268
-0.272646 0.228221 -0.234725
-0.264477 0.188247 -0.0400642
-0.262863 0.18035 -0.00160962
-0.128034 0.143031 0.223451
-0.2699 0.224379 -0.198385
-0.268399 0.207509 -0.118173
-0.257169 0.158769 0.115923
-0.254746 0.140672 0.202246
-0.16042 0.143031 0.22323
-0.122082 0.14303 0.236291
-0.100782 0.14303 0.243546
-0.0816161 0.143028 0.250085
-0.0624478 0.143028 0.256616
-0.0411484 0.143028 0.263869
0.109348 0.153355 0.26634
-0.261875 0.175637 0.0474897
-0.253247 0.133391 0.246924
-0.191802 0.143031 0.223016
-0.15196 0.143031 0.236588
-0.258203 0.158768 0.138477
-0.22285 0.137606 0.247449
-0.180927 0.143032 0.236876
-0.121048 0.143029 0.257284
-0.102464 0.143029 0.263613
-0.266532 0.235233 -0.198383
-0.263828 0.185323 0.0276984
-0.152078 0.143029 0.256564
-0.276144 0.245742 -0.232641
-0.262589 0.179308 0.0672405
-0.256952 0.158768 0.16045
-0.255706 0.145578 0.219498
-0.176176 0.14303 0.257913
-0.0150795 0.153506 0.266222
0.0734159 0.162644 0.266306
0.0926124 0.164132 0.266324
-0.266093 0.1966 0.0143394
-0.257934 0.158768 0.180425
-0.206726 0.143031 0.265795
-0.084864 0.152563 0.266155
0.0439438 0.162699 0.266278
-0.268021 0.206113 -0.014761
-0.263269 0.182803 0.0860477
-0.261916 0.17616 0.114777
-0.230914 0.143101 0.266016
0.0127228 0.162548 0.266248
-0.247272 0.148234 0.247425
-0.276921 0.250186 -0.175972
-0.262356 0.178419 0.125959
-0.258834 0.161119 0.198747
-0.0421328 0.162656 0.266196
-0.27708 0.250781 -0.164371
-0.0613548 0.1633 0.266178
-0.279869 0.26454 -0.206984
-0.264598 0.250186 -0.143983
-0.0964087 0.162566 0.266144
-0.267329 0.202991 0.0559651
-0.121329 0.162617 0.26612
-0.282987 0.279967 -0.240695
-0.280108 0.265844 -0.18433
-0.274567 0.250187 -0.121041
-0.265974 0.196383 0.0928839
-0.263198 0.182739 0.147337
-0.26195 0.176603 0.171822
-0.145614 0.162668 0.266097
-0.259896 0.166552 0.220369
-0.171408 0.162531 0.266073
-0.283164 0.280984 -0.21667
-0.280336 0.267091 -0.162613
-0.274987 0.250187 -0.096188
-0.194439 0.162581 0.266051
-0.275189 0.250187 -0.0842302
-0.216903 0.16263 0.266029
-0.280556 0.268287 -0.141785
-0.26674 0.200333 0.116169
-0.262752 0.180713 0.190648
-0.238823 0.162678 0.266008
-0.216642 0.169684 0.247454
-0.286461 0.297377 -0.238611
-0.275578 0.250187 -0.0611953
-0.25128 0.168596 0.247421
-0.280766 0.269435 -0.121793
-0.265692 0.19526 0.153074
-0.286562 0.298003 -0.214675
-0.275948 0.250188 -0.0392638
-0.264928 0.250188 -0.0248736
-0.286658 0.298599 -0.191752
-0.281067 0.271074 -0.0932659
-0.276301 0.250188 -0.0183582
-0.266233 0.198042 0.168043
-0.265532 0.250188 -0.00454259
-0.264056 0.187377 0.221233
-0.283945 0.2854 -0.110568
-0.28135 0.272619 -0.0663585
-0.276923 0.250858 0.0184172
-0.226965 0.187609 0.247444
-0.284083 0.286179 -0.0918173
-0.28153 0.273601 -0.049253
-0.267085 0.202423 0.191619
-0.247272 0.187625 0.247425
-0.274683 0.250188 0.0397555
-0.284215 0.286928 -0.0737814
-0.281788 0.275008 -0.0247545
-0.272503 0.250189 0.0580438
-0.26508 0.192627 0.245266
-0.267727 0.205706 0.209383
-0.284466 0.288345 -0.0396965
-0.282032 0.276341 -0.00154883
-0.279793 0.265297 0.0335479
-0.275531 0.250189 0.0819679
-0.27998 0.266297 0.0471848
-0.275846 0.250189 0.097653
-0.268481 0.209587 0.230241
-0.235142 0.20765 0.247437
-0.280249 0.267736 0.0668111
-0.276295 0.250189 0.120022
-0.271653 0.22534 0.201547
-0.269051 0.212509 0.245999
-0.220785 0.21768 0.24745
-0.280505 0.269107 0.0855058
-0.276709 0.250363 0.140613
-0.284968 0.29118 0.0285411
-0.272164 0.227962 0.218759
-0.274918 0.25019 0.161763
-0.285119 0.292032 0.0490299
-0.280906 0.271253 0.114767
-0.243247 0.227514 0.247429
-0.275355 0.25019 0.180569
-0.25726 0.227839 0.247415
-0.285263 0.292842 0.0685269
-0.281058 0.272067 0.125857
-0.275763 0.245899 0.198067
-0.285444 0.293863 0.0931004
-0.281349 0.273623 0.147069
-0.276264 0.248502 0.219591
-0.279745 0.265774 0.185478
-0.233105 0.247575 0.247439
-0.285613 0.294822 0.116184
-0.281624 0.27509 0.167081
-0.247272 0.247747 0.247426
