ply
format ascii 1.0
comment Created by Open3D
element vertex 510
property double x
property double y
property double z
end_header
-0.174091 -0.148375 0.436317
-0.179084 -0.146857 -0.439226
-0.174081 -0.131322 0.436321
-0.179082 -0.125625 -0.439227
-0.174112 -0.110853 0.436309
0.166934 -0.145226 0.437048
0.167136 -0.145094 -0.443201
-0.179082 -0.104393 -0.439227
0.166934 -0.126784 0.437048
0.167123 -0.126064 -0.443196
-0.175477 -0.0903068 0.425767
-0.175402 -0.0901627 -0.343556
-0.176125 -0.089975 -0.31456
-0.176846 -0.0897882 -0.285685
-0.177127 -0.0897172 -0.274883
-0.177422 -0.0895697 -0.246302
-0.177525 -0.0894702 -0.224961
-0.177661 -0.0893378 -0.19658
-0.177763 -0.0892388 -0.175349
-0.177814 -0.0891894 -0.164751
-0.177949 -0.0890578 -0.136548
-0.17805 -0.0889594 -0.11545
-0.178101 -0.0889103 -0.104918
-0.178234 -0.0887797 -0.0768913
-0.178333 -0.088682 -0.055925
-0.178432 -0.0885846 -0.0350048
-0.178482 -0.0885359 -0.0245619
-0.178614 -0.0884065 0.00322982
-0.178691 -0.0883115 0.0240196
-0.178714 -0.0882216 0.0447643
-0.178725 -0.0881768 0.0551208
-0.178747 -0.0880872 0.0758022
-0.178778 -0.087968 0.103312
-0.178801 -0.0878788 0.123896
-0.178824 -0.0877898 0.144438
-0.178846 -0.087701 0.164938
-0.178858 -0.0876566 0.175173
-0.17888 -0.0875681 0.195611
-0.17891 -0.0874503 0.222798
-0.178932 -0.0873622 0.24314
-0.178955 -0.0872743 0.263442
-0.178977 -0.0871865 0.283702
-0.178999 -0.0870989 0.303922
-0.179021 -0.0870115 0.324101
-0.179043 -0.0869242 0.34424
-0.179065 -0.0868372 0.364338
-0.179086 -0.0867504 0.384396
-0.179107 -0.0866637 0.404415
-0.179244 -0.0866112 -0.421089
-0.179266 -0.0865212 -0.399452
-0.179273 -0.0864475 -0.38146
-0.179245 -0.0863623 -0.359926
-0.15711 -0.0832683 -0.00144337
-0.116711 -0.0865877 0.00366635
0.166934 -0.108343 0.437048
-0.0748069 -0.0885596 0.386059
-0.0888914 -0.0873979 0.385425
-0.112162 -0.0854744 0.385408
-0.131148 -0.083901 0.386448
-0.131243 -0.0832151 -0.387717
-0.109322 -0.0849421 -0.3856
-0.0916176 -0.0863417 -0.385199
-0.0712779 -0.087953 -0.38561
0.16711 -0.107035 -0.443191
-0.178529 -0.0761385 -0.443123
-0.179243 -0.0749893 -0.136296
-0.17924 -0.0749143 -0.115244
-0.179238 -0.0748769 -0.104734
-0.179234 -0.0747774 -0.0767574
-0.179231 -0.0747029 -0.0558239
-0.179228 -0.0746286 -0.0349321
-0.179225 -0.0745544 -0.0140818
-0.179221 -0.0744557 0.0136541
-0.179218 -0.0743818 0.034408
-0.179215 -0.0743081 0.0551207
-0.179212 -0.0742346 0.0757923
-0.179208 -0.0741367 0.103291
-0.179205 -0.0740635 0.123867
-0.179201 -0.0739904 0.144403
-0.179198 -0.0739175 0.164899
-0.179197 -0.0738811 0.175131
-0.179194 -0.0738084 0.195566
-0.17919 -0.0737116 0.22275
-0.179187 -0.0736393 0.243091
-0.179184 -0.0667236 0.263393
-0.179181 -0.0666582 0.283654
-0.179178 -0.0665929 0.303876
-0.179175 -0.0665278 0.324059
-0.179172 -0.0664628 0.344202
-0.179169 -0.0663979 0.364305
-0.179166 -0.0663332 0.38437
-0.179163 -0.0662685 0.404395
-0.17916 -0.0662041 0.424381
-0.179285 -0.0654086 -0.424678
-0.178737 -0.0653565 -0.396095
-0.179278 -0.0652543 -0.374271
-0.179274 -0.0651664 -0.345574
-0.179272 -0.0651335 -0.334833
-0.179268 -0.065046 -0.306242
-0.179265 -0.0649805 -0.284849
-0.17926 -0.0648933 -0.256392
-0.179257 -0.0648282 -0.235099
-0.179256 -0.0647956 -0.224469
-0.179252 -0.064709 -0.196173
-0.179249 -0.0646441 -0.175001
-0.179247 -0.0646118 -0.164431
-0.179042 -0.0548619 -0.442863
-0.179285 -0.0548018 -0.424678
-0.178737 -0.0547581 -0.396095
-0.179278 -0.0546725 -0.374271
-0.179274 -0.0545989 -0.345574
-0.179272 -0.0545713 -0.334833
-0.179268 -0.054498 -0.306242
-0.179243 -0.054062 -0.136296
-0.179241 -0.0470549 -0.122257
-0.179238 -0.0470079 -0.101233
-0.179235 -0.046961 -0.0802503
-0.179231 -0.0469143 -0.0593099
-0.179229 -0.0468753 -0.0418914
-0.179226 -0.0468287 -0.0210273
-0.179223 -0.0467822 -0.000204686
-0.17922 -0.0467358 0.0205766
-0.179217 -0.0466971 0.0378629
-0.179214 -0.0466509 0.0585688
-0.179211 -0.0466047 0.0792336
-0.179208 -0.0465586 0.0998576
-0.179205 -0.0465126 0.120441
-0.179203 -0.0464744 0.137563
-0.179199 -0.0464286 0.158071
-0.179196 -0.0463828 0.17854
-0.179193 -0.0463372 0.198968
-0.17919 -0.0462916 0.219356
-0.179187 -0.0462462 0.239704
-0.179184 -0.0462008 0.260012
-0.179181 -0.0461555 0.28028
-0.179179 -0.0461103 0.300509
-0.179176 -0.0460652 0.320698
-0.179172 -0.0460202 0.340847
-0.17917 -0.0459827 0.357608
-0.179167 -0.0459379 0.377686
-0.17893 -0.0459041 0.397806
-0.179161 -0.0458484 0.417724
-0.179158 -0.0458038 0.437684
-0.179265 -0.0368808 -0.284849
-0.17926 -0.0368314 -0.256392
-0.179257 -0.0367944 -0.235099
-0.179256 -0.0367759 -0.224469
-0.179252 -0.0367267 -0.196173
-0.179249 -0.0366899 -0.175001
-0.179247 -0.0366716 -0.164431
-0.179042 -0.0265461 -0.442863
-0.179285 -0.026517 -0.424678
-0.178737 -0.0264959 -0.396095
-0.179278 -0.0264544 -0.374271
-0.179273 -0.0264188 -0.345574
-0.179272 -0.0264055 -0.334833
-0.179268 -0.02637 -0.306242
-0.179243 -0.026159 -0.136296
-0.179239 -0.0261329 -0.115244
-0.179237 -0.0261199 -0.104734
-0.179233 -0.0260851 -0.0767575
-0.17923 -0.0260592 -0.055824
-0.179227 -0.0260332 -0.0349322
-0.179224 -0.0260073 -0.0140819
-0.17922 -0.0259729 0.0136541
-0.179217 -0.0259472 0.0344079
-0.179214 -0.0259214 0.0551206
-0.179211 -0.0258958 0.0757923
-0.179207 -0.0258617 0.103291
-0.179204 -0.0258361 0.123868
-0.179201 -0.0258106 0.144403
-0.179198 -0.0257852 0.164899
-0.179196 -0.0257725 0.175131
-0.179193 -0.0257471 0.195566
-0.179189 -0.0257134 0.22275
-0.179186 -0.0256881 0.243092
-0.179183 -0.0256629 0.263393
-0.179181 -0.0256378 0.283655
-0.179178 -0.0256127 0.303877
-0.179175 -0.0255876 0.324059
-0.179172 -0.0255626 0.344202
-0.179169 -0.0255377 0.364306
-0.179166 -0.0255127 0.38437
-0.179163 -0.0254879 0.404395
-0.17916 -0.0254631 0.424381
-0.179265 -0.0158061 -0.284849
-0.17926 -0.0157849 -0.256392
-0.179257 -0.015769 -0.235099
-0.179256 -0.0157611 -0.224469
-0.179251 -0.01574 -0.196173
-0.179248 -0.0157242 -0.175001
-0.179247 -0.0157164 -0.164431
-0.179042 -0.00530922 -0.442863
-0.179285 -0.00530341 -0.424678
-0.179281 -0.00529625 -0.395845
-0.179278 -0.0052909 -0.374271
-0.179273 -0.00528377 -0.345574
-0.179272 -0.0052811 -0.334833
-0.179268 -0.00527401 -0.306242
-0.179243 -0.00523182 -0.136296
-0.179239 -0.00522659 -0.115244
-0.179238 -0.00522398 -0.104734
-0.179234 -0.00521704 -0.0767574
-0.179231 -0.00521184 -0.0558239
-0.179228 -0.00520665 -0.0349321
-0.179225 -0.00520148 -0.0140818
-0.179221 -0.00519459 0.0136541
-0.179217 -0.00518944 0.034408
-0.179214 -0.0051843 0.0551206
-0.179211 -0.00517916 0.0757923
-0.179207 -0.00517234 0.103291
-0.179204 -0.00516723 0.123867
-0.179201 -0.00516213 0.144403
-0.179198 -0.00515704 0.164899
-0.179197 -0.0051545 0.175131
-0.179194 -0.00514943 0.195566
-0.17919 -0.00514268 0.22275
-0.179187 -0.00513763 0.243091
-0.179184 -0.00513259 0.263393
-0.179181 -0.00512756 0.283655
-0.179178 -0.00512254 0.303877
-0.179175 -0.00511753 0.324059
-0.179172 -0.00511253 0.344202
-0.179169 -0.00510754 0.364306
-0.179166 -0.00510256 0.38437
-0.179163 -0.00509759 0.404395
-0.17916 -0.00509263 0.424381
-0.179042 0.0053092 -0.442863
-0.179285 0.00530339 -0.424678
-0.179281 0.00529623 -0.395845
-0.179278 0.00529087 -0.374271
-0.179273 0.00528375 -0.345574
-0.179272 0.00528108 -0.334833
-0.179268 0.00527398 -0.306242
-0.179265 0.00526867 -0.284849
-0.17926 0.00526161 -0.256392
-0.179257 0.00525632 -0.235099
-0.179256 0.00525368 -0.224469
-0.179251 0.00524666 -0.196173
-0.179248 0.0052414 -0.175001
-0.179247 0.00523878 -0.164431
-0.179243 0.00523179 -0.136296
-0.179239 0.00522657 -0.115244
-0.179238 0.00522396 -0.104734
-0.179234 0.00521701 -0.0767574
-0.179231 0.00521181 -0.0558239
-0.179228 0.00520663 -0.0349321
-0.179225 0.00520145 -0.0140818
-0.17922 0.00519457 0.0136541
-0.179217 0.00518941 0.0344079
-0.179214 0.00518427 0.0551206
-0.179211 0.00517914 0.0757923
-0.179207 0.00517231 0.103291
-0.179204 0.00516721 0.123867
-0.179201 0.00516211 0.144403
-0.179198 0.00515702 0.164899
-0.179197 0.00515448 0.175131
-0.179194 0.00514941 0.195566
-0.17919 0.00514266 0.22275
-0.179187 0.00513761 0.243091
-0.179184 0.00513257 0.263393
-0.179181 0.00512754 0.283655
-0.179178 0.00512252 0.303877
-0.179175 0.00511751 0.324059
-0.179172 0.00511251 0.344202
-0.179169 0.00510752 0.364306
-0.179166 0.00510253 0.38437
-0.179163 0.00509756 0.404395
-0.17916 0.0050926 0.424381
-0.179219 0.02596 0.0240362
-0.179216 0.0259343 0.0447694
-0.179214 0.0259215 0.0551206
-0.179211 0.0258958 0.0757923
-0.179207 0.0258617 0.103291
-0.179204 0.0258361 0.123867
-0.179201 0.0258106 0.144403
-0.179198 0.0257852 0.164899
-0.179197 0.0257725 0.175131
-0.179194 0.0257471 0.195566
-0.17919 0.0257134 0.22275
-0.179186 0.0256881 0.243092
-0.179183 0.0256629 0.263393
-0.179181 0.0256378 0.283655
-0.179178 0.0256127 0.303877
-0.179175 0.0255876 0.324059
-0.179172 0.0255626 0.344202
-0.179169 0.0255377 0.364306
-0.179166 0.0255128 0.38437
-0.178555 0.0255037 0.404611
-0.17916 0.0254631 0.424381
-0.179042 0.033625 -0.442863
-0.179285 0.0335882 -0.424678
-0.179281 0.0335429 -0.395845
-0.179278 0.033509 -0.374271
-0.179273 0.0334638 -0.345574
-0.179272 0.033447 -0.334833
-0.179268 0.033402 -0.306242
-0.179264 0.0333684 -0.284849
-0.17926 0.0333236 -0.256392
-0.179257 0.0332901 -0.235099
-0.179256 0.0332734 -0.224469
-0.179251 0.0332289 -0.196173
-0.179248 0.0331957 -0.175002
-0.179247 0.033179 -0.164431
-0.179243 0.0331348 -0.136296
-0.179239 0.0331017 -0.115244
-0.179238 0.0330852 -0.104734
-0.179234 0.0330412 -0.0767574
-0.179231 0.0330083 -0.0558239
-0.179228 0.0329754 -0.0349321
-0.179224 0.0329426 -0.0140819
-0.179163 0.0458782 0.404395
-0.17916 0.0458336 0.424381
-0.179042 0.0548619 -0.442863
-0.179285 0.0548018 -0.424678
-0.179281 0.0547278 -0.395845
-0.179278 0.0546725 -0.374271
-0.179273 0.0545989 -0.345574
-0.179272 0.0545713 -0.334833
-0.179268 0.054498 -0.306242
-0.179264 0.0544431 -0.284849
-0.17926 0.0543701 -0.256392
-0.179257 0.0543155 -0.235099
-0.179255 0.0542882 -0.224469
-0.179251 0.0542156 -0.196173
-0.179248 0.0541613 -0.175002
-0.179247 0.0541342 -0.164431
-0.179242 0.054062 -0.136296
-0.179239 0.054008 -0.115244
-0.179238 0.0539811 -0.104734
-0.179234 0.0539093 -0.0767574
-0.179231 0.0538556 -0.0558239
-0.179228 0.053802 -0.0349321
-0.179224 0.0537485 -0.0140819
-0.17922 0.0536774 0.0136541
-0.179217 0.0536241 0.0344079
-0.179214 0.053571 0.0551206
-0.179211 0.053518 0.0757923
-0.179207 0.0534474 0.103291
-0.179204 0.0533946 0.123868
-0.179201 0.053342 0.144403
-0.179198 0.0532894 0.164899
-0.179197 0.0532631 0.175131
-0.179194 0.0532107 0.195566
-0.17919 0.053141 0.22275
-0.179186 0.0530888 0.243092
-0.179183 0.0530367 0.263393
-0.179181 0.0529847 0.283655
-0.179178 0.0529329 0.303877
-0.179175 0.0528811 0.324059
-0.179172 0.0528294 0.344202
-0.179169 0.0527778 0.364306
-0.179166 0.0527264 0.38437
-0.179042 0.0654803 -0.442863
-0.179285 0.0654086 -0.424678
-0.179281 0.0653203 -0.395845
-0.179278 0.0652543 -0.374271
-0.179273 0.0651664 -0.345574
-0.179272 0.0651335 -0.334833
-0.179268 0.065046 -0.306242
-0.179265 0.0755432 -0.291975
-0.179262 0.0754672 -0.270611
-0.179259 0.0753913 -0.24929
-0.179257 0.0753282 -0.231554
-0.179253 0.0752526 -0.210312
-0.17925 0.0751772 -0.189111
-0.179248 0.0751144 -0.171477
-0.179244 0.0750393 -0.150354
-0.179241 0.0749643 -0.129274
-0.179239 0.0749019 -0.111739
-0.179236 0.0748271 -0.0907363
-0.179233 0.0747525 -0.0697749
-0.17923 0.0746905 -0.0523391
-0.179227 0.0746162 -0.0314542
-0.179224 0.074542 -0.0106109
-0.179221 0.074468 0.0101911
-0.179218 0.0743941 0.0309518
-0.179215 0.0743327 0.0482209
-0.179212 0.0742591 0.0689063
-0.179209 0.0741856 0.0895507
-0.179206 0.0741123 0.110154
-0.179203 0.0740391 0.130717
-0.179201 0.0739783 0.147822
-0.179198 0.0739053 0.168311
-0.179195 0.0738326 0.188759
-0.179191 0.07376 0.209167
-0.179188 0.0736875 0.229535
-0.179185 0.0736152 0.249863
-0.179182 0.073543 0.270151
-0.179179 0.0734709 0.2904
-0.179177 0.073399 0.310608
-0.179174 0.0733272 0.330778
-0.179171 0.0732675 0.347555
-0.179168 0.073196 0.367652
-0.179165 0.0731247 0.38771
-0.179162 0.0730534 0.407729
-0.179159 0.0729823 0.427709
-0.179241 0.0854102 -0.125765
-0.179238 0.0853249 -0.104734
-0.179234 0.0852115 -0.0767574
-0.17923 0.0851266 -0.055824
-0.179228 0.0850419 -0.0349321
-0.179042 0.0937961 -0.442863
-0.179285 0.0936934 -0.424678
-0.179281 0.093567 -0.395845
-0.179277 0.0934723 -0.374271
-0.179273 0.0933465 -0.345574
-0.179272 0.0932994 -0.334833
-0.179267 0.093174 -0.306242
-0.179244 0.0959645 -0.146838
-0.179224 0.0953603 -0.0140819
-0.17922 0.095234 0.0136541
-0.179217 0.0951396 0.0344079
-0.179214 0.0950453 0.0551207
-0.179211 0.0949512 0.0757923
-0.179207 0.0948261 0.103291
-0.179204 0.0947324 0.123868
-0.179201 0.094639 0.144403
-0.179198 0.0945457 0.164899
-0.179197 0.0944991 0.175131
-0.179194 0.0944061 0.195566
-0.179189 0.0942824 0.22275
-0.179186 0.0941898 0.243092
-0.179183 0.0940974 0.263393
-0.179181 0.0940052 0.283655
-0.179178 0.0939131 0.303877
-0.179175 0.0938213 0.324059
-0.179172 0.0937296 0.344202
-0.179169 0.0936381 0.364306
-0.179166 0.0935468 0.38437
-0.179163 0.0934557 0.404395
-0.17916 0.0933647 0.424381
-0.179264 0.103618 -0.284849
-0.17926 0.103479 -0.256392
-0.179257 0.103375 -0.235099
-0.179255 0.103323 -0.224469
-0.179251 0.103185 -0.196173
-0.179248 0.103081 -0.175002
-0.17923 0.105974 -0.055824
-0.179227 0.105868 -0.0349321
-0.179211 0.10531 0.0757923
-0.179207 0.105171 0.103291
-0.179204 0.105067 0.123868
-0.179042 0.115033 -0.442863
-0.179285 0.114907 -0.424678
-0.179281 0.114752 -0.395845
-0.179277 0.114636 -0.374271
-0.179273 0.114482 -0.345574
-0.179272 0.114424 -0.334833
-0.179267 0.11427 -0.306242
-0.179241 0.113299 -0.125765
-0.179238 0.113186 -0.104734
-0.179234 0.113036 -0.0767574
-0.179219 0.115955 0.0240361
-0.179216 0.11584 0.0447694
-0.179214 0.115782 0.0551207
-0.179201 0.115287 0.144403
-0.179198 0.115174 0.164899
-0.179197 0.115117 0.175131
-0.179194 0.115004 0.195566
-0.179189 0.114853 0.22275
-0.179186 0.11474 0.243092
-0.179183 0.114628 0.263393
-0.17918 0.114515 0.283655
-0.179178 0.114403 0.303877
-0.179175 0.114291 0.324059
-0.179172 0.11418 0.344202
-0.179169 0.114068 0.364306
-0.179166 0.113957 0.38437
-0.179163 0.113846 0.404395
-0.17916 0.113735 0.424381
-0.179285 0.125514 -0.424678
-0.179281 0.125344 -0.395845
-0.179277 0.125218 -0.374271
-0.179273 0.125049 -0.345574
-0.179264 0.124692 -0.284849
-0.17926 0.124525 -0.256392
-0.179257 0.1244 -0.235099
-0.179255 0.124338 -0.224469
-0.179251 0.124171 -0.196173
-0.179248 0.124047 -0.175002
-0.179247 0.123985 -0.164431
-0.179224 0.123101 -0.0140819
-0.179209 0.125922 0.0929875
-0.179206 0.125798 0.113584
-0.179189 0.125138 0.22275
-0.179186 0.125016 0.243092
-0.179272 0.135548 -0.334833
-0.179267 0.135366 -0.306242
-0.179264 0.13523 -0.284849
-0.17926 0.135048 -0.256392
-0.179242 0.134283 -0.136296
-0.179239 0.134149 -0.115244
-0.179238 0.134082 -0.104734
-0.179234 0.133904 -0.0767574
-0.17923 0.13377 -0.055824
-0.179227 0.133637 -0.0349321
-0.179201 0.135936 0.144403
-0.179198 0.135802 0.164899
-0.179196 0.135735 0.175131
-0.179194 0.135601 0.195566
-0.179183 0.135158 0.263393
-0.17918 0.135026 0.283655
-0.179178 0.134893 0.303877
-0.179174 0.134761 0.324059
-0.179172 0.13463 0.344202
-0.179169 0.134498 0.364306
-0.179166 0.134367 0.38437
-0.179163 0.134236 0.404395
-0.17916 0.134106 0.424381
