ply
format ascii 1.0
comment Created by Open3D
element vertex 808
property double x
property double y
property double z
end_header
0.152663 -0.256715 0.375841
0.16229 -0.256594 0.363312
0.132125 -0.255334 0.375867
0.114059 -0.250876 0.375894
0.146238 -0.241145 0.36566
0.0890076 -0.244912 0.375566
0.0588647 -0.24497 0.374022
0.132076 -0.23556 0.366748
0.132953 -0.236507 0.35416
0.0273889 -0.245031 0.372409
0.106874 -0.232236 0.374395
0.0129484 -0.244758 0.371669
-0.0206147 -0.244816 0.36995
0.0820554 -0.232974 0.357381
-0.14134 -0.26077 0.366429
-0.0360288 -0.244532 0.36916
-0.138115 -0.260631 0.354058
-0.0557467 -0.244876 0.36815
0.0339726 -0.232975 0.363843
0.0528887 -0.232973 0.353569
-0.0925604 -0.244939 0.366264
0.011265 -0.236958 0.340348
-0.109494 -0.244643 0.365397
-0.00518864 -0.235998 0.342156
0.011294 -0.239878 0.318174
-0.126795 -0.24434 0.36451
0.0113181 -0.241732 0.299638
0.10439 -0.210634 0.370882
-0.00551355 -0.235998 0.31991
-0.145542 -0.240477 0.366432
0.0113432 -0.240673 0.280349
0.116981 -0.205958 0.362309
-0.086477 -0.232971 0.352689
-0.00585479 -0.235999 0.296545
0.142997 -0.256733 0.131316
0.162467 -0.256994 0.119667
0.0113694 -0.239569 0.260257
-0.00621361 -0.236 0.271974
0.114273 -0.250731 0.131355
-0.0065915 -0.236001 0.246101
0.103985 -0.191927 0.374678
-0.141344 -0.222029 0.366425
-0.00539964 -0.236002 0.231885
0.0114474 -0.241138 0.200441
0.118618 -0.187295 0.364731
0.0843559 -0.244727 0.130784
0.145154 -0.239567 0.120423
0.0114781 -0.239952 0.176852
0.0568878 -0.245063 0.129376
0.125144 -0.236299 0.13134
-0.124897 -0.211145 0.366264
0.0114939 -0.239338 0.164654
0.0326709 -0.244869 0.128135
0.0115268 -0.241494 0.139406
0.106202 -0.23235 0.129857
-0.149037 -0.260603 0.121897
0.120062 -0.174896 0.362335
-0.0351434 -0.243145 0.12466
-0.00657773 -0.236005 0.14282
0.0599442 -0.232981 0.120925
0.0778573 -0.232979 0.111194
-0.137164 -0.200693 0.366421
0.10232 -0.171361 0.37668
-0.108088 -0.244974 0.120921
-0.0893391 -0.242679 0.121882
0.00596762 -0.232979 0.117218
0.0115951 -0.238936 0.0851992
0.0116142 -0.241894 0.0708103
-0.12152 -0.195539 0.354007
-0.132028 -0.244176 0.119694
-0.0238176 -0.232977 0.116127
-0.00564945 -0.235999 0.0913361
-0.124743 -0.190429 0.366406
0.0116538 -0.240576 0.0409362
0.144342 -0.257044 -0.113733
0.162778 -0.256374 -0.120399
-0.00607812 -0.235999 0.0548882
0.104623 -0.210067 0.126706
0.0116955 -0.239189 0.00950581
0.118129 -0.207273 0.116706
0.0117281 -0.240052 -0.0151631
0.101932 -0.249464 -0.113675
0.119076 -0.247696 -0.113699
0.148332 -0.244769 -0.114223
-0.00506324 -0.235999 -0.00523382
0.0117623 -0.240951 -0.0408351
-0.127141 -0.221262 0.120011
0.0991197 -0.151397 0.376545
0.070768 -0.24471 -0.114976
-0.12064 -0.172312 0.366401
-0.0055086 -0.235999 -0.0480983
0.0292182 -0.245071 -0.117104
0.047874 -0.243062 -0.116148
0.127557 -0.234781 -0.113712
0.14168 -0.236932 -0.133279
0.118157 -0.145096 0.373009
-0.14632 -0.258934 -0.12315
-0.00394267 -0.235999 -0.0716298
0.102541 -0.18985 0.12991
0.0102516 -0.242889 -0.118076
0.0887516 -0.234581 -0.114054
0.114239 -0.23232 -0.115202
-0.0485935 -0.244784 -0.121091
0.118939 -0.187002 0.118396
0.087678 -0.232977 -0.12763
-0.0895292 -0.244633 -0.123189
-0.0688849 -0.242524 -0.122131
-0.125711 -0.202224 0.121867
-0.126534 -0.243937 -0.125084
-0.105249 -0.241802 -0.123994
0.0153179 -0.23298 -0.137223
0.0119256 -0.238027 -0.165313
0.0119532 -0.241619 -0.186632
0.148987 -0.256958 -0.352109
-0.146321 -0.240921 -0.12315
0.0119815 -0.24082 -0.208604
0.134577 -0.253537 -0.352092
0.162807 -0.254156 -0.371179
-0.0820228 -0.232981 -0.136943
0.0120109 -0.239996 -0.23126
0.110229 -0.250943 -0.352063
-0.128861 -0.152403 0.366413
0.0990789 -0.131743 0.372161
0.0992833 -0.170183 0.130779
-0.0053395 -0.236003 -0.22546
0.0120412 -0.239145 -0.254631
0.0120566 -0.24105 -0.266597
0.105419 -0.208937 -0.115797
0.148299 -0.243257 -0.354519
0.119063 -0.165908 0.126237
0.0120884 -0.240196 -0.291108
0.0703908 -0.244758 -0.352003
0.0904491 -0.243058 -0.352031
-0.11355 -0.147145 0.353776
-0.134982 -0.184441 0.12188
-0.141059 -0.222472 -0.123158
-0.00587285 -0.236001 -0.285007
0.0121213 -0.239314 -0.316426
0.00849611 -0.245052 -0.351921
0.0346048 -0.242884 -0.351957
0.129742 -0.234982 -0.352081
0.13443 -0.237191 -0.369055
-0.112989 -0.142304 0.365925
0.120297 -0.161139 0.113561
-0.0506178 -0.244912 -0.351844
-0.0288498 -0.243141 -0.351873
0.109755 -0.232088 -0.353567
0.120801 -0.121057 0.363436
-0.0951194 -0.243409 -0.351785
-0.0838711 -0.242513 -0.3518
-0.00739467 -0.236417 -0.351901
0.118293 -0.193358 -0.127215
0.0477219 -0.232974 -0.358431
0.0692434 -0.232974 -0.370136
0.101134 -0.188975 -0.11571
-0.135819 -0.204094 -0.123167
-0.12306 -0.205039 -0.136813
0.100096 -0.15007 0.132372
-0.128862 -0.131689 0.366412
0.104176 -0.112476 0.379268
0.11944 -0.146061 0.127016
0.0981765 -0.214542 -0.358859
0.116324 -0.213903 -0.364085
-0.121104 -0.161072 0.12186
0.10208 -0.172334 -0.113296
-0.112497 -0.121671 0.366389
-0.118508 -0.182338 -0.137938
0.117948 -0.163569 -0.116697
0.0987862 -0.194979 -0.356968
0.117782 -0.193983 -0.359347
-0.130598 -0.176835 -0.123174
0.0950878 -0.131813 0.122552
0.115771 -0.131754 0.111788
-0.116513 -0.142261 0.121858
0.113833 -0.0987179 0.362204
-0.130597 -0.163404 -0.123173
0.119471 -0.119794 0.127079
0.0971576 -0.148477 -0.114805
0.110734 -0.174253 -0.35046
-0.10956 -0.105299 0.353692
0.121835 -0.144521 -0.129242
-0.124744 -0.101857 0.366405
0.0854132 -0.0848691 0.387578
0.105325 -0.0835631 0.389354
0.0941333 -0.111282 0.127983
0.044696 -0.0840104 0.393059
0.0648692 -0.083643 0.385745
0.118628 -0.0823633 0.369245
0.118652 -0.0841982 0.350982
-0.120215 -0.144931 -0.123186
-0.112885 -0.145939 -0.137196
0.00295156 -0.0848882 0.380222
0.118677 -0.083467 0.331887
-0.114826 -0.163 -0.357297
0.104127 -0.128189 -0.119127
-0.040319 -0.0847773 0.376362
-0.020318 -0.0835829 0.378146
0.118704 -0.0827017 0.311901
0.118731 -0.0846762 0.290961
0.112895 -0.101005 0.121075
0.0930024 -0.147367 -0.359448
0.111179 -0.145453 -0.349048
-0.108634 -0.0873748 0.354586
-0.0863984 -0.0846593 0.372252
-0.0735373 -0.0839164 0.373399
0.11876 -0.083903 0.268996
0.0180395 -0.0759617 0.381568
0.118783 -0.0825735 0.251804
0.118815 -0.0846834 0.227857
0.11548 -0.114803 -0.111938
-0.126386 -0.0810727 0.368685
0.118839 -0.0833086 0.209078
0.0976703 -0.111732 -0.11351
0.120912 -0.132067 -0.365162
0.118874 -0.0824265 0.182867
0.118901 -0.0841139 0.16227
-0.111469 -0.137382 -0.362238
0.103661 -0.127383 -0.357226
0.118929 -0.0826314 0.140812
0.113823 -0.10403 -0.127659
0.118628 -0.0620892 0.369245
0.118677 -0.0649188 0.331887
0.118969 -0.0816666 0.110765
0.119 -0.0834609 0.0870755
0.119022 -0.0847016 0.0706952
0.0308591 -0.0613362 0.392464
0.119056 -0.0830972 0.0451911
0.11574 -0.111967 -0.350115
-0.0950998 -0.0649539 0.371475
0.0752222 -0.0574506 0.386669
0.0954463 -0.0565597 0.388473
0.115053 -0.0556959 0.390222
0.119091 -0.081418 0.0184964
0.119115 -0.0827048 -3.15905e-06
0.11914 -0.0840329 -0.0190968
0.0998573 -0.10805 -0.353647
0.0142986 -0.0574619 0.381234
0.0479961 -0.0554564 0.393065
0.118652 -0.0557004 0.350982
0.118775 -0.0619067 0.257606
0.119166 -0.0816086 -0.0388138
0.119193 -0.0829626 -0.059185
0.119221 -0.0843623 -0.0802435
-0.126386 -0.060436 0.368685
-0.0525963 -0.0574743 0.375267
-0.024273 -0.0563374 0.377793
0.118704 -0.0555864 0.311901
0.118731 -0.0569135 0.290961
0.118823 -0.0613043 0.221678
0.11925 -0.0818188 -0.102025
0.119295 -0.0839806 -0.136136
-0.0735373 -0.0554702 0.373399
0.118799 -0.0572104 0.239982
0.118874 -0.0606535 0.182867
0.11928 -0.0791866 -0.124567
0.119326 -0.0813163 -0.159896
0.119359 -0.0828009 -0.184523
0.119375 -0.0835638 -0.197177
0.11287 -0.0935595 -0.359334
0.118856 -0.0567836 0.196145
0.11892 -0.0595335 0.148063
0.118949 -0.0607953 0.126001
0.118969 -0.0616667 0.110765
0.11941 -0.0807666 -0.223198
0.119427 -0.0815318 -0.236578
0.119463 -0.0831067 -0.264114
0.119482 -0.0839171 -0.278284
0.119033 -0.0609541 0.0623212
0.119115 -0.0643259 -3.15905e-06
0.119521 -0.08096 -0.307471
0.119561 -0.0826031 -0.337843
0.118628 -0.0418152 0.369245
0.119 -0.0562084 0.0870755
0.119091 -0.0597065 0.0184964
0.119193 -0.0636689 -0.059185
0.119221 -0.0647431 -0.0802435
0.119624 -0.0803284 -0.385784
0.0307845 -0.0404619 0.392377
0.118783 -0.0449084 0.251804
0.119067 -0.0552286 0.0364293
0.119166 -0.0588341 -0.0388138
0.11925 -0.061863 -0.102025
0.119295 -0.0634975 -0.136136
0.119603 -0.0746784 -0.369472
-0.117312 -0.0424898 0.369494
0.0613816 -0.0374167 0.385434
0.0786369 -0.0369268 0.386973
0.0987562 -0.0363556 0.388768
0.118262 -0.0358018 0.390508
0.118856 -0.0445061 0.196145
0.11914 -0.0541545 -0.0190968
0.11928 -0.0588823 -0.124567
0.119326 -0.060466 -0.159896
-0.0362732 -0.0374174 0.376723
-0.024273 -0.0371003 0.377793
-0.00471854 -0.0365834 0.379538
0.118652 -0.0349746 0.350982
0.118677 -0.0357716 0.331887
0.118704 -0.0366057 0.311901
0.118731 -0.0374796 0.290961
0.118823 -0.0403711 0.221678
0.118874 -0.0419909 0.182867
0.119359 -0.0573237 -0.184523
0.11941 -0.0589378 -0.223198
0.119427 -0.0594962 -0.236578
0.119521 -0.0624549 -0.307471
0.119561 -0.0637224 -0.337843
-0.103905 -0.036301 0.37069
-0.0735373 -0.0355578 0.373399
0.11876 -0.0355521 0.268996
0.11892 -0.0402254 0.148063
0.118949 -0.0410779 0.126001
0.118969 -0.0416667 0.110765
0.119056 -0.0442006 0.0451911
0.119375 -0.0535665 -0.197177
0.119464 -0.0561531 -0.264113
0.119482 -0.0567007 -0.278284
0.119624 -0.0608549 -0.385784
0.119091 -0.0416136 0.0184965
0.119193 -0.0443753 -0.059185
0.119 -0.035769 0.0870755
0.119022 -0.0363007 0.0706952
0.119166 -0.0398554 -0.0388138
0.119235 -0.0415507 -0.0910416
0.119264 -0.0422699 -0.113198
0.11931 -0.0433967 -0.14791
0.119359 -0.0445851 -0.184523
0.048717 -0.0248198 0.381927
0.119115 -0.0349198 -3.15905e-06
0.11941 -0.0414747 -0.223198
0.119427 -0.0418677 -0.236578
0.119482 -0.0430926 -0.278284
0.119561 -0.0448417 -0.337843
0.119603 -0.0457707 -0.369472
-0.104229 -0.0247978 0.366566
0.0704877 -0.0220412 0.376401
0.0902775 -0.0217351 0.377286
0.114558 -0.0214057 0.37661
0.117339 -0.0247145 0.249267
0.119521 -0.0393234 -0.307471
0.119624 -0.0413813 -0.385784
-0.124746 -0.022143 0.366403
-0.0771612 -0.021644 0.362037
-0.0569956 -0.0213689 0.362929
-0.0373362 -0.0211007 0.363799
-0.0144203 -0.020789 0.364776
0.115794 -0.0224505 0.222371
0.117331 -0.0243988 0.137566
0.119464 -0.0336919 -0.264113
-0.108832 -0.0192581 0.354394
0.0134841 -0.0183242 0.334333
0.0332661 -0.0183246 0.323557
0.0530491 -0.018325 0.312781
0.0728329 -0.0183255 0.302004
0.0926292 -0.0183254 0.291245
0.108597 -0.018495 0.274128
0.113257 -0.0202255 0.185537
0.115072 -0.0215641 0.117986
0.11753 -0.0243723 -0.0230027
-0.111738 -0.0183218 0.236876
-0.079601 -0.0183224 0.219364
-0.0620704 -0.0183228 0.209812
-0.0416173 -0.0183232 0.198667
-0.0211632 -0.0183237 0.187521
-0.000708282 -0.0183241 0.176375
0.0197477 -0.0183245 0.165228
0.0402046 -0.0183249 0.154081
0.0577837 -0.0183236 0.144603
0.0782226 -0.0183247 0.133423
0.0986641 -0.0183259 0.122241
0.109482 -0.0186269 0.0986679
0.110761 -0.0189761 0.0774488
0.1115 -0.0192229 0.0625466
0.112944 -0.0198923 0.0224175
0.114572 -0.0209409 -0.0400966
0.115586 -0.021774 -0.0896083
0.115952 -0.0221295 -0.110698
0.117 -0.0232762 -0.178662
0.117309 -0.0236891 -0.203096
0.117468 -0.0239011 -0.21564
0.118828 -0.0262758 -0.355946
-0.121104 -0.0166626 0.12186
-0.114056 -0.018322 -0.00116301
-0.0854897 -0.0183225 -0.0167367
-0.0747767 -0.0183228 -0.0225773
-0.0462075 -0.0183234 -0.0381526
-0.0247793 -0.0183238 -0.0498345
0.00389606 -0.0183208 -0.0652083
0.0253015 -0.018322 -0.0769331
0.0538464 -0.0183236 -0.0925687
0.0752584 -0.0183248 -0.104297
0.103812 -0.0183264 -0.119938
0.109429 -0.018554 -0.139334
0.110633 -0.0188276 -0.159643
0.113391 -0.0199369 -0.240826
0.114816 -0.020851 -0.307263
-0.120216 -0.0156079 -0.123186
-0.123238 -0.0180924 -0.350998
0.0365362 -0.0174114 -0.374967
-0.124746 -0.00147621 0.366403
-0.109585 -0.00148316 0.353668
-0.123239 0.00258465 -0.350999
0.0370468 0.00392055 0.387917
-0.121103 0.00555418 0.121862
-0.120217 0.0066891 -0.123188
-0.119384 0.00684638 -0.157536
-0.115925 0.00693893 -0.179359
-0.110967 0.00706409 -0.209026
-0.109218 0.00713734 -0.225763
-0.109197 0.00723223 -0.246223
-0.109176 0.00732968 -0.267234
-0.109154 0.00742979 -0.288819
-0.109131 0.00753267 -0.311002
-0.109109 0.00763845 -0.333809
0.0406653 0.00746563 -0.377997
-0.109974 0.0076394 0.324962
-0.109956 0.00780378 0.303698
-0.109934 0.00801063 0.276941
-0.109923 0.00811822 0.263024
-0.109907 0.00826626 0.243875
-0.109891 0.00841979 0.224014
-0.109866 0.0086611 0.192801
-0.109843 0.008873 0.16539
-0.109834 0.0089607 0.154046
-0.109785 0.00942653 0.0937891
-0.109769 0.00957588 0.0744708
-0.109748 0.00978252 0.0477406
-0.109731 0.00994345 0.0269233
-0.109719 0.0100537 0.0126604
-0.109701 0.0102238 -0.00933719
-0.109676 0.0104597 -0.0398514
-0.109657 0.0106439 -0.0636775
-0.109643 0.0107703 -0.0800334
-0.109594 0.0112375 -0.140472
-0.110192 0.019637 -0.0977232
-0.110092 0.0231136 -0.347511
-0.110458 0.0252261 -0.169592
-0.110453 0.0255492 -0.188585
-0.110449 0.0258807 -0.20807
-0.110445 0.0262209 -0.228067
-0.11044 0.0265702 -0.248598
-0.110436 0.0269289 -0.269683
-0.110431 0.0272975 -0.291345
-0.110426 0.0276763 -0.313608
0.0361937 0.0273799 -0.375906
-0.124742 0.0191905 0.366406
-0.110765 0.0196386 0.336522
-0.110758 0.0275599 -0.0574045
-0.110757 0.0287358 -0.11588
-0.110756 0.0294539 -0.151591
-0.111002 0.0277557 0.117031
-0.111004 0.0280418 0.104699
-0.111009 0.0286322 0.0792573
-0.111014 0.029248 0.0527208
-0.111017 0.0297275 0.0320574
-0.111026 0.0302232 0.0106976
-0.111044 0.0309107 -0.0189243
-0.111228 0.038052 -0.326606
0.0621892 0.0370049 -0.37576
-0.111186 0.0275333 0.266319
-0.111193 0.0280341 0.247279
-0.111203 0.0286863 0.222482
-0.111219 0.0297954 0.180314
-0.111235 0.0303831 0.157973
-0.11125 0.0308394 0.140627
-0.111406 0.0356597 -0.0425928
-0.111672 0.0437675 -0.350777
-0.111363 0.0290931 0.323559
-0.111381 0.0299792 0.29342
0.0388404 0.0247391 0.390042
-0.111791 0.0408226 -0.0753072
-0.111819 0.0415619 -0.100447
-0.111953 0.0451014 -0.220808
-0.111975 0.0457002 -0.241169
-0.111999 0.046315 -0.262077
-0.112022 0.0469467 -0.283556
0.0409905 0.0472508 -0.377095
-0.112219 0.0468113 -0.127151
-0.112256 0.0476915 -0.154227
-0.112464 0.0526402 -0.306461
-0.04953 0.0533322 -0.361978
-0.0287026 0.0530455 -0.364477
-0.00808704 0.0527608 -0.366921
0.0123033 0.0524797 -0.369353
-0.11248 0.0488918 -0.0601762
-0.112667 0.0529286 -0.17354
-0.112711 0.0536106 -0.192686
-0.113027 0.0585112 -0.33026
-0.0758414 0.0588047 -0.358726
0.0622873 0.0567288 -0.375476
-0.112089 0.0378451 0.335211
-0.112469 0.0456672 0.133142
-0.112562 0.0475863 0.0835657
-0.112599 0.0483483 0.063883
-0.112638 0.049135 0.0435597
-0.112677 0.0499477 0.0225642
-0.112718 0.0507878 0.000862122
-0.113611 0.0645598 -0.354786
-0.044484 0.0639244 -0.375938
-0.124743 0.0398572 0.366405
-0.112687 0.0476614 0.172988
-0.112812 0.0501022 0.114614
-0.113325 0.0581506 -0.0778155
-0.113399 0.059208 -0.103093
-0.113813 0.0651295 -0.244651
-0.113844 0.0655666 -0.255101
-0.113906 0.0664588 -0.276429
-0.11397 0.0673756 -0.298346
-0.0647709 0.0693124 -0.371469
-0.112784 0.0475106 0.255107
-0.11283 0.0483856 0.235625
-0.112879 0.0492935 0.215412
0.0581134 0.0371367 0.393452
-0.113586 0.0599993 -0.0228603
-0.114052 0.0664603 -0.16664
-0.112878 0.0475806 0.322028
-0.112935 0.0486101 0.30059
-0.112995 0.0496852 0.278202
-0.114065 0.0649227 -0.0389823
-0.114392 0.0693378 -0.130879
-0.114456 0.0702059 -0.148947
-0.114659 0.0729456 -0.205971
-0.115133 0.0785737 -0.323083
-0.115239 0.079693 -0.346369
-0.0904067 0.079984 -0.365938
0.0365466 0.0431704 0.387324
-0.114587 0.0703807 -0.0635678
-0.102283 0.0849131 -0.354952
-0.114472 0.0675271 0.0678664
-0.114557 0.0686249 0.0476336
-0.114644 0.0697591 0.0267318
-0.114704 0.0705363 0.0124093
-0.116025 0.0852836 -0.259269
-0.116137 0.0864507 -0.280765
-0.113613 0.0554516 0.345809
-0.0354705 0.0516496 0.369755
-0.0174149 0.0506514 0.377379
0.00432175 0.0504084 0.369807
-0.114611 0.0681567 0.124361
-0.114722 0.0695737 0.0996642
-0.115669 0.080456 -0.0899628
-0.116117 0.0850679 -0.170299
-0.116224 0.0861655 -0.189419
-0.116333 0.0872917 -0.209038
-0.116863 0.0927471 -0.304068
-0.117127 0.0953977 -0.350239
-0.124743 0.0575715 0.366405
-0.0603042 0.0549318 0.375128
0.00775361 0.0520671 0.385612
-0.11577 0.080507 -0.0186619
-0.116302 0.085911 -0.107953
-0.116459 0.0875131 -0.134424
-0.11703 0.0933136 -0.230265
-0.117632 0.0992361 -0.328113
-0.0785702 0.0585606 0.37226
-0.116573 0.0877139 -0.0667641
-0.117123 0.0932397 -0.153595
-0.118625 0.106708 -0.365151
-0.116934 0.0904578 -0.0434935
-0.118546 0.105189 -0.264086
-0.118719 0.106638 -0.285785
-0.115189 0.0717395 0.284914
0.0499748 0.0580705 0.39149
-0.116724 0.0875892 0.0580483
-0.116869 0.0890293 0.0374385
-0.116969 0.0900159 0.0233181
-0.117736 0.0975865 -0.0850262
-0.118639 0.10519 -0.193769
-0.118806 0.106574 -0.213567
-0.119614 0.113283 -0.309509
-0.102277 0.0683462 0.368426
-0.0569136 0.0666605 0.366948
-0.115435 0.0739877 0.297981
-0.115715 0.0770065 0.256609
-0.11586 0.0784304 0.237103
0.0683865 0.0597261 0.394207
-0.116812 0.0877613 0.109275
-0.117001 0.0896154 0.083874
-0.119661 0.112915 -0.235166
-0.120533 0.120132 -0.333953
-0.120635 0.12099 -0.345712
0.0311803 0.0642019 0.388916
-0.117124 0.0901605 0.127061
-0.118218 0.100402 -0.00746
-0.119197 0.108426 -0.112801
-0.119362 0.109776 -0.13052
-0.119704 0.112579 -0.167316
-0.115996 0.0786599 0.31888
-0.11684 0.0868207 0.215892
-0.119177 0.107662 -0.0470206
-0.120177 0.115813 -0.149804
-0.121424 0.125316 -0.269585
-0.12167 0.127057 -0.291521
-0.128862 0.0784213 0.366412
-0.0848349 0.0771248 0.358289
-0.117345 0.0911439 0.204963
-0.119234 0.107568 0.00565773
-0.12149 0.125236 -0.208632
-0.121728 0.126908 -0.228902
-0.122878 0.135022 -0.327242
-0.117022 0.0875502 0.287456
-0.117957 0.0964848 0.182945
-0.118221 0.0988895 0.154823
-0.119359 0.108067 0.0475654
-0.119581 0.109866 0.0265374
-0.120212 0.114971 -0.0331194
-0.12055 0.117705 -0.0650761
-0.120814 0.119843 -0.0900591
-0.121782 0.126771 -0.170968
-0.122761 0.133643 -0.251204
-0.124133 0.143353 -0.364593
-0.119404 0.107965 0.0933239
-0.119619 0.109696 0.0737991
-0.122776 0.133248 -0.1916
-0.12425 0.14354 -0.307532
-0.103091 0.0869677 0.356032
-0.117298 0.0892999 0.338203
-0.117933 0.0952932 0.272877
-0.118211 0.0979219 0.244224
-0.119584 0.108976 0.123846
-0.122438 0.130425 -0.10962
-0.124672 0.145701 -0.275792
-0.117966 0.0951751 0.30838
-0.121816 0.125688 -0.0129055
-0.122242 0.128645 -0.0440068
-0.124757 0.145801 -0.224467
-0.126279 0.155148 -0.322692
-0.126825 0.158534 -0.358281
-0.122168 0.127739 0.00852442
-0.124131 0.141323 -0.129794
-0.124389 0.143113 -0.148025
-0.124836 0.145896 -0.176336
-0.125969 0.152834 -0.246916
-0.120074 0.11173 0.206944
-0.12049 0.115026 0.174388
-0.120855 0.117925 0.145754
-0.122199 0.127596 0.050301
-0.123974 0.139843 -0.0705448
-0.126011 0.152707 -0.19738
-0.127772 0.163461 -0.303383
-0.128367 0.166994 -0.338193
-0.128862 0.0991363 0.366412
-0.122328 0.128141 0.0829927
-0.124981 0.146067 -0.0885347
-0.125277 0.147873 -0.105796
-0.128127 0.165234 -0.271767
-0.119921 0.109853 0.288865
-0.122353 0.127993 0.120228
-0.122647 0.130011 0.101486
-0.123809 0.137986 0.0274003
-0.126563 0.155361 -0.133898
-0.128283 0.165817 -0.230926
-0.130016 0.1753 -0.318839
-0.120632 0.115156 0.269966
-0.120969 0.11781 0.245981
-0.121743 0.123513 0.194472
-0.124971 0.145382 -0.00289398
-0.125534 0.148795 -0.0336637
-0.125825 0.150562 -0.0495966
-0.127902 0.163158 -0.16316
-0.128438 0.166372 -0.192131
-0.129696 0.173226 -0.253858
-0.130365 0.176869 -0.286669
-0.1318 0.184639 -0.356634
-0.120019 0.110048 0.343594
-0.121782 0.123506 0.225373
-0.129822 0.173603 -0.213914
-0.125492 0.147974 0.0456425
-0.133513 0.192872 -0.337002
-0.134101 0.195724 -0.361266
-0.124138 0.139036 0.153082
-0.125539 0.147996 0.0786129
-0.129064 0.168922 -0.0951574
-0.130262 0.17542 -0.149065
-0.132244 0.186162 -0.23818
-0.13395 0.195469 -0.315392
-0.121808 0.122949 0.31301
-0.123623 0.135277 0.213111
-0.125583 0.148017 0.109923
-0.127236 0.157963 0.0294281
-0.129004 0.168344 -0.0545568
-0.131633 0.182578 -0.169612
-0.132305 0.186212 -0.198982
-0.133662 0.19391 -0.261245
-0.133002 0.120133 0.366417
-0.122727 0.128961 0.290372
-0.124786 0.142919 0.180084
-0.12588 0.149568 0.127614
-0.130466 0.176007 -0.0809119
-0.131283 0.180421 -0.115692
-0.133681 0.193762 -0.220865
-0.135814 0.203456 -0.297081
-0.124059 0.137759 0.247368
-0.129071 0.168236 0.0127068
-0.129986 0.173176 -0.0252688
-0.136409 0.205923 -0.27684
-0.122671 0.128139 0.345028
-0.125002 0.143863 0.226703
-0.129016 0.16772 0.0474402
-0.132687 0.187504 -0.101035
-0.134276 0.196025 -0.164981
-0.136357 0.205463 -0.235636
-0.138647 0.215856 -0.313434
-0.127377 0.157875 0.149025
-0.129132 0.168139 0.073711
-0.134279 0.195834 -0.129288
-0.136308 0.205027 -0.196497
-0.138206 0.213623 -0.259337
-0.124167 0.137854 0.319075
-0.125212 0.144735 0.269658
-0.126989 0.155348 0.193535
-0.129078 0.167648 0.105324
-0.129412 0.169445 0.0924558
-0.131009 0.17803 0.0309612
-0.131968 0.183187 -0.00597411
-0.132777 0.187532 -0.0370994
-0.138109 0.212972 -0.218992
-0.127121 0.155944 0.214177
-0.129188 0.16805 0.129291
-0.134284 0.195479 -0.0627952
-0.134819 0.197898 -0.0796924
-0.141003 0.225852 -0.274918
-0.137162 0.138255 0.366423
-0.125842 0.148139 0.291559
-0.128824 0.165901 0.169709
-0.133291 0.189721 0.00655723
-0.138859 0.215964 -0.172841
-0.141178 0.226438 -0.244393
-0.127495 0.157802 0.248377
-0.132898 0.187571 0.0487394
-0.137552 0.209877 -0.100528
-0.138751 0.215291 -0.136717
-0.141007 0.225469 -0.204756
-0.141348 0.227003 -0.215005
-0.125385 0.145065 0.35426
-0.128623 0.164337 0.227583
-0.132935 0.187582 0.0749996
-0.131534 0.179917 0.149548
-0.132971 0.187594 0.100202
-0.135033 0.198187 0.0321437
-0.13659 0.205201 -0.0128109
-0.137134 0.207651 -0.0285113
-0.138845 0.215364 -0.0779453
-0.127717 0.158622 0.307042
-0.128692 0.164407 0.270544
-0.133004 0.187604 0.124409
-0.141174 0.22567 -0.114802
-0.130683 0.175051 0.225255
-0.131323 0.178466 0.204171
-0.137819 0.210421 0.00713414
-0.139805 0.219348 -0.0478156
-0.143287 0.235014 -0.144252
-0.12942 0.168172 0.28785
-0.13722 0.207583 0.0494376
-0.145129 0.243148 -0.165233
-0.14134 0.159442 0.366429
-0.131285 0.177972 0.249006
-0.137419 0.208329 0.0689275
-0.129456 0.168097 0.326313
-0.134086 0.193233 0.179745
-0.1352 0.198233 0.150695
-0.137358 0.207918 0.0944282
-0.139736 0.218597 0.0323837
-0.14146 0.226347 -0.012642
-0.142062 0.229053 -0.0283684
-0.143958 0.237576 -0.0778884
-0.129406 0.167704 0.346538
-0.1373 0.207523 0.118915
-0.14608 0.246934 -0.105846
-0.132536 0.184217 0.271054
-0.144814 0.241101 -0.0477062
-0.135373 0.198647 0.209806
-0.141867 0.227754 0.0497075
-0.133235 0.187678 0.288345
-0.137838 0.209583 0.169807
-0.141996 0.228196 0.069226
-0.144362 0.238798 0.0119286
-0.13326 0.187685 0.305744
-0.135338 0.198272 0.249363
-0.139723 0.217901 0.145107
-0.142117 0.228622 0.0881651
-0.144759 0.240453 0.0253298
-0.147011 0.250537 -0.0282269
-0.148384 0.256688 -0.0608971
-0.141344 0.180305 0.366426
-0.132828 0.185267 0.335284
-0.138647 0.212976 0.190401
-0.141961 0.227809 0.112953
-0.14208 0.228228 0.13061
-0.148104 0.255174 -0.00774455
-0.138724 0.213106 0.226185
-0.140049 0.218919 0.214672
-0.142049 0.22786 0.170244
-0.146585 0.248129 0.0695318
-0.148833 0.258177 0.0196081
-0.146641 0.248259 0.0884946
-0.137022 0.205205 0.314731
-0.138721 0.212793 0.278209
-0.14008 0.218863 0.248993
-0.146695 0.248385 0.106897
-0.145541 0.198654 0.366432
-0.137893 0.209146 0.326338
-0.144555 0.238621 0.188809
-0.146803 0.248628 0.142113
-0.137653 0.207908 0.34667
-0.143332 0.233085 0.230954
-0.144364 0.237687 0.209795
-0.146847 0.248741 0.158984
