ply
format ascii 1.0
comment Created by Open3D
element vertex 641
property double x
property double y
property double z
end_header
0.114791 -0.11728 -0.42717
0.106133 -0.117307 -0.427171
-0.102849 -0.117945 -0.427185
-0.114525 -0.117981 -0.427185
-0.101559 -0.116501 -0.416596
-0.102849 -0.112121 -0.427185
-0.114525 -0.112155 -0.427185
0.149758 -0.10115 -0.461805
0.141481 -0.101173 -0.461805
0.130439 -0.101203 -0.461806
0.122153 -0.101226 -0.461807
0.111099 -0.101256 -0.461807
0.100038 -0.101287 -0.461808
0.0917386 -0.10131 -0.461809
0.0806665 -0.10134 -0.461809
0.0723581 -0.101363 -0.46181
0.0612743 -0.101394 -0.461811
0.0501839 -0.101424 -0.461811
0.0418617 -0.101447 -0.461812
0.0307595 -0.101478 -0.461813
0.0224285 -0.1015 -0.461813
0.0113147 -0.101531 -0.461814
0.000194144 -0.101562 -0.461815
-0.00815064 -0.101585 -0.461815
-0.019283 -0.101615 -0.461816
-0.0276366 -0.101638 -0.461817
-0.0387806 -0.101669 -0.461817
-0.0499315 -0.1017 -0.461818
-0.0582989 -0.101723 -0.461819
-0.0694615 -0.101753 -0.461819
-0.0778379 -0.101777 -0.46182
-0.0890123 -0.101807 -0.461821
-0.100193 -0.101838 -0.461822
-0.108584 -0.101861 -0.461822
-0.119777 -0.101892 -0.461823
-0.128176 -0.101915 -0.461823
-0.139381 -0.101946 -0.461824
-0.147789 -0.101969 -0.461825
0.147065 -0.0901213 -0.461371
0.13597 -0.0901069 -0.461735
0.124915 -0.0901259 -0.461806
0.116627 -0.0901463 -0.461807
0.105569 -0.0901733 -0.461808
0.0972722 -0.0901937 -0.461808
0.0862034 -0.0902208 -0.461809
0.075128 -0.090248 -0.46181
0.066817 -0.0902683 -0.46181
0.0557299 -0.0902955 -0.461811
0.0474102 -0.0903159 -0.461812
0.0363114 -0.0903431 -0.461812
0.025206 -0.0903703 -0.461813
0.0168725 -0.0903908 -0.461814
0.00575525 -0.090418 -0.461815
-0.00258703 -0.0904384 -0.461815
-0.013716 -0.0904657 -0.461816
-0.0248516 -0.090493 -0.461816
-0.0332078 -0.0905135 -0.461817
-0.0443552 -0.0905409 -0.461818
-0.0527202 -0.0905614 -0.461818
-0.0638794 -0.0905887 -0.461819
-0.0750454 -0.0906161 -0.46182
-0.0834243 -0.0906366 -0.46182
-0.094602 -0.090664 -0.461821
-0.10299 -0.0906846 -0.461822
-0.114179 -0.090712 -0.461823
-0.122576 -0.0907326 -0.461823
-0.13379 -0.0907669 -0.461764
-0.145058 -0.0908257 -0.461493
0.147065 -0.0818024 -0.461371
0.13597 -0.0817894 -0.461735
0.124915 -0.0818066 -0.461806
0.116627 -0.0818251 -0.461807
0.105569 -0.0818496 -0.461808
0.0972722 -0.0818681 -0.461808
0.0862034 -0.0818927 -0.461809
0.075128 -0.0819174 -0.46181
0.066817 -0.0819359 -0.46181
0.0557299 -0.0819605 -0.461811
0.0474102 -0.0819791 -0.461812
0.0363114 -0.0820038 -0.461812
0.025206 -0.0820285 -0.461813
0.0168725 -0.082047 -0.461814
0.00575525 -0.0820717 -0.461815
-0.00258703 -0.0820903 -0.461815
-0.013716 -0.0821151 -0.461816
-0.0248516 -0.0821398 -0.461816
-0.0332078 -0.0821584 -0.461817
-0.0443552 -0.0821832 -0.461818
-0.0527202 -0.0822018 -0.461818
-0.0638794 -0.0822267 -0.461819
-0.0750454 -0.0822515 -0.46182
-0.0834243 -0.0822702 -0.46182
-0.094602 -0.0822951 -0.461821
-0.10299 -0.0823137 -0.461822
-0.114179 -0.0823386 -0.461823
-0.122576 -0.0823573 -0.461823
-0.13379 -0.0823885 -0.461764
-0.145058 -0.0824417 -0.461493
0.147065 -0.0707105 -0.461371
0.13597 -0.0706993 -0.461735
0.124915 -0.0707142 -0.461806
0.116627 -0.0707301 -0.461807
0.105569 -0.0707514 -0.461808
0.0972722 -0.0707673 -0.461808
0.0862034 -0.0707886 -0.461809
0.075128 -0.0708099 -0.46181
0.066817 -0.0708259 -0.46181
0.0557299 -0.0708472 -0.461811
0.0474102 -0.0708632 -0.461812
0.0363114 -0.0708846 -0.461812
0.025206 -0.0709059 -0.461813
0.0168725 -0.070922 -0.461814
0.00575525 -0.0709433 -0.461815
-0.00258703 -0.0709594 -0.461815
-0.013716 -0.0709808 -0.461816
-0.0248516 -0.0710022 -0.461816
-0.0332078 -0.0710183 -0.461817
-0.0443552 -0.0710397 -0.461818
-0.0527202 -0.0710558 -0.461818
-0.0638794 -0.0710773 -0.461819
-0.0750454 -0.0710988 -0.46182
-0.0834243 -0.0711149 -0.46182
-0.094602 -0.0711364 -0.461821
-0.10299 -0.0711525 -0.461822
-0.114179 -0.071174 -0.461823
-0.122576 -0.0711902 -0.461823
-0.13379 -0.0712171 -0.461764
-0.145058 -0.0712632 -0.461493
0.147065 -0.0623916 -0.461371
0.13597 -0.0623817 -0.461735
0.124915 -0.0623949 -0.461806
0.116627 -0.0624089 -0.461807
0.105569 -0.0624277 -0.461808
0.0972722 -0.0624418 -0.461808
0.0862034 -0.0624606 -0.461809
0.075128 -0.0624794 -0.46181
0.066817 -0.0624935 -0.46181
0.0557299 -0.059734 -0.461811
0.0474102 -0.0597475 -0.461812
0.0363114 -0.0597654 -0.461812
0.025206 -0.0597835 -0.461813
0.0168725 -0.059797 -0.461814
0.00575525 -0.059815 -0.461815
-0.00258703 -0.0598285 -0.461815
-0.013716 -0.0598466 -0.461816
-0.0248516 -0.0598646 -0.461816
-0.0332078 -0.0598782 -0.461817
-0.0443552 -0.0598963 -0.461818
-0.0527202 -0.0599098 -0.461818
-0.0638794 -0.0599279 -0.461819
-0.0750454 -0.059946 -0.46182
-0.0834243 -0.0599596 -0.46182
-0.094602 -0.0599777 -0.461821
-0.10299 -0.0599913 -0.461822
-0.114179 -0.0600095 -0.461823
-0.122576 -0.0600231 -0.461823
-0.13379 -0.0600458 -0.461764
-0.145058 -0.0600847 -0.461493
0.147082 -0.0513071 -0.461259
0.135987 -0.0512993 -0.461617
0.12493 -0.0513102 -0.461688
0.11664 -0.0513217 -0.461689
0.105581 -0.0513371 -0.46169
0.0972826 -0.0513486 -0.461691
0.0862121 -0.051364 -0.461693
0.0751351 -0.0513795 -0.461694
0.0668229 -0.051391 -0.461695
0.0557341 -0.0514064 -0.461697
0.0474132 -0.051418 -0.461698
0.0363128 -0.0514335 -0.461699
0.0252057 -0.0514489 -0.4617
0.016871 -0.0514605 -0.461701
0.00575225 -0.051476 -0.461703
-0.00259119 -0.0514876 -0.461704
-0.0137217 -0.0515031 -0.461705
-0.0248588 -0.0515186 -0.461707
-0.0332161 -0.0515302 -0.461708
-0.044365 -0.0515457 -0.461709
-0.0527311 -0.0515574 -0.46171
-0.0638918 -0.0515729 -0.461712
-0.0750591 -0.0515885 -0.461713
-0.0834391 -0.0516001 -0.461714
-0.0946183 -0.0516157 -0.461715
-0.103007 -0.0516273 -0.461716
-0.114198 -0.0516429 -0.461718
-0.122596 -0.0516546 -0.461719
-0.133811 -0.0516741 -0.461661
-0.145079 -0.0517073 -0.461394
0.145744 -0.0474374 -0.432417
0.136637 -0.0472249 -0.436271
0.129465 -0.0465646 -0.447793
-0.0564901 -0.046528 -0.45242
-0.0649937 -0.0465557 -0.452125
-0.0735068 -0.0465832 -0.451835
-0.0848636 -0.0466159 -0.451516
-0.0933916 -0.0466404 -0.451278
-0.104772 -0.0466717 -0.450983
-0.113318 -0.0466951 -0.450763
-0.124959 -0.0467985 -0.449233
-0.134827 -0.0471986 -0.442559
-0.143937 -0.0473479 -0.440183
0.147816 -0.040459 -0.456438
0.141677 -0.0402609 -0.46045
0.130497 -0.0402265 -0.461363
0.122184 -0.0402264 -0.461544
0.111121 -0.0402357 -0.4616
0.100058 -0.040248 -0.461596
0.0917563 -0.0402572 -0.461594
0.0806815 -0.0402696 -0.46159
0.0723709 -0.0402788 -0.461588
0.0612842 -0.0402911 -0.461585
0.0501907 -0.0403035 -0.461582
0.0418661 -0.0403128 -0.461579
0.0307607 -0.0403251 -0.461575
0.0224272 -0.0403344 -0.461573
0.0113099 -0.0403468 -0.461569
0.000185724 -0.0403591 -0.461566
-0.00816186 -0.0403685 -0.461563
-0.019298 -0.0403809 -0.461559
-0.0276546 -0.0403902 -0.461556
-0.0388027 -0.0404026 -0.461553
-0.0499576 -0.040415 -0.461549
-0.0583283 -0.0404243 -0.461546
-0.0694953 -0.0404367 -0.461543
-0.0778749 -0.0404461 -0.461541
-0.0890539 -0.0404585 -0.461538
-0.10024 -0.0404709 -0.461534
-0.108634 -0.0404803 -0.461531
-0.119832 -0.0404928 -0.461527
-0.128271 -0.0405118 -0.461337
-0.139629 -0.0405595 -0.460645
0.147558 -0.0320197 -0.458133
0.141596 -0.0319085 -0.46101
0.130427 -0.0318825 -0.461891
0.122121 -0.0318824 -0.462072
0.111064 -0.0318897 -0.46213
0.100008 -0.0318992 -0.462131
0.0917121 -0.0319064 -0.462132
0.0806446 -0.031916 -0.462132
0.0723395 -0.0319232 -0.462133
0.0612603 -0.0319328 -0.462134
0.0501744 -0.0319425 -0.462135
0.0418556 -0.0319497 -0.462135
0.0307579 -0.0319593 -0.462136
0.0224304 -0.0319665 -0.462136
0.0113211 -0.0319762 -0.462137
0.00020507 -0.0319858 -0.462138
-0.00813631 -0.031993 -0.462138
-0.0192641 -0.0320027 -0.462139
-0.0276143 -0.0320099 -0.46214
-0.0387538 -0.0320196 -0.46214
-0.0499 -0.0320293 -0.462141
-0.0582641 -0.0320365 -0.462142
-0.0694221 -0.0320462 -0.462143
-0.077795 -0.0320535 -0.462143
-0.0889649 -0.0320631 -0.462144
-0.100141 -0.0320728 -0.462145
-0.108528 -0.0320801 -0.462145
-0.119717 -0.0320898 -0.462146
-0.128148 -0.0321045 -0.461964
-0.139488 -0.0321406 -0.461316
0.147558 -0.0208824 -0.458133
0.141596 -0.0208099 -0.46101
0.130427 -0.0207929 -0.461891
0.122121 -0.0207929 -0.462072
0.111064 -0.0207976 -0.46213
0.100008 -0.0208038 -0.462131
0.0917121 -0.0208085 -0.462132
0.0806446 -0.0208148 -0.462132
0.0723395 -0.0208195 -0.462133
0.0612603 -0.0208258 -0.462134
0.0501744 -0.020832 -0.462135
0.0418556 -0.0208367 -0.462135
0.0307579 -0.020843 -0.462136
0.0224304 -0.0208477 -0.462136
0.0113211 -0.020854 -0.462137
0.00020507 -0.0208603 -0.462138
-0.00813631 -0.020865 -0.462138
-0.0192641 -0.0208713 -0.462139
-0.0276143 -0.020876 -0.46214
-0.0387538 -0.0208823 -0.46214
-0.0499 -0.0208886 -0.462141
-0.0582641 -0.0208934 -0.462142
-0.0694221 -0.0208997 -0.462143
-0.077795 -0.0209044 -0.462143
-0.0889649 -0.0209107 -0.462144
-0.100141 -0.0209171 -0.462145
-0.108528 -0.0209218 -0.462145
-0.119717 -0.0209281 -0.462146
-0.128148 -0.0209377 -0.461964
-0.139488 -0.0209613 -0.461316
0.144458 -0.0124956 -0.46034
0.13597 -0.0124763 -0.461738
0.12489 -0.0124757 -0.462011
0.11659 -0.0124767 -0.46213
0.105537 -0.0124804 -0.462131
0.0972434 -0.0124832 -0.462131
0.0861791 -0.012487 -0.462132
0.0751083 -0.0124908 -0.462133
0.0668007 -0.0124936 -0.462134
0.0557181 -0.0124973 -0.462134
0.0474018 -0.00972235 -0.462135
0.0363076 -0.00972528 -0.462135
0.0252067 -0.00972821 -0.462136
0.0168766 -0.00973041 -0.462137
0.00576389 -0.00973334 -0.462138
-0.00257497 -0.00973555 -0.462138
-0.0136994 -0.00973848 -0.462139
-0.0248304 -0.00974142 -0.462139
-0.0331832 -0.00974363 -0.46214
-0.044326 -0.00974657 -0.462141
-0.0526876 -0.00974878 -0.462141
-0.0638423 -0.00975172 -0.462142
-0.0750036 -0.00975467 -0.462143
-0.0833791 -0.00975688 -0.462144
-0.0945523 -0.00975982 -0.462144
-0.102937 -0.00976204 -0.462145
-0.114122 -0.00976499 -0.462146
-0.122526 -0.00976794 -0.462087
-0.133774 -0.00977395 -0.461841
-0.145447 -0.00980337 -0.459704
0.147558 -0.00139217 -0.458133
0.141596 -0.00138733 -0.46101
0.130427 -0.0013862 -0.461891
0.122121 -0.0013862 -0.462072
0.111064 -0.00138652 -0.46213
0.100008 -0.00138693 -0.462131
0.0917121 -0.00138724 -0.462132
0.0806446 -0.00138766 -0.462132
0.0723395 -0.00138798 -0.462133
0.0612603 -0.00138839 -0.462134
0.0501744 -0.00138881 -0.462135
0.0418556 -0.00138912 -0.462135
0.0307579 -0.00138954 -0.462136
0.0224304 -0.00138986 -0.462136
0.0113211 -0.00139028 -0.462137
0.00020507 -0.0013907 -0.462138
-0.00813631 -0.00139101 -0.462138
-0.0192641 -0.00139143 -0.462139
-0.0276143 -0.00139175 -0.46214
-0.0387538 -0.00139217 -0.46214
-0.0499 -0.00139259 -0.462141
-0.0582641 -0.0013929 -0.462142
-0.0694221 -0.00139332 -0.462143
-0.077795 -0.00139364 -0.462143
-0.0889649 -0.00139406 -0.462144
-0.100141 -0.00139448 -0.462145
-0.108528 -0.0013948 -0.462145
-0.119717 -0.00139522 -0.462146
-0.128148 -0.00139586 -0.461964
-0.139488 -0.00139743 -0.461316
0.142425 0.00978144 -0.455295
0.131016 0.00975855 -0.457398
0.119887 0.00975947 -0.457563
0.111555 0.00976207 -0.457531
0.100444 0.00976631 -0.457426
0.0921085 0.00977002 -0.457304
0.0809877 0.00977557 -0.457092
0.0698552 0.00978136 -0.456862
0.0614904 0.00978376 -0.456847
0.05033 0.00978662 -0.456854
0.0419558 0.00978894 -0.456846
0.0307839 0.0097921 -0.45683
0.0224003 0.00979446 -0.456818
0.011215 0.00979811 -0.456763
2.0612e-05 0.00980206 -0.456682
-0.00837571 0.00980353 -0.456744
-0.0195746 0.00980545 -0.456828
-0.0279805 0.00980758 -0.456836
-0.039194 0.00981042 -0.456847
-0.0476084 0.00981255 -0.456855
-0.0588352 0.00981561 -0.456847
-0.0700654 0.00981831 -0.45687
-0.0784705 0.00981832 -0.45705
-0.0896774 0.00981834 -0.457289
-0.0980912 0.00981904 -0.457413
-0.10932 0.00982057 -0.45753
-0.117749 0.00982206 -0.45759
-0.129028 0.00982636 -0.457484
-0.137616 0.00983688 -0.456815
0.128105 0.0128852 -0.436098
0.124352 0.0127681 -0.44357
0.115817 0.0127632 -0.444062
0.1073 0.0127603 -0.44443
0.096013 0.0127678 -0.444199
0.0847407 0.0127815 -0.443572
0.0762256 0.0127803 -0.443836
0.0648764 0.0127791 -0.444152
0.0563803 0.0127845 -0.443996
0.045045 0.0127945 -0.443607
0.0365343 0.0128052 -0.443113
0.0251645 0.0128195 -0.442453
0.0166302 0.0128181 -0.442728
0.00525816 0.0128138 -0.443246
-0.00327105 0.0128127 -0.443493
-0.0146577 0.0128165 -0.443502
-0.0232021 0.0128193 -0.443509
-0.0345873 0.0128203 -0.44369
-0.0431257 0.0128207 -0.443845
-0.0545113 0.0128213 -0.444052
-0.0630675 0.0128241 -0.444059
-0.0745107 0.0128315 -0.443838
-0.0831017 0.0128371 -0.443672
-0.0945577 0.0128434 -0.443519
-0.10314 0.0128465 -0.443509
-0.114716 0.012862 -0.442778
-0.123586 0.0128883 -0.441309
0.0284707 0.022172 -0.106499
0.0246754 0.0200872 -0.214249
0.0174164 0.0200108 -0.218351
0.00627424 0.0202475 -0.206365
-0.00160104 0.0206253 -0.187027
-0.00603365 0.0210649 -0.164416
-0.0165371 0.0248921 0.0330144
-0.0158506 0.0221896 -0.106541
-0.0164458 0.0205606 -0.190684
-0.0173548 0.0193271 -0.254412
-0.0203647 0.0191249 -0.264918
-0.0305079 0.0190336 -0.269849
-0.040879 0.0190343 -0.270037
-0.0478308 0.0190442 -0.269673
-0.0554058 0.0191979 -0.261901
-0.0600048 0.0194469 -0.249137
-0.0871331 0.0245212 0.0123404
-0.0870526 0.023583 -0.0361103
-0.087056 0.0227295 -0.0801892
-0.0870554 0.0219349 -0.121226
-0.087061 0.0211952 -0.159431
-0.0870694 0.0205043 -0.195114
-0.0870727 0.0198562 -0.228585
-0.0870734 0.0192474 -0.260026
-0.0871577 0.0186885 -0.288891
-0.0892371 0.0184794 -0.299735
-0.0992727 0.0184748 -0.300186
-0.109368 0.018479 -0.300187
-0.119468 0.0184832 -0.300188
-0.129572 0.0184874 -0.300189
-0.139681 0.0184916 -0.300189
-0.150214 0.0185397 -0.297933
0.0335847 0.0312952 0.116129
0.0283513 0.024212 -0.193519
-0.00140637 0.0242088 -0.194299
-0.0155928 0.0260659 -0.113448
-0.0645671 0.0232447 -0.237785
0.0321593 0.0284117 -0.175456
0.0246654 0.027514 -0.209615
0.00259216 0.0276164 -0.206213
-0.00967819 0.0285838 -0.169838
-0.0161091 0.0278194 -0.198926
-0.0870554 0.0299113 -0.121226
-0.087061 0.0289025 -0.159431
-0.0870694 0.0279603 -0.195114
0.0173969 0.0309895 -0.216221
0.00641401 0.0310796 -0.213449
-0.00927518 0.032038 -0.181757
-0.0154981 0.0340103 -0.115983
-0.0177274 0.0301206 -0.246015
-0.0206912 0.0297608 -0.258101
-0.0271734 0.029482 -0.267558
-0.0339613 0.0294142 -0.269969
-0.0443288 0.0294139 -0.270202
-0.0548368 0.0294643 -0.268743
-0.0629203 0.0298497 -0.256039
-0.087056 0.0351274 -0.0801892
-0.0870727 0.0306867 -0.228585
-0.0870734 0.0297459 -0.260026
-0.0871577 0.0288822 -0.288891
-0.0892371 0.028559 -0.299735
-0.0992727 0.028552 -0.300186
-0.109368 0.0285584 -0.300187
-0.119468 0.0285649 -0.300188
-0.129572 0.0285714 -0.300189
-0.139681 0.0285779 -0.300189
-0.150214 0.0286522 -0.297933
0.0283507 0.0353718 -0.193968
-0.00501769 0.0352624 -0.197956
-0.00906125 0.0355954 -0.188084
-0.0725901 0.0342762 -0.228895
-0.0870554 0.0378876 -0.121226
0.0321959 0.0400528 -0.167978
0.0209927 0.0385774 -0.208131
0.0100911 0.0383345 -0.214935
-0.0131125 0.0396486 -0.179885
-0.0183077 0.0376916 -0.232939
-0.0713092 0.0373965 -0.242062
-0.087061 0.0404635 -0.159431
-0.0870694 0.0391444 -0.195114
-0.0870727 0.0379071 -0.228585
0.0283624 0.0431646 -0.185418
0.0246404 0.0426611 -0.197934
-0.00100309 0.0422207 -0.209363
-0.00875609 0.0427236 -0.197109
-0.0186759 0.0416175 -0.224641
-0.0212863 0.0407681 -0.245679
-0.0243241 0.0403718 -0.255531
-0.0307287 0.0399506 -0.266073
-0.0408632 0.0397896 -0.270267
-0.0477779 0.0397916 -0.270368
-0.0582381 0.0398351 -0.269517
-0.066091 0.0402392 -0.259704
-0.0706136 0.0406679 -0.249212
-0.0870734 0.0402445 -0.260026
-0.0871577 0.0390759 -0.288891
-0.0892371 0.0386387 -0.299735
-0.0992727 0.0386292 -0.300186
-0.109368 0.0386379 -0.300187
-0.119468 0.0386467 -0.300188
-0.129572 0.0386554 -0.300189
-0.139681 0.0386642 -0.300189
-0.150214 0.0387647 -0.297933
-0.019153 0.0457099 -0.213892
-0.087061 0.0481708 -0.159431
0.0283839 0.0514174 -0.169723
0.0172951 0.049746 -0.205128
0.0100675 0.0493566 -0.213477
-0.000902565 0.0493849 -0.213118
-0.00851255 0.0498112 -0.204312
-0.016666 0.0507233 -0.185295
-0.0218607 0.0484287 -0.233687
-0.0247301 0.0477687 -0.247636
-0.074186 0.0477598 -0.248885
-0.0791258 0.0484019 -0.235481
-0.0870694 0.0503286 -0.195114
0.0246105 0.054503 -0.18397
0.0209183 0.0539447 -0.194986
-0.0197739 0.0537385 -0.1999
-0.0311195 0.0507141 -0.259389
-0.0375835 0.0503068 -0.267507
-0.0477635 0.0501623 -0.270557
-0.058154 0.0501773 -0.270487
-0.0692972 0.0505848 -0.262744
-0.0870734 0.050743 -0.260026
-0.0871577 0.0492696 -0.288891
-0.0892371 0.0487184 -0.299735
-0.0992727 0.0487063 -0.300186
-0.109368 0.0487174 -0.300187
-0.119468 0.0487284 -0.300188
-0.129572 0.0487394 -0.300189
-0.139681 0.0487505 -0.300189
-0.150214 0.0488772 -0.297933
0.0245911 0.0587557 -0.174919
-0.0202421 0.0580208 -0.189351
-0.0225113 0.0563452 -0.220106
0.0136024 0.0608581 -0.20422
0.00641519 0.0603275 -0.213508
-0.00453355 0.0603162 -0.213939
-0.0121319 0.060778 -0.206151
-0.0254514 0.0591997 -0.233609
-0.0284141 0.0585429 -0.244979
-0.0314594 0.0580473 -0.253576
-0.0728343 0.0575926 -0.262293
-0.0820035 0.0587785 -0.242075
-0.0870859 0.0595753 -0.228466
-0.0870734 0.057742 -0.260026
0.0171818 0.0652459 -0.192789
-0.0232181 0.0645256 -0.205349
-0.0379076 0.0610203 -0.262561
-0.047795 0.0605663 -0.270143
-0.0581377 0.0605471 -0.270676
-0.0686642 0.0606488 -0.269252
-0.0813977 0.061994 -0.247691
-0.0871688 0.0594691 -0.288797
-0.0892378 0.0587984 -0.299729
-0.0992735 0.0587838 -0.30018
-0.109369 0.0587972 -0.300181
-0.119469 0.0588105 -0.300181
-0.129573 0.0588238 -0.300182
-0.139682 0.0588372 -0.300183
-0.150218 0.0589911 -0.297911
0.020746 0.0708093 -0.164537
0.0171286 0.069352 -0.18699
0.00992652 0.0682033 -0.204782
0.00276346 0.0676403 -0.21358
-0.00451874 0.0675953 -0.214428
-0.0158502 0.0682082 -0.205262
-0.024119 0.069439 -0.186542
-0.0260364 0.0671171 -0.222233
0.0134766 0.0726033 -0.194316
-0.0291051 0.0700513 -0.232404
-0.0321097 0.0693658 -0.242455
-0.0351462 0.0687934 -0.250857
-0.0382374 0.06834 -0.257528
-0.047875 0.0675603 -0.269092
-0.0721399 0.06759 -0.269182
-0.0803507 0.0684111 -0.257397
-0.0850235 0.0691332 -0.246979
0.0169717 0.0780837 -0.169893
-0.023623 0.0761978 -0.196896
-0.0581213 0.070913 -0.270864
-0.0877191 0.0721465 -0.254409
-0.0874197 0.0698171 -0.286679
-0.0892654 0.0688945 -0.299502
-0.0993042 0.0688778 -0.299949
-0.109402 0.0688935 -0.299948
-0.119505 0.0689092 -0.299948
-0.129612 0.068925 -0.299947
-0.139723 0.0689407 -0.299947
0.0133153 0.0810122 -0.181604
0.00620805 0.0794034 -0.203011
-0.000903044 0.0786513 -0.2131
-0.00814483 0.0785051 -0.215188
-0.0194161 0.0790703 -0.207962
-0.0310915 0.0854497 -0.123932
-0.0299356 0.0783813 -0.217291
-0.0795493 0.0748641 -0.264826
0.00968806 0.0841154 -0.190074
-0.0315978 0.0844261 -0.187039
-0.0329752 0.0812113 -0.227653
-0.0358174 0.0802357 -0.240031
-0.0388527 0.0795987 -0.248138
-0.0449814 0.0785736 -0.261211
-0.0513974 0.0780163 -0.268385
-0.0581315 0.0778407 -0.270746
-0.0685018 0.0778446 -0.27092
-0.0881024 0.07945 -0.251073
0.0095646 0.0884841 -0.182459
0.00248273 0.0906197 -0.201506
-0.00104211 0.0900742 -0.207906
-0.00810719 0.0893632 -0.216301
-0.0190723 0.0894345 -0.215709
-0.0366093 0.088471 -0.227257
-0.0789856 0.0848585 -0.270051
-0.0870652 0.085732 -0.260097
-0.0396581 0.0913169 -0.235846
-0.0425984 0.0904886 -0.245136
-0.0455965 0.0898122 -0.252735
-0.0517386 0.0888038 -0.2641
-0.058232 0.0883237 -0.269588
-0.0684835 0.0882069 -0.271109
-0.00135974 0.0985348 -0.196041
-0.00824235 0.100693 -0.212303
-0.0116631 0.10008 -0.218708
-0.0187674 0.09972 -0.222579
-0.0461496 0.0975952 -0.245115
-0.0789431 0.0952111 -0.270445
-0.0523443 0.100016 -0.256494
-0.0585139 0.0990415 -0.266336
-0.068527 0.0986291 -0.270662
-0.086402 0.102628 -0.265867
-0.0624782 0.110075 -0.260939
-0.0689898 0.10954 -0.265904
