ply
format ascii 1.0
comment Created by Open3D
element vertex 892
property double x
property double y
property double z
end_header
0.092539 -0.377901 -0.179057
0.0925216 -0.369856 -0.198633
0.0925097 -0.362133 -0.217422
0.0896045 -0.347724 -0.25311
0.0696399 -0.34791 -0.257028
0.051759 -0.349513 -0.257039
0.0306884 -0.351403 -0.257053
0.0124457 -0.353039 -0.257065
-0.00905322 -0.354967 -0.257079
-0.0276687 -0.356637 -0.257091
-0.0496093 -0.358604 -0.257105
-0.0686091 -0.360308 -0.257118
-0.0898542 -0.361032 -0.260005
0.0925536 -0.383081 -0.158589
0.0925443 -0.410101 -0.0661756
0.0925677 -0.381888 -0.13718
-0.0276687 -0.344699 -0.257091
0.0925355 -0.362098 -0.179035
0.0878758 -0.330654 -0.259889
0.0926274 -0.412906 -0.0407857
0.0925781 -0.384034 -0.114743
0.0696399 -0.330441 -0.257028
0.051759 -0.331964 -0.257039
-0.0496093 -0.340599 -0.257105
-0.0686091 -0.342217 -0.257118
0.0925492 -0.363696 -0.15856
0.0898574 -0.34733 -0.20144
0.0306884 -0.330819 -0.257053
-0.0877904 -0.340822 -0.25713
0.0899166 -0.337036 -0.220216
0.092646 -0.412323 -0.0136017
0.0926147 -0.392152 -0.0666757
0.0925889 -0.382819 -0.0912334
0.0124457 -0.32645 -0.257065
0.0925635 -0.36206 -0.137152
0.0895652 -0.325125 -0.235865
-0.00905322 -0.325263 -0.257079
0.092628 -0.394714 -0.0407895
0.0899286 -0.334815 -0.201869
0.0925785 -0.363732 -0.114746
0.0899166 -0.324945 -0.220216
0.0878758 -0.310439 -0.259889
-0.0401766 -0.321833 -0.257099
0.0899411 -0.33565 -0.182739
0.0696399 -0.310062 -0.257028
0.051759 -0.311491 -0.257039
0.0124457 -0.314633 -0.257065
-0.0590867 -0.32035 -0.257111
-0.0781769 -0.321876 -0.257124
0.0306884 -0.310234 -0.257053
0.092646 -0.389935 -0.0136017
0.0926096 -0.370872 -0.0666394
0.0899676 -0.344017 -0.141923
0.0899541 -0.336522 -0.162776
0.0895652 -0.30731 -0.235865
-0.00905322 -0.30744 -0.257079
0.0923713 -0.355652 -0.0897267
0.092628 -0.365611 -0.0407896
0.0899411 -0.31674 -0.182739
0.0896045 -0.292437 -0.25311
-0.0401766 -0.300876 -0.257099
-0.0590867 -0.302303 -0.257111
0.0926469 -0.371275 -0.0136086
0.0899818 -0.335018 -0.120121
0.0899286 -0.307042 -0.201869
0.0696399 -0.289682 -0.257028
0.051759 -0.291017 -0.257039
0.000189364 -0.294868 -0.257073
-0.0781769 -0.30072 -0.257124
0.089883 -0.347795 -0.0724984
0.0899676 -0.324265 -0.141923
0.0899541 -0.3172 -0.162776
0.0306884 -0.28965 -0.257053
0.0899967 -0.335937 -0.0973017
0.0899166 -0.294717 -0.220216
0.0899818 -0.324917 -0.120121
-0.0183391 -0.28732 -0.257085
0.0900286 -0.345136 -0.0483161
0.0899286 -0.294699 -0.201869
0.0887945 -0.349396 -0.012868
0.0899411 -0.294679 -0.182739
0.0896045 -0.272069 -0.25311
0.0696399 -0.272214 -0.257028
-0.0401766 -0.27992 -0.257099
-0.0590867 -0.281247 -0.257111
-0.0898542 -0.282481 -0.260005
0.0900286 -0.334294 -0.0483161
0.0899967 -0.318709 -0.0973017
0.051759 -0.270544 -0.257039
0.0306884 -0.272006 -0.257053
-0.00905322 -0.274765 -0.257079
0.0899676 -0.301221 -0.141923
0.0899541 -0.294658 -0.162776
0.0124457 -0.267364 -0.257065
0.0813665 -0.409567 0.244529
0.0887945 -0.330712 -0.012868
0.0872537 -0.266989 -0.222518
0.0900123 -0.308677 -0.0733935
0.0899967 -0.301481 -0.0973017
0.0899818 -0.294614 -0.120121
-0.0401766 -0.261957 -0.257099
0.0896045 -0.2517 -0.25311
0.0696399 -0.251834 -0.257028
-0.0590867 -0.260191 -0.257111
-0.0781769 -0.26143 -0.257124
0.0899676 -0.281468 -0.141923
0.0879371 -0.267497 -0.189869
0.051759 -0.25007 -0.257039
0.0306884 -0.251422 -0.257053
-0.0183391 -0.254568 -0.257085
0.081526 -0.390646 0.243154
0.0900286 -0.305382 -0.0483161
0.0887945 -0.312027 -0.012868
0.0124457 -0.246684 -0.257065
0.0900123 -0.291038 -0.0733935
0.0900286 -0.29454 -0.0483161
0.0899967 -0.280808 -0.0973017
0.0899818 -0.274412 -0.120121
0.0899286 -0.251497 -0.201869
0.0899166 -0.246354 -0.220216
0.0814638 -0.372306 0.24369
0.0878758 -0.232469 -0.259889
-0.0401766 -0.241 -0.257099
-0.0590867 -0.242143 -0.257111
0.0899541 -0.256014 -0.162776
0.0696399 -0.231455 -0.257028
0.0124457 -0.234867 -0.257065
-0.0781769 -0.240274 -0.257124
0.0898231 -0.258684 -0.140992
0.0899411 -0.247404 -0.182739
0.051759 -0.229597 -0.257039
0.0306884 -0.230838 -0.257053
0.0624291 -0.360498 0.247279
0.0887945 -0.289606 -0.012868
0.0897989 -0.270273 -0.0719163
0.0895652 -0.227142 -0.235865
-0.00905322 -0.227238 -0.257079
0.0819042 -0.34817 0.239894
0.0899967 -0.25669 -0.0973017
0.0899818 -0.250843 -0.120121
0.0899411 -0.234798 -0.182739
0.0899286 -0.229896 -0.201869
0.0899166 -0.225194 -0.220216
0.0624291 -0.341892 0.247279
0.0886655 -0.26815 -0.0386387
0.0899676 -0.241964 -0.141923
0.0899541 -0.236693 -0.162776
0.0878758 -0.212254 -0.259889
-0.0401766 -0.220044 -0.257099
-0.0590867 -0.221087 -0.257111
-0.0781769 -0.22214 -0.257124
0.0887945 -0.270922 -0.012868
0.0696399 -0.211075 -0.257028
0.051759 -0.212048 -0.257039
0.000189364 -0.214854 -0.257073
0.0813026 -0.331032 0.245079
0.0306884 -0.210254 -0.257053
0.0900286 -0.251172 -0.0483161
0.0900123 -0.245177 -0.0733935
0.0895652 -0.206358 -0.235865
-0.0183391 -0.20693 -0.257085
0.0899967 -0.236017 -0.0973017
0.0949059 -0.222732 -0.152605
0.0899286 -0.211381 -0.201869
0.0899166 -0.207058 -0.220216
0.0813688 -0.312377 0.244509
0.0887945 -0.252238 -0.012868
-0.0401766 -0.202081 -0.257099
0.0899818 -0.223907 -0.120121
0.0878758 -0.192039 -0.259889
-0.0590867 -0.200031 -0.257111
-0.0781769 -0.200984 -0.257124
0.0899411 -0.206433 -0.182739
0.0696399 -0.190695 -0.257028
0.051759 -0.191574 -0.257039
-0.00905322 -0.194564 -0.257079
0.0908855 -0.220859 -0.103307
0.0899166 -0.194967 -0.220216
0.0306884 -0.189669 -0.257053
0.0900286 -0.229488 -0.0483161
0.0899541 -0.204489 -0.162776
0.0814345 -0.289113 0.243942
0.0900123 -0.220483 -0.0733935
0.0895652 -0.185573 -0.235865
0.0124457 -0.184644 -0.257065
0.0887945 -0.229817 -0.012868
0.0899676 -0.20246 -0.141923
0.0899286 -0.18978 -0.201869
0.0820088 -0.174979 -0.259892
-0.0401766 -0.181124 -0.257099
-0.0590867 -0.181983 -0.257111
-0.0781769 -0.179828 -0.257124
0.0814752 -0.270537 0.243592
0.0900286 -0.211418 -0.0483161
0.0899818 -0.196971 -0.120121
0.0899411 -0.184371 -0.182739
0.06072 -0.170707 -0.257034
0.0397465 -0.171628 -0.257047
0.0887945 -0.211132 -0.012868
0.0900123 -0.199317 -0.0733935
0.0899967 -0.194671 -0.0973017
0.0895821 -0.16477 -0.235963
-0.00905322 -0.164859 -0.257079
0.0815045 -0.251991 0.243339
0.0893754 -0.180155 -0.138106
0.0899162 -0.16474 -0.220214
0.0215883 -0.160635 -0.257059
0.0899272 -0.165095 -0.20186
0.0820088 -0.154733 -0.259892
-0.0401766 -0.160168 -0.257099
-0.0590867 -0.160927 -0.257111
-0.0781769 -0.161694 -0.257124
0.0900286 -0.189734 -0.0483161
0.0862757 -0.177274 -0.11813
0.0887945 -0.192448 -0.012868
0.0899073 -0.181811 -0.0726666
0.0898489 -0.165967 -0.162113
0.06072 -0.150281 -0.257034
0.0397465 -0.151091 -0.257047
0.0815177 -0.228852 0.243225
0.0899386 -0.156009 -0.182724
0.0877432 -0.178069 -0.0320914
-0.0276687 -0.144744 -0.257091
0.0899921 -0.163667 -0.0972704
0.089963 -0.156376 -0.141893
0.0899272 -0.146579 -0.20186
0.0215883 -0.140003 -0.257059
0.0900108 -0.164041 -0.073383
0.0899743 -0.156575 -0.120071
-0.0496093 -0.139541 -0.257105
-0.0686091 -0.140204 -0.257118
-0.0877904 -0.140873 -0.25713
0.0815177 -0.210359 0.243225
0.0887945 -0.170027 -0.012868
0.0900303 -0.164434 -0.0483285
0.0899506 -0.146528 -0.162754
0.0895821 -0.135082 -0.235963
0.0696399 -0.132468 -0.257028
0.000189364 -0.134839 -0.257073
0.0899162 -0.134512 -0.220214
0.051759 -0.130153 -0.257039
0.0899386 -0.137099 -0.182724
0.0815177 -0.191866 0.243225
0.0896045 -0.120758 -0.25311
0.0306884 -0.122035 -0.257053
0.0887945 -0.151343 -0.012868
0.0899743 -0.136371 -0.120071
0.0899272 -0.124978 -0.20186
-0.0401766 -0.121249 -0.257099
-0.0590867 -0.121823 -0.257111
-0.0781769 -0.122404 -0.257124
0.0899921 -0.136102 -0.0972704
0.0899506 -0.127205 -0.162754
0.0900108 -0.135819 -0.073383
0.089963 -0.126747 -0.141893
0.0696399 -0.112088 -0.257028
-0.0183391 -0.11463 -0.257085
0.051759 -0.10968 -0.257039
0.0814007 -0.16888 0.244234
0.0899386 -0.115037 -0.182724
0.0900303 -0.128295 -0.0483285
0.0905415 -0.124773 -0.0770576
0.0899506 -0.114324 -0.162754
0.0899162 -0.107308 -0.220214
0.0124457 -0.104878 -0.257065
0.0887945 -0.128921 -0.012868
0.0899743 -0.116168 -0.120071
0.0896045 -0.100389 -0.25311
0.0306884 -0.101451 -0.257053
0.0899921 -0.115428 -0.0972704
-0.0401766 -0.100292 -0.257099
-0.0590867 -0.100767 -0.257111
-0.0781769 -0.101247 -0.257124
0.0819042 -0.149875 0.239894
0.089963 -0.106994 -0.141893
0.0873025 -0.0969489 -0.2048
0.0702209 -0.0913834 -0.2599
0.0524034 -0.0918046 -0.259912
0.0900303 -0.110225 -0.0483285
0.0863623 -0.0964548 -0.18038
0.0887945 -0.110237 -0.012868
0.0900108 -0.104069 -0.073383
-0.00819311 -0.0873172 -0.259952
0.0819042 -0.131429 0.239894
0.0878992 -0.0973517 -0.106381
0.0911231 -0.0820554 -0.261699
-0.0298511 -0.0848206 -0.259966
0.0911812 -0.0823938 -0.227674
0.0314076 -0.0805802 -0.259926
-0.0486053 -0.0822315 -0.259978
0.0878108 -0.0972501 -0.0325712
0.0901954 -0.0833707 -0.184306
-0.0675378 -0.0796177 -0.259991
-0.0898542 -0.0800615 -0.260005
0.0925064 -0.0789317 -0.19854
0.0116307 -0.0746393 -0.265171
0.0840467 -0.0969978 0.0506986
0.0887945 -0.0915529 -0.012868
0.0919213 -0.0813778 -0.132915
0.0924941 -0.0792359 -0.158205
0.0713831 -0.0705703 -0.265645
0.050728 -0.0709501 -0.265659
0.0819042 -0.108371 0.239894
0.0840888 -0.0980805 0.113076
0.0840672 -0.0954931 0.0810647
0.0915819 -0.0819955 -0.0842611
0.0924802 -0.0795689 -0.114082
0.0841116 -0.0965221 0.146871
0.0909987 -0.0827993 -0.0289224
0.0652541 -0.0672584 -0.235347
0.0448332 -0.0672587 -0.23981
-0.0104019 -0.0664129 -0.262825
0.0841613 -0.0976726 0.22044
0.0841357 -0.0948745 0.182602
0.0665837 -0.067258 -0.194642
0.0452132 -0.0672584 -0.199313
0.0268954 -0.0672587 -0.203317
0.0146835 -0.067259 -0.205987
0.092245 -0.0808918 0.0486685
0.0926598 -0.0785154 0.0150605
0.0744466 -0.0672576 -0.148567
0.0456301 -0.0672581 -0.154865
0.0264189 -0.0672584 -0.159064
0.00720748 -0.0672588 -0.163264
-0.00560018 -0.067259 -0.166063
-0.038236 -0.0609377 -0.262844
-0.0601586 -0.061275 -0.262858
-0.0791433 -0.061567 -0.262871
0.0920392 -0.0814985 0.116493
0.0926926 -0.0788504 0.0771588
0.0954162 -0.0695363 -0.0610979
0.066286 -0.0672574 -0.101446
0.0460899 -0.0672577 -0.10586
0.0258936 -0.0672581 -0.110274
0.00569709 -0.0672584 -0.114688
-0.0144997 -0.0672588 -0.119102
0.0914772 -0.082373 0.195786
0.0926891 -0.0792475 0.146938
0.095442 -0.0694565 -0.00631142
0.0749828 -0.0672568 -0.0453535
0.0465994 -0.0672573 -0.0515563
0.0253114 -0.0672577 -0.0562086
0.0146674 -0.0672579 -0.0585349
-0.013717 -0.0672584 -0.064738
-0.0350043 -0.0672585 -0.0693951
-0.0104019 -0.0546062 -0.262825
0.0926852 -0.0796946 0.225524
0.0659203 -0.0672565 0.0130501
0.0546683 -0.0672567 0.0105913
0.0246628 -0.0672572 0.0040344
-0.0053429 -0.0672577 -0.00252414
-0.0353446 -0.067257 -0.00909996
0.094381 -0.0678194 0.0969056
0.0637152 -0.0672561 0.0802709
0.0438255 -0.0672564 0.0759249
0.0239356 -0.0672568 0.0715786
0.00404802 -0.0672563 0.0672196
-0.0158392 -0.0672559 0.0628604
-0.0357261 -0.0672555 0.0585009
-0.0556128 -0.067255 0.0541416
0.0942412 -0.0676728 0.171214
0.0739293 -0.0672553 0.15894
0.0442885 -0.0672555 0.152457
0.0146503 -0.0672548 0.145959
-0.00651963 -0.0672544 0.141318
-0.036157 -0.0672537 0.134821
-0.0657937 -0.0672531 0.128324
-0.0819829 -0.0662079 0.105178
-0.0819933 -0.0653469 0.0890286
0.00998256 -0.0457059 -0.259213
0.0940123 -0.067541 0.256053
0.0674478 -0.067254 0.244486
0.0538698 -0.0672537 0.241509
0.0267142 -0.0672531 0.235555
0.0131366 -0.0672528 0.232578
-0.0140183 -0.0672522 0.226624
-0.0366471 -0.0672517 0.221663
-0.0638011 -0.0672511 0.215709
-0.0819261 -0.0663043 0.192761
-0.0819381 -0.0653822 0.17427
0.00946915 -0.0636563 0.254206
-0.00967583 -0.0638503 0.254194
-0.0289379 -0.0640455 0.254182
-0.0483181 -0.0642419 0.254169
-0.0678174 -0.0644394 0.254157
-0.0819011 -0.0635236 0.231354
-0.038236 -0.0401297 -0.262844
-0.0601586 -0.0403518 -0.262858
-0.0791433 -0.0405441 -0.262871
-0.081961 -0.0548385 0.138789
-0.081972 -0.0541063 0.121759
-0.0819138 -0.0533385 0.211781
-0.0923609 -0.050313 0.254141
-0.0934339 -0.0477392 0.182648
-0.0934455 -0.0471018 0.164999
0.00946915 -0.0447952 0.254206
-0.00967583 -0.0449317 0.254194
0.00998256 -0.0250645 -0.259213
-0.0104019 -0.0250893 -0.262825
-0.0289379 -0.0355808 0.254182
-0.0483181 -0.0356899 0.254169
-0.0678174 -0.0357997 0.254157
-0.0934455 -0.0336441 0.164999
-0.038236 -0.0222943 -0.262844
-0.0601586 -0.0224177 -0.262858
-0.0923609 -0.0311461 0.254141
-0.0934098 -0.0303748 0.219417
-0.093422 -0.0299582 0.20078
-0.0934339 -0.0295528 0.182648
-0.0934678 -0.0283999 0.131079
-0.0791433 -0.0195212 -0.262871
0.00946915 -0.0165035 0.254206
-0.00967583 -0.0165538 0.254194
-0.0289379 -0.0166044 0.254182
-0.0483181 -0.0166553 0.254169
-0.0678174 -0.0167065 0.254157
-0.0923609 -0.0119793 0.254141
-0.0934098 -0.0116826 0.219417
-0.093422 -0.0115224 0.20078
-0.0934339 -0.0113665 0.182648
-0.0934568 -0.011067 0.147816
-0.0934678 -0.0109231 0.131079
0.00998256 -0.00737192 -0.259213
-0.0104019 -0.00737922 -0.262825
-0.038236 -0.0014863 -0.262844
-0.0601586 -0.00149452 -0.262858
-0.0791433 -0.00150164 -0.262871
0.00946915 0.0070729 0.254206
-0.00967583 0.00709446 0.254194
-0.0289379 0.00711614 0.254182
-0.0483181 0.00713796 0.254169
-0.0678174 0.00715991 0.254157
-0.0934455 0.00672881 0.164999
-0.0923609 0.0119793 0.254141
-0.0934098 0.0116826 0.219417
-0.093422 0.0115224 0.20078
-0.0934339 0.0113665 0.182648
-0.0934678 0.0109231 0.131079
-0.0951029 0.00753812 -0.262882
0.00998256 0.0132694 -0.259213
-0.0104019 0.0132826 -0.262825
0.00946915 0.0259341 0.254206
-0.00967583 0.0260131 0.254194
-0.0289379 0.0260926 0.254182
-0.0483181 0.0261726 0.254169
-0.0678174 0.0262531 0.254157
-0.0923609 0.0311461 0.254141
-0.0934098 0.0303748 0.219417
-0.093422 0.0299582 0.20078
-0.0934339 0.0295528 0.182648
-0.0934568 0.0287741 0.147816
-0.0934678 0.0283999 0.131079
-0.038236 0.0193217 -0.262844
-0.0601586 0.0194286 -0.262858
-0.0791433 0.0195212 -0.262871
0.00998256 0.0250645 -0.259213
-0.010402 0.0250893 -0.262825
-0.0192922 0.0450003 0.254187
-0.0386131 0.0451381 0.254175
-0.0580528 0.0452767 0.254163
-0.0776121 0.0454161 0.254151
-0.0934098 0.049067 0.219417
-0.093422 0.048394 0.20078
-0.0934339 0.0477391 0.182648
0.00946915 0.0542258 0.254206
-0.0934568 0.050908 0.147816
-0.0934678 0.050246 0.131079
-0.0759667 0.0375111 -0.262869
-0.0951029 0.0376906 -0.262882
-0.038236 0.0401297 -0.262844
-0.0601586 0.0403518 -0.262858
-0.0923609 0.0694799 0.254141
-0.0934098 0.0677593 0.219417
-0.0934455 0.0650454 0.164999
0.00946915 0.0730869 0.254206
-0.0096758 0.0733096 0.254194
-0.0289379 0.0735337 0.254182
-0.0483181 0.0737592 0.254169
-0.0678174 0.073986 0.254157
-0.093422 0.0714388 0.20078
-0.0934339 0.0704721 0.182648
-0.0934678 0.0677229 0.131079
-0.0923609 0.0886467 0.254141
0.00998256 0.0545522 -0.259213
-0.0104019 0.0546062 -0.262825
-0.0289379 0.0925101 0.254182
-0.0483181 0.0927938 0.254169
-0.0678174 0.0930792 0.254157
-0.0934098 0.0911245 0.219417
-0.093422 0.0898746 0.20078
-0.0934339 0.0886584 0.182648
-0.038236 0.0579651 -0.262844
-0.0601586 0.0582859 -0.262858
-0.0791433 0.0585637 -0.262871
0.0103047 0.096303 0.249278
0.0102874 0.0943728 0.221904
-0.000265405 0.0932072 0.203066
-0.0180148 0.0932078 0.19919
-0.0402021 0.0932086 0.194346
-0.0579521 0.0932092 0.190471
-0.0934568 0.0907491 0.147816
-0.0934678 0.089569 0.131079
0.0102546 0.0951619 0.170322
0.0102392 0.0933628 0.145993
-0.0105433 0.0932079 0.139351
-0.0316986 0.0932086 0.134731
-0.0486229 0.0932092 0.131036
-0.069779 0.0932101 0.126418
0.0102243 0.0958925 0.122567
0.0102099 0.0941456 0.099995
-0.00777881 0.0932082 0.0839468
-0.0279938 0.0932089 0.0795324
-0.0482091 0.0932096 0.0751181
-0.0684265 0.0932109 0.0707104
-0.0951029 0.0678431 -0.262882
-0.00967601 0.111147 0.254195
0.0101828 0.0948734 0.0572308
0.0101699 0.0932347 0.0369567
-0.00912054 0.0932086 0.0324126
-0.0284754 0.0932093 0.0281858
-0.0478307 0.09321 0.0239595
0.00946915 0.115524 0.254206
0.0101575 0.0955517 0.0173711
0.0101455 0.0939563 -0.00156045
-0.0103527 0.0932089 -0.0149149
-0.0289177 0.0932095 -0.0189697
-0.051198 0.093211 -0.0238279
-0.0227242 0.0725428 -0.262833
-0.0289379 0.120975 0.254182
0.0101338 0.0961854 -0.0198705
0.0101226 0.0946314 -0.0375887
-0.0007862 0.0932088 -0.0561932
-0.0186231 0.0932095 -0.0600891
-0.0400291 0.0932108 -0.0647585
0.00998256 0.0751935 -0.259213
0.0100909 0.0937962 -0.0874671
-0.0091054 0.0932094 -0.0981053
-0.0297032 0.0932105 -0.1026
-0.0351239 0.0787113 -0.262842
-0.0633102 0.0792718 -0.26286
-0.00967601 0.130066 0.254195
-0.0483181 0.130863 0.254169
0.0100714 0.0944256 -0.118234
-0.0102037 0.0932097 -0.135525
0.010053 0.0950185 -0.147214
0.00154251 0.0932094 -0.167529
-0.0289379 0.139951 0.254182
-0.0678174 0.140812 0.254157
0.0100273 0.0942485 -0.187662
-0.0791433 0.0885965 -0.262871
0.00946915 0.143816 0.254206
0.0100114 0.094806 -0.212803
-0.00967601 0.148984 0.254195
-0.0483181 0.149898 0.254169
-0.0923609 0.150939 0.254141
0.00999621 0.0953341 -0.236618
-0.0104019 0.0929781 -0.262825
-0.0934098 0.151874 0.219417
-0.093422 0.149791 0.20078
-0.0951029 0.0979955 -0.262882
-0.0289379 0.158928 0.254182
-0.0678174 0.159905 0.254157
-0.0934339 0.152311 0.182648
-0.0934455 0.150277 0.164999
-0.0289143 0.0993468 -0.262837
-0.0476018 0.0998166 -0.26285
0.00946915 0.162677 0.254206
-0.0934678 0.150738 0.131079
-0.00967601 0.167903 0.254195
-0.0483181 0.168932 0.254169
-0.0923609 0.170106 0.254141
0.00998256 0.104681 -0.259213
-0.0934098 0.170566 0.219417
-0.093422 0.168227 0.20078
-0.0696284 0.109359 -0.262865
0.00946915 0.176823 0.254206
-0.0289381 0.177904 0.254183
-0.0678174 0.178998 0.254157
-0.0934339 0.170497 0.182648
-0.0934455 0.168221 0.164999
-0.0934678 0.168215 0.131079
-0.0104021 0.11364 -0.262825
-0.0483181 0.187967 0.254169
-0.0923609 0.189273 0.254141
-0.041353 0.117509 -0.262846
-0.0887038 0.118913 -0.262878
-0.00967601 0.191551 0.254195
-0.0934098 0.189259 0.219417
0.00946915 0.195684 0.254206
-0.0678174 0.198092 0.254157
-0.093422 0.191272 0.20078
-0.0934339 0.188683 0.182648
-0.0289379 0.201625 0.254182
-0.0934455 0.19065 0.164999
0.00998256 0.125323 -0.259213
-0.0923609 0.208439 0.254141
-0.0934678 0.190061 0.131079
-0.0227241 0.1288 -0.262834
-0.0633102 0.130125 -0.26286
-0.00967601 0.21047 0.254195
-0.0483181 0.21176 0.254169
-0.0934098 0.207951 0.219417
-0.093422 0.209707 0.20078
0.00699249 0.217224 0.24093
-0.0249155 0.217221 0.233931
-0.0431483 0.21722 0.229932
-0.0568228 0.217219 0.226933
-0.0934339 0.211416 0.182648
-0.0934455 0.208594 0.164999
-0.038236 0.138225 -0.262844
-0.0791433 0.139652 -0.262871
0.0102874 0.218669 0.221904
-0.00608709 0.217223 0.209472
-0.0328608 0.217221 0.2036
-0.0462475 0.21722 0.200664
-0.0730203 0.217217 0.194792
-0.0934678 0.207538 0.131079
0.0102706 0.218885 0.195606
-0.00114588 0.217223 0.183146
-0.0186272 0.217222 0.179312
-0.0404785 0.21722 0.17452
-0.0579592 0.217219 0.170686
0.00787777 0.217224 0.158823
-0.00925049 0.217223 0.155066
-0.0306605 0.217221 0.150371
-0.0477883 0.21722 0.146615
-0.0691977 0.217218 0.14192
-0.0601586 0.147957 -0.262858
-8.88407e-05 0.238484 0.2542
0.00814946 0.217225 0.133622
-0.00863963 0.217223 0.12994
-0.0296257 0.217221 0.125338
-0.0506114 0.21722 0.120736
-0.0715969 0.217218 0.116134
-0.0883853 0.217217 0.112454
-0.0196363 0.14941 -0.262832
0.00841063 0.217225 0.109399
-0.0080525 0.217223 0.105789
-0.0286311 0.217222 0.101277
-0.0492093 0.21722 0.096764
-0.0697874 0.217218 0.0922519
0.00866182 0.217225 0.0860994
-0.0115251 0.217223 0.0816729
-0.0276743 0.217222 0.0781316
-0.0478607 0.21722 0.0737052
-0.0680469 0.217219 0.0692797
0.00998256 0.15481 -0.259213
-0.0759667 0.157547 -0.262869
-0.0951029 0.1583 -0.262882
0.00890365 0.217225 0.0636706
-0.010906 0.217223 0.059327
-0.0307152 0.217222 0.0549834
-0.0505242 0.21722 0.0506399
-0.0703332 0.217219 0.0462975
-0.0382361 0.159033 -0.262843
0.00946915 0.256983 0.254206
-0.0144805 0.257963 0.254192
0.0091366 0.217225 0.0420648
-0.0103095 0.217223 0.0378009
-0.0297553 0.217222 0.0335371
-0.0492009 0.21722 0.0292737
0.00936115 0.217225 0.0212376
-0.0097346 0.217224 0.0170507
-0.02883 0.217222 0.012864
-0.0479253 0.217221 0.00867772
0.0095778 0.217225 0.00114739
-0.00918004 0.217224 -0.00296485
-0.0279376 0.217222 -0.00707757
-0.0504464 0.217221 -0.0120118
-0.0601586 0.16888 -0.262858
0.00978681 0.217225 -0.0182436
-0.00864476 0.217224 -0.0222845
-0.0307623 0.217222 -0.0271335
-0.0491936 0.217221 -0.0311736
-0.0196364 0.17012 -0.262831
0.00946915 0.275844 0.254206
0.00998877 0.217226 -0.0369719
-0.00812775 0.217224 -0.0409437
-0.0298673 0.217222 -0.0457096
0.00998256 0.172503 -0.259213
-0.00967601 0.281415 0.254195
-0.000503361 0.217225 -0.0574136
-0.0396895 0.217222 -0.0660036
-0.0855119 0.178979 -0.262875
-0.0106486 0.217224 -0.0771795
-0.0351241 0.179699 -0.262841
0.0100909 0.217678 -0.0874671
-0.0204638 0.217223 -0.0963024
-0.0192924 0.296055 0.254189
-0.0580527 0.297873 0.254163
0.000557616 0.217225 -0.108123
-8.88407e-05 0.299876 0.2542
-0.00912508 0.217224 -0.126156
-0.0134754 0.187579 -0.262827
-0.0633102 0.189953 -0.26286
0.0100621 0.218209 -0.132938
0.010053 0.218376 -0.147214
-0.00818689 0.217225 -0.156314
0.00998256 0.193144 -0.259213
-0.0192924 0.315002 0.254189
0.0081981 0.217226 -0.16722
-0.0351239 0.197521 -0.262842
-0.0855119 0.200035 -0.262875
-8.88407e-05 0.318766 0.2542
-0.0540313 0.322408 0.258082
-0.0776121 0.322693 0.254151
0.0100273 0.218848 -0.187662
0.00877661 0.217226 -0.208082
-0.0570119 0.207573 -0.262856
-0.0104021 0.208094 -0.262825
0.00946915 0.337143 0.254206
-0.00967601 0.33817 0.254195
-0.0386133 0.339723 0.254177
-0.0580528 0.340766 0.254163
-0.0923609 0.342607 0.254141
-0.0934098 0.334123 0.219417
0.00913522 0.217227 -0.233419
-0.093422 0.334149 0.20078
0.00930718 0.217227 -0.245563
-0.0759667 0.217564 -0.262869
-0.0951029 0.218605 -0.262882
-0.0934339 0.334174 0.182648
-0.0351236 0.218312 -0.262842
-0.0776121 0.356158 0.254151
-0.0934454 0.334198 0.164999
0.018442 0.356385 0.257637
-0.0386132 0.358729 0.254176
-0.0580529 0.35983 0.254163
-0.0869054 0.355719 0.23202
-8.88407e-05 0.361268 0.2542
-0.0241114 0.362647 0.254185
-0.0872536 0.355719 0.21404
-0.0934678 0.334245 0.131079
-0.0601586 0.22866 -0.262858
0.0175293 0.359677 0.234372
-0.0104021 0.228756 -0.262825
-0.0825208 0.37557 0.254148
-0.0847795 0.357153 0.185452
0.0167276 0.362725 0.211401
-0.0241114 0.376869 0.254185
-0.0386131 0.377734 0.254175
-0.0579177 0.378719 0.253551
-0.0847917 0.356742 0.167309
-0.0791433 0.23876 -0.262871
0.000795513 0.378719 0.249198
-0.0680696 0.378719 0.234127
-0.0848035 0.356341 0.149655
-0.0289143 0.238729 -0.262837
0.018957 0.383786 0.254465
0.0161132 0.365401 0.188264
-0.000882938 0.378719 0.232051
-0.0190217 0.378719 0.228081
-0.0416951 0.378719 0.223119
-0.084815 0.355952 0.132474
0.018933 0.380394 0.225915
-0.0114802 0.37872 0.213358
-0.0517976 0.378719 0.204534
-0.0697163 0.378719 0.200613
0.00998256 0.243273 -0.259213
-0.0951029 0.248758 -0.262882
0.0156364 0.36779 0.165258
-0.0306756 0.37872 0.193176
-0.0705102 0.378719 0.184458
-0.085302 0.355721 0.101154
-0.0476021 0.248797 -0.262849
0.0176251 0.368798 0.154009
0.00306749 0.37872 0.184958
-0.0450431 0.37872 0.174428
-0.0104021 0.249417 -0.262825
-0.0936113 0.305614 -0.0877025
-0.0936258 0.299173 -0.109863
-0.0936398 0.292998 -0.131109
0.0189158 0.386164 0.198496
-0.0201717 0.37872 0.164634
-0.0677196 0.378719 0.154228
0.0172819 0.370814 0.131373
0.0041247 0.37872 0.155065
-0.0428736 0.37872 0.144779
0.00998256 0.255068 -0.259213
-0.072795 0.259371 -0.262867
0.00252326 0.37872 0.140169
-0.0228192 0.37872 0.134623
-0.0566091 0.37872 0.127228
-0.0935962 0.323427 -0.0645666
0.0189003 0.3917 0.172171
0.0172186 0.372299 0.108073
-0.00321797 0.378721 0.124696
-0.0366261 0.37872 0.117385
-0.0658581 0.37872 0.110987
0.0188808 0.388349 0.146907
-0.0336071 0.37872 0.104146
-0.0459951 0.37872 0.101435
-0.083159 0.37872 0.0933006
-0.0887038 0.269435 -0.262878
0.017186 0.373679 0.0854762
0.00201517 0.378721 0.0983503
-0.0592408 0.37872 0.0849445
-0.0165536 0.267545 -0.262829
-0.0936258 0.320416 -0.109863
-0.0936398 0.313803 -0.131109
0.0188639 0.389379 0.122605
0.0112864 0.374174 0.0726385
-0.0156496 0.378721 0.0811895
-0.0358451 0.378721 0.0767697
-0.0762358 0.37872 0.067929
-0.0936038 0.334532 -0.0762603
0.0188509 0.38619 0.0992045
-0.0409233 0.378721 0.062651
-0.0609004 0.37872 0.0582788
-0.0562687 0.278351 -0.25614
0.015551 0.375018 0.0507667
-0.00636581 0.378721 0.0574845
-0.0656562 0.37872 0.0445083
-0.0935962 0.345605 -0.0645666
-0.0155594 0.378721 0.043013
-0.0351137 0.378721 0.0387335
-0.0936038 0.3455 -0.0762603
-0.0936187 0.338141 -0.0989007
0.0160162 0.375482 0.0278628
-0.04391 0.378721 0.0246094
-0.0555196 0.378721 0.0220683
-0.0919007 0.287727 -0.26288
0.0188389 0.39541 0.0766698
0.00492351 0.378722 0.0233507
0.00998256 0.284556 -0.259213
-0.0936398 0.334607 -0.131109
0.0165554 0.375769 0.00539088
-0.0192652 0.378722 0.006356
-0.0382179 0.378721 0.00220811
-0.0104021 0.287789 -0.262825
0.0188278 0.396248 0.0549538
0.0187593 0.375768 -0.00550389
0.00206217 0.378722 -0.000440001
-0.0204503 0.378722 -0.00536668
-0.0936329 0.345104 -0.120597
-0.0401833 0.378722 -0.0209185
-0.0863558 0.355722 -0.0982183
-0.0562687 0.299416 -0.25614
0.012269 0.375461 -0.0298809
-0.0153949 0.378722 -0.0265028
-0.0420713 0.378722 -0.043134
0.0188145 0.404963 0.034029
0.016856 0.374997 -0.0513861
-0.0105369 0.378722 -0.0468143
-0.0759667 0.307591 -0.262869
-0.0951029 0.309063 -0.262882
-0.0260323 0.378722 -0.0605829
0.00998256 0.305197 -0.259213
-0.0874066 0.355722 -0.138614
0.0187989 0.405613 0.0138539
0.0180006 0.374132 -0.0738969
-0.0129381 0.378722 -0.0678962
-0.0104021 0.308451 -0.262825
-0.084965 0.376074 -0.0910239
0.0187769 0.395584 -0.0244803
0.0168363 0.373696 -0.0852181
-0.0351232 0.378722 -0.0827376
-0.0879023 0.355722 -0.157663
-0.00483835 0.378723 -0.0859079
-0.0152491 0.378723 -0.0881862
-0.0849801 0.375021 -0.113548
-0.0555165 0.319649 -0.258246
0.0182736 0.372317 -0.107788
0.0187525 0.393474 -0.0602772
-0.0174749 0.378723 -0.107728
0.0187686 0.403722 -0.0426972
0.0164192 0.370868 -0.130433
0.0016937 0.378723 -0.1128
-0.0336356 0.326966 -0.257935
-0.0855119 0.329381 -0.262875
0.0187363 0.394263 -0.0772874
0.0182202 0.368895 -0.152841
0.00253847 0.378723 -0.130649
-0.0134751 0.32937 -0.262828
0.0187173 0.388832 -0.109765
0.0112466 0.367718 -0.165958
-0.0184039 0.378723 -0.144009
9.72897e-05 0.378723 -0.148582
0.00998256 0.334685 -0.259213
-0.0538704 0.338719 -0.262854
0.018711 0.38964 -0.125266
0.0103257 0.365324 -0.188836
0.0187238 0.405554 -0.0937718
-0.0118589 0.378723 -0.167995
-0.0887038 0.347706 -0.262878
0.0185722 0.363038 -0.208657
-0.0727951 0.349326 -0.262867
0.0186934 0.387892 -0.154851
-0.0196362 0.347637 -0.262832
0.0187173 0.409569 -0.109765
0.0179703 0.360118 -0.231242
0.0186843 0.388684 -0.168987
