ply
format ascii 1.0
comment Created by Open3D
element vertex 817
property double x
property double y
property double z
end_header
-0.0942584 -0.194785 -0.392941
-0.0737108 -0.193832 -0.391501
-0.102469 -0.193621 -0.366417
-0.102757 -0.195192 -0.345304
-0.0417165 -0.192736 -0.386622
-0.110384 -0.192471 -0.325578
-0.113031 -0.19337 -0.304547
-0.0098241 -0.194164 -0.379798
-0.119684 -0.192274 -0.275426
-0.118931 -0.194504 -0.263973
0.00989789 -0.192383 -0.377573
-0.122183 -0.194709 -0.244647
0.0269524 -0.192999 -0.374115
-0.078315 -0.172311 -0.394327
-0.111298 -0.175714 -0.345271
-0.125521 -0.194927 -0.224698
0.0450997 -0.193759 -0.370274
-0.097931 -0.166495 -0.395261
-0.128312 -0.19537 -0.203462
-0.103495 -0.166495 -0.375963
0.0678143 -0.192043 -0.36734
-0.114855 -0.170797 -0.325761
-0.137003 -0.193127 -0.174781
0.0863707 -0.19254 -0.363807
-0.0514685 -0.167159 -0.389518
-0.120144 -0.172258 -0.296743
-0.140097 -0.195068 -0.142873
0.106669 -0.193304 -0.359597
-0.13992 -0.18488 -0.186334
0.127924 -0.194131 -0.355147
0.00741297 -0.172411 -0.37897
-0.0229465 -0.16703 -0.384408
-0.124001 -0.169792 -0.27558
-0.127415 -0.172336 -0.256852
-0.14976 -0.191823 -0.116874
-0.106825 -0.156464 -0.357413
-0.147265 -0.184386 -0.146402
-0.153905 -0.192009 -0.0927885
0.154023 -0.192181 -0.351837
0.0397934 -0.172448 -0.373169
-0.078315 -0.152187 -0.394327
-0.158365 -0.191332 -0.0732218
0.176168 -0.192791 -0.347545
0.0568056 -0.172468 -0.370121
-0.0954729 -0.146913 -0.39652
-0.131529 -0.166983 -0.234281
-0.162789 -0.191516 -0.0476133
0.200328 -0.193662 -0.342541
-0.103495 -0.146466 -0.375963
-0.135173 -0.16672 -0.214284
-0.167094 -0.190115 -0.0317753
-0.16664 -0.193687 -0.00875294
-0.114855 -0.149936 -0.325761
-0.144133 -0.170014 -0.165127
-0.172017 -0.192825 0.0124779
0.217205 -0.189484 -0.34129
0.101966 -0.171007 -0.362031
-0.0514686 -0.146426 -0.389518
-0.120144 -0.150893 -0.296743
-0.153738 -0.17149 -0.126286
-0.177147 -0.191181 0.0287539
-0.175036 -0.194665 0.0505014
0.121168 -0.171002 -0.358591
0.0834317 -0.165064 -0.365351
-0.00035888 -0.151878 -0.380362
-0.0302427 -0.147175 -0.385715
-0.124001 -0.150775 -0.27558
-0.155863 -0.169861 -0.11463
-0.159483 -0.172257 -0.0947655
-0.182118 -0.19328 0.0711879
0.141074 -0.170997 -0.355025
0.0153108 -0.151563 -0.377555
-0.127415 -0.150277 -0.256852
-0.163207 -0.171575 -0.0743321
-0.182814 -0.193302 0.0965043
0.161722 -0.170992 -0.351326
0.0397933 -0.152496 -0.373169
-0.106825 -0.136111 -0.357413
-0.140212 -0.155685 -0.186639
-0.16704 -0.170872 -0.0533054
-0.190162 -0.191873 0.118373
0.205419 -0.174301 -0.343498
0.183155 -0.170987 -0.347486
0.0568056 -0.152178 -0.370121
-0.078315 -0.132063 -0.394327
-0.131529 -0.147338 -0.234281
-0.146141 -0.156488 -0.15411
-0.171788 -0.170651 -0.0272531
-0.177545 -0.174256 0.0043335
-0.19588 -0.191075 0.143959
-0.0583314 -0.132466 -0.390747
-0.0954729 -0.12716 -0.39652
-0.135173 -0.14677 -0.214284
-0.144133 -0.152274 -0.165127
-0.201023 -0.188515 0.156679
-0.201813 -0.191261 0.177857
0.229171 -0.171086 -0.339065
0.0926179 -0.151509 -0.363706
-0.103495 -0.126436 -0.375963
-0.114855 -0.131683 -0.325761
-0.180945 -0.169666 0.0229896
-0.207772 -0.189432 0.197604
-0.206761 -0.192994 0.223754
0.111482 -0.151156 -0.360326
-0.120144 -0.132198 -0.296743
-0.153738 -0.150243 -0.126286
-0.155863 -0.151498 -0.11463
-0.190173 -0.172275 0.0776598
-0.214437 -0.191655 0.24998
0.141073 -0.152172 -0.355025
-0.0445013 -0.126651 -0.38827
-0.124001 -0.131758 -0.27558
-0.146141 -0.144565 -0.15411
-0.159483 -0.150531 -0.0947655
-0.18355 -0.164453 0.0372835
-0.1871 -0.166506 0.0567585
-0.19401 -0.170923 0.0979906
-0.22086 -0.189723 0.271172
0.161722 -0.151815 -0.351326
0.0153107 -0.132096 -0.377555
-0.0229467 -0.126943 -0.384408
-0.127415 -0.130975 -0.256852
-0.163207 -0.149537 -0.0743321
-0.16704 -0.151709 -0.0533054
-0.197842 -0.16957 0.119019
-0.201776 -0.171798 0.1406
-0.225556 -0.187342 0.287814
0.205419 -0.154381 -0.343498
0.183155 -0.151445 -0.347487
-0.140212 -0.135315 -0.186639
-0.171788 -0.151148 -0.0272531
-0.177545 -0.154341 0.0043335
-0.205815 -0.170421 0.162756
-0.226854 -0.187399 0.322016
0.0568054 -0.131887 -0.370121
0.0397932 -0.129693 -0.373169
-0.106825 -0.115758 -0.357413
-0.209962 -0.169007 0.18551
-0.215307 -0.171907 0.214831
0.229171 -0.150759 -0.339065
-0.000359058 -0.121776 -0.380362
-0.078315 -0.111939 -0.394327
-0.112808 -0.114952 -0.336988
-0.131529 -0.124887 -0.234281
-0.135173 -0.126821 -0.214284
-0.144133 -0.131576 -0.165127
-0.180945 -0.149507 0.0229896
-0.217496 -0.169291 0.226843
-0.220838 -0.171064 0.245175
-0.227735 -0.174724 0.283017
0.101966 -0.13166 -0.362031
-0.0583314 -0.111889 -0.390747
-0.0954729 -0.107407 -0.39652
-0.153738 -0.132032 -0.126286
-0.190173 -0.151393 0.0776598
-0.230823 -0.173876 0.312977
0.121168 -0.130948 -0.358591
0.0834313 -0.1264 -0.365351
-0.103495 -0.106407 -0.375963
-0.155863 -0.130074 -0.11463
-0.159483 -0.131909 -0.0947655
-0.164727 -0.134567 -0.065994
-0.1871 -0.145908 0.0567585
-0.19401 -0.149778 0.0979906
-0.197842 -0.151721 0.119019
0.151302 -0.131413 -0.353193
-0.120144 -0.110833 -0.296743
-0.201776 -0.150098 0.1406
-0.205815 -0.152096 0.162756
-0.233264 -0.167091 0.326385
0.205419 -0.134461 -0.343498
0.183155 -0.131904 -0.347487
-0.0302429 -0.107398 -0.385715
-0.116415 -0.106361 -0.3172
-0.124001 -0.110025 -0.27558
-0.127415 -0.111674 -0.256852
-0.16704 -0.129352 -0.0533054
-0.171788 -0.131645 -0.0272531
-0.177545 -0.134426 0.0043335
-0.18355 -0.137327 0.0372835
-0.209962 -0.150435 0.18551
0.0153106 -0.109848 -0.377555
-0.140212 -0.114945 -0.186639
-0.215307 -0.149238 0.214831
-0.217496 -0.150269 0.226843
-0.220838 -0.151843 0.245175
0.229171 -0.130432 -0.339065
0.0568053 -0.111597 -0.370121
0.039793 -0.10974 -0.373169
-0.146141 -0.114758 -0.15411
-0.180945 -0.129349 0.0229896
-0.19213 -0.134818 0.087677
-0.225404 -0.150096 0.270225
-0.230823 -0.15389 0.312977
-0.106825 -0.0954051 -0.357413
-0.135173 -0.106872 -0.214284
-0.144133 -0.110879 -0.165127
0.121168 -0.112461 -0.358591
0.101966 -0.110474 -0.362031
-0.0717523 -0.0924945 -0.393151
-0.153738 -0.110786 -0.126286
-0.155863 -0.11171 -0.11463
-0.185314 -0.124532 0.0469607
-0.188908 -0.126096 0.0666795
-0.195914 -0.129462 0.108437
-0.199796 -0.131152 0.129739
-0.207875 -0.134668 0.174057
-0.226606 -0.144513 0.294604
-0.233264 -0.14696 0.326385
0.172337 -0.114531 -0.349425
0.151302 -0.112413 -0.353193
0.0834313 -0.105581 -0.365351
-0.00800771 -0.096377 -0.381732
-0.159483 -0.110183 -0.0947655
-0.163207 -0.11176 -0.0743321
-0.203782 -0.129246 0.151605
-0.209962 -0.131862 0.18551
0.205419 -0.114541 -0.343498
-0.0911631 -0.0855271 -0.396632
-0.103495 -0.0863773 -0.375963
-0.114045 -0.0900837 -0.32514
-0.119874 -0.0921799 -0.296521
-0.131529 -0.0968223 -0.234281
-0.16704 -0.110188 -0.0533054
-0.171788 -0.112142 -0.0272531
-0.177545 -0.114511 0.0043335
-0.215307 -0.130347 0.214831
-0.217496 -0.131248 0.226843
0.00741255 -0.092412 -0.37897
-0.0445013 -0.0874808 -0.38827
-0.123563 -0.0910761 -0.275202
-0.127174 -0.0924101 -0.256636
-0.220838 -0.128778 0.245175
-0.225404 -0.130603 0.270225
-0.230823 -0.133904 0.312977
-0.233264 -0.134881 0.326385
0.229171 -0.110105 -0.339065
0.19418 -0.106865 -0.345511
-0.180945 -0.109191 0.0229896
0.0655289 -0.0920858 -0.368559
0.039793 -0.0897871 -0.373169
-0.101157 -0.0813962 -0.347263
-0.151233 -0.0948947 -0.137272
-0.190173 -0.10963 0.0776598
-0.19401 -0.111012 0.0979906
-0.197842 -0.112452 0.119019
-0.226606 -0.124717 0.294604
0.13103 -0.0948272 -0.356825
0.101966 -0.0923136 -0.362031
-0.143434 -0.0902925 -0.164366
-0.1871 -0.10471 0.0567585
-0.201776 -0.110313 0.1406
-0.205815 -0.111782 0.162756
-0.0717298 -0.079899 -0.326259
-0.0877349 -0.0799003 -0.311691
-0.132306 -0.0847997 -0.207429
-0.136904 -0.0860182 -0.187396
-0.155576 -0.090333 -0.114285
-0.159335 -0.0915849 -0.0945807
-0.209962 -0.109576 0.18551
-0.215307 -0.111456 0.214831
-0.217496 -0.112226 0.226843
-0.223105 -0.114199 0.257612
0.205419 -0.0946206 -0.343498
0.161721 -0.0910892 -0.351326
-0.00800782 -0.077373 -0.381732
-0.0374269 -0.0749956 -0.387002
-0.0717523 -0.0722217 -0.393151
-0.0790667 -0.0792798 -0.291453
-0.0886188 -0.0799001 -0.274417
-0.120546 -0.0806323 -0.235531
-0.162864 -0.0897785 -0.073889
-0.168458 -0.0915814 -0.0445245
-0.177545 -0.0945961 0.0043335
-0.18355 -0.0966374 0.0372835
-0.230823 -0.113919 0.312977
-0.233264 -0.114749 0.326385
0.183155 -0.0895645 -0.347487
-0.0869607 -0.0786076 -0.254836
-0.0938581 -0.0799003 -0.230524
-0.113183 -0.0799008 -0.212948
-0.180888 -0.0924021 0.023076
0.229171 -0.0897776 -0.339065
-0.0911631 -0.0656947 -0.396632
-0.103495 -0.0663478 -0.375963
-0.094993 -0.0790498 -0.19973
-0.099493 -0.0799005 -0.183317
-0.124006 -0.0799008 -0.161029
-0.172119 -0.0868577 -0.0165313
-0.190173 -0.092228 0.0776598
-0.227735 -0.104049 0.283017
0.0153103 -0.0709145 -0.377555
-0.10405 -0.0786007 -0.153359
-0.10557 -0.0799008 -0.132409
-0.126287 -0.078674 -0.132039
-0.193838 -0.0898964 0.0982818
-0.197788 -0.091042 0.119114
-0.201776 -0.0922286 0.1406
-0.207875 -0.0940832 0.174057
0.0744029 -0.0722388 -0.366969
0.0397928 -0.0698344 -0.373169
-0.115323 -0.0776073 -0.110386
-0.123821 -0.0783461 -0.091085
-0.142736 -0.0783454 -0.0739011
-0.209907 -0.0910137 0.185617
-0.223105 -0.0948436 0.257612
0.121168 -0.0724064 -0.358591
0.101966 -0.0711269 -0.362031
-0.089123 -0.0647534 -0.292399
-0.124534 -0.0762831 -0.0719053
-0.125565 -0.077736 -0.0472386
-0.133268 -0.078348 -0.0302406
-0.152991 -0.0783468 -0.0123294
-0.215039 -0.0888348 0.215368
-0.229616 -0.093594 0.306346
-0.233264 -0.0946179 0.326385
0.205419 -0.0747005 -0.343498
0.161721 -0.0719125 -0.351326
0.141073 -0.0705952 -0.355025
-0.106825 -0.057243 -0.357413
-0.0831069 -0.060424 -0.324715
-0.13672 -0.0771953 0.0101046
-0.133265 -0.0783492 0.0266471
-0.148699 -0.0783504 0.0406997
-0.174132 -0.0783951 0.0645832
0.183155 -0.0700231 -0.347487
-0.022947 -0.0574584 -0.384408
-0.0931452 -0.0602383 -0.270965
-0.0997127 -0.0618761 -0.235758
-0.148113 -0.0759873 0.0601434
-0.14872 -0.0769749 0.0783249
-0.169885 -0.0769757 0.097581
-0.22501 -0.0843868 0.279993
0.229171 -0.0694506 -0.339065
-0.0650919 -0.0523361 -0.391958
-0.103459 -0.0598852 -0.215746
-0.109277 -0.0612686 -0.184556
-0.158931 -0.0752449 0.122249
-0.160236 -0.0761881 0.141094
-0.162844 -0.0769774 0.158242
-0.185056 -0.0769763 0.178414
-0.213143 -0.0791237 0.244151
-0.11469 -0.0595006 -0.155608
-0.118184 -0.0602906 -0.136885
-0.123794 -0.0611323 -0.115218
-0.12749 -0.0619683 -0.0954021
-0.17117 -0.0739815 0.180751
-0.173716 -0.0751922 0.206894
-0.174081 -0.0763536 0.230084
-0.181352 -0.076978 0.248983
-0.198856 -0.0769785 0.264907
-0.214858 -0.0772122 0.284054
0.0153102 -0.0514478 -0.377555
-0.0911631 -0.0458624 -0.396632
-0.103495 -0.0463183 -0.375963
-0.10733 -0.0548667 -0.195133
-0.134417 -0.0602731 -0.0583469
-0.138412 -0.0611302 -0.0369334
-0.143359 -0.0621915 -0.0104192
-0.155454 -0.0648338 0.0553936
-0.188102 -0.0741391 0.278123
-0.187315 -0.0750993 0.297327
-0.230823 -0.0739471 0.312977
-0.233264 -0.0744864 0.326385
0.13103 -0.054409 -0.356825
0.0744029 -0.0515991 -0.366969
0.0397927 -0.0498817 -0.373169
-0.0374269 -0.0460499 -0.387002
-0.131313 -0.0563815 -0.0750642
-0.152008 -0.0605814 0.0358604
0.205419 -0.0547803 -0.343498
0.19418 -0.0542545 -0.345511
0.151302 -0.0522484 -0.353193
0.111481 -0.0503853 -0.360327
-0.146777 -0.0561152 0.00774139
-0.167748 -0.0604877 0.128514
-0.000359356 -0.0424162 -0.380362
-0.0831788 -0.0416207 -0.324768
-0.159991 -0.0554247 0.0868671
-0.163827 -0.0561139 0.107421
-0.184533 -0.0598344 0.218368
-0.189008 -0.0606385 0.242347
0.229171 -0.0491236 -0.339065
0.172337 -0.0467801 -0.349425
-0.106825 -0.03689 -0.357413
-0.0903468 -0.0401381 -0.286418
-0.0943873 -0.0408174 -0.264765
-0.0997877 -0.0417253 -0.235825
-0.103523 -0.0423533 -0.215806
-0.116831 -0.0445904 -0.144494
-0.171805 -0.0538313 0.150081
-0.175942 -0.0545267 0.172248
-0.181266 -0.0554216 0.200774
-0.192457 -0.0573025 0.260733
-0.223563 -0.0574229 0.2922
-0.022947 -0.0360785 -0.384408
-0.110017 -0.0404463 -0.181078
-0.11407 -0.0410805 -0.159364
-0.123861 -0.0423175 -0.115295
-0.1401 -0.0448591 -0.0282732
-0.197161 -0.0540835 0.285845
-0.230823 -0.0539614 0.312977
-0.233264 -0.0543549 0.326385
-0.0583314 -0.0321519 -0.390747
-0.078315 -0.0314436 -0.394327
-0.12757 -0.0397179 -0.0954955
-0.132919 -0.0404931 -0.0668302
-0.13687 -0.0410656 -0.0456604
-0.143429 -0.0420161 -0.0105146
-0.160028 -0.0446944 0.0868097
0.0153102 -0.0319811 -0.377555
-0.150311 -0.0395698 0.0262797
-0.15844 -0.0406534 0.0698321
-0.166816 -0.0420211 0.123094
-0.181304 -0.043952 0.200705
0.205419 -0.0348602 -0.343498
0.19418 -0.0345256 -0.345511
0.121167 -0.0323518 -0.358591
0.101966 -0.0317801 -0.362031
0.0744027 -0.0309595 -0.366969
0.0397926 -0.029929 -0.373169
-0.0445013 -0.0274194 -0.38827
-0.097931 -0.0258992 -0.395261
-0.103495 -0.0262888 -0.375963
-0.107417 -0.0311361 -0.195218
-0.146847 -0.0357052 0.00764263
-0.153882 -0.0365613 0.0453284
-0.184595 -0.0405282 0.21825
-0.189071 -0.0410728 0.242224
0.229171 -0.0321844 -0.339065
0.161721 -0.0303631 -0.351326
0.141073 -0.0298069 -0.355025
-0.192533 -0.0335862 0.26058
-0.197225 -0.0340483 0.285712
-0.219693 -0.0337263 0.291598
-0.230823 -0.0339757 0.312977
-0.233264 -0.0342235 0.326385
-0.083261 -0.0201364 -0.324828
-0.0904201 -0.0207587 -0.286476
-0.0944613 -0.0211099 -0.264827
-0.0998627 -0.0215794 -0.235892
-0.103599 -0.0219041 -0.215877
-0.10942 -0.02241 -0.184698
-0.135334 -0.0244983 -0.0542726
-0.022947 -0.0173711 -0.384408
-0.106825 -0.0165369 -0.357413
-0.116921 -0.0199858 -0.14459
-0.123212 -0.0203175 -0.119282
-0.12689 -0.0205946 -0.0995806
-0.132988 -0.0210539 -0.0669155
-0.141004 -0.0216577 -0.023976
-0.148622 -0.0222315 0.0168304
-0.170886 -0.0240502 0.144459
-0.172928 -0.024204 0.155398
-0.177092 -0.0245177 0.177701
-0.181366 -0.0248395 0.20059
-0.114847 -0.0167778 -0.155773
-0.156667 -0.0193228 0.0598391
-0.165904 -0.0200315 0.117689
-0.184658 -0.0212265 0.218131
-0.189134 -0.0215117 0.2421
0.205419 -0.0149401 -0.343498
0.19418 -0.0147967 -0.345511
0.172337 -0.014518 -0.349425
0.00741231 -0.0124136 -0.37897
-0.0583314 -0.0115747 -0.390747
-0.078315 -0.0113197 -0.394327
-0.146062 -0.0152557 0.00295728
-0.152163 -0.0155738 0.0356336
-0.160039 -0.016013 0.0802565
-0.162993 -0.0162367 0.102019
0.229171 -0.0118574 -0.339065
0.151302 -0.011083 -0.353193
0.121167 -0.0107839 -0.358591
0.101966 -0.0105934 -0.362031
0.0744025 -0.0103198 -0.366969
0.0397924 -0.00997634 -0.373169
-0.107494 -0.0103774 -0.195293
-0.192596 -0.0138279 0.260452
-0.197289 -0.0140182 0.28558
-0.219693 -0.0138873 0.291598
-0.230823 -0.01399 0.312977
-0.233264 -0.014092 0.326385
-0.0374269 -0.00657857 -0.387002
-0.097931 -0.00616647 -0.395261
-0.103495 -0.00625923 -0.375963
-0.114892 -0.00457543 -0.15582
-0.118387 -0.00463616 -0.137106
-0.127695 -0.00476514 -0.0956425
-0.129963 -0.00480455 -0.0834967
-0.134613 -0.00488536 -0.0585923
-0.138609 -0.00495481 -0.0371896
-0.0833328 -0.00134228 -0.32488
-0.0904933 -0.00138376 -0.286535
-0.0945353 -0.00140717 -0.26489
-0.0999382 -0.00143846 -0.23596
-0.103676 -0.0014601 -0.215948
-0.109498 -0.00149382 -0.184775
-0.124008 -0.00156693 -0.115461
-0.141074 -0.00166578 -0.0240693
-0.148694 -0.00170991 0.0167291
-0.155814 -0.00175114 0.0548525
-0.165965 -0.00182085 0.117589
-0.184721 -0.00192947 0.218011
-0.189197 -0.00195538 0.241975
-0.00800788 0.00407225 -0.381732
-0.106825 0.00381619 -0.357413
-0.146133 0.00508457 0.00285852
-0.159528 0.00531726 0.0745746
-0.160197 0.00536166 0.0865423
-0.169972 0.00553145 0.138874
-0.174058 0.00560242 0.160746
-0.177192 0.00565685 0.177522
-0.181466 0.00573109 0.200404
-0.19266 0.00592551 0.260325
-0.197353 0.00600702 0.285447
-0.219693 0.00595168 0.291598
-0.230823 0.00599569 0.312977
-0.233264 0.00603942 0.326385
0.229171 0.00846959 -0.339065
0.183155 0.00814223 -0.347487
0.161721 0.00799029 -0.351326
0.141073 0.00784392 -0.355025
0.121167 0.00770281 -0.358591
0.101966 0.00756669 -0.362031
0.0744024 0.0103198 -0.366969
0.0397924 0.00997632 -0.373169
0.0153102 0.00973335 -0.377555
-0.0583314 0.00900251 -0.390747
-0.078315 0.00880419 -0.394327
-0.107571 0.010376 -0.195368
0.205419 0.0149401 -0.343498
-0.152271 0.0155708 0.0354761
-0.18813 0.0175373 0.235801
-0.0374269 0.0144729 -0.387002
-0.097931 0.0135662 -0.395261
-0.103495 0.0137703 -0.375963
-0.0888644 0.015112 -0.295642
-0.131576 0.0177119 -0.075385
-0.135484 0.0179608 -0.0544625
-0.141145 0.0183213 -0.0241631
-0.149637 0.018862 0.0212936
-0.166038 0.0200266 0.117468
-0.184797 0.021221 0.217868
-0.0844784 0.0175284 -0.319184
-0.092283 0.0181157 -0.277408
-0.09461 0.0182909 -0.264952
-0.100014 0.0186975 -0.236028
-0.103752 0.0189788 -0.216019
-0.109575 0.019417 -0.184852
-0.115673 0.0198759 -0.152211
-0.121915 0.0202038 -0.127178
-0.126294 0.0205334 -0.103735
-0.192723 0.0256741 0.260197
-0.197416 0.0260273 0.285314
-0.219693 0.0257907 0.291598
-0.230823 0.0259814 0.312977
-0.233264 0.0261709 0.326385
0.229287 0.0288001 -0.33901
0.183155 0.0276835 -0.347487
0.0834305 0.02528 -0.365352
-0.00800788 0.0230762 -0.381732
-0.146216 0.0288084 0.00274324
0.161951 0.0303711 -0.351213
0.141073 0.0298069 -0.355025
0.121167 0.0292707 -0.358591
0.101966 0.0287534 -0.362031
0.0568045 0.0275369 -0.370122
-0.106825 0.0241693 -0.357413
-0.107637 0.0281605 -0.195432
-0.156848 0.0333649 0.0595646
-0.160147 0.0337986 0.0800867
-0.163164 0.0342668 0.101744
-0.171083 0.0351375 0.14412
-0.173126 0.0353622 0.155053
-0.177292 0.0358202 0.177343
0.200418 0.0347632 -0.342498
0.0398294 0.0299305 -0.373149
0.0153102 0.0292001 -0.377555
-0.142863 0.035175 -0.0153611
-0.167086 0.0383481 0.122646
-0.18486 0.0405079 0.217748
-0.189337 0.0410519 0.241702
-0.0583314 0.0295797 -0.390747
-0.078315 0.0289281 -0.394327
-0.117124 0.0353475 -0.144807
-0.135554 0.0375498 -0.0545508
-0.148836 0.0393177 0.0165262
-0.154146 0.0400244 0.0449365
-0.192931 0.0454053 0.259779
-0.196467 0.0458695 0.278485
-0.0280972 0.0332517 -0.384464
-0.110972 0.0375288 -0.177796
-0.115049 0.0381185 -0.155985
-0.124154 0.0391633 -0.115628
-0.130888 0.0401374 -0.0795978
-0.0981421 0.0333866 -0.392578
-0.0917825 0.0375307 -0.280544
-0.0970576 0.0383548 -0.252319
-0.101324 0.0390213 -0.229493
-0.126501 0.0426313 -0.103974
-0.0834871 0.0389164 -0.324993
-0.088959 0.0398346 -0.295716
-0.181596 0.0550941 0.192405
-0.00608605 0.043818 -0.340445
-0.0274571 0.0428725 -0.344428
-0.0477985 0.041975 -0.34816
-0.0715353 0.0409692 -0.351486
-0.158952 0.0544859 0.0626776
-0.161539 0.0552694 0.0844287
-0.185178 0.0594398 0.209185
-0.189659 0.0602302 0.232829
-0.107885 0.0487137 -0.199779
-0.144181 0.055147 -0.0171393
-0.146731 0.0556252 -0.00369811
-0.165689 0.0595314 0.104398
-0.169657 0.0602757 0.125316
-0.195717 0.0651635 0.262701
-0.198081 0.0656068 0.275162
-0.127752 0.0551447 -0.105426
-0.140295 0.0576361 -0.0393822
-0.174008 0.064704 0.146275
-0.179242 0.0657439 0.17384
-0.131816 0.0590674 -0.0857249
-0.135725 0.0598871 -0.0651659
-0.152511 0.0634066 0.0231094
-0.116157 0.0591314 -0.161542
-0.120393 0.0600663 -0.139289
-0.157294 0.067797 0.0464141
-0.19298 0.0761287 0.24284
-0.0982614 0.0579308 -0.25706
-0.102565 0.058928 -0.234477
-0.172687 0.0752184 0.134257
-0.17473 0.0756945 0.145028
-0.18645 0.0784243 0.20679
-0.0480356 0.0582026 -0.348315
-0.0853303 0.0575344 -0.326337
-0.0875213 0.0580662 -0.314852
-0.0931804 0.0594396 -0.285192
-0.113914 0.0644717 -0.176512
-0.161421 0.0755949 0.0652383
-0.167907 0.0776352 0.107556
-0.199223 0.0852976 0.27281
-0.20161 0.0858828 0.285424
-0.0137135 0.0631066 -0.342045
-0.067564 0.0596581 -0.351911
-0.146505 0.07522 -0.0146939
-0.18464 0.0854527 0.194521
-0.0277869 0.064969 -0.34464
-0.109018 0.0690009 -0.204942
-0.134535 0.0752923 -0.0789935
-0.143366 0.0776425 -0.0325832
-0.164401 0.0837609 0.0864647
-0.141105 0.0802348 -0.0457861
-0.152925 0.0835307 0.0165908
-0.159205 0.0852825 0.0497427
-0.121011 0.0781656 -0.144487
-0.179764 0.0952085 0.165437
-0.188372 0.0977211 0.21108
-0.192848 0.0990279 0.234818
-0.195131 0.0996946 0.246927
-0.116983 0.0799461 -0.166757
-0.12825 0.082774 -0.115558
-0.130485 0.083447 -0.10378
-0.201078 0.105356 0.277713
-0.100362 0.0777106 -0.255171
-0.104049 0.0788574 -0.235814
-0.165921 0.0982183 0.0906426
-0.16981 0.0994412 0.111245
-0.091766 0.0776898 -0.301321
-0.0957735 0.0789834 -0.280257
-0.106704 0.0825186 -0.222713
-0.157022 0.0982268 0.0345697
-0.173899 0.104337 0.132194
-0.176956 0.105333 0.148386
-0.0483477 0.0798219 -0.34852
-0.0678257 0.0781866 -0.352087
-0.0864125 0.0785585 -0.33035
-0.113355 0.0875707 -0.188606
-0.139399 0.0956812 -0.0594103
-0.148413 0.0987204 -0.0116766
-0.163533 0.103816 0.0683579
-0.196568 0.115659 0.252474
-0.0202721 0.0849935 -0.343015
-0.143522 0.100312 -0.0382083
-0.152803 0.103543 0.0108948
-0.190945 0.11758 0.222195
-0.134135 0.100172 -0.0885117
-0.17406 0.115285 0.131922
-0.185507 0.119437 0.192913
-0.202432 0.125626 0.283703
-0.117066 0.0976676 -0.171164
-0.121925 0.0994689 -0.145475
-0.12477 0.100141 -0.134954
-0.160018 0.112964 0.0485185
-0.165088 0.11514 0.0788347
-0.109225 0.0976267 -0.213189
-0.168206 0.12031 0.100308
-0.101845 0.0975882 -0.252746
-0.156509 0.118472 0.0292783
-0.196505 0.135278 0.2526
-0.0948861 0.097552 -0.290046
-0.139804 0.115061 -0.0599216
-0.148768 0.118724 -0.0121623
-0.181192 0.132878 0.170338
-0.19304 0.137811 0.234442
-0.0486215 0.0987219 -0.348699
-0.088313 0.0975178 -0.325276
-0.130667 0.114443 -0.108807
-0.14382 0.119982 -0.0385988
-0.152993 0.12387 0.0106239
-0.178028 0.13532 0.153781
-0.184259 0.137989 0.187506
-0.188552 0.139827 0.210738
-0.20097 0.145144 0.277937
-0.0681245 0.0993436 -0.352287
-0.098522 0.104504 -0.271838
-0.105728 0.107611 -0.233487
-0.114735 0.114443 -0.185797
-0.12224 0.117769 -0.145816
-0.135174 0.122712 -0.0847871
-0.15997 0.13383 0.0485904
-0.163601 0.135471 0.068252
-0.167055 0.137887 0.0954712
-0.170824 0.143273 0.116433
-0.195957 0.155049 0.2537
-0.110858 0.118554 -0.206707
-0.132139 0.12768 -0.100871
-0.156275 0.139135 0.0296201
-0.102803 0.117607 -0.249853
-0.148531 0.138849 -0.0118386
-0.180549 0.155525 0.171492
-0.184727 0.157587 0.19436
-0.186847 0.158641 0.206042
-0.191163 0.160797 0.229904
-0.201314 0.16587 0.286042
-0.0913488 0.114813 -0.311097
-0.0969444 0.117559 -0.281212
-0.129129 0.132551 -0.116563
-0.140396 0.138184 -0.0554473
-0.152661 0.144318 0.0110962
-0.172375 0.15525 0.12774
-0.048895 0.117606 -0.348878
-0.116685 0.130322 -0.175063
-0.135702 0.139089 -0.0804162
-0.144294 0.143487 -0.0338082
-0.198562 0.172802 0.274172
-0.0281342 0.122964 -0.344862
-0.068383 0.11784 -0.35246
-0.0865505 0.117737 -0.336838
-0.105786 0.127686 -0.23354
-0.159333 0.154865 0.04955
-0.164442 0.158599 0.0863999
-0.175942 0.164779 0.15015
-0.119903 0.138145 -0.156687
-0.153106 0.155078 0.0163308
-0.167978 0.164276 0.107439
-0.19243 0.177822 0.243928
-0.128802 0.145108 -0.116189
-0.162545 0.163936 0.0698918
-0.184652 0.177543 0.202296
-0.187826 0.179353 0.220121
-0.197554 0.185081 0.276247
-0.092392 0.128934 -0.30519
-0.110573 0.13911 -0.206434
-0.130832 0.149485 -0.104185
-0.146155 0.158205 -0.0198019
-0.180252 0.179042 0.179563
-0.102541 0.137504 -0.249624
-0.139674 0.157892 -0.0545286
-0.14922 0.163505 -0.00142908
-0.167289 0.175329 0.108568
-0.134215 0.158035 -0.0836258
-0.158341 0.172575 0.051045
-0.172715 0.182533 0.141323
-0.176386 0.18503 0.164021
-0.0949391 0.138759 -0.290088
-0.16216 0.179868 0.0834498
-0.0492074 0.13917 -0.349083
-0.0982292 0.143587 -0.271594
-0.113309 0.152889 -0.188561
-0.121222 0.157808 -0.144715
-0.154385 0.177526 0.0323853
-0.0289851 0.144889 -0.345408
-0.0686824 0.138961 -0.35266
-0.0862341 0.138973 -0.336612
-0.115739 0.157535 -0.174097
-0.106194 0.154488 -0.226158
-0.129117 0.168192 -0.107009
-0.144837 0.178603 -0.0180244
-0.134642 0.1753 -0.0740631
-0.138377 0.177827 -0.0528781
-0.147428 0.184317 0.00105965
-0.101726 0.15756 -0.24891
-0.131954 0.180352 -0.0858901
-0.0877579 0.153761 -0.324868
-0.093553 0.157829 -0.292446
-0.107299 0.167505 -0.215361
-0.0428278 0.159128 -0.348049
-0.110726 0.173151 -0.194319
-0.117078 0.177788 -0.158117
-0.0560797 0.159602 -0.350483
-0.0854012 0.157712 -0.336017
-0.119134 0.182965 -0.14246
-0.125054 0.18761 -0.107119
-0.0894608 0.169355 -0.309661
-0.0963813 0.174781 -0.270054
-0.100293 0.177849 -0.247656
-0.108045 0.185141 -0.195829
-0.0290922 0.17522 -0.345476
-0.104901 0.191863 -0.175961
-0.0926775 0.177876 -0.288281
-0.101304 0.187754 -0.221661
-0.056348 0.178306 -0.35066
-0.0837553 0.179387 -0.334843
-0.0753425 0.183167 -0.350968
-0.0824893 0.188612 -0.314406
