ply
format ascii 1.0
comment Created by Open3D
element vertex 523
property double x
property double y
property double z
end_header
0.35942 -0.238099 -0.157077
0.359323 -0.222035 -0.157429
-0.270637 -0.236665 -0.15639
-0.278213 -0.223515 -0.155049
0.351265 -0.204076 -0.152753
0.370144 -0.188756 -0.162799
0.350248 -0.184865 -0.168167
-0.264626 -0.19621 -0.153804
-0.27809 -0.194418 -0.163953
0.339417 -0.179074 -0.150223
0.360813 -0.236928 0.149104
0.372516 -0.172395 -0.165191
-0.260076 -0.180297 -0.165446
0.36076 -0.224076 0.148854
-0.272038 -0.234907 0.148436
0.340146 -0.164452 -0.159654
-0.254917 -0.175968 -0.151606
-0.287679 -0.170531 -0.166084
0.344321 -0.160841 -0.143271
-0.258738 -0.160974 -0.159931
0.364249 -0.144573 -0.16191
0.368206 -0.193439 0.144786
0.351039 -0.193242 0.141945
-0.267889 -0.203753 0.149865
-0.278684 -0.143925 -0.162502
-0.268304 -0.183837 0.136059
-0.289324 -0.185445 0.145143
-0.255685 -0.18195 0.155152
0.370954 -0.16701 0.138398
0.349761 -0.166898 0.135601
0.379679 -0.122167 -0.16168
0.355071 -0.122477 -0.161684
0.339628 -0.122672 -0.161686
-0.287391 -0.166744 0.139032
-0.253296 -0.12415 -0.155876
-0.289165 -0.123725 -0.162555
0.35085 -0.123408 -0.0779264
-0.259788 -0.159327 0.153475
0.350854 -0.121625 -0.0639195
0.363991 -0.146681 0.144453
-0.275541 -0.153982 0.144918
0.350863 -0.121534 -0.0346842
-0.269787 -0.123945 -0.0722792
-0.269794 -0.121544 -0.0927284
0.350872 -0.121437 -0.00369787
-0.269777 -0.123919 -0.040044
0.379594 -0.0999243 -0.161963
0.361156 -0.100115 -0.161965
0.350882 -0.121333 0.0292013
0.350887 -0.123235 0.0464245
0.360955 -0.134547 0.149789
-0.269766 -0.12389 -0.00577736
0.339545 -0.0971482 -0.162009
0.350898 -0.123185 0.0825434
-0.269755 -0.123859 0.0307187
-0.269763 -0.12123 0.00612986
0.350903 -0.121106 0.101494
0.350909 -0.123132 0.121079
-0.269743 -0.123827 0.0696695
-0.253347 -0.101318 -0.146424
-0.275171 -0.0998623 -0.162544
0.350854 -0.100473 -0.0639195
0.350867 -0.10492 -0.0194197
0.332032 -0.11994 0.129137
0.311438 -0.120132 0.12913
0.290778 -0.120325 0.129125
0.270051 -0.120518 0.129119
0.249258 -0.120712 0.129113
0.228398 -0.120907 0.129107
0.211661 -0.121063 0.129102
-0.267091 -0.12735 0.147186
-0.26973 -0.123792 0.111331
-0.269791 -0.104414 -0.0826037
0.35085 -0.0955974 -0.0779264
0.350877 -0.104316 0.0125017
0.190679 -0.117004 0.129096
0.169629 -0.117193 0.12909
0.148511 -0.117383 0.129084
0.131567 -0.117536 0.129079
0.110325 -0.117727 0.129073
0.0890143 -0.117919 0.129067
0.0719154 -0.118073 0.129061
0.0504788 -0.118266 0.129055
0.0289721 -0.11846 0.129049
0.011716 -0.118615 0.129044
-0.009918 -0.11881 0.129038
-0.0316231 -0.119005 0.129032
-0.0490386 -0.119162 0.129026
-0.0708727 -0.119358 0.12902
-0.0883919 -0.119516 0.129015
-0.110356 -0.119714 0.129009
-0.12798 -0.119872 0.129004
-0.150075 -0.120071 0.128997
-0.167805 -0.120231 0.128992
-0.190033 -0.120431 0.128986
-0.207868 -0.120592 0.128981
-0.23023 -0.120793 0.128974
-0.248173 -0.120954 0.128969
-0.269725 -0.12085 0.12587
-0.269777 -0.104854 -0.040044
0.339504 -0.0843928 -0.162171
0.350882 -0.102074 0.0292013
0.350887 -0.103674 0.0464245
0.350915 -0.112491 0.14133
-0.269766 -0.104225 -0.00577736
-0.269784 -0.0990247 -0.0617485
0.379522 -0.0808701 -0.162204
0.361089 -0.0810242 -0.162208
0.316319 -0.0820341 -0.155105
0.297359 -0.0821344 -0.155758
0.284784 -0.0822421 -0.155731
0.256368 -0.0824854 -0.155671
0.237331 -0.0826484 -0.155631
0.224597 -0.0827574 -0.155604
0.195824 -0.0830034 -0.155548
0.176546 -0.0831679 -0.155513
0.157191 -0.0833332 -0.155477
0.134528 -0.0835656 -0.155
0.105205 -0.0838808 -0.154221
0.0855318 -0.084094 -0.153678
0.0657584 -0.0843092 -0.153123
0.0458835 -0.0845255 -0.152565
0.0259063 -0.084743 -0.152004
-0.269755 -0.103555 0.0307187
-0.269763 -0.101356 0.00612986
0.00629831 -0.0812304 -0.156045
-0.0137221 -0.0813949 -0.156004
-0.0338237 -0.0815601 -0.155964
-0.0540062 -0.0817255 -0.155928
-0.0742708 -0.0818916 -0.155893
-0.0946178 -0.0820583 -0.155857
-0.115048 -0.0822258 -0.155821
-0.135562 -0.0823939 -0.155785
-0.163044 -0.0826191 -0.155737
-0.183755 -0.0827889 -0.155701
-0.204551 -0.0829593 -0.155664
-0.225432 -0.0831304 -0.155628
-0.275097 -0.0795358 -0.162726
-0.253563 -0.0765881 -0.155172
0.37945 -0.0618258 -0.162446
0.361021 -0.0619435 -0.16245
0.335934 -0.0637185 -0.138837
0.105213 -0.0643288 -0.151519
0.085494 -0.0644516 -0.15157
0.0656999 -0.0645748 -0.151621
0.0458299 -0.0646985 -0.151673
0.0258837 -0.0648227 -0.151725
0.317362 -0.0598049 -0.150536
0.304759 -0.0598812 -0.15054
0.27646 -0.0601143 -0.149597
0.257343 -0.0602211 -0.149741
0.00572741 -0.0617018 -0.150477
-0.0143999 -0.0618204 -0.150534
-0.0346057 -0.0619399 -0.150584
-0.0548899 -0.0620599 -0.150634
-0.0650614 -0.06212 -0.150659
-0.0854637 -0.0622407 -0.15071
-0.112791 -0.0624023 -0.150777
0.339411 -0.0557093 -0.162535
0.244452 -0.0569899 -0.150557
0.215629 -0.057155 -0.150566
0.19632 -0.0572656 -0.150571
-0.133708 -0.0592269 -0.149514
-0.253347 -0.060104 -0.146424
-0.268114 -0.0591887 -0.162724
0.176936 -0.054098 -0.150577
0.157478 -0.0542031 -0.150582
0.144463 -0.0542734 -0.150586
-0.154104 -0.055886 -0.150673
-0.174872 -0.0559982 -0.150679
-0.185287 -0.0560544 -0.150682
-0.213164 -0.056205 -0.15069
-0.289091 -0.0559198 -0.16273
0.124877 -0.044492 -0.150592
0.0953558 -0.0446225 -0.1506
0.0755783 -0.0447099 -0.150606
0.0557232 -0.0447977 -0.150612
0.03579 -0.0448857 -0.150618
0.0157782 -0.0449742 -0.150623
-0.234169 -0.0460787 -0.150696
-0.24725 -0.0469231 -0.134081
0.381791 -0.0408975 -0.133349
0.360996 -0.0397035 -0.162542
0.329932 -0.0403573 -0.150533
0.311064 -0.0404345 -0.150538
0.292123 -0.040512 -0.150544
0.269934 -0.0406028 -0.15055
-0.00431252 -0.041725 -0.150629
-0.0244828 -0.0418075 -0.150635
-0.044733 -0.0418903 -0.150641
-0.0650636 -0.0419735 -0.150647
-0.0854751 -0.0420571 -0.150653
-0.112817 -0.0421689 -0.150661
-0.133419 -0.0422532 -0.150667
-0.268114 -0.0422777 -0.162724
0.250835 -0.0374265 -0.150556
0.231662 -0.0374986 -0.150561
0.212416 -0.034304 -0.150567
0.189867 -0.0343815 -0.150573
0.170459 -0.0344483 -0.150579
0.150974 -0.0345152 -0.150584
-0.154104 -0.0355638 -0.150673
-0.174872 -0.0356352 -0.150679
-0.185287 -0.035671 -0.150682
-0.213164 -0.0357668 -0.15069
-0.289091 -0.0355854 -0.16273
-0.255928 -0.0294052 -0.139556
0.397606 -0.0245007 -0.133304
0.250835 -0.0244085 -0.150556
0.231662 -0.0244556 -0.150561
0.131414 -0.0247017 -0.15059
0.111778 -0.02475 -0.150596
0.0920649 -0.0247984 -0.150601
0.0722745 -0.0248469 -0.150607
0.0524064 -0.0248957 -0.150613
0.0324602 -0.0249447 -0.150619
-0.230662 -0.0255907 -0.150695
0.379586 -0.0210989 -0.140919
0.336206 -0.0209724 -0.150531
0.317362 -0.0210125 -0.150536
0.304759 -0.0210393 -0.15054
0.276284 -0.0210999 -0.150548
0.0124353 -0.0216613 -0.150624
-0.00766865 -0.0217041 -0.15063
-0.0278522 -0.0217471 -0.150636
-0.0481158 -0.0217902 -0.150642
-0.0684599 -0.0218335 -0.150648
-0.0888849 -0.0218769 -0.150654
-0.109391 -0.0219205 -0.15066
-0.12998 -0.0219644 -0.150666
-0.261358 -0.0219827 -0.162166
-0.292595 -0.0220365 -0.162731
0.356713 -0.0144085 -0.155637
0.205984 -0.0147112 -0.150568
0.186638 -0.0147397 -0.150574
0.167216 -0.0147683 -0.15058
-0.150651 -0.0152365 -0.150672
-0.16794 -0.015262 -0.150677
-0.188764 -0.0152927 -0.150683
-0.209671 -0.0153235 -0.150689
0.360706 -0.0113826 -0.140924
-0.259751 -0.0121208 -0.138872
0.404196 -0.00490163 -0.132407
0.257209 -0.00487859 -0.150553
0.244452 -0.00488485 -0.150557
0.144463 -0.00493395 -0.150586
0.124878 -0.00494357 -0.150592
0.0953558 -0.00495806 -0.1506
0.0755783 -0.00496777 -0.150606
0.0557232 -0.00497752 -0.150612
0.03579 -0.00498731 -0.150618
-0.234169 -0.00511986 -0.150696
0.379586 -0.001623 -0.140919
0.334769 -0.00160336 -0.156321
0.304759 -0.00161842 -0.15054
0.276284 -0.00162308 -0.150548
0.0157783 -0.00166572 -0.150624
-0.00431248 -0.00166901 -0.15063
-0.0244827 -0.00167231 -0.150635
-0.0447329 -0.00167562 -0.150641
-0.0650635 -0.00167895 -0.150647
-0.0854751 -0.00168229 -0.150653
-0.112817 -0.00168677 -0.150661
-0.133419 -0.00169014 -0.150667
-0.289091 -0.00169455 -0.16273
-0.310153 0.001698 -0.162736
-0.154104 0.00508053 -0.150673
-0.174872 0.00509073 -0.150679
-0.185287 0.00509584 -0.150682
-0.213164 0.00510953 -0.15069
-0.234169 0.00511984 -0.150696
-0.25526 0.0051302 -0.150703
0.360706 0.00813041 -0.140924
-0.279119 0.00862838 -0.144036
0.222048 0.0146875 -0.150563
0.199543 0.0147207 -0.15057
0.180172 0.0147492 -0.150576
0.160726 0.0147779 -0.150581
0.389255 0.0178519 -0.140068
0.341118 0.0176347 -0.155841
0.320507 0.0177742 -0.150535
0.301603 0.0178082 -0.15054
0.279456 0.0178481 -0.150547
0.0224576 0.0183108 -0.150622
0.00239324 0.0183469 -0.150628
-0.0177505 0.0183832 -0.150634
-0.0379739 0.0184196 -0.150639
-0.0582777 0.0184562 -0.150645
-0.0786622 0.0184929 -0.150651
-0.099128 0.0185297 -0.150657
-0.119675 0.0185667 -0.150663
-0.289091 0.01864 -0.16273
-0.310153 0.0186779 -0.162736
0.260394 0.0243851 -0.150553
0.241258 0.0244321 -0.150558
0.141204 0.0246777 -0.150587
0.121606 0.0247259 -0.150593
0.101931 0.0247741 -0.150599
0.0821794 0.0248226 -0.150604
0.0623502 0.0248713 -0.15061
0.0424431 0.0249202 -0.150616
-0.140305 0.0253689 -0.150669
-0.15756 0.0254112 -0.150674
-0.178341 0.0254622 -0.15068
-0.199207 0.0255135 -0.150686
-0.220156 0.0255649 -0.150692
-0.237678 0.0256079 -0.150697
0.370155 0.0276171 -0.140922
0.351239 0.0276697 -0.140927
-0.258783 0.029081 -0.150704
-0.288044 0.029492 -0.139652
0.222048 0.0342709 -0.150564
0.199543 0.0343483 -0.15057
0.180172 0.0344149 -0.150575
0.160726 0.0344817 -0.150581
0.0224576 0.0382862 -0.150622
0.00239324 0.0383617 -0.150628
-0.0177505 0.0384375 -0.150634
-0.0379739 0.0385137 -0.150639
-0.0582777 0.0385901 -0.150645
-0.0786622 0.0386668 -0.150651
-0.099128 0.0387439 -0.150657
-0.119676 0.0388213 -0.150663
-0.301834 0.0392297 -0.157592
-0.320716 0.0390935 -0.16274
0.331818 0.0401254 -0.155647
0.309785 0.0401867 -0.156312
0.292123 0.040512 -0.150543
0.269934 0.0406028 -0.15055
0.348217 0.0451753 -0.11524
0.250835 0.0439354 -0.150556
0.141204 0.0444199 -0.150587
0.121606 0.0445065 -0.150593
0.101931 0.0445934 -0.150599
0.0821794 0.0446807 -0.150604
0.0623502 0.0447684 -0.15061
0.0424431 0.0448563 -0.150616
-0.140305 0.0456639 -0.150669
-0.15756 0.0457402 -0.150674
-0.178341 0.045832 -0.15068
-0.308198 0.0467775 -0.142866
-0.338773 0.0460124 -0.161894
-0.25526 0.0495921 -0.150703
-0.283514 0.0497262 -0.150711
-0.199207 0.0527278 -0.150686
-0.220156 0.0528341 -0.150692
-0.237678 0.052923 -0.150697
0.234863 0.0537851 -0.15056
0.205984 0.0539411 -0.150568
0.186638 0.0540456 -0.150574
0.167216 0.0541505 -0.150579
0.025794 0.0582424 -0.150621
0.0057428 0.0583573 -0.150627
-0.0143876 0.0584726 -0.150633
-0.0345978 0.0585884 -0.150638
-0.0548882 0.0587046 -0.150644
-0.0650636 0.0587629 -0.150647
-0.0854752 0.0588799 -0.150653
-0.112817 0.0590365 -0.150661
-0.318407 0.0596419 -0.160048
0.309954 0.0595247 -0.155551
0.291023 0.0596102 -0.156005
0.272113 0.0629503 -0.156051
0.249947 0.0630826 -0.156192
0.150672 0.0637011 -0.156442
0.131414 0.0642245 -0.15059
0.111778 0.0643499 -0.150596
0.0920649 0.0644757 -0.150601
0.0722745 0.0646021 -0.150607
0.0524065 0.0647288 -0.150613
-0.244704 0.0700421 -0.150699
-0.25526 0.0701129 -0.150703
-0.283514 0.0703025 -0.150711
-0.304805 0.0704454 -0.150717
-0.33837 0.0698069 -0.162744
-0.12998 0.0726513 -0.150666
-0.150651 0.0727968 -0.150672
-0.16794 0.0729185 -0.150677
-0.188763 0.073065 -0.150683
-0.209671 0.0732122 -0.150689
0.230939 0.0729563 -0.155833
0.211795 0.0730938 -0.155884
0.189369 0.0732557 -0.155932
0.170069 0.073395 -0.155973
0.0324602 0.07816 -0.150619
0.0124353 0.0783141 -0.150625
-0.00766864 0.0784687 -0.150631
-0.0278522 0.078624 -0.150636
-0.0481158 0.0787799 -0.150642
-0.0684599 0.0789364 -0.150648
-0.088885 0.0790935 -0.150654
-0.109392 0.0792513 -0.150659
-0.319047 0.080864 -0.150721
-0.359633 0.0801861 -0.162751
0.134534 0.0835813 -0.154824
0.114987 0.0836628 -0.155743
0.0855733 0.0838865 -0.155996
0.0658795 0.0840301 -0.156234
0.0457664 0.0847008 -0.150615
-0.290601 0.0875086 -0.150713
-0.237678 0.0904812 -0.150697
-0.258783 0.0906643 -0.150704
-0.133419 0.0929571 -0.150667
-0.154104 0.0931433 -0.150673
-0.174872 0.0933303 -0.150679
-0.185287 0.093424 -0.150682
-0.213163 0.093675 -0.15069
-0.340483 0.0948211 -0.150727
-0.308362 0.0979694 -0.150718
-0.374228 0.0974554 -0.162031
0.032889 0.0975137 -0.1564
0.00574277 0.0983738 -0.150627
-0.0143877 0.0985682 -0.150632
-0.0345979 0.0987634 -0.150638
-0.0548883 0.0989593 -0.150644
-0.0650636 0.0990576 -0.150647
-0.0854752 0.0992547 -0.150653
-0.112817 0.0995187 -0.15066
-0.340483 0.105165 -0.150727
0.05263 0.104094 -0.154831
-0.234169 0.107517 -0.150697
-0.25526 0.107734 -0.150703
-0.283514 0.108026 -0.150711
-0.133419 0.113239 -0.150667
-0.154104 0.113465 -0.150673
-0.174872 0.113693 -0.150679
-0.185287 0.113807 -0.150682
-0.213163 0.114113 -0.15069
-0.304805 0.118554 -0.150717
-0.315483 0.118675 -0.15072
-0.365602 0.119241 -0.150734
-0.388411 0.118112 -0.162207
0.0229073 0.117522 -0.155925
-0.00431255 0.118499 -0.150629
-0.0244828 0.118733 -0.150635
-0.044733 0.118969 -0.150641
-0.0650636 0.119205 -0.150647
-0.0854752 0.119442 -0.150653
-0.112817 0.11976 -0.150661
-0.344064 0.125896 -0.150728
-0.234169 0.127996 -0.150697
-0.25526 0.128255 -0.150703
-0.283514 0.128602 -0.150711
-0.133419 0.13352 -0.150667
-0.154104 0.133788 -0.150673
-0.174872 0.134056 -0.150679
-0.185287 0.134191 -0.150682
-0.213163 0.134551 -0.15069
-0.383546 0.136735 -0.15088
-0.304805 0.139173 -0.150717
-0.315483 0.139314 -0.15072
-0.395266 0.138665 -0.162761
0.00293674 0.137683 -0.155751
-0.0237003 0.137944 -0.156448
-0.044733 0.139076 -0.150641
-0.0650637 0.139352 -0.150646
-0.0854752 0.139629 -0.150653
-0.112817 0.140001 -0.150661
-0.234169 0.148476 -0.150697
-0.25526 0.148776 -0.150703
-0.283514 0.149178 -0.150711
-0.354822 0.150194 -0.150731
-0.12998 0.153751 -0.150666
-0.150651 0.154058 -0.150672
-0.16794 0.154316 -0.150677
-0.188764 0.154626 -0.150683
-0.209671 0.154937 -0.15069
-0.392157 0.159168 -0.141258
-0.297698 0.159683 -0.150715
-0.319047 0.160008 -0.150721
-0.365602 0.160716 -0.150734
-0.392048 0.159269 -0.162089
-0.0237909 0.158002 -0.155774
-0.0438492 0.158227 -0.156302
-0.0650636 0.159499 -0.150647
-0.0854751 0.159817 -0.150653
-0.112817 0.163615 -0.150661
-0.202692 0.165042 -0.150688
-0.223656 0.168785 -0.150693
-0.244704 0.169126 -0.1507
-0.25526 0.169297 -0.150703
-0.283514 0.169755 -0.15071
-0.347648 0.170794 -0.150729
-0.133419 0.174083 -0.150667
-0.154104 0.174432 -0.150673
-0.174872 0.174782 -0.150679
-0.391761 0.177515 -0.155856
-0.304805 0.180409 -0.150716
-0.315483 0.180592 -0.15072
-0.0506604 0.178429 -0.15579
-0.0708154 0.178689 -0.156289
-0.0888849 0.180064 -0.150654
-0.390941 0.186694 -0.143599
-0.109391 0.183795 -0.15066
-0.178341 0.185026 -0.15068
-0.199206 0.185398 -0.150686
-0.344064 0.187982 -0.150728
-0.373732 0.187507 -0.155995
-0.220156 0.18918 -0.150692
-0.237678 0.189498 -0.150697
-0.258783 0.189882 -0.150703
-0.279974 0.190267 -0.150709
-0.133419 0.194365 -0.150666
-0.154104 0.194754 -0.150673
-0.301251 0.197524 -0.150715
-0.372313 0.200115 -0.144518
-0.0810641 0.199036 -0.155778
-0.320007 0.203554 -0.1565
-0.0979915 0.202677 -0.155971
-0.16794 0.205189 -0.150677
-0.188763 0.205602 -0.150683
-0.341581 0.207517 -0.155967
-0.213163 0.209491 -0.15069
-0.234169 0.209914 -0.150696
-0.25526 0.210339 -0.150702
-0.377419 0.210207 -0.162756
-0.118445 0.213172 -0.155886
-0.138891 0.213538 -0.156159
-0.284731 0.219949 -0.156338
-0.295376 0.220209 -0.156183
-0.204363 0.225037 -0.156238
-0.225249 0.228905 -0.156153
-0.253207 0.229534 -0.156111
