ply
format ascii 1.0
comment Created by Open3D
element vertex 1295
property double x
property double y
property double z
end_header
0.072929 -0.124939 0.33379
0.0774006 -0.124713 0.327465
0.0840772 -0.124375 0.318021
0.0885085 -0.124151 0.311753
0.0951253 -0.123816 0.302394
0.103892 -0.123372 0.289993
0.099506 -0.124231 0.282446
0.0868022 -0.122571 0.273435
0.0779437 -0.117476 0.330923
0.0843846 -0.117184 0.32146
0.0907934 -0.116893 0.312044
0.0992893 -0.116508 0.299562
0.105624 -0.116221 0.290254
0.103471 -0.116921 0.279629
0.0932932 -0.118413 0.271008
0.0714707 -0.114254 0.340433
0.084206 -0.116209 0.262401
0.0764649 -0.117394 0.253875
0.0694072 -0.118506 0.245334
0.0256984 -0.125962 0.179068
0.0262088 -0.126238 0.171286
-0.0696852 -0.125689 0.330531
0.0932932 -0.111344 0.271008
0.0628486 -0.115888 0.236753
0.0572753 -0.116812 0.228241
0.0521026 -0.117696 0.219696
0.0474125 -0.118531 0.211142
-0.0161666 -0.126481 0.177083
0.00712597 -0.12402 0.178569
0.0269787 -0.122756 0.159549
0.0714707 -0.107223 0.340433
0.0760652 -0.107151 0.330721
0.0799608 -0.107152 0.320941
0.0838565 -0.107152 0.311162
0.0877626 -0.107152 0.301383
0.0916526 -0.107153 0.291602
0.095548 -0.107154 0.281822
0.0694072 -0.111213 0.245334
0.0414634 -0.11587 0.198357
0.038015 -0.116553 0.189834
0.0349631 -0.117197 0.181316
0.0275524 -0.119114 0.151697
-0.0710069 -0.117546 0.338079
-0.059134 -0.116652 0.331524
-0.0523943 -0.116123 0.328369
-0.0348225 -0.11465 0.322588
-0.0229087 -0.113597 0.320105
0.042454 -0.107155 0.323602
0.0451429 -0.107155 0.316861
0.0491741 -0.107155 0.30675
0.053205 -0.107156 0.296638
0.0572696 -0.107152 0.286532
0.0612813 -0.107155 0.276418
0.0652738 -0.107159 0.2663
0.0693164 -0.107158 0.25619
0.0521026 -0.110223 0.219696
0.0474125 -0.111005 0.211142
0.0312566 -0.114201 0.168598
0.0291445 -0.114732 0.160115
-0.00441098 -0.108084 0.31842
0.00646818 -0.107161 0.31598
0.0106747 -0.107158 0.305518
0.0148832 -0.107154 0.295056
0.0234221 -0.106588 0.288889
0.0341519 -0.105938 0.279471
0.0398656 -0.10578 0.269379
0.0421786 -0.105823 0.262419
0.0427554 -0.106178 0.25145
0.039809 -0.106888 0.239742
0.039904 -0.107157 0.232256
0.0275524 -0.111304 0.151697
-0.0157876 -0.126824 -0.157053
-0.00728142 -0.126047 -0.157493
0.00942194 -0.124522 -0.158359
0.0154141 -0.124392 -0.169881
0.01491 -0.124819 -0.180108
0.0518255 -0.125441 -0.289387
0.0593359 -0.124934 -0.294566
0.0704885 -0.12418 -0.302256
0.0649894 -0.125229 -0.316692
0.0577368 -0.126299 -0.327278
0.0503591 -0.127387 -0.338046
-0.0710069 -0.109576 0.338079
-0.0377852 -0.107155 0.32228
-0.0334966 -0.107159 0.311429
-0.029133 -0.107155 0.300587
0.0311136 -0.104386 0.226736
0.00549173 -0.107154 0.213819
0.00836921 -0.107154 0.206586
0.0126932 -0.107155 0.195739
0.0170047 -0.107156 0.184889
0.0213104 -0.107158 0.174038
0.024173 -0.10716 0.166801
-0.0419463 -0.124678 -0.155697
-0.0243989 -0.123132 -0.156606
0.0200247 -0.119167 -0.15746
0.0218438 -0.12021 -0.191091
0.0233732 -0.1204 -0.200213
0.025082 -0.120571 -0.20926
0.0272722 -0.120689 -0.218041
0.0311447 -0.120801 -0.230883
0.0340037 -0.120845 -0.239284
0.0391246 -0.120818 -0.251359
0.0429237 -0.120756 -0.259151
0.0490348 -0.120615 -0.270543
0.0535657 -0.120468 -0.277804
0.0768682 -0.119457 -0.308045
0.0428534 -0.123986 -0.349001
-0.0839747 -0.107158 0.325293
-0.0794395 -0.107154 0.314042
-0.0764289 -0.107152 0.30654
-0.0719433 -0.107152 0.295285
-0.0674145 -0.107149 0.284034
0.0272789 -0.0990079 0.282109
0.0190932 -0.101848 0.220488
-0.0360699 -0.107157 0.205232
-0.0315896 -0.107157 0.193974
-0.0286053 -0.107158 0.186468
-0.02413 -0.10716 0.175209
-0.0196522 -0.107161 0.16395
-0.0166386 -0.107159 0.156451
-0.0121285 -0.107157 0.1452
-0.00408947 -0.116866 -0.155777
0.00404286 -0.11618 -0.156344
0.0202404 -0.115151 -0.167177
0.0205553 -0.11546 -0.176893
0.0607874 -0.115826 -0.288353
0.0685464 -0.115502 -0.298448
0.0707322 -0.11598 -0.317752
0.062453 -0.117091 -0.329119
0.00987303 -0.0964381 0.290689
0.0179644 -0.0958486 0.288121
0.0329121 -0.0950179 0.275618
0.0378686 -0.0949451 0.265381
0.0395225 -0.0951664 0.254583
0.0386374 -0.0954927 0.246993
0.033866 -0.0962946 0.234851
-0.0462335 -0.115873 -0.152836
-0.0290724 -0.114481 -0.154033
-0.0206451 -0.113798 -0.154621
0.0200247 -0.1105 -0.15746
0.0213864 -0.111348 -0.186364
0.0226079 -0.111555 -0.195648
0.0241396 -0.111732 -0.204786
0.0261765 -0.111857 -0.213648
0.0297364 -0.111993 -0.226672
0.0325536 -0.112038 -0.235095
0.0357108 -0.112048 -0.24331
0.040931 -0.112012 -0.255317
0.044915 -0.111935 -0.262983
0.0513017 -0.111775 -0.274176
0.0768682 -0.110769 -0.308045
0.0540142 -0.113762 -0.340706
0.0454102 -0.114872 -0.352519
0.0270574 -0.0915544 0.282076
0.0102545 -0.0949268 0.218694
-0.0117869 -0.108955 -0.164927
-0.00847828 -0.108953 -0.173171
-0.00352859 -0.108952 -0.185543
-0.000253439 -0.108954 -0.193805
0.00472295 -0.10895 -0.206161
0.00802839 -0.108948 -0.214405
0.0113204 -0.108948 -0.222657
0.016204 -0.108954 -0.235068
0.0194936 -0.108954 -0.243323
0.02446 -0.108951 -0.255683
0.0277352 -0.108953 -0.263946
0.0327079 -0.108949 -0.276301
0.0360181 -0.108947 -0.284541
0.0393114 -0.108947 -0.292792
0.0442425 -0.108948 -0.305175
0.0475061 -0.108951 -0.313447
0.0524433 -0.108951 -0.325826
0.0365376 -0.0874946 0.268843
0.0246464 -0.089739 0.225446
-0.0576407 -0.108955 -0.195022
-0.0542059 -0.108955 -0.203624
-0.0490848 -0.108957 -0.216545
-0.0456421 -0.108956 -0.225143
-0.0288507 -0.107528 -0.220653
-0.0192394 -0.106776 -0.220245
-0.012221 -0.106269 -0.221299
-0.0021919 -0.105633 -0.225671
0.0167891 -0.105085 -0.25541
0.0167488 -0.10541 -0.265883
0.0125606 -0.106138 -0.279152
0.000955462 -0.107429 -0.292153
-0.012983 -0.108951 -0.306843
-0.00954115 -0.10895 -0.31544
-0.00609517 -0.108948 -0.324033
-0.00267529 -0.108949 -0.332645
0.00910389 -0.0851521 0.290583
0.0175138 -0.0846074 0.288058
0.0387725 -0.0838123 0.261846
0.0391482 -0.0841087 0.250807
0.0356157 -0.0847167 0.238949
-0.0985868 -0.108953 -0.250244
0.00287712 -0.100978 -0.232948
0.0105453 -0.100731 -0.243762
0.0267248 -0.0803685 0.282027
0.0296303 -0.0816167 0.230243
-0.0102761 -0.0972016 -0.225333
0.0142456 -0.0963664 -0.257036
0.0135714 -0.0967198 -0.267945
0.017213 -0.077108 0.288015
0.0346355 -0.0763624 0.272215
0.0386016 -0.0763746 0.261818
0.0389659 -0.0766455 0.250774
0.0354016 -0.0772018 0.238909
-0.0240951 -0.0935474 -0.223099
-0.00114608 -0.092199 -0.230216
0.00844514 -0.0918144 -0.239883
0.0053736 -0.0931972 -0.283887
0.0121655 -0.0873033 -0.247939
0.0226086 -0.0693291 0.285102
0.0292064 -0.070256 0.23016
-0.0246153 -0.0844597 -0.223405
-0.0166707 -0.0839918 -0.223935
0.013767 -0.0830825 -0.262572
0.0106852 -0.0835712 -0.275095
0.0049051 -0.0841406 -0.284195
0.00781977 -0.0663069 0.290407
0.0321673 -0.0652536 0.275503
0.0371844 -0.0652001 0.265268
0.0388415 -0.0653519 0.254463
0.0379064 -0.0655791 0.24686
-0.00541472 -0.0788913 -0.22761
0.00530851 -0.0784836 -0.236638
0.0223104 -0.0618511 0.285059
0.0328971 -0.0623645 0.234664
-0.0251361 -0.0753636 -0.223711
-0.0169793 -0.0749321 -0.224118
0.0100174 -0.0739051 -0.244092
0.0129321 -0.0739323 -0.252658
0.013548 -0.0741155 -0.262713
0.0103965 -0.0745561 -0.275284
0.00402236 -0.0751045 -0.284777
0.0228112 -0.05929 0.22508
-0.00560927 -0.0698873 -0.227727
0.00513089 -0.0695253 -0.236747
0.00704741 -0.0549787 0.290301
0.0294777 -0.0541331 0.278765
0.0340781 -0.0540405 0.272127
0.0380886 -0.054047 0.261732
0.0384188 -0.0542405 0.250676
-0.0256572 -0.0662591 -0.224017
-0.0172883 -0.0658676 -0.224301
0.00984132 -0.0649574 -0.244202
0.0127441 -0.0649819 -0.252778
0.0133289 -0.0651448 -0.262854
0.0101079 -0.0655363 -0.275472
0.00255787 -0.0660886 -0.285742
0.0161593 -0.0508276 0.287867
0.0346513 -0.0508758 0.238767
0.0284985 -0.0513015 0.230021
0.0223515 -0.0516616 0.224988
-0.00580382 -0.0608803 -0.227844
0.00495315 -0.060564 -0.236857
0.00653076 -0.0474177 0.29023
0.025726 -0.0467691 0.28188
0.033892 -0.0465947 0.272098
0.0379174 -0.0465997 0.261703
0.0382361 -0.046767 0.250644
-0.0261787 -0.0571462 -0.224324
0.00966549 -0.0560067 -0.244312
0.0125561 -0.0560286 -0.252897
0.0131097 -0.0561706 -0.262996
0.00981963 -0.0565117 -0.275661
0.00108767 -0.0570489 -0.28671
-0.0114298 -0.0520453 -0.226022
-0.00201774 -0.0517621 -0.230745
0.0157071 -0.039549 0.287803
0.0343295 -0.039582 0.238706
0.0280735 -0.0399169 0.229938
0.021661 -0.0402069 0.224851
0.00755954 -0.0470648 -0.240432
0.0113751 -0.0470435 -0.248437
0.0132122 -0.0471072 -0.257697
0.0119921 -0.0473035 -0.26897
0.00575483 -0.0360629 0.290123
0.0253927 -0.0355555 0.281831
0.033613 -0.0354212 0.272054
0.0376606 -0.0354243 0.26166
0.0379623 -0.0355521 0.250595
-0.0269622 -0.0434612 -0.224784
-0.00112486 -0.0434439 -0.288167
0.0154055 -0.0320247 0.287761
0.0341146 -0.032049 0.238666
0.02779 -0.0323222 0.229882
-0.0117762 -0.0384801 -0.226229
-0.00230861 -0.038269 -0.230921
0.02097 -0.0287375 0.224713
-0.0274848 -0.0343273 -0.225091
0.0072937 -0.0336259 -0.240597
0.0111114 -0.0336105 -0.248603
0.0129299 -0.0336567 -0.257878
0.0115607 -0.0338016 -0.26925
-0.00260484 -0.0343437 -0.289142
0.00326383 -0.0247305 0.289781
0.025059 -0.0243349 0.281782
0.0333339 -0.0242419 0.27201
0.0374036 -0.0242435 0.261616
0.0376881 -0.0243313 0.250546
-0.0120074 -0.0294321 -0.226367
0.0149527 -0.0207305 0.287697
0.0337926 -0.0207438 0.238605
0.0273644 -0.0209226 0.229799
-0.0280081 -0.025185 -0.225399
-0.0186803 -0.0250152 -0.225126
0.00136006 -0.0247175 -0.233875
0.0090487 -0.0246568 -0.244697
0.0118976 -0.0246674 -0.253315
0.0123417 -0.0247324 -0.263491
0.00860834 -0.0248926 -0.276453
0.00104332 -0.0171556 0.289476
0.0248367 -0.0168507 0.281749
0.0331475 -0.0167858 0.27198
0.0372322 -0.0167867 0.261588
0.0375054 -0.0168476 0.250513
-0.0122385 -0.0203803 -0.226505
-0.028532 -0.0160342 -0.225707
-0.0189904 -0.0159232 -0.22531
0.00117636 -0.0157319 -0.233987
0.00887251 -0.0156932 -0.244807
0.0117092 -0.0157001 -0.253434
0.012122 -0.015742 -0.263632
0.00814378 -0.0158475 -0.276757
0.0144994 -0.00942685 0.287634
0.03347 -0.00943184 0.238544
0.0269384 -0.00951405 0.229716
-0.0124694 -0.0113247 -0.226643
-0.00232518 -0.00573596 0.289014
0.0245029 -0.00561865 0.2817
0.0328681 -0.00559672 0.271936
0.036975 -0.00559691 0.261544
0.037231 -0.00561733 0.250464
-0.0290561 -0.00687499 -0.226015
-0.0193002 -0.0068261 -0.225493
0.000983357 -0.00674344 -0.234105
0.0086962 -0.00672676 -0.244918
0.0115209 -0.0067298 -0.253554
0.0119023 -0.00674793 -0.263774
0.00767899 -0.00679465 -0.277061
0.0141072 -0.00188606 0.287578
0.0332551 -0.00188676 0.238503
0.0266542 -0.00190332 0.22966
0.0241691 0.00562036 0.28165
0.0325885 0.00559815 0.271892
0.0367178 0.00559823 0.261501
0.0369567 0.00561875 0.250416
-0.0298462 0.00687974 -0.226479
-0.0197656 0.00682889 -0.225769
-0.00752366 0.00677492 -0.228879
0.00069356 0.00674518 -0.234282
0.00843167 0.00672835 -0.245083
0.0112383 0.00673151 -0.253733
0.0115721 0.00674993 -0.263986
0.0069809 0.00679894 -0.277517
0.0133432 0.00943684 0.287471
0.0329324 0.00943657 0.238442
0.0262277 0.00952031 0.229576
0.0239465 0.0131169 0.281618
0.0324019 0.0130646 0.271863
0.0365462 0.0130646 0.261472
0.0367736 0.0131127 0.250383
-0.030374 0.0160602 -0.22679
-0.0200773 0.0159385 -0.225954
-0.00775349 0.0158114 -0.229017
0.000500202 0.0157415 -0.2344
0.008255 0.015702 -0.245194
0.0110497 0.0157096 -0.253853
0.0113518 0.015753 -0.264128
0.00651515 0.0158709 -0.277822
0.0125781 0.0207756 0.287363
0.0326095 0.0207667 0.238381
0.0258009 0.020953 0.229493
-0.0309023 0.0252493 -0.2271
-0.0203896 0.0250532 -0.226138
-0.00798333 0.0248517 -0.229156
0.000306845 0.0247411 -0.234519
0.00807858 0.0246787 -0.245304
0.0108612 0.0246908 -0.253973
0.0111315 0.0247598 -0.26427
0.00604916 0.0249507 -0.278127
0.0236124 0.0243675 0.281568
0.0321221 0.0242693 0.271819
0.0362887 0.0242688 0.261429
0.0364989 0.0243584 0.250334
0.0174922 0.0249856 0.224019
0.0120674 0.0283436 0.287291
0.0344708 0.0282324 0.242489
0.0255163 0.0285798 0.229437
-0.031431 0.0344468 -0.227411
-0.0207015 0.034173 -0.226323
-0.00821316 0.0338957 -0.229294
0.000113487 0.0337437 -0.234637
0.00790179 0.0336581 -0.245414
0.0106727 0.0336751 -0.254092
0.0109111 0.0337702 -0.264412
0.00558221 0.0340381 -0.278432
0.0160897 0.0327156 0.223739
0.0184181 0.0357391 0.284498
0.0296456 0.0355066 0.275114
0.0348682 0.0354711 0.264887
0.0365366 0.0355534 0.25406
-0.0319601 0.0436529 -0.227722
-0.0210139 0.0432977 -0.226508
-0.00844336 0.0429434 -0.229432
-7.98702e-05 0.0427495 -0.234755
0.00772512 0.0426405 -0.245525
0.0104839 0.0426624 -0.254212
0.0106906 0.0427842 -0.264554
0.0051142 0.0431332 -0.278738
0.0113004 0.0397088 0.287184
0.0353397 0.039442 0.246393
0.0291647 0.0398245 0.233946
0.0181174 0.0432751 0.284455
0.0294584 0.0429891 0.275085
0.0346963 0.0429455 0.264859
0.0363655 0.0430452 0.25403
0.0139632 0.0443487 0.223315
-0.0327126 0.0528779 -0.228164
0.0246925 0.0476692 0.229275
-0.0214826 0.0569944 -0.226786
-0.00878859 0.0565219 -0.22964
-0.000370145 0.056264 -0.234932
0.00746012 0.0561194 -0.245691
0.0102007 0.0561492 -0.254392
0.0103598 0.0563119 -0.264767
0.00441122 0.0567904 -0.279198
0.0105314 0.05109 0.287075
0.035064 0.0507242 0.246343
0.0176665 0.0545869 0.28439
0.0291773 0.0542178 0.275042
0.0344383 0.0541618 0.264816
0.0361086 0.0542874 0.253985
0.0117805 0.0560297 0.222879
-0.0357585 0.0668505 -0.229954
-0.0217955 0.0661319 -0.226971
-0.0090189 0.065579 -0.229779
-0.000563741 0.0652778 -0.235051
0.00728321 0.065109 -0.245801
0.010012 0.0651444 -0.254512
0.0101389 0.065335 -0.26491
0.00394237 0.065905 -0.279504
0.0100173 0.0586864 0.287003
0.0348802 0.0582489 0.24631
0.0284576 0.0588272 0.23381
0.0103204 0.0638429 0.222588
-0.0378042 0.0762075 -0.231157
-0.0221083 0.0752744 -0.227157
-0.00924909 0.0746398 -0.229917
-0.000757575 0.0742946 -0.235169
0.0071063 0.0741015 -0.245912
0.00982308 0.0741425 -0.254632
0.00991809 0.0743617 -0.265052
0.00347269 0.0750273 -0.279811
0.0223851 0.0656792 0.281387
0.0288962 0.0654524 0.274999
0.0341802 0.0653834 0.264774
0.0358518 0.065535 0.25394
0.00924551 0.0700945 0.286894
0.0346041 0.0695408 0.24626
0.028033 0.0702408 0.233728
-0.0224214 0.0844219 -0.227342
-0.00947928 0.0837043 -0.230056
-0.00095129 0.0833146 -0.235287
0.00692952 0.0830968 -0.246022
0.00963402 0.0831438 -0.254752
0.0096972 0.0833921 -0.265194
0.003003 0.0841573 -0.280118
0.0221616 0.0732005 0.281354
0.0287086 0.0729453 0.27497
0.034008 0.0728674 0.264745
0.0356803 0.0730364 0.25391
-0.166329 0.096714 -0.17036
-0.162658 0.096714 -0.179564
-0.158987 0.096714 -0.188767
-0.155315 0.096714 -0.197971
-0.149809 0.096714 -0.211777
-0.146137 0.096714 -0.220981
-0.142466 0.096714 -0.230185
-0.138795 0.096714 -0.239389
-0.135124 0.096714 -0.248592
-0.131473 0.0967156 -0.257808
-0.126019 0.0967198 -0.271645
-0.122384 0.0967226 -0.28087
-0.0949208 0.0967285 -0.349953
-0.091244 0.0967281 -0.359155
-0.0875763 0.0967284 -0.368363
-0.0839086 0.0967287 -0.377571
-0.0784068 0.0967292 -0.391383
-0.0747354 0.0967292 -0.400589
-0.0710454 0.0967277 -0.409781
0.00873017 0.0777087 0.286822
0.0309921 0.0775197 0.238076
0.0228606 0.0783099 0.228916
-0.167133 0.0967153 0.017055
-0.161895 0.0967152 0.00392258
-0.158403 0.0967152 -0.00483239
-0.154911 0.0967152 -0.0135874
-0.149672 0.0967152 -0.0267199
-0.14618 0.0967152 -0.0354749
-0.142688 0.0967152 -0.0442299
-0.139196 0.0967152 -0.0529849
-0.133958 0.0967152 -0.0661174
-0.130466 0.0967152 -0.0748724
-0.126973 0.0967152 -0.0836274
-0.121735 0.0967152 -0.0967599
-0.118243 0.0967152 -0.105515
-0.114751 0.0967152 -0.11427
-0.111258 0.0967152 -0.123025
-0.10602 0.0967152 -0.136157
-0.102528 0.0967152 -0.144912
-0.0990357 0.0967152 -0.153667
-0.0937976 0.0967152 -0.1668
-0.0903053 0.0967152 -0.175555
-0.0868132 0.0967152 -0.18431
-0.0833211 0.0967152 -0.193065
-0.0780828 0.0967152 -0.206197
-0.0745907 0.0967152 -0.214952
-0.0710986 0.0967152 -0.223707
-0.0658603 0.0967152 -0.23684
-0.0623682 0.0967152 -0.245595
-0.0227346 0.0935746 -0.227528
-0.0151327 0.0930838 -0.228233
-0.00512552 0.0925303 -0.232629
0.00752091 0.0927319 -0.271872
0.0025326 0.0932952 -0.280426
-0.0363352 0.0967286 -0.311362
-0.0328389 0.0967283 -0.320115
-0.0293424 0.096728 -0.328869
-0.0258459 0.0967277 -0.337622
-0.0205952 0.0967266 -0.350748
-0.0170985 0.0967263 -0.359501
-0.0136099 0.0967266 -0.36826
-0.00837636 0.0967271 -0.381398
-0.00489759 0.0967283 -0.390165
-0.00141227 0.0967289 -0.398926
0.00209677 0.0967275 -0.40767
0.00733733 0.0967273 -0.420803
0.0109317 0.0967184 -0.429478
-0.167863 0.0967164 0.18704
-0.162868 0.0967164 0.174518
-0.159538 0.0967163 0.16617
-0.154543 0.0967163 0.153649
-0.151214 0.0967163 0.145301
-0.147884 0.0967163 0.136953
-0.142889 0.0967163 0.124431
-0.139559 0.0967163 0.116083
-0.134565 0.0967163 0.103561
-0.131235 0.0967163 0.0952134
-0.127905 0.0967163 0.0868655
-0.122911 0.0967163 0.0743437
-0.119581 0.0967163 0.0659958
-0.114586 0.0967163 0.0534739
-0.111256 0.0967163 0.045126
-0.107926 0.0967163 0.0367781
-0.102932 0.0967163 0.0242563
-0.0996021 0.0967163 0.0159084
-0.0946075 0.0967163 0.00338659
-0.0912777 0.0967163 -0.00496131
-0.0879478 0.0967163 -0.0133092
-0.0829532 0.0967163 -0.025831
-0.0796235 0.0967163 -0.0341789
-0.0762936 0.0967163 -0.0425268
-0.071299 0.0967163 -0.0550486
-0.0679691 0.0967163 -0.0633965
-0.0629745 0.0967163 -0.0759183
-0.0596447 0.0967163 -0.0842661
-0.0563149 0.0967163 -0.0926141
-0.0513203 0.0967163 -0.105136
-0.0479906 0.0967163 -0.113484
-0.0429958 0.0967163 -0.126006
-0.0396661 0.0967163 -0.134353
-0.0363363 0.0967163 -0.142701
-0.0313414 0.0967163 -0.155223
-0.0280117 0.0967163 -0.163571
-0.0230169 0.0967163 -0.176093
-0.0196872 0.0967163 -0.184441
-0.0163574 0.0967163 -0.192789
-0.0113628 0.0967163 -0.20531
-0.00803304 0.0967163 -0.213658
-0.00303829 0.0967163 -0.22618
0.00471592 0.0966203 -0.242197
0.00850809 0.0965793 -0.250243
0.0102669 0.0967175 -0.259581
0.0185641 0.09672 -0.280469
0.021867 0.0967224 -0.288835
0.0268193 0.0967262 -0.301387
0.0301354 0.0967275 -0.309746
0.0334688 0.0967272 -0.318092
0.0384707 0.0967265 -0.33061
0.041808 0.0967259 -0.338954
0.0468138 0.0967249 -0.351469
0.0501471 0.0967246 -0.359815
0.0534739 0.0967249 -0.368166
0.0584531 0.0967264 -0.380702
0.0617708 0.0967275 -0.38906
0.0667621 0.0967279 -0.401587
0.0700873 0.0967284 -0.40994
-0.157408 0.0967187 0.313998
-0.154242 0.0967199 0.306019
-0.149458 0.0967191 0.294055
-0.146271 0.0967187 0.286078
-0.141489 0.096718 0.274114
0.0218263 0.0844882 0.281305
0.0284274 0.0841897 0.274926
0.0337496 0.0840981 0.264703
0.0354233 0.0842931 0.253865
-0.111257 0.0967176 0.198333
-0.108075 0.0967176 0.190356
-0.104893 0.0967176 0.182379
-0.100119 0.0967175 0.170414
-0.0969374 0.0967175 0.162437
-0.0921643 0.0967175 0.150472
-0.0889825 0.0967175 0.142495
-0.0842092 0.0967174 0.130529
-0.0794363 0.0967174 0.118564
-0.0762542 0.0967174 0.110587
-0.0714813 0.0967174 0.0986217
-0.0682995 0.0967174 0.0906448
-0.0635269 0.0967174 0.0786794
-0.0603451 0.0967174 0.0707024
-0.0555723 0.0967174 0.058737
-0.0523905 0.0967174 0.05076
-0.0476178 0.0967174 0.0387946
-0.044436 0.0967174 0.0308176
-0.0396632 0.0967174 0.0188522
-0.0364814 0.0967174 0.0108752
-0.0317087 0.0967174 -0.0010902
-0.0285267 0.0967174 -0.00906709
-0.0237539 0.0967174 -0.0210325
-0.0205721 0.0967174 -0.0290094
-0.0157994 0.0967174 -0.0409749
-0.0126176 0.0967174 -0.0489518
-0.00784481 0.0967174 -0.0609173
-0.00466299 0.0967174 -0.0688943
0.000109673 0.0967174 -0.0808597
0.00329149 0.0967174 -0.0888366
0.00806439 0.0967174 -0.100802
0.0112462 0.0967174 -0.108779
0.0160189 0.0967174 -0.120744
0.0192007 0.0967174 -0.128721
0.0239735 0.0967174 -0.140687
0.0271553 0.0967174 -0.148664
0.0319279 0.0967174 -0.160629
0.0351098 0.0967174 -0.168606
0.0398825 0.0967174 -0.180571
0.0430644 0.0967174 -0.188548
0.047837 0.0967174 -0.200514
0.051019 0.0967173 -0.208491
0.0557917 0.0967173 -0.220456
0.0589736 0.0967173 -0.228433
0.0637462 0.0967173 -0.240399
0.066928 0.0967173 -0.248376
0.0716866 0.0967187 -0.260351
0.0748585 0.0967196 -0.268334
0.0796167 0.096721 -0.280311
0.0827887 0.0967219 -0.288295
0.0875317 0.0967248 -0.300283
0.090696 0.0967264 -0.308273
0.0954752 0.0967259 -0.320235
0.0986637 0.0967253 -0.328208
0.103446 0.0967244 -0.340167
0.106635 0.0967237 -0.34814
0.111413 0.0967232 -0.360102
0.114585 0.0967242 -0.368087
0.118348 0.0968233 -0.380895
-0.124981 0.0967199 0.372873
-0.121892 0.0967166 0.365238
-0.117304 0.0967151 0.353783
-0.114272 0.0967163 0.346145
-0.109725 0.096718 0.334687
-0.106693 0.0967191 0.327048
-0.102145 0.0967209 0.315589
-0.0975548 0.0967193 0.304135
-0.0945033 0.0967189 0.296498
-0.0899258 0.0967182 0.285042
-0.0868742 0.0967178 0.277405
0.0079565 0.0891435 0.286713
0.0341436 0.0883735 0.246176
0.0273246 0.0892835 0.233592
-0.0594709 0.096719 0.208665
-0.0564243 0.096719 0.201027
-0.0518541 0.096719 0.189571
-0.0488074 0.096719 0.181933
-0.0442374 0.0967189 0.170477
-0.0396675 0.0967189 0.15902
-0.0366206 0.0967189 0.151383
-0.0320507 0.0967189 0.139926
-0.029004 0.0967188 0.132289
-0.024434 0.0967188 0.120832
-0.019864 0.0967188 0.109376
-0.0168173 0.0967188 0.101739
-0.0122473 0.0967188 0.0902822
-0.00767708 0.0967187 0.0788259
-0.00463057 0.0967187 0.0711883
-6.05583e-05 0.0967187 0.0597321
0.00298595 0.0967187 0.0520945
0.00755608 0.0967186 0.0406382
0.0121261 0.0967186 0.0291819
0.0151728 0.0967186 0.0215444
0.0197428 0.0967186 0.0100881
0.0227895 0.0967185 0.00245059
0.0273594 0.0967185 -0.0090057
0.0319295 0.0967185 -0.0204619
0.034976 0.0967185 -0.0280995
0.0395461 0.0967184 -0.0395557
0.044116 0.0967184 -0.051012
0.0471627 0.0967184 -0.0586494
0.0517327 0.0967184 -0.0701057
0.0547794 0.0967183 -0.0777431
0.0593494 0.0967183 -0.0891993
0.0639191 0.0967183 -0.100656
0.0669656 0.0967183 -0.108293
0.0715352 0.0967183 -0.11975
0.0761049 0.0967183 -0.131206
0.0791514 0.0967183 -0.138844
0.083721 0.0967183 -0.1503
0.0867674 0.0967183 -0.157938
0.0913372 0.0967183 -0.169394
0.0959069 0.0967183 -0.18085
0.0989532 0.0967183 -0.188488
0.103523 0.0967183 -0.199944
0.106569 0.0967183 -0.207582
0.111139 0.0967183 -0.219038
0.115709 0.0967183 -0.230495
0.118755 0.0967183 -0.238132
0.123324 0.0967183 -0.249589
0.127881 0.0967197 -0.261055
0.130918 0.0967206 -0.268699
0.135474 0.0967219 -0.280166
0.138512 0.0967228 -0.28781
0.143069 0.0967241 -0.299277
0.147627 0.0967253 -0.310743
0.15068 0.0967247 -0.318377
0.151189 0.0971377 -0.333127
0.144106 0.0981729 -0.34913
0.1392 0.0988323 -0.358342
-0.0864955 0.0967259 0.404964
-0.0821098 0.0967257 0.393974
-0.0791488 0.0967226 0.38665
-0.0747074 0.0967178 0.375663
-0.0702871 0.0967148 0.364677
-0.0673866 0.0967165 0.35735
-0.0630257 0.0967184 0.34636
-0.0586625 0.09672 0.335369
-0.0542994 0.0967217 0.324378
-0.0513688 0.096721 0.317053
-0.0469639 0.0967192 0.306066
-0.0425713 0.0967184 0.295079
-0.0381811 0.0967178 0.284091
-0.0119112 0.0967203 0.218153
-0.00898862 0.0967203 0.210827
-0.00460505 0.0967203 0.199838
-0.000221729 0.0967202 0.188849
0.00270081 0.0967202 0.181523
0.00708437 0.0967202 0.170534
0.0114678 0.0967202 0.159545
0.0143901 0.0967202 0.152219
0.0187739 0.0967201 0.141231
0.0231574 0.0967201 0.130242
0.0275409 0.0967201 0.119253
0.0304632 0.09672 0.111927
0.0348469 0.09672 0.100938
0.0392302 0.09672 0.0899491
0.0436137 0.09672 0.0789602
0.0465362 0.0967199 0.0716344
0.0509195 0.0967199 0.0606454
0.0553032 0.0967199 0.0496566
0.0582254 0.0967199 0.0423307
0.062609 0.0967199 0.0313419
0.0669925 0.0967198 0.020353
0.0713762 0.0967198 0.00936428
0.0742984 0.0967198 0.00203842
0.0786821 0.0967197 -0.00895044
0.0830654 0.0967197 -0.0199392
0.087449 0.0967197 -0.030928
0.0903711 0.0967197 -0.0382539
0.0947549 0.0967196 -0.0492427
0.0991383 0.0967196 -0.0602314
0.102061 0.0967196 -0.0675573
0.106444 0.0967196 -0.0785461
0.110828 0.0967196 -0.0895348
0.115211 0.0967195 -0.100524
0.118133 0.0967195 -0.10785
0.122517 0.0967195 -0.118838
0.1269 0.0967195 -0.129827
0.131284 0.0967194 -0.140816
0.134206 0.0967194 -0.148142
0.13859 0.0967194 -0.15913
0.142973 0.0967194 -0.170119
0.147357 0.0967193 -0.181108
0.150279 0.0967193 -0.188433
0.154662 0.0967193 -0.199422
0.159046 0.0967193 -0.210411
0.161968 0.0967193 -0.217737
0.166352 0.0967192 -0.228725
0.168128 0.0969888 -0.241612
0.167956 0.0973106 -0.251248
0.167055 0.0977102 -0.261493
0.166146 0.0981132 -0.271823
0.165231 0.0985195 -0.282237
0.164307 0.0989291 -0.292739
0.163376 0.0993422 -0.303328
0.158125 0.100215 -0.317457
0.118348 0.10543 -0.380895
-0.0466913 0.0967214 0.423983
-0.0438867 0.0967216 0.416945
-0.0396892 0.0967228 0.406386
-0.0354873 0.0967236 0.395827
-0.0312221 0.096719 0.385271
-0.0269573 0.0967145 0.374717
-0.0227752 0.0967169 0.364157
-0.0199875 0.0967186 0.357117
-0.0157967 0.0967204 0.346558
-0.0116036 0.096722 0.335998
-0.0073936 0.0967221 0.32544
-0.00316203 0.0967204 0.314884
0.00106919 0.0967186 0.304328
0.00388134 0.0967182 0.29729
0.0214908 0.095783 0.281255
0.0281456 0.0954399 0.274883
0.033491 0.0953342 0.26466
0.0349478 0.095451 0.257498
0.0319197 0.0967215 0.226897
0.0361315 0.0967215 0.216339
0.0403432 0.0967215 0.205781
0.0445547 0.0967215 0.195223
0.0487665 0.0967214 0.184665
0.052978 0.0967214 0.174107
0.0557859 0.0967214 0.167068
0.0599976 0.0967214 0.15651
0.0642093 0.0967213 0.145952
0.0684209 0.0967213 0.135394
0.0726327 0.0967213 0.124836
0.0768442 0.0967213 0.114278
0.0796522 0.0967212 0.107239
0.0838637 0.0967212 0.0966808
0.0880754 0.0967212 0.0861227
0.0922871 0.0967212 0.0755647
0.0964987 0.0967211 0.0650066
0.10071 0.0967211 0.0544486
0.103518 0.0967211 0.0474099
0.10773 0.0967211 0.0368519
0.111942 0.096721 0.0262938
0.116153 0.096721 0.0157358
0.120365 0.096721 0.00517786
0.124576 0.096721 -0.00538024
0.128788 0.0967209 -0.0159382
0.131596 0.0967209 -0.0229769
0.135808 0.0967209 -0.0335348
0.140019 0.0967209 -0.0440929
0.144231 0.0967208 -0.0546508
0.148442 0.0967208 -0.0652088
0.152654 0.0967208 -0.0757669
0.155462 0.0967208 -0.0828054
0.159673 0.0967207 -0.0933633
0.163885 0.0967207 -0.103921
0.167991 0.0967316 -0.114542
0.168 0.097021 -0.123265
0.168014 0.0974584 -0.136449
0.168024 0.0977522 -0.145304
0.168034 0.0980478 -0.154213
0.168043 0.0983452 -0.163175
0.168058 0.0987946 -0.176722
0.168068 0.0990965 -0.185822
0.168078 0.0994003 -0.194978
0.168087 0.0997059 -0.20419
0.168097 0.100013 -0.213459
0.154675 0.104852 -0.325251
0.151189 0.105405 -0.333127
0.0612695 0.116261 -0.434034
-0.00453579 0.096721 0.42802
-0.00185966 0.0967232 0.421246
0.00223541 0.0967195 0.411087
0.00627506 0.0967206 0.400927
0.0103495 0.0967186 0.390769
0.0144452 0.0967148 0.380612
0.0184697 0.0967173 0.370451
0.0224946 0.0967197 0.360289
0.0265247 0.0967217 0.350128
0.0305603 0.0967233 0.339967
0.0346209 0.0967225 0.329808
0.038692 0.0967208 0.31965
0.0427629 0.0967192 0.309492
0.0468278 0.096718 0.299335
0.0508863 0.0967175 0.289176
0.0535864 0.0967176 0.282403
0.0576231 0.096719 0.272241
0.0616601 0.0967205 0.262079
0.065697 0.0967219 0.251916
0.0697416 0.0967226 0.241755
0.0737944 0.0967226 0.231595
0.0778472 0.0967226 0.221435
0.0819 0.0967226 0.211276
0.0859529 0.0967225 0.201116
0.0900055 0.0967225 0.190956
0.0940584 0.0967225 0.180796
0.0981113 0.0967225 0.170636
0.102164 0.0967224 0.160477
0.106217 0.0967224 0.150317
0.110269 0.0967224 0.140157
0.114322 0.0967224 0.129997
0.118375 0.0967223 0.119837
0.122428 0.0967223 0.109678
0.126481 0.0967223 0.099518
0.130533 0.0967223 0.0893582
0.134586 0.0967222 0.0791985
0.137288 0.0967222 0.0724253
0.141341 0.0967222 0.0622655
0.145393 0.0967222 0.0521058
0.149446 0.0967221 0.0419461
0.153499 0.0967221 0.0317864
0.157552 0.0967221 0.0216267
0.161604 0.0967221 0.0114669
0.165657 0.096722 0.00130722
0.167878 0.0969112 -0.00973293
0.167887 0.0971907 -0.0178396
0.1679 0.0976131 -0.0300875
0.167909 0.0978966 -0.0383122
0.167922 0.0983251 -0.0507391
0.167931 0.0986128 -0.0590843
0.167945 0.0990476 -0.0716942
0.167954 0.0993396 -0.0801626
0.167963 0.0996333 -0.0886812
0.168107 0.104257 -0.222785
0.168123 0.104743 -0.236883
0.168133 0.10507 -0.246355
0.161539 0.107833 -0.309744
0.144106 0.110706 -0.34913
0.1392 0.111449 -0.358342
0.118348 0.114036 -0.380895
0.10062 0.11627 -0.401072
0.1039 0.116267 -0.409186
0.00399137 0.0994792 0.431493
0.022642 0.0979147 0.428342
0.037111 0.0967248 0.425235
0.0410441 0.0967223 0.415445
0.0450016 0.0967175 0.405656
0.0488975 0.0967183 0.395866
0.0528361 0.0967152 0.386078
0.0567153 0.0967176 0.376287
0.0605947 0.09672 0.366495
0.0644743 0.0967223 0.356703
0.068362 0.096724 0.346911
0.0722725 0.0967235 0.337121
0.076195 0.0967218 0.327332
0.0814247 0.0967197 0.314281
0.0853469 0.0967181 0.304493
0.089258 0.0967175 0.294704
0.0931549 0.0967183 0.284913
0.0970454 0.0967196 0.275121
0.100936 0.096721 0.265328
0.104827 0.0967224 0.255535
0.108719 0.0967237 0.245742
0.112625 0.0967236 0.235952
0.11653 0.0967236 0.226161
0.120435 0.0967236 0.216371
0.124341 0.0967236 0.20658
0.128246 0.0967236 0.19679
0.132152 0.0967235 0.186999
0.136057 0.0967235 0.177209
0.139963 0.0967235 0.167418
0.14517 0.0967234 0.154365
0.149075 0.0967234 0.144574
0.152981 0.0967234 0.134784
0.156886 0.0967234 0.124993
0.160792 0.0967233 0.115203
0.164697 0.0967233 0.105412
0.167765 0.0968097 0.0953133
0.167777 0.0972134 0.0840308
0.167785 0.0974844 0.0764568
0.167798 0.0978937 0.0650161
0.167806 0.0981686 0.0573356
0.167818 0.0985837 0.0457336
0.167831 0.0990023 0.034033
0.167839 0.0992834 0.0261772
0.167852 0.099708 0.0143095
0.167977 0.103854 -0.101554
0.167986 0.104163 -0.1102
0.167996 0.104474 -0.118897
0.168005 0.104787 -0.127647
0.168087 0.107526 -0.20419
0.168097 0.107858 -0.213459
0.167506 0.10945 -0.25636
0.166601 0.1099 -0.266647
0.165689 0.110355 -0.277019
0.16477 0.110813 -0.287477
0.164307 0.111043 -0.292739
0.154675 0.113076 -0.325251
0.151189 0.113672 -0.333127
0.137184 0.11627 -0.370442
0.140326 0.116269 -0.378278
0.127175 0.118043 -0.394768
0.0556617 0.0986226 0.422282
0.0670483 0.097792 0.416074
0.07267 0.097382 0.413009
0.0822098 0.0967197 0.406903
0.086017 0.096716 0.397458
0.0910292 0.0967171 0.384862
0.0947732 0.0967194 0.375414
0.0985174 0.0967217 0.365966
0.102262 0.096724 0.356517
0.106021 0.0967248 0.347069
0.111067 0.0967228 0.334475
0.114851 0.0967212 0.32503
0.118635 0.0967196 0.315586
0.122419 0.0967181 0.306141
0.126193 0.0967175 0.296696
0.129947 0.0967188 0.287247
0.134953 0.0967206 0.274649
0.138708 0.0967219 0.2652
0.142463 0.0967233 0.25575
0.146218 0.0967246 0.2463
0.149987 0.0967246 0.236853
0.153755 0.0967245 0.227406
0.15878 0.0967245 0.21481
0.162548 0.0967245 0.205363
0.166317 0.0967245 0.195916
0.167668 0.0969742 0.185811
0.167679 0.097365 0.175273
0.16769 0.097759 0.164648
0.167702 0.0981561 0.153938
0.16771 0.0984227 0.146749
0.167721 0.0988253 0.135893
0.167733 0.0992312 0.124947
0.167745 0.0996404 0.113911
0.167861 0.103629 0.00634116
0.167874 0.104076 -0.00569704
0.167882 0.104375 -0.0137804
0.168019 0.109088 -0.14087
0.168029 0.109417 -0.149752
0.168038 0.109749 -0.158687
0.168048 0.110082 -0.167677
0.168063 0.110586 -0.181265
0.168073 0.110924 -0.190393
0.168123 0.112648 -0.236883
0.168133 0.113 -0.246355
0.163651 0.116268 -0.323021
0.16791 0.116302 -0.334602
0.164375 0.116928 -0.342587
0.15719 0.118201 -0.358818
0.150062 0.119282 -0.370017
0.0407151 0.10341 0.425289
0.0892557 0.0995466 0.403966
0.100086 0.0987289 0.398061
0.107151 0.0982775 0.392076
0.112647 0.0979787 0.386062
0.120828 0.0975339 0.377109
0.128935 0.0970931 0.368237
0.134299 0.0968015 0.362367
0.13992 0.0967251 0.35026
0.143575 0.0967236 0.341135
0.147231 0.0967221 0.33201
0.152104 0.0967201 0.319843
0.15576 0.0967186 0.310719
0.159409 0.0967177 0.301594
0.163036 0.096719 0.292466
0.16497 0.09702 0.279797
0.165734 0.0973188 0.270116
0.166503 0.0976195 0.260377
0.167277 0.097922 0.250576
0.167609 0.0982732 0.24062
0.16762 0.0986609 0.230519
0.167631 0.0990516 0.220338
0.167753 0.103421 0.106502
0.167765 0.10385 0.0953133
0.167777 0.104283 0.0840308
0.167785 0.104574 0.0764568
0.167896 0.108506 -0.025993
0.167904 0.108821 -0.0341938
0.167918 0.109297 -0.0465847
0.167927 0.109616 -0.0549055
0.167936 0.109937 -0.0632752
0.167949 0.110423 -0.0759221
0.167959 0.110749 -0.0844156
0.16801 0.112577 -0.132041
0.168107 0.11606 -0.222785
0.178145 0.116262 -0.253194
0.18252 0.116262 -0.264165
0.181863 0.116713 -0.274245
0.180953 0.117199 -0.284599
0.180036 0.11769 -0.295039
0.179111 0.118184 -0.305566
0.174866 0.119106 -0.318885
-0.0581787 0.116273 0.438045
0.00399137 0.110331 0.431493
0.022642 0.108596 0.428342
0.07267 0.104216 0.413009
0.167642 0.102817 0.210076
0.167653 0.103227 0.199732
0.167664 0.103641 0.189306
0.167671 0.103918 0.182308
0.167798 0.108573 0.0650161
0.167806 0.108878 0.0573356
0.167818 0.109338 0.0457336
0.167831 0.109803 0.034033
0.167839 0.110114 0.0261772
0.167852 0.110585 0.0143095
0.167968 0.114842 -0.0929595
0.167982 0.115354 -0.10587
0.167991 0.115699 -0.114542
0.17753 0.116262 -0.152617
0.181778 0.11626 -0.163218
0.18392 0.116524 -0.175226
0.18393 0.116881 -0.184227
0.18394 0.117241 -0.193283
0.183955 0.117784 -0.206973
0.183965 0.118149 -0.21617
0.183975 0.118516 -0.225424
0.183984 0.118886 -0.234736
0.183995 0.119258 -0.244106
0.16791 0.124463 -0.334602
0.164375 0.125133 -0.342587
0.150062 0.127653 -0.370017
-0.0225667 0.116271 0.44157
0.0556617 0.109004 0.422282
0.0670483 0.108086 0.416074
0.128935 0.103676 0.368237
0.134299 0.103364 0.362367
0.142876 0.102967 0.350538
0.146812 0.102934 0.341471
0.150745 0.102901 0.33241
0.155986 0.102857 0.320337
0.159913 0.102824 0.311289
0.163206 0.102861 0.302154
0.164211 0.10328 0.289417
0.16497 0.103598 0.279797
0.165734 0.103917 0.270116
0.167683 0.107759 0.171741
0.167694 0.108195 0.161088
0.167706 0.108635 0.150348
0.167718 0.109079 0.139521
0.167725 0.109377 0.132254
0.167737 0.109827 0.121278
0.167861 0.114538 0.00634116
0.167874 0.115031 -0.00569704
0.167882 0.115362 -0.0137804
0.178329 0.116261 -0.0618458
0.181065 0.116261 -0.0686927
0.183817 0.116431 -0.0797264
0.183827 0.116776 -0.0881507
0.18384 0.117298 -0.100881
0.183849 0.117648 -0.109432
0.183859 0.118001 -0.118033
0.183873 0.118533 -0.131033
0.183882 0.118891 -0.139765
0.18366 0.1236 -0.253795
0.182765 0.124111 -0.263978
0.181863 0.124626 -0.274245
0.180953 0.125145 -0.284599
0.171407 0.127859 -0.326702
0.000160098 0.117263 0.448258
0.0108559 0.116269 0.444878
0.0148543 0.116266 0.43492
0.0407151 0.113926 0.425289
0.0837731 0.110126 0.406955
0.0946932 0.109218 0.401002
0.104391 0.108437 0.395097
0.112647 0.107943 0.386062
0.166503 0.107547 0.260377
0.167277 0.10788 0.250576
0.167609 0.108267 0.24062
0.16762 0.108694 0.230519
0.167631 0.109125 0.220338
0.167749 0.113781 0.110212
0.167761 0.114253 0.0990533
0.167769 0.11457 0.0915629
0.167781 0.115048 0.0802491
0.177744 0.116262 0.0266534
0.181722 0.116261 0.0166984
0.183725 0.11651 0.00581154
0.183738 0.117013 -0.00609148
0.183747 0.117351 -0.0140841
0.18376 0.117862 -0.0261599
0.183768 0.118205 -0.0342691
0.183781 0.118723 -0.0465216
0.183892 0.123037 -0.148549
0.183906 0.123599 -0.161826
0.183916 0.123976 -0.170746
0.183925 0.124355 -0.179719
0.183935 0.124737 -0.188748
0.0203526 0.118807 0.444846
0.0398672 0.116813 0.44155
0.0487126 0.116266 0.431887
0.07267 0.114467 0.413009
0.120828 0.110759 0.377109
0.167642 0.11293 0.210076
0.167653 0.11338 0.199732
0.167664 0.113835 0.189306
0.167671 0.11414 0.182308
0.17848 0.116262 0.10665
0.182339 0.116262 0.096992
0.183638 0.116584 0.0863489
0.18365 0.117073 0.075133
0.183663 0.117566 0.0638227
0.183671 0.117897 0.0562294
0.183683 0.118397 0.0447589
0.183692 0.118733 0.0370578
0.183791 0.122734 -0.0547498
0.183799 0.123095 -0.0630264
0.183813 0.12364 -0.0755329
0.183822 0.124006 -0.0839323
0.183836 0.12456 -0.096625
0.000160098 0.124479 0.448258
0.0587375 0.118314 0.438362
0.0708547 0.11723 0.432082
0.0818332 0.116269 0.425903
0.0855887 0.116268 0.416522
0.128935 0.11355 0.368237
0.134299 0.113209 0.362367
0.142876 0.112773 0.350538
0.146812 0.112737 0.341471
0.150745 0.112701 0.33241
0.155986 0.112653 0.320337
0.159913 0.112617 0.311289
0.163206 0.112657 0.302154
0.164211 0.113117 0.289417
0.16497 0.113464 0.279797
0.165734 0.113814 0.270116
0.177925 0.116263 0.185137
0.181672 0.116262 0.175758
0.183553 0.116497 0.165822
0.183564 0.116971 0.155264
0.183575 0.117449 0.144619
0.183583 0.11777 0.137475
0.183595 0.118254 0.126684
0.183607 0.118742 0.115805
0.183704 0.122799 0.0254238
0.183717 0.123326 0.0136901
0.183725 0.12368 0.00581154
0.183738 0.124214 -0.00609148
0.183747 0.124573 -0.0140841
0.0398672 0.123787 0.44155
0.0877682 0.119091 0.422861
0.0988066 0.118088 0.416842
0.109661 0.117102 0.410924
0.11958 0.116364 0.401991
0.125264 0.116265 0.389869
0.128921 0.116263 0.380753
0.172523 0.116267 0.271352
0.176173 0.116265 0.262238
0.18104 0.116263 0.250086
0.183472 0.116415 0.240708
0.183483 0.116875 0.230752
0.183493 0.117338 0.220716
0.183504 0.117806 0.210601
0.183515 0.118276 0.200405
0.183618 0.122691 0.104835
0.183626 0.123031 0.0974715
0.183638 0.123545 0.0863489
0.18365 0.124063 0.075133
0.0708547 0.124026 0.432082
0.0821784 0.122968 0.425908
0.138448 0.118373 0.381343
0.14905 0.117659 0.369739
0.155615 0.117291 0.361018
0.159486 0.117253 0.352102
0.164642 0.117203 0.340222
0.168507 0.117166 0.331319
0.172369 0.117129 0.322421
0.177515 0.117079 0.310567
0.17918 0.117319 0.301352
0.179922 0.117678 0.291949
0.180668 0.118039 0.282489
0.183538 0.122588 0.179767
0.183549 0.123084 0.169322
0.183556 0.123417 0.162312
0.183568 0.12392 0.151725
0.183663 0.128095 0.0638227
0.109661 0.123699 0.410924
0.11958 0.12292 0.401991
0.183191 0.122527 0.25053
0.183472 0.122974 0.240708
0.183483 0.123459 0.230752
0.183493 0.123949 0.220716
0.183526 0.125441 0.190127
0.183579 0.127836 0.141052
0.0988066 0.128067 0.416842
0.127715 0.12562 0.393088
0.155615 0.123718 0.361018
0.159486 0.123678 0.352102
0.164642 0.123626 0.340222
0.168507 0.123586 0.331319
0.172369 0.123547 0.322421
0.177515 0.123494 0.310567
0.17918 0.123747 0.301352
0.181671 0.125019 0.269784
0.182429 0.125406 0.260187
0.183504 0.127761 0.210601
0.183515 0.128272 0.200405
0.138448 0.128102 0.381343
0.180419 0.127611 0.285649
