ply
format ascii 1.0
comment Created by Open3D
element vertex 660
property double x
property double y
property double z
end_header
0.26786 -0.158318 -0.322176
0.24024 -0.15242 -0.315505
0.222138 -0.152074 -0.315519
0.271111 -0.140952 -0.3158
0.202996 -0.154062 -0.315534
0.182737 -0.153744 -0.31555
0.161251 -0.153406 -0.315567
0.138425 -0.153048 -0.315584
0.24022 -0.132398 -0.315508
0.268364 -0.157394 0.323602
0.114129 -0.152667 -0.315603
0.222119 -0.131496 -0.315521
0.271111 -0.121876 -0.3158
0.251059 -0.152221 0.315878
0.0882158 -0.15226 -0.315623
0.231239 -0.153161 0.315863
0.210418 -0.154149 0.315847
0.0605186 -0.151825 -0.315644
0.20298 -0.12584 -0.315536
0.0308379 -0.1543 -0.315668
0.182725 -0.127113 -0.315551
0.188518 -0.152232 0.315831
0.271595 -0.135471 0.327152
0.170163 -0.152436 0.315817
-0.00102824 -0.153908 -0.315692
0.161242 -0.12597 -0.315568
0.151014 -0.152649 0.315802
0.138421 -0.127326 -0.315585
0.131019 -0.152871 0.315787
-0.0353407 -0.153487 -0.315719
0.25106 -0.130279 0.315876
0.110119 -0.153104 0.315771
0.088225 -0.130311 -0.315622
0.114128 -0.126116 -0.315603
0.271111 -0.10068 -0.3158
0.0882533 -0.153347 0.315755
-0.0723925 -0.153031 -0.315747
0.060536 -0.131957 -0.315642
0.0653517 -0.153602 0.315738
0.231241 -0.125058 0.315861
0.18852 -0.13154 0.315829
0.0534895 -0.152026 0.315729
-0.112525 -0.152538 -0.315778
0.271595 -0.116693 0.327152
0.21042 -0.125335 0.315845
0.170165 -0.131306 0.315815
0.0225518 -0.153198 0.315705
0.00305504 -0.152501 0.31569
-0.15614 -0.152002 -0.315812
-0.0352854 -0.134491 -0.315714
0.0308619 -0.124906 -0.315665
0.120688 -0.132269 0.315778
-0.0171919 -0.151778 0.315675
-0.000993907 -0.126474 -0.315689
0.25106 -0.11108 0.315876
0.151016 -0.124894 0.315801
0.0993137 -0.132033 0.315762
-0.0382332 -0.151026 0.315659
-0.20371 -0.151418 -0.315848
0.0769384 -0.131787 0.315745
-0.0676069 -0.151253 0.315637
0.0534908 -0.131528 0.315728
-0.0986015 -0.151492 0.315614
-0.2558 -0.150778 -0.315888
-0.0723373 -0.126696 -0.315743
0.271111 -0.0816039 -0.3158
0.00305599 -0.13456 0.31569
-0.122994 -0.150676 0.315595
-0.139837 -0.152829 0.315582
-0.024115 -0.134353 0.31567
-0.166024 -0.152012 0.315563
-0.156061 -0.130533 -0.315806
-0.11246 -0.125108 -0.315773
0.271595 -0.0952322 0.327152
0.0225509 -0.125024 0.315706
-0.0382339 -0.132381 0.31566
-0.193383 -0.151159 0.315542
-0.128621 -0.123597 -0.317041
-0.0676084 -0.132107 0.315638
-0.221996 -0.150267 0.315521
-0.241811 -0.152597 0.315505
-0.203624 -0.128975 -0.315842
0.25106 -0.091881 0.315876
-0.0986041 -0.131818 0.315615
-0.262252 -0.150509 0.315491
-0.25575 -0.131191 -0.315885
-0.122998 -0.130586 0.315597
-0.148443 -0.133406 0.315578
-0.222916 -0.123597 -0.317234
-0.166028 -0.131189 0.315565
-0.240965 -0.121697 -0.318536
-0.193389 -0.12987 0.315545
-0.241817 -0.134906 0.315508
-0.222003 -0.12849 0.315524
0.271595 -0.076454 0.327152
-0.262254 -0.128045 0.315491
-0.25575 -0.11161 -0.315885
0.271111 -0.0604081 -0.3158
-0.240965 -0.10238 -0.318536
0.25106 -0.0699393 0.315876
-0.251957 -0.113672 0.315501
0.250183 -0.0559023 -0.31432
-0.25575 -0.0920292 -0.315885
0.272786 -0.0574492 0.319771
-0.240476 -0.090829 0.329306
-0.262254 -0.0921027 0.315491
-0.240965 -0.0791995 -0.318536
0.26708 -0.0416254 -0.314307
0.244681 -0.0511235 0.314692
-0.25575 -0.0724485 -0.315885
-0.251957 -0.0735522 0.315501
0.250183 -0.0361721 -0.31432
0.256316 -0.0422184 0.314703
-0.239768 -0.0598703 -0.314783
-0.239774 -0.0597211 -0.325766
0.272792 -0.0361852 0.32928
-0.270168 -0.0564844 0.3143
0.244681 -0.0317795 0.314692
-0.23928 -0.0509 0.328721
-0.24945 -0.0467052 0.314316
-0.239768 -0.0405573 -0.314783
-0.239774 -0.0404563 -0.325766
0.26708 -0.0224137 -0.314307
0.256316 -0.0204282 0.314703
-0.239288 -0.0331325 0.319101
-0.270168 -0.0338906 0.3143
0.250183 -0.0164419 -0.31432
0.272792 -0.0174225 0.32928
-0.239768 -0.0212443 -0.314783
-0.239774 -0.0211914 -0.325766
0.244681 -0.0124354 0.314692
-0.23928 -0.0110652 0.328721
-0.259727 -0.0112079 0.314308
0.256316 -0.00136189 0.314703
-0.239768 -0.00193131 -0.314783
-0.239774 -0.0019265 -0.325766
0.26708 -0.00106733 -0.314307
0.272792 0.00402056 0.32928
-0.239288 0.00662648 0.319101
-0.270168 0.00677811 0.3143
0.250183 0.00328836 -0.31432
0.244681 0.00967199 0.314692
-0.239768 0.0212443 -0.314783
-0.239774 0.0211914 -0.325766
0.256316 0.0177045 0.314703
-0.23928 0.0287696 0.328721
-0.259727 0.0291405 0.314308
0.272792 0.0227832 0.32928
0.26708 0.0181444 -0.314307
0.244681 0.029016 0.314692
-0.239288 0.0463855 0.319101
-0.239768 0.0405573 -0.314783
-0.239774 0.0404562 -0.325766
0.250183 0.0230186 -0.31432
-0.259727 0.0515563 0.314308
0.256316 0.0394946 0.314703
-0.270168 0.065522 0.3143
-0.23928 0.0686043 0.328721
-0.239768 0.0598703 -0.314783
-0.239774 0.0597211 -0.325766
0.272792 0.0442263 0.32928
-0.24945 0.0733939 0.314316
0.244681 0.04836 0.314692
0.26708 0.0394908 -0.314307
-0.239288 0.0861445 0.319101
0.250183 0.0427488 -0.31432
-0.259727 0.0919047 0.314308
-0.239768 0.0791833 -0.314783
-0.239774 0.078986 -0.325766
0.256316 0.058561 0.314703
0.272792 0.062989 0.32928
-0.270168 0.106191 0.3143
0.244681 0.067704 0.314692
-0.23928 0.108439 0.328721
-0.24945 0.113427 0.314316
-0.239768 0.0984964 -0.314783
-0.239774 0.0982509 -0.325766
0.26708 0.0587025 -0.314307
0.256316 0.0776273 0.314703
-0.230778 0.125333 0.329352
-0.24945 0.126771 0.314316
-0.186702 0.125333 0.330764
-0.200383 0.126285 0.314354
-0.21956 0.128213 0.314339
-0.270168 0.133303 0.3143
0.250183 0.0646713 -0.31432
-0.146546 0.125334 0.328112
-0.16371 0.126752 0.314382
-0.239768 0.117809 -0.314783
-0.239774 0.117516 -0.325766
0.272792 0.084432 0.32928
-0.107941 0.125335 0.329474
-0.120775 0.126297 0.314416
-0.137581 0.128102 0.314403
-0.240386 0.138364 0.2862
-0.240401 0.137843 0.267303
-0.240411 0.137455 0.253223
-0.240486 0.136947 0.234597
-0.245892 0.136946 0.213565
-0.25346 0.136945 0.18412
0.244681 0.0898115 0.314692
-0.0717114 0.125335 0.330753
-0.0885453 0.126735 0.314441
-0.240485 0.139076 0.156842
-0.240495 0.138692 0.143377
-0.240515 0.137932 0.116668
-0.240525 0.137555 0.103423
-0.241701 0.136945 0.0774617
-0.246941 0.136943 0.057078
-0.250085 0.136943 0.044848
-0.255336 0.136943 0.0244674
-0.0385815 0.125335 0.328338
-0.0506598 0.126307 0.31447
-0.229371 0.146719 0.314331
-0.240591 0.139251 0.0169396
-0.2406 0.138878 0.00423335
-0.240623 0.138016 -0.0251517
-0.240638 0.137407 -0.0459187
-0.241827 0.136942 -0.0663317
-0.24691 0.136941 -0.0861054
-0.252004 0.136941 -0.105878
-0.257099 0.136941 -0.12565
-0.204537 0.125339 -0.315908
-0.0104417 0.125754 0.327934
-0.0221118 0.12672 0.314493
-0.0730839 0.132715 0.314453
-0.19101 0.146586 0.314361
-0.240706 0.138813 -0.135157
-0.240727 0.137976 -0.162842
-0.240745 0.137267 -0.186308
-0.242932 0.136939 -0.205624
-0.249856 0.13694 -0.232503
-0.255792 0.13694 -0.255542
-0.173027 0.125338 -0.317084
0.272792 0.0951535 0.32928
0.0237886 0.125344 0.330779
0.0115642 0.126317 0.31452
-0.0918098 0.138214 0.294739
-0.0918258 0.137553 0.273461
-0.0941108 0.136945 0.24509
-0.0969767 0.136943 0.233887
-0.104619 0.136936 0.204013
-0.240797 0.139102 -0.255282
-0.24082 0.13817 -0.285269
-0.14242 0.125338 -0.314778
-0.145042 0.125336 -0.325023
0.26012 0.0989441 0.314707
0.0515994 0.125342 0.32855
0.0370288 0.126706 0.314538
-0.0919003 0.138252 0.174097
-0.0919155 0.137608 0.153955
-0.0919304 0.13697 0.134
-0.09918 0.136939 0.104881
-0.106635 0.136936 0.0758388
-0.23845 0.140824 -0.314692
-0.114339 0.125337 -0.31592
0.26708 0.0779143 -0.314307
0.0787493 0.125341 0.32968
0.0671638 0.126325 0.31456
-0.0885453 0.146232 0.314441
-0.0919746 0.138793 0.0752294
-0.0919831 0.138413 0.0636682
-0.0919974 0.137785 0.0445395
-0.0931266 0.136942 0.0145666
-0.100364 0.136937 -0.013704
-0.10582 0.136936 -0.0348999
-0.108548 0.136936 -0.0454978
-0.0894299 0.125337 -0.323469
0.104488 0.125341 0.330751
0.090017 0.126694 0.314577
-0.0920566 0.138813 -0.0339408
-0.0920729 0.138076 -0.0558273
-0.0920946 0.137104 -0.08465
-0.093554 0.13694 -0.0951523
-0.098847 0.136937 -0.1158
-0.105933 0.136937 -0.143327
-0.0617493 0.125335 -0.314878
0.250183 0.0844016 -0.31432
0.244681 0.109155 0.314692
0.128142 0.125339 0.328692
0.117139 0.126332 0.314597
-0.0221118 0.145085 0.314493
-0.0921397 0.138592 -0.144571
-0.0921552 0.137875 -0.1653
-0.0921704 0.137166 -0.185816
-0.0974067 0.136937 -0.212728
-0.102587 0.136937 -0.23285
-0.107766 0.136937 -0.252972
-0.187122 0.145486 -0.314651
-0.0378441 0.125334 -0.315931
0.15139 0.125338 0.329735
0.137763 0.126682 0.314612
-0.0506598 0.1527 0.31447
-0.0624407 0.153519 0.29175
-0.0681037 0.153518 0.269746
-0.0728229 0.153518 0.25141
-0.0784859 0.153517 0.229407
-0.0922206 0.138266 -0.252703
-0.0922379 0.137455 -0.275583
-0.0935115 0.136938 -0.295057
-0.0212327 0.126263 -0.314522
0.173517 0.125338 0.330727
0.162302 0.126338 0.31463
-0.0370859 0.153519 0.28621
-0.0426126 0.153519 0.264737
-0.0499814 0.153518 0.236106
-0.0555083 0.153518 0.214633
-0.0628769 0.153517 0.186002
-0.0684035 0.153516 0.164529
-0.0812986 0.153515 0.114427
0.193876 0.125336 0.328815
0.181008 0.126672 0.314644
0.102382 0.136938 0.284402
0.0951463 0.13694 0.256356
-0.0120248 0.15352 0.284426
-0.0192204 0.153519 0.256468
-0.0246171 0.153519 0.2355
-0.0300139 0.153518 0.214532
-0.0372093 0.153518 0.186575
-0.0426059 0.153517 0.165608
-0.0480025 0.153517 0.14464
-0.0551981 0.153516 0.116684
-0.0605944 0.153515 0.0957168
-0.065991 0.153515 0.0747499
-0.0731862 0.153514 0.0467941
0.0124902 0.127612 -0.314503
0.0278379 0.125334 -0.315941
0.26012 0.11792 0.314707
0.214008 0.125336 0.329783
0.198946 0.126992 0.314657
0.108725 0.137701 0.244662
0.106123 0.136939 0.214596
0.0990543 0.13694 0.187193
0.0935601 0.136941 0.165877
-0.0105315 0.154033 0.20909
-0.011843 0.153518 0.190536
-0.0171156 0.153518 0.170051
-0.0223883 0.153517 0.149565
-0.026782 0.153517 0.132494
-0.0320547 0.153516 0.112009
-0.0373272 0.153516 0.0915236
-0.0425998 0.153515 0.0710386
-0.0478722 0.153515 0.0505537
-0.0531446 0.153514 0.0300689
-0.0584171 0.153514 0.00958429
-0.0636894 0.153514 -0.0109002
-0.068083 0.153513 -0.0279705
-0.0733553 0.153513 -0.0484548
0.0453016 0.125337 -0.325238
0.230424 0.125336 0.319813
0.108665 0.137772 0.165232
0.10865 0.136986 0.145082
0.104322 0.13694 0.127091
0.0989476 0.136941 0.106256
0.0935802 0.136941 0.085417
-0.0105995 0.154055 0.118792
-0.0116694 0.153517 0.100869
-0.0168235 0.153516 0.0808439
-0.0219776 0.153516 0.0608192
-0.0271316 0.153515 0.0407946
-0.0322857 0.153515 0.0207701
-0.0374398 0.153514 0.000745833
-0.0425938 0.153514 -0.0192784
-0.0477477 0.153513 -0.0393025
-0.0529015 0.153513 -0.0593264
-0.0580555 0.153512 -0.0793503
-0.0632092 0.153512 -0.0993739
-0.068363 0.153511 -0.119397
-0.0735168 0.153511 -0.139421
0.066929 0.125335 -0.31504
0.108605 0.13771 0.0859861
0.10859 0.136943 0.0667266
0.103351 0.136941 0.0463422
0.100347 0.136942 0.0346975
0.0928499 0.136942 0.00558157
-0.0106671 0.153936 0.0289219
-0.0123436 0.153515 0.0118801
-0.0173843 0.153515 -0.00770421
-0.0232653 0.153514 -0.0305523
-0.0283059 0.153514 -0.0501363
-0.0333467 0.153513 -0.0697202
-0.0383874 0.153513 -0.089304
-0.0434281 0.153512 -0.108888
-0.0484687 0.153512 -0.128471
-0.0535092 0.153511 -0.148055
-0.0585498 0.153511 -0.167638
-0.0644304 0.15351 -0.190485
-0.0694718 0.15351 -0.210068
-0.0745159 0.15351 -0.229651
0.272792 0.124638 0.32928
0.108545 0.137526 0.00712986
0.108536 0.137026 -0.00515448
0.103891 0.136942 -0.0252376
0.0987522 0.136943 -0.0451795
0.0936178 0.136942 -0.0651226
-0.0107294 0.153959 -0.0535913
-0.0129887 0.153514 -0.0732794
-0.0187432 0.153513 -0.0956358
-0.0286077 0.153512 -0.133961
-0.0335401 0.153512 -0.153123
-0.0392943 0.153511 -0.175479
-0.0491586 0.15351 -0.213803
-0.0540909 0.15351 -0.232965
-0.0598491 0.15351 -0.25532
-0.0672526 0.15351 -0.284063
-0.0721881 0.15351 -0.303225
0.100408 0.125684 -0.314435
0.26708 0.0992606 -0.314307
0.111834 0.152777 0.314595
0.108491 0.137473 -0.0652595
0.104409 0.136943 -0.0938043
0.0993798 0.136943 -0.113327
0.0943536 0.136943 -0.13285
-0.010789 0.153982 -0.132654
-0.0111925 0.153512 -0.145472
-0.0184354 0.153512 -0.173611
-0.0240685 0.153511 -0.195496
-0.0313109 0.153511 -0.223633
-0.0369442 0.15351 -0.245518
-0.0441893 0.15351 -0.273656
-0.0498263 0.15351 -0.295541
0.119064 0.125337 -0.315107
0.250183 0.104132 -0.31432
0.132689 0.152545 0.314611
0.120633 0.153514 0.290545
0.108438 0.137421 -0.134611
0.106314 0.136943 -0.154082
0.103498 0.136944 -0.165007
0.0957621 0.136943 -0.195054
-0.0108529 0.15361 -0.217738
-0.0157756 0.153511 -0.239183
-0.0205045 0.15351 -0.257554
-0.0283867 0.15351 -0.288173
-0.0339074 0.15351 -0.309607
0.147734 0.153151 0.314622
0.140512 0.153514 0.294924
0.132785 0.153514 0.264922
0.125059 0.153514 0.234921
0.105382 0.136944 -0.222629
0.09987 0.136944 -0.24404
0.0950467 0.136944 -0.262774
-0.0109008 0.154024 -0.281258
-0.0124513 0.15351 -0.299105
0.0124902 0.14863 -0.314503
0.149876 0.125444 -0.314397
0.257342 0.137052 0.307462
0.252486 0.136938 0.286022
0.247077 0.136939 0.26504
0.242344 0.136939 0.24668
0.156575 0.153514 0.287366
0.151273 0.153514 0.266781
0.145972 0.153514 0.246196
0.135369 0.153514 0.205025
0.130825 0.153514 0.187381
0.125523 0.153514 0.166795
0.105841 0.136945 -0.283216
0.165006 0.125339 -0.315166
0.257294 0.136953 0.245089
0.252733 0.136938 0.227027
0.247429 0.136938 0.206452
0.242124 0.13694 0.185877
0.158646 0.153514 0.228196
0.148992 0.153514 0.190709
0.138594 0.153514 0.150338
0.133396 0.153514 0.130152
0.128197 0.153514 0.109967
0.256872 0.136937 0.185418
0.25167 0.136938 0.165234
0.246467 0.136939 0.14505
0.241911 0.13694 0.127391
0.159181 0.153514 0.165623
0.148982 0.153514 0.126021
0.146068 0.153514 0.114706
0.140969 0.153514 0.0949049
0.133684 0.153514 0.0666177
0.128585 0.153514 0.0468167
0.123485 0.153514 0.0270156
0.192917 0.12534 -0.314431
0.272792 0.1434 0.32928
0.255751 0.136937 0.125557
0.250646 0.136938 0.105751
0.24554 0.136939 0.0859439
0.151833 0.153514 0.0748546
0.138965 0.153514 0.0248894
0.131817 0.153513 -0.00286913
0.126098 0.153513 -0.0250759
0.11895 0.153513 -0.0528343
0.205796 0.125341 -0.315218
0.254045 0.136938 0.0654631
0.249034 0.136938 0.0460192
0.244018 0.13694 0.0265766
0.15879 0.153514 0.0419156
0.148264 0.153514 0.00104181
0.135632 0.153513 -0.0480066
0.130018 0.153513 -0.0698058
0.125106 0.153513 -0.0888801
0.120194 0.153513 -0.107954
0.25713 0.136977 0.0267045
0.251786 0.136938 0.00514732
0.246862 0.136939 -0.0139458
0.241936 0.136941 -0.0330385
0.158605 0.153513 -0.0165946
0.128285 0.153513 -0.13433
0.125528 0.153513 -0.145033
0.117948 0.153513 -0.174467
0.108311 0.149046 -0.303534
0.230729 0.125342 -0.314521
0.26708 0.118472 -0.314307
0.249605 0.136938 -0.0530335
0.244161 0.13694 -0.0741331
0.159103 0.153513 -0.0704052
0.154365 0.153513 -0.0888043
0.14895 0.153513 -0.109832
0.128643 0.153513 -0.188685
0.250183 0.123862 -0.31432
0.266008 0.153514 0.290895
0.256409 0.136937 -0.0746347
0.251658 0.136938 -0.0930647
0.24631 0.13694 -0.113798
0.24096 0.136942 -0.134532
0.156924 0.153513 -0.132675
0.151603 0.153513 -0.153337
0.146282 0.153513 -0.173999
0.136305 0.153513 -0.212739
0.130984 0.153513 -0.233401
0.125663 0.153513 -0.254063
0.28492 0.153514 0.312364
0.274459 0.153514 0.271746
0.2478 0.13694 -0.154371
0.242542 0.136941 -0.174751
0.156127 0.153513 -0.187738
0.145667 0.153513 -0.228355
0.135207 0.153513 -0.268973
0.129977 0.153513 -0.289281
0.298054 0.153514 0.313144
0.290984 0.153514 0.285689
0.285841 0.153514 0.265721
0.280699 0.153514 0.245754
0.275557 0.153514 0.225786
0.270414 0.153514 0.205819
0.257085 0.143762 -0.0325631
0.24924 0.136939 -0.19358
0.244071 0.136941 -0.213617
0.153428 0.153513 -0.248439
0.138002 0.153513 -0.30834
0.277882 0.153514 0.186255
0.272824 0.153514 0.166618
0.267767 0.153514 0.14698
0.255151 0.136938 -0.213975
0.250068 0.136939 -0.233682
0.244984 0.136941 -0.253389
0.158404 0.153513 -0.277676
0.323042 0.153514 0.314628
0.315579 0.153514 0.285651
0.310604 0.153514 0.266333
0.305629 0.153514 0.247015
0.300032 0.153514 0.225282
0.295057 0.153514 0.205964
0.285106 0.153514 0.167328
0.269559 0.153514 0.106959
0.257008 0.143099 -0.134597
0.25587 0.136937 -0.253094
0.250314 0.136939 -0.274634
0.245312 0.136941 -0.294021
0.301891 0.153514 0.187024
0.291488 0.153514 0.14663
0.28598 0.153514 0.125245
0.276189 0.153514 0.0872266
0.270682 0.153514 0.0658415
0.265786 0.153514 0.0468326
0.256978 0.143281 -0.173783
0.341075 0.154152 0.306567
0.341034 0.153514 0.29497
0.333807 0.153514 0.266906
0.328386 0.153514 0.245858
0.323567 0.153514 0.227148
0.318147 0.153514 0.2061
0.307908 0.153514 0.166342
0.292248 0.153514 0.105535
0.266951 0.153513 0.0073099
0.323818 0.153514 0.185442
0.313738 0.153514 0.146301
0.308401 0.153514 0.125579
0.298321 0.153514 0.0864372
0.292984 0.153514 0.0657152
0.28824 0.153514 0.0472957
0.282903 0.153513 0.0265737
0.272823 0.153513 -0.0125677
0.26708 0.137684 -0.314307
0.341007 0.153824 0.216207
0.337491 0.153514 0.197158
0.329316 0.153514 0.165416
0.314135 0.153514 0.106466
0.288442 0.153513 0.0067054
0.277932 0.153513 -0.0341057
0.272677 0.153513 -0.0545113
0.334649 0.153514 0.145992
0.329473 0.153514 0.125893
0.319121 0.153514 0.0856952
0.313944 0.153514 0.0655964
0.308768 0.153514 0.0454977
0.303592 0.153513 0.025399
0.293815 0.153513 -0.0125653
0.278286 0.153513 -0.0728615
0.27311 0.153513 -0.0929602
0.267934 0.153513 -0.113059
0.334724 0.153514 0.107342
0.30866 0.153513 0.00613676
0.298461 0.153513 -0.0334652
0.293362 0.153513 -0.0532661
0.339264 0.153514 0.0871645
0.333681 0.153514 0.0654846
0.328656 0.153513 0.0459727
0.323631 0.153513 0.0264608
0.313581 0.153513 -0.012563
0.297947 0.153513 -0.0732667
0.292922 0.153513 -0.0927786
0.285105 0.153513 -0.12313
0.28008 0.153513 -0.142642
0.267239 0.153513 -0.192506
0.327715 0.153513 0.00560083
0.317809 0.153513 -0.0328615
0.284241 0.153513 -0.163206
0.266081 0.153513 -0.23372
0.321918 0.153513 -0.0525841
0.316493 0.153513 -0.0736489
0.31161 0.153513 -0.0926072
0.306185 0.153513 -0.113672
0.29859 0.153513 -0.143163
0.288283 0.153513 -0.183186
0.280688 0.153513 -0.212677
0.340834 0.153528 -0.0135772
0.33554 0.153513 -0.0343686
0.278839 0.153513 -0.254533
0.274025 0.153513 -0.273226
0.268676 0.153513 -0.293996
0.33929 0.153513 -0.0535263
0.328739 0.153513 -0.0944937
0.318716 0.153513 -0.133413
0.310803 0.153513 -0.164138
0.306056 0.153513 -0.182574
0.30078 0.153513 -0.203057
0.295505 0.153513 -0.223541
0.332532 0.153513 -0.112573
0.298708 0.153513 -0.243905
0.288302 0.153513 -0.284315
0.335195 0.153513 -0.134153
0.330061 0.153513 -0.154087
0.288992 0.153513 -0.313557
0.333229 0.153513 -0.172865
0.328163 0.153513 -0.192535
0.322591 0.153513 -0.214171
0.317525 0.153513 -0.233841
0.309927 0.153513 -0.263346
0.309816 0.153513 -0.294038
0.338332 0.153513 -0.212799
0.327968 0.153513 -0.253039
0.327631 0.153513 -0.283082
0.319836 0.153513 -0.31335
0.340616 0.154307 -0.303538
