ply
format ascii 1.0
comment Created by Open3D
element vertex 1190
property double x
property double y
property double z
end_header
-0.340513 -0.0811101 0.310608
-0.340504 -0.0806003 0.319075
-0.332783 -0.0811628 0.328736
-0.328753 -0.0811629 0.338639
-0.324724 -0.0811629 0.348543
-0.340546 -0.0810711 0.281002
-0.340538 -0.080654 0.288085
-0.340527 -0.0800363 0.298573
-0.321407 -0.081163 0.326486
-0.31866 -0.0811631 0.333236
-0.314539 -0.0811632 0.343362
-0.31042 -0.0811632 0.353488
-0.340582 -0.0811377 0.248202
-0.34057 -0.0804983 0.259308
-0.34056 -0.0799731 0.26843
-0.308805 -0.0811633 0.325859
-0.305995 -0.0811634 0.332765
-0.30178 -0.0811635 0.343123
-0.297565 -0.0811635 0.353482
-0.340617 -0.0810975 0.215756
-0.340609 -0.0806605 0.223524
-0.340598 -0.0801209 0.233117
-0.295611 -0.0811636 0.325202
-0.292015 -0.0811637 0.334038
-0.288419 -0.0811638 0.342873
-0.284106 -0.0811638 0.353475
-0.340654 -0.0810554 0.181781
-0.340648 -0.0807197 0.187892
-0.340637 -0.0801664 0.197966
-0.28178 -0.0811639 0.324514
-0.278098 -0.081164 0.333562
-0.274415 -0.0811641 0.34261
-0.269997 -0.0811642 0.353468
-0.340696 -0.0811264 0.144017
-0.340686 -0.0806677 0.152575
-0.340675 -0.0801015 0.163137
-0.340519 -0.072472 0.305476
-0.34051 -0.0720147 0.314008
-0.340499 -0.0714735 0.324104
-0.267266 -0.0811642 0.323792
-0.263493 -0.0811644 0.333063
-0.258965 -0.0811645 0.344189
-0.255192 -0.0811646 0.353461
-0.340737 -0.0810829 0.106533
-0.340729 -0.0807301 0.113282
-0.340717 -0.0801488 0.124401
-0.340708 -0.0796898 0.133181
-0.340556 -0.0724303 0.272045
-0.340548 -0.0720552 0.27922
-0.340538 -0.0715917 0.288085
-0.252017 -0.0811646 0.323033
-0.248149 -0.0811647 0.332539
-0.243506 -0.0811649 0.343947
-0.239637 -0.0811649 0.353454
-0.340783 -0.0811584 0.0647649
-0.340772 -0.0806756 0.0742398
-0.340762 -0.0801985 0.0836027
-0.340752 -0.0797271 0.0928555
-0.340596 -0.0724832 0.23502
-0.340588 -0.0720978 0.242583
-0.340576 -0.0715274 0.253777
-0.235976 -0.0811649 0.322234
-0.233595 -0.081165 0.328086
-0.229625 -0.0811652 0.33784
-0.225656 -0.0811653 0.347593
-0.340828 -0.0811134 0.0231983
-0.340817 -0.0806184 0.0331726
-0.340806 -0.0801293 0.043026
-0.340796 -0.0796462 0.0527605
-0.340637 -0.0724395 0.197966
-0.340626 -0.0719463 0.207903
-0.340615 -0.0714598 0.217706
-0.219079 -0.0811653 0.321393
-0.215819 -0.0811654 0.329404
-0.211744 -0.0811656 0.339418
-0.207669 -0.0811657 0.349432
-0.340876 -0.081066 -0.0205961
-0.340865 -0.080558 -0.0100817
-0.340856 -0.0801813 -0.00228196
-0.340845 -0.0796843 0.0080049
-0.340682 -0.0724956 0.156818
-0.340675 -0.0721903 0.163137
-0.340663 -0.0716872 0.173552
-0.340652 -0.071191 0.183823
-0.20242 -0.0810244 0.320564
-0.202411 -0.0806215 0.328905
-0.2024 -0.0801235 0.339214
-0.202389 -0.0796316 0.349397
-0.34093 -0.0811473 -0.0695994
-0.340921 -0.0807543 -0.0612344
-0.340909 -0.0802362 -0.0502063
-0.3409 -0.0798519 -0.0420277
-0.340888 -0.0793453 -0.0312439
-0.340727 -0.0724498 0.115518
-0.340717 -0.0720325 0.124401
-0.340708 -0.0716199 0.133181
-0.340696 -0.0711108 0.144017
-0.340983 -0.0810981 -0.118583
-0.340974 -0.0806942 -0.109738
-0.340964 -0.0802944 -0.10098
-0.340955 -0.0798984 -0.0923094
-0.340942 -0.0793766 -0.0808803
-0.340775 -0.0724014 0.0718817
-0.340767 -0.0720794 0.0789351
-0.340757 -0.0716544 0.0882427
-0.340744 -0.0711301 0.099724
-0.340536 -0.0624492 0.289844
-0.340527 -0.0620506 0.298573
-0.340515 -0.061579 0.308902
-0.340504 -0.0611145 0.319075
-0.34104 -0.081046 -0.170426
-0.34103 -0.0806307 -0.161058
-0.34102 -0.0802196 -0.151786
-0.341006 -0.0796779 -0.13957
-0.340996 -0.0792765 -0.130515
-0.340828 -0.0724613 0.0231983
-0.340817 -0.0720191 0.0331726
-0.340806 -0.0715822 0.043026
-0.340796 -0.0711506 0.0527605
-0.340582 -0.0624853 0.248202
-0.34057 -0.0619929 0.259308
-0.34056 -0.0615885 0.26843
-0.340548 -0.0611101 0.27922
-0.341104 -0.0811342 -0.228722
-0.341097 -0.0808478 -0.222062
-0.341086 -0.0804218 -0.212159
-0.341075 -0.0800003 -0.20236
-0.341061 -0.0794451 -0.189453
-0.341051 -0.0790338 -0.17989
-0.340882 -0.0724103 -0.0259031
-0.34087 -0.0719552 -0.0153224
-0.340862 -0.0716176 -0.00747365
-0.34085 -0.0711723 0.00287741
-0.340839 -0.0707326 0.0131007
-0.340628 -0.0624385 0.205927
-0.340619 -0.0620998 0.213801
-0.340609 -0.0616816 0.223524
-0.340598 -0.0612689 0.233117
-0.20242 -0.072145 0.320564
-0.202411 -0.0717862 0.328905
-0.2024 -0.0713428 0.339214
-0.202389 -0.0709048 0.349397
-0.341168 -0.0810799 -0.2873
-0.341157 -0.080638 -0.2767
-0.341145 -0.0802009 -0.266215
-0.341134 -0.0797684 -0.255842
-0.341123 -0.0793407 -0.245581
-0.340942 -0.0724743 -0.0808803
-0.340933 -0.072121 -0.0724059
-0.340921 -0.0716553 -0.0612344
-0.340909 -0.0711955 -0.0502063
-0.3409 -0.0708545 -0.0420277
-0.34068 -0.0624766 0.15893
-0.340668 -0.0620399 0.169404
-0.340659 -0.061695 0.177678
-0.340648 -0.0612692 0.187892
-0.341192 -0.079376 -0.308853
-0.341184 -0.0790838 -0.301616
-0.341003 -0.0724203 -0.136541
-0.34099 -0.0719354 -0.124529
-0.34098 -0.071576 -0.115625
-0.340971 -0.0712202 -0.106809
-0.340958 -0.0707512 -0.0951902
-0.340732 -0.0624264 0.111039
-0.340725 -0.0621556 0.117749
-0.340712 -0.0617093 0.128804
-0.340703 -0.0613569 0.137534
-0.340691 -0.060922 0.148308
-0.341072 -0.072489 -0.199116
-0.341061 -0.0721118 -0.189453
-0.341051 -0.0717384 -0.17989
-0.34104 -0.0713689 -0.170426
-0.34103 -0.0710031 -0.161058
-0.34102 -0.0706411 -0.151786
-0.34079 -0.0624667 0.0575839
-0.340777 -0.0620008 0.0695165
-0.340767 -0.0616331 0.0789351
-0.340757 -0.0612697 0.0882427
-0.340744 -0.0608214 0.099724
-0.34051 -0.0524551 0.314008
-0.340499 -0.052061 0.324104
-0.341141 -0.0724318 -0.262745
-0.341134 -0.0721714 -0.255842
-0.341123 -0.0717844 -0.245581
-0.341111 -0.0714015 -0.23543
-0.3411 -0.0710227 -0.225386
-0.34109 -0.0706478 -0.215448
-0.34085 -0.0624127 0.00287741
-0.340839 -0.0620271 0.0131007
-0.340828 -0.0616462 0.0231983
-0.340817 -0.06127 0.0331726
-0.340806 -0.0608983 0.043026
-0.340562 -0.0524646 0.266615
-0.340554 -0.0521919 0.273846
-0.340544 -0.0518549 0.28278
-0.340532 -0.0514562 0.293349
-0.340521 -0.0510636 0.303757
-0.202398 -0.0624849 0.341261
-0.202389 -0.062178 0.349397
-0.341192 -0.0715685 -0.308853
-0.341184 -0.0713051 -0.301616
-0.341172 -0.0709136 -0.290859
-0.34116 -0.0705264 -0.28022
-0.340918 -0.0624553 -0.058464
-0.340909 -0.0621548 -0.0502063
-0.3409 -0.0618571 -0.0420277
-0.340888 -0.0614646 -0.0312439
-0.340876 -0.0610771 -0.0205961
-0.340865 -0.0606944 -0.0100817
-0.340617 -0.0524748 0.215756
-0.340609 -0.0521921 0.223524
-0.340598 -0.051843 0.233117
-0.340588 -0.0514984 0.242583
-0.340576 -0.051091 0.253777
-0.20242 -0.0610458 0.320564
-0.202411 -0.0607422 0.328905
-0.340987 -0.0623968 -0.121551
-0.340974 -0.0619825 -0.109738
-0.340964 -0.0616754 -0.10098
-0.340955 -0.0613713 -0.0923094
-0.340942 -0.0609704 -0.0808803
-0.340933 -0.0606732 -0.0724059
-0.340677 -0.0524858 0.161037
-0.340668 -0.0521923 0.169404
-0.340659 -0.0519021 0.177678
-0.340648 -0.0515439 0.187892
-0.340637 -0.0511906 0.197966
-0.341065 -0.0624422 -0.192663
-0.341058 -0.0622259 -0.186254
-0.341047 -0.0619043 -0.176724
-0.341037 -0.061586 -0.167292
-0.341023 -0.0611666 -0.154866
-0.341013 -0.0608558 -0.145657
-0.341003 -0.0605481 -0.136541
-0.340742 -0.0524976 0.102
-0.340734 -0.0522685 0.108789
-0.340725 -0.0519661 0.117749
-0.340712 -0.051593 0.128804
-0.340703 -0.0512984 0.137534
-0.340691 -0.0509348 0.148308
-0.341149 -0.0624914 -0.269697
-0.341138 -0.0621538 -0.259287
-0.34113 -0.0619308 -0.25241
-0.341119 -0.0615993 -0.242185
-0.341108 -0.0612713 -0.23207
-0.341097 -0.0609468 -0.222062
-0.341086 -0.0606257 -0.212159
-0.340809 -0.0524307 0.0405739
-0.340801 -0.0521929 0.047908
-0.34079 -0.0518791 0.0575839
-0.340777 -0.0514922 0.0695165
-0.340767 -0.0511868 0.0789351
-0.340757 -0.050885 0.0882427
-0.341192 -0.0611585 -0.308853
-0.341184 -0.0609334 -0.301616
-0.341172 -0.0605989 -0.290859
-0.34116 -0.060268 -0.28022
-0.340885 -0.0524411 -0.0285693
-0.340876 -0.0521932 -0.0205961
-0.340865 -0.0518661 -0.0100817
-0.340856 -0.0516235 -0.00228196
-0.340845 -0.0513036 0.0080049
-0.340834 -0.0509876 0.018165
-0.340823 -0.0506755 0.0282007
-0.340534 -0.0424833 0.291599
-0.340527 -0.0422664 0.298573
-0.340515 -0.0419451 0.308902
-0.340504 -0.0416287 0.319075
-0.20242 -0.0521664 0.320564
-0.202411 -0.051907 0.328905
-0.2024 -0.0515863 0.339214
-0.202389 -0.0512696 0.349397
-0.340967 -0.0524525 -0.10389
-0.340958 -0.0521935 -0.0951902
-0.340948 -0.051937 -0.0865761
-0.340936 -0.0515988 -0.0752215
-0.340927 -0.0513481 -0.066802
-0.340915 -0.0510176 -0.0557026
-0.340906 -0.0507725 -0.0474713
-0.3406 -0.0424738 0.231209
-0.340592 -0.0422474 0.238812
-0.340582 -0.0419678 0.248202
-0.34057 -0.041637 0.259308
-0.34056 -0.0413654 0.26843
-0.340548 -0.0410441 0.27922
-0.341058 -0.052465 -0.186254
-0.341047 -0.0521938 -0.176724
-0.341037 -0.0519254 -0.167292
-0.341023 -0.0515719 -0.154866
-0.341013 -0.0513098 -0.145657
-0.341003 -0.0510504 -0.136541
-0.34099 -0.0507086 -0.124529
-0.34098 -0.0504552 -0.115625
-0.340673 -0.0424634 0.165232
-0.340663 -0.0422267 0.173552
-0.340652 -0.0419344 0.183823
-0.340641 -0.0416462 0.193953
-0.34063 -0.0413619 0.203945
-0.340619 -0.0410814 0.213801
-0.341157 -0.0524787 -0.2767
-0.341145 -0.0521942 -0.266215
-0.341134 -0.0519128 -0.255842
-0.341123 -0.0516344 -0.245581
-0.341111 -0.051359 -0.23543
-0.3411 -0.0510865 -0.225386
-0.34109 -0.0508168 -0.215448
-0.341079 -0.05055 -0.205615
-0.341068 -0.050286 -0.195884
-0.340752 -0.0424521 0.0928555
-0.340739 -0.0421424 0.10427
-0.340729 -0.0418979 0.113282
-0.340717 -0.0415962 0.124401
-0.340708 -0.041358 0.133181
-0.340696 -0.041064 0.144017
-0.340686 -0.0408318 0.152575
-0.341192 -0.0507486 -0.308853
-0.341184 -0.0505618 -0.301616
-0.341172 -0.0502842 -0.290859
-0.340839 -0.0424396 0.0131007
-0.340828 -0.042179 0.0231983
-0.340817 -0.0419216 0.0331726
-0.340806 -0.0416673 0.043026
-0.340796 -0.041416 0.0527605
-0.340783 -0.0411062 0.0647649
-0.340772 -0.0408617 0.0742398
-0.340762 -0.0406201 0.0836027
-0.202387 -0.0424907 0.351419
-0.340939 -0.0424949 -0.0780463
-0.340933 -0.0423568 -0.0724059
-0.340921 -0.0420832 -0.0612344
-0.340909 -0.0418132 -0.0502063
-0.3409 -0.041613 -0.0420277
-0.340888 -0.0413489 -0.0312439
-0.340876 -0.0410882 -0.0205961
-0.340865 -0.0408308 -0.0100817
-0.340856 -0.0406398 -0.00228196
-0.20242 -0.0410672 0.320564
-0.202411 -0.0408629 0.328905
-0.2024 -0.0406105 0.339214
-0.341047 -0.0424833 -0.176724
-0.341037 -0.0422649 -0.167292
-0.341023 -0.0419771 -0.154866
-0.341013 -0.0417638 -0.145657
-0.341003 -0.0415526 -0.136541
-0.34099 -0.0412744 -0.124529
-0.34098 -0.0410682 -0.115625
-0.340971 -0.040864 -0.106809
-0.340958 -0.0405949 -0.0951902
-0.340574 -0.0324696 0.255625
-0.340566 -0.0322995 0.262971
-0.340554 -0.0320476 0.273846
-0.340544 -0.0318407 0.28278
-0.340532 -0.0315959 0.293349
-0.340521 -0.0313549 0.303757
-0.34051 -0.0311175 0.314008
-0.340499 -0.0308836 0.324104
-0.341168 -0.0424704 -0.2873
-0.341157 -0.0422389 -0.2767
-0.341145 -0.04201 -0.266215
-0.341134 -0.0417835 -0.255842
-0.341123 -0.0415594 -0.245581
-0.341111 -0.0413377 -0.23543
-0.3411 -0.0411184 -0.225386
-0.34109 -0.0409014 -0.215448
-0.341079 -0.0406866 -0.205615
-0.341068 -0.0404741 -0.195884
-0.341058 -0.0402638 -0.186254
-0.340668 -0.0324971 0.169404
-0.340659 -0.0323164 0.177678
-0.340648 -0.0320934 0.187892
-0.340637 -0.0318734 0.197966
-0.340626 -0.0316564 0.207903
-0.340615 -0.0314423 0.217706
-0.340602 -0.0311892 0.229295
-0.340592 -0.0309814 0.238812
-0.341192 -0.0403386 -0.308853
-0.341184 -0.0401901 -0.301616
-0.340772 -0.0324798 0.0742398
-0.340762 -0.0322877 0.0836027
-0.340752 -0.0320979 0.0928555
-0.340739 -0.0318638 0.10427
-0.340729 -0.0316789 0.113282
-0.340717 -0.0314508 0.124401
-0.340708 -0.0312707 0.133181
-0.340696 -0.0310484 0.144017
-0.340686 -0.0308728 0.152575
-0.340891 -0.0324601 -0.033927
-0.340882 -0.0323061 -0.0259031
-0.34087 -0.0321031 -0.0153224
-0.340862 -0.0319525 -0.00747365
-0.34085 -0.0317538 0.00287741
-0.340839 -0.0315576 0.0131007
-0.340828 -0.0313638 0.0231983
-0.340817 -0.0311724 0.0331726
-0.340806 -0.0309833 0.043026
-0.340796 -0.0307965 0.0527605
-0.340783 -0.0305662 0.0647649
-0.301624 -0.027401 0.325501
-0.280208 -0.0282926 0.331804
-0.202409 -0.0319879 0.330977
-0.2024 -0.0318299 0.339214
-0.202389 -0.0316344 0.349397
-0.34103 -0.032493 -0.161058
-0.34102 -0.0323273 -0.151786
-0.341006 -0.032109 -0.13957
-0.340996 -0.0319472 -0.130515
-0.340987 -0.0317871 -0.121551
-0.340974 -0.031576 -0.109738
-0.340964 -0.0314195 -0.10098
-0.340955 -0.0312646 -0.0923094
-0.340942 -0.0310604 -0.0808803
-0.340933 -0.030909 -0.0724059
-0.340921 -0.0307094 -0.0612344
-0.340909 -0.0305124 -0.0502063
-0.228299 -0.028626 0.331861
-0.341188 -0.0324712 -0.305228
-0.341176 -0.0322926 -0.294432
-0.341168 -0.0321746 -0.2873
-0.341157 -0.0319992 -0.2767
-0.341145 -0.0318257 -0.266215
-0.341134 -0.0316541 -0.255842
-0.341123 -0.0314844 -0.245581
-0.341111 -0.0313164 -0.23543
-0.3411 -0.0311503 -0.225386
-0.34109 -0.0309859 -0.215448
-0.341079 -0.0308232 -0.205615
-0.341068 -0.0306622 -0.195884
-0.341058 -0.0305029 -0.186254
-0.341047 -0.0303453 -0.176724
-0.340527 -0.0224821 0.298573
-0.340515 -0.0223112 0.308902
-0.340504 -0.0221429 0.319075
-0.340657 -0.0224923 0.179732
-0.340648 -0.0223681 0.187892
-0.340637 -0.0222148 0.197966
-0.340626 -0.0220635 0.207903
-0.340615 -0.0219143 0.217706
-0.340602 -0.021738 0.229295
-0.340592 -0.0215931 0.238812
-0.340582 -0.0214502 0.248202
-0.34057 -0.0212812 0.259308
-0.34056 -0.0211423 0.26843
-0.340548 -0.0209781 0.27922
-0.340538 -0.0208432 0.288085
-0.280208 -0.0224389 0.331804
-0.340809 -0.0224703 0.0405739
-0.340801 -0.0223684 0.047908
-0.34079 -0.0222339 0.0575839
-0.340777 -0.0220681 0.0695165
-0.340767 -0.0219372 0.0789351
-0.340757 -0.0218079 0.0882427
-0.340744 -0.0216483 0.099724
-0.340734 -0.0215223 0.108789
-0.340725 -0.0213978 0.117749
-0.340712 -0.0212442 0.128804
-0.340703 -0.0211229 0.137534
-0.340691 -0.0209731 0.148308
-0.34068 -0.0208255 0.15893
-0.340668 -0.02068 0.169404
-0.228299 -0.0222647 0.331861
-0.340996 -0.0224814 -0.130515
-0.340987 -0.0223687 -0.121551
-0.340974 -0.0222202 -0.109738
-0.340964 -0.0221101 -0.10098
-0.340955 -0.022001 -0.0923094
-0.340942 -0.0218573 -0.0808803
-0.340933 -0.0217508 -0.0724059
-0.340921 -0.0216103 -0.0612344
-0.340909 -0.0214717 -0.0502063
-0.3409 -0.0213688 -0.0420277
-0.340888 -0.0212332 -0.0312439
-0.340876 -0.0210994 -0.0205961
-0.340865 -0.0209672 -0.0100817
-0.340856 -0.0208691 -0.00228196
-0.340845 -0.0207398 0.0080049
-0.340834 -0.020612 0.018165
-0.340823 -0.0204858 0.0282007
-0.202407 -0.0209316 0.333044
-0.202396 -0.0208027 0.343302
-0.202384 -0.0206752 0.353435
-0.341192 -0.0221212 -0.308853
-0.341184 -0.0220397 -0.301616
-0.341172 -0.0219187 -0.290859
-0.34116 -0.0217991 -0.28022
-0.341149 -0.0216807 -0.269697
-0.341138 -0.0215636 -0.259287
-0.34113 -0.0214862 -0.25241
-0.341119 -0.0213712 -0.242185
-0.341108 -0.0212574 -0.23207
-0.341097 -0.0211448 -0.222062
-0.341086 -0.0210334 -0.212159
-0.341075 -0.0209232 -0.20236
-0.341061 -0.020778 -0.189453
-0.341051 -0.0206704 -0.17989
-0.34104 -0.0205639 -0.170426
-0.34103 -0.0204585 -0.161058
-0.34102 -0.0203542 -0.151786
-0.341006 -0.0202168 -0.13957
-0.301624 -0.0160626 0.325501
-0.340628 -0.0124877 0.205927
-0.340619 -0.01242 0.213801
-0.340609 -0.0123363 0.223524
-0.340598 -0.0122538 0.233117
-0.340588 -0.0121724 0.242583
-0.340576 -0.0120761 0.253777
-0.340566 -0.011997 0.262971
-0.340554 -0.0119034 0.273846
-0.340544 -0.0118266 0.28278
-0.340532 -0.0117356 0.293349
-0.340521 -0.0116461 0.303757
-0.34051 -0.0115579 0.314008
-0.340499 -0.0114711 0.324104
-0.340918 -0.0124911 -0.058464
-0.340909 -0.012431 -0.0502063
-0.3409 -0.0123714 -0.0420277
-0.340888 -0.0122929 -0.0312439
-0.340876 -0.0122154 -0.0205961
-0.340865 -0.0121389 -0.0100817
-0.340856 -0.0120821 -0.00228196
-0.340845 -0.0120072 0.0080049
-0.340834 -0.0119333 0.018165
-0.340823 -0.0118602 0.0282007
-0.340812 -0.0117881 0.0381143
-0.340801 -0.0117168 0.047908
-0.34079 -0.0116463 0.0575839
-0.340777 -0.0115595 0.0695165
-0.340767 -0.0114909 0.0789351
-0.340757 -0.0114232 0.0882427
-0.340744 -0.0113396 0.099724
-0.340734 -0.0112736 0.108789
-0.340725 -0.0112084 0.117749
-0.340712 -0.0111279 0.128804
-0.340703 -0.0110644 0.137534
-0.340691 -0.0109859 0.148308
-0.34068 -0.0109086 0.15893
-0.340668 -0.0108324 0.169404
-0.340659 -0.0107721 0.177678
-0.340648 -0.0106978 0.187892
-0.280208 -0.0107317 0.331804
-0.228299 -0.0116624 0.331861
-0.202407 -0.0121183 0.333044
-0.202396 -0.0120436 0.343302
-0.202384 -0.0119699 0.353435
-0.341192 -0.0117112 -0.308853
-0.341184 -0.0116681 -0.301616
-0.341172 -0.011604 -0.290859
-0.34116 -0.0115407 -0.28022
-0.341149 -0.011478 -0.269697
-0.341138 -0.011416 -0.259287
-0.34113 -0.011375 -0.25241
-0.341119 -0.0113142 -0.242185
-0.341108 -0.0112539 -0.23207
-0.341097 -0.0111943 -0.222062
-0.341086 -0.0111353 -0.212159
-0.341075 -0.011077 -0.20236
-0.341061 -0.0110001 -0.189453
-0.341051 -0.0109431 -0.17989
-0.34104 -0.0108868 -0.170426
-0.34103 -0.010831 -0.161058
-0.34102 -0.0107758 -0.151786
-0.341006 -0.010703 -0.13957
-0.340996 -0.0106491 -0.130515
-0.340987 -0.0105957 -0.121551
-0.340974 -0.0105253 -0.109738
-0.340964 -0.0104732 -0.10098
-0.340955 -0.0104215 -0.0923094
-0.340942 -0.0103535 -0.0808803
-0.340933 -0.010303 -0.0724059
-0.301624 -0.00661403 0.325501
-0.341192 -0.00130125 -0.308853
-0.341184 -0.00129646 -0.301616
-0.341172 -0.00128935 -0.290859
-0.34116 -0.00128231 -0.28022
-0.341149 -0.00127534 -0.269697
-0.341138 -0.00126845 -0.259287
-0.34113 -0.0012639 -0.25241
-0.341119 -0.00125714 -0.242185
-0.341108 -0.00125044 -0.23207
-0.341097 -0.00124382 -0.222062
-0.341086 -0.00123727 -0.212159
-0.341075 -0.00123078 -0.20236
-0.341061 -0.00122224 -0.189453
-0.341051 -0.00121591 -0.17989
-0.34104 -0.00120965 -0.170426
-0.34103 -0.00120345 -0.161058
-0.34102 -0.00119731 -0.151786
-0.341006 -0.00118923 -0.13957
-0.340996 -0.00118324 -0.130515
-0.340987 -0.00117731 -0.121551
-0.340974 -0.00116949 -0.109738
-0.340964 -0.00116369 -0.10098
-0.340955 -0.00115796 -0.0923094
-0.340942 -0.00115039 -0.0808803
-0.340933 -0.00114478 -0.0724059
-0.340921 -0.00113739 -0.0612344
-0.340909 -0.00113009 -0.0502063
-0.3409 -0.00112468 -0.0420277
-0.340888 -0.00111755 -0.0312439
-0.340876 -0.0011105 -0.0205961
-0.340865 -0.00110354 -0.0100817
-0.340856 -0.00109838 -0.00228196
-0.340845 -0.00109157 0.0080049
-0.340834 -0.00108485 0.018165
-0.340823 -0.00107821 0.0282007
-0.340812 -0.00107165 0.0381143
-0.340801 -0.00106517 0.047908
-0.34079 -0.00105876 0.0575839
-0.340777 -0.00105087 0.0695165
-0.340767 -0.00104463 0.0789351
-0.340757 -0.00103848 0.0882427
-0.340744 -0.00103088 0.099724
-0.340734 -0.00102488 0.108789
-0.340725 -0.00101895 0.117749
-0.340712 -0.00101163 0.128804
-0.340703 -0.00100586 0.137534
-0.340691 -0.000998728 0.148308
-0.34068 -0.000991698 0.15893
-0.340668 -0.000984767 0.169404
-0.340659 -0.000979292 0.177678
-0.340648 -0.000972533 0.187892
-0.340637 -0.000965866 0.197966
-0.340626 -0.00095929 0.207903
-0.340615 -0.000952804 0.217706
-0.340602 -0.000945134 0.229295
-0.340592 -0.000938837 0.238812
-0.340582 -0.000932623 0.248202
-0.34057 -0.000925274 0.259308
-0.34056 -0.000919237 0.26843
-0.340548 -0.000912097 0.27922
-0.340538 -0.00090623 0.288085
-0.340527 -0.00089929 0.298573
-0.340515 -0.000892455 0.308902
-0.340504 -0.000885723 0.319075
-0.280208 -0.000975612 0.331804
-0.228299 -0.00106023 0.331861
-0.202407 -0.00110167 0.333044
-0.202396 -0.00109488 0.343302
-0.202384 -0.00108818 0.353435
-0.301624 0.00283457 0.325501
-0.301616 0.00282048 0.332601
-0.301605 0.00279959 0.34312
-0.301594 0.00277902 0.353484
-0.341192 0.0091087 -0.308853
-0.341184 0.00907518 -0.301616
-0.341172 0.00902535 -0.290859
-0.34116 0.00897607 -0.28022
-0.341149 0.00892732 -0.269697
-0.341138 0.0088791 -0.259287
-0.34113 0.00884724 -0.25241
-0.341119 0.00879988 -0.242185
-0.341108 0.00875302 -0.23207
-0.341097 0.00870667 -0.222062
-0.341086 0.00866079 -0.212159
-0.341075 0.0086154 -0.20236
-0.341061 0.00855562 -0.189453
-0.341051 0.00851132 -0.17989
-0.34104 0.00846748 -0.170426
-0.34103 0.00842408 -0.161058
-0.34102 0.00838113 -0.151786
-0.341006 0.00832454 -0.13957
-0.340996 0.0082826 -0.130515
-0.340987 0.00824108 -0.121551
-0.340974 0.00818636 -0.109738
-0.340964 0.00814579 -0.10098
-0.340955 0.00810563 -0.0923094
-0.340942 0.00805268 -0.0808803
-0.340933 0.00801343 -0.0724059
-0.340921 0.00796168 -0.0612344
-0.340909 0.00791059 -0.0502063
-0.3409 0.00787271 -0.0420277
-0.340888 0.00782276 -0.0312439
-0.340876 0.00777343 -0.0205961
-0.340865 0.00772473 -0.0100817
-0.340856 0.0076886 -0.00228196
-0.340845 0.00764095 0.0080049
-0.340834 0.00759389 0.018165
-0.340823 0.0075474 0.0282007
-0.340812 0.00750147 0.0381143
-0.340801 0.00958644 0.047908
-0.34079 0.00952882 0.0575839
-0.340777 0.00945775 0.0695165
-0.340767 0.00940165 0.0789351
-0.340757 0.00934622 0.0882427
-0.340744 0.00927784 0.099724
-0.340734 0.00922386 0.108789
-0.340725 0.00917049 0.117749
-0.340712 0.00910465 0.128804
-0.340703 0.00905266 0.137534
-0.340691 0.00898849 0.148308
-0.34068 0.00892523 0.15893
-0.340668 0.00886285 0.169404
-0.340659 0.00881357 0.177678
-0.340648 0.00875274 0.187892
-0.340637 0.00869274 0.197966
-0.340626 0.00863356 0.207903
-0.340615 0.00857518 0.217706
-0.340602 0.00850615 0.229295
-0.340592 0.00844948 0.238812
-0.340582 0.00839355 0.248202
-0.34057 0.00832741 0.259308
-0.34056 0.00827308 0.26843
-0.340548 0.00820882 0.27922
-0.340538 0.00815602 0.288085
-0.340527 0.00809356 0.298573
-0.340515 0.00803204 0.308902
-0.340504 0.00797145 0.319075
-0.341192 0.0195187 -0.308853
-0.341184 0.0194469 -0.301616
-0.341172 0.0193401 -0.290859
-0.34116 0.0192345 -0.28022
-0.341149 0.01913 -0.269697
-0.341138 0.0190267 -0.259287
-0.34113 0.0189584 -0.25241
-0.341119 0.0188569 -0.242185
-0.341108 0.0187565 -0.23207
-0.341097 0.0186572 -0.222062
-0.341086 0.0185589 -0.212159
-0.341075 0.0184616 -0.20236
-0.341061 0.0183335 -0.189453
-0.341051 0.0182386 -0.17989
-0.34104 0.0181446 -0.170426
-0.34103 0.0180517 -0.161058
-0.34102 0.0179596 -0.151786
-0.341006 0.0178384 -0.13957
-0.340996 0.0177485 -0.130515
-0.340987 0.0176595 -0.121551
-0.340974 0.0175422 -0.109738
-0.301624 0.0141729 0.325501
-0.301616 0.0141024 0.332601
-0.301605 0.013998 0.34312
-0.301594 0.0138951 0.353484
-0.340964 0.0197827 -0.10098
-0.340955 0.0196851 -0.0923094
-0.340942 0.0195565 -0.0808803
-0.340933 0.0194612 -0.0724059
-0.340921 0.0193355 -0.0612344
-0.340909 0.0192115 -0.0502063
-0.3409 0.0191195 -0.0420277
-0.340888 0.0189982 -0.0312439
-0.340876 0.0188784 -0.0205961
-0.340865 0.0187601 -0.0100817
-0.340856 0.0186723 -0.00228196
-0.340845 0.0185566 0.0080049
-0.340834 0.0184423 0.018165
-0.340823 0.0183294 0.0282007
-0.340812 0.0182179 0.0381143
-0.340801 0.0181077 0.047908
-0.34079 0.0179989 0.0575839
-0.340777 0.0178646 0.0695165
-0.340767 0.0177587 0.0789351
-0.340757 0.017654 0.0882427
-0.340744 0.0175248 0.099724
-0.340734 0.0194726 0.108789
-0.340725 0.0193599 0.117749
-0.340712 0.0192209 0.128804
-0.340703 0.0191112 0.137534
-0.340691 0.0189757 0.148308
-0.34068 0.0188422 0.15893
-0.340668 0.0187105 0.169404
-0.340659 0.0186064 0.177678
-0.340648 0.018478 0.187892
-0.340637 0.0183513 0.197966
-0.340626 0.0182264 0.207903
-0.340615 0.0181032 0.217706
-0.340602 0.0179574 0.229295
-0.340592 0.0178378 0.238812
-0.340582 0.0177197 0.248202
-0.34057 0.0175801 0.259308
-0.34056 0.0193038 0.26843
-0.340548 0.0191539 0.27922
-0.340538 0.0190307 0.288085
-0.340527 0.018885 0.298573
-0.340515 0.0187414 0.308902
-0.340504 0.0186 0.319075
-0.341192 0.0299286 -0.308853
-0.341184 0.0298185 -0.301616
-0.341172 0.0296548 -0.290859
-0.34116 0.0294929 -0.28022
-0.341149 0.0293327 -0.269697
-0.341138 0.0291742 -0.259287
-0.34113 0.0290696 -0.25241
-0.341119 0.028914 -0.242185
-0.341108 0.02876 -0.23207
-0.341097 0.0286077 -0.222062
-0.341086 0.0284569 -0.212159
-0.341075 0.0283078 -0.20236
-0.341061 0.0281114 -0.189453
-0.341051 0.0279658 -0.17989
-0.34104 0.0278218 -0.170426
-0.34103 0.0276792 -0.161058
-0.34102 0.0275381 -0.151786
-0.341006 0.0297306 -0.13957
-0.340996 0.0295808 -0.130515
-0.340987 0.0294325 -0.121551
-0.340974 0.029237 -0.109738
-0.340964 0.0290922 -0.10098
-0.340955 0.0289487 -0.0923094
-0.340942 0.0287596 -0.0808803
-0.340933 0.0286194 -0.0724059
-0.340921 0.0284346 -0.0612344
-0.340909 0.0282522 -0.0502063
-0.3409 0.0281169 -0.0420277
-0.340888 0.0279385 -0.0312439
-0.340876 0.0277623 -0.0205961
-0.340865 0.0275884 -0.0100817
-0.301624 0.0236215 0.325501
-0.301616 0.023504 0.332601
-0.301605 0.02333 0.34312
-0.301594 0.0231585 0.353484
-0.340856 0.0296561 -0.00228196
-0.340845 0.0294723 0.0080049
-0.340834 0.0292908 0.018165
-0.340823 0.0291114 0.0282007
-0.340812 0.0289343 0.0381143
-0.340801 0.0287593 0.047908
-0.34079 0.0285864 0.0575839
-0.340777 0.0283732 0.0695165
-0.340767 0.028205 0.0789351
-0.340757 0.0280387 0.0882427
-0.340744 0.0278335 0.099724
-0.340734 0.0276716 0.108789
-0.340725 0.0275115 0.117749
-0.341192 0.0377361 -0.308853
-0.341184 0.0375972 -0.301616
-0.340712 0.0293372 0.128804
-0.340703 0.0291697 0.137534
-0.340691 0.0289629 0.148308
-0.34068 0.0287591 0.15893
-0.340668 0.0285581 0.169404
-0.340659 0.0283993 0.177678
-0.340648 0.0282033 0.187892
-0.340637 0.02801 0.197966
-0.340626 0.0278193 0.207903
-0.340615 0.0276311 0.217706
-0.341172 0.0399695 -0.290859
-0.34116 0.0397512 -0.28022
-0.341149 0.0395354 -0.269697
-0.341138 0.0393218 -0.259287
-0.34113 0.0391807 -0.25241
-0.341119 0.038971 -0.242185
-0.341108 0.0387635 -0.23207
-0.341097 0.0385582 -0.222062
-0.341086 0.038355 -0.212159
-0.341075 0.038154 -0.20236
-0.341061 0.0378892 -0.189453
-0.341051 0.037693 -0.17989
-0.340602 0.029299 0.229295
-0.340592 0.0291038 0.238812
-0.340582 0.0289111 0.248202
-0.34057 0.0286833 0.259308
-0.34056 0.0284962 0.26843
-0.340548 0.0282748 0.27922
-0.340538 0.028093 0.288085
-0.340527 0.0278778 0.298573
-0.340515 0.0276659 0.308902
-0.34104 0.0399182 -0.170426
-0.34103 0.0397136 -0.161058
-0.34102 0.0395111 -0.151786
-0.341006 0.0392444 -0.13957
-0.340996 0.0390466 -0.130515
-0.340987 0.0388509 -0.121551
-0.340974 0.0385929 -0.109738
-0.340964 0.0384017 -0.10098
-0.340955 0.0382123 -0.0923094
-0.340942 0.0379627 -0.0808803
-0.340933 0.0377777 -0.0724059
-0.340921 0.0375337 -0.0612344
-0.340504 0.0292287 0.319075
-0.340909 0.039553 -0.0502063
-0.3409 0.0393636 -0.0420277
-0.340888 0.0391138 -0.0312439
-0.340876 0.0388672 -0.0205961
-0.340865 0.0386237 -0.0100817
-0.340856 0.0384431 -0.00228196
-0.340845 0.0382048 0.0080049
-0.340834 0.0379695 0.018165
-0.340823 0.037737 0.0282007
-0.340812 0.0375074 0.0381143
-0.301624 0.0330701 0.325501
-0.301616 0.0329057 0.332601
-0.301605 0.032662 0.34312
-0.341192 0.0481461 -0.308853
-0.341184 0.0479689 -0.301616
-0.341172 0.0477055 -0.290859
-0.340801 0.0394109 0.047908
-0.34079 0.039174 0.0575839
-0.340777 0.0388819 0.0695165
-0.340767 0.0386513 0.0789351
-0.340757 0.0384234 0.0882427
-0.340744 0.0381422 0.099724
-0.340734 0.0379203 0.108789
-0.340725 0.0377009 0.117749
-0.301594 0.0342747 0.353484
-0.34116 0.0500096 -0.28022
-0.341149 0.049738 -0.269697
-0.341138 0.0494694 -0.259287
-0.34113 0.0492919 -0.25241
-0.341119 0.049028 -0.242185
-0.341108 0.0487669 -0.23207
-0.341097 0.0485086 -0.222062
-0.341086 0.0482531 -0.212159
-0.341075 0.0480002 -0.20236
-0.341061 0.0476671 -0.189453
-0.340712 0.0394535 0.128804
-0.340703 0.0392282 0.137534
-0.340691 0.0389501 0.148308
-0.34068 0.038676 0.15893
-0.340668 0.0384057 0.169404
-0.340659 0.0381921 0.177678
-0.340648 0.0379285 0.187892
-0.340637 0.0376685 0.197966
-0.341051 0.0498521 -0.17989
-0.34104 0.0495953 -0.170426
-0.34103 0.0493412 -0.161058
-0.34102 0.0490896 -0.151786
-0.341006 0.0487581 -0.13957
-0.340996 0.0485125 -0.130515
-0.340987 0.0482693 -0.121551
-0.340974 0.0479488 -0.109738
-0.340964 0.0477112 -0.10098
-0.340626 0.0393307 0.207903
-0.340615 0.0390647 0.217706
-0.340602 0.0387503 0.229295
-0.340592 0.0384921 0.238812
-0.340582 0.0382373 0.248202
-0.34057 0.037936 0.259308
-0.34056 0.0376885 0.26843
-0.340955 0.0497918 -0.0923094
-0.340942 0.0494666 -0.0808803
-0.340933 0.0492254 -0.0724059
-0.340921 0.0489075 -0.0612344
-0.340909 0.0485937 -0.0502063
-0.3409 0.048361 -0.0420277
-0.340888 0.0480541 -0.0312439
-0.340876 0.0477512 -0.0205961
-0.340548 0.0392199 0.27922
-0.340538 0.0389676 0.288085
-0.340527 0.0386692 0.298573
-0.340515 0.0383753 0.308902
-0.340504 0.0380858 0.319075
-0.341192 0.058556 -0.308853
-0.341184 0.0583405 -0.301616
-0.341172 0.0580202 -0.290859
-0.34116 0.0577034 -0.28022
-0.340865 0.0496591 -0.0100817
-0.340856 0.0494268 -0.00228196
-0.340845 0.0491205 0.0080049
-0.340834 0.0488179 0.018165
-0.340823 0.0485191 0.0282007
-0.340812 0.0482239 0.0381143
-0.340801 0.0479322 0.047908
-0.34079 0.0476441 0.0575839
-0.301624 0.0425187 0.325501
-0.341149 0.0599407 -0.269697
-0.341138 0.0596169 -0.259287
-0.34113 0.059403 -0.25241
-0.341119 0.059085 -0.242185
-0.341108 0.0587704 -0.23207
-0.341097 0.0584592 -0.222062
-0.341086 0.0581512 -0.212159
-0.341075 0.0578464 -0.20236
-0.340777 0.0493905 0.0695165
-0.340767 0.0490975 0.0789351
-0.340757 0.0488081 0.0882427
-0.340744 0.048451 0.099724
-0.340734 0.048169 0.108789
-0.340725 0.0478904 0.117749
-0.340712 0.0475465 0.128804
-0.301616 0.0441876 0.332601
-0.301605 0.0438605 0.34312
-0.301594 0.0435381 0.353484
-0.341061 0.0598894 -0.189453
-0.341051 0.0595793 -0.17989
-0.34104 0.0592724 -0.170426
-0.34103 0.0589687 -0.161058
-0.34102 0.058668 -0.151786
-0.341006 0.0582719 -0.13957
-0.340996 0.0579783 -0.130515
-0.340987 0.0576876 -0.121551
-0.340703 0.0492867 0.137534
-0.340691 0.0489373 0.148308
-0.34068 0.0485929 0.15893
-0.340668 0.0482533 0.169404
-0.340659 0.047985 0.177678
-0.340648 0.0476538 0.187892
-0.340974 0.0596436 -0.109738
-0.340964 0.059348 -0.10098
-0.340955 0.0590554 -0.0923094
-0.340942 0.0586697 -0.0808803
-0.340933 0.0583837 -0.0724059
-0.340921 0.0580066 -0.0612344
-0.340909 0.0576344 -0.0502063
-0.340637 0.0492589 0.197966
-0.340626 0.0489235 0.207903
-0.340615 0.0485927 0.217706
-0.340602 0.0482015 0.229295
-0.340592 0.0478804 0.238812
-0.340582 0.0475635 0.248202
-0.341192 0.068966 -0.308853
-0.341184 0.0687122 -0.301616
-0.341172 0.0683349 -0.290859
-0.34116 0.0679618 -0.28022
-0.341149 0.0675927 -0.269697
-0.3409 0.0596078 -0.0420277
-0.340888 0.0592295 -0.0312439
-0.340876 0.0588561 -0.0205961
-0.340865 0.0584873 -0.0100817
-0.340856 0.0582138 -0.00228196
-0.340845 0.057853 0.0080049
-0.34057 0.0490392 0.259308
-0.34056 0.0487193 0.26843
-0.340548 0.0483408 0.27922
-0.340538 0.0480299 0.288085
-0.340527 0.047662 0.298573
-0.341138 0.0697645 -0.259287
-0.34113 0.0695142 -0.25241
-0.341119 0.0691421 -0.242185
-0.341108 0.0687739 -0.23207
-0.341097 0.0684097 -0.222062
-0.341086 0.0680492 -0.212159
-0.341075 0.0676926 -0.20236
-0.340834 0.0596664 0.018165
-0.340823 0.0593011 0.0282007
-0.340812 0.0589403 0.0381143
-0.340801 0.0585838 0.047908
-0.34079 0.0582317 0.0575839
-0.340777 0.0577974 0.0695165
-0.340515 0.0490847 0.308902
-0.340504 0.0487144 0.319075
-0.341061 0.0696673 -0.189453
-0.341051 0.0693066 -0.17989
-0.34104 0.0689496 -0.170426
-0.34103 0.0685962 -0.161058
-0.34102 0.0682465 -0.151786
-0.341006 0.0677857 -0.13957
-0.340767 0.0595438 0.0789351
-0.340757 0.0591927 0.0882427
-0.340744 0.0587597 0.099724
-0.340734 0.0584177 0.108789
-0.340725 0.0580798 0.117749
-0.340712 0.0576628 0.128804
-0.301624 0.053857 0.325501
-0.301616 0.0535892 0.332601
-0.301605 0.0531924 0.34312
-0.301594 0.0528015 0.353484
-0.340996 0.0698106 -0.130515
-0.340987 0.0694606 -0.121551
-0.340974 0.0689994 -0.109738
-0.340964 0.0686575 -0.10098
-0.340955 0.068319 -0.0923094
-0.340942 0.0678727 -0.0808803
-0.340933 0.0675419 -0.0724059
-0.340703 0.0593452 0.137534
-0.340691 0.0589246 0.148308
-0.34068 0.0585098 0.15893
-0.340668 0.0581009 0.169404
-0.340659 0.0577779 0.177678
-0.341192 0.079376 -0.308853
-0.341184 0.0790838 -0.301616
-0.341172 0.0786496 -0.290859
-0.34116 0.0782202 -0.28022
-0.341149 0.0777954 -0.269697
-0.340921 0.0693805 -0.0612344
-0.340909 0.0689353 -0.0502063
-0.3409 0.0686052 -0.0420277
-0.340888 0.0681698 -0.0312439
-0.340876 0.06774 -0.0205961
-0.340648 0.0593241 0.187892
-0.340637 0.0589174 0.197966
-0.340626 0.0585163 0.207903
-0.340615 0.0581206 0.217706
-0.340602 0.0576528 0.229295
-0.341138 0.0799121 -0.259287
-0.34113 0.0796253 -0.25241
-0.341119 0.0791991 -0.242185
-0.341108 0.0787774 -0.23207
-0.341097 0.0783601 -0.222062
-0.341086 0.0779473 -0.212159
-0.341075 0.0775388 -0.20236
-0.340865 0.0695227 -0.0100817
-0.340856 0.0691975 -0.00228196
-0.340845 0.0687687 0.0080049
-0.340834 0.0683451 0.018165
-0.340823 0.0679267 0.0282007
-0.340812 0.0675134 0.0381143
-0.340592 0.0591463 0.238812
-0.340582 0.0587549 0.248202
-0.34057 0.0582919 0.259308
-0.34056 0.0579116 0.26843
-0.341061 0.0794452 -0.189453
-0.341051 0.0790338 -0.17989
-0.34104 0.0786267 -0.170426
-0.34103 0.0782238 -0.161058
-0.34102 0.077825 -0.151786
-0.340801 0.0692354 0.047908
-0.34079 0.0688192 0.0575839
-0.340777 0.068306 0.0695165
-0.340767 0.0679009 0.0789351
-0.340757 0.0675005 0.0882427
-0.340548 0.0592859 0.27922
-0.340538 0.0589046 0.288085
-0.340527 0.0584535 0.298573
-0.340515 0.0580092 0.308902
-0.340504 0.0575716 0.319075
-0.341006 0.0796779 -0.13957
-0.340996 0.0792765 -0.130515
-0.340987 0.078879 -0.121551
-0.340974 0.0783553 -0.109738
-0.340964 0.077967 -0.10098
-0.340955 0.0775826 -0.0923094
-0.340744 0.0690684 0.099724
-0.340734 0.0686665 0.108789
-0.340725 0.0682692 0.117749
-0.340712 0.0677791 0.128804
-0.301624 0.0633056 0.325501
-0.301617 0.0629908 0.332601
-0.301605 0.0625244 0.34312
-0.340942 0.0793766 -0.0808803
-0.340933 0.0789897 -0.0724059
-0.340921 0.0784796 -0.0612344
-0.340909 0.077976 -0.0502063
-0.3409 0.0776026 -0.0420277
-0.340703 0.0694037 0.137534
-0.340691 0.0689118 0.148308
-0.34068 0.0684268 0.15893
-0.340668 0.0679485 0.169404
-0.340659 0.0675707 0.177678
-0.301594 0.0639176 0.353484
-0.340888 0.0793452 -0.0312439
-0.340876 0.078845 -0.0205961
-0.340865 0.078351 -0.0100817
-0.340856 0.0779845 -0.00228196
-0.340845 0.0775012 0.0080049
-0.340648 0.0690494 0.187892
-0.340637 0.0685761 0.197966
-0.340626 0.0681092 0.207903
-0.340615 0.0676486 0.217706
-0.340834 0.0791935 0.018165
-0.340823 0.0787087 0.0282007
-0.340812 0.0782298 0.0381143
-0.340801 0.0777567 0.047908
-0.340602 0.0689944 0.229295
-0.340592 0.0685347 0.238812
-0.340582 0.068081 0.248202
-0.34057 0.0675445 0.259308
-0.34079 0.0794068 0.0575839
-0.340777 0.0788146 0.0695165
-0.340767 0.0783471 0.0789351
-0.340757 0.0778852 0.0882427
-0.34056 0.0689423 0.26843
-0.340548 0.0684068 0.27922
-0.340538 0.0679668 0.288085
-0.340744 0.0793771 0.099724
-0.340734 0.0789152 0.108789
-0.340725 0.0784587 0.117749
-0.340712 0.0778954 0.128804
-0.340527 0.0692449 0.298573
-0.340515 0.0687186 0.308902
-0.340504 0.0682002 0.319075
-0.301624 0.0727542 0.325501
-0.340703 0.0794622 0.137534
-0.340691 0.078899 0.148308
-0.34068 0.0783436 0.15893
-0.340668 0.0777961 0.169404
-0.301617 0.0742727 0.332601
-0.301605 0.0737228 0.34312
-0.301594 0.073181 0.353484
-0.340659 0.0793221 0.177678
-0.340648 0.0787746 0.187892
-0.340637 0.0782347 0.197966
-0.340626 0.077702 0.207903
-0.340615 0.0790822 0.217706
-0.340602 0.0784457 0.229295
-0.340592 0.077923 0.238812
-0.340582 0.0792724 0.248202
-0.34057 0.0786477 0.259308
-0.34056 0.0781347 0.26843
-0.340548 0.0775277 0.27922
-0.340538 0.0788416 0.288085
-0.340527 0.0782377 0.298573
-0.340515 0.0776431 0.308902
-0.308832 0.0811595 0.32586
-0.340504 0.0788288 0.319075
-0.321422 0.0811608 0.326487
-0.318677 0.0811605 0.333237
-0.31456 0.0811602 0.343363
-0.310442 0.08116 0.353488
-0.332788 0.0811619 0.328736
-0.328761 0.0811617 0.33864
-0.324731 0.0811617 0.348543
