ply
format ascii 1.0
comment Created by Open3D
element vertex 821
property double x
property double y
property double z
end_header
0.138632 -0.146858 -0.456054
0.129606 -0.146952 -0.456056
0.120568 -0.147047 -0.456057
0.111518 -0.147141 -0.456059
0.102457 -0.147236 -0.456061
0.0903575 -0.147362 -0.456063
0.0812691 -0.147457 -0.456065
0.0721689 -0.147552 -0.456067
0.0600171 -0.147679 -0.456069
0.0508895 -0.147774 -0.456071
0.0417502 -0.147869 -0.456072
0.029546 -0.147997 -0.456075
0.020379 -0.148093 -0.456076
0.0112002 -0.148188 -0.456078
0.0020095 -0.148284 -0.45608
-0.0102633 -0.148413 -0.456082
-0.0194818 -0.148509 -0.456084
-0.0287123 -0.148605 -0.456086
-0.0379548 -0.148702 -0.456088
-0.0502968 -0.14883 -0.45609
-0.0595673 -0.148927 -0.456092
-0.0688499 -0.149024 -0.456093
-0.0781446 -0.149121 -0.456095
-0.0905564 -0.149251 -0.456098
-0.0998794 -0.146269 -0.4561
-0.109215 -0.146364 -0.456101
-0.118562 -0.14646 -0.456103
-0.127921 -0.146555 -0.456105
-0.14042 -0.146683 -0.456107
0.0721689 -0.141467 -0.456067
0.0600171 -0.141589 -0.456069
0.0508895 -0.14168 -0.456071
0.0417502 -0.141772 -0.456072
0.029546 -0.141894 -0.456075
0.020379 -0.141986 -0.456076
0.0112002 -0.142078 -0.456078
0.0020095 -0.14217 -0.45608
-0.0102633 -0.142292 -0.456082
-0.0194818 -0.142385 -0.456084
-0.0287123 -0.142477 -0.456086
-0.0379548 -0.139504 -0.456088
-0.0502968 -0.139624 -0.45609
-0.0595673 -0.139715 -0.456092
-0.0688499 -0.139806 -0.456093
-0.0781446 -0.139897 -0.456095
-0.0905564 -0.140019 -0.456098
0.138632 -0.134746 -0.456054
0.129606 -0.134833 -0.456056
0.120568 -0.134919 -0.456057
0.111518 -0.135006 -0.456059
0.102457 -0.135093 -0.456061
0.0903575 -0.135208 -0.456063
0.0812691 -0.135296 -0.456065
-0.0998794 -0.137031 -0.456099
-0.109215 -0.13712 -0.456101
-0.118562 -0.13721 -0.456103
-0.127921 -0.137299 -0.456105
-0.14042 -0.137419 -0.456107
0.0721689 -0.13234 -0.456067
0.0600171 -0.132454 -0.456069
0.0508895 -0.129493 -0.456071
0.0417502 -0.129576 -0.456072
0.029546 -0.129688 -0.456075
0.020379 -0.129772 -0.456076
0.0112002 -0.129856 -0.456078
0.0020095 -0.12994 -0.45608
-0.0102633 -0.130052 -0.456082
-0.0194818 -0.130137 -0.456084
-0.0287123 -0.130221 -0.456086
-0.0379548 -0.130305 -0.456088
-0.0502968 -0.130418 -0.45609
-0.0595673 -0.130503 -0.456092
-0.0688499 -0.130588 -0.456093
-0.0781446 -0.130673 -0.456095
-0.0905564 -0.130787 -0.456098
0.138632 -0.125662 -0.456054
0.129606 -0.125743 -0.456056
0.120568 -0.125823 -0.456057
0.111518 -0.125904 -0.456059
0.102457 -0.125985 -0.456061
0.0903575 -0.126093 -0.456063
0.0812691 -0.126174 -0.456065
-0.0998794 -0.124713 -0.456099
-0.109215 -0.124795 -0.456101
-0.118562 -0.124876 -0.456103
-0.127921 -0.124958 -0.456105
-0.14042 -0.125067 -0.456107
0.0721689 -0.120171 -0.456067
0.0600171 -0.120274 -0.456069
0.0508895 -0.120352 -0.456071
0.0417502 -0.12043 -0.456072
0.029546 -0.120534 -0.456075
0.020379 -0.120611 -0.456076
0.0112002 -0.12069 -0.456078
0.0020095 -0.120768 -0.45608
-0.0102633 -0.120872 -0.456082
-0.0194818 -0.12095 -0.456084
-0.0287123 -0.121029 -0.456086
-0.0379548 -0.121107 -0.456088
-0.0502968 -0.121212 -0.45609
-0.0595673 -0.121291 -0.456092
-0.0688499 -0.12137 -0.456093
-0.0781446 -0.121449 -0.456095
-0.0905564 -0.121555 -0.456098
0.138632 -0.116578 -0.456054
0.129606 -0.116653 -0.456056
0.120568 -0.116728 -0.456057
0.111518 -0.116803 -0.456059
0.102457 -0.116878 -0.456061
0.0903575 -0.116978 -0.456063
0.0812691 -0.117053 -0.456065
-0.0998794 -0.115475 -0.456099
-0.109215 -0.115551 -0.456101
-0.118562 -0.115626 -0.456103
-0.127921 -0.115702 -0.456105
-0.14042 -0.115803 -0.456107
0.0721689 -0.111044 -0.456067
0.0600171 -0.11114 -0.456069
0.0508895 -0.111211 -0.456071
0.0417502 -0.111283 -0.456072
0.029546 -0.111379 -0.456075
0.020379 -0.111451 -0.456076
0.0112002 -0.111523 -0.456078
0.0020095 -0.111595 -0.45608
-0.0102633 -0.111692 -0.456082
-0.0194818 -0.111764 -0.456084
-0.0287123 -0.111837 -0.456086
-0.0379548 -0.111909 -0.456088
-0.0502968 -0.112006 -0.45609
-0.0595673 -0.112079 -0.456092
-0.0688499 -0.112152 -0.456093
-0.0781446 -0.112225 -0.456095
-0.0905564 -0.112323 -0.456098
0.138632 -0.107494 -0.456054
0.129606 -0.104533 -0.456056
0.120568 -0.1046 -0.456057
0.111518 -0.104667 -0.456059
0.102457 -0.104735 -0.456061
0.0903575 -0.104825 -0.456063
0.0812691 -0.104892 -0.456065
-0.0998794 -0.106237 -0.456099
-0.109215 -0.106307 -0.456101
-0.118562 -0.106376 -0.456103
-0.127921 -0.106446 -0.456105
-0.14042 -0.106538 -0.456107
0.0721689 -0.101917 -0.456067
0.0600171 -0.102005 -0.456069
0.0508895 -0.102071 -0.456071
0.0417502 -0.102137 -0.456072
0.029546 -0.102225 -0.456075
0.020379 -0.102291 -0.456076
0.0112002 -0.102357 -0.456078
0.0020095 -0.102423 -0.45608
-0.0102633 -0.0994517 -0.456082
-0.0194818 -0.0995162 -0.456084
-0.0287123 -0.0995807 -0.456086
-0.0379548 -0.0996454 -0.456088
-0.0502968 -0.0997317 -0.45609
-0.0595673 -0.0997966 -0.456092
-0.0688499 -0.0998615 -0.456093
-0.0781446 -0.0999266 -0.456095
-0.0905564 -0.100013 -0.456098
0.138632 -0.095382 -0.456054
0.129606 -0.0954432 -0.456056
0.120568 -0.0955045 -0.456057
0.111518 -0.0955659 -0.456059
0.102457 -0.0956273 -0.456061
0.0903575 -0.0957094 -0.456063
0.0812691 -0.095771 -0.456065
-0.0998794 -0.0969993 -0.456099
-0.109215 -0.0970626 -0.456101
-0.118562 -0.0971259 -0.456103
-0.127921 -0.0971894 -0.456105
-0.14042 -0.0972741 -0.456107
0.0721689 -0.0897481 -0.456067
0.0600171 -0.0898252 -0.456069
0.0508895 -0.0898832 -0.456071
0.0417502 -0.0899412 -0.456072
0.029546 -0.0900187 -0.456075
0.020379 -0.0900769 -0.456076
0.0112002 -0.0901352 -0.456078
0.0020095 -0.0901936 -0.45608
-0.0102633 -0.0902715 -0.456082
-0.0194818 -0.0903301 -0.456084
-0.0287123 -0.0903887 -0.456086
-0.0379548 -0.0904474 -0.456088
-0.0502968 -0.0905257 -0.45609
-0.0595673 -0.0905846 -0.456092
-0.0688499 -0.0906436 -0.456093
-0.0781446 -0.0907026 -0.456095
-0.0905564 -0.0907814 -0.456098
0.138632 -0.086298 -0.456054
0.129606 -0.0863534 -0.456056
0.120568 -0.0864089 -0.456057
0.111518 -0.0864644 -0.456059
0.102457 -0.08652 -0.456061
0.0903575 -0.0865942 -0.456063
0.0812691 -0.0866499 -0.456065
-0.0998794 -0.0846819 -0.456099
-0.109215 -0.0847372 -0.456101
-0.118562 -0.0847925 -0.456103
-0.127921 -0.0848479 -0.456105
-0.14042 -0.0849219 -0.456107
0.0721689 -0.0806211 -0.456067
0.0600171 -0.0806905 -0.456069
0.0508895 -0.0807425 -0.456071
0.0417502 -0.0807947 -0.456072
0.029546 -0.0808643 -0.456075
0.020379 -0.0809166 -0.456076
0.0112002 -0.0809689 -0.456078
0.00200949 -0.0810214 -0.45608
-0.0102633 -0.0810914 -0.456082
-0.0194818 -0.0811439 -0.456084
-0.0287123 -0.0811966 -0.456086
-0.0379548 -0.0812493 -0.456088
-0.0502968 -0.0813197 -0.45609
-0.0595673 -0.0813726 -0.456092
-0.0688499 -0.0814256 -0.456093
-0.0781446 -0.0814786 -0.456095
-0.0905564 -0.0815494 -0.456098
0.138632 -0.077214 -0.456054
0.129606 -0.0772636 -0.456056
0.120568 -0.0773132 -0.456057
0.111518 -0.0773628 -0.456059
0.102457 -0.0774126 -0.456061
0.0903575 -0.077479 -0.456063
0.0812691 -0.0744885 -0.456065
-0.0998794 -0.0754439 -0.456099
-0.109215 -0.0754931 -0.456101
-0.118562 -0.0755424 -0.456103
-0.127921 -0.0755917 -0.456105
-0.14042 -0.0756577 -0.456107
0.0721689 -0.0714942 -0.456067
0.0600171 -0.0715557 -0.456069
0.0508895 -0.0716019 -0.456071
0.0417502 -0.0716481 -0.456072
0.029546 -0.0717098 -0.456075
0.020379 -0.0717562 -0.456076
0.0112002 -0.0718026 -0.456078
0.00200949 -0.0718491 -0.45608
-0.0102633 -0.0719112 -0.456082
-0.0194818 -0.0719578 -0.456084
-0.0287123 -0.0720045 -0.456086
-0.0379548 -0.0720513 -0.456088
-0.0502968 -0.0721137 -0.45609
-0.0595673 -0.0721606 -0.456092
-0.0688499 -0.0722076 -0.456093
-0.0781446 -0.0722546 -0.456095
-0.0905564 -0.0723174 -0.456098
0.138632 -0.065102 -0.456054
0.129606 -0.0651438 -0.456056
0.120568 -0.0651856 -0.456057
0.111518 -0.0652275 -0.456059
0.102457 -0.0652694 -0.456061
0.0903575 -0.0653254 -0.456063
0.0812691 -0.0653675 -0.456065
-0.0998794 -0.0662059 -0.456099
-0.109215 -0.0662491 -0.456101
-0.118562 -0.0662923 -0.456103
-0.127921 -0.0663356 -0.456105
-0.14042 -0.0663935 -0.456107
0.0721689 -0.0623673 -0.456067
0.0600171 -0.0624209 -0.456069
0.0508895 -0.0624612 -0.456071
0.0417502 -0.0594527 -0.456072
0.029546 -0.0595039 -0.456075
0.020379 -0.0595424 -0.456076
0.0112002 -0.0595809 -0.456078
0.00200949 -0.0596195 -0.45608
-0.0102633 -0.059671 -0.456082
-0.0194818 -0.0597097 -0.456084
-0.0287123 -0.0597485 -0.456086
-0.0379548 -0.0597872 -0.456088
-0.0502968 -0.0598391 -0.45609
-0.0595673 -0.059878 -0.456092
-0.0688499 -0.0599169 -0.456093
-0.0781446 -0.0599559 -0.456095
-0.0905564 -0.060008 -0.456098
0.138632 -0.056018 -0.456054
0.129606 -0.056054 -0.456056
0.120568 -0.05609 -0.456057
0.111518 -0.056126 -0.456059
0.102457 -0.0561621 -0.456061
0.0903575 -0.0562103 -0.456063
0.0812691 -0.0562465 -0.456065
-0.0998794 -0.0569678 -0.456099
-0.109215 -0.057005 -0.456101
-0.118562 -0.0570422 -0.456103
-0.127921 -0.0570795 -0.456105
-0.14042 -0.0571293 -0.456107
0.0721689 -0.0501981 -0.456067
0.0600171 -0.0502412 -0.456069
0.0508895 -0.0502736 -0.456071
0.0417502 -0.0503061 -0.456072
0.029546 -0.0503495 -0.456075
0.020379 -0.050382 -0.456076
0.0112002 -0.0504146 -0.456078
0.00200949 -0.0504473 -0.45608
-0.0102633 -0.0504908 -0.456082
-0.0194818 -0.0505236 -0.456084
-0.0287123 -0.0505564 -0.456086
-0.0379548 -0.0505892 -0.456088
-0.0502968 -0.050633 -0.45609
-0.0595673 -0.050666 -0.456092
-0.0688499 -0.0506989 -0.456093
-0.0781446 -0.0507319 -0.456095
-0.0905564 -0.050776 -0.456098
0.138632 -0.046934 -0.456054
0.129606 -0.0469641 -0.456056
0.120568 -0.0469943 -0.456057
0.111518 -0.0470245 -0.456059
0.102457 -0.0470547 -0.456061
0.0903575 -0.0470951 -0.456063
0.0812691 -0.0471254 -0.456065
-0.0998794 -0.0446505 -0.456099
-0.109215 -0.0446796 -0.456101
-0.118562 -0.0447088 -0.456103
-0.127921 -0.044738 -0.456105
-0.14042 -0.044777 -0.456107
0.0721689 -0.0410712 -0.456067
0.0600171 -0.0411065 -0.456069
0.0508895 -0.041133 -0.456071
0.0417502 -0.0411595 -0.456072
0.029546 -0.041195 -0.456075
0.020379 -0.0412216 -0.456076
0.0112002 -0.0412483 -0.456078
0.00200949 -0.041275 -0.45608
-0.0102633 -0.0413107 -0.456082
-0.0194818 -0.0413375 -0.456084
-0.0287123 -0.0413643 -0.456086
-0.0379548 -0.0413912 -0.456088
-0.0502968 -0.041427 -0.45609
-0.0595673 -0.041454 -0.456092
-0.0688499 -0.0414809 -0.456093
-0.0781446 -0.041508 -0.456095
-0.0905564 -0.041544 -0.456098
0.138632 -0.034822 -0.456054
0.129606 -0.0348444 -0.456056
0.120568 -0.0348667 -0.456057
0.111518 -0.0348891 -0.456059
0.102457 -0.0349116 -0.456061
0.0903575 -0.0349415 -0.456063
0.0812691 -0.034964 -0.456065
-0.0998794 -0.0354124 -0.456099
-0.109215 -0.0354355 -0.456101
-0.118562 -0.0354587 -0.456103
-0.127921 -0.0354819 -0.456105
-0.14042 -0.0355128 -0.456107
0.0721689 -0.0319442 -0.456067
0.0600171 -0.0319717 -0.456069
0.0508895 -0.0319923 -0.456071
0.0417502 -0.032013 -0.456072
0.029546 -0.0320406 -0.456075
0.020379 -0.0320613 -0.456076
0.0112002 -0.032082 -0.456078
0.00200949 -0.0321028 -0.45608
-0.0102633 -0.0321305 -0.456082
-0.0194818 -0.0321514 -0.456084
-0.0287123 -0.0321722 -0.456086
-0.0379548 -0.0321931 -0.456088
-0.0502968 -0.032221 -0.45609
-0.0595673 -0.032242 -0.456092
-0.0688499 -0.032263 -0.456093
-0.0781446 -0.032284 -0.456095
-0.0905564 -0.032312 -0.456098
0.138632 -0.025738 -0.456054
0.129606 -0.0257545 -0.456056
0.120568 -0.0257711 -0.456057
0.111518 -0.0257876 -0.456059
0.102457 -0.0258042 -0.456061
0.0903575 -0.0258263 -0.456063
0.0812691 -0.025843 -0.456065
-0.0998794 -0.0261744 -0.456099
-0.109215 -0.0261915 -0.456101
-0.118562 -0.0262086 -0.456103
-0.127921 -0.0262257 -0.456105
-0.14042 -0.0262486 -0.456107
0.0721689 -0.019775 -0.456067
0.0600171 -0.019792 -0.456069
0.0508895 -0.0198048 -0.456071
0.0417502 -0.0198176 -0.456072
0.029546 -0.0198346 -0.456075
0.020379 -0.0198475 -0.456076
0.0112002 -0.0198603 -0.456078
0.00200949 -0.0198732 -0.45608
-0.0102633 -0.0198903 -0.456082
-0.0194818 -0.0199032 -0.456084
-0.0287123 -0.0199161 -0.456086
-0.0379548 -0.0199291 -0.456088
-0.0502968 -0.0199463 -0.45609
-0.0595673 -0.0199593 -0.456092
-0.0688499 -0.0199723 -0.456093
-0.0781446 -0.0199853 -0.456095
-0.0905564 -0.0200027 -0.456098
0.138632 -0.016654 -0.456054
0.129606 -0.0166647 -0.456056
0.120568 -0.0166754 -0.456057
0.111518 -0.0166861 -0.456059
0.102457 -0.0166968 -0.456061
0.0903575 -0.0167112 -0.456063
0.0812691 -0.0167219 -0.456065
-0.0998794 -0.0169364 -0.456099
-0.109215 -0.0169474 -0.456101
-0.118562 -0.0169585 -0.456103
-0.127921 -0.0169696 -0.456105
-0.14042 -0.0169844 -0.456107
0.0721689 -0.0106481 -0.456067
0.0600171 -0.0106572 -0.456069
0.0508895 -0.0106641 -0.456071
0.0417502 -0.010671 -0.456072
0.029546 -0.0106802 -0.456075
0.020379 -0.0106871 -0.456076
0.0112002 -0.010694 -0.456078
0.00200949 -0.0107009 -0.45608
-0.0102633 -0.0107102 -0.456082
-0.0194818 -0.0107171 -0.456084
-0.0287123 -0.0107241 -0.456086
-0.0379548 -0.010731 -0.456088
-0.0502968 -0.0107403 -0.45609
-0.0595673 -0.0107473 -0.456092
-0.0688499 -0.0107543 -0.456093
-0.0781446 -0.0107613 -0.456095
-0.0905564 -0.0107707 -0.456098
0.138632 -0.00454201 -0.456054
0.129606 -0.00454492 -0.456056
0.120568 -0.00454784 -0.456057
0.111518 -0.00455076 -0.456059
0.102457 -0.00455369 -0.456061
0.0903575 -0.0045576 -0.456063
0.0812691 -0.00456053 -0.456065
-0.0998794 -0.00461902 -0.456099
-0.109215 -0.00462203 -0.456101
-0.118562 -0.00462505 -0.456103
-0.127921 -0.00462807 -0.456105
-0.14042 -0.00463211 -0.456107
0.0721689 -0.00152116 -0.456067
0.0600171 -0.00152247 -0.456069
0.0508895 -0.00152345 -0.456071
0.0417502 -0.00152444 -0.456072
0.029546 -0.00152575 -0.456075
0.020379 -0.00152674 -0.456076
0.0112002 -0.00152773 -0.456078
0.00200949 -0.00152871 -0.45608
-0.0102633 -0.00153004 -0.456082
-0.0194818 -0.00153103 -0.456084
-0.0287123 -0.00153202 -0.456086
-0.0379548 -0.00153302 -0.456088
-0.0502968 -0.00153434 -0.45609
-0.0595673 -0.00153534 -0.456092
-0.0688499 -0.00153634 -0.456093
-0.0781446 -0.00153734 -0.456095
-0.0905564 -0.00153868 -0.456098
0.138632 0.00454199 -0.456054
0.129606 0.0045449 -0.456056
0.120568 0.00454782 -0.456057
0.111518 0.00455074 -0.456059
0.102457 0.00455367 -0.456061
0.0903575 0.00455757 -0.456063
0.0812691 0.00456051 -0.456065
-0.0998794 0.004619 -0.456099
-0.109215 0.00462201 -0.456101
-0.118562 0.00462503 -0.456103
-0.127921 0.00462805 -0.456105
-0.14042 0.00463209 -0.456107
0.0721689 0.00760577 -0.456067
0.0600171 0.00761231 -0.456069
0.0508895 0.00761722 -0.456071
0.0417502 0.00762214 -0.456072
0.029546 0.00762871 -0.456075
0.020379 0.00763364 -0.456076
0.0112002 0.00763858 -0.456078
0.00200949 0.00764353 -0.45608
-0.0102633 0.00765013 -0.456082
-0.0194818 0.00765509 -0.456084
-0.0287123 0.00766006 -0.456086
-0.0379548 0.00766504 -0.456088
-0.0502968 0.00767168 -0.45609
-0.0595673 0.00767667 -0.456092
-0.0688499 0.00768166 -0.456093
-0.0781446 0.00768666 -0.456095
-0.0905564 0.00769334 -0.456098
0.138632 0.013626 -0.456054
0.129606 0.0136347 -0.456056
0.120568 0.0136435 -0.456057
0.111518 0.0136523 -0.456059
0.102457 0.013661 -0.456061
0.0903575 0.0136728 -0.456063
0.0812691 0.0136816 -0.456065
-0.0998794 0.013857 -0.456099
-0.109215 0.0138661 -0.456101
-0.118562 0.0138751 -0.456103
-0.127921 0.0138842 -0.456105
-0.14042 0.0138963 -0.456107
0.0721689 0.019775 -0.456067
0.0600171 0.019792 -0.456069
0.0508895 0.0198048 -0.456071
0.0417502 0.0198176 -0.456072
0.029546 0.0198346 -0.456075
0.020379 0.0198475 -0.456076
0.0112002 0.0198603 -0.456078
0.00200949 0.0198732 -0.45608
-0.0102633 0.0198903 -0.456082
-0.0194818 0.0199032 -0.456084
-0.0287123 0.0199161 -0.456086
-0.0379548 0.0199291 -0.456088
-0.0502968 0.0199463 -0.45609
-0.0595673 0.0199593 -0.456092
-0.0688499 0.0199723 -0.456093
-0.0781446 0.0199853 -0.456095
-0.0905564 0.0200027 -0.456098
0.138632 0.02271 -0.456054
0.129606 0.0227246 -0.456056
0.120568 0.0227392 -0.456057
0.111518 0.0227538 -0.456059
0.102457 0.0227684 -0.456061
0.0903575 0.022788 -0.456063
0.0812691 0.0228026 -0.456065
-0.0998794 0.0230951 -0.456099
-0.109215 0.0231101 -0.456101
-0.118562 0.0231252 -0.456103
-0.127921 0.0231403 -0.456105
-0.14042 0.0231605 -0.456107
0.0147599 0.0473119 0.258476
0.0132653 0.0446454 0.169127
0.00275745 0.0446646 0.169126
-0.00775945 0.0446839 0.169124
-0.0182854 0.0447031 0.169122
-0.0288204 0.0447224 0.16912
-0.0393645 0.0447417 0.169118
-0.0123964 0.0332814 -0.212833
-0.0124041 0.0319509 -0.25737
-0.0124112 0.0307227 -0.298483
-0.0124177 0.0295854 -0.336551
-0.0124238 0.0285293 -0.371902
-0.0134548 0.0278478 -0.394777
-0.0233225 0.0278658 -0.394779
-0.0332028 0.0278839 -0.394781
-0.0430961 0.027902 -0.394783
-0.0530021 0.0279201 -0.394785
-0.0629211 0.0279383 -0.394787
-0.072853 0.0279565 -0.394788
-0.0765845 0.0274642 -0.411494
-0.0765887 0.0269153 -0.429869
0.0147599 0.0528781 0.258476
-0.0765927 0.0294923 -0.447524
-0.0843478 0.029222 -0.456096
0.0132653 0.0551502 0.169127
0.00275745 0.055174 0.169126
-0.00775945 0.0551977 0.169124
-0.0182854 0.0552215 0.169122
-0.0288204 0.0552453 0.16912
-0.0393645 0.0552692 0.169118
-0.0124041 0.0394688 -0.25737
-0.0124112 0.0379515 -0.298483
-0.0765845 0.0339264 -0.411494
-0.0765887 0.0332483 -0.429869
0.0147599 0.0640103 0.258476
-0.0123964 0.0450278 -0.212833
-0.0124177 0.0400273 -0.336551
-0.0124238 0.0385984 -0.371902
-0.0134548 0.0376764 -0.394777
-0.0233225 0.0377009 -0.394779
-0.0332028 0.0377253 -0.394781
-0.0430961 0.0377498 -0.394783
-0.0530021 0.0377743 -0.394785
-0.0629211 0.0377989 -0.394787
-0.072853 0.0378235 -0.394788
-0.0936627 0.035397 -0.456098
-0.10299 0.0354201 -0.4561
-0.115445 0.035451 -0.456102
-0.1248 0.0354741 -0.456104
-0.134168 0.0354973 -0.456106
0.0132653 0.065655 0.169127
0.00275745 0.0656833 0.169126
-0.00775945 0.0657116 0.169124
-0.0182854 0.0657399 0.169122
-0.0288204 0.0657683 0.16912
-0.0393645 0.0657966 0.169118
-0.0765927 0.0388056 -0.447524
-0.0843478 0.03845 -0.456096
0.0147599 0.0751425 0.258476
-0.0123964 0.0528587 -0.212833
-0.0124041 0.0507456 -0.25737
-0.0124112 0.0487949 -0.298483
-0.0765845 0.0436197 -0.411494
-0.0765887 0.0427478 -0.429869
0.0132653 0.0761599 0.169127
0.00275745 0.0761927 0.169126
-0.00775945 0.0762255 0.169124
-0.0182854 0.0762584 0.169122
-0.0288204 0.0762912 0.16912
-0.0393645 0.0763242 0.169118
-0.0124177 0.0504692 -0.336551
-0.0124238 0.0486676 -0.371902
-0.0134548 0.0475051 -0.394777
-0.0233225 0.0475359 -0.394779
-0.0332028 0.0475667 -0.394781
-0.0430961 0.0475976 -0.394783
-0.0530021 0.0476285 -0.394785
-0.0629211 0.0476595 -0.394787
-0.072853 0.0476905 -0.394788
-0.0936627 0.0446311 -0.456098
-0.10299 0.0446602 -0.4561
-0.115445 0.0446991 -0.456102
-0.1248 0.0447283 -0.456104
-0.134168 0.0447575 -0.456106
0.0147599 0.0862748 0.258476
-0.0124041 0.0582634 -0.25737
-0.0765927 0.048119 -0.447524
-0.0843478 0.047678 -0.456096
0.0132653 0.0866647 0.169127
0.00275745 0.086702 0.169126
-0.00775945 0.0867394 0.169124
-0.0182854 0.0867767 0.169122
-0.0288204 0.0868142 0.16912
-0.0393645 0.0868516 0.169118
-0.0123964 0.0646051 -0.212833
-0.0124112 0.0596382 -0.298483
-0.0765845 0.053313 -0.411494
-0.0124177 0.0609111 -0.336551
-0.0124238 0.0587367 -0.371902
-0.0596133 0.0575076 -0.394786
-0.0695409 0.057545 -0.394788
-0.0765887 0.0554138 -0.429869
-0.0936627 0.0538651 -0.456098
-0.10299 0.0539002 -0.4561
-0.115445 0.0539471 -0.456102
-0.1248 0.0539823 -0.456104
-0.134168 0.0540176 -0.456106
-0.0124041 0.0695402 -0.25737
-0.0134548 0.0606099 -0.394777
-0.0233225 0.0606492 -0.394779
-0.0332028 0.0606885 -0.394781
-0.0430961 0.0607279 -0.394783
-0.0123964 0.0763515 -0.212833
-0.0124112 0.0704814 -0.298483
-0.0124177 0.0678723 -0.336551
-0.0765845 0.0630062 -0.411494
-0.0765927 0.0605368 -0.447524
-0.0843478 0.059982 -0.456096
-0.0124238 0.0688059 -0.371902
-0.0765887 0.0649134 -0.429869
-0.0936627 0.0630991 -0.456098
-0.10299 0.0631402 -0.4561
-0.115445 0.0631952 -0.456102
-0.1248 0.0632365 -0.456104
-0.134168 0.0632778 -0.456106
-0.0123964 0.0841824 -0.212833
-0.0124041 0.080817 -0.25737
-0.0124112 0.0777103 -0.298483
-0.0134548 0.0704385 -0.394777
-0.0233225 0.0704842 -0.394779
-0.0332028 0.0705299 -0.394781
-0.0430961 0.0705757 -0.394783
-0.0530021 0.0706215 -0.394785
-0.0629211 0.0706674 -0.394787
-0.072853 0.0707134 -0.394788
-0.0124177 0.0783143 -0.336551
-0.0765845 0.0726995 -0.411494
-0.0765927 0.0698502 -0.447524
-0.0843478 0.06921 -0.456096
-0.0124238 0.0788751 -0.371902
-0.0765887 0.0744129 -0.429869
-0.127921 0.0725064 -0.456105
-0.14042 0.0725696 -0.456107
-0.0764216 0.14913 0.401061
-0.0134548 0.0802671 -0.394777
-0.0233225 0.0803192 -0.394779
-0.0332028 0.0803713 -0.394781
-0.0430961 0.0804235 -0.394783
-0.0530021 0.0804757 -0.394785
-0.0629211 0.080528 -0.394787
-0.072853 0.0805804 -0.394788
-0.0936627 0.0754111 -0.456098
-0.10299 0.0754603 -0.4561
-0.115445 0.0755259 -0.456102
-0.0765927 0.0791636 -0.447524
-0.0843478 0.078438 -0.456096
-0.0765229 0.113376 -0.113528
-0.0765296 0.110394 -0.145541
-0.0765359 0.107565 -0.175914
-0.0765419 0.104878 -0.204769
-0.0765476 0.102321 -0.232218
-0.076553 0.0998865 -0.25836
-0.076558 0.0975648 -0.283288
-0.0765629 0.0953485 -0.307083
-0.0765675 0.0932308 -0.329821
-0.076572 0.091205 -0.35157
-0.0765762 0.0892654 -0.372395
-0.0765845 0.0856238 -0.411494
-0.0765887 0.0839124 -0.429869
-0.0764669 0.145088 0.170305
-0.0764765 0.140411 0.121914
-0.0764854 0.136026 0.0765461
-0.0764937 0.131906 0.0339258
-0.0765016 0.128029 -0.00618911
-0.076509 0.124373 -0.044013
-0.076516 0.12092 -0.0797368
-0.0765802 0.090705 -0.392353
-0.0936627 0.0846451 -0.456098
-0.10299 0.0847003 -0.4561
-0.115445 0.084774 -0.456102
-0.1248 0.0848294 -0.456104
-0.134168 0.0848849 -0.456106
-0.0765296 0.118726 -0.145542
-0.0765419 0.112793 -0.20477
-0.0765475 0.110044 -0.232218
-0.0765629 0.102545 -0.307083
-0.076572 0.0980884 -0.35157
-0.0765927 0.0884769 -0.447524
-0.0843478 0.0876659 -0.456096
-0.0764859 0.145919 0.0765502
-0.0764942 0.1415 0.0339297
-0.0765094 0.133419 -0.0440094
-0.0765164 0.129715 -0.0797333
-0.076523 0.126211 -0.113527
-0.0765358 0.119743 -0.175915
-0.0765529 0.111194 -0.25836
-0.076558 0.10861 -0.283288
-0.0765675 0.103785 -0.329821
-0.0765762 0.099371 -0.372395
-0.0765845 0.0953171 -0.411494
-0.0765887 0.0934119 -0.429869
-0.0765023 0.141996 -0.00618339
-0.0765475 0.117766 -0.232219
-0.0765802 0.1006 -0.392353
-0.0936627 0.0938791 -0.456098
-0.10299 0.0939403 -0.4561
-0.115445 0.0940221 -0.456102
-0.1248 0.0940835 -0.456104
-0.134168 0.094145 -0.456106
-0.0765169 0.13851 -0.0797299
-0.0765235 0.134768 -0.113524
-0.0765297 0.131223 -0.145541
-0.0765357 0.127861 -0.175916
-0.0765417 0.124666 -0.204771
-0.0765529 0.118733 -0.258361
-0.0765629 0.113339 -0.307083
-0.076572 0.108414 -0.35157
-0.0765927 0.0977903 -0.447524
-0.0765101 0.146988 -0.0440038
-0.0765579 0.119655 -0.283288
-0.0765675 0.11434 -0.329821
-0.0765762 0.109476 -0.372395
-0.0765845 0.10501 -0.411494
-0.0765887 0.102911 -0.429869
-0.0843478 0.09997 -0.456096
-0.0765239 0.143325 -0.113521
-0.0765302 0.139555 -0.145538
-0.0765417 0.132581 -0.204771
-0.0765474 0.129349 -0.232219
-0.0765802 0.110495 -0.392353
-0.0936627 0.103113 -0.456098
-0.10299 0.10318 -0.4561
-0.115445 0.10327 -0.456102
-0.1248 0.103338 -0.456104
-0.134168 0.103405 -0.456106
-0.0765363 0.140038 -0.175912
-0.0765527 0.130041 -0.258362
-0.0765629 0.124133 -0.307083
-0.076572 0.118739 -0.35157
-0.0765306 0.147888 -0.145534
-0.0765578 0.1307 -0.283289
-0.0765675 0.124894 -0.329821
-0.0765762 0.119582 -0.372395
-0.0765845 0.114704 -0.411494
-0.0765927 0.110208 -0.447524
-0.0843478 0.109198 -0.456096
-0.0765367 0.148157 -0.175909
-0.0765423 0.144455 -0.204767
-0.0765476 0.140933 -0.232218
-0.0765527 0.137579 -0.258362
-0.0765802 0.12039 -0.392353
-0.0765887 0.115577 -0.429869
-0.115445 0.112518 -0.456102
-0.1248 0.112592 -0.456104
-0.134168 0.112665 -0.456106
-0.0765578 0.138063 -0.283289
-0.0765628 0.134927 -0.307083
-0.076572 0.129064 -0.35157
-0.0936627 0.115425 -0.456098
-0.10299 0.1155 -0.4561
-0.076548 0.148656 -0.232215
-0.0765675 0.135448 -0.329821
-0.0765762 0.129688 -0.372395
-0.0765845 0.124397 -0.411494
-0.0765927 0.119521 -0.447524
-0.0843478 0.118426 -0.456096
-0.0765533 0.148888 -0.258358
-0.0765802 0.130285 -0.392353
-0.0765887 0.125077 -0.429869
-0.0765583 0.149109 -0.283286
-0.0765629 0.145721 -0.307082
-0.0765719 0.139389 -0.351571
-0.0936627 0.124659 -0.456098
-0.10299 0.12474 -0.4561
-0.115445 0.124849 -0.456102
-0.1248 0.124931 -0.456104
-0.134168 0.125012 -0.456106
-0.0765675 0.146003 -0.329821
-0.0765762 0.139793 -0.372395
-0.0765845 0.13409 -0.411494
-0.0765927 0.128835 -0.447524
-0.0843478 0.127654 -0.456096
-0.0765802 0.14018 -0.392353
-0.0765887 0.134576 -0.429869
-0.0936627 0.133893 -0.456098
-0.10299 0.133981 -0.4561
-0.115445 0.134097 -0.456102
-0.1248 0.134185 -0.456104
-0.134168 0.134272 -0.456106
-0.0765845 0.143783 -0.411494
-0.0765927 0.138148 -0.447524
-0.0765887 0.144076 -0.429869
-0.0843478 0.139958 -0.456096
-0.0936627 0.143127 -0.456098
-0.10299 0.143221 -0.4561
-0.115445 0.143345 -0.456102
-0.1248 0.143439 -0.456104
-0.134168 0.143533 -0.456106
-0.0781446 0.149121 -0.456095
