ply
format ascii 1.0
comment Created by Open3D
element vertex 620
property double x
property double y
property double z
end_header
-0.159994 -0.153147 0.40879
-0.160063 -0.153118 0.261043
-0.160055 -0.152723 0.278171
-0.160046 -0.152251 0.298608
-0.160036 -0.151782 0.318918
-0.160027 -0.151315 0.339105
-0.160017 -0.150852 0.359167
-0.160008 -0.150391 0.379107
-0.160137 -0.153169 0.102806
-0.160127 -0.152683 0.124339
-0.160122 -0.152441 0.135055
-0.160109 -0.1518 0.163464
-0.160099 -0.151323 0.184615
-0.160094 -0.151085 0.195141
-0.160081 -0.150456 0.223048
-0.160071 -0.149987 0.243827
-0.160213 -0.153139 -0.059393
-0.160204 -0.152724 -0.040572
-0.160195 -0.152312 -0.0218527
-0.160185 -0.15182 0.000477523
-0.160176 -0.151412 0.0189762
-0.160166 -0.150926 0.0410438
-0.160158 -0.150523 0.0593255
-0.160149 -0.150122 0.0775099
-0.160293 -0.153107 -0.229533
-0.160283 -0.152682 -0.209781
-0.160274 -0.15226 -0.190138
-0.160265 -0.15184 -0.170603
-0.160256 -0.151422 -0.151176
-0.160247 -0.151007 -0.131855
-0.160236 -0.150511 -0.10881
-0.160227 -0.150101 -0.0897202
-0.160378 -0.153161 -0.412378
-0.160368 -0.152726 -0.391599
-0.160359 -0.152292 -0.370939
-0.160349 -0.151861 -0.350395
-0.160339 -0.151433 -0.329967
-0.16033 -0.151007 -0.309655
-0.16032 -0.150583 -0.289456
-0.160311 -0.150162 -0.26937
-0.160302 -0.149743 -0.249396
-0.160129 -0.134792 0.12076
-0.160075 -0.132479 0.236915
-0.160055 -0.131657 0.278171
-0.160046 -0.131251 0.298608
-0.160036 -0.130846 0.318918
-0.160027 -0.130444 0.339105
-0.160017 -0.130045 0.359167
-0.160008 -0.129648 0.379107
-0.160213 -0.134688 -0.059393
-0.160204 -0.134324 -0.040572
-0.160159 -0.132458 0.055677
-0.160146 -0.131895 0.0847565
-0.16012 -0.130851 0.138619
-0.16011 -0.130438 0.159926
-0.160102 -0.130096 0.17758
-0.160092 -0.129688 0.198642
-0.160083 -0.129282 0.219572
-0.159999 -0.125806 0.398925
-0.15999 -0.125425 0.418624
-0.160296 -0.134355 -0.237465
-0.160285 -0.133907 -0.213723
-0.160249 -0.132437 -0.135711
-0.160243 -0.132219 -0.124156
-0.160234 -0.131858 -0.104983
-0.160195 -0.130291 -0.0218527
-0.160185 -0.12987 0.000477523
-0.160176 -0.129521 0.0189762
-0.160166 -0.129105 0.0410438
-0.160062 -0.124894 0.264476
-0.225063 -0.116357 0.291142
-0.225055 -0.115999 0.310162
-0.225046 -0.115643 0.329066
-0.225037 -0.115289 0.347854
-0.225027 -0.114878 0.369628
-0.225018 -0.114529 0.388169
-0.225008 -0.114124 0.409658
-0.160345 -0.132489 -0.34221
-0.160336 -0.132115 -0.321829
-0.160326 -0.131744 -0.301561
-0.160317 -0.131375 -0.281408
-0.160307 -0.131008 -0.261367
-0.160274 -0.129703 -0.190138
-0.160265 -0.129345 -0.170603
-0.160141 -0.124469 0.0955976
-0.225146 -0.116315 0.114514
-0.225136 -0.115947 0.134637
-0.225127 -0.11558 0.154633
-0.225118 -0.115216 0.174503
-0.225109 -0.114855 0.194247
-0.225099 -0.114495 0.213869
-0.22509 -0.114138 0.233368
-0.225081 -0.113783 0.252746
-0.225075 -0.113548 0.265597
-0.160382 -0.130045 -0.420722
-0.160366 -0.129453 -0.387458
-0.160357 -0.129086 -0.366821
-0.225235 -0.116334 -0.0760852
-0.225225 -0.115954 -0.0547383
-0.225211 -0.115452 -0.0264916
-0.225202 -0.115078 -0.00546673
-0.225192 -0.114706 0.0154224
-0.225179 -0.114215 0.0430657
-0.225169 -0.113849 0.0636432
-0.22516 -0.113485 0.0840891
-0.225329 -0.116354 -0.278481
-0.22532 -0.116027 -0.259565
-0.225311 -0.115703 -0.240755
-0.225302 -0.11538 -0.22205
-0.225292 -0.114995 -0.199742
-0.225283 -0.114676 -0.181264
-0.225273 -0.114296 -0.159227
-0.225265 -0.113981 -0.140973
-0.225254 -0.113605 -0.119201
-0.225246 -0.113294 -0.101167
-0.225394 -0.115105 -0.417881
-0.225386 -0.114841 -0.402108
-0.225377 -0.114513 -0.382493
-0.225366 -0.114122 -0.359103
-0.225357 -0.113798 -0.339733
-0.225348 -0.113476 -0.320473
-0.225339 -0.113155 -0.301321
-0.225206 -0.104942 -0.0159621
-0.225197 -0.104603 0.00499475
-0.225306 -0.104846 -0.22952
-0.225065 -0.0967413 0.28796
-0.225055 -0.0963935 0.310162
-0.225046 -0.0960974 0.329066
-0.225037 -0.0958032 0.347854
-0.225012 -0.0949791 0.400467
-0.225004 -0.0946916 0.418821
-0.225394 -0.104143 -0.417881
-0.225154 -0.0963417 0.0976474
-0.225144 -0.0960356 0.117877
-0.225135 -0.0957314 0.137979
-0.225125 -0.0954291 0.157953
-0.225112 -0.0949793 0.18768
-0.225101 -0.0946324 0.210607
-0.225092 -0.094337 0.230126
-0.225236 -0.0955501 -0.0796566
-0.225228 -0.0952899 -0.0618384
-0.225218 -0.0949796 -0.0405843
-0.22533 -0.0949264 -0.282277
-0.22532 -0.0946068 -0.259565
-0.225084 -0.0874893 0.2463
-0.225075 -0.0872178 0.265597
-0.225025 -0.0857105 0.372726
-0.225192 -0.0873137 0.0154224
-0.225179 -0.0869394 0.0430657
-0.225169 -0.0866608 0.0636432
-0.22516 -0.086384 0.0840891
-0.225297 -0.0868333 -0.210877
-0.225289 -0.0865922 -0.192338
-0.225278 -0.0863046 -0.170227
-0.22527 -0.0860663 -0.151913
-0.22526 -0.0857822 -0.130069
-0.225251 -0.0855468 -0.111976
-0.225231 -0.0849872 -0.0689541
-0.225208 -0.0843435 -0.0194682
-0.225386 -0.0856751 -0.402108
-0.225377 -0.0854304 -0.382493
-0.225366 -0.0851386 -0.359103
-0.225357 -0.0848969 -0.339733
-0.225348 -0.0846566 -0.320473
-0.225339 -0.0844176 -0.301321
-0.225062 -0.0769857 0.29432
-0.225053 -0.0767486 0.313321
-0.225043 -0.0764739 0.335341
-0.2252 -0.0772493 -0.00197579
-0.225154 -0.0760592 0.0976473
-0.225144 -0.0758175 0.117877
-0.225135 -0.0755774 0.137979
-0.225125 -0.0753388 0.157953
-0.225112 -0.0749837 0.18768
-0.225101 -0.0747098 0.210607
-0.225092 -0.0744766 0.230126
-0.225313 -0.0765846 -0.244509
-0.225248 -0.0749894 -0.104766
-0.225225 -0.0744183 -0.0547383
-0.225394 -0.0749096 -0.417881
-0.225386 -0.0747379 -0.402108
-0.225377 -0.0745244 -0.382493
-0.225366 -0.0742698 -0.359103
-0.225075 -0.0674704 0.265597
-0.22503 -0.0664056 0.363423
-0.22502 -0.0661698 0.385087
-0.225007 -0.0658691 0.412715
-0.225192 -0.0667693 0.0154224
-0.225179 -0.0664831 0.0430657
-0.225169 -0.0662701 0.0636432
-0.22516 -0.0660584 0.0840891
-0.225081 -0.0643122 0.252746
-0.225327 -0.0661948 -0.274689
-0.225299 -0.0656046 -0.214597
-0.225285 -0.0653134 -0.184952
-0.225272 -0.0650248 -0.155568
-0.225266 -0.0649172 -0.144616
-0.225253 -0.0646321 -0.115586
-0.225234 -0.0642441 -0.0760852
-0.225065 -0.0573889 0.28796
-0.225055 -0.0571826 0.310162
-0.225046 -0.0570069 0.329066
-0.225213 -0.0568951 -0.0300091
-0.225205 -0.0567413 -0.0124599
-0.225154 -0.0557767 0.0976473
-0.225144 -0.0555995 0.117877
-0.225135 -0.0554234 0.137979
-0.225125 -0.0552484 0.157953
-0.225112 -0.054988 0.18768
-0.225101 -0.0547872 0.210607
-0.225092 -0.0546162 0.230126
-0.225074 -0.0542773 0.268802
-0.225357 -0.0559958 -0.339733
-0.225348 -0.0558373 -0.320473
-0.225339 -0.0556797 -0.301321
-0.225316 -0.055274 -0.252029
-0.225306 -0.0550888 -0.22952
-0.225297 -0.0549354 -0.210877
-0.225289 -0.0547828 -0.192338
-0.225278 -0.0546008 -0.170227
-0.225034 -0.0470417 0.354091
-0.225025 -0.0468982 0.372726
-0.22502 -0.046803 0.385087
-0.225007 -0.0465903 0.412715
-0.225246 -0.0470606 -0.101167
-0.225228 -0.0467787 -0.0618384
-0.225195 -0.0462747 0.00847438
-0.225185 -0.0461256 0.0292738
-0.225176 -0.0459775 0.0499395
-0.225166 -0.0458303 0.070473
-0.225083 -0.0445469 0.249524
-0.225394 -0.0456766 -0.417881
-0.225386 -0.0455719 -0.402108
-0.225377 -0.0454417 -0.382493
-0.225366 -0.0452865 -0.359103
-0.225343 -0.0449537 -0.308968
-0.225334 -0.0448271 -0.289882
-0.225325 -0.0447011 -0.270902
-0.225316 -0.0445758 -0.252029
-0.225306 -0.0444265 -0.22952
-0.225047 -0.0374809 0.325923
-0.22527 -0.0368856 -0.151913
-0.225259 -0.0367638 -0.130069
-0.225236 -0.0364828 -0.0796566
-0.225218 -0.0362649 -0.0405844
-0.225208 -0.0361472 -0.0194682
-0.225157 -0.0355321 0.0908754
-0.225149 -0.0354378 0.107778
-0.225139 -0.0353254 0.127944
-0.22513 -0.0352137 0.147982
-0.225121 -0.0351027 0.167893
-0.225112 -0.0349924 0.18768
-0.225101 -0.0348646 0.210607
-0.225092 -0.0347558 0.230126
-0.225074 -0.0345401 0.268802
-0.225065 -0.0344333 0.28796
-0.225054 -0.0343096 0.310162
-0.225394 -0.0347142 -0.417881
-0.225386 -0.0346346 -0.402108
-0.225377 -0.0345357 -0.382493
-0.225366 -0.0344177 -0.359103
-0.225357 -0.03432 -0.339733
-0.225025 -0.027492 0.372726
-0.22502 -0.0274363 0.385087
-0.225007 -0.0273116 0.412715
-0.225297 -0.0265816 -0.210877
-0.225289 -0.0265078 -0.192338
-0.225278 -0.0264198 -0.170227
-0.225251 -0.0261878 -0.111976
-0.225228 -0.0259881 -0.0618385
-0.2252 -0.0257498 -0.0019758
-0.22519 -0.0256667 0.0188909
-0.225181 -0.0255841 0.0396233
-0.225171 -0.0255021 0.0602228
-0.225083 -0.0247483 0.249524
-0.225046 -0.0244315 0.329066
-0.225037 -0.0243567 0.347854
-0.225348 -0.0162108 -0.320473
-0.225339 -0.0161651 -0.301321
-0.22533 -0.0161196 -0.282277
-0.22532 -0.0160653 -0.259565
-0.225311 -0.0160204 -0.240755
-0.22527 -0.0158081 -0.151913
-0.225259 -0.0157559 -0.130069
-0.225241 -0.0156611 -0.0903943
-0.225218 -0.0155421 -0.0405844
-0.225208 -0.0154917 -0.0194682
-0.225161 -0.0152524 0.0806906
-0.225154 -0.0152118 0.0976473
-0.225144 -0.0151635 0.117877
-0.225135 -0.0151155 0.137979
-0.225125 -0.0150678 0.157953
-0.225111 -0.0149967 0.18768
-0.225101 -0.014942 0.210607
-0.225092 -0.0148953 0.230126
-0.225074 -0.0148029 0.268802
-0.225065 -0.0147571 0.28796
-0.225054 -0.0147041 0.310162
-0.225027 -0.014562 0.369628
-0.225018 -0.0145177 0.388169
-0.225008 -0.0144664 0.409658
-0.225394 -0.0054812 -0.417881
-0.225386 -0.00546863 -0.402108
-0.225377 -0.00545301 -0.382493
-0.225366 -0.00543438 -0.359103
-0.225357 -0.00541896 -0.339733
-0.225302 -0.00532523 -0.22205
-0.225292 -0.00530747 -0.199742
-0.225283 -0.00529275 -0.181264
-0.225251 -0.00523757 -0.111976
-0.225231 -0.00520331 -0.0689541
-0.2252 -0.00514996 -0.0019758
-0.22519 -0.00513335 0.0188908
-0.225181 -0.00511683 0.0396233
-0.225171 -0.00510043 0.0602228
-0.225083 -0.00494967 0.249524
-0.225046 -0.00488632 0.329066
-0.225037 -0.00487135 0.347854
-0.225394 0.00548117 -0.417881
-0.225386 0.00546861 -0.402108
-0.225377 0.00545299 -0.382493
-0.225366 0.00543436 -0.359103
-0.225357 0.00541893 -0.339733
-0.225348 0.00540359 -0.320473
-0.225339 0.00538834 -0.301321
-0.22533 0.00537317 -0.282277
-0.22532 0.00535509 -0.259565
-0.225311 0.00534011 -0.240755
-0.225302 0.00532521 -0.22205
-0.225292 0.00530744 -0.199742
-0.225283 0.00529273 -0.181264
-0.225273 0.00527518 -0.159227
-0.225265 0.00526064 -0.140973
-0.225254 0.0052433 -0.119201
-0.225246 0.00522894 -0.101167
-0.225236 0.0052118 -0.0796566
-0.225228 0.00519761 -0.0618385
-0.225218 0.00518069 -0.0405844
-0.225208 0.00516387 -0.0194682
-0.2252 0.00514994 -0.0019758
-0.22519 0.00513332 0.0188908
-0.225181 0.00511681 0.0396233
-0.225171 0.0051004 0.0602228
-0.225161 0.0050841 0.0806906
-0.225153 0.0050706 0.0976473
-0.225144 0.00505449 0.117877
-0.225135 0.00503848 0.137979
-0.225125 0.00502257 0.157953
-0.225116 0.00500676 0.177802
-0.225107 0.0149732 0.197526
-0.225096 0.0149186 0.220382
-0.225074 0.0148029 0.268802
-0.225065 0.0147571 0.28796
-0.225054 0.0147041 0.310162
-0.225027 0.014562 0.369628
-0.225018 0.0145177 0.388169
-0.225008 0.0144664 0.409658
-0.225223 0.0259458 -0.0511941
-0.225213 0.0258614 -0.0300091
-0.225205 0.0257915 -0.0124599
-0.225195 0.0257082 0.00847436
-0.225185 0.0256254 0.0292738
-0.225176 0.0255431 0.0499395
-0.225166 0.0254613 0.070473
-0.225157 0.0253801 0.0908754
-0.225149 0.0253127 0.107778
-0.225139 0.0252324 0.127944
-0.22513 0.0251527 0.147982
-0.225121 0.0250734 0.167893
-0.225087 0.0247869 0.239841
-0.225046 0.0244316 0.329066
-0.225037 0.0243567 0.347854
-0.225394 0.0347142 -0.417881
-0.225386 0.0346346 -0.402108
-0.225377 0.0345357 -0.382493
-0.225366 0.0344177 -0.359103
-0.225357 0.03432 -0.339733
-0.225348 0.0342229 -0.320473
-0.225339 0.0341263 -0.301321
-0.22533 0.0340302 -0.282277
-0.22532 0.0339157 -0.259565
-0.225311 0.0338208 -0.240755
-0.225302 0.0337264 -0.22205
-0.225292 0.0336139 -0.199742
-0.225283 0.0335207 -0.181264
-0.225273 0.0334096 -0.159227
-0.225265 0.0333175 -0.140973
-0.225254 0.0332077 -0.119201
-0.225246 0.0331167 -0.101167
-0.225236 0.0330082 -0.0796566
-0.225111 0.0349924 0.18768
-0.225101 0.0348646 0.210607
-0.225078 0.0345938 0.259178
-0.225069 0.0344866 0.278396
-0.225059 0.0343625 0.300667
-0.225027 0.033978 0.369628
-0.225018 0.0338747 0.388169
-0.225008 0.0337549 0.409658
-0.225394 0.0456765 -0.417881
-0.225386 0.0455719 -0.402108
-0.225377 0.0454417 -0.382493
-0.225366 0.0452864 -0.359103
-0.225357 0.0451579 -0.339733
-0.225348 0.0450301 -0.320473
-0.225166 0.0458303 0.070473
-0.225157 0.0456841 0.0908754
-0.225149 0.0455629 0.107778
-0.225139 0.0454184 0.127944
-0.22513 0.0452747 0.147982
-0.225121 0.045132 0.167893
-0.225092 0.044686 0.230126
-0.22505 0.0440444 0.319629
-0.225041 0.0439094 0.338474
-0.225339 0.0556797 -0.301321
-0.22533 0.055523 -0.282277
-0.22532 0.0553361 -0.259565
-0.225311 0.0551813 -0.240755
-0.225302 0.0550273 -0.22205
-0.225292 0.0548437 -0.199742
-0.225283 0.0546917 -0.181264
-0.225273 0.0545103 -0.159227
-0.225265 0.0543601 -0.140973
-0.225254 0.0541809 -0.119201
-0.225246 0.0540325 -0.101167
-0.225236 0.0538555 -0.0796566
-0.225228 0.0537089 -0.0618385
-0.225218 0.0535339 -0.0405844
-0.225208 0.0533602 -0.0194682
-0.2252 0.0532162 -0.0019758
-0.22519 0.0530445 0.0188908
-0.225181 0.0528739 0.0396233
-0.225111 0.054988 0.18768
-0.225101 0.0547872 0.210607
-0.225083 0.0544463 0.249524
-0.225074 0.0542774 0.268802
-0.225065 0.0541095 0.28796
-0.225031 0.0534757 0.360315
-0.225022 0.0533127 0.378913
-0.225012 0.0531239 0.400467
-0.225004 0.0529631 0.418821
-0.225292 0.0654587 -0.199742
-0.225283 0.0652772 -0.181264
-0.225273 0.0650607 -0.159227
-0.225149 0.0658131 0.107778
-0.225139 0.0656043 0.127944
-0.22513 0.0653969 0.147982
-0.225121 0.0651907 0.167893
-0.225092 0.0645464 0.230126
-0.225054 0.0637177 0.310162
-0.225046 0.063522 0.329066
-0.225394 0.0749096 -0.417881
-0.225386 0.0747379 -0.402108
-0.225377 0.0745244 -0.382493
-0.225366 0.0742698 -0.359103
-0.225357 0.074059 -0.339733
-0.225348 0.0738493 -0.320473
-0.225265 0.0754027 -0.140973
-0.225254 0.0751542 -0.119201
-0.225246 0.0749483 -0.101167
-0.225236 0.0747027 -0.0796566
-0.225228 0.0744994 -0.0618385
-0.225218 0.0742567 -0.0405844
-0.225208 0.0740157 -0.0194682
-0.2252 0.073816 -0.0019758
-0.22519 0.0735778 0.0188908
-0.225181 0.0733411 0.0396233
-0.225171 0.073106 0.0602228
-0.225161 0.0728724 0.0806905
-0.225111 0.0749837 0.18768
-0.225101 0.0747098 0.210607
-0.225083 0.0742449 0.249524
-0.225074 0.0740146 0.268802
-0.225065 0.0737857 0.28796
-0.225037 0.0730702 0.347854
-0.225027 0.0728101 0.369628
-0.225018 0.0725886 0.388169
-0.225394 0.085872 -0.417881
-0.225386 0.0856752 -0.402108
-0.225377 0.0854304 -0.382493
-0.225366 0.0851386 -0.359103
-0.225339 0.0844176 -0.301321
-0.22533 0.08418 -0.282277
-0.22532 0.0838966 -0.259565
-0.225311 0.0836619 -0.240755
-0.225302 0.0834285 -0.22205
-0.225008 0.0755467 0.409658
-0.225246 0.0854062 -0.101167
-0.225236 0.0851264 -0.0796566
-0.225139 0.0857903 0.127944
-0.22513 0.085519 0.147982
-0.225121 0.0852494 0.167893
-0.225092 0.0844068 0.230126
-0.225054 0.0833232 0.310162
-0.225046 0.0830673 0.329066
-0.225357 0.0957348 -0.339733
-0.225348 0.0954638 -0.320473
-0.225339 0.0951943 -0.301321
-0.225292 0.0937651 -0.199742
-0.225283 0.0935051 -0.181264
-0.225273 0.0931951 -0.159227
-0.225022 0.0856235 0.378913
-0.225228 0.0952899 -0.0618385
-0.225218 0.0949796 -0.0405844
-0.225208 0.0946713 -0.0194682
-0.2252 0.0944159 -0.0019758
-0.22519 0.0941112 0.0188908
-0.225181 0.0938085 0.0396233
-0.225171 0.0935077 0.0602228
-0.225161 0.0932089 0.0806905
-0.225153 0.0929613 0.0976473
-0.225111 0.0949793 0.18768
-0.225101 0.0946324 0.210607
-0.225083 0.0940435 0.249524
-0.225074 0.0937518 0.268802
-0.225065 0.0934619 0.28796
-0.225037 0.0925556 0.347854
-0.22533 0.105673 -0.282277
-0.22532 0.105317 -0.259565
-0.225311 0.105022 -0.240755
-0.225302 0.104729 -0.22205
-0.225265 0.10346 -0.140973
-0.225254 0.103119 -0.119201
-0.225236 0.105974 -0.0796566
-0.225218 0.105341 -0.0405844
-0.225394 0.115105 -0.417881
-0.225386 0.114841 -0.402108
-0.225377 0.114513 -0.382493
-0.225366 0.114122 -0.359103
-0.225135 0.105808 0.137979
-0.225125 0.105474 0.157953
-0.225116 0.105142 0.177802
-0.225092 0.104267 0.230126
-0.225054 0.102929 0.310162
-0.225046 0.102613 0.329066
-0.225302 0.11538 -0.22205
-0.225292 0.114995 -0.199742
-0.225283 0.114676 -0.181264
-0.225273 0.114296 -0.159227
-0.225246 0.113294 -0.101167
-0.225037 0.105546 0.347854
-0.225027 0.10517 0.369628
-0.225012 0.104638 0.400467
-0.225004 0.104321 0.418821
-0.225208 0.115327 -0.0194682
-0.2252 0.115016 -0.0019758
-0.22519 0.114645 0.0188908
-0.225181 0.114276 0.0396233
-0.225171 0.113909 0.0602228
-0.225161 0.113545 0.0806905
-0.225153 0.113244 0.0976473
-0.225144 0.112884 0.117877
-0.225386 0.125778 -0.402108
-0.225377 0.125419 -0.382493
-0.225357 0.124636 -0.339733
-0.225348 0.124283 -0.320473
-0.225339 0.123932 -0.301321
-0.225107 0.114795 0.197526
-0.225083 0.113842 0.249524
-0.225074 0.113489 0.268802
-0.225065 0.113138 0.28796
-0.225292 0.12561 -0.199742
-0.225283 0.125262 -0.181264
-0.225265 0.124502 -0.140973
-0.225254 0.124092 -0.119201
-0.225228 0.123011 -0.0618385
-0.225046 0.115643 0.329066
-0.225366 0.135859 -0.359103
-0.225357 0.135474 -0.339733
-0.225348 0.13509 -0.320473
-0.22533 0.13433 -0.282277
-0.22532 0.133878 -0.259565
-0.225311 0.133503 -0.240755
-0.22513 0.125763 0.147982
-0.225121 0.125367 0.167893
-0.225096 0.124322 0.220382
-0.225054 0.122534 0.310162
-0.225273 0.135397 -0.159227
-0.225265 0.135023 -0.140973
-0.225246 0.13421 -0.101167
-0.225236 0.13377 -0.0796566
-0.225218 0.132971 -0.0405844
-0.225037 0.125031 0.347854
-0.225018 0.124207 0.388169
-0.225008 0.123768 0.409658
-0.224237 0.144512 -0.418604
-0.225205 0.135835 -0.0124599
-0.225195 0.135396 0.00847436
-0.225185 0.13496 0.0292738
-0.225176 0.134527 0.0499395
-0.225166 0.134096 0.070473
-0.225157 0.133668 0.0908754
-0.225149 0.133314 0.107778
-0.225139 0.132891 0.127944
-0.223544 0.145758 -0.302225
-0.223806 0.145225 -0.279211
-0.224383 0.143919 -0.222437
-0.225111 0.134971 0.18768
-0.225087 0.133849 0.239841
-0.225078 0.133433 0.259178
-0.225069 0.13302 0.278396
-0.213894 0.152938 -0.401147
-0.216751 0.15205 -0.37968
-0.223693 0.145302 -0.119691
-0.2243 0.14394 -0.0620737
-0.225054 0.135604 0.310162
-0.225046 0.135188 0.329066
-0.225027 0.134294 0.369628
-0.213691 0.152967 -0.238284
-0.223543 0.145459 0.0290136
-0.213498 0.152994 -0.0828505
-0.223238 0.145942 0.157908
-0.223482 0.145444 0.177796
-0.223886 0.144622 0.210645
-0.214263 0.152789 0.0692147
-0.21688 0.151889 0.0900965
-0.224183 0.143689 0.388349
-0.224375 0.143151 0.409809
-0.216757 0.151918 0.230553
-0.213937 0.152839 0.346626
-0.216639 0.151946 0.365019
