ply
format ascii 1.0
comment Created by Open3D
element vertex 914
property double x
property double y
property double z
end_header
-0.122685 -0.192419 0.12634
-0.136582 -0.188727 0.144321
-0.111895 -0.192664 0.112386
-0.120721 -0.188491 -0.168943
-0.109888 -0.19121 -0.150425
-0.0985608 -0.194055 -0.131398
-0.151592 -0.179781 0.163742
-0.10853 -0.188177 0.149611
-0.151142 -0.177383 0.176205
-0.0869607 -0.191534 -0.111785
-0.0961544 -0.18867 0.127931
-0.093258 -0.189336 0.149814
-0.106047 -0.186116 0.168505
-0.133143 -0.179385 0.170339
-0.101388 -0.185421 -0.168254
-0.0874723 -0.188789 -0.152468
-0.0950431 -0.186355 0.0906647
-0.13526 -0.174643 -0.193523
-0.0845836 -0.186803 -0.16672
-0.0814689 -0.186874 0.122074
-0.116169 -0.176619 -0.188377
-0.0674791 -0.188105 -0.151067
-0.0700555 -0.187446 -0.131091
-0.16589 -0.163923 0.189642
-0.154624 -0.166589 0.195054
-0.0705088 -0.184518 -0.111575
-0.0750737 -0.183404 -0.0915657
-0.0957727 -0.176114 -0.199178
-0.0525216 -0.185949 -0.137037
-0.0753478 -0.180155 0.0982799
-0.0611318 -0.183392 0.116676
-0.0541684 -0.182692 -0.116899
-0.0774166 -0.177002 0.0679225
-0.126711 -0.163834 -0.206251
-0.0627195 -0.177847 -0.0707347
-0.14673 -0.156863 -0.212941
-0.0604594 -0.175574 -0.0850039
-0.0652159 -0.174232 0.0521585
-0.05612 -0.176142 0.0948664
-0.105318 -0.163332 -0.217856
-0.0516681 -0.174599 -0.0519644
-0.0335355 -0.178461 -0.0214141
-0.0237435 -0.180538 -0.00123435
-0.0526387 -0.174203 0.035886
-0.0630333 -0.171882 0.0690207
-0.167006 -0.149071 0.208669
-0.150109 -0.152709 0.218519
-0.0398072 -0.174378 -0.0960713
-0.0394921 -0.174206 0.0190835
-0.0364541 -0.172176 -0.0849231
-0.00233364 -0.179178 -0.0135149
-0.00290042 -0.179004 0.0135529
-0.044019 -0.170296 0.059045
-0.0361947 -0.171893 0.0797207
-0.0316978 -0.170204 -0.0563684
-0.0291872 -0.170698 -0.0448975
0.0157953 -0.179908 -0.0170519
-0.00871122 -0.174762 0.0314214
-0.0254096 -0.1713 0.0426649
-0.0191996 -0.169868 -0.0780213
-0.00997061 -0.171662 -0.0401656
0.0175123 -0.17712 0.0136766
-0.143056 -0.142567 -0.229255
-0.00527352 -0.169646 -0.0584406
-0.164988 -0.134893 0.223781
-0.116525 -0.142638 -0.243327
-0.155434 -0.135142 -0.227622
0.0437776 -0.172972 -0.0146956
0.0394353 -0.172085 0.0138094
0.0495101 -0.173989 0.0298144
0.118484 -0.183781 0.0348755
0.138653 -0.187572 0.0389244
-0.185703 -0.126158 0.207942
0.0674122 -0.170989 -0.0120465
0.0631406 -0.170158 0.0107157
0.091746 -0.175404 0.0341494
0.159294 -0.187881 0.0395575
0.184998 -0.189034 2.60193e-05
0.0887433 -0.171554 0.0141081
0.178755 -0.18783 0.0401544
0.204608 -0.185104 0.0036046
0.201067 -0.184449 0.0259545
-0.134292 -0.123908 -0.247532
-0.176408 -0.115923 0.227369
-0.146272 -0.119342 -0.243292
0.218205 -0.1799 0.0035435
0.222157 -0.176729 0.0225089
0.21889 -0.176158 0.0451684
-0.160247 -0.113765 0.242311
0.239741 -0.168043 0.00730573
0.236 -0.16743 0.034223
0.239175 -0.164039 0.0458619
-0.193026 -0.0967777 0.21738
-0.130978 -0.103958 -0.258997
-0.163924 -0.0967855 -0.241957
0.255144 -0.154723 0.0151163
-0.177719 -0.0918315 0.236448
-0.16376 -0.091274 0.248402
0.264874 -0.140242 0.0388508
-0.130646 -0.0834668 -0.264268
-0.148702 -0.0813901 -0.254983
0.276242 -0.129722 0.0112572
-0.195941 -0.0754519 0.221087
-0.166271 -0.0769274 -0.246006
0.276034 -0.125686 0.0311846
0.275246 -0.121591 0.051076
-0.180436 -0.0724563 0.237901
0.282935 -0.11442 0.0192947
0.284019 -0.102449 0.0473949
-0.154147 -0.0608843 -0.25296
-0.195927 -0.0568804 0.221091
-0.166284 -0.0573892 -0.246001
0.289755 -0.0949108 0.01936
-0.180077 -0.0511029 0.238023
0.290334 -0.078782 0.0395422
-0.132537 -0.0473883 -0.263559
0.293365 -0.0749521 0.0193946
-0.151666 -0.0386532 -0.251382
-0.192977 -0.0361485 0.217395
0.290755 -0.0586029 0.0395536
0.293662 -0.0547089 0.0193974
-0.170211 -0.0301438 0.241368
-0.126196 -0.0297142 -0.263347
0.288727 -0.0423617 0.0394985
-0.149906 -0.0212483 -0.247017
0.290117 -0.0343403 0.0193635
-0.188599 -0.0152605 0.211759
0.283359 -0.0220855 0.0393527
-0.170516 -0.0108484 0.231664
-0.158043 -0.00864717 -0.231697
0.283074 -0.0140533 0.0192961
-0.127358 -0.00644847 -0.252572
0.275262 -0.00199354 0.0391329
0.274726 0.00597874 0.0192161
-0.184193 0.00354521 0.206037
-0.121768 0.0064974 -0.24936
-0.155728 0.00867548 -0.230007
0.26769 0.0178218 0.0389272
-0.162029 0.0109836 0.227132
0.268078 0.0257558 0.0191525
-0.138386 0.024129 -0.233354
-0.17968 0.0226059 0.200252
0.261482 0.0413546 0.0387586
-0.11699 0.0300791 -0.243169
0.263522 0.0453836 0.0191089
-0.162228 0.0280641 0.219779
-0.145052 0.0364845 -0.226069
0.25847 0.060883 0.0386769
0.261504 0.0689423 0.0112198
-0.176664 0.0442211 0.196343
-0.16052 0.0477071 0.215425
-0.114964 0.0537622 -0.238601
-0.128086 0.0528101 -0.231653
0.257202 0.0804311 0.0386424
0.261116 0.0886094 0.0112188
-0.147749 0.0589021 -0.220158
0.258624 0.0962542 0.0308342
0.256012 0.0999314 0.0503508
-0.175155 0.0634863 0.194374
0.262497 0.108434 0.0112223
-0.154166 0.0678928 0.217313
-0.117357 0.0744991 -0.235185
0.260625 0.116106 0.0308745
0.258532 0.119796 0.0504458
-0.14925 0.0787841 -0.217168
0.265729 0.128519 0.0112305
-0.170665 0.0783649 0.202804
0.264805 0.136292 0.0309586
-0.11721 0.0928156 -0.235233
0.262974 0.13999 0.0506133
-0.152925 0.087798 0.217682
0.271244 0.14902 0.0112445
-0.149266 0.0987905 -0.217163
0.271355 0.160918 0.0390268
-0.171334 0.0975596 0.202615
0.324945 0.172768 0.00722258
0.276246 0.165635 0.0192307
0.295763 0.172766 -0.130812
0.295964 0.172766 -0.110509
0.296164 0.172766 -0.0902059
0.296364 0.172767 -0.0699027
0.296563 0.172767 -0.0495996
0.296764 0.172767 -0.0292963
0.296964 0.172768 -0.00899297
0.297629 0.172772 0.0559791
0.297846 0.172775 0.076284
0.298149 0.172779 0.104712
0.298343 0.172778 0.125016
-0.114842 0.1141 -0.238641
0.268779 0.17277 -0.179192
0.268958 0.172768 -0.159352
0.269138 0.172766 -0.139514
0.269334 0.172766 -0.119678
0.269529 0.172766 -0.0998415
0.269725 0.172767 -0.0800051
0.26992 0.172767 -0.0601687
0.270114 0.172767 -0.0403321
0.27031 0.172767 -0.0204956
0.270506 0.172768 -0.000659
0.271109 0.172771 0.0588518
0.27132 0.172774 0.07869
0.271532 0.172776 0.0985287
0.271736 0.172778 0.118367
0.271926 0.172777 0.138205
0.272116 0.172777 0.158042
0.272306 0.172776 0.177879
-0.127554 0.11472 -0.231828
0.243094 0.172776 -0.217645
0.243234 0.172774 -0.202129
0.243443 0.172771 -0.178856
0.243618 0.172769 -0.159463
0.243793 0.172767 -0.14007
0.243977 0.172766 -0.120678
0.244168 0.172766 -0.101288
0.244359 0.172767 -0.0818971
0.244589 0.172767 -0.0586283
0.244779 0.172767 -0.0392376
0.244969 0.172767 -0.0198468
0.24516 0.172767 -0.000455949
0.245351 0.172768 0.0189349
0.245543 0.172768 0.0383258
0.24574 0.172769 0.0577171
0.245987 0.172772 0.0809877
0.246194 0.172775 0.100381
0.246401 0.172778 0.119774
0.246584 0.172777 0.139165
0.24677 0.172776 0.158557
0.246956 0.172776 0.177948
0.247165 0.172773 0.201215
0.218631 0.172773 -0.239225
0.21883 0.172775 -0.220263
0.219015 0.172775 -0.201297
0.219186 0.172773 -0.182329
0.219392 0.17277 -0.159568
0.219563 0.172768 -0.140601
0.219737 0.172766 -0.121635
0.21996 0.172766 -0.0988776
0.220146 0.172767 -0.0799131
0.220333 0.172767 -0.0609487
0.22052 0.172767 -0.0419841
0.220741 0.172767 -0.0192265
0.220928 0.172767 -0.000261826
0.221116 0.172768 0.0187028
0.221303 0.172768 0.0376676
0.22153 0.172769 0.0604255
0.221728 0.172771 0.0793912
0.221929 0.172773 0.0983576
0.222171 0.172776 0.121118
0.22236 0.172777 0.140084
0.222539 0.172776 0.159049
0.222721 0.172775 0.178014
0.222945 0.172776 0.200773
0.223101 0.172771 0.219733
-0.148544 0.113222 0.223941
0.195256 0.17277 -0.256165
0.195489 0.172773 -0.2339
0.1958 0.172776 -0.204212
0.196073 0.172773 -0.174517
0.196342 0.17277 -0.144822
0.196611 0.172766 -0.115128
0.196719 0.172766 -0.103994
0.197012 0.172767 -0.0743031
0.197304 0.172767 -0.0446125
0.197594 0.172767 -0.0149215
0.197885 0.172767 0.0147694
0.197995 0.172768 0.0259035
0.198289 0.172768 0.0555946
0.198591 0.17277 0.0852866
0.198906 0.172774 0.11498
0.199024 0.172776 0.126116
0.199315 0.172776 0.155809
0.199599 0.172775 0.1855
0.199897 0.172776 0.215194
0.20013 0.172767 0.244873
-0.150508 0.118595 -0.21927
0.17283 0.172767 -0.276024
0.173055 0.172769 -0.254227
0.173359 0.172773 -0.225166
0.173473 0.172774 -0.214267
0.173768 0.172776 -0.185203
0.173867 0.172775 -0.174301
0.17413 0.172771 -0.145231
0.174229 0.17277 -0.13433
0.174494 0.172767 -0.105261
0.174601 0.172767 -0.0943618
0.174886 0.172767 -0.0652961
0.174994 0.172767 -0.0543965
0.17528 0.172767 -0.0253308
0.175386 0.172767 -0.0144311
0.175669 0.172767 0.0146348
0.175777 0.172767 0.0255345
0.176064 0.172768 0.0546005
0.176171 0.172768 0.0655003
0.176467 0.17277 0.0945673
0.176582 0.172771 0.105468
0.17689 0.172776 0.134537
0.177006 0.172777 0.145439
0.177277 0.172775 0.174504
0.177382 0.172775 0.185404
0.177664 0.172774 0.214471
0.17778 0.172776 0.225373
0.178013 0.172767 0.254428
0.178118 0.172767 0.265328
-0.115189 0.127159 -0.241153
0.151466 0.17277 -0.284398
0.151733 0.172768 -0.255928
0.151956 0.17277 -0.234581
0.152253 0.172774 -0.206118
0.152473 0.172776 -0.18477
0.152738 0.172773 -0.1563
0.152932 0.172771 -0.134947
0.15319 0.172768 -0.106477
0.153394 0.172767 -0.0851269
0.153498 0.172767 -0.074452
0.153779 0.172767 -0.0459857
0.153989 0.172767 -0.0246358
0.154266 0.172767 0.0038308
0.154475 0.172767 0.0251807
0.154755 0.172768 0.0536474
0.154966 0.172768 0.0749975
0.155074 0.172769 0.0856728
0.155368 0.172771 0.114141
0.155594 0.172774 0.135494
0.155883 0.172776 0.163963
0.15608 0.172774 0.185312
0.156354 0.172773 0.213779
0.156576 0.172776 0.235133
0.156808 0.172768 0.263589
0.157052 0.172774 0.284949
0.130933 0.172773 -0.295921
0.131119 0.17277 -0.274996
0.13131 0.172767 -0.254074
0.131599 0.17277 -0.226186
0.131817 0.172773 -0.20527
0.131926 0.172774 -0.194812
0.132207 0.172776 -0.166921
0.1324 0.172773 -0.145999
0.13259 0.172771 -0.125078
0.132685 0.17277 -0.114618
0.132942 0.172767 -0.0867245
0.133146 0.172767 -0.0658059
0.133352 0.172767 -0.0448875
0.133627 0.172768 -0.016996
0.133831 0.172768 0.00392263
0.134033 0.172767 0.0248412
0.134136 0.172767 0.0353005
0.134411 0.172768 0.0631921
0.134618 0.172768 0.084111
0.13483 0.17277 0.10503
0.135048 0.172772 0.125951
0.135342 0.172776 0.153846
0.135546 0.172776 0.174766
0.135642 0.172774 0.185225
0.135908 0.172773 0.213116
0.136116 0.172774 0.234036
0.136321 0.172774 0.254956
0.136404 0.172771 0.26541
-0.172996 0.118947 0.204538
0.111304 0.172774 -0.296733
0.111487 0.172771 -0.276222
0.111669 0.172768 -0.255713
0.111872 0.172768 -0.235209
0.111978 0.17277 -0.224958
0.112192 0.172772 -0.204456
0.112476 0.172775 -0.17712
0.112678 0.172775 -0.156614
0.112867 0.172773 -0.136107
0.113053 0.172771 -0.115601
0.11324 0.172768 -0.0950942
0.113334 0.172767 -0.0848415
0.113533 0.172767 -0.064337
0.113802 0.172767 -0.0369979
0.114004 0.172768 -0.0164936
0.114205 0.172768 0.00401081
0.114403 0.172767 0.0245152
0.114603 0.172767 0.0450196
0.114806 0.172768 0.065524
0.115496 0.172772 0.133875
0.115712 0.172775 0.154382
0.115922 0.172776 0.174889
0.116015 0.172775 0.185141
0.116206 0.172773 0.205644
0.116468 0.172772 0.232983
0.116686 0.172775 0.253492
0.116863 0.172771 0.273991
0.0924666 0.172775 -0.294161
0.092706 0.172771 -0.267345
0.0928856 0.172768 -0.247233
0.0930845 0.172768 -0.227128
0.0932934 0.172771 -0.207024
0.0935024 0.172773 -0.18692
0.0937113 0.172775 -0.166815
0.0939071 0.172775 -0.146708
0.094092 0.172773 -0.126599
0.0942752 0.172771 -0.106491
0.0944583 0.172768 -0.086383
0.0946499 0.172767 -0.0662762
0.0948458 0.172767 -0.04617
0.0962256 0.172768 0.094574
0.0964286 0.172769 0.114681
0.096633 0.172771 0.134789
0.0968448 0.172773 0.154898
0.0970566 0.172776 0.175007
0.0972433 0.172774 0.195113
0.09743 0.172773 0.215218
0.0976232 0.172772 0.235324
0.0978313 0.172774 0.255433
0.0982942 0.172769 0.305692
0.0741161 0.172775 -0.314696
0.0743762 0.172775 -0.288398
0.0745232 0.172773 -0.271958
0.0746997 0.17277 -0.252229
0.074914 0.172768 -0.229216
0.0768384 0.172767 -0.0319822
0.0770324 0.172768 -0.012259
0.0772589 0.172768 0.0107515
0.0774506 0.172768 0.0304749
0.0776412 0.172767 0.0501981
0.0778347 0.172768 0.0699214
0.078029 0.172768 0.0896449
0.0782249 0.172768 0.109369
0.0784251 0.17277 0.129093
0.0786272 0.172772 0.148818
0.0788346 0.172774 0.168544
0.0790353 0.172776 0.18827
0.0792164 0.172774 0.207991
0.0794011 0.172772 0.227714
0.0796257 0.172772 0.250725
0.0801 0.172771 0.300032
0.057684 0.172769 -0.205421
0.0578848 0.172771 -0.186069
0.0580856 0.172774 -0.166716
0.058282 0.172775 -0.147362
0.0584076 0.172775 -0.134459
0.0586781 0.172772 -0.105424
0.0588549 0.17277 -0.0860673
0.0590317 0.172768 -0.0667114
0.0592202 0.172768 -0.0473567
0.0593458 0.172767 -0.0344536
0.059631 0.172768 -0.00542172
0.0598215 0.172768 0.0139329
0.0600103 0.172768 0.0332876
0.0601972 0.172768 0.0526422
0.0603222 0.172767 0.0655452
0.0606084 0.172768 0.0945774
0.0608 0.172768 0.113932
0.0609963 0.17277 0.133288
0.0611926 0.172771 0.152644
0.0613281 0.172773 0.165549
0.0616264 0.172776 0.194585
0.0618042 0.172773 0.213938
0.0619844 0.172772 0.233291
0.0621704 0.172771 0.252645
-0.14871 0.133089 0.228845
0.0626197 0.172773 0.297809
0.0397268 0.172771 -0.321833
0.0399632 0.172774 -0.299673
0.0401871 0.172776 -0.277508
0.0403293 0.172773 -0.261671
0.0405282 0.17277 -0.239499
0.0407038 0.172768 -0.220497
0.0408925 0.172769 -0.201498
0.0411223 0.172771 -0.179335
0.0413191 0.172773 -0.160337
0.0415117 0.172775 -0.141338
0.0416967 0.172775 -0.122337
0.0419025 0.172773 -0.100169
0.0420764 0.17277 -0.081168
0.0422502 0.172768 -0.0621672
0.0424651 0.172768 -0.040001
0.0426502 0.172768 -0.0210015
0.0428371 0.172768 -0.00200196
0.0430551 0.172768 0.0201641
0.0432404 0.172768 0.0391637
0.043424 0.172768 0.0581631
0.0436398 0.172768 0.0803292
0.043827 0.172768 0.0993288
0.0440145 0.172768 0.118329
0.0442392 0.17277 0.140496
0.0444318 0.172771 0.159497
0.0446305 0.172774 0.178499
0.0448273 0.172776 0.197502
0.0234623 0.172769 -0.325208
0.0236609 0.172772 -0.306557
-0.144595 0.139742 -0.228743
0.0240164 0.172776 -0.272358
0.0242122 0.172773 -0.250585
0.02438 0.17277 -0.231923
0.0245843 0.172768 -0.210154
0.0247705 0.172769 -0.191498
0.0249959 0.172772 -0.169734
0.0288054 0.172774 0.218969
0.0289773 0.172772 0.237624
0.0294735 0.172774 0.287381
0.0297458 0.172774 0.315367
0.00813091 0.172773 -0.294875
0.00953495 0.172773 -0.15131
0.00975198 0.172774 -0.129929
0.00993049 0.172774 -0.111601
0.0101328 0.172773 -0.090218
0.0103009 0.172771 -0.0718894
0.0104969 0.172768 -0.0505067
0.0106747 0.172768 -0.0321796
0.0108829 0.172768 -0.0107981
0.0110626 0.172768 0.0075289
0.0112727 0.172768 0.0289104
0.0114816 0.172768 0.050292
0.0116588 0.172768 0.0686188
0.0118657 0.172767 0.0900001
0.0120463 0.172768 0.108327
0.0122572 0.172768 0.129709
0.0124428 0.172769 0.148037
0.0126591 0.172771 0.16942
0.0128481 0.172773 0.187749
0.0130693 0.172775 0.209134
0.0132665 0.172773 0.230514
0.0134355 0.172771 0.248839
0.0137674 0.172772 0.28244
0.0139285 0.172774 0.297717
0.0141395 0.172775 0.3191
-0.00726843 0.172767 -0.322607
-0.00708193 0.17277 -0.304603
-0.00667286 0.172775 -0.265593
-0.00647509 0.172774 -0.244581
-0.00620437 0.172769 -0.21456
-0.00591362 0.172769 -0.184545
-0.00560528 0.172772 -0.154534
-0.00529927 0.172774 -0.124522
-0.00500697 0.172774 -0.0945069
-0.0193835 0.172772 -0.0720961
-0.0191936 0.17277 -0.0514442
-0.0189997 0.172768 -0.0307931
-0.0187986 0.172768 -0.0101426
-0.0186263 0.172768 0.00755788
-0.0184234 0.172768 0.0282084
-0.0182203 0.172769 0.048859
-0.0180202 0.172768 0.0695095
-0.0178204 0.172768 0.0901598
-0.0176486 0.172768 0.10786
-0.0174452 0.172768 0.128511
-0.0172393 0.172769 0.149162
-0.0170304 0.17277 0.169814
-0.0168515 0.172771 0.187516
-0.0166377 0.172774 0.20817
-0.0164353 0.172774 0.228821
-0.179757 0.139189 0.20023
-0.0159963 0.17277 0.276017
-0.0157222 0.172773 0.302573
-0.0155048 0.172776 0.32323
-0.0359305 0.172767 -0.320182
-0.0357267 0.172768 -0.29988
-0.0355424 0.172771 -0.282483
-0.120626 0.154873 -0.247151
-0.0352991 0.172774 -0.259284
-0.035126 0.172775 -0.241881
-0.0349423 0.172772 -0.221573
-0.0347587 0.172769 -0.201265
-0.0345609 0.172769 -0.180961
-0.0343587 0.17277 -0.160658
-0.0341493 0.172772 -0.140357
-0.0339405 0.172774 -0.120055
-0.0337428 0.172774 -0.0997503
-0.0485087 0.172772 -0.214919
-0.0483279 0.172769 -0.194947
-0.0481322 0.172769 -0.174979
-0.047846 0.172771 -0.146455
-0.0476403 0.172773 -0.126489
-0.0474398 0.172774 -0.106521
-0.0472454 0.172774 -0.0865524
-0.0470531 0.172773 -0.0665836
-0.0468693 0.172771 -0.0466144
-0.0466844 0.172769 -0.0266458
-0.0464899 0.172768 -0.00667787
-0.0462955 0.172768 0.01329
-0.0461002 0.172768 0.0332579
-0.0459039 0.172769 0.0532259
-0.0457094 0.172769 0.0731937
-0.0455162 0.172768 0.0931614
-0.045323 0.172768 0.113129
-0.0451273 0.172768 0.133097
-0.0449297 0.172768 0.153065
-0.044728 0.17277 0.173035
-0.0445265 0.172771 0.193004
-0.044323 0.172773 0.212974
-0.0441209 0.172774 0.232945
-0.159203 0.148274 0.225581
-0.0437776 0.17277 0.270023
-0.0435902 0.172769 0.289989
-0.0433821 0.172772 0.309961
-0.0627283 0.172766 -0.317914
-0.0625545 0.172768 -0.301081
-0.0623596 0.172769 -0.281439
-0.0620354 0.172774 -0.250578
-0.0618396 0.172775 -0.230935
-0.0581688 0.172768 0.147906
-0.057972 0.172769 0.16755
-0.0577455 0.172771 0.190001
-0.0575472 0.172772 0.209646
-0.0573442 0.172774 0.229293
-0.0570025 0.172771 0.26577
-0.0567409 0.172768 0.293828
-0.0566255 0.17277 0.305054
-0.0754697 0.172766 -0.315454
-0.0752705 0.172768 -0.29613
-0.0750807 0.172769 -0.276801
-0.140564 0.158273 -0.237697
-0.0744141 0.172773 -0.210536
-0.0742386 0.17277 -0.191203
-0.0740535 0.172769 -0.171873
-0.0738367 0.172769 -0.149783
-0.0736397 0.172771 -0.130456
-0.0734408 0.172773 -0.111128
-0.0732501 0.172774 -0.0917987
-0.0730618 0.172774 -0.0724691
-0.0728503 0.172773 -0.0503779
-0.0726719 0.17277 -0.031048
-0.0724898 0.172769 -0.0117187
-0.0723014 0.172769 0.00761026
-0.0720864 0.172769 0.0297005
-0.0718971 0.172769 0.0490294
-0.0717071 0.172769 0.0683584
-0.0715196 0.172769 0.0876873
-0.0713058 0.172768 0.109777
-0.0711187 0.172768 0.129106
-0.0871148 0.172773 -0.245139
-0.0869249 0.172774 -0.226115
-0.0867427 0.172773 -0.207089
-0.086545 0.17277 -0.185342
-0.0863619 0.172769 -0.166317
-0.086175 0.172769 -0.147293
-0.0859552 0.172771 -0.125551
-0.0857596 0.172773 -0.106528
-0.0855455 0.172774 -0.0847853
-0.0852543 0.172773 -0.0548886
-0.0832337 0.172768 0.154383
-0.0830439 0.172769 0.173408
-0.0828246 0.17277 0.195152
-0.0825233 0.172772 0.225051
-0.0821777 0.172773 0.260383
-0.0820011 0.17277 0.279404
-0.0818245 0.172768 0.298426
-0.0997316 0.172768 -0.308092
-0.0995745 0.172768 -0.292039
-0.0993646 0.172768 -0.270634
-0.096998 0.172771 -0.0298258
-0.0968248 0.172769 -0.0110956
-0.0966428 0.172769 0.00763401
-0.0964342 0.172769 0.0290393
-0.0962518 0.172769 0.0477689
-0.0960416 0.172769 0.0691742
-0.0958588 0.172769 0.0879038
-0.0956514 0.172768 0.109309
-0.0954701 0.172768 0.128038
-0.0952622 0.172768 0.149443
-0.0950776 0.172768 0.168173
-0.110664 0.172772 -0.240031
-0.110478 0.172773 -0.221589
-0.11027 0.172774 -0.20051
-0.110102 0.172771 -0.182063
-0.109903 0.172769 -0.160983
-0.109696 0.172769 -0.139905
-0.109512 0.17277 -0.121461
-0.109296 0.172773 -0.100384
-0.109113 0.172773 -0.0819406
-0.108907 0.172773 -0.0608615
-0.106478 0.172769 0.189448
-0.106293 0.172771 0.207893
-0.10584 0.172774 0.25269
-0.105644 0.172772 0.273766
-0.105448 0.172769 0.294841
-0.122511 0.172769 -0.298577
-0.122337 0.172769 -0.280409
-0.12216 0.172768 -0.262243
-0.119935 0.172773 -0.0364629
-0.119741 0.172771 -0.0157007
-0.119545 0.172769 0.00506115
-0.119267 0.172769 0.0336082
-0.119065 0.172769 0.0543698
-0.118887 0.172769 0.0725361
-0.118684 0.172769 0.0932977
-0.118483 0.172769 0.114059
-0.118282 0.172768 0.13482
-0.118106 0.172768 0.152986
-0.117902 0.172768 0.173748
-0.132635 0.172772 -0.217331
-0.132432 0.172773 -0.196878
-0.132241 0.172771 -0.176421
-0.132049 0.172769 -0.155965
-0.131848 0.17277 -0.135511
-0.131647 0.17277 -0.115057
-0.131463 0.172772 -0.0971613
-0.131258 0.172773 -0.0767076
-0.131059 0.172773 -0.0562531
-0.128627 0.172769 0.194309
-0.128422 0.172771 0.214765
-0.128087 0.172773 0.248006
-0.127887 0.172773 0.268461
-0.127696 0.172771 0.288912
-0.143981 0.172772 -0.292138
-0.143795 0.172769 -0.271978
-0.157917 0.169268 -0.23174
-0.141515 0.172773 -0.0401927
-0.141319 0.172773 -0.0200368
-0.141156 0.17277 -0.0024004
-0.140963 0.172769 0.017755
-0.140767 0.172769 0.0379104
-0.14057 0.172769 0.0580658
-0.140374 0.172769 0.0782211
-0.140176 0.172769 0.0983766
-0.139981 0.172769 0.118532
-0.139785 0.172768 0.138687
-0.13959 0.172768 0.158842
-0.180781 0.162703 0.214136
-0.153492 0.172772 -0.210835
-0.153295 0.172773 -0.19097
-0.153105 0.172772 -0.171104
-0.15292 0.17277 -0.151236
-0.152725 0.17277 -0.131371
-0.15253 0.17277 -0.111505
-0.152329 0.172772 -0.0916408
-0.152129 0.172773 -0.0717759
-0.149699 0.172768 0.179025
-0.149502 0.172769 0.198891
-0.168584 0.168031 0.227477
-0.149052 0.172772 0.243593
-0.148852 0.172774 0.263461
-0.148664 0.172772 0.283324
-0.162604 0.173168 -0.281829
-0.164012 0.172769 -0.261578
-0.161942 0.172773 -0.0510549
-0.161751 0.172773 -0.0314708
-0.16156 0.172773 -0.0118868
-0.161378 0.17277 0.00769719
-0.161166 0.17277 0.0297288
-0.160975 0.172769 0.0493124
-0.160784 0.172769 0.068896
-0.160593 0.172769 0.0884795
-0.160401 0.172769 0.108063
-0.160211 0.172769 0.127647
-0.159998 0.172768 0.149678
-0.173254 0.172771 -0.211944
-0.173039 0.172772 -0.190221
-0.172847 0.172773 -0.170912
-0.17267 0.17277 -0.151599
-0.172174 0.17277 -0.100911
-0.171979 0.172772 -0.081602
-0.16954 0.172768 0.169424
-0.169352 0.172768 0.188734
-0.168698 0.172772 0.25391
-0.168505 0.172774 0.273222
-0.18325 0.172771 -0.266035
-0.183069 0.172769 -0.246989
-0.182864 0.172768 -0.225564
-0.181928 0.17277 -0.130349
-0.181242 0.172773 -0.0613177
-0.181056 0.172773 -0.0422739
-0.180848 0.172773 -0.0208497
-0.180662 0.172772 -0.00180593
-0.180463 0.17277 0.0196181
-0.180277 0.17277 0.0386615
-0.180092 0.17277 0.0577048
-0.179883 0.172769 0.0791286
-0.179697 0.172769 0.098172
-0.179488 0.172769 0.119596
-0.179303 0.172769 0.138639
-0.191684 0.172771 -0.187164
-0.191474 0.172772 -0.166033
-0.191298 0.17277 -0.147246
-0.19091 0.17277 -0.107329
-0.190702 0.17277 -0.086197
-0.188277 0.172769 0.162695
-0.188072 0.172768 0.183826
-0.187582 0.17277 0.233138
-0.196092 0.174149 -0.258463
-0.201192 0.17277 -0.242451
-0.200992 0.172769 -0.221601
-0.200105 0.17277 -0.131258
-0.19951 0.172772 -0.0710289
-0.199325 0.172773 -0.052497
-0.199122 0.172772 -0.0316479
-0.198919 0.172772 -0.0107988
-0.198738 0.172772 0.00773365
-0.198543 0.17277 0.0285824
-0.19834 0.17277 0.0494311
-0.198159 0.17277 0.0679633
-0.197956 0.17277 0.0888119
-0.197752 0.17277 0.109661
-0.197572 0.172769 0.128193
-0.196342 0.172772 0.253288
-0.117291 0.193381 0.303245
-0.209501 0.17277 -0.20027
-0.20932 0.172771 -0.181984
-0.209115 0.172772 -0.161412
-0.208631 0.17277 -0.111122
-0.208429 0.17277 -0.0905493
-0.206088 0.172769 0.149464
-0.205911 0.172769 0.16775
-0.205712 0.172768 0.188322
-0.205511 0.172768 0.208894
-0.205305 0.17277 0.229469
-0.218411 0.17277 -0.242662
-0.218151 0.172769 -0.215589
-0.215957 0.172772 0.00775045
-0.215764 0.172771 0.0280542
-0.215568 0.17277 0.0483578
-0.21537 0.17277 0.0686614
-0.215172 0.17277 0.088965
-0.153694 0.19281 -0.288047
-0.225735 0.172772 -0.145896
-0.225546 0.17277 -0.125853
-0.225349 0.17277 -0.105811
-0.225153 0.17277 -0.0857696
-0.224956 0.172771 -0.065728
-0.224754 0.172772 -0.0456867
-0.224559 0.172772 -0.0256447
-0.224363 0.172772 -0.00560276
-0.223198 0.17277 0.114647
-0.223002 0.17277 0.134689
-0.234351 0.172769 -0.201088
-0.234153 0.17277 -0.181304
-0.230485 0.172768 0.194636
-0.230293 0.172768 0.214422
-0.225553 0.174026 0.233639
-0.150969 0.194497 0.287361
-0.240351 0.172772 -0.0117637
-0.240161 0.172772 0.00777408
-0.239949 0.172772 0.0294826
-0.239764 0.17277 0.04902
-0.239573 0.17277 0.0685574
-0.239383 0.17277 0.0880949
-0.239192 0.17277 0.107632
-0.238981 0.17277 0.129341
-0.238791 0.17277 0.148878
-0.238601 0.172769 0.168415
-0.179763 0.192834 -0.269857
-0.249286 0.172953 -0.206833
-0.249744 0.172769 -0.187309
-0.249531 0.17277 -0.165872
-0.249339 0.172771 -0.146578
-0.249151 0.172771 -0.127283
-0.248944 0.17277 -0.105844
-0.248754 0.172771 -0.0865488
-0.248565 0.172771 -0.0672541
-0.248351 0.172772 -0.0458157
-0.248162 0.172772 -0.0265207
-0.253497 0.172769 0.194133
-0.182307 0.192985 0.270272
-0.262747 0.172772 -0.00684743
-0.262543 0.172772 0.0140717
-0.26236 0.172772 0.0328989
-0.203964 0.192856 -0.25297
-0.269287 0.172771 0.0532736
-0.269085 0.17277 0.073942
-0.268904 0.17277 0.0925436
-0.268703 0.17277 0.113212
-0.268501 0.17277 0.13388
-0.2683 0.17277 0.154549
-0.26812 0.172769 0.17315
-0.197362 0.193331 0.257518
-0.274047 0.174094 -0.177418
-0.278285 0.172769 -0.15558
-0.278103 0.17277 -0.1372
-0.277901 0.172771 -0.116776
-0.277703 0.172771 -0.0963521
-0.277503 0.172771 -0.0759283
-0.277303 0.172771 -0.0555045
-0.277121 0.172772 -0.0371231
-0.27692 0.172772 -0.0166991
-0.276721 0.172772 0.00372492
-0.219158 0.19287 -0.242368
-0.283316 0.172772 0.0239644
-0.247879 0.182891 0.210773
-0.289078 0.17277 0.113566
-0.288884 0.17277 0.133518
-0.221022 0.19313 0.237476
-0.297906 0.17277 -0.126291
-0.29771 0.172771 -0.106568
-0.297518 0.172771 -0.0868444
-0.297364 0.172771 -0.0710655
-0.29717 0.172771 -0.0513419
-0.296977 0.172771 -0.0316183
-0.296783 0.172772 -0.0118946
-0.29659 0.172772 0.00782914
-0.296398 0.172771 0.0275529
-0.296187 0.172771 0.0492489
-0.295996 0.172771 0.0689725
-0.295803 0.172771 0.0886961
-0.238778 0.193453 -0.219316
-0.254406 0.192787 -0.20075
-0.315016 0.173085 -0.0762137
-0.315814 0.172771 -0.0569903
-0.315608 0.172771 -0.0360135
-0.315421 0.172772 -0.0169436
-0.315216 0.172771 0.00403332
-0.315031 0.172771 0.0231032
-0.320157 0.172934 0.0531628
-0.289057 0.182645 0.151387
-0.262854 0.193055 0.189176
-0.269259 0.194231 -0.183106
-0.277119 0.19255 0.168603
-0.284401 0.193205 -0.155875
-0.318876 0.182769 0.0683925
-0.293043 0.194222 -0.137434
-0.302453 0.192882 -0.117354
-0.301033 0.192573 0.119151
-0.306265 0.192745 0.104591
-0.311468 0.193535 -0.0960324
-0.315016 0.194123 -0.0762137
-0.318515 0.192805 -0.0566643
-0.321966 0.19339 -0.0373787
-0.323967 0.192509 0.00785586
-0.322227 0.193064 0.0285508
-0.320476 0.193622 0.0493654
-0.32571 0.193838 -0.0164629
