ply
format ascii 1.0
comment Created by Open3D
element vertex 921
property double x
property double y
property double z
end_header
-0.0501952 -0.446886 -0.220874
-0.0570441 -0.446386 -0.201809
-0.0570365 -0.433533 -0.209759
-0.0570594 -0.436497 -0.181798
-0.0570543 -0.4236 -0.189826
-0.0570709 -0.42164 -0.169698
-0.0570365 -0.413555 -0.209759
0.0348936 -0.440826 -0.215772
-0.057086 -0.415606 -0.149371
-0.0132732 -0.419479 -0.220904
-0.0510503 -0.446813 0.184367
-0.0571505 -0.445864 0.195883
-0.0570533 -0.403525 -0.189826
-0.0571043 -0.409512 -0.128844
-0.0570699 -0.401466 -0.169698
-0.0571182 -0.407048 -0.112276
-0.0571357 -0.409079 -0.0913792
-0.0570364 -0.393576 -0.209759
-0.0571535 -0.406999 -0.0702729
-0.0571712 -0.40905 -0.0489538
0.0406704 -0.445465 -0.00938445
-0.057555 -0.433925 0.210119
0.0475329 -0.423209 -0.218719
-0.0570871 -0.395332 -0.149372
-0.0571859 -0.406537 -0.0317433
-0.0572039 -0.408605 -0.0100329
-0.0561106 -0.426403 0.172504
0.0324099 -0.413785 -0.220278
-0.0132912 -0.398809 -0.220906
-0.0571114 -0.393992 -0.120577
-0.0572224 -0.406481 0.0118993
-0.0572371 -0.408151 0.0296073
0.0160402 -0.44678 0.185215
-0.0567346 -0.423149 0.186506
-0.0570599 -0.384198 -0.181798
-0.0571287 -0.391851 -0.0997629
-0.0571463 -0.393813 -0.0787408
-0.0572561 -0.406006 0.0519478
-0.0572711 -0.407689 0.0699868
-0.0572864 -0.409386 0.0881762
-0.051668 -0.41618 0.141398
-0.0570769 -0.38204 -0.161591
-0.0570939 -0.383924 -0.141185
-0.0571606 -0.391256 -0.061771
-0.0571859 -0.394028 -0.0317433
-0.0573056 -0.407218 0.111127
-0.0554948 -0.41219 0.158575
-0.0570364 -0.373598 -0.209759
-0.0572039 -0.391841 -0.0100329
-0.0572224 -0.393845 0.0118993
0.0259939 -0.394566 -0.22094
-0.0132912 -0.382278 -0.220906
-0.0572371 -0.391233 0.0296073
-0.0572561 -0.393251 0.0519478
-0.0573211 -0.400274 0.129661
-0.0573646 -0.404953 0.181442
-0.0571114 -0.373578 -0.120577
-0.0572711 -0.390613 0.0699868
-0.0572864 -0.392239 0.0881762
-0.0573056 -0.39429 0.111127
-0.0573887 -0.403146 0.2102
-0.0570599 -0.364083 -0.181798
-0.0571287 -0.371336 -0.0997629
-0.0571535 -0.373943 -0.0702729
-0.0573368 -0.393272 0.148351
-0.0570769 -0.361826 -0.161591
-0.0570939 -0.363611 -0.141185
-0.0571712 -0.371675 -0.0489538
-0.0570364 -0.353619 -0.209759
-0.0571966 -0.370134 -0.0187435
-0.0572112 -0.371643 -0.00128686
-0.0572298 -0.373547 0.0207351
0.0259939 -0.373238 -0.22094
-0.0132912 -0.361614 -0.220906
-0.0572448 -0.370846 0.0385158
-0.0573211 -0.378638 0.129661
-0.0573725 -0.38388 0.190987
-0.0571182 -0.353866 -0.112276
-0.0572711 -0.369268 0.0699868
-0.0572864 -0.370805 0.0881762
-0.0570599 -0.343968 -0.181798
-0.0571357 -0.35152 -0.0913792
-0.0573448 -0.37233 0.157756
-0.0573887 -0.37671 0.2102
-0.0570769 -0.341613 -0.161591
-0.0571606 -0.349853 -0.061771
-0.0571785 -0.35162 -0.0403659
-0.0573056 -0.364126 0.111127
-0.0570364 -0.333641 -0.209759
-0.0571043 -0.340241 -0.128844
-0.0571966 -0.349223 -0.0187435
-0.0572112 -0.350647 -0.00128686
-0.0572561 -0.354989 0.0519478
-0.0573211 -0.361329 0.129661
-0.0132912 -0.34095 -0.220906
-0.0572371 -0.348937 0.0296073
-0.0572711 -0.352192 0.0699868
-0.0573887 -0.363493 0.2102
-0.0571182 -0.333411 -0.112276
-0.0572864 -0.349371 0.0881762
-0.0573368 -0.354162 0.148351
-0.0573646 -0.356797 0.181442
0.0259939 -0.343379 -0.22094
-0.0570599 -0.323852 -0.181798
-0.0571357 -0.330963 -0.0913792
-0.0570769 -0.321399 -0.161591
-0.0571606 -0.329152 -0.061771
-0.0571785 -0.330814 -0.0403659
-0.0571966 -0.332493 -0.0187435
-0.0572224 -0.334873 0.0118993
-0.0570364 -0.313662 -0.209759
-0.0571043 -0.319867 -0.128844
-0.0572371 -0.332019 0.0296073
-0.0572561 -0.333732 0.0519478
-0.0573134 -0.33898 0.120374
-0.0573646 -0.343663 0.181442
-0.0132912 -0.320287 -0.220906
-0.0572711 -0.330847 0.0699868
-0.0572864 -0.332224 0.0881762
-0.0573807 -0.336337 0.200573
-0.0570599 -0.303737 -0.181798
-0.0571287 -0.309788 -0.0997629
-0.0571859 -0.314805 -0.0317433
-0.0573288 -0.327398 0.138987
-0.0573448 -0.328782 0.157756
-0.0573968 -0.333364 0.219868
-0.0570769 -0.301185 -0.161591
-0.0571114 -0.30417 -0.120577
-0.0571463 -0.307215 -0.0787408
-0.0571606 -0.30845 -0.061771
-0.0572039 -0.312216 -0.0100329
-0.0572224 -0.313812 0.0118993
-0.0573134 -0.321707 0.120374
0.0259939 -0.31352 -0.22094
-0.0570364 -0.293684 -0.209759
-0.0572371 -0.310871 0.0296073
-0.0573807 -0.323147 0.200573
-0.0132912 -0.299623 -0.220906
-0.0570939 -0.294545 -0.141185
-0.0572711 -0.309502 0.0699868
-0.0572864 -0.31079 0.0881762
-0.0573288 -0.314389 0.138987
-0.0573646 -0.317396 0.181442
-0.0571463 -0.294844 -0.0787408
-0.0572561 -0.303973 0.0519478
-0.0573448 -0.311364 0.157756
-0.0570599 -0.283622 -0.181798
-0.0571287 -0.289272 -0.0997629
-0.0571606 -0.291889 -0.061771
-0.0571859 -0.293957 -0.0317433
-0.0573056 -0.303797 0.111127
-0.0570769 -0.280971 -0.161591
-0.0571114 -0.283756 -0.120577
-0.0572039 -0.291262 -0.0100329
-0.0572298 -0.293351 0.0207351
-0.0573646 -0.304262 0.181442
-0.0573968 -0.306871 0.219868
-0.0570364 -0.273705 -0.209759
-0.0572711 -0.292426 0.0699868
-0.0132912 -0.278959 -0.220906
-0.0570939 -0.274231 -0.141185
-0.0572864 -0.289356 0.0881762
-0.0573211 -0.292092 0.129661
-0.0573368 -0.293324 0.148351
-0.0573807 -0.296768 0.200573
0.0259939 -0.283661 -0.22094
-0.0571463 -0.274226 -0.0787408
-0.0572448 -0.281843 0.0385158
-0.0573968 -0.293625 0.219868
-0.0570599 -0.263507 -0.181798
-0.0571287 -0.268757 -0.0997629
-0.0571606 -0.271188 -0.061771
-0.0570769 -0.260758 -0.161591
-0.0571785 -0.268396 -0.0403659
-0.0571966 -0.269759 -0.0187435
-0.0572112 -0.270859 -0.00128686
-0.0572634 -0.27478 0.0609487
-0.0573807 -0.283578 0.200573
-0.0132912 -0.262429 -0.220906
-0.0570364 -0.253727 -0.209759
-0.0572788 -0.271644 0.0790626
-0.0573056 -0.273633 0.111127
-0.0573566 -0.277405 0.171938
-0.0570939 -0.253918 -0.141185
-0.0571114 -0.255176 -0.120577
-0.0572298 -0.263805 0.0207351
-0.0573211 -0.270455 0.129661
-0.0571287 -0.252344 -0.0997629
-0.0571463 -0.253607 -0.0787408
-0.0572448 -0.260652 0.0385158
-0.0573368 -0.267251 0.148351
-0.0571606 -0.250486 -0.061771
-0.0571785 -0.251752 -0.0403659
-0.0573566 -0.2643 0.171938
-0.0573968 -0.267133 0.219868
0.0259939 -0.253802 -0.22094
-0.0570699 -0.240073 -0.169698
-0.0571966 -0.248847 -0.0187435
-0.0572112 -0.249862 -0.00128686
-0.0572634 -0.25348 0.0609487
-0.0132912 -0.241765 -0.220906
-0.0570364 -0.233748 -0.209759
-0.0570533 -0.234887 -0.189826
-0.0572788 -0.250255 0.0790626
-0.0573288 -0.253679 0.138987
-0.0573725 -0.256651 0.190987
-0.0570939 -0.233605 -0.141185
-0.0571114 -0.234762 -0.120577
-0.0572977 -0.247261 0.101918
-0.0573134 -0.248297 0.120374
-0.0573887 -0.253343 0.2102
-0.0571287 -0.231828 -0.0997629
-0.0571535 -0.233456 -0.0702729
-0.0572371 -0.238969 0.0296073
-0.0571712 -0.23048 -0.0489538
-0.0571966 -0.232118 -0.0187435
-0.0572224 -0.233779 0.0118993
-0.0573448 -0.241688 0.157756
-0.0573725 -0.24349 0.190987
-0.0570699 -0.219898 -0.169698
-0.0572977 -0.23436 0.101918
-0.0132912 -0.221101 -0.220906
-0.0570364 -0.21377 -0.209759
-0.0570533 -0.214812 -0.189826
-0.0572561 -0.227448 0.0519478
-0.0572711 -0.228391 0.0699868
-0.0573134 -0.231025 0.120374
0.0259939 -0.223943 -0.22094
-0.0571114 -0.214348 -0.120577
-0.0572371 -0.222051 0.0296073
-0.0571287 -0.211312 -0.0997629
-0.0571859 -0.214735 -0.0317433
-0.0573288 -0.223325 0.138987
-0.0573566 -0.224982 0.171938
-0.0573887 -0.226907 0.2102
-0.0570871 -0.204762 -0.149372
-0.0571606 -0.209084 -0.061771
-0.0572039 -0.211636 -0.0100329
-0.0572561 -0.214694 0.0519478
-0.0570699 -0.199724 -0.169698
-0.0571463 -0.204123 -0.0787408
-0.0572711 -0.211315 0.0699868
-0.0572864 -0.212195 0.0881762
-0.0573056 -0.213304 0.111127
-0.0573725 -0.217166 0.190987
-0.0132912 -0.200438 -0.220906
-0.0570364 -0.193791 -0.209759
-0.0570533 -0.194736 -0.189826
-0.0572224 -0.204294 0.0118993
-0.0573887 -0.21369 0.2102
-0.0571114 -0.193934 -0.120577
-0.0572371 -0.200903 0.0296073
-0.0571287 -0.190797 -0.0997629
-0.0571859 -0.193887 -0.0317433
-0.0573211 -0.201219 0.129661
-0.0573448 -0.202495 0.157756
-0.0573646 -0.203571 0.181442
0.0259939 -0.194084 -0.22094
-0.0570871 -0.184488 -0.149372
-0.0571606 -0.188382 -0.061771
-0.0572039 -0.190682 -0.0100329
-0.0572561 -0.193437 0.0519478
-0.0570699 -0.17955 -0.169698
-0.0571463 -0.183504 -0.0787408
-0.0572711 -0.18997 0.0699868
-0.0572864 -0.190761 0.0881762
-0.0132912 -0.179774 -0.220906
-0.0570364 -0.173813 -0.209759
-0.0570533 -0.17466 -0.189826
-0.0572298 -0.183608 0.0207351
-0.0573056 -0.187449 0.111127
-0.0571114 -0.17352 -0.120577
-0.0573288 -0.184297 0.138987
-0.0573807 -0.186854 0.200573
-0.0571287 -0.170281 -0.0997629
-0.0571606 -0.171821 -0.061771
-0.0573448 -0.180721 0.157756
-0.0573968 -0.18324 0.219868
-0.0570871 -0.164215 -0.149372
-0.0571785 -0.168528 -0.0403659
-0.0571966 -0.169383 -0.0187435
-0.0572112 -0.170074 -0.00128686
-0.0572448 -0.171649 0.0385158
-0.0572977 -0.174157 0.101918
-0.0573646 -0.177304 0.181442
-0.0570699 -0.159376 -0.169698
-0.0572711 -0.168625 0.0699868
-0.0573134 -0.17057 0.120374
-0.0573807 -0.173664 0.200573
0.0259939 -0.164225 -0.22094
-0.0132912 -0.15911 -0.220906
-0.0502036 -0.154305 -0.220875
-0.057043 -0.154133 -0.201809
-0.0571182 -0.15341 -0.112276
-0.0571463 -0.154638 -0.0787408
-0.0573566 -0.163822 0.171938
-0.0571043 -0.148728 -0.128844
-0.0571606 -0.15112 -0.061771
-0.0571785 -0.151883 -0.0403659
-0.0572224 -0.153747 0.0118993
-0.0570871 -0.143942 -0.149372
-0.0571966 -0.148472 -0.0187435
-0.0572371 -0.150149 0.0296073
-0.0572711 -0.151549 0.0699868
-0.0572864 -0.15218 0.0881762
-0.0573288 -0.153942 0.138987
-0.0573968 -0.156747 0.219868
-0.0570699 -0.139202 -0.169698
-0.0572561 -0.146672 0.0519478
-0.0573134 -0.148978 0.120374
-0.0132912 -0.138447 -0.220906
-0.0502036 -0.134265 -0.220875
-0.057043 -0.134116 -0.201809
-0.0573725 -0.146971 0.190987
-0.0571043 -0.132429 -0.128844
-0.0571463 -0.13402 -0.0787408
-0.0573448 -0.141529 0.157756
-0.0573887 -0.143194 0.2102
0.0259939 -0.134366 -0.22094
-0.0571287 -0.129249 -0.0997629
-0.0571606 -0.130419 -0.061771
-0.0571785 -0.131077 -0.0403659
-0.0571966 -0.131743 -0.0187435
-0.0572112 -0.13228 -0.00128686
-0.0572561 -0.133918 0.0519478
-0.0570871 -0.123668 -0.149372
-0.0572371 -0.129001 0.0296073
-0.0572711 -0.130204 0.0699868
-0.0572864 -0.130746 0.0881762
-0.0573134 -0.131706 0.120374
-0.0573646 -0.133525 0.181442
-0.0132912 -0.121916 -0.220906
-0.0570699 -0.119028 -0.169698
-0.0502036 -0.114226 -0.220875
-0.057043 -0.114099 -0.201809
-0.0573288 -0.123587 0.138987
-0.0571043 -0.112055 -0.128844
-0.0571463 -0.113402 -0.0787408
-0.0571859 -0.114664 -0.0317433
-0.0573448 -0.119755 0.157756
-0.0571287 -0.108734 -0.0997629
-0.0571606 -0.109717 -0.061771
-0.0572039 -0.111057 -0.0100329
-0.0572371 -0.112083 0.0296073
-0.0572977 -0.113955 0.101918
-0.0573807 -0.116509 0.200573
-0.0573968 -0.117008 0.219868
-0.0572224 -0.107412 0.0118993
-0.0572711 -0.108859 0.0699868
-0.0573134 -0.110114 0.120374
0.0259939 -0.104507 -0.22094
-0.0132912 -0.101252 -0.220906
-0.0570699 -0.0988534 -0.169698
-0.0572561 -0.104158 0.0519478
-0.0573646 -0.107258 0.181442
-0.0502036 -0.094186 -0.220875
-0.057043 -0.0940814 -0.201809
-0.0570871 -0.0952852 -0.149372
-0.0573448 -0.102336 0.157756
-0.0573807 -0.103319 0.200573
-0.0573968 -0.103762 0.219868
-0.0571043 -0.0916817 -0.128844
-0.0571287 -0.092321 -0.0997629
-0.0571859 -0.0938161 -0.0317433
-0.0572224 -0.0947754 0.0118993
-0.0571606 -0.0890158 -0.061771
-0.0572039 -0.0901026 -0.0100329
-0.0572371 -0.0909352 0.0296073
-0.0572711 -0.0917833 0.0699868
-0.0572864 -0.0921653 0.0881762
-0.0573288 -0.0932326 0.138987
-0.0573646 -0.0941243 0.181442
-0.0571463 -0.0845357 -0.0787408
-0.0573134 -0.0885234 0.120374
-0.0132912 -0.0805883 -0.220906
-0.0570699 -0.0786793 -0.169698
-0.0502036 -0.0741465 -0.220875
-0.057043 -0.0740641 -0.201809
-0.0570871 -0.0750118 -0.149372
-0.0573448 -0.0805626 0.157756
0.0259939 -0.0746475 -0.22094
-0.0571043 -0.071308 -0.128844
-0.0571287 -0.0718052 -0.0997629
-0.0571606 -0.0724547 -0.061771
-0.0572224 -0.0737142 0.0118993
-0.0572561 -0.0743989 0.0519478
-0.0573807 -0.0769399 0.200573
-0.0573968 -0.0772697 0.219868
-0.0571785 -0.0686595 -0.0403659
-0.0571966 -0.069008 -0.0187435
-0.0572371 -0.0697874 0.0296073
-0.0572711 -0.0704383 0.0699868
-0.0572864 -0.0707315 0.0881762
-0.0573134 -0.0712505 0.120374
-0.0571463 -0.0639172 -0.0787408
-0.0573288 -0.0672142 0.138987
-0.0132912 -0.0599246 -0.220906
-0.0570699 -0.0585051 -0.169698
-0.0573566 -0.0633445 0.171938
-0.0573725 -0.0636144 0.190987
-0.0573887 -0.0638866 0.2102
-0.0502036 -0.0541069 -0.220875
-0.057043 -0.0540468 -0.201809
-0.0570871 -0.0547383 -0.149372
0.0259939 -0.0533197 -0.22094
-0.0571043 -0.0509343 -0.128844
-0.0571287 -0.0512894 -0.0997629
-0.0571606 -0.0517534 -0.061771
-0.0571785 -0.0520148 -0.0403659
-0.0571966 -0.0522788 -0.0187435
-0.0572112 -0.052492 -0.00128686
-0.0572634 -0.053252 0.0609487
-0.0572977 -0.0537523 0.101918
-0.0573288 -0.054205 0.138987
-0.0572371 -0.0486397 0.0296073
-0.0572788 -0.0491954 0.0790626
-0.0573134 -0.0496595 0.120374
-0.0570699 -0.0423658 -0.169698
-0.0132912 -0.039261 -0.220906
-0.0573448 -0.04137 0.157756
-0.0502036 -0.0340673 -0.220875
-0.057043 -0.0340294 -0.201809
-0.0570871 -0.0344649 -0.149372
-0.0571114 -0.034704 -0.120577
-0.0571463 -0.0350514 -0.0787408
-0.0573646 -0.0372119 0.181442
-0.0573807 -0.0373708 0.200573
-0.0571287 -0.0307737 -0.0997629
-0.0571606 -0.031052 -0.061771
-0.0571785 -0.0312089 -0.0403659
-0.0571966 -0.0313673 -0.0187435
-0.0572112 -0.0314952 -0.00128686
-0.0572371 -0.0317216 0.0296073
-0.0572711 -0.0320174 0.0699868
-0.0572864 -0.0321507 0.0881762
-0.0573134 -0.0323866 0.120374
-0.0573968 -0.0331156 0.219868
0.0259939 -0.0234607 -0.22094
-0.0570699 -0.0221916 -0.169698
-0.0572561 -0.0233825 0.0519478
-0.0573288 -0.0238502 0.138987
-0.0573566 -0.0240272 0.171938
-0.0573725 -0.0241296 0.190987
-0.0132912 -0.0185973 -0.220906
-0.0502036 -0.0140277 -0.220875
-0.057043 -0.0140121 -0.201809
-0.0570871 -0.0141914 -0.149372
-0.0571114 -0.0142899 -0.120577
-0.0571463 -0.0144329 -0.0787408
-0.0571859 -0.0145936 -0.0317433
-0.0572224 -0.0147429 0.0118993
-0.0571287 -0.0102579 -0.0997629
-0.0571606 -0.0103507 -0.061771
-0.0572039 -0.010477 -0.0100329
-0.0572371 -0.0105739 0.0296073
-0.0572711 -0.0106725 0.0699868
-0.0572864 -0.0107169 0.0881762
-0.0573134 -0.0107955 0.120374
-0.0573887 -0.00660896 0.2102
-0.0132912 -0.00206638 -0.220906
-0.0570699 -0.00201743 -0.169698
-0.0573448 -0.00217738 0.157756
0.0259939 0.00639834 -0.22094
-0.0502036 0.00601185 -0.220875
-0.057043 0.00600518 -0.201809
-0.0570871 0.00608202 -0.149372
-0.0571114 0.00612421 -0.120577
-0.0571463 0.00618552 -0.0787408
-0.0571859 0.00625439 -0.0317433
-0.0572224 0.00631834 0.0118993
-0.0572561 0.00637703 0.0519478
-0.0572977 0.00645026 0.101918
-0.0573288 0.00650458 0.138987
-0.0573646 0.00656679 0.181442
-0.0573807 0.00659483 0.200573
-0.0573968 0.0066231 0.219868
-0.0571287 0.0102579 -0.0997629
-0.0571606 0.0103507 -0.061771
-0.0572039 0.010477 -0.0100329
-0.0572371 0.0105739 0.0296073
-0.0572711 0.0106725 0.0699868
-0.0573134 0.0107955 0.120374
-0.0132912 0.0185973 -0.220906
-0.0570699 0.0181568 -0.169698
-0.0573448 0.0195963 0.157756
-0.0502036 0.0260514 -0.220875
-0.057043 0.0260225 -0.201809
-0.0570871 0.0263555 -0.149372
-0.0571114 0.0265383 -0.120577
-0.0572408 0.0275203 0.034057
-0.0572711 0.0277484 0.0699868
-0.0572864 0.0278639 0.0881762
-0.0573134 0.0280684 0.120374
-0.0571287 0.0307737 -0.0997629
-0.0571606 0.0310521 -0.061771
-0.0571785 0.0312089 -0.0403659
-0.0571966 0.0313673 -0.0187435
-0.0572112 0.0314952 -0.00128686
-0.0573288 0.032523 0.138987
-0.0573646 0.0328341 0.181442
-0.0573807 0.0329743 0.200573
-0.0573968 0.0331156 0.219868
0.0259939 0.0362574 -0.22094
-0.0571463 0.0350514 -0.0787408
-0.0132912 0.039261 -0.220906
-0.0570699 0.0383309 -0.169698
-0.0573448 0.04137 0.157756
-0.0572561 0.0446393 0.0519478
-0.0572902 0.0450578 0.0927472
-0.0573019 0.0451991 0.106518
-0.0573288 0.0455322 0.138987
-0.0573646 0.0459677 0.181442
-0.0573807 0.0461639 0.200573
-0.0573968 0.0463618 0.219868
-0.0502036 0.046091 -0.220875
-0.057043 0.0460398 -0.201809
-0.0571606 0.0476131 -0.061771
-0.0571785 0.0478536 -0.0403659
-0.0571966 0.0480965 -0.0187435
-0.0572112 0.0482927 -0.00128686
-0.0572371 0.0486397 0.0296073
-0.0572711 0.0490934 0.0699868
-0.0571043 0.0509343 -0.128844
-0.0571287 0.0512894 -0.0997629
-0.0570871 0.0547383 -0.149372
-0.0571463 0.0556698 -0.0787408
-0.0132912 0.0599247 -0.220906
-0.0570699 0.0585051 -0.169698
0.0259939 0.0661164 -0.22094
-0.0572224 0.0652898 0.0118993
-0.0572448 0.0656928 0.0385158
-0.0572864 0.0664448 0.0881762
-0.0502036 0.0661306 -0.220875
-0.057043 0.0660572 -0.201809
-0.0571287 0.0677021 -0.0997629
-0.0571606 0.0683145 -0.061771
-0.0571785 0.0686595 -0.0403659
-0.0571966 0.0690081 -0.0187435
-0.0572634 0.0702927 0.0609487
-0.0573056 0.0711015 0.111127
-0.0573368 0.0717015 0.148351
-0.0573807 0.0725433 0.200573
-0.0573968 0.0728544 0.219868
-0.0571043 0.071308 -0.128844
-0.0573211 0.0757275 0.129661
-0.0573566 0.0764503 0.171938
-0.0570871 0.0750118 -0.149372
-0.0571463 0.0762883 -0.0787408
-0.0132912 0.0805883 -0.220906
-0.0570699 0.0786792 -0.169698
-0.0573725 0.0855504 0.190987
-0.0573887 0.0859164 0.2102
-0.0571859 0.0854769 -0.0317433
-0.0572224 0.086351 0.0118993
-0.0572711 0.0875143 0.0699868
-0.0573056 0.0883382 0.111127
-0.0573368 0.0890837 0.148351
-0.0502036 0.0861702 -0.220875
-0.057043 0.0860744 -0.201809
-0.0571043 0.087607 -0.128844
-0.0571287 0.0882178 -0.0997629
-0.0571606 0.0890158 -0.061771
-0.0572039 0.0901025 -0.0100329
-0.0572371 0.0909351 0.0296073
0.0259939 0.0959754 -0.22094
-0.0572561 0.0956558 0.0519478
-0.0572864 0.0964521 0.0881762
-0.0570871 0.0952853 -0.149372
-0.0573527 0.102553 0.1672
-0.0132912 0.101252 -0.220906
-0.0570699 0.0988534 -0.169698
-0.0573211 0.106019 0.129661
-0.0571463 0.105154 -0.0787408
-0.0571859 0.106325 -0.0317433
-0.0572371 0.107853 0.0296073
-0.0572711 0.108859 0.0699868
-0.0573056 0.109884 0.111127
-0.0573368 0.110811 0.148351
-0.0573968 0.112593 0.219868
-0.0502036 0.10621 -0.220875
-0.057043 0.106092 -0.201809
-0.0571043 0.107981 -0.128844
-0.0571287 0.108734 -0.0997629
-0.0571606 0.109717 -0.061771
-0.0572039 0.111057 -0.0100329
-0.0573566 0.115768 0.171938
-0.0573725 0.116261 0.190987
-0.0572224 0.115837 0.0118993
-0.0132912 0.117783 -0.220906
-0.0570871 0.115559 -0.149372
-0.0573887 0.12557 0.2102
0.0259939 0.125834 -0.22094
-0.0570699 0.119028 -0.169698
-0.0572448 0.125028 0.0385158
-0.0572826 0.126328 0.0836147
-0.0573368 0.128194 0.148351
-0.0571463 0.125773 -0.0787408
-0.0571966 0.12756 -0.0187435
-0.0572634 0.129935 0.0609487
-0.0573056 0.13143 0.111127
-0.0502036 0.126249 -0.220875
-0.057043 0.126109 -0.201809
-0.0571043 0.128354 -0.128844
-0.0571287 0.129249 -0.0997629
-0.0571606 0.130419 -0.061771
-0.0571785 0.131077 -0.0403659
-0.0573211 0.13631 0.129661
-0.0573725 0.142584 0.190987
-0.0132912 0.138447 -0.220906
-0.0570837 0.135699 -0.153453
-0.0572112 0.140679 -0.00128686
-0.0573448 0.145884 0.157756
-0.0570599 0.138794 -0.181798
-0.0572298 0.14562 0.0207351
-0.0572448 0.146219 0.0385158
-0.0573056 0.148667 0.111127
-0.0571148 0.145084 -0.11643
-0.057125 0.145517 -0.103942
-0.0571749 0.147573 -0.0446642
-0.0571966 0.148472 -0.0187435
-0.0572634 0.151236 0.0609487
-0.0573646 0.155415 0.181442
-0.0573807 0.156078 0.200573
-0.0573968 0.156747 0.219868
0.0259939 0.155693 -0.22094
-0.0502036 0.146289 -0.220875
-0.057043 0.146126 -0.201809
-0.0571606 0.15112 -0.061771
-0.0572788 0.156142 0.0790626
-0.0573288 0.162615 0.138987
-0.0132912 0.15911 -0.220906
-0.0570769 0.155646 -0.161591
-0.0572977 0.165557 0.101918
-0.0570599 0.158909 -0.181798
-0.0570939 0.160476 -0.141185
-0.057215 0.166044 0.0030995
-0.0572561 0.167929 0.0519478
-0.0573134 0.170569 0.120374
-0.0571114 0.165354 -0.120577
-0.0571572 0.167513 -0.0660263
-0.0571675 0.168019 -0.0532348
-0.0571895 0.16904 -0.0274188
-0.0572371 0.171296 0.0296073
-0.0573288 0.175624 0.138987
-0.0573448 0.176367 0.157756
-0.0502036 0.166329 -0.220875
-0.057043 0.166144 -0.201809
-0.0571287 0.170281 -0.0997629
-0.0573846 0.182652 0.205382
-0.0572711 0.181432 0.0699868
-0.0573646 0.18606 0.181442
0.0259939 0.185553 -0.22094
-0.0132912 0.179774 -0.220906
-0.0570769 0.17586 -0.161591
-0.0573096 0.187646 0.115746
-0.0570599 0.179024 -0.181798
-0.0570939 0.18079 -0.141185
-0.0571785 0.185173 -0.0403659
-0.0572333 0.188022 0.0251667
-0.0573807 0.195647 0.200573
-0.0573968 0.196486 0.219868
-0.0571114 0.185768 -0.120577
-0.0571535 0.188004 -0.0702729
-0.0571966 0.190295 -0.0187435
-0.0572902 0.195251 0.0927472
-0.0573368 0.197722 0.148351
-0.0502036 0.186368 -0.220875
-0.0571287 0.190797 -0.0997629
-0.0572112 0.19527 -0.00128686
-0.0572561 0.197689 0.0519478
-0.0572711 0.202777 0.0699868
-0.0573173 0.20533 0.125013
-0.0132912 0.200438 -0.220906
-0.057043 0.194168 -0.201809
-0.0570769 0.196073 -0.161591
-0.0572371 0.205133 0.0296073
-0.0573056 0.208995 0.111127
-0.0570599 0.199139 -0.181798
-0.0570939 0.201103 -0.141185
-0.0571785 0.205979 -0.0403659
-0.0573407 0.215332 0.153049
-0.0573527 0.216016 0.1672
0.0259939 0.215412 -0.22094
-0.0571114 0.206183 -0.120577
-0.0571535 0.208664 -0.0702729
-0.0571966 0.211206 -0.0187435
-0.0572711 0.215584 0.0699868
-0.0572864 0.216481 0.0881762
-0.0573887 0.222501 0.2102
-0.0502036 0.206408 -0.220875
-0.057043 0.206178 -0.201809
-0.0571287 0.211312 -0.0997629
-0.0572561 0.218945 0.0519478
-0.0573725 0.225941 0.190987
-0.0132912 0.221101 -0.220906
-0.0570734 0.216075 -0.165648
-0.0572112 0.224666 -0.00128686
-0.0572333 0.226048 0.0251667
-0.0573056 0.230541 0.111127
-0.0573846 0.235468 0.205382
-0.0570904 0.221198 -0.145282
-0.057193 0.227705 -0.0230855
-0.0573211 0.235837 0.129661
0.0259939 0.236739 -0.22094
-0.0571287 0.227725 -0.0997629
-0.0571535 0.229324 -0.0702729
-0.0571712 0.23048 -0.0489538
-0.0502036 0.226447 -0.220875
-0.057043 0.226196 -0.201809
-0.057215 0.237506 0.0030995
-0.0572561 0.240202 0.0519478
-0.0573368 0.245523 0.148351
-0.0132912 0.237632 -0.220906
-0.0571043 0.234298 -0.128844
-0.0572711 0.245467 0.0699868
-0.0572864 0.246489 0.0881762
-0.0573019 0.247519 0.106518
-0.0570699 0.236038 -0.169698
-0.0573566 0.255563 0.171938
-0.0570871 0.241254 -0.149372
-0.0571463 0.24536 -0.0787408
-0.0571859 0.248092 -0.0317433
-0.0573968 0.262717 0.219868
-0.057125 0.247994 -0.103942
-0.0571606 0.250486 -0.061771
-0.0572298 0.255363 0.0207351
-0.0572448 0.256414 0.0385158
-0.0573725 0.265426 0.190987
-0.0502036 0.246487 -0.220875
-0.057043 0.246213 -0.201809
-0.0572112 0.258261 -0.00128686
-0.0573134 0.26557 0.120374
0.0259939 0.266598 -0.22094
-0.0132912 0.258296 -0.220906
-0.0571043 0.254672 -0.128844
-0.0572977 0.268762 0.101918
-0.0573288 0.271025 0.138987
-0.0573846 0.275079 0.205382
-0.0570699 0.256212 -0.169698
-0.0572634 0.27052 0.0609487
-0.0570871 0.261528 -0.149372
-0.0571357 0.265182 -0.0913792
-0.0571675 0.267585 -0.0532348
-0.0571895 0.269212 -0.0274188
-0.0572788 0.275922 0.0790626
-0.0571148 0.26769 -0.11643
-0.0571535 0.270644 -0.0702729
-0.0572486 0.277891 0.0429839
-0.0573448 0.285235 0.157756
-0.0570364 0.265714 -0.209759
-0.0572076 0.278973 -0.00566435
-0.0572261 0.280401 0.0163127
-0.057325 0.288067 0.134319
-0.0132912 0.278959 -0.220906
-0.0570533 0.271024 -0.189826
-0.0573019 0.290566 0.106518
-0.0573605 0.295193 0.176685
-0.0573765 0.296452 0.195775
-0.0570871 0.277746 -0.149372
-0.0572597 0.29152 0.0564436
0.0259939 0.296457 -0.22094
-0.0571287 0.285169 -0.0997629
-0.0571606 0.287749 -0.061771
-0.0571821 0.289495 -0.0360589
-0.0573968 0.306871 0.219868
-0.0570699 0.284456 -0.169698
-0.0571078 0.287554 -0.124715
-0.0571463 0.29072 -0.0787408
-0.0572003 0.295152 -0.0143926
-0.0572448 0.298796 0.0385158
-0.0572902 0.302531 0.0927472
-0.0573329 0.306038 0.143664
-0.0570364 0.285692 -0.209759
-0.0572711 0.305233 0.0699868
-0.0573019 0.307784 0.106518
-0.0132912 0.299623 -0.220906
-0.0570533 0.2911 -0.189826
-0.0572261 0.3057 0.0163127
-0.0573527 0.316387 0.1672
-0.0570871 0.29802 -0.149372
-0.0571712 0.30523 -0.0489538
-0.0572902 0.315405 0.0927472
-0.0573765 0.322803 0.195775
-0.0571287 0.305685 -0.0997629
-0.0571499 0.307523 -0.0745111
-0.0571859 0.310636 -0.0317433
-0.0570699 0.30463 -0.169698
-0.0571043 0.307643 -0.128844
-0.0572448 0.319987 0.0385158
-0.0573096 0.325684 0.115746
-0.0573968 0.333364 0.219868
0.0259939 0.326316 -0.22094
-0.0570364 0.305671 -0.209759
-0.0572039 0.320597 -0.0100329
-0.0572634 0.325902 0.0609487
-0.0573407 0.332785 0.153049
-0.0573686 0.335264 0.18621
-0.0132912 0.320287 -0.220906
-0.0570533 0.311176 -0.189826
-0.0570871 0.318293 -0.149372
-0.0571606 0.325011 -0.061771
-0.0572788 0.335812 0.0790626
-0.0573527 0.342571 0.1672
-0.0573846 0.345499 0.205382
-0.0571182 0.325229 -0.112276
-0.0571429 0.327506 -0.082962
-0.0571785 0.330814 -0.0403659
-0.0572261 0.335216 0.0163127
-0.0573329 0.345107 0.143664
-0.0570699 0.324804 -0.169698
-0.0571043 0.328017 -0.128844
-0.0572076 0.337704 -0.00566435
-0.0570364 0.325649 -0.209759
-0.0570565 0.327556 -0.185816
-0.0572486 0.345773 0.0429839
-0.0573019 0.350831 0.106518
-0.0573527 0.355663 0.1672
-0.0132912 0.34095 -0.220906
0.0259939 0.356175 -0.22094
-0.0570837 0.338234 -0.153453
-0.0571535 0.345019 -0.0702729
-0.0571895 0.348515 -0.0274188
-0.0572597 0.355356 0.0564436
-0.0573725 0.366331 0.190987
-0.0571182 0.345684 -0.112276
-0.0571394 0.347756 -0.0871749
-0.0571712 0.350911 -0.0489538
-0.0572261 0.356299 0.0163127
-0.0572902 0.362609 0.0927472
-0.0573173 0.365272 0.125013
-0.0573927 0.372703 0.215029
-0.0570699 0.344978 -0.169698
-0.0572039 0.358315 -0.0100329
-0.0573019 0.36805 0.106518
-0.0570364 0.345628 -0.209759
-0.0132912 0.361614 -0.220906
-0.0570533 0.351327 -0.189826
-0.0572864 0.375091 0.0881762
-0.0573846 0.38511 0.205382
-0.0570769 0.357784 -0.161591
-0.0570939 0.359548 -0.141185
-0.0571499 0.365313 -0.0745111
-0.0571821 0.368637 -0.0360589
-0.0572448 0.375085 0.0385158
-0.0573407 0.384987 0.153049
-0.0573527 0.386211 0.1672
-0.0571114 0.365412 -0.120577
-0.0571394 0.368333 -0.0871749
-0.0572298 0.377768 0.0207351
-0.0573056 0.385672 0.111127
-0.057325 0.3877 0.134319
-0.0573725 0.392654 0.190987
0.0259939 0.386034 -0.22094
-0.0572003 0.378883 -0.0143926
-0.0572634 0.385545 0.0609487
-0.0132912 0.378145 -0.220906
-0.0570364 0.365606 -0.209759
-0.0570533 0.371403 -0.189826
-0.0570871 0.375059 -0.149372
-0.0572826 0.396113 0.0836147
-0.0573725 0.405816 0.190987
-0.0570734 0.377627 -0.165648
-0.0571463 0.385565 -0.0787408
-0.0571642 0.387505 -0.0575072
-0.0571821 0.389464 -0.0360589
-0.0572408 0.395869 0.034057
-0.0573288 0.405453 0.138987
-0.0573968 0.412841 0.219868
-0.0571114 0.385827 -0.120577
-0.0572224 0.398057 0.0118993
-0.0573566 0.412832 0.171938
-0.0572003 0.399816 -0.0143926
-0.0572561 0.406006 0.0519478
-0.0572977 0.410668 0.101918
-0.0132912 0.398809 -0.220906
-0.0570364 0.385585 -0.209759
-0.057125 0.39556 -0.103942
-0.0573134 0.416708 0.120374
-0.0573927 0.425631 0.215029
0.0259939 0.415894 -0.22094
-0.0570533 0.391479 -0.189826
-0.0572673 0.415796 0.0654631
-0.0573566 0.425938 0.171938
-0.0570871 0.399387 -0.149372
-0.0571606 0.407817 -0.061771
-0.0571785 0.409876 -0.0403659
-0.0572333 0.416183 0.0251667
-0.0573765 0.4326 0.195775
-0.0570699 0.401466 -0.169698
-0.0571043 0.405437 -0.128844
-0.0572112 0.417836 -0.00128686
-0.0572977 0.427868 0.101918
-0.0573407 0.432839 0.153049
-0.0571966 0.420322 -0.0187435
-0.0132912 0.419472 -0.220906
-0.0570364 0.405563 -0.209759
-0.0570533 0.40754 -0.189826
-0.057125 0.416056 -0.103942
-0.0573211 0.43922 0.129661
-0.0573765 0.445776 0.195775
-0.0571675 0.425233 -0.0532348
-0.0572561 0.435765 0.0519478
-0.0573368 0.445419 0.148351
-0.0570699 0.417605 -0.169698
-0.0570871 0.41966 -0.149372
-0.0571535 0.427658 -0.0702729
-0.0572788 0.442758 0.0790626
-0.0573019 0.445534 0.106518
0.0259939 0.445753 -0.22094
-0.0571043 0.425811 -0.128844
-0.0572076 0.438386 -0.00566435
-0.0571859 0.439893 -0.0317433
-0.0572261 0.444846 0.0163127
-0.0132912 0.440136 -0.220906
-0.0570364 0.425542 -0.209759
-0.0570533 0.427616 -0.189826
-0.0571182 0.435684 -0.112276
-0.0571606 0.445079 -0.061771
-0.0570699 0.437779 -0.169698
-0.0570871 0.439934 -0.149372
-0.0570364 0.44552 -0.209759
