ply
format ascii 1.0
comment Created by Open3D
element vertex 722
property double x
property double y
property double z
end_header
0.190388 -0.199434 0.385528
0.190403 -0.200656 0.366333
0.168263 -0.200037 0.36247
0.190388 -0.181966 0.385528
0.190403 -0.180151 0.366333
0.168263 -0.181988 0.36247
0.190388 -0.161585 0.385528
0.187513 -0.200838 -0.362753
0.190403 -0.159646 0.366333
0.170306 -0.200403 -0.362735
0.191002 -0.197724 -0.385405
0.168263 -0.160932 0.36247
0.190986 -0.182224 -0.364358
0.170306 -0.182017 -0.362735
0.191002 -0.179584 -0.385405
0.190388 -0.141205 0.385528
0.190403 -0.142071 0.366333
-0.189957 -0.199646 0.385434
-0.18994 -0.200526 0.365501
0.168263 -0.139875 0.36247
-0.214171 -0.200249 0.36278
0.181838 -0.161889 -0.362747
0.191002 -0.161445 -0.385405
0.20332 -0.12425 0.397562
0.203553 -0.124867 0.381483
0.203059 -0.12615 0.351647
0.202729 -0.126982 0.332339
0.203409 -0.124852 0.309941
0.203169 -0.125672 0.290102
0.202926 -0.126504 0.270002
0.203657 -0.12421 0.249684
0.203449 -0.124922 0.232028
0.203204 -0.125764 0.211173
0.202955 -0.126616 0.190034
0.20374 -0.124145 0.171827
0.203492 -0.124996 0.150174
0.203276 -0.125736 0.131377
0.203059 -0.126484 0.112355
-0.207034 -0.200806 -0.362435
-0.189355 -0.198643 -0.369533
0.203736 -0.114866 0.340599
0.203826 -0.124076 0.0901168
0.203609 -0.124823 0.0706215
0.20339 -0.125579 0.0508901
0.203167 -0.126344 0.0309184
0.203991 -0.123751 0.0110438
0.20377 -0.124514 -0.00939536
0.203546 -0.125286 -0.0300878
0.203357 -0.125936 -0.0475285
0.203129 -0.126726 -0.068698
0.170306 -0.141569 -0.362735
0.187513 -0.13932 -0.362753
0.191002 -0.139677 -0.385405
0.203976 -0.124059 -0.0896576
0.203786 -0.124714 -0.107704
0.203556 -0.125509 -0.129613
0.203362 -0.126179 -0.148085
0.203127 -0.126993 -0.170514
0.208469 -0.104822 0.362157
0.207525 -0.10739 0.290124
0.204037 -0.124117 -0.188809
0.203843 -0.12479 -0.2079
0.203607 -0.125608 -0.231083
0.203407 -0.126298 -0.250637
0.203204 -0.126996 -0.270407
0.207862 -0.105068 0.270141
0.207637 -0.107033 0.211597
0.204141 -0.12404 -0.289629
0.203942 -0.124732 -0.30981
0.203739 -0.125431 -0.330219
0.207982 -0.104651 0.190638
0.207766 -0.106555 0.132219
0.207684 -0.107274 0.110156
0.204767 -0.123345 -0.378965
0.20332 -0.0956867 0.397562
0.207776 -0.095695 0.38106
0.208052 -0.104718 0.0911106
0.207913 -0.10595 0.0521576
0.207842 -0.106577 0.0323352
0.206567 -0.114891 -0.229293
0.204859 -0.0946391 0.332246
0.208719 -0.0948917 0.309846
0.208701 -0.0967084 0.249944
0.208671 -0.0972431 0.232404
0.208185 -0.104267 0.00231022
0.208115 -0.104893 -0.0180986
0.208044 -0.105527 -0.0387539
0.207972 -0.106168 -0.0596603
0.205061 -0.114657 -0.329269
0.206719 -0.115056 -0.348493
0.208799 -0.0948449 0.211709
0.208799 -0.0960845 0.169489
0.208787 -0.0966272 0.151053
0.208265 -0.104325 -0.109227
0.208193 -0.104972 -0.130991
0.208133 -0.105517 -0.149334
0.208071 -0.106068 -0.16787
0.208884 -0.0944358 0.119883
0.208885 -0.0957975 0.0719804
0.20829 -0.104944 -0.247575
0.208215 -0.10562 -0.271083
0.20852 -0.0847141 0.362153
0.208771 -0.0866695 0.290131
0.208802 -0.0872153 0.270167
0.208955 -0.0968387 -0.080364
0.206719 -0.104436 -0.348493
0.209045 -0.104835 -0.371493
0.208752 -0.0848009 0.249946
0.209074 -0.0964508 -0.189765
0.209048 -0.096956 -0.208688
0.208832 -0.0845909 0.141766
0.208966 -0.0868678 0.0524525
0.209 -0.0874564 0.0293678
0.20918 -0.0956314 -0.290209
0.209148 -0.0961469 -0.310201
0.20332 -0.0756924 0.397562
0.207776 -0.075699 0.38106
0.208943 -0.0847769 0.00930166
0.209013 -0.0859484 -0.0383802
0.209044 -0.0864605 -0.0592211
0.20654 -0.0948598 -0.390137
0.207775 -0.0747352 0.301434
0.208053 -0.076353 0.232359
0.20822 -0.0773295 0.190667
0.209026 -0.0843794 -0.108871
0.209058 -0.0848924 -0.130565
0.209084 -0.0853246 -0.148846
0.209116 -0.0858491 -0.17103
0.209199 -0.087189 -0.227702
0.207878 -0.0747423 0.172411
0.208157 -0.0763562 0.100724
0.208232 -0.0767888 0.0815104
0.209138 -0.0843054 -0.250929
0.209166 -0.0847491 -0.270461
0.205061 -0.0864336 -0.329269
0.207953 -0.0745358 0.0422976
0.208142 -0.0756195 -0.00786635
0.208417 -0.0771908 -0.0805976
0.206916 -0.0649607 0.351393
0.204859 -0.0655194 0.332246
0.206372 -0.0664666 0.28157
0.208368 -0.0762077 -0.190161
0.208437 -0.0765984 -0.209044
0.206062 -0.0647615 0.220381
0.206556 -0.0667489 0.119413
0.20826 -0.074846 -0.290832
0.20833 -0.0752405 -0.310773
0.206719 -0.0761141 -0.348493
0.209318 -0.0763811 -0.371283
0.206086 -0.0644114 0.0809817
0.206194 -0.0647759 0.0615098
0.206622 -0.0664745 -0.0289393
0.206714 -0.0668646 -0.0496895
0.20332 -0.0556982 0.397562
0.207776 -0.0557031 0.38106
0.206205 -0.0643451 -0.0886717
0.206319 -0.0647277 -0.110136
0.206519 -0.065442 -0.150163
0.206598 -0.065773 -0.168658
0.206856 -0.0668549 -0.229119
0.203207 -0.054702 0.290103
0.203381 -0.0551873 0.261327
0.203505 -0.0555321 0.240878
0.203739 -0.0561841 0.202217
0.204053 -0.0570602 0.150267
0.206298 -0.0641388 -0.268398
0.206498 -0.0648098 -0.308033
0.205061 -0.0652662 -0.329269
0.20654 -0.0662229 -0.390137
0.166391 -0.053171 0.336813
0.219126 -0.0501219 0.331626
0.22053 -0.0503521 0.312394
0.219713 -0.0507629 0.290186
0.218848 -0.0511363 0.27045
0.217277 -0.0515569 0.250386
0.203275 -0.0544846 0.121915
0.203403 -0.0548401 0.0996582
0.203856 -0.0560947 0.0210931
0.203973 -0.0564174 0.000886828
0.22241 -0.0490789 0.20125
0.222027 -0.049421 0.180403
0.221657 -0.0497202 0.162295
0.221098 -0.0500811 0.140868
0.220612 -0.0503946 0.122254
0.219826 -0.050778 0.100191
0.19237 -0.0531735 0.0444596
0.216379 -0.0526406 -0.00835446
0.21453 -0.0530679 -0.0294024
0.203368 -0.0542961 -0.0685981
0.203702 -0.0552147 -0.129542
0.204028 -0.0561081 -0.188815
0.204132 -0.0563932 -0.207733
0.204364 -0.0570308 -0.250037
0.206916 -0.0447507 0.351393
0.223293 -0.0483837 0.0402752
0.22301 -0.0486836 0.0205454
0.221039 -0.0498191 -0.0508647
0.220795 -0.0500833 -0.0682593
0.219767 -0.0510134 -0.128894
0.219258 -0.0513583 -0.150907
0.218803 -0.0516508 -0.169494
0.218342 -0.0519467 -0.188294
0.217473 -0.0523251 -0.211323
0.216666 -0.0526492 -0.230817
0.215221 -0.0530162 -0.250954
0.203514 -0.0541973 -0.290051
0.203723 -0.0547668 -0.330231
0.206719 -0.054873 -0.348493
0.209318 -0.0550654 -0.371283
0.221224 -0.0498267 -0.289906
0.220509 -0.0504065 -0.330193
0.226082 -0.0396884 0.224991
0.226238 -0.0415505 0.0764495
0.226232 -0.0417918 0.0572901
0.20332 -0.035704 0.397562
0.207776 -0.0357071 0.38106
0.223991 -0.0405637 -0.0948297
0.224 -0.0406867 -0.105417
0.209318 -0.0444076 -0.371283
0.20654 -0.0447452 -0.390137
0.22413 -0.0391739 -0.268414
0.224161 -0.0395927 -0.307597
0.22311 -0.0299062 0.334163
0.225993 -0.0300713 0.306793
0.226008 -0.0302602 0.287437
0.226026 -0.030479 0.265016
0.226042 -0.0306731 0.24513
0.226074 -0.0310687 0.204588
0.226098 -0.0313576 0.174983
0.226122 -0.031652 0.144822
0.226144 -0.0319216 0.117189
0.226154 -0.032043 0.104757
0.226203 -0.0295243 0.0443857
0.226218 -0.0296967 0.0248573
0.225255 -0.0299057 0.00476465
0.223942 -0.0302792 -0.0326275
0.223958 -0.0304601 -0.0531138
0.223975 -0.0306431 -0.0738464
0.224023 -0.0311739 -0.133965
0.22404 -0.0313657 -0.155684
0.224063 -0.0316251 -0.185062
0.224118 -0.0322247 -0.252971
0.203736 -0.024718 0.340599
0.226058 -0.0220497 0.224989
0.224087 -0.0251754 -0.214929
0.224096 -0.0252543 -0.226258
0.206719 -0.0265514 -0.348493
0.226177 -0.0200072 0.0764338
0.226192 -0.0201229 0.0572791
0.223991 -0.0210931 -0.0948297
0.224 -0.0211571 -0.105417
0.224136 -0.0221887 -0.276184
0.224152 -0.0223069 -0.295754
0.224168 -0.0224264 -0.315534
0.20332 -0.0157098 0.397562
0.207776 -0.0157111 0.38106
0.20852 -0.0157941 0.362153
0.209318 -0.0159867 -0.371283
0.20654 -0.0161083 -0.390137
0.22311 -0.00996874 0.334163
0.225993 -0.0100238 0.306793
0.226008 -0.0100867 0.287437
0.226026 -0.0101597 0.265016
0.226042 -0.0102244 0.24513
0.226074 -0.0103562 0.204588
0.226098 -0.0104525 0.174983
0.226122 -0.0105507 0.144822
0.226144 -0.0106405 0.117189
0.226154 -0.010681 0.104757
0.226203 -0.0108774 0.0443857
0.226218 -0.0109409 0.0248573
0.225255 -0.0110179 0.00476465
0.223942 -0.0111555 -0.0326275
0.223958 -0.0112221 -0.0531138
0.223975 -0.0112896 -0.0738464
0.224023 -0.0114851 -0.133965
0.22404 -0.0115558 -0.155684
0.224063 -0.0116513 -0.185062
0.224118 -0.0118723 -0.252971
0.224087 -0.00503508 -0.214929
0.224096 -0.00505087 -0.226258
0.206719 -0.00531029 -0.348493
0.226117 -0.00146989 0.224993
0.226231 -0.00153893 0.0764478
0.226246 -0.00154783 0.0572941
0.224059 -0.00162243 -0.0947987
0.224068 -0.00162735 -0.105385
0.224211 -0.00170668 -0.276133
0.224227 -0.00171578 -0.295702
0.224244 -0.00172496 -0.315479
0.20332 0.00428446 0.397562
0.207776 0.00428484 0.38106
0.20852 0.00430748 0.362153
0.203736 0.00436199 0.340599
0.213109 0.00479432 -0.00275493
0.22137 0.00503538 -0.20526
0.221359 0.0050778 -0.235559
0.20572 0.00531066 -0.34513
0.209083 0.00533615 -0.375616
0.204754 0.00538636 -0.395758
0.143518 0.00778755 0.337881
0.222311 0.0075065 0.171444
0.22227 0.00755625 0.150247
0.222234 0.00759941 0.131854
0.222193 0.00765039 0.110127
0.222057 0.00781518 0.0399055
0.222019 0.00786136 0.0202259
0.191081 0.00818726 -0.00691718
0.216733 0.00803588 -0.0354055
0.216539 0.00810206 -0.0630978
0.215915 0.00827357 -0.134428
0.21582 0.00829993 -0.145389
0.215562 0.00837103 -0.174962
0.215464 0.00839801 -0.186183
0.214142 0.00857081 -0.255519
0.125603 0.00951488 -0.338099
0.150968 0.0092996 -0.33812
0.175211 0.00909384 -0.33814
0.074123 0.0117271 0.337936
-0.00662816 0.0126866 0.338001
-0.101771 0.0138172 0.338076
-0.0745136 0.0135326 0.326004
-0.0734559 0.0135564 0.314866
-0.0732962 0.0136521 0.28495
-0.07313 0.0137491 0.254608
-0.072961 0.0138475 0.223833
-0.0728534 0.0139097 0.204373
-0.072746 0.0139725 0.184738
-0.0726452 0.0140359 0.164924
-0.0725377 0.0140999 0.14493
-0.0724274 0.0141644 0.124753
-0.0723161 0.0142295 0.10439
-0.0722042 0.0142952 0.0838397
-0.0720494 0.0143883 0.0547472
-0.0719372 0.0144555 0.0337339
-0.0780345 0.0146162 0.00669864
-0.10202 0.0149351 -0.00369212
-0.0823882 0.0147422 -0.0160705
-0.0816479 0.0148329 -0.046558
-0.0814788 0.0149176 -0.0731407
-0.0813935 0.0149603 -0.0865464
-0.0812215 0.0150465 -0.113589
-0.0810786 0.0151191 -0.136365
-0.0809091 0.0152072 -0.163989
-0.0807961 0.0152665 -0.182585
-0.0807105 0.0153113 -0.196627
-0.0805945 0.0153714 -0.215479
-0.0804187 0.0154625 -0.244035
-0.0803 0.0155238 -0.263261
-0.0801775 0.0155856 -0.282639
-0.0800852 0.0156322 -0.297274
-0.0799617 0.0156949 -0.316924
-0.100499 0.0160074 -0.337911
-0.0820177 0.0157878 -0.337927
-0.0640365 0.0155742 -0.337941
-0.0294966 0.0151637 -0.33797
-0.00476265 0.0148698 -0.337991
0.0190305 0.0145871 -0.33801
0.0493821 0.0142265 -0.338035
0.0782692 0.0138832 -0.338059
0.0990358 0.0136365 -0.338077
-0.0637184 0.0226608 0.01452
-0.0875946 0.0253508 0.33755
-0.0632938 0.0259983 0.142145
-0.0632586 0.0261191 0.122083
-0.0632231 0.026241 0.101833
-0.0631875 0.0263641 0.0813939
-0.0631512 0.0264883 0.0607618
0.0493821 0.0264206 -0.338035
0.0782692 0.0257832 -0.338059
0.0990358 0.0253249 -0.338077
-0.0659815 0.0287316 0.333095
-0.0629928 0.0287843 0.31468
-0.0629373 0.0289901 0.285036
-0.062916 0.029068 0.27381
-0.0628808 0.0291989 0.254965
-0.0628234 0.0294107 0.224458
-0.0627726 0.0295986 0.197398
-0.0627285 0.0297615 0.173928
-0.077651 0.0313702 -0.00181723
0.119077 0.0287108 -0.338093
0.138431 0.028218 -0.338109
0.163225 0.0275867 -0.33813
0.20332 0.0242787 0.397562
0.207776 0.0242808 0.38106
0.20852 0.0244091 0.362153
0.203736 0.024718 0.340599
0.074123 0.0284802 0.337936
-0.0618442 0.0347304 0.0443972
-0.0668223 0.0353541 -0.0161883
-0.0667608 0.0355927 -0.046521
-0.0667073 0.0357997 -0.0728481
-0.0666803 0.0359042 -0.086127
-0.0666258 0.0361149 -0.112918
-0.0665982 0.0362212 -0.126432
-0.0665427 0.0364356 -0.1537
-0.0664961 0.0366163 -0.176671
-0.0664585 0.0367621 -0.195213
-0.066216 0.0377004 -0.314528
-0.0294966 0.0368263 -0.33797
-0.00476265 0.0361125 -0.337991
0.0190305 0.0354259 -0.33801
0.175211 0.030919 -0.33814
0.143518 0.0295927 0.337881
-0.00662816 0.0344353 0.338001
-0.0728921 0.0425141 -0.332929
0.20341 0.0336512 -0.338627
0.20878 0.0336609 -0.35929
0.208589 0.0338519 -0.380163
-0.0610222 0.0431176 0.0194075
-0.0654676 0.0456014 -0.218173
-0.0654328 0.0458312 -0.241781
-0.0654047 0.0460167 -0.260839
-0.0653764 0.0462037 -0.280051
-0.0465358 0.0460987 -0.337956
-0.0609387 0.0458164 0.150419
-0.060908 0.046029 0.130472
-0.060877 0.0462436 0.110339
-0.0608456 0.0464602 0.0900177
-0.0805954 0.048224 -0.00257552
0.064002 0.0461735 -0.338048
0.0782692 0.0456164 -0.338059
-0.00662816 0.0453095 0.338001
-0.0845549 0.0486238 0.337437
-0.0609244 0.0478863 0.314643
-0.060877 0.0482291 0.285053
-0.0608591 0.0483589 0.273847
-0.0608172 0.0486645 0.247464
-0.0607809 0.0489296 0.224584
-0.0607313 0.0492875 0.193685
-0.0606999 0.0495139 0.174143
-0.064736 0.0551992 -0.299102
-0.074561 0.0559632 -0.328882
0.119077 0.0478513 -0.338093
-0.0603814 0.0547242 0.0737082
-0.0603645 0.0550882 0.0447234
-0.0629696 0.055479 0.0231575
-0.0660309 0.0562203 -0.0245965
-0.0648515 0.0564349 -0.0459497
0.0190305 0.0562647 -0.33801
0.0990358 0.0525979 -0.338077
0.138431 0.0507924 -0.338109
0.163225 0.049656 -0.33813
0.175211 0.0491067 -0.33814
0.074123 0.0485839 0.337936
-0.0647981 0.0625576 -0.189852
-0.0294966 0.0628214 -0.33797
0.20332 0.0442729 0.397562
0.207776 0.0442768 0.38106
0.20852 0.0445108 0.362153
0.203736 0.045074 0.340599
0.143518 0.0482828 0.337881
-0.0918077 0.0655664 -0.00110018
-0.0649356 0.0652442 -0.0766908
-0.0649204 0.0656286 -0.10335
-0.0649128 0.0658225 -0.116798
-0.0648977 0.0662137 -0.143934
-0.0648849 0.0665433 -0.166794
-0.00476265 0.0658523 -0.337991
0.20341 0.0549046 -0.338627
0.20878 0.0549205 -0.35929
0.208589 0.0552321 -0.380163
-0.0606325 0.0656578 0.154425
-0.0606217 0.0659634 0.134518
-0.0606112 0.0662719 0.114424
-0.0648991 0.0725013 -0.274991
0.064002 0.0662489 -0.338048
0.0782692 0.0654497 -0.338059
-0.0924994 0.0685406 0.337732
-0.0739677 0.0676309 0.325989
-0.0607678 0.0675143 0.285054
-0.060762 0.0676967 0.273849
-0.0607482 0.0681262 0.247467
-0.0607365 0.0684988 0.224586
-0.0607207 0.0690019 0.193686
-0.0607104 0.0693201 0.174142
-0.0652323 0.0754537 -0.185398
-0.0652578 0.0759117 -0.213383
-0.0652791 0.0762976 -0.236965
-0.0693362 0.0776712 -0.30639
-0.0465358 0.0768312 -0.337956
-0.0294966 0.0758188 -0.33797
-0.068594 0.0713513 0.31478
-0.0611991 0.0746933 0.0940358
-0.0612192 0.0750479 0.073545
-0.0612481 0.0755501 0.0445286
-0.0836066 0.0833926 -0.328807
0.0343962 0.0761385 -0.338023
0.119077 0.0708199 -0.338093
0.138431 0.0696044 -0.338109
0.163225 0.0680472 -0.33813
0.20341 0.0655313 -0.338627
0.20878 0.0655502 -0.35929
-0.0754297 0.0810931 0.0159122
-0.0662197 0.0855208 -0.261236
-0.0662413 0.0858721 -0.280488
0.0990358 0.0759748 -0.338077
0.175211 0.0709319 -0.33814
0.074123 0.0686876 0.337936
-0.00662816 0.0743076 0.338001
-0.0808747 0.0862341 -0.0156637
-0.0683838 0.0858801 -0.0426396
-0.0664306 0.0859835 -0.055167
-0.0664674 0.0865763 -0.0860558
0.00327027 0.0865359 -0.337997
-0.0624115 0.0856884 0.154206
-0.0624728 0.0860926 0.134257
-0.0673381 0.0925934 -0.1724
-0.0809549 0.0964945 -0.317451
-0.0820177 0.0969824 -0.337927
-0.0640365 0.09567 -0.337941
0.064002 0.0863242 -0.338048
0.0782692 0.0852829 -0.338059
0.20332 0.0642672 0.397562
0.207776 0.0642728 0.38106
0.20852 0.0646124 0.362153
0.143518 0.0700879 0.337881
-0.101248 0.0887853 0.338057
-0.0628496 0.0875148 0.258749
-0.0629114 0.0879177 0.239764
-0.0629737 0.0883243 0.220603
-0.0630364 0.0887347 0.201264
-0.0631 0.0891489 0.181745
-0.0968891 0.0955924 -0.00238988
-0.0679711 0.0956168 -0.108904
-0.068045 0.0960963 -0.131498
-0.0681046 0.0964834 -0.149737
-0.0736808 0.100037 -0.298873
-0.00662816 0.0851819 0.338001
-0.0820097 0.0914556 0.32621
-0.0752201 0.0911616 0.314898
-0.0640389 0.0909237 0.285027
-0.0641243 0.0947686 0.109812
-0.0641947 0.095221 0.0894136
-0.0642658 0.0956778 0.0688196
-0.0657191 0.0961643 0.0519042
-0.0791667 0.0979518 0.0192882
-0.0692185 0.102604 -0.229315
-0.100499 0.107479 -0.337911
0.119077 0.0899605 -0.338093
0.138431 0.0884164 -0.338109
0.208589 0.083739 -0.380163
-0.0699228 0.105647 -0.168837
-0.0700588 0.10619 -0.192092
-0.0701685 0.106627 -0.210869
-0.0294966 0.106146 -0.33797
0.0990358 0.0954555 -0.338077
0.163225 0.0901165 -0.33813
0.175211 0.0891196 -0.33814
0.203736 0.074154 0.340599
-0.0718269 0.1125 -0.268791
-0.115308 0.118098 -0.345894
-0.0820177 0.115026 -0.337927
0.0190303 0.106278 -0.33801
0.074123 0.0887913 0.337936
-0.0666851 0.105719 0.165598
-0.0667614 0.106021 0.153668
-0.066889 0.106527 0.133633
-0.0719498 0.112565 -0.0923542
-0.0728329 0.116068 -0.230972
-0.0729553 0.116552 -0.25011
-0.0772971 0.117951 -0.290951
-0.00476277 0.112586 -0.337991
0.064002 0.1064 -0.338048
0.0782692 0.105116 -0.338059
0.20341 0.0938691 -0.338627
0.20878 0.0938963 -0.35929
-0.101771 0.108564 0.338076
-0.067282 0.107575 0.251008
-0.067409 0.108077 0.231875
-0.0675634 0.108686 0.208679
-0.0676935 0.109199 0.189148
-0.0890454 0.115718 0.0126089
-0.109166 0.117948 -0.00108632
-0.0919032 0.116673 -0.0142398
-0.0853808 0.116356 -0.0256285
-0.0776042 0.116136 -0.0453634
-0.0734632 0.116282 -0.0661584
-0.0900823 0.124272 -0.317305
0.143518 0.088778 0.337881
-0.084034 0.111307 0.318798
-0.0750217 0.110935 0.299969
-0.0700039 0.110948 0.281219
-0.0694079 0.115466 0.108954
-0.0695502 0.116025 0.0884477
-0.0818163 0.118838 0.0272157
-0.0749706 0.122582 -0.138652
-0.0765146 0.12625 -0.271098
0.119077 0.109101 -0.338093
0.20332 0.0842614 0.397562
0.207776 0.0842687 0.38106
0.20852 0.0847141 0.362153
-0.0762212 0.125775 -0.0937976
-0.0764472 0.12642 -0.11643
0.138431 0.110991 -0.338109
0.163225 0.108508 -0.33813
0.206858 0.10533 -0.381515
-0.0730672 0.125139 0.0670729
-0.0751331 0.125721 0.0541015
-0.0787244 0.132533 -0.172406
-0.0789191 0.133087 -0.19117
-0.0791153 0.133645 -0.210091
0.175211 0.110945 -0.33814
-0.00662804 0.11418 0.338001
-0.0734498 0.126295 0.168815
-0.0801797 0.136101 -0.140618
-0.0845613 0.140948 -0.289736
-0.0948585 0.142786 -0.314821
-0.104615 0.144275 -0.33
0.204198 0.113186 -0.396201
0.203736 0.0945101 0.340599
0.074123 0.108895 0.337936
-0.121407 0.130448 0.338805
-0.100062 0.12823 0.334251
-0.0739974 0.127536 0.262211
-0.0742567 0.128261 0.239217
-0.0744724 0.128871 0.219855
-0.0746907 0.129488 0.200308
-0.112833 0.139826 -0.00200319
-0.0837014 0.143553 -0.231167
-0.0839835 0.144171 -0.250521
0.203374 0.115127 -0.338653
0.201935 0.115942 -0.360319
-0.0833339 0.131224 0.303777
-0.0773362 0.131131 0.284916
-0.0771999 0.135254 0.152378
-0.0775062 0.135921 0.132135
-0.0900264 0.140681 0.0253153
-0.0993819 0.143042 -0.0162221
-0.0896677 0.142543 -0.0356332
-0.0837122 0.142502 -0.056028
-0.0848275 0.145759 -0.156249
-0.085252 0.146687 -0.184428
-0.0893008 0.154215 -0.267615
0.143518 0.110583 0.337881
-0.0820065 0.145276 0.111025
-0.0823407 0.146003 0.0902989
-0.0827317 0.146743 0.0693538
-0.0884447 0.152518 -0.0843604
-0.0888149 0.153166 -0.102595
-0.0890944 0.153656 -0.116373
-0.090713 0.15649 -0.196143
-0.0925974 0.159785 -0.288856
-0.0996648 0.161414 -0.312321
-0.108907 0.163021 -0.327209
0.20332 0.104256 0.397562
0.206237 0.10445 0.381214
0.206087 0.105111 0.362344
-0.104956 0.155693 0.00874889
-0.108292 0.156734 -0.00970867
-0.0969634 0.155981 -0.0288298
-0.0904635 0.155867 -0.0491623
-0.0942749 0.162531 -0.231148
-0.0946857 0.163247 -0.250697
-0.107599 0.148908 0.334506
-0.0941886 0.147874 0.315235
-0.0887713 0.147583 0.303821
-0.083388 0.14756 0.284866
-0.0840518 0.148716 0.254229
-0.0844717 0.149447 0.234835
-0.0850669 0.150483 0.207362
-0.0855836 0.151383 0.183508
-0.088443 0.156368 0.0513144
-0.0941489 0.157886 0.0286746
-0.125625 0.162922 -0.000729531
-0.0951123 0.163798 -0.136966
-0.0956157 0.16452 -0.155771
-0.0963799 0.165614 -0.184292
-0.0968271 0.166113 -0.0735093
-0.0974593 0.167018 -0.0964078
-0.102221 0.173832 -0.268937
0.20048 0.115296 0.340772
-0.10147 0.17262 -0.116131
-0.103762 0.1759 -0.196859
-0.104314 0.17669 -0.216302
-0.106905 0.179789 -0.291031
-0.107618 0.180634 -0.311406
-0.119279 0.182981 -0.332665
0.194663 0.117138 0.390502
0.187727 0.118787 0.372076
-0.0943066 0.165029 0.174615
-0.0949011 0.165879 0.15427
-0.095502 0.166737 0.133715
-0.127703 0.176261 -0.00124139
-0.109616 0.182898 -0.242945
-0.0961281 0.167512 0.222404
-0.0967255 0.168366 0.202496
-0.0996835 0.172592 0.104036
-0.10069 0.173882 0.0743592
-0.101804 0.175205 0.0442158
-0.10355 0.176303 0.0221848
-0.110327 0.183632 -0.142587
-0.110857 0.184261 -0.156915
-0.111568 0.185106 -0.176172
-0.115234 0.169854 0.334765
-0.101116 0.168586 0.315358
-0.0968502 0.168425 0.303886
-0.0974413 0.169268 0.284749
-0.0983995 0.170635 0.253729
-0.113197 0.183433 -0.0154237
-0.111016 0.184338 -0.0461997
-0.112062 0.185579 -0.0737329
-0.112944 0.186627 -0.0969621
-0.119976 0.194003 -0.257546
-0.122608 0.19662 -0.314016
-0.122954 0.196872 -0.204874
-0.12439 0.1983 -0.234843
-0.108989 0.18344 0.177191
-0.109483 0.184026 0.164865
-0.110314 0.185011 0.144146
-0.115308 0.19003 0.0413387
-0.136918 0.195156 -0.00351137
-0.11118 0.185853 0.225478
-0.1122 0.186865 0.20532
-0.116822 0.191454 0.113955
-0.118341 0.192962 0.0839356
-0.121451 0.19605 0.0224558
-0.112085 0.186676 0.304008
-0.113294 0.187877 0.280717
-0.114314 0.188889 0.261077
-0.122968 0.191073 0.335028
-0.116384 0.19087 0.31563
