ply
format ascii 1.0
comment Created by Open3D
element vertex 704
property double x
property double y
property double z
end_header
0.0878614 -0.453927 0.122343
0.110806 -0.451811 0.122327
0.122847 -0.46039 0.0987163
-0.120381 -0.469174 0.122484
-0.0995952 -0.467274 0.122469
-0.0851845 -0.465728 0.103379
-0.091328 -0.454707 0.122463
-0.107889 -0.452234 0.122475
0.0878614 -0.434934 0.122343
0.118407 -0.432235 0.122322
0.122847 -0.441127 0.0987163
-0.0851845 -0.453734 0.103379
-0.107889 -0.432485 0.122475
0.0993607 -0.41497 0.122335
0.122847 -0.421864 0.0987163
-0.0872044 -0.426804 0.12246
-0.0851845 -0.433746 0.103379
0.118407 -0.409586 0.122322
0.107562 -0.469448 -0.0840558
-0.120381 -0.409785 0.122484
-0.091328 -0.407465 0.122463
-0.0851845 -0.413758 0.103379
0.110806 -0.391318 0.122327
0.122847 -0.398748 0.0987163
0.122978 -0.467232 -0.106753
0.0878614 -0.385553 0.122343
-0.121707 -0.469263 -0.0839025
-0.102317 -0.467759 -0.0839158
0.103057 -0.451828 -0.0840528
0.116552 -0.450781 -0.0840615
0.122978 -0.453557 -0.106753
-0.120381 -0.389989 0.122484
-0.0872044 -0.387467 0.12246
-0.0851845 -0.39377 0.103379
-0.0850464 -0.46559 -0.108909
0.110806 -0.372413 0.122327
0.122847 -0.379485 0.0987163
-0.121707 -0.450586 -0.0839025
-0.102317 -0.449142 -0.0839158
0.0878614 -0.36656 0.122343
0.103057 -0.429349 -0.0840528
0.116552 -0.428354 -0.0840615
-0.0850464 -0.446683 -0.108909
-0.120381 -0.370192 0.122484
-0.0851845 -0.373781 0.103379
-0.0878549 -0.434135 -0.083926
0.0993607 -0.354335 0.122335
0.122847 -0.360221 0.0987163
0.122978 -0.426207 -0.106753
-0.0995952 -0.36475 0.122469
-0.121707 -0.431909 -0.0839025
0.118407 -0.349186 0.122322
0.103057 -0.411366 -0.0840528
0.116552 -0.410413 -0.0840615
-0.0850464 -0.423049 -0.108909
-0.120381 -0.350396 0.122484
-0.0851845 -0.353793 0.103379
-0.107153 -0.412237 -0.0839127
-0.0850541 -0.412938 -0.0911969
0.122847 -0.340958 0.0987163
0.122978 -0.403415 -0.106753
-0.091328 -0.344475 0.122463
0.110806 -0.330824 0.122327
0.116552 -0.392471 -0.0840615
0.103057 -0.388887 -0.0840528
-0.0850464 -0.404142 -0.108909
0.0878614 -0.324776 0.122343
-0.0850541 -0.394274 -0.0911969
-0.120381 -0.3306 0.122484
-0.0851845 -0.333805 0.103379
-0.121707 -0.389885 -0.0839025
0.122847 -0.321695 0.0987163
-0.091328 -0.324791 0.122463
0.110806 -0.31192 0.122327
0.103057 -0.370904 -0.0840528
0.116552 -0.370044 -0.0840615
0.122978 -0.376065 -0.106753
-0.102317 -0.374672 -0.0839158
-0.121707 -0.371208 -0.0839025
-0.0850464 -0.375781 -0.108909
-0.120381 -0.310803 0.122484
-0.0851845 -0.313816 0.103379
0.122847 -0.302432 0.0987163
0.112061 -0.352375 -0.0840584
0.0878614 -0.294388 0.122343
0.122199 -0.292334 0.12232
0.122978 -0.353273 -0.106753
-0.0954582 -0.297473 0.122466
-0.116848 -0.352248 -0.0839059
-0.0850464 -0.356874 -0.108909
-0.0974883 -0.346469 -0.0839194
-0.120381 -0.291007 0.122484
-0.0851845 -0.293828 0.103379
0.103057 -0.330441 -0.0840528
0.116552 -0.329676 -0.0840615
0.0993607 -0.274752 0.122335
0.122847 -0.279316 0.0987163
-0.111996 -0.333318 -0.083909
0.118407 -0.269911 0.122322
0.122978 -0.325923 -0.106753
-0.0872044 -0.277324 0.12246
-0.0878549 -0.327343 -0.083926
-0.0850464 -0.33324 -0.108909
0.103057 -0.312458 -0.0840528
0.116552 -0.311734 -0.0840615
-0.120381 -0.27121 0.122484
-0.0851845 -0.27384 0.103379
-0.111996 -0.314671 -0.083909
-0.0878549 -0.313413 -0.083926
0.122847 -0.260053 0.0987163
-0.0850464 -0.314332 -0.108909
0.0993607 -0.252014 0.122335
0.118407 -0.251036 0.122322
0.122978 -0.303131 -0.106753
-0.0995952 -0.254339 0.122469
0.103057 -0.289979 -0.0840528
0.116552 -0.289307 -0.0840615
-0.120381 -0.251414 0.122484
-0.0851845 -0.253851 0.103379
-0.0878549 -0.29484 -0.083926
-0.121707 -0.29183 -0.0839025
0.122847 -0.24079 0.0987163
0.122978 -0.284897 -0.106753
0.11461 -0.232342 0.122325
-0.0850464 -0.285972 -0.108909
0.103057 -0.271996 -0.0840528
0.116552 -0.271366 -0.0840615
-0.0995952 -0.234623 0.122469
0.0878614 -0.226014 0.122343
-0.120381 -0.231618 0.122484
-0.0851845 -0.233863 0.103379
-0.121707 -0.268484 -0.0839025
-0.0974883 -0.267409 -0.0839194
0.122847 -0.221527 0.0987163
-0.0850464 -0.267064 -0.108909
0.0878614 -0.214618 0.122343
0.110806 -0.209837 0.122327
0.103057 -0.249517 -0.0840528
0.116552 -0.248939 -0.0840615
0.122978 -0.252989 -0.106753
-0.0995952 -0.214906 0.122469
-0.111996 -0.254067 -0.083909
-0.0878549 -0.253052 -0.083926
-0.120381 -0.211821 0.122484
-0.0851845 -0.213875 0.103379
-0.0850464 -0.252884 -0.108909
0.122847 -0.202263 0.0987163
0.103057 -0.231534 -0.0840528
0.116552 -0.230997 -0.0840615
0.122978 -0.234756 -0.106753
-0.0878549 -0.234479 -0.083926
0.0993607 -0.191379 0.122335
0.118407 -0.190637 0.122322
-0.091328 -0.194875 0.122463
-0.121707 -0.231129 -0.0839025
-0.0850464 -0.233977 -0.108909
-0.120381 -0.192025 0.122484
-0.0851845 -0.193887 0.103379
0.122847 -0.179148 0.0987163
0.103057 -0.209055 -0.0840528
0.116552 -0.20857 -0.0840615
-0.121707 -0.212452 -0.0839025
0.0993607 -0.17243 0.122335
0.118407 -0.171762 0.122322
0.122978 -0.207405 -0.106753
-0.102317 -0.207117 -0.0839158
-0.120381 -0.172229 0.122484
-0.0851845 -0.173898 0.103379
-0.0850464 -0.205616 -0.108909
-0.0954582 -0.167452 0.122466
0.103057 -0.191072 -0.0840528
0.116552 -0.190629 -0.0840615
0.122978 -0.19373 -0.106753
-0.111996 -0.193464 -0.083909
-0.0850541 -0.193638 -0.0911969
0.122847 -0.159884 0.0987163
0.0878614 -0.153841 0.122343
-0.0850464 -0.186709 -0.108909
0.110806 -0.149343 0.122327
-0.120381 -0.152432 0.122484
-0.0851845 -0.15391 0.103379
-0.111996 -0.174817 -0.083909
-0.0878549 -0.174118 -0.083926
0.103057 -0.168593 -0.0840528
0.116552 -0.168202 -0.0840615
-0.0995952 -0.143928 0.122469
0.122847 -0.140621 0.0987163
0.122978 -0.16638 -0.106753
0.0878614 -0.134849 0.122343
-0.0850464 -0.163075 -0.108909
0.110806 -0.130439 0.122327
-0.0851845 -0.133922 0.103379
0.103057 -0.150609 -0.0840528
0.116552 -0.15026 -0.0840615
-0.120381 -0.128677 0.122484
-0.121707 -0.151752 -0.0839025
-0.0995952 -0.124212 0.122469
-0.102317 -0.146611 -0.0839158
0.122847 -0.121358 0.0987163
0.122978 -0.143588 -0.106753
-0.0850464 -0.144168 -0.108909
0.0993607 -0.111796 0.122335
0.118407 -0.111362 0.122322
0.112061 -0.132421 -0.0840584
-0.0851845 -0.113933 0.103379
-0.0850541 -0.13298 -0.0911969
-0.120381 -0.10888 0.122484
-0.121707 -0.128405 -0.0839025
-0.0995952 -0.104496 0.122469
0.122847 -0.102095 0.0987163
0.122978 -0.116238 -0.106753
-0.111996 -0.114214 -0.083909
-0.0878549 -0.113757 -0.083926
-0.0850464 -0.115807 -0.108909
0.118407 -0.092487 0.122322
0.103057 -0.110147 -0.0840528
0.116552 -0.109892 -0.0840615
-0.0851845 -0.093945 0.103379
0.0993607 -0.0890575 0.122335
-0.120381 -0.0890837 0.122484
0.0569315 -0.0860046 0.122364
0.076308 -0.0856681 0.122351
-0.0995952 -0.0847796 0.122469
-0.0789771 -0.0844375 0.122455
-0.0585247 -0.0840981 0.122441
-0.0422806 -0.0838286 0.12243
-0.0221215 -0.083494 0.122417
-0.00212252 -0.0831622 0.122403
0.017718 -0.0828329 0.12239
0.0413202 -0.0824412 0.122374
0.122864 -0.0850268 0.0689908
0.122847 -0.078979 0.0987163
0.122884 -0.0832779 0.0376629
0.122905 -0.0856072 0.00458217
0.116552 -0.0919504 -0.0840615
0.122978 -0.0934464 -0.106753
0.060819 -0.0744788 0.122362
0.0801652 -0.0741877 0.122348
0.122927 -0.0837743 -0.0304021
0.0993607 -0.0701091 0.122335
0.118407 -0.0698372 0.122322
-0.120381 -0.0692873 0.122484
-0.091328 -0.0649582 0.122463
-0.0707763 -0.0646964 0.122449
-0.0503896 -0.0644368 0.122436
-0.0301658 -0.0641792 0.122422
-0.010103 -0.0639238 0.122409
0.122864 -0.0652531 0.0689908
0.0334777 -0.0595282 0.12238
0.122847 -0.0597158 0.0987163
0.122905 -0.0647274 0.00458217
0.12295 -0.0685627 -0.0674595
0.00980064 -0.0559527 0.122395
0.122978 -0.0660962 -0.106753
0.0840164 -0.0513205 0.122346
0.0955336 -0.0512005 0.122338
0.122884 -0.0548416 0.0376626
-0.120381 -0.049491 0.122484
0.0588637 -0.0481942 0.11229
0.122927 -0.0537015 -0.0304021
-0.0851845 -0.0459731 0.103379
-0.0940622 -0.0481942 0.0491555
-0.0851307 -0.0492275 0.0209863
-0.0851097 -0.050417 -0.00912809
-0.0850875 -0.0516654 -0.0407335
-0.085076 -0.052313 -0.0571306
-0.0830498 -0.0533537 -0.0839293
-0.0639056 -0.0531837 -0.0839421
-0.044883 -0.0530149 -0.0839547
-0.0165745 -0.0527636 -0.0839736
0.00681171 -0.052556 -0.0839891
0.0253886 -0.0523911 -0.0840017
0.12295 -0.0508691 -0.0674595
-0.119587 -0.0481972 -0.0613616
0.0414298 -0.0482014 -0.0977634
0.118407 -0.0396373 0.122322
0.122847 -0.0404527 0.0987163
0.103057 -0.0472059 -0.0840528
-0.0995952 -0.0374608 0.122469
-0.121707 -0.0443582 -0.0839025
-0.102317 -0.044216 -0.0839158
-0.0850464 -0.0449047 -0.108909
0.122978 -0.0433044 -0.106753
-0.0851845 -0.0339801 0.103379
0.0878614 -0.0322877 0.122343
-0.120381 -0.0296946 0.122484
0.103057 -0.0337185 -0.0840528
0.116552 -0.0336404 -0.0840615
0.110806 -0.0207947 0.122327
0.122847 -0.0211895 0.0987163
-0.0995952 -0.0138013 0.122469
-0.0851845 -0.0139918 0.103379
-0.121707 -0.0163425 -0.0839025
-0.102317 -0.0162901 -0.0839158
-0.0850464 -0.0165438 -0.108909
0.122978 -0.0159543 -0.106753
-0.120381 -0.0098982 0.122484
0.0878614 -0.00949639 0.122343
0.103057 -0.00674371 -0.0840528
0.116552 -0.00672809 -0.0840615
0.110806 -0.00189044 0.122327
0.122847 -0.00192633 0.0987163
-0.0995952 0.00591484 0.122469
-0.0851845 0.00599647 0.103379
-0.121707 0.0070039 -0.0839025
-0.102317 0.00698145 -0.0839158
-0.0850464 0.00709018 -0.108909
0.103057 0.00674368 -0.0840528
0.116552 0.00672806 -0.0840615
0.122978 0.00683752 -0.106753
-0.120381 0.0098982 0.122484
0.0878614 0.00949639 0.122343
-0.121707 0.0256811 -0.0839025
-0.102317 0.0255988 -0.0839158
-0.0850464 0.0259975 -0.108909
0.110806 0.0207947 0.122327
0.122847 0.0211895 0.0987163
0.122978 0.025071 -0.106753
-0.0995952 0.025631 0.122469
-0.0851845 0.0259848 0.103379
-0.120381 0.0296946 0.122484
0.0878614 0.0284892 0.122343
0.103057 0.0337185 -0.0840528
0.116552 0.0336404 -0.0840615
0.110806 0.0396989 0.122327
0.122847 0.0404526 0.0987163
-0.0995952 0.0453472 0.122469
-0.0851845 0.0459731 0.103379
-0.121707 0.0536967 -0.0839025
-0.102317 0.0535247 -0.0839158
-0.0850464 0.0543583 -0.108909
-0.120381 0.0494909 0.122484
0.103057 0.0561975 -0.0840528
0.116552 0.0560673 -0.0840615
0.122978 0.0569795 -0.106753
0.0878614 0.0512805 0.122343
-0.0850464 0.0732655 -0.108909
0.110806 0.0586031 0.122327
0.122847 0.0597158 0.0987163
-0.0995951 0.0650634 0.122469
-0.0851845 0.0659614 0.103379
-0.121707 0.0770432 -0.0839025
-0.102317 0.0767962 -0.0839158
0.122978 0.075213 -0.106753
-0.120381 0.0692873 0.122484
0.0878614 0.0702733 0.122343
0.103057 0.0831723 -0.0840528
0.116552 0.0829796 -0.0840615
-0.121707 0.0957203 -0.0839025
-0.102317 0.0954135 -0.0839158
-0.0850464 0.0968995 -0.108909
0.110806 0.0775074 0.122327
0.122847 0.078979 0.0987163
-0.0851845 0.0859497 0.103379
0.103057 0.0966597 -0.0840528
0.116552 0.0964357 -0.0840615
-0.120381 0.0890837 0.122484
0.122978 0.102563 -0.106753
-0.0995952 0.0926661 0.122469
0.0878614 0.089266 0.122343
-0.0850464 0.115807 -0.108909
0.122847 0.0982422 0.0987163
0.122978 0.116238 -0.106753
-0.0851845 0.105938 0.103379
-0.121707 0.123736 -0.0839025
-0.102317 0.123339 -0.0839158
0.110806 0.100192 0.122327
-0.120381 0.10888 0.122484
0.103057 0.123635 -0.0840528
0.116552 0.123348 -0.0840615
-0.0851904 0.112691 0.116071
0.0878614 0.108259 0.122343
-0.0850464 0.144168 -0.108909
0.122847 0.117505 0.0987163
0.116552 0.136804 -0.0840615
-0.0851845 0.125926 0.103379
-0.121707 0.147082 -0.0839025
-0.102317 0.146611 -0.0839158
0.110806 0.119097 0.122327
0.122978 0.143588 -0.106753
-0.120381 0.128677 0.122484
0.103057 0.146114 -0.0840528
-0.0995952 0.136042 0.122469
-0.0850464 0.163075 -0.108909
0.0878614 0.13105 0.122343
-0.121707 0.165759 -0.0839025
-0.102317 0.165228 -0.0839158
-0.0851845 0.145915 0.103379
0.110806 0.138001 0.122327
0.122847 0.140621 0.0987163
0.116552 0.163717 -0.0840615
0.122978 0.16638 -0.106753
-0.120381 0.148473 0.122484
0.103057 0.173088 -0.0840528
-0.0995952 0.155758 0.122469
-0.0850464 0.186709 -0.108909
0.0878614 0.150043 0.122343
-0.0851845 0.165903 0.103379
-0.121707 0.193775 -0.0839025
-0.102317 0.193154 -0.0839158
0.122847 0.159884 0.0987163
0.103057 0.186576 -0.0840528
0.116552 0.186143 -0.0840615
-0.120381 0.168269 0.122484
0.110806 0.160686 0.122327
0.122978 0.19373 -0.106753
-0.0850464 0.205616 -0.108909
-0.0995952 0.175474 0.122469
-0.102317 0.207117 -0.0839158
0.0878614 0.169036 0.122343
-0.0851845 0.185891 0.103379
-0.121707 0.217122 -0.0839025
0.122847 0.179148 0.0987163
-0.120381 0.188066 0.122484
0.110806 0.17959 0.122327
0.103057 0.213551 -0.0840528
0.116552 0.213056 -0.0840615
0.122978 0.216522 -0.106753
-0.102317 0.225734 -0.0839158
-0.0995952 0.19519 0.122469
-0.0850464 0.233977 -0.108909
0.0878614 0.188028 0.122343
-0.121707 0.235799 -0.0839025
0.116552 0.226512 -0.0840615
-0.0851845 0.20588 0.103379
0.122847 0.198411 0.0987163
-0.120381 0.207862 0.122484
0.110806 0.198494 0.122327
0.103057 0.23603 -0.0840528
-0.0850464 0.252884 -0.108909
0.122978 0.243872 -0.106753
-0.102317 0.25366 -0.0839158
0.0878614 0.21082 0.122343
-0.0995952 0.222793 0.122469
-0.0851845 0.225868 0.103379
-0.121707 0.263814 -0.0839025
-0.0850464 0.267064 -0.108909
0.122847 0.217674 0.0987163
0.116552 0.253424 -0.0840615
-0.120381 0.227658 0.122484
-0.0850541 0.272959 -0.0911969
0.110806 0.22118 0.122327
0.103057 0.263004 -0.0840528
0.122978 0.266664 -0.106753
0.116552 0.26688 -0.0840615
-0.0850464 0.285972 -0.108909
0.0878614 0.229813 0.122343
-0.0995952 0.242509 0.122469
-0.0851845 0.245856 0.103379
-0.121707 0.287161 -0.0839025
-0.102317 0.28624 -0.0839158
0.103057 0.276492 -0.0840528
-0.0668674 0.295643 -0.11402
-0.0530381 0.295643 -0.117136
-0.0345991 0.295643 -0.121292
0.122847 0.24079 0.0987163
-0.120381 0.251414 0.122484
-0.0842864 0.295644 -0.0884129
-0.0570634 0.295644 -0.0945476
-0.0434519 0.295644 -0.097615
-0.0162288 0.295644 -0.10375
0.00645691 0.295644 -0.108862
0.0336799 0.295644 -0.114997
0.110806 0.240084 0.122327
-0.1235 0.295645 -0.0585685
-0.0966987 0.295645 -0.0646073
-0.0832981 0.295645 -0.0676266
-0.056497 0.295644 -0.0736659
-0.0430965 0.295644 -0.0766858
-0.0162955 0.295644 -0.0827254
0.00603864 0.295644 -0.0877582
0.0328396 0.295644 -0.0937979
0.0462402 0.295644 -0.0968177
0.122978 0.294014 -0.106753
-0.121928 0.295646 -0.038555
-0.0999348 0.295646 -0.0435108
-0.08234 0.295645 -0.047475
-0.0603466 0.295645 -0.0524305
-0.0383534 0.295645 -0.0573865
-0.0207587 0.295645 -0.0613514
0.00123453 0.295645 -0.0663074
0.0188291 0.295645 -0.0702724
0.0496196 0.295645 -0.0772111
0.0878614 0.248805 0.122343
0.116552 0.293793 -0.0840615
-0.0851904 0.262945 0.116071
-0.0851845 0.265844 0.103379
-0.116071 0.295647 -0.0201197
-0.0770783 0.295646 -0.0289056
-0.0640806 0.295646 -0.0318341
-0.0337528 0.295646 -0.0386677
-0.00342518 0.295646 -0.0455021
0.0225699 0.295646 -0.05136
0.0355674 0.295646 -0.0542891
0.104888 0.295646 -0.0699105
-0.110388 0.295647 -0.00223053
-0.0890459 0.295647 -0.00703919
-0.0719723 0.295647 -0.0108862
-0.0420937 0.295647 -0.0176184
-0.0207519 0.295647 -0.0224273
0.000589818 0.295647 -0.0272367
0.0176631 0.295647 -0.0310841
0.122847 0.260053 0.0987163
0.107298 0.295647 -0.0512835
-0.120381 0.271211 0.122484
-0.10487 0.295648 0.0151365
-0.0838397 0.295648 0.010398
-0.0543973 0.295648 0.00376391
-0.0333669 0.295648 -0.000974536
-0.0039244 0.295647 -0.00760853
0.0255178 0.295647 -0.0142435
0.0465479 0.295647 -0.0189826
0.110806 0.258988 0.122327
0.109638 0.295647 -0.0332003
0.12536 0.297956 -0.0465559
-0.0787835 0.295649 0.0273333
-0.0622012 0.295648 0.0235971
-0.0414734 0.295648 0.0189267
-0.0124545 0.295648 0.0123881
0.00827333 0.295648 0.00771785
0.0497285 0.295648 -0.00162411
0.125385 0.311535 -0.085219
-0.0943046 0.29565 0.0483927
-0.0534367 0.295649 0.0391842
-0.0248293 0.295649 0.0327387
-0.00439551 0.295649 0.0281345
0.036472 0.295649 0.0189257
0.0650791 0.295649 0.0124791
0.0878614 0.267798 0.122343
0.11412 0.295649 0.00142753
0.125337 0.297832 -0.0101178
-0.0851904 0.282716 0.116071
-0.0851845 0.285833 0.103379
-0.0690951 0.29565 0.0597835
-0.048947 0.29565 0.0552436
-0.0287989 0.29565 0.0507038
-0.00865081 0.29565 0.046164
0.0195565 0.295649 0.0398084
0.0397045 0.295649 0.0352685
0.0598524 0.295649 0.0307281
0.116267 0.295649 0.018015
-0.0843217 0.295651 0.0798144
-0.0644514 0.295651 0.0753369
-0.0247109 0.29565 0.0663828
0.0150296 0.29565 0.0574285
0.0627179 0.29565 0.0466831
0.122847 0.279316 0.0987163
-0.120381 0.291007 0.122484
-0.044254 0.295651 0.0869346
0.00278586 0.295651 0.0763357
0.0459056 0.29565 0.0666198
0.110806 0.277892 0.122327
0.120385 0.29565 0.0498363
0.12536 0.319705 -0.0465559
0.125385 0.329465 -0.085219
-0.0748748 0.295652 0.109549
-0.0245988 0.295652 0.0982208
0.0256771 0.295651 0.0868927
0.0759528 0.295651 0.0755644
0.122361 0.295651 0.0651063
-0.0819892 0.295823 0.125793
-0.0512581 0.295653 0.119527
-0.0321772 0.295652 0.115227
-0.00164798 0.295652 0.108348
0.047962 0.295652 0.09717
0.125337 0.318955 -0.0101178
-0.0094274 0.295653 0.125
0.0207029 0.295653 0.118211
0.0696644 0.295652 0.107179
0.0878614 0.290589 0.122343
0.125274 0.2975 0.0876155
-0.106714 0.305139 0.125809
0.0381229 0.296475 0.125712
0.124266 0.295652 0.10939
0.125315 0.318248 0.0242823
0.12536 0.341454 -0.0465559
0.125385 0.351878 -0.085219
0.1075 0.299869 0.125666
-0.0943214 0.316181 0.125801
0.0653357 0.306261 0.125694
0.125337 0.340078 -0.0101178
-0.0252205 0.315762 0.125755
0.125294 0.325568 0.0568105
-0.073801 0.322729 0.125787
0.0342108 0.315852 0.125715
0.0459286 0.315105 0.125707
0.125274 0.320833 0.0876155
0.125315 0.33878 0.0242823
0.12536 0.358852 -0.0465559
0.125385 0.369808 -0.085219
-0.123331 0.329833 0.125821
-0.0534453 0.325329 0.125774
-0.00525251 0.326082 0.125741
0.0145573 0.324791 0.125728
0.0960724 0.319474 0.125673
0.115089 0.318234 0.125661
-0.0943214 0.335819 0.125801
0.0653357 0.325283 0.125694
0.125337 0.361201 -0.0101178
-0.0252205 0.335133 0.125755
0.125294 0.345541 0.0568105
0.125385 0.387738 -0.085219
0.0145573 0.336321 0.125728
0.0263681 0.335524 0.12572
0.125274 0.340278 0.0876155
0.125315 0.359312 0.0242823
0.12536 0.380601 -0.0465559
-0.123331 0.349584 0.125821
-0.073801 0.346201 0.125787
0.125255 0.335286 0.116831
-0.00525251 0.345377 0.125741
0.0960724 0.338378 0.125673
0.125337 0.378099 -0.0101178
-0.0943214 0.355458 0.125801
-0.0534453 0.352603 0.125774
0.0459286 0.345661 0.125707
0.125294 0.365515 0.0568105
0.12536 0.398 -0.0465559
0.125385 0.410151 -0.085219
0.0145573 0.35554 0.125728
0.0845912 0.35054 0.125681
0.125274 0.359722 0.0876155
0.125315 0.379844 0.0242823
-0.123331 0.369334 0.125821
-0.073801 0.36576 0.125787
-0.0252205 0.366129 0.125755
0.125337 0.399222 -0.0101178
-0.0943214 0.375096 0.125801
0.0263681 0.3662 0.12572
0.0960724 0.361062 0.125673
0.115089 0.359661 0.125661
0.125385 0.428081 -0.085219
-0.0534453 0.375979 0.125774
0.125294 0.385488 0.0568105
0.12536 0.419749 -0.0465559
-0.00525251 0.376249 0.125741
0.0845912 0.369488 0.125681
0.125274 0.379167 0.0876155
0.125315 0.400376 0.0242823
-0.123331 0.389085 0.125821
-0.073801 0.385319 0.125787
0.0459286 0.376217 0.125707
-0.0252205 0.3855 0.125755
0.125337 0.420345 -0.0101178
0.0145573 0.386289 0.125728
0.0263681 0.385373 0.12572
0.0960724 0.379966 0.125673
0.115089 0.378491 0.125661
0.125385 0.450494 -0.085219
-0.0534453 0.39546 0.125774
0.0653357 0.386155 0.125694
0.125294 0.405462 0.0568105
0.12536 0.441497 -0.0465559
-0.0943214 0.40259 0.125801
-0.00525251 0.395544 0.125741
0.125274 0.398611 0.0876155
0.125315 0.420908 0.0242823
-0.123331 0.408835 0.125821
0.0459286 0.395314 0.125707
0.125255 0.395903 0.116831
0.125337 0.441468 -0.0101178
0.125385 0.468424 -0.085219
-0.073801 0.412702 0.125787
0.0145573 0.405508 0.125728
0.0960724 0.39887 0.125673
0.12536 0.458896 -0.0465559
-0.0252205 0.412621 0.125755
0.0653357 0.405177 0.125694
0.125294 0.425435 0.0568105
0.125274 0.418056 0.0876155
0.125315 0.44144 0.0242823
-0.123331 0.428586 0.125821
-0.0943214 0.426157 0.125801
-0.0534453 0.422733 0.125774
0.0263681 0.41605 0.12572
0.125337 0.458366 -0.0101178
-0.00525251 0.422557 0.125741
0.0960724 0.417774 0.125673
-0.073801 0.436174 0.125787
0.0459286 0.42587 0.125707
0.115089 0.419918 0.125661
0.125294 0.445409 0.0568105
0.125315 0.457866 0.0242823
-0.0252205 0.435867 0.125755
0.125274 0.4375 0.0876155
-0.123331 0.448336 0.125821
-0.0943214 0.445795 0.125801
0.0145573 0.436257 0.125728
0.0263681 0.435222 0.12572
0.0845912 0.430122 0.125681
-0.0534453 0.44611 0.125774
-0.00525251 0.44571 0.125741
-0.073801 0.455733 0.125787
0.0960724 0.440458 0.125673
0.115089 0.438748 0.125661
0.125294 0.465382 0.0568105
-0.0252205 0.455239 0.125755
-0.123331 0.468087 0.125821
-0.0943214 0.465434 0.125801
0.0145573 0.455475 0.125728
0.0459286 0.452606 0.125707
0.0845912 0.44907 0.125681
0.125274 0.460833 0.0876155
-0.0534453 0.465591 0.125774
