ply
format ascii 1.0
comment Created by Open3D
element vertex 915
property double x
property double y
property double z
end_header
-0.21778 -0.220669 -0.195796
-0.204697 -0.22006 -0.199263
-0.226421 -0.220177 -0.183985
-0.182472 -0.218274 -0.205169
-0.226365 -0.221431 -0.163977
-0.159697 -0.216444 -0.21122
-0.226488 -0.22028 -0.143272
-0.133979 -0.214841 -0.218045
-0.224417 -0.202257 -0.1944
-0.226431 -0.221605 -0.121035
-0.111621 -0.213065 -0.222746
-0.204865 -0.202256 -0.199564
-0.184882 -0.202255 -0.204842
-0.0884445 -0.211345 -0.227317
-0.227774 -0.202263 -0.166855
-0.226563 -0.220393 -0.0979652
-0.0646057 -0.209577 -0.232018
-0.21931 -0.184348 -0.225336
-0.226618 -0.220106 -0.0796862
-0.145961 -0.197406 -0.215217
-0.201516 -0.183516 -0.232444
-0.227934 -0.200614 -0.14633
-0.0400754 -0.207757 -0.236856
-0.183471 -0.182673 -0.239653
-0.22656 -0.221534 -0.0537271
-0.162992 -0.182028 -0.247599
-0.234298 -0.17956 -0.208834
-0.227917 -0.201389 -0.124293
-0.0168928 -0.205868 -0.240483
-0.144392 -0.181161 -0.255028
-0.226617 -0.221257 -0.0334691
-0.00477892 -0.205009 -0.242072
-0.232942 -0.179548 -0.192083
-0.115271 -0.179472 -0.263775
-0.227991 -0.201118 -0.0951939
-0.226678 -0.220968 -0.0122712
0.0200323 -0.203252 -0.245324
-0.0674713 -0.192426 -0.231702
-0.101087 -0.178698 -0.267379
-0.229343 -0.180923 -0.170058
-0.227983 -0.201533 -0.0828781
-0.0457615 -0.192485 -0.23596
-0.226741 -0.220665 0.00993353
0.0456534 -0.201437 -0.248683
-0.0745964 -0.176824 -0.274264
-0.229364 -0.181147 -0.149356
-0.228069 -0.200828 -0.0639578
-0.226711 -0.221451 0.0255303
-0.233745 -0.160965 -0.22573
0.248432 -0.22214 -0.271281
0.0687675 -0.199149 -0.251714
-0.0473133 -0.174895 -0.281354
-0.171413 -0.162478 -0.252254
-0.192919 -0.161345 -0.242629
-0.229387 -0.181383 -0.127517
-0.22816 -0.200091 -0.0441906
-0.226778 -0.221147 0.0495914
0.268674 -0.22227 -0.271311
-0.0343106 -0.17391 -0.284327
-0.136705 -0.16249 -0.26628
-0.23895 -0.160789 -0.204036
-0.228048 -0.202143 -0.02299
0.289485 -0.222403 -0.271343
0.243896 -0.219882 -0.251778
0.0943018 -0.197359 -0.253412
-0.115846 -0.162338 -0.271323
-0.229498 -0.180298 -0.110543
-0.226848 -0.220828 0.074873
0.244127 -0.221264 -0.231646
0.109303 -0.19669 -0.254408
-0.00870889 -0.17221 -0.288242
-0.0942732 -0.162254 -0.276281
-0.229424 -0.181762 -0.0924097
-0.228142 -0.201402 -0.00132054
-0.226818 -0.221672 0.0926824
0.244367 -0.222702 -0.210693
0.136299 -0.194805 -0.256203
0.0146765 -0.170081 -0.291942
-0.22945 -0.182033 -0.0672786
-0.228129 -0.202348 0.0296035
-0.227027 -0.219292 0.110407
0.0298002 -0.169362 -0.294193
-0.206045 -0.147397 -0.239959
-0.229063 -0.161774 -0.154015
-0.229464 -0.182175 -0.0541486
-0.226999 -0.220138 0.129489
0.248431 -0.201814 -0.271281
0.160224 -0.192341 -0.257798
-0.0681961 -0.155543 -0.283638
-0.228345 -0.199812 0.0452171
-0.226971 -0.221015 0.149274
0.273823 -0.202362 -0.271319
0.240527 -0.201923 -0.250731
0.17724 -0.191766 -0.258434
0.0543898 -0.167135 -0.298081
-0.234044 -0.141254 -0.230641
-0.240407 -0.149907 -0.182814
-0.229251 -0.16138 -0.132805
-0.229493 -0.182472 -0.0266724
-0.228226 -0.202065 0.0709042
0.294779 -0.202216 -0.271351
0.0676714 -0.166194 -0.299532
-0.188895 -0.141842 -0.248043
-0.245507 -0.140312 -0.217084
-0.227193 -0.218492 0.168993
0.200165 -0.189188 -0.258496
-0.140617 -0.142303 -0.267831
-0.157809 -0.14108 -0.262393
-0.229449 -0.160966 -0.110431
-0.229716 -0.179789 -0.0128299
-0.228453 -0.199415 0.0878737
-0.227167 -0.21937 0.190272
0.0893289 -0.163848 -0.300809
-0.010646 -0.152293 -0.293078
-0.115217 -0.142309 -0.273947
-0.228977 -0.162233 -0.0913753
-0.229638 -0.181416 0.00986838
-0.228451 -0.19989 0.106124
0.0107927 -0.152301 -0.295308
-0.032132 -0.147493 -0.291575
-0.0890279 -0.142314 -0.280254
-0.229656 -0.18156 0.0254298
-0.22845 -0.200382 0.125032
0.237074 -0.18337 -0.269039
0.115649 -0.161906 -0.302237
0.0353283 -0.152432 -0.298599
-0.0744957 -0.141274 -0.283883
-0.229177 -0.161821 -0.0666226
-0.237159 -0.141209 -0.160629
-0.229282 -0.161606 -0.0537024
-0.229795 -0.180272 0.0494344
-0.228571 -0.199471 0.154314
0.279007 -0.182316 -0.271327
0.143003 -0.159888 -0.303722
-0.210485 -0.127435 -0.243324
-0.246343 -0.131657 -0.19515
-0.229713 -0.182023 0.0753168
-0.228571 -0.199978 0.175012
-0.0498191 -0.136467 -0.290155
-0.245521 -0.131658 -0.183532
-0.237571 -0.140274 -0.13996
-0.2295 -0.161157 -0.0266919
0.167921 -0.157478 -0.304648
0.0708995 -0.146288 -0.302946
-0.234106 -0.121925 -0.235054
-0.237301 -0.141026 -0.122383
-0.229614 -0.160922 -0.0125659
-0.229755 -0.182359 0.111528
0.258483 -0.171039 -0.271296
-0.183513 -0.122355 -0.255105
-0.251103 -0.120605 -0.219128
-0.22909 -0.162341 0.0113346
0.192281 -0.155143 -0.303615
-0.144485 -0.122346 -0.269363
-0.163711 -0.121152 -0.263344
-0.237722 -0.140047 -0.0995826
-0.229203 -0.162114 0.0266678
-0.230017 -0.179264 0.12987
0.00710785 -0.132472 -0.298502
-0.114592 -0.122397 -0.276556
-0.237442 -0.140833 -0.0801517
-0.230045 -0.179387 0.149631
0.217606 -0.152716 -0.302541
0.127746 -0.142328 -0.305436
0.11182 -0.140647 -0.304961
0.0313025 -0.13225 -0.301908
-0.0225401 -0.127446 -0.294835
-0.0835953 -0.12245 -0.284015
-0.237147 -0.141656 -0.0597894
-0.230108 -0.159905 0.0485503
-0.228755 -0.163413 0.0693802
-0.230073 -0.179515 0.170131
0.284228 -0.162129 -0.271335
0.151841 -0.142205 -0.306519
0.0912806 -0.135843 -0.305229
0.0499932 -0.131479 -0.304521
-0.233445 -0.179247 0.191171
-0.231008 -0.184385 0.22195
0.243957 -0.150191 -0.301424
-0.244122 -0.120259 -0.159821
-0.237597 -0.140619 -0.0333189
-0.229691 -0.161133 0.0932336
-0.059467 -0.117369 -0.290454
-0.252117 -0.111431 -0.197483
-0.245235 -0.120854 -0.140424
-0.23729 -0.141483 -0.0106339
-0.229108 -0.162724 0.123008
0.17953 -0.137308 -0.305886
0.071004 -0.126204 -0.305793
-0.0376179 -0.11688 -0.293736
-0.202529 -0.106514 -0.250109
-0.244724 -0.122243 -0.116108
-0.236968 -0.142392 0.0132292
-0.229235 -0.162477 0.142162
0.270623 -0.14499 -0.297727
0.199834 -0.136852 -0.304724
-0.243473 -0.10249 -0.235404
-0.245034 -0.121503 -0.104761
-0.237205 -0.141849 0.0285354
-0.229365 -0.162222 0.162013
-0.224097 -0.101389 -0.242213
-0.256473 -0.101272 -0.220862
-0.252264 -0.10716 -0.182805
-0.228084 -0.161233 0.176594
0.289847 -0.142234 -0.289697
-0.152625 -0.102378 -0.269592
-0.183411 -0.100943 -0.258699
-0.24525 -0.121077 -0.0734891
-0.237703 -0.14071 0.0606577
-0.239495 -0.160737 0.204001
-0.240569 -0.16337 0.223415
0.235862 -0.132326 -0.303283
0.135749 -0.122125 -0.308649
0.115558 -0.120289 -0.308129
0.023214 -0.112315 -0.302684
-0.116252 -0.102471 -0.278527
-0.245142 -0.121428 -0.0529347
-0.237965 -0.140112 0.0775239
0.161942 -0.12199 -0.308553
0.103678 -0.116694 -0.307863
0.0519116 -0.112166 -0.305937
-0.00994682 -0.107447 -0.29851
-0.0806123 -0.102438 -0.287205
-0.0975372 -0.10141 -0.283229
-0.24503 -0.121796 -0.031369
0.224174 -0.125546 -0.304421
-0.248975 -0.101834 -0.159846
-0.244912 -0.122182 -0.00871563
-0.239114 -0.137292 0.101609
-0.237276 -0.142085 0.136598
-0.245265 -0.121343 0.0058043
0.269215 -0.124668 -0.298538
0.196482 -0.117328 -0.306814
0.175692 -0.115336 -0.308344
0.0840531 -0.107494 -0.307649
-0.0531203 -0.0974217 -0.293427
-0.253524 -0.0998673 -0.136878
-0.252858 -0.101605 -0.123582
-0.245148 -0.121734 0.0303893
-0.234973 -0.14092 0.175221
-0.0281209 -0.0968569 -0.29698
-0.256451 -0.0917852 -0.18173
-0.24552 -0.120851 0.046161
-0.240037 -0.135173 0.158381
-0.245205 -0.140723 0.206861
-0.246352 -0.143036 0.226375
-0.253353 -0.100467 -0.0939424
-0.245405 -0.121246 0.0729349
-0.244373 -0.123944 0.0946063
0.232887 -0.112377 -0.305055
0.113891 -0.10229 -0.309299
-0.224049 -0.0824868 -0.246224
-0.243513 -0.0816759 -0.23979
-0.262599 -0.0808807 -0.233481
-0.253438 -0.100327 -0.0745019
-0.244218 -0.124448 0.124164
-0.246424 -0.132144 0.191065
0.145606 -0.102099 -0.310671
0.125454 -0.100603 -0.309916
0.012232 -0.0924947 -0.303044
-0.178917 -0.0820511 -0.263173
-0.261285 -0.0814389 -0.212117
-0.253527 -0.10018 -0.0541352
0.302335 -0.11432 -0.285624
0.0467505 -0.092345 -0.307082
0.0272042 -0.09105 -0.305277
-0.124499 -0.0824378 -0.278404
-0.142725 -0.0815337 -0.274008
-0.253621 -0.100027 -0.0327734
-0.246102 -0.11973 0.138213
-0.00898087 -0.0864899 -0.30065
-0.0797095 -0.0824377 -0.289417
-0.0989206 -0.0815097 -0.284781
-0.198864 -0.0772024 -0.255888
-0.257596 -0.0835232 -0.15767
-0.253337 -0.100866 -0.00141877
-0.246534 -0.118712 0.157705
0.269631 -0.104662 -0.298299
0.247666 -0.102343 -0.305129
0.214871 -0.0997493 -0.307134
0.183983 -0.0973236 -0.308859
-0.0595681 -0.0812509 -0.293669
-0.163007 -0.0763017 -0.269518
-0.236342 -0.0810683 -0.174367
-0.25343 -0.100721 0.0226364
-0.250952 -0.120723 0.209544
0.082287 -0.0874656 -0.308955
-0.261 -0.0809232 -0.13736
-0.260468 -0.0823214 -0.124168
-0.253929 -0.0995172 0.0380616
-0.254043 -0.099329 0.0642272
-0.251904 -0.104959 0.118922
-0.251626 -0.111495 0.183936
-0.0296038 -0.0761126 -0.298363
-0.261496 -0.0724335 -0.177401
-0.261235 -0.080494 -0.0947716
-0.252427 -0.103704 0.137645
0.11981 -0.0823133 -0.310934
-0.260937 -0.0813846 -0.0600994
-0.255524 -0.0956657 0.0874245
-0.25297 -0.102404 0.157036
-0.255508 -0.109027 0.228905
0.158432 -0.0822088 -0.310845
0.139495 -0.0809273 -0.311881
-0.261208 -0.0807801 -0.0391592
-0.260612 -0.0823538 -0.0223736
0.099986 -0.0760829 -0.310506
0.0349086 -0.0723757 -0.307785
0.00457096 -0.0708994 -0.303674
-0.214316 -0.0620491 -0.253685
-0.23363 -0.061489 -0.246781
-0.258223 -0.0607759 -0.237991
-0.266606 -0.0623965 -0.213966
-0.260886 -0.0817465 0.000463128
-0.256179 -0.0999055 0.202145
0.295533 -0.0868649 -0.289493
0.223997 -0.0811279 -0.307448
0.0591949 -0.0713232 -0.309006
-0.139421 -0.0624425 -0.276636
-0.17259 -0.0611849 -0.268599
-0.261485 -0.0802855 0.0150966
0.256646 -0.0806102 -0.302842
0.197602 -0.0767512 -0.30902
0.182402 -0.07582 -0.309858
-0.0811638 -0.0624424 -0.290961
-0.0979269 -0.0618285 -0.286897
-0.119001 -0.0610568 -0.281788
-0.242117 -0.0628099 -0.176331
-0.261157 -0.0812904 0.0598706
-0.259797 -0.0848994 0.102522
0.281538 -0.0798138 -0.294453
0.0769471 -0.0673771 -0.310029
-0.0498875 -0.0615274 -0.296404
-0.192979 -0.0564558 -0.261911
-0.260951 -0.0608834 -0.159965
-0.268567 -0.0617253 -0.144215
-0.259916 -0.0916588 0.224478
-0.268577 -0.0618176 -0.113859
-0.262781 -0.0772619 0.0827505
-0.257699 -0.0845125 0.173436
-0.268588 -0.0619174 -0.0810199
-0.262826 -0.0773028 0.122683
-0.260006 -0.0822832 0.18797
0.129732 -0.0624067 -0.312737
-0.0252519 -0.0557337 -0.300369
-0.268246 -0.0515521 -0.19275
-0.269029 -0.0608774 -0.0612183
-0.26321 -0.0764478 0.15352
0.238905 -0.0653318 -0.307338
0.161759 -0.0614374 -0.311555
-0.269278 -0.0603599 -0.0322377
-0.268613 -0.0621439 -0.00656617
-0.267413 -0.0653639 0.0397702
0.222488 -0.0617506 -0.308352
0.109934 -0.0564693 -0.312077
0.0121994 -0.0524907 -0.306022
-0.269322 -0.0604044 0.00776118
0.279588 -0.0622467 -0.29557
0.186034 -0.0573156 -0.310456
0.0653455 -0.0521766 -0.310091
0.0546858 -0.051752 -0.309591
0.0270905 -0.0506526 -0.308296
-0.270083 -0.0424914 -0.235484
-0.269131 -0.0610935 0.0616351
-0.264501 -0.0703624 0.206837
-0.265558 -0.0716178 0.227657
-0.00866789 -0.0471327 -0.303356
-0.171279 -0.0424687 -0.270329
-0.209454 -0.041682 -0.257402
-0.228801 -0.041306 -0.250469
-0.253437 -0.0408272 -0.241641
-0.247258 -0.0449241 -0.177091
-0.273105 -0.0411138 -0.223364
0.25817 -0.0552636 -0.301958
-0.0874115 -0.0424608 -0.291324
-0.113288 -0.0418192 -0.284933
-0.133851 -0.0413121 -0.279804
-0.270926 -0.0566343 0.0844659
-0.270698 -0.0572539 0.0952445
-0.269733 -0.0598739 0.140825
0.0942486 -0.0458706 -0.311751
-0.0483708 -0.041362 -0.297985
-0.069945 -0.040734 -0.294898
-0.267253 -0.0405207 -0.163785
-0.276461 -0.0417638 -0.134354
-0.273177 -0.0507225 0.0300572
-0.271293 -0.0558581 0.124306
-0.266253 -0.0594721 0.188088
-0.154101 -0.0366126 -0.275033
-0.188085 -0.0359063 -0.265657
-0.276913 -0.0407118 -0.110337
-0.276379 -0.0421739 -0.0819483
0.239783 -0.0459247 -0.306822
0.142166 -0.0424263 -0.312963
-0.02641 -0.0374458 -0.301435
-0.276997 -0.0406847 -0.0623201
-0.276434 -0.0422367 -0.0303342
0.221003 -0.0424533 -0.309243
0.1657 -0.0406294 -0.311879
-0.276948 -0.0410554 0.000624657
-0.270132 -0.0506772 0.209601
-0.271284 -0.0515816 0.23047
0.27866 -0.0419312 -0.296101
0.120393 -0.0366374 -0.313398
-0.272939 -0.0310246 -0.177333
-0.277047 -0.041048 0.0633862
-0.276051 -0.0438213 0.128529
0.200186 -0.0363744 -0.310316
0.0537236 -0.0324403 -0.310336
0.0261946 -0.0317524 -0.309028
-0.27764 -0.0396911 0.101367
-0.276991 -0.0415099 0.147293
0.25936 -0.03548 -0.301268
0.240138 -0.0348079 -0.306613
0.0714179 -0.0304432 -0.311277
-0.271221 -0.0398023 0.180983
0.00748354 -0.0266854 -0.307079
-0.0129051 -0.0263171 -0.304143
-0.2808 -0.0314161 0.0318625
0.100692 -0.026135 -0.312874
-0.111894 -0.0224971 -0.286574
-0.127929 -0.0222845 -0.282562
-0.163468 -0.0218135 -0.273671
-0.208501 -0.0212987 -0.259712
-0.227812 -0.021107 -0.252775
-0.248656 -0.0209001 -0.245287
-0.269095 -0.0206972 -0.237944
-0.278092 -0.0212051 -0.215138
-0.27721 -0.0215906 -0.203104
-0.0438349 -0.0212785 -0.299694
-0.0627462 -0.0209993 -0.296863
-0.0837601 -0.020689 -0.293716
-0.274102 -0.0206839 -0.16359
-0.284568 -0.0212119 -0.137296
-0.284446 -0.0215708 -0.124379
-0.28419 -0.0223262 -0.0971861
-0.282482 -0.0273561 0.0838658
-0.275148 -0.0307601 0.202163
-0.276376 -0.0313037 0.222697
0.289668 -0.0248473 -0.292828
0.170067 -0.0223529 -0.311946
0.15099 -0.0220079 -0.31285
-0.178712 -0.0174882 -0.270132
-0.284907 -0.0206114 -0.0709702
-0.28465 -0.0213842 -0.0398586
-0.284444 -0.0220028 -0.0149497
-0.28531 -0.019898 0.0078389
-0.284678 -0.0218409 0.0965664
0.194632 -0.0174315 -0.31086
0.132371 -0.0165708 -0.313809
-0.285592 -0.0196806 0.136999
0.269055 -0.0157594 -0.298631
0.215039 -0.0149878 -0.309934
-0.287225 -0.015199 0.0471405
-0.286871 -0.0163795 0.120768
0.0704158 -0.0109407 -0.312028
0.0492836 -0.0107664 -0.310898
0.0321847 -0.0106253 -0.30998
-0.288368 -0.012249 0.0336556
-0.288187 -0.0129032 0.0835697
0.250156 -0.00984585 -0.303674
-0.279864 -0.00738115 -0.183168
-0.280067 -0.0112242 0.194866
-0.28137 -0.0114207 0.215075
0.114842 -0.00628208 -0.314376
0.0124278 -0.00581356 -0.30876
-0.00796247 -0.00573439 -0.305698
-0.259719 -0.00324323 -0.178633
0.278939 -0.00144642 -0.295941
0.174396 -0.00131903 -0.312055
0.145812 -0.00128864 -0.313403
-0.0390677 -0.00112247 -0.301206
-0.0580838 -0.00110771 -0.298348
-0.0792132 -0.00109131 -0.295173
-0.0989676 -0.00107736 -0.291251
-0.117512 -0.00106568 -0.286596
-0.153419 -0.00104306 -0.277582
-0.207531 -0.00101191 -0.261977
-0.22866 -0.00100211 -0.254252
-0.247516 -0.000993374 -0.247358
-0.267882 -0.000983935 -0.239912
-0.284288 -0.000990154 -0.2244
-0.28745 -0.00108486 -0.15705
-0.292506 -0.00111351 -0.133864
-0.292525 -0.00114194 -0.114287
-0.292551 -0.00118217 -0.0865743
-0.292565 -0.00120337 -0.0719725
-0.292595 -0.00124814 -0.0411398
-0.292611 -0.00127179 -0.0248469
-0.292636 -0.001309 0.000784397
-0.292729 -0.00145048 0.0982267
-0.292761 -0.00149909 0.131707
0.204219 0.00405182 -0.310728
-0.173122 0.0030907 -0.272912
-0.194017 0.00305327 -0.267195
-0.294856 0.00413005 0.0488986
-0.285575 0.00800953 0.197566
-0.286971 0.00814961 0.217806
0.252039 0.00987012 -0.302575
0.0772821 0.00855086 -0.312658
0.0559431 0.00841397 -0.311509
0.0352758 0.00828139 -0.310396
-0.296928 0.00944699 0.0316533
-0.29757 0.010622 0.14763
-0.285704 0.00918387 -0.202586
-0.284174 0.00952773 -0.177335
-0.298223 0.0125919 0.0666344
0.22052 0.0150542 -0.309533
0.123269 0.0139143 -0.314282
0.0955176 0.0136199 -0.313705
0.0151798 0.0128101 -0.309376
-0.00290769 0.0126472 -0.307183
-0.299214 0.0151564 0.0526864
0.278595 0.0187952 -0.296138
-0.0229517 0.0147429 -0.304254
-0.300719 0.0187839 0.0998756
0.179233 0.0198617 -0.311861
0.160042 0.0195578 -0.312669
-0.299964 0.017603 -0.0874379
-0.30011 0.0179164 -0.0729601
-0.300339 0.0184078 -0.0502505
-0.300581 0.018927 -0.0262598
-0.30075 0.0192898 -0.00949985
-0.300926 0.0196667 0.00791508
0.199089 0.0228672 -0.310991
-0.0425358 0.0190165 -0.301479
-0.0641027 0.0187322 -0.298226
-0.0850342 0.0184563 -0.295069
-0.11377 0.0181267 -0.288738
-0.143044 0.0178174 -0.28122
-0.291358 0.0182677 -0.161448
-0.300331 0.0187254 -0.136772
-0.300474 0.0190379 -0.124021
-0.303255 0.0251156 0.123961
-0.303382 0.0253951 0.135369
-0.292562 0.0276814 0.220532
0.141536 0.0244038 -0.313382
-0.198517 0.0192674 -0.266654
-0.217862 0.0190973 -0.259569
-0.242507 0.0188807 -0.250543
-0.262927 0.0187013 -0.243065
-0.288362 0.0184777 -0.23375
0.245408 0.0294432 -0.303515
-0.304349 0.0282401 0.033426
0.0805793 0.0281566 -0.313093
0.0591412 0.0277049 -0.311935
-0.162882 0.0238143 -0.276365
-0.184214 0.0235095 -0.270882
0.041757 0.0297147 -0.311028
-0.288872 0.0263241 -0.178024
-0.307095 0.035038 0.0743704
0.279826 0.0390969 -0.295434
0.119239 0.0340485 -0.314193
0.0988997 0.033504 -0.314149
-0.267711 0.0290867 -0.175771
-0.308647 0.0388641 0.101513
0.184533 0.0385717 -0.311398
0.155719 0.0376892 -0.312617
0.0214669 0.0339274 -0.309993
0.00208217 0.0334205 -0.308753
-0.0179903 0.0329694 -0.305718
-0.291809 0.0290124 -0.212174
-0.307963 0.0375253 0.000940502
0.230799 0.042888 -0.306299
-0.307974 0.0377547 -0.0514219
-0.308584 0.0391768 -0.0194287
-0.297997 0.0498404 0.210096
-0.299618 0.050715 0.230626
0.204626 0.0445955 -0.310479
-0.307845 0.0376361 -0.104791
-0.30841 0.0389604 -0.076781
-0.310459 0.0449898 0.0503839
0.246379 0.0491349 -0.302944
0.137388 0.0448144 -0.313294
-0.0375249 0.0392609 -0.302762
-0.0591371 0.0386799 -0.299392
-0.0775299 0.0381854 -0.296525
-0.0979831 0.0376355 -0.293337
-0.305681 0.0375827 -0.15218
-0.308258 0.0387707 -0.127052
-0.31218 0.0525597 0.146811
-0.118914 0.0392899 -0.288237
-0.143575 0.0387235 -0.281892
-0.192907 0.0375904 -0.269196
-0.311288 0.049146 0.0268207
-0.312618 0.054767 0.1323
0.0838901 0.0478474 -0.313531
-0.212782 0.039214 -0.262796
-0.233728 0.0388369 -0.255112
-0.254275 0.0384669 -0.247574
-0.278059 0.0380387 -0.238849
-0.295182 0.0381375 -0.225383
-0.312605 0.0550497 0.0850334
0.280873 0.0594478 -0.294834
0.0553588 0.0492313 -0.311958
0.0348228 0.0484653 -0.310759
0.12408 0.0544614 -0.313728
-0.163378 0.0444594 -0.277035
-0.302668 0.0684759 0.202769
0.189941 0.0601276 -0.310894
0.170412 0.0591992 -0.311725
-0.313087 0.0579804 0.000645936
0.233705 0.0652778 -0.304568
0.212348 0.0639995 -0.308667
0.00530213 0.0543025 -0.308932
-0.0125716 0.053612 -0.306808
-0.295172 0.0492425 -0.177326
-0.31293 0.0575478 -0.0435358
-0.314316 0.0635614 0.0454832
-0.314629 0.0649182 0.0655673
-0.315296 0.0678132 0.108422
-0.315837 0.0701598 0.143158
0.151586 0.0634916 -0.312459
-0.273367 0.0527147 -0.172913
-0.29691 0.0493628 -0.203881
-0.312908 0.0576759 -0.0761511
-0.313153 0.0587445 -0.0609719
0.264324 0.0728444 -0.298388
0.0986779 0.0632624 -0.314307
-0.312887 0.0577944 -0.106338
-0.315199 0.0679027 0.0316703
-0.0349891 0.0595377 -0.303387
-0.0539948 0.0587642 -0.300421
-0.0725133 0.0580105 -0.297532
-0.307572 0.0563919 -0.157626
-0.312868 0.0579044 -0.134357
-0.093124 0.0593271 -0.294341
-0.11259 0.0585608 -0.290604
-0.139628 0.0576386 -0.283635
-0.315417 0.0693029 -0.0173078
-0.317305 0.0776158 0.0880208
-0.3072 0.0867812 0.195806
0.129415 0.0725598 -0.312952
0.080515 0.0697718 -0.313141
0.0591878 0.0686655 -0.3119
0.0419251 0.06777 -0.310895
-0.189184 0.0579763 -0.270938
0.195619 0.0792225 -0.310249
0.176026 0.0780068 -0.311018
-0.207652 0.0593544 -0.26595
-0.234156 0.0586631 -0.255869
-0.252713 0.0581791 -0.248811
-0.272627 0.0576916 -0.240866
-0.300373 0.057599 -0.222951
-0.319451 0.0875515 0.139549
0.274044 0.0879507 -0.295755
0.23616 0.0850007 -0.303106
-0.159504 0.0631533 -0.27875
-0.277279 0.0655232 -0.171377
-0.317379 0.0785781 0.0033868
-0.318306 0.0826938 0.0504629
-0.318705 0.0844634 0.0707036
0.021913 0.0737658 -0.309626
0.00238872 0.0726463 -0.308491
0.152876 0.0843871 -0.311611
-0.300393 0.0675401 -0.179694
-0.317147 0.07791 -0.0584115
-0.31986 0.0938781 0.112541
0.103925 0.0835429 -0.313445
-0.301694 0.0675595 -0.199954
-0.317121 0.0779584 -0.0825589
-0.319231 0.087387 0.0157493
0.222819 0.095019 -0.305239
-0.0184925 0.0783647 -0.306169
-0.317097 0.0780042 -0.105334
-0.319801 0.0950017 0.0660781
-0.0379447 0.0795732 -0.303156
-0.0595325 0.0783965 -0.299784
-0.317074 0.0780474 -0.12685
-0.319233 0.0877357 -0.0314471
-0.319875 0.100069 0.088559
0.20395 0.0988646 -0.307999
0.13071 0.0931148 -0.312072
0.0845017 0.0896523 -0.313085
0.0560395 0.0877608 -0.311434
-0.0779256 0.0795714 -0.296936
-0.0983548 0.0784265 -0.293745
-0.314194 0.0778263 -0.151636
-0.32001 0.108013 0.13698
0.276268 0.108442 -0.294474
0.182327 0.0997524 -0.309906
-0.133213 0.0788538 -0.285679
-0.184549 0.0786256 -0.271369
-0.202939 0.0778128 -0.266046
-0.319719 0.0980022 -0.00561821
-0.319838 0.103563 0.0441723
0.261331 0.112745 -0.297149
0.158753 0.103136 -0.310635
0.100556 0.0982954 -0.312971
0.0355912 0.0935154 -0.310143
-0.227619 0.0789974 -0.256438
-0.247703 0.0784209 -0.247711
-0.269159 0.0778405 -0.238078
-0.305459 0.0776296 -0.215064
-0.320022 0.114003 0.111822
0.0156845 0.0944188 -0.308956
-0.0036599 0.0929922 -0.307835
-0.152637 0.0842678 -0.279981
-0.288065 0.0794445 -0.22825
-0.319652 0.0978201 -0.0504736
-0.31963 0.0982239 -0.0671701
-0.319852 0.10912 0.0233414
-0.319591 0.0976558 -0.0909638
-0.320032 0.119703 0.0878767
0.207066 0.118337 -0.30608
-0.0240322 0.0984463 -0.305235
-0.0350219 0.0977251 -0.303418
-0.319571 0.0980435 -0.106089
-0.320175 0.128618 0.136222
0.270618 0.12815 -0.294737
0.234102 0.124057 -0.301389
0.194684 0.119721 -0.307936
0.173903 0.117681 -0.30949
0.14566 0.115033 -0.310635
0.123077 0.112915 -0.311551
0.0812396 0.109075 -0.312608
-0.064317 0.0980218 -0.298441
-0.307779 0.0885522 -0.204999
-0.299811 0.0942495 -0.166391
-0.319535 0.0975069 -0.127696
0.0599194 0.109764 -0.31134
-0.0846491 0.0988842 -0.29466
-0.104521 0.0975609 -0.291064
-0.320015 0.1237 0.0541841
-0.320042 0.125136 0.0650593
-0.320191 0.132842 0.123454
-0.129694 0.0982362 -0.284702
-0.319882 0.118267 -0.00624269
0.03986 0.112929 -0.309637
-0.178186 0.0978816 -0.269379
-0.291742 0.0950695 -0.212012
-0.279963 0.102421 -0.16681
0.0201632 0.113614 -0.308156
-0.198127 0.0990131 -0.262321
-0.223184 0.0979384 -0.252792
-0.319828 0.118253 -0.0424706
-0.320025 0.128857 0.032909
-0.320197 0.138148 0.0989548
0.209759 0.135163 -0.304423
0.00114441 0.114304 -0.306624
-0.148146 0.103784 -0.277565
-0.242497 0.0995884 -0.242138
-0.261735 0.099195 -0.231702
-0.319803 0.118247 -0.0594839
-0.319014 0.145402 0.128778
0.250835 0.143057 -0.297354
-0.314406 0.107563 -0.152275
-0.319778 0.118241 -0.0758218
0.230826 0.143383 -0.300406
0.191999 0.138462 -0.306711
0.161592 0.135037 -0.308782
0.103508 0.128774 -0.310872
-0.258433 0.113513 -0.165062
-0.320034 0.133785 0.0125802
0.130076 0.134239 -0.309628
0.0759152 0.128404 -0.310797
-0.0190276 0.119574 -0.30368
-0.0380768 0.118105 -0.300269
-0.319733 0.11823 -0.106626
-0.318969 0.145191 0.0695906
0.267126 0.153847 -0.293765
0.0557259 0.129014 -0.308785
-0.0587182 0.118836 -0.295908
-0.319074 0.144481 0.04731
-0.0785457 0.119631 -0.291341
-0.0984264 0.118091 -0.287454
-0.279183 0.117908 -0.164861
-0.319709 0.119311 -0.128256
-0.320043 0.138498 -0.00686425
0.234515 0.155286 -0.29818
-0.119617 0.118714 -0.282519
-0.253765 0.117055 -0.20097
-0.238416 0.124822 -0.163311
-0.320012 0.138064 -0.0253322
-0.318928 0.145002 0.0169475
-0.316263 0.159372 0.104229
0.0372148 0.134637 -0.305926
-0.173867 0.117929 -0.263188
-0.251828 0.116918 -0.215974
0.251057 0.163434 -0.294232
0.0153101 0.134937 -0.303397
-0.193205 0.119221 -0.254708
-0.228468 0.118064 -0.237495
-0.316993 0.155168 0.0451961
0.200402 0.159157 -0.301435
0.171901 0.155238 -0.304975
0.108965 0.147572 -0.306991
-0.139477 0.124389 -0.273289
-0.220293 0.133924 -0.161868
-0.31995 0.138231 -0.068298
0.149827 0.155283 -0.304954
0.131928 0.153077 -0.305459
0.0893311 0.147828 -0.306662
-0.00500846 0.137792 -0.30012
-0.313128 0.175694 0.130055
0.0712853 0.14833 -0.30558
0.0407483 0.145095 -0.303079
-0.231447 0.129064 -0.207919
-0.259711 0.133635 -0.162569
-0.312301 0.129087 -0.152437
-0.314282 0.169366 0.0780531
-0.0325185 0.139971 -0.295013
-0.0533958 0.138206 -0.290596
-0.213954 0.128145 -0.23698
-0.201509 0.143357 -0.160372
-0.319894 0.138382 -0.107161
-0.318218 0.148118 -0.0538277
-0.312715 0.177648 0.10766
-0.0729404 0.138961 -0.285432
-0.316263 0.158498 -0.0112678
0.265166 0.183821 -0.285828
0.211205 0.175376 -0.294653
-0.0942456 0.139581 -0.279537
-0.113336 0.137995 -0.275066
-0.239812 0.143054 -0.161056
-0.278173 0.137972 -0.162336
-0.316418 0.157559 -0.0299943
0.254574 0.18531 -0.286073
0.0222651 0.153357 -0.297526
-0.318219 0.14781 -0.0940191
-0.313033 0.175582 0.0506155
0.23066 0.184599 -0.288536
0.192063 0.178361 -0.294887
-0.175279 0.139688 -0.246595
-0.313275 0.17418 0.029112
0.108486 0.169322 -0.298543
-0.133082 0.14382 -0.265138
-0.152685 0.143115 -0.255369
-0.190897 0.143478 -0.227329
-0.219104 0.152856 -0.159482
-0.313505 0.172842 0.00858063
-0.305868 0.196324 0.124877
0.13228 0.175485 -0.296392
0.0893366 0.169433 -0.297846
0.000752389 0.158688 -0.291985
-0.193891 0.160203 -0.151006
-0.318222 0.147531 -0.130497
-0.308349 0.19237 0.0913655
0.171151 0.183926 -0.293657
0.0709591 0.169611 -0.296985
-0.0190023 0.159046 -0.288473
0.150689 0.184006 -0.292547
-0.0398528 0.159501 -0.283445
-0.0578746 0.157843 -0.279315
-0.167331 0.152501 -0.230832
-0.258594 0.154192 -0.159981
-0.297673 0.148675 -0.160544
-0.314138 0.169167 -0.0477975
-0.312541 0.177696 -0.00665396
0.211355 0.197229 -0.282453
0.0508927 0.172792 -0.291893
-0.0788103 0.158621 -0.272271
-0.11122 0.156117 -0.262308
-0.314332 0.168043 -0.0650316
-0.305248 0.197174 0.0709578
0.265504 0.21095 -0.266946
0.232811 0.204649 -0.274895
0.0296609 0.172983 -0.288235
-0.144004 0.157583 -0.243467
0.250769 0.211837 -0.266652
0.16428 0.195237 -0.286241
-0.238583 0.164064 -0.15841
-0.279474 0.157859 -0.159872
-0.314341 0.167824 -0.0886961
-0.309845 0.189855 0.0128066
0.108175 0.189613 -0.286776
-0.305656 0.196443 0.0285236
-0.30226 0.201803 0.0513002
0.183842 0.205743 -0.275981
0.144421 0.198647 -0.281774
0.0897251 0.189732 -0.285512
0.00130665 0.178019 -0.279084
-0.119024 0.168667 -0.23991
-0.314349 0.167617 -0.111033
0.0687774 0.189557 -0.283576
-0.019891 0.17844 -0.273546
-0.0492176 0.175453 -0.267086
-0.0912129 0.172382 -0.252336
-0.206293 0.177672 -0.149434
0.0423224 0.189398 -0.277476
-0.0715318 0.176514 -0.257491
-0.0976075 0.177563 -0.234921
-0.314231 0.167527 -0.131762
-0.310551 0.187671 -0.0436613
0.0957361 0.200739 -0.274677
0.0199057 0.189705 -0.271757
-0.257592 0.172617 -0.15766
0.159816 0.217117 -0.258097
-0.0484868 0.185781 -0.25287
-0.0661834 0.186537 -0.237439
-0.297913 0.169125 -0.155129
-0.310212 0.189121 -0.0590425
-0.304182 0.198635 -0.0214618
0.141607 0.21913 -0.248891
0.117186 0.213174 -0.257952
-0.0240038 0.191626 -0.254573
-0.310526 0.187561 -0.0760123
0.0920071 0.213214 -0.252009
0.0638404 0.206265 -0.262433
0.0260646 0.202391 -0.253134
0.0147236 0.201228 -0.250344
-0.234962 0.183325 -0.155941
0.0747904 0.215155 -0.243211
0.0474969 0.210623 -0.243664
-0.278458 0.178227 -0.157309
-0.309513 0.190135 -0.0954946
-0.224909 0.197747 -0.150607
-0.309695 0.188093 -0.13142
-0.254019 0.193964 -0.154931
-0.29833 0.187549 -0.15012
-0.299486 0.20583 -0.0859508
-0.272735 0.199669 -0.154533
-0.245303 0.207635 -0.151647
-0.286298 0.209404 -0.141933
-0.267972 0.218783 -0.136837
