ply
format ascii 1.0
comment Created by Open3D
element vertex 755
property double x
property double y
property double z
end_header
0.143506 -0.183296 -0.287597
0.140773 -0.156887 -0.285098
-0.00319612 -0.183617 -0.214683
-0.018229 -0.183117 -0.231305
-0.0331804 -0.18262 -0.247836
-0.0522847 -0.181984 -0.268959
-0.0733563 -0.181283 -0.292258
-0.0880101 -0.180796 -0.30846
-0.0190104 -0.169898 -0.210029
-0.0387742 -0.169898 -0.227477
-0.0634847 -0.169899 -0.249283
-0.0832535 -0.169899 -0.266729
-0.09808 -0.1699 -0.279813
-0.0859216 -0.161659 -0.306151
0.138567 -0.135577 -0.283081
0.123969 -0.135163 -0.299134
-0.104107 -0.149852 -0.28724
-0.0859216 -0.142452 -0.306151
0.0964038 -0.183629 0.278854
0.0813915 -0.183292 0.262598
0.0574859 -0.182755 0.236712
0.0396485 -0.182354 0.217397
0.0248438 -0.182022 0.201365
0.00334758 -0.182599 0.187532
0.136623 -0.116797 -0.281303
0.121983 -0.116439 -0.297415
0.13266 -0.180103 0.318114
0.117514 -0.179771 0.301714
-0.0284172 -0.180136 0.21683
-0.0451539 -0.183366 0.232267
-0.0625019 -0.182104 0.248268
0.114931 -0.168409 0.3155
0.0897765 -0.169901 0.307977
-0.00274104 -0.169895 0.226259
-0.0804952 -0.180795 0.264864
-0.10179 -0.126821 -0.284967
-0.0253077 -0.169898 0.25094
-0.0991695 -0.179436 0.282087
-0.118567 -0.182902 0.299979
-0.0829208 -0.120314 -0.300773
0.129626 -0.158346 0.314829
-0.0525967 -0.1699 0.273894
-0.0814242 -0.169903 0.298143
0.108769 -0.151632 0.317975
-0.0999399 -0.168195 0.315599
0.134385 -0.0951777 -0.279257
-0.118559 -0.163391 0.299969
0.129626 -0.140993 0.314829
-0.0994716 -0.103782 -0.282693
-0.0832379 -0.101409 -0.296902
-0.0982783 -0.148392 0.313305
0.113463 -0.128654 0.309246
-0.118561 -0.143882 0.299971
0.126595 -0.119257 0.311546
0.132413 -0.0761236 -0.277453
-0.0966235 -0.128668 0.311019
0.107313 -0.111739 0.311684
-0.118562 -0.124373 0.299972
-0.0796463 -0.0817238 -0.299212
-0.0971529 -0.0807341 -0.280418
-0.102047 -0.113845 0.302083
0.116522 -0.0649759 -0.292693
-0.118563 -0.104864 0.299973
0.123565 -0.0888681 0.308266
0.102062 -0.0901187 0.312391
-0.100391 -0.0942757 0.29983
-0.0796463 -0.0624947 -0.299212
-0.0948333 -0.0576777 -0.278142
0.120539 -0.0715016 0.304989
0.129287 -0.0459189 -0.274595
-0.0954261 -0.0748131 0.301183
0.098707 -0.0593524 0.309599
0.111761 -0.0374935 -0.292211
0.128141 -0.034855 -0.273547
-0.0815918 -0.0405255 -0.286845
0.120539 -0.0498345 0.304988
-0.0999975 -0.0505153 0.291211
0.102532 -0.0415077 0.302654
0.117514 -0.0324887 0.301713
-0.0983577 -0.0312085 0.288995
-0.0819076 -0.021146 -0.282885
0.0963174 -0.0241454 0.305065
-0.0847388 -0.0264324 0.302755
0.111255 -0.0153408 -0.288138
-0.0796463 -0.011217 -0.299212
0.117514 -0.0108296 0.301713
-0.0934301 -0.0119836 0.290357
0.125259 -0.00700519 -0.270911
0.0910211 -0.00220213 0.305753
-0.082231 -0.00163227 -0.278895
-0.08193 0.00718353 0.298847
0.107323 0.00419654 -0.2884
0.114492 0.0108256 0.29844
-0.0991712 0.0119624 0.28209
0.0856904 0.0198832 0.306445
0.123224 0.0126528 -0.269051
-0.0825593 0.0180174 -0.274875
-0.0691551 0.0176607 -0.287612
0.111471 0.0281362 0.29517
-0.0799357 0.0310509 0.296073
-0.0991678 0.0311022 0.282085
0.0905885 0.0416494 0.29776
-0.0783474 0.050059 0.293863
-0.0991642 0.0502418 0.28208
0.111472 0.0497794 0.29517
0.120882 0.0352855 -0.266909
-0.0670521 0.0401533 -0.285287
0.0842961 0.0594692 0.300155
-0.0776289 0.0440869 -0.274384
-0.073487 0.0690164 0.295207
-0.0833152 0.0689417 0.284581
-0.099161 0.0693813 0.282076
0.104992 0.0436809 -0.282722
0.108454 0.0713963 0.291902
-0.0832227 0.0577306 -0.26675
0.0891885 0.0808636 0.291548
-0.0719175 0.0878803 0.293008
-0.0991601 0.0885208 0.282075
-0.0649472 0.0594499 -0.28296
0.118816 0.0552365 -0.26502
0.101912 0.0550403 -0.283753
0.105438 0.0886718 0.288636
0.0930473 0.097742 0.284759
-0.0801466 0.106554 0.280237
-0.0835577 0.077797 -0.262644
-0.0649472 0.0787309 -0.28296
0.105438 0.110299 0.288636
0.0868254 0.115664 0.287069
-0.130594 0.137747 0.410804
-0.0753156 0.125294 0.281594
-0.169518 0.137746 0.376435
-0.18898 0.137746 0.359251
-0.216233 0.137746 0.3352
0.116737 0.0753264 -0.263119
-0.0510553 0.137749 0.409437
-0.0660592 0.137748 0.396189
-0.084814 0.137748 0.379629
-0.0960669 0.137748 0.369693
-0.137327 0.137747 0.333262
-0.156082 0.137747 0.316703
-0.174838 0.137747 0.300146
-0.186093 0.137747 0.290213
-0.208603 0.137747 0.270348
0.0120451 0.13775 0.398578
-0.00605196 0.13775 0.382599
-0.0350073 0.137749 0.357033
-0.0531043 0.137749 0.341054
-0.0748205 0.137748 0.32188
-0.107395 0.137748 0.293118
-0.125491 0.137747 0.27714
-0.143588 0.137747 0.261162
-0.165309 0.137747 0.241994
-0.194269 0.137748 0.216435
-0.205129 0.137748 0.206851
0.0953465 0.137752 0.410068
0.084856 0.137751 0.400806
0.0568815 0.137751 0.376106
0.0359007 0.13775 0.357581
0.0219136 0.13775 0.345231
0.000933051 0.13775 0.326706
-0.0200473 0.137749 0.308182
-0.0445243 0.137749 0.28657
-0.0550144 0.137749 0.277308
-0.0724978 0.137748 0.261871
-0.0899811 0.137748 0.246434
-0.110961 0.137748 0.22791
-0.128446 0.137748 0.212475
-0.145933 0.137748 0.197043
-0.16342 0.137748 0.181611
-0.184404 0.137748 0.163091
-0.198393 0.137749 0.150745
0.100744 0.0837127 -0.279049
0.16304 0.137753 0.411846
0.135982 0.137752 0.387955
0.122454 0.137752 0.37601
0.10216 0.137752 0.358093
0.0852496 0.137751 0.343161
0.0581922 0.137751 0.319271
0.0446637 0.137751 0.307326
0.0277529 0.13775 0.292395
0.0108424 0.13775 0.277464
-0.0094502 0.13775 0.259547
-0.0297427 0.137749 0.24163
-0.0466532 0.137749 0.226699
-0.0635632 0.137749 0.211768
-0.0804735 0.137748 0.196838
-0.0973837 0.137748 0.181908
-0.124445 0.137748 0.158025
-0.137976 0.137749 0.146084
-0.158272 0.137749 0.128172
-0.175185 0.137749 0.113245
-0.198864 0.137749 0.092347
-0.215778 0.13775 0.0774201
-0.0812249 0.100989 -0.260355
-0.062841 0.0980498 -0.280631
0.218227 0.138215 0.411807
0.196963 0.137754 0.387487
0.177314 0.137753 0.370138
0.15439 0.137753 0.349897
0.13474 0.137752 0.332549
0.111817 0.137752 0.312308
0.0916529 0.136433 0.278642
0.0659692 0.137751 0.271828
0.0495954 0.137751 0.257371
0.0299467 0.137751 0.240023
0.0102982 0.13775 0.222674
-0.0126249 0.13775 0.202435
-0.0257238 0.137749 0.19087
-0.045372 0.137749 0.173521
-0.0650201 0.137749 0.156173
-0.0846695 0.137749 0.138827
-0.104321 0.137749 0.121484
-0.120698 0.137749 0.107031
-0.14035 0.137749 0.0896873
-0.160002 0.13775 0.0723438
-0.179654 0.13775 0.055
-0.199306 0.13775 0.0376562
0.218194 0.140754 0.390224
0.218161 0.138952 0.369193
0.212928 0.137754 0.350614
0.184361 0.137754 0.325391
0.165316 0.137753 0.308576
0.146271 0.137753 0.291761
0.127227 0.137752 0.274946
0.111356 0.137752 0.260934
0.0859638 0.137752 0.238514
0.0669196 0.137751 0.2217
0.0478754 0.137751 0.204885
0.0320055 0.137751 0.190873
0.00978744 0.13775 0.171256
-0.00608242 0.13775 0.157244
-0.0251262 0.13775 0.14043
-0.0441698 0.137749 0.123616
-0.0632142 0.137749 0.106803
-0.0822613 0.137749 0.089993
-0.0981338 0.137749 0.0759847
-0.114006 0.13775 0.0619764
-0.133054 0.13775 0.0451662
-0.155276 0.13775 0.0255545
-0.174323 0.137751 0.00874412
-0.209243 0.137751 -0.0220749
0.218098 0.139652 0.328707
0.218067 0.13793 0.309213
0.197146 0.137754 0.288754
0.181749 0.137754 0.275159
0.166352 0.137753 0.261565
0.147876 0.137753 0.245252
0.132479 0.137753 0.231658
0.110924 0.137752 0.212627
0.086289 0.137752 0.190876
0.0708925 0.137751 0.177283
0.0524168 0.137751 0.16097
0.0308621 0.137751 0.141939
0.0123866 0.13775 0.125626
-0.00300968 0.13775 0.112033
-0.0153266 0.13775 0.101158
-0.0338017 0.137749 0.084846
-0.0553586 0.13775 0.0658181
-0.0707573 0.13775 0.0522278
-0.089236 0.13775 0.0359196
-0.104635 0.13775 0.0223292
-0.123114 0.13775 0.00602084
-0.135433 0.137751 -0.00485146
0.101405 0.0952907 -0.275898
-0.18163 0.137751 -0.0456231
-0.197029 0.137751 -0.0592135
0.218038 0.140317 0.290193
0.218009 0.138629 0.271631
0.206199 0.137754 0.2516
0.188258 0.137754 0.23576
0.170318 0.137753 0.219919
0.152377 0.137753 0.204079
0.125466 0.137753 0.18032
0.104536 0.137752 0.16184
0.0746352 0.137752 0.13544
0.0596851 0.137751 0.122241
0.0417449 0.137751 0.106401
0.020815 0.137751 0.0879217
0.00287497 0.13775 0.0720823
-0.0150648 0.13775 0.056243
-0.033006 0.13775 0.0404053
-0.0479583 0.13775 0.0272089
-0.0688918 0.13775 0.00873393
-0.0898255 0.137751 -0.00974113
-0.107769 0.137751 -0.0255769
-0.155617 0.137751 -0.0678061
-0.182532 0.137752 -0.0915601
-0.200476 0.137752 -0.107396
-0.215429 0.137752 -0.120593
0.217939 0.138482 0.227124
0.206025 0.137754 0.208842
0.185684 0.137754 0.190883
0.168248 0.137753 0.175489
0.150813 0.137753 0.160095
0.130472 0.137753 0.142136
0.113037 0.137752 0.126742
0.095602 0.137752 0.111349
0.0781671 0.137752 0.0959551
0.0607322 0.137751 0.0805618
0.0432975 0.137751 0.0651685
0.0287685 0.137751 0.0523409
0.0113338 0.13775 0.0369478
-0.00900632 0.13775 0.0189892
-0.02935 0.13775 0.00103444
-0.0467875 0.137751 -0.0143552
-0.0642253 0.137751 -0.0297449
-0.0787565 0.137751 -0.0425699
-0.0991004 0.137751 -0.0605248
-0.13107 0.137752 -0.0887397
-0.148508 0.137752 -0.10413
-0.168852 0.137752 -0.122085
-0.189196 0.137752 -0.14004
-0.209541 0.137753 -0.157995
0.218227 0.160154 0.411807
0.218194 0.158077 0.390224
0.217874 0.138343 0.185142
0.205861 0.137754 0.168427
0.186077 0.137754 0.15096
0.174771 0.137754 0.140978
0.152161 0.137753 0.121016
0.132377 0.137753 0.103549
0.106941 0.137752 0.081091
0.0871578 0.137752 0.0636242
0.0702005 0.137752 0.0486526
0.0504172 0.137751 0.0311859
0.0334601 0.137751 0.0162144
0.016503 0.137751 0.00124317
-0.00328124 0.137751 -0.0162219
-0.020241 0.137751 -0.0311901
-0.0400276 0.137751 -0.0486528
-0.0569875 0.137751 -0.0636211
-0.0739474 0.137751 -0.0785894
0.113741 0.10427 -0.260379
-0.107868 0.137752 -0.108526
-0.127654 0.137752 -0.125989
-0.153095 0.137753 -0.148442
-0.172882 0.137753 -0.165905
-0.189842 0.137753 -0.180874
-0.0655699 0.118482 -0.271169
-0.206802 0.137753 -0.195843
0.218161 0.160329 0.369193
0.218129 0.158302 0.348694
0.217812 0.138212 0.145476
0.205705 0.137754 0.130167
0.189199 0.137754 0.115595
0.172694 0.137754 0.101022
0.145185 0.137753 0.0767346
0.128679 0.137753 0.0621622
0.112174 0.137752 0.0475897
0.0956691 0.137752 0.0330173
0.076413 0.137752 0.0160165
0.0571573 0.137751 -0.00098449
0.0406524 0.137751 -0.0155566
0.0213966 0.137751 -0.0325573
0.00213844 0.137751 -0.0495551
-0.0198717 0.137751 -0.0689806
-0.0363793 0.137751 -0.0835497
-0.052887 0.137752 -0.0981188
-0.0859026 0.137752 -0.127257
-0.105162 0.137752 -0.144255
-0.12167 0.137753 -0.158824
-0.138178 0.137753 -0.173394
-0.160188 0.137753 -0.19282
-0.182199 0.137753 -0.212246
-0.195956 0.137754 -0.224387
-0.212464 0.137754 -0.238957
0.218098 0.160495 0.328707
0.218067 0.158516 0.309213
0.216275 0.137754 0.103358
0.200198 0.137754 0.0891643
0.181442 0.137754 0.0726043
0.157327 0.137753 0.0513134
0.135891 0.137753 0.0323883
0.117135 0.137753 0.0158286
0.0956999 0.137752 -0.0030964
0.0849823 0.137752 -0.0125589
0.0662265 0.137752 -0.0291181
0.0474709 0.137751 -0.0456774
0.0313948 0.137751 -0.0598708
0.00995648 0.137751 -0.0787919
-0.00612235 0.137751 -0.0929825
-0.0248811 0.137752 -0.109538
-0.0650785 0.137752 -0.145016
-0.0891972 0.137753 -0.166302
-0.113316 0.137753 -0.187589
-0.132075 0.137753 -0.204145
-0.158874 0.137754 -0.227797
-0.177633 0.137754 -0.244353
-0.199072 0.137754 -0.263275
-0.217831 0.137754 -0.279831
0.218038 0.160653 0.290193
0.218009 0.15872 0.271631
0.217698 0.13797 0.0723678
0.202805 0.137754 0.0571542
0.187135 0.137754 0.0433196
0.171466 0.137754 0.0294849
0.150573 0.137753 0.0110388
0.132291 0.137753 -0.00510144
0.111399 0.137753 -0.0235473
0.0905061 0.137752 -0.0419931
0.067002 0.137752 -0.0627445
0.0487212 0.137751 -0.0788844
0.0330503 0.137751 -0.0927167
0.0173786 0.137752 -0.106548
0.00170678 0.137752 -0.12038
-0.0453088 0.137752 -0.161875
-0.0635929 0.137753 -0.178012
-0.0818769 0.137753 -0.194149
-0.0975489 0.137753 -0.207981
-0.115833 0.137753 -0.224118
-0.136729 0.137754 -0.24256
-0.155014 0.137754 -0.258698
-0.178522 0.137754 -0.279446
-0.199419 0.137755 -0.297889
-0.217703 0.137755 -0.314026
0.218227 0.177705 0.411807
0.21798 0.160804 0.253511
0.217939 0.157986 0.227124
0.217666 0.139278 0.0519033
0.210378 0.137754 0.0312228
0.190001 0.137754 0.013232
0.172171 0.137754 -0.00250977
0.154341 0.137753 -0.0182516
0.126322 0.137753 -0.0429885
0.108493 0.137753 -0.05873
0.090663 0.137752 -0.0744714
0.0702863 0.137752 -0.0924616
0.0550038 0.137752 -0.105954
0.0371717 0.137752 -0.121692
0.0218868 0.137752 -0.135183
0.00150704 0.137752 -0.153169
-0.0265155 0.137753 -0.177901
-0.054538 0.137753 -0.202634
-0.0723705 0.137753 -0.218372
-0.0876558 0.137753 -0.231863
-0.115679 0.137754 -0.256595
-0.141154 0.137754 -0.279079
-0.156439 0.137754 -0.29257
-0.174272 0.137755 -0.308309
-0.192106 0.137755 -0.324048
-0.207391 0.137755 -0.337539
0.218194 0.179732 0.390224
0.217913 0.160018 0.21004
0.217586 0.137755 0.00654095
0.200185 0.137754 -0.00882161
0.180299 0.137754 -0.0263788
0.155441 0.137753 -0.048325
0.138041 0.137753 -0.0636873
0.120641 0.137753 -0.0790495
0.100755 0.137752 -0.0966063
0.075898 0.137752 -0.118552
0.0584968 0.137752 -0.133913
0.0410942 0.137752 -0.149272
0.0212056 0.137752 -0.166825
-0.00862765 0.137753 -0.193156
-0.0260304 0.137753 -0.208515
-0.0533778 0.137753 -0.232652
-0.0707808 0.137754 -0.248011
-0.0956423 0.137754 -0.269953
-0.118018 0.137754 -0.289701
-0.137907 0.137755 -0.307255
-0.162769 0.137755 -0.329198
-0.182658 0.137755 -0.346752
-0.197576 0.137755 -0.359918
0.218161 0.181706 0.369193
0.218129 0.179409 0.348694
0.217874 0.161084 0.185142
0.217836 0.158388 0.161077
0.217575 0.139683 -0.00586385
0.212318 0.137755 -0.0276946
0.190472 0.137754 -0.0469815
0.166199 0.137754 -0.0684114
0.149208 0.137753 -0.0834123
0.132218 0.137753 -0.0984129
0.110372 0.137753 -0.117699
0.0861001 0.137752 -0.139129
0.0666807 0.137752 -0.156271
0.0521151 0.137752 -0.169126
0.00841832 0.137753 -0.207692
-0.00857496 0.137753 -0.22269
-0.0255683 0.137753 -0.237688
-0.0547 0.137754 -0.2634
-0.0741212 0.137754 -0.28054
-0.0935424 0.137754 -0.297681
-0.110536 0.137755 -0.31268
-0.12753 0.137755 -0.327678
-0.149379 0.137755 -0.346962
-0.173656 0.137755 -0.368388
-0.19065 0.137756 -0.383387
-0.207644 0.137756 -0.398386
0.218098 0.181339 0.328707
0.218067 0.179103 0.309213
0.217788 0.158576 0.130216
0.216778 0.137755 -0.051981
0.200178 0.137754 -0.0666371
0.176463 0.137754 -0.0875744
0.157491 0.137754 -0.104324
0.140891 0.137753 -0.11898
0.117176 0.137753 -0.139917
0.0910903 0.137752 -0.162947
0.0744883 0.137752 -0.177601
0.111626 0.124704 -0.258445
0.0175653 0.137753 -0.22784
0.000962615 0.137753 -0.242494
-0.0132683 0.137754 -0.255054
-0.0346147 0.137754 -0.273894
-0.0512176 0.137754 -0.288547
-0.0678205 0.137754 -0.303201
-0.0891672 0.137755 -0.322041
-0.112886 0.137755 -0.342975
-0.134233 0.137755 -0.361816
-0.148464 0.137755 -0.374376
-0.169811 0.137756 -0.393217
-0.186414 0.137756 -0.40787
0.218038 0.180989 0.290193
0.218009 0.178811 0.271631
0.217742 0.158755 0.100674
0.217475 0.138747 -0.0698782
0.207129 0.137755 -0.087456
0.183947 0.137754 -0.107923
0.156128 0.137754 -0.132482
0.142219 0.137753 -0.144762
0.125992 0.137753 -0.159089
0.109765 0.137753 -0.173415
0.0935375 0.137753 -0.187741
0.0703526 0.137753 -0.208204
0.0402122 0.137753 -0.234805
0.0216641 0.137754 -0.251176
-0.0131137 0.137754 -0.28187
-0.0293435 0.137754 -0.296194
-0.0478917 0.137754 -0.312565
-0.0687587 0.137755 -0.330982
-0.0896257 0.137755 -0.349399
-0.108174 0.137755 -0.36577
-0.133679 0.137756 -0.38828
-0.149909 0.137756 -0.402604
-0.169401 0.13863 -0.41237
0.21798 0.180656 0.253511
0.217698 0.158927 0.0723678
0.211507 0.137755 -0.109361
0.186567 0.137754 -0.13138
0.166162 0.137754 -0.149395
0.150291 0.137754 -0.163407
0.132153 0.137753 -0.17942
0.111748 0.137753 -0.197434
0.0868066 0.137753 -0.21945
0.0550609 0.137753 -0.247468
0.0414557 0.137754 -0.259476
0.0165125 0.137754 -0.281491
-0.00162804 0.137754 -0.297501
-0.0243038 0.137755 -0.317515
-0.0424445 0.137755 -0.333526
-0.0583176 0.137755 -0.347535
-0.0787261 0.137755 -0.365548
-0.108205 0.137756 -0.391566
-0.124078 0.137756 -0.405575
0.217939 0.181392 0.227124
0.217913 0.179297 0.21004
0.217666 0.159912 0.0519033
0.217385 0.137901 -0.12764
0.19573 0.137754 -0.147953
0.171327 0.137754 -0.169497
0.146924 0.137754 -0.191042
0.131394 0.137753 -0.204752
0.115865 0.137753 -0.218462
0.0603961 0.137754 -0.267419
0.0359893 0.137754 -0.288961
0.0204577 0.137754 -0.302669
0.00270724 0.137754 -0.318335
-0.0194809 0.137755 -0.337918
-0.0372315 0.137755 -0.353585
-0.0527633 0.137755 -0.367293
-0.0771707 0.137756 -0.388835
-0.103934 0.137779 -0.412269
0.217874 0.180035 0.185142
0.217635 0.160866 0.0320615
0.217595 0.157668 0.00652593
0.217347 0.137808 -0.15207
0.202336 0.137755 -0.165745
0.176275 0.137754 -0.188753
0.156729 0.137754 -0.20601
0.141526 0.137753 -0.219431
0.12198 0.137753 -0.236687
0.082883 0.137754 -0.271194
0.0611623 0.137754 -0.290365
0.0416135 0.137754 -0.307618
0.0242367 0.137754 -0.322955
0.00685996 0.137755 -0.338292
-0.0126889 0.137755 -0.355546
-0.0278938 0.137755 -0.368965
-0.049615 0.137755 -0.388137
-0.0735085 0.137756 -0.409225
0.217836 0.180749 0.161077
0.217575 0.159403 -0.00586385
0.217318 0.138306 -0.170864
0.195907 0.137754 -0.19407
0.178891 0.137754 -0.209093
0.140605 0.137753 -0.242894
0.123588 0.137753 -0.257915
0.100188 0.137754 -0.278568
0.0831699 0.137754 -0.293589
0.0661515 0.137754 -0.308609
0.0470059 0.137754 -0.325507
0.0321147 0.137755 -0.33865
0.0108415 0.137755 -0.357426
-0.0125591 0.137755 -0.378079
-0.0295778 0.137755 -0.3931
-0.0465964 0.137756 -0.40812
0.217788 0.180448 0.130216
0.217537 0.15955 -0.0299281
0.21729 0.138788 -0.189026
0.20641 0.137755 -0.206532
0.181402 0.137754 -0.228611
0.160562 0.137754 -0.24701
0.135553 0.137754 -0.269088
0.118878 0.137754 -0.283805
0.102204 0.137754 -0.298522
0.0667705 0.137754 -0.329795
0.0459273 0.137755 -0.348192
0.0292526 0.137755 -0.362909
0.0125778 0.137755 -0.377626
-0.01035 0.137756 -0.397862
-0.0278243 0.137904 -0.412151
-0.204724 0.158274 -0.412424
0.217742 0.18016 0.100674
0.217501 0.15969 -0.053081
0.206284 0.137755 -0.227518
0.181771 0.137754 -0.24916
0.161343 0.137754 -0.267194
0.136829 0.137754 -0.288834
0.116398 0.137754 -0.306866
0.102097 0.137754 -0.319488
0.0714513 0.137755 -0.346536
0.0469345 0.137755 -0.368175
0.03059 0.137755 -0.382601
0.0122023 0.137756 -0.39883
-0.17632 0.158134 -0.41238
0.217698 0.179885 0.0723678
0.217467 0.159826 -0.0753734
0.206162 0.137755 -0.247689
0.182125 0.137754 -0.26891
0.162094 0.137754 -0.286594
0.138055 0.137754 -0.307813
0.106001 0.137754 -0.336104
0.0919772 0.137755 -0.348482
0.0659332 0.137755 -0.371468
0.0318755 0.137755 -0.401528
-0.149065 0.158001 -0.412338
0.217666 0.180545 0.0519033
0.217635 0.177799 0.0320615
0.217433 0.159957 -0.096852
0.206045 0.137755 -0.267091
0.182466 0.137754 -0.287908
0.160851 0.137754 -0.30699
0.137269 0.137754 -0.327804
0.092069 0.137755 -0.367698
0.066521 0.137755 -0.390247
0.0468687 0.137756 -0.407592
-0.122892 0.157872 -0.412298
0.217595 0.177584 0.00652593
0.217401 0.160082 -0.117561
0.205933 0.137755 -0.285768
0.180866 0.137754 -0.307898
0.155797 0.137754 -0.330027
0.136512 0.137755 -0.347048
0.121085 0.137755 -0.360665
0.0921573 0.137755 -0.386196
0.0670869 0.137755 -0.408324
-0.0977376 0.157749 -0.412259
0.217575 0.179123 -0.00586385
0.21737 0.160204 -0.137541
0.202038 0.137755 -0.307102
0.177431 0.137754 -0.328826
0.156608 0.137755 -0.347206
0.120639 0.137755 -0.378953
0.0865632 0.137755 -0.409028
-0.0735435 0.15763 -0.412222
0.217537 0.178889 -0.0299281
0.217333 0.159631 -0.161548
0.217105 0.138206 -0.307977
0.175979 0.137754 -0.347358
0.151812 0.137755 -0.368688
0.116492 0.137755 -0.399863
-0.0502557 0.157516 -0.412186
-0.212014 0.1784 -0.412436
0.217501 0.178663 -0.053081
0.217304 0.159755 -0.180022
0.216574 0.137755 -0.328161
0.200141 0.137755 -0.342669
0.170926 0.137755 -0.368458
0.147186 0.137755 -0.38941
-0.0333545 0.158132 -0.41216
-0.18331 0.177841 -0.412391
0.217467 0.178446 -0.0753734
0.217276 0.159876 -0.19788
0.196551 0.137755 -0.3619
0.144516 0.137755 -0.407828
-0.0115346 0.158013 -0.412126
-0.162553 0.178213 -0.412359
0.217433 0.178237 -0.096852
0.217242 0.15934 -0.219384
0.217027 0.137961 -0.358002
0.194846 0.137755 -0.378916
0.171919 0.137755 -0.399153
0.00950795 0.157897 -0.412093
-0.135847 0.177678 -0.412318
0.217401 0.178036 -0.117561
0.21721 0.158825 -0.240029
0.212271 0.137755 -0.378525
0.191464 0.137755 -0.396891
0.0298139 0.157786 -0.412062
-0.11651 0.178038 -0.412288
0.21737 0.177841 -0.137541
0.217179 0.158331 -0.259865
0.206953 0.137755 -0.397715
0.0494214 0.157678 -0.412032
-0.0916012 0.177525 -0.41225
0.21715 0.157855 -0.278938
0.0683658 0.157574 -0.412002
-0.0735435 0.177876 -0.412222
0.217333 0.179764 -0.161548
0.217304 0.179548 -0.180022
0.217116 0.159315 -0.300881
0.100021 0.158022 -0.411953
-0.0333545 0.177724 -0.41216
0.217276 0.179339 -0.19788
0.217088 0.158841 -0.318424
0.117306 0.157917 -0.411927
0.217242 0.178406 -0.219384
0.217057 0.157812 -0.338642
0.00431788 0.177582 -0.412101
0.21721 0.17751 -0.240029
0.150253 0.157717 -0.411876
0.0197505 0.177905 -0.412077
0.217027 0.159186 -0.358002
0.165965 0.157622 -0.411851
0.217179 0.179267 -0.259865
0.216993 0.157648 -0.379578
0.0542182 0.177764 -0.412024
0.21715 0.178389 -0.278938
0.192326 0.15803 -0.411811
0.0683658 0.178071 -0.412002
0.216961 0.15843 -0.400137
0.0866801 0.17763 -0.411974
0.217116 0.179386 -0.300881
0.217088 0.178542 -0.318424
0.117306 0.177504 -0.411927
0.217057 0.179497 -0.338642
0.142211 0.178085 -0.411888
0.217027 0.178052 -0.358002
0.15817 0.177672 -0.411863
0.216993 0.178361 -0.379578
0.184936 0.177553 -0.411822
0.195979 0.177828 -0.411805
0.216961 0.178655 -0.400137
