ply
format ascii 1.0
comment Created by Open3D
element vertex 959
property double x
property double y
property double z
end_header
-0.272806 -0.288672 0.270858
-0.25497 -0.286428 0.270842
0.27987 -0.219148 0.270366
0.298658 -0.216785 0.270348
-0.251498 -0.288719 0.251802
-0.246547 -0.274922 0.260655
0.281595 -0.202442 0.270364
0.298658 -0.19683 0.270347
-0.249085 -0.247436 0.270838
-0.23791 -0.250912 0.25029
0.27987 -0.182471 0.270366
-0.232125 -0.234788 0.26033
0.298658 -0.176875 0.270347
0.278142 -0.162459 0.270367
-0.22873 -0.207311 0.270819
-0.222886 -0.210278 0.250618
0.298658 -0.15692 0.270347
-0.217261 -0.194468 0.270809
-0.215893 -0.192305 0.252001
0.27641 -0.142408 0.270369
-0.225851 -0.166819 0.270817
-0.205908 -0.16534 0.270798
-0.207164 -0.169873 0.25205
-0.263218 -0.28866 -0.24943
-0.249189 -0.283571 -0.268027
0.272936 -0.122438 0.270372
0.293574 -0.120994 0.270352
-0.263049 -0.271958 -0.249083
-0.244881 -0.2707 -0.249074
-0.21726 -0.147324 0.27081
-0.199573 -0.150366 0.250763
-0.197469 -0.143686 0.270791
-0.239886 -0.257695 -0.26771
-0.258283 -0.250805 -0.248647
-0.240165 -0.249647 -0.24864
-0.235253 -0.244807 -0.267552
-0.248998 -0.229453 -0.248213
-0.230972 -0.228395 -0.248206
0.267699 -0.102491 0.270377
0.288461 -0.101278 0.270357
-0.191941 -0.130901 0.249559
-0.191878 -0.12235 0.270786
-0.239804 -0.212356 -0.247866
-0.223881 -0.214008 -0.262419
-0.208735 -0.116237 0.270802
-0.217257 -0.194676 -0.247519
-0.183977 -0.11141 0.248826
-0.235107 -0.191441 -0.247436
-0.212656 -0.185177 -0.267671
0.26419 -0.0823419 0.27038
0.283316 -0.081446 0.270363
-0.197468 -0.101631 0.270792
-0.225988 -0.174515 -0.247093
-0.176396 -0.0939184 0.269344
-0.205154 -0.165849 -0.250309
-0.204531 -0.164302 -0.269707
-0.175456 -0.0918887 0.248882
-0.221331 -0.153746 -0.246666
-0.200243 -0.153227 -0.249179
0.262431 -0.0620498 0.270381
0.278142 -0.0614957 0.270367
-0.192246 -0.132735 -0.251127
-0.167064 -0.072587 0.270764
-0.168637 -0.0768184 0.231272
-0.191378 -0.13066 -0.27038
-0.166689 -0.0724637 0.249359
-0.212174 -0.124691 -0.246072
-0.191878 -0.0664184 0.270787
-0.16619 -0.0714357 0.21031
-0.165919 -0.070878 0.189129
-0.166722 -0.0726945 0.169719
-0.166242 -0.0716701 0.151382
-0.181987 -0.107626 -0.247563
-0.16574 -0.0705972 0.132177
-0.166599 -0.0725444 0.109716
-0.202802 -0.103894 -0.244865
-0.166079 -0.0714362 0.0884523
-0.166762 -0.0729837 0.0698644
-0.156527 -0.0569231 0.232354
-0.16622 -0.0718333 0.0465326
-0.166697 -0.0729139 0.0329942
-0.177289 -0.0969801 -0.268524
-0.166131 -0.0717125 0.00766242
0.260668 -0.041717 0.270383
0.278142 -0.0413031 0.270367
-0.150829 -0.0491761 0.270749
-0.15211 -0.050679 0.250343
-0.165289 -0.0698889 -0.0114816
-0.166033 -0.0715809 -0.0346745
-0.182464 -0.0866524 -0.238182
-0.178024 -0.0474757 0.270774
-0.152412 -0.0511553 0.209295
-0.15334 -0.0524855 0.190272
-0.165151 -0.0696715 -0.0555702
-0.165926 -0.071437 -0.0809632
-0.166466 -0.0726647 -0.098621
-0.152996 -0.0520412 0.157862
-0.165809 -0.071279 -0.131784
-0.166373 -0.0725651 -0.151239
-0.16952 -0.0797582 -0.260055
-0.152369 -0.0511953 0.128334
-0.153136 -0.0522977 0.110837
-0.165109 -0.069804 -0.167086
-0.165679 -0.0711048 -0.187838
-0.166271 -0.072455 -0.209378
-0.152212 -0.0510291 0.0840386
-0.154445 -0.0542418 0.0300925
-0.165234 -0.0702218 -0.238336
-0.134988 -0.0381055 0.259174
-0.13706 -0.0396359 0.232215
-0.150553 -0.0495963 0.0567608
-0.153177 -0.0524867 0.00543934
-0.151841 -0.0506369 -0.0205448
-0.152737 -0.0519291 -0.0450799
-0.154673 -0.054722 -0.0981089
-0.131813 -0.0358205 0.210265
-0.134636 -0.0379081 0.168294
-0.150866 -0.0499074 -0.0729425
-0.152897 -0.0522476 -0.120346
-0.157769 -0.0592991 -0.263579
-0.150829 -0.030878 0.270749
-0.119964 -0.0319526 0.237356
-0.132323 -0.0362341 0.146833
-0.133446 -0.0370657 0.128848
-0.15106 -0.0500994 -0.15301
-0.152035 -0.051101 -0.174787
-0.152377 -0.0515969 -0.185614
-0.153445 -0.0531439 -0.21939
-0.111273 -0.0280702 0.270715
-0.10301 -0.0287751 0.251333
-0.111764 -0.0302046 0.220042
-0.117947 -0.0314921 0.191325
-0.130981 -0.0352817 0.105175
-0.131741 -0.0358455 0.091986
-0.133338 -0.0370291 0.0643016
-0.134606 -0.0379694 0.0423081
-0.186316 -0.0267331 0.270781
-0.167064 -0.0265 0.270764
-0.0907605 -0.0255763 0.270696
-0.0939093 -0.0272973 0.227139
-0.100258 -0.0283343 0.20229
-0.104765 -0.0290706 0.184648
-0.111982 -0.0302497 0.156396
-0.132769 -0.0366577 -0.00294268
-0.133662 -0.0373208 -0.019824
0.257131 -0.0213648 0.270386
0.283316 -0.0210478 0.270362
-0.0706385 -0.0231299 0.270678
-0.0748996 -0.0242008 0.241658
-0.0822659 -0.0254046 0.209845
-0.0948003 -0.0274529 0.155712
-0.09944 -0.0282112 0.135675
-0.104343 -0.0290125 0.114499
-0.109533 -0.0298606 0.0920851
-0.11451 -0.0307165 0.069384
-0.122509 -0.0325927 0.0187069
-0.13074 -0.0352097 -0.0528973
-0.131642 -0.0358802 -0.071624
-0.132579 -0.0365768 -0.0910779
-0.133552 -0.037301 -0.111302
-0.13969 -0.0418599 -0.238619
-0.0649107 -0.0225785 0.217132
-0.0701642 -0.0234374 0.19187
-0.0738944 -0.0240472 0.173933
-0.0819691 -0.0253674 0.135104
-0.0841281 -0.0257204 0.124722
-0.0909818 -0.0268409 0.0917649
-0.101106 -0.0284962 0.0430803
-0.109559 -0.0298781 0.00243515
-0.114805 -0.0308054 -0.0249733
-0.129396 -0.0342786 -0.129218
-0.130827 -0.0353448 -0.162175
-0.135122 -0.0385418 -0.261003
-0.0508962 -0.0185475 0.270661
-0.0439411 -0.0191606 0.247004
-0.052692 -0.0205921 0.199622
-0.0610495 -0.0219593 0.15437
-0.0647117 -0.0225584 0.13454
-0.0705957 -0.0235209 0.102682
-0.0748054 -0.0242095 0.0798875
-0.0792692 -0.0249397 0.0557185
-0.0816035 -0.0253216 0.0430791
-0.0864935 -0.0261215 0.0166021
-0.0890563 -0.0265407 0.00272614
-0.0944366 -0.0274209 -0.026406
-0.100186 -0.0283614 -0.0575366
-0.106344 -0.0293687 -0.0908785
-0.10959 -0.0298997 -0.108454
-0.112955 -0.0304502 -0.126676
-0.121078 -0.0323031 -0.189013
-0.123166 -0.0327936 -0.205533
-0.0315229 -0.0162125 0.270643
-0.0319796 -0.017216 0.230959
-0.0399917 -0.0185275 0.181422
-0.0444736 -0.0192612 0.15371
-0.0510325 -0.0203349 0.113157
-0.054594 -0.0209179 0.0911369
-0.0603363 -0.0218579 0.0556324
-0.0623668 -0.0221903 0.0430778
-0.066619 -0.0228864 0.0167868
-0.0688468 -0.0232511 0.00301301
-0.0735222 -0.0240164 -0.0258949
-0.0785159 -0.0248339 -0.0567706
-0.0838616 -0.0257089 -0.0898224
-0.0866782 -0.02617 -0.107237
-0.0895978 -0.0266479 -0.125289
-0.0957687 -0.0276581 -0.163443
-0.0990331 -0.0281925 -0.183627
-0.102426 -0.0287479 -0.204605
-0.105956 -0.0293257 -0.226427
-0.10963 -0.0299271 -0.249144
-0.0123737 -0.0140194 0.266067
-0.0143138 -0.0143372 0.252119
-0.0207004 -0.0153837 0.206204
-0.0230415 -0.0157673 0.189372
-0.0308224 -0.0170421 0.133433
-0.0337034 -0.0175142 0.112721
-0.0399721 -0.0185413 0.0676528
-0.0433906 -0.0191014 0.0430764
-0.047022 -0.0196964 0.016969
-0.0489238 -0.020008 0.00329572
-0.0529141 -0.0206618 -0.0253912
-0.0571738 -0.0213598 -0.0560163
-0.0617314 -0.0221065 -0.0887825
-0.0641319 -0.0224998 -0.10604
-0.0691985 -0.02333 -0.142466
-0.0718747 -0.0237685 -0.161706
-0.0746533 -0.0242237 -0.181682
-0.0775405 -0.0246968 -0.202439
-0.0805441 -0.0251888 -0.224027
-0.0836717 -0.025701 -0.246499
-0.0869291 -0.0262344 -0.269903
-0.126922 -0.0124415 0.270728
-0.106108 -0.012321 0.270709
-0.00386184 -0.0126405 0.221287
-0.00973955 -0.0136048 0.170946
-0.0119033 -0.0139597 0.152414
-0.0141829 -0.0143337 0.13289
-0.0191293 -0.0151452 0.0905249
-0.0218187 -0.0155864 0.0674911
-0.0246695 -0.0160541 0.0430751
-0.0276966 -0.0165507 0.0171487
-0.0292815 -0.0168107 0.00357449
-0.0326055 -0.017356 -0.024895
-0.0343497 -0.0176421 -0.0398337
-0.0361524 -0.0179379 -0.0552732
-0.0399454 -0.0185601 -0.0877591
-0.044011 -0.0192271 -0.12258
-0.0461554 -0.0195789 -0.140946
-0.0483797 -0.0199438 -0.159997
-0.0506904 -0.0203227 -0.179777
-0.0530916 -0.0207163 -0.200327
-0.0555876 -0.0211255 -0.221688
-0.0581842 -0.0215512 -0.24391
-0.0608877 -0.0219943 -0.267047
-0.161625 -0.0103438 0.27076
0.00846642 -0.00953808 0.270607
0.0127243 -0.00993747 0.24285
0.00830552 -0.0106637 0.1962
0.00668553 -0.0109299 0.179096
0.000317395 -0.0119765 0.111865
-0.00173235 -0.0123134 0.0902246
-0.0039008 -0.0126698 0.0673316
-0.00863731 -0.0134482 0.0173259
-0.00991377 -0.013658 0.00384945
-0.0125901 -0.0140979 -0.0244057
-0.0139939 -0.0143286 -0.0392269
-0.0169442 -0.0148135 -0.0703738
-0.0184955 -0.0150684 -0.0867515
-0.021764 -0.0156056 -0.121258
-0.0234894 -0.0158889 -0.139459
-0.025279 -0.0161828 -0.158333
-0.0271359 -0.0164877 -0.177919
-0.0290641 -0.0168043 -0.198256
-0.0310679 -0.0171333 -0.21939
-0.0331517 -0.0174754 -0.241368
-0.0353204 -0.0178315 -0.264242
0.0285487 -0.00735767 0.269472
0.0265321 -0.00769002 0.241838
0.0205924 -0.00866901 0.160442
0.0192182 -0.0088955 0.141611
0.0177703 -0.00913414 0.12177
0.0162426 -0.00938594 0.100835
0.0120275 -0.0100807 0.0430728
0.0101614 -0.0103882 0.0175006
0.009185 -0.0105492 0.00412047
0.00713849 -0.0108865 -0.0239235
0.00606537 -0.0110633 -0.038629
0.00381109 -0.0114349 -0.0695214
0.0026257 -0.0116302 -0.0857607
0.000125676 -0.0120417 -0.119975
-0.00119191 -0.0122586 -0.138007
-0.00255778 -0.0124834 -0.156699
-0.00397465 -0.0127167 -0.176091
-0.00544551 -0.0129588 -0.196221
-0.00697353 -0.0132103 -0.217132
-0.00856194 -0.0134718 -0.238871
-0.0102146 -0.0137438 -0.261488
-0.189094 -0.00581886 0.270783
-0.0856944 -0.00554674 0.270691
0.0386485 -0.0057224 0.210701
0.0378162 -0.0058603 0.194544
0.0364897 -0.00608006 0.168794
0.0355487 -0.00623596 0.150526
0.0318375 -0.00685078 0.0784863
0.0306389 -0.00704935 0.0552186
0.0300131 -0.00715302 0.0430714
0.0287047 -0.00736978 0.017673
0.0280204 -0.00748316 0.00438774
0.0265864 -0.00772073 -0.0234482
0.0258347 -0.00784525 -0.0380397
0.0242535 -0.00810686 -0.0686924
0.022562 -0.00838656 -0.101464
0.0216717 -0.00853377 -0.118713
0.0207496 -0.00868624 -0.136578
0.019794 -0.00884426 -0.155093
0.0177746 -0.0091782 -0.19422
0.0167065 -0.0093548 -0.214913
0.0155966 -0.00953834 -0.236418
0.0144422 -0.00972922 -0.258783
-0.144821 -0.00353094 0.249007
-0.144568 -0.00362964 0.229341
0.0491448 -0.00311514 0.270571
0.0539479 -0.00322663 0.246936
0.0535128 -0.00329959 0.232593
0.0504241 -0.00381753 0.130779
0.0498125 -0.00392009 0.110619
0.0491672 -0.0040283 0.0893462
0.0484851 -0.00414267 0.0668651
0.0477633 -0.00426371 0.0430703
0.046998 -0.00439205 0.0178431
0.0465978 -0.00445916 0.00465137
0.0457584 -0.00459974 -0.0229844
0.0453174 -0.00467344 -0.0374706
0.0443918 -0.00482815 -0.0678812
0.0434028 -0.00499345 -0.100374
0.0428824 -0.00508042 -0.11747
0.0423436 -0.00517047 -0.135171
0.0412066 -0.0053605 -0.172526
0.0406062 -0.00546086 -0.192252
0.0399828 -0.00556504 -0.212731
0.0393352 -0.00567327 -0.234007
0.038662 -0.0057858 -0.256127
-0.148189 -0.00124207 0.211321
-0.148136 -0.00127912 0.189242
-0.0656683 -0.00109881 0.270673
-0.046019 -0.00108847 0.270656
0.0673254 -0.0010472 0.259607
0.0670615 -0.00109432 0.231637
0.0667728 -0.00114588 0.201031
0.0666179 -0.00117353 0.18462
0.0662847 -0.00123303 0.149303
0.0661052 -0.0012651 0.130267
0.065916 -0.00129888 0.110214
0.0657164 -0.00133452 0.0890605
0.0655056 -0.00137217 0.0667135
0.0652825 -0.001412 0.0430691
0.0650461 -0.00145421 0.018011
0.0642344 -0.00159757 -0.0670821
0.0639271 -0.00165185 -0.0993014
0.0637655 -0.0016804 -0.116246
0.0634248 -0.00174056 -0.151956
0.0632452 -0.00177229 -0.170787
0.0630589 -0.00180519 -0.190318
0.0628656 -0.00183934 -0.210587
0.0626648 -0.00187481 -0.231638
0.0624561 -0.00191167 -0.253517
0.255357 -0.000929845 0.270387
0.283316 -0.00091513 0.270362
-0.15042 0.00130986 0.171661
-0.150432 0.00134268 0.152126
0.0831442 0.0014888 -0.00826514
0.0834559 0.00153583 -0.0363632
0.0837878 0.00158593 -0.0662945
0.0841422 0.00163941 -0.0982445
0.0843285 0.00166752 -0.115041
0.0847209 0.00172675 -0.150425
0.0849277 0.00175797 -0.169076
0.0851422 0.00179034 -0.188415
0.0853648 0.00182392 -0.208478
0.0855958 0.00185879 -0.229309
0.0858358 0.00189502 -0.250952
-0.152908 0.00415641 0.127422
-0.0267363 0.00323494 0.270638
0.0882121 0.00305343 0.270536
0.0930883 0.00314509 0.250815
0.0939848 0.00328677 0.222416
0.0949658 0.00344182 0.191338
0.0954918 0.00352497 0.174672
0.096624 0.00370392 0.138804
0.0972343 0.00380038 0.119468
0.0978773 0.00390201 0.0990986
0.0985556 0.00400922 0.0776096
0.0992706 0.00412253 0.0548983
0.100027 0.00424245 0.0308633
0.100828 0.00436955 0.0053882
0.101247 0.004436 -0.00793046
0.102124 0.00457515 -0.0358213
0.103058 0.00472332 -0.0655184
0.104055 0.0048814 -0.0972034
0.105121 0.00505043 -0.131083
0.105682 0.00513942 -0.148918
0.106263 0.00523159 -0.167393
0.106865 0.00532714 -0.186543
0.10749 0.00542623 -0.206405
0.108138 0.00552909 -0.22702
0.108812 0.00563591 -0.248431
0.109512 0.00574695 -0.270687
-0.15481 0.00714272 0.102378
-0.154874 0.00733711 0.0792513
0.105469 0.00516129 0.256515
0.106169 0.0052732 0.24297
0.107278 0.00545047 0.221514
0.108878 0.00570623 0.190557
0.115297 0.00673323 0.0662559
0.115887 0.00682779 0.0548108
0.117119 0.00702512 0.0309286
0.118423 0.00723418 0.00562483
0.119105 0.00734346 -0.00760049
0.120533 0.00757221 -0.0352867
0.122052 0.00781567 -0.0647534
0.122849 0.00794337 -0.0802089
0.123672 0.00807531 -0.0961779
0.125404 0.0083528 -0.129762
0.126315 0.00849882 -0.147435
0.127258 0.00865003 -0.165736
0.12925 0.0089692 -0.204365
0.130302 0.00913778 -0.224769
0.131395 0.00931282 -0.245954
0.132529 0.0094947 -0.267967
-0.161625 0.00804516 0.27076
-0.156236 0.0105193 0.0586449
-0.156317 0.0107438 0.0395696
0.124438 0.00823525 0.164699
0.127043 0.00865387 0.128276
0.128447 0.00887962 0.108635
0.129925 0.00911752 0.0879376
0.135786 0.0100609 0.00585818
0.136724 0.0102119 -0.00727469
0.138687 0.0105278 -0.0347596
0.139714 0.0106932 -0.0491499
0.141869 0.0110401 -0.0793306
0.143 0.0112221 -0.0951675
0.145378 0.0116048 -0.128461
0.146628 0.0118061 -0.145974
0.149264 0.0122304 -0.182889
0.150655 0.0124542 -0.202359
0.152097 0.0126863 -0.222556
0.153594 0.0129273 -0.243519
0.155149 0.0131775 -0.265294
-0.15778 0.0141618 0.0169923
-0.157859 0.0143715 0.00314492
-0.0054687 0.0096041 0.270619
0.127806 0.00897278 0.270501
0.130906 0.00930054 0.247845
0.132806 0.00960669 0.226996
0.134144 0.00982224 0.212317
0.137008 0.0102837 0.18089
0.138543 0.0105311 0.164043
0.145497 0.0116528 0.087658
0.147473 0.0119716 0.0659467
0.148502 0.0121377 0.0546393
0.150649 0.012484 0.0310566
0.155331 0.0132395 -0.0203902
0.157891 0.0136526 -0.0485215
0.160616 0.0140923 -0.078465
0.163523 0.0145613 -0.110401
0.16505 0.0148077 -0.12718
0.168264 0.0153263 -0.162501
0.169957 0.0155995 -0.181106
0.171712 0.0158827 -0.200386
0.173531 0.0161763 -0.220379
0.17542 0.0164809 -0.241125
0.17738 0.0167973 -0.262667
-0.191879 0.0128176 0.270786
-0.157481 0.0129918 0.250548
-0.157622 0.0133576 0.230797
-0.158276 0.0150526 0.139262
-0.159476 0.0181644 -0.0287781
0.145569 0.0116841 0.226095
0.147185 0.0119449 0.211469
0.155447 0.0132792 0.136659
0.158626 0.0137929 0.107855
0.165784 0.0149496 0.0430011
0.168444 0.0153796 0.0188961
0.175816 0.016571 -0.0479019
0.179095 0.0171009 -0.0776116
0.18259 0.0176658 -0.109284
0.186325 0.0182693 -0.143121
0.188289 0.0185867 -0.160921
0.190323 0.0189155 -0.179351
0.19243 0.019256 -0.198444
0.194615 0.019609 -0.218238
0.196881 0.0199753 -0.23877
0.199233 0.0203554 -0.260085
-0.161139 0.0220504 -0.0549727
-0.161349 0.0225832 -0.0793083
-0.161569 0.0231424 -0.104849
0.0130686 0.0137458 0.270603
0.0335221 0.0136058 0.270585
0.148 0.0128225 0.270482
0.155524 0.0133074 0.245912
0.164137 0.0146995 0.179452
0.176093 0.0166339 0.087109
0.178872 0.0170835 0.0656451
0.186525 0.0183216 0.00654054
0.188191 0.018591 -0.00632352
0.191673 0.0191545 -0.0332213
0.195373 0.0197531 -0.0618003
0.197312 0.0200667 -0.0767703
0.201379 0.0207247 -0.108183
0.205722 0.0214274 -0.141726
0.208006 0.0217969 -0.159365
0.21037 0.0221793 -0.177623
0.212818 0.0225754 -0.196533
0.215356 0.022986 -0.216131
0.217987 0.0234117 -0.236455
0.220718 0.0238535 -0.257546
0.237604 0.0209626 -0.130458
-0.159937 0.0187329 0.210965
-0.16016 0.0192914 0.188867
-0.160348 0.0197628 0.170217
-0.163244 0.0270275 -0.11721
-0.163427 0.0274868 -0.135381
-0.163714 0.0282058 -0.163826
0.16968 0.0156096 0.231346
0.173994 0.0163074 0.202296
0.178709 0.0170708 0.170515
0.182546 0.017692 0.144653
0.186672 0.0183601 0.116838
0.195937 0.0198602 0.0543898
0.199371 0.0204162 0.0312427
0.20685 0.0216272 -0.0191705
0.215272 0.0229908 -0.0759411
0.219894 0.0237392 -0.107098
0.237941 0.0207607 0.00544834
-0.162045 0.0237709 0.122664
-0.163554 0.0275174 -0.00806642
-0.165628 0.0326658 -0.187716
-0.165867 0.0332585 -0.208395
-0.166114 0.033873 -0.229839
0.0535633 0.0176129 0.270567
0.167768 0.016591 0.270465
0.186786 0.0183897 0.201497
0.196372 0.0199428 0.144094
0.204274 0.0212231 0.0967751
0.207726 0.0217824 0.0761015
0.215208 0.0229945 0.0313031
0.219269 0.0236526 0.0069809
0.238197 0.0206068 0.107698
0.242012 0.0188943 0.166472
-0.163885 0.0281084 0.0749593
-0.16429 0.0291066 0.0438066
-0.168201 0.0387369 -0.256719
0.0732045 0.0194886 0.270549
0.188017 0.018599 0.262343
0.192833 0.019379 0.236389
0.195395 0.0197942 0.222576
0.203785 0.0211541 0.177327
0.206844 0.0216499 0.16083
0.215157 0.0229974 0.115994
0.21878 0.0235846 0.0964568
0.238397 0.0204865 0.18737
0.241805 0.01896 0.23413
0.244639 0.0177741 0.270397
0.26419 0.0175786 0.27038
-0.165951 0.03298 0.0213798
0.216732 0.0232618 0.176633
0.234995 0.0219839 0.207121
0.238557 0.0203901 0.251188
0.283316 0.0192176 0.270362
-0.166072 0.0330976 0.0996758
-0.168289 0.0384909 -0.0392305
-0.168666 0.0394082 -0.0628578
-0.171024 0.0451469 -0.210661
-0.171368 0.0459839 -0.232219
0.0945733 0.0233327 0.27053
0.207954 0.0219602 0.270429
0.213639 0.0227676 0.247744
0.21806 0.0234849 0.227787
-0.167064 0.0288043 0.270765
-0.170505 0.0436872 -0.082575
-0.170802 0.0444069 -0.0996186
-0.171267 0.0455319 -0.126263
-0.172096 0.0475391 -0.173804
-0.165954 0.0325384 0.238891
-0.17328 0.0502157 -0.148591
-0.200274 0.0339199 0.270795
-0.168087 0.037563 0.185892
-0.168471 0.0384875 0.167032
-0.171244 0.0451565 0.0309942
-0.171948 0.0468477 -0.00350314
-0.172244 0.0475601 -0.0180366
-0.175791 0.0560905 -0.192045
-0.177353 0.0598475 -0.268682
0.119605 0.0290375 0.270508
-0.168672 0.0388595 0.210926
-0.17022 0.042571 0.140135
-0.170684 0.0436836 0.118913
-0.171299 0.0451588 0.0907741
-0.175691 0.0556913 -0.110121
-0.178756 0.0630432 -0.250348
-0.173187 0.0495639 0.0644578
-0.179865 0.0655381 -0.221632
0.143996 0.032619 0.270486
-0.177341 0.0593715 -0.0499679
-0.179333 0.0640003 -0.069231
-0.179771 0.0650436 -0.0858811
-0.181423 0.0689793 -0.14869
-0.181933 0.0701928 -0.168056
-0.184163 0.0755062 -0.252849
-0.184267 0.0756203 -0.192256
0.179431 0.0378223 0.270455
-0.172516 0.0475986 0.267258
-0.180946 0.0676171 -0.0207761
-0.18409 0.0750808 -0.128166
0.198545 0.0393495 0.270437
0.222808 0.0388258 0.270416
0.24284 0.0383935 0.270398
0.26419 0.0379328 0.27038
0.283316 0.0375201 0.270362
-0.174653 0.0525976 0.230864
-0.176866 0.0578468 0.158882
-0.188579 0.085617 -0.221925
-0.205907 0.0527678 0.2708
-0.175257 0.0539593 0.245405
-0.176886 0.0578166 0.194884
-0.178935 0.06267 0.131318
-0.179637 0.0643316 0.109555
-0.181158 0.067934 0.0623733
-0.183087 0.0725014 0.00255293
-0.186315 0.0546285 0.270781
-0.177473 0.0591376 0.210886
-0.183212 0.0727121 0.040741
-0.186108 0.0795605 -0.0450984
-0.189606 0.0878332 -0.148789
-0.190261 0.0893822 -0.168204
-0.192747 0.0952621 -0.241904
0.127084 0.0880494 -0.251046
-0.192785 0.095248 -0.192468
-0.1955 0.101662 -0.269544
-0.184281 0.0750824 0.085646
-0.190206 0.0890657 -0.0757269
0.10583 0.0977178 -0.269755
0.112191 0.0959427 -0.251033
-0.188634 0.0852773 0.00556892
-0.189747 0.0879004 -0.0235467
-0.192852 0.0952229 -0.104825
-0.197338 0.105799 -0.222219
-0.196676 0.104066 -0.120927
-0.198225 0.107714 -0.158536
-0.201675 0.115833 -0.242256
-0.20262 0.118058 -0.265196
0.0791309 0.109909 -0.268629
0.0858266 0.108021 -0.251009
-0.18552 0.077744 0.178021
-0.186347 0.0796916 0.158629
-0.18767 0.082803 0.127649
-0.188371 0.0844516 0.111233
-0.190383 0.0891869 0.0640834
-0.192048 0.0931022 0.0250984
-0.195172 0.100452 -0.0480834
-0.199233 0.110004 -0.143197
0.0744079 0.112166 -0.250999
-0.183354 0.0725977 0.253289
-0.18423 0.0746575 0.233461
-0.185543 0.0777458 0.203732
-0.202791 0.11829 -0.186548
0.187328 0.0602953 0.256873
0.213553 0.0580624 0.270424
-0.21726 0.0742514 0.27081
-0.197469 0.0735952 0.270791
-0.199203 0.109785 -0.0706586
-0.201584 0.115379 -0.122769
0.0520892 0.122257 -0.267487
0.23379 0.059295 0.270406
0.25358 0.0586388 0.270389
-0.197262 0.105161 0.00301123
-0.198293 0.107582 -0.0188396
0.0474807 0.124494 -0.250975
-0.194985 0.0997574 0.0790595
-0.20301 0.118587 -0.0857335
-0.20704 0.128044 -0.168503
-0.209045 0.132749 -0.209683
-0.210104 0.135234 -0.231429
-0.202674 0.117736 -0.0479528
-0.20746 0.128959 -0.143284
-0.213254 0.142547 -0.258704
0.0246986 0.134764 -0.266332
0.0319127 0.13272 -0.250962
0.0744076 0.131177 -0.251001
0.0858262 0.130763 -0.251012
0.170912 0.0677855 0.265633
-0.189814 0.0875311 0.229893
-0.196332 0.102811 0.103818
-0.200527 0.112643 0.0226954
-0.211356 0.138026 -0.186746
0.0513518 0.135841 -0.25098
0.163208 0.0713102 0.254974
-0.194344 0.0981031 0.165206
-0.196254 0.102577 0.129318
-0.200648 0.112873 0.0467346
-0.214415 0.145126 -0.211981
0.0122643 0.141169 -0.250944
-0.194326 0.0980154 0.187232
-0.196458 0.103009 0.148265
-0.218868 0.155488 -0.261274
-0.00304759 0.147434 -0.26516
-0.1922 0.0929967 0.245577
-0.194309 0.0979324 0.208078
-0.207223 0.128164 -0.0216092
-0.209882 0.134387 -0.0688874
-0.212303 0.140054 -0.111941
-0.215492 0.147518 -0.168654
-0.21904 0.155823 -0.231752
-0.00759649 0.14971 -0.250926
-0.225851 0.0934661 0.270817
-0.205908 0.092637 0.270799
-0.192021 0.092539 0.267173
-0.202998 0.118223 0.077067
-0.207172 0.127992 0.00475931
-0.215726 0.148005 -0.14337
-0.211908 0.139018 -0.0509786
-0.214371 0.144779 -0.0925446
-0.219965 0.157861 -0.186945
-0.0311563 0.160269 -0.263974
0.0201487 0.156304 -0.250952
0.138298 0.0826857 0.253013
0.189037 0.0781444 0.270446
-0.214612 0.14529 -0.0704928
-0.223227 0.16543 -0.21225
0.207954 0.0792475 0.27043
-0.205201 0.12324 0.10551
-0.207804 0.129326 0.0637029
-0.209411 0.133081 0.0379055
-0.227349 0.175005 -0.250098
0.132952 0.0851183 0.266254
0.153975 0.0835721 0.270477
-0.198548 0.107653 0.229924
-0.202886 0.11779 0.161919
-0.205203 0.123204 0.1256
-0.21923 0.155977 -0.0942609
-0.220358 0.158614 -0.111951
-0.228022 0.17652 -0.232077
-0.0596348 0.173273 -0.262773
-0.00360745 0.16897 -0.250931
-0.202939 0.117875 0.179481
-0.216256 0.148981 -0.0244111
-0.22466 0.168611 -0.15308
-0.202989 0.117956 0.196293
-0.214556 0.144965 0.0232282
-0.228616 0.177797 -0.187145
-0.0236406 0.177698 -0.250913
0.112559 0.0944399 0.250986
-0.200764 0.112728 0.245664
-0.21176 0.138395 0.0848067
-0.220705 0.159275 -0.0460506
-0.22659 0.173014 -0.132151
-0.229239 0.179197 -0.170899
-0.235951 0.194866 -0.269094
-0.0884903 0.186449 -0.261555
-0.0438924 0.182595 -0.250895
-0.234508 0.112829 0.270825
-0.233411 0.188882 -0.206131
-0.205908 0.113744 0.270799
-0.217916 0.152681 0.0355895
-0.220395 0.158464 0.000877619
-0.237052 0.197325 -0.232403
0.105083 0.0978667 0.270521
0.173618 0.0943675 0.27046
-0.213679 0.14276 0.112856
-0.229682 0.180086 -0.10658
-0.233082 0.188014 -0.153193
-0.24002 0.204197 -0.248329
-0.11773 0.199801 -0.260321
-0.0643667 0.195442 -0.250877
-0.211556 0.137773 0.158583
-0.213887 0.143207 0.127281
-0.224827 0.168719 -0.0196592
-0.228975 0.178391 -0.0753675
-0.237312 0.197832 -0.187346
0.0934945 0.103135 0.266897
-0.207346 0.127924 0.229955
-0.223239 0.164975 0.0207916
-0.237816 0.198959 -0.171058
-0.245298 0.216403 -0.269531
-0.211646 0.137918 0.188726
-0.220324 0.158144 0.076774
-0.221285 0.160384 0.0643751
-0.229464 0.179447 -0.0411434
-0.242272 0.2093 -0.206385
-0.244833 0.215269 -0.239423
-0.147363 0.213332 -0.25907
-0.0934111 0.208892 -0.250851
0.153975 0.103236 0.270478
-0.211512 0.137575 0.205208
-0.237304 0.197676 -0.121089
-0.131421 0.215011 -0.250816
0.0712214 0.113315 0.251344
-0.20939 0.132602 0.245751
-0.228752 0.177709 0.00546426
-0.241545 0.207513 -0.153306
-0.110211 0.217814 -0.250836
-0.222471 0.163044 0.0996368
-0.227042 0.17369 0.0439719
-0.235472 0.193327 -0.0587012
-0.237533 0.198127 -0.0837978
-0.246052 0.21797 -0.187549
-0.177396 0.227045 -0.257803
0.0710416 0.113981 0.270551
-0.243232 0.134726 0.270833
-0.217261 0.133181 0.270809
-0.233363 0.188376 -0.014927
-0.240139 0.204156 -0.095936
-0.246436 0.21882 -0.171217
-0.252098 0.235013 -0.254753
-0.252839 0.237195 -0.266017
-0.148561 0.228088 -0.250801
-0.220358 0.158059 0.155196
-0.222592 0.163261 0.128967
-0.229098 0.178376 0.0685445
-0.246352 0.218543 -0.130417
-0.207837 0.240946 -0.256518
0.0524469 0.121878 0.267559
0.0987912 0.118433 0.270527
-0.21621 0.148347 0.229986
-0.220537 0.158419 0.180955
-0.239983 0.203678 -0.0393633
-0.25347 0.238886 -0.211266
-0.254938 0.243205 -0.232414
-0.220211 0.157633 0.197821
-0.235202 0.192519 0.0308824
-0.246274 0.218284 -0.0924085
-0.253668 0.239417 -0.194063
-0.17893 0.246169 -0.250774
-0.234441 0.190714 0.0547802
-0.251803 0.233879 -0.148689
-0.253163 0.23788 -0.167631
-0.256204 0.255881 -0.253804
-0.238695 0.255036 -0.255216
0.0281579 0.132978 0.251717
-0.218079 0.152621 0.245839
-0.230965 0.182599 0.10711
-0.246201 0.218043 -0.0569136
0.0775163 0.12793 0.270546
-0.243628 0.212024 -0.0131522
-0.246541 0.218798 -0.043995
-0.251569 0.233099 -0.109451
-0.218688 0.261034 -0.250738
0.0290132 0.13322 0.270589
-0.252024 0.154399 0.27084
-0.231615 0.153013 0.270822
-0.228803 0.177514 0.156864
-0.231319 0.183364 0.130658
-0.237481 0.197696 0.0664493
-0.241931 0.208044 0.0200897
-0.254408 0.241397 -0.129917
-0.255791 0.245461 -0.148237
-0.256245 0.258433 -0.207959
0.0128649 0.13996 0.254239
-0.256261 0.258611 -0.190558
-0.256237 0.266386 -0.2259
-0.2247 0.167924 0.223144
-0.229192 0.178365 0.177815
-0.237668 0.198071 0.0922683
-0.241995 0.208132 0.0485955
-0.252802 0.236589 -0.0753928
-0.256283 0.258788 -0.17367
-0.245652 0.275254 -0.250714
0.0097129 0.141391 0.268249
0.0491449 0.138104 0.270571
-0.249969 0.228225 -0.0237076
-0.229096 0.178094 0.202275
-0.249607 0.227124 -0.00434566
-0.253166 0.237578 -0.0486541
-0.239956 0.20331 0.108822
-0.256339 0.254025 -0.103247
-0.256327 0.257503 -0.118145
-0.256253 0.27847 -0.207974
-0.0167415 0.15348 0.252105
-0.226832 0.172787 0.245928
-0.250023 0.22827 0.0189493
-0.256268 0.278357 -0.190572
-0.246256 0.217896 0.0744351
-0.256283 0.278246 -0.17367
-0.0148659 0.153306 0.270628
-0.260884 0.174226 0.270848
-0.240317 0.172656 0.270829
-0.237626 0.197821 0.166661
-0.239836 0.202956 0.146271
-0.249876 0.227769 0.0475488
-0.256365 0.259733 -0.0816528
-0.256312 0.274252 -0.141283
-0.233412 0.188009 0.216125
-0.0267361 0.158512 0.270639
-0.237788 0.198153 0.18719
-0.243996 0.212571 0.131532
-0.256407 0.253476 -0.0280091
-0.256391 0.258347 -0.0474792
-0.248406 0.223356 0.101643
-0.25644 0.247543 0.00880456
-0.256353 0.274108 -0.0959606
-0.048422 0.167942 0.25728
-0.253484 0.238192 0.0689812
-0.256461 0.248091 0.0318958
-0.256365 0.277646 -0.0816528
0.0130692 0.163891 0.270604
-0.235649 0.193101 0.246018
-0.00546816 0.167538 0.27062
-0.246626 0.218564 0.163335
-0.256481 0.248613 0.0539199
-0.0652749 0.175633 0.267096
-0.266829 0.193954 0.270853
-0.25497 0.192949 0.270842
-0.242352 0.208623 0.208921
-0.246298 0.217782 0.176292
-0.251837 0.233274 0.120744
-0.256413 0.273893 -0.0280191
-0.255153 0.242964 0.0969792
-0.256441 0.268847 0.00284678
-0.240839 0.205072 0.239959
-0.251657 0.232691 0.143704
-0.256462 0.268891 0.0262174
-0.0963208 0.189813 0.257802
-0.256502 0.258282 0.0749462
-0.256511 0.258421 0.0851084
-0.249945 0.22757 0.199614
-0.253737 0.238681 0.16257
-0.050896 0.188748 0.270661
-0.244266 0.212933 0.256574
-0.253381 0.237614 0.175475
-0.256545 0.253158 0.123588
-0.275806 0.214066 0.270861
-0.12939 0.204915 0.25563
-0.249988 0.227627 0.225689
-0.256566 0.257842 0.146007
-0.146376 0.21267 0.258337
-0.111273 0.20772 0.270715
-0.260885 0.224691 0.270847
-0.252038 0.233522 0.247821
-0.256615 0.248207 0.203002
-0.256597 0.258355 0.17955
-0.284852 0.234335 0.270869
-0.256629 0.248635 0.21789
-0.18115 0.228549 0.256129
-0.132188 0.223362 0.270734
-0.198732 0.236576 0.258896
-0.145469 0.229302 0.270746
-0.260885 0.243916 0.270847
-0.256653 0.253086 0.242623
-0.21727 0.245044 0.253835
-0.215651 0.244297 0.26936
-0.293971 0.254765 0.270877
-0.235338 0.253292 0.256647
-0.266829 0.263826 0.270853
-0.303162 0.272909 0.270885
-0.21726 0.262826 0.27081
-0.246155 0.268605 0.270836
-0.284852 0.282902 0.270869
