ply
format ascii 1.0
comment Created by Open3D
element vertex 780
property double x
property double y
property double z
end_header
0.19214 -0.173351 -0.391083
0.192159 -0.173971 -0.374299
0.170655 -0.17177 -0.396946
0.212961 -0.160631 -0.417796
0.213062 -0.161127 -0.40169
0.186156 -0.160789 -0.417831
0.164659 -0.160327 -0.417859
0.2131 -0.16116 -0.373138
0.136145 -0.160484 -0.417896
0.116564 -0.159683 -0.417921
0.21314 -0.161195 -0.342587
0.0965078 -0.158862 -0.417947
0.0759575 -0.160817 -0.417974
0.0548951 -0.15999 -0.418002
0.213183 -0.161233 -0.309819
0.0259812 -0.159814 -0.418039
0.014885 -0.160833 -0.418054
0.213055 -0.141859 -0.407177
0.186156 -0.142488 -0.417831
-0.0154088 -0.160668 -0.418093
0.21323 -0.161274 -0.274585
0.213077 -0.142026 -0.390495
0.164659 -0.141777 -0.417859
-0.042789 -0.160144 -0.418129
0.213099 -0.1422 -0.373137
0.136145 -0.141604 -0.417896
-0.0628672 -0.158895 -0.418155
-0.0751296 -0.15996 -0.418171
-0.163824 -0.174098 -0.378847
-0.175725 -0.17211 -0.397394
0.21328 -0.161318 -0.236593
0.116564 -0.140575 -0.417921
0.0965078 -0.142285 -0.417947
-0.0959365 -0.158687 -0.418198
-0.125869 -0.161238 -0.418237
0.213301 -0.1607 -0.220551
0.21314 -0.141572 -0.342586
0.0759575 -0.14124 -0.417974
-0.156779 -0.16069 -0.418277
0.213334 -0.161366 -0.195508
0.213165 -0.141746 -0.323207
0.0548951 -0.140168 -0.418002
-0.184089 -0.159746 -0.418312
-0.202731 -0.161273 -0.418337
0.213356 -0.160723 -0.178122
0.213192 -0.141928 -0.302978
0.0259812 -0.139657 -0.418039
0.014885 -0.140548 -0.418054
0.213392 -0.161417 -0.150937
0.21322 -0.142117 -0.281841
0.212961 -0.122079 -0.417796
-0.0154088 -0.140031 -0.418093
-0.042789 -0.142184 -0.418129
0.213417 -0.160748 -0.13203
0.213249 -0.142316 -0.259736
0.213062 -0.121828 -0.401689
0.186156 -0.121572 -0.417831
-0.0628672 -0.140735 -0.418155
-0.0751296 -0.141679 -0.418171
0.213456 -0.161473 -0.102414
0.213269 -0.141418 -0.244426
0.213091 -0.122412 -0.379
0.164659 -0.120576 -0.417859
-0.0959365 -0.140199 -0.418198
-0.125869 -0.142453 -0.418237
0.213483 -0.160775 -0.0817787
0.2133 -0.141607 -0.22055
0.213115 -0.122185 -0.361167
0.136145 -0.120026 -0.417896
0.116564 -0.121468 -0.417921
-0.156779 -0.141598 -0.418277
0.213511 -0.16005 -0.0603851
0.213333 -0.141806 -0.195507
0.213139 -0.121948 -0.342585
0.0965078 -0.120182 -0.417947
0.0759575 -0.121662 -0.417974
-0.184089 -0.140382 -0.418312
-0.202731 -0.141724 -0.418337
0.213556 -0.160804 -0.0267782
0.213368 -0.142015 -0.169211
0.213165 -0.121701 -0.323206
0.0548951 -0.120346 -0.418002
0.0259812 -0.12238 -0.418039
0.213586 -0.160046 -0.00329471
0.213404 -0.142235 -0.141563
0.2132 -0.122337 -0.296035
0.014885 -0.120263 -0.418054
-0.0154088 -0.122343 -0.418093
0.213635 -0.160837 0.0336773
0.213443 -0.142466 -0.112458
0.213229 -0.122086 -0.274583
-0.042789 -0.12123 -0.418129
0.213669 -0.16004 0.0595728
0.213469 -0.141434 -0.0921875
0.213258 -0.121823 -0.252139
0.213048 -0.102151 -0.412594
-0.0628672 -0.119549 -0.418155
-0.0751296 -0.120351 -0.418171
-0.0959365 -0.121711 -0.418198
0.213723 -0.160873 0.100443
0.213511 -0.141654 -0.060384
0.213289 -0.121548 -0.228634
0.213076 -0.102206 -0.390495
0.186156 -0.100656 -0.417831
0.164659 -0.102026 -0.417859
-0.125869 -0.120537 -0.418237
0.213761 -0.160034 0.129141
0.213555 -0.141886 -0.0267771
0.213333 -0.122247 -0.195506
0.213107 -0.102264 -0.367192
0.136145 -0.101146 -0.417896
0.116564 -0.102361 -0.417921
-0.156779 -0.119325 -0.418277
-0.184089 -0.121019 -0.418312
-0.202731 -0.122176 -0.418337
0.213821 -0.160912 0.17456
0.213602 -0.142132 0.00879061
0.213367 -0.121966 -0.16921
0.213139 -0.102324 -0.342584
0.0965078 -0.100843 -0.417947
0.0759575 -0.102084 -0.417974
0.213863 -0.160028 0.206543
0.213841 -0.158246 0.190373
0.213652 -0.142393 0.0464966
0.213635 -0.140981 0.0336788
0.213404 -0.121671 -0.141562
0.213173 -0.102389 -0.316559
0.0548951 -0.100525 -0.418002
0.0259812 -0.102223 -0.418039
0.213929 -0.160957 0.257313
0.213907 -0.159103 0.24
0.213686 -0.141211 0.0729188
0.213455 -0.122436 -0.102412
0.213429 -0.120303 -0.122328
0.213209 -0.102457 -0.288989
0.014885 -0.0999773 -0.418054
-0.0154088 -0.101707 -0.418093
0.193157 -0.171578 0.393127
0.213977 -0.160021 0.293179
0.21378 -0.144505 0.143956
0.213741 -0.141456 0.114642
0.213704 -0.138534 0.0865395
0.213496 -0.122135 -0.0711769
0.213238 -0.101751 -0.267214
-0.042789 -0.100277 -0.418129
-0.0628672 -0.10139 -0.418155
-0.0751296 -0.10207 -0.418171
0.214052 -0.161007 0.350306
0.214026 -0.159039 0.330798
0.214001 -0.157119 0.311762
0.2138 -0.141718 0.159092
0.21354 -0.121817 -0.038188
0.213278 -0.101803 -0.23659
-0.0959365 -0.100142 -0.418198
-0.125869 -0.101752 -0.418237
0.214105 -0.160013 0.390807
0.214078 -0.158008 0.370303
0.213884 -0.143614 0.223082
0.213841 -0.140416 0.190375
0.213586 -0.121481 -0.00329232
0.21357 -0.120322 -0.015146
0.213321 -0.101858 -0.203988
0.213299 -0.100239 -0.220548
0.213055 -0.0819919 -0.407177
0.186156 -0.0823552 -0.417831
-0.156779 -0.100233 -0.418277
-0.184089 -0.101656 -0.418312
0.214133 -0.156924 0.411838
0.213929 -0.142295 0.257314
0.213906 -0.140656 0.240001
0.213651 -0.122338 0.0464977
0.213634 -0.121124 0.0336797
0.213367 -0.101917 -0.169209
0.213091 -0.0820565 -0.379
0.164659 -0.0808259 -0.417859
0.136145 -0.0822651 -0.417896
-0.202731 -0.09937 -0.418337
0.213976 -0.140914 0.293179
0.213704 -0.121993 0.0865397
0.213686 -0.120746 0.0729196
0.213416 -0.10198 -0.132027
0.213391 -0.100249 -0.150934
0.21313 -0.0821256 -0.348864
0.116564 -0.0805238 -0.417921
0.0965078 -0.081503 -0.417947
0.214052 -0.141191 0.350306
0.214026 -0.139465 0.330798
0.21376 -0.121626 0.129143
0.213741 -0.120344 0.114642
0.213469 -0.102047 -0.0921859
0.213442 -0.100254 -0.112457
0.213173 -0.0821994 -0.316558
0.0759575 -0.0797094 -0.417974
0.0548951 -0.0807029 -0.418002
0.0259812 -0.0820666 -0.418039
0.214105 -0.139693 0.390806
0.214078 -0.137943 0.370303
0.214001 -0.132946 0.311762
0.21382 -0.121235 0.174561
0.213525 -0.10212 -0.0493882
0.213496 -0.10026 -0.0711768
0.213218 -0.0822788 -0.281838
0.21319 -0.0804747 -0.302975
0.014885 -0.0796921 -0.418054
-0.0154088 -0.0810708 -0.418093
-0.042789 -0.0823169 -0.418129
0.214133 -0.136344 0.411838
0.213907 -0.122209 0.24
0.213862 -0.119458 0.206544
0.213841 -0.118128 0.190374
0.213586 -0.102198 -0.00329268
0.21357 -0.101223 -0.0151465
0.213267 -0.0823644 -0.244423
0.213247 -0.0811052 -0.259732
-0.0628672 -0.0802041 -0.418155
-0.0751296 -0.0807418 -0.418171
-0.0959365 -0.0816543 -0.418198
0.213977 -0.121807 0.293179
0.213929 -0.118968 0.257313
0.213651 -0.102282 0.0464973
0.213635 -0.101268 0.0336794
0.21332 -0.0824569 -0.203986
0.213299 -0.0811461 -0.220546
-0.125869 -0.0798362 -0.418237
-0.156779 -0.0811407 -0.418277
-0.184089 -0.0822932 -0.418312
0.214052 -0.121374 0.350305
0.214026 -0.119891 0.330798
0.213723 -0.102374 0.100444
0.213686 -0.10028 0.0729193
0.213366 -0.0818681 -0.169206
-0.202731 -0.0798218 -0.418337
0.214105 -0.119374 0.390806
0.214078 -0.117879 0.370302
0.214001 -0.113609 0.311761
0.2138 -0.102473 0.159091
0.21376 -0.100288 0.129143
0.213427 -0.0819462 -0.122323
0.213402 -0.0805432 -0.141558
0.213076 -0.0623854 -0.390495
0.213048 -0.0607735 -0.412594
0.186156 -0.0614396 -0.417831
0.164659 -0.0622757 -0.417859
0.214133 -0.115763 0.411838
0.213863 -0.101426 0.206543
0.213841 -0.100297 0.190374
0.213494 -0.0820314 -0.0711718
0.213467 -0.0805642 -0.0921813
0.213122 -0.0622056 -0.355058
0.136145 -0.0606874 -0.417896
0.116564 -0.0614165 -0.417921
0.0965078 -0.0621633 -0.417947
0.213953 -0.101489 0.275035
0.213929 -0.100306 0.257313
0.213907 -0.0991511 0.24
0.213568 -0.0821248 -0.0151399
0.213538 -0.0805871 -0.0381821
0.213181 -0.0624601 -0.309816
0.213147 -0.0606983 -0.336215
0.0759575 -0.0601317 -0.417974
0.0548951 -0.0608811 -0.418002
0.0259812 -0.0619099 -0.418039
0.014885 -0.0623047 -0.418054
0.214052 -0.101558 0.350305
0.214026 -0.100317 0.330797
0.21365 -0.0822274 0.0465034
0.213633 -0.0814118 0.0336858
0.213599 -0.0798282 0.00879848
0.213237 -0.0622658 -0.267213
0.213209 -0.0608802 -0.288988
-0.0154088 -0.0604346 -0.418093
-0.042789 -0.0613635 -0.418129
-0.0628672 -0.0620447 -0.418155
-0.0751296 -0.0624607 -0.418171
0.214105 -0.0990554 0.390806
0.214078 -0.0978143 0.370302
0.214001 -0.0942711 0.311761
0.213779 -0.0841149 0.14396
0.21374 -0.0823407 0.114647
0.213703 -0.0806398 0.0865451
0.213685 -0.0798155 0.072925
0.213299 -0.0620529 -0.220546
0.213267 -0.0606078 -0.244423
-0.0959365 -0.0600853 -0.418198
-0.125869 -0.0610512 -0.418237
-0.156779 -0.0620488 -0.418277
0.214133 -0.0951833 0.411838
0.213884 -0.0843447 0.223084
0.21384 -0.0824667 0.190377
0.213819 -0.0815587 0.174564
0.213378 -0.0623391 -0.160145
0.213354 -0.0613071 -0.178117
0.213331 -0.0603088 -0.195503
-0.184089 -0.0597029 -0.418312
-0.202731 -0.0602736 -0.418337
0.213929 -0.0816449 0.257315
0.213906 -0.0807045 0.240003
0.213454 -0.0621056 -0.102407
0.213427 -0.0610238 -0.122323
0.213402 -0.059979 -0.141558
0.214133 -0.0848932 0.411838
0.214052 -0.0817418 0.350305
0.214026 -0.0807428 0.330798
0.213976 -0.0788162 0.29318
0.213553 -0.0624304 -0.02677
0.213523 -0.0612723 -0.0493826
0.213494 -0.0601564 -0.0711718
0.212961 -0.0424065 -0.417796
0.214105 -0.0787363 0.390806
0.214078 -0.0777498 0.370302
0.214001 -0.0749335 0.311762
0.21365 -0.0621719 0.0465034
0.213633 -0.0615553 0.0336858
0.213599 -0.0603579 0.00879848
0.213107 -0.0422689 -0.367192
0.213069 -0.0408768 -0.396129
0.186156 -0.040524 -0.417831
0.164659 -0.0410754 -0.417859
0.136145 -0.0418069 -0.417896
0.116564 -0.0423091 -0.417921
0.213759 -0.0618803 0.129147
0.21374 -0.0612277 0.114647
0.213703 -0.0599629 0.0865451
0.213685 -0.0593499 0.072925
0.21319 -0.0424321 -0.302975
0.213173 -0.0418208 -0.316558
0.213147 -0.0409361 -0.336215
0.0965078 -0.0400608 -0.417947
0.0759575 -0.0405539 -0.417974
0.0548951 -0.0410593 -0.418002
0.0259812 -0.0417532 -0.418039
0.014885 -0.0420195 -0.418054
0.213906 -0.0622578 0.240003
0.213862 -0.0608559 0.206547
0.21384 -0.0601784 0.190377
0.213819 -0.0595158 0.174564
0.213278 -0.0422875 -0.236588
0.213247 -0.0413177 -0.259732
-0.0154088 -0.0397984 -0.418093
-0.042789 -0.0404101 -0.418129
-0.0628672 -0.0408587 -0.418155
-0.0751296 -0.0411326 -0.418171
-0.0959365 -0.0415975 -0.418198
-0.125869 -0.0422662 -0.418237
0.214133 -0.064313 0.411838
0.214052 -0.0619256 0.350305
0.214026 -0.0611688 0.330798
0.213976 -0.0597093 0.29318
0.213929 -0.0583178 0.257315
0.21339 -0.0424785 -0.15093
0.213366 -0.0417694 -0.169206
0.213331 -0.0407492 -0.195503
0.213299 -0.0397775 -0.220546
-0.156779 -0.0397748 -0.418277
-0.184089 -0.0403398 -0.418312
-0.202731 -0.0407254 -0.418337
0.214105 -0.0584173 0.390806
0.214078 -0.0576854 0.370302
0.213509 -0.0423125 -0.0603773
0.213481 -0.0415488 -0.0817713
0.213454 -0.0408123 -0.102407
0.213427 -0.0401013 -0.122323
0.21365 -0.0421165 0.0465034
0.213633 -0.0416987 0.0336858
0.213599 -0.0408876 0.00879848
0.213568 -0.0401075 -0.0151399
0.213538 -0.0393565 -0.0381821
0.214001 -0.045927 0.311762
0.213884 -0.0433122 0.223084
0.21384 -0.0423477 0.190377
0.213819 -0.0418815 0.174564
0.213759 -0.0405423 0.129147
0.21374 -0.0401147 0.114647
0.213703 -0.0392861 0.0865451
0.213685 -0.0388845 0.072925
0.214133 -0.0437328 0.411838
0.214052 -0.0421094 0.350305
0.214026 -0.0415948 0.330798
0.213976 -0.0406023 0.29318
0.213929 -0.0396561 0.257315
0.213906 -0.0391993 0.240003
0.207307 -0.0240552 -0.337131
0.213069 -0.0224163 -0.396129
0.207083 -0.0219284 -0.417804
0.186156 -0.0222228 -0.417831
0.214105 -0.0380982 0.390806
0.214078 -0.0376209 0.370302
0.213221 -0.0224395 -0.281844
0.213193 -0.0219475 -0.302981
0.213176 -0.0216312 -0.316565
0.213122 -0.0207352 -0.355058
0.213084 -0.0200431 -0.384786
0.164659 -0.0198752 -0.417859
0.136145 -0.0202291 -0.417896
0.116564 -0.0204722 -0.417921
0.0965078 -0.0207211 -0.417947
0.0759575 -0.0209762 -0.417974
0.0548951 -0.0212376 -0.418002
0.0259812 -0.0215965 -0.418039
0.014885 -0.0217342 -0.418054
-0.0154088 -0.0221102 -0.418093
-0.042789 -0.02245 -0.418129
0.213413 -0.0224703 -0.13202
0.213389 -0.0220889 -0.150928
0.213365 -0.0217202 -0.169204
0.213331 -0.0211896 -0.195502
0.213299 -0.0206843 -0.220547
0.213268 -0.0202025 -0.244425
0.213248 -0.0198936 -0.259735
-0.0628672 -0.0196727 -0.418155
-0.0751296 -0.0198046 -0.418171
-0.0959365 -0.0200284 -0.418198
-0.125869 -0.0203504 -0.418237
-0.156779 -0.0206829 -0.418277
-0.184089 -0.0209767 -0.418312
-0.202731 -0.0211772 -0.418337
0.214 -0.0265894 0.311767
0.213776 -0.0237249 0.143968
0.213668 -0.0222842 0.0595764
0.213635 -0.021842 0.0336784
0.213548 -0.0208104 -0.0267558
0.213519 -0.0204243 -0.0493705
0.213491 -0.0200523 -0.0711616
0.213464 -0.0196936 -0.0921731
0.213438 -0.0193475 -0.112446
0.214133 -0.0231527 0.411838
0.213764 -0.0223116 0.351462
0.214022 -0.022021 0.330815
0.213973 -0.0214956 0.293194
0.213926 -0.0209946 0.257326
0.213903 -0.0207527 0.240012
0.21386 -0.0202854 0.206553
0.213839 -0.0200595 0.190382
0.213818 -0.0198386 0.174568
0.21374 -0.0190017 0.114646
0.213704 -0.0186091 0.0865418
0.214105 -0.0177792 0.390806
0.214078 -0.0175564 0.370302
0.194346 -0.0139671 0.029595
0.183859 -0.00609749 0.0479437
0.207352 -0.00446243 -0.290447
0.194225 -0.00449448 -0.29058
0.214133 -0.00257254 0.411838
0.213764 -0.00247908 0.351462
0.213948 -0.00236025 0.275051
0.213925 -0.00233275 0.257329
0.213903 -0.00230588 0.240015
0.213859 -0.00225395 0.206556
0.213838 -0.00222886 0.190386
0.213817 -0.00220431 0.174572
0.213758 -0.00213382 0.129151
0.213739 -0.00211132 0.11465
0.213702 -0.0020677 0.0865459
0.213685 -0.00204656 0.0729249
0.213496 -0.00182293 -0.0711746
0.213468 -0.00179032 -0.0921841
0.213441 -0.00175886 -0.112455
0.213416 -0.00172849 -0.132026
0.213391 -0.00169915 -0.150933
0.213367 -0.00167078 -0.169208
0.213332 -0.00162997 -0.195506
0.2133 -0.00159111 -0.220549
0.213268 -0.00155405 -0.244424
0.213248 -0.00153029 -0.259733
0.213122 -0.00138236 -0.355058
0.213084 -0.00133622 -0.384786
0.213069 -0.00131861 -0.396129
0.207083 -0.00128992 -0.417804
0.186156 -0.00130723 -0.417831
0.164659 -0.00132502 -0.417859
0.136145 -0.00134862 -0.417896
0.116564 -0.00136482 -0.417921
0.0965078 -0.00138142 -0.417947
0.0759575 -0.00139842 -0.417974
0.0548951 -0.00141585 -0.418002
0.0259812 -0.00143977 -0.418039
0.014885 -0.00144896 -0.418054
-0.0154088 -0.00147402 -0.418093
-0.042789 -0.00149668 -0.418129
-0.0628672 -0.00151329 -0.418155
-0.0751296 -0.00152344 -0.418171
-0.0959364 -0.00154066 -0.418198
-0.125869 -0.00156543 -0.418237
-0.156779 -0.001591 -0.418277
-0.184089 -0.0016136 -0.418312
-0.202731 -0.00162903 -0.418337
0.214105 0.0025399 0.390806
0.214078 0.00250807 0.370302
0.193838 0.00249557 0.351436
0.194528 0.00207305 0.0797476
0.164092 0.00209852 0.0798929
0.194765 0.00153987 -0.263437
0.174169 0.00155707 -0.263363
0.173645 0.00753675 0.35141
0.15318 0.00758755 0.351384
0.143402 0.00744529 0.315626
0.124777 0.00739082 0.293987
0.0978408 0.00740488 0.282617
0.082356 0.00744245 0.282411
0.0614634 0.00749314 0.282133
0.0402841 0.00754453 0.281851
0.0188748 0.00759576 0.281412
-0.00230181 0.00764061 0.279728
-0.0183482 0.00767459 0.27845
-0.0399672 0.00772037 0.276729
-0.0618455 0.0077667 0.274987
-0.083988 0.00781358 0.273224
-0.0976824 0.0078672 0.277417
0.203834 0.0174109 0.351449
0.214133 0.0231527 0.411838
0.214105 0.0228589 0.390806
0.214078 0.0225725 0.370302
0.183775 0.0275427 0.351423
0.163447 0.0277277 0.351397
0.142844 0.0279152 0.35137
0.140463 0.0274899 0.325203
0.125083 0.0273508 0.308847
0.110073 0.0272002 0.292013
0.0900336 0.0273505 0.290108
0.0697712 0.0275025 0.288182
0.0492824 0.0276562 0.286235
0.0285386 0.0278129 0.284327
0.00742298 0.0279781 0.282724
-0.013945 0.0281454 0.281101
-0.0355723 0.0283148 0.279463
-0.0574646 0.0284863 0.277813
-0.0750793 0.0286621 0.278693
-0.156779 0.0175009 -0.418277
-0.184089 0.0177495 -0.418312
-0.202731 0.0179192 -0.418337
-0.109184 0.0346832 0.300593
0.213122 0.0179705 -0.355058
0.136145 0.0175319 -0.417896
0.116564 0.0177425 -0.417921
0.0965078 0.0179583 -0.417947
0.0759575 0.0181793 -0.417974
0.0548951 0.0184059 -0.418002
0.0259812 0.0187169 -0.418039
0.014885 0.0188363 -0.418054
-0.0154088 0.0191622 -0.418093
-0.042789 0.0194567 -0.418129
-0.0628672 0.0196727 -0.418155
-0.0751296 0.0198046 -0.418171
-0.0959364 0.0200284 -0.418198
-0.125869 0.0203504 -0.418237
0.203834 0.0373092 0.351449
0.213084 0.0200432 -0.384786
0.213069 0.0197791 -0.396129
0.207083 0.0193486 -0.417804
0.186156 0.0196084 -0.417831
0.164659 0.0198752 -0.417859
0.214133 0.0437328 0.411838
0.214105 0.043178 0.390806
0.214078 0.042637 0.370302
-0.0977792 0.0452184 0.30151
0.183775 0.0475737 0.351423
0.163442 0.0478938 0.351414
0.142816 0.0482204 0.351463
0.129591 0.0477089 0.327066
0.114229 0.0474625 0.310512
0.0804342 0.0477563 0.302417
0.04954 0.0481598 0.299592
0.0286521 0.0484327 0.297683
0.00752634 0.0487086 0.295751
-0.00847661 0.0489177 0.294288
-0.0300289 0.0491992 0.292318
-0.0520411 0.0495009 0.290784
-0.0697244 0.0498078 0.29174
-0.116968 0.0566738 0.316277
-0.207447 0.0375572 -0.418343
-0.0312164 0.0653665 0.30793
-0.0767562 0.0662628 0.306692
-0.0507671 0.0375818 -0.418139
-0.0710239 0.0380008 -0.418165
-0.0875575 0.0383428 -0.418187
-0.108648 0.0387791 -0.418214
-0.130224 0.0392255 -0.418242
-0.147845 0.03959 -0.418265
-0.170338 0.0400553 -0.418294
-0.188717 0.0404355 -0.418318
0.130967 0.0682768 0.339248
0.0860858 0.068322 0.316354
0.0544713 0.0689787 0.31513
0.0328888 0.0694453 0.31473
0.00549656 0.0700375 0.314223
-0.00559169 0.0702773 0.314018
-0.0564426 0.0713766 0.313076
-0.0987655 0.0724369 0.315756
0.0862955 0.0375261 -0.417961
0.0654915 0.0379909 -0.417988
0.0548951 0.0382277 -0.418002
0.0259812 0.0388737 -0.418039
0.014885 0.0391216 -0.418054
-0.0154088 0.0397984 -0.418093
0.114096 0.0731793 0.326793
0.0738304 0.0738851 0.320958
-0.121024 0.0787296 0.32445
0.213122 0.0400881 -0.355058
0.213084 0.0387501 -0.384786
0.213069 0.0382396 -0.396129
0.201161 0.0375495 -0.417811
0.180073 0.0380555 -0.417839
0.16154 0.0385003 -0.417863
0.139363 0.0390324 -0.417892
0.11986 0.0395004 -0.417917
0.0340782 0.0802391 0.325866
0.0120701 0.080789 0.325535
-0.0102417 0.0813466 0.325199
0.146296 0.0839502 0.357207
-0.0296143 0.0874035 0.330631
-0.0525848 0.0880166 0.330325
-0.0874206 0.0889211 0.329368
0.133433 0.0889173 0.348113
0.104171 0.0893828 0.341049
0.0672972 0.0903583 0.339301
0.0458633 0.0909253 0.338283
-0.0668174 0.0940706 0.335965
-0.168426 0.0563646 -0.411991
0.0270266 0.0970418 0.344246
0.00499278 0.0976604 0.343243
-0.11644 0.101189 0.339785
-0.121024 0.100448 0.32445
-0.0605985 0.0562673 -0.412144
-0.128461 0.0618435 -0.351349
-0.151136 0.0625377 -0.351379
-0.169646 0.0631044 -0.351403
-0.188494 0.0636815 -0.351427
-0.207691 0.0642692 -0.351451
-0.0258405 0.104277 0.348859
-0.054496 0.105142 0.347839
-0.066235 0.105516 0.347745
0.0358464 0.056181 -0.412272
-0.0335317 0.0626484 -0.342548
-0.0561935 0.0635187 -0.340283
-0.0840813 0.0645804 -0.337649
-0.106964 0.0656765 -0.331775
0.148849 0.104788 0.366208
0.12906 0.105216 0.362362
0.108142 0.105872 0.36149
0.0601026 0.107379 0.359501
0.03831 0.108063 0.358599
0.016239 0.108755 0.357684
-0.00611651 0.109456 0.356756
0.122629 0.0561033 -0.412388
0.0710027 0.0616459 -0.352917
0.0516514 0.0623879 -0.351599
0.0314863 0.0631886 -0.349794
0.0106224 0.0640303 -0.34772
-0.010805 0.0648947 -0.345589
-0.121008 0.117554 0.336698
-0.121056 0.115136 0.300458
-0.121087 0.113578 0.277115
-0.121118 0.112062 0.254396
-0.121147 0.110586 0.232275
0.201131 0.0560331 -0.412492
-0.121299 0.103115 0.120326
0.141033 0.0629103 -0.341608
0.122138 0.0626652 -0.35537
0.10135 0.0634011 -0.355454
-0.121024 0.122167 0.32445
-0.121176 0.114225 0.210729
-0.121204 0.112759 0.189736
-0.121231 0.11133 0.169275
-0.121258 0.109937 0.149327
-0.0351436 0.0753463 -0.345506
-0.128461 0.0785579 -0.351349
-0.121118 0.127699 0.254396
-0.121162 0.125192 0.221431
-0.121284 0.118229 0.129871
-0.151136 0.0828202 -0.351379
-0.169646 0.0835707 -0.351403
-0.188494 0.0843349 -0.351427
-0.207691 0.0851133 -0.351451
-0.121008 0.139425 0.336698
-0.121024 0.138456 0.32445
-0.121056 0.136557 0.300458
-0.121087 0.134709 0.277115
-0.12131 0.121553 0.110891
0.0989738 0.0751608 -0.357176
0.0495977 0.07751 -0.353889
-0.0562817 0.0826925 -0.345007
-0.0840876 0.084074 -0.342417
-0.12119 0.133662 0.200164
-0.121218 0.131958 0.17944
-0.121245 0.130296 0.159238
0.0693042 0.0795358 -0.355679
0.00575608 0.0826764 -0.351465
-0.0154243 0.0837497 -0.349738
-0.121087 0.145274 0.277115
0.145008 0.0792297 -0.353967
0.0305578 0.0844825 -0.3536
-0.121119 0.148548 0.254397
-0.121162 0.145631 0.221431
-0.121271 0.138387 0.139538
-0.121297 0.136687 0.120322
0.121687 0.0826728 -0.360074
-0.0956468 0.0943714 -0.344
-0.12191 0.0951808 -0.348884
-0.121019 0.161298 0.336721
-0.121036 0.160177 0.324475
-0.121322 0.139767 0.101573
-0.0533045 0.0952053 -0.348422
-0.142005 0.0992765 -0.351367
-0.121061 0.163333 0.300467
-0.121197 0.153839 0.200176
-0.12122 0.151876 0.179444
-0.121245 0.149963 0.159238
-0.160349 0.103568 -0.35139
-0.179027 0.10451 -0.351415
-0.198048 0.105471 -0.351439
-0.121091 0.166406 0.277122
-0.070148 0.102543 -0.348391
-0.121115 0.169396 0.254391
-0.121163 0.166071 0.221433
-0.121271 0.15781 0.139539
-0.1213 0.155872 0.120329
0.104903 0.0951041 -0.360836
0.0637855 0.0975887 -0.358184
-0.0209935 0.102712 -0.352713
-0.121325 0.158719 0.101578
0.0755584 0.0998088 -0.359417
0.0289025 0.102713 -0.356421
0.00865036 0.103974 -0.35512
-0.121193 0.174014 0.200171
-0.12122 0.171795 0.179445
-0.121242 0.16963 0.159232
-0.121363 0.160535 0.0742942
-0.121405 0.156797 0.0393866
-0.121438 0.154106 0.0142599
-0.121471 0.151506 -0.0100195
-0.121501 0.148992 -0.0334944
-0.121521 0.147362 -0.0487159
-0.121559 0.144207 -0.0781816
-0.121586 0.141928 -0.099466
-0.0863859 0.113137 -0.349339
-0.121622 0.143028 -0.12682
-0.121648 0.140847 -0.146606
-0.121673 0.138733 -0.165798
-0.121705 0.13601 -0.190508
-0.121735 0.133392 -0.214267
-0.12175 0.13212 -0.225806
-0.121787 0.129045 -0.253715
-0.121814 0.126686 -0.275124
-0.121841 0.124412 -0.295765
-0.121867 0.122218 -0.315677
-0.123986 0.11841 -0.351344
-0.14656 0.123109 -0.351373
-0.174326 0.124786 -0.351408
-0.121449 0.166554 0.00607383
-0.121577 0.155086 -0.0924464
-0.121464 0.169071 -0.0100294
-0.121622 0.155114 -0.12682
-0.188494 0.132526 -0.351427
-0.207691 0.133749 -0.351451
-0.121498 0.170585 -0.0334986
-0.121596 0.160801 -0.113297
-0.121512 0.172988 -0.0487294
-0.121639 0.160683 -0.146617
-0.12167 0.158272 -0.165801
-0.121703 0.155166 -0.190509
-0.12175 0.150729 -0.225806
-0.121867 0.139431 -0.315677
-0.121734 0.155937 -0.214269
-0.121787 0.150856 -0.253715
-0.121841 0.145439 -0.295765
-0.121904 0.139192 -0.344262
-0.142005 0.143025 -0.351367
-0.160349 0.144316 -0.35139
-0.121812 0.155235 -0.275127
-0.179239 0.152526 -0.351214
-0.198558 0.153986 -0.350968
-0.121746 0.169336 -0.225811
-0.121782 0.16903 -0.253721
-0.12186 0.160086 -0.315684
-0.121897 0.159315 -0.344269
-0.199414 0.165212 -0.345702
-0.142178 0.163945 -0.346628
-0.162076 0.165766 -0.345169
-0.12184 0.173475 -0.295766
-0.180076 0.171949 -0.336799
