ply
format ascii 1.0
comment Created by Open3D
element vertex 1280
property double x
property double y
property double z
end_header
0.0746012 -0.359008 -0.212823
0.0446958 -0.351696 -0.212779
0.02407 -0.346652 -0.212748
0.00402725 -0.341752 -0.212718
-0.0154567 -0.336988 -0.21269
-0.0455257 -0.329636 -0.212645
-0.0743108 -0.322598 -0.212603
-0.0951056 -0.317513 -0.212572
-0.115255 -0.312587 -0.212542
-0.144334 -0.305477 -0.212499
-0.162995 -0.300914 -0.212472
-0.17513 -0.297947 -0.212454
-0.204444 -0.290779 -0.21241
-0.224139 -0.285964 -0.212381
-0.235103 -0.283283 -0.212365
-0.264221 -0.276163 -0.212322
-0.27367 -0.281411 -0.190217
-0.273702 -0.288781 -0.168652
-0.273736 -0.296547 -0.145926
-0.273753 -0.300589 -0.134099
-0.27379 -0.309013 -0.10945
-0.273828 -0.317923 -0.083379
-0.273859 -0.324949 -0.0628177
-0.273891 -0.332294 -0.0413269
-0.273936 -0.342619 -0.0111145
-0.273971 -0.350794 0.0128064
-0.273996 -0.356464 0.029398
0.0967351 -0.35832 -0.212856
-0.274034 -0.35615 0.0553163
0.124193 -0.35871 -0.212896
-0.273996 -0.344532 0.029398
0.138304 -0.35891 -0.212917
-0.274075 -0.358956 0.0825552
0.0789753 -0.341998 -0.212829
-0.0268885 -0.317413 -0.212673
-0.0491924 -0.312234 -0.21264
-0.0916855 -0.302365 -0.212577
-0.134789 -0.292355 -0.212513
-0.273828 -0.30196 -0.083379
0.157534 -0.357068 -0.212945
0.0616338 -0.334993 -0.212804
0.0405228 -0.330134 -0.212772
0.0200155 -0.325413 -0.212742
0.00402725 -0.321733 -0.212718
-0.169093 -0.281883 -0.212462
-0.210139 -0.272435 -0.212402
-0.273654 -0.261588 -0.200592
-0.273702 -0.271865 -0.168652
-0.27379 -0.290912 -0.10945
-0.273971 -0.330245 0.0128064
-0.274103 -0.358781 0.101499
0.105777 -0.342086 -0.212869
-0.243193 -0.262473 -0.212353
-0.273736 -0.276695 -0.145926
-0.273753 -0.280466 -0.134099
-0.273891 -0.310048 -0.0413269
-0.273936 -0.316815 -0.0111145
-0.274132 -0.358599 0.121109
0.133572 -0.342177 -0.21291
-0.0672303 -0.297188 -0.212613
-0.11194 -0.287171 -0.212547
-0.274034 -0.334751 0.0553163
0.157534 -0.344372 -0.212945
-0.0344049 -0.301762 -0.212662
-0.189966 -0.267227 -0.212432
-0.273859 -0.295038 -0.0628177
-0.274075 -0.340146 0.0825552
-0.274162 -0.358411 0.141422
0.0833755 -0.321864 -0.212836
-0.274103 -0.339646 0.101499
-0.274193 -0.358217 0.162474
0.0967351 -0.321726 -0.212856
0.0531152 -0.31231 -0.212791
0.0281477 -0.306921 -0.212754
-0.0882472 -0.281795 -0.212582
-0.131575 -0.272443 -0.212518
-0.273828 -0.280676 -0.083379
-0.273971 -0.309697 0.0128064
-0.273996 -0.314703 0.029398
-0.274132 -0.342373 0.121109
0.011976 -0.300554 -0.21273
-0.0491924 -0.287475 -0.21264
-0.0743108 -0.282104 -0.212603
-0.166052 -0.262489 -0.212467
-0.212966 -0.252458 -0.212398
-0.27379 -0.270225 -0.10945
-0.273891 -0.290583 -0.0413269
-0.274226 -0.358015 0.184308
0.128868 -0.322432 -0.212903
-0.251169 -0.241951 -0.212341
-0.273654 -0.240661 -0.200592
-0.273686 -0.246883 -0.179574
-0.273736 -0.256842 -0.145926
-0.273753 -0.260343 -0.134099
-0.273936 -0.296745 -0.0111145
-0.274162 -0.341895 0.141422
-0.274242 -0.357911 0.195532
-0.274075 -0.321336 0.0825552
-0.0116035 -0.287028 -0.212695
-0.0344049 -0.282293 -0.212662
-0.108609 -0.266883 -0.212552
-0.273859 -0.276003 -0.0628177
-0.274193 -0.341399 0.162474
-0.274034 -0.307237 0.0553163
-0.274103 -0.320511 0.101499
0.157534 -0.315806 -0.212945
0.0878019 -0.30161 -0.212842
-0.189966 -0.245061 -0.212432
-0.229647 -0.236982 -0.212373
-0.273971 -0.292084 0.0128064
-0.274226 -0.340885 0.184308
0.105777 -0.302201 -0.212869
0.0702531 -0.295042 -0.212816
0.0446958 -0.289891 -0.212779
0.0200155 -0.284917 -0.212742
-0.273828 -0.262053 -0.083379
-0.274132 -0.319656 0.121109
-0.274242 -0.340621 0.195532
-0.0528391 -0.267491 -0.212634
-0.081316 -0.26181 -0.212592
-0.128344 -0.252428 -0.212523
-0.153735 -0.247363 -0.212485
-0.27379 -0.252124 -0.10945
-0.273891 -0.271118 -0.0413269
-0.274162 -0.322075 0.141422
0.138304 -0.302488 -0.212917
-0.166052 -0.242394 -0.212467
-0.269092 -0.236801 -0.158918
-0.273936 -0.276676 -0.0111145
-0.204444 -0.23238 -0.21241
-0.256426 -0.222223 -0.212333
-0.273753 -0.24022 -0.134099
-0.273996 -0.284873 0.029398
-0.274075 -0.299391 0.0825552
-0.274193 -0.321218 0.162474
-0.0116035 -0.267233 -0.212695
-0.273859 -0.256968 -0.0628177
-0.274103 -0.301376 0.101499
0.157534 -0.296763 -0.212945
-0.030657 -0.26076 -0.212667
-0.101892 -0.247132 -0.212562
-0.274034 -0.285837 0.0553163
-0.274226 -0.320329 0.184308
0.0967351 -0.282082 -0.212856
0.0833755 -0.279554 -0.212836
0.0616338 -0.275439 -0.212804
0.0446958 -0.272233 -0.212779
-0.0600736 -0.252404 -0.212624
-0.218579 -0.222405 -0.212389
-0.273971 -0.271535 0.0128064
-0.274132 -0.300185 0.121109
-0.274242 -0.319872 0.195532
0.00799036 -0.262418 -0.212724
-0.274162 -0.302255 0.141422
0.128868 -0.281933 -0.212903
-0.273828 -0.24077 -0.083379
-0.273891 -0.251653 -0.0413269
0.147859 -0.282295 -0.212931
-0.0778227 -0.240968 -0.212597
-0.125097 -0.232311 -0.212528
-0.153735 -0.227066 -0.212485
-0.273936 -0.256606 -0.0111145
-0.274075 -0.280581 0.0825552
-0.274193 -0.301037 0.162474
-0.11194 -0.232097 -0.212547
-0.166052 -0.222299 -0.212467
-0.258119 -0.216491 -0.169454
-0.258168 -0.224996 -0.135851
-0.274103 -0.282241 0.101499
-0.0116035 -0.247438 -0.212695
-0.235103 -0.207425 -0.212365
-0.274034 -0.267495 0.0553163
-0.274226 -0.299773 0.184308
0.0878019 -0.262204 -0.212842
0.057362 -0.256816 -0.212797
-0.030657 -0.241238 -0.212667
-0.259037 -0.200818 -0.21233
-0.258204 -0.225826 -0.111943
-0.269624 -0.2368 -0.0594463
-0.274132 -0.280713 0.121109
-0.274242 -0.299124 0.195532
0.105777 -0.262317 -0.212869
0.0446958 -0.251632 -0.212779
-0.273971 -0.250986 0.0128064
-0.273996 -0.255043 0.029398
-0.274162 -0.282435 0.141422
0.00799036 -0.242342 -0.212724
-0.0491924 -0.232456 -0.21264
-0.195799 -0.207108 -0.212423
-0.224139 -0.202209 -0.212381
0.138304 -0.261738 -0.212917
-0.274075 -0.261771 0.0825552
-0.274193 -0.280855 0.162474
0.177251 -0.265178 -0.212975
-0.0778227 -0.222121 -0.212597
-0.258333 -0.236012 -0.0245093
0.197476 -0.265336 -0.213005
-0.121833 -0.21209 -0.212532
-0.150617 -0.20729 -0.21249
-0.274103 -0.259917 0.101499
-0.274226 -0.279217 0.184308
-0.274242 -0.281833 0.195532
0.221733 -0.26488 -0.218228
-0.166052 -0.202204 -0.212467
-0.258119 -0.196921 -0.169454
-0.258186 -0.207373 -0.124056
-0.258241 -0.21597 -0.0867132
-0.274034 -0.246095 0.0553163
-0.274132 -0.261242 0.121109
0.0967351 -0.242438 -0.212856
0.0833755 -0.240265 -0.212836
0.057362 -0.236034 -0.212797
-0.0268885 -0.222329 -0.212673
-0.243193 -0.187144 -0.212353
-0.258261 -0.216275 -0.073568
-0.273996 -0.237146 0.029398
0.0446958 -0.23103 -0.212779
-0.101892 -0.207486 -0.212562
-0.204444 -0.191014 -0.21241
-0.259037 -0.182245 -0.21233
-0.258151 -0.196993 -0.147342
-0.274162 -0.259311 0.141422
0.237734 -0.258409 -0.214364
0.162416 -0.246754 -0.212953
0.133572 -0.24218 -0.21291
0.00799036 -0.222267 -0.212724
-0.0564661 -0.212046 -0.212629
-0.258291 -0.215361 -0.0531448
-0.258367 -0.226719 -0.00190014
-0.274193 -0.260674 0.162474
0.187299 -0.247465 -0.21299
-0.00772864 -0.216938 -0.212701
-0.258323 -0.217246 -0.0318253
-0.274075 -0.239826 0.0825552
-0.274226 -0.262088 0.184308
-0.224139 -0.180672 -0.212381
-0.274103 -0.240782 0.101499
-0.274242 -0.261085 0.195532
-0.131575 -0.192388 -0.212518
-0.258222 -0.197148 -0.0995001
-0.258417 -0.224712 0.0298766
-0.274132 -0.241771 0.121109
-0.0847909 -0.196842 -0.212587
-0.147483 -0.187414 -0.212494
-0.258454 -0.226986 0.0550435
0.237734 -0.241737 -0.214364
0.211245 -0.237001 -0.218213
0.105777 -0.222433 -0.212869
0.0702531 -0.217163 -0.212816
-0.030657 -0.202194 -0.212667
-0.166052 -0.182109 -0.212467
-0.258119 -0.177351 -0.169454
-0.258186 -0.186764 -0.124056
-0.258261 -0.197232 -0.073568
-0.274162 -0.239492 0.141422
0.157534 -0.226936 -0.212945
0.0488932 -0.211043 -0.212785
-0.274193 -0.240493 0.162474
0.182259 -0.227329 -0.212982
0.00799036 -0.202191 -0.212724
-0.0600736 -0.192373 -0.212624
-0.0951056 -0.18732 -0.212572
-0.198695 -0.172377 -0.212419
-0.235103 -0.167125 -0.212365
-0.258151 -0.176917 -0.147342
-0.258291 -0.195909 -0.0531448
-0.258367 -0.206241 -0.00190014
-0.258506 -0.224876 0.0905288
-0.274226 -0.241532 0.184309
0.133572 -0.217181 -0.21291
-0.00772864 -0.197088 -0.212701
-0.258323 -0.197368 -0.0318253
-0.258454 -0.214633 0.0550435
-0.274242 -0.240336 0.195532
-0.27191 -0.157225 -0.21231
0.032249 -0.196937 -0.21276
-0.218579 -0.162295 -0.212389
-0.258271 -0.184926 -0.0668564
-0.258576 -0.22453 0.138306
0.237734 -0.221732 -0.214364
0.211245 -0.217387 -0.218213
-0.128344 -0.172169 -0.212523
-0.258222 -0.175978 -0.0995001
-0.258291 -0.184794 -0.0531448
-0.258533 -0.215661 0.109161
0.152681 -0.207242 -0.212938
0.114929 -0.202183 -0.212882
0.0789753 -0.197364 -0.212829
-0.108609 -0.172225 -0.212552
-0.153735 -0.166177 -0.212485
-0.25839 -0.194545 0.0137492
0.177251 -0.207321 -0.212975
0.0488932 -0.190381 -0.212785
-0.0192885 -0.181383 -0.212684
-0.258186 -0.166156 -0.124056
-0.258417 -0.19455 0.0298766
-0.258652 -0.224153 0.190359
0.00799036 -0.182115 -0.212724
-0.0381321 -0.176123 -0.212656
-0.0672303 -0.172342 -0.212613
-0.184075 -0.157161 -0.21244
-0.258119 -0.155335 -0.169454
-0.258606 -0.214907 0.158583
-0.201577 -0.152448 -0.212415
-0.240509 -0.147469 -0.212357
-0.258151 -0.156842 -0.147342
-0.258323 -0.177489 -0.0318253
-0.258467 -0.194563 0.0637015
-0.258547 -0.204396 0.118712
-0.258241 -0.164995 -0.0867132
-0.258493 -0.19457 0.0814407
-0.258576 -0.204572 0.138306
0.237734 -0.201726 -0.214364
0.197476 -0.196967 -0.213005
0.032249 -0.176514 -0.21276
-0.162995 -0.152345 -0.212472
-0.258519 -0.194577 0.0997677
0.221733 -0.195781 -0.218228
0.143067 -0.187088 -0.212924
0.101242 -0.181996 -0.212862
-0.266796 -0.13719 -0.212318
-0.258636 -0.204942 0.179579
0.172275 -0.18744 -0.212967
0.0789753 -0.176272 -0.212829
-0.0491924 -0.160931 -0.21264
-0.0882472 -0.156256 -0.212582
-0.121833 -0.152236 -0.212532
-0.0192885 -0.161698 -0.212684
-0.141168 -0.147359 -0.212504
-0.258261 -0.156426 -0.073568
-0.258426 -0.174795 0.038142
-0.258606 -0.1946 0.158583
-0.268641 -0.200686 0.202736
0.211245 -0.184697 -0.218213
0.119546 -0.174936 -0.212889
0.0531152 -0.167256 -0.212791
0.00799036 -0.16204 -0.212724
-0.248523 -0.132386 -0.212345
-0.258186 -0.145547 -0.124056
-0.258291 -0.157005 -0.0531448
-0.258367 -0.165285 -0.00190014
-0.258451 -0.174487 0.0550506
-0.258547 -0.184774 0.118712
-0.184075 -0.137361 -0.21244
-0.258119 -0.135766 -0.169454
-0.258576 -0.184613 0.138306
0.237734 -0.18172 -0.214364
0.187299 -0.176298 -0.21299
-0.0743108 -0.147126 -0.212603
-0.207299 -0.132297 -0.212406
-0.258151 -0.136766 -0.147342
-0.258323 -0.15477 -0.0318253
0.0878019 -0.162172 -0.212842
-0.0951056 -0.14215 -0.212572
-0.229647 -0.127423 -0.212373
-0.258636 -0.184276 0.179579
0.162416 -0.167156 -0.212953
0.0702531 -0.157256 -0.212816
-0.0455257 -0.144819 -0.212645
-0.162995 -0.132201 -0.212472
-0.258504 -0.167462 0.0905344
0.0488932 -0.15201 -0.212785
-0.258222 -0.136284 -0.0995001
-0.258605 -0.174295 0.158585
-0.268641 -0.179745 0.202736
0.032249 -0.147338 -0.21276
-0.023099 -0.141619 -0.212678
-0.118553 -0.131756 -0.212537
-0.269359 -0.116174 -0.212314
-0.258261 -0.137383 -0.073568
0.138304 -0.155162 -0.212917
0.110339 -0.15233 -0.212876
0.0119759 -0.142368 -0.21273
-0.137987 -0.127179 -0.212508
-0.19289 -0.121619 -0.212427
-0.258367 -0.144808 -0.00190014
-0.258575 -0.164656 0.138309
0.237734 -0.161714 -0.214364
0.192371 -0.157393 -0.212997
-0.258186 -0.124939 -0.124056
-0.258291 -0.134774 -0.0531448
-0.258414 -0.146291 0.0298847
-0.258504 -0.154703 0.0905344
-0.258532 -0.157287 0.109165
0.221733 -0.156296 -0.218228
-0.0847909 -0.127211 -0.212587
-0.243193 -0.111816 -0.212353
-0.258119 -0.116196 -0.169454
-0.258323 -0.134892 -0.0318253
-0.258451 -0.146693 0.0550506
0.0922551 -0.141377 -0.212849
-0.212966 -0.112338 -0.212398
-0.258151 -0.11669 -0.147342
-0.268641 -0.162294 0.202736
0.16733 -0.145326 -0.21296
0.0702531 -0.136288 -0.212816
-0.0951056 -0.120894 -0.212572
-0.258636 -0.156721 0.17958
0.197476 -0.144877 -0.213005
0.0488932 -0.131348 -0.212785
-0.0491924 -0.122418 -0.21264
-0.159924 -0.112335 -0.212476
-0.258532 -0.144315 0.109165
0.147859 -0.137205 -0.212931
-0.0192885 -0.122328 -0.212684
-0.131575 -0.112334 -0.212518
-0.258222 -0.115113 -0.0995001
-0.258575 -0.144698 0.138309
-0.258605 -0.14722 0.158585
0.237734 -0.141708 -0.214364
0.128868 -0.132399 -0.212903
0.110339 -0.130788 -0.212876
0.0119759 -0.122235 -0.21273
-0.258261 -0.115619 -0.073568
0.221733 -0.136553 -0.218228
-0.19289 -0.101963 -0.212427
-0.264221 -0.0959061 -0.212322
-0.258414 -0.125177 0.0298847
-0.258652 -0.144222 0.19036
-0.258451 -0.125075 0.0550506
0.182259 -0.127369 -0.212982
0.0922551 -0.120095 -0.212849
-0.0743108 -0.106633 -0.212603
-0.258119 -0.096626 -0.169454
-0.258367 -0.115553 -0.00190014
-0.258504 -0.125995 0.0905344
-0.25862 -0.134858 0.16899
0.0702531 -0.115321 -0.212816
0.032249 -0.112327 -0.21276
-0.0951056 -0.102295 -0.212572
-0.221366 -0.092349 -0.212385
-0.243193 -0.0906296 -0.212353
-0.258151 -0.0966144 -0.147342
-0.258291 -0.106986 -0.0531448
-0.258532 -0.124857 0.109165
0.0488932 -0.110687 -0.212785
-0.258186 -0.0966022 -0.124056
-0.258323 -0.106493 -0.0318253
-0.258575 -0.124739 0.138309
0.237734 -0.121702 -0.214364
0.152681 -0.115486 -0.212938
0.110339 -0.112324 -0.212876
-0.023099 -0.102359 -0.212678
-0.0491924 -0.10041 -0.21264
-0.159924 -0.0921403 -0.212476
-0.258222 -0.0965894 -0.0995001
-0.258477 -0.114544 0.0725057
0.221733 -0.116811 -0.218228
0.197476 -0.115576 -0.213005
0.133572 -0.110934 -0.21291
-0.121833 -0.0923826 -0.212532
-0.258261 -0.0965758 -0.073568
-0.258414 -0.107079 0.0298847
-0.258668 -0.124485 0.201334
0.172275 -0.107337 -0.212967
0.0922551 -0.101852 -0.212849
0.00402725 -0.0958049 -0.212718
-0.137987 -0.0860707 -0.212508
-0.19289 -0.0823075 -0.212427
-0.264221 -0.0774182 -0.212322
-0.258504 -0.106857 0.0905344
-0.25862 -0.114373 0.16899
0.0702531 -0.0973489 -0.212816
-0.081316 -0.0872699 -0.212592
-0.258367 -0.0950756 -0.00190014
0.032249 -0.0919041 -0.21276
-0.258119 -0.0770562 -0.169454
-0.258575 -0.104781 0.138309
0.237734 -0.101696 -0.214364
0.152681 -0.0965022 -0.212938
0.0488932 -0.0900252 -0.212785
-0.0344049 -0.084827 -0.212662
-0.0985079 -0.0808266 -0.212567
-0.237812 -0.0721333 -0.212361
-0.258151 -0.0765387 -0.147342
-0.258291 -0.084755 -0.0531448
-0.258323 -0.0866146 -0.0318253
-0.258464 -0.0949475 0.0637081
0.221733 -0.0970679 -0.218228
0.197476 -0.0960419 -0.213005
0.177251 -0.0948212 -0.212975
0.128868 -0.0919008 -0.212903
0.110339 -0.0907824 -0.212876
-0.0455257 -0.0813745 -0.212645
-0.212966 -0.071268 -0.212398
-0.258186 -0.0759938 -0.124056
-0.258518 -0.0948771 0.0997728
-0.258546 -0.0964753 0.118716
-0.153735 -0.0723061 -0.212485
-0.258222 -0.0754191 -0.0995001
-0.25839 -0.0846495 0.0137492
-0.258414 -0.0859647 0.0298847
-0.268641 -0.0994703 0.202736
-0.115255 -0.0719341 -0.212542
-0.258261 -0.0748123 -0.073568
-0.258636 -0.0947212 0.17958
0.0119759 -0.0762169 -0.21273
-0.00772864 -0.0751485 -0.212701
-0.0847909 -0.0709701 -0.212587
0.0833755 -0.0770661 -0.212836
0.0405228 -0.0748303 -0.212772
-0.258575 -0.0848227 0.138309
-0.258605 -0.0863013 0.158585
0.237734 -0.0816906 -0.214364
0.147859 -0.0772764 -0.212931
-0.259037 -0.0568792 -0.21233
-0.258426 -0.074478 0.038142
0.221733 -0.0773253 -0.218228
0.197476 -0.076508 -0.213005
0.110339 -0.0723182 -0.212876
-0.0951056 -0.0624398 -0.212572
-0.258119 -0.0574863 -0.169454
-0.258323 -0.0667358 -0.0318253
-0.258504 -0.0749592 0.0905344
-0.258546 -0.0768532 0.118716
-0.268641 -0.0820194 0.202736
0.128868 -0.0700938 -0.212903
0.0616338 -0.0669986 -0.212804
-0.0381321 -0.0624057 -0.212656
-0.17513 -0.0560988 -0.212454
-0.258151 -0.056463 -0.147342
0.0789753 -0.0647838 -0.212829
0.02407 -0.0623684 -0.212748
-0.0192885 -0.0604611 -0.212684
-0.201577 -0.0524421 -0.212415
-0.229647 -0.0512072 -0.212373
-0.258186 -0.0553853 -0.124056
-0.258222 -0.0568951 -0.0995001
-0.258451 -0.0663979 0.0550506
0.177251 -0.0658927 -0.212975
0.152681 -0.0648621 -0.212938
-0.0600736 -0.0559382 -0.212624
-0.153735 -0.0520096 -0.212485
-0.258291 -0.0569665 -0.0531448
0.00402725 -0.055767 -0.212718
-0.081316 -0.052362 -0.212592
-0.118553 -0.0508763 -0.212537
-0.258367 -0.0570454 -0.00190014
-0.25856 -0.0643135 0.12843
-0.258605 -0.0659951 0.158585
-0.258636 -0.067166 0.17958
0.237734 -0.0616847 -0.214364
-0.258668 -0.0648725 0.201334
0.216472 -0.0573943 -0.218221
0.202614 -0.057158 -0.213013
0.057362 -0.0519571 -0.212797
-0.258464 -0.0544781 0.0637081
-0.258532 -0.0567531 0.109165
0.133572 -0.0515609 -0.21291
0.114929 -0.0509315 -0.212882
-0.258261 -0.0448873 -0.0735681
-0.258323 -0.0468571 -0.0318253
0.0446958 -0.0456174 -0.212779
0.0200155 -0.0448347 -0.212742
-0.0951056 -0.0411837 -0.212572
-0.248523 -0.0363182 -0.212345
-0.269359 -0.0356574 -0.212314
-0.258414 -0.0467527 0.0298847
0.177251 -0.046607 -0.212975
-0.00772864 -0.041119 -0.212701
-0.0344049 -0.0403276 -0.212662
-0.169093 -0.0363316 -0.212462
-0.258119 -0.0354703 -0.169454
-0.258151 -0.0363872 -0.147342
-0.258186 -0.0373529 -0.124056
-0.258504 -0.0462514 0.0905344
0.221733 -0.0444209 -0.218228
-0.0455257 -0.0372392 -0.212645
-0.224139 -0.0323055 -0.212381
-0.258222 -0.0357248 -0.0995001
-0.25856 -0.0445247 0.12843
-0.25859 -0.0452941 0.148359
-0.25862 -0.0460907 0.16899
0.237734 -0.0416789 -0.214364
-0.150617 -0.0317929 -0.21249
-0.189966 -0.0307865 -0.212432
-0.258291 -0.0347357 -0.0531448
-0.258367 -0.0365676 -0.00190014
0.197476 -0.0374401 -0.213005
0.152681 -0.0363861 -0.212938
0.0833755 -0.0347553 -0.212836
-0.0743108 -0.031045 -0.212603
-0.115255 -0.0300816 -0.212542
-0.258414 -0.0346875 0.0298847
-0.258532 -0.0372949 0.109165
-0.268641 -0.0401372 0.202736
0.114929 -0.032411 -0.212882
0.0616338 -0.031266 -0.212804
0.0363739 -0.0307233 -0.212766
0.133572 -0.0296866 -0.21291
-0.258323 -0.0269783 -0.0318253
0.177251 -0.0273213 -0.212975
-0.101892 -0.0224666 -0.212562
-0.258367 -0.0248659 -0.00190014
-0.258451 -0.0262503 0.0550506
-0.258504 -0.0271129 0.0905344
0.221733 -0.0246783 -0.218228
0.197476 -0.0244174 -0.213005
8.64863e-05 -0.0213884 -0.212713
-0.023099 -0.0210326 -0.212678
-0.253804 -0.0174923 -0.212337
-0.27364 -0.0172222 -0.210711
-0.258532 -0.0243227 0.109165
-0.25856 -0.0247359 0.12843
-0.25859 -0.0251634 0.148359
-0.25862 -0.0256059 0.16899
-0.258119 -0.0159005 -0.169454
-0.258151 -0.0163115 -0.147342
-0.258186 -0.0167444 -0.124056
-0.258222 -0.0172008 -0.0995001
0.157534 -0.0174566 -0.212945
0.0200155 -0.0159091 -0.212742
-0.0455257 -0.0151715 -0.212645
-0.258261 -0.0149624 -0.0735681
-0.268641 -0.019196 0.202736
0.237734 -0.0150044 -0.214364
0.177251 -0.0144642 -0.212975
-0.0743108 -0.012148 -0.212603
-0.137987 -0.0115617 -0.212508
-0.184075 -0.0111374 -0.21244
-0.218579 -0.0108197 -0.212389
-0.258504 -0.0143539 0.0905344
0.138304 -0.0109711 -0.212917
0.119546 -0.0108367 -0.212889
0.0659307 -0.0104528 -0.21281
0.0446958 -0.0103007 -0.212779
-0.115255 -0.00653947 -0.212542
-0.159924 -0.00631098 -0.212476
-0.204444 -0.00608325 -0.21241
-0.258291 -0.00694714 -0.0531448
-0.258323 -0.00709956 -0.0318253
0.23237 -0.00498502 -0.214354
0.211245 -0.00490348 -0.218213
0.101242 -0.00458814 -0.212862
-0.258414 -0.00452446 0.0298847
-0.258451 -0.00463242 0.0550506
-0.258532 -0.00486456 0.109165
-0.25856 -0.0049472 0.12843
-0.25859 -0.00503269 0.148359
-0.25862 -0.00512119 0.16899
0.00402725 -0.00142993 -0.212718
-0.0192885 -0.00140608 -0.212684
-0.0882472 -0.00133553 -0.212582
-0.268641 -0.0017451 0.202736
0.02407 0.00435127 -0.212748
-0.0381321 0.00416037 -0.212656
-0.235103 0.00355584 -0.212365
-0.264221 0.00346647 -0.212322
-0.258119 0.00366933 -0.169454
-0.258151 0.00376419 -0.147342
-0.258186 0.00386408 -0.124056
-0.258222 0.00396941 -0.0995001
-0.258367 0.00438809 -0.00190014
-0.25859 0.00503267 0.148359
-0.25862 0.00512117 0.16899
0.152681 0.00791002 -0.212938
0.133572 0.00781227 -0.21291
0.0746012 0.00751062 -0.212823
0.0488932 0.0103307 -0.212785
-0.0600736 0.00955041 -0.212624
-0.128344 0.0090615 -0.212523
-0.17513 0.00872646 -0.212454
-0.210139 0.00847575 -0.212402
0.237734 0.0150044 -0.214364
0.187299 0.0145568 -0.21299
0.16733 0.0143729 -0.21296
-0.258291 0.0125048 -0.0531448
-0.258323 0.0127792 -0.0318253
-0.258504 0.0143539 0.0905344
-0.258652 0.0156386 0.19036
-0.108609 0.0144616 -0.212552
-0.150617 0.0139889 -0.21249
-0.258261 0.0149625 -0.0735681
0.114929 0.0200639 -0.212882
0.011976 0.0186947 -0.21273
-0.0154567 0.0183299 -0.21269
0.221733 0.0246783 -0.218228
-0.0847909 0.0200859 -0.212587
-0.258414 0.0226223 0.0298847
-0.258451 0.0231621 0.0550506
-0.258532 0.0243228 0.109165
-0.25856 0.024736 0.12843
-0.25859 0.0251634 0.148359
-0.25862 0.0256059 0.16899
0.0659307 0.0253853 -0.21281
-0.258232 0.0226478 -0.0931505
-0.258367 0.0248659 -0.00190014
0.152681 0.0300581 -0.212938
0.133572 0.0296866 -0.21291
0.0446958 0.0279591 -0.212779
-0.105259 0.0250443 -0.212557
-0.235103 0.0225204 -0.212365
-0.258119 0.0232392 -0.169454
-0.258151 0.0238399 -0.147342
-0.258186 0.0244726 -0.124056
0.237734 0.0350102 -0.214364
0.197476 0.0341844 -0.213005
0.177251 0.0337499 -0.212975
-0.0528391 0.0288067 -0.212634
-0.264221 0.0242654 -0.212322
-0.258504 0.0334924 0.0905344
0.105777 0.0352824 -0.212869
-0.125097 0.02985 -0.212528
-0.169093 0.0288148 -0.212462
-0.198695 0.0281182 -0.212419
-0.258323 0.032658 -0.0318253
-0.258451 0.0355152 0.0550506
-0.268641 0.0401372 0.202736
-0.0192885 0.0351518 -0.212684
-0.258261 0.0340056 -0.0735681
-0.258291 0.0347356 -0.0531448
0.221733 0.0444209 -0.218228
0.0159844 0.0389382 -0.212736
-0.00383204 0.0383909 -0.212707
-0.153735 0.0342502 -0.212485
-0.258532 0.043781 0.109165
-0.25856 0.0445247 0.12843
-0.25859 0.0452941 0.148359
-0.07078 0.0392484 -0.212608
-0.0882472 0.0387302 -0.212582
-0.218579 0.0348635 -0.212389
-0.258379 0.0427404 0.0058651
-0.258414 0.0437364 0.0298847
0.152681 0.0490421 -0.212938
0.133572 0.048436 -0.21291
0.0363739 0.0453535 -0.212766
-0.25862 0.0529189 0.16899
0.237734 0.0550161 -0.214364
0.197476 0.0537184 -0.213005
0.177251 0.0530356 -0.212975
0.0746012 0.0495701 -0.212823
-0.258186 0.042505 -0.124056
-0.258222 0.0436637 -0.0995001
-0.258504 0.0526309 0.0905344
-0.268641 0.0575881 0.202736
-0.0455257 0.048273 -0.212645
-0.258119 0.042809 -0.169454
-0.258151 0.0439156 -0.147342
-0.118553 0.0482672 -0.212537
-0.237812 0.043753 -0.212361
-0.259037 0.0429496 -0.21233
-0.258323 0.0525367 -0.0318253
0.221733 0.0641635 -0.218228
0.114929 0.0601918 -0.212882
-0.162995 0.0491031 -0.212472
-0.17513 0.0486189 -0.212454
-0.258251 0.0526796 -0.0801864
-0.258291 0.0541876 -0.0531448
-0.258532 0.0632391 0.109165
-0.25856 0.0643134 0.12843
-0.25859 0.0654249 0.148359
0.16733 0.0654766 -0.21296
0.0159844 0.0591284 -0.212736
-0.00383204 0.0582972 -0.212707
-0.137987 0.0526702 -0.212508
-0.204444 0.0498826 -0.21241
-0.258439 0.0628101 0.0465296
-0.258477 0.064333 0.0725057
-0.258504 0.0653899 0.0905344
0.152681 0.0680261 -0.212938
-0.0743108 0.0580406 -0.212603
-0.258367 0.0628962 -0.00190014
-0.258414 0.0648505 0.0298847
-0.25862 0.0734036 0.16899
-0.258668 0.0753923 0.201334
0.237734 0.075022 -0.214364
0.197476 0.0732523 -0.213005
0.133572 0.0703104 -0.21291
0.0746012 0.0675956 -0.212823
-0.0154567 0.0634496 -0.21269
-0.224139 0.0538425 -0.212381
0.0446958 0.0691619 -0.212779
0.105777 0.0751669 -0.212869
-0.0455257 0.0675822 -0.212645
-0.0951056 0.0650968 -0.212572
-0.258177 0.0626975 -0.129992
-0.258204 0.0639621 -0.111943
0.221733 0.0839062 -0.218228
-0.258127 0.0627743 -0.164031
-0.258333 0.072949 -0.0245094
-0.258532 0.0826974 0.109165
-0.25856 0.0841022 0.12843
-0.25859 0.0855556 0.148359
0.187299 0.0857231 -0.21299
-0.115255 0.0693183 -0.212542
-0.235103 0.06282 -0.212365
-0.258271 0.0726005 -0.0668564
-0.258291 0.0736396 -0.0531448
-0.258477 0.0831621 0.0725057
0.0159844 0.0793186 -0.212736
-0.00383204 0.0782036 -0.212707
-0.153735 0.069769 -0.212485
-0.189966 0.0677304 -0.212432
-0.264221 0.0635522 -0.212322
-0.258241 0.0737785 -0.0867132
-0.258414 0.0829484 0.0298847
-0.25862 0.0938884 0.16899
-0.258652 0.095569 0.19036
0.237734 0.0950278 -0.214364
0.152681 0.0901741 -0.212938
0.133572 0.0890598 -0.21291
0.0659307 0.0851154 -0.21281
-0.258367 0.083374 -0.00190014
0.16733 0.0942224 -0.21296
-0.0154567 0.0831895 -0.21269
-0.0743108 0.0796371 -0.212603
-0.258504 0.0940977 0.0905344
-0.258532 0.0956695 0.109165
0.0446958 0.0897633 -0.212779
-0.210139 0.0738602 -0.212402
0.221733 0.103649 -0.218228
-0.258213 0.0827937 -0.105764
-0.258414 0.0950136 0.0298846
-0.25856 0.103891 0.12843
-0.25859 0.105686 0.148359
0.187299 0.105132 -0.21299
0.114929 0.10032 -0.212882
-0.0455257 0.0896499 -0.212645
-0.258168 0.0826256 -0.135851
-0.258333 0.0929742 -0.0245094
-0.115255 0.0876289 -0.212542
-0.258135 0.0829943 -0.158539
-0.258291 0.0930916 -0.0531448
-0.258439 0.102641 0.0465296
-0.25862 0.114373 0.16899
0.237734 0.115034 -0.214364
0.152681 0.109158 -0.212938
0.133572 0.107809 -0.21291
0.0159844 0.0995088 -0.212736
-0.00383204 0.09811 -0.212707
-0.153735 0.0875284 -0.212485
-0.258241 0.0925584 -0.0867132
-0.258261 0.0938554 -0.0735681
-0.268641 0.120411 0.202736
0.16733 0.113386 -0.21296
-0.0951056 0.094324 -0.212572
-0.184075 0.0878616 -0.21244
-0.235103 0.0841551 -0.212365
-0.258367 0.103852 -0.00190014
-0.258504 0.113236 0.0905344
-0.258532 0.115128 0.109165
0.0746012 0.109655 -0.212823
-0.0154567 0.102929 -0.21269
-0.0743108 0.098534 -0.212603
-0.264221 0.0843512 -0.212322
-0.258477 0.114544 0.0725057
-0.258636 0.125721 0.17958
0.221733 0.123391 -0.218228
0.105777 0.115051 -0.212869
0.0446958 0.110365 -0.212779
-0.25856 0.12368 0.12843
-0.25859 0.125817 0.148359
0.197476 0.125343 -0.213005
-0.204444 0.093682 -0.21241
-0.258668 0.135005 0.201334
-0.0455257 0.108959 -0.212645
-0.224139 0.0945235 -0.212381
-0.258204 0.103123 -0.111943
-0.258333 0.112999 -0.0245094
0.237734 0.13504 -0.214364
0.152681 0.128142 -0.212938
-0.258168 0.102964 -0.135851
-0.258291 0.112544 -0.0531448
-0.258426 0.123117 0.038142
-0.258451 0.125075 0.0550506
0.177251 0.133392 -0.212975
0.133572 0.129684 -0.21291
0.0833755 0.125421 -0.212836
0.0159844 0.119699 -0.212736
-0.00383204 0.118016 -0.212707
-0.115255 0.108555 -0.212542
-0.258135 0.102814 -0.158539
-0.258261 0.112899 -0.0735681
-0.25839 0.123262 0.0137492
-0.258546 0.135719 0.118716
-0.0951056 0.112923 -0.212572
-0.153735 0.107825 -0.212485
-0.258232 0.113239 -0.0931505
-0.258504 0.135564 0.0905344
-0.25862 0.1451 0.16899
0.221733 0.143134 -0.218228
0.057362 0.12915 -0.212797
0.0446958 0.128023 -0.212779
-0.0154567 0.122669 -0.21269
-0.184075 0.107661 -0.21244
-0.235103 0.10312 -0.212365
-0.0743108 0.120131 -0.212603
-0.264221 0.102839 -0.212322
0.16733 0.145326 -0.21296
0.114929 0.140448 -0.212882
-0.25859 0.152658 0.148359
-0.268641 0.158804 0.202736
0.237734 0.155045 -0.214364
-0.0455257 0.128268 -0.212645
-0.204444 0.113148 -0.21241
-0.258333 0.133025 -0.0245094
0.211245 0.155276 -0.218213
0.187299 0.153655 -0.21299
0.152681 0.15029 -0.212938
0.133572 0.148433 -0.21291
-0.224139 0.113668 -0.212381
-0.258195 0.12318 -0.11804
-0.258301 0.132947 -0.0461407
-0.258414 0.143274 0.0298846
-0.258546 0.155342 0.118716
0.0159844 0.139889 -0.212736
-0.00383204 0.137923 -0.212707
-0.25816 0.122501 -0.141634
-0.258271 0.132873 -0.0668564
-0.258379 0.142959 0.0058651
-0.25862 0.165585 0.16899
0.0746012 0.14871 -0.212823
-0.115255 0.129481 -0.212542
-0.258135 0.122633 -0.158539
-0.258241 0.132801 -0.0867132
-0.258451 0.15287 0.0550506
0.0446958 0.148624 -0.212779
-0.0951056 0.134179 -0.212572
-0.153735 0.128121 -0.212485
-0.258652 0.175499 0.19036
0.177251 0.165535 -0.212975
0.114929 0.158968 -0.212882
-0.0154567 0.145229 -0.21269
-0.0743108 0.139027 -0.212603
-0.258414 0.15534 0.0298846
-0.258491 0.162934 0.0814466
-0.258518 0.165633 0.0997728
-0.25859 0.172789 0.148359
0.237734 0.175051 -0.214364
-0.184075 0.129936 -0.21244
-0.235103 0.124455 -0.212365
0.152681 0.169274 -0.212938
0.02407 0.155196 -0.212748
-0.0455257 0.147578 -0.212645
-0.264221 0.123638 -0.212322
-0.258333 0.15305 -0.0245094
-0.258451 0.165223 0.0550506
0.133572 0.170307 -0.21291
-0.204444 0.132615 -0.21241
-0.258213 0.143246 -0.105764
-0.258301 0.152539 -0.0461407
0.221733 0.182619 -0.218228
-0.00383204 0.157829 -0.212707
-0.224139 0.132812 -0.212381
-0.258379 0.163592 0.0058651
-0.25856 0.183046 0.12843
0.197476 0.183945 -0.213005
0.0746012 0.16974 -0.212823
0.0363739 0.165321 -0.212766
-0.115255 0.147792 -0.212542
-0.25816 0.142707 -0.141634
-0.258251 0.152636 -0.0801864
-0.25862 0.192898 0.16899
0.0967351 0.175348 -0.212856
-0.0951056 0.152778 -0.212572
-0.25859 0.192919 0.148359
-0.268641 0.200686 0.202736
0.237734 0.195057 -0.214364
-0.0743108 0.157924 -0.212603
-0.153735 0.148418 -0.212485
-0.258119 0.143104 -0.169454
0.221733 0.195781 -0.218228
0.152681 0.188258 -0.212938
-0.258356 0.17276 -0.0095492
-0.258464 0.185225 0.0637081
-0.258532 0.192961 0.109165
0.187299 0.195708 -0.21299
0.16733 0.193236 -0.21296
0.133572 0.189057 -0.21291
-0.184075 0.149736 -0.21244
-0.235103 0.143419 -0.212365
-0.258426 0.183915 0.038142
-0.258504 0.19298 0.0905344
-0.0154567 0.173429 -0.21269
-0.0455257 0.169645 -0.212645
-0.258222 0.162746 -0.0995001
-0.258312 0.173381 -0.039035
-0.25839 0.182665 0.0137492
-0.25856 0.202835 0.12843
-0.258668 0.215657 0.201334
0.0746012 0.187765 -0.212823
0.0159844 0.18027 -0.212736
-0.00383204 0.177735 -0.212707
-0.264221 0.144437 -0.212322
-0.25862 0.213383 0.16899
-0.204444 0.154514 -0.21241
-0.258177 0.162502 -0.129992
-0.258261 0.172748 -0.0735681
-0.25859 0.21305 0.148359
0.114929 0.199096 -0.212882
0.0446958 0.189827 -0.212779
-0.115255 0.168718 -0.212542
-0.224139 0.154349 -0.212381
0.237734 0.218397 -0.214364
0.221733 0.215524 -0.218228
-0.0951056 0.174034 -0.212572
-0.258143 0.163314 -0.152976
-0.258636 0.225609 0.17958
0.187299 0.215117 -0.21299
0.152681 0.210406 -0.212938
0.133572 0.207806 -0.21291
-0.0743108 0.179521 -0.212603
-0.153735 0.168714 -0.212485
-0.258119 0.162674 -0.169454
-0.258356 0.193085 -0.0095492
-0.258451 0.20537 0.0550506
-0.258518 0.213875 0.0997728
-0.258605 0.22506 0.158585
0.16733 0.215593 -0.21296
-0.258195 0.175045 -0.11804
-0.258414 0.2036 0.0298846
-0.258491 0.213554 0.0814466
-0.25856 0.222623 0.12843
0.0159844 0.197575 -0.212736
-0.0154567 0.193169 -0.21269
-0.0455257 0.188954 -0.212645
-0.184075 0.169536 -0.21244
-0.258232 0.182514 -0.0931505
-0.258312 0.193116 -0.039035
-0.25839 0.203456 0.0137492
-0.268641 0.239078 0.202736
0.0746012 0.208795 -0.212823
-0.00383204 0.197642 -0.212707
-0.235103 0.164754 -0.212365
-0.258532 0.225391 0.109165
0.114929 0.217617 -0.212882
-0.264221 0.162925 -0.212322
-0.258271 0.193145 -0.0668564
0.237734 0.238403 -0.214364
0.221733 0.235266 -0.218228
0.0446958 0.210429 -0.212779
-0.204444 0.173981 -0.21241
0.152681 0.22939 -0.212938
-0.0951056 0.192634 -0.212572
-0.115255 0.189645 -0.212542
-0.224139 0.173493 -0.212381
-0.25816 0.18312 -0.141634
-0.258605 0.245366 0.158585
0.133572 0.229681 -0.21291
-0.0743108 0.198418 -0.212603
-0.258356 0.213409 -0.0095492
-0.258426 0.223434 0.038142
-0.258491 0.232537 0.0814466
-0.258575 0.244489 0.138309
-0.258636 0.253164 0.17958
0.197476 0.242547 -0.213005
0.0833755 0.225154 -0.212836
-0.153735 0.189011 -0.212485
-0.258127 0.183399 -0.164031
-0.258402 0.222982 0.0217547
-0.268641 0.260019 0.202736
0.177251 0.242678 -0.212975
0.0159844 0.217766 -0.212736
-0.0154567 0.212909 -0.21269
-0.0455257 0.208264 -0.212645
-0.258241 0.202555 -0.0867132
-0.258312 0.21285 -0.039035
-0.258451 0.233165 0.0550506
-0.00383204 0.217548 -0.212707
-0.184075 0.189336 -0.21244
0.237734 0.258409 -0.214364
0.221733 0.255009 -0.218228
0.114929 0.239224 -0.212882
0.057362 0.230096 -0.212797
0.0446958 0.228087 -0.212779
-0.235103 0.183719 -0.212365
-0.258213 0.203699 -0.105764
-0.258546 0.253452 0.118716
0.197476 0.255569 -0.213005
0.152681 0.248374 -0.212938
-0.258261 0.213555 -0.0735681
-0.258605 0.265673 0.158585
-0.258668 0.27527 0.201334
0.177251 0.255535 -0.212975
0.133572 0.24843 -0.21291
-0.115255 0.207955 -0.212542
-0.204444 0.193447 -0.21241
-0.264221 0.183724 -0.212322
-0.258177 0.203447 -0.129992
-0.258367 0.23257 -0.00190014
-0.258451 0.245518 0.0550506
-0.258504 0.253585 0.0905344
-0.258575 0.264447 0.138309
-0.258636 0.27383 0.17958
-0.0951056 0.21389 -0.212572
-0.224139 0.192637 -0.212381
-0.258414 0.242812 0.0298846
-0.0743108 0.220014 -0.212603
-0.258143 0.203208 -0.152976
-0.258333 0.233151 -0.0245094
0.0746012 0.24785 -0.212823
0.0159844 0.237956 -0.212736
-0.0154567 0.232649 -0.21269
-0.0455257 0.227573 -0.212645
-0.153735 0.209307 -0.212485
-0.258312 0.232584 -0.039035
-0.258518 0.265334 0.0997728
0.237734 0.278415 -0.214364
0.114929 0.257745 -0.212882
-0.258546 0.273074 0.118716
-0.25862 0.285079 0.16899
0.197476 0.275103 -0.213005
0.0446958 0.248689 -0.212779
-0.00383204 0.240298 -0.212707
-0.184075 0.209136 -0.21244
-0.258222 0.223611 -0.0995001
-0.258281 0.233145 -0.0600493
0.152681 0.270522 -0.212938
-0.235103 0.202684 -0.212365
-0.258575 0.284405 0.138309
-0.267622 0.296643 0.194782
-0.27426 0.298461 0.206965
0.221733 0.284623 -0.218228
0.133572 0.270304 -0.21291
-0.258186 0.222829 -0.124056
-0.258367 0.253047 -0.00190014
-0.258426 0.262953 0.038142
-0.258491 0.273665 0.0814466
-0.115255 0.228881 -0.212542
-0.204444 0.212914 -0.21241
0.177251 0.284463 -0.212975
-0.0743108 0.238911 -0.212603
-0.0951056 0.235146 -0.212572
-0.264221 0.204523 -0.212322
-0.25816 0.223532 -0.141634
-0.258333 0.253176 -0.0245094
-0.258451 0.273312 0.0550506
0.237734 0.298421 -0.214364
0.0746012 0.26888 -0.212823
0.0159844 0.258146 -0.212736
-0.224139 0.214174 -0.212381
-0.258271 0.245198 -0.0668564
-0.258504 0.285483 0.0905344
-0.258546 0.292696 0.118716
-0.267775 0.296644 0.140733
0.114929 0.279352 -0.212882
-0.0154567 0.255208 -0.21269
-0.0455257 0.24964 -0.212645
-0.153735 0.229603 -0.212485
-0.258127 0.222787 -0.164031
-0.258241 0.242798 -0.0867132
-0.258301 0.253299 -0.0461407
0.152681 0.289506 -0.212938
0.0446958 0.26929 -0.212779
-0.00383204 0.260205 -0.212707
-0.258402 0.273864 0.0217547
-0.27426 0.319406 0.206965
0.221733 0.304365 -0.218228
0.16733 0.295443 -0.21296
0.133572 0.289054 -0.21291
-0.184075 0.228935 -0.21244
-0.258213 0.243124 -0.105764
-0.274209 0.313989 0.173291
0.197476 0.304404 -0.213005
-0.235103 0.224019 -0.212365
-0.258356 0.274384 -0.0095492
-0.258414 0.285041 0.0298846
-0.258464 0.294182 0.0637081
0.237734 0.318427 -0.214364
0.0659307 0.285211 -0.21281
-0.0743108 0.257808 -0.212603
-0.115255 0.249808 -0.212542
-0.258168 0.242792 -0.135851
-0.274162 0.315468 0.141422
0.114929 0.297872 -0.212882
0.0159844 0.278336 -0.212736
-0.204444 0.234813 -0.21241
-0.264221 0.223011 -0.212322
-0.274132 0.313166 0.121109
0.187299 0.315396 -0.21299
0.152681 0.308491 -0.212938
0.0363739 0.285288 -0.212766
-0.0455257 0.26895 -0.212645
-0.224139 0.233318 -0.212381
-0.258301 0.272891 -0.0461407
-0.274226 0.334033 0.184308
-0.27426 0.34035 0.206965
0.221733 0.324108 -0.218228
0.133572 0.307803 -0.21291
-0.00383204 0.280111 -0.212707
-0.153735 0.2499 -0.212485
-0.258241 0.264261 -0.0867132
-0.25839 0.292561 0.0137492
-0.274103 0.314132 0.101499
-0.0951056 0.264373 -0.212572
-0.258119 0.2434 -0.169454
-0.258271 0.272594 -0.0668564
-0.258323 0.282562 -0.0318253
-0.274193 0.334672 0.162474
-0.0154567 0.283408 -0.21269
-0.184075 0.248735 -0.21244
0.237734 0.338432 -0.214364
0.16733 0.324189 -0.21296
-0.258195 0.263216 -0.11804
-0.274047 0.312886 0.0642442
-0.274162 0.335288 0.141422
0.0746012 0.307935 -0.212823
-0.115255 0.268118 -0.212542
-0.235103 0.242983 -0.212365
-0.268775 0.296647 -0.0053758
-0.274132 0.332637 0.121109
-0.27426 0.357804 0.206965
0.114929 0.31948 -0.212882
0.0159844 0.298526 -0.212736
-0.0743108 0.279405 -0.212603
-0.0951056 0.275001 -0.212572
-0.258168 0.263131 -0.135851
-0.274226 0.354589 0.184308
0.221733 0.343851 -0.218228
0.152681 0.330639 -0.212938
0.0446958 0.30755 -0.212779
-0.0455257 0.288259 -0.212645
-0.204444 0.25428 -0.21241
-0.267665 0.296647 -0.0255162
-0.274103 0.333267 0.101499
0.197476 0.343472 -0.213005
0.133572 0.329678 -0.21291
-0.00383204 0.300017 -0.212707
-0.153735 0.267659 -0.212485
-0.264221 0.243809 -0.212322
-0.258241 0.283041 -0.0867132
-0.258291 0.293169 -0.0531448
-0.273996 0.314703 0.029398
-0.274047 0.325216 0.0642442
-0.274193 0.354853 0.162474
-0.224139 0.254855 -0.212381
-0.273971 0.312632 0.0128064
-0.274132 0.345618 0.121109
0.177251 0.345535 -0.212975
-0.0154567 0.303148 -0.21269
-0.258119 0.262969 -0.169454
-0.258213 0.28255 -0.105764
-0.258271 0.294511 -0.0668564
-0.274162 0.355108 0.141422
-0.184075 0.268535 -0.21244
0.114929 0.338 -0.212882
0.0746012 0.328965 -0.212823
0.152681 0.349623 -0.212938
0.0159844 0.318717 -0.212736
-0.0743108 0.298302 -0.212603
-0.115255 0.289044 -0.212542
-0.258177 0.282779 -0.129992
0.133572 0.348427 -0.21291
0.0446958 0.328151 -0.212779
-0.0455257 0.307568 -0.212645
-0.144334 0.285026 -0.212499
-0.235103 0.264318 -0.212365
-0.273996 0.3326 0.029398
-0.274089 0.352545 0.0919461
-0.00383204 0.319924 -0.212707
-0.204444 0.273746 -0.21241
-0.267905 0.296648 -0.0958522
-0.273936 0.322549 -0.0111145
-0.258143 0.282995 -0.152976
-0.27388 0.31325 -0.0485977
-0.274061 0.352824 0.0733227
-0.0154567 0.322888 -0.21269
-0.0951056 0.304228 -0.212572
-0.162995 0.288323 -0.212472
-0.224139 0.273999 -0.212381
-0.264221 0.264608 -0.212322
0.02407 0.335049 -0.212748
-0.258119 0.282539 -0.169454
-0.269551 0.296649 -0.118596
-0.273902 0.323609 -0.0339457
0.0967351 0.355271 -0.212856
0.0746012 0.349995 -0.212823
-0.184075 0.288335 -0.21244
-0.274021 0.353225 0.0465349
-0.273828 0.312602 -0.083379
0.0446958 0.348752 -0.212779
-0.0743108 0.319898 -0.212603
-0.115255 0.309971 -0.212542
-0.273959 0.345114 0.00470698
-0.273996 0.353481 0.029398
-0.00383204 0.33983 -0.212707
-0.023099 0.335119 -0.212678
-0.0455257 0.329636 -0.212645
-0.235103 0.283283 -0.212365
-0.267584 0.296649 -0.150032
