ply
format ascii 1.0
comment Created by Open3D
element vertex 813
property double x
property double y
property double z
end_header
0.159897 -0.16172 0.32771
0.170651 -0.162125 0.311555
0.135054 -0.161661 0.327866
0.170681 -0.161013 0.292024
0.109185 -0.161599 0.328029
0.170712 -0.15987 0.271954
0.0822236 -0.161535 0.328198
0.141645 -0.152159 0.346812
0.155437 -0.149982 0.351132
0.170744 -0.158695 0.251323
0.0541001 -0.161468 0.328375
0.0247378 -0.161398 0.328559
0.0900964 -0.151642 0.347923
0.119896 -0.147193 0.356752
0.147998 -0.142998 0.365076
0.170777 -0.154026 0.230105
-0.00594735 -0.161325 0.328752
0.0626867 -0.151367 0.348514
0.170562 -0.1366 0.370673
0.170617 -0.140212 0.334311
-0.0380469 -0.161249 0.328954
0.0340934 -0.15108 0.349129
0.126712 -0.138025 0.37503
0.170665 -0.13995 0.303807
0.170695 -0.141866 0.284063
0.170812 -0.149222 0.208277
-0.0716608 -0.161169 0.329165
0.00423819 -0.150781 0.349772
0.070943 -0.141651 0.367882
0.101353 -0.137489 0.376138
0.170095 -0.128081 0.3948
0.170727 -0.140451 0.263772
0.17084 -0.147409 0.190356
-0.106899 -0.161085 0.329387
-0.0858759 -0.158293 0.334925
-0.0459437 -0.152989 0.345444
-0.0269646 -0.150468 0.350444
0.0430831 -0.141164 0.368897
0.170868 -0.145554 0.172012
-0.143881 -0.160997 0.329619
-0.0795924 -0.152715 0.346042
-0.00350249 -0.142913 0.365479
0.0788884 -0.1323 0.386525
0.122698 -0.126656 0.397715
0.149886 -0.123154 0.40466
0.170596 -0.125986 0.349085
-0.159291 -0.157976 0.335669
-0.11486 -0.152429 0.346668
-0.0347455 -0.142425 0.366501
0.0187615 -0.135744 0.379747
0.0517262 -0.131628 0.387907
0.097588 -0.125902 0.39926
0.170568 -0.121211 0.367122
0.170905 -0.140436 0.148465
-0.129636 -0.149439 0.352655
-0.0674247 -0.141914 0.36757
-0.048057 -0.139572 0.372214
0.142714 -0.116498 0.417948
0.168541 -0.113374 0.42414
0.170625 -0.121193 0.33057
0.170787 -0.130166 0.225791
0.17082 -0.132046 0.203837
0.170855 -0.133982 0.181239
0.170935 -0.138446 0.129114
-0.101642 -0.14138 0.368689
-0.0240019 -0.13229 0.386704
0.0279727 -0.126204 0.398763
0.060045 -0.122449 0.406204
0.075376 -0.120655 0.409761
0.118786 -0.115572 0.419833
0.170654 -0.119546 0.311557
0.170685 -0.121174 0.292027
0.170754 -0.124916 0.247129
0.170966 -0.136406 0.109288
0.170997 -0.1381 0.0889694
-0.159774 -0.143341 0.364866
-0.137508 -0.140819 0.369863
-0.116011 -0.138385 0.374686
-0.0557613 -0.131561 0.388206
-0.0369782 -0.129434 0.392421
-0.00117868 -0.12538 0.400453
0.170716 -0.119481 0.271957
0.171029 -0.136005 0.0681401
-0.109419 -0.133037 0.385346
-0.0889843 -0.1308 0.389777
0.0923817 -0.111042 0.427894
0.170526 -0.106419 0.395032
0.170603 -0.110327 0.345421
0.171054 -0.133432 0.0521712
0.17109 -0.135147 0.0304028
0.138619 -0.16155 -0.266114
0.154944 -0.158926 -0.251967
0.170747 -0.156385 -0.238273
0.171531 -0.157998 -0.259619
0.171579 -0.160408 -0.290216
0.171618 -0.162265 -0.313779
-0.167609 -0.134636 0.382244
-0.145307 -0.132279 0.386913
-0.0445753 -0.121629 0.408003
-0.00868464 -0.117835 0.415516
0.008434 -0.116025 0.4191
0.0250345 -0.11427 0.422575
0.05385 -0.111274 0.427954
0.128595 -0.10458 0.427838
0.170899 -0.121833 0.153231
0.171124 -0.132939 0.00806463
0.171149 -0.13425 -0.0090766
0.171185 -0.136039 -0.032461
0.0840762 -0.161895 -0.267902
0.101843 -0.15918 -0.253263
0.119011 -0.156557 -0.239123
0.171408 -0.147329 -0.18003
0.171452 -0.149487 -0.20823
0.171644 -0.158786 -0.329795
-0.0966528 -0.122679 0.405989
-0.0768546 -0.120659 0.409988
-0.0576975 -0.118705 0.413857
0.0695549 -0.106588 0.42793
0.170559 -0.101795 0.374208
0.17078 -0.11249 0.230107
0.170928 -0.119624 0.133996
0.171013 -0.123734 0.07862
0.171213 -0.133311 -0.0504133
0.17125 -0.13513 -0.0749214
0.171268 -0.136058 -0.0874292
0.171295 -0.137475 -0.106516
0.171327 -0.138921 -0.126001
0.171359 -0.140398 -0.1459
-0.131466 -0.121694 0.408007
0.16426 -0.0943456 0.441482
0.170626 -0.101802 0.330571
0.170814 -0.110599 0.208278
0.170959 -0.117361 0.11429
0.171509 -0.143183 -0.244662
-0.167953 -0.120662 0.410122
-0.145988 -0.118581 0.414239
-0.0844193 -0.11275 0.425778
-0.058922 -0.110504 0.428129
-0.0402584 -0.108982 0.4281
0.170484 -0.0922135 0.421834
0.170655 -0.0998944 0.311558
0.170685 -0.101255 0.292027
0.170754 -0.104382 0.247129
0.171185 -0.123857 -0.0324618
0.1714 -0.133653 -0.173103
0.171422 -0.134621 -0.186999
0.171532 -0.139679 -0.259618
0.171579 -0.14181 -0.290215
0.171682 -0.146273 -0.354294
-0.118214 -0.111558 0.428208
-0.0978579 -0.109951 0.42819
0.00422663 -0.101901 0.428031
0.0930054 -0.0939747 0.441593
0.107972 -0.0927944 0.44157
0.170716 -0.0992871 0.271957
0.170842 -0.104784 0.190358
0.17087 -0.10602 0.172014
0.171046 -0.113733 0.0575284
0.171071 -0.114823 0.0413556
0.171267 -0.123499 -0.0874295
0.171299 -0.124784 -0.106512
0.171455 -0.131637 -0.208226
0.171616 -0.138749 -0.313783
0.17164 -0.139828 -0.3298
-0.160645 -0.111008 0.428287
-0.0221018 -0.100452 0.428072
0.0457296 -0.094391 0.441667
0.0698273 -0.0925551 0.44163
0.170514 -0.0874685 0.401833
0.170599 -0.0911404 0.345419
0.171105 -0.112366 0.019304
0.171149 -0.114213 -0.00907654
0.17133 -0.121823 -0.125997
-0.139097 -0.105529 0.428254
0.0206566 -0.0929223 0.441706
0.170906 -0.100311 0.148466
0.170936 -0.101527 0.129115
0.171006 -0.104372 0.0838116
0.171231 -0.113566 -0.062584
0.171359 -0.118798 -0.1459
0.1715 -0.124536 -0.237263
0.171693 -0.132407 -0.362591
0.17172 -0.133461 -0.379378
-0.0419894 -0.0939813 0.441804
0.170777 -0.0917232 0.230105
0.171534 -0.12136 -0.259614
-0.090678 -0.0937539 0.44188
-0.0707799 -0.0923974 0.441849
0.170545 -0.0794618 0.381219
0.170621 -0.0824116 0.330568
0.170874 -0.091916 0.167357
0.170967 -0.0952974 0.109289
0.171185 -0.103552 -0.0324612
0.171391 -0.111342 -0.166228
0.171581 -0.118562 -0.290212
0.171617 -0.119935 -0.313782
0.171641 -0.120868 -0.329799
-0.154039 -0.0942271 0.441979
-0.13228 -0.092802 0.441945
-0.111169 -0.0914193 0.441912
0.136806 -0.0751781 0.441525
0.17065 -0.0802435 0.311555
0.170681 -0.0813363 0.292024
0.170811 -0.0860221 0.208276
0.171036 -0.0941588 0.0628492
0.171299 -0.103635 -0.106512
0.171434 -0.108531 -0.194022
0.171456 -0.109326 -0.208224
0.17176 -0.120339 -0.405069
-0.165171 -0.0910805 0.441996
-0.0143966 -0.0816085 0.441761
0.0930054 -0.0748612 0.441593
0.170484 -0.0710497 0.421834
0.17075 -0.080426 0.247127
0.17113 -0.0935605 0.00238532
0.171329 -0.10045 -0.125998
0.17136 -0.101518 -0.145899
0.171719 -0.114049 -0.379381
0.0457296 -0.0745192 0.441667
0.16426 -0.0673897 0.441482
0.170577 -0.0712056 0.359962
0.170712 -0.0757279 0.271954
0.170903 -0.0820732 0.148464
0.170956 -0.0838292 0.114288
0.171104 -0.0887099 0.0193024
0.17125 -0.0935514 -0.0749218
0.171269 -0.094194 -0.0874278
0.171693 -0.108333 -0.362592
0.0291264 -0.0721615 0.441693
0.115316 -0.0672078 0.441558
0.170514 -0.065985 0.401833
0.170831 -0.0761468 0.194874
0.171069 -0.0836845 0.0413539
0.171402 -0.0942142 -0.173101
0.171423 -0.0948965 -0.186997
0.171501 -0.0973645 -0.237262
0.171535 -0.0984619 -0.259613
0.171582 -0.0999642 -0.290211
0.171619 -0.101121 -0.313779
0.171643 -0.101908 -0.329796
-0.0806566 -0.0748216 0.441864
0.0698273 -0.0665747 0.44163
0.170777 -0.0709557 0.230105
0.170933 -0.0756837 0.129112
0.170988 -0.0773231 0.0940946
0.171212 -0.0840884 -0.0504144
0.171456 -0.0914764 -0.208224
0.171759 -0.100692 -0.40507
-0.154039 -0.0749971 0.441979
-0.13228 -0.0738628 0.441945
-0.100848 -0.0722243 0.441896
-0.0610453 -0.0701494 0.441834
0.170545 -0.0607649 0.381219
0.170874 -0.0702887 0.167357
0.17102 -0.0744731 0.0733948
0.171684 -0.0935188 -0.354291
0.17172 -0.0946361 -0.379379
-0.165171 -0.0717017 0.441996
-0.0419894 -0.0656096 0.441804
-0.0234658 -0.0646935 0.441775
0.136806 -0.0567671 0.441525
0.170604 -0.059317 0.341736
0.170639 -0.0602682 0.319221
0.170669 -0.0610845 0.2999
0.170699 -0.0619232 0.280048
0.170811 -0.0649555 0.208276
0.17113 -0.073654 0.00238532
0.171165 -0.074629 -0.0206929
0.171309 -0.0785273 -0.112963
0.171329 -0.079078 -0.125999
0.17136 -0.0799188 -0.145899
0.171501 -0.0837787 -0.237261
0.17182 -0.0923564 -0.440296
0.170744 -0.059724 0.251322
0.170926 -0.064413 0.133994
0.171104 -0.0689966 0.0193024
0.171279 -0.0735145 -0.0937456
0.171536 -0.0801433 -0.259613
0.171583 -0.0813661 -0.290209
0.17162 -0.082308 -0.313777
0.00336969 -0.0565159 0.441733
0.0457296 -0.0546474 0.441667
0.170484 -0.049886 0.421834
0.170577 -0.0522175 0.359962
0.170903 -0.060187 0.148464
0.170956 -0.0614748 0.114288
0.171053 -0.0638155 0.0521698
0.171391 -0.0720449 -0.166228
0.171645 -0.0782082 -0.329794
0.171764 -0.0810443 -0.405062
-0.0419894 -0.0549702 0.441804
0.0291264 -0.0520234 0.441693
0.0776528 -0.0500127 0.441617
0.15752 -0.0467033 0.441493
0.170838 -0.0550565 0.190355
0.171212 -0.0635791 -0.0504144
0.17125 -0.0644465 -0.0749218
0.171434 -0.0686624 -0.194022
0.171456 -0.0691651 -0.208224
0.171684 -0.0743354 -0.354291
-0.13228 -0.0549236 0.441945
-0.0610453 -0.0521624 0.441834
0.107972 -0.0456108 0.44157
0.136806 -0.0444931 0.441525
0.170514 -0.0445015 0.401833
0.170777 -0.0501882 0.230105
0.170867 -0.0521119 0.172011
0.170988 -0.054692 0.0940946
0.171309 -0.0615484 -0.112963
0.171329 -0.0619801 -0.125999
0.171737 -0.0706514 -0.387868
0.17182 -0.0723874 -0.440296
-0.165171 -0.0523228 0.441996
-0.111169 -0.0503739 0.441912
0.170545 -0.042068 0.381219
0.171121 -0.0535725 0.00806111
0.171148 -0.0541009 -0.00907785
0.171184 -0.0548219 -0.0324628
0.17136 -0.0583191 -0.145899
0.171536 -0.0618249 -0.259613
-0.090678 -0.0459578 0.44188
0.170604 -0.040079 0.341736
0.170639 -0.0407218 0.319221
0.170669 -0.0412733 0.2999
0.170699 -0.04184 0.280048
0.170824 -0.0441431 0.199367
0.171402 -0.0547757 -0.173101
0.171501 -0.0566072 -0.237261
0.171583 -0.0581187 -0.290209
0.17162 -0.0587914 -0.313777
0.171645 -0.0592487 -0.329794
0.171764 -0.0613972 -0.405062
-0.154039 -0.0442291 0.441979
-0.0143966 -0.0399361 0.441761
0.170469 -0.0345122 0.431613
0.170744 -0.0392472 0.251322
0.170903 -0.0419485 0.148464
0.171028 -0.0440581 0.0681386
0.171053 -0.0444774 0.0521698
0.171086 -0.0450492 0.0303989
0.171434 -0.0509431 -0.194022
0.171456 -0.051316 -0.208224
0.0457296 -0.0347756 0.441667
0.170949 -0.0390011 0.11926
0.17125 -0.0436574 -0.0749218
0.171269 -0.0439572 -0.0874278
0.171299 -0.0444149 -0.106512
0.171697 -0.0505552 -0.362586
0.171737 -0.0511614 -0.387868
0.17182 -0.0524185 -0.440296
-0.090678 -0.0349279 0.44188
0.0291264 -0.0318853 0.441693
0.0776528 -0.030653 0.441617
0.170577 -0.0300646 0.359962
0.171329 -0.0406076 -0.125999
0.17136 -0.0410394 -0.145899
0.171501 -0.0430215 -0.237261
-0.121645 -0.0319549 0.441929
-0.0707799 -0.0307991 0.441849
-0.0514495 -0.0303599 0.441819
0.107972 -0.0267374 0.44157
0.170777 -0.0294207 0.230105
0.170852 -0.0303693 0.181236
0.171121 -0.0337308 0.00806111
0.171148 -0.0340635 -0.00907785
0.171184 -0.0345175 -0.0324628
0.171212 -0.0348659 -0.0504144
0.171536 -0.0389268 -0.259613
0.171583 -0.0395207 -0.290209
0.17162 -0.0399782 -0.313777
0.171645 -0.0402891 -0.329794
0.171764 -0.0417501 -0.405062
-0.165171 -0.0290682 0.441996
0.171423 -0.0331034 -0.186998
-0.154039 -0.024999 0.441979
-0.00545222 -0.0224171 0.441747
0.170499 -0.0197994 0.411909
0.170545 -0.020255 0.381219
0.170604 -0.0208411 0.341736
0.170639 -0.0211753 0.319221
0.170669 -0.0214621 0.2999
0.170699 -0.0217568 0.280048
0.170744 -0.0221832 0.251322
0.170918 -0.0238528 0.138846
0.170964 -0.0242916 0.109286
0.170995 -0.0245932 0.0889678
0.171028 -0.0249024 0.0681386
0.171086 -0.0254626 0.0303989
0.171391 -0.0283813 -0.166228
0.171456 -0.0290047 -0.208224
0.171697 -0.031296 -0.362586
0.171737 -0.0316713 -0.387868
0.17182 -0.0324495 -0.440296
0.136806 -0.0168767 0.441525
0.170889 -0.019943 0.157967
0.171501 -0.0249072 -0.237261
0.0457296 -0.0149038 0.441667
0.0698273 -0.014614 0.44163
0.170811 -0.0158 0.208276
0.171053 -0.0174042 0.0521698
0.171309 -0.0191012 -0.112963
0.171329 -0.0192352 -0.125999
0.17136 -0.0194397 -0.145899
0.171536 -0.0206083 -0.259613
0.171583 -0.0209227 -0.290209
0.17162 -0.0211649 -0.313777
0.171645 -0.0213295 -0.329794
0.171764 -0.022103 -0.405062
0.0291264 -0.0117472 0.441693
0.170577 -0.0110764 0.359962
0.170777 -0.0121144 0.230105
0.171086 -0.0137106 0.0303989
0.171121 -0.0138892 0.00806111
0.171148 -0.0140262 -0.00907785
0.171184 -0.0142131 -0.0324628
0.171212 -0.0143566 -0.0504144
0.17125 -0.0145525 -0.0749218
0.171269 -0.0146524 -0.0874278
-0.165171 -0.00968942 0.441996
-0.121645 -0.00939852 0.441929
-0.100848 -0.00925953 0.441896
-0.0707799 -0.00905858 0.441849
-0.0514495 -0.00892939 0.441819
0.16426 -0.00748775 0.441482
0.170852 -0.00893214 0.181236
0.171391 -0.0109159 -0.166228
0.171434 -0.0110746 -0.194022
0.171456 -0.0111557 -0.208224
0.171697 -0.0120369 -0.362586
0.171737 -0.0121813 -0.387868
0.17182 -0.0124806 -0.440296
0.0930054 -0.00477838 0.441593
0.107972 -0.00471837 0.44157
0.136806 -0.00460275 0.441525
0.170514 -0.00460361 0.401833
-0.0143966 -0.00173636 0.441761
0.170484 -0.00151171 0.421834
0.170545 -0.00155808 0.381219
0.170604 -0.00160317 0.341736
0.170639 -0.00162888 0.319221
0.170669 -0.00165094 0.2999
0.170699 -0.00167361 0.280048
0.170744 -0.00170641 0.251322
0.170889 -0.00181301 0.157967
0.170949 -0.00185721 0.11926
0.171309 -0.00212237 -0.112963
0.171329 -0.00213726 -0.125999
0.17136 -0.00215998 -0.145899
0.171536 -0.00228982 -0.259613
0.171583 -0.00232476 -0.290209
0.17162 -0.00235167 -0.313777
0.171645 -0.00236996 -0.329794
0.171764 -0.0024559 -0.405062
-0.154039 0.00576899 0.441979
-0.13228 0.00568174 0.441945
-0.090678 0.00551492 0.44188
-0.0419894 0.00531968 0.441804
0.0206566 0.00506847 0.441706
0.17079 0.00522152 0.221448
0.170824 0.00529716 0.199367
0.170918 0.00550447 0.138846
0.17098 0.00564032 0.0991897
0.171012 0.00571079 0.0786182
0.171044 0.00578304 0.0575265
0.171069 0.00583844 0.0413539
0.171121 0.00595248 0.00806111
0.171148 0.00601119 -0.00907785
0.171184 0.0060913 -0.0324628
0.171212 0.00615279 -0.0504144
0.17125 0.00623674 -0.0749218
0.171269 0.00627958 -0.0874278
0.171402 0.00657306 -0.173101
0.171423 0.00662066 -0.186998
0.171501 0.00679284 -0.237261
0.171684 0.00719373 -0.354291
0.171723 0.00727965 -0.379374
-0.165171 0.00968942 0.441996
-0.111169 0.00932851 0.441912
-0.0707799 0.00905858 0.441849
0.170577 0.00791174 0.359962
-0.0461674 0.0109396 0.0841734
-0.0461813 0.0110648 0.0623114
-0.0461951 0.0111928 0.0399438
-0.0462094 0.0113238 0.0170523
-0.0462242 0.011458 -0.00638151
-0.046239 0.0115953 -0.0303769
-0.0462543 0.011736 -0.0549546
-0.0462622 0.0118076 -0.0674686
-0.0462742 0.0119167 -0.0865286
-0.0462864 0.0120278 -0.105944
-0.0463017 0.0121793 -0.1324
-0.0463127 0.0122953 -0.152683
-0.0463203 0.012374 -0.166421
-0.0463319 0.0124938 -0.187362
-0.0463437 0.012616 -0.208711
-0.0463598 0.0127827 -0.237836
-0.0463763 0.0129538 -0.26774
-0.0463935 0.0131296 -0.298456
-0.0422348 0.013255 -0.325242
-0.0215922 0.0131171 -0.325275
-0.0013749 0.0129819 -0.325306
0.0184301 0.0128496 -0.325338
0.0378355 0.0127199 -0.325368
0.0631078 0.012551 -0.325408
0.0754941 0.0124682 -0.325427
0.0997826 0.0123059 -0.325465
0.117588 0.0121869 -0.325493
0.1408 0.0120318 -0.32553
0.17182 0.0124806 -0.440296
-0.0476591 0.0145182 0.185482
-0.0476865 0.0146755 0.16587
-0.0477147 0.0148363 0.145827
-0.0477433 0.0150006 0.125341
-0.047758 0.0150841 0.114927
0.171778 0.0172607 -0.413764
-0.0234658 0.0157363 0.441775
0.00336969 0.0154134 0.441733
0.0457296 0.0149038 0.441667
0.0698273 0.014614 0.44163
0.15752 0.013559 0.441493
0.157825 0.0214524 -0.325557
0.170604 0.0176348 0.341736
-0.0519415 0.0275508 -0.18592
-0.0523382 0.0291547 -0.312917
-0.0492125 0.0292637 -0.325231
0.171684 0.0263771 -0.354291
0.171723 0.0266922 -0.379374
0.170484 0.019652 0.421834
0.170545 0.020255 0.381219
-0.0527248 0.0285479 0.0847961
-0.0528135 0.0288756 0.0628602
-0.0529274 0.0292961 0.0347214
-0.053045 0.0297289 0.00575113
-0.0530931 0.0299057 -0.0060783
-0.0531909 0.0302655 -0.030164
-0.0532655 0.0305412 -0.048612
-0.0533676 0.0309166 -0.0737386
-0.0534196 0.0311078 -0.086535
-0.0534986 0.0313991 -0.106029
-0.0535789 0.0316959 -0.125891
-0.0536606 0.0319983 -0.146133
-0.0537428 0.0323065 -0.166763
-0.053912 0.0329411 -0.209239
-0.0540286 0.0333782 -0.238496
-0.0541484 0.0338271 -0.26854
-0.0284253 0.0342231 -0.325264
-0.00806761 0.0338693 -0.325296
0.0118735 0.0335228 -0.325327
0.0314107 0.0331833 -0.325358
0.0505561 0.0328507 -0.325388
0.0754941 0.0324173 -0.325427
0.0997826 0.0319953 -0.325465
0.117588 0.0316859 -0.325493
0.1408 0.0312826 -0.32553
0.17182 0.0324495 -0.440296
-0.165171 0.0290683 0.441996
-0.121645 0.0281956 0.441929
-0.100848 0.0277786 0.441896
0.0206566 0.0253425 0.441706
0.0930054 0.0238919 0.441593
0.107972 0.0235918 0.44157
0.136806 0.0230137 0.441525
0.170514 0.023018 0.401833
0.171778 0.0369874 -0.413764
-0.154039 0.032691 0.441979
-0.0707799 0.0307991 0.441849
-0.0514495 0.0303599 0.441819
0.170454 0.0253219 0.441248
-0.0554768 0.0355322 0.180556
-0.0555901 0.0359202 0.160736
-0.0557056 0.0363168 0.140478
-0.0558237 0.0367222 0.119768
-0.0581698 0.0447089 -0.28818
-0.0422348 0.045067 -0.325242
0.157825 0.0405211 -0.325557
0.170577 0.0300646 0.359962
-0.0594773 0.0477887 -0.186348
-0.0603169 0.0505832 -0.313938
-0.0562394 0.0507247 -0.32522
0.171684 0.0455604 -0.354291
0.171723 0.0461046 -0.379374
0.0457296 0.0347756 0.441667
0.0698273 0.0340992 0.44163
-0.0592108 0.0458943 0.101604
-0.0597076 0.047504 0.0351754
-0.0597942 0.0477834 0.0236478
-0.0599704 0.0483521 0.000181496
-0.0601057 0.0487876 -0.0177886
-0.0602896 0.0493805 -0.0422579
-0.0604305 0.0498348 -0.0610039
-0.0606225 0.0504537 -0.0865417
-0.0607696 0.050928 -0.106115
-0.0609192 0.0514114 -0.12606
-0.0610718 0.0519039 -0.146387
-0.0612271 0.0524061 -0.167107
-0.0615991 0.0536162 -0.217047
-0.0617638 0.0541521 -0.239163
-0.0619885 0.0548835 -0.269347
-0.0215922 0.0550916 -0.325275
-0.0013749 0.0545241 -0.325306
0.0184301 0.0539682 -0.325338
0.0378355 0.0534235 -0.325368
0.0631078 0.0527141 -0.325408
0.0754941 0.0523665 -0.325427
0.0997826 0.0516847 -0.325465
0.117588 0.0511849 -0.325493
0.1408 0.0505334 -0.32553
0.17182 0.0524184 -0.440296
-0.0143966 0.0399361 0.441761
0.136806 0.0352877 0.441525
0.170514 0.0352943 0.401833
-0.0610479 0.0509231 0.0787503
-0.0611863 0.0513639 0.0621575
-0.0641686 0.060845 -0.294712
0.171778 0.0567139 -0.413764
-0.165171 0.048447 0.441996
-0.090678 0.0459578 0.44188
0.170484 0.0377924 0.421834
0.170545 0.0389518 0.381219
0.170604 0.040079 0.341736
-0.0658295 0.0651504 -0.258312
-0.0422348 0.066275 -0.325242
0.157825 0.0595899 -0.325557
-0.121645 0.050752 0.441929
-0.0707799 0.0489163 0.441849
-0.0514495 0.0482187 0.441819
0.0206566 0.0456164 0.441706
0.0930054 0.0430054 0.441593
-0.0668628 0.0675369 -0.165618
-0.0670769 0.0681982 -0.186779
-0.0683668 0.0722041 -0.314968
-0.0562394 0.0720825 -0.32522
0.171723 0.065517 -0.379374
-0.154039 0.0557671 0.441979
0.107972 0.0456108 0.44157
-0.0654637 0.0625477 0.133946
-0.0671242 0.0676371 -0.0175259
-0.0673946 0.0684624 -0.042089
-0.0676015 0.0690947 -0.0609083
-0.0678838 0.0699563 -0.0865483
-0.0681 0.0706167 -0.106202
-0.06832 0.0712896 -0.12623
-0.0685443 0.0719755 -0.146643
-0.0693235 0.0743602 -0.217617
-0.0695662 0.0751067 -0.239835
-0.0215922 0.0760789 -0.325275
-0.0013749 0.0752953 -0.325306
0.0184301 0.0745276 -0.325338
0.0378355 0.0737754 -0.325368
0.0631078 0.0727958 -0.325408
0.0754941 0.0723156 -0.325427
0.0997826 0.0713742 -0.325465
0.117588 0.070684 -0.325493
0.1408 0.0697842 -0.32553
0.171697 0.0698143 -0.362586
0.17182 0.0723874 -0.440296
0.170577 0.0490528 0.359962
-0.066628 0.0655059 0.17353
-0.0668656 0.0662292 0.153412
-0.0674197 0.0679164 0.106481
-0.0676753 0.0686942 0.084846
-0.0679373 0.0694901 0.0627096
-0.0682731 0.0705112 0.0343074
-0.0686197 0.0715629 0.00505739
-0.0720002 0.0818126 -0.280024
0.171778 0.0764405 -0.413764
0.0457296 0.0546474 0.441667
0.0698273 0.0535845 0.44163
-0.0737328 0.0863765 -0.259076
-0.0744265 0.0884709 -0.313744
-0.165171 0.0678259 0.441996
-0.13228 0.0662871 0.441945
-0.0143966 0.0607722 0.441761
0.15752 0.0527295 0.441493
-0.0704134 0.0758531 0.130632
-0.0743552 0.0876325 -0.158966
-0.07474 0.0887814 -0.187213
-0.111169 0.0690309 0.441912
-0.0419894 0.0656096 0.441804
0.170545 0.0576488 0.381219
0.170604 0.059317 0.341736
-0.0745559 0.087696 -0.0419186
-0.0748304 0.0885092 -0.0608121
-0.075204 0.0896173 -0.0865549
-0.0754907 0.0904668 -0.106289
-0.0757822 0.0913325 -0.126401
-0.0771136 0.0952834 -0.218192
-0.0779892 0.0978891 -0.278731
-0.0707799 0.0706569 0.441849
0.170484 0.0589561 0.421834
-0.0747393 0.0877532 0.063266
-0.0750884 0.0887858 0.0405306
-0.0754458 0.0898429 0.0172539
-0.0758117 0.0909254 -0.00658369
-0.0806399 0.105185 -0.320558
-0.090678 0.0753708 0.44188
0.0291262 0.0688052 0.441693
0.0930054 0.0653045 0.441593
0.136806 0.0629041 0.441525
0.170514 0.0629159 0.401833
-0.0756691 0.0900478 0.111382
-0.0760203 0.0910817 0.089749
-0.0814591 0.107063 -0.244627
-0.0817059 0.10779 -0.259846
-0.082338 0.109652 -0.298814
-0.0234658 0.0751843 0.441775
0.170577 0.0680409 0.359962
-0.0767314 0.0927493 0.147004
-0.0818619 0.107767 -0.1523
-0.0822234 0.108824 -0.173371
0.0457296 0.0745192 0.441667
0.0698273 0.0730698 0.44163
-0.0780271 0.0961455 0.166348
-0.0820023 0.107746 -0.0543532
-0.0822328 0.108417 -0.0671163
-0.0825841 0.109439 -0.0865618
-0.0829422 0.11048 -0.106378
-0.0833066 0.111542 -0.126574
-0.0844434 0.114853 -0.18956
-0.0849708 0.116388 -0.21877
0.107972 0.073921 0.44157
-0.0803581 0.102563 0.129186
-0.0821338 0.107727 0.0352221
-0.0823546 0.108369 0.0235417
-0.0828041 0.109676 -0.000241458
-0.0831484 0.110677 -0.0184588
-0.0885839 0.126452 -0.305521
-0.170511 0.102024 0.322146
0.136806 0.0751781 0.441525
0.15752 0.0738214 0.441493
0.170514 0.0751922 0.401833
-0.0802584 0.10192 0.218405
-0.0806412 0.103028 0.199092
-0.0816337 0.105905 0.148925
-0.0824682 0.108325 0.106727
-0.0829003 0.109577 0.0848967
-0.0833426 0.110858 0.0625557
-0.0882726 0.125124 -0.186179
-0.0895968 0.128953 -0.25295
-0.0902115 0.130731 -0.283955
-0.151066 0.104863 0.322116
-0.132101 0.10357 0.322087
-0.113596 0.102309 0.32206
-0.0803459 0.101857 0.29089
-0.0808075 0.103189 0.268607
-0.0811858 0.104279 0.250357
-0.0892395 0.127527 -0.138704
-0.0898189 0.129197 -0.166648
-0.0866694 0.104413 0.32202
-0.0853252 0.115893 0.131093
-0.0894629 0.12781 -0.060617
-0.0900246 0.129423 -0.0865686
-0.0904552 0.13066 -0.106466
-0.0854263 0.115871 0.201068
-0.0895409 0.127689 0.0180476
-0.0899448 0.128849 9.00626e-05
-0.0903561 0.13003 -0.0181966
-0.090916 0.131638 -0.0431065
-0.0947627 0.142669 -0.213932
-0.0950987 0.143632 -0.228844
-0.095784 0.145597 -0.259278
-0.0963104 0.147107 -0.282656
-0.170511 0.118681 0.322146
-0.141524 0.116473 0.322102
-0.0854121 0.115547 0.27064
-0.0864983 0.118655 0.224245
-0.0878816 0.122613 0.165165
-0.0896135 0.127577 0.0910588
-0.0901346 0.12907 0.0687705
-0.0906683 0.130599 0.0459539
-0.0959424 0.145696 -0.179408
-0.0989724 0.154363 -0.30879
-0.0993522 0.155451 -0.32503
-0.113597 0.118357 0.32206
-0.0863373 0.117926 0.296553
-0.0908304 0.130759 0.111673
-0.096751 0.147674 -0.132027
-0.097258 0.149121 -0.152872
-0.0891472 0.12568 0.245999
-0.0916284 0.132749 0.147608
-0.0968704 0.1477 -0.0605198
-0.0975266 0.149571 -0.0865757
-0.0980307 0.151007 -0.106556
-0.10127 0.160233 -0.234982
-0.0925273 0.135041 0.177246
-0.096984 0.147724 0.00646895
-0.0973004 0.148625 -0.00565714
-0.097945 0.150459 -0.0303586
-0.102368 0.163037 -0.199716
-0.0926202 0.135054 0.234833
-0.0953206 0.142717 0.13493
-0.0970909 0.147747 0.0693554
-0.0975531 0.149061 0.0522332
-0.0981826 0.150848 0.0289243
-0.170511 0.139503 0.322146
-0.132101 0.136063 0.322087
-0.0929573 0.135774 0.280055
-0.0947813 0.140941 0.214776
-0.0963147 0.145285 0.159892
-0.0976407 0.149043 0.112406
-0.0982519 0.150777 0.0905039
-0.113597 0.138418 0.322059
-0.0939028 0.138225 0.301454
-0.151066 0.145986 0.322116
-0.0966771 0.145846 0.260195
-0.100348 0.156212 0.136861
-0.100197 0.15556 0.197193
-0.1005 0.156198 0.239784
-0.101104 0.157898 0.220679
-0.170511 0.160324 0.322146
-0.132101 0.156371 0.322087
-0.113597 0.158478 0.322059
-0.101649 0.159029 0.301984
