ply
format ascii 1.0
comment Created by Open3D
element vertex 1014
property double x
property double y
property double z
end_header
-0.146298 -0.24296 0.379889
-0.125232 -0.242448 0.380009
-0.146329 -0.242326 0.355557
-0.106173 -0.241464 0.380034
-0.0865534 -0.242731 0.380058
-0.146359 -0.242535 0.333963
-0.0663507 -0.241721 0.380085
-0.0545346 -0.241464 0.380102
-0.146391 -0.242757 0.311054
-0.0271874 -0.241464 0.380136
-0.0146842 -0.241198 0.380152
-0.146318 -0.221742 0.363852
-0.146298 -0.216812 0.379889
-0.125232 -0.220307 0.380009
-0.106173 -0.221249 0.380034
0.0142693 -0.241192 0.380192
-0.146428 -0.242051 0.28164
0.0342341 -0.242015 0.380218
-0.0750822 -0.2218 0.380073
0.0547566 -0.242863 0.380242
0.0652319 -0.242028 0.380256
-0.146463 -0.242274 0.255368
-0.146346 -0.21676 0.342752
-0.0545346 -0.220467 0.380102
-0.146477 -0.242888 0.24437
-0.146384 -0.222268 0.315747
-0.0271874 -0.222433 0.380136
0.0938929 -0.241463 0.380296
-0.0146842 -0.221998 0.380152
0.116116 -0.242336 0.380326
-0.146308 -0.201621 0.371961
0.135136 -0.242643 0.380348
-0.146414 -0.221864 0.291686
-0.125232 -0.20038 0.380009
0.0142693 -0.221602 0.380192
-0.146524 -0.242122 0.209562
-0.106173 -0.201033 0.380034
0.0342341 -0.222157 0.380218
0.162552 -0.241463 0.380385
0.182724 -0.241766 0.380413
-0.0750822 -0.201114 0.380073
0.0652319 -0.221753 0.380256
-0.146562 -0.242371 0.178266
-0.146463 -0.221764 0.255368
-0.14634 -0.197256 0.347069
-0.0545346 -0.201803 0.380102
0.0547566 -0.215179 0.380242
0.0938929 -0.220803 0.380296
-0.146594 -0.241951 0.158408
-0.146491 -0.222457 0.233077
-0.146391 -0.202098 0.311054
-0.146365 -0.197285 0.32949
-0.0271874 -0.201022 0.380136
0.116116 -0.221377 0.380326
-0.146611 -0.242633 0.144669
-0.0146842 -0.200398 0.380152
-0.146414 -0.202252 0.291686
-0.146308 -0.18179 0.371961
0.0142693 -0.202013 0.380192
0.142873 -0.219849 0.380359
-0.146639 -0.242208 0.123279
-0.146531 -0.222013 0.203477
-0.125232 -0.180452 0.380009
0.0342341 -0.2023 0.380218
0.162552 -0.21988 0.380385
-0.106173 -0.180817 0.380034
0.182724 -0.219911 0.380413
-0.146669 -0.241761 0.100898
-0.146554 -0.221176 0.184703
-0.146452 -0.202496 0.260752
0.0652319 -0.201479 0.380256
-0.0750822 -0.180428 0.380073
-0.146701 -0.241294 0.0774497
-0.146594 -0.221908 0.158408
-0.14634 -0.176733 0.347069
-0.0545346 -0.180806 0.380102
0.0547566 -0.195045 0.380242
0.0938929 -0.200143 0.380296
-0.146721 -0.242026 0.0611812
-0.146491 -0.201396 0.233077
-0.146384 -0.181855 0.315747
-0.0271874 -0.18199 0.380136
0.116116 -0.200419 0.380326
-0.146744 -0.24278 0.0443853
-0.0146842 -0.181198 0.380152
0.142873 -0.201195 0.380359
-0.146633 -0.221408 0.123266
-0.146611 -0.216481 0.144669
-0.146524 -0.201543 0.209562
0.0142693 -0.182424 0.380192
0.162552 -0.200995 0.380385
-0.146774 -0.242314 0.018119
-0.146428 -0.182469 0.28164
-0.146308 -0.161958 0.371961
0.0342341 -0.182442 0.380218
0.182724 -0.200789 0.380413
-0.14668 -0.222197 0.0932041
-0.146554 -0.201702 0.184703
-0.125232 -0.160525 0.380009
-0.146816 -0.241818 -0.00948107
-0.146452 -0.182119 0.260752
-0.146334 -0.162107 0.351337
-0.106173 -0.160602 0.380034
0.0652319 -0.181204 0.380256
-0.146837 -0.242625 -0.0287111
-0.146709 -0.221258 0.0693775
-0.146594 -0.201865 0.158408
-0.146406 -0.17176 0.296616
-0.0750822 -0.162041 0.380073
0.0547566 -0.177428 0.380242
0.0938929 -0.182066 0.380296
-0.146732 -0.221668 0.0528516
-0.146484 -0.181747 0.238761
-0.0545346 -0.162142 0.380102
0.116116 -0.18208 0.380326
-0.146873 -0.242121 -0.058848
-0.146625 -0.202044 0.130506
-0.146378 -0.161856 0.320383
-0.146906 -0.242964 -0.0798413
-0.146761 -0.220679 0.0270122
-0.146517 -0.181354 0.215565
-0.0271874 -0.16058 0.380136
-0.0146842 -0.161999 0.380152
0.142873 -0.179876 0.380359
0.162552 -0.182109 0.380385
-0.146788 -0.221095 0.00907475
-0.146669 -0.202228 0.100898
-0.146531 -0.181151 0.203477
0.182724 -0.181666 0.380413
-0.146954 -0.24244 -0.112826
-0.146811 -0.221528 -0.00949436
0.0142693 -0.160386 0.380192
-0.146709 -0.202428 0.0693775
-0.146576 -0.182026 0.171749
-0.146308 -0.142126 0.371961
0.0342341 -0.160102 0.380218
-0.146998 -0.24189 -0.147751
-0.146861 -0.222441 -0.0486228
-0.146452 -0.161742 0.260752
-0.125232 -0.140598 0.380009
0.0652319 -0.16093 0.380256
-0.147027 -0.242801 -0.172197
-0.146906 -0.224967 -0.0798413
-0.146837 -0.215093 -0.0287111
-0.146406 -0.152269 0.296616
-0.146334 -0.141702 0.351337
-0.106173 -0.140386 0.380034
0.0547566 -0.157295 0.380242
0.0938929 -0.161406 0.380296
-0.146761 -0.201063 0.0270122
-0.146625 -0.181397 0.130506
-0.146603 -0.177391 0.151589
-0.146491 -0.161907 0.233077
-0.0750822 -0.141355 0.380073
0.116116 -0.161121 0.380326
-0.147075 -0.242235 -0.210729
-0.146938 -0.221839 -0.101624
-0.146788 -0.201147 0.00907475
-0.146371 -0.142097 0.324964
-0.0545346 -0.141145 0.380102
0.142873 -0.161223 0.380359
-0.146968 -0.222331 -0.124246
-0.146837 -0.204768 -0.0287111
-0.146811 -0.201236 -0.00949436
-0.14668 -0.182355 0.0932041
-0.146531 -0.162083 0.203477
-0.0271874 -0.141548 0.380136
0.162552 -0.160526 0.380385
-0.147127 -0.241631 -0.251692
-0.146983 -0.220698 -0.135885
-0.146659 -0.17653 0.108473
-0.0146842 -0.140399 0.380152
0.182724 -0.159811 0.380413
-0.147166 -0.242613 -0.280465
-0.147008 -0.221187 -0.159869
-0.146861 -0.201423 -0.0486228
-0.146745 -0.184898 0.04439
-0.146721 -0.181915 0.0611812
-0.146576 -0.162271 0.171749
0.0142693 -0.140797 0.380192
-0.147188 -0.240985 -0.295313
-0.147046 -0.221687 -0.184771
-0.146893 -0.201519 -0.0692393
0.0342341 -0.140245 0.380218
-0.147224 -0.241988 -0.326034
-0.147075 -0.222215 -0.210729
-0.146919 -0.201622 -0.0906398
-0.146463 -0.142288 0.255368
-0.146308 -0.122295 0.371961
0.0652319 -0.140655 0.380256
-0.146954 -0.201725 -0.112826
-0.146788 -0.181198 0.00907475
-0.146633 -0.16197 0.123266
-0.146603 -0.1572 0.151589
-0.146399 -0.131959 0.301484
-0.125232 -0.120671 0.380009
-0.106173 -0.122417 0.380034
0.0547566 -0.137161 0.380242
0.0938929 -0.140746 0.380296
-0.147299 -0.241313 -0.374706
-0.147127 -0.220979 -0.251692
-0.146983 -0.201835 -0.135885
-0.146837 -0.18412 -0.0287111
-0.146811 -0.180943 -0.00949436
-0.146494 -0.140844 0.233082
0.116116 -0.140162 0.380326
-0.147146 -0.219157 -0.265926
-0.147027 -0.203953 -0.172197
-0.14669 -0.162169 0.0853887
-0.146359 -0.121848 0.333963
-0.0750822 -0.120668 0.380073
-0.0545346 -0.122482 0.380102
0.142873 -0.139904 0.380359
0.162552 -0.14164 0.380385
-0.147206 -0.222077 -0.310505
-0.14688 -0.182029 -0.0588287
-0.146709 -0.161628 0.0693775
-0.146531 -0.14029 0.203477
-0.14634 -0.117442 0.347069
0.182724 -0.140689 0.380413
-0.147224 -0.220188 -0.326034
-0.147075 -0.202196 -0.210729
-0.146732 -0.161068 0.0528516
-0.146567 -0.141498 0.178277
-0.0271874 -0.120137 0.380136
-0.0146842 -0.121199 0.380152
-0.147277 -0.220731 -0.3581
-0.147112 -0.202324 -0.237744
-0.146938 -0.181505 -0.101624
-0.146761 -0.161831 0.0270122
-0.146594 -0.141735 0.158408
0.0142693 -0.121208 0.380192
-0.147171 -0.204635 -0.280447
-0.146968 -0.181228 -0.124246
-0.146906 -0.174574 -0.0798413
-0.146788 -0.16125 0.00907475
0.0342341 -0.120387 0.380218
-0.147027 -0.184529 -0.172197
-0.146998 -0.180941 -0.147751
-0.146826 -0.162048 -0.0190154
-0.146633 -0.141166 0.123266
-0.146463 -0.121778 0.255368
0.0652319 -0.12038 0.380256
-0.147206 -0.200516 -0.310505
-0.146849 -0.161447 -0.0385786
-0.146669 -0.141407 0.100898
-0.146617 -0.136129 0.137637
-0.146494 -0.122416 0.233082
-0.146308 -0.102463 0.371961
0.0547566 -0.117027 0.380242
0.0938929 -0.120086 0.380296
0.116116 -0.121823 0.380326
0.154622 -0.124833 0.380375
-0.147256 -0.200612 -0.341868
-0.147075 -0.182177 -0.210729
-0.14688 -0.160821 -0.0588287
-0.146701 -0.141663 0.0774493
-0.146418 -0.112248 0.28669
-0.125232 -0.100743 0.380009
-0.106173 -0.102201 0.380034
-0.147299 -0.200718 -0.374706
-0.147112 -0.181887 -0.237744
-0.146733 -0.141931 0.052855
-0.146531 -0.121222 0.203477
-0.146398 -0.107083 0.306303
-0.146334 -0.100892 0.351337
-0.0750822 -0.102281 0.380073
0.174595 -0.120958 0.380402
-0.147171 -0.183539 -0.280447
-0.146954 -0.16101 -0.112826
-0.146761 -0.142215 0.0270122
-0.146567 -0.121884 0.178277
-0.0545346 -0.101485 0.380102
-0.147188 -0.181272 -0.295313
-0.146998 -0.161895 -0.147751
-0.146785 -0.141302 0.00906789
-0.146594 -0.121691 0.158408
-0.0271874 -0.101106 0.380136
-0.0146842 -0.101999 0.380152
-0.147224 -0.180946 -0.326034
-0.146923 -0.150761 -0.0906276
-0.146826 -0.141578 -0.0190154
-0.146625 -0.122406 0.130506
-0.146359 -0.0963179 0.333963
0.0142693 -0.101619 0.380192
-0.147277 -0.180598 -0.3581
-0.147075 -0.162157 -0.210729
-0.147045 -0.158909 -0.184777
-0.146866 -0.14187 -0.0486082
0.0342341 -0.100529 0.380218
-0.147112 -0.16145 -0.237744
-0.146893 -0.140885 -0.0692393
-0.14669 -0.122013 0.0853887
-0.146463 -0.101268 0.255368
0.0652319 -0.100106 0.380256
0.0938929 -0.102008 0.380296
-0.147146 -0.160715 -0.265926
-0.146721 -0.121804 0.0611812
-0.146659 -0.116178 0.108473
-0.146494 -0.101355 0.233082
0.0547566 -0.0968935 0.380242
0.116116 -0.100864 0.380326
-0.147206 -0.161706 -0.310505
-0.146983 -0.141473 -0.135885
-0.146968 -0.140125 -0.124246
-0.146758 -0.121583 0.035785
-0.146531 -0.102153 0.203477
-0.146412 -0.0919332 0.291683
0.142873 -0.0999314 0.380359
0.162552 -0.101172 0.380385
0.182724 -0.102443 0.380413
-0.147256 -0.160931 -0.341868
-0.147008 -0.140406 -0.159869
-0.146798 -0.122392 -0.000133812
-0.146774 -0.120333 0.018119
-0.146567 -0.102271 0.178277
-0.146329 -0.0822781 0.355557
-0.125232 -0.0808162 0.380009
-0.106173 -0.0819856 0.380034
-0.147299 -0.160123 -0.374706
-0.147075 -0.142138 -0.210729
-0.147045 -0.139291 -0.184777
-0.146938 -0.13017 -0.101624
-0.146826 -0.121109 -0.0190154
-0.146594 -0.101648 0.158408
-0.146346 -0.0814285 0.342752
-0.146298 -0.077355 0.379889
-0.0750822 -0.0815949 0.380073
-0.147112 -0.141013 -0.237744
-0.146909 -0.124181 -0.0798334
-0.14688 -0.121942 -0.0588287
-0.146853 -0.119782 -0.0385686
-0.146625 -0.101759 0.130506
-0.146384 -0.0820132 0.315747
-0.0545346 -0.0804879 0.380102
-0.0271874 -0.0820741 0.380136
-0.14715 -0.139842 -0.265915
-0.146669 -0.101874 0.100898
-0.0146842 -0.0803993 0.380152
0.0142693 -0.0820296 0.380192
-0.147224 -0.141705 -0.326034
-0.147206 -0.140145 -0.310505
-0.146968 -0.121441 -0.124246
-0.146745 -0.104507 0.04439
-0.146709 -0.101998 0.0693775
0.0342341 -0.0806717 0.380218
0.0652319 -0.0823655 0.380256
-0.147299 -0.142081 -0.374706
-0.147008 -0.121172 -0.159869
-0.146983 -0.118838 -0.135885
-0.146463 -0.0807581 0.255368
0.0938929 -0.0813485 0.380296
-0.147075 -0.122118 -0.210729
-0.147045 -0.119672 -0.184777
-0.146938 -0.111836 -0.101624
-0.146839 -0.104965 -0.0287052
-0.146798 -0.102272 -0.000133812
-0.146773 -0.100553 0.0181149
-0.146494 -0.0802945 0.233082
0.0547566 -0.0767598 0.380242
0.116116 -0.0799054 0.380326
0.142873 -0.0812775 0.380359
0.162552 -0.0822864 0.380385
-0.147171 -0.124469 -0.280447
-0.147127 -0.121848 -0.251692
-0.146533 -0.0803601 0.20348
-0.146412 -0.0723208 0.291683
0.182724 -0.0805887 0.380413
-0.147188 -0.121559 -0.295313
-0.146893 -0.101651 -0.0692393
-0.146866 -0.0998343 -0.0486082
-0.146593 -0.0816052 0.158405
-0.146567 -0.0798553 0.178277
-0.147256 -0.121249 -0.341868
-0.146633 -0.0817278 0.123266
-0.146334 -0.0623489 0.351337
-0.125232 -0.0608889 0.380009
-0.106173 -0.0617699 0.380034
-0.147299 -0.119529 -0.374706
-0.147008 -0.101939 -0.159869
-0.146983 -0.0999745 -0.135885
-0.146968 -0.0990214 -0.124246
-0.14669 -0.0818569 0.0853887
-0.146609 -0.0770038 0.144663
-0.0750822 -0.0609088 0.380073
-0.0545346 -0.061824 0.380102
-0.147073 -0.102099 -0.210733
-0.147045 -0.100054 -0.184777
-0.146733 -0.0813313 0.052855
-0.146709 -0.0800295 0.0693775
-0.146391 -0.0609882 0.311054
-0.146313 -0.0565071 0.367929
-0.0271874 -0.0606634 0.380136
-0.0146842 -0.0611995 0.380152
0.0142693 -0.0624404 0.380192
-0.147171 -0.103373 -0.280447
-0.147127 -0.101196 -0.251692
-0.146938 -0.0898356 -0.101624
-0.146839 -0.0843159 -0.0287052
-0.146798 -0.0821532 -0.000133812
-0.146773 -0.0807719 0.0181149
-0.146502 -0.0649349 0.227322
-0.146365 -0.0572009 0.32949
0.0342341 -0.0608141 0.380218
0.0652319 -0.0620909 0.380256
0.135136 -0.0649699 0.380348
-0.147224 -0.102464 -0.326034
-0.147206 -0.101336 -0.310505
-0.146909 -0.0845867 -0.0798334
-0.146866 -0.0823195 -0.0486082
-0.146464 -0.0602481 0.255369
-0.162727 -0.0498654 0.389397
0.0938929 -0.0606886 0.380296
0.116116 -0.0615665 0.380326
-0.147299 -0.101487 -0.374706
-0.146601 -0.0648993 0.151584
-0.146533 -0.0612916 0.20348
0.0547566 -0.056626 0.380242
0.162552 -0.0607031 0.380385
0.182724 -0.0614659 0.380413
-0.146998 -0.0818996 -0.147751
-0.146968 -0.0803382 -0.124246
-0.146576 -0.0606753 0.171749
-0.147073 -0.0820799 -0.210733
-0.147045 -0.0804356 -0.184777
-0.146669 -0.0623409 0.100898
-0.146633 -0.0609243 0.123266
-0.162851 -0.049718 0.291224
-0.14715 -0.0814006 -0.265915
-0.147129 -0.0805435 -0.251688
-0.146938 -0.0715019 -0.101624
-0.146733 -0.0621945 0.052855
-0.14671 -0.061199 0.0693784
-0.162744 -0.0423409 0.373412
-0.135203 -0.0422183 0.390454
-0.147277 -0.0824954 -0.3581
-0.147256 -0.0815675 -0.341868
-0.147206 -0.0797751 -0.310505
-0.146798 -0.0620341 -0.000133812
-0.146773 -0.060991 0.0181149
-0.162795 -0.0423887 0.334589
-0.116605 -0.0406317 0.390478
-0.0974625 -0.041227 0.390503
-0.0748865 -0.0419291 0.390533
-0.146894 -0.0624171 -0.0692356
-0.146866 -0.0613018 -0.0486082
-0.146826 -0.0597016 -0.0190135
-0.162826 -0.041367 0.311108
-0.0455617 -0.0405253 0.390572
-0.0273463 -0.0410611 0.390595
-0.0149328 -0.0414263 0.390612
0.0138215 -0.0422722 0.390649
-0.147026 -0.0640998 -0.1722
-0.146983 -0.0622483 -0.135885
-0.146968 -0.0616549 -0.124246
-0.162908 -0.0422109 0.24819
-0.16288 -0.0410846 0.270282
0.0336523 -0.0404067 0.390676
0.0540382 -0.0409721 0.390702
0.0750028 -0.0415536 0.39073
-0.147073 -0.0620604 -0.210733
-0.16298 -0.0422592 0.193763
-0.162963 -0.0416508 0.206467
0.115025 -0.040078 0.390782
0.145501 -0.0408721 0.390822
0.16517 -0.0413846 0.390848
0.19355 -0.0421241 0.390885
-0.147188 -0.0618457 -0.295313
-0.14715 -0.0605286 -0.265915
-0.147129 -0.0598913 -0.251688
-0.163061 -0.0423144 0.131677
-0.163033 -0.0413447 0.153321
-0.163015 -0.0407225 0.167207
-0.162773 -0.0324273 0.352362
-0.162727 -0.030768 0.389397
0.103899 -0.0372212 0.390768
-0.147299 -0.060892 -0.374706
-0.147256 -0.0595222 -0.341868
-0.163362 -0.0489665 -0.0977641
-0.163155 -0.0423779 0.0601925
-0.163112 -0.0409987 0.0932558
-0.163091 -0.0403423 0.108994
-0.163264 -0.0424518 -0.0229985
-0.163239 -0.0416931 -0.00335503
-0.163214 -0.0409611 0.0155986
-0.163178 -0.03991 0.0428131
-0.162853 -0.0303157 0.291228
-0.163333 -0.040917 -0.0753825
-0.163319 -0.0405306 -0.0645098
-0.16351 -0.0417349 -0.210263
-0.163475 -0.0408646 -0.183438
-0.163442 -0.0400298 -0.157709
-0.163292 -0.0363203 -0.043368
-0.163655 -0.0408003 -0.313841
-0.163614 -0.0398825 -0.282575
-0.16341 -0.0354925 -0.133009
-0.162828 -0.0224563 0.311112
-0.162803 -0.0219015 0.330012
-0.162751 -0.0207482 0.369303
-0.135203 -0.0205679 0.390454
-0.116606 -0.0208649 0.390479
-0.0974628 -0.0211706 0.390504
-0.0748868 -0.0215311 0.390533
-0.045562 -0.0219994 0.390572
-0.0273467 -0.0222903 0.390596
-0.0149331 -0.0224886 0.390612
-0.163698 -0.0373653 -0.34658
-0.163676 -0.0369304 -0.33002
-0.163574 -0.0348993 -0.252685
-0.163385 -0.0311325 -0.109258
-0.162941 -0.0223578 0.224856
-0.162925 -0.0220471 0.236687
-0.162896 -0.0214508 0.259389
0.013821 -0.0205322 0.39065
0.033652 -0.0208156 0.390676
0.0540379 -0.0211068 0.390703
0.0750025 -0.0214064 0.39073
0.115024 -0.0219783 0.390783
0.145501 -0.0224137 0.390822
-0.163744 -0.0337646 -0.380898
-0.163203 -0.0243626 0.0248321
-0.163093 -0.0224123 0.108998
-0.163054 -0.0217168 0.139008
-0.163017 -0.0210633 0.167211
-0.16299 -0.0205983 0.187275
0.16517 -0.0200248 0.390848
0.19355 -0.0203826 0.390885
-0.163433 -0.0245293 -0.145211
-0.163416 -0.0242838 -0.132987
-0.163285 -0.0222771 -0.0330712
-0.163258 -0.0218754 -0.0130696
-0.163184 -0.0207528 0.042829
-0.163161 -0.0204038 0.0602083
-0.163116 -0.0197399 0.0932649
0.103899 -0.0166853 0.390768
-0.163721 -0.0244657 -0.363534
-0.163676 -0.0238961 -0.33002
-0.163518 -0.0218606 -0.210236
-0.163483 -0.0214047 -0.183413
-0.163355 -0.0197569 -0.0864431
-0.163326 -0.0193838 -0.0644897
-0.162731 -0.0117374 0.385469
-0.163655 -0.0193264 -0.313841
-0.163614 -0.0188917 -0.282575
-0.162868 -0.0110573 0.280897
-0.163574 -0.0143703 -0.252685
-0.163385 -0.00915664 -0.109258
-0.163744 -0.00675294 -0.380898
-0.163208 -0.00487247 0.0248448
-0.163128 -0.00459271 0.0852081
-0.163655 -0.0021474 -0.313841
-0.163614 -0.00209909 -0.282575
-0.163518 -0.00198734 -0.210236
-0.163483 -0.0019459 -0.183413
-0.163449 -0.00190615 -0.157685
-0.163355 -0.00179609 -0.0864431
-0.163326 -0.00176218 -0.0644897
-0.163285 -0.00171364 -0.0330712
-0.163258 -0.00168274 -0.0130696
-0.163184 -0.00159638 0.042829
-0.163161 -0.00156953 0.0602083
-0.163097 -0.00149414 0.109007
-0.163057 -0.00144778 0.139016
-0.16302 -0.00140421 0.167219
-0.162994 -0.00137322 0.187282
-0.162968 -0.00134356 0.206478
-0.162929 -0.00129688 0.236693
-0.162899 -0.00126181 0.259395
-0.162843 -0.00119707 0.301303
-0.162818 -0.00116712 0.320684
-0.162793 -0.00113864 0.33912
-0.162765 -0.00110494 0.360937
-0.135203 -0.00108253 0.390454
-0.116606 -0.00109816 0.390479
-0.097463 -0.00111425 0.390504
-0.0748871 -0.00113322 0.390534
-0.0455622 -0.00115787 0.390572
-0.0273469 -0.00117318 0.390596
-0.0149333 -0.00118362 0.390612
0.013821 -0.00120778 0.39065
0.033652 -0.00122445 0.390676
0.0540379 -0.00124159 0.390703
0.0750025 -0.00125921 0.39073
0.115024 -0.00129285 0.390783
0.145501 -0.00131846 0.390822
0.16517 -0.001335 0.390848
0.19355 -0.00135885 0.390885
-0.165468 0.00221223 -0.356764
-0.168044 0.00674553 -0.381651
-0.167845 0.00650986 -0.33073
-0.167543 0.00615167 -0.253334
-0.167075 0.0055973 -0.13355
-0.172805 0.0153181 -0.345301
-0.168202 0.00857278 0.280514
-0.17472 0.0191119 -0.304451
-0.174489 0.0186833 -0.273525
-0.174057 0.0178814 -0.215655
-0.17395 0.0176919 -0.201973
-0.172647 0.0157038 -0.0583824
-0.172458 0.0154151 -0.0375302
-0.168677 0.00964971 0.378893
-0.175411 0.0210624 -0.169782
-0.174871 0.0200269 -0.108596
-0.174669 0.0196407 -0.0857736
-0.174109 0.0185664 -0.0222992
-0.173851 0.0180722 0.00690335
-0.173041 0.0167417 0.0855828
-0.179364 0.0292792 -0.390235
-0.178668 0.027921 -0.322272
-0.177884 0.0263906 -0.245699
-0.176921 0.0245099 -0.151595
-0.174984 0.0207134 0.0383584
-0.174805 0.020363 0.0558934
-0.174304 0.0193793 0.105111
-0.174071 0.0189223 0.127978
-0.173777 0.0183454 0.156841
-0.173567 0.0179353 0.17736
-0.173346 0.0175444 0.196932
-0.174315 0.0197376 0.21822
-0.174042 0.019192 0.241895
-0.173846 0.0188023 0.25881
-0.173362 0.0178363 0.300729
-0.182708 0.0369332 -0.3405
-0.181886 0.0352778 -0.277064
-0.174139 0.0196458 0.321943
-0.173902 0.0191672 0.340279
-0.173677 0.0187115 0.357743
-0.145595 0.0182543 0.390441
-0.127299 0.0185157 0.390466
-0.183777 0.0401363 -0.302203
-0.181871 0.0356317 -0.14781
-0.185933 0.0462945 -0.362929
-0.18405 0.0413141 -0.2085
-0.183884 0.0408745 -0.194866
-0.183561 0.0400226 -0.168451
-0.18281 0.0380406 -0.106992
-0.185869 0.0465588 -0.24633
-0.185678 0.046049 -0.231891
-0.183673 0.040702 -0.0804204
-0.183104 0.0391853 -0.037458
-0.182835 0.0384686 -0.0171555
-0.17785 0.027881 0.283321
-0.189217 0.0559424 -0.386192
-0.188247 0.0533321 -0.318124
-0.184497 0.0432432 -0.0550473
-0.183234 0.0398511 0.0334057
-0.18298 0.0391684 0.0512097
-0.182734 0.0385086 0.0684139
-0.113907 0.0275104 0.390485
-0.188879 0.0554108 -0.266055
-0.184683 0.044043 0.00857019
-0.183227 0.040108 0.103633
-0.18299 0.0394669 0.119121
-0.182538 0.0382442 0.148658
-0.177966 0.0284441 0.385931
-0.190379 0.0606728 -0.292688
-0.187986 0.0533033 -0.127011
-0.182999 0.0397279 0.178501
-0.182678 0.0388548 0.198151
-0.182272 0.0377487 0.223044
-0.192147 0.0678041 -0.355144
-0.191721 0.0661915 -0.321264
-0.190203 0.0604416 -0.200462
-0.189863 0.059157 -0.173472
-0.182905 0.0396784 0.236754
-0.191449 0.065573 -0.225286
-0.189733 0.0590397 -0.0962927
-0.18958 0.0584573 -0.0847935
-0.182544 0.0388693 0.302988
-0.182102 0.0376567 0.326996
-0.192744 0.0709047 -0.251082
-0.19139 0.0657147 -0.154428
-0.189619 0.0589362 -0.0281889
-0.189336 0.0578512 -0.00798315
-0.182488 0.0388752 0.346443
-0.148167 0.0375068 0.390438
-0.129945 0.0380428 0.390463
-0.190843 0.0639408 -0.0574701
-0.189518 0.0588441 0.0323512
-0.189251 0.05782 0.0504007
-0.182684 0.0395625 0.373157
-0.195819 0.0864813 -0.376706
-0.195472 0.0843471 -0.34112
-0.194983 0.0813363 -0.290916
-0.194828 0.0803797 -0.274968
-0.190669 0.0635616 0.00623614
-0.189686 0.0597647 0.0697457
-0.189176 0.057792 0.102743
-0.185812 0.0483805 0.26067
-0.196231 0.0896009 -0.356178
-0.194628 0.0796673 -0.198588
-0.194487 0.0787937 -0.184728
-0.193688 0.0755507 -0.13313
-0.18959 0.0596384 0.120143
-0.189225 0.0582235 0.142664
-0.18624 0.0497199 0.278448
-0.19645 0.0915067 -0.319219
-0.189622 0.0599868 0.158647
-0.189157 0.0581789 0.186096
-0.196314 0.0911582 -0.252956
-0.195985 0.0890987 -0.223173
-0.194543 0.0800548 -0.0923895
-0.194289 0.0784619 -0.0693545
-0.189424 0.0594208 0.206995
-0.189096 0.0581383 0.225609
-0.165883 0.047553 0.390414
-0.197397 0.0984403 -0.298008
-0.195295 0.0852042 -0.1147
-0.194263 0.0786921 -0.0245164
-0.185537 0.0488901 0.390388
-0.197863 0.105112 -0.331039
-0.197617 0.101277 -0.280275
-0.196874 0.0955922 -0.204829
-0.194965 0.0835086 -0.0442761
-0.194471 0.0803819 -0.00273287
-0.194104 0.078192 0.0263758
-0.198331 0.113629 -0.384902
-0.198147 0.110726 -0.347978
-0.19673 0.0950906 -0.148902
-0.194327 0.0798081 0.0462361
-0.193937 0.0777426 0.0726454
-0.189323 0.0595452 0.305958
-0.18894 0.0580359 0.32531
-0.197911 0.10809 -0.262685
-0.197456 0.100829 -0.173824
-0.19409 0.0786137 0.099138
-0.188896 0.0580069 0.353463
-0.197934 0.109471 -0.230974
-0.194175 0.0794552 0.124084
-0.193951 0.0781727 0.139289
-0.191613 0.0689012 0.249602
-0.150727 0.0588211 0.390433
-0.198399 0.126968 -0.384606
-0.19855 0.12043 -0.310491
-0.198459 0.118951 -0.293659
-0.197586 0.104795 -0.132541
-0.197319 0.100448 -0.0830626
-0.197084 0.0984432 -0.0601901
-0.196644 0.0956167 -0.0278753
-0.194059 0.0789849 0.162272
-0.191805 0.069814 0.267571
-0.191338 0.0679599 0.288866
-0.1983 0.128027 -0.347323
-0.198354 0.12635 -0.328967
-0.19414 0.0797633 0.184078
-0.193952 0.0785514 0.197466
-0.198392 0.119787 -0.213972
-0.197201 0.100118 -0.00476038
-0.19696 0.0982632 0.0150415
-0.194032 0.0793102 0.217612
-0.198171 0.12837 -0.261649
-0.198403 0.120847 -0.184539
-0.198242 0.118179 -0.157059
-0.198088 0.115626 -0.130767
-0.197941 0.113182 -0.105586
-0.197108 0.0995091 0.0352466
-0.196447 0.0952188 0.0796576
-0.197272 0.145349 -0.389575
-0.197805 0.137684 -0.313587
-0.198086 0.129307 -0.230382
-0.198032 0.115489 -0.0928391
-0.197097 0.0998313 0.0634832
-0.191521 0.0691919 0.371424
-0.19112 0.0675893 0.387591
-0.170855 0.0684161 0.390408
-0.197726 0.138429 -0.279836
-0.196992 0.0992776 0.0985415
-0.193603 0.07764 0.309283
-0.196479 0.150664 -0.355115
-0.198207 0.119954 -0.0681697
-0.198065 0.117549 -0.0455461
-0.197929 0.115239 -0.0238121
-0.197002 0.0995805 0.123478
-0.196755 0.0979672 0.138736
-0.193617 0.0778134 0.329376
-0.196097 0.153228 -0.338485
-0.196653 0.0975202 0.168734
-0.195374 0.0891374 0.245801
-0.193631 0.0779777 0.348419
-0.196767 0.14765 -0.251177
-0.19751 0.140459 -0.187862
-0.197567 0.138825 -0.173416
-0.197678 0.135669 -0.14551
-0.198096 0.119446 -0.00199318
-0.19523 0.0883813 0.274828
-0.150728 0.0780715 0.390434
-0.19379 0.167461 -0.385522
-0.195078 0.160353 -0.324922
-0.196655 0.148158 -0.220611
-0.197664 0.134868 -0.10654
-0.198111 0.12034 0.0185166
-0.197981 0.118109 0.0378228
-0.196912 0.0996408 0.197687
-0.195368 0.0894676 0.286267
-0.193158 0.170039 -0.369327
-0.195002 0.160577 -0.290839
-0.195277 0.158456 -0.273179
-0.197935 0.117923 0.0658755
-0.196898 0.099913 0.217729
-0.192541 0.172562 -0.353483
-0.196904 0.145581 -0.134948
-0.197432 0.139163 -0.0826826
-0.1968 0.146089 -0.109516
-0.197374 0.139755 -0.0592415
-0.197529 0.135466 -0.0250772
-0.198028 0.12067 0.0928015
-0.197909 0.118591 0.10947
-0.191345 0.177447 -0.322805
-0.193556 0.167685 -0.247937
-0.194794 0.161186 -0.197967
-0.195053 0.159203 -0.182649
-0.195552 0.155378 -0.153116
-0.197868 0.118405 0.133765
-0.195109 0.0883968 0.369125
-0.168374 0.0875352 0.390411
-0.191345 0.177259 -0.288841
-0.192986 0.170018 -0.234635
-0.197315 0.139454 -0.00440556
-0.197884 0.119203 0.149391
-0.197231 0.107653 0.23764
-0.19656 0.0981883 0.310032
-0.194994 0.0877744 0.390133
-0.186595 0.193845 -0.378558
-0.187615 0.190728 -0.35594
-0.19078 0.179569 -0.274695
-0.197263 0.14 0.0159575
-0.197792 0.118059 0.178801
-0.196482 0.0978165 0.330016
-0.195097 0.158033 -0.090528
-0.197213 0.140526 0.0355548
-0.197407 0.135299 0.0734358
-0.197279 0.109372 0.261941
-0.190805 0.179117 -0.212811
-0.193837 0.165788 -0.119721
-0.195033 0.158267 -0.0669155
-0.197826 0.119566 0.206651
-0.197258 0.109414 0.279124
-0.196701 0.0995545 0.34951
-0.148166 0.0975179 0.390437
-0.181454 0.208047 -0.381549
-0.184076 0.201145 -0.334973
-0.185107 0.198003 -0.313687
-0.188014 0.189143 -0.253641
-0.188927 0.186361 -0.234796
-0.190817 0.178906 -0.183972
-0.194972 0.158492 -0.0442527
-0.197215 0.138934 0.0905544
-0.191343 0.176445 -0.141307
-0.194913 0.158708 -0.0224838
-0.197215 0.138201 0.115891
-0.179121 0.213203 -0.354988
-0.183513 0.202625 -0.286847
-0.184517 0.199567 -0.267004
-0.189794 0.1831 -0.160066
-0.194856 0.158916 -0.00155687
-0.197216 0.137505 0.139933
-0.194802 0.159115 0.0185762
-0.197173 0.13801 0.155177
-0.173071 0.226326 -0.379429
-0.176869 0.218181 -0.32934
-0.184918 0.198137 -0.205356
-0.19086 0.178151 -0.0805976
-0.194749 0.159308 0.0379595
-0.197462 0.129791 0.225512
-0.197666 0.118696 0.296463
-0.197054 0.107539 0.368245
-0.180543 0.209708 -0.250998
-0.184178 0.200287 -0.193814
-0.189378 0.184494 -0.0974739
-0.19087 0.177981 -0.0573837
-0.194907 0.157924 0.0663742
-0.19709 0.138973 0.184197
-0.197494 0.128379 0.250503
-0.197595 0.117745 0.317229
-0.180682 0.107562 0.390396
-0.169941 0.231852 -0.356553
-0.174692 0.222992 -0.304558
-0.176342 0.219226 -0.282258
-0.185282 0.196833 -0.149184
-0.19705 0.139431 0.198018
-0.197488 0.127997 0.268219
-0.197062 0.108332 0.389592
-0.178431 0.214381 -0.228866
-0.182736 0.204475 -0.171328
-0.185453 0.196224 -0.12293
-0.189948 0.181771 -0.0380071
-0.190888 0.177662 -0.0136796
-0.194805 0.158326 0.101072
-0.197628 0.11903 0.337087
-0.166902 0.23722 -0.334336
-0.185616 0.195641 -0.0977914
-0.190896 0.177511 0.00691491
-0.194756 0.158517 0.117528
-0.167998 0.23518 -0.297682
-0.163382 0.117531 0.390417
-0.169037 0.233246 -0.262918
-0.171439 0.228907 -0.239393
-0.176898 0.217673 -0.178062
-0.184261 0.199586 -0.0785396
-0.190474 0.17914 0.0351127
-0.194664 0.15888 0.1488
-0.165106 0.240288 -0.277165
-0.177387 0.216494 -0.150029
-0.184442 0.198955 -0.0552194
-0.196023 0.148511 0.222199
-0.168628 0.233876 -0.220536
-0.170963 0.229661 -0.198504
-0.177854 0.215368 -0.123241
-0.190505 0.178804 0.0720087
-0.194578 0.159219 0.178063
-0.196123 0.147621 0.241345
-0.196997 0.137814 0.295083
-0.183153 0.202709 -0.037307
-0.184784 0.197767 -0.0113341
-0.19052 0.178645 0.0894782
-0.194719 0.158023 0.199283
-0.197357 0.128212 0.359885
-0.190534 0.178492 0.106341
-0.196003 0.148252 0.265015
-0.196931 0.138637 0.315908
-0.176461 0.218367 -0.0801715
-0.18354 0.201393 0.00523454
-0.19732 0.128382 0.381676
-0.180682 0.128448 0.390396
-0.165593 0.239154 -0.163442
-0.183723 0.200772 0.0252908
-0.190561 0.178201 0.138367
-0.196869 0.139416 0.335628
-0.170957 0.229436 -0.09738
-0.176037 0.219225 -0.0481442
-0.184654 0.197887 0.0558378
-0.165314 0.239567 -0.126985
-0.190586 0.177928 0.168312
-0.153279 0.137685 0.39043
-0.174303 0.223068 -0.0320812
-0.184231 0.199045 0.0811269
-0.19275 0.168459 0.22751
-0.174789 0.221915 -0.010174
-0.184388 0.19851 0.0984223
-0.190609 0.177673 0.196373
-0.194611 0.15794 0.290162
-0.166004 0.238197 -0.0674088
-0.176523 0.217924 0.0239919
-0.18454 0.197994 0.115117
-0.192708 0.168499 0.251988
-0.176941 0.216928 0.0437105
-0.194539 0.158254 0.311146
-0.195867 0.148359 0.357139
-0.165735 0.238604 -0.0363146
-0.184143 0.199083 0.137565
-0.175338 0.220486 0.0573193
-0.194471 0.158551 0.331017
-0.178239 0.147535 0.390399
-0.163412 0.242715 -0.0225829
-0.184439 0.198088 0.167818
-0.195723 0.149138 0.383085
-0.17499 0.221193 0.0822582
-0.187705 0.188203 0.222495
-0.165238 0.239356 0.0210748
-0.167196 0.23583 0.0355223
-0.176574 0.217555 0.110825
-0.184065 0.199116 0.18788
-0.190344 0.178354 0.275814
-0.148166 0.157529 0.390437
-0.187287 0.189373 0.240182
-0.176216 0.218293 0.133218
-0.190372 0.178117 0.297605
-0.16585 0.238157 0.067114
-0.187459 0.18877 0.264128
-0.192548 0.168652 0.346406
-0.175875 0.218997 0.154597
-0.190398 0.177892 0.318218
-0.165616 0.238518 0.0914049
-0.176251 0.218106 0.169705
-0.180369 0.208736 0.206067
-0.192503 0.168696 0.37316
-0.168374 0.167688 0.390411
-0.165392 0.238863 0.114557
-0.175922 0.218788 0.189472
-0.192765 0.167515 0.386288
-0.17929 0.211094 0.228954
-0.165179 0.239191 0.136649
-0.180526 0.208252 0.249573
-0.183475 0.20051 0.278315
-0.183747 0.199622 0.300173
-0.187549 0.188201 0.341812
-0.137818 0.182574 0.390452
-0.164013 0.241209 0.162553
-0.169692 0.230982 0.208245
-0.184003 0.198782 0.32084
-0.187693 0.187702 0.360256
-0.16384 0.241471 0.182535
-0.170941 0.228694 0.235443
-0.160871 0.187788 0.39042
-0.176043 0.218246 0.279755
-0.187415 0.188443 0.381252
-0.171231 0.228109 0.264754
-0.175154 0.220186 0.299033
-0.180442 0.208176 0.338143
-0.13258 0.202843 0.39046
-0.175801 0.21867 0.320164
-0.180339 0.20834 0.360509
-0.165445 0.238394 0.275215
-0.15582 0.207713 0.390426
-0.180243 0.208494 0.381545
-0.116607 0.218531 0.390481
-0.165094 0.23895 0.305415
-0.169873 0.230359 0.337761
-0.140421 0.223174 0.390448
-0.170162 0.229791 0.360433
-0.0974638 0.232876 0.390505
-0.171184 0.227928 0.378889
-0.116606 0.238299 0.390479
-0.143013 0.237786 0.390444
