ply
format ascii 1.0
comment Created by Open3D
element vertex 712
property double x
property double y
property double z
end_header
-0.261924 -0.190564 0.329283
-0.255009 -0.190224 0.348155
-0.261941 -0.18958 0.314181
-0.235391 -0.189696 0.348181
-0.261921 -0.17242 0.331776
-0.255009 -0.172351 0.348155
-0.261941 -0.171525 0.314181
-0.235391 -0.171381 0.348181
-0.261927 -0.152406 0.326784
-0.261941 -0.15089 0.314181
-0.235391 -0.150449 0.348181
-0.26114 -0.190607 -0.32964
-0.261168 -0.188893 -0.353143
-0.240921 -0.189676 -0.317566
-0.261935 -0.132465 0.319243
-0.261913 -0.131007 0.339213
-0.235391 -0.132133 0.348181
-0.261129 -0.172469 -0.320362
-0.261168 -0.171239 -0.353143
-0.240921 -0.171949 -0.317566
0.223493 -0.190518 0.346501
0.223456 -0.188443 0.315166
0.245065 -0.189439 0.348731
-0.261145 -0.152424 -0.334305
-0.261941 -0.1122 0.314181
-0.261918 -0.110961 0.334262
-0.261168 -0.150055 -0.353143
-0.240921 -0.150677 -0.317566
-0.235391 -0.111201 0.348181
0.223479 -0.174833 0.33483
0.245065 -0.168622 0.348731
-0.261168 -0.132402 -0.353143
-0.261145 -0.1314 -0.334305
0.222691 -0.190422 -0.345039
0.222705 -0.189791 -0.333175
0.223479 -0.154265 0.33483
-0.240921 -0.129405 -0.317566
0.24435 -0.186436 -0.317011
-0.261904 -0.0924675 0.346588
0.245065 -0.151968 0.348731
-0.261941 -0.0915658 0.314181
-0.261918 -0.0905548 0.334262
-0.235391 -0.0902693 0.348181
0.222685 -0.170394 -0.351001
0.222712 -0.169266 -0.327272
0.254121 -0.172167 -0.317
0.223479 -0.133696 0.33483
-0.261168 -0.111217 -0.353143
-0.261145 -0.110376 -0.334305
-0.240921 -0.111678 -0.317566
0.245065 -0.13115 0.348731
0.222685 -0.150048 -0.351002
0.222712 -0.149056 -0.327272
0.254121 -0.15161 -0.317
-0.261913 -0.0724988 0.339213
-0.261941 -0.0709313 0.314181
-0.235391 -0.0719538 0.348181
-0.261129 -0.092332 -0.320362
0.223457 -0.109753 0.315166
0.223488 -0.108721 0.342621
0.245065 -0.110333 0.348731
-0.261168 -0.0900331 -0.353143
-0.240921 -0.0904064 -0.317566
0.222685 -0.129703 -0.351002
0.222712 -0.128845 -0.327272
0.254118 -0.131052 -0.316999
0.24435 -0.114927 -0.317011
0.223488 -0.0923102 0.342621
0.222685 -0.109357 -0.351002
0.222712 -0.108634 -0.327272
0.223457 -0.0890447 0.315166
0.245065 -0.0895151 0.348731
-0.261168 -0.0723796 -0.353143
-0.261145 -0.0718319 -0.334305
-0.261924 -0.0524369 0.329283
-0.255009 -0.0523435 0.348155
-0.240921 -0.0691343 -0.317566
-0.261941 -0.0502967 0.314181
-0.235391 -0.0510218 0.348181
0.24435 -0.0944952 -0.317011
0.222685 -0.0890117 -0.351002
0.222712 -0.0884227 -0.327272
0.223457 -0.0724782 0.315166
0.223488 -0.0717968 0.342621
0.245065 -0.0686976 0.348731
-0.261168 -0.0511953 -0.353143
-0.261145 -0.050808 -0.334305
-0.240921 -0.0514075 -0.317566
0.24435 -0.0740638 -0.317011
0.222685 -0.0686662 -0.351002
0.222712 -0.0682118 -0.327272
-0.261941 -0.0322415 0.314181
-0.261918 -0.0318855 0.334262
0.223457 -0.0517702 0.315166
0.223488 -0.0512834 0.342621
0.245065 -0.0520437 0.348731
-0.235391 -0.0300898 0.348181
0.24435 -0.0536324 -0.317011
0.222685 -0.0483207 -0.351002
0.222712 -0.0480009 -0.327272
-0.261168 -0.030011 -0.353143
-0.261145 -0.029784 -0.334305
-0.240921 -0.0301354 -0.317567
0.223479 -0.0349666 0.33483
0.245065 -0.0312262 0.348731
0.244347 -0.0332009 -0.317009
0.222685 -0.0279751 -0.351002
0.222712 -0.02779 -0.327272
-0.261941 -0.0116069 0.314181
-0.261918 -0.0114788 0.334262
-0.235391 -0.0117743 0.348181
-0.261168 -0.0123575 -0.353143
-0.261145 -0.012264 -0.334305
-0.240921 -0.0124087 -0.317567
0.223479 -0.014398 0.33483
0.244344 -0.0127696 -0.317007
0.245065 -0.0104087 0.348731
0.222685 -0.00762959 -0.351002
0.222712 -0.00757911 -0.327272
0.223479 0.00617057 0.33483
-0.261168 0.00882678 -0.353143
-0.261145 0.00876 -0.334305
-0.240921 0.00886338 -0.317567
0.222685 0.012716 -0.351002
0.222712 0.0126318 -0.327272
0.244342 0.0127695 -0.317006
0.245065 0.0104087 0.348731
-0.261941 0.0090276 0.314181
-0.261918 0.00892792 0.334262
-0.235391 0.00915774 0.348181
0.222685 0.0330615 -0.351002
0.222712 0.0328427 -0.327272
0.244343 0.0332008 -0.317006
0.223457 0.0310621 0.315166
0.223488 0.0307701 0.342621
0.245065 0.0312262 0.348731
-0.261168 0.030011 -0.353143
-0.261145 0.029784 -0.334305
-0.24092 0.0301355 -0.317568
0.222685 0.053407 -0.351002
0.222712 0.0530536 -0.327272
0.244343 0.053632 -0.317007
-0.261941 0.0296622 0.314181
-0.261918 0.0293346 0.334262
-0.235391 0.0300898 0.348181
0.223457 0.0476285 0.315166
0.245065 0.0478802 0.348731
0.223488 0.0512834 0.342621
-0.261168 0.0476646 -0.353143
-0.245581 0.0476596 -0.317571
-0.226702 0.0484803 -0.317554
0.222685 0.0737526 -0.351002
0.222712 0.0732646 -0.327272
0.244344 0.0740634 -0.317007
0.223457 0.0683366 0.315166
0.223488 0.0676941 0.342621
0.245065 0.0686977 0.348731
0.222685 0.0940982 -0.351002
0.222713 0.0934756 -0.327273
0.244344 0.0944947 -0.317007
-0.261941 0.0477174 0.314181
-0.235391 0.0484053 0.348181
-0.261168 0.0688488 -0.353143
-0.261145 0.0683279 -0.334305
-0.240919 0.0691345 -0.317569
-0.261918 0.0497413 0.334262
0.25412 0.105356 -0.316999
0.223457 0.0890446 0.315166
0.223488 0.0882075 0.342621
0.245065 0.0895151 0.348731
0.222685 0.114444 -0.351002
0.222713 0.113687 -0.327273
-0.231481 0.0876058 -0.317559
0.244345 0.125142 -0.317008
-0.261168 0.0900331 -0.353143
-0.261145 0.0893519 -0.334305
0.185319 0.126178 -0.338447
0.210897 0.12803 -0.331574
0.235385 0.128679 -0.294001
0.235412 0.127843 -0.27088
0.235438 0.127018 -0.248057
0.235458 0.126406 -0.231133
0.241231 0.12618 -0.211841
0.126941 0.126178 -0.339389
0.149009 0.12777 -0.331645
0.17492 0.129981 -0.331616
0.235503 0.129902 -0.19227
0.235528 0.129082 -0.170448
0.235553 0.128272 -0.148899
0.235577 0.127472 -0.12762
0.235596 0.126879 -0.111834
0.236422 0.126178 -0.0913583
-0.261941 0.0683519 0.314181
-0.261918 0.0675972 0.334262
-0.255009 0.0676636 0.348155
-0.235391 0.0693373 0.348181
0.223457 0.109753 0.315166
0.223488 0.108721 0.342621
0.245065 0.110333 0.348731
0.0746377 0.126175 -0.336053
0.0997428 0.128229 -0.331702
0.235643 0.130053 -0.0704466
0.235667 0.129261 -0.0501313
0.23569 0.128478 -0.030062
0.235713 0.127704 -0.0102344
0.235735 0.12694 0.00935617
0.235758 0.126185 0.0287136
0.244987 0.126183 0.0496887
0.0242412 0.126176 -0.337013
0.0388857 0.127308 -0.331772
0.235807 0.129047 0.0714369
0.235829 0.128294 0.0900651
0.23585 0.12755 0.108477
0.235876 0.126632 0.131194
0.23858 0.126179 0.148497
-0.0227385 0.126176 -0.337907
-0.00350296 0.127748 -0.33182
0.192699 0.146385 -0.331595
0.210897 0.148113 -0.331574
0.235372 0.149353 -0.305675
0.235385 0.148864 -0.294001
0.235412 0.147897 -0.27088
0.235438 0.146942 -0.248057
0.235458 0.146234 -0.231133
0.235484 0.1453 -0.208819
0.235922 0.129398 0.17127
0.235943 0.128667 0.188755
0.235968 0.127764 0.210335
-0.261168 0.107687 -0.353143
-0.245579 0.107676 -0.317573
-0.226702 0.10953 -0.317554
-0.0666378 0.126176 -0.338743
-0.0497952 0.127533 -0.331873
0.140566 0.146227 -0.331655
0.157547 0.147895 -0.331635
0.235503 0.14951 -0.19227
0.235528 0.148566 -0.170448
0.235553 0.147634 -0.148899
0.235577 0.146713 -0.12762
0.235596 0.146031 -0.111834
0.23562 0.14513 -0.0910125
0.236064 0.128489 0.293708
0.236078 0.127964 0.305822
0.223482 0.125469 0.334829
-0.10775 0.126176 -0.339526
-0.0930067 0.127331 -0.331923
0.0840335 0.145288 -0.33172
0.107728 0.147691 -0.331693
0.22116 0.158172 -0.308716
0.235643 0.14897 -0.0704466
0.235667 0.148062 -0.0501313
0.235724 0.145841 -0.000409693
0.186441 0.126188 0.326701
0.245065 0.13115 0.348731
-0.14477 0.126175 -0.336709
0.0388857 0.145175 -0.331772
0.171641 0.158172 -0.312249
0.18146 0.158173 -0.290012
0.189316 0.158173 -0.272223
0.199135 0.158174 -0.249986
0.206991 0.158174 -0.232196
0.216811 0.158174 -0.209959
0.224666 0.158175 -0.192169
0.23569 0.151837 -0.030062
0.23578 0.148247 0.047842
0.235861 0.145031 0.117603
0.148202 0.126188 0.326755
-0.181096 0.126175 -0.337505
-0.155389 0.128687 -0.331995
0.126983 0.158172 -0.311256
0.136509 0.158173 -0.289683
0.14413 0.158173 -0.272425
0.153656 0.158174 -0.250852
0.163183 0.158174 -0.229278
0.170804 0.158174 -0.21202
0.18033 0.158175 -0.190446
0.189856 0.158175 -0.168872
0.197478 0.158176 -0.151614
0.207004 0.158176 -0.13004
0.216531 0.158176 -0.108466
0.224152 0.158177 -0.0912067
0.235747 0.154175 0.0190637
0.235807 0.151687 0.0714369
0.235829 0.150802 0.0900651
0.235907 0.147573 0.158026
-0.235391 0.0876528 0.348181
0.112245 0.126188 0.326806
-0.206953 0.1268 -0.332054
-0.00350296 0.149401 -0.33182
0.0173626 0.151718 -0.331796
0.0849136 0.158173 -0.310321
0.0941637 0.158173 -0.289373
0.103413 0.158173 -0.268425
0.110814 0.158174 -0.251667
0.120064 0.158174 -0.230719
0.129314 0.158175 -0.209771
0.138564 0.158175 -0.188823
0.145964 0.158175 -0.172064
0.155214 0.158176 -0.151116
0.164464 0.158176 -0.130167
0.173715 0.158177 -0.109219
0.181115 0.158177 -0.0924599
0.190366 0.158177 -0.0715113
0.199616 0.158178 -0.0505623
0.208867 0.158178 -0.0296134
0.218117 0.158178 -0.00866425
0.235887 0.152851 0.140189
0.235933 0.150901 0.180038
0.235958 0.149839 0.201739
-0.261941 0.0889865 0.314181
-0.261918 0.0880039 0.334262
0.0783732 0.126188 0.326854
-0.0497952 0.14844 -0.331873
-0.0237404 0.151418 -0.331844
0.0452145 0.158173 -0.309438
0.0542037 0.158173 -0.289081
0.0631933 0.158173 -0.268723
0.0703845 0.158174 -0.252437
0.0793742 0.158174 -0.232079
0.0883634 0.158175 -0.211721
0.0973531 0.158175 -0.191363
0.106342 0.158175 -0.171005
0.115332 0.158176 -0.150646
0.124322 0.158176 -0.130288
0.133312 0.158177 -0.10993
0.142301 0.158177 -0.0895709
0.151291 0.158177 -0.0692123
0.160281 0.158178 -0.0488535
0.169271 0.158178 -0.0284947
0.176463 0.158178 -0.0122074
0.185453 0.158179 0.00815159
0.194443 0.158179 0.0285108
0.203433 0.15818 0.0488701
0.212423 0.15818 0.0692295
0.221413 0.15818 0.0895889
0.235978 0.153319 0.218882
0.236064 0.149552 0.293708
0.0464096 0.126187 0.326899
0.217877 0.145371 0.335326
0.245065 0.147804 0.348731
-0.261168 0.128871 -0.353143
-0.261145 0.127896 -0.334305
-0.250805 0.127972 -0.312336
-0.250779 0.126788 -0.289469
-0.247398 0.126184 -0.270182
-0.110658 0.145468 -0.331943
-0.0870106 0.148247 -0.331916
-0.0748448 0.149677 -0.331902
0.00769067 0.158173 -0.308604
0.0164336 0.158173 -0.288804
0.0251765 0.158174 -0.269004
0.0339195 0.158174 -0.249204
0.0426625 0.158174 -0.229404
0.0514055 0.158175 -0.209604
0.0601487 0.158175 -0.189804
0.068892 0.158175 -0.170003
0.0776353 0.158176 -0.150203
0.0863783 0.158176 -0.130402
0.0951217 0.158177 -0.110601
0.103865 0.158177 -0.0908004
0.112609 0.158177 -0.0709996
0.121352 0.158178 -0.0511985
0.130095 0.158178 -0.0313975
0.138839 0.158179 -0.0115961
0.147582 0.158179 0.00820515
0.156326 0.158179 0.0280065
0.16507 0.15818 0.0478079
0.173813 0.15818 0.0676096
0.184306 0.158181 0.0913716
0.19305 0.158181 0.111173
0.201793 0.158181 0.130975
0.210537 0.158182 0.150777
0.219281 0.158182 0.170579
0.0161974 0.126187 0.326942
-0.250733 0.128128 -0.249358
-0.250713 0.127202 -0.23195
-0.249969 0.126184 -0.211163
-0.0261301 0.158173 -0.30396
-0.0176203 0.158173 -0.284688
-0.00400472 0.158174 -0.253853
0.00450504 0.158174 -0.234581
0.0181208 0.158175 -0.203745
0.0266306 0.158175 -0.184473
0.0385445 0.158176 -0.157491
0.0487568 0.158176 -0.134364
0.0606709 0.158177 -0.107383
0.0708829 0.158177 -0.0842552
0.0793931 0.158178 -0.0649823
0.0930094 0.158178 -0.0341454
0.10152 0.158179 -0.0148722
0.115136 0.158179 0.015965
0.123647 0.15818 0.0352384
0.137263 0.15818 0.0660761
0.145774 0.158181 0.0853497
0.159391 0.158181 0.116188
0.167901 0.158181 0.135462
0.181518 0.158182 0.1663
0.190029 0.158182 0.185574
0.201944 0.158183 0.212558
-0.0124033 0.126187 0.326983
0.176009 0.148506 0.335278
0.266515 0.158172 0.359053
-0.250664 0.128277 -0.18951
-0.25064 0.127149 -0.16885
-0.249762 0.126183 -0.149221
-0.0482475 0.158173 -0.277032
-0.0383012 0.158174 -0.254506
-0.0250394 0.158174 -0.224471
-0.0117774 0.158175 -0.194437
0.00148487 0.158176 -0.164402
0.0147471 0.158176 -0.134367
0.0280095 0.158177 -0.104331
0.0412718 0.158177 -0.0742955
0.0545344 0.158178 -0.0442596
0.0677969 0.158179 -0.0142235
0.0810598 0.158179 0.0158128
0.0943226 0.15818 0.0458493
0.107585 0.15818 0.075886
0.120848 0.158181 0.105923
0.134112 0.158182 0.13596
0.147375 0.158182 0.165998
0.160638 0.158183 0.196035
0.173902 0.158183 0.226073
-0.0395184 0.126187 0.327021
0.136809 0.147607 0.335232
0.235148 0.158173 0.365008
-0.250593 0.128197 -0.128601
-0.250571 0.127098 -0.108994
-0.249565 0.126183 -0.0904148
-0.0482404 0.158175 -0.203896
-0.0353143 0.158175 -0.174621
-0.0223879 0.158176 -0.145347
-0.0175405 0.158176 -0.134369
-0.004614 0.158177 -0.105094
0.000233412 0.158177 -0.0941154
0.0131601 0.158178 -0.06484
0.0260866 0.158178 -0.0355644
0.0309343 0.158178 -0.0245861
0.0438609 0.158179 0.00468975
0.0487086 0.158179 0.0156683
0.0616355 0.15818 0.0449443
0.0664831 0.15818 0.0559229
0.0794103 0.158181 0.0851994
0.0923374 0.158181 0.114476
0.097185 0.158181 0.125455
0.110112 0.158182 0.154732
0.114959 0.158182 0.165711
0.127886 0.158182 0.194988
0.132733 0.158183 0.205967
0.14566 0.158183 0.235245
-0.063978 0.126186 0.329978
0.195714 0.15818 0.3487
0.205347 0.158172 0.370662
-0.250526 0.128121 -0.0707704
-0.250505 0.12705 -0.0521376
-0.248113 0.126184 -0.0316706
-0.0482336 0.158176 -0.134371
-0.0356265 0.158177 -0.105818
-0.0261709 0.158177 -0.0844041
-0.0135637 0.158178 -0.0558514
-0.00410819 0.158178 -0.0344369
0.00849938 0.158179 -0.00588402
0.0179549 0.158179 0.0155308
0.030562 0.15818 0.0440844
0.0400174 0.15818 0.0654995
0.0526245 0.158181 0.0940533
0.0620798 0.158181 0.115469
0.0746872 0.158181 0.144023
0.0841428 0.158182 0.165439
0.09675 0.158182 0.193993
0.106206 0.158183 0.215409
0.118813 0.158183 0.243963
-0.0872339 0.126185 0.332789
0.100032 0.150479 0.335189
0.15972 0.158175 0.336774
0.172305 0.158173 0.365329
-0.250459 0.127838 -0.0122215
-0.250434 0.126592 0.0089497
-0.244273 0.126186 0.0297976
-0.0482274 0.158178 -0.0681944
-0.0405383 0.158178 -0.0507787
-0.0313109 0.158178 -0.02988
-0.0236216 0.158179 -0.0124643
-0.0143943 0.158179 0.00843459
-0.00516689 0.158179 0.0293335
0.00406039 0.15818 0.0502326
0.0117499 0.15818 0.0676486
0.0209773 0.15818 0.088548
0.0302048 0.158181 0.109447
0.0394323 0.158181 0.130347
0.047122 0.158181 0.147763
0.0563495 0.158182 0.168663
0.0655773 0.158182 0.189562
0.0748049 0.158182 0.210462
0.0824946 0.158182 0.227879
0.0917224 0.158183 0.248779
-0.235391 0.108585 0.348181
-0.105108 0.126783 0.33495
0.0654578 0.149575 0.335149
0.142391 0.158173 0.363736
-0.261168 0.150055 -0.353143
-0.261145 0.14892 -0.334305
-0.250387 0.127164 0.0500775
-0.24903 0.126182 0.069397
-0.0482245 0.158178 -0.00513005
-0.0437195 0.158179 0.00507355
-0.0347093 0.158179 0.0254807
-0.0256991 0.158179 0.045888
-0.0136855 0.15818 0.0730979
-0.00467539 0.15818 0.0935055
0.00433505 0.15818 0.113913
0.0133454 0.158181 0.134321
0.0223557 0.158181 0.154728
0.0313661 0.158181 0.175136
0.0403767 0.158182 0.195544
0.0523906 0.158182 0.222755
0.061401 0.158182 0.243163
-0.261941 0.109621 0.314181
-0.261918 0.108411 0.334262
0.0328953 0.148723 0.335111
0.110903 0.158176 0.355414
0.259775 0.177599 0.371296
-0.250738 0.1489 -0.25375
-0.250678 0.145712 -0.202083
-0.250341 0.127714 0.0896619
-0.250319 0.126527 0.108902
-0.244161 0.126186 0.128361
-0.0482217 0.158179 0.0550353
-0.0350171 0.15818 0.0849427
-0.0262141 0.15818 0.104881
-0.0174111 0.15818 0.12482
-0.0086078 0.158181 0.144758
0.000195384 0.158181 0.164697
0.00899863 0.158181 0.184635
0.0178019 0.158182 0.204574
0.0266051 0.158182 0.224513
0.0354085 0.158182 0.244452
0.0021739 0.147919 0.335075
0.0866898 0.158174 0.36077
-0.260434 0.15818 -0.368282
-0.250795 0.15544 -0.303138
-0.250774 0.154291 -0.284947
-0.250654 0.147744 -0.181202
-0.250616 0.145683 -0.14855
-0.250272 0.12688 0.149387
-0.246412 0.126183 0.169143
-0.048219 0.15818 0.112497
-0.0410479 0.15818 0.128739
-0.0324427 0.15818 0.14823
-0.0238374 0.158181 0.16772
-0.0137979 0.158181 0.190459
-0.00519252 0.158181 0.20995
0.00341284 0.158182 0.229441
0.0120186 0.158182 0.248932
0.0506912 0.158176 0.336647
0.062148 0.158174 0.362635
-0.27809 0.159126 -0.367972
-0.276806 0.15818 -0.350435
-0.250702 0.153783 -0.22334
-0.250593 0.14767 -0.128601
-0.250548 0.145161 -0.0897197
-0.250227 0.12722 0.188304
-0.248566 0.126181 0.208132
-0.0482165 0.15818 0.167434
-0.0369949 0.158181 0.19285
-0.031384 0.158181 0.205558
-0.0187598 0.158182 0.234152
-0.0103436 0.158182 0.253214
0.0386884 0.158174 0.364418
0.196062 0.180801 0.371223
-0.278046 0.160148 -0.330436
-0.278025 0.158939 -0.312093
-0.273266 0.15818 -0.28983
-0.265036 0.158179 -0.271174
-0.250492 0.145145 -0.0411066
-0.250181 0.127361 0.228565
-0.249526 0.126179 0.247921
-0.048214 0.158181 0.220008
-0.0399787 0.158181 0.23866
-0.0303711 0.158182 0.260421
-0.0268586 0.153774 0.335041
0.0148642 0.158174 0.363016
-0.277931 0.15818 -0.25004
-0.269874 0.158179 -0.231777
-0.250571 0.15284 -0.108994
-0.250526 0.150265 -0.0707704
-0.250133 0.127314 0.269915
-0.249367 0.126179 0.288459
-0.0482116 0.158182 0.270368
-0.105108 0.145113 0.33495
-0.0543377 0.152878 0.335009
-0.00930297 0.158174 0.35863
0.138312 0.179916 0.371157
-0.277909 0.158875 -0.211776
-0.273198 0.158179 -0.191024
-0.250459 0.149401 -0.0122215
-0.250387 0.145116 0.0500775
-0.250087 0.12727 0.309532
-0.0285203 0.158175 0.363366
-0.277861 0.159268 -0.170718
-0.276388 0.15818 -0.151917
-0.267368 0.158179 -0.131472
-0.235391 0.129517 0.348181
-0.0803845 0.155164 0.334979
-0.0482528 0.158175 0.364991
0.0857253 0.17911 0.371096
-0.277793 0.158266 -0.111798
-0.269347 0.158179 -0.0914555
-0.250434 0.154046 0.0089497
-0.25041 0.152559 0.0297121
-0.250341 0.148265 0.0896619
-0.261918 0.128817 0.334262
-0.0722662 0.158174 0.355101
-0.27809 0.18011 -0.367972
-0.278068 0.178729 -0.34906
-0.277745 0.158383 -0.0704982
-0.270011 0.158179 -0.0501861
-0.250364 0.152633 0.0700571
-0.0916228 0.158175 0.354016
-0.0866594 0.158176 0.365243
0.0376389 0.178373 0.371041
-0.278046 0.180813 -0.330436
-0.278025 0.179447 -0.312093
-0.277999 0.177769 -0.289551
-0.277699 0.158496 -0.0307138
-0.270649 0.158179 -0.0104889
-0.250319 0.152704 0.108902
-0.110242 0.158175 0.352973
-0.277978 0.179809 -0.271818
-0.277953 0.178155 -0.250019
-0.277654 0.158606 0.0076369
-0.271263 0.158179 0.0277242
-0.250297 0.15418 0.127788
-0.250272 0.152541 0.149387
-0.250237 0.15026 0.179458
-0.250158 0.145053 0.248085
-0.134119 0.158177 0.338457
-0.121001 0.158177 0.368179
-0.00650132 0.177696 0.370991
-0.277928 0.179831 -0.228618
-0.277909 0.178529 -0.211776
-0.277608 0.158456 0.0479285
-0.269518 0.158178 0.0698423
-0.150107 0.158177 0.34039
-0.141914 0.158176 0.358957
-0.277885 0.180175 -0.191063
-0.277861 0.178573 -0.170718
-0.277022 0.158179 0.0896
-0.268979 0.158178 0.107835
-0.250214 0.154262 0.199978
-0.250191 0.15268 0.220077
-0.165519 0.158176 0.342253
-0.158621 0.158176 0.357881
-0.277838 0.180189 -0.150732
-0.277815 0.178616 -0.131095
-0.275234 0.158179 0.12913
-0.266198 0.158179 0.149598
-0.235391 0.147832 0.348181
-0.0471615 0.180264 0.370944
-0.277793 0.180204 -0.111798
-0.277766 0.178351 -0.0890777
-0.272401 0.158178 0.169801
-0.250133 0.154117 0.269915
-0.250111 0.152593 0.288612
-0.261941 0.148311 0.314181
-0.194734 0.158176 0.345785
-0.277745 0.179911 -0.0704982
-0.277724 0.178396 -0.0522317
-0.277444 0.158383 0.188981
-0.269656 0.158179 0.209078
-0.261918 0.149224 0.334262
-0.208593 0.158176 0.34746
-0.0847381 0.179567 0.370901
-0.277699 0.179629 -0.0307138
-0.277674 0.17785 -0.00962254
-0.275588 0.158179 0.2276
-0.26593 0.15818 0.249464
-0.213395 0.158178 0.368514
-0.277654 0.179358 0.0076369
-0.277631 0.177612 0.0279788
-0.270774 0.158179 0.269403
-0.226484 0.158178 0.369758
-0.119569 0.178921 0.370861
-0.277608 0.178808 0.0479285
-0.275459 0.158179 0.288692
-0.182115 0.169493 0.37079
-0.277581 0.179695 0.0707227
-0.277559 0.177999 0.0898608
-0.277304 0.158542 0.30937
-0.261624 0.158177 0.348998
-0.253451 0.158178 0.3675
-0.151944 0.17832 0.370824
-0.277537 0.179155 0.108641
-0.27727 0.158414 0.338951
-0.265291 0.158179 0.368702
-0.277512 0.180013 0.130112
-0.277491 0.178363 0.14815
-0.277467 0.179211 0.168782
-0.277444 0.180042 0.188981
-0.277421 0.178177 0.208761
-0.277399 0.179002 0.228136
-0.210298 0.179903 0.370757
-0.277373 0.179549 0.249798
-0.277352 0.177747 0.268344
-0.182115 0.188785 0.37079
-0.277328 0.178297 0.289089
-0.236685 0.179329 0.370727
-0.277304 0.178835 0.30937
-0.277281 0.179361 0.3292
-0.261442 0.17879 0.370699
-0.277259 0.179875 0.348596
-0.277237 0.177924 0.36757
