ply
format ascii 1.0
comment Created by Open3D
element vertex 1004
property double x
property double y
property double z
end_header
0.176165 -0.166899 -0.374361
0.164925 -0.166754 -0.375914
0.17007 -0.157483 -0.379874
0.157002 -0.159426 -0.371081
-0.078613 -0.167316 -0.349325
-0.0892212 -0.166213 -0.355694
0.182387 -0.156758 -0.368351
0.161954 -0.152361 -0.378133
0.178372 -0.149075 -0.379484
-0.080265 -0.157235 -0.355823
-0.0886414 -0.156879 -0.358357
-0.09835 -0.15767 -0.354887
0.172488 -0.1457 -0.383129
-0.0759939 -0.15578 -0.347444
-0.0980639 -0.151546 -0.356138
0.184421 -0.141464 -0.374803
0.161643 -0.140566 -0.38161
0.151781 -0.143427 -0.366228
-0.0850179 -0.147491 -0.361416
-0.0722494 -0.146168 -0.351242
-0.0768399 -0.145047 -0.358047
0.175603 -0.135154 -0.379632
0.154163 -0.13679 -0.371664
-0.0938466 -0.141727 -0.361632
0.188408 -0.130936 -0.387232
0.180144 -0.130896 -0.388107
0.17194 -0.130946 -0.388435
0.161035 -0.13109 -0.388406
0.150143 -0.131316 -0.387879
0.141952 -0.131496 -0.387427
0.130981 -0.131684 -0.387141
0.119958 -0.129011 -0.387375
0.111683 -0.129102 -0.387451
0.100631 -0.129225 -0.38754
0.0923289 -0.129324 -0.387574
0.081239 -0.129458 -0.3876
0.0701265 -0.129589 -0.387644
0.0617792 -0.129679 -0.387732
0.0506309 -0.129801 -0.387837
0.0422557 -0.129893 -0.387912
0.0310695 -0.130018 -0.388004
0.0198564 -0.130153 -0.388034
0.0114309 -0.130255 -0.388054
0.000176102 -0.130392 -0.388077
-0.00828038 -0.130494 -0.388096
-0.0195694 -0.130623 -0.388171
-0.0280511 -0.13072 -0.388227
-0.0394233 -0.130893 -0.388032
-0.0479938 -0.131044 -0.387764
-0.0595154 -0.131302 -0.387068
-0.0683059 -0.131595 -0.385946
-0.0801815 -0.13206 -0.384004
-0.0893209 -0.132542 -0.38175
-0.0987521 -0.133186 -0.378526
-0.108614 -0.131182 -0.373897
0.185482 -0.122434 -0.388945
0.177258 -0.12243 -0.389599
-0.0892667 -0.126803 -0.381991
-0.0986968 -0.12742 -0.378761
-0.119715 -0.129836 -0.364908
0.166597 -0.120152 -0.387319
0.155554 -0.120081 -0.388623
0.147376 -0.12023 -0.388274
0.136425 -0.120391 -0.388061
0.12544 -0.120531 -0.387983
0.117181 -0.120625 -0.387996
0.106148 -0.120741 -0.38808
0.0950944 -0.120865 -0.388117
0.0867892 -0.12096 -0.38813
0.0756955 -0.121084 -0.388164
0.0673603 -0.121178 -0.38819
0.0562292 -0.121293 -0.388285
0.0450769 -0.121409 -0.38838
0.0366981 -0.121497 -0.388443
0.0255027 -0.121624 -0.38847
0.0170908 -0.121719 -0.38849
0.0058541 -0.121847 -0.388513
-0.00258904 -0.121943 -0.388529
-0.0138674 -0.122071 -0.38855
-0.0251632 -0.122193 -0.388614
-0.0336562 -0.122291 -0.388623
-0.0450659 -0.12248 -0.388257
-0.130894 -0.130075 -0.345091
-0.0536244 -0.119785 -0.388102
-0.0652717 -0.120108 -0.386829
-0.0740834 -0.120377 -0.385701
-0.108525 -0.122477 -0.374261
-0.119671 -0.121058 -0.365076
0.191235 -0.11173 -0.386386
0.179885 -0.111286 -0.390379
0.171783 -0.111434 -0.389956
0.16099 -0.111701 -0.388901
0.150075 -0.111839 -0.388769
0.141872 -0.111944 -0.388652
0.130905 -0.112068 -0.38862
0.119912 -0.112187 -0.388624
0.111651 -0.112275 -0.388642
0.100616 -0.112389 -0.388683
0.092326 -0.112478 -0.388688
-0.0830485 -0.115045 -0.384045
-0.0953502 -0.115659 -0.380672
-0.130707 -0.121003 -0.345795
0.0812536 -0.10979 -0.388889
0.0701586 -0.109905 -0.388909
0.061823 -0.109988 -0.388951
0.0506898 -0.110097 -0.389015
0.0423248 -0.11018 -0.389054
0.0311512 -0.110293 -0.389097
0.0199521 -0.11041 -0.389111
0.0115375 -0.110497 -0.389125
0.000296384 -0.110615 -0.389135
-0.00815023 -0.110703 -0.389143
-0.0194302 -0.110818 -0.389176
-0.0279054 -0.110905 -0.389202
-0.0392657 -0.111054 -0.388995
-0.0478311 -0.111186 -0.388696
-0.0593421 -0.111407 -0.387986
-0.0681245 -0.111657 -0.386855
-0.105019 -0.11059 -0.376656
-0.115563 -0.111654 -0.369589
-0.0799302 -0.106343 -0.385178
-0.0890631 -0.106735 -0.382896
-0.124046 -0.110145 -0.359674
-0.130656 -0.112013 -0.34599
0.190993 -0.100454 -0.388283
0.179795 -0.100193 -0.391177
0.171763 -0.100404 -0.390149
0.160883 -0.100516 -0.390104
0.150047 -0.100745 -0.389145
0.141829 -0.100804 -0.389312
0.130868 -0.100908 -0.389339
0.119885 -0.101015 -0.389343
0.111632 -0.101095 -0.389349
0.100608 -0.101204 -0.389347
0.0923242 -0.101284 -0.389356
0.0812589 -0.101392 -0.389354
0.0701703 -0.101498 -0.389373
0.0618397 -0.101575 -0.389416
0.0507109 -0.101681 -0.389437
0.0423493 -0.10176 -0.389458
0.0311815 -0.101864 -0.389503
0.0199883 -0.101972 -0.389518
0.0115766 -0.102054 -0.389518
0.00034035 -0.102164 -0.389522
-0.00810205 -0.102245 -0.38953
-0.0193765 -0.102352 -0.389563
-0.0278491 -0.102433 -0.389579
-0.0391918 -0.0997509 -0.389446
-0.0477538 -0.0998708 -0.389139
-0.0592566 -0.100068 -0.388439
-0.0680333 -0.100292 -0.387312
-0.0984281 -0.101505 -0.3799
-0.108341 -0.10221 -0.375004
-0.11951 -0.100561 -0.365704
0.191033 -0.0922342 -0.38797
0.182461 -0.0918899 -0.391552
0.171646 -0.0920184 -0.391287
0.160948 -0.0923396 -0.389374
0.150021 -0.0924255 -0.389479
0.141801 -0.0924676 -0.38975
-0.0798291 -0.0949432 -0.38565
-0.0889562 -0.0952933 -0.383371
-0.130383 -0.0999417 -0.347019
0.130833 -0.0897721 -0.390022
0.119859 -0.0898679 -0.390021
0.111614 -0.0899418 -0.390004
0.100599 -0.0900406 -0.38998
0.0923225 -0.0901133 -0.389976
0.0812659 -0.0902103 -0.389971
0.0701856 -0.0903063 -0.389978
0.0618603 -0.0903774 -0.389991
0.0507391 -0.0904733 -0.390001
0.0423826 -0.0905454 -0.390008
0.0312206 -0.0906407 -0.390026
0.0200334 -0.0907383 -0.390027
0.0116272 -0.0908116 -0.390027
0.000397466 -0.0909099 -0.390024
-0.0080405 -0.0909835 -0.390025
-0.019311 -0.0910807 -0.390035
-0.0277811 -0.0911546 -0.390034
-0.0391355 -0.0912815 -0.38979
-0.0476957 -0.0913925 -0.389472
-0.0591944 -0.0915733 -0.388767
-0.0679649 -0.0917769 -0.387654
-0.0983186 -0.0900159 -0.380364
-0.108227 -0.0906411 -0.375469
-0.11944 -0.091786 -0.365975
-0.0797577 -0.0864045 -0.385984
-0.0888792 -0.0867223 -0.383714
-0.130113 -0.0908803 -0.348038
0.191097 -0.0812725 -0.387469
0.182415 -0.080878 -0.391942
0.17162 -0.081006 -0.391532
0.160907 -0.0812667 -0.389834
0.149995 -0.0813531 -0.389834
0.141778 -0.0813915 -0.390091
0.130822 -0.0814638 -0.390232
0.119852 -0.0815518 -0.39022
0.111608 -0.0816178 -0.390214
0.100596 -0.0817052 -0.390212
0.0923219 -0.081771 -0.390209
0.0812686 -0.0818582 -0.390212
0.0701917 -0.0819458 -0.390214
0.0618684 -0.0820117 -0.390215
0.0507505 -0.0820981 -0.39023
0.0423966 -0.0821633 -0.39024
0.0312366 -0.0822516 -0.39024
0.0200527 -0.0823399 -0.390243
0.0116491 -0.0824061 -0.390247
0.000423044 -0.0824947 -0.390249
-0.00800686 -0.0797582 -0.390295
-0.0192767 -0.0798457 -0.390283
-0.0277436 -0.0799102 -0.390285
-0.0390934 -0.0800208 -0.390048
-0.0476498 -0.0801175 -0.389735
-0.0591381 -0.0802724 -0.389066
-0.0678969 -0.0804467 -0.387994
-0.0982502 -0.0814134 -0.380654
-0.108142 -0.0819736 -0.375812
-0.1193 -0.080077 -0.36652
-0.129531 -0.0817247 -0.350237
-0.0796954 -0.0750452 -0.386275
-0.0888037 -0.0753171 -0.384049
0.191013 -0.0701938 -0.388131
0.182297 -0.0698223 -0.392947
0.171549 -0.0699611 -0.392219
0.160859 -0.0701999 -0.390369
0.14996 -0.0702817 -0.390288
0.141754 -0.0703225 -0.39046
0.130804 -0.0703868 -0.390579
0.119839 -0.0704648 -0.390547
0.1116 -0.0705229 -0.390527
0.100592 -0.0705998 -0.39051
0.0923211 -0.0706571 -0.390503
0.0812718 -0.0707333 -0.390497
0.0701987 -0.0708095 -0.390493
0.0618781 -0.070867 -0.390486
0.0507628 -0.0709441 -0.390475
0.0424104 -0.071002 -0.390467
0.0312528 -0.0710793 -0.390457
0.0200709 -0.0711567 -0.390448
0.0116691 -0.0712143 -0.390447
0.000445113 -0.0712915 -0.390443
-0.00798883 -0.0713495 -0.39044
-0.0192566 -0.0714277 -0.390428
-0.0277237 -0.0714866 -0.390418
-0.0390716 -0.0715855 -0.390181
-0.0476258 -0.0716716 -0.389873
-0.0591116 -0.0718099 -0.389206
-0.0678624 -0.0719629 -0.388167
-0.0981541 -0.0699513 -0.381062
-0.10803 -0.0704288 -0.376266
-0.119188 -0.0713032 -0.366954
-0.0796317 -0.0665246 -0.386572
-0.0887364 -0.0667655 -0.384348
-0.128711 -0.069577 -0.35333
0.190962 -0.0619047 -0.388528
0.1822 -0.061543 -0.393777
0.171471 -0.0616708 -0.392979
0.160801 -0.06189 -0.39102
0.149922 -0.0619739 -0.39079
0.141727 -0.062016 -0.390884
0.130784 -0.0620753 -0.39097
0.119825 -0.0621444 -0.390933
0.111589 -0.0621954 -0.390918
0.100587 -0.0622626 -0.390908
0.0923201 -0.0623131 -0.390901
0.0812764 -0.0623802 -0.390896
0.0702088 -0.0624475 -0.39089
0.0618923 -0.0624984 -0.390882
0.0507889 -0.059776 -0.390998
0.0424416 -0.0598254 -0.390983
0.0312909 -0.0598908 -0.390968
0.020115 -0.0599571 -0.390945
0.0117166 -0.0600071 -0.390924
0.000496067 -0.0600744 -0.390891
-0.00793452 -0.0601241 -0.390877
-0.0191978 -0.0601911 -0.390851
-0.0276631 -0.060242 -0.390823
-0.039006 -0.0603258 -0.390582
-0.0475555 -0.0603982 -0.390276
-0.0590364 -0.0605152 -0.389604
-0.067784 -0.0606445 -0.38856
-0.0980109 -0.0613392 -0.381669
-0.10785 -0.0617487 -0.376996
-0.11882 -0.0595573 -0.368379
-0.128037 -0.060508 -0.355876
-0.0794807 -0.0551522 -0.387277
-0.0885463 -0.0553424 -0.385193
0.19093 -0.0508833 -0.388779
0.182034 -0.0505103 -0.395201
0.171294 -0.0505965 -0.394695
0.160577 -0.0507259 -0.393523
0.149832 -0.0508794 -0.39198
0.141647 -0.0509124 -0.392099
0.130723 -0.0509625 -0.392163
0.11978 -0.0510194 -0.392124
0.111557 -0.0510615 -0.392105
0.100572 -0.0511172 -0.392086
0.0923169 -0.0511588 -0.392077
0.0812896 -0.0512145 -0.392063
0.070238 -0.0512707 -0.392043
0.0619331 -0.0513136 -0.392018
0.0508377 -0.0513716 -0.391973
0.042499 -0.0514158 -0.39193
0.0313578 -0.0514755 -0.391864
0.0201891 -0.0515365 -0.391778
0.0117959 -0.0515819 -0.391721
0.000580274 -0.0516434 -0.391631
-0.00784975 -0.0516901 -0.391558
-0.0191132 -0.0517523 -0.391461
-0.0275799 -0.0517996 -0.391381
-0.0389266 -0.0518763 -0.391066
-0.0503363 -0.0519641 -0.390587
-0.0589589 -0.0520442 -0.390015
-0.0676898 -0.0521514 -0.389032
-0.0977637 -0.0498617 -0.382717
-0.107528 -0.050179 -0.378299
-0.118406 -0.0507406 -0.36999
-0.127176 -0.0514492 -0.359129
-0.13395 -0.0523473 -0.345031
-0.0792484 -0.0466034 -0.388362
-0.0883244 -0.04677 -0.38618
0.187618 -0.0423825 -0.393615
0.181904 -0.0422599 -0.396305
0.171123 -0.0423024 -0.396347
0.160479 -0.0424413 -0.39461
0.15243 -0.0397877 -0.393564
0.141534 -0.039816 -0.393842
0.130631 -0.0398534 -0.393942
0.122444 -0.0398853 -0.39394
0.111508 -0.0399284 -0.393931
0.100547 -0.0399699 -0.393953
0.0923119 -0.0400023 -0.393946
0.0813112 -0.0400441 -0.393967
0.0702862 -0.0400882 -0.393943
0.062001 -0.0401223 -0.393908
0.050933 -0.0401667 -0.393882
0.0398375 -0.0402137 -0.393807
0.0314976 -0.0402498 -0.393735
0.0203515 -0.0402998 -0.393606
0.0119749 -0.0403367 -0.393521
0.000779077 -0.0403875 -0.39338
-0.00763717 -0.040426 -0.393267
-0.0188824 -0.040477 -0.393126
-0.030156 -0.040528 -0.392985
-0.0386566 -0.0405748 -0.392716
-0.0500327 -0.0406407 -0.392292
-0.0586191 -0.0406984 -0.391814
-0.0702253 -0.0408061 -0.390586
-0.100436 -0.041278 -0.383628
-0.110342 -0.041568 -0.378688
-0.117606 -0.0418811 -0.373095
-0.125777 -0.042355 -0.364411
-0.078643 -0.0351795 -0.391189
-0.087643 -0.0352966 -0.389209
-0.136536 -0.0373263 -0.346701
0.190825 -0.0315971 -0.389605
0.181694 -0.031282 -0.398107
0.170836 -0.0312745 -0.399124
0.160452 -0.0314763 -0.394919
0.152308 -0.0314939 -0.395107
0.141425 -0.0315115 -0.395502
0.130543 -0.0315389 -0.395656
0.122372 -0.031562 -0.395708
0.111458 -0.0315937 -0.395758
0.100523 -0.0316245 -0.395832
0.0923069 -0.0316491 -0.395851
0.0813331 -0.0316809 -0.395903
0.0703364 -0.031714 -0.395922
0.0620732 -0.0317397 -0.395919
0.0510349 -0.0317737 -0.395919
0.0399707 -0.0318093 -0.395886
0.0316543 -0.0318371 -0.395833
0.0205407 -0.0318753 -0.395736
0.0121883 -0.031904 -0.395665
0.00102768 -0.0319424 -0.395566
-0.0101628 -0.0319819 -0.395443
-0.0185713 -0.0320109 -0.395369
-0.0298013 -0.0320482 -0.395303
-0.0382656 -0.0320824 -0.395104
-0.0495986 -0.0321325 -0.394729
-0.058156 -0.0321776 -0.394265
-0.0697313 -0.0322638 -0.393016
-0.134467 -0.0340267 -0.354306
-0.099229 -0.0297018 -0.388667
-0.108991 -0.0298983 -0.384084
-0.119599 -0.0302004 -0.376698
-0.127828 -0.0305506 -0.36783
-0.0780117 -0.0266364 -0.394138
-0.0898906 -0.0267415 -0.391895
-0.135648 -0.0249551 -0.360932
0.190694 -0.02058 -0.390632
0.184279 -0.0203744 -0.398932
0.175943 -0.0203226 -0.401534
0.16552 -0.0204237 -0.398494
0.154835 -0.0204761 -0.397321
0.146696 -0.020483 -0.397682
0.135841 -0.0204944 -0.398077
0.124984 -0.0205123 -0.398228
0.116823 -0.020521 -0.398521
0.105936 -0.0205396 -0.398649
0.0950269 -0.0205501 -0.399083
0.0868375 -0.0205612 -0.399289
0.0759033 -0.0205778 -0.399495
0.0649519 -0.0205941 -0.399712
0.0567248 -0.0206076 -0.399828
0.0457319 -0.0206288 -0.399864
0.0374733 -0.0206443 -0.399907
0.0264371 -0.0206668 -0.399897
0.0153736 -0.0206902 -0.399852
0.00705437 -0.0207091 -0.399771
-0.00405956 -0.0207339 -0.399679
-0.0152012 -0.020759 -0.39958
-0.0235757 -0.0207779 -0.399501
-0.0347712 -0.0208042 -0.39936
-0.0432216 -0.0208294 -0.399048
-0.054521 -0.0208632 -0.39863
-0.0630719 -0.0208957 -0.398048
-0.0982598 -0.021107 -0.392715
-0.107664 -0.0212137 -0.389382
-0.117731 -0.0213797 -0.383847
-0.129362 -0.0216872 -0.373061
-0.141377 -0.0222891 -0.351122
-0.0740791 -0.0153148 -0.39934
-0.0827245 -0.0153437 -0.398508
0.190795 -0.0123604 -0.389839
0.183973 -0.0121849 -0.40147
0.175714 -0.012161 -0.403612
0.165173 -0.0121979 -0.402086
0.157398 -0.0122571 -0.398932
0.146558 -0.0122597 -0.399594
0.135729 -0.0122665 -0.399993
0.124891 -0.0122745 -0.400317
0.116751 -0.0122796 -0.400615
0.105886 -0.0122847 -0.401127
0.0950113 -0.0122901 -0.401612
0.0868497 -0.0122922 -0.402102
0.0759609 -0.0122971 -0.402631
0.065055 -0.012306 -0.402897
0.0568674 -0.0123119 -0.403149
0.0459294 -0.0123223 -0.403328
0.0349691 -0.0123336 -0.403454
0.0267277 -0.0123436 -0.40345
0.0157196 -0.0123568 -0.403458
0.00744139 -0.0123677 -0.403401
-0.00362141 -0.0123825 -0.403305
-0.0147132 -0.0123977 -0.403192
-0.0230531 -0.0124095 -0.403084
-0.034201 -0.0124256 -0.40292
-0.0426199 -0.0124413 -0.402569
-0.0538721 -0.0124618 -0.402132
-0.0652222 -0.0124872 -0.40139
-0.140231 -0.0131394 -0.36585
-0.0939069 -0.00976773 -0.399072
-0.102845 -0.00979813 -0.397281
-0.115395 -0.00986512 -0.39279
-0.125738 -0.00995364 -0.386377
-0.13359 -0.0100519 -0.378985
-0.0732918 -0.00692794 -0.40308
-0.0847643 -0.00694507 -0.402005
-0.141715 -0.0072551 -0.37104
0.190431 -0.00136842 -0.392698
0.181085 -0.00135105 -0.403308
0.170154 -0.00134826 -0.405729
0.162305 -0.00135216 -0.404108
0.151783 -0.00135773 -0.401743
0.140975 -0.00135803 -0.402394
0.13017 -0.00135858 -0.402911
0.122062 -0.00135908 -0.403248
0.111236 -0.00135929 -0.403953
0.100408 -0.00135967 -0.404563
0.09228 -0.00135838 -0.405923
0.0814398 -0.00136089 -0.405323
0.0705789 -0.00136206 -0.405486
0.0624202 -0.00136298 -0.405585
0.051525 -0.00136419 -0.405725
0.0406085 -0.00136547 -0.405836
0.0324077 -0.00136642 -0.405919
0.0214556 -0.00136769 -0.406031
0.0104849 -0.00136894 -0.406162
0.00224699 -0.00136982 -0.406287
-0.0087527 -0.00137099 -0.406462
-0.0197685 -0.00137213 -0.406656
-0.0280424 -0.00137299 -0.406801
-0.0388745 -0.00137184 -0.408285
-0.0502693 -0.00137638 -0.406569
-0.0586547 -0.00137786 -0.406367
-0.0929111 -0.00138785 -0.403294
-0.104733 -0.00139331 -0.401092
-0.11394 -0.00139934 -0.398361
-0.123564 -0.00140764 -0.394364
-0.134452 -0.00142333 -0.386263
-0.151515 -0.00147556 -0.357817
0.191396 0.00138159 -0.38512
0.0572692 0.00135152 -0.412507
0.0464854 0.00135197 -0.413077
0.0356838 0.00135268 -0.413497
0.0248292 0.00135425 -0.41343
0.0166665 0.00135553 -0.413326
0.00574748 0.00135742 -0.413084
0.0788366 0.00404432 -0.412793
0.070795 0.00404119 -0.414004
-0.00482108 0.00406164 -0.415903
-0.0129789 0.00406426 -0.416029
-0.0239135 0.00406923 -0.415921
-0.06957 0.00413188 -0.407516
-0.0780428 0.00413782 -0.407036
-0.145196 0.00431092 -0.379303
-0.151237 0.00436842 -0.368848
0.08958 0.00672814 -0.413387
-0.0342828 0.00675824 -0.41943
-0.0425943 0.00677015 -0.418708
-0.053967 0.00679765 -0.416445
0.187192 0.00952839 -0.397052
0.180969 0.00944519 -0.404298
0.16995 0.0094137 -0.407704
0.161785 0.00939678 -0.409705
0.151932 0.00952709 -0.399854
0.140826 0.00947814 -0.404686
0.129988 0.0094666 -0.406454
0.121908 0.0094672 -0.407024
0.111181 0.00949009 -0.405981
0.100306 0.009423 -0.412272
0.0600937 0.00941924 -0.415652
0.0520272 0.00942536 -0.415772
0.0412552 0.00943358 -0.415927
0.0304663 0.00944151 -0.416106
0.0223643 0.00944726 -0.416258
0.0115594 0.00945335 -0.416588
-0.0642199 0.00948106 -0.420128
-0.0890246 0.00965446 -0.407914
-0.0975558 0.00966932 -0.407357
-0.109348 0.00970751 -0.405151
-0.118417 0.009744 -0.402876
-0.127863 0.00979463 -0.399477
-0.138509 0.0098934 -0.392254
-0.0525503 0.0121155 -0.423945
-0.0749519 0.0121855 -0.421232
-0.0838682 0.0122435 -0.418243
-0.150252 0.0128969 -0.381963
-0.156669 0.0130857 -0.370501
0.151223 0.0147993 -0.408811
0.108311 0.0147743 -0.413387
0.0922548 0.0147593 -0.41539
0.0815579 0.0147683 -0.415741
0.0708385 0.0147845 -0.415722
0.000813894 0.0148527 -0.417544
-0.0099012 0.0148462 -0.418703
-0.0178642 0.014832 -0.420043
-0.028487 0.0148169 -0.421641
-0.0391041 0.0148036 -0.423141
-0.0948045 0.0149721 -0.418676
0.185192 0.0178293 -0.391346
0.181575 0.0176582 -0.399121
0.140595 0.017522 -0.408222
0.130145 0.0176504 -0.403393
0.121822 0.0175343 -0.409119
0.0600777 0.0175022 -0.415247
0.0519915 0.0175206 -0.415058
0.0412006 0.0175391 -0.415074
0.0303974 0.0175545 -0.415225
0.0222995 0.0175617 -0.415528
0.0115158 0.017566 -0.416165
-0.0794198 0.0175056 -0.425763
-0.102932 0.0176936 -0.419324
-0.114856 0.0180268 -0.405638
-0.123634 0.0180683 -0.404491
-0.132552 0.018118 -0.402994
-0.13994 0.0182636 -0.397176
0.172548 0.0201524 -0.408258
0.167045 0.0201129 -0.41018
0.100261 0.0201023 -0.41569
-0.0497079 0.0201694 -0.424608
-0.0576251 0.0201532 -0.425828
-0.0684186 0.0201644 -0.42623
-0.114343 0.0204723 -0.418047
-0.150653 0.0212781 -0.390223
0.156321 0.022781 -0.411456
0.132322 0.0227958 -0.412795
0.110913 0.022753 -0.415865
0.0922553 0.0228159 -0.415186
0.0815385 0.0228747 -0.414032
0.0707646 0.0229359 -0.412809
0.000451684 0.0230472 -0.414456
-0.00755059 0.0230236 -0.415856
-0.018179 0.022989 -0.41783
-0.0287246 0.0229446 -0.420123
-0.0392407 0.0229024 -0.422342
-0.0901383 0.0228905 -0.426632
-0.123373 0.0232972 -0.415547
-0.159012 0.02438 -0.38199
0.0488879 0.0258692 -0.407436
0.0406906 0.0259008 -0.407117
0.0324877 0.0259259 -0.40699
-0.132528 0.0261514 -0.412849
0.17625 0.0285536 -0.398746
0.167278 0.0282434 -0.407847
0.145528 0.0280828 -0.413866
0.121548 0.0280794 -0.415793
0.100282 0.0282011 -0.414118
0.0760476 0.0285186 -0.407357
0.0651055 0.0286564 -0.404455
0.0210607 0.0288863 -0.401588
0.0103074 0.0288115 -0.404439
0.00226314 0.0287608 -0.40643
-0.0476118 0.028357 -0.421197
-0.058067 0.0282988 -0.423574
-0.0686883 0.0282781 -0.424949
-0.0793742 0.0282707 -0.425966
-0.0984073 0.0283098 -0.426361
-0.109551 0.0283668 -0.425668
-0.118372 0.0284689 -0.423571
-0.144984 0.0294335 -0.399442
-0.156212 0.0297781 -0.390953
0.0868702 0.0312222 -0.406839
0.0703734 0.0316551 -0.397379
0.0618191 0.0320262 -0.388842
0.0584164 0.0326723 -0.373102
0.049889 0.032703 -0.372994
0.0413327 0.0327424 -0.372672
0.0298659 0.0328093 -0.371891
0.021202 0.0328755 -0.370915
0.0124144 0.0329794 -0.369012
0.0089205 0.0321032 -0.390981
-0.00909387 0.0316414 -0.403796
-0.0195299 0.0314904 -0.408333
-0.144812 0.0318353 -0.40937
-0.164723 0.0329844 -0.382434
0.156501 0.0335928 -0.40936
0.134896 0.0334502 -0.414262
0.110973 0.0335563 -0.413673
0.0949817 0.0339287 -0.406411
0.0812829 0.0346302 -0.391475
0.0782329 0.0354905 -0.372106
0.0697562 0.0354778 -0.373045
0.000348456 0.0361044 -0.364075
-0.00913905 0.0364184 -0.357645
-0.0156592 0.0366664 -0.352493
-0.0134114 0.0349242 -0.392016
-0.0180159 0.0346168 -0.399374
-0.0281333 0.0343508 -0.406207
-0.0382799 0.0341377 -0.411839
-0.0878671 0.0337404 -0.424683
-0.129711 0.0339745 -0.422549
0.165336 0.0366728 -0.400403
0.103073 0.0365881 -0.406951
0.0923042 0.037106 -0.396849
0.0895454 0.038311 -0.371637
-0.0287672 0.0410999 -0.321847
-0.0338969 0.0407926 -0.328722
-0.0301302 0.0377249 -0.393154
-0.0492884 0.0369025 -0.411969
-0.0594691 0.0367282 -0.416423
-0.138906 0.0368651 -0.41961
-0.154484 0.0375869 -0.405574
-0.162291 0.0383514 -0.390042
-0.174551 0.0393319 -0.370293
0.145821 0.0389867 -0.409803
0.127068 0.0389806 -0.411359
0.0980239 0.0411417 -0.371129
-0.0186799 0.0425718 -0.351964
-0.0444318 0.0433302 -0.339035
-0.0436761 0.0404074 -0.396389
-0.0678418 0.0395097 -0.415869
-0.0780667 0.039362 -0.419552
-0.0991491 0.0392483 -0.423397
-0.10991 0.0392436 -0.424312
-0.11804 0.0392517 -0.424775
-0.149014 0.039921 -0.413997
0.15465 0.0421956 -0.39957
0.116554 0.041982 -0.406408
0.106047 0.0427491 -0.393117
0.0810645 0.0439911 -0.372204
0.0697621 0.0439799 -0.373276
0.0612663 0.044006 -0.373445
0.0499115 0.0440534 -0.373443
0.0413691 0.0440981 -0.373274
0.0299375 0.0441688 -0.372849
0.0213053 0.044244 -0.372127
0.00962737 0.0444123 -0.369928
0.000574462 0.0446568 -0.366127
-0.00884216 0.0450239 -0.360102
-0.0526274 0.0460818 -0.344012
-0.0642001 0.0460006 -0.346388
-0.0572676 0.0431102 -0.398969
-0.170092 0.0443984 -0.383926
0.146439 0.0448571 -0.401248
0.135553 0.0448036 -0.403004
0.114158 0.0452611 -0.396742
0.112176 0.0468621 -0.369258
-0.0285596 0.0501455 -0.323344
-0.0362664 0.0496065 -0.333238
-0.0736318 0.0491374 -0.344192
-0.0682921 0.0458751 -0.400096
-0.0796593 0.0452151 -0.412357
-0.0897682 0.0450128 -0.416622
-0.129489 0.044801 -0.423314
-0.138267 0.0449317 -0.42173
-0.162717 0.0459237 -0.406477
-0.18018 0.0480413 -0.37126
0.147263 0.0507158 -0.350079
0.141034 0.050265 -0.357893
0.136262 0.0482619 -0.390859
0.12529 0.0482832 -0.391351
0.123578 0.0498317 -0.36628
0.10085 0.0496548 -0.370897
0.0923723 0.0496685 -0.371321
-0.0834089 0.0523804 -0.340627
-0.0775631 0.0489363 -0.396233
-0.0981877 0.0478088 -0.41616
-0.108481 0.0476669 -0.419255
-0.118787 0.0475426 -0.422067
-0.148156 0.0480077 -0.416744
0.115023 0.0525809 -0.368447
0.0810512 0.052582 -0.371028
0.0697311 0.0525715 -0.372056
0.0612224 0.052603 -0.372222
0.0498512 0.0526584 -0.372237
0.0413022 0.0527053 -0.372169
0.0298766 0.0527708 -0.372034
0.0212684 0.0528357 -0.371694
0.00961929 0.0530135 -0.369847
0.000708789 0.0532202 -0.367346
-0.00854368 0.0535763 -0.362572
-0.0181191 0.054036 -0.356227
-0.044387 0.055265 -0.339315
-0.0526094 0.0549939 -0.344117
-0.0642195 0.0549109 -0.346283
-0.0944717 0.0560162 -0.331579
-0.103322 0.0568441 -0.31951
-0.0879231 0.0515067 -0.400503
-0.0284883 0.0592273 -0.323858
-0.0361996 0.0585948 -0.333685
-0.0735809 0.0580534 -0.344451
-0.0833058 0.0583321 -0.341125
-0.108303 0.060502 -0.311344
-0.118833 0.0627345 -0.279541
-0.117034 0.0612556 -0.301003
-0.0984645 0.0541327 -0.403619
-0.127726 0.0531765 -0.419823
-0.139509 0.0533899 -0.417607
-0.157961 0.0538432 -0.412398
-0.169461 0.0545254 -0.403313
-0.175074 0.0551129 -0.395161
0.146924 0.0590571 -0.355008
0.135113 0.058622 -0.361956
0.126438 0.0584127 -0.365527
0.106554 0.0583507 -0.367908
0.0952161 0.0583805 -0.368362
-0.102739 0.0627995 -0.322104
-0.120534 0.0664882 -0.272217
-0.116187 0.0631799 -0.317847
-0.113011 0.0612962 -0.343776
-0.112731 0.0603277 -0.35721
-0.109502 0.0569022 -0.404554
-0.180713 0.0585495 -0.387113
-0.0177922 0.0626091 -0.358712
-0.0443665 0.064217 -0.339443
-0.0525915 0.0639038 -0.344222
-0.0642567 0.0638307 -0.346082
-0.0941946 0.0650022 -0.332852
-0.119732 0.0684174 -0.289563
-0.117555 0.0667011 -0.312134
-0.115392 0.0650393 -0.333981
-0.115843 0.0624371 -0.368488
-0.112152 0.06047 -0.394264
-0.11886 0.0599833 -0.401224
-0.122501 0.0594476 -0.408599
-0.148689 0.0591127 -0.415037
0.115142 0.064255 -0.364575
0.0866901 0.0643734 -0.365251
0.0752924 0.0643684 -0.366186
0.0667397 0.0643798 -0.366695
0.0553067 0.0644405 -0.366801
0.0467135 0.0644925 -0.3668
0.0352431 0.0645517 -0.366928
0.0266232 0.0645995 -0.366982
0.01514 0.0646376 -0.367378
0.00644632 0.0647221 -0.366973
-0.00527974 0.0649025 -0.365586
-0.0284523 0.0683185 -0.324117
-0.0361736 0.0675955 -0.333859
-0.119353 0.0646396 -0.377637
-0.124216 0.0635366 -0.391971
-0.133064 0.0620864 -0.411004
-0.1656 0.0626503 -0.406354
-0.173418 0.0631947 -0.400061
0.149789 0.0676941 -0.354855
-0.0735303 0.0699403 -0.344709
-0.083229 0.0702666 -0.341496
-0.114644 0.0740882 -0.297581
-0.12359 0.0761561 -0.273203
-0.117095 0.0696375 -0.351709
-0.117572 0.068818 -0.361678
-0.117971 0.0679955 -0.371677
-0.127899 0.065775 -0.399348
-0.185727 0.0676495 -0.381052
0.140869 0.0701429 -0.360558
0.132322 0.070156 -0.361059
0.106723 0.0704558 -0.359531
0.0952683 0.0705 -0.359892
-0.044302 0.0731425 -0.339846
-0.0526025 0.0728262 -0.344158
-0.064294 0.0727549 -0.345881
-0.0939184 0.0739614 -0.33412
-0.101746 0.0746669 -0.326517
-0.126764 0.0805756 -0.259742
-0.122851 0.0779457 -0.290015
-0.120824 0.0760727 -0.311634
-0.119736 0.0745875 -0.328816
-0.139398 0.0678525 -0.408614
-0.149995 0.0677295 -0.410854
-0.179643 0.0696974 -0.390244
0.0751303 0.0737432 -0.357349
0.0664947 0.0737252 -0.35821
0.0549507 0.0737774 -0.35851
0.046272 0.0738334 -0.358548
0.0347283 0.0738437 -0.359316
0.0260632 0.0738574 -0.359825
0.0174789 0.073786 -0.361279
0.00598818 0.0737529 -0.362528
-0.00271112 0.073798 -0.362689
-0.0143802 0.073896 -0.362487
-0.0240027 0.0745245 -0.356203
-0.133039 0.0862897 -0.233134
-0.127428 0.0828698 -0.270902
-0.123658 0.080241 -0.299975
-0.122102 0.0785069 -0.319224
-0.122101 0.0732189 -0.378286
-0.0069991 0.111304 0.00898504
-0.00878176 0.108669 -0.0194758
-0.0308958 0.08008 -0.328432
-0.0735358 0.0788714 -0.344681
-0.0832427 0.079243 -0.34143
-0.113559 0.0831038 -0.302253
-0.140689 0.0927463 -0.200694
-0.123132 0.0785765 -0.351644
-0.12347 0.0776266 -0.361878
-0.127904 0.0751337 -0.38901
-0.136585 0.0742772 -0.398879
-0.157921 0.0739793 -0.403712
-0.168713 0.0746862 -0.39694
-0.00829557 0.117045 0.0248393
-0.00949591 0.113583 -0.0111053
-0.0117912 0.111594 -0.0318861
-0.0144904 0.110181 -0.0467258
-0.0174676 0.109153 -0.0575935
-0.0239986 0.107854 -0.071551
-0.00927458 0.090843 -0.246605
-0.0103455 0.0888814 -0.267003
-0.0118707 0.0874306 -0.282146
-0.0139262 0.0865075 -0.291863
-0.0939846 0.0830478 -0.333816
-0.101614 0.0837521 -0.327105
-0.146954 0.0988575 -0.174129
-0.139904 0.0931074 -0.233141
-0.133444 0.0891867 -0.273253
-0.126983 0.0830135 -0.336694
-0.126635 0.0795759 -0.37227
-0.142573 0.0772144 -0.397947
-0.174892 0.0785029 -0.387073
-0.189234 0.0810122 -0.362182
-0.0106251 0.119047 0.00213015
-0.0163338 0.0890468 -0.298107
-0.0210885 0.0878864 -0.310066
-0.0259673 0.0869404 -0.319894
-0.0388754 0.0854287 -0.335988
-0.049901 0.0848733 -0.342381
-0.0585358 0.0847229 -0.344544
-0.151474 0.101345 -0.18554
-0.145155 0.0972697 -0.225782
-0.140078 0.0938165 -0.259903
-0.133895 0.0900162 -0.297408
-0.132382 0.0881707 -0.315736
-0.131046 0.0819682 -0.377618
-0.138614 0.0805976 -0.391893
-0.155018 0.0804346 -0.394777
-0.178132 0.082352 -0.377382
-0.0119542 0.124848 0.0177079
-0.0130621 0.121201 -0.0175842
-0.0155029 0.119337 -0.0357684
-0.0180011 0.117672 -0.0520334
-0.0109105 0.0990521 -0.23126
-0.0116376 0.0965706 -0.255274
-0.0120989 0.0939988 -0.280139
-0.0140489 0.0929084 -0.290816
-0.0309957 0.0892192 -0.327729
-0.070378 0.0876947 -0.345459
-0.0800669 0.0881118 -0.342173
-0.112153 0.0918733 -0.30831
-0.142622 0.0954629 -0.275984
-0.137888 0.0922451 -0.306688
-0.136505 0.0904505 -0.323909
-0.135874 0.089 -0.337865
-0.135899 0.0878425 -0.349042
-0.135325 0.0864851 -0.362103
-0.16055 0.0841703 -0.386381
-0.0213816 0.121018 -0.058293
-0.0278278 0.119542 -0.0725741
-0.026028 0.09309 -0.319445
-0.101517 0.0928419 -0.327534
-0.106467 0.0937562 -0.319375
-0.142724 0.0888971 -0.367522
-0.148127 0.0876806 -0.379295
-0.166279 0.0890116 -0.368253
-0.0163885 0.133586 0.01985
-0.017112 0.129367 -0.0183556
-0.0127287 0.104222 -0.24537
-0.013271 0.101521 -0.269832
-0.0188275 0.0978651 -0.303316
-0.0389674 0.0944885 -0.335386
-0.0499973 0.0938718 -0.341806
-0.0586044 0.0936843 -0.344159
-0.0903377 0.094792 -0.33657
-0.156196 0.0971215 -0.320543
-0.154608 0.0953079 -0.33682
-0.155852 0.0946274 -0.343068
-0.0198298 0.136854 0.0110559
-0.0222154 0.129917 -0.0499132
-0.0251333 0.12873 -0.0605407
-0.028189 0.12777 -0.0691866
-0.0138549 0.108707 -0.235147
-0.0147532 0.106245 -0.256798
-0.0148558 0.103149 -0.283936
-0.0214334 0.137866 -0.016263
-0.0238945 0.135915 -0.033039
-0.0169933 0.105317 -0.292649
-0.0238443 0.10302 -0.312702
-0.0675329 0.0996587 -0.344619
-0.0801979 0.100136 -0.341529
-0.1075 0.103519 -0.314856
-0.0249495 0.146452 0.0203803
-0.0249163 0.141225 -0.0227699
-0.0263414 0.138083 -0.0488182
-0.0163282 0.111031 -0.271382
-0.0311991 0.104516 -0.3263
-0.0363742 0.103811 -0.332517
-0.0444865 0.103138 -0.338693
-0.0528869 0.102755 -0.342494
-0.0904447 0.103881 -0.33607
-0.0979895 0.104742 -0.329542
-0.029282 0.140853 -0.0589343
-0.032109 0.139569 -0.0694485
-0.0182838 0.116346 -0.254707
-0.0217754 0.110148 -0.304699
-0.0330164 0.154454 0.0159525
-0.0320658 0.148194 -0.0328221
-0.0191643 0.120594 -0.2472
-0.0186542 0.116526 -0.278906
-0.0198872 0.114501 -0.294798
-0.0646624 0.108648 -0.343892
-0.0738181 0.108821 -0.343242
-0.0332489 0.153727 -0.0217245
-0.0390452 0.146418 -0.0776843
-0.0213096 0.122638 -0.256931
-0.0267038 0.11512 -0.314442
-0.0314543 0.113843 -0.324506
-0.0392554 0.112737 -0.333504
-0.0870499 0.112663 -0.337721
-0.0946028 0.113627 -0.330977
-0.103978 0.115615 -0.316597
-0.0393497 0.15535 -0.0405124
-0.022799 0.12759 -0.244606
-0.0246027 0.119183 -0.306936
-0.0502321 0.114924 -0.340403
-0.0448533 0.161156 -0.0281618
-0.0430686 0.154382 -0.0768701
-0.0231851 0.124102 -0.293683
-0.0588498 0.117671 -0.342781
-0.0677008 0.117633 -0.34373
-0.0244043 0.128612 -0.284156
-0.0294642 0.124022 -0.31682
-0.0341719 0.122649 -0.326837
-0.0912842 0.122514 -0.332149
-0.101012 0.124932 -0.315888
-0.0277046 0.12849 -0.307035
-0.0421173 0.124638 -0.334579
-0.0476095 0.124195 -0.338034
-0.0806605 0.124386 -0.339253
-0.028784 0.136357 -0.275148
-0.0296563 0.136912 -0.292589
-0.0326593 0.133366 -0.316035
-0.0589803 0.1297 -0.342048
-0.0677811 0.129611 -0.343305
-0.0926981 0.132615 -0.325546
-0.0314415 0.138522 -0.302562
-0.0373136 0.134895 -0.326229
-0.0424023 0.133935 -0.332759
-0.0478499 0.133406 -0.336565
-0.080754 0.133451 -0.338793
-0.0358583 0.142728 -0.315273
-0.0590013 0.138665 -0.34193
-0.0678011 0.138567 -0.343199
-0.0373983 0.147579 -0.304711
-0.0403583 0.144017 -0.326294
-0.0454706 0.143039 -0.332549
-0.0809892 0.142643 -0.337636
-0.0852659 0.143696 -0.331651
-0.0535865 0.148152 -0.3384
-0.064864 0.147537 -0.342804
-0.0743343 0.154026 -0.340609
-0.0564114 0.159954 -0.339523
-0.0648119 0.159405 -0.343085
