ply
format ascii 1.0
comment Created by Open3D
element vertex 931
property double x
property double y
property double z
end_header
-0.161835 -0.251114 -0.299936
-0.17575 -0.249164 -0.292435
-0.154034 -0.232327 -0.299109
-0.174144 -0.230727 -0.294422
-0.166355 -0.212447 -0.299048
-0.154034 -0.211928 -0.299109
-0.179688 -0.210452 -0.284174
0.161506 -0.250788 -0.300465
0.141999 -0.249255 -0.286957
0.146495 -0.250093 -0.266538
-0.164157 -0.192341 -0.299627
0.165713 -0.232288 -0.299918
0.14613 -0.231378 -0.29396
-0.179688 -0.192251 -0.284174
0.146495 -0.230311 -0.266538
0.161506 -0.212416 -0.300465
0.141999 -0.210696 -0.286957
-0.161835 -0.172289 -0.299936
-0.17575 -0.172498 -0.292435
0.146495 -0.21053 -0.266538
0.165713 -0.191054 -0.299918
0.14613 -0.190305 -0.29396
0.146495 -0.190749 -0.266538
-0.159429 -0.152237 -0.300069
-0.17575 -0.152204 -0.292435
0.165713 -0.171811 -0.299918
0.14613 -0.171138 -0.29396
-0.145485 -0.251005 0.267858
-0.174322 -0.247923 0.265851
0.146495 -0.170967 -0.266538
-0.1568 -0.132236 -0.299727
-0.179688 -0.130822 -0.284174
-0.159377 -0.232159 0.260691
-0.177521 -0.232212 0.26964
0.161506 -0.152117 -0.300465
0.161784 -0.251051 0.260318
0.141999 -0.150104 -0.286957
0.175959 -0.249034 0.268025
0.142173 -0.246868 0.271646
0.146495 -0.151186 -0.266538
-0.155174 -0.212418 0.261366
0.167569 -0.233634 0.26169
0.152448 -0.23248 0.261857
-0.180263 -0.208757 0.27569
0.14035 -0.229673 0.278269
-0.154034 -0.112197 -0.299109
-0.174144 -0.111424 -0.294422
0.173324 -0.131712 -0.296028
0.14613 -0.130065 -0.29396
-0.155174 -0.192188 0.261366
0.146495 -0.131405 -0.266538
0.175959 -0.212479 0.268025
0.161784 -0.21034 0.260318
0.14035 -0.211481 0.278269
-0.180263 -0.188489 0.27569
0.161784 -0.192246 0.260318
-0.155174 -0.171958 0.261366
-0.180263 -0.172275 0.27569
0.175959 -0.189631 0.268025
0.14035 -0.188741 0.278269
0.173324 -0.112302 -0.296028
0.14613 -0.110897 -0.29396
-0.15095 -0.0921511 -0.297833
-0.168428 -0.0910318 -0.298188
0.146495 -0.111623 -0.266538
-0.180091 -0.0904848 -0.279074
0.167569 -0.174658 0.26169
0.142173 -0.174393 0.271646
-0.150662 -0.152212 0.26328
-0.170884 -0.151055 0.263219
-0.180263 -0.139847 0.27569
0.165713 -0.0920906 -0.299918
0.14613 -0.0917299 -0.29396
0.161784 -0.151535 0.260318
0.14035 -0.152357 0.278269
0.146495 -0.091842 -0.266538
0.175959 -0.148507 0.268025
-0.150662 -0.131917 0.26328
-0.170884 -0.130914 0.263219
-0.147265 -0.0721018 -0.295309
-0.174144 -0.0709065 -0.294422
0.167569 -0.133829 0.26169
0.142173 -0.133626 0.271646
-0.180263 -0.119579 0.27569
-0.145485 -0.112238 0.267858
0.155077 -0.072446 -0.299613
0.141999 -0.070232 -0.286957
0.146495 -0.0720606 -0.266538
0.175959 -0.111951 0.268025
0.161784 -0.110824 0.260318
0.14035 -0.111426 0.278269
-0.174322 -0.0987662 0.265851
-0.147265 -0.0515013 -0.295309
-0.174144 -0.0506475 -0.294422
-0.145485 -0.0918312 0.267858
0.167569 -0.0929998 0.26169
0.152448 -0.0880264 0.261857
0.14035 -0.0886857 0.278269
-0.174322 -0.0786098 0.265851
0.173324 -0.0512982 -0.296028
0.14613 -0.0506568 -0.29396
0.146495 -0.0522793 -0.266538
-0.145485 -0.0714243 0.267858
0.167569 -0.0748535 0.26169
0.142173 -0.07474 0.271646
-0.174322 -0.0624847 0.265851
-0.147265 -0.0309008 -0.295309
-0.174144 -0.0303885 -0.294422
-0.145485 -0.0510173 0.267858
0.173324 -0.0318881 -0.296028
0.14613 -0.0314894 -0.29396
0.146495 -0.0324979 -0.266538
0.161784 -0.0520196 0.260318
0.14035 -0.0523018 0.278269
0.175959 -0.0479791 0.268025
-0.174322 -0.0423284 0.265851
0.167569 -0.0340243 0.26169
0.142173 -0.0339727 0.271646
-0.145485 -0.0306104 0.267858
-0.154034 -0.0124663 -0.299109
-0.174144 -0.0123805 -0.294422
-0.174322 -0.022172 0.265851
0.173324 -0.0124779 -0.296028
0.14613 -0.0123219 -0.29396
0.146495 -0.00989067 -0.266538
0.175959 -0.0114236 0.268025
0.161784 -0.0113086 0.260318
0.14035 -0.01137 0.278269
-0.145485 -0.0102035 0.267858
-0.174322 -0.00201565 0.265851
0.167569 0.00680484 0.26169
0.142173 0.00679452 0.271646
-0.145485 0.0102035 0.267858
0.173324 0.00970505 -0.296028
0.14613 0.00958371 -0.29396
0.146495 0.00989065 -0.266538
-0.147265 0.0080113 -0.295309
-0.174144 0.00787848 -0.294422
-0.174322 0.0181407 0.265851
0.175959 0.0297013 0.268025
0.161784 0.0294024 0.260318
0.14035 0.0295619 0.278269
-0.145485 0.0306104 0.267858
-0.174322 0.0382971 0.265851
0.173324 0.0291152 -0.296028
0.14613 0.0287512 -0.29396
0.146495 0.029672 -0.266538
0.175959 0.047979 0.268025
0.14035 0.0477538 0.278269
0.161784 0.0520196 0.260318
-0.147265 0.0286118 -0.295309
-0.174144 0.0281375 -0.294422
-0.145485 0.0510173 0.267858
0.167569 0.0657804 0.26169
0.142173 0.0656806 0.271646
-0.174322 0.0584535 0.265851
0.173324 0.0485253 -0.296028
0.14613 0.0479186 -0.29396
0.146495 0.0494533 -0.266538
-0.145485 0.0714243 0.267858
0.175959 0.0891039 0.268025
0.161784 0.0882071 0.260318
0.14035 0.0886856 0.278269
-0.174322 0.0786098 0.265851
-0.147265 0.0492123 -0.295309
-0.174144 0.0483965 -0.294422
-0.145485 0.0877498 0.267858
0.167569 0.10661 0.26169
0.142173 0.106448 0.271646
0.173324 0.0679355 -0.296028
0.141238 0.0676847 -0.283936
-0.174322 0.0987662 0.265851
-0.145485 0.108157 0.267858
0.175959 0.130229 0.268025
0.161784 0.128918 0.260318
0.14035 0.129617 0.278269
-0.147265 0.0675239 -0.295309
-0.180091 0.0675773 -0.279074
-0.174322 0.118923 0.265851
0.141361 0.0878189 -0.276048
-0.145485 0.128564 0.267858
0.173324 0.0901185 -0.296028
0.175959 0.148507 0.268025
0.14035 0.147809 0.278269
0.161784 0.151535 0.260318
-0.174322 0.139079 0.265851
0.167569 0.165585 0.26169
0.142173 0.165334 0.271646
-0.145485 0.148971 0.267858
0.146495 0.108797 -0.266538
-0.147265 0.0881244 -0.295309
-0.179688 0.0875936 -0.284174
0.173324 0.109529 -0.296028
0.14613 0.108159 -0.29396
-0.174322 0.159235 0.265851
0.175959 0.189631 0.268025
0.161784 0.187723 0.260318
0.14035 0.188741 0.278269
-0.145485 0.169378 0.267858
-0.174322 0.179392 0.265851
0.146495 0.128579 -0.266538
0.175959 0.207909 0.268025
0.142173 0.206101 0.271646
0.173324 0.128939 -0.296028
0.144527 0.127521 -0.291877
0.161784 0.21034 0.260318
-0.145485 0.189784 0.267858
0.236591 0.231094 0.332137
0.223437 0.231096 0.338425
-0.147265 0.108725 -0.295309
-0.178607 0.107641 -0.287532
0.240194 0.231094 0.298855
0.218715 0.231094 0.309105
0.162874 0.231095 0.335763
0.239443 0.231095 0.268926
0.218397 0.231094 0.278969
0.201561 0.231094 0.287002
0.151068 0.2311 0.311137
0.0668792 0.231097 0.351292
0.0542537 0.231097 0.357322
-0.174322 0.199548 0.265851
0.238721 0.231095 0.240182
0.222218 0.231095 0.248057
0.201589 0.231095 0.257901
0.180961 0.231094 0.267744
0.161784 0.228434 0.260318
0.14035 0.229673 0.278269
0.0572013 0.231099 0.326833
0.0448177 0.231095 0.332723
0.0241919 0.231097 0.342574
0.00356606 0.231098 0.352425
0.238027 0.231095 0.212555
0.221845 0.231095 0.220277
0.201617 0.231095 0.229929
0.181389 0.231095 0.239582
0.140932 0.231094 0.258884
0.120709 0.231096 0.268548
0.0478927 0.231097 0.303308
0.0317059 0.231095 0.311019
0.011481 0.231097 0.320679
-0.00874737 0.231096 0.330331
-0.0289729 0.231097 0.339991
-0.0491987 0.231099 0.349651
-0.0694248 0.2311 0.359311
-0.145485 0.210191 0.267858
0.146495 0.14836 -0.266538
0.23736 0.231095 0.18598
0.213549 0.231095 0.197342
0.193706 0.231095 0.206811
0.173888 0.231104 0.216325
0.154024 0.231096 0.225755
0.134182 0.231096 0.235225
0.114339 0.231096 0.244693
0.0389386 0.231096 0.280678
0.0191014 0.231099 0.290162
-0.000746429 0.231096 0.299617
-0.0205861 0.231098 0.309094
-0.0404317 0.231096 0.318554
-0.0602721 0.231097 0.32803
-0.0801128 0.231098 0.337506
-0.0999537 0.2311 0.346982
-0.119795 0.231101 0.356458
0.173324 0.148349 -0.296028
0.236718 0.231095 0.160398
0.217246 0.231095 0.16969
0.19388 0.231095 0.18084
0.174429 0.231103 0.19017
0.154938 0.231096 0.199427
0.123785 0.231096 0.214298
0.104313 0.231096 0.223589
0.03032 0.231095 0.258897
0.0108482 0.231095 0.268188
-0.00862363 0.231095 0.27748
-0.0280923 0.231097 0.28678
-0.0475667 0.231095 0.296064
-0.07093 0.231096 0.307223
-0.0904012 0.231097 0.316516
-0.109871 0.231098 0.325815
-0.168282 0.231102 0.353712
0.14613 0.149232 -0.29396
0.239922 0.231096 0.133931
0.220807 0.231096 0.143052
0.201693 0.231095 0.152173
0.178772 0.231102 0.163148
0.159659 0.231103 0.172274
0.140527 0.231096 0.181364
0.121416 0.231097 0.19049
0.102301 0.231096 0.199611
0.0220196 0.231096 0.23792
-0.000917941 0.231095 0.248864
-0.0200324 0.231095 0.257986
-0.0391469 0.231095 0.267107
-0.0582613 0.231095 0.276227
-0.0811974 0.231095 0.287177
-0.100303 0.231101 0.296329
-0.119411 0.231107 0.305479
-0.174322 0.219704 0.265851
-0.172941 0.2311 0.330984
-0.195877 0.231101 0.341938
-0.222636 0.231103 0.354718
0.239257 0.231096 0.110209
0.220487 0.231096 0.119165
0.201716 0.231096 0.128122
0.179206 0.231101 0.138894
0.160443 0.231104 0.147864
0.141657 0.231097 0.156794
0.119132 0.231097 0.167541
0.100361 0.231097 0.176497
0.0815911 0.231096 0.185454
0.0140182 0.231096 0.217698
-0.0160141 0.231095 0.232029
-0.0460461 0.231095 0.246359
-0.0760782 0.231095 0.26069
-0.10611 0.231094 0.27502
-0.136133 0.231102 0.28939
-0.177432 0.231098 0.309076
-0.1962 0.231099 0.31804
-0.22623 0.231102 0.332388
0.238615 0.231096 0.0873261
0.220177 0.231096 0.0961244
0.201739 0.231096 0.104923
0.179624 0.2311 0.115498
0.161195 0.231103 0.124313
0.139054 0.231097 0.134845
0.120616 0.231097 0.143644
0.102178 0.231097 0.152442
0.0800521 0.231097 0.163
-0.147265 0.129325 -0.295309
-0.177334 0.127635 -0.290376
0.00630018 0.231096 0.198192
-0.0158253 0.231096 0.20875
-0.0453261 0.231095 0.222827
-0.0748266 0.231095 0.236904
-0.0858893 0.231095 0.242183
-0.11539 0.231095 0.256259
-0.145485 0.230598 0.267858
-0.181758 0.231101 0.28797
-0.200198 0.231099 0.296759
-0.218634 0.231101 0.305569
0.237996 0.231096 0.0652394
0.219878 0.231096 0.0738849
0.201761 0.231096 0.0825301
0.180028 0.231099 0.092918
0.161921 0.231103 0.101582
0.140166 0.231097 0.111933
0.122049 0.231097 0.120578
0.100308 0.231097 0.130952
0.0821904 0.231097 0.139597
-0.00114951 0.231096 0.179365
-0.0192668 0.231096 0.18801
-0.0410075 0.231096 0.198384
-0.069995 0.231095 0.212216
-0.0881123 0.231095 0.220861
-0.109853 0.231095 0.231236
-0.12797 0.231095 0.239881
-0.149708 0.231096 0.250264
-0.189564 0.231098 0.269295
-0.207679 0.2311 0.277951
-0.229418 0.231103 0.288339
0.237397 0.231097 0.0439079
0.216028 0.231096 0.0541052
0.19466 0.231097 0.0643036
0.155484 0.231097 0.0830002
0.144807 0.2311 0.0881125
0.116309 0.231097 0.101699
0.0949401 0.231097 0.111896
0.0557631 0.231097 0.130591
-0.00834447 0.231096 0.161181
-0.0297136 0.231096 0.171378
-0.0475212 0.231096 0.179875
-0.0688902 0.231095 0.190072
-0.0902592 0.231095 0.200269
-0.108066 0.231096 0.208769
-0.129435 0.231095 0.218964
-0.150805 0.231094 0.229158
-0.168606 0.2311 0.237683
-0.189976 0.231099 0.247875
-0.207782 0.231101 0.256383
-0.229149 0.231103 0.266594
-0.241141 0.238779 0.313604
0.146495 0.168141 -0.266538
0.240321 0.231097 0.0216224
0.219311 0.231097 0.0316482
0.201802 0.231097 0.0400032
0.17031 0.231105 0.0550785
0.142284 0.2311 0.0684273
0.121268 0.231098 0.0784428
0.100258 0.231097 0.0884685
0.0722444 0.231097 0.101836
0.0512342 0.231097 0.111861
-0.0152975 0.231096 0.143609
-0.0538158 0.231096 0.161989
-0.0748258 0.231096 0.172014
-0.0853308 0.231096 0.177027
-0.113343 0.231096 0.190396
-0.134354 0.231095 0.20042
-0.155352 0.231104 0.210491
-0.183373 0.231098 0.223829
-0.20438 0.2311 0.233867
-0.225388 0.231103 0.243905
-0.241173 0.247858 0.34005
0.173324 0.167759 -0.296028
0.239704 0.231097 0.00171697
0.222485 0.231097 0.00993377
0.201823 0.231097 0.0197945
0.181162 0.231098 0.0296586
0.160515 0.231104 0.0395431
0.139838 0.231098 0.0493817
0.119175 0.231098 0.0592417
0.101956 0.231098 0.0674583
0.0812932 0.231097 0.0773182
0.0502989 0.231097 0.092108
-0.0392399 0.231096 0.134834
-0.0599025 0.231096 0.144694
-0.0805637 0.231097 0.154558
-0.0977831 0.231096 0.162773
-0.118446 0.231096 0.172631
-0.139109 0.231095 0.182489
-0.159766 0.2311 0.192373
-0.180426 0.231103 0.202245
-0.197648 0.2311 0.21045
-0.218308 0.231102 0.220322
0.14613 0.1684 -0.29396
0.239107 0.231097 -0.0175412
0.222168 0.231097 -0.00945806
0.201842 0.231097 0.00024277
0.181518 0.231098 0.00994647
0.161205 0.231103 0.0196683
0.140861 0.231096 0.0293415
0.120538 0.231098 0.0390483
0.100211 0.231098 0.0487479
0.0798844 0.231098 0.0584476
0.0595575 0.231097 0.0681472
0.0324549 0.231097 0.08108
-0.0285255 0.231097 0.110178
-0.0590157 0.231096 0.124728
-0.0793408 0.231097 0.134432
-0.0996681 0.231096 0.144129
-0.119995 0.231096 0.153827
-0.140322 0.231095 0.163525
-0.160644 0.231099 0.173244
-0.177582 0.2311 0.181333
-0.197909 0.2311 0.191031
-0.218233 0.231102 0.200743
-0.23856 0.231103 0.210445
0.238529 0.231097 -0.0361832
0.221861 0.231097 -0.0282294
0.201861 0.231097 -0.0186834
0.181862 0.231098 -0.00913501
0.161873 0.231103 0.000429571
0.14186 0.231099 0.00995702
0.121858 0.231098 0.0195011
0.101856 0.231098 0.0290455
0.0818542 0.231098 0.03859
0.0618525 0.231098 0.0481343
0.0418507 0.231097 0.0576788
-0.034822 0.231097 0.0942655
-0.0548213 0.231098 0.103816
-0.224828 0.231103 0.184975
-0.24111 0.250063 0.288204
0.221564 0.231097 -0.0464094
0.201879 0.231098 -0.0370135
0.182195 0.231098 -0.0276155
0.159235 0.231101 -0.0166432
0.139541 0.231099 -0.00725895
0.119854 0.231098 0.00213516
0.100168 0.231098 0.0115293
0.0804808 0.231098 0.0209234
0.0607941 0.231098 0.0303177
0.0411074 0.231098 0.0397117
0.0214207 0.231097 0.0491058
-0.0507611 0.231098 0.0835569
-0.0704483 0.231098 0.0929496
-0.0901354 0.231097 0.102342
-0.109822 0.231096 0.111735
-0.129509 0.231096 0.121127
-0.149194 0.231097 0.130527
-0.16888 0.231098 0.139925
-0.188564 0.231099 0.149326
-0.208249 0.231101 0.158732
-0.237778 0.231102 0.172828
-0.24108 0.24914 0.263787
0.240658 0.231098 -0.0732744
0.140525 0.231099 -0.0254831
0.121143 0.231099 -0.0162337
0.101762 0.231098 -0.00698513
0.0823804 0.231098 0.00226337
0.0597685 0.231098 0.0130533
0.040387 0.231098 0.0223018
0.0210055 0.231098 0.0315502
-0.147265 0.147637 -0.295309
-0.180091 0.147754 -0.279074
-0.0468268 0.231098 0.0639261
-0.0855907 0.231097 0.0824202
-0.153419 0.231102 0.114812
-0.172806 0.231096 0.124038
-0.185724 0.231099 0.130216
-0.205104 0.231101 0.139475
-0.234175 0.231102 0.153354
0.240083 0.231098 -0.0902117
0.220997 0.231098 -0.0811042
0.201913 0.231098 -0.0719945
0.179657 0.231102 -0.0613557
0.160576 0.231104 -0.0522405
0.0619552 0.231098 -0.00520182
0.0206031 0.231098 0.0145307
-0.0652798 0.231098 0.0555182
-0.112995 0.231097 0.0782828
-0.135261 0.231096 0.0889063
-0.205235 0.231101 0.122326
0.146495 0.187923 -0.266538
0.239525 0.231098 -0.10664
0.220727 0.231098 -0.0976692
0.20193 0.231098 -0.0886961
0.180005 0.231101 -0.078221
0.161213 0.231103 -0.0692407
0.142409 0.231101 -0.0602781
0.120472 0.231099 -0.0498192
0.101673 0.231099 -0.0408488
0.0797417 0.231098 -0.0303832
0.0421444 0.231098 -0.0124424
0.00141409 0.231098 0.00699329
-0.0581124 0.231098 0.0354045
-0.089444 0.231098 0.0503529
-0.108243 0.231097 0.0593218
-0.130175 0.231096 0.0697855
-0.158368 0.2311 0.0832578
-0.180297 0.231102 0.0937319
-0.199097 0.231101 0.102699
-0.230426 0.231102 0.117657
-0.241024 0.251174 0.217689
0.161832 0.231103 -0.085737
0.140215 0.231099 -0.0754396
0.121695 0.231099 -0.066602
0.100088 0.231099 -0.0562915
0.0815677 0.231099 -0.047454
0.0599608 0.231098 -0.0371435
0.0414407 0.231098 -0.0283061
0.0198339 0.231098 -0.0179956
0.00131819 0.2311 -0.00914913
-0.0635043 0.231098 0.0217777
-0.0851116 0.231098 0.0320866
-0.125239 0.231097 0.0512314
-0.153013 0.231102 0.0645089
-0.224005 0.231103 0.0983931
-0.240997 0.250281 0.195906
0.173324 0.189942 -0.296028
0.14613 0.187567 -0.29396
0.238459 0.231098 -0.138057
0.220209 0.231098 -0.129348
0.201962 0.231099 -0.120636
0.180673 0.2311 -0.110472
-0.077864 0.231098 0.0129022
-0.108281 0.231097 0.0274141
-0.169112 0.231097 0.0564432
-0.1904 0.2311 0.0666172
-0.208647 0.231102 0.0753351
-0.239064 0.231102 0.0898479
-0.240971 0.24942 0.174907
0.201977 0.231099 -0.135917
0.180994 0.2311 -0.1259
0.160016 0.231102 -0.115876
0.142023 0.2311 -0.107301
0.121037 0.231099 -0.0972884
0.100052 0.231099 -0.0872746
0.0820643 0.231099 -0.0786913
0.0610792 0.231099 -0.0686775
0.040094 0.231098 -0.0586638
0.0221121 0.231101 -0.0500708
0.00112617 0.2311 -0.0400583
-0.0198597 0.2311 -0.0300459
-0.103802 0.231098 0.0100035
-0.133781 0.231097 0.0243065
-0.154759 0.231103 0.0343443
-0.172752 0.231097 0.042906
-0.193733 0.231101 0.0529354
-0.214716 0.231103 0.0629587
-0.232703 0.231102 0.0715387
-0.240947 0.24859 0.15465
0.234497 0.231098 -0.166281
0.024678 0.231101 -0.0661358
-0.0787624 0.231098 -0.0167837
-0.0994502 0.231098 -0.0069133
-0.120138 0.231097 0.00295693
0.204919 0.231099 -0.166588
0.175785 0.231101 -0.152676
0.15538 0.231098 -0.14295
0.134986 0.2311 -0.133211
0.114587 0.2311 -0.123477
0.0854471 0.231099 -0.109572
0.0650489 0.231099 -0.099838
0.0446483 0.231098 -0.0901085
-0.00488338 0.231101 -0.0664575
-0.0252821 0.2311 -0.056725
-0.144752 0.231102 0.000299752
-0.165152 0.231101 0.0100295
-0.194291 0.231101 0.0239358
-0.214688 0.231103 0.0336764
-0.235087 0.231101 0.0434067
0.216387 0.231099 -0.18609
0.184779 0.2311 -0.171
0.164668 0.231102 -0.161393
0.135924 0.2311 -0.147686
0.0468412 0.231102 -0.105164
0.0152277 0.231101 -0.0900804
-0.088233 0.231098 -0.0407183
-0.10835 0.231098 -0.0311202
-0.128467 0.231097 -0.0215222
-0.160076 0.231099 -0.00643069
-0.2409 0.250469 0.11621
0.146495 0.207704 -0.266538
0.202033 0.2311 -0.192883
0.119828 0.2311 -0.153651
0.0999847 0.2311 -0.144182
0.0801416 0.231099 -0.134714
0.0603055 0.231103 -0.125234
0.0319569 0.231102 -0.111708
0.000773489 0.231101 -0.0968302
-0.0190703 0.2311 -0.0873625
-0.038914 0.2311 -0.0778949
-0.147265 0.168238 -0.295309
-0.180091 0.16837 -0.279074
-0.183482 0.2311 -0.00890183
-0.203323 0.231102 0.000576556
-0.223166 0.231102 0.0100446
-0.240877 0.249663 0.0979581
0.182472 0.231101 -0.196824
0.160103 0.231102 -0.186141
0.140521 0.2311 -0.176806
0.120944 0.2311 -0.167464
0.101368 0.2311 -0.158122
0.0817907 0.2311 -0.14878
0.0398464 0.231102 -0.128752
0.0118784 0.231101 -0.115408
-0.097195 0.231098 -0.0633678
-0.125162 0.231098 -0.0500244
-0.153123 0.231102 -0.0366624
-0.172704 0.231098 -0.0273349
-0.195073 0.231101 -0.0166443
-0.240856 0.248883 0.0803085
0.24069 0.231099 -0.237543
0.173324 0.209352 -0.296028
0.141999 0.207942 -0.286957
0.0613259 0.231103 -0.151928
-0.00766802 0.231101 -0.11901
-0.0297459 0.2311 -0.108477
-0.0490639 0.2311 -0.0992597
-0.118056 0.231098 -0.0663425
-0.220156 0.231102 -0.0176007
-0.239474 0.231101 -0.0083856
-0.240835 0.248129 0.0632318
0.183009 0.231101 -0.222597
0.155768 0.231099 -0.209606
0.144879 0.231101 -0.204401
0.114919 0.2311 -0.190106
0.0849678 0.231104 -0.175798
0.0304936 0.231102 -0.149808
0.0114279 0.231102 -0.140711
-0.143814 0.231101 -0.0666257
-0.16288 0.2311 -0.057532
-0.179215 0.231106 -0.0497131
-0.198284 0.231102 -0.0406286
-0.240776 0.239738 0.015174
0.239718 0.231099 -0.261933
0.2209 0.2311 -0.252951
0.0649824 0.231103 -0.178528
-0.0129853 0.231101 -0.141328
-0.0344934 0.2311 -0.131066
-0.0533129 0.2311 -0.122087
-0.109771 0.231098 -0.0951502
-0.12859 0.231098 -0.0861712
-0.222679 0.231101 -0.0412542
0.167595 0.231102 -0.239457
0.151671 0.231102 -0.231856
0.130434 0.231101 -0.221727
0.111855 0.2311 -0.212861
0.0906296 0.231104 -0.202718
0.0401976 0.231103 -0.178656
0.0216175 0.231102 -0.169791
0.000383198 0.231102 -0.159659
-0.0288137 0.231101 -0.145729
-0.0500478 0.2311 -0.135598
-0.153557 0.231101 -0.086195
-0.174792 0.2311 -0.0760657
-0.193369 0.231102 -0.0671941
-0.214602 0.231102 -0.0570605
0.238794 0.2311 -0.285097
0.22045 0.2311 -0.276341
0.0920433 0.231104 -0.215044
0.0710757 0.231104 -0.20504
0.0501083 0.231103 -0.195036
-0.0678316 0.2311 -0.138764
-0.117627 0.231098 -0.115006
-0.138594 0.231098 -0.105002
-0.232937 0.231101 -0.0599669
-0.240723 0.238082 -0.0286177
0.202118 0.231101 -0.278951
0.150359 0.231103 -0.254243
0.132237 0.231101 -0.245602
0.111541 0.231105 -0.235709
0.0313008 0.231103 -0.197425
0.0105941 0.231102 -0.187545
-0.00752431 0.231101 -0.178901
-0.0282309 0.231101 -0.169021
-0.0489374 0.2311 -0.159142
-0.157643 0.231099 -0.107269
-0.178341 0.231105 -0.097366
-0.19905 0.231102 -0.0874951
-0.219757 0.231101 -0.0776173
-0.240758 0.248428 0.000131726
0.240472 0.2311 -0.308343
0.220022 0.2311 -0.298582
0.146495 0.230311 -0.266538
0.0870966 0.231104 -0.23513
0.0666436 0.231104 -0.225372
0.0461907 0.231103 -0.215613
-0.068855 0.2311 -0.160722
-0.14299 0.231101 -0.125339
-0.237579 0.2311 -0.0802001
0.20214 0.231101 -0.30086
0.181947 0.231105 -0.291208
0.106181 0.231105 -0.255051
0.025361 0.231103 -0.21649
0.00515622 0.231102 -0.20685
-0.00999731 0.231102 -0.199619
-0.0276764 0.231101 -0.191184
-0.0478809 0.231101 -0.181544
-0.147265 0.188838 -0.295309
-0.179688 0.187701 -0.284174
-0.159003 0.231099 -0.128521
-0.179199 0.231106 -0.118856
-0.199406 0.231102 -0.109225
-0.219611 0.231101 -0.0995871
0.239574 0.2311 -0.329286
0.22211 0.231101 -0.320949
0.161506 0.228861 -0.300465
0.132295 0.231106 -0.278067
0.0923685 0.231105 -0.259017
0.0724053 0.231104 -0.249492
0.0524423 0.231103 -0.239967
-0.0698294 0.2311 -0.181628
-0.139697 0.231098 -0.148292
-0.239503 0.2311 -0.100654
0.20215 0.231098 -0.32174
0.182431 0.2311 -0.312322
0.110939 0.231105 -0.278183
0.0320316 0.231103 -0.240534
0.012305 0.231102 -0.231122
-0.00988737 0.231102 -0.220534
-0.0296139 0.231101 -0.211122
-0.0493401 0.231101 -0.20171
-0.0887926 0.2311 -0.182886
-0.157832 0.231099 -0.149941
-0.177552 0.231104 -0.140512
-0.199745 0.231102 -0.129927
-0.219471 0.231101 -0.120517
0.241156 0.2311 -0.350411
0.221658 0.231099 -0.34111
0.141237 0.231096 -0.30274
0.0900826 0.231105 -0.278297
0.0705863 0.231104 -0.268995
0.0510903 0.231104 -0.259693
-0.0683212 0.2311 -0.202718
-0.138992 0.231098 -0.168999
-0.2389 0.2311 -0.121314
-0.24069 0.248692 -0.0557147
0.202173 0.231099 -0.341644
0.180494 0.231098 -0.3313
0.161223 0.231098 -0.322105
0.120274 0.231097 -0.302567
0.0311672 0.231103 -0.260019
0.0118967 0.231103 -0.250825
-0.00978264 0.231102 -0.240481
-0.0290529 0.231101 -0.231287
-0.0483232 0.231101 -0.222092
-0.0892722 0.2311 -0.202554
-0.159125 0.231098 -0.169224
-0.178386 0.231105 -0.160006
-0.197659 0.231102 -0.15082
-0.219339 0.231101 -0.140479
0.221234 0.2311 -0.360344
0.102171 0.231097 -0.303534
0.0712281 0.231103 -0.288748
0.0521815 0.231104 -0.279654
-0.0787882 0.2311 -0.217164
-0.145457 0.231102 -0.185339
-0.238324 0.2311 -0.141029
0.202194 0.2311 -0.360649
0.181007 0.2311 -0.350536
0.162171 0.2311 -0.341549
0.140982 0.231099 -0.331439
0.0303419 0.231103 -0.278624
0.0115068 0.231103 -0.269637
-0.00968251 0.231102 -0.259527
-0.0285174 0.231102 -0.25054
-0.0497065 0.231101 -0.24043
-0.179185 0.231105 -0.178624
-0.198023 0.231102 -0.169646
-0.219212 0.231101 -0.159538
-0.240659 0.250227 -0.0812978
0.120724 0.2311 -0.330951
0.1021 0.231099 -0.322065
0.071835 0.231098 -0.307625
0.0508827 0.231098 -0.297628
-0.0678352 0.231101 -0.240961
-0.0980994 0.2311 -0.226521
-0.237775 0.2311 -0.159864
0.160771 0.2311 -0.35904
0.142355 0.2311 -0.350249
0.0318443 0.231098 -0.297519
0.0111268 0.231099 -0.287628
-0.00958684 0.231102 -0.277731
-0.0280055 0.231102 -0.268943
-0.0487264 0.231101 -0.259056
-0.15463 0.2311 -0.20852
-0.177647 0.231104 -0.19752
-0.19837 0.231102 -0.18764
-0.21909 0.231101 -0.177755
-0.240629 0.248928 -0.10549
0.120247 0.2311 -0.34848
0.102032 0.231101 -0.339786
0.0815356 0.2311 -0.330009
0.0519335 0.231099 -0.315883
-0.0687467 0.231101 -0.258285
-0.0892409 0.2311 -0.248506
-0.147265 0.209439 -0.295309
-0.179688 0.208177 -0.284174
-0.00950271 0.231098 -0.295158
-0.108607 0.2311 -0.247858
-0.218974 0.2311 -0.195185
-0.239247 0.231099 -0.185513
-0.240601 0.247698 -0.128403
0.239853 0.249477 -0.360715
0.0618525 0.231101 -0.337611
0.0306557 0.231101 -0.322723
0.0105979 0.231099 -0.313156
-0.0295129 0.231099 -0.294016
-0.0495664 0.2311 -0.284443
-0.167669 0.231098 -0.228085
-0.18772 0.231102 -0.218503
0.220808 0.249423 -0.360692
0.101462 0.232361 -0.360547
0.0809818 0.2311 -0.354973
-0.0689412 0.2311 -0.283426
-0.0887828 0.2311 -0.273954
0.202169 0.249369 -0.360669
0.0408086 0.2311 -0.343858
0.0124483 0.231101 -0.330321
-0.00937188 0.231099 -0.319914
-0.0290048 0.2311 -0.310541
-0.107545 0.2311 -0.27306
-0.129362 0.231099 -0.26265
-0.207901 0.231101 -0.225164
-0.238445 0.231099 -0.210592
-0.240575 0.24914 -0.150134
0.180322 0.248791 -0.360643
-0.0481894 0.231101 -0.309272
-0.0676258 0.231098 -0.300006
-0.0892148 0.231099 -0.2897
0.159022 0.248228 -0.360617
0.0507725 0.232261 -0.360485
0.0206282 0.2311 -0.349848
-0.107588 0.231099 -0.288662
-0.128956 0.2311 -0.278463
-0.173828 0.231102 -0.25704
-0.193061 0.231101 -0.247863
-0.24055 0.247966 -0.170773
0.141673 0.248189 -0.360596
0.00132737 0.2311 -0.348209
-0.0177087 0.2311 -0.339123
-0.0388601 0.231101 -0.329027
-0.214424 0.2311 -0.245244
-0.233462 0.231099 -0.236162
0.121322 0.247645 -0.360571
-0.0678385 0.231101 -0.322616
-0.0887775 0.231102 -0.312622
-0.180091 0.22793 -0.279074
-0.15095 0.228671 -0.297833
-0.240526 0.249331 -0.190401
0.101462 0.249573 -0.360547
-0.0686617 0.2311 -0.336627
-0.089188 0.231101 -0.32683
-0.107662 0.231101 -0.318012
-0.128188 0.231102 -0.308215
-0.168428 0.228141 -0.298188
-0.197981 0.231101 -0.27491
-0.218509 0.2311 -0.265116
-0.239037 0.231099 -0.255323
0.0820754 0.249026 -0.360523
-0.0279549 0.231965 -0.36039
-0.0477191 0.231099 -0.353614
-0.240503 0.248208 -0.209089
0.0600345 0.248004 -0.360497
-0.198285 0.231101 -0.288609
-0.0688405 0.231099 -0.357113
-0.0887774 0.231099 -0.347598
-0.108714 0.2311 -0.338081
-0.128651 0.2311 -0.328565
0.0416182 0.249858 -0.360474
-0.149206 0.231101 -0.325352
-0.188707 0.231097 -0.30651
-0.218328 0.2311 -0.292367
-0.238077 0.231099 -0.282945
0.0206665 0.24885 -0.360449
-0.169375 0.231101 -0.322198
-0.240471 0.24896 -0.235502
0.000268221 0.24787 -0.360424
-0.10777 0.231099 -0.357955
-0.129089 0.231099 -0.34778
-0.237624 0.231099 -0.295985
-0.189396 0.2311 -0.325231
-0.208599 0.2311 -0.316068
-0.0195984 0.24919 -0.3604
-0.147759 0.231099 -0.351226
-0.168689 0.231099 -0.341236
-0.0389537 0.248231 -0.360377
-0.24044 0.249661 -0.260147
-0.229292 0.231099 -0.324228
-0.0578173 0.249513 -0.360354
-0.18841 0.231099 -0.349536
-0.208781 0.231099 -0.339812
-0.0787972 0.248129 -0.360328
-0.229018 0.231099 -0.335852
-0.240412 0.248131 -0.283195
-0.0991851 0.248939 -0.360304
-0.119006 0.247601 -0.36028
-0.168504 0.238877 -0.36022
-0.208236 0.231875 -0.360172
-0.240395 0.249304 -0.297748
-0.138283 0.248396 -0.360256
-0.240369 0.247863 -0.318459
