ply
format ascii 1.0
comment Created by Open3D
element vertex 831
property double x
property double y
property double z
end_header
-0.0386447 -0.32854 0.197215
-0.0214727 -0.327038 0.198492
-0.00205795 -0.326324 0.197557
0.0197635 -0.326271 0.194692
0.0386341 -0.326979 0.19039
-0.0593295 -0.328292 0.193894
0.0600156 -0.326306 0.182369
-0.0777088 -0.328286 0.189554
0.0788057 -0.32624 0.173121
-0.00471295 -0.324323 0.182384
0.0978138 -0.327104 0.161419
-0.104026 -0.328202 0.179267
-0.0311447 -0.324324 0.178977
0.0183152 -0.324324 0.16504
0.0381115 -0.324323 0.162327
0.0635639 -0.324322 0.158839
0.117192 -0.326492 0.146004
-0.12582 -0.328532 0.166807
-0.0511793 -0.324326 0.167287
-0.0197942 -0.324325 0.162984
-0.0758604 -0.324327 0.163259
-0.00101101 -0.324323 0.153001
0.0680788 -0.324323 0.143526
0.131404 -0.32587 0.130863
-0.057414 -0.324325 0.153189
0.0181409 -0.32424 0.143046
0.0529682 -0.324326 0.138046
0.0878259 -0.324326 0.133265
-0.150392 -0.328149 0.148246
-0.126572 -0.324325 0.15499
-0.106052 -0.324324 0.152178
-0.0355867 -0.324105 0.143086
-0.0150215 -0.323974 0.140608
0.107934 -0.324327 0.12282
0.146131 -0.326512 0.111861
-0.0905041 -0.324325 0.142219
0.00445685 -0.323584 0.131152
0.060413 -0.324139 0.122011
0.128413 -0.324322 0.112198
-0.165019 -0.328474 0.133405
-0.0715136 -0.32406 0.13235
0.0153034 -0.323241 0.122625
0.0449641 -0.323603 0.117592
0.158483 -0.327542 0.0915183
-0.136894 -0.324326 0.132488
-0.12484 -0.324328 0.130829
-0.0397677 -0.323051 0.122597
0.0831561 -0.324102 0.102909
0.095178 -0.324322 0.100668
-0.019797 -0.322222 0.11387
-0.00161549 -0.322114 0.11167
0.0495483 -0.322911 0.102486
0.13133 -0.324324 0.0874299
-0.182956 -0.32853 0.110568
-0.108104 -0.324104 0.11244
-0.0924283 -0.323633 0.111583
-0.0705009 -0.322883 0.110632
0.0186014 -0.321694 0.101672
0.106745 -0.324304 0.0824242
0.168314 -0.325602 0.0704174
-0.138504 -0.32432 0.107423
-0.0501422 -0.321634 0.102743
0.0695805 -0.322772 0.0831701
0.0941554 -0.323746 0.0771002
0.1282 -0.324326 0.0708241
0.15301 -0.324327 0.0674202
-0.15681 -0.324322 0.101167
-0.0201817 -0.320189 0.0939824
-0.00158902 -0.320087 0.0917196
0.0383368 -0.320942 0.0838503
0.175519 -0.327326 0.0471813
-0.134257 -0.324191 0.089508
0.0191045 -0.319608 0.0814155
0.0903309 -0.32303 0.0619808
0.109165 -0.323912 0.0569056
0.134434 -0.324324 0.0522773
0.153408 -0.324324 0.0496755
-0.194517 -0.324327 0.0882757
-0.16577 -0.324324 0.0843399
-0.149803 -0.324326 0.0821444
-0.110412 -0.322912 0.0807732
-0.0905314 -0.321759 0.0813368
-0.0707717 -0.320581 0.0819868
-0.0512267 -0.319533 0.0822932
-0.129447 -0.323568 0.07224
-0.0203455 -0.317567 0.0745616
-0.00136304 -0.317496 0.0721632
0.0548745 -0.319987 0.0572745
0.0991162 -0.323027 0.042448
0.128014 -0.324307 0.0347956
0.14737 -0.324323 0.0320946
0.17996 -0.326616 0.0210205
-0.201166 -0.324328 0.0703996
-0.152236 -0.324273 0.0638493
-0.111558 -0.322189 0.0643345
0.0197337 -0.317136 0.061033
0.0700279 -0.320654 0.0438966
-0.174956 -0.324322 0.057143
-0.134642 -0.323344 0.0544903
-0.0724466 -0.318508 0.0601757
-0.0521567 -0.31698 0.0618838
0.0504184 -0.318475 0.0434194
0.10498 -0.323062 0.022453
0.1345 -0.324326 0.0146869
0.15096 -0.324326 0.0124297
-0.208084 -0.324325 0.0517989
-0.19145 -0.324322 0.0495247
0.078579 -0.320731 0.0231545
0.174432 -0.324326 -0.000671804
-0.174686 -0.324328 0.0371196
-0.154198 -0.323966 0.0353977
-0.104489 -0.320313 0.039544
-0.00134446 -0.312034 0.0502464
0.0206916 -0.313711 0.0421888
0.0586286 -0.318326 0.0231326
0.10774 -0.323114 0.00202584
0.134535 -0.324326 -0.00528562
0.154701 -0.324326 -0.00805223
-0.211903 -0.324325 0.0319313
-0.191526 -0.324328 0.0291282
-0.132273 -0.322491 0.0265741
-0.0742622 -0.316422 0.0370259
-0.0214419 -0.310164 0.0487625
0.0841003 -0.321051 0.00126487
0.165123 -0.324327 -0.0197852
-0.170959 -0.324322 0.0158048
-0.149684 -0.323546 0.0152653
-0.10941 -0.320108 0.0202804
-0.046309 -0.310573 0.0408582
0.0411744 -0.314958 0.0154161
0.0637285 -0.318565 0.0012629
0.103801 -0.322917 -0.0175746
0.134571 -0.324326 -0.0261136
-0.215889 -0.324327 0.0112021
-0.195064 -0.324323 0.0083583
-0.167277 -0.324294 0.00463712
-0.145576 -0.323269 0.0048362
-0.134525 -0.322455 0.00584286
-0.0895412 -0.317342 0.0155177
-0.074224 -0.314704 0.0215923
0.0830332 -0.321138 -0.019916
0.145 -0.324324 -0.0382873
0.16582 -0.324323 -0.0411415
-0.107402 -0.319605 0.000130892
0.0214484 -0.307457 0.020515
0.0426108 -0.314842 -0.00552434
0.0588713 -0.31814 -0.0180861
0.0996678 -0.322977 -0.0388349
0.120584 -0.324154 -0.0453895
-0.216498 -0.324324 -0.0109136
-0.195219 -0.324326 -0.0138387
-0.18458 -0.324327 -0.0153019
-0.155829 -0.323904 -0.0179062
-0.144673 -0.323287 -0.0174817
-0.0948793 -0.317934 -0.00735742
-0.00701813 -0.300948 0.0343935
0.0680985 -0.320083 -0.0365189
0.138176 -0.324321 -0.0595535
0.159456 -0.324321 -0.0624727
-0.195298 -0.324326 -0.0253053
-0.113625 -0.320718 -0.0249521
-0.073244 -0.313244 -0.00655586
0.0370258 -0.31513 -0.0277207
0.0847081 -0.322526 -0.0579491
0.0953138 -0.323336 -0.0619957
0.12389 -0.324323 -0.0690765
-0.184501 -0.324329 -0.0385333
-0.155265 -0.32408 -0.041738
-0.143945 -0.323557 -0.0415965
-0.12478 -0.322215 -0.0398775
-0.0854701 -0.317449 -0.0298346
-0.0510424 -0.301732 0.0163488
-0.0315257 -0.296953 0.0291529
0.0388049 -0.317366 -0.0466111
0.0593647 -0.320573 -0.0598159
0.098446 -0.323898 -0.0759472
0.138297 -0.324323 -0.0827906
0.160058 -0.324322 -0.0857724
-0.210139 -0.324329 -0.0470242
-0.100937 -0.320465 -0.0493436
-0.0687792 -0.31552 -0.0375543
0.0186501 -0.301403 -0.00329989
0.0204976 -0.315358 -0.0492685
0.0407461 -0.319357 -0.0651459
0.0690122 -0.322547 -0.0794741
0.120017 -0.324327 -0.0922991
-0.184413 -0.324325 -0.0628213
-0.154725 -0.324323 -0.0668855
-0.124082 -0.323119 -0.0671006
-0.104559 -0.321711 -0.0651126
-0.0848529 -0.3198 -0.0614804
0.0112683 -0.317222 -0.0661225
0.0499911 -0.321891 -0.0869074
0.0791353 -0.323816 -0.0972818
0.0976048 -0.324324 -0.1015
0.131002 -0.324321 -0.106071
-0.203138 -0.324323 -0.0728152
-0.184366 -0.324322 -0.0753865
-0.0846424 -0.321196 -0.0785844
0.00528555 -0.319449 -0.0850625
0.0341202 -0.321885 -0.0971848
0.0561361 -0.323317 -0.105005
0.104702 -0.324318 -0.115023
-0.195718 -0.324322 -0.0866994
-0.153935 -0.324324 -0.0924363
-0.134944 -0.324327 -0.0950499
-0.103831 -0.323337 -0.0959595
-0.0842872 -0.322433 -0.0955732
-0.0648322 -0.321501 -0.0950812
0.0103231 -0.321908 -0.106771
0.0400652 -0.323373 -0.11582
0.0777784 -0.324323 -0.124214
0.119563 -0.32432 -0.129934
-0.180433 -0.324323 -0.101974
-0.149684 -0.324327 -0.106206
-0.0190729 -0.281716 0.0221581
-0.00679775 -0.322815 -0.120612
0.0159349 -0.323436 -0.125862
0.0655871 -0.324322 -0.135716
0.0963395 -0.324322 -0.139933
-0.176447 -0.324321 -0.116009
-0.13365 -0.324321 -0.121878
-0.114195 -0.324319 -0.124539
-0.0947085 -0.324271 -0.127047
-0.0672515 -0.323904 -0.129537
-0.00894305 -0.323849 -0.137344
0.0375358 -0.324328 -0.145384
-0.16449 -0.324323 -0.131483
-0.136922 -0.324324 -0.135268
-0.117232 -0.324327 -0.137979
-0.0394613 -0.280991 0.00377047
0.0024572 -0.278911 0.00533569
0.0127376 -0.324324 -0.155792
0.0560588 -0.324329 -0.161752
0.0757507 -0.324331 -0.16446
-0.100402 -0.324327 -0.154455
-0.0804627 -0.324324 -0.157179
-0.0166672 -0.324327 -0.165943
0.0351692 -0.324325 -0.173046
0.0551061 -0.324325 -0.175777
-0.127559 -0.324325 -0.16525
-0.111408 -0.324324 -0.167462
-0.00239587 -0.324323 -0.182412
0.0177905 -0.324326 -0.185191
0.0379773 -0.324329 -0.18797
-0.0858923 -0.324317 -0.185833
-0.0736264 -0.324318 -0.187519
-0.0245635 -0.324324 -0.194272
-0.00411987 -0.324327 -0.197084
-0.0310934 -0.261292 0.0118421
-0.00980285 -0.259458 0.0157946
-0.0198015 -0.242387 0.0176199
-0.000979096 -0.241356 0.00544512
-0.0233521 -0.222325 0.0168884
-0.000979096 -0.220815 0.00544512
-0.027079 -0.202425 0.015158
-0.00667946 -0.202138 0.013738
-0.027079 -0.182012 0.015158
-0.00667946 -0.181755 0.013738
-0.0310934 -0.16224 0.0118421
-0.00980285 -0.161101 0.0157946
-0.0310934 -0.141747 0.0118421
-0.00980285 -0.140752 0.0157946
-0.0310934 -0.121253 0.0118421
-0.00980285 -0.120402 0.0157946
-0.0310934 -0.10076 0.0118421
-0.00980285 -0.100052 0.0157946
-0.0310934 -0.0802662 0.0118421
-0.00980285 -0.0797027 0.0157946
-0.0310934 -0.0597727 0.0118421
-0.00980285 -0.0593531 0.0157946
-0.0233521 -0.0424284 0.0168884
-0.000979096 -0.0393701 0.00544512
-0.0310934 -0.0222013 0.0118421
-0.00980285 -0.0220454 0.0157946
-0.0310934 -0.0017078 0.0118421
-0.00980285 -0.00169581 0.0157946
-0.0322925 0.0189232 0.00484407
-0.0167665 0.0186851 0.0151196
-0.258109 0.0496503 -0.215524
-0.240983 0.0496458 -0.21776
-0.220163 0.0497222 -0.22252
-0.198254 0.0496452 -0.223606
-0.181149 0.0496428 -0.225894
-0.159797 0.0496444 -0.22886
-0.138443 0.0496459 -0.231827
-0.12136 0.0496471 -0.2342
-0.0999991 0.0496476 -0.237144
-0.0786218 0.0496444 -0.239995
-0.0322925 0.0395665 0.00484407
-0.0167665 0.0390689 0.0151196
-0.0358994 0.0496448 -0.245865
-0.0145398 0.0496457 -0.248816
0.0153648 0.0496469 -0.252948
0.0367262 0.0496477 -0.255899
-0.258395 0.0496645 -0.116807
-0.238581 0.0496441 -0.119056
-0.222242 0.0501117 -0.132021
-0.220406 0.0509922 -0.152464
-0.219115 0.0519945 -0.175624
-0.21814 0.0530925 -0.200936
-0.100411 0.0530861 -0.216938
-0.0788974 0.0529615 -0.217031
-0.0319279 0.0526916 -0.217284
-0.0107362 0.0525698 -0.217399
0.0103579 0.0524486 -0.217514
0.0313549 0.052328 -0.217628
0.0480831 0.0522319 -0.217718
0.0689071 0.0521124 -0.217834
0.0896349 0.0519947 -0.217978
0.110269 0.0518776 -0.218121
0.130811 0.0517609 -0.218263
0.15126 0.0516447 -0.218404
0.167554 0.0515521 -0.218516
0.187839 0.0514369 -0.218656
0.208035 0.0513232 -0.218819
0.228143 0.0512106 -0.218995
-0.258638 0.0496766 -0.0326692
-0.240181 0.0496436 -0.0345007
-0.222096 0.0501739 -0.0482397
-0.220437 0.0509965 -0.065933
-0.219237 0.0519222 -0.085753
-0.218294 0.0529276 -0.10723
-0.200197 0.0537645 -0.127482
-0.18049 0.0537645 -0.130185
-0.160782 0.0537645 -0.132888
-0.141075 0.0537645 -0.135591
-0.121367 0.0537645 -0.138294
-0.10166 0.0537645 -0.140997
-0.0819525 0.0537645 -0.1437
-0.062245 0.0537645 -0.146403
-0.0228301 0.0537645 -0.15181
0.0047603 0.0537645 -0.155594
0.0244678 0.0537645 -0.158297
0.0362923 0.0537645 -0.159919
0.0559997 0.0537645 -0.162622
0.0757071 0.0537645 -0.165325
0.0954146 0.0537645 -0.168028
0.115122 0.0537645 -0.170731
0.142713 0.0537645 -0.174516
0.166361 0.0537645 -0.17776
0.186069 0.0537645 -0.180463
0.205776 0.0537645 -0.183166
0.225492 0.0537692 -0.185969
0.245214 0.0537756 -0.18881
-0.258848 0.0496871 0.0398962
-0.241565 0.0496438 0.0383808
-0.221967 0.0502273 0.0241588
-0.219852 0.0514183 0.000323772
-0.218867 0.0523159 -0.0175562
-0.199256 0.0537659 -0.0489093
-0.180908 0.0537659 -0.0514261
-0.158889 0.0537659 -0.0544461
-0.14054 0.0537659 -0.0569628
-0.122192 0.0537659 -0.0594797
-0.100173 0.0537659 -0.0624998
-0.0818242 0.0537659 -0.0650165
-0.0598057 0.0537659 -0.0680366
-0.004252 0.0495989 0.00671864
-0.0120988 0.0537659 -0.0745801
0.00991968 0.0537659 -0.0776001
0.0282685 0.0537659 -0.0801169
0.050287 0.0537659 -0.083137
0.0686358 0.0537659 -0.0856538
0.0906544 0.0537659 -0.0886738
0.109003 0.0537659 -0.0911906
0.131022 0.0537724 -0.0943383
0.149373 0.0537744 -0.0968965
0.167725 0.0537745 -0.0994152
0.189747 0.0537746 -0.102438
0.208099 0.0537747 -0.104956
0.230121 0.0537748 -0.107978
0.248473 0.0537748 -0.110497
-0.259031 0.0496961 0.103123
-0.239602 0.0496441 0.10142
-0.221855 0.0502738 0.0873413
-0.220488 0.0510033 0.0736639
-0.218973 0.0522287 0.050794
-0.20187 0.0537671 0.0199991
-0.181272 0.0537671 0.0171738
-0.160673 0.0537671 0.0143485
-0.140075 0.0537671 0.0115232
-0.119476 0.0537671 0.00869793
-0.102311 0.0537671 0.00634331
-0.0817125 0.0537671 0.00351799
-0.0611141 0.0537671 0.000692725
-0.00961795 0.0537671 -0.00637054
0.00754744 0.0537671 -0.00872493
0.0281377 0.0537713 -0.0116271
0.0487346 0.0537733 -0.0144901
0.0693353 0.0537734 -0.0173173
0.0899362 0.0537735 -0.0201446
0.110537 0.0537736 -0.0229716
0.127704 0.0537737 -0.0253276
0.148305 0.0537738 -0.028155
0.168907 0.0537738 -0.0309821
0.189508 0.0537739 -0.0338093
0.210109 0.053774 -0.0366366
0.23071 0.0537741 -0.0394638
0.247878 0.0537742 -0.0418198
-0.259191 0.0497041 0.158705
-0.240855 0.0496446 0.157225
-0.221779 0.050318 0.14291
-0.219966 0.0513724 0.124343
-0.200942 0.0537681 0.080115
-0.181592 0.0537681 0.0774609
-0.162241 0.0537681 0.0748068
-0.139666 0.0537681 0.0717103
-0.120315 0.0537681 0.0690562
-0.100965 0.0537681 0.0664021
-0.0816143 0.0537681 0.0637479
-0.0622639 0.0537681 0.0610938
-0.0396983 0.0537712 0.0579447
-0.0203504 0.0537725 0.055269
-0.000998572 0.0537726 0.0526135
0.0183533 0.0537727 0.0499578
0.0377052 0.0537727 0.0473021
0.0602826 0.0537728 0.0442038
0.0796346 0.0537729 0.0415481
0.0989867 0.053773 0.0388923
0.118339 0.0537731 0.0362367
0.137691 0.0537731 0.0335808
0.160269 0.0537732 0.0304825
0.179621 0.0537733 0.0278268
0.198974 0.0537734 0.025171
0.218326 0.0537735 0.0225152
0.237678 0.0537735 0.0198594
-0.259334 0.0497112 0.20795
-0.241965 0.0496449 0.206654
-0.22251 0.0500685 0.197047
-0.220016 0.0513539 0.175651
-0.219155 0.052086 0.163541
-0.20012 0.053769 0.133363
-0.181875 0.053769 0.13086
-0.160589 0.053769 0.12794
-0.142344 0.053769 0.125438
-0.121058 0.053769 0.122518
-0.0997836 0.0537716 0.119558
-0.081538 0.0537717 0.117054
-0.0602514 0.0537718 0.114133
-0.0420057 0.0537719 0.111629
-0.020719 0.053772 0.108708
-0.00247319 0.053772 0.106204
0.0188137 0.0537721 0.103283
0.0401006 0.0537722 0.100362
0.0583466 0.0537723 0.097858
0.0796337 0.0537724 0.0949369
0.0978798 0.0537724 0.092433
0.119167 0.0537725 0.0895118
0.140454 0.0537726 0.0865906
0.1587 0.0537727 0.0840867
0.179988 0.0537728 0.0811656
0.198234 0.0537729 0.0786616
0.219522 0.0537729 0.0757403
0.237768 0.053773 0.0732365
-0.257658 0.0498269 0.249941
-0.240276 0.0496421 0.25042
-0.221726 0.0496477 0.247789
-0.20043 0.0496405 0.24498
-0.181871 0.0496453 0.24236
-0.160622 0.049645 0.23945
-0.14203 0.0496447 0.236904
-0.120782 0.0496444 0.233994
-0.10219 0.0496443 0.231446
-0.0809449 0.0496445 0.228529
-0.0623548 0.0496447 0.225976
-0.058443 0.0537714 0.1615
-0.0411837 0.0537714 0.159132
-0.0210477 0.0537715 0.156369
-0.000911757 0.0537716 0.153606
0.0192243 0.0537717 0.150843
0.0393604 0.0537718 0.148079
0.0594966 0.0537718 0.145316
0.0796328 0.0537719 0.142553
0.0997691 0.053772 0.13979
0.119905 0.0537721 0.137027
0.140042 0.0537722 0.134264
0.160178 0.0537723 0.1315
0.180315 0.0537723 0.128737
0.197575 0.0537724 0.126369
0.217711 0.0537725 0.123605
0.237848 0.0537726 0.120842
-0.195283 0.0511084 0.262139
-0.176158 0.0509489 0.261859
-0.157171 0.0507937 0.261538
-0.135613 0.0506174 0.261172
-0.124889 0.0505297 0.26099
-0.095622 0.0502969 0.260398
-0.077152 0.0501534 0.259974
-0.0561762 0.0499914 0.259477
-0.0353934 0.0498478 0.258739
-0.0173123 0.0497247 0.258068
0.00308655 0.0496446 0.256447
0.0232454 0.0496438 0.253695
0.043403 0.0496433 0.250937
0.0635583 0.0496441 0.248161
0.0837153 0.0496439 0.245399
0.103872 0.0496441 0.242631
0.124029 0.0496443 0.239864
0.144186 0.0496444 0.237097
0.164343 0.0496446 0.234329
0.1845 0.0496448 0.231562
0.204657 0.049645 0.228794
0.224815 0.0496452 0.226027
0.243378 0.0537722 0.162816
0.104625 0.0508322 0.261513
0.124286 0.0506642 0.261166
0.143817 0.0504973 0.260821
0.163223 0.0503361 0.260413
0.18251 0.0501808 0.259938
0.204066 0.0500073 0.259407
0.223128 0.0498682 0.258739
0.24317 0.0537684 0.201454
-0.25221 0.0593497 0.265126
-0.231635 0.0589773 0.267047
0.0176892 0.0588044 0.266931
0.037866 0.0585795 0.266908
0.0578866 0.0583581 0.266862
0.0777559 0.0581389 0.26681
-0.212225 0.0692113 0.267099
-0.190244 0.0689334 0.26709
-0.171155 0.0686921 0.267081
-0.1522 0.0684525 0.267074
-0.130697 0.0681807 0.267064
-0.112022 0.0679446 0.267057
-0.090837 0.0676768 0.267048
-0.0724365 0.0699892 0.26704
-0.0515617 0.0697154 0.267031
-0.0308495 0.0694437 0.267022
-0.0102982 0.0691741 0.267014
0.0999413 0.0677279 0.266967
0.119492 0.0699249 0.266959
0.138894 0.0696611 0.266951
0.158151 0.0693993 0.266943
0.179643 0.0691071 0.266934
0.198595 0.0688495 0.266925
0.219748 0.0685619 0.266917
0.24669 0.0736697 0.211848
0.261583 0.0797232 0.148922
-0.261227 0.0785707 0.25901
0.254543 0.0797229 0.177071
-0.239952 0.0800617 0.267111
0.00755374 0.0789675 0.267006
0.0278086 0.0786631 0.266998
0.0479078 0.0783611 0.266989
0.0678533 0.0780614 0.266981
-0.220514 0.087626 0.267102
0.254075 0.0863882 0.212599
-0.201213 0.089924 0.267094
-0.182047 0.0896086 0.267086
-0.160307 0.0892508 0.267077
-0.141427 0.0889401 0.267069
-0.12001 0.0885876 0.26706
-0.101409 0.0882815 0.267052
-0.0803069 0.0879342 0.267043
-0.0619786 0.0876326 0.267035
-0.0411853 0.0898205 0.267027
-0.0205539 0.0894711 0.267018
0.0876468 0.0876387 0.266972
0.109735 0.0897229 0.266963
0.129211 0.0893837 0.266955
0.148541 0.0890472 0.266947
0.167725 0.0887131 0.266939
0.189137 0.0883403 0.26693
0.208018 0.0880116 0.266922
0.229093 0.0876446 0.266913
-0.261227 0.099878 0.25901
-0.239952 0.0984365 0.267111
-8.22395e-05 0.0991666 0.267009
0.0177007 0.0988315 0.267002
0.0378775 0.0984513 0.266993
0.0578997 0.098074 0.266985
-0.220514 0.108552 0.267102
-0.201213 0.10817 0.267094
-0.182047 0.10779 0.267086
-0.160307 0.109947 0.267077
-0.141427 0.109564 0.267069
-0.12001 0.10913 0.26706
-0.101409 0.108753 0.267052
-0.0803069 0.108325 0.267043
-0.0619786 0.107953 0.267035
-0.0411853 0.107532 0.267027
0.264588 0.109851 0.209446
-0.0205539 0.109634 0.267018
0.0777689 0.107593 0.266977
-0.261227 0.118522 0.25901
0.0999413 0.109596 0.266967
0.119492 0.109181 0.266959
0.138894 0.108769 0.266951
0.158151 0.10836 0.266943
0.179643 0.107904 0.266934
0.198595 0.107502 0.266925
-0.239952 0.119436 0.267111
0.219748 0.109458 0.266917
-8.22395e-05 0.119251 0.267009
0.0177007 0.118848 0.267002
0.0378775 0.118391 0.266993
0.0578997 0.117937 0.266985
-0.220514 0.129477 0.267102
-0.201213 0.129021 0.267094
-0.182047 0.128569 0.267086
-0.160307 0.128056 0.267077
-0.141427 0.12761 0.267069
0.264778 0.128128 0.208354
-0.12001 0.129672 0.26706
-0.101409 0.129224 0.267052
-0.0803069 0.128715 0.267043
-0.0619786 0.128274 0.267035
-0.0411853 0.127773 0.267027
-0.0205539 0.129796 0.267018
-0.261227 0.139829 0.25901
-0.239952 0.137811 0.267111
0.0777689 0.129854 0.266977
0.0999413 0.129299 0.266967
0.119492 0.128809 0.266959
0.138894 0.128323 0.266951
0.158151 0.127841 0.266943
0.179643 0.129727 0.266934
0.198595 0.129244 0.266925
0.219748 0.128704 0.266917
-8.22395e-05 0.139335 0.267009
0.0177007 0.138865 0.267002
0.0378775 0.13833 0.266993
0.0578997 0.1378 0.266985
-0.220514 0.147787 0.267102
-0.201213 0.149873 0.267094
-0.182047 0.149348 0.267086
-0.160307 0.148751 0.267077
-0.141427 0.148233 0.267069
-0.12001 0.147646 0.26706
-0.101409 0.149695 0.267052
-0.0803069 0.149106 0.267043
-0.0619786 0.148594 0.267035
-0.0411853 0.148014 0.267027
-0.261227 0.158473 0.25901
-0.0205539 0.149959 0.267018
-0.239952 0.158811 0.267111
0.0777689 0.149641 0.266977
0.0999413 0.149001 0.266967
0.119492 0.148437 0.266959
0.138894 0.147877 0.266951
0.158151 0.149756 0.266943
0.179643 0.149126 0.266934
0.198595 0.14857 0.266925
0.219748 0.147949 0.266917
-8.22395e-05 0.15942 0.267009
0.0177007 0.158881 0.267002
0.0378775 0.15827 0.266993
0.0578997 0.157663 0.266985
-0.220514 0.168713 0.267102
-0.201213 0.168119 0.267094
-0.182047 0.167529 0.267086
-0.160307 0.169447 0.267077
-0.141427 0.168857 0.267069
-0.12001 0.168188 0.26706
-0.101409 0.167607 0.267052
0.236407 0.157561 0.264678
-0.0803069 0.169496 0.267043
-0.0619786 0.168915 0.267035
-0.0411853 0.168255 0.267027
-0.0205539 0.167601 0.267018
-0.261227 0.179781 0.25901
-0.239952 0.179811 0.267111
0.0777689 0.169429 0.266977
0.0999413 0.168704 0.266967
0.119492 0.168065 0.266959
0.138894 0.169875 0.266951
0.158151 0.169237 0.266943
0.179643 0.168524 0.266934
0.198595 0.167896 0.266925
0.219748 0.1696 0.266917
-8.22395e-05 0.179504 0.267009
0.0177007 0.178898 0.267002
0.0378775 0.178209 0.266993
0.0578997 0.177526 0.266985
-0.220514 0.189638 0.267102
-0.201213 0.188971 0.267094
-0.182047 0.188308 0.267086
-0.160307 0.187556 0.267077
-0.141427 0.189481 0.267069
-0.12001 0.18873 0.26706
-0.101409 0.188078 0.267052
-0.261227 0.198424 0.25901
-0.0803069 0.189887 0.267043
-0.0619786 0.189236 0.267035
-0.0411853 0.188497 0.267027
-0.0205539 0.187763 0.267018
-0.239952 0.198186 0.267111
0.0777689 0.189216 0.266977
0.0999413 0.188407 0.266967
0.119492 0.187693 0.266959
0.138894 0.189429 0.266951
0.158151 0.188717 0.266943
0.179643 0.187923 0.266934
0.198595 0.189638 0.266925
0.219748 0.188846 0.266917
-0.220514 0.207948 0.267102
-8.22395e-05 0.199589 0.267009
0.0177007 0.198914 0.267002
0.0378775 0.198149 0.266993
-0.201213 0.209823 0.267094
-0.182047 0.209087 0.267086
-0.160307 0.208252 0.267077
-0.141427 0.207527 0.267069
0.0578997 0.199872 0.266985
-0.12001 0.209272 0.26706
-0.101409 0.208549 0.267052
-0.0803069 0.207729 0.267043
-0.261227 0.219732 0.25901
-0.0619786 0.209556 0.267035
-0.0411853 0.208738 0.267027
-0.0205539 0.207926 0.267018
-0.239952 0.219185 0.267111
0.0777689 0.209003 0.266977
0.0999413 0.208109 0.266967
0.119492 0.209775 0.266959
0.138894 0.208983 0.266951
0.158151 0.208198 0.266943
0.179643 0.209746 0.266934
0.198595 0.208964 0.266925
0.219748 0.208091 0.266917
-0.220514 0.228874 0.267102
-0.201213 0.228068 0.267094
-8.22395e-05 0.219673 0.267009
0.0177007 0.218931 0.267002
0.0378775 0.218088 0.266993
-0.182047 0.229866 0.267086
-0.160307 0.228948 0.267077
-0.141427 0.228151 0.267069
0.0578997 0.219736 0.266985
-0.261227 0.238376 0.25901
-0.12001 0.229814 0.26706
-0.101409 0.22902 0.267052
-0.0803069 0.228119 0.267043
-0.239952 0.23756 0.267111
-0.0619786 0.229877 0.267035
-0.0411853 0.228979 0.267027
-0.0205539 0.228088 0.267018
0.236407 0.217699 0.264678
0.0777689 0.22879 0.266977
0.0999413 0.227812 0.266967
0.119492 0.229403 0.266959
0.138894 0.228537 0.266951
0.158151 0.227679 0.266943
0.179643 0.229145 0.266934
0.198595 0.22829 0.266925
-0.220514 0.249799 0.267102
-0.201213 0.24892 0.267094
-0.182047 0.248047 0.267086
-8.22395e-05 0.239757 0.267009
0.0177007 0.238947 0.267002
0.0378775 0.238028 0.266993
0.219748 0.229742 0.266917
-0.160307 0.249644 0.267077
-0.141427 0.248774 0.267069
-0.12001 0.247789 0.26706
0.0578997 0.239599 0.266985
-0.261227 0.259683 0.25901
-0.101409 0.249491 0.267052
-0.0803069 0.24851 0.267043
-0.0619786 0.247657 0.267035
-0.239952 0.25856 0.267111
-0.0411853 0.24922 0.267027
-0.0205539 0.248251 0.267018
0.0777689 0.248578 0.266977
0.0999413 0.247515 0.266967
0.119492 0.249031 0.266959
0.138894 0.248091 0.266951
-0.220514 0.268109 0.267102
0.158151 0.249594 0.266943
0.179643 0.248543 0.266934
0.198595 0.247617 0.266925
-0.201213 0.269772 0.267094
-0.182047 0.268826 0.267086
-0.160307 0.267752 0.267077
-8.22395e-05 0.259842 0.267009
0.0177007 0.258964 0.267002
0.0378775 0.257967 0.266993
0.219748 0.248988 0.266917
-0.261227 0.278327 0.25901
-0.141427 0.269398 0.267069
-0.12001 0.268331 0.26706
0.0578997 0.259462 0.266985
-0.101409 0.269962 0.267052
-0.0803069 0.2689 0.267043
-0.0619786 0.267978 0.267035
-0.239952 0.27956 0.267111
-0.0411853 0.269462 0.267027
-0.0205539 0.268413 0.267018
0.0777689 0.268365 0.266977
0.0999413 0.26968 0.266967
0.119492 0.268659 0.266959
0.138894 0.267645 0.266951
-0.220514 0.289035 0.267102
-0.201213 0.288018 0.267094
0.158151 0.269075 0.266943
0.179643 0.267942 0.266934
-0.182047 0.289605 0.267086
-0.160307 0.288448 0.267077
-8.22395e-05 0.279926 0.267009
0.0177007 0.27898 0.267002
0.0378775 0.277907 0.266993
0.198595 0.269358 0.266925
0.219748 0.268233 0.266917
-0.261227 0.299634 0.25901
-0.141427 0.290022 0.267069
-0.12001 0.288873 0.26706
-0.101409 0.287874 0.267052
0.0578997 0.279325 0.266985
-0.239952 0.297935 0.267111
-0.0803069 0.289291 0.267043
-0.0619786 0.288298 0.267035
-0.0411853 0.289703 0.267027
-0.0205539 0.288576 0.267018
0.236407 0.277837 0.264678
0.0777689 0.288152 0.266977
0.0999413 0.289383 0.266967
0.119492 0.288287 0.266959
-0.220514 0.309961 0.267102
-0.201213 0.30887 0.267094
-0.182047 0.307786 0.267086
0.138894 0.289644 0.266951
0.158151 0.288555 0.266943
-0.26149 0.31849 0.258536
-0.160307 0.309144 0.267077
-0.141427 0.308068 0.267069
-8.22395e-05 0.30001 0.267009
0.0177007 0.298997 0.267002
0.0378775 0.297846 0.266993
0.179643 0.289765 0.266934
0.198595 0.288685 0.266925
