ply
format ascii 1.0
comment Created by Open3D
element vertex 814
property double x
property double y
property double z
end_header
0.351637 -0.233105 0.119195
-0.279257 -0.231425 0.118503
0.355456 -0.214858 0.118517
-0.275219 -0.212425 0.119274
0.33642 -0.207007 0.121831
-0.26078 -0.209053 0.116705
0.342929 -0.196709 0.137058
0.364705 -0.196808 0.135658
-0.280779 -0.197713 0.137732
-0.29818 -0.19179 0.130331
-0.262092 -0.190172 0.137805
-0.247079 -0.194871 0.111266
0.344756 -0.232356 -0.119502
0.378014 -0.18739 0.127314
-0.282965 -0.23224 -0.118893
0.322012 -0.187674 0.107496
-0.283508 -0.182401 0.140882
0.327365 -0.180239 0.128633
0.345407 -0.176521 0.128355
-0.303257 -0.179493 0.114988
0.334201 -0.179511 0.0891397
0.366555 -0.174513 0.117739
-0.263349 -0.174484 0.120892
-0.2569 -0.179517 0.0898694
0.338907 -0.208833 -0.113373
0.36502 -0.208319 -0.111286
-0.284246 -0.207179 -0.105929
-0.257234 -0.202797 -0.108118
0.328552 -0.194399 -0.106674
0.343471 -0.192498 -0.0948559
0.378474 -0.194902 -0.11198
0.341176 -0.156298 0.117729
-0.281272 -0.155342 0.124219
-0.285719 -0.187239 -0.0940462
-0.267351 -0.187029 -0.0933492
0.356024 -0.183233 -0.0925249
-0.304137 -0.185314 -0.111457
-0.248279 -0.184657 -0.109104
0.359557 -0.147224 0.129046
-0.257217 -0.148882 0.115867
0.324237 -0.17951 -0.127994
0.364355 -0.176589 -0.108593
0.378412 -0.179371 -0.129177
-0.301563 -0.179538 -0.136476
-0.266484 -0.175539 -0.108374
-0.253946 -0.178902 -0.133706
0.340785 -0.169499 -0.121673
0.339775 -0.137252 0.122771
-0.290124 -0.137187 0.120211
0.360413 -0.134612 0.113994
-0.268768 -0.133917 0.115438
-0.2829 -0.158628 -0.118642
0.342817 -0.154641 -0.111059
-0.260274 -0.154191 -0.120917
0.364394 -0.149784 -0.108752
0.133944 -0.117258 0.145889
0.15546 -0.117159 0.145886
0.184092 -0.117028 0.145882
0.205523 -0.116929 0.14588
0.234042 -0.116798 0.145876
0.25539 -0.116699 0.145873
0.283797 -0.116569 0.14587
0.305061 -0.116471 0.145867
0.333358 -0.116341 0.145864
0.347586 -0.114948 0.15747
0.368498 -0.114851 0.157468
-0.307529 -0.114333 0.157553
-0.289173 -0.114252 0.15755
-0.270844 -0.11417 0.157548
-0.251715 -0.115162 0.147824
-0.230091 -0.115275 0.145935
-0.211642 -0.115192 0.145932
-0.189539 -0.115094 0.14593
-0.171148 -0.115012 0.145927
-0.149114 -0.114913 0.145925
-0.13078 -0.114832 0.145922
-0.112473 -0.11475 0.14592
-0.090539 -0.114652 0.145917
-0.072289 -0.114571 0.145915
-0.0504232 -0.114473 0.145912
-0.0322301 -0.114392 0.14591
-0.0104324 -0.114295 0.145907
0.00770402 -0.114214 0.145905
0.0294338 -0.114117 0.145902
0.0475139 -0.114036 0.1459
0.0691762 -0.113939 0.145897
0.0908019 -0.113843 0.145894
0.108795 -0.113763 0.145892
-0.251715 -0.104194 0.147824
-0.230091 -0.104296 0.145935
-0.211642 -0.104222 0.145932
-0.189539 -0.104132 0.14593
-0.171148 -0.104058 0.145927
0.130354 -0.0956242 0.145889
0.148292 -0.0955569 0.145887
0.169784 -0.0954762 0.145884
0.187666 -0.0954091 0.145882
0.209092 -0.0953287 0.145879
0.230481 -0.0952484 0.145876
0.248278 -0.0951816 0.145874
0.269602 -0.0951016 0.145872
0.290889 -0.0950217 0.145869
0.308602 -0.0949552 0.145867
0.329824 -0.0948756 0.145864
0.347586 -0.0866528 0.15747
0.368498 -0.0865803 0.157468
-0.307529 -0.0852964 0.157553
-0.289173 -0.0852353 0.15755
-0.270844 -0.0851743 0.157548
-0.149114 -0.085729 0.145925
-0.13078 -0.085668 0.145922
-0.112473 -0.085607 0.14592
-0.090539 -0.085534 0.145917
-0.072289 -0.0854733 0.145915
-0.0504232 -0.0854005 0.145912
-0.0322301 -0.08534 0.14591
-0.0104324 -0.0852674 0.145907
0.00770402 -0.085207 0.145905
0.0294338 -0.0851347 0.145902
0.0475139 -0.0850745 0.1459
0.0691762 -0.0850025 0.145897
0.0908019 -0.0849305 0.145894
0.108795 -0.0848706 0.145892
0.130354 -0.0847988 0.145889
0.148292 -0.0847391 0.145887
0.169784 -0.0846676 0.145884
0.187666 -0.0846081 0.145882
0.209092 -0.0845368 0.145879
0.230481 -0.0844656 0.145876
0.248278 -0.0844063 0.145874
0.269602 -0.0843354 0.145872
0.290889 -0.0842645 0.145869
-0.307529 -0.0744075 0.157553
-0.289173 -0.0743542 0.15755
-0.270844 -0.074301 0.157548
-0.251715 -0.0749467 0.147824
-0.230091 -0.07502 0.145935
-0.211642 -0.0749664 0.145932
-0.189539 -0.0749022 0.14593
-0.171148 -0.0748488 0.145927
-0.149114 -0.0747848 0.145925
-0.13078 -0.0747316 0.145922
-0.112473 -0.0746785 0.14592
-0.090539 -0.0746148 0.145917
-0.072289 -0.0745618 0.145915
-0.0504232 -0.0744983 0.145912
-0.0322301 -0.0744455 0.14591
-0.0104324 -0.0743822 0.145907
0.00770402 -0.0743296 0.145905
0.0294338 -0.0742665 0.145902
0.0475139 -0.074214 0.1459
0.0691762 -0.0741511 0.145897
0.305061 -0.0662988 0.145867
0.333358 -0.0662246 0.145864
0.347586 -0.0654318 0.15747
0.368498 -0.065377 0.157468
-0.230091 -0.0640414 0.145935
0.0908379 -0.0560644 0.145041
0.108847 -0.0560255 0.145028
0.130425 -0.0559788 0.145013
0.148379 -0.05594 0.145
0.169891 -0.0558934 0.144984
0.18779 -0.0558547 0.144972
0.209237 -0.0558083 0.144956
0.230647 -0.055762 0.144941
0.248463 -0.0557235 0.144928
0.269809 -0.0556773 0.144913
0.28757 -0.0556389 0.1449
0.340882 -0.0548878 0.156519
0.358046 -0.0547982 0.157469
0.378942 -0.0547523 0.157466
-0.2552 -0.0505468 0.122877
-0.307529 -0.0453704 0.157553
-0.289173 -0.0453379 0.15755
-0.270844 -0.0453055 0.157548
-0.251715 -0.0456992 0.147824
-0.205626 -0.0459443 0.140389
-0.19452 -0.0459253 0.140374
-0.164947 -0.0458745 0.140335
-0.13544 -0.0458238 0.140296
-0.124391 -0.0458048 0.140281
-0.0949733 -0.0457543 0.140242
-0.0656203 -0.0457039 0.140203
-0.0546296 -0.045685 0.140188
-0.0253654 -0.0456348 0.140149
-0.0144079 -0.0456159 0.140135
0.014768 -0.0455658 0.140096
0.0256924 -0.0455471 0.140081
0.0547804 -0.0454971 0.140042
0.0656718 -0.0454784 0.140028
0.313729 -0.0450525 0.139696
0.335079 -0.0450158 0.139668
-0.255197 -0.0403092 0.0959429
-0.255195 -0.0408259 0.0819571
-0.307529 -0.0344815 0.157553
-0.289173 -0.0344568 0.15755
-0.270844 -0.0344322 0.157548
-0.251715 -0.0347314 0.147824
-0.234359 -0.0353 0.130113
0.00339403 -0.0349943 0.129656
0.0254724 -0.0349659 0.129614
0.0548548 -0.0349282 0.129558
0.0658567 -0.034914 0.129537
0.0951518 -0.0348763 0.129481
0.124384 -0.0348388 0.129426
0.135329 -0.0348247 0.129405
0.164475 -0.0347872 0.129349
0.175388 -0.0347732 0.129328
0.204448 -0.0347358 0.129273
0.215329 -0.0347218 0.129252
0.244302 -0.0346845 0.129197
0.255151 -0.0346706 0.129176
0.28404 -0.0346334 0.129121
0.305665 -0.0346056 0.12908
0.334445 -0.0345686 0.129025
-0.256308 -0.0315526 0.132056
-0.255576 -0.0339621 0.0514567
-0.256501 -0.0308708 0.0172311
-0.256376 -0.0312809 0.00168324
-0.256117 -0.0321348 -0.0306866
-0.216415 -0.0283311 0.111852
-0.197412 -0.0283137 0.111745
-0.174667 -0.0282964 0.111484
-0.1444 -0.0282756 0.111047
-0.114177 -0.028255 0.11061
-0.0839984 -0.0282343 0.110174
-0.0538637 -0.0282137 0.109739
-0.023773 -0.0281931 0.109304
-0.00498861 -0.0281802 0.109033
0.0250307 -0.0281599 0.108592
0.0550067 -0.0281396 0.10815
0.0849394 -0.0281194 0.107709
0.0961531 -0.0281118 0.107544
0.126039 -0.028096 0.106936
0.155953 -0.0280961 0.105721
0.185868 -0.0280963 0.104507
0.215782 -0.0280965 0.103292
0.245697 -0.0280967 0.102078
0.275613 -0.0280968 0.100863
0.305529 -0.028097 0.0996484
0.335445 -0.0280972 0.0984339
0.346239 -0.0270435 0.137929
0.351755 -0.0265822 0.155187
0.368498 -0.0265042 0.157467
0.385984 -0.0270559 0.135854
-0.258589 -0.0246098 0.111101
-0.215664 -0.0241388 0.129961
-0.199588 -0.0251436 0.0853779
-0.19443 -0.0254129 0.0733926
-0.184082 -0.0260039 0.0471343
-0.198349 -0.0280908 -0.0435408
-0.181094 -0.0280908 -0.0442362
-0.159525 -0.0280907 -0.0451053
-0.146758 -0.026919 0.00561583
-0.127472 -0.0271333 -0.00453627
-0.12933 -0.0280907 -0.0463221
-0.112075 -0.0280907 -0.0470175
-0.0905066 -0.0280906 -0.0478865
-0.0689385 -0.0280906 -0.0487558
-0.051684 -0.0280905 -0.049451
-0.0301159 -0.0280905 -0.0503201
-0.00854789 -0.0280905 -0.0511894
0.00870647 -0.0280904 -0.0518845
0.0302744 -0.0280904 -0.0527538
0.0475286 -0.0280904 -0.053449
0.0690964 -0.0280903 -0.0543181
0.0906641 -0.0280903 -0.0551872
0.107918 -0.0280902 -0.0558825
0.129486 -0.0280902 -0.0567516
0.138892 -0.0270449 -0.0114273
0.151053 -0.0280902 -0.0576209
0.168307 -0.0280901 -0.0583161
0.189875 -0.0280901 -0.0591853
0.211443 -0.0280902 -0.060061
0.228698 -0.0280903 -0.0607622
0.24353 -0.0271574 -0.0205706
0.258894 -0.0280905 -0.0619893
0.280463 -0.0280906 -0.0628657
0.297718 -0.0280907 -0.0635669
0.319288 -0.0280908 -0.0644433
0.337484 -0.027768 -0.0510613
0.336884 -0.0273091 -0.0309719
0.336304 -0.0268651 -0.0115358
0.335742 -0.0264353 0.00727963
0.335197 -0.026019 0.0255051
0.334157 -0.0252245 0.0602858
0.333661 -0.0248452 0.0768919
-0.25975 -0.021432 0.0797093
-0.174796 -0.0222733 0.032806
-0.103776 -0.0231587 -0.0158143
-0.0836466 -0.023316 -0.0247579
-0.0789263 -0.0258089 -0.153767
-0.0601301 -0.0257942 -0.153769
-0.0413551 -0.0257796 -0.153772
-0.0236255 -0.0230624 -0.0140765
-0.00386892 -0.0257504 -0.153776
0.0241899 -0.0257286 -0.15378
0.043156 -0.0241012 -0.0704532
0.0562368 -0.0239896 -0.0652114
0.0986485 -0.0234741 -0.0402865
0.119065 -0.023188 -0.0263268
0.196212 -0.0234082 -0.0408193
0.216211 -0.0232374 -0.0327996
0.279194 -0.0255299 -0.153812
0.297797 -0.0255371 -0.154933
0.321741 -0.0256091 -0.159621
0.333963 -0.0250523 -0.131341
0.333386 -0.0246113 -0.108532
0.332829 -0.0241856 -0.0865114
-0.0517906 -0.0186563 0.00050962
0.00530916 -0.0190333 -0.0256027
0.026299 -0.0191409 -0.0332502
-0.262636 -0.0141244 0.0403793
-0.19132 -0.0137294 0.0695671
-0.183148 -0.0139456 0.0516827
-0.154243 -0.0144388 0.0104669
-0.127316 -0.0145972 -0.00348365
0.134938 -0.0145958 -0.0139601
0.179827 -0.0149648 -0.045738
0.239637 -0.0146444 -0.0221304
0.324793 -0.0147309 -0.0325952
0.324614 -0.0145018 -0.0139817
0.40001 -0.0126126 0.136381
-0.265058 -0.00932011 0.127868
-0.264752 -0.00990045 0.0618805
-0.206681 -0.00950269 0.104755
-0.0641465 -0.010758 -0.0437058
0.0475276 -0.010685 -0.0399225
0.0734117 -0.0108047 -0.0545765
0.156376 -0.0104859 -0.0216795
0.258452 -0.0105659 -0.0348989
0.322567 -0.0107637 -0.0599744
0.32229 -0.0101205 0.0131544
0.322226 -0.00997159 0.030091
0.322164 -0.00982695 0.0465366
0.328227 -0.00901398 0.138715
-0.307529 -0.00544446 0.157553
-0.289173 -0.00544056 0.157551
-0.270844 -0.00543667 0.157548
0.284827 -0.00699215 -0.159617
0.303294 -0.00698823 -0.159619
0.320954 -0.00684824 -0.133807
0.320378 -0.00554131 0.113848
0.348369 -0.00538244 0.14282
0.358046 -0.00530306 0.157469
0.376547 -0.00537468 0.143153
-0.241324 -0.001855 0.132046
-0.175139 -0.00202799 0.0310433
-0.0615077 -0.00210072 -0.0148895
-0.00716197 -0.00210733 -0.02084
0.00532006 -0.00211427 -0.0252922
0.0262976 -0.00212692 -0.0333263
0.0522012 -0.00233699 -0.153783
-0.174988 0.00206415 0.0104785
0.0606698 0.00219405 -0.0728751
0.318334 0.00222384 -0.100214
0.318338 0.00218801 -0.0798473
0.318356 0.00188434 0.0927681
-0.314879 0.005446 0.157553
-0.285505 0.00543976 0.15755
-0.274508 0.00543742 0.157548
-0.273624 0.00567774 0.111978
-0.273709 0.00581612 0.0857602
-0.273753 0.00588788 0.0721663
-0.219368 0.00564889 0.115253
-0.208675 0.00574633 0.0963581
-0.198105 0.00585907 0.0745698
-0.187242 0.00597966 0.051282
-0.14366 0.0062459 -0.000923395
-0.124023 0.00628785 -0.00966465
-0.10414 0.0063312 -0.0186812
-0.0841251 0.00638211 -0.0291367
-0.0404615 0.0062965 -0.0146786
0.0564823 0.00672518 -0.0998168
0.0862649 0.00646807 -0.0523038
0.115223 0.00635831 -0.0326761
0.135741 0.00631276 -0.0248742
0.176296 0.00645037 -0.0525854
0.204604 0.00637983 -0.0403631
0.22474 0.0063408 -0.0337796
0.265078 0.00641045 -0.0486056
0.289446 0.00699114 -0.159617
0.317785 0.00634595 -0.0385141
0.317847 0.00580351 0.0642632
0.31788 0.00549057 0.123558
0.334428 0.00538965 0.142012
0.375462 0.00529934 0.157467
0.383615 0.0053733 0.143123
0.40819 0.0054202 0.133244
-0.276106 0.00931682 0.128689
-0.185094 0.0104041 0.00140166
-0.0736866 0.010843 -0.0529864
0.0389118 0.010791 -0.0516199
0.246607 0.0106091 -0.0393281
0.31748 0.0114597 -0.138893
0.31741 0.0112659 -0.116855
0.317336 0.0107266 -0.0555453
0.31729 0.0103949 -0.0178324
0.317268 0.0102366 0.000161529
0.317287 0.0100846 0.0174445
0.351074 0.0088409 0.15747
-0.25775 0.0130539 0.127106
0.0431526 0.0153491 -0.0714272
0.347957 0.0125418 0.144232
-0.237777 0.0169239 0.11744
-0.188899 0.0183773 0.0236715
-0.0585101 0.0191222 -0.0286448
-0.0161739 0.0191459 -0.0318493
-0.0035843 0.0192026 -0.0359386
0.047536 0.0210358 -0.153783
0.0695804 0.0198818 -0.0817873
0.107537 0.0193245 -0.0481256
0.157815 0.0191238 -0.0374792
0.318567 0.0200317 -0.101309
0.318521 0.0197053 -0.0806968
-0.169816 0.0230309 -0.00654232
-0.141843 0.0231883 -0.0158042
-0.0414948 0.0233587 -0.0286613
0.0174265 0.0236955 -0.0484462
0.043092 0.0244616 -0.0890703
0.0910353 0.0239728 -0.0657474
0.1982 0.0237211 -0.0570661
0.218465 0.0235477 -0.0489266
0.318635 0.020749 0.0916551
-0.329591 0.0236129 0.157555
-0.288383 0.0245777 0.113705
-0.288936 0.0251842 0.0872082
-0.289222 0.0254988 0.0734631
-0.227323 0.0248582 0.0989742
-0.216839 0.0253166 0.0785081
-0.208771 0.0256769 0.0624303
-0.198212 0.0262336 0.037662
-0.201405 0.0274757 -0.0165225
-0.0867193 0.0282012 -0.0528769
0.0656725 0.0295312 -0.117181
0.14108 0.027692 -0.0398074
0.239748 0.0278168 -0.0492489
0.26756 0.0280955 -0.0625576
0.322009 0.0297902 -0.138857
0.321757 0.029275 -0.116323
0.321155 0.027842 -0.05364
0.320968 0.027395 -0.0340875
0.320609 0.0265427 0.0031966
0.32011 0.0253591 0.0549691
-0.119059 0.0320956 -0.0347339
-0.0837763 0.0328877 -0.0661745
0.0699516 0.0336918 -0.102853
0.321992 0.0298893 0.0310663
0.320943 0.0273938 0.125677
0.358671 0.0268739 0.143853
-0.299237 0.0339418 0.0539017
-0.274748 0.031911 0.120816
-0.0731349 0.0366982 -0.0473939
-0.0508238 0.036415 -0.0388262
-0.0170332 0.036653 -0.0481508
-0.00431302 0.0367896 -0.053231
0.0170581 0.0370698 -0.0634636
0.0342717 0.0376375 -0.0831386
0.047536 0.0397342 -0.153782
0.0871916 0.0375273 -0.0815923
0.158774 0.0364368 -0.0480177
0.180744 0.0365949 -0.0541921
0.287788 0.0371999 -0.0787461
-0.348005 0.034536 0.157557
-0.311203 0.0344865 0.157553
-0.302661 0.0358375 0.11679
-0.254725 0.0359581 0.111245
-0.208992 0.0393782 0.00707924
-0.180603 0.0402087 -0.0189151
-0.160118 0.0403327 -0.0234518
-0.140398 0.0406505 -0.0337555
-0.112246 0.0410998 -0.0483319
0.042993 0.0432136 -0.117839
0.0708491 0.0443775 -0.153786
0.112934 0.0415002 -0.0694041
0.125462 0.0412078 -0.0611626
0.212708 0.0413716 -0.0695851
0.330008 0.0420082 -0.0933691
0.329446 0.04128 -0.0715597
0.383993 0.0340693 0.141963
0.395551 0.0341497 0.139091
-0.313341 0.0408181 0.0845143
-0.316079 0.042032 0.0517679
-0.317512 0.0426667 0.0346445
-0.217507 0.0422422 0.0420989
-0.217967 0.0450465 -0.0337898
-0.000469368 0.0459026 -0.0657452
0.0746862 0.0476065 -0.114903
0.246848 0.0455814 -0.0670384
0.304098 0.0465339 -0.0951325
0.33652 0.0475002 -0.122597
0.32839 0.0399276 0.0827063
0.32793 0.039331 0.0988756
-0.321065 0.0442354 0.0964463
-0.328395 0.0481238 0.000644326
-0.241063 0.0443316 0.0908399
-0.129767 0.0498219 -0.0493437
-0.101735 0.0505808 -0.0692317
0.029638 0.0515411 -0.0982701
0.0749895 0.0527208 -0.129256
0.230726 0.0502543 -0.0745859
0.266195 0.0503866 -0.0792885
0.337765 0.0484631 -0.0346413
0.336616 0.0475819 -0.0128161
0.334435 0.0459118 0.0285474
-0.359065 0.0454617 0.157559
-0.329591 0.0454095 0.157555
-0.329248 0.0486429 0.0840226
-0.235114 0.0491598 0.0684693
-0.200348 0.0535209 -0.032095
0.0428694 0.0584409 -0.153782
0.0568653 0.0584161 -0.153784
0.100774 0.0555644 -0.0907174
0.156247 0.0544598 -0.0678401
0.182524 0.0545345 -0.0706013
0.210183 0.0550526 -0.083497
0.351558 0.0551799 -0.0921018
0.348225 0.0537959 -0.0604974
0.337754 0.0484625 0.061191
0.334337 0.0454678 0.129419
-0.332961 0.0509507 0.117513
-0.337032 0.0536199 0.0614828
-0.339989 0.0557572 0.016606
-0.343087 0.0580564 -0.0316728
-0.281342 0.0511249 0.111761
-0.226709 0.0553588 0.0204195
-0.178932 0.0577906 -0.0327065
-0.0437343 0.0587787 -0.0589671
-0.0056663 0.0599585 -0.0853442
0.011736 0.0605182 -0.0978297
0.0383771 0.0619257 -0.128537
0.0755078 0.0630538 -0.153786
0.118222 0.0597565 -0.0860935
0.139599 0.0592975 -0.0772934
0.228023 0.0595411 -0.0859926
0.254636 0.0595984 -0.0882722
0.279925 0.0604452 -0.107122
0.350052 0.0545566 0.0140191
-0.33996 0.0557317 0.0980595
-0.238881 0.0577857 0.0537186
-0.237723 0.0627857 -0.044333
-0.163611 0.0625966 -0.0436184
-0.128239 0.0638351 -0.0693238
-0.100402 0.0651225 -0.0956814
-0.0839392 0.0636618 -0.0677159
-0.0568111 0.0631564 -0.0589048
-0.0279587 0.0645084 -0.0865699
-0.0272878 0.0679356 -0.153773
-0.0132325 0.0679067 -0.153775
0.00548933 0.0678683 -0.153777
0.0838827 0.0660057 -0.120434
0.179724 0.0640126 -0.0852373
0.351668 0.0552299 0.0799696
0.348778 0.05403 0.103606
0.346008 0.0528807 0.126244
0.380275 0.0525437 0.131467
-0.348779 0.0627971 0.0393392
-0.351316 0.0651954 -0.00453448
-0.29967 0.0586024 0.114271
-0.262391 0.0594141 0.0978824
-0.235552 0.0646451 0.000880599
-0.152914 0.0676666 -0.0578594
-0.121671 0.0691454 -0.086236
-0.0695255 0.0727135 -0.153768
-0.0507399 0.0726723 -0.15377
0.158106 0.0686841 -0.0890757
0.169602 0.0702073 -0.11747
0.248947 0.0695053 -0.107801
-0.350622 0.0645253 0.0794317
-0.356442 0.0702937 -0.019694
-0.255112 0.0641374 0.0822567
-0.245106 0.0671857 0.0293448
-0.198052 0.0712215 -0.0420719
-0.181246 0.071355 -0.0450497
-0.147324 0.0732069 -0.0783182
-0.154325 0.0776029 -0.153757
-0.12601 0.0775367 -0.153761
-0.107161 0.0774927 -0.153763
-0.0930375 0.0774597 -0.153765
0.0661891 0.0770876 -0.153785
0.0941293 0.0770223 -0.153789
0.112916 0.077198 -0.157574
0.127013 0.0772824 -0.159597
0.145657 0.0772388 -0.159599
-0.351518 0.0653841 0.129032
-0.361784 0.0763439 -0.04855
-0.265854 0.0752657 -0.0349128
-0.244195 0.0763385 -0.0532112
-0.217085 0.0760552 -0.0497044
-0.184738 0.0783132 -0.0876825
-0.165619 0.0795131 -0.107942
0.0288619 0.081852 -0.15378
0.047536 0.0818057 -0.153783
-0.280927 0.0707854 0.100601
-0.285648 0.0791697 -0.0280155
-0.209638 0.0821807 -0.0773433
-0.0742252 0.0867994 -0.153768
-0.0460468 0.0867256 -0.153771
-0.381216 0.0709814 0.157562
-0.360218 0.0744454 0.106226
-0.362992 0.0778632 0.0565219
-0.364419 0.0796815 0.0300776
-0.260689 0.084809 -0.0488446
-0.230282 0.0861498 -0.0696133
-0.164509 0.0900554 -0.129195
-0.0272878 0.0913616 -0.153773
-0.0132325 0.0913228 -0.153775
0.00548933 0.0912711 -0.153777
-0.359065 0.0745571 0.157559
-0.364551 0.0798414 0.0845196
-0.368581 0.0854607 0.0067755
-0.369268 0.0864665 -0.00714207
-0.312691 0.077874 0.109702
-0.32065 0.0879267 -0.0293497
-0.107161 0.0962787 -0.153763
-0.0930375 0.0962377 -0.153765
0.0568653 0.0958025 -0.153784
0.0755078 0.0957484 -0.153786
0.103677 0.0960852 -0.159594
-0.372986 0.0924273 -0.0300322
-0.339339 0.0925903 -0.0335459
-0.202865 0.0963135 -0.0882741
-0.174557 0.0976292 -0.10681
-0.167733 0.100802 -0.149031
-0.149603 0.101104 -0.153758
-0.130726 0.101047 -0.15376
0.0335324 0.100547 -0.153781
-0.367843 0.0843512 0.126079
-0.368448 0.0852423 0.114847
-0.376312 0.0984969 -0.0522637
-0.376885 0.0996577 -0.0669035
-0.378074 0.102064 -0.0972472
-0.0695255 0.105552 -0.153768
-0.0507399 0.105492 -0.15377
-0.370136 0.0855048 0.157561
-0.294578 0.101956 -0.0444499
-0.271949 0.103038 -0.0584491
-0.24869 0.104092 -0.0721394
-0.22041 0.105139 -0.0859506
-0.169721 0.10883 -0.132637
-0.0319756 0.110118 -0.153773
-0.00855006 0.11004 -0.153775
0.0101665 0.109978 -0.153778
-0.392305 0.0892202 0.157563
-0.376131 0.098102 0.053876
-0.37718 0.100237 0.0291561
-0.354817 0.106192 -0.0408295
-0.307238 0.106195 -0.0427856
-0.111871 0.115081 -0.153763
-0.376298 0.0984314 0.0948406
-0.377312 0.100494 0.0718874
-0.379845 0.106002 0.0106024
-0.380802 0.108344 -0.0154589
-0.384708 0.117476 -0.11708
-0.200664 0.115287 -0.10012
-0.173229 0.12 -0.153755
-0.154325 0.119932 -0.153757
-0.12601 0.119829 -0.153761
0.0288619 0.11927 -0.15378
-0.376454 0.0987379 0.132959
-0.385048 0.118399 -0.0775595
-0.38691 0.124024 -0.137815
-0.388651 0.125875 -0.157597
-0.326811 0.115564 -0.0495052
-0.306626 0.116082 -0.0558724
-0.294754 0.116505 -0.0608962
-0.259055 0.117966 -0.0780058
-0.184929 0.121014 -0.11369
-0.0930376 0.124405 -0.153765
0.047536 0.123877 -0.153783
0.0709514 0.124331 -0.15959
0.0896596 0.12426 -0.159592
-0.379454 0.105032 0.106538
-0.385368 0.119268 -0.0403545
-0.368237 0.130171 -0.15373
-0.349111 0.130097 -0.153733
-0.239872 0.123724 -0.0922807
-0.0460468 0.128916 -0.153771
-0.0272878 0.128843 -0.153773
-0.0132325 0.128789 -0.153775
0.00548933 0.128716 -0.153777
-0.388266 0.129619 -0.100208
-0.330007 0.13475 -0.153735
-0.310925 0.134673 -0.153738
-0.283786 0.12784 -0.0866859
-0.220456 0.129693 -0.107728
-0.199969 0.13087 -0.120288
-0.201624 0.134232 -0.153751
-0.0695255 0.133699 -0.153768
-0.376965 0.108151 0.149986
-0.38506 0.118379 0.0517684
-0.385954 0.120862 0.0278791
-0.38837 0.130131 -0.0613239
-0.389215 0.135875 -0.116624
-0.291864 0.139319 -0.15374
-0.268069 0.13922 -0.153743
-0.249058 0.13914 -0.153745
-0.230068 0.139061 -0.153748
-0.177958 0.138843 -0.153754
-0.159049 0.138764 -0.153757
-0.140162 0.138685 -0.153759
0.0288619 0.137979 -0.15378
-0.403405 0.111118 0.157565
-0.385348 0.119162 0.0818729
-0.388468 0.130614 -0.024711
-0.121296 0.143305 -0.153762
-0.102452 0.143224 -0.153764
0.0475364 0.143199 -0.159587
-0.384796 0.117614 0.131076
-0.389558 0.140755 -0.077526
-0.379665 0.149799 -0.159533
-0.35879 0.149106 -0.154121
-0.2111 0.148404 -0.15375
-0.0507399 0.147689 -0.15377
-0.0319756 0.147605 -0.153773
-0.00855006 0.147501 -0.153775
-0.389177 0.135421 0.00817633
-0.389569 0.140912 -0.0398241
-0.389458 0.148215 -0.103697
-0.388951 0.15282 -0.143983
-0.339556 0.153707 -0.153733
-0.320463 0.153619 -0.153736
-0.0789263 0.152507 -0.153767
0.0101665 0.152097 -0.153778
-0.388015 0.128224 0.104544
-0.389465 0.148148 -0.0644312
-0.301392 0.158255 -0.153739
-0.282342 0.158165 -0.153741
-0.258561 0.158052 -0.153744
-0.23956 0.157962 -0.153746
-0.177958 0.157669 -0.153754
-0.159049 0.15758 -0.153756
-0.389489 0.138578 0.05084
-0.389587 0.1412 0.0292403
-0.389527 0.146665 -0.0157791
-0.140162 0.162191 -0.153759
-0.407106 0.129353 0.157565
-0.384911 0.129241 0.157562
-0.3895 0.138778 0.0813972
-0.386417 0.164191 -0.122189
-0.385294 0.167327 -0.147341
-0.370053 0.168773 -0.159534
-0.350843 0.168677 -0.159536
-0.201624 0.167202 -0.153752
-0.121296 0.166798 -0.153762
-0.102452 0.166703 -0.153764
-0.0789263 0.166585 -0.153767
-0.06013 0.16649 -0.153769
0.0334716 0.166744 -0.159585
-0.389459 0.137753 0.119817
-0.388095 0.157721 -0.0357288
-0.331714 0.173356 -0.159744
-0.220582 0.172009 -0.153749
-0.041355 0.171083 -0.153771
-0.0179524 0.171056 -0.154508
0.00054118 0.171853 -0.161461
-0.388436 0.15599 0.0101564
-0.385204 0.167606 -0.0780113
-0.311511 0.177492 -0.155913
-0.389494 0.147862 0.100908
-0.384849 0.17018 -0.0640301
-0.386069 0.17605 -0.10732
-0.287102 0.181797 -0.15374
-0.272826 0.181719 -0.153742
-0.253809 0.181616 -0.153745
-0.177958 0.181202 -0.153754
-0.159049 0.181099 -0.153757
-0.140162 0.180996 -0.153759
-0.388024 0.158129 0.0546098
-0.380812 0.184252 -0.133645
-0.383848 0.187598 -0.157597
-0.206361 0.186068 -0.153751
-0.121296 0.185592 -0.153762
-0.102452 0.185486 -0.153764
-0.0789263 0.185355 -0.153767
-0.0601301 0.18525 -0.153769
-0.407106 0.147571 0.157565
-0.386013 0.14782 0.15497
-0.388088 0.157812 0.0849304
-0.234814 0.190941 -0.153747
-0.041743 0.190661 -0.159576
-0.0182018 0.190526 -0.159579
0.000607185 0.190418 -0.159581
-0.384918 0.16962 0.0306218
-0.38516 0.176372 -0.0156094
-0.380823 0.179896 -0.0399178
-0.32207 0.197016 -0.15954
-0.387963 0.158481 0.132567
-0.29813 0.20162 -0.159543
-0.279003 0.201504 -0.159545
-0.259898 0.20139 -0.159548
-0.18742 0.200085 -0.153753
-0.173229 0.2 -0.153755
-0.154325 0.199886 -0.153758
-0.380463 0.182865 -0.00268447
-0.211712 0.205425 -0.156897
-0.103118 0.205177 -0.159667
-0.0842012 0.205046 -0.15957
-0.384851 0.170586 0.102762
-0.381463 0.178742 0.050536
-0.240814 0.210746 -0.15955
-0.0558837 0.209581 -0.159573
-0.0370321 0.209462 -0.159576
-0.382029 0.178008 0.0802342
-0.131505 0.214778 -0.159564
-0.407107 0.169434 0.157565
-0.384911 0.169288 0.157562
-0.259898 0.220344 -0.159548
-0.188446 0.219873 -0.159557
-0.169444 0.219748 -0.159559
-0.150464 0.219623 -0.159562
-0.381278 0.178997 0.121103
-0.374823 0.189486 0.146142
-0.3844 0.189314 0.16738
