ply
format ascii 1.0
comment Created by Open3D
element vertex 933
property double x
property double y
property double z
end_header
-0.101213 -0.290443 -0.394435
-0.101234 -0.289206 -0.366476
-0.101249 -0.290817 -0.344454
-0.10127 -0.289568 -0.315777
-0.101284 -0.290967 -0.296427
-0.101299 -0.289 -0.27689
-0.101313 -0.29041 -0.257162
-0.101327 -0.288421 -0.237241
-0.101342 -0.289842 -0.217123
-0.101357 -0.291277 -0.196806
-0.101371 -0.289263 -0.176287
-0.101386 -0.29071 -0.155562
-0.101213 -0.270752 -0.394435
-0.101401 -0.288672 -0.13463
-0.101422 -0.29062 -0.10639
-0.101234 -0.269375 -0.366476
-0.101249 -0.270876 -0.344454
-0.101437 -0.288557 -0.0849581
-0.101458 -0.290528 -0.0560415
-0.10127 -0.269482 -0.315777
-0.101284 -0.270784 -0.296427
-0.101299 -0.272099 -0.27689
-0.101474 -0.28844 -0.0340935
-0.101496 -0.290434 -0.00447565
-0.101313 -0.27003 -0.257162
-0.101327 -0.271354 -0.237241
-0.101517 -0.288822 0.0255545
-0.101539 -0.290846 0.0560055
-0.101342 -0.269262 -0.217123
-0.101357 -0.270595 -0.196806
-0.101371 -0.271942 -0.176287
-0.101553 -0.288451 0.0752552
-0.101576 -0.290495 0.106409
-0.101386 -0.26982 -0.155562
-0.101401 -0.271177 -0.13463
-0.10159 -0.288071 0.126106
-0.101605 -0.289359 0.145978
-0.101619 -0.290658 0.16603
-0.101213 -0.251061 -0.394435
-0.101422 -0.269484 -0.10639
-0.101437 -0.270855 -0.0849581
-0.101634 -0.288202 0.186262
-0.101654 -0.290033 0.214895
-0.101669 -0.291355 0.235571
-0.101234 -0.249544 -0.366476
-0.101249 -0.250934 -0.344454
-0.101458 -0.269139 -0.0560415
-0.101474 -0.270525 -0.0340935
-0.101496 -0.272394 -0.00447565
-0.101684 -0.288864 0.256437
-0.101706 -0.290728 0.285972
-0.10127 -0.249396 -0.315777
-0.101284 -0.250602 -0.296427
-0.101299 -0.251818 -0.27689
-0.101517 -0.270657 0.0255545
-0.101727 -0.288741 0.315891
-0.101749 -0.290629 0.346201
-0.101313 -0.249651 -0.257162
-0.101327 -0.250875 -0.237241
-0.101342 -0.252111 -0.217123
-0.101539 -0.268895 0.0560055
-0.101553 -0.270078 0.0752552
-0.101576 -0.271993 0.106409
-0.101772 -0.288615 0.37691
-0.101357 -0.249913 -0.196806
-0.101371 -0.251156 -0.176287
-0.101386 -0.252413 -0.155562
-0.10159 -0.269486 0.126106
-0.101605 -0.27069 0.145978
-0.101619 -0.271906 0.16603
-0.101401 -0.250182 -0.13463
-0.101422 -0.25187 -0.10639
-0.101634 -0.269365 0.186262
-0.101654 -0.271077 0.214895
-0.101669 -0.272313 0.235571
-0.101213 -0.23137 -0.394435
-0.101437 -0.249611 -0.0849581
-0.101458 -0.251316 -0.0560415
-0.101684 -0.269734 0.256437
-0.101706 -0.271475 0.285972
-0.101234 -0.229712 -0.366476
-0.101249 -0.230992 -0.344454
-0.101474 -0.249026 -0.0340935
-0.101496 -0.250747 -0.00447565
-0.101517 -0.252492 0.0255545
-0.101727 -0.269363 0.315891
-0.101749 -0.271124 0.346201
-0.10127 -0.229311 -0.315777
-0.101284 -0.230419 -0.296427
-0.101299 -0.231538 -0.27689
-0.101539 -0.250603 0.0560055
-0.101553 -0.251705 0.0752552
-0.101772 -0.268981 0.37691
-0.101313 -0.229271 -0.257162
-0.101327 -0.230395 -0.237241
-0.101342 -0.231531 -0.217123
-0.101576 -0.249789 0.106409
-0.10159 -0.250901 0.126106
-0.101605 -0.252022 0.145978
-0.101357 -0.22923 -0.196806
-0.101371 -0.230371 -0.176287
-0.101386 -0.231523 -0.155562
-0.101619 -0.249403 0.16603
-0.101634 -0.250528 0.186262
-0.101654 -0.25212 0.214895
-0.101401 -0.229188 -0.13463
-0.101422 -0.230735 -0.10639
-0.101437 -0.231908 -0.0849581
-0.101669 -0.249461 0.235571
-0.101684 -0.250604 0.256437
-0.101706 -0.252221 0.285972
-0.101213 -0.211679 -0.394435
-0.101458 -0.229927 -0.0560415
-0.101474 -0.231111 -0.0340935
-0.101727 -0.249984 0.315891
-0.101749 -0.251618 0.346201
-0.101234 -0.209881 -0.366476
-0.10125 -0.21105 -0.344454
-0.101496 -0.2291 -0.00447565
-0.101517 -0.230694 0.0255545
-0.101539 -0.232311 0.0560055
-0.101772 -0.249348 0.37691
-0.10127 -0.209225 -0.315777
-0.101284 -0.210236 -0.296427
-0.101299 -0.211257 -0.27689
-0.101313 -0.212288 -0.257162
-0.101553 -0.229658 0.0752552
-0.101576 -0.231286 0.106409
-0.10159 -0.232315 0.126106
-0.101327 -0.209916 -0.237241
-0.101342 -0.21095 -0.217123
-0.101357 -0.211995 -0.196806
-0.101605 -0.22962 0.145978
-0.101619 -0.230651 0.16603
-0.101634 -0.231692 0.186262
-0.101371 -0.209586 -0.176287
-0.101386 -0.210634 -0.155562
-0.101401 -0.211693 -0.13463
-0.101654 -0.229372 0.214895
-0.101669 -0.230418 0.235571
-0.101684 -0.231474 0.256437
-0.101422 -0.209598 -0.10639
-0.101437 -0.210665 -0.0849581
-0.101458 -0.212103 -0.0560415
-0.101706 -0.229117 0.285972
-0.101727 -0.230605 0.315891
-0.101749 -0.232113 0.346201
-0.101213 -0.191988 -0.394435
-0.101474 -0.209612 -0.0340935
-0.101496 -0.21106 -0.00447565
-0.101772 -0.229714 0.37691
-0.101234 -0.19005 -0.366476
-0.10125 -0.191108 -0.344454
-0.101271 -0.192487 -0.315777
-0.101517 -0.208896 0.0255545
-0.101539 -0.21036 0.0560055
-0.101553 -0.211286 0.0752552
-0.101284 -0.190054 -0.296427
-0.101298 -0.190976 -0.27689
-0.101313 -0.191908 -0.257162
-0.101576 -0.209083 0.106409
-0.10159 -0.210013 0.126106
-0.101605 -0.210952 0.145978
-0.101619 -0.211899 0.16603
-0.101327 -0.189436 -0.237241
-0.101342 -0.19037 -0.217123
-0.101357 -0.191312 -0.196806
-0.101371 -0.192265 -0.176287
-0.101634 -0.209087 0.186262
-0.101654 -0.210416 0.214895
-0.101669 -0.211375 0.235571
-0.101684 -0.212344 0.256437
-0.101386 -0.189745 -0.155562
-0.101401 -0.190698 -0.13463
-0.101422 -0.191985 -0.10639
-0.101706 -0.209863 0.285972
-0.101727 -0.211227 0.315891
-0.101437 -0.189421 -0.0849581
-0.101458 -0.190715 -0.0560415
-0.101474 -0.191696 -0.0340935
-0.101749 -0.208707 0.346201
-0.101772 -0.21008 0.37691
-0.101213 -0.172296 -0.394435
-0.101496 -0.189413 -0.00447565
-0.101517 -0.190731 0.0255545
-0.101539 -0.192068 0.0560055
-0.101234 -0.170218 -0.366476
-0.10125 -0.171167 -0.344454
-0.101271 -0.172401 -0.315777
-0.101553 -0.189238 0.0752552
-0.101576 -0.19058 0.106409
-0.10159 -0.191428 0.126106
-0.101605 -0.192284 0.145978
-0.101284 -0.169871 -0.296427
-0.101298 -0.170696 -0.27689
-0.101313 -0.171529 -0.257162
-0.101327 -0.17237 -0.237241
-0.101619 -0.189397 0.16603
-0.101634 -0.190251 0.186262
-0.101654 -0.19146 0.214895
-0.101669 -0.192333 0.235571
-0.101342 -0.169789 -0.217123
-0.101357 -0.17063 -0.196806
-0.101371 -0.171479 -0.176287
-0.101386 -0.172337 -0.155562
-0.101684 -0.189388 0.256437
-0.101706 -0.19061 0.285972
-0.101727 -0.191848 0.315891
-0.101401 -0.169704 -0.13463
-0.101422 -0.170849 -0.10639
-0.101437 -0.171718 -0.0849581
-0.101749 -0.189201 0.346201
-0.101772 -0.190447 0.37691
-0.101458 -0.169326 -0.0560415
-0.101474 -0.170198 -0.0340935
-0.101496 -0.171374 -0.00447565
-0.101517 -0.168933 0.0255545
-0.101539 -0.170117 0.0560055
-0.101553 -0.170866 0.0752552
-0.101576 -0.172077 0.106409
-0.101213 -0.149324 -0.394435
-0.101234 -0.150387 -0.366476
-0.10125 -0.151225 -0.344454
-0.101271 -0.152316 -0.315777
-0.10159 -0.169126 0.126106
-0.101605 -0.169882 0.145978
-0.101619 -0.170644 0.16603
-0.101634 -0.171414 0.186262
-0.101285 -0.149688 -0.296427
-0.101298 -0.150415 -0.27689
-0.101313 -0.151149 -0.257162
-0.101327 -0.15189 -0.237241
-0.101654 -0.168712 0.214895
-0.101669 -0.169481 0.235571
-0.101684 -0.170258 0.256437
-0.101706 -0.171356 0.285972
-0.101727 -0.17247 0.315891
-0.101342 -0.149209 -0.217123
-0.101356 -0.149948 -0.196806
-0.101371 -0.150694 -0.176287
-0.101386 -0.151448 -0.155562
-0.101401 -0.152209 -0.13463
-0.101749 -0.169696 0.346201
-0.101772 -0.170813 0.37691
-0.101422 -0.149713 -0.10639
-0.101437 -0.150475 -0.0849581
-0.101458 -0.151502 -0.0560415
-0.101474 -0.152282 -0.0340935
-0.101496 -0.149727 -0.00447565
-0.101517 -0.150769 0.0255545
-0.101539 -0.151825 0.0560055
-0.101553 -0.152493 0.0752552
-0.101576 -0.149873 0.106409
-0.10159 -0.15054 0.126106
-0.101605 -0.151213 0.145978
-0.101619 -0.151892 0.16603
-0.101213 -0.129633 -0.394435
-0.101234 -0.130556 -0.366476
-0.10125 -0.131283 -0.344454
-0.101271 -0.13223 -0.315777
-0.101634 -0.14881 0.186262
-0.101654 -0.149756 0.214895
-0.101669 -0.150438 0.235571
-0.101684 -0.151128 0.256437
-0.101706 -0.152103 0.285972
-0.101285 -0.129505 -0.296427
-0.101299 -0.130134 -0.27689
-0.101313 -0.130769 -0.257162
-0.101327 -0.131411 -0.237241
-0.101341 -0.132058 -0.217123
-0.101727 -0.149215 0.315891
-0.101749 -0.150191 0.346201
-0.101772 -0.151179 0.37691
-0.101356 -0.129265 -0.196806
-0.101371 -0.129908 -0.176287
-0.101386 -0.130558 -0.155562
-0.101401 -0.131215 -0.13463
-0.101422 -0.1321 -0.10639
-0.101437 -0.129231 -0.0849581
-0.101458 -0.130114 -0.0560415
-0.101474 -0.130783 -0.0340935
-0.101496 -0.131687 -0.00447565
-0.101517 -0.128971 0.0255545
-0.101539 -0.129875 0.0560055
-0.101553 -0.130446 0.0752552
-0.101576 -0.131371 0.106409
-0.10159 -0.131955 0.126106
-0.101605 -0.128811 0.145978
-0.101619 -0.12939 0.16603
-0.101634 -0.129973 0.186262
-0.101654 -0.130799 0.214895
-0.101669 -0.131396 0.235571
-0.101684 -0.131997 0.256437
-0.101213 -0.109942 -0.394435
-0.101234 -0.110725 -0.366476
-0.10125 -0.111341 -0.344454
-0.101271 -0.112145 -0.315777
-0.101706 -0.128999 0.285972
-0.101727 -0.129837 0.315891
-0.101749 -0.130686 0.346201
-0.101772 -0.131546 0.37691
-0.101285 -0.109323 -0.296427
-0.101299 -0.109854 -0.27689
-0.101313 -0.11039 -0.257162
-0.101327 -0.110931 -0.237241
-0.101341 -0.111478 -0.217123
-0.101356 -0.11203 -0.196806
-0.101371 -0.109123 -0.176287
-0.101386 -0.109669 -0.155562
-0.101401 -0.11022 -0.13463
-0.101422 -0.110964 -0.10639
-0.101437 -0.111528 -0.0849581
-0.101458 -0.11229 -0.0560415
-0.101474 -0.109285 -0.0340935
-0.101496 -0.11004 -0.00447565
-0.101517 -0.110806 0.0255545
-0.101539 -0.111582 0.0560055
-0.101553 -0.112073 0.0752552
-0.101576 -0.109167 0.106409
-0.10159 -0.109653 0.126106
-0.101605 -0.110143 0.145978
-0.101619 -0.110638 0.16603
-0.101634 -0.111137 0.186262
-0.101654 -0.111843 0.214895
-0.101669 -0.112353 0.235571
-0.101684 -0.109041 0.256437
-0.101706 -0.109745 0.285972
-0.101727 -0.110458 0.315891
-0.101749 -0.11118 0.346201
-0.101772 -0.111912 0.37691
-0.101213 -0.0902506 -0.394435
-0.101234 -0.0908934 -0.366476
-0.10125 -0.0913997 -0.344454
-0.101271 -0.092059 -0.315777
-0.101285 -0.0891401 -0.296427
-0.101299 -0.089573 -0.27689
-0.101313 -0.09001 -0.257162
-0.101328 -0.0904514 -0.237241
-0.101341 -0.0908972 -0.217123
-0.101356 -0.0913474 -0.196806
-0.101371 -0.091802 -0.176287
-0.101386 -0.0922611 -0.155562
-0.101401 -0.0892259 -0.13463
-0.101422 -0.0898279 -0.10639
-0.101437 -0.0902848 -0.0849581
-0.101458 -0.0909013 -0.0560415
-0.101474 -0.0913693 -0.0340935
-0.101496 -0.0920007 -0.00447565
-0.101517 -0.089008 0.0255545
-0.101539 -0.0896317 0.0560055
-0.101553 -0.090026 0.0752552
-0.101576 -0.0906642 0.106409
-0.10159 -0.0910676 0.126106
-0.101605 -0.0914747 0.145978
-0.101619 -0.0918854 0.16603
-0.101634 -0.0922998 0.186262
-0.101654 -0.0890951 0.214895
-0.101669 -0.0895013 0.235571
-0.101684 -0.0899113 0.256437
-0.101706 -0.0904916 0.285972
-0.101727 -0.0910794 0.315891
-0.101749 -0.0916749 0.346201
-0.101772 -0.0922783 0.37691
-0.101213 -0.0705595 -0.394435
-0.101234 -0.0710621 -0.366476
-0.10125 -0.0714579 -0.344454
-0.101271 -0.0719734 -0.315777
-0.101285 -0.0723212 -0.296427
-0.101299 -0.0692923 -0.27689
-0.101313 -0.0696304 -0.257162
-0.101328 -0.0699719 -0.237241
-0.101341 -0.0703167 -0.217123
-0.101356 -0.070665 -0.196806
-0.101371 -0.0710166 -0.176287
-0.101386 -0.0713718 -0.155562
-0.101401 -0.0717306 -0.13463
-0.101422 -0.0722146 -0.10639
-0.101437 -0.0690414 -0.0849581
-0.101458 -0.0695128 -0.0560415
-0.101474 -0.0698706 -0.0340935
-0.101496 -0.0703535 -0.00447565
-0.101517 -0.0708431 0.0255545
-0.101539 -0.0713395 0.0560055
-0.101553 -0.0716534 0.0752552
-0.101576 -0.0721613 0.106409
-0.10159 -0.0724824 0.126106
-0.101605 -0.0690727 0.145978
-0.101619 -0.0693829 0.16603
-0.101634 -0.0696958 0.186262
-0.101654 -0.0701387 0.214895
-0.101669 -0.0704585 0.235571
-0.101684 -0.0707813 0.256437
-0.101706 -0.0712381 0.285972
-0.101727 -0.0717008 0.315891
-0.101749 -0.0721697 0.346201
-0.101772 -0.0687179 0.37691
-0.101213 -0.0508685 -0.394435
-0.101234 -0.0512308 -0.366476
-0.10125 -0.0515162 -0.344454
-0.101271 -0.0518878 -0.315777
-0.101285 -0.0521386 -0.296427
-0.101299 -0.0523917 -0.27689
-0.101313 -0.0492508 -0.257162
-0.101328 -0.0494923 -0.237241
-0.101343 -0.0497362 -0.217123
-0.101356 -0.0499825 -0.196806
-0.101371 -0.0502313 -0.176287
-0.101386 -0.0504825 -0.155562
-0.101401 -0.0507363 -0.13463
-0.101422 -0.0510786 -0.106389
-0.101437 -0.0513384 -0.0849581
-0.101458 -0.051689 -0.0560415
-0.101474 -0.0519551 -0.0340935
-0.101496 -0.0523141 -0.00447565
-0.101517 -0.0490452 0.0255545
-0.101539 -0.0493889 0.0560055
-0.101553 -0.0496062 0.0752552
-0.101576 -0.0499578 0.106409
-0.10159 -0.0501801 0.126106
-0.101605 -0.0504044 0.145978
-0.101619 -0.0506307 0.16603
-0.101634 -0.0508591 0.186262
-0.101654 -0.0511823 0.214895
-0.101669 -0.0514157 0.235571
-0.101684 -0.0516512 0.256437
-0.101706 -0.0519845 0.285972
-0.101727 -0.0523222 0.315891
-0.101749 -0.0487633 0.346201
-0.101772 -0.0490842 0.37691
-0.101213 -0.0311775 -0.394435
-0.101234 -0.0313995 -0.366476
-0.10125 -0.0315744 -0.344454
-0.101271 -0.0318022 -0.315777
-0.101285 -0.0319559 -0.296427
-0.101299 -0.0321111 -0.27689
-0.101313 -0.0322678 -0.257162
-0.101328 -0.032426 -0.237241
-0.101343 -0.0291557 -0.217123
-0.101357 -0.0293001 -0.196806
-0.101371 -0.0294459 -0.176287
-0.101386 -0.0295932 -0.155562
-0.101401 -0.029742 -0.134629
-0.101422 -0.0299426 -0.106389
-0.101437 -0.0300949 -0.0849581
-0.101458 -0.0303004 -0.0560415
-0.101474 -0.0304564 -0.0340935
-0.101496 -0.0306669 -0.00447565
-0.101517 -0.0308803 0.0255545
-0.101539 -0.0310967 0.0560055
-0.101553 -0.0312335 0.0752552
-0.101576 -0.0314549 0.106409
-0.10159 -0.0315949 0.126106
-0.101605 -0.0317361 0.145978
-0.101619 -0.0318786 0.16603
-0.101634 -0.0320224 0.186262
-0.101654 -0.0322259 0.214895
-0.101669 -0.0323728 0.235571
-0.101684 -0.0286951 0.256437
-0.101706 -0.0288803 0.285972
-0.101727 -0.0290679 0.315891
-0.101749 -0.029258 0.346201
-0.101772 -0.0294505 0.37691
-0.101213 -0.0114864 -0.394435
-0.101234 -0.0115682 -0.366476
-0.10125 -0.0116327 -0.344454
-0.101271 -0.0117166 -0.315777
-0.101285 -0.0117732 -0.296427
-0.101299 -0.0118304 -0.27689
-0.101313 -0.0118881 -0.257162
-0.101328 -0.0119464 -0.237241
-0.101343 -0.0120053 -0.217123
-0.101357 -0.0120647 -0.196806
-0.101372 -0.0121248 -0.176287
-0.101386 -0.0121854 -0.155562
-0.101401 -0.0122467 -0.134629
-0.101421 -0.0123293 -0.106389
-0.101437 -0.012392 -0.0849581
-0.101458 -0.0124767 -0.0560414
-0.101474 -0.00895778 -0.0340935
-0.101496 -0.00901968 -0.00447562
-0.101517 -0.00908245 0.0255546
-0.101539 -0.0091461 0.0560055
-0.101553 -0.00918634 0.0752552
-0.101576 -0.00925145 0.106409
-0.10159 -0.00929262 0.126106
-0.101605 -0.00933416 0.145978
-0.101619 -0.00937607 0.16603
-0.101634 -0.00941836 0.186262
-0.101654 -0.00947821 0.214895
-0.101669 -0.00952142 0.235571
-0.101684 -0.00956504 0.256437
-0.101706 -0.00962677 0.285972
-0.101727 -0.00968931 0.315891
-0.101749 -0.00975266 0.346201
-0.101772 -0.00981685 0.37691
-0.101213 0.0082046 -0.394435
-0.101234 0.00826304 -0.366476
-0.10125 0.00830907 -0.344454
-0.101271 0.00836901 -0.315777
-0.101285 0.00840945 -0.296427
-0.101299 0.00845028 -0.27689
-0.101313 0.00849152 -0.257162
-0.101328 0.00853316 -0.237241
-0.101343 0.00857521 -0.217123
-0.101357 0.00861767 -0.196806
-0.101372 0.00866056 -0.176287
-0.101387 0.00870388 -0.155562
-0.101401 0.00874764 -0.134629
-0.101421 0.00880667 -0.106389
-0.101437 0.00885146 -0.0849581
-0.101458 0.00891191 -0.0560414
-0.101474 0.00895778 -0.0340934
-0.101495 0.00901969 -0.00447559
-0.101517 0.00908245 0.0255546
-0.101539 0.0091461 0.0560055
-0.101553 0.00918634 0.0752552
-0.101576 0.00925145 0.106409
-0.10159 0.00929262 0.126106
-0.101605 0.00933416 0.145978
-0.101619 0.00937607 0.16603
-0.101634 0.00941836 0.186262
-0.101654 0.00947821 0.214895
-0.101669 0.00952142 0.235571
-0.101684 0.00956504 0.256437
-0.101706 0.00962677 0.285972
-0.101727 0.00968931 0.315891
-0.101749 0.00975266 0.346201
-0.101772 0.00981685 0.37691
-0.101548 0.0275106 0.067535
-0.101564 0.0276563 0.0907771
-0.101579 0.027779 0.110335
-0.101593 0.0279027 0.130066
-0.101607 0.0280275 0.149974
-0.101622 0.0281535 0.170061
-0.101637 0.0282806 0.19033
-0.101651 0.0284088 0.210782
-0.101666 0.0285382 0.231421
-0.101678 0.0286426 0.248067
-0.101694 0.0287742 0.269048
-0.101709 0.028907 0.290222
-0.101724 0.029041 0.311593
-0.101737 0.0291491 0.328832
-0.101753 0.0292853 0.350563
-0.101765 0.0293953 0.368094
-0.101781 0.0295338 0.390195
-0.101213 0.0278956 -0.394435
-0.101234 0.0280943 -0.366476
-0.10125 0.0282508 -0.344454
-0.101271 0.0284546 -0.315777
-0.101285 0.0285921 -0.296427
-0.101299 0.0287309 -0.27689
-0.101313 0.0288711 -0.257162
-0.101328 0.0290127 -0.237241
-0.101343 0.0291557 -0.217123
-0.101357 0.0293001 -0.196806
-0.101372 0.0294459 -0.176287
-0.101387 0.0295931 -0.155562
-0.101401 0.029742 -0.134629
-0.101421 0.0299427 -0.106389
-0.101437 0.030095 -0.084958
-0.101458 0.0303005 -0.0560414
-0.101474 0.0304564 -0.0340934
-0.101495 0.0306669 -0.00447559
-0.101517 0.0308803 0.0255546
-0.101663 0.0475204 0.227278
-0.101684 0.0478251 0.256437
-0.101706 0.0481338 0.285972
-0.101727 0.0484465 0.315891
-0.101749 0.0487632 0.346201
-0.101772 0.0490842 0.37691
-0.101419 0.0475159 -0.10994
-0.101432 0.047717 -0.092126
-0.101447 0.0479605 -0.0705489
-0.10146 0.0481654 -0.052399
-0.101476 0.0484135 -0.0304134
-0.10149 0.0486223 -0.0119183
-0.101506 0.0488752 0.0104875
-0.10152 0.0490879 0.0293378
-0.101534 0.0493025 0.0483528
-0.101548 0.0495191 0.067535
-0.101564 0.0497814 0.0907771
-0.101579 0.0500021 0.110335
-0.101593 0.0502248 0.130066
-0.101607 0.0504495 0.149974
-0.101622 0.0506763 0.170061
-0.101637 0.050905 0.19033
-0.101651 0.0511359 0.210782
-0.101213 0.0475867 -0.394435
-0.101234 0.0479256 -0.366476
-0.10125 0.0481926 -0.344454
-0.101271 0.0485402 -0.315777
-0.101285 0.0487748 -0.296427
-0.101299 0.0490116 -0.27689
-0.101313 0.0492508 -0.257162
-0.101328 0.0494923 -0.237241
-0.101343 0.0497362 -0.217123
-0.101357 0.0499825 -0.196806
-0.101372 0.0502312 -0.176287
-0.101387 0.0504825 -0.155562
-0.101403 0.0507362 -0.13463
-0.101712 0.0675118 0.29448
-0.101727 0.0678251 0.315891
-0.101749 0.0682686 0.346201
-0.101772 0.0687179 0.37691
-0.101531 0.0675037 0.0445366
-0.101539 0.0676811 0.0560056
-0.101553 0.0679789 0.0752552
-0.101576 0.0684607 0.106409
-0.10159 0.0687654 0.126106
-0.101605 0.0690727 0.145978
-0.101619 0.0693829 0.16603
-0.101634 0.0696958 0.186262
-0.101654 0.0701387 0.214895
-0.101669 0.0704585 0.235571
-0.101684 0.0707813 0.256437
-0.101372 0.0675523 -0.176287
-0.101387 0.0678902 -0.155562
-0.101403 0.0682314 -0.13463
-0.101423 0.0686919 -0.10639
-0.101437 0.0690414 -0.084958
-0.101458 0.0695128 -0.0560414
-0.101474 0.0698706 -0.0340934
-0.101495 0.0703535 -0.0044755
-0.101225 0.0675431 -0.378951
-0.101238 0.0678643 -0.360209
-0.101252 0.0681886 -0.341288
-0.101266 0.068516 -0.322185
-0.101282 0.068902 -0.299665
-0.101297 0.0692363 -0.280159
-0.101311 0.0695738 -0.260464
-0.101325 0.0699147 -0.240575
-0.10134 0.070259 -0.22049
-0.101355 0.0706066 -0.200206
-0.101512 0.0779734 0.0180079
-0.10174 0.0875286 0.333162
-0.101749 0.0877739 0.346201
-0.101772 0.0883516 0.37691
-0.101596 0.0875064 0.134034
-0.101604 0.0877411 0.145978
-0.101619 0.088135 0.16603
-0.101634 0.0885325 0.186262
-0.101654 0.0890951 0.214895
-0.101669 0.0895014 0.235571
-0.101684 0.0899113 0.256437
-0.101706 0.0904916 0.285972
-0.101466 0.0875609 -0.0450955
-0.101474 0.0877862 -0.0340934
-0.101495 0.0883929 -0.00447547
-0.101531 0.0893968 0.0445366
-0.101539 0.0896318 0.0560056
-0.101553 0.0900261 0.0752552
-0.101576 0.0906642 0.106409
-0.101345 0.087539 -0.213751
-0.101365 0.0881184 -0.186572
-0.10138 0.088558 -0.165951
-0.101395 0.0890021 -0.145122
-0.101403 0.0892258 -0.13463
-0.101423 0.0898278 -0.10639
-0.101437 0.0902849 -0.084958
-0.101232 0.0875189 -0.369603
-0.101245 0.0879361 -0.350771
-0.101259 0.0883573 -0.331759
-0.101275 0.0888539 -0.309348
-0.101289 0.0892839 -0.289936
-0.101304 0.0897182 -0.270335
-0.101318 0.0901567 -0.250543
-0.101333 0.0905995 -0.230557
-0.101213 0.0902506 -0.394435
-0.101511 0.0997335 0.018008
-0.101759 0.107581 0.359312
-0.101775 0.108087 0.38133
-0.101639 0.107563 0.194406
-0.101654 0.108051 0.214895
-0.101669 0.108544 0.235571
-0.101684 0.109041 0.256437
-0.101706 0.109745 0.285972
-0.101727 0.110458 0.315891
-0.101528 0.107547 0.040727
-0.101542 0.108019 0.0598421
-0.101556 0.108494 0.0791255
-0.10157 0.108974 0.0985794
-0.101584 0.109458 0.118206
-0.101599 0.109946 0.138008
-0.101613 0.110439 0.157988
-0.101426 0.107532 -0.102833
-0.101439 0.107988 -0.0849584
-0.101458 0.108725 -0.0560413
-0.101474 0.109285 -0.0340934
-0.101495 0.11004 -0.00447547
-0.101743 0.11876 0.3375
-0.101328 0.107518 -0.237241
-0.101343 0.108048 -0.217123
-0.101357 0.108583 -0.196806
-0.101372 0.109123 -0.176287
-0.101387 0.109669 -0.155562
-0.101403 0.11022 -0.13463
-0.101236 0.107505 -0.363345
-0.10125 0.108018 -0.344454
-0.101271 0.108797 -0.315777
-0.101285 0.109323 -0.296427
-0.101299 0.109854 -0.27689
-0.101313 0.11039 -0.257162
-0.101772 0.127619 0.37691
-0.101213 0.109942 -0.394435
-0.101669 0.127587 0.235571
-0.101684 0.128171 0.256437
-0.101706 0.128999 0.285972
-0.101727 0.129837 0.315891
-0.101762 0.131176 0.363699
-0.101573 0.127557 0.102491
-0.101584 0.12801 0.118206
-0.101598 0.128581 0.138008
-0.101613 0.129158 0.157988
-0.101628 0.129739 0.178147
-0.101642 0.130326 0.198489
-0.101657 0.130918 0.219015
-0.101481 0.127529 -0.0230343
-0.101495 0.12808 -0.00447544
-0.101517 0.128971 0.0255547
-0.101539 0.129875 0.0560057
-0.101553 0.130446 0.0752552
-0.101398 0.127502 -0.141631
-0.101413 0.128145 -0.120557
-0.101428 0.128794 -0.0992701
-0.10144 0.129341 -0.081365
-0.101456 0.130003 -0.0596777
-0.10147 0.130559 -0.0414348
-0.101318 0.12758 -0.250543
-0.101333 0.128207 -0.230557
-0.101348 0.12884 -0.210373
-0.101362 0.129479 -0.189989
-0.101377 0.130124 -0.169402
-0.101778 0.14753 0.385758
-0.101241 0.127554 -0.357068
-0.10125 0.12796 -0.344454
-0.101271 0.128883 -0.315777
-0.101285 0.129505 -0.296427
-0.101299 0.130134 -0.27689
-0.10169 0.147572 0.264837
-0.101706 0.148252 0.285972
-0.101727 0.149215 0.315891
-0.101749 0.150191 0.346201
-0.101213 0.129633 -0.394435
-0.101607 0.147612 0.149974
-0.101622 0.148275 0.170062
-0.101636 0.148944 0.19033
-0.101651 0.14962 0.210782
-0.101666 0.150301 0.231421
-0.101526 0.147521 0.0369238
-0.101539 0.148167 0.0560057
-0.101553 0.148819 0.0752553
-0.101575 0.149874 0.106409
-0.10159 0.15054 0.126106
-0.101451 0.14756 -0.0669315
-0.101467 0.148317 -0.0450958
-0.101474 0.148699 -0.0340936
-0.101496 0.149727 -0.00447574
-0.10138 0.147597 -0.165951
-0.101395 0.148337 -0.145122
-0.101401 0.14871 -0.13463
-0.101422 0.149713 -0.10639
-0.101784 0.167516 0.39464
-0.101309 0.147512 -0.263759
-0.101328 0.148477 -0.237241
-0.101343 0.149208 -0.217123
-0.101357 0.149947 -0.196806
-0.101706 0.167506 0.285972
-0.101727 0.168594 0.315891
-0.101749 0.169696 0.346201
-0.101243 0.147549 -0.353922
-0.101257 0.148255 -0.334941
-0.101278 0.149327 -0.306125
-0.101292 0.150051 -0.286682
-0.101633 0.167647 0.186262
-0.101654 0.168712 0.214895
-0.101669 0.169481 0.235571
-0.101684 0.170258 0.256437
-0.101213 0.149324 -0.394435
-0.101234 0.150387 -0.366476
-0.101562 0.167634 0.0868863
-0.101576 0.168376 0.106409
-0.101591 0.169126 0.126106
-0.101604 0.169882 0.145979
-0.101619 0.170644 0.16603
-0.101765 0.178331 0.368094
-0.101493 0.167621 -0.00820029
-0.101507 0.168348 0.0104873
-0.10152 0.169081 0.0293376
-0.101534 0.16982 0.0483527
-0.101548 0.170566 0.0675349
-0.101427 0.167609 -0.0992699
-0.10144 0.16832 -0.0813651
-0.101456 0.169182 -0.0596777
-0.101469 0.169906 -0.0414346
-0.101364 0.167598 -0.186572
-0.101379 0.168434 -0.16595
-0.101394 0.169279 -0.145122
-0.101402 0.169704 -0.13463
-0.101721 0.187624 0.307303
-0.10174 0.188673 0.333162
-0.101749 0.189201 0.346201
-0.101778 0.190805 0.385758
-0.101304 0.167587 -0.270335
-0.101318 0.168406 -0.250543
-0.101333 0.169233 -0.230557
-0.101348 0.170068 -0.210373
-0.101654 0.187668 0.214895
-0.101669 0.188524 0.235571
-0.101684 0.189388 0.256437
-0.101706 0.19061 0.285972
-0.101245 0.167576 -0.350771
-0.101259 0.168379 -0.331759
-0.101275 0.169325 -0.309348
-0.101289 0.170145 -0.289936
-0.101587 0.187544 0.122152
-0.101599 0.188213 0.138008
-0.101613 0.189057 0.157987
-0.101628 0.189908 0.178147
-0.101765 0.197928 0.368094
-0.101213 0.169015 -0.394435
-0.101234 0.170218 -0.366476
-0.101526 0.187588 0.0369238
-0.10154 0.18841 0.0560055
-0.101554 0.189238 0.075255
-0.101466 0.18763 -0.0450957
-0.101474 0.188113 -0.0340935
-0.101496 0.189413 -0.00447568
-0.101407 0.187514 -0.127605
-0.10142 0.188304 -0.10994
-0.101432 0.1891 -0.0921262
-0.101448 0.190066 -0.070549
-0.10157 0.197631 0.0985792
-0.10173 0.207544 0.320196
-0.101743 0.208318 0.3375
-0.101781 0.210675 0.390195
-0.101352 0.187556 -0.203601
-0.101372 0.1888 -0.176287
-0.101386 0.189745 -0.155562
-0.101512 0.197653 0.0180078
-0.101669 0.207567 0.235571
-0.101685 0.208518 0.256437
-0.101706 0.209863 0.285972
-0.101299 0.187596 -0.27689
-0.101313 0.188512 -0.257162
-0.101327 0.189436 -0.237241
-0.101342 0.19037 -0.217123
-0.10161 0.207589 0.153977
-0.101619 0.208149 0.166029
-0.101634 0.209087 0.186261
-0.101654 0.210416 0.214895
-0.101765 0.217525 0.368094
-0.101248 0.187635 -0.347615
-0.101259 0.188384 -0.331759
-0.101275 0.189443 -0.309348
-0.101553 0.207611 0.0752551
-0.10159 0.210013 0.126106
-0.101213 0.188706 -0.394435
-0.101234 0.19005 -0.366476
-0.101498 0.207632 -0.000744611
-0.101529 0.209626 0.0407268
-0.101542 0.210545 0.0598419
-0.101445 0.207652 -0.0741605
-0.101466 0.209074 -0.0450957
-0.101474 0.209612 -0.0340935
-0.10174 0.227574 0.333162
-0.101749 0.228212 0.346201
-0.101778 0.230147 0.385758
-0.101394 0.207672 -0.145122
-0.101402 0.208194 -0.13463
-0.101422 0.209599 -0.10639
-0.101576 0.220184 0.106409
-0.101685 0.227648 0.256437
-0.101706 0.229117 0.285972
-0.101342 0.20752 -0.217123
-0.101357 0.208548 -0.196806
-0.101371 0.209586 -0.176287
-0.101512 0.219413 0.0180079
-0.101628 0.227514 0.178147
-0.101642 0.228543 0.198489
-0.101657 0.229581 0.219015
-0.101672 0.230629 0.239729
-0.101294 0.207541 -0.283424
-0.101313 0.208891 -0.257162
-0.101327 0.209916 -0.237241
-0.101435 0.217561 -0.0885452
-0.10159 0.228598 0.126106
-0.101605 0.22962 0.145978
0.0821352 0.279752 0.368699
-0.101248 0.207561 -0.347615
-0.101259 0.20839 -0.331759
-0.101275 0.209561 -0.309348
-0.101526 0.227655 0.0369239
-0.101539 0.228652 0.0560055
-0.101553 0.229658 0.0752552
0.0821975 0.27993 0.28504
0.0821772 0.281458 0.314272
0.0821619 0.282485 0.333937
0.0821463 0.28352 0.353746
-0.101213 0.208397 -0.394435
-0.101234 0.209881 -0.366476
-0.101474 0.227527 -0.0340935
-0.101496 0.2291 -0.00447565
0.0822588 0.279853 0.199219
0.0822462 0.280853 0.218052
0.0822291 0.282113 0.241784
0.0822153 0.283129 0.260922
-0.101448 0.229145 -0.070549
-0.101461 0.230123 -0.0523991
0.0822968 0.281504 0.148114
0.08228 0.28275 0.17122
-0.101381 0.227662 -0.162494
-0.101396 0.228805 -0.14163
-0.101412 0.229959 -0.120557
-0.101335 0.22754 -0.227207
-0.101349 0.228664 -0.20699
-0.101364 0.229799 -0.186572
-0.101291 0.227605 -0.286682
-0.101306 0.228713 -0.26705
-0.10132 0.229832 -0.247226
-0.10125 0.227668 -0.344454
-0.10127 0.229311 -0.315777
0.0825348 0.279961 -0.183642
0.0825154 0.281588 -0.155235
-0.101213 0.228088 -0.394435
-0.101234 0.229712 -0.366476
0.0825864 0.27989 -0.255203
0.0825722 0.281033 -0.235536
0.0825638 0.281723 -0.223659
0.0825492 0.282881 -0.203733
0.0826364 0.279821 -0.3247
0.0826144 0.281627 -0.294062
0.0794322 0.280088 -0.373365
0.08266 0.281982 -0.354948
