ply
format ascii 1.0
comment Created by Open3D
element vertex 852
property double x
property double y
property double z
end_header
-0.261241 -0.249023 0.287216
-0.251694 -0.241323 0.312209
-0.230874 -0.242421 0.319433
-0.208996 -0.251031 0.307323
-0.261241 -0.232352 0.287216
-0.208996 -0.232125 0.307323
-0.251694 -0.221128 0.312209
-0.230874 -0.222135 0.319433
-0.261241 -0.211513 0.287216
-0.208996 -0.211118 0.307323
-0.254851 -0.201503 0.308869
-0.22639 -0.196607 0.318851
0.20668 -0.255011 0.302291
0.218104 -0.252677 0.315818
0.241646 -0.255125 0.318913
-0.261241 -0.190675 0.287216
-0.208996 -0.192212 0.307323
-0.248323 -0.182489 0.314792
0.208827 -0.254606 0.275582
-0.230874 -0.175477 0.319433
0.204938 -0.236927 0.29696
0.241646 -0.235818 0.318913
-0.261241 -0.17192 0.287216
0.208827 -0.234693 0.275582
0.218104 -0.225361 0.315818
-0.208996 -0.171205 0.307323
0.241646 -0.224785 0.318913
-0.250007 -0.162444 0.313502
0.205638 -0.216911 0.299789
-0.230874 -0.157219 0.319433
0.208827 -0.21478 0.275582
0.223112 -0.206271 0.318119
-0.261241 -0.151081 0.287216
-0.208996 -0.152299 0.307323
0.20668 -0.197117 0.302291
0.241646 -0.197204 0.318913
-0.251694 -0.14237 0.312209
0.223112 -0.187147 0.318119
-0.230874 -0.136933 0.319433
-0.258919 -0.253905 -0.277734
-0.235125 -0.253116 -0.262355
-0.223539 -0.254622 -0.263978
0.208827 -0.186332 0.275582
0.207717 -0.177413 0.304782
0.23667 -0.177225 0.319785
-0.261241 -0.132326 0.287216
-0.208996 -0.131292 0.307323
-0.235125 -0.233794 -0.262355
-0.251694 -0.122176 0.312209
0.218104 -0.165264 0.315818
-0.258919 -0.22677 -0.277734
-0.223539 -0.22741 -0.263978
0.208827 -0.166419 0.275582
-0.230874 -0.116646 0.319433
0.241646 -0.155833 0.318913
-0.255844 -0.214615 -0.273244
-0.24238 -0.2141 -0.263768
0.207878 -0.25464 -0.275426
0.231603 -0.25425 -0.261663
-0.210329 -0.214634 -0.273624
0.204409 -0.253656 -0.297993
-0.261241 -0.111487 0.287216
-0.208996 -0.112386 0.307323
0.20668 -0.147493 0.302291
0.218104 -0.146143 0.315818
0.241646 -0.1448 0.318913
0.208827 -0.146505 0.275582
-0.261595 -0.196749 -0.285227
-0.249307 -0.194817 -0.267166
-0.254851 -0.10227 0.308869
-0.210329 -0.194943 -0.273624
0.203887 -0.228666 -0.287283
0.218011 -0.226323 -0.265462
0.243508 -0.228023 -0.263906
-0.22639 -0.0967756 0.318851
0.237155 -0.213486 -0.262123
0.21063 -0.127494 0.308976
-0.261595 -0.177269 -0.285227
-0.23137 -0.176091 -0.26235
0.203887 -0.210188 -0.287283
0.204226 -0.126949 0.290609
0.218011 -0.203462 -0.265462
-0.261241 -0.0906486 0.287216
-0.208996 -0.0913794 0.307323
-0.255844 -0.164345 -0.273244
-0.24238 -0.163951 -0.263768
-0.210329 -0.167375 -0.273624
0.229034 -0.116294 0.319655
0.204409 -0.193151 -0.297993
0.243508 -0.19117 -0.263906
-0.254851 -0.0820186 0.308869
-0.215068 -0.154663 -0.26875
0.207878 -0.176643 -0.275426
0.204226 -0.107418 0.290609
0.21063 -0.105559 0.308976
-0.261595 -0.146101 -0.285227
-0.249307 -0.144666 -0.267166
-0.22639 -0.0764018 0.318851
0.204409 -0.174534 -0.297993
0.231603 -0.167209 -0.261663
-0.261595 -0.134413 -0.285227
-0.219441 -0.134516 -0.265667
-0.261241 -0.0718937 0.287216
-0.208996 -0.0724733 0.307323
0.23667 -0.0947949 0.319785
0.207878 -0.153702 -0.275426
0.231603 -0.153466 -0.261663
0.204409 -0.146608 -0.297993
0.204938 -0.087289 0.29696
0.223112 -0.0860601 0.318119
-0.251694 -0.0615928 0.312209
0.208827 -0.0867653 0.275582
-0.261595 -0.114933 -0.285227
-0.255844 -0.114075 -0.273244
-0.24238 -0.113801 -0.263768
0.218011 -0.134879 -0.265462
0.203887 -0.131656 -0.287283
0.243508 -0.131286 -0.263906
-0.219441 -0.107223 -0.265667
-0.230874 -0.0557874 0.319433
-0.255844 -0.0947399 -0.273244
-0.24238 -0.0945128 -0.263768
-0.261241 -0.0510549 0.287216
-0.208996 -0.0514666 0.307323
0.204409 -0.114029 -0.297993
0.207717 -0.0673895 0.304782
0.223112 -0.0669357 0.318119
0.23667 -0.0673181 0.319785
0.218011 -0.107446 -0.265462
0.243508 -0.108253 -0.263906
0.208827 -0.0668519 0.275582
-0.223539 -0.0874654 -0.263978
-0.251694 -0.0413984 0.312209
0.207878 -0.0940564 -0.275426
0.231603 -0.0939121 -0.261663
-0.261595 -0.0759724 -0.285227
0.204409 -0.0861033 -0.297993
-0.245882 -0.0674952 -0.265219
-0.230874 -0.035501 0.319433
-0.261595 -0.0642843 -0.285227
-0.223539 -0.0641413 -0.263978
0.208827 -0.0469386 0.275582
0.207717 -0.0453847 0.304782
0.223112 -0.0450791 0.318119
0.23667 -0.0453367 0.319785
-0.261241 -0.0323001 0.287216
0.203887 -0.0716025 -0.287283
0.243508 -0.071401 -0.263906
-0.208996 -0.0304598 0.307323
0.218011 -0.0662965 -0.265462
-0.261595 -0.0448042 -0.285227
-0.255844 -0.0444698 -0.273244
-0.24238 -0.0443632 -0.263768
-0.219441 -0.0448387 -0.265667
0.204409 -0.0535237 -0.297993
-0.251694 -0.0212041 0.312209
0.243508 -0.0483684 -0.263906
0.207878 -0.0435871 -0.275426
0.208827 -0.0270253 0.275582
0.207717 -0.0261306 0.304782
0.223112 -0.0259547 0.318119
0.23667 -0.026103 0.319785
-0.230874 -0.0172434 0.319433
0.204409 -0.0349067 -0.297993
0.231603 -0.0343581 -0.261663
-0.261241 -0.0114613 0.287216
-0.208996 -0.0115537 0.307323
-0.258919 -0.0174439 -0.277734
-0.235125 -0.0173896 -0.262355
-0.223539 -0.0174931 -0.263978
0.207878 -0.0160584 -0.275426
0.243508 -0.0115163 -0.263906
0.208827 -0.00711191 0.275582
0.207717 -0.00687648 0.304782
0.223112 -0.00683017 0.318119
0.23667 -0.0068692 0.319785
0.204409 -0.00698136 -0.297993
-0.251694 -0.00100972 0.312209
-0.261595 0.00584401 -0.285227
-0.255844 0.00580038 -0.273244
-0.24238 0.00578648 -0.263768
-0.219441 0.0058485 -0.265667
-0.230874 0.00304294 0.319433
0.204409 0.00698133 -0.297993
0.207878 0.00688215 -0.275426
0.231603 0.0068716 -0.261663
-0.261241 0.00937744 0.287216
-0.208996 0.00945305 0.307323
0.208827 0.0128014 0.275582
0.204409 0.0255983 -0.297993
0.207878 0.0252347 -0.275426
0.231603 0.025196 -0.261663
0.207717 0.0151283 0.304782
0.223112 0.0150264 0.318119
0.23667 0.0151123 0.319785
-0.261595 0.0253241 -0.285227
-0.255844 0.0251351 -0.273244
-0.24238 0.0250748 -0.263768
-0.219441 0.0253436 -0.265667
-0.251694 0.0191846 0.312209
0.203887 0.0485049 -0.287283
0.243508 0.0483684 -0.263906
-0.210329 0.0452898 -0.273624
-0.230874 0.0233293 0.319433
0.218011 0.05258 -0.265462
0.208827 0.0327148 0.275582
-0.261595 0.0525963 -0.285227
-0.261241 0.0281323 0.287216
-0.208996 0.0283591 0.307323
-0.255844 0.0560706 -0.273244
-0.24238 0.0559362 -0.263768
0.207878 0.0665277 -0.275426
0.231603 0.0664257 -0.261663
0.207717 0.0426342 0.304782
0.23667 0.042589 0.319785
0.204409 0.0767949 -0.297993
0.223112 0.0450791 0.318119
-0.210329 0.0728575 -0.273624
0.208827 0.0526281 0.275582
-0.261595 0.0759724 -0.285227
-0.255844 0.0754052 -0.273244
-0.24238 0.0752245 -0.263768
-0.251694 0.039379 0.312209
0.243508 0.0898271 -0.263906
0.204409 0.0954118 -0.297993
0.207878 0.0940564 -0.275426
-0.230874 0.0436156 0.319433
-0.210329 0.0925487 -0.273624
-0.261241 0.0489711 0.287216
-0.208996 0.0493659 0.307323
0.243508 0.108253 -0.263906
0.207717 0.0646389 0.304782
0.23667 0.0645705 0.319785
-0.261595 0.0954525 -0.285227
0.203887 0.117798 -0.287283
0.218011 0.11659 -0.265462
0.208827 0.0725415 0.275582
-0.23137 0.102559 -0.26235
-0.255844 0.106341 -0.273244
0.214035 0.0752194 0.312699
-0.251694 0.0575539 0.312209
0.243508 0.131286 -0.263906
-0.219441 0.115021 -0.265667
0.207878 0.135349 -0.275426
0.23667 0.0838042 0.319785
-0.261595 0.122725 -0.285227
-0.230874 0.0639019 0.319433
0.204409 0.146608 -0.297993
-0.255844 0.125675 -0.273244
-0.24238 0.125374 -0.263768
-0.261241 0.067726 0.287216
-0.208996 0.068272 0.307323
0.243508 0.149712 -0.263906
0.208827 0.0952996 0.275582
-0.210329 0.135869 -0.273624
0.204409 0.165225 -0.297993
0.207878 0.162878 -0.275426
0.243508 0.168138 -0.263906
-0.261595 0.146101 -0.285227
-0.255844 0.14501 -0.273244
-0.23137 0.14513 -0.26235
0.207717 0.103147 0.304782
0.229034 0.102612 0.319655
-0.251694 0.0777483 0.312209
0.207878 0.176643 -0.275426
-0.22639 0.0825139 0.318851
0.119437 0.182405 -0.291825
0.141373 0.182959 -0.285479
0.159913 0.183688 -0.282142
0.179194 0.184604 -0.279908
0.226681 0.185303 -0.262259
0.252341 0.187872 -0.269811
0.208827 0.115213 0.275582
-0.210329 0.163437 -0.273624
0.0489047 0.18308 -0.296999
0.0681971 0.182885 -0.286131
0.0904545 0.183769 -0.282029
-0.261595 0.165581 -0.285227
-0.261241 0.0885647 0.287216
-0.208996 0.0892788 0.307323
0.0197989 0.183628 -0.282451
0.0419465 0.18472 -0.27979
0.125049 0.189155 -0.272324
0.057678 0.189111 -0.272464
0.108878 0.192094 -0.269214
-0.227517 0.172555 -0.26285
-0.210329 0.175252 -0.273624
-0.142953 0.182293 -0.290818
-0.115682 0.183198 -0.283973
0.15604 0.199092 -0.264594
0.175955 0.200378 -0.264038
0.196129 0.201682 -0.263476
0.241646 0.122736 0.318913
-0.255844 0.175946 -0.273244
-0.203209 0.182175 -0.290881
-0.184323 0.18287 -0.286517
-0.157345 0.184057 -0.281628
0.0875504 0.198795 -0.2648
0.240182 0.209854 -0.267311
0.207717 0.125152 0.304782
0.223112 0.124309 0.318119
0.0131944 0.197906 -0.265258
0.0267194 0.198817 -0.264866
0.130091 0.205856 -0.262387
-0.261528 0.185139 -0.285711
-0.190907 0.188481 -0.273582
-0.139904 0.191652 -0.269855
0.0628575 0.205386 -0.262532
0.105545 0.208441 -0.262078
0.205746 0.215785 -0.262168
0.208827 0.135126 0.275582
-0.251694 0.0979426 0.312209
0.170036 0.217701 -0.262429
0.190561 0.219275 -0.262695
-0.157059 0.197737 -0.265537
0.0768645 0.215049 -0.262195
-0.252477 0.195157 -0.270838
-0.231382 0.195429 -0.262278
-0.117185 0.204409 -0.262881
-0.228637 0.102666 0.319143
0.244903 0.240599 -0.313066
-0.208996 0.108185 0.307323
0.0122334 0.218702 -0.262756
0.0306799 0.220254 -0.263296
0.148231 0.230502 -0.26896
0.184839 0.238574 -0.30065
0.206774 0.240598 -0.302394
0.208855 0.236655 -0.277199
0.236153 0.240599 -0.288106
-0.257098 0.205787 -0.290532
-0.212349 0.204783 -0.26273
-0.14182 0.210387 -0.262127
-0.261241 0.109403 0.287216
0.104304 0.231571 -0.269832
0.128527 0.238638 -0.300561
0.149513 0.240597 -0.302139
0.190683 0.240598 -0.282117
0.227736 0.240599 -0.264097
0.248321 0.240599 -0.254086
0.223112 0.143434 0.318119
0.23667 0.144253 0.319785
0.0471397 0.23124 -0.269651
0.0697351 0.238433 -0.301121
0.0880235 0.239502 -0.298531
0.110553 0.240597 -0.294034
0.130753 0.240597 -0.284211
0.171154 0.240598 -0.264563
0.191354 0.240598 -0.254739
0.207514 0.240598 -0.24688
0.227715 0.240599 -0.237056
0.247915 0.240599 -0.227232
-0.189278 0.214473 -0.262448
-0.169639 0.216155 -0.262645
0.026447 0.239021 -0.299758
0.0452625 0.240595 -0.299728
0.0849211 0.240596 -0.280441
0.12458 0.240597 -0.261154
0.144409 0.240597 -0.251511
0.164239 0.240597 -0.241867
0.184068 0.240598 -0.232224
0.195966 0.240598 -0.226437
0.215796 0.240598 -0.216794
0.235625 0.240599 -0.20715
0.255455 0.240599 -0.197506
0.208827 0.15504 0.275582
-0.241259 0.215437 -0.270831
-0.219853 0.215955 -0.263362
-0.124776 0.224406 -0.265203
0.0290575 0.240595 -0.28249
0.0680014 0.240596 -0.26355
0.0913678 0.240596 -0.252187
0.11084 0.240596 -0.242717
0.130312 0.240597 -0.233247
0.149784 0.240597 -0.223777
0.169256 0.240597 -0.214307
0.188729 0.240598 -0.204837
0.208201 0.240598 -0.195367
0.227673 0.240598 -0.185897
0.25104 0.240599 -0.174533
0.207717 0.152658 0.304782
0.0134261 0.240595 -0.265861
0.0325533 0.240595 -0.256559
0.063157 0.240596 -0.241676
0.0861098 0.240596 -0.230513
0.105237 0.240596 -0.221211
0.143492 0.240597 -0.202606
0.16262 0.240597 -0.193304
0.185573 0.240598 -0.182141
0.216177 0.240598 -0.167258
0.242956 0.240599 -0.154234
-0.152087 0.230879 -0.269624
-0.132091 0.238429 -0.301364
-0.110669 0.240593 -0.302825
0.00585625 0.240595 -0.246155
0.0359275 0.240595 -0.231531
0.0659989 0.240596 -0.216906
0.0960706 0.240596 -0.202281
0.13366 0.240597 -0.184
0.156214 0.240597 -0.173032
0.175009 0.240597 -0.163891
0.205081 0.240598 -0.149266
0.235153 0.240598 -0.134641
-0.237908 0.24059 -0.342117
-0.19952 0.23059 -0.269463
-0.177257 0.238489 -0.301272
-0.156628 0.240592 -0.302588
-0.115988 0.240592 -0.282824
-0.251694 0.118137 0.312209
-0.0014548 0.240594 -0.227123
0.0207132 0.240595 -0.216342
0.0391864 0.240595 -0.207358
0.0576598 0.240595 -0.198374
0.0798279 0.240596 -0.187593
0.0983013 0.240596 -0.178608
0.127859 0.240597 -0.164234
0.150027 0.240597 -0.153453
0.168501 0.240597 -0.144468
0.190669 0.240598 -0.133687
0.209143 0.240598 -0.124703
0.238701 0.240599 -0.110327
-0.257774 0.242642 -0.340842
-0.244631 0.24059 -0.323559
-0.224419 0.234398 -0.280864
-0.19741 0.240591 -0.300594
-0.117496 0.240592 -0.261729
-0.00852004 0.240594 -0.20873
0.00964269 0.240595 -0.199897
0.0278054 0.240595 -0.191064
0.0496009 0.240595 -0.180464
0.0677639 0.240596 -0.171631
0.0895593 0.240596 -0.161031
0.107722 0.240596 -0.152198
0.129518 0.240597 -0.141598
0.147681 0.240597 -0.132765
0.169477 0.240597 -0.122165
0.18764 0.240598 -0.113331
0.209436 0.240598 -0.102731
0.227599 0.240598 -0.0938976
0.249395 0.240599 -0.0832977
0.223112 0.162558 0.318119
0.23667 0.163487 0.319785
-0.257739 0.241381 -0.312958
-0.243988 0.24059 -0.30214
-0.176112 0.240591 -0.269129
-0.143961 0.240592 -0.253493
-0.233052 0.122501 0.319578
-0.0153517 0.240594 -0.190946
0.00251076 0.240594 -0.182259
0.0239458 0.240595 -0.171834
0.0453809 0.240595 -0.161409
0.0739613 0.240596 -0.14751
0.102542 0.240596 -0.13361
0.123977 0.240596 -0.123185
0.145413 0.240597 -0.112761
0.173993 0.240597 -0.0988607
0.202574 0.240598 -0.084961
0.22401 0.240598 -0.0745361
0.245445 0.240599 -0.0641112
-0.257422 0.24059 -0.288254
-0.236337 0.24059 -0.277999
-0.180108 0.240591 -0.250652
-0.159022 0.240592 -0.240397
-0.14145 0.240592 -0.231851
-0.261241 0.128158 0.287216
-0.208996 0.129192 0.307323
-0.0219612 0.240594 -0.17374
-0.000874877 0.240594 -0.163485
0.0202117 0.240595 -0.153229
0.0377838 0.240595 -0.144683
0.0588705 0.240595 -0.134428
0.0799572 0.240596 -0.124173
0.12916 0.240597 -0.100244
0.150247 0.240597 -0.0899888
0.167819 0.240597 -0.0814427
0.227566 0.240598 -0.0523857
0.248653 0.240599 -0.0421302
-0.256595 0.24059 -0.268084
-0.235846 0.24059 -0.257994
-0.215098 0.240591 -0.247903
-0.204724 0.240591 -0.242857
-0.177059 0.240591 -0.229402
-0.15631 0.240591 -0.219311
-0.135562 0.240592 -0.209221
-0.0214429 0.240594 -0.153721
-0.000693887 0.240594 -0.14363
0.0200552 0.240595 -0.133538
0.0408044 0.240595 -0.123447
0.0788448 0.240596 -0.104947
0.0995941 0.240596 -0.0948557
0.120344 0.240596 -0.0847645
0.14801 0.240597 -0.0713094
0.168759 0.240597 -0.0612182
0.189509 0.240597 -0.0511268
0.210258 0.240598 -0.0410354
0.22755 0.240598 -0.0326259
0.2483 0.240598 -0.0225346
0.204754 0.175229 0.286578
-0.255793 0.24059 -0.248551
-0.235371 0.24059 -0.238619
-0.204739 0.240591 -0.22372
-0.184317 0.240591 -0.213789
-0.157088 0.240591 -0.200546
-0.136666 0.240592 -0.190614
0.00288504 0.240594 -0.122744
0.0233075 0.240595 -0.112812
0.0437299 0.240595 -0.10288
0.0641524 0.240595 -0.0929477
0.0845749 0.240596 -0.0830154
0.104998 0.240596 -0.073083
0.12542 0.240596 -0.0631506
0.145843 0.240597 -0.0532184
0.173073 0.240597 -0.0399752
0.193496 0.240598 -0.0300428
0.213919 0.240598 -0.0201103
0.234342 0.240598 -0.0101778
0.254765 0.240599 -0.000245214
-0.241613 0.24059 -0.223104
-0.221508 0.24059 -0.213326
-0.201403 0.240591 -0.203548
-0.181298 0.240591 -0.19377
-0.161193 0.240591 -0.183991
-0.141087 0.240592 -0.174213
-0.0405602 0.240593 -0.125323
-0.0204545 0.240594 -0.115544
0.110233 0.240596 -0.0519857
0.130339 0.240596 -0.0422072
0.150446 0.240597 -0.0324289
0.170552 0.240597 -0.0226505
0.190658 0.240597 -0.012872
0.210764 0.240598 -0.00309348
0.22752 0.240598 0.00505537
-0.257563 0.24059 -0.212877
-0.241065 0.24059 -0.204853
-0.0463811 0.240593 -0.110169
-0.0265825 0.240594 -0.10054
-0.00678381 0.240594 -0.0909114
0.0130149 0.240594 -0.0812824
0.0328138 0.240595 -0.0716534
0.0526127 0.240595 -0.0620245
0.0757114 0.240595 -0.0507906
0.154908 0.240597 -0.0122741
0.174707 0.240597 -0.0026449
0.194506 0.240597 0.00698423
0.214306 0.240598 0.0166135
0.234105 0.240598 0.0262428
0.253904 0.240598 0.0358721
-0.224282 0.240591 -0.179248
-0.204782 0.240591 -0.169764
-0.175531 0.240591 -0.155538
-0.156031 0.240592 -0.146054
-0.029276 0.240594 -0.0844069
-0.0097751 0.240594 -0.0749225
0.0584788 0.240595 -0.0417279
0.07798 0.240595 -0.0322436
0.100732 0.240596 -0.0211787
0.120233 0.240596 -0.0116944
0.168669 0.183065 0.285072
0.236676 0.182722 0.31978
-0.256026 0.24059 -0.17776
-0.236815 0.24059 -0.168417
-0.204796 0.240591 -0.152844
-0.175978 0.240591 -0.138829
-0.156767 0.240592 -0.129485
-0.0575057 0.240593 -0.0812095
0.000130415 0.240594 -0.0531785
0.0193425 0.240594 -0.0438347
0.0385547 0.240595 -0.034491
0.0801813 0.240595 -0.0142462
0.0993936 0.240596 -0.00490236
0.128212 0.240596 0.00911331
0.150627 0.240597 0.0200146
0.169839 0.240597 0.0293586
0.189052 0.240597 0.0387023
0.208265 0.240598 0.0480464
0.23068 0.240598 0.0589477
0.249892 0.240598 0.0682918
0.141006 0.183252 0.283619
0.213818 0.184566 0.312888
-0.255291 0.24059 -0.160971
-0.23636 0.24059 -0.151764
-0.217429 0.240591 -0.142557
-0.195343 0.240591 -0.131815
-0.176412 0.240591 -0.122608
-0.157481 0.240592 -0.113401
-0.251694 0.138331 0.312209
-0.0565139 0.240593 -0.0642947
-0.0344271 0.240593 -0.0535529
0.0539206 0.240595 -0.0105853
0.113872 0.240596 0.0185716
0.132804 0.240596 0.027779
0.154891 0.240597 0.0385211
0.173823 0.240597 0.0477287
0.192755 0.240597 0.0569361
0.214843 0.240598 0.0676783
0.233775 0.240598 0.076886
0.252707 0.240598 0.0860935
0.115721 0.183169 0.284222
0.144661 0.183206 0.298128
0.187967 0.186158 0.305583
-0.0213422 0.240594 -0.0312295
0.000426888 0.240594 -0.0206421
0.0190862 0.240594 -0.0115674
0.0595148 0.240595 0.00809491
0.0781742 0.240595 0.0171699
0.091186 0.183087 0.284807
0.119976 0.18322 0.298208
-0.25695 0.24059 -0.130312
-0.244687 0.24059 -0.124348
-0.217097 0.240591 -0.110929
-0.204834 0.240591 -0.104965
-0.177243 0.240591 -0.091546
-0.16498 0.240591 -0.085582
-0.208996 0.148098 0.307323
-0.0730088 0.240593 -0.0408513
-0.0546145 0.240593 -0.0319051
0.00363463 0.240594 -0.00357527
0.025095 0.240594 0.00686198
0.0649501 0.240595 0.0262454
0.083345 0.240595 0.0351916
0.104806 0.240596 0.045629
0.1232 0.240596 0.0545753
0.135464 0.240596 0.0605395
0.163056 0.240597 0.073959
0.175319 0.240597 0.0799233
0.202912 0.240597 0.0933428
0.215176 0.240598 0.099307
0.0673679 0.183008 0.285375
0.0959879 0.183234 0.298287
0.162995 0.188269 0.308324
-0.256233 0.24059 -0.114891
-0.235074 0.24059 -0.1046
-0.165549 0.240591 -0.0707862
-0.261241 0.148997 0.287216
-0.0506818 0.240593 -0.0149193
-0.0295219 0.240593 -0.00462806
0.0400045 0.240595 0.0291862
0.1186 0.240596 0.0674112
0.139761 0.240596 0.0777026
0.157899 0.240597 0.0865239
0.179059 0.240597 0.0968153
0.0425818 0.183186 0.284
0.247385 0.19891 0.314171
-0.219763 0.240591 -0.0824964
-0.201876 0.240591 -0.0737971
-0.0826315 0.240593 -0.0158013
-0.017046 0.240594 0.0160967
0.00382227 0.240594 0.0262461
0.0246906 0.240594 0.0363956
0.0425777 0.240595 0.045095
0.0634462 0.240595 0.0552444
0.0753711 0.240595 0.0610441
0.0200991 0.183108 0.284564
0.0398659 0.182849 0.295305
-0.246036 0.24059 -0.0810167
-0.187226 0.240591 -0.0524136
-0.0872464 0.240593 -0.00378764
-0.0666623 0.240593 0.00622362
-0.0548999 0.240593 0.0119444
0.0833096 0.240595 0.0791636
0.0950722 0.240595 0.0848843
0.124479 0.240596 0.0991862
-0.00175348 0.183032 0.285113
0.0179848 0.182867 0.295419
-0.236792 0.24059 -0.0626451
-0.216484 0.240591 -0.0527684
-0.175869 0.240591 -0.0330148
-0.0511218 0.240593 0.0276574
-0.0308138 0.240593 0.0375344
-0.0105059 0.240594 0.0474113
0.00980219 0.240594 0.0572883
0.0301102 0.240594 0.0671654
0.0475172 0.240595 0.0756314
0.0881338 0.240595 0.0953854
-0.024679 0.183202 0.283796
0.0734374 0.188599 0.308644
0.217547 0.202554 0.31959
-0.256418 0.24059 -0.0586829
-0.204891 0.240591 -0.0336219
-0.0961095 0.240592 0.019285
-0.0760706 0.240593 0.0290311
0.0642025 0.240595 0.0972546
-0.0453525 0.183126 0.28434
-0.016868 0.183198 0.297895
-0.24728 0.24059 -0.0410837
-0.224678 0.240591 -0.0300911
-0.185125 0.240591 -0.0108539
-0.0608135 0.240593 0.0496064
-0.0410365 0.240593 0.0592251
-0.0212595 0.240594 0.068844
-0.0014824 0.240594 0.0784627
0.0182948 0.240594 0.0880815
0.0380719 0.240595 0.0977004
-0.0654691 0.183053 0.28487
-0.0465975 0.182822 0.295004
0.132848 0.19865 0.316951
-0.235588 0.24059 -0.0225821
-0.216067 0.240591 -0.0130876
-0.104515 0.240592 0.0411668
-0.0849935 0.240593 0.0506614
-0.086743 0.183216 0.283607
-0.0662387 0.18284 0.295116
0.00253448 0.187956 0.307721
0.191064 0.207532 0.319659
-0.257233 0.24059 -0.0206209
-0.196662 0.240591 0.00883871
-0.251694 0.158526 0.312209
-0.100297 0.240592 0.0557069
-0.0810244 0.240593 0.0650805
-0.0617514 0.240593 0.0744542
-0.0424783 0.240593 0.0838279
-0.0204518 0.240594 0.0945408
-0.105813 0.183144 0.284134
-0.0853831 0.182857 0.295226
0.0952654 0.199249 0.317152
-0.24571 0.24059 -0.00284231
-0.22668 0.240591 0.0064134
-0.0608434 0.240593 0.0870704
-0.0418127 0.240593 0.0963262
0.158121 0.208821 0.319787
-0.204941 0.240591 0.0288587
-0.261241 0.167752 0.287216
-0.208996 0.169104 0.307323
-0.11634 0.240592 0.0719508
-0.081437 0.240593 0.0889265
-0.14419 0.18323 0.283433
-0.115669 0.183167 0.297552
0.0442072 0.198129 0.316626
0.2064 0.217544 0.319357
-0.255336 0.24059 0.0159289
-0.226165 0.24059 0.0301164
-0.112133 0.240592 0.0855778
-0.161833 0.18316 0.283942
0.0227423 0.197924 0.316516
-0.215438 0.240591 0.0466338
-0.204959 0.240591 0.0517304
-0.179037 0.183091 0.28444
-0.256735 0.24059 0.0375774
-0.236028 0.24059 0.0476485
-0.197517 0.183243 0.283271
-0.167999 0.183204 0.297774
-0.143497 0.185081 0.302596
-0.0157333 0.197853 0.316439
0.0669871 0.207676 0.319525
0.253189 0.240598 0.285587
-0.215207 0.240591 0.0685434
-0.204976 0.240591 0.0735195
-0.0356411 0.197659 0.316334
0.134159 0.219022 0.319093
0.192577 0.227729 0.314967
-0.255541 0.24059 0.0594425
-0.235319 0.24059 0.0692781
-0.192344 0.183878 0.29965
0.113547 0.218898 0.319096
0.227287 0.240597 0.294275
0.252567 0.240598 0.30657
-0.217486 0.240591 0.0882245
-0.0713663 0.197597 0.316264
0.0934466 0.218783 0.319086
0.152603 0.227827 0.314843
0.212286 0.240597 0.297252
0.234775 0.240598 0.30819
-0.256872 0.24059 0.0791069
-0.237112 0.24059 0.0887176
0.165307 0.233633 0.309574
0.254443 0.240598 0.327795
-0.21722 0.240591 0.108204
-0.251694 0.17872 0.312209
-0.0954286 0.198759 0.316715
0.23459 0.240598 0.327951
-0.255728 0.24059 0.0990668
-0.23641 0.24059 0.108463
-0.115803 0.198262 0.316484
-0.00366721 0.212794 0.319752
0.0456396 0.219914 0.318616
0.20552 0.240597 0.323405
-0.135629 0.197777 0.31626
0.0238851 0.21927 0.318855
0.131716 0.240596 0.296889
-0.233376 0.24059 0.128494
0.0656371 0.229038 0.313811
0.113855 0.240596 0.297377
0.177634 0.240597 0.328398
0.196532 0.240597 0.337589
-0.206835 0.192865 0.313315
-0.0205579 0.217716 0.319086
0.0940441 0.240595 0.296719
0.133767 0.240596 0.316039
0.15947 0.240596 0.32854
-0.257195 0.242085 0.129623
-0.230473 0.24059 0.147668
-0.260303 0.193723 0.291453
-0.17179 0.198991 0.316716
-0.0375639 0.217623 0.319077
0.113955 0.240596 0.315188
-0.24622 0.24059 0.148607
0.0465786 0.236009 0.306341
0.142593 0.240596 0.337716
-0.0677453 0.217859 0.319009
0.0273243 0.235469 0.307019
-0.240901 0.24059 0.167858
-0.186312 0.202749 0.318247
-0.256056 0.24059 0.168562
-0.252656 0.197892 0.308514
-0.0914927 0.218906 0.318842
-0.00197819 0.236373 0.30581
0.0831063 0.240595 0.333522
0.103735 0.240906 0.342549
-0.114673 0.21759 0.318986
-0.0200753 0.235845 0.306474
0.0560371 0.240595 0.328268
-0.248528 0.24059 0.187887
-0.231151 0.24059 0.196339
-0.255928 0.206969 0.290997
-0.226591 0.202511 0.319416
-0.0377303 0.235329 0.307122
0.117032 0.247881 0.342566
-0.136961 0.218609 0.318825
0.0185693 0.240594 0.325395
0.0379247 0.240595 0.334809
-0.068308 0.235263 0.307171
-0.2536 0.24059 0.207769
-0.170458 0.217643 0.31891
-0.213533 0.212785 0.319259
-0.0943743 0.236117 0.30603
-0.0213434 0.240594 0.327895
-0.000460833 0.240594 0.338052
-0.0355172 0.240593 0.328026
-0.256335 0.24059 0.227517
-0.235849 0.24059 0.237481
-0.125939 0.235139 0.307262
-0.114979 0.240592 0.296269
-0.0664036 0.240593 0.333294
-0.23709 0.223611 0.306209
-0.19614 0.227566 0.314616
-0.155336 0.240592 0.296553
-0.111512 0.240592 0.317868
-0.236721 0.24059 0.263364
-0.176476 0.235889 0.306226
-0.0926335 0.240593 0.333445
-0.255999 0.24059 0.260267
-0.222596 0.240591 0.28268
-0.216133 0.232556 0.308579
-0.150875 0.240592 0.317564
-0.132151 0.240592 0.332728
-0.256574 0.24059 0.278161
-0.237254 0.24059 0.293405
-0.165525 0.240591 0.328292
-0.10811 0.247788 0.342289
-0.190332 0.240591 0.327618
-0.256681 0.24059 0.300897
-0.243484 0.24059 0.312773
-0.212478 0.240591 0.327854
