ply
format ascii 1.0
comment Created by Open3D
element vertex 748
property double x
property double y
property double z
end_header
0.138357 -0.17111 -0.411663
0.151341 -0.170519 -0.391878
0.1168 -0.169959 -0.415668
0.0936429 -0.16916 -0.418368
0.151389 -0.170971 -0.357382
0.0745209 -0.167691 -0.422058
0.053372 -0.171083 -0.415542
0.15141 -0.170751 -0.341805
0.0261311 -0.16654 -0.424228
0.0148639 -0.167555 -0.42504
0.151455 -0.170289 -0.309099
-0.0126361 -0.167138 -0.42633
-0.0270675 -0.168872 -0.42464
0.151487 -0.171009 -0.28606
0.145411 -0.152423 -0.40264
0.127437 -0.152058 -0.415638
-0.0490637 -0.167409 -0.428236
-0.0703356 -0.170694 -0.421031
0.151512 -0.170773 -0.268084
0.151354 -0.15234 -0.382275
0.0963293 -0.15203 -0.417204
0.151537 -0.170529 -0.249476
0.0747594 -0.151101 -0.418072
-0.0890348 -0.165032 -0.428454
0.151564 -0.170276 -0.230201
0.151403 -0.152118 -0.347053
0.0453207 -0.150751 -0.419476
0.0342481 -0.151663 -0.420254
-0.00364822 -0.154784 -0.422917
-0.113206 -0.165498 -0.419743
0.151601 -0.171053 -0.203401
0.151432 -0.152415 -0.325719
0.151629 -0.170799 -0.182424
0.151455 -0.151879 -0.309099
-0.0245617 -0.150639 -0.422981
0.151659 -0.170535 -0.16065
0.151487 -0.152182 -0.28606
-0.0546175 -0.150206 -0.423182
0.151691 -0.17026 -0.138029
0.15152 -0.1525 -0.261953
0.140114 -0.132329 -0.409417
0.151734 -0.171104 -0.106466
0.151546 -0.151931 -0.243126
0.151354 -0.132408 -0.382275
0.120159 -0.131007 -0.410963
-0.0654252 -0.14517 -0.421423
0.151768 -0.170829 -0.0816714
0.151582 -0.152255 -0.216963
0.151382 -0.13228 -0.362465
0.0990787 -0.12982 -0.411744
0.0815529 -0.1311 -0.412937
-0.0936696 -0.144502 -0.420505
-0.110216 -0.146719 -0.414293
0.151804 -0.170541 -0.0558473
0.15161 -0.151657 -0.196495
0.15141 -0.132147 -0.341805
0.0448495 -0.130933 -0.414752
0.151841 -0.170242 -0.0289283
0.151649 -0.151989 -0.168
0.15144 -0.132007 -0.32024
0.0589103 -0.127097 -0.413122
0.0141448 -0.13024 -0.416052
-0.0431153 -0.134542 -0.417647
0.151893 -0.171165 0.00878978
0.151866 -0.168712 -0.0103397
0.151691 -0.152338 -0.138029
0.151471 -0.131862 -0.297709
-0.0232744 -0.130125 -0.416064
0.151934 -0.170864 0.0385501
0.151723 -0.151698 -0.114513
0.151512 -0.132469 -0.268084
0.151976 -0.17055 0.0696679
0.151768 -0.152056 -0.0816714
0.151546 -0.132327 -0.243126
0.117169 -0.114779 -0.407227
-0.0635564 -0.127081 -0.415047
0.152021 -0.17022 0.102238
0.151816 -0.152434 -0.0469994
0.151582 -0.132178 -0.216963
0.151354 -0.112475 -0.382275
0.148966 -0.11076 -0.398093
0.152068 -0.169875 0.136364
0.152052 -0.168533 0.124809
0.151853 -0.151746 -0.0197001
0.15162 -0.132021 -0.189503
0.151382 -0.111929 -0.362465
0.0953943 -0.110617 -0.407331
0.0848244 -0.111274 -0.408022
0.0290964 -0.114859 -0.410612
0.152134 -0.170908 0.184487
0.152101 -0.168141 0.160036
0.151906 -0.152134 0.0185647
0.151879 -0.149938 -0.000843883
0.151659 -0.131857 -0.16065
0.151417 -0.11196 -0.336501
0.0513625 -0.110539 -0.40906
-0.0160583 -0.114933 -0.410701
0.152187 -0.17056 0.222709
0.152152 -0.16773 0.197016
0.151948 -0.151403 0.0487676
0.151701 -0.131684 -0.130293
0.151455 -0.111992 -0.309099
0.0113723 -0.110241 -0.40901
-0.0857847 -0.11641 -0.411319
-0.105701 -0.118309 -0.406041
0.152242 -0.170193 0.262917
0.152205 -0.167298 0.235884
0.152037 -0.154182 0.113435
0.152006 -0.151802 0.0912137
0.151976 -0.149494 0.0696679
0.151757 -0.132387 -0.0900478
0.151723 -0.129766 -0.114513
0.151495 -0.112026 -0.280136
-0.0562029 -0.111508 -0.409551
0.152301 -0.169808 0.305268
0.152281 -0.168312 0.290902
0.152084 -0.153448 0.148105
0.151804 -0.132217 -0.0558473
0.151537 -0.112062 -0.249476
-0.0359223 -0.107259 -0.408025
0.152383 -0.170961 0.365377
0.152362 -0.169401 0.349938
0.152341 -0.167869 0.334779
0.152117 -0.151432 0.172162
0.151853 -0.132039 -0.0197001
0.151828 -0.130186 -0.0380272
0.151582 -0.1121 -0.216963
0.127301 -0.0948604 -0.401943
0.152205 -0.15316 0.235884
0.152187 -0.151868 0.222709
0.152152 -0.149349 0.197016
0.151906 -0.13185 0.0185647
0.151879 -0.129946 -0.000843883
0.151629 -0.11214 -0.182424
0.151601 -0.110084 -0.203401
0.151348 -0.0920698 -0.387101
-0.0973098 -0.104931 -0.40521
0.152242 -0.151017 0.262917
0.151962 -0.131649 0.0591388
0.151934 -0.129692 0.0385501
0.15168 -0.112184 -0.145666
0.151389 -0.0920615 -0.357382
0.105627 -0.0904377 -0.401902
0.0947667 -0.0910359 -0.402128
0.152301 -0.15012 0.305268
0.152281 -0.148798 0.290902
0.152021 -0.131436 0.102238
0.151991 -0.129422 0.0803581
0.151734 -0.11223 -0.106466
0.151701 -0.110037 -0.130293
0.151432 -0.0920527 -0.325719
0.0604349 -0.0900695 -0.401835
0.0255195 -0.0919335 -0.402541
-0.0275438 -0.0947663 -0.403613
-0.0750663 -0.0973033 -0.404573
0.152383 -0.150548 0.365377
0.152362 -0.149174 0.349938
0.152341 -0.147825 0.334779
0.152101 -0.132271 0.160036
0.152068 -0.130164 0.136364
0.152052 -0.129135 0.124809
0.151792 -0.112279 -0.0645736
0.151757 -0.110011 -0.0900478
0.151479 -0.0920432 -0.291917
0.151455 -0.0905139 -0.309099
0.152205 -0.13431 0.235884
0.152169 -0.132063 0.209755
0.152134 -0.12989 0.184487
0.151853 -0.112331 -0.0197001
0.151828 -0.110756 -0.0380272
0.151529 -0.0920331 -0.255751
0.0035044 -0.087183 -0.400898
-0.0510617 -0.0899106 -0.401935
0.152261 -0.132991 0.276787
0.152242 -0.13184 0.262917
0.15192 -0.112388 0.0284837
0.151893 -0.110754 0.00878978
0.151582 -0.0920223 -0.216963
0.151555 -0.0903845 -0.236702
0.152301 -0.130432 0.305268
0.151991 -0.112449 0.0803581
0.151962 -0.110752 0.0591388
0.151639 -0.0920107 -0.175257
0.151601 -0.0897604 -0.203401
-0.0708678 -0.0846966 -0.400125
0.152383 -0.130135 0.365377
0.152362 -0.128947 0.349938
0.152341 -0.127781 0.334779
0.152084 -0.113418 0.148105
0.152052 -0.111626 0.124809
0.152021 -0.109889 0.102238
0.151701 -0.0919981 -0.130293
0.15167 -0.0902352 -0.153206
0.151348 -0.0722394 -0.387101
0.0824963 -0.0747042 -0.396391
0.152134 -0.11166 0.184487
0.151768 -0.0919846 -0.0816714
0.151745 -0.0907544 -0.0983121
0.151403 -0.0723669 -0.347053
0.151372 -0.0708562 -0.367491
0.122023 -0.0701117 -0.395158
0.100137 -0.0710845 -0.395138
0.0117254 -0.0749029 -0.39656
-0.0999612 -0.0800052 -0.394588
0.152261 -0.113647 0.276787
0.152223 -0.111697 0.249285
0.152187 -0.109812 0.222709
0.152152 -0.107991 0.197016
0.151841 -0.0919699 -0.0289283
0.151804 -0.0900612 -0.0558473
0.151455 -0.0721043 -0.309099
0.0624126 -0.0697804 -0.395259
0.0348357 -0.0709558 -0.395236
0.152301 -0.110744 0.305268
0.15192 -0.0919538 0.0284837
0.151893 -0.0906169 0.00878978
0.151866 -0.0893182 -0.0103397
0.15152 -0.0722367 -0.261953
0.150185 -0.0711988 -0.27803
0.14548 -0.0680186 -0.327657
-0.0102685 -0.0697662 -0.395361
-0.0447522 -0.0711733 -0.395336
0.152383 -0.109721 0.365377
0.152362 -0.10872 0.349938
0.152341 -0.107737 0.334779
0.152037 -0.0933779 0.113435
0.152006 -0.0919364 0.0912137
0.151976 -0.0905387 0.0696679
0.151948 -0.0891828 0.0487676
0.151591 -0.0723819 -0.210223
0.142301 -0.0711989 -0.234017
0.152101 -0.0919171 0.160036
0.152068 -0.090453 0.136364
0.151659 -0.0720816 -0.16065
0.145543 -0.0712 -0.17856
0.152261 -0.0943026 0.276787
0.152187 -0.0911209 0.222709
0.152152 -0.0896092 0.197016
0.152134 -0.088872 0.184487
0.151745 -0.0722331 -0.0983121
0.14051 -0.0710871 -0.124513
0.152301 -0.0910563 0.305268
0.152242 -0.0886923 0.262917
0.152205 -0.0871834 0.235884
0.151841 -0.0724018 -0.0289283
0.149783 -0.0712022 -0.0516364
0.142057 -0.0704053 -0.0705355
0.150197 -0.0665213 -0.135178
0.161939 -0.0609197 -0.228403
0.151341 -0.0524098 -0.387091
-0.0958626 -0.0603032 -0.394079
0.152383 -0.0893082 0.365377
0.152362 -0.088493 0.349938
0.152341 -0.0876925 0.334779
0.151934 -0.0720512 0.0385501
0.150525 -0.0712033 0.0216609
0.1422 -0.0703839 0.00116074
0.163968 -0.0522748 -0.328463
0.154026 -0.0516805 -0.345672
0.151369 -0.0506119 -0.367487
0.119622 -0.0500748 -0.396693
0.101368 -0.0506555 -0.396655
0.0712703 -0.0516124 -0.3966
-0.0262402 -0.054712 -0.396437
-0.0613903 -0.0558289 -0.396386
-0.0795071 -0.0564044 -0.396362
0.152084 -0.0733881 0.148105
0.152052 -0.0722283 0.124809
0.151357 -0.0712046 0.103846
0.142359 -0.0703599 0.081496
0.159403 -0.0622182 -0.0716853
0.164242 -0.0599072 -0.115165
0.164048 -0.0521774 -0.270416
0.164015 -0.0509818 -0.294433
0.040298 -0.0495761 -0.396856
-0.000489116 -0.0507989 -0.39678
0.152261 -0.0749585 0.276787
0.152205 -0.0730455 0.235884
0.152187 -0.0724294 0.222709
0.152152 -0.0712278 0.197016
0.142539 -0.0703329 0.172131
0.160523 -0.0617358 -0.000755668
0.164148 -0.0523944 -0.198161
0.164074 -0.0498928 -0.251651
0.163999 -0.0473495 -0.306033
0.0204634 -0.0471146 -0.39715
0.152405 -0.0746862 0.381103
0.152301 -0.0713684 0.305268
0.144543 -0.0694411 0.256597
0.161777 -0.061196 0.0786313
0.163143 -0.0605425 0.064526
0.164229 -0.0516013 -0.139024
0.164187 -0.0502744 -0.169353
0.152357 -0.0682668 0.349953
0.161721 -0.0612912 0.184461
0.164462 -0.0549288 0.0300354
0.164369 -0.0521737 -0.0376054
0.164296 -0.050023 -0.0904047
0.160028 -0.0621833 0.327356
0.164773 -0.0593699 0.255667
0.164582 -0.0541267 0.116648
0.164395 -0.0490113 -0.0189819
0.164119 -0.0414737 -0.218837
-0.0867432 -0.0403862 -0.398125
0.164718 -0.0532144 0.215151
0.164647 -0.0514488 0.164265
0.164614 -0.0506092 0.140068
0.164344 -0.0438163 -0.0557024
0.164262 -0.0417517 -0.115205
0.151336 -0.0324132 -0.39187
0.0219585 -0.0348695 -0.398744
-0.0501294 -0.0363752 -0.398628
-0.0680047 -0.0367485 -0.398599
0.164853 -0.0516915 0.313141
0.164812 -0.0507648 0.283889
0.164754 -0.0494354 0.241926
0.1647 -0.0481738 0.202105
0.164435 -0.0420874 0.00999129
0.164015 -0.032443 -0.294433
0.163983 -0.0317162 -0.317374
0.163946 -0.0308522 -0.344643
0.151385 -0.0306874 -0.357376
0.121728 -0.0299196 -0.399381
0.0998693 -0.0303366 -0.399342
0.0697579 -0.030911 -0.399289
0.0424641 -0.0314315 -0.399245
0.00184041 -0.0322061 -0.399182
0.164551 -0.0404862 0.0939684
0.16452 -0.0398563 0.0719942
0.164491 -0.0392458 0.0506933
0.164158 -0.0323152 -0.191095
0.164092 -0.0309489 -0.238763
0.164048 -0.0300416 -0.270416
-0.0316175 -0.0297018 -0.399629
0.152425 -0.0441926 0.397129
0.164873 -0.042231 0.328172
0.164773 -0.0403715 0.255667
0.164665 -0.0383454 0.176668
0.164462 -0.0345848 0.0300351
0.164408 -0.0335717 -0.00946569
0.164296 -0.0314959 -0.0904049
0.164229 -0.030249 -0.139024
0.164187 -0.0294712 -0.169353
0.164718 -0.0347051 0.215151
0.164382 -0.0291946 -0.0283608
0.164853 -0.0319995 0.313141
0.164812 -0.0314258 0.283889
0.164754 -0.0306028 0.241926
0.1647 -0.0298219 0.202105
0.164647 -0.0290797 0.164265
0.164614 -0.0286052 0.140068
0.164344 -0.0247657 -0.0557025
0.163701 -0.02172 -0.21126
-0.0786829 -0.020844 -0.401281
0.164582 -0.0238157 0.116648
0.164435 -0.0220458 0.00999129
0.160478 -0.0201323 -0.107593
-0.0509297 -0.0173478 -0.40206
-0.101072 -0.0179187 -0.397762
0.152423 -0.0233962 0.397135
0.164873 -0.0223576 0.328172
0.163721 -0.0214221 0.258637
0.161533 -0.0204387 0.184959
0.158911 -0.0192599 0.0966375
0.158302 -0.0189862 0.0761265
0.15771 -0.0187201 0.0561904
0.148953 -0.0147835 -0.238751
0.148067 -0.0143855 -0.268573
0.147392 -0.0140822 -0.291299
0.146905 -0.013863 -0.307724
0.149294 -0.0125461 -0.403198
0.152403 -0.0180278 0.381108
0.15236 -0.0176987 0.349945
0.147447 -0.0139237 -0.0101777
0.147032 -0.0137395 -0.0278488
0.14585 -0.0132152 -0.0781652
0.143099 -0.0119947 -0.195302
0.142488 -0.0117239 -0.221281
0.151393 -0.0102834 -0.35224
0.151365 -0.0100697 -0.372469
0.1219 -0.00992164 -0.404157
0.100119 -0.0100599 -0.404138
0.0701165 -0.0102504 -0.404112
0.0389554 -0.0104483 -0.404084
0.00242943 -0.0106802 -0.404053
-0.0314267 -0.0108951 -0.404023
0.14465 -0.0123936 0.312425
0.14418 -0.01219 0.285176
0.143951 -0.0120907 0.271884
0.143504 -0.0118969 0.245941
0.143286 -0.0118023 0.233278
0.14286 -0.0116175 0.208548
0.142447 -0.0114384 0.184581
0.142046 -0.0112648 0.16134
0.141658 -0.0110964 0.138795
0.141281 -0.0109329 0.116915
0.140914 -0.0107741 0.0956695
0.140302 -0.0106256 0.075624
0.13967 -0.0104818 0.0562054
0.139056 -0.0103419 0.0373049
0.138457 -0.0102057 0.0189022
0.136213 -0.00969495 -0.0501029
0.134921 -0.00940089 -0.08983
0.134426 -0.0092882 -0.105054
0.133705 -0.00912414 -0.127218
0.133009 -0.00896578 -0.148612
0.132336 -0.00881282 -0.169276
0.129862 -0.00824986 -0.245332
0.128921 -0.00803596 -0.274229
0.128559 -0.00795348 -0.285372
0.124701 -0.00780105 -0.307878
0.126708 -0.00764647 0.348092
0.124977 -0.00694241 0.19162
0.124515 -0.00684027 0.168793
0.124067 -0.00674109 0.146627
0.123632 -0.00664474 0.125096
0.123419 -0.00659759 0.11456
0.123002 -0.00650528 0.0939292
0.122596 -0.00641551 0.073868
0.122201 -0.00632819 0.054353
0.121629 -0.00620157 0.0260565
0.121079 -0.00607992 -0.00112963
0.120724 -0.00600144 -0.018669
0.120378 -0.00592496 -0.0357612
0.119876 -0.00581382 -0.0605982
0.11236 -0.00530694 -0.177011
0.0909143 -0.00530923 -0.189369
0.0696616 -0.0053095 -0.202059
0.149824 -0.00451789 -0.328737
0.0211877 -0.0045151 -0.406514
-0.0506031 -0.0047101 -0.406528
-0.0684055 -0.00475845 -0.406531
0.152423 -0.0025996 0.397136
0.121752 -0.00250821 0.318213
0.0990679 -0.00251394 0.308401
0.0808447 -0.00251855 0.300521
0.0332379 -0.00263451 0.348768
0.0104131 -0.00265513 0.348733
-0.012772 -0.00267607 0.348697
-0.0363258 -0.00269735 0.348662
-0.0287269 -0.0025938 0.284636
-0.0414816 -0.00257439 0.264133
-0.0540411 -0.00255525 0.243923
-0.0442809 -0.00247069 0.193773
-0.049361 -0.00244308 0.172434
-0.0543338 -0.00241609 0.151577
-0.0591902 -0.00238966 0.131161
-0.0639493 -0.00236383 0.111201
-0.0685996 -0.00233854 0.0916562
-0.074649 -0.00230564 0.0662405
-0.0776131 -0.00228955 0.0538031
-0.0609816 -0.00221062 0.01151
-0.0630962 -0.00218129 -0.00918496
-0.0895908 -0.00160321 -0.407944
0.152405 0.0025754 0.381103
0.152361 0.00252839 0.349942
0.138902 0.00250841 0.328636
0.0614737 0.00252802 0.295177
0.0384713 0.00253384 0.285233
-0.00703162 0.00263303 0.323635
-0.0201408 0.00261303 0.302524
0.0188208 0.00763023 0.279801
0.000235379 0.00764437 0.271774
-0.0184184 0.00765855 0.263715
-0.000771701 0.00757249 -0.413416
-0.0301615 0.00770458 -0.413549
0.15245 0.0183692 0.413446
0.127002 0.0176761 0.332603
-0.0644467 0.0178161 0.231008
-0.0775009 0.0158471 0.0368774
0.151393 0.0102833 -0.352241
0.151364 0.0100698 -0.372468
0.151337 0.00986483 -0.391872
0.151308 0.00966815 -0.410499
0.11967 0.00982328 -0.414799
0.101715 0.00993602 -0.414902
0.0721123 0.0101219 -0.415071
0.0413811 0.0103149 -0.415247
0.152406 0.0231784 0.3811
0.151315 0.0228058 0.353021
0.111778 0.0226346 0.316711
0.0883765 0.0227133 0.308462
0.0695379 0.0227766 0.301821
0.0505941 0.0228403 0.295143
-0.0366877 0.0233114 0.277456
-0.0485983 0.0231109 0.255558
-0.0506711 0.0223074 0.195184
-0.0540368 0.0221401 0.180855
-0.0501727 0.0218782 0.163898
-0.0544415 0.0216163 0.142068
-0.05861 0.0213607 0.120755
-0.0640177 0.0210291 0.0931118
-0.0679646 0.0207871 0.0729359
-0.0669492 0.0199584 0.0125605
-0.0622877 0.0195025 -0.0181972
-0.111414 0.0145892 -0.409235
0.0322701 0.0279599 0.286799
0.00833839 0.0280581 0.278357
-0.0140407 0.0282749 0.27799
0.15248 0.0344401 0.43006
-0.0779695 0.0204239 -0.422252
0.152447 0.039363 0.413455
0.132321 0.0381358 0.347197
0.120865 0.0380142 0.334955
0.0212187 0.0221949 -0.423297
-0.0493127 0.0231368 -0.42402
0.152469 0.0450381 0.430096
0.1524 0.043782 0.381118
0.107351 0.0427641 0.314437
0.0934845 0.0428396 0.309062
0.0749201 0.0429407 0.301866
0.0469085 0.0430933 0.291007
-0.032039 0.0440184 0.279693
-0.0443366 0.0436629 0.258464
-0.0566098 0.043324 0.2379
-0.0561484 0.0422124 0.194871
-0.0501724 0.0410719 0.154021
-0.0546244 0.0403527 0.123333
-0.0592296 0.0399095 0.103301
-0.0637631 0.0394775 0.0837516
-0.0681995 0.0390547 0.0646205
-0.0767931 0.0382358 0.0275614
-0.0718798 0.0377605 0.0119921
-0.0597516 0.0365047 -0.0296614
-0.0975404 0.0269362 -0.425109
0.0232781 0.048317 0.282196
0.00268877 0.0485638 0.278451
0.151386 0.0277647 -0.357378
0.0482674 0.0275478 -0.426795
0.000888586 0.0283462 -0.427382
-0.0280412 0.0288338 -0.427739
0.151357 0.0300532 -0.377394
0.151309 0.0290044 -0.4105
0.140245 0.0286788 -0.427407
0.119504 0.0290644 -0.427686
0.101788 0.0293938 -0.427925
0.0799931 0.029799 -0.428218
0.152452 0.0603558 0.413438
0.0354795 0.0585754 0.292004
-0.016027 0.0597159 0.29395
-0.049398 0.0352048 -0.431892
0.152476 0.0662315 0.430072
0.152401 0.0643852 0.381114
0.132139 0.0641506 0.362746
0.111041 0.0634978 0.332797
0.0944012 0.0634061 0.320385
0.0667606 0.0635848 0.308541
-0.0392993 0.0650095 0.282664
-0.0550461 0.0643909 0.25683
-0.0674294 0.0639044 0.236515
-0.0616471 0.0621898 0.19456
-0.0553715 0.0604941 0.1534
-0.0598692 0.0594445 0.122897
-0.0644532 0.0587929 0.102884
-0.0689379 0.0581554 0.0833046
-0.0733263 0.0575316 0.0641456
-0.0790333 0.0567203 0.0392305
0.0341648 0.0363506 -0.432511
-0.0777757 0.0388198 -0.434243
-0.11738 0.0400974 -0.424153
0.0238196 0.0690998 0.293284
0.00315577 0.0694489 0.289455
-0.0779021 0.0601625 0.013036
0.152426 0.0753873 0.397125
0.130808 0.075288 0.381892
0.0506194 0.0741549 0.307912
-0.0254883 0.0758791 0.301637
-0.0680286 0.0626888 -0.0251224
-0.104424 0.0457009 -0.434929
0.113674 0.084825 0.354602
0.0902069 0.0843582 0.331157
0.0716428 0.0845179 0.323227
-0.00759739 0.0857427 0.300278
-0.0471118 0.0862436 0.286628
-0.0597366 0.0855826 0.265789
-0.0721694 0.0849316 0.245267
-0.0671605 0.0822394 0.194239
-0.0605869 0.0799771 0.152777
-0.0651627 0.0786058 0.122511
-0.0696956 0.0777425 0.102465
0.151376 0.0479702 -0.362457
-0.0237669 0.0493586 -0.43965
0.02843 0.090203 0.307958
0.00959665 0.0903751 0.299917
-0.0765224 0.0813727 0.0779061
-0.0808272 0.0805003 0.0588152
-0.0878002 0.0790871 0.027891
-0.0828781 0.0781162 0.0124711
-0.0738398 0.0762936 -0.0165968
-0.0696419 0.0750327 -0.0379393
0.151348 0.0498315 -0.382267
0.151315 0.048583 -0.405913
0.149046 0.0469295 -0.438562
0.121744 0.0477773 -0.438896
0.100612 0.0484335 -0.439155
0.0788906 0.049108 -0.439421
0.0603223 0.0496845 -0.439649
0.1263 0.0960686 0.379393
0.112047 0.0954095 0.359045
0.083431 0.095004 0.334622
0.0647711 0.0951847 0.326664
-0.0307093 0.0975887 0.312422
-0.071467 0.0957362 0.254815
-0.0837824 0.0950097 0.234423
0.0103449 0.0541418 -0.440662
-0.0746972 0.060066 -0.440767
0.114906 0.106979 0.381025
0.0437235 0.106099 0.324121
-0.00679284 0.107148 0.310758
-0.0454033 0.108323 0.306578
-0.0581784 0.107483 0.285359
-0.0644919 0.107069 0.274871
-0.0727027 0.102363 0.193931
-0.065819 0.0995211 0.152153
-0.0704748 0.097835 0.122123
0.0236358 0.111712 0.318808
-0.0773776 0.101244 0.0969896
-0.0802871 0.100509 0.0839157
-0.0845733 0.0994255 0.0646572
-0.0406898 0.0649672 -0.439766
-0.103242 0.0676534 -0.435913
-0.118566 0.0688229 -0.427092
0.105221 0.116579 0.362905
0.0884784 0.116359 0.349631
0.0696964 0.116582 0.341646
-0.0311432 0.119592 0.325456
-0.0794014 0.117018 0.25862
-0.0917174 0.116125 0.238098
-0.0938092 0.101987 0.0287527
-0.0889719 0.100756 0.0135328
0.0372307 0.0648179 -0.439697
-0.0490918 0.126568 0.338097
-0.0478809 0.125482 0.323508
-0.0771185 0.100777 -0.0421598
-0.0218177 0.0703654 -0.43754
0.12506 0.128692 0.398458
0.0531564 0.127665 0.341459
0.03428 0.127887 0.333125
0.0104401 0.128196 0.323005
-0.0130027 0.129314 0.324055
-0.0601398 0.129678 0.300699
-0.078258 0.122559 0.19361
-0.0727977 0.120142 0.164216
-0.0712742 0.118453 0.142295
-0.080952 0.106757 -0.0215935
0.151355 0.0701245 -0.377391
0.151328 0.0687048 -0.396597
0.10737 0.0675436 -0.43866
0.0852304 0.0685565 -0.43825
0.0739096 0.0690744 -0.43804
-0.00251096 0.0726092 -0.436102
-0.0601687 0.0753208 -0.434036
0.114553 0.134341 0.39731
0.108177 0.133655 0.384579
0.0916929 0.133286 0.369897
0.0685602 0.133465 0.358341
-0.0762773 0.134587 0.286034
-0.0782552 0.121629 0.116566
-0.0811956 0.120734 0.103181
-0.0855259 0.119416 0.0834682
-0.0939091 0.116865 0.0453067
0.151295 0.0697441 -0.419538
0.024403 0.0744391 -0.434682
-0.0790865 0.0796419 -0.429192
0.0944235 0.140158 0.392097
0.0656251 0.140564 0.379892
0.0463329 0.140836 0.371717
0.0341706 0.14048 0.359974
0.00470096 0.139956 0.335754
-0.0254401 0.141594 0.338141
-0.101524 0.139503 0.266372
-0.0975684 0.120746 0.0343516
-0.0939791 0.118861 0.0129498
0.117274 0.145391 0.405126
0.00627226 0.147016 0.358104
-0.0646488 0.149485 0.345294
-0.0712115 0.148896 0.33427
-0.0841828 0.147733 0.31248
-0.100116 0.146304 0.285719
-0.082839 0.137624 0.191555
-0.081392 0.118649 -0.036075
0.131733 0.0749822 -0.434066
0.00173569 0.0822806 -0.424156
-0.0247191 0.0840459 -0.418766
-0.0781099 0.139978 0.163602
-0.0817667 0.138224 0.141024
0.0524742 0.0827535 -0.422992
-0.0297483 0.092632 -0.357529
-0.0257513 0.158818 0.351354
-0.112081 0.156581 0.274468
-0.0928042 0.141158 0.112899
-0.09669 0.139531 0.0923023
-0.102971 0.136901 0.0590105
-0.0874909 0.129053 -0.0198073
-0.0861368 0.124865 -0.066008
0.0998648 0.0832684 -0.42138
0.0340112 0.0920217 -0.362621
0.00920695 0.0941818 -0.353251
-0.024902 0.0985259 -0.324945
-0.0299782 0.0971561 -0.343367
-0.0650368 0.167014 0.358326
-0.0957296 0.149094 0.145352
-0.0983602 0.147919 0.131013
0.13386 0.0882391 -0.377665
0.109085 0.0890942 -0.383242
0.0878593 0.0901373 -0.38465
0.071246 0.0916305 -0.378402
0.0482187 0.0937003 -0.369742
-0.0868473 0.158535 0.19854
-0.0915378 0.156731 0.17676
-0.116221 0.147236 0.0621341
-0.100138 0.141741 0.0140189
-0.107417 0.156007 0.109161
-0.0954037 0.140793 -0.0386548
-0.103866 0.147591 -0.0193506
-0.102621 0.143619 -0.0578731
0.00637281 0.106498 -0.359439
-0.0393056 0.112811 -0.356757
-0.105195 0.160004 0.0134435
0.0348616 0.109587 -0.372849
-0.033381 0.118546 -0.330207
0.113028 0.105805 -0.388276
0.0815204 0.10762 -0.39071
-0.111458 0.163547 -0.0386293
-0.112881 0.161405 -0.0583941
0.130838 0.10753 -0.387964
0.0591192 0.113027 -0.382442
-0.00850159 0.123703 -0.357095
-0.0440978 0.125738 -0.360942
-0.0563305 0.135913 -0.310359
-0.0530453 0.136321 -0.333184
0.0471447 0.126576 -0.377713
0.0348721 0.128106 -0.372861
-0.0325314 0.137804 -0.335905
0.00765634 0.134829 -0.360855
0.0850352 0.128025 -0.390388
-0.0142327 0.141034 -0.350901
0.115827 0.12767 -0.39646
0.072158 0.132852 -0.384092
-0.0512485 0.145067 -0.367216
-0.0613855 0.155143 -0.347975
0.0339397 0.149951 -0.371804
0.010085 0.153258 -0.363534
-0.0343016 0.159412 -0.34814
-0.0124045 0.159335 -0.357511
0.0877931 0.147867 -0.393715
0.0552888 0.152544 -0.382547
0.110135 0.147272 -0.402969
