ply
format ascii 1.0
comment Created by Open3D
element vertex 875
property double x
property double y
property double z
end_header
-0.175372 -0.162159 0.439403
-0.164209 -0.161089 0.439421
-0.175621 -0.162485 0.407697
-0.137336 -0.162026 0.439463
-0.175644 -0.162368 0.392795
-0.117398 -0.161957 0.439493
-0.0968082 -0.161885 0.439524
-0.17569 -0.162122 0.361532
-0.0841277 -0.160742 0.439542
-0.0535392 -0.161734 0.439588
-0.175741 -0.161859 0.328161
-0.0261437 -0.162213 0.439629
-0.175774 -0.162417 0.306137
-0.175578 -0.142211 0.436154
-0.00724071 -0.161574 0.439657
-0.175801 -0.162286 0.287822
-0.175605 -0.142331 0.418573
-0.164209 -0.14047 0.439421
0.00728756 -0.160346 0.439679
-0.17583 -0.16215 0.268855
-0.175632 -0.142457 0.400305
-0.137336 -0.140949 0.439463
0.0271451 -0.159663 0.439709
0.0475812 -0.161989 0.439739
-0.175859 -0.162008 0.249198
-0.117398 -0.140541 0.439493
0.0686212 -0.16131 0.439771
-0.17589 -0.161862 0.228814
-0.175684 -0.142143 0.365551
-0.0968082 -0.140119 0.439524
-0.0841277 -0.141508 0.439542
0.0902923 -0.160611 0.439803
-0.17593 -0.162476 0.202249
-0.175715 -0.142272 0.345123
-0.0535392 -0.142045 0.439588
0.112623 -0.15989 0.439837
0.135645 -0.162363 0.439871
-0.175963 -0.162332 0.180074
-0.175747 -0.142406 0.323831
-0.0261437 -0.142116 0.439629
0.165444 -0.162285 0.439915
-0.175998 -0.162183 0.157026
-0.00724071 -0.141195 0.439657
-0.176034 -0.162028 0.133053
-0.175808 -0.142064 0.283143
-0.175787 -0.140213 0.297059
-0.175584 -0.122172 0.432691
-0.164209 -0.122428 0.439421
0.00728756 -0.139751 0.439679
0.0271451 -0.141757 0.439709
-0.176071 -0.161866 0.108097
-0.175844 -0.142202 0.259115
-0.175616 -0.122379 0.411351
0.0475812 -0.140794 0.439739
-0.17611 -0.161698 0.0820978
-0.175882 -0.142346 0.233981
-0.175644 -0.122111 0.392795
-0.137336 -0.119873 0.439463
-0.117398 -0.121802 0.439493
0.0686212 -0.139802 0.439771
0.0902923 -0.141899 0.439803
-0.176161 -0.162389 0.0480281
-0.175922 -0.142497 0.207662
-0.175678 -0.122326 0.369538
-0.0968082 -0.121074 0.439524
-0.0841277 -0.122274 0.439542
0.112623 -0.140893 0.439837
-0.176204 -0.162224 0.0194265
-0.175955 -0.141971 0.185698
-0.175709 -0.122045 0.349276
-0.0535392 -0.122356 0.439588
0.135645 -0.139857 0.439871
-0.176249 -0.162052 -0.0104589
-0.175998 -0.142119 0.157026
-0.175747 -0.122268 0.323831
-0.0261437 -0.122019 0.439629
0.165444 -0.139335 0.439915
-0.176296 -0.161871 -0.0417163
-0.176043 -0.142275 0.126908
-0.17578 -0.121972 0.301617
-0.00724071 -0.120816 0.439657
0.00728756 -0.122098 0.439679
-0.176345 -0.161682 -0.0744426
-0.17609 -0.142439 0.0952321
-0.175822 -0.122204 0.27366
0.0271451 -0.120867 0.439709
-0.17641 -0.162461 -0.117578
-0.176384 -0.160518 -0.100015
-0.17613 -0.141858 0.068686
-0.175867 -0.122448 0.244172
-0.175594 -0.102371 0.425686
-0.164209 -0.101808 0.439421
0.0475812 -0.119599 0.439739
0.0686212 -0.121366 0.439771
-0.176465 -0.162276 -0.154013
-0.176183 -0.142019 0.0338825
-0.176161 -0.140494 0.0480281
-0.175906 -0.122133 0.218337
-0.175627 -0.102115 0.404015
-0.137336 -0.101431 0.439463
0.0902923 -0.120068 0.439803
0.112623 -0.121897 0.439837
-0.176522 -0.162082 -0.192301
-0.176493 -0.160046 -0.172917
-0.176238 -0.142189 -0.00286257
-0.175955 -0.122388 0.185698
-0.175667 -0.102256 0.377415
-0.117398 -0.100386 0.439493
-0.0968082 -0.102028 0.439524
0.135645 -0.120566 0.439871
-0.176583 -0.161877 -0.232588
-0.176552 -0.159792 -0.212185
-0.176296 -0.142369 -0.0417163
-0.175998 -0.122055 0.157026
-0.175709 -0.102406 0.349276
-0.0841277 -0.100292 0.439542
0.165444 -0.119664 0.439915
-0.176646 -0.161662 -0.275034
-0.17663 -0.160586 -0.264211
-0.176345 -0.141721 -0.0744426
-0.176052 -0.122322 0.120702
-0.175747 -0.102129 0.323831
-0.0535392 -0.0998535 0.439588
-0.0261437 -0.101922 0.439629
-0.176714 -0.161434 -0.319818
-0.17668 -0.159242 -0.297122
-0.17641 -0.141896 -0.117578
-0.176384 -0.1402 -0.100015
-0.176261 -0.13229 -0.0181412
-0.1761 -0.121968 0.088699
-0.175794 -0.102283 0.292461
-0.00724071 -0.100438 0.439657
0.00728756 -0.101504 0.439679
-0.176749 -0.158944 -0.343148
-0.176479 -0.142082 -0.163406
-0.176451 -0.140331 -0.144736
-0.176161 -0.122248 0.0480281
-0.17613 -0.12031 0.068686
-0.175844 -0.102447 0.259115
0.0271451 -0.0999761 0.439709
0.0475812 -0.101432 0.439739
-0.176552 -0.14228 -0.212185
-0.176522 -0.140471 -0.192301
-0.176215 -0.121871 0.0120787
-0.176183 -0.119886 0.0338825
-0.17589 -0.102146 0.228814
0.0686212 -0.0998584 0.439771
0.0902923 -0.101356 0.439803
-0.17663 -0.142492 -0.264211
-0.176598 -0.14062 -0.242991
-0.175946 -0.102315 0.191267
-0.175922 -0.100869 0.207662
-0.175605 -0.0822649 0.418573
-0.175372 -0.0804411 0.439403
-0.164209 -0.0811888 0.439421
0.112623 -0.0997336 0.439837
0.135645 -0.101276 0.439871
-0.176697 -0.141742 -0.308393
-0.176663 -0.139829 -0.286004
-0.176358 -0.12248 -0.0828659
-0.176308 -0.119652 -0.0497563
-0.176007 -0.102496 0.151122
-0.175972 -0.100508 0.174396
-0.175649 -0.0821794 0.388996
-0.137336 -0.0803543 0.439463
-0.117398 -0.0816475 0.439493
0.165444 -0.0999935 0.439915
-0.176749 -0.139965 -0.343148
-0.176424 -0.12207 -0.12652
-0.176397 -0.120602 -0.108744
-0.176249 -0.112483 -0.0104589
-0.176062 -0.102166 0.114432
-0.176043 -0.101135 0.126908
-0.175703 -0.0824259 0.353395
-0.175684 -0.0814217 0.365551
-0.0968082 -0.0802623 0.439524
-0.0841277 -0.0810578 0.439542
-0.176508 -0.122404 -0.182548
-0.176479 -0.120876 -0.163406
-0.176272 -0.109903 -0.0259103
-0.17613 -0.102354 0.068686
-0.1761 -0.100756 0.088699
-0.175754 -0.0823398 0.319464
-0.0535392 -0.0801641 0.439588
-0.0261437 -0.0818245 0.439629
-0.176583 -0.121962 -0.232588
-0.176552 -0.120391 -0.212185
-0.176193 -0.101996 0.026694
-0.176161 -0.100353 0.0480281
-0.175808 -0.0822476 0.283143
-0.175787 -0.081176 0.297059
-0.00724071 -0.080059 0.439657
0.00728756 -0.0809086 0.439679
0.0271451 -0.08207 0.439709
-0.17668 -0.122316 -0.297122
-0.176646 -0.120677 -0.275034
-0.17663 -0.119874 -0.264211
-0.175867 -0.0821487 0.244172
-0.175837 -0.0806768 0.264007
0.0475812 -0.0802373 0.439739
0.0686212 -0.081423 0.439771
-0.176749 -0.120987 -0.343148
-0.176714 -0.119321 -0.319818
-0.176358 -0.102401 -0.0828659
-0.176308 -0.100037 -0.0497563
-0.175938 -0.0824325 0.196784
-0.175906 -0.0808935 0.218337
0.0902923 -0.0795257 0.439803
0.112623 -0.0807367 0.439837
0.135645 -0.0819852 0.439871
-0.176437 -0.102001 -0.135572
-0.176397 -0.100161 -0.108744
-0.176227 -0.0923814 0.0046497
-0.176007 -0.0823326 0.151122
-0.175972 -0.0807358 0.174396
0.165444 -0.0803226 0.439915
-0.176537 -0.102221 -0.20218
-0.176493 -0.100296 -0.172917
-0.176272 -0.0906218 -0.0259103
-0.176081 -0.0822244 0.101698
-0.176052 -0.0809739 0.120702
-0.175627 -0.0623302 0.404015
-0.175594 -0.0609042 0.425686
-0.164209 -0.0605694 0.439421
-0.137336 -0.0619123 0.439463
-0.176646 -0.102462 -0.275034
-0.17663 -0.10178 -0.264211
-0.176598 -0.100443 -0.242991
-0.176567 -0.0991404 -0.22232
-0.176161 -0.082107 0.0480281
-0.17613 -0.0808054 0.068686
-0.17569 -0.0623545 0.361532
-0.175661 -0.0611087 0.381306
-0.117398 -0.0602318 0.439493
-0.0968082 -0.061217 0.439524
-0.0841277 -0.0618237 0.439542
-0.176749 -0.102009 -0.343148
-0.176714 -0.100604 -0.319818
-0.17668 -0.0992377 -0.297122
-0.176204 -0.0801798 0.0194265
-0.17576 -0.0623811 0.315059
-0.175728 -0.0610775 0.336713
-0.0535392 -0.0604746 0.439588
-0.0261437 -0.0617272 0.439629
-0.176358 -0.0823226 -0.0828659
-0.176308 -0.0804219 -0.0497563
-0.175837 -0.0624104 0.264007
-0.175808 -0.0613118 0.283143
-0.175787 -0.060513 0.297059
-0.00724071 -0.0596803 0.439657
0.00728756 -0.0603137 0.439679
0.0271451 -0.0611794 0.439709
0.0475812 -0.0620704 0.439739
-0.176465 -0.0821918 -0.154013
-0.176424 -0.0806906 -0.12652
-0.176397 -0.0797199 -0.108744
-0.175922 -0.0624426 0.207662
-0.17589 -0.0612876 0.228814
0.0686212 -0.0599151 0.439771
0.0902923 -0.0608138 0.439803
0.112623 -0.0617398 0.439837
-0.176583 -0.0820474 -0.232588
-0.176552 -0.0809904 -0.212185
-0.176522 -0.0799603 -0.192301
-0.176493 -0.0789561 -0.172917
-0.176272 -0.0713406 -0.0259103
-0.176249 -0.0705401 -0.0104589
-0.176015 -0.0624784 0.145159
-0.175972 -0.0609638 0.174396
-0.175955 -0.0603783 0.185698
0.135645 -0.0594794 0.439871
0.165444 -0.0606518 0.439915
-0.176731 -0.0824547 -0.331402
-0.176697 -0.0813271 -0.308393
-0.176663 -0.08023 -0.286004
-0.17663 -0.079162 -0.264211
-0.17611 -0.0621914 0.0820978
-0.176081 -0.0612309 0.101698
-0.176052 -0.0602997 0.120702
-0.176204 -0.0615333 0.0194265
-0.176161 -0.0602118 0.0480281
-0.175584 -0.0424388 0.432691
-0.176358 -0.0622439 -0.0828659
-0.176308 -0.0608068 -0.0497563
-0.175673 -0.0424362 0.373492
-0.175655 -0.0419295 0.385166
-0.17561 -0.0406357 0.414976
-0.164209 -0.03995 0.439421
-0.137336 -0.0408358 0.439463
-0.117398 -0.041493 0.439493
-0.0968082 -0.0421717 0.439524
-0.176508 -0.0622756 -0.182548
-0.176479 -0.0614984 -0.163406
-0.176451 -0.0607403 -0.144736
-0.176397 -0.0592789 -0.108744
-0.175774 -0.0424333 0.306137
-0.175728 -0.0411918 0.336713
-0.0841277 -0.039842 0.439542
-0.0535392 -0.0407852 0.439588
-0.0261437 -0.04163 0.439629
-0.00724071 -0.0422129 0.439657
0.0793761 -0.0448839 0.439787
-0.17668 -0.062312 -0.297122
-0.176646 -0.061477 -0.275034
-0.17663 -0.0610679 -0.264211
-0.176598 -0.0602657 -0.242991
-0.176567 -0.0594843 -0.22232
-0.176537 -0.0587229 -0.20218
-0.176284 -0.0523564 -0.0337683
-0.176249 -0.0514752 -0.0104589
-0.17589 -0.0424299 0.228814
-0.175859 -0.0416593 0.249198
-0.17583 -0.0409162 0.268855
-0.175801 -0.0401992 0.287822
0.00728756 -0.0397188 0.439679
0.0271451 -0.0402889 0.439709
0.0475812 -0.0408756 0.439739
0.101374 -0.04242 0.43982
-0.176749 -0.0593074 -0.343148
-0.176714 -0.0584907 -0.319818
-0.176025 -0.042426 0.139136
-0.175989 -0.0415951 0.162873
-0.175955 -0.0407962 0.185698
-0.175922 -0.0400273 0.207662
0.124046 -0.0398805 0.439854
0.135645 -0.0401888 0.439871
0.165444 -0.0409809 0.439915
-0.176183 -0.0424213 0.0338825
-0.176161 -0.0419658 0.0480281
-0.17613 -0.0413006 0.068686
-0.1761 -0.0406561 0.088699
-0.176071 -0.0400314 0.108097
-0.176371 -0.0424158 -0.0913894
-0.176345 -0.0419176 -0.0744426
-0.176308 -0.0411917 -0.0497563
-0.176598 -0.0424092 -0.242991
-0.176567 -0.0418593 -0.22232
-0.176537 -0.0413235 -0.20218
-0.176493 -0.040545 -0.172917
-0.176465 -0.0400422 -0.154013
-0.176424 -0.0393108 -0.12652
-0.176397 -0.0388379 -0.108744
-0.176749 -0.040329 -0.343148
-0.176714 -0.0397737 -0.319818
-0.17668 -0.0392335 -0.297122
-0.176646 -0.0387077 -0.275034
-0.17663 -0.0384501 -0.264211
-0.176249 -0.0324103 -0.0104589
-0.175621 -0.0224573 0.407697
-0.175589 -0.0219455 0.429202
-0.164209 -0.0219081 0.439421
-0.137336 -0.0223938 0.439463
-0.176272 -0.0289218 -0.0259103
-0.175808 -0.0224312 0.283143
-0.175787 -0.0221389 0.297059
-0.17576 -0.0217609 0.315059
-0.175728 -0.0213061 0.336713
-0.175684 -0.0207004 0.365551
-0.175655 -0.0202885 0.385166
-0.117398 -0.0200772 0.439493
-0.0968082 -0.0204057 0.439524
-0.0841277 -0.0206079 0.439542
-0.0535392 -0.0210958 0.439588
-0.0261437 -0.0215328 0.439629
-0.00724071 -0.0218343 0.439657
0.00728756 -0.022066 0.439679
0.0271451 -0.0223827 0.439709
-0.176052 -0.022397 0.120702
-0.176015 -0.0219519 0.145159
-0.175972 -0.0214197 0.174396
-0.175955 -0.021214 0.185698
-0.175922 -0.0208142 0.207662
-0.17589 -0.0204292 0.228814
-0.175859 -0.0200582 0.249198
0.0475812 -0.0196808 0.439739
0.0686212 -0.0199717 0.439771
0.0902923 -0.0202712 0.439803
0.112623 -0.0205799 0.439837
0.135645 -0.0208982 0.439871
0.165444 -0.0213101 0.439915
-0.176397 -0.0224851 -0.108744
-0.176371 -0.0222178 -0.0913894
-0.176345 -0.0219568 -0.0744426
-0.176308 -0.0215766 -0.0497563
-0.176204 -0.0205111 0.0194265
-0.176161 -0.0200706 0.0480281
-0.17613 -0.0197524 0.068686
-0.1761 -0.0194442 0.088699
-0.176749 -0.0213507 -0.343148
-0.176714 -0.0210567 -0.319818
-0.17668 -0.0207707 -0.297122
-0.176646 -0.0204923 -0.275034
-0.17663 -0.020356 -0.264211
-0.176598 -0.0200886 -0.242991
-0.176567 -0.0198281 -0.22232
-0.176537 -0.0195743 -0.20218
-0.176493 -0.0192055 -0.172917
-0.176465 -0.0189673 -0.154013
-0.176424 -0.0186209 -0.12652
-0.176272 -0.00964062 -0.0259103
-0.176249 -0.00953245 -0.0104589
0.0793761 -0.00464317 0.439787
-0.176749 -0.00237231 -0.343148
-0.176714 -0.00233964 -0.319818
-0.17668 -0.00230787 -0.297122
-0.176646 -0.00227694 -0.275034
-0.17663 -0.00226179 -0.264211
-0.176598 -0.00223208 -0.242991
-0.176567 -0.00220313 -0.22232
-0.176537 -0.00217494 -0.20218
-0.176493 -0.00213396 -0.172917
-0.176465 -0.0021075 -0.154013
-0.176424 -0.002069 -0.12652
-0.176397 -0.00204411 -0.108744
-0.176371 -0.00201981 -0.0913894
-0.176345 -0.00199609 -0.0744426
-0.176308 -0.00196152 -0.0497563
-0.176204 -0.00186466 0.0194265
-0.176161 -0.00182461 0.0480281
-0.17613 -0.00179569 0.068686
-0.1761 -0.00176767 0.088699
-0.176071 -0.00174051 0.108097
-0.176034 -0.00170557 0.133053
-0.176015 -0.00168862 0.145159
-0.175972 -0.00164768 0.174396
-0.175955 -0.00163186 0.185698
-0.175922 -0.0016011 0.207662
-0.17589 -0.00157149 0.228814
-0.175859 -0.00154295 0.249198
-0.17583 -0.00151543 0.268855
-0.175801 -0.00148887 0.287822
-0.175767 -0.00145695 0.310617
-0.175741 -0.00143239 0.328161
-0.175709 -0.00140282 0.349276
-0.175678 -0.00137446 0.369538
-0.175649 -0.00134721 0.388996
-0.175621 -0.00132103 0.407697
-0.175589 -0.00129092 0.429202
-0.164209 -0.00128872 0.439421
-0.137336 -0.00131729 0.439463
-0.117398 -0.00133849 0.439493
-0.0968082 -0.00136039 0.439524
-0.0841277 -0.00137387 0.439542
-0.0535392 -0.0014064 0.439588
-0.0261437 -0.00143553 0.439629
-0.00724071 -0.00145563 0.439657
0.00728756 -0.00147108 0.439679
0.0271451 -0.00149219 0.439709
0.0475812 -0.00151392 0.439739
0.101374 -0.00157112 0.43982
0.124046 -0.00159523 0.439854
0.135645 -0.00160756 0.439871
0.165444 -0.00163925 0.439915
-0.176272 0.00964062 -0.0259103
-0.176249 0.00953245 -0.0104589
-0.176749 0.0213507 -0.343148
-0.176714 0.0210567 -0.319818
-0.17668 0.0207707 -0.297122
-0.176646 0.0204923 -0.275034
-0.17663 0.020356 -0.264211
-0.176598 0.0200886 -0.242991
-0.176567 0.0198281 -0.22232
-0.176537 0.0195743 -0.20218
-0.176493 0.0192055 -0.172917
-0.176465 0.0189673 -0.154013
-0.176424 0.0186209 -0.12652
-0.176397 0.0183969 -0.108744
-0.176371 0.0181782 -0.0913894
-0.176345 0.0179647 -0.0744426
-0.176308 0.0176536 -0.0497563
-0.176204 0.0205111 0.0194265
-0.176161 0.0200706 0.0480281
-0.17613 0.0197525 0.068686
-0.1761 0.0194442 0.088699
-0.176071 0.0191455 0.108097
-0.176034 0.0187611 0.133053
-0.176015 0.0185747 0.145159
-0.175972 0.0181244 0.174396
-0.175955 0.0179503 0.185698
-0.175922 0.017612 0.207662
0.124046 0.0175474 0.439854
0.135645 0.0176831 0.439871
0.165444 0.0180316 0.439915
-0.17589 0.0204292 0.228814
-0.175859 0.0200582 0.249198
-0.17583 0.0197004 0.268855
-0.175801 0.0193552 0.287822
-0.175767 0.0189403 0.310617
-0.175741 0.0186209 0.328161
-0.175709 0.0182366 0.349276
-0.175678 0.0178678 0.369538
-0.175649 0.0175136 0.388996
-0.109242 0.017513 0.439505
-0.0883824 0.0178014 0.439536
-0.0711933 0.018039 0.439562
-0.0490507 0.0183451 0.439595
-0.0307881 0.0185975 0.439622
-0.0120159 0.018857 0.43965
0.0121991 0.0191917 0.439686
0.0321989 0.0194682 0.439716
0.0475812 0.0196808 0.439739
0.0686212 0.0199717 0.439771
0.0902923 0.0202712 0.439803
-0.176272 0.0289219 -0.0259103
-0.176249 0.0285974 -0.0104588
-0.175621 0.0198153 0.407697
-0.175589 0.0193637 0.429202
-0.164209 0.0193307 0.439421
-0.137336 0.0197593 0.439463
-0.176749 0.040329 -0.343148
-0.176714 0.0397737 -0.319818
-0.17668 0.0392335 -0.297122
-0.176646 0.0387077 -0.275034
-0.17663 0.0384501 -0.264211
-0.176598 0.037945 -0.242991
-0.176567 0.0418593 -0.22232
-0.176537 0.0413235 -0.20218
-0.176493 0.040545 -0.172917
-0.176465 0.0400422 -0.154013
-0.176424 0.0393108 -0.12652
-0.176397 0.0388379 -0.108744
-0.176371 0.0383762 -0.0913894
-0.176345 0.0379254 -0.0744426
-0.176308 0.0411917 -0.0497563
-0.176204 0.0391575 0.0194265
-0.176161 0.0383166 0.0480281
-0.17613 0.0377092 0.068686
-0.1761 0.0406561 0.088699
-0.176071 0.0400314 0.108097
-0.176034 0.0392278 0.133053
-0.176015 0.0388379 0.145159
-0.175972 0.0378964 0.174396
-0.175955 0.0375325 0.185698
0.15939 0.0375544 0.439906
-0.176749 0.0593073 -0.343148
-0.176714 0.0584907 -0.319818
-0.17668 0.0576963 -0.297122
-0.176272 0.048203 -0.0259103
-0.176249 0.0476622 -0.0104588
-0.175922 0.0400273 0.207662
-0.17589 0.0392869 0.228814
-0.175859 0.0385734 0.249198
-0.17583 0.0378854 0.268855
0.0372893 0.0375742 0.439724
0.0580239 0.0381254 0.439755
0.0902923 0.0389832 0.439803
0.112623 0.0395768 0.439837
0.135645 0.0401888 0.439871
-0.176646 0.061477 -0.275034
-0.17663 0.0610679 -0.264211
-0.176598 0.0602657 -0.242991
-0.176567 0.0594843 -0.22232
-0.176537 0.0587229 -0.20218
-0.176493 0.0576166 -0.172917
-0.175801 0.0401992 0.287822
-0.175767 0.0393375 0.310617
-0.175741 0.0386743 0.328161
-0.175709 0.037876 0.349276
-0.0668241 0.037591 0.439568
-0.0535392 0.0379724 0.439588
-0.0261437 0.038759 0.439629
-0.00724071 0.0393017 0.439657
0.00728756 0.0397188 0.439679
-0.176465 0.061117 -0.154013
-0.176424 0.0600007 -0.12652
-0.176397 0.0592789 -0.108744
-0.176371 0.0585743 -0.0913891
-0.176345 0.0578862 -0.0744426
-0.175678 0.039859 0.369538
-0.175649 0.0390689 0.388996
-0.175621 0.0383096 0.407697
-0.156651 0.0376057 0.439433
-0.137336 0.0382012 0.439463
-0.117398 0.038816 0.439493
-0.0968082 0.039451 0.439524
-0.176308 0.0608068 -0.0497563
-0.176204 0.057804 0.0194265
-0.175589 0.0400182 0.429202
-0.176749 0.0782858 -0.343148
-0.176161 0.0602118 0.0480281
-0.17613 0.0592573 0.068686
-0.1761 0.0583327 0.088699
-0.176714 0.081887 -0.319818
-0.17668 0.0807748 -0.297122
-0.176646 0.0796924 -0.275034
-0.17663 0.079162 -0.264211
-0.176598 0.0781221 -0.242991
-0.176071 0.0609173 0.108097
-0.176034 0.0596944 0.133053
-0.176015 0.0591012 0.145159
-0.175972 0.0576684 0.174396
0.171545 0.0576004 0.439925
-0.176567 0.0815155 -0.22232
-0.176537 0.0804721 -0.20218
-0.176493 0.0789561 -0.172917
-0.176465 0.0779768 -0.154013
-0.176272 0.0713406 -0.0259103
-0.176249 0.0705401 -0.0104588
-0.175955 0.0603783 0.185698
-0.175922 0.0592404 0.207662
-0.17589 0.0581447 0.228814
0.0902923 0.0576951 0.439803
0.112623 0.0585737 0.439837
0.135645 0.0594794 0.439871
-0.176424 0.0806906 -0.12652
-0.176397 0.0797199 -0.108744
-0.176371 0.0787722 -0.0913891
-0.176345 0.0778469 -0.0744426
-0.175859 0.0601746 0.249198
-0.17583 0.0591012 0.268855
-0.175801 0.0580655 0.287822
0.0121991 0.0575752 0.439686
0.0321989 0.0584046 0.439716
0.0475812 0.0590425 0.439739
0.0686212 0.059915 0.439771
-0.176308 0.0804219 -0.0497563
-0.175767 0.0597347 0.310617
-0.175741 0.0587276 0.328161
-0.175709 0.0575155 0.349276
-0.0535392 0.0576619 0.439588
-0.0261437 0.0588562 0.439629
-0.00724071 0.0596803 0.439657
-0.176749 0.102009 -0.343148
-0.176714 0.100604 -0.319818
-0.17668 0.0992376 -0.297122
-0.176646 0.0979078 -0.275034
-0.176204 0.0801797 0.0194265
-0.176161 0.0784578 0.0480281
-0.175678 0.0591012 0.369538
-0.175649 0.0579298 0.388996
-0.117398 0.0575548 0.439493
-0.0968082 0.0584962 0.439524
-0.0841277 0.059076 0.439542
-0.17663 0.10178 -0.264211
-0.176598 0.100443 -0.242991
-0.176567 0.0991404 -0.22232
-0.176537 0.0978715 -0.20218
-0.17613 0.0808054 0.068686
-0.1761 0.0795445 0.088699
-0.176071 0.0783223 0.108097
-0.175621 0.0594459 0.407697
-0.175589 0.058091 0.429202
-0.160441 0.0581722 0.439427
-0.141248 0.0590906 0.439457
-0.176493 0.100296 -0.172917
-0.176465 0.0990517 -0.154013
-0.176272 0.0906218 -0.0259103
-0.176249 0.089605 -0.0104588
-0.176034 0.0801611 0.133053
-0.176015 0.0793645 0.145159
-0.176424 0.10138 -0.12652
-0.176397 0.100161 -0.108744
-0.176371 0.0989702 -0.0913891
-0.176345 0.0978076 -0.0744426
-0.175972 0.0807358 0.174396
-0.175955 0.0799605 0.185698
-0.175922 0.0784535 0.207662
0.112623 0.0775705 0.439837
0.135645 0.0787701 0.439871
0.165444 0.0803226 0.439915
-0.176749 0.120987 -0.343148
-0.176714 0.119321 -0.319818
-0.17668 0.1177 -0.297122
-0.176308 0.100037 -0.0497563
-0.17589 0.0801454 0.228814
-0.175859 0.0786898 0.249198
0.0580239 0.0777758 0.439755
0.0902923 0.0795257 0.439803
-0.176646 0.120677 -0.275034
-0.17663 0.119874 -0.264211
-0.176598 0.118299 -0.24299
-0.176204 0.0988262 0.0194265
-0.17583 0.0803171 0.268855
-0.175801 0.0789095 0.287822
0.00241065 0.0776916 0.439672
0.0221275 0.0788028 0.439701
0.0424165 0.0799462 0.439732
-0.176567 0.121172 -0.22232
-0.176537 0.119621 -0.20218
-0.176161 0.100353 0.0480281
-0.17613 0.0987622 0.068686
-0.175767 0.0801319 0.310617
-0.175741 0.0787809 0.328161
-0.0490507 0.0776138 0.439595
-0.0307881 0.0786818 0.439622
-0.176493 0.121635 -0.172917
-0.176465 0.120126 -0.154013
-0.176424 0.117932 -0.12652
-0.176272 0.109903 -0.0259103
-0.176249 0.10867 -0.0104588
-0.1761 0.100756 0.088699
-0.176071 0.0992083 0.108097
-0.175709 0.0799605 0.349276
-0.175678 0.0783435 0.369538
-0.0968082 0.0775415 0.439524
-0.0841277 0.0783101 0.439542
-0.176749 0.139965 -0.343148
-0.176714 0.138038 -0.319818
-0.176397 0.120602 -0.108744
-0.176371 0.119168 -0.0913891
-0.176345 0.117768 -0.0744426
-0.176034 0.100628 0.133053
-0.176015 0.0996277 0.145159
-0.175649 0.079485 0.388996
-0.175621 0.0779402 0.407697
-0.137336 0.0777197 0.439463
-0.117398 0.0789705 0.439493
-0.17668 0.140779 -0.297122
-0.176647 0.138892 -0.275034
-0.17663 0.137968 -0.264211
-0.176308 0.119652 -0.0497563
-0.175972 0.100508 0.174396
-0.175955 0.0995426 0.185698
-0.175922 0.0976666 0.207662
-0.175589 0.0787455 0.429202
-0.164209 0.0786114 0.439421
0.129823 0.097683 0.439862
0.153384 0.0992113 0.439897
0.165444 0.0999935 0.439915
-0.176598 0.14062 -0.24299
-0.176567 0.138797 -0.22232
-0.17589 0.0990031 0.228814
0.0902923 0.0982376 0.439803
0.112623 0.0997336 0.439837
-0.176537 0.14137 -0.20218
-0.176493 0.138707 -0.172917
-0.176204 0.121202 0.0194265
-0.176161 0.118599 0.0480281
-0.175859 0.100291 0.249198
-0.17583 0.0985021 0.268855
0.0372893 0.0976929 0.439724
0.0580239 0.099126 0.439755
-0.176749 0.158944 -0.343148
-0.176465 0.141201 -0.154013
-0.176424 0.138622 -0.12652
-0.176272 0.129184 -0.0259103
-0.176249 0.127735 -0.0104588
-0.17613 0.12031 0.068686
-0.1761 0.118433 0.088699
-0.175801 0.0997536 0.287822
-0.175767 0.0976152 0.310617
-0.00724071 0.0975264 0.439657
0.00728756 0.0985614 0.439679
-0.176714 0.161434 -0.319818
-0.17668 0.159242 -0.297122
-0.176397 0.141043 -0.108744
-0.176371 0.139366 -0.0913891
-0.176345 0.137729 -0.0744426
-0.176071 0.120094 0.108097
-0.176034 0.117683 0.133053
-0.175741 0.0988342 0.328161
-0.0445316 0.0977016 0.439602
-0.176647 0.161662 -0.275034
-0.17663 0.160586 -0.264211
-0.176598 0.158476 -0.24299
-0.176308 0.139267 -0.0497563
-0.176015 0.119891 0.145159
-0.175709 0.0995999 0.349276
-0.175678 0.0975858 0.369538
-0.0841277 0.0975441 0.439542
-0.176567 0.160828 -0.22232
-0.176537 0.158769 -0.20218
-0.175972 0.12028 0.174396
-0.175955 0.119125 0.185698
-0.175649 0.0983459 0.388996
-0.117398 0.0977093 0.439493
-0.0968082 0.0993076 0.439524
0.141512 0.117807 0.43988
0.165444 0.119664 0.439915
-0.176493 0.160046 -0.172917
-0.176465 0.158061 -0.154013
-0.176204 0.139848 0.0194265
-0.175922 0.120082 0.207662
-0.17589 0.117861 0.228814
-0.175621 0.0990765 0.407697
-0.152836 0.0975602 0.439439
0.101374 0.117833 0.43982
0.124046 0.119641 0.439854
-0.176424 0.159312 -0.12652
-0.176272 0.148465 -0.0259103
-0.176161 0.140494 0.0480281
-0.17613 0.138267 0.068686
-0.175859 0.118806 0.249198
-0.175589 0.0994001 0.429202
-0.0624256 0.107564 0.439575
0.0633031 0.117858 0.439763
0.0848137 0.11962 0.439795
-0.176397 0.161484 -0.108744
-0.176371 0.159564 -0.0913891
-0.176345 0.15769 -0.0744426
-0.176249 0.150613 -0.0104588
-0.1761 0.139645 0.088699
-0.17583 0.119718 0.268855
-0.175801 0.11762 0.287822
0.0271451 0.117882 0.439709
-0.176308 0.158882 -0.0497563
-0.176071 0.14098 0.108097
-0.176034 0.13815 0.133053
-0.175767 0.118012 0.310617
-0.00724071 0.117905 0.439657
0.00728756 0.119156 0.439679
-0.176015 0.140154 0.145159
-0.175741 0.118888 0.328161
-0.0445316 0.117525 0.439602
-0.176204 0.158495 0.0194265
-0.175972 0.140052 0.174396
-0.175955 0.138707 0.185698
-0.175709 0.119239 0.349276
-0.0755335 0.117555 0.439555
0.147425 0.137707 0.439888
0.165444 0.139335 0.439915
-0.176161 0.15874 0.0480281
-0.175922 0.139295 0.207662
-0.175678 0.119577 0.369538
-0.105124 0.117584 0.439511
0.112623 0.137727 0.439837
-0.17613 0.159815 0.068686
-0.17589 0.139861 0.228814
-0.175649 0.119901 0.388996
-0.175621 0.117571 0.407697
-0.133399 0.117611 0.439469
0.0793761 0.137747 0.439787
-0.1761 0.160857 0.088699
-0.176071 0.158385 0.108097
-0.175859 0.140407 0.249198
-0.17583 0.137903 0.268855
-0.160441 0.117637 0.439427
-0.0579973 0.12755 0.439582
0.0475812 0.137766 0.439739
-0.176034 0.158617 0.133053
-0.175801 0.138464 0.287822
-0.175589 0.120055 0.429202
0.0171456 0.137784 0.439694
0.129823 0.148927 0.439862
-0.176015 0.160418 0.145159
-0.175767 0.13841 0.310617
-0.0120159 0.137801 0.43965
-0.175972 0.159824 0.174396
-0.175955 0.158289 0.185698
-0.175741 0.138941 0.328161
-0.0399818 0.137818 0.439608
0.153384 0.157762 0.439897
0.165444 0.159006 0.439915
-0.175922 0.158508 0.207662
-0.175709 0.138879 0.349276
-0.17589 0.158719 0.228814
-0.175678 0.138819 0.369538
-0.0926091 0.137849 0.43953
0.095812 0.158085 0.439811
-0.175859 0.158923 0.249198
-0.175649 0.138762 0.388996
-0.117398 0.137864 0.439493
0.0633031 0.157655 0.439763
0.0848137 0.160011 0.439795
-0.17583 0.159119 0.268855
-0.175621 0.138707 0.407697
-0.141248 0.137878 0.439457
0.0372893 0.157812 0.439724
-0.175801 0.159308 0.287822
-0.175589 0.138127 0.429202
-0.164209 0.137892 0.439421
-0.0668241 0.148972 0.439568
0.0121991 0.157963 0.439686
-0.175767 0.158807 0.310617
-0.016758 0.157559 0.439643
-0.175741 0.158994 0.328161
-0.0399818 0.157709 0.439608
-0.175709 0.158518 0.349276
-0.175678 0.158061 0.369538
-0.175649 0.157623 0.388996
-0.109242 0.157617 0.439505
-0.129437 0.157756 0.439475
-0.175621 0.159843 0.407697
-0.148997 0.157891 0.439445
-0.175589 0.158782 0.429202
