ply
format ascii 1.0
comment Created by Open3D
element vertex 807
property double x
property double y
property double z
end_header
-0.332571 -0.147497 -0.337396
-0.329945 -0.148976 -0.323312
-0.305216 -0.136839 -0.337418
-0.332571 -0.126868 -0.337396
-0.293278 -0.127086 -0.337429
-0.313102 -0.121772 -0.337413
0.338249 -0.147507 -0.337947
0.323931 -0.147825 -0.332155
-0.332571 -0.106239 -0.337397
0.30218 -0.134933 -0.337919
0.338249 -0.131268 -0.337947
-0.329943 -0.102482 -0.323343
0.321739 -0.125118 -0.337934
0.308217 -0.114748 -0.331365
0.33046 -0.119668 -0.303505
-0.31898 -0.0882274 -0.337408
0.338249 -0.112322 -0.337947
-0.307403 -0.0724616 -0.333494
0.338249 -0.0906693 -0.337947
0.314815 -0.0906653 -0.331325
-0.322489 -0.145119 0.329599
-0.332571 -0.0670442 -0.337397
-0.301804 -0.137081 0.329582
-0.333199 -0.132501 0.295582
0.334576 -0.145573 0.320887
0.331247 -0.14707 0.336809
-0.289302 -0.124367 0.32957
-0.310101 -0.123798 0.329586
0.334143 -0.132508 0.286701
0.311525 -0.135857 0.329077
0.338249 -0.0717235 -0.337947
0.302181 -0.0708063 -0.337918
0.329952 -0.129775 0.311125
0.327643 -0.126371 0.329063
0.32174 -0.0659223 -0.337933
-0.293278 -0.0514669 -0.337402
-0.313102 -0.0509987 -0.337412
0.338313 -0.114886 0.30627
0.311525 -0.116096 0.329076
-0.332571 -0.0464152 -0.337397
0.328771 -0.106748 0.331487
0.311926 -0.0549665 -0.337926
0.285745 -0.0549255 -0.331077
-0.314238 -0.0889666 0.329591
0.338249 -0.0500711 -0.337947
-0.326603 -0.0800674 0.329602
0.337498 -0.0854396 0.30458
0.329946 -0.086373 0.322473
0.311525 -0.0815141 0.329077
-0.310101 -0.0716727 0.329587
-0.333767 -0.0700675 0.307591
-0.307193 -0.0323524 -0.337416
0.332741 -0.0653975 0.294712
0.329955 -0.0661121 0.311131
0.327643 -0.0669021 0.329064
-0.289302 -0.0589107 0.329571
0.311525 -0.0617531 0.329077
-0.333078 -0.0524727 0.293017
-0.332571 -0.0257862 -0.337397
0.338249 -0.0311253 -0.337947
0.302181 -0.0307273 -0.337918
-0.310101 -0.0499537 0.329587
-0.330476 -0.0495219 0.32429
0.338206 -0.050547 0.284227
0.32174 -0.0255617 -0.337933
0.329969 -0.0461645 0.299976
0.329946 -0.0468882 0.322473
0.311525 -0.0419921 0.329077
-0.322489 -0.0324894 0.329598
-0.3337 -0.031813 0.306161
0.331622 -0.014851 -0.337941
0.335554 -0.026767 0.300547
0.329946 -0.0271458 0.322473
0.304519 -0.0121266 -0.331832
0.312118 -0.0222536 0.330387
-0.309166 -0.00729874 -0.337416
-0.328705 -0.00723313 -0.3374
-0.305956 -0.0108695 0.329585
-0.326603 -0.0108199 0.329602
-0.333943 -0.0106472 0.311294
0.335188 -0.00729573 0.299789
0.329946 -0.00740342 0.322473
0.311524 -0.00247014 0.329075
-0.293477 -0.00217989 0.329574
0.329965 0.00728905 0.299966
0.329946 0.00740337 0.322472
0.333179 0.0120271 0.284716
-0.310101 0.0108595 0.329587
0.338249 0.0094729 -0.337947
0.289294 0.00930848 -0.337908
0.311525 0.0222311 0.329076
0.284884 0.0221161 0.329099
-0.293477 0.0196189 0.329573
-0.293278 0.00945271 -0.337428
0.321739 0.0147989 -0.337934
0.335693 0.0259755 0.258021
0.329977 0.0263199 0.278132
0.329964 0.0267266 0.299964
0.329942 0.0271457 0.322464
-0.26409 0.0241338 0.329551
-0.305956 0.0282606 0.329584
-0.313102 0.0135303 -0.337412
-0.332571 0.0134088 -0.337397
0.330898 0.0216174 -0.283969
0.300835 0.0369749 0.329085
0.269031 0.0367461 0.329112
0.270186 0.0224505 -0.337891
0.330451 0.0269907 -0.296
0.330907 0.0462362 0.301937
0.329943 0.046888 0.322466
-0.326603 0.0411157 0.329602
0.338249 0.0284187 -0.337947
0.289295 0.0279255 -0.337907
-0.310101 0.0456099 0.329587
-0.333841 0.0446432 0.309152
0.321739 0.0336338 -0.337934
0.337907 0.0601456 0.283618
0.306175 0.0616889 0.329082
-0.266958 0.0265732 -0.33745
0.32997 0.0656022 0.299977
0.329945 0.0666305 0.32247
0.284884 0.0663483 0.329099
0.270186 0.038298 -0.337891
-0.293278 0.0325593 -0.337429
0.338233 0.0788385 0.273619
0.311525 0.0815141 0.329077
-0.313102 0.0343461 -0.337412
-0.332571 0.0340378 -0.337397
0.329965 0.0850392 0.299966
0.329945 0.0863728 0.32247
0.290189 0.0860959 0.329092
0.269031 0.0857407 0.329111
0.338249 0.0500711 -0.337947
0.336847 0.0868904 0.250006
0.249026 0.0904373 0.331555
-0.280929 0.080878 0.329562
-0.297645 0.0805815 0.329578
-0.318367 0.0802136 0.329594
0.307184 0.0525554 -0.332486
0.160752 0.0935137 0.3292
0.140646 0.0931376 0.329218
-0.255593 0.0858707 0.331764
0.337787 0.095027 0.231639
0.311525 0.101275 0.329077
0.216891 0.0994137 0.329156
0.196332 0.0990093 0.329173
0.105847 0.0972295 0.329247
0.0861785 0.0968425 0.329261
-0.0878845 0.0937617 0.334342
-0.133716 0.0925175 0.329445
-0.242865 0.0903703 0.32953
-0.332067 0.0845931 0.271675
0.330459 0.0605378 -0.303506
0.334091 0.092333 0.132047
0.330083 0.0936316 0.151017
0.334036 0.0962462 0.185795
0.330039 0.0976877 0.206725
0.329995 0.102112 0.267488
0.329956 0.10529 0.311132
0.327643 0.106548 0.329063
0.29019 0.105775 0.329095
0.27063 0.105649 0.33292
-0.0748843 0.098244 0.329394
-0.155959 0.0965715 0.329461
-0.186438 0.096279 0.334104
0.286091 0.0597713 -0.337905
0.338325 0.0934916 0.0896977
0.329968 0.108497 0.288959
0.175938 0.108228 0.329188
-0.212818 0.0998358 0.329508
-0.285119 0.0982749 0.329568
-0.305956 0.097825 0.329585
-0.338602 0.0908943 0.247922
0.237618 0.114429 0.329136
0.07153 0.110684 0.329272
-0.111262 0.106563 0.329422
0.336232 0.107041 0.153424
0.330077 0.108195 0.16908
0.311525 0.121036 0.329076
0.222057 0.118933 0.32915
0.201455 0.118449 0.329167
0.130654 0.116784 0.329227
0.110788 0.116317 0.329241
0.0910807 0.115854 0.329257
-0.0931427 0.111523 0.329409
-0.225743 0.108406 0.32952
-0.326603 0.106035 0.329602
-0.331789 0.100618 0.265801
-0.330342 0.0918812 0.16011
-0.333042 0.0905061 0.144308
0.338249 0.069017 -0.337947
0.338101 0.103885 0.0657698
0.330124 0.107339 0.108021
0.33004 0.116707 0.2165
0.334407 0.120178 0.255443
0.329946 0.125858 0.322472
0.29019 0.125454 0.329094
0.156573 0.12241 0.331803
0.00904846 0.118576 0.329324
-0.272525 0.111686 0.329558
-0.315167 0.053163 -0.335868
0.330019 0.123072 0.236438
0.32998 0.126815 0.278138
0.18102 0.127598 0.329183
0.0521341 0.124321 0.329289
0.0290495 0.124098 0.333361
-0.00985789 0.122745 0.32934
-0.0460611 0.122424 0.336054
-0.0657024 0.121325 0.329386
-0.199819 0.117915 0.329497
-0.330488 0.0936868 0.0967085
0.321739 0.0739944 -0.337934
0.338285 0.0910822 -0.159192
0.336237 0.0957581 -0.108413
0.330285 0.0974982 -0.0880418
0.330055 0.123171 0.187629
0.329962 0.133632 0.29996
0.269031 0.134736 0.329112
0.248046 0.134182 0.329128
0.0666671 0.129396 0.329278
-0.028617 0.126882 0.329358
-0.133716 0.124109 0.329444
-0.147087 0.123756 0.329455
-0.173602 0.123056 0.329477
-0.285119 0.120114 0.329569
-0.305956 0.119564 0.329585
-0.330409 0.110259 0.236641
0.330323 0.0961673 -0.138564
0.311525 0.140797 0.329077
0.222057 0.13835 0.32915
0.201455 0.137787 0.329167
0.150679 0.136399 0.329209
0.130653 0.135851 0.329226
0.110788 0.135308 0.329242
-0.0931426 0.129731 0.32941
-0.230036 0.125988 0.329522
-0.26409 0.125056 0.329548
-0.291501 0.0606897 -0.329412
0.302182 0.0788222 -0.337918
0.279707 0.078186 -0.3379
0.330428 0.0869541 -0.264563
0.335864 0.11898 0.0543865
0.330134 0.122536 0.0916078
0.3301 0.126718 0.133466
0.33007 0.130275 0.169067
0.330031 0.135011 0.216482
0.330014 0.137004 0.236427
0.329998 0.139057 0.256973
0.30819 0.143741 0.310042
0.0910811 0.139498 0.329258
-0.00985768 0.136641 0.329341
-0.106745 0.133898 0.329421
-0.335942 0.102096 0.0762774
0.335809 0.0961106 -0.205993
0.330368 0.0971841 -0.194057
0.337105 0.116591 -0.00812751
0.330151 0.12423 0.0677876
0.33009 0.132828 0.151029
0.311758 0.14374 0.261865
0.289114 0.14374 0.268296
0.270999 0.14374 0.273441
0.248354 0.14374 0.27987
0.230238 0.143739 0.285014
0.212123 0.143739 0.290157
0.189478 0.143739 0.296586
0.171363 0.143738 0.301729
0.148718 0.143738 0.308158
0.130603 0.143738 0.313301
0.0521344 0.143087 0.32929
0.0137985 0.141965 0.329322
-0.0518625 0.140043 0.329376
-0.0702976 0.139504 0.329391
-0.164798 0.136738 0.329469
-0.186748 0.136096 0.329487
0.331622 0.0850559 -0.337941
0.330411 0.0950758 -0.243691
0.330204 0.121988 0.00858724
0.335471 0.124587 0.0314562
0.330125 0.132595 0.108023
0.310714 0.14374 0.217991
0.288789 0.14374 0.224219
0.271249 0.14374 0.229201
0.249324 0.14374 0.235428
0.231784 0.14374 0.240409
0.209858 0.143739 0.246634
0.192317 0.143739 0.251614
0.170392 0.143739 0.25784
0.148466 0.143738 0.264065
0.130926 0.143738 0.269045
0.109001 0.143738 0.27527
0.0914608 0.143737 0.28025
0.0695356 0.143737 0.286474
0.0519958 0.143737 0.291455
0.030071 0.143736 0.297679
0.00814626 0.143736 0.303904
-0.00939342 0.143736 0.308884
-0.212818 0.13977 0.329508
-0.280929 0.137712 0.329564
0.260728 0.0855452 -0.337885
0.330282 0.115225 -0.0880454
0.330268 0.117206 -0.070048
0.309734 0.14374 0.176818
0.288484 0.14374 0.182854
0.271483 0.14374 0.187683
0.250233 0.14374 0.193718
0.228983 0.14374 0.199754
0.211982 0.14374 0.204583
0.190732 0.143739 0.210617
0.169481 0.143739 0.216651
0.15248 0.143739 0.221478
0.131229 0.143738 0.227511
0.109979 0.143738 0.233545
0.088728 0.143738 0.239578
0.0717276 0.143737 0.244405
0.0504773 0.143737 0.250439
0.0292271 0.143737 0.256472
0.0122269 0.143736 0.261299
-0.00902304 0.143736 0.267332
-0.030273 0.143736 0.273365
-0.0515228 0.143735 0.279399
-0.0685226 0.143735 0.284225
-0.0897722 0.143734 0.290259
-0.111022 0.143734 0.296292
-0.128021 0.143734 0.301119
-0.149271 0.143733 0.307152
-0.17052 0.143733 0.313185
0.330346 0.110088 -0.164576
0.335345 0.12469 -0.0373158
0.304689 0.14374 0.139274
0.284073 0.14374 0.14513
0.263457 0.14374 0.150985
0.234595 0.14374 0.159184
0.213979 0.14374 0.165039
0.185117 0.143739 0.173237
0.164501 0.143739 0.179092
0.143884 0.143739 0.184945
0.115021 0.143738 0.19314
0.094405 0.143738 0.198994
0.0737887 0.143738 0.204847
0.0449263 0.143737 0.213042
0.0243104 0.143737 0.218896
0.00369456 0.143736 0.224749
-0.0251674 0.143736 0.232944
-0.0457829 0.143735 0.238797
-0.0663984 0.143735 0.24465
-0.0952598 0.143735 0.252845
-0.115875 0.143734 0.258698
-0.13649 0.143734 0.264551
-0.165351 0.143733 0.272746
-0.185966 0.143733 0.278599
-0.206581 0.143733 0.284452
-0.235441 0.143732 0.292646
-0.256056 0.143732 0.298499
-0.284916 0.143731 0.306694
0.242011 0.0901902 -0.337868
0.330314 0.117675 -0.127764
0.330193 0.135271 0.0228378
0.330174 0.137847 0.0448877
0.330161 0.139619 0.0600601
0.330134 0.143305 0.0916064
0.311948 0.14374 0.100495
0.29193 0.14374 0.106181
0.271911 0.14374 0.111867
0.251893 0.14374 0.117553
0.231875 0.14374 0.123239
0.211856 0.143739 0.128925
0.191838 0.143739 0.134611
0.17182 0.143739 0.140297
0.151802 0.143739 0.145983
0.131783 0.143739 0.151667
0.111764 0.143739 0.157351
0.0917453 0.143738 0.163035
0.0717267 0.143738 0.168719
0.0517082 0.143737 0.174403
0.0316897 0.143737 0.180087
0.0116714 0.143737 0.185771
-0.00834686 0.143736 0.191454
-0.0283649 0.143736 0.197138
-0.0483829 0.143736 0.202822
-0.0684009 0.143735 0.208506
-0.0884187 0.143735 0.21419
-0.108436 0.143735 0.219873
-0.128454 0.143734 0.225557
-0.148472 0.143734 0.231241
-0.168489 0.143734 0.236924
-0.188506 0.143733 0.242608
-0.208524 0.143733 0.248291
-0.228541 0.143733 0.253975
-0.248558 0.143732 0.259658
-0.268575 0.143732 0.265342
0.330302 0.123087 -0.111115
0.146882 0.0896608 -0.336985
0.311016 0.14374 0.0661113
0.291562 0.14374 0.0716372
0.272107 0.14374 0.0771629
0.248762 0.14374 0.0837939
0.229308 0.143739 0.0893198
0.209853 0.143739 0.0948455
0.190399 0.143739 0.100371
0.170944 0.143739 0.105897
0.15149 0.143739 0.111423
0.132036 0.143739 0.116949
0.10869 0.143739 0.123578
0.0892355 0.143738 0.129102
0.0697807 0.143738 0.134626
0.0503261 0.143738 0.14015
0.0308715 0.143737 0.145674
0.0114171 0.143737 0.151198
-0.00803724 0.143737 0.156722
-0.0313823 0.143736 0.16335
-0.0508365 0.143736 0.168874
-0.0702906 0.143736 0.174398
-0.0897446 0.143735 0.179922
-0.109198 0.143735 0.185445
-0.128652 0.143735 0.190969
-0.148106 0.143734 0.196492
-0.16756 0.143734 0.202016
-0.190904 0.143733 0.208644
-0.210357 0.143733 0.214168
-0.22981 0.143733 0.219691
-0.249264 0.143732 0.225215
-0.268717 0.143732 0.230738
-0.313102 0.0738961 -0.337412
-0.332571 0.0732328 -0.337397
0.302182 0.0975258 -0.337918
0.134854 0.0916657 -0.33778
0.330208 0.140486 0.00159168
0.310136 0.14374 0.0336115
0.291214 0.14374 0.038986
0.272293 0.14374 0.0443604
0.249587 0.143739 0.0508096
0.230665 0.143739 0.0561841
0.211744 0.143739 0.0615585
0.189038 0.143739 0.0680078
0.170117 0.143739 0.0733821
0.151196 0.143739 0.0787567
0.132274 0.143739 0.0841311
0.109569 0.143739 0.0905802
0.0906475 0.143739 0.0959542
0.0717258 0.143738 0.101327
0.0490198 0.143738 0.107774
0.0300982 0.143738 0.113147
0.0111768 0.143737 0.118519
-0.00774461 0.143737 0.123892
-0.0304502 0.143736 0.130339
-0.0493715 0.143736 0.135712
-0.0682926 0.143736 0.141084
-0.0909977 0.143735 0.147531
-0.109919 0.143735 0.152903
-0.128839 0.143735 0.158276
-0.14776 0.143734 0.163648
-0.170465 0.143734 0.170095
-0.189386 0.143734 0.175467
-0.208306 0.143733 0.18084
-0.231011 0.143733 0.187286
-0.249931 0.143733 0.192658
-0.268851 0.143732 0.198031
-0.287771 0.143732 0.203403
0.279707 0.0993891 -0.337899
0.33038 0.117701 -0.208135
0.330363 0.120096 -0.189271
0.202318 0.0966045 -0.337836
0.309302 0.14374 0.00284517
0.0937004 0.0935301 -0.331182
0.283518 0.14374 0.0101686
0.254051 0.143739 0.0185385
0.224584 0.143739 0.0269083
0.195117 0.143739 0.0352781
0.184067 0.143739 0.0384166
0.1546 0.143739 0.0467864
0.125134 0.143739 0.0551562
0.114084 0.143739 0.0582948
0.084617 0.143738 0.0666647
0.05515 0.143738 0.0750329
0.0440997 0.143738 0.0781705
0.0146325 0.143737 0.0865376
-0.0148344 0.143737 0.0949045
-0.0258845 0.143737 0.0980422
-0.0553511 0.143736 0.106409
-0.0848175 0.143736 0.114776
-0.0958674 0.143736 0.117913
-0.125334 0.143735 0.12628
-0.154799 0.143734 0.134647
-0.165849 0.143734 0.137784
-0.195315 0.143734 0.146151
-0.22478 0.143733 0.154518
-0.23583 0.143733 0.157655
-0.265295 0.143733 0.166022
-0.283229 0.0791342 -0.337436
0.330399 0.1179 -0.230683
0.319275 0.14374 -0.0293803
0.301336 0.14374 -0.024285
0.254696 0.143739 -0.0110373
0.225994 0.143739 -0.00288486
0.204468 0.143739 0.00322962
0.175767 0.143739 0.0113817
0.154241 0.143739 0.0174962
0.125539 0.143739 0.0256487
0.114776 0.143739 0.0287057
0.0860749 0.143738 0.036858
0.064549 0.143738 0.0429722
0.0358475 0.143738 0.0511235
0.0143211 0.143738 0.0572361
-0.0143805 0.143737 0.0653857
-0.0251435 0.143737 0.068442
-0.0538448 0.143736 0.0765916
-0.0753707 0.143736 0.0827038
-0.104072 0.143736 0.0908536
-0.125597 0.143735 0.0969657
-0.154298 0.143735 0.105115
-0.165061 0.143735 0.108171
-0.193761 0.143734 0.116321
-0.215286 0.143734 0.122432
-0.243986 0.143733 0.130582
-0.265511 0.143733 0.136694
0.304264 0.143739 -0.0530213
0.234327 0.143739 -0.0331559
0.206352 0.143739 -0.0252099
0.185371 0.143739 -0.0192504
0.17488 0.143739 -0.0162705
0.146905 0.143739 -0.0083245
0.125924 0.143739 -0.00236505
0.104943 0.143738 0.0035944
0.0769686 0.143738 0.0115405
0.0559876 0.143738 0.0175
0.0350067 0.143738 0.0234594
0.0245162 0.143738 0.0264391
-0.00345886 0.143737 0.0343826
-0.0244401 0.143737 0.0403403
-0.0454212 0.143737 0.0462978
-0.149017 0.0894479 -0.330023
-0.0803894 0.143736 0.0562272
-0.0978734 0.143736 0.0611918
-0.118854 0.143735 0.0671492
-0.139835 0.143735 0.0731069
-0.160815 0.143735 0.0790643
-0.178299 0.143734 0.0840287
-0.199279 0.143734 0.0899862
-0.220259 0.143734 0.0959436
-0.237743 0.143733 0.100908
-0.258723 0.143733 0.106865
-0.297186 0.143732 0.117787
0.338249 0.109615 -0.337947
0.263715 0.107708 -0.330674
0.33042 0.121658 -0.247939
0.223546 0.105158 -0.337854
0.179629 0.104239 -0.332077
0.330286 0.142783 -0.0939123
0.313869 0.14374 -0.0822756
0.286584 0.143739 -0.0745257
0.0714898 0.0994468 -0.336286
0.218374 0.143739 -0.055151
0.201321 0.143739 -0.0503072
0.180858 0.143739 -0.0444948
0.160395 0.143739 -0.0386826
0.139932 0.143739 -0.0328702
0.119469 0.143738 -0.0270578
0.102417 0.143738 -0.0222142
0.0819538 0.143738 -0.0164017
0.0614909 0.143738 -0.0105895
0.0410281 0.143738 -0.00477707
0.0205652 0.143738 0.00103515
-0.0949315 0.0938325 -0.329934
-0.0135398 0.143738 0.0107208
-0.0340029 0.143737 0.0165316
-0.054466 0.143737 0.022342
-0.0953917 0.143736 0.0339631
-0.115854 0.143736 0.0397737
-0.143138 0.143735 0.0475209
-0.1636 0.143735 0.0533315
-0.184063 0.143735 0.0591416
-0.204525 0.143734 0.0649521
-0.224987 0.143734 0.0707625
-0.235218 0.143734 0.0736676
-0.258628 0.0870191 -0.333096
0.153224 0.105785 -0.331885
0.30304 0.143739 -0.104448
0.276413 0.143739 -0.0968846
0.256443 0.143739 -0.0912124
0.20319 0.143739 -0.0760859
0.176563 0.143739 -0.0685228
0.156593 0.143739 -0.0628505
0.136623 0.143739 -0.0571781
0.116654 0.143738 -0.0515059
0.0966837 0.143738 -0.0458335
0.0767139 0.143738 -0.0401613
0.0567441 0.143738 -0.0344889
0.0367743 0.143738 -0.0288166
0.0168046 0.143738 -0.0231444
-0.107504 0.0953227 -0.332243
-0.0264632 0.143737 -0.0108554
-0.0530899 0.143737 -0.00329459
-0.103014 0.143736 0.010882
-0.122984 0.143736 0.0165525
-0.142954 0.143735 0.022223
-0.162923 0.143735 0.0278934
-0.182892 0.143735 0.033564
-0.202862 0.143734 0.0392344
-0.222831 0.143734 0.0449048
0.321739 0.114355 -0.337933
0.292721 0.143739 -0.125577
0.266721 0.143739 -0.118191
0.110683 0.106058 -0.335613
0.188721 0.143739 -0.0960357
0.17247 0.143739 -0.0914201
0.14972 0.143738 -0.084958
0.13022 0.143738 -0.0794191
0.11072 0.143738 -0.0738803
0.0912205 0.143738 -0.0683414
0.0717205 0.143738 -0.0628026
0.0522207 0.143738 -0.0572637
0.0294709 0.143738 -0.0508017
0.00997102 0.143738 -0.0452628
-0.0355285 0.143737 -0.032339
-0.0550286 0.143737 -0.0268019
-0.110278 0.143736 -0.011113
-0.129778 0.143736 -0.0055759
-0.149278 0.143735 -3.8743e-05
-0.168777 0.143735 0.00549847
-0.188277 0.143735 0.0110353
-0.207776 0.143734 0.0165725
0.270176 0.143739 -0.142126
0.251124 0.143739 -0.136715
0.174916 0.143739 -0.115068
0.146339 0.143738 -0.106951
0.127287 0.143738 -0.101539
0.114586 0.143738 -0.0979316
0.0860085 0.143738 -0.0898143
0.0669568 0.143738 -0.0844029
0.04473 0.143738 -0.0780893
0.0161526 0.143738 -0.0699721
-0.0441771 0.143737 -0.0528356
-0.0632288 0.143737 -0.047425
-0.114033 0.143736 -0.0329984
-0.133085 0.143736 -0.0275886
-0.194384 0.0962635 -0.332354
-0.177538 0.143735 -0.0149655
-0.199764 0.143735 -0.008654
-0.218815 0.143734 -0.00324416
-0.241864 0.0941955 -0.3329
0.302182 0.118901 -0.337917
0.279707 0.117942 -0.3379
0.330393 0.137613 -0.221795
0.267267 0.143739 -0.163222
0.254851 0.143739 -0.159695
0.146213 0.143738 -0.128837
0.124486 0.143738 -0.122665
0.0872385 0.143738 -0.112086
0.0748229 0.143738 -0.108559
0.0468877 0.143738 -0.100624
0.0344721 0.143738 -0.0970973
0.0065369 0.143738 -0.0891625
-0.0493332 0.143737 -0.0732926
-0.0679565 0.143737 -0.0680029
-0.089684 0.143737 -0.061833
-0.120723 0.143736 -0.0530189
-0.139346 0.143736 -0.0477305
-0.214242 0.0972973 -0.334535
-0.192112 0.143735 -0.0327469
-0.207631 0.143735 -0.0283399
-0.229358 0.143734 -0.0221701
-0.299263 0.0932212 -0.337423
0.255379 0.143739 -0.180804
0.237165 0.143739 -0.17563
0.1552 0.143738 -0.152348
0.136986 0.143738 -0.147174
0.124843 0.143738 -0.143725
0.094486 0.143738 -0.135102
0.0671647 0.143738 -0.127342
0.0459149 0.143738 -0.121306
0.024665 0.143738 -0.11527
-0.0512269 0.143737 -0.093713
-0.0694409 0.143737 -0.0885393
-0.0876549 0.143737 -0.0833658
-0.127119 0.143736 -0.0721593
-0.145333 0.143736 -0.0669871
-0.20301 0.143735 -0.0506085
-0.215153 0.143735 -0.0471604
-0.245509 0.143734 -0.0385402
-0.31898 0.0944553 -0.337408
0.32174 0.125118 -0.337933
0.242011 0.121561 -0.337869
0.241032 0.143739 -0.196785
0.220239 0.143739 -0.190879
0.0898873 0.114773 -0.337743
0.145978 0.143738 -0.169785
0.116274 0.143738 -0.161348
0.0954808 0.143738 -0.155442
0.0746879 0.143738 -0.149535
0.0449838 0.143738 -0.141098
-0.00254259 0.143737 -0.127598
-0.0708614 0.143737 -0.108192
-0.0886837 0.143737 -0.10313
-0.109476 0.143737 -0.0972246
-0.168518 0.103244 -0.33753
-0.13324 0.143736 -0.0904765
-0.145121 0.143736 -0.0871025
-0.210469 0.143735 -0.0685455
-0.240172 0.143734 -0.0601106
-0.257994 0.143734 -0.0550497
-0.279183 0.0983067 -0.33744
0.338249 0.128561 -0.337947
0.215657 0.143739 -0.20879
0.131328 0.143738 -0.184836
0.110973 0.143738 -0.179054
0.0818944 0.143738 -0.170795
0.0615393 0.143738 -0.165013
0.0411842 0.143738 -0.159231
0.0208291 0.143738 -0.153449
0.000474066 0.143737 -0.147667
-0.0780379 0.143737 -0.125366
-0.0983928 0.143737 -0.119584
-0.214706 0.143735 -0.0865529
-0.235061 0.143735 -0.0807728
0.260729 0.12766 -0.337884
0.202318 0.124942 -0.337836
0.18142 0.123969 -0.337819
0.211265 0.143738 -0.225962
0.070696 0.118817 -0.337728
0.0549127 0.119069 -0.33171
0.120131 0.143738 -0.200076
0.0916516 0.143738 -0.191986
0.0717161 0.143738 -0.186323
-0.00328609 0.115374 -0.337668
0.0403891 0.143738 -0.177425
0.0204538 0.143737 -0.171762
0.000518411 0.143737 -0.1661
-0.128037 0.110892 -0.32951
-0.0991578 0.143737 -0.137787
-0.119093 0.143737 -0.132124
-0.233282 0.105701 -0.331208
-0.23016 0.143735 -0.100583
-0.258638 0.143734 -0.0924957
0.220493 0.128381 -0.337851
0.0954338 0.143738 -0.210736
0.0759012 0.143738 -0.205188
0.0424165 0.143738 -0.195677
0.0200936 0.143737 -0.189336
-0.0706753 0.114552 -0.337611
-0.0875533 0.11375 -0.337598
-0.0915209 0.143737 -0.157632
-0.119424 0.143737 -0.149706
-0.225457 0.143735 -0.119593
-0.25336 0.143735 -0.111669
0.0908608 0.143738 -0.226413
0.0224827 0.143737 -0.20699
0.000601798 0.143737 -0.200775
-0.018544 0.143737 -0.195336
-0.114272 0.143737 -0.168145
-0.125213 0.143737 -0.165037
-0.229146 0.143735 -0.13552
-0.248291 0.143735 -0.130083
-0.270172 0.143734 -0.123869
0.302182 0.137605 -0.337918
0.131997 0.129195 -0.337779
0.0315784 0.124612 -0.335524
-0.0214208 0.122584 -0.332091
-0.00472292 0.143737 -0.215579
-0.101275 0.143737 -0.188153
-0.248783 0.143735 -0.146258
-0.267557 0.143735 -0.140927
0.279707 0.139145 -0.337899
0.160845 0.133157 -0.337802
-0.0459658 0.124054 -0.330242
-0.115081 0.143737 -0.199926
-0.233471 0.143735 -0.166301
-0.265041 0.143735 -0.157335
0.242011 0.13986 -0.337868
0.112176 0.133195 -0.337761
-0.112881 0.143737 -0.215659
-0.184058 0.117989 -0.337519
-0.254875 0.143735 -0.175329
0.338249 0.147507 -0.337947
0.089887 0.134519 -0.337743
-0.108909 0.124124 -0.33758
-0.133571 0.143736 -0.224335
-0.156442 0.122478 -0.332992
-0.299263 0.11417 -0.337424
-0.31898 0.113139 -0.337408
0.202318 0.142975 -0.337836
-0.243107 0.143735 -0.207252
-0.263016 0.143735 -0.201598
0.26073 0.148717 -0.337883
0.18142 0.144418 -0.337818
0.0706964 0.138415 -0.337728
-0.127575 0.127667 -0.337566
-0.203735 0.123538 -0.337503
-0.254422 0.121878 -0.331775
-0.279183 0.119448 -0.33744
0.220493 0.14913 -0.33785
0.0174108 0.137925 -0.337684
-0.0731013 0.132932 -0.33761
-0.00840649 0.138875 -0.337663
-0.0947144 0.13403 -0.337592
0.129147 0.149102 -0.337775
0.05179 0.144686 -0.337712
-0.0535585 0.138671 -0.337626
-0.113603 0.137516 -0.337577
-0.0286796 0.1448 -0.337646
-0.148226 0.137746 -0.337549
-0.223077 0.133329 -0.337487
-0.17964 0.138102 -0.337523
-0.303235 0.132781 -0.337421
-0.244187 0.138527 -0.33747
-0.32288 0.133657 -0.337405
-0.199391 0.14349 -0.337507
-0.269005 0.139115 -0.33745
