ply
format ascii 1.0
comment Created by Open3D
element vertex 1054
property double x
property double y
property double z
end_header
0.208787 -0.260549 -0.331703
0.203 -0.252473 -0.345078
0.20735 -0.240291 -0.321205
0.181821 -0.237358 -0.337114
0.192497 -0.224962 -0.332295
0.205395 -0.217091 -0.328245
0.215242 -0.197132 -0.345776
0.215164 -0.197469 -0.32599
0.202688 -0.197492 -0.347465
0.218082 -0.181259 -0.311695
0.218246 -0.177398 -0.341687
0.210445 -0.259037 0.342597
0.195163 -0.176373 -0.350526
-0.186653 -0.260595 -0.333532
0.184937 -0.17604 -0.35052
0.200053 -0.251474 0.322794
0.2181 -0.173747 -0.291009
0.218285 -0.18001 -0.216579
0.163714 -0.175345 -0.350509
-0.179233 -0.246583 -0.34528
0.218294 -0.180449 -0.190012
0.217951 -0.170887 -0.272349
-0.197825 -0.246652 -0.345709
0.209004 -0.241159 0.344379
0.218023 -0.171461 -0.244943
-0.177318 -0.242498 -0.314001
0.181813 -0.239765 0.317385
0.216445 -0.161928 -0.308629
0.21832 -0.174683 -0.168706
0.215078 -0.157467 -0.328467
0.17799 -0.162376 -0.348839
0.140046 -0.169574 -0.350194
0.0903589 -0.179539 -0.347158
0.200332 -0.155775 -0.346871
0.117114 -0.171262 -0.350326
-0.174853 -0.229702 -0.325097
0.200881 -0.224937 0.31647
0.218584 -0.177897 -0.0876759
0.218463 -0.175738 -0.107842
0.218313 -0.173639 -0.127506
0.068207 -0.177649 -0.350767
-0.19317 -0.228674 -0.332387
0.216653 -0.162342 -0.210012
0.0545787 -0.177276 -0.35077
0.204602 -0.219293 0.338895
0.182438 -0.22099 0.316663
0.217369 -0.165868 -0.149443
0.159355 -0.155731 -0.346912
-0.175908 -0.22 -0.314276
0.218664 -0.176915 -0.0127452
0.218261 -0.171434 -0.0667127
0.213412 -0.152434 -0.259766
0.212598 -0.150653 -0.278487
0.213062 -0.151592 -0.242934
-0.178965 -0.211767 -0.327862
0.218583 -0.17468 0.0254812
0.218497 -0.173545 0.0139211
0.218058 -0.168816 -0.0344283
0.217856 -0.167786 -0.0451418
0.141003 -0.151216 -0.34517
0.0840005 -0.160705 -0.348542
0.024341 -0.170801 -0.350424
0.214452 -0.202234 0.332242
0.218771 -0.179094 0.1027
0.216399 -0.160712 -0.0897144
0.213311 -0.151975 -0.184567
0.207361 -0.140896 -0.308379
0.183853 -0.141771 -0.340182
0.119846 -0.152081 -0.345583
0.10121 -0.155117 -0.346802
0.0593836 -0.161991 -0.34893
-0.0533366 -0.180899 -0.350736
0.215329 -0.1999 0.347434
0.194674 -0.20107 0.323814
0.218847 -0.177079 0.115474
0.214985 -0.156194 -0.109088
0.204174 -0.136533 -0.33294
-0.00604981 -0.169809 -0.350407
0.218367 -0.169984 0.0737655
0.218056 -0.168142 0.0536611
0.216896 -0.162206 -0.0114379
0.213068 -0.151272 -0.134266
-0.0712324 -0.177309 -0.350646
-0.182816 -0.195755 -0.348154
0.21886 -0.180252 0.220226
0.218961 -0.178031 0.196347
0.218614 -0.172653 0.137504
0.211305 -0.147334 -0.149344
0.208322 -0.142286 -0.209186
0.162923 -0.137714 -0.337434
0.0381256 -0.156781 -0.347399
-0.0876383 -0.176597 -0.350923
-0.200268 -0.194829 -0.348824
0.21866 -0.172613 0.173453
0.213602 -0.152252 -0.0600957
0.218873 -0.182377 0.32147
0.218897 -0.175103 0.239631
0.213614 -0.152179 -0.0276107
0.203334 -0.132255 -0.269747
-0.0301725 -0.161201 -0.348848
-0.107309 -0.172917 -0.350732
-0.176674 -0.183742 -0.349155
0.218965 -0.181567 0.353812
0.197836 -0.181356 0.31474
0.216408 -0.159905 0.100585
0.213627 -0.152103 0.00615388
0.203325 -0.132315 -0.238988
0.0839064 -0.141537 -0.340178
0.0143942 -0.151571 -0.345499
-0.0767739 -0.164975 -0.349655
0.218875 -0.173355 0.300385
0.218676 -0.170774 0.269787
0.21364 -0.152025 0.0412752
0.208198 -0.1418 -0.088018
0.202483 -0.134076 -0.188475
0.195189 -0.12661 -0.288644
0.136771 -0.131196 -0.336201
0.0951827 -0.137265 -0.337181
0.0601973 -0.142152 -0.340577
-0.051689 -0.158079 -0.347919
-0.128003 -0.169151 -0.350481
-0.146451 -0.17186 -0.350725
0.217737 -0.164976 0.24091
0.217204 -0.162273 0.207638
0.215096 -0.155531 0.123285
0.213798 -0.152259 0.0818672
0.213079 -0.150693 0.0618814
0.205198 -0.137477 -0.109973
-0.112693 -0.17154 -0.253594
0.215715 -0.157272 0.185675
0.20863 -0.142346 -0.0091024
0.202145 -0.133529 -0.128145
0.0294456 -0.140718 -0.339763
-0.0122151 -0.146349 -0.343175
0.213985 -0.152428 0.164412
0.203169 -0.127391 -0.167188
0.192908 -0.125768 -0.205258
0.192768 -0.117475 -0.309132
0.18472 -0.117318 -0.325041
0.124962 -0.125606 -0.325123
-0.172818 -0.164965 -0.349783
0.21739 -0.162314 0.339418
0.216957 -0.160734 0.318483
0.211746 -0.147442 0.13962
0.198766 -0.126608 -0.149056
-0.0251548 -0.142012 -0.340608
-0.0989881 -0.151638 -0.345682
0.208816 -0.142382 0.111719
0.203537 -0.132403 -0.0278586
0.204402 -0.130017 -0.0575429
0.15586 -0.115988 -0.325081
-0.119121 -0.150924 -0.345394
-0.148505 -0.154699 -0.347011
-0.198692 -0.161201 -0.349076
0.213892 -0.151829 0.290676
0.213249 -0.150436 0.27092
0.203805 -0.132137 0.00975972
0.194848 -0.126609 -0.0797144
0.0683119 -0.124663 -0.3252
0.0138469 -0.130883 -0.336464
-0.0504374 -0.139046 -0.338749
0.210497 -0.144915 0.239009
0.208955 -0.142409 0.202012
0.202379 -0.133368 0.0667437
0.204313 -0.13123 0.0408103
0.103122 -0.117327 -0.325153
0.0436162 -0.124854 -0.325234
-0.0698152 -0.13827 -0.338177
0.207879 -0.140556 0.222302
0.204229 -0.131596 0.0901899
0.193179 -0.126149 -0.00542992
0.192822 -0.107438 -0.268717
0.192796 -0.106078 -0.28785
-0.211015 -0.156696 -0.277629
0.203416 -0.134649 0.179485
0.193047 -0.116284 -0.102823
0.192872 -0.10734 -0.231852
0.192849 -0.106145 -0.249087
-0.00978315 -0.125266 -0.325307
0.208783 -0.141794 0.344652
0.207979 -0.140491 0.32401
0.204673 -0.129764 0.159877
0.192929 -0.107444 -0.190085
0.192904 -0.106217 -0.208258
0.135501 -0.105045 -0.325108
0.124962 -0.106282 -0.325123
0.193374 -0.126311 0.139021
0.19335 -0.125147 0.121333
0.192984 -0.107342 -0.149232
0.192958 -0.106084 -0.168345
0.192768 -0.0968197 -0.309132
0.18472 -0.096691 -0.325041
-0.155018 -0.134855 -0.335661
-0.181581 -0.137745 -0.337923
0.20438 -0.131831 0.296556
0.20481 -0.130425 0.275408
0.193205 -0.114926 0.0138604
0.193019 -0.106158 -0.123032
0.15586 -0.0973234 -0.325081
-0.101673 -0.125976 -0.325433
-0.118781 -0.127235 -0.335487
0.197285 -0.126606 0.258423
0.193507 -0.125713 0.237557
0.193481 -0.124495 0.218015
0.193108 -0.107344 -0.0573005
0.193084 -0.106235 -0.0750987
-0.0387098 -0.115711 -0.325347
-0.13602 -0.126241 -0.32548
0.193344 -0.11487 0.116962
0.193179 -0.107461 -0.00542992
0.193138 -0.105643 -0.0354462
0.0176198 -0.106528 -0.32527
-0.0692911 -0.115668 -0.325389
0.193455 -0.116355 0.198849
0.193417 -0.114705 0.170779
0.193248 -0.107346 0.0456123
0.193231 -0.106639 0.0335745
0.192789 -0.0874272 -0.293228
0.103122 -0.0947095 -0.325153
0.0802019 -0.0970499 -0.325184
0.00410128 -0.104821 -0.325288
0.193327 -0.10747 0.103969
0.193286 -0.10578 0.0743317
0.193051 -0.0958714 -0.0994072
0.192853 -0.0874972 -0.246242
0.192815 -0.0859007 -0.274234
0.0561205 -0.0965386 -0.325217
-0.0240482 -0.10448 -0.325327
0.193626 -0.116384 0.325054
0.193583 -0.11463 0.293319
0.193386 -0.106597 0.147989
0.192916 -0.087404 -0.199223
0.192888 -0.0862475 -0.220144
0.145798 -0.0849576 -0.325094
0.124962 -0.0869581 -0.325123
0.0436162 -0.0947688 -0.325234
-0.0852472 -0.107142 -0.32541
0.192988 -0.0874777 -0.146003
0.192962 -0.0864507 -0.165191
-0.11859 -0.10684 -0.325456
0.193555 -0.106284 0.272689
0.193521 -0.104979 0.247471
0.193253 -0.0947385 0.0496605
0.193019 -0.0857987 -0.123032
0.19276 -0.0758943 -0.314358
0.18472 -0.0760636 -0.325041
-0.0387098 -0.0961545 -0.325347
-0.13602 -0.104905 -0.32548
0.193611 -0.104766 0.314369
0.193344 -0.0948929 0.116962
0.193143 -0.0874555 -0.0317498
0.193118 -0.0865389 -0.0500769
0.193094 -0.0856414 -0.0680237
0.0561205 -0.0846569 -0.325217
-0.0692911 -0.0955517 -0.325389
-0.172515 -0.104519 -0.32553
0.193494 -0.0969091 0.227738
0.193468 -0.0959752 0.208386
0.193442 -0.0950592 0.189403
0.193226 -0.0873473 0.0295971
0.193199 -0.0864001 0.00996882
0.193173 -0.0854732 -0.00923836
0.0176198 -0.0849138 -0.32527
-0.101673 -0.0949134 -0.325433
0.193321 -0.08743 0.0996771
0.193292 -0.0864456 0.0785084
0.103122 -0.0749195 -0.325153
0.0802019 -0.0767708 -0.325184
0.193626 -0.0942158 0.325054
0.193417 -0.0873124 0.170779
0.193386 -0.0862926 0.147989
0.193065 -0.0756845 -0.0890746
0.192815 -0.067399 -0.274234
0.1928 -0.0669107 -0.285147
-0.053785 -0.0842884 -0.325367
0.193442 -0.0846891 0.189403
0.193133 -0.0748639 -0.039127
0.1929 -0.067464 -0.211246
0.192876 -0.0667032 -0.228941
0.192849 -0.065837 -0.249087
0.00410128 -0.07666 -0.325288
-0.11859 -0.0858226 -0.325456
0.193583 -0.0855177 0.293319
0.193555 -0.0846669 0.272689
0.193231 -0.0748063 0.0335745
0.192988 -0.0674008 -0.146003
0.194873 -0.0660441 -0.175557
0.124962 -0.0648735 -0.325123
-0.0240482 -0.0755474 -0.325327
-0.153986 -0.0848551 -0.325504
0.193332 -0.0745727 0.10828
0.193089 -0.0674716 -0.0715685
0.193037 -0.0659695 -0.109614
0.19301 -0.0651779 -0.129661
0.192746 -0.0574772 -0.324699
-0.0692911 -0.0754356 -0.325389
0.193521 -0.0765098 0.247471
0.193501 -0.0759501 0.232636
0.193474 -0.0752164 0.213189
0.193194 -0.067403 0.00609416
0.193179 -0.0669682 -0.00542992
0.165696 -0.0566829 -0.325067
0.0436162 -0.0646834 -0.325234
-0.101673 -0.074205 -0.325433
0.193611 -0.0753578 0.314369
0.193583 -0.0746005 0.293319
0.193303 -0.0671755 0.0869184
0.193286 -0.0667227 0.0743317
0.193259 -0.0659815 0.0537267
0.145798 -0.0552899 -0.325094
-0.172515 -0.0751804 -0.32553
0.193417 -0.0667683 0.170779
0.193386 -0.0659884 0.147989
0.193362 -0.0653776 0.130136
0.0802019 -0.0564918 -0.325184
-0.053785 -0.0644558 -0.325367
0.193474 -0.0647211 0.213189
0.19307 -0.0550211 -0.0856022
0.0561205 -0.0549527 -0.325217
0.0176198 -0.0571238 -0.32527
-0.11859 -0.0648048 -0.325456
0.193626 -0.0646579 0.325054
0.193611 -0.0643298 0.314369
0.193199 -0.0549819 0.00996882
0.192868 -0.0474667 -0.234751
0.192841 -0.0468526 -0.254748
0.192815 -0.0462542 -0.274234
0.1928 -0.0459191 -0.285147
0.00410128 -0.0547571 -0.325288
-0.0240482 -0.0562587 -0.325327
-0.172515 -0.0641783 -0.32553
0.193344 -0.054938 0.116962
0.193327 -0.0545618 0.103969
0.194921 -0.0473853 -0.140539
0.192971 -0.0469522 -0.158845
0.192945 -0.0464052 -0.177735
0.19484 -0.0456608 -0.200098
0.103122 -0.046648 -0.325153
-0.0692911 -0.0553194 -0.325389
0.193555 -0.0558441 0.272689
0.193521 -0.0551582 0.247471
0.193501 -0.0547547 0.232636
0.193138 -0.047463 -0.0354462
0.193099 -0.0466737 -0.0644642
0.193033 -0.0453538 -0.112989
0.0802019 -0.0449037 -0.325184
-0.13602 -0.0551194 -0.32548
0.193298 -0.0474072 0.0827039
0.193259 -0.0466698 0.0537267
0.193231 -0.0461571 0.0335745
0.193179 -0.0451646 -0.00542992
0.192768 -0.037437 -0.309132
0.18472 -0.0373872 -0.325041
0.0176198 -0.0447727 -0.32527
0.193436 -0.0465543 0.184714
0.195332 -0.0459922 0.16433
0.19338 -0.0455778 0.143495
0.15586 -0.0359963 -0.325081
0.135501 -0.0368341 -0.325108
0.124962 -0.0372678 -0.325123
-0.053785 -0.0446233 -0.325367
-0.0852472 -0.0459179 -0.32541
0.193583 -0.0454881 0.293319
0.193541 -0.0448127 0.262527
0.193079 -0.0373297 -0.0786143
0.192929 -0.0348846 -0.190085
-0.13602 -0.0444511 -0.32548
0.193113 -0.0348462 -0.0536963
0.0436162 -0.0345981 -0.325234
-0.0240482 -0.03697 -0.325327
0.193468 -0.0366451 0.208386
0.193332 -0.0348006 0.10828
0.193309 -0.034485 0.091152
0.192793 -0.027452 -0.290544
-0.0692911 -0.0352033 -0.325389
-0.11859 -0.0367811 -0.325456
0.193626 -0.0351 0.325054
0.193611 -0.0349219 0.314369
0.193583 -0.034571 0.293319
0.193006 -0.0274647 -0.132955
0.192975 -0.0270863 -0.155653
0.192908 -0.0262593 -0.205258
0.192868 -0.0257677 -0.234751
0.192841 -0.0254343 -0.254748
0.192815 -0.0251095 -0.274234
0.103122 -0.0268579 -0.325153
-0.172515 -0.0348397 -0.32553
0.19327 -0.0274803 0.0619135
0.193242 -0.027177 0.041582
0.193215 -0.0268804 0.0216944
0.193189 -0.0265901 0.00223619
0.193158 -0.02625 -0.020566
0.193051 -0.025074 -0.0994072
0.0802019 -0.0246246 -0.325184
0.0561205 -0.0252485 -0.325217
0.00410128 -0.0265963 -0.325288
0.193501 -0.0264942 0.232636
0.193449 -0.0259872 0.194115
0.193411 -0.0256196 0.166178
0.19338 -0.025321 0.143495
-0.0387098 -0.0244461 -0.325347
-0.0852472 -0.02551 -0.32541
0.193626 -0.0240158 0.325054
0.19276 -0.0167225 -0.314358
0.18472 -0.0167598 -0.325041
0.15586 -0.0173316 -0.325081
0.193094 -0.0165273 -0.0680237
0.192876 -0.0149742 -0.228941
0.135501 -0.0150065 -0.325108
0.124962 -0.0151832 -0.325123
0.0176198 -0.0169828 -0.32527
0.193555 -0.0162128 0.272689
0.193521 -0.0160137 0.247471
0.193474 -0.015743 0.213189
0.193344 -0.0149831 0.116962
0.193327 -0.0148805 0.103969
0.193286 -0.0146465 0.0743317
0.193259 -0.0144837 0.0537267
-0.0240482 -0.0144665 -0.325327
-0.0692911 -0.0150871 -0.325389
-0.11859 -0.0157633 -0.325456
-0.13602 -0.0160024 -0.32548
0.193065 -0.00742005 -0.0890746
0.193038 -0.00732994 -0.109614
0.19301 -0.007242 -0.129661
0.192984 -0.00715614 -0.149232
0.192958 -0.00707229 -0.168345
0.192929 -0.00697692 -0.190085
0.192904 -0.00689719 -0.208258
0.192849 -0.00671807 -0.249087
0.192822 -0.00663195 -0.268717
0.192796 -0.00654802 -0.28785
0.103122 -0.00706788 -0.325153
0.0561205 -0.00742605 -0.325217
0.193611 -0.00551399 0.314369
0.193583 -0.00545858 0.293319
0.193501 -0.00529885 0.232636
0.193449 -0.00519746 0.194115
0.193411 -0.00512392 0.166178
0.19338 -0.00506421 0.143495
0.193231 -0.00477488 0.0335745
0.193205 -0.00472298 0.0138604
0.193179 -0.00467221 -0.00542992
0.193138 -0.0045932 -0.0354462
0.0436162 -0.00451281 -0.325234
0.0176198 -0.00463167 -0.32527
0.00410128 -0.00469348 -0.325288
-0.0387098 -0.00488922 -0.325347
-0.0852472 -0.005102 -0.32541
-0.172515 -0.00550101 -0.32553
0.193626 0.00554209 0.325054
0.193611 0.00551396 0.314369
0.193583 0.00545856 0.293319
0.193555 0.00540425 0.272689
0.193521 0.00533788 0.247471
0.193501 0.00529883 0.232636
0.193474 0.00524764 0.213189
0.193449 0.00519743 0.194115
0.193411 0.0051239 0.166178
0.19338 0.00506419 0.143495
0.193099 0.00451679 -0.0644643
0.19276 0.00385902 -0.314358
0.18472 0.00386763 -0.325041
0.15586 0.00399958 -0.325081
0.135501 0.00409266 -0.325108
0.124962 0.00414085 -0.325123
0.0802019 0.00434551 -0.325184
-0.0692911 0.00502902 -0.325389
-0.0852472 0.00510198 -0.32541
-0.11859 0.00525443 -0.325456
-0.13602 0.00533412 -0.32548
-0.172515 0.00550098 -0.32553
0.193344 0.0149831 0.116962
0.193327 0.0148805 0.103969
0.193286 0.0146465 0.0743317
0.193259 0.0144837 0.0537267
0.193084 0.0134664 -0.0750987
0.193047 0.0132475 -0.102823
0.193019 0.0130879 -0.123032
0.192993 0.0129321 -0.14276
0.192975 0.0128303 -0.155654
0.192937 0.012607 -0.183934
0.103122 0.0127222 -0.325153
0.0561205 0.0133669 -0.325217
-0.0240482 0.0144665 -0.325327
0.192908 0.0152028 -0.205258
0.192868 0.0149181 -0.234751
0.192841 0.0147251 -0.254748
0.192815 0.0145371 -0.274234
0.1928 0.0144317 -0.285147
0.135501 0.0150065 -0.325108
0.124962 0.0151832 -0.325123
0.193436 0.0258635 0.184714
0.193398 0.0254993 0.157041
0.19338 0.025321 0.143495
0.193231 0.0238744 0.0335745
0.193205 0.0236149 0.0138604
0.193179 0.023361 -0.00542992
0.193138 0.022966 -0.0354462
0.193099 0.0225841 -0.0644643
0.0436162 0.022564 -0.325234
0.0176198 0.0231583 -0.32527
0.00410128 0.0234674 -0.325288
-0.0387098 0.0244461 -0.325347
-0.0692911 0.0251452 -0.325389
-0.0852472 0.02551 -0.32541
0.193084 0.0254366 -0.0750987
0.193047 0.0250231 -0.102823
0.15586 0.0226643 -0.325081
0.0802019 0.0246246 -0.325184
0.0561205 0.0252485 -0.325217
0.193626 0.0351 0.325054
0.193611 0.0349219 0.314369
0.193583 0.034571 0.293319
0.193555 0.0342271 0.272689
0.193521 0.0338067 0.247471
0.193501 0.0335593 0.232636
0.193474 0.0332352 0.213189
0.192815 0.0251094 -0.274234
0.19276 0.0244405 -0.314358
0.18472 0.0244951 -0.325041
-0.11859 0.0332781 -0.325456
-0.13602 0.0337829 -0.32548
-0.172515 0.0348397 -0.32553
0.193344 0.0349605 0.116962
0.193327 0.0347211 0.103969
0.193286 0.034175 0.0743317
0.193259 0.0337954 0.0537267
-0.0240482 0.0337552 -0.325327
0.193153 0.0354392 -0.0243098
0.193138 0.0352145 -0.0354462
0.193019 0.0334469 -0.123032
0.192993 0.0330488 -0.14276
0.192975 0.0327886 -0.155654
0.103122 0.0325122 -0.325153
0.0307871 0.0350478 -0.325252
0.193611 0.0459498 0.314369
0.193583 0.0454881 0.293319
0.193555 0.0450356 0.272689
0.192937 0.0350195 -0.183934
0.192868 0.0339048 -0.234751
0.192841 0.0334662 -0.254748
0.1928 0.0327993 -0.285147
-0.153986 0.0451357 -0.325504
-0.172515 0.0458417 -0.32553
0.193398 0.0458987 0.157041
0.19338 0.0455778 0.143495
0.193231 0.0429738 0.0335745
0.193205 0.0425068 0.0138604
-0.0387098 0.0440029 -0.325347
-0.0692911 0.0452613 -0.325389
0.193099 0.0436625 -0.0644643
0.00410128 0.0453702 -0.325288
0.193521 0.0551582 0.247471
0.195425 0.0546084 0.230606
0.195392 0.0539506 0.206421
0.193436 0.0534513 0.184714
0.193033 0.0453538 -0.112989
0.192908 0.0428442 -0.205258
0.124962 0.0427889 -0.325123
0.0802019 0.0449037 -0.325184
-0.0852472 0.0527206 -0.32541
-0.11859 0.0542959 -0.325456
0.193344 0.054938 0.116962
0.193327 0.0545618 0.103969
0.193286 0.0537037 0.0743317
0.193259 0.0531071 0.0537267
0.18472 0.0425441 -0.325041
0.15586 0.0439955 -0.325081
0.135501 0.0450195 -0.325108
-0.0240482 0.0530439 -0.325327
0.193626 0.0646579 0.325054
0.193221 0.055463 0.0256371
0.193205 0.0551014 0.0138604
0.19276 0.045022 -0.314358
0.193501 0.0653524 0.232636
0.193084 0.0553621 -0.0750987
0.193006 0.0534838 -0.132955
0.1949 0.0527101 -0.153447
0.0561205 0.0549527 -0.325217
-0.13602 0.0657877 -0.32548
0.19338 0.0658346 0.143495
0.192962 0.0552718 -0.165191
0.192868 0.0528915 -0.234751
0.103122 0.0551294 -0.325153
-0.0387098 0.0635597 -0.325347
-0.0692911 0.0653775 -0.325389
0.193626 0.0757421 0.325054
0.193611 0.0753578 0.314369
0.193583 0.0746005 0.293319
0.193555 0.0738584 0.272689
0.193248 0.0656896 0.0456123
0.193179 0.0638534 -0.00542992
0.193138 0.0627736 -0.0354462
0.192841 0.0548845 -0.254748
0.192815 0.0541835 -0.274234
0.1928 0.053791 -0.285147
0.0176198 0.0632994 -0.32527
-0.00978315 0.0650117 -0.325307
-0.172515 0.0751804 -0.32553
0.195397 0.0750155 0.211213
0.193442 0.0743189 0.189403
0.195338 0.0734199 0.168918
0.193099 0.0647409 -0.0644643
0.0436162 0.0646834 -0.325234
-0.0852472 0.0731285 -0.32541
-0.11859 0.0753136 -0.325456
0.19335 0.075088 0.121333
0.193321 0.074233 0.0996771
0.193292 0.0733972 0.0785084
0.193006 0.0650479 -0.132955
0.194847 0.0625043 -0.194033
0.0802019 0.0651828 -0.325184
0.193583 0.0855177 0.293319
0.193521 0.083627 0.247471
0.192896 0.0645876 -0.214223
0.15586 0.0626603 -0.325081
0.124962 0.0648736 -0.325123
0.193148 0.0753406 -0.0280377
0.18472 0.0631715 -0.325041
0.0561205 0.0727752 -0.325217
0.193051 0.0752221 -0.0994072
0.194908 0.0727977 -0.15024
-0.0387098 0.0831166 -0.325347
-0.0692911 0.0854936 -0.325389
0.193555 0.0954755 0.272689
0.193501 0.0936129 0.232636
0.193259 0.0852931 0.0537267
0.193231 0.084356 0.0335745
0.193205 0.0834393 0.0138604
0.193179 0.0825422 -0.00542992
-0.0240482 0.0851918 -0.325327
-0.13602 0.0942364 -0.32548
0.193461 0.0957446 0.203606
0.193436 0.0948329 0.184714
0.193398 0.0934974 0.157041
0.19338 0.0928437 0.143495
0.193113 0.0833278 -0.0536963
0.192876 0.074871 -0.228941
0.192849 0.0738987 -0.249087
0.192822 0.0729515 -0.268717
0.135501 0.0750324 -0.325108
0.0436162 0.0827346 -0.325234
0.0176198 0.0849138 -0.32527
-0.0852472 0.0935365 -0.32541
0.193626 0.1053 0.325054
0.193611 0.104766 0.314369
0.193327 0.0942431 0.103969
0.193286 0.0927609 0.0743317
0.193084 0.0852875 -0.0750987
0.192796 0.0746473 -0.28785
0.192768 0.073583 -0.309132
-0.172515 0.104519 -0.32553
0.193521 0.104979 0.247471
0.194931 0.0850572 -0.134007
0.192962 0.0836163 -0.165191
0.103122 0.0834009 -0.325153
-0.11859 0.103337 -0.325456
0.193436 0.105178 0.184714
0.193194 0.0956182 0.00609416
0.193179 0.0950014 -0.00542992
0.192924 0.0849546 -0.193143
0.192908 0.0843062 -0.205258
0.124962 0.0841976 -0.325123
0.00410128 0.0954339 -0.325288
-0.101673 0.105268 -0.325433
0.193611 0.115794 0.314369
0.193583 0.11463 0.293319
0.193368 0.105855 0.134569
0.193113 0.0954482 -0.0536963
0.165696 0.083047 -0.325067
0.0561205 0.0935681 -0.325217
-0.0387098 0.102673 -0.325347
-0.0692911 0.10561 -0.325389
-0.153986 0.113742 -0.325504
-0.172515 0.115521 -0.32553
0.193521 0.115654 0.247471
0.193501 0.114808 0.232636
0.193275 0.105307 0.0660344
0.193231 0.103456 0.0335745
0.193033 0.0950968 -0.112989
0.0802019 0.0941529 -0.325184
0.193398 0.113897 0.157041
0.0176198 0.10344 -0.32527
0.193583 0.125547 0.293319
0.193555 0.124298 0.272689
0.193327 0.114084 0.103969
0.192868 0.0935773 -0.234751
0.124962 0.0952399 -0.325123
0.0436162 0.103794 -0.325234
0.193501 0.125406 0.232636
0.193474 0.124194 0.213189
0.193259 0.114261 0.0537267
0.193061 0.105149 -0.0925329
0.192841 0.0950439 -0.254748
0.192815 0.09383 -0.274234
0.1928 0.0931502 -0.285147
0.0561205 0.10545 -0.325217
-0.0240482 0.114125 -0.325327
-0.0387098 0.115711 -0.325347
-0.11859 0.124355 -0.325456
0.193626 0.134858 0.325054
0.193436 0.125869 0.184714
0.192975 0.104068 -0.155654
0.19276 0.0939031 -0.314358
0.103122 0.103191 -0.325153
0.193555 0.135107 0.272689
0.193356 0.125436 0.125725
0.193153 0.115563 -0.0243098
0.192937 0.105058 -0.183934
0.192908 0.103655 -0.205258
-0.0692911 0.125726 -0.325389
-0.13602 0.133353 -0.32548
0.193286 0.125309 0.0743317
0.193231 0.122555 0.0335745
0.15586 0.102656 -0.325081
0.135501 0.105045 -0.325108
-0.101673 0.132879 -0.325433
0.193626 0.145942 0.325054
0.193611 0.145201 0.314368
0.193399 0.134296 0.15704
0.193205 0.124372 0.0138604
0.193006 0.114195 -0.132955
0.175314 0.10298 -0.325054
0.0802019 0.114432 -0.325184
0.00410128 0.123595 -0.325288
-0.172515 0.14486 -0.32553
0.193521 0.144123 0.247471
0.193328 0.133924 0.103968
0.193138 0.124016 -0.0354462
0.0307871 0.123429 -0.325252
0.193488 0.14589 0.222865
0.193462 0.144487 0.203605
0.19326 0.133572 0.0537255
0.193099 0.124965 -0.0644642
0.192868 0.112564 -0.234751
-0.0240482 0.133414 -0.325327
-0.0387098 0.135268 -0.325347
-0.11859 0.145373 -0.325456
0.193583 0.15466 0.293319
0.193424 0.145865 0.175402
0.193233 0.135288 0.0335733
0.193047 0.125115 -0.102823
-0.153986 0.153461 -0.325504
-0.172515 0.155862 -0.32553
0.193542 0.155948 0.262526
0.193357 0.145505 0.125724
0.19318 0.135494 -0.00543112
0.192993 0.125011 -0.14276
0.192975 0.124027 -0.155654
0.192815 0.114975 -0.274234
0.1928 0.114142 -0.285147
0.103122 0.122981 -0.325153
-0.0692911 0.145842 -0.325389
0.193086 0.133168 -0.0750996
0.192908 0.123004 -0.205258
0.19276 0.114485 -0.314358
0.124962 0.122846 -0.325123
-0.101673 0.153587 -0.325433
0.193583 0.165577 0.293319
0.193399 0.154696 0.15704
0.193206 0.143263 0.0138591
0.0683119 0.133463 -0.3252
0.193328 0.153765 0.103968
0.19302 0.135242 -0.123033
0.192841 0.124494 -0.254748
0.165696 0.122593 -0.325067
0.0176198 0.143581 -0.32527
0.00410128 0.145498 -0.325288
-0.13602 0.165358 -0.32548
0.193626 0.1755 0.325054
0.193611 0.174609 0.314368
0.193462 0.165377 0.203605
0.193288 0.154601 0.0743305
0.19326 0.152884 0.0537255
0.193139 0.145451 -0.0354472
0.1931 0.143032 -0.0644651
0.192938 0.133074 -0.183934
0.0436162 0.142905 -0.325234
-0.0240482 0.152702 -0.325327
0.193412 0.165673 0.166178
0.193086 0.145138 -0.0750996
0.193501 0.174862 0.232635
0.193357 0.165575 0.125724
0.193196 0.155183 0.00609285
0.192869 0.134263 -0.234751
0.145798 0.133505 -0.325094
0.0683119 0.145196 -0.3252
-0.053785 0.163619 -0.325367
-0.11859 0.173397 -0.325456
0.193611 0.185637 0.314368
0.193305 0.165481 0.0869173
0.192994 0.145127 -0.142761
0.192976 0.143985 -0.155654
0.192815 0.133476 -0.274234
0.1928 0.132509 -0.285147
0.103122 0.142771 -0.325153
-0.101673 0.174296 -0.325433
-0.172515 0.1852 -0.32553
0.193555 0.185547 0.272689
0.193521 0.183267 0.247471
0.193249 0.165025 0.0456111
0.193233 0.163937 0.0335733
0.1931 0.155077 -0.0644651
-0.0240482 0.165561 -0.325327
-0.0692911 0.172664 -0.325389
-0.153986 0.185959 -0.325504
0.193501 0.185459 0.232635
0.19318 0.163527 -0.00543112
0.193048 0.154554 -0.102824
0.192909 0.145117 -0.205258
0.19276 0.135066 -0.314358
0.124962 0.14493 -0.325123
0.193583 0.194689 0.293319
0.195377 0.185324 0.196913
0.193288 0.17413 0.0743305
0.192869 0.145112 -0.234751
0.192841 0.143235 -0.254748
0.0307871 0.163049 -0.325252
0.195332 0.185672 0.16433
0.192938 0.152685 -0.183934
0.165696 0.143684 -0.325067
-0.0852472 0.185372 -0.32541
0.193626 0.205058 0.325054
0.193357 0.185645 0.125724
0.193071 0.165063 -0.0856029
0.114172 0.155037 -0.325138
0.00410128 0.173658 -0.325288
-0.053785 0.183451 -0.325367
-0.11859 0.194414 -0.325456
0.193583 0.205606 0.293319
0.19343 0.194376 0.180046
0.193305 0.185142 0.0869173
0.19317 0.175232 -0.0130315
0.193139 0.17301 -0.0354472
0.193034 0.165322 -0.11299
0.135501 0.154158 -0.325108
0.193535 0.205629 0.257483
0.19326 0.18507 0.0537255
0.193233 0.183036 0.0335733
0.192994 0.165244 -0.142761
0.192976 0.163943 -0.155654
0.0918018 0.164545 -0.325168
0.0307871 0.175239 -0.325252
-0.0692911 0.19278 -0.325389
0.193611 0.215045 0.314368
0.193488 0.205652 0.222865
0.193334 0.193889 0.108279
0.193206 0.184196 0.0138591
0.192815 0.154621 -0.274234
0.1928 0.153501 -0.285147
0.0561205 0.173769 -0.325217
-0.00978315 0.185521 -0.325307
-0.172515 0.214539 -0.32553
0.193437 0.205184 0.184713
0.193282 0.193224 0.0701725
-0.101673 0.205358 -0.325433
-0.153986 0.214846 -0.325504
0.19532 0.205145 0.155216
0.193139 0.185258 -0.0354472
0.135501 0.165071 -0.325108
0.0802019 0.175269 -0.325184
0.193462 0.214119 0.203605
0.193357 0.205714 0.125724
0.193227 0.19534 0.0295959
0.1931 0.185189 -0.0644651
0.192841 0.164653 -0.254748
0.15586 0.163983 -0.325081
-0.053785 0.203284 -0.325367
-0.11859 0.215432 -0.325456
-0.172515 0.225541 -0.32553
0.193555 0.225178 0.272689
0.193316 0.205734 0.0954038
0.193191 0.195515 0.00223494
0.193062 0.185122 -0.0925337
0.194862 0.17463 -0.184849
0.192909 0.172759 -0.205258
0.175314 0.162944 -0.325054
-0.153986 0.225678 -0.325504
0.193626 0.234616 0.325054
0.193521 0.225971 0.247471
0.19276 0.163366 -0.314358
-0.0692911 0.212896 -0.325389
0.193597 0.235904 0.303791
0.193475 0.225649 0.213189
0.192869 0.174949 -0.234751
0.183012 0.248114 0.359669
0.193437 0.225874 0.184713
0.193288 0.213187 0.0743305
0.192815 0.173123 -0.274234
0.114172 0.182972 -0.325138
0.0561205 0.194562 -0.325217
-0.210136 0.248113 -0.322187
-0.219591 0.248114 -0.338577
0.201447 0.248114 0.359253
0.190275 0.248114 0.339881
0.193501 0.234915 0.232636
0.19326 0.214037 0.0537255
0.193155 0.204931 -0.024311
0.193039 0.194976 -0.109615
0.193011 0.192637 -0.129662
0.1928 0.174493 -0.285147
0.0307871 0.202668 -0.325252
-0.0240482 0.213783 -0.325327
-0.193254 0.248116 -0.325261
0.208328 0.248114 0.339765
0.193357 0.225784 0.125724
0.194908 0.1927 -0.15024
-0.053785 0.223116 -0.325367
-0.101673 0.232969 -0.325433
-0.191523 0.248115 -0.353696
0.215009 0.248114 0.320847
0.193541 0.245574 0.262527
0.193398 0.232894 0.157041
0.193316 0.225484 0.0954038
0.192959 0.19378 -0.168346
0.192841 0.183395 -0.254748
0.15586 0.182648 -0.325081
0.00410128 0.214335 -0.325288
-0.162734 0.248114 -0.334281
-0.173578 0.248114 -0.353089
0.213232 0.249792 0.301858
0.208176 0.248415 0.281822
0.193501 0.245513 0.232636
0.193277 0.225194 0.0660333
0.19317 0.215551 -0.0130315
0.193139 0.212817 -0.0354472
0.194855 0.193814 -0.187921
-0.0692911 0.233012 -0.325389
-0.11859 0.243456 -0.325456
-0.143702 0.248118 -0.330869
-0.154396 0.24812 -0.349405
0.193461 0.245454 0.203606
0.193233 0.224418 0.0335733
0.19302 0.205044 -0.123033
0.192905 0.194501 -0.208258
0.175314 0.1838 -0.325054
0.0802019 0.204239 -0.325184
0.193423 0.245397 0.175402
0.193206 0.225128 0.0138591
0.1931 0.215301 -0.0644651
0.193086 0.213967 -0.0750996
0.192877 0.194664 -0.228941
0.19276 0.183947 -0.314358
0.135501 0.195084 -0.325108
0.0436162 0.21511 -0.325234
-0.121045 0.248116 -0.348363
0.193259 0.233349 0.0537264
0.193048 0.213432 -0.102824
0.114172 0.202526 -0.325138
0.0561205 0.215355 -0.325217
0.0176198 0.223864 -0.32527
-0.0240482 0.233072 -0.325327
-0.0965214 0.248115 -0.333055
0.193139 0.225066 -0.0354472
0.192823 0.194979 -0.268717
0.192796 0.192512 -0.28785
-0.053785 0.242949 -0.325367
-0.0810944 0.248115 -0.332769
-0.0928878 0.248116 -0.353219
0.202725 0.250603 0.15269
0.193315 0.245235 0.0954049
0.192994 0.214099 -0.142761
0.00410128 0.233109 -0.325288
0.206222 0.250353 0.131543
0.193286 0.245735 0.0743317
0.193179 0.235167 -0.00543022
0.192976 0.215264 -0.155654
-0.0645975 0.248119 -0.35497
0.211999 0.248116 0.100289
0.193248 0.245134 0.0456123
0.193231 0.243518 0.0335745
0.193048 0.225207 -0.102824
0.192938 0.214319 -0.183934
0.192841 0.204813 -0.254748
0.15586 0.203979 -0.325081
0.214655 0.248118 0.0811225
0.19302 0.225403 -0.123033
0.192909 0.214221 -0.205258
0.0802019 0.224519 -0.325184
-0.0249574 0.248114 -0.334473
-0.0361523 0.248117 -0.353864
0.217255 0.248117 0.0624329
0.193085 0.234914 -0.0750992
0.192869 0.212922 -0.234751
0.175314 0.204657 -0.325054
0.00410128 0.245625 -0.325288
-0.0177343 0.248114 -0.345128
0.218244 0.248111 0.0415035
0.205784 0.248111 0.0198983
0.19276 0.204529 -0.314358
0.103122 0.224758 -0.325153
0.0176198 0.245478 -0.32527
0.208419 0.248113 0.00244218
0.193128 0.245464 -0.0427923
0.192815 0.212769 -0.274234
0.00231391 0.248119 -0.354973
0.207965 0.248111 -0.0198643
0.193099 0.245413 -0.0644642
0.192994 0.234215 -0.142761
0.1928 0.213852 -0.285147
0.124962 0.224987 -0.325123
0.0436162 0.245195 -0.325234
0.0150146 0.248119 -0.354447
-0.0400931 0.260255 -0.365361
0.209007 0.248114 -0.0390164
0.19307 0.245364 -0.0856022
0.192976 0.235223 -0.155654
0.175314 0.215086 -0.325054
0.145798 0.222508 -0.325094
0.0561205 0.245059 -0.325217
-0.0184484 0.2579 -0.366056
0.210023 0.248117 -0.057709
0.192938 0.23393 -0.183934
0.192841 0.223554 -0.254748
0.039509 0.248117 -0.353433
0.209571 0.248112 -0.0785152
0.192909 0.23357 -0.205258
0.0802019 0.244798 -0.325184
-0.000252247 0.25943 -0.366272
0.209124 0.24811 -0.0988298
0.0613992 0.248118 -0.354976
0.0150371 0.258541 -0.366076
0.208319 0.248237 -0.118461
0.192869 0.234621 -0.234751
0.19276 0.222538 -0.314358
0.103122 0.244548 -0.325153
0.204299 0.249 -0.139127
0.192937 0.245136 -0.183934
0.0837085 0.248118 -0.353995
0.0413286 0.257713 -0.365155
0.192815 0.233914 -0.274234
0.124962 0.244311 -0.325123
0.1928 0.234843 -0.285147
0.135501 0.244196 -0.325108
0.105024 0.248117 -0.353059
0.201243 0.255072 -0.159911
0.192841 0.244972 -0.254748
0.15586 0.243975 -0.325081
0.1988 0.255057 -0.198886
0.133923 0.248118 -0.35405
0.19919 0.254248 -0.219895
0.175314 0.243764 -0.325054
0.19276 0.243119 -0.314358
0.153047 0.248118 -0.353162
0.205871 0.248754 -0.273389
0.208341 0.248655 -0.285035
0.170091 0.248118 -0.354535
0.201985 0.259166 -0.249796
0.210334 0.248116 -0.314436
0.199021 0.248116 -0.334055
0.187702 0.248118 -0.353673
0.215706 0.248116 -0.333618
0.215859 0.257674 -0.348366
