ply
format ascii 1.0
comment Created by Open3D
element vertex 683
property double x
property double y
property double z
end_header
-0.197172 -0.161829 -0.423282
-0.162078 -0.161749 -0.42332
-0.179769 -0.160418 -0.423301
-0.134984 -0.160987 -0.423349
-0.211816 -0.161823 -0.388684
-0.211836 -0.15964 -0.369733
-0.211857 -0.160299 -0.349927
-0.20291 -0.142403 -0.423276
-0.0705887 -0.148992 -0.420217
-0.0898661 -0.147715 -0.420197
-0.162078 -0.142394 -0.42332
-0.179769 -0.141223 -0.423301
0.178915 -0.161768 -0.423682
0.159121 -0.160483 -0.423661
0.139639 -0.159218 -0.423641
-0.0276566 -0.148886 -0.420263
-0.0476732 -0.147586 -0.420242
-0.127447 -0.142407 -0.420157
-0.211816 -0.142123 -0.388684
0.211254 -0.160623 -0.423715
0.0204485 -0.148999 -0.420314
-0.000412881 -0.147671 -0.420292
-0.108816 -0.140773 -0.420176
-0.211836 -0.142381 -0.369733
0.0669605 -0.148889 -0.420364
0.0452659 -0.147536 -0.420341
-0.208674 -0.146186 -0.328939
0.119162 -0.149007 -0.42042
0.100259 -0.147853 -0.420399
-0.211857 -0.13971 -0.349927
-0.208696 -0.146514 -0.307458
-0.20872 -0.146858 -0.284949
-0.0705887 -0.131633 -0.420217
-0.208744 -0.147219 -0.261338
0.174931 -0.14232 -0.423678
0.147395 -0.140745 -0.423649
-0.0276566 -0.131197 -0.420263
-0.0476732 -0.130051 -0.420242
-0.0930469 -0.127456 -0.420193
-0.173905 -0.122363 -0.423307
-0.194291 -0.121197 -0.423285
-0.211788 -0.12131 -0.415624
-0.20877 -0.147597 -0.236542
0.211254 -0.141153 -0.423715
0.190945 -0.140017 -0.423694
0.0890566 -0.134775 -0.420388
0.0310205 -0.13153 -0.420326
0.00997114 -0.130353 -0.420303
-0.130521 -0.122496 -0.420153
-0.15012 -0.120943 -0.423333
-0.211816 -0.122423 -0.388684
-0.208783 -0.146115 -0.223671
0.0706149 -0.130669 -0.420368
0.0524535 -0.129677 -0.420348
-0.0107048 -0.126226 -0.420281
-0.211836 -0.122247 -0.369733
-0.208685 -0.129579 -0.318323
-0.208811 -0.146479 -0.196922
-0.208825 -0.148415 -0.183018
0.126806 -0.130593 -0.420428
-0.211857 -0.122063 -0.349927
-0.208708 -0.129519 -0.296337
-0.208744 -0.134276 -0.261338
-0.208855 -0.148857 -0.154076
-0.193821 -0.160194 -0.076627
-0.205559 -0.159568 -0.0766146
-0.212173 -0.158421 -0.0536819
-0.0575511 -0.114937 -0.420231
-0.10568 -0.112493 -0.42018
-0.20872 -0.12475 -0.284949
-0.20877 -0.131013 -0.236542
-0.208886 -0.145637 -0.123519
-0.21221 -0.159289 -0.0167423
-0.212229 -0.161791 0.00259519
0.159121 -0.122348 -0.423661
0.111565 -0.120398 -0.420412
-0.0802689 -0.110903 -0.420207
-0.208797 -0.130985 -0.210469
-0.212254 -0.160208 0.0225285
0.211254 -0.121684 -0.423715
0.190945 -0.120705 -0.423694
0.00997114 -0.112373 -0.420303
-0.0276566 -0.110559 -0.420263
-0.188506 -0.102411 -0.423292
-0.208617 -0.101442 -0.42327
-0.208825 -0.130955 -0.183018
-0.212279 -0.158575 0.0431077
-0.212305 -0.161186 0.0643647
0.0742807 -0.112394 -0.420372
0.0345657 -0.11053 -0.420329
-0.134984 -0.102192 -0.423349
-0.153122 -0.10134 -0.423329
-0.165047 -0.100781 -0.423317
-0.208685 -0.111286 -0.318323
-0.208855 -0.130923 -0.154076
-0.208886 -0.134576 -0.123519
-0.209451 -0.14016 -0.0766127
0.139639 -0.111925 -0.423641
-0.0107048 -0.105436 -0.420281
-0.211816 -0.0999083 -0.388684
-0.211836 -0.102112 -0.369733
-0.208708 -0.110793 -0.296337
-0.208744 -0.114863 -0.261338
-0.212173 -0.138863 -0.0536819
0.0890566 -0.106891 -0.420388
0.0452659 -0.104949 -0.420341
-0.211857 -0.101474 -0.349927
-0.21221 -0.139126 -0.0167423
-0.212229 -0.141311 0.00259519
-0.20877 -0.111113 -0.236542
-0.212254 -0.139402 0.0225285
-0.212279 -0.14166 0.0431077
-0.209137 -0.148343 0.102752
0.119162 -0.101952 -0.42042
-0.108816 -0.0924267 -0.420176
-0.208797 -0.110572 -0.210469
-0.212305 -0.139694 0.0643647
-0.209162 -0.146368 0.12579
-0.209187 -0.148905 0.149627
0.211254 -0.102214 -0.423715
0.190945 -0.101392 -0.423694
0.170959 -0.100583 -0.423674
-0.0377088 -0.0924624 -0.420252
-0.0705887 -0.0911309 -0.420217
-0.208674 -0.0949456 -0.328939
-0.208825 -0.110002 -0.183018
-0.208871 -0.114543 -0.139008
-0.209451 -0.12096 -0.0766127
-0.209213 -0.14687 0.174304
0.100259 -0.0949369 -0.420399
0.0345657 -0.092361 -0.420329
0.00649944 -0.0912605 -0.420299
-0.0242861 -0.0900534 -0.420267
-0.0898661 -0.0874819 -0.420197
-0.211459 -0.0823943 -0.423267
-0.20872 -0.0963262 -0.284949
-0.212173 -0.119305 -0.0536819
-0.20924 -0.144761 0.199869
-0.209268 -0.147408 0.226368
-0.193155 -0.160085 0.346865
-0.212612 -0.160125 0.354917
0.0816459 -0.0911183 -0.42038
-0.138028 -0.0824778 -0.423345
-0.159101 -0.0816785 -0.423323
-0.179769 -0.0808947 -0.423301
-0.208708 -0.0920677 -0.296337
-0.208903 -0.110306 -0.107592
-0.21221 -0.118962 -0.0167423
-0.212229 -0.120831 0.00259519
-0.209137 -0.130631 0.102752
-0.209297 -0.145231 0.253855
-0.209328 -0.147988 0.282385
-0.212642 -0.158059 0.387871
-0.212674 -0.161377 0.422207
0.151291 -0.0902826 -0.423653
-0.211816 -0.0802081 -0.388684
-0.211836 -0.0819772 -0.369733
-0.212254 -0.118596 0.0225285
-0.212279 -0.120517 0.0431077
-0.209187 -0.130578 0.149627
-0.209213 -0.132882 0.174304
-0.209359 -0.145738 0.312019
-0.211857 -0.0808848 -0.349927
-0.208757 -0.0900813 -0.249094
-0.208811 -0.0947808 -0.196922
-0.20892 -0.104303 -0.0912075
-0.212305 -0.118203 0.0643647
-0.209162 -0.123849 0.12579
-0.209268 -0.132909 0.226368
-0.209391 -0.138185 0.342823
0.203091 -0.0824774 -0.423707
0.174931 -0.0815542 -0.423678
0.126806 -0.0802438 -0.420428
-0.111943 -0.0724169 -0.420173
-0.208732 -0.0815092 -0.273287
-0.208783 -0.0856534 -0.223671
-0.208825 -0.089049 -0.183018
-0.208855 -0.0914665 -0.154076
-0.208886 -0.0940188 -0.123519
-0.212173 -0.0997464 -0.0536819
-0.209297 -0.125539 0.253855
-0.209328 -0.127922 0.282385
-0.212642 -0.136627 0.387871
-0.212674 -0.139496 0.422207
0.0560637 -0.0748688 -0.420352
-0.0209058 -0.0724444 -0.42027
-0.0377088 -0.0719152 -0.420252
-0.0640887 -0.0710843 -0.420224
-0.21221 -0.0987993 -0.0167423
-0.212229 -0.100351 0.00259519
-0.212254 -0.101951 0.0225285
-0.209137 -0.10849 0.102752
-0.209187 -0.112252 0.149627
-0.209213 -0.114232 0.174304
-0.20924 -0.116283 0.199869
-0.209359 -0.125284 0.312019
0.0779576 -0.0724744 -0.420376
0.0345657 -0.0711634 -0.420329
-0.0898661 -0.0674041 -0.420197
-0.208685 -0.0716496 -0.318323
-0.212279 -0.0993734 0.0431077
-0.212305 -0.10101 0.0643647
-0.209268 -0.113577 0.226368
0.151291 -0.0712757 -0.423653
0.00649944 -0.0673233 -0.420299
-0.153122 -0.0624702 -0.423329
-0.165047 -0.0621252 -0.423317
-0.194291 -0.0612793 -0.423285
-0.211788 -0.0613366 -0.415624
-0.208708 -0.0702211 -0.296337
-0.209391 -0.117327 0.342823
0.111565 -0.0672353 -0.420412
-0.134984 -0.060195 -0.423349
-0.211816 -0.0605078 -0.388684
-0.211836 -0.0618424 -0.369733
-0.208757 -0.0704272 -0.249094
-0.208811 -0.0741014 -0.196922
-0.209162 -0.0968278 0.12579
-0.209297 -0.105847 0.253855
-0.209328 -0.107856 0.282385
-0.212642 -0.115196 0.387871
-0.212674 -0.117614 0.422207
-0.211857 -0.060296 -0.349927
-0.20872 -0.0647439 -0.284949
-0.208825 -0.0715885 -0.183018
-0.208871 -0.0745437 -0.139008
-0.209451 -0.0787198 -0.0766127
-0.212173 -0.0801883 -0.0536819
-0.209137 -0.0907772 0.102752
-0.20924 -0.0972984 0.199869
-0.209359 -0.104829 0.312019
0.193003 -0.0632608 -0.416768
0.17491 -0.0632609 -0.409649
-0.208783 -0.0654997 -0.223671
-0.21221 -0.0786362 -0.0167423
-0.212229 -0.0798713 0.00259519
-0.212254 -0.0811445 0.0225285
-0.212279 -0.0824588 0.0431077
-0.209187 -0.0893431 0.149627
-0.209268 -0.0942447 0.226368
-0.212612 -0.102375 0.354917
-0.212642 -0.10448 0.387871
-0.112311 -0.0524811 -0.420963
-0.208903 -0.0691749 -0.107592
-0.212305 -0.0795182 0.0643647
-0.209162 -0.0833169 0.12579
-0.209213 -0.0862568 0.174304
-0.212674 -0.101203 0.422207
0.115099 -0.0547867 -0.420749
0.103723 -0.0545279 -0.420788
-0.00782514 -0.0519894 -0.421172
-0.028226 -0.0515251 -0.421242
-0.0646964 -0.0506952 -0.421367
-0.207756 -0.0529453 -0.325851
-0.207524 -0.0542375 -0.303409
-0.20924 -0.0830596 0.199869
-0.209297 -0.0861542 0.253855
-0.209328 -0.0877896 0.282385
0.153281 -0.0524409 -0.421255
0.0808381 -0.0508875 -0.421485
0.0516241 -0.0502627 -0.421549
0.0302263 -0.0498088 -0.421526
-0.0840833 -0.047384 -0.421404
-0.199179 -0.0632512 -0.0826634
-0.209359 -0.0843746 0.312019
0.00921145 -0.0463713 -0.421504
-0.18269 -0.0424458 -0.423298
-0.20291 -0.0420429 -0.423276
-0.208134 -0.051544 -0.23416
-0.207625 -0.0543935 -0.178259
-0.207488 -0.055156 -0.163302
-0.212173 -0.0606302 -0.0536819
-0.209137 -0.0686364 0.102752
-0.209187 -0.0710163 0.149627
-0.209268 -0.0749125 0.226368
-0.212612 -0.0813749 0.354917
-0.212642 -0.0830481 0.387871
-0.134984 -0.0405966 -0.423349
-0.153122 -0.0402586 -0.423329
-0.211816 -0.0408076 -0.388684
-0.211836 -0.0417077 -0.369733
-0.208332 -0.0469949 -0.259837
-0.207827 -0.0536934 -0.119059
-0.207685 -0.0544882 -0.102387
-0.21221 -0.058473 -0.0167423
-0.212229 -0.0593915 0.00259519
-0.212254 -0.0603382 0.0225285
-0.212279 -0.0613155 0.0431077
-0.212305 -0.0623251 0.0643647
-0.212674 -0.079321 0.422207
-0.211857 -0.0397071 -0.349927
-0.208387 -0.0460067 -0.208891
-0.199271 -0.0632612 0.177562
-0.20924 -0.0640746 0.199869
-0.209297 -0.0664618 0.253855
-0.209328 -0.0677234 0.282385
0.180645 -0.0401512 -0.421687
-0.208307 -0.0395446 -0.283485
-0.208464 -0.0455291 -0.137322
-0.208916 -0.0563518 0.127075
-0.209359 -0.0639202 0.312019
0.201622 -0.0372832 -0.420806
-0.208259 -0.0347215 -0.327543
-0.20714 -0.0593413 0.325335
-0.212612 -0.0603749 0.354917
-0.212642 -0.0616163 0.387871
0.088167 -0.0324786 -0.421588
0.0552282 -0.032034 -0.421553
0.0444483 -0.0318885 -0.421541
-0.00801563 -0.0311803 -0.421485
-0.0283544 -0.0309058 -0.421463
-0.0581998 -0.0305029 -0.421431
-0.0999615 -0.0299391 -0.421386
-0.208345 -0.0344525 -0.247574
-0.205559 -0.0403725 -0.0766166
-0.212173 -0.0410721 -0.0536819
-0.21221 -0.0423426 -0.0167423
-0.210549 -0.0462269 0.0954961
-0.210511 -0.0514354 0.246859
-0.21034 -0.0524553 0.276434
-0.212674 -0.0574394 0.422207
0.160798 -0.0302725 -0.421666
0.141262 -0.0300339 -0.421645
-0.0776682 -0.0273601 -0.42141
-0.208464 -0.0346021 -0.137322
-0.212229 -0.0389117 0.00259519
-0.212254 -0.0395319 0.0225285
-0.212279 -0.0401723 0.0431077
-0.212305 -0.0408337 0.0643647
-0.210628 -0.0440374 0.166616
-0.210656 -0.044828 0.192026
-0.210685 -0.0456476 0.218364
0.122033 -0.0266623 -0.421624
0.0161745 -0.0255055 -0.421511
-0.208282 -0.0262627 -0.306028
-0.210601 -0.0387189 0.142088
-0.210779 -0.0432127 0.303494
-0.11872 -0.0212042 -0.421366
-0.138028 -0.0209689 -0.423345
-0.159101 -0.0207657 -0.423323
-0.179769 -0.0205664 -0.423301
-0.200045 -0.0203709 -0.423279
-0.211816 -0.0211074 -0.388684
-0.211836 -0.0215729 -0.369733
-0.211857 -0.0220595 -0.349927
-0.208373 -0.0252344 -0.222113
-0.208401 -0.0258926 -0.195323
-0.208416 -0.0262347 -0.181398
-0.210575 -0.0335817 0.118395
-0.210813 -0.0388809 0.334109
-0.212612 -0.0393749 0.354917
-0.212642 -0.0401845 0.387871
0.184653 -0.0209121 -0.421692
-0.208294 -0.0203204 -0.294889
-0.20848 -0.0240054 -0.12181
-0.210715 -0.0318142 0.245684
-0.210747 -0.0324179 0.27404
-0.212674 -0.0355577 0.422207
-0.205559 -0.0211475 -0.0766164
-0.212173 -0.0215139 -0.0536819
-0.21221 -0.0221794 -0.0167423
-0.210549 -0.0242141 0.0954961
-0.210685 -0.0264275 0.218364
0.201622 -0.0145891 -0.420806
-0.208319 -0.0144082 -0.271804
-0.208345 -0.0147654 -0.247574
-0.212229 -0.0184318 0.00259519
-0.212254 -0.0187256 0.0225285
-0.212279 -0.019029 0.0431077
-0.212305 -0.0193423 0.0643647
-0.210601 -0.0204983 0.142088
-0.210779 -0.0228773 0.303494
-0.212674 -0.0246169 0.422207
0.160798 -0.011153 -0.421666
0.141262 -0.0110651 -0.421645
0.0956113 -0.0108597 -0.421596
0.084462 -0.0108095 -0.421584
0.0624698 -0.0107106 -0.421561
0.0408766 -0.0106134 -0.421537
0.00228989 -0.0104398 -0.421496
-0.01823 -0.0103475 -0.421474
-0.0549222 -0.0101824 -0.421435
-0.0999615 -0.00997972 -0.421386
-0.208271 -0.0106893 -0.316909
-0.210628 -0.0162243 0.166616
-0.210656 -0.0165156 0.192026
-0.210813 -0.0181444 0.334109
-0.212612 -0.018375 0.354917
-0.212642 -0.0187528 0.387871
-0.0744468 -0.00721037 -0.421414
-0.208447 -0.00898225 -0.152412
-0.210715 -0.0122362 0.245684
-0.210747 -0.0124684 0.27404
0.122033 -0.00470512 -0.421624
-0.208373 -0.0050469 -0.222113
-0.208401 -0.00517852 -0.195323
-0.208416 -0.00524694 -0.181398
-0.210575 -0.00671635 0.118395
-0.210685 -0.00720752 0.218364
0.180645 -0.00160606 -0.421687
-0.124627 -0.00141083 -0.420746
-0.144091 -0.00139404 -0.423339
-0.165047 -0.00138057 -0.423316
-0.194291 -0.00136177 -0.423285
-0.211788 -0.00136305 -0.415624
-0.211816 -0.00140717 -0.388684
-0.211836 -0.00143821 -0.369733
-0.211857 -0.00147064 -0.349927
-0.208294 -0.00156312 -0.294889
-0.205559 -0.00192251 -0.0766162
-0.212173 -0.00195582 -0.0536819
-0.21221 -0.00201632 -0.0167423
-0.212229 -0.002048 0.00259519
-0.212254 -0.00208064 0.0225285
-0.212279 -0.00211434 0.0431077
-0.212305 -0.00214915 0.0643647
-0.210601 -0.0022776 0.142088
-0.210779 -0.00254194 0.303494
-0.212674 -0.00273523 0.422207
-0.210813 0.00259208 0.334109
-0.212612 0.00262501 0.354917
-0.212642 0.00267899 0.387871
0.0161745 0.00450096 -0.421511
-0.208373 0.00504687 -0.222113
-0.208401 0.0051785 -0.195323
-0.208416 0.00524692 -0.181398
-0.208464 0.00546347 -0.137322
-0.20848 0.00553969 -0.12181
-0.210549 0.00660382 0.0954961
-0.210575 0.00671632 0.118395
-0.210628 0.00695324 0.166616
-0.210656 0.00707809 0.192026
-0.210685 0.00720749 0.218364
0.160798 0.00796644 -0.421666
0.141262 0.00790366 -0.421645
0.0993506 0.00776896 -0.4216
0.0697557 0.00767384 -0.421568
0.0516241 0.00761556 -0.421549
-0.208271 0.00763522 -0.316909
-0.208359 0.00830593 -0.235003
-0.210715 0.0122362 0.245684
-0.210747 0.0124684 0.27404
-0.00459066 0.0104088 -0.421489
-0.0450318 0.0102269 -0.421445
-0.0904618 0.0100224 -0.421397
-0.208729 0.0183003 0.346881
0.201781 0.0145926 -0.420628
-0.0249895 0.0132648 -0.421467
-0.0744468 0.0129787 -0.421414
-0.20821 0.0144147 -0.271411
-0.212173 0.0176023 -0.0536819
-0.21221 0.0181468 -0.0167423
-0.212229 0.0184318 0.00259519
-0.212254 0.0187256 0.0225285
-0.212279 0.019029 0.0431077
-0.212305 0.0193423 0.0643647
-0.208362 0.0206873 0.154024
-0.207117 0.022779 0.295383
-0.206551 0.0232761 0.328873
-0.212642 0.0241107 0.387871
-0.212674 0.0246169 0.422207
0.181302 0.0176848 -0.420931
-0.206186 0.0207941 -0.0959806
-0.205559 0.0211475 -0.0766158
-0.201427 0.0260001 0.191003
-0.17746 0.0289788 0.346848
0.0312566 0.0196634 -0.419969
-0.1152 0.0184256 -0.420469
-0.144091 0.0181224 -0.423339
-0.165047 0.0179473 -0.423316
-0.194291 0.0177029 -0.423285
-0.211788 0.0177195 -0.415624
-0.211816 0.0182931 -0.388684
-0.211836 0.0186965 -0.369733
-0.211857 0.0191182 -0.349927
-0.206184 0.0204954 -0.287504
-0.161645 0.0343797 0.346829
-0.212674 0.0355577 0.422207
0.121951 0.023642 -0.416854
-0.201052 0.0253414 -0.220642
-0.197317 0.0263732 -0.180129
-0.174052 0.0291413 -0.0766479
-0.185944 0.0290267 -0.076636
-0.203551 0.039265 0.346876
0.0938181 0.0267084 -0.40887
0.070394 0.026411 -0.410332
0.0512686 0.0261681 -0.411527
-0.020746 0.0253039 -0.414226
-0.137803 0.0334229 -0.0766861
-0.212642 0.0455425 0.387871
-0.212191 0.0377264 -0.0354934
-0.21221 0.0383099 -0.0167423
-0.212229 0.0389117 0.00259519
-0.212254 0.0395319 0.0225285
-0.212279 0.0401723 0.0431077
-0.212305 0.0408337 0.0643647
-0.172202 0.0501185 0.346843
0.206823 0.0609567 0.359407
-0.209451 0.0403199 -0.0766116
-0.212612 0.0551249 0.354917
-0.212674 0.0574394 0.422207
-0.00169921 0.0639807 0.36763
-0.145934 0.0450991 -0.0766772
-0.168254 0.0594478 0.312864
-0.193155 0.0603599 0.346865
-0.166072 0.048697 -0.0766581
-0.185944 0.0483777 -0.0766354
-0.170477 0.0652125 0.328273
-0.212642 0.0669742 0.387871
-0.141064 0.0376914 -0.423342
-0.211807 0.0375877 -0.397856
-0.211826 0.0384077 -0.379312
-0.211846 0.0392643 -0.359941
-0.000423461 0.0753199 0.371923
-0.212305 0.0580268 0.0643647
-0.171857 0.0689048 0.29435
0.210745 0.0846785 0.36839
-0.159101 0.0401471 -0.423323
-0.179769 0.0397618 -0.423301
-0.200045 0.0393839 -0.423279
-0.212191 0.0575825 -0.0354934
-0.21221 0.0584731 -0.0167423
-0.212229 0.0593915 0.00259519
-0.212254 0.0603382 0.0225285
-0.212279 0.0613156 0.0431077
-0.212612 0.0761249 0.354917
-0.167754 0.0592834 -0.097671
-0.209451 0.0595199 -0.0766114
-0.177461 0.0816673 0.346846
-0.212674 0.0847915 0.422207
0.206334 0.096507 0.372877
-0.167732 0.059415 -0.165985
-0.167994 0.0600644 -0.153871
-0.168535 0.0614069 -0.128829
-0.177093 0.0826506 0.26744
-0.178125 0.0852141 0.315257
-0.212642 0.088406 0.387871
-0.168469 0.061414 -0.193629
-0.171054 0.0678489 -0.0803999
-0.189888 0.0676401 -0.0766313
-0.212674 0.0957323 0.422207
-0.212279 0.0782302 0.0431077
-0.212305 0.0795182 0.0643647
-0.180476 0.091534 0.25005
-0.1816 0.0943369 0.296728
-0.212612 0.0971249 0.354917
-0.21221 0.0786361 -0.0167423
-0.212229 0.0798713 0.00259519
-0.212254 0.0811444 0.0225286
-0.184546 0.101913 0.336655
0.197468 0.120274 0.381892
-0.211816 0.0576935 -0.388684
-0.211836 0.058966 -0.369733
-0.211857 0.060296 -0.349927
-0.205559 0.0788225 -0.0766151
-0.212173 0.0801883 -0.0536819
-0.184989 0.103232 0.27866
-0.212642 0.109838 0.387871
-0.15012 0.0597767 -0.423332
-0.168007 0.0592823 -0.423313
-0.188506 0.0587156 -0.423292
-0.208617 0.0581598 -0.42327
-0.173335 0.0741627 -0.210007
-0.174948 0.0782134 -0.151878
-0.175644 0.0799603 -0.126809
-0.176004 0.0808633 -0.11385
-0.1854 0.104458 0.224746
-0.186016 0.106004 0.246936
-0.212674 0.117614 0.422207
-0.175173 0.0789099 -0.191683
-0.175848 0.0806077 -0.16839
-0.17806 0.0861696 -0.0920841
-0.189665 0.115354 0.308303
-0.190382 0.117157 0.333045
-0.208729 0.117645 0.346881
0.193983 0.138295 0.388723
-0.212254 0.0977895 0.0225286
-0.212279 0.0993735 0.0431077
-0.212305 0.10101 0.0643647
-0.190611 0.117917 0.275388
-0.193155 0.123344 0.346863
0.207819 0.144814 0.391177
-0.21221 0.0987993 -0.0167423
-0.212229 0.100351 0.00259519
-0.190149 0.116924 0.200337
-0.190824 0.118624 0.221774
-0.212642 0.13127 0.387871
-0.205559 0.0980476 -0.0766146
-0.212173 0.0997464 -0.0536819
-0.212674 0.139496 0.422207
0.209813 0.157108 0.395833
-0.211857 0.0779435 -0.349927
-0.179189 0.089499 -0.229709
-0.181482 0.0952978 -0.16203
-0.182744 0.0984883 -0.124792
-0.195418 0.130538 0.249267
-0.197816 0.136599 0.320005
-0.198666 0.138746 0.345067
-0.211826 0.078238 -0.379312
-0.181084 0.0943964 -0.212096
-0.181869 0.0963833 -0.189739
-0.183542 0.100619 -0.142076
-0.185369 0.105244 -0.0900316
-0.212305 0.118203 0.0643647
-0.194733 0.128956 0.176779
-0.198594 0.138721 0.286664
-0.156115 0.0790192 -0.423326
-0.182689 0.0780455 -0.423298
-0.211788 0.0776931 -0.415624
-0.212254 0.118596 0.0225286
-0.212279 0.120517 0.0431077
-0.197737 0.136701 0.21068
-0.198526 0.138698 0.232378
-0.212642 0.152701 0.387871
-0.21221 0.118962 -0.0167423
-0.212229 0.120831 0.00259519
-0.197702 0.136747 0.161524
-0.201736 0.146974 0.268912
-0.212674 0.161377 0.422207
-0.212156 0.117541 -0.0713327
-0.212173 0.119304 -0.0536819
-0.198359 0.159881 0.34687
-0.211807 0.0877047 -0.397856
-0.184804 0.104207 -0.248604
-0.190353 0.11831 -0.109791
-0.202211 0.148446 0.186824
-0.204802 0.155027 0.251593
-0.186749 0.109238 -0.23166
-0.187634 0.111489 -0.210181
-0.190521 0.118833 -0.140082
-0.212305 0.139694 0.0643647
-0.211857 0.0985324 -0.349927
-0.190185 0.118067 -0.180508
-0.194476 0.128987 -0.0793408
-0.212254 0.139402 0.0225286
-0.212279 0.14166 0.0431077
-0.203438 0.151804 0.13204
-0.211826 0.0981531 -0.379312
-0.192351 0.123669 -0.161275
-0.21221 0.139126 -0.0167423
-0.212229 0.141311 0.00259519
-0.162078 0.0981553 -0.423319
-0.212173 0.138863 -0.0536819
-0.179769 0.10009 -0.4233
-0.200045 0.0991386 -0.423279
-0.209451 0.14016 -0.0766103
-0.191245 0.121081 -0.270281
-0.192183 0.123476 -0.250427
-0.194175 0.12856 -0.208268
-0.196909 0.135536 -0.150421
-0.198087 0.138543 -0.125486
-0.198696 0.140098 -0.112598
-0.212279 0.158575 0.0431077
-0.212305 0.161185 0.0643647
-0.194236 0.12879 -0.233594
-0.212229 0.157695 0.00259519
-0.212254 0.160208 0.0225286
-0.198594 0.139993 -0.171174
-0.21221 0.159289 -0.0167423
-0.211846 0.117793 -0.359941
-0.212173 0.158421 -0.0536819
-0.211826 0.118068 -0.379312
-0.200215 0.144279 -0.191137
-0.197743 0.159985 -0.0766213
-0.211807 0.118332 -0.397856
-0.196381 0.134537 -0.287566
-0.197924 0.138486 -0.258603
-0.17096 0.119778 -0.42331
-0.188506 0.118797 -0.423291
-0.208617 0.117672 -0.42327
-0.201776 0.148406 -0.210353
-0.201653 0.148156 -0.235509
-0.201426 0.147692 -0.282348
-0.211846 0.138152 -0.359941
-0.211826 0.137983 -0.379312
-0.202285 0.150003 -0.307435
-0.211807 0.137822 -0.397856
-0.179769 0.138481 -0.4233
-0.211788 0.137667 -0.415624
-0.211846 0.158511 -0.359941
-0.211826 0.157898 -0.379312
-0.211797 0.158405 -0.406834
-0.185602 0.15998 -0.423294
