ply
format ascii 1.0
comment Created by Open3D
element vertex 1257
property double x
property double y
property double z
end_header
-0.126306 -0.390674 0.203251
-0.135869 -0.378986 0.229591
-0.135836 -0.368761 0.257016
-0.129487 -0.362302 0.277641
-0.112117 -0.365674 0.277665
-0.0908397 -0.369806 0.277693
-0.0690766 -0.374031 0.27772
-0.050557 -0.377627 0.277744
-0.031678 -0.381293 0.277768
-0.0124288 -0.385031 0.277793
0.0111744 -0.389614 0.277824
0.0312773 -0.390224 0.277849
0.0476519 -0.390058 0.27787
-0.126345 -0.391804 0.173159
-0.135853 -0.364419 0.243491
0.0684962 -0.390684 0.277897
-0.000696898 -0.374345 0.277808
0.08977 -0.391323 0.277925
-0.101538 -0.352342 0.277679
-0.050557 -0.361827 0.277744
0.111487 -0.391975 0.277953
-0.126306 -0.371059 0.203251
-0.135836 -0.350246 0.257016
-0.031678 -0.362149 0.277768
0.0191675 -0.371526 0.277834
-0.126386 -0.389537 0.141288
-0.0800201 -0.350121 0.277707
0.0394317 -0.371957 0.27786
-0.126408 -0.391868 0.124635
-0.126335 -0.372315 0.180843
0.0601076 -0.372396 0.277886
-0.120796 -0.336811 0.268054
-0.000696898 -0.354898 0.277808
0.081208 -0.369471 0.277914
-0.126365 -0.370214 0.157456
-0.135861 -0.341731 0.236589
0.0984027 -0.369128 0.277936
-0.126453 -0.389498 0.0897843
-0.126386 -0.372225 0.141288
-0.126306 -0.351444 0.203251
-0.138227 -0.329767 0.261618
-0.0505978 -0.341633 0.271984
0.0191675 -0.351886 0.277834
0.1203 -0.369551 0.277965
-0.126477 -0.391938 0.0715372
-0.101787 -0.331663 0.265703
-0.0316882 -0.341707 0.272068
0.0394317 -0.352119 0.27786
-0.126408 -0.370781 0.124635
-0.126335 -0.35228 0.180843
0.0601076 -0.352357 0.277886
-0.126514 -0.390091 0.0430657
-0.126442 -0.372127 0.0986976
-0.0800923 -0.325969 0.265731
0.081208 -0.349226 0.277914
0.0984027 -0.352117 0.277936
-0.126376 -0.352308 0.149431
0.1203 -0.352362 0.277965
-0.126553 -0.392015 0.0131859
-0.126465 -0.370625 0.0807319
-0.126306 -0.331828 0.203251
-0.135869 -0.3219 0.229591
0.0076797 -0.334081 0.266049
-0.135836 -0.310129 0.257016
-0.0616348 -0.319535 0.265755
0.0278513 -0.334083 0.266077
-0.12658 -0.390733 -0.00756884
-0.126501 -0.372022 0.0527078
-0.126419 -0.352337 0.11612
-0.126335 -0.332245 0.180843
-0.114662 -0.308526 0.263291
-0.0390165 -0.320012 0.265784
0.0485889 -0.330817 0.265896
0.0694241 -0.334087 0.266134
-0.126608 -0.389408 -0.0290315
-0.126527 -0.370457 0.0332674
-0.135853 -0.304986 0.243491
-0.0859696 -0.30687 0.263328
-0.0197647 -0.31663 0.265808
0.0908504 -0.334089 0.266164
-0.126637 -0.392099 -0.0512388
-0.126465 -0.352368 0.0807319
-0.126376 -0.331685 0.149431
-0.126566 -0.371907 0.00289476
-0.126306 -0.312213 0.203251
-0.125204 -0.294488 0.263276
0.108494 -0.330038 0.265971
-0.126666 -0.390751 -0.0742301
-0.126489 -0.350529 0.0621971
-0.126408 -0.332121 0.124635
-0.0638775 -0.30082 0.263357
-0.126682 -0.390059 -0.0860327
-0.126594 -0.370275 -0.0182093
-0.126514 -0.352401 0.0430657
-0.126335 -0.312211 0.180843
-0.11368 -0.290591 0.261508
-0.00242436 -0.306973 0.263436
-0.135601 -0.391563 -0.11034
0.0175782 -0.306696 0.263462
0.0439163 -0.311347 0.261101
-0.126637 -0.371783 -0.0512388
-0.12654 -0.350503 0.0233089
-0.126453 -0.331526 0.0897843
-0.126365 -0.312208 0.157456
-0.0374579 -0.295198 0.263391
-0.136335 -0.389629 -0.133843
-0.126566 -0.352436 0.00289476
-0.0845623 -0.285722 0.260936
0.0630089 -0.306745 0.263521
0.0800349 -0.309249 0.263543
0.101713 -0.312437 0.26357
-0.138758 -0.390388 -0.153231
-0.126666 -0.370077 -0.0742301
-0.126489 -0.331983 0.0621971
-0.126397 -0.312206 0.133024
-0.135861 -0.281889 0.236589
-0.135629 -0.27447 0.263262
-0.138776 -0.389763 -0.166766
-0.126682 -0.369201 -0.0860327
-0.126594 -0.350474 -0.0182093
-0.126315 -0.291361 0.195886
0.0055294 -0.291701 0.263446
-0.135601 -0.370398 -0.11034
-0.126622 -0.352473 -0.0400395
-0.126527 -0.332462 0.0332674
-0.12643 -0.312204 0.107475
-0.126335 -0.292176 0.180843
-0.113344 -0.272158 0.260899
-0.0549018 -0.280467 0.260974
-0.0243217 -0.284815 0.261013
0.029771 -0.291851 0.263478
-0.138813 -0.388476 -0.194637
-0.136335 -0.372408 -0.133843
0.0504193 -0.291418 0.263505
-0.138851 -0.391719 -0.22363
-0.126651 -0.350444 -0.0626338
-0.126553 -0.330219 0.0131859
-0.126465 -0.312202 0.0807319
-0.126365 -0.291736 0.157456
-0.06613 -0.272497 0.26096
0.067679 -0.290596 0.262968
-0.13887 -0.391076 -0.238569
-0.138776 -0.372147 -0.166766
-0.138758 -0.368579 -0.153231
-0.12658 -0.331828 -0.00756884
0.0931463 -0.290598 0.263367
0.106103 -0.292326 0.263575
-0.126697 -0.351472 -0.0980476
-0.126501 -0.312199 0.0527078
-0.126397 -0.291276 0.133024
-0.00472295 -0.274454 0.261038
-0.137738 -0.39089 -0.273194
-0.138813 -0.370512 -0.194637
-0.136322 -0.351873 -0.120969
-0.126622 -0.332332 -0.0400395
-0.126315 -0.271608 0.195886
-0.135869 -0.261643 0.229591
-0.138831 -0.36967 -0.208989
-0.12654 -0.312196 0.0233089
-0.12643 -0.290796 0.107475
-0.126335 -0.272141 0.180843
-0.135836 -0.251498 0.257016
-0.0549018 -0.261235 0.260974
0.0233685 -0.2716 0.261074
-0.138758 -0.351131 -0.153231
-0.126651 -0.32995 -0.0626338
-0.126453 -0.291671 0.0897843
-0.113344 -0.250385 0.260899
0.0356479 -0.269874 0.26109
-0.138891 -0.371717 -0.253816
-0.138776 -0.350126 -0.166766
-0.126682 -0.331655 -0.0860327
-0.12658 -0.312194 -0.00756884
-0.126365 -0.271263 0.157456
0.06488 -0.270298 0.261128
-0.137738 -0.371937 -0.273194
-0.135601 -0.3323 -0.11034
-0.126489 -0.29118 0.0621971
-0.126386 -0.271811 0.141288
-0.06613 -0.250187 0.26096
-0.0243217 -0.25552 0.261013
0.0906034 -0.270179 0.26116
0.11051 -0.272131 0.263581
-0.138831 -0.351527 -0.208989
-0.138813 -0.348057 -0.194637
-0.126622 -0.312191 -0.0400395
-0.126514 -0.292097 0.0430657
-0.126408 -0.272374 0.124635
-0.00472295 -0.254733 0.261038
-0.137404 -0.331616 -0.143867
-0.126315 -0.251855 0.195886
-0.135861 -0.240944 0.236589
-0.135629 -0.234603 0.263262
-0.13887 -0.349423 -0.238569
-0.126666 -0.312188 -0.0742301
-0.126553 -0.291597 0.0131859
-0.126442 -0.271455 0.0986976
-0.126335 -0.252106 0.180843
-0.0549018 -0.242003 0.260974
0.0233685 -0.251605 0.261074
-0.138794 -0.331313 -0.180565
-0.126682 -0.310796 -0.0860327
-0.126465 -0.272035 0.0807319
-0.113344 -0.231723 0.260899
0.0356479 -0.249759 0.26109
0.0733848 -0.254327 0.261138
-0.138911 -0.347232 -0.26938
-0.135601 -0.311134 -0.11034
-0.126594 -0.291072 -0.0182093
-0.126365 -0.25079 0.157456
0.0862724 -0.252453 0.261155
-0.138851 -0.332159 -0.22363
-0.136335 -0.312134 -0.133843
-0.126622 -0.292049 -0.0400395
-0.126501 -0.271071 0.0527078
-0.126386 -0.251035 0.141288
-0.06613 -0.231064 0.26096
-0.0243217 -0.23599 0.261013
0.106103 -0.250812 0.263575
-0.13887 -0.33091 -0.238569
-0.138758 -0.311874 -0.153231
-0.126527 -0.271669 0.0332674
-0.126408 -0.251287 0.124635
-0.138776 -0.310489 -0.166766
-0.126666 -0.291513 -0.0742301
-0.126553 -0.272286 0.0131859
-0.126315 -0.232101 0.195886
-0.135861 -0.222047 0.236589
-0.138813 -0.312128 -0.194637
-0.126682 -0.289937 -0.0860327
-0.126453 -0.251815 0.0897843
-0.126335 -0.232071 0.180843
-0.0358997 -0.224917 0.260999
0.00322431 -0.229335 0.261049
0.0233685 -0.23161 0.261074
-0.138831 -0.310704 -0.208989
-0.136322 -0.292161 -0.120969
-0.126594 -0.271271 -0.0182093
-0.126477 -0.252091 0.0715372
-0.135836 -0.211382 0.257016
0.0356479 -0.229644 0.26109
-0.13887 -0.312398 -0.238569
-0.126622 -0.271908 -0.0400395
-0.126501 -0.252376 0.0527078
-0.126376 -0.232008 0.149431
-0.113344 -0.209951 0.260899
0.06488 -0.229498 0.261128
0.0862724 -0.231844 0.261155
-0.138758 -0.290065 -0.153231
-0.126397 -0.231975 0.133024
-0.06613 -0.211942 0.26096
-0.0243217 -0.216459 0.261013
0.106103 -0.230055 0.263575
-0.138794 -0.291289 -0.180565
-0.126666 -0.270838 -0.0742301
-0.12654 -0.250906 0.0233089
-0.135853 -0.204888 0.243491
-0.126697 -0.271496 -0.0980476
-0.126566 -0.251184 0.00289476
-0.126442 -0.231905 0.0986976
-0.126315 -0.212348 0.195886
-0.138851 -0.290926 -0.22363
-0.136322 -0.270835 -0.120969
-0.126594 -0.25147 -0.0182093
-0.126465 -0.231869 0.0807319
-0.126335 -0.212036 0.180843
-0.135629 -0.194736 0.263262
0.00322431 -0.209537 0.261049
0.0233685 -0.211615 0.261074
-0.138891 -0.29223 -0.253816
-0.137404 -0.270928 -0.143867
-0.126622 -0.251767 -0.0400395
-0.126489 -0.231832 0.0621971
-0.0549018 -0.200334 0.260974
0.0356479 -0.20953 0.26109
0.06488 -0.212498 0.261128
-0.138776 -0.270852 -0.166766
-0.126651 -0.252074 -0.0626338
-0.126514 -0.231793 0.0430657
-0.126376 -0.211385 0.149431
-0.113344 -0.191288 0.260899
-0.0772312 -0.194897 0.260946
0.0862724 -0.211236 0.261155
-0.138813 -0.271709 -0.194637
-0.126682 -0.252391 -0.0860327
-0.12654 -0.231753 0.0233089
-0.126397 -0.211044 0.133024
-0.0243217 -0.196929 0.261013
0.106103 -0.209298 0.263575
-0.138831 -0.269882 -0.208989
-0.135601 -0.25187 -0.11034
-0.126566 -0.231712 0.00289476
-0.12643 -0.212299 0.107475
-0.13887 -0.270745 -0.238569
-0.136335 -0.25186 -0.133843
-0.126594 -0.231669 -0.0182093
-0.126453 -0.211959 0.0897843
-0.126306 -0.191251 0.203251
0.0152631 -0.194182 0.261064
-0.138758 -0.250808 -0.153231
-0.126622 -0.231625 -0.0400395
-0.126477 -0.21161 0.0715373
-0.126335 -0.192001 0.180843
-0.135869 -0.182357 0.229591
0.00322431 -0.189738 0.261049
0.0564438 -0.19471 0.261117
-0.138794 -0.251264 -0.180565
-0.126651 -0.23158 -0.0626338
-0.126501 -0.211248 0.0527078
-0.0549018 -0.181102 0.260974
-0.016528 -0.184625 0.261023
0.0356479 -0.189415 0.26109
-0.138831 -0.251739 -0.208989
-0.126682 -0.231533 -0.0860327
-0.126527 -0.210876 0.0332674
-0.126386 -0.192172 0.141288
-0.135836 -0.171266 0.257016
0.0862724 -0.190628 0.261155
0.106103 -0.192001 0.263575
-0.13887 -0.252232 -0.238569
-0.136322 -0.232449 -0.120969
-0.126566 -0.21224 0.00289476
-0.126408 -0.191541 0.124635
-0.113344 -0.169516 0.260899
-0.137404 -0.231914 -0.143867
-0.126594 -0.211869 -0.0182093
-0.126442 -0.192356 0.0986976
-0.06613 -0.17051 0.26096
-0.138776 -0.231215 -0.166766
-0.126622 -0.211484 -0.0400395
-0.126465 -0.191703 0.0807319
-0.126306 -0.171635 0.203251
0.0152631 -0.174266 0.261064
-0.138813 -0.231289 -0.194637
-0.126651 -0.211086 -0.0626338
-0.126489 -0.191029 0.0621971
-0.126335 -0.171966 0.180843
-0.135861 -0.162204 0.236589
0.00322431 -0.169939 0.261049
0.0564438 -0.174393 0.261117
-0.138851 -0.231366 -0.22363
-0.126682 -0.210674 -0.0860327
-0.126527 -0.191878 0.0332674
-0.126365 -0.172312 0.157456
-0.135629 -0.154868 0.263262
-0.0549018 -0.16187 0.260974
-0.0243217 -0.164379 0.261013
0.0356479 -0.1693 0.26109
-0.138891 -0.231446 -0.253816
-0.136322 -0.211124 -0.120969
-0.126553 -0.19118 0.0131859
-0.126386 -0.171396 0.141288
0.0862724 -0.170019 0.261155
0.106103 -0.171244 0.263575
-0.138758 -0.211551 -0.153231
-0.126594 -0.192068 -0.0182093
-0.126419 -0.171742 0.11612
-0.113344 -0.150853 0.260899
-0.138794 -0.21124 -0.180565
-0.126622 -0.191343 -0.0400395
-0.126453 -0.172104 0.0897843
-0.06613 -0.151387 0.26096
-0.138831 -0.210916 -0.208989
-0.126666 -0.192275 -0.0742301
-0.126489 -0.172483 0.0621971
-0.126306 -0.15202 0.203251
0.0152631 -0.15435 0.261064
-0.13887 -0.210579 -0.238569
-0.126697 -0.191521 -0.0980476
-0.126514 -0.171489 0.0430657
-0.126335 -0.151931 0.180843
0.00322431 -0.15014 0.261049
-0.136335 -0.191586 -0.133843
-0.126553 -0.171868 0.0131859
-0.126365 -0.151839 0.157456
-0.135869 -0.141129 0.229591
-0.0243217 -0.144849 0.261013
0.0356479 -0.149185 0.26109
0.06488 -0.151299 0.261128
-0.138776 -0.191578 -0.166766
-0.138758 -0.189742 -0.153231
-0.126594 -0.172267 -0.0182093
-0.126397 -0.151743 0.133024
-0.0549018 -0.139432 0.260974
0.0862724 -0.149411 0.261155
0.106102 -0.150487 0.263575
-0.138813 -0.19087 -0.194637
-0.126622 -0.171201 -0.0400395
-0.12643 -0.151642 0.107475
-0.135836 -0.131149 0.257016
-0.113344 -0.132191 0.260899
-0.0772312 -0.134685 0.260946
-0.13887 -0.192067 -0.238569
-0.138851 -0.190133 -0.22363
-0.126666 -0.1716 -0.0742301
-0.126465 -0.151536 0.0807319
-0.135601 -0.171441 -0.11034
-0.126682 -0.168956 -0.0860327
-0.126501 -0.151426 0.0527078
-0.126306 -0.132404 0.203251
0.0152631 -0.134434 0.261064
-0.138758 -0.172294 -0.153231
-0.136335 -0.170059 -0.133843
-0.12654 -0.15131 0.0233089
-0.126335 -0.131896 0.180843
0.00322431 -0.130342 0.261049
0.0356479 -0.132423 0.26109
0.0733848 -0.134845 0.261138
-0.138794 -0.171215 -0.180565
-0.126594 -0.152466 -0.0182093
-0.126566 -0.149931 0.00289476
-0.126376 -0.13233 0.149431
-0.135869 -0.1221 0.229591
-0.0358997 -0.124594 0.260999
0.0862724 -0.132237 0.261155
-0.138851 -0.171807 -0.22363
-0.126637 -0.15237 -0.0512388
-0.126408 -0.131794 0.124635
0.106102 -0.12973 0.263575
-0.138891 -0.170662 -0.253816
-0.126682 -0.152269 -0.0860327
-0.126666 -0.150925 -0.0742301
-0.126453 -0.132248 0.0897843
-0.136322 -0.151412 -0.120969
-0.126489 -0.13168 0.0621971
-0.135836 -0.109548 0.257016
-0.113344 -0.110418 0.260899
-0.0243217 -0.115554 0.261013
-0.138776 -0.151942 -0.166766
-0.138758 -0.150485 -0.153231
-0.12654 -0.132157 0.0233089
-0.126514 -0.13003 0.0430657
-0.06613 -0.109955 0.26096
0.0152631 -0.114518 0.261064
-0.138831 -0.15195 -0.208989
-0.138813 -0.15045 -0.194637
-0.12658 -0.131553 -0.00756884
-0.126335 -0.111862 0.180843
-0.126306 -0.10952 0.203251
-0.135853 -0.10479 0.243491
0.00322431 -0.110543 0.261049
0.0356479 -0.112308 0.26109
0.0733848 -0.114362 0.261138
-0.138891 -0.15196 -0.253816
-0.126637 -0.132054 -0.0512388
-0.126608 -0.129803 -0.0290315
-0.126376 -0.111707 0.149431
0.0862724 -0.111629 0.261155
0.106102 -0.112433 0.263575
-0.126682 -0.13141 -0.0860327
-0.126666 -0.13025 -0.0742301
-0.12643 -0.112393 0.107475
-0.126397 -0.109883 0.133024
-0.0549018 -0.100968 0.260974
-0.137404 -0.132213 -0.143867
-0.136322 -0.130086 -0.120969
-0.126477 -0.112245 0.0715373
-0.126453 -0.110509 0.0897843
-0.138813 -0.132486 -0.194637
-0.138776 -0.129921 -0.166766
-0.126527 -0.112087 0.0332674
-0.126501 -0.110298 0.0527078
-0.135836 -0.091033 0.257016
-0.113344 -0.0917562 0.260899
-0.0243217 -0.0960234 0.261013
-0.13887 -0.131901 -0.238569
-0.138851 -0.130573 -0.22363
-0.12658 -0.111918 -0.00756884
-0.126553 -0.110073 0.0131859
-0.06613 -0.0908322 0.26096
0.0152631 -0.0946015 0.261064
-0.126637 -0.111738 -0.0512388
-0.126608 -0.109833 -0.0290315
-0.126345 -0.0924859 0.173159
-0.126325 -0.0911767 0.188418
0.00322431 -0.0907442 0.261049
0.0356479 -0.092193 0.26109
-0.135601 -0.112178 -0.11034
-0.126682 -0.110552 -0.0860327
-0.126666 -0.109576 -0.0742301
-0.126397 -0.092441 0.133024
-0.126376 -0.0910844 0.149431
0.06488 -0.0900992 0.261128
0.0862724 -0.0910204 0.261155
0.106102 -0.0916761 0.263576
-0.138776 -0.112305 -0.166766
-0.138758 -0.111228 -0.153231
-0.136335 -0.109785 -0.133843
-0.126453 -0.0923926 0.0897843
-0.138289 -0.0820996 0.212902
-0.135861 -0.0803147 0.236589
-0.0946099 -0.0797096 0.265713
-0.0541538 -0.0813858 0.265765
-0.138851 -0.112247 -0.22363
-0.138813 -0.110031 -0.194637
-0.126514 -0.0923403 0.0430657
-0.126477 -0.090164 0.0715373
-0.138891 -0.109879 -0.253816
-0.12658 -0.0922836 -0.00756884
-0.126553 -0.090762 0.0131859
-0.138423 -0.0833276 0.108326
-0.0236458 -0.0761675 0.265805
-0.126651 -0.092222 -0.0626338
-0.126622 -0.090636 -0.0400395
-0.135836 -0.069432 0.257016
-0.115982 -0.0695506 0.265686
-0.065355 -0.0714015 0.265751
0.0158483 -0.0743702 0.265856
-0.136322 -0.0917002 -0.120969
-0.126697 -0.0904987 -0.0980476
-0.138337 -0.0717608 0.175042
0.00383681 -0.0706453 0.26584
0.0361876 -0.0717754 0.265882
-0.138813 -0.0920666 -0.194637
-0.138776 -0.0902841 -0.166766
-0.138758 -0.0894185 -0.153231
-0.1384 -0.0715741 0.125773
0.0653558 -0.0694086 0.265919
0.0867023 -0.0701197 0.265947
0.112904 -0.0709925 0.265979
-0.138891 -0.0911758 -0.253816
-0.138851 -0.0893395 -0.22363
-0.13866 -0.0804294 -0.0771718
-0.138545 -0.0749897 0.0122418
-0.138469 -0.0713695 0.071748
-0.138446 -0.0702392 0.0903268
-0.138358 -0.0660547 0.159108
-0.13828 -0.0623408 0.220155
-0.0946099 -0.0609544 0.265713
-0.0541538 -0.0622362 0.265765
-0.138629 -0.0749457 -0.053624
-0.138519 -0.0699612 0.0327368
-0.1386 -0.0696539 -0.0309002
-0.138494 -0.0650971 0.0525614
-0.138308 -0.0571519 0.198084
-0.135853 -0.0547411 0.243491
-0.0236458 -0.0567205 0.265805
-0.138758 -0.071971 -0.153231
-0.136335 -0.0710374 -0.133843
-0.138691 -0.0693126 -0.10159
-0.138572 -0.0645441 -0.00895834
-0.138328 -0.0546711 0.182835
-0.135836 -0.0509168 0.257016
-0.115982 -0.0510038 0.265686
-0.065355 -0.0523611 0.265751
0.0158483 -0.0545382 0.265856
-0.138891 -0.0724731 -0.253816
-0.138851 -0.0710134 -0.22363
-0.138813 -0.0696113 -0.194637
-0.138776 -0.0682636 -0.166766
-0.138423 -0.0549607 0.108326
0.00383681 -0.0509303 0.26584
0.0361876 -0.0517451 0.265882
0.0653558 -0.0524797 0.265919
-0.13866 -0.0598065 -0.0771718
-0.138507 -0.0543823 0.0427309
-0.138446 -0.0522291 0.0903268
-0.1384 -0.0506256 0.125773
0.0867023 -0.0495968 0.265947
0.112904 -0.0502142 0.265979
-0.138629 -0.0546901 -0.053624
-0.138532 -0.0514807 0.0225751
-0.138469 -0.0494096 0.071748
-0.138358 -0.0457302 0.159108
-0.0946099 -0.0421992 0.265713
-0.1386 -0.0497528 -0.0309002
-0.138289 -0.0402449 0.212902
-0.0541538 -0.039895 0.265765
-0.138831 -0.0521621 -0.208989
-0.138813 -0.0516471 -0.194637
-0.138776 -0.0506472 -0.166766
-0.138758 -0.0501616 -0.153231
-0.136335 -0.0495109 -0.133843
-0.138691 -0.0483088 -0.10159
-0.138572 -0.0449853 -0.00895834
-0.0236458 -0.0372735 0.265805
-0.138891 -0.0490947 -0.253816
-0.138328 -0.0347907 0.182835
-0.135836 -0.0324016 0.257016
-0.115982 -0.032457 0.265686
-0.00409234 -0.0343659 0.26583
0.0158483 -0.0347061 0.265856
-0.13866 -0.0391836 -0.0771718
-0.138434 -0.0339503 0.0993974
-0.135861 -0.0299212 0.236589
-0.065355 -0.0301473 0.265751
0.0361876 -0.0317147 0.265882
0.0653558 -0.032165 0.265919
0.0867023 -0.0324945 0.265947
-0.138629 -0.0344345 -0.053624
-0.138532 -0.0324138 0.0225751
-0.138469 -0.0311098 0.071748
-0.1384 -0.0296771 0.125773
0.112904 -0.0294359 0.265979
-0.136335 -0.0322897 -0.133843
-0.138691 -0.0315057 -0.10159
-0.1386 -0.0298517 -0.0309002
-0.138358 -0.0254057 0.159108
-0.138308 -0.0244937 0.198084
-0.0236458 -0.0243088 0.265805
-0.138891 -0.0303919 -0.253816
-0.138851 -0.0297798 -0.22363
-0.138813 -0.0291918 -0.194637
-0.138776 -0.0286267 -0.166766
-0.138758 -0.0283522 -0.153231
-0.138507 -0.0243783 0.0427309
-0.137096 -0.0206956 0.224945
-0.0946099 -0.0203181 0.265713
-0.0541538 -0.0207454 0.265765
-0.13866 -0.0185606 -0.0771718
-0.138559 -0.0174529 0.00173199
-0.138328 -0.0149103 0.182835
-0.00409234 -0.0147282 0.26583
0.0158483 -0.014874 0.265856
-0.138629 -0.0141789 -0.053624
-0.1384 -0.01222 0.125773
-0.135861 -0.0110236 0.236589
-0.135836 -0.0108005 0.257016
-0.113344 -0.0108863 0.260899
-0.06613 -0.0111548 0.26096
0.0356479 -0.0117337 0.26109
0.06488 -0.0118999 0.261128
0.0862724 -0.0120216 0.261155
0.106102 -0.0121082 0.263576
-0.138891 -0.0116892 -0.253816
-0.138851 -0.0114538 -0.22363
-0.138813 -0.0112276 -0.194637
-0.138776 -0.0110103 -0.166766
-0.138758 -0.0109047 -0.153231
-0.136335 -0.0107632 -0.133843
-0.138691 -0.0105019 -0.10159
-0.1386 -0.00995056 -0.0309002
-0.138532 -0.00953347 0.0225751
-0.138469 -0.00914994 0.071748
-0.138446 -0.00900503 0.0903268
-0.138423 -0.00531879 0.108326
-0.138358 -0.00508114 0.159108
-0.138308 -0.00489874 0.198084
-0.0358997 -0.00485433 0.260999
-0.0243217 -0.00488255 0.261013
-0.13866 -0.00206231 -0.0771718
-0.137096 -0.00159198 0.224945
-0.138629 0.00607666 -0.053624
-0.138572 0.00586763 -0.00895834
-0.138545 0.00576842 0.0122418
-0.138507 0.00562574 0.0427309
-0.138434 0.00536055 0.0993974
-0.138379 0.00515794 0.142693
-0.138358 0.00508112 0.159108
0.0564438 0.00507938 0.261117
-0.138891 0.0116892 -0.253816
-0.138851 0.0114538 -0.22363
-0.138813 0.0112276 -0.194637
-0.138776 0.0110103 -0.166766
-0.138758 0.0109047 -0.153231
-0.136335 0.0107632 -0.133843
-0.138691 0.0105019 -0.10159
-0.1386 0.00995056 -0.0309002
-0.138469 0.00914994 0.071748
-0.138337 0.00834428 0.175042
-0.135861 0.007874 0.236589
-0.135836 0.00771467 0.257016
-0.113344 0.00777595 0.260899
-0.06613 0.00796774 0.26096
0.00322431 0.00824948 0.261049
0.0233685 0.0083313 0.261074
0.0356479 0.00838119 0.26109
0.0862724 0.00858683 0.261155
0.106102 0.00864869 0.263576
-0.13866 0.0185606 -0.0771718
-0.138289 0.0177078 0.212902
-0.0549018 0.0176294 0.260974
-0.138891 0.0303919 -0.253816
-0.138851 0.0297798 -0.22363
-0.138813 0.0291918 -0.194637
-0.138776 0.0286267 -0.166766
-0.138758 0.0283522 -0.153231
-0.136335 0.0279844 -0.133843
-0.138629 0.0263323 -0.053624
-0.138572 0.0254265 -0.00895834
-0.138691 0.0315058 -0.10159
-0.1386 0.0298517 -0.0309002
-0.138532 0.0286004 0.0225751
-0.138379 0.0257898 0.142693
-0.138358 0.0254057 0.159108
-0.0243217 0.0244127 0.261013
0.0564438 0.025397 0.261117
-0.138469 0.0311098 0.071748
-0.138446 0.0306171 0.0903268
-0.138337 0.0283705 0.175042
0.00322431 0.0280482 0.261049
0.0233685 0.0283264 0.261074
0.0356479 0.028496 0.26109
0.0862724 0.0291952 0.261155
0.106102 0.0294055 0.263576
-0.13866 0.0391836 -0.0771718
-0.138507 0.0356298 0.0427309
-0.138423 0.0336856 0.108326
-0.135861 0.0299212 0.236589
-0.135836 0.0293157 0.257016
-0.113344 0.0295486 0.260899
-0.06613 0.0302774 0.26096
-0.138891 0.0490946 -0.253816
-0.138851 0.0481058 -0.22363
-0.138813 0.0516471 -0.194637
-0.138776 0.0506472 -0.166766
-0.138758 0.0501616 -0.153231
-0.136335 0.0495109 -0.133843
-0.138691 0.0483088 -0.10159
-0.138615 0.0501919 -0.0421618
-0.138586 0.0493212 -0.0198342
-0.138532 0.0476673 0.0225751
-0.138289 0.0402449 0.212902
-0.0549018 0.0400667 0.260974
-0.138644 0.0551815 -0.0652921
-0.138469 0.0494096 0.071748
-0.138446 0.0486271 0.0903268
-0.138358 0.0457302 0.159108
-0.0243217 0.0439429 0.261013
0.0564438 0.0457146 0.261117
-0.138891 0.0677974 -0.253816
-0.138559 0.056237 0.00173199
-0.1384 0.0506256 0.125773
-0.138337 0.0483968 0.175042
-0.135853 0.0453569 0.243491
0.00322431 0.047847 0.261049
0.0233685 0.0483216 0.261074
0.0356479 0.0486109 0.26109
0.0862724 0.0498036 0.261155
0.106102 0.0501624 0.263576
-0.138851 0.0710134 -0.22363
-0.138813 0.0696113 -0.194637
-0.138776 0.0682636 -0.166766
-0.138758 0.0676091 -0.153231
-0.138423 0.0549607 0.108326
-0.135836 0.0478309 0.257016
-0.113344 0.0482109 0.260899
-0.06613 0.0494 0.26096
-0.136335 0.0710374 -0.133843
-0.138691 0.0693126 -0.10159
-0.138615 0.0702687 -0.0421618
-0.138586 0.0690497 -0.0198342
-0.138507 0.0656338 0.0427309
-0.138644 0.0756192 -0.0652921
-0.138532 0.0705477 0.0225751
-0.138469 0.0677095 0.071748
-0.138423 0.0655983 0.108326
-0.138289 0.0595624 0.212902
-0.0549018 0.0592988 0.260974
-0.138891 0.0911758 -0.253816
-0.138851 0.0893394 -0.22363
-0.138813 0.0875755 -0.194637
-0.138559 0.0756291 0.00173211
-0.138446 0.0702392 0.0903268
-0.1384 0.0680827 0.125773
-0.0243217 0.0634731 0.261013
0.11051 0.0675994 0.263581
-0.138776 0.0902841 -0.166766
-0.138758 0.0894185 -0.153231
-0.136335 0.0882586 -0.133843
-0.138337 0.0684231 0.175042
0.00322431 0.0676457 0.261049
0.0233685 0.0683167 0.261074
0.0356479 0.0687257 0.26109
0.06488 0.0696994 0.261128
0.0862724 0.070412 0.261155
-0.138691 0.0903164 -0.10159
-0.138358 0.0728295 0.159108
-0.135861 0.0677163 0.236589
-0.06613 0.0685225 0.26096
-0.138615 0.0903455 -0.0421618
-0.138586 0.0887782 -0.0198342
-0.135836 0.069432 0.257016
-0.113344 0.0699835 0.260899
-0.138891 0.109879 -0.253816
-0.138851 0.107665 -0.22363
-0.138644 0.0960568 -0.0652921
-0.138532 0.0896146 0.0225751
-0.138813 0.110031 -0.194637
-0.138776 0.107901 -0.166766
-0.138559 0.0950211 0.00173211
-0.138469 0.0896694 0.071748
-0.138446 0.0882492 0.0903268
-0.138289 0.07888 0.212902
-0.0549018 0.0785308 0.260974
-0.138758 0.111228 -0.153231
-0.136335 0.109785 -0.133843
-0.138507 0.0956378 0.0427309
-0.1384 0.0890313 0.125773
-0.0243217 0.0830033 0.261013
0.0862724 0.0875857 0.261155
0.106102 0.0882166 0.263576
-0.138691 0.11132 -0.10159
-0.138423 0.0939651 0.108326
-0.138337 0.0884493 0.175042
0.0072214 0.0876165 0.261054
0.0356479 0.0888405 0.26109
0.06488 0.0900992 0.261128
-0.138891 0.128581 -0.253816
-0.138615 0.110422 -0.0421618
-0.138586 0.108507 -0.0198342
-0.138358 0.0931541 0.159108
-0.06613 0.0876451 0.26096
-0.138851 0.130573 -0.22363
-0.138813 0.127995 -0.194637
-0.13866 0.117551 -0.0771718
-0.138532 0.108682 0.0225751
-0.135861 0.0897635 0.236589
-0.135836 0.0879471 0.257016
-0.113344 0.0886458 0.260899
-0.138776 0.129921 -0.166766
-0.138758 0.128675 -0.153231
-0.138469 0.107969 0.071748
-0.138434 0.105424 0.0993974
-0.136335 0.131312 -0.133843
-0.138691 0.128123 -0.10159
-0.138289 0.0981975 0.212902
-0.0511304 0.0979498 0.260979
-0.1384 0.10998 0.125773
-0.0243217 0.102533 0.261013
0.0862724 0.108194 0.261155
0.106102 0.108973 0.263576
-0.138891 0.15196 -0.253816
-0.138851 0.148899 -0.22363
-0.138615 0.130499 -0.0421618
-0.138586 0.128235 -0.0198342
-0.138559 0.126048 0.00173211
-0.138337 0.108476 0.175042
0.0233685 0.108307 0.261074
0.0356479 0.108955 0.26109
0.06488 0.110499 0.261128
-0.138813 0.15045 -0.194637
-0.138776 0.147537 -0.166766
-0.13866 0.138174 -0.0771718
-0.138532 0.127748 0.0225751
-0.138507 0.125642 0.0427309
-0.138358 0.113479 0.159108
0.00322431 0.110543 0.261049
-0.138758 0.150485 -0.153231
-0.136335 0.148533 -0.133843
-0.135861 0.108661 0.236589
-0.109793 0.107507 0.260904
-0.06613 0.109955 0.26096
-0.138691 0.149127 -0.10159
-0.138469 0.129929 0.071748
-0.138446 0.127871 0.0903268
-0.138423 0.125878 0.108326
-0.135836 0.109548 0.257016
-0.0320553 0.115107 0.261003
-0.138891 0.170662 -0.253816
-0.138379 0.12551 0.142693
-0.138289 0.117515 0.212902
-0.0918386 0.114804 0.260927
-0.138851 0.171807 -0.22363
-0.138813 0.168415 -0.194637
-0.138615 0.150576 -0.0421618
-0.138586 0.147964 -0.0198342
-0.138559 0.145441 0.00173211
-0.0549018 0.1202 0.260974
0.0862724 0.128802 0.261155
0.106102 0.12973 0.263576
-0.138776 0.169558 -0.166766
-0.138758 0.167932 -0.153231
-0.13866 0.158797 -0.0771718
-0.138337 0.128502 0.175042
0.0193077 0.128048 0.261069
0.0397739 0.129328 0.261095
0.06488 0.130899 0.261128
-0.136335 0.170059 -0.133843
-0.138532 0.150629 0.0225751
-0.138358 0.133803 0.159108
-0.00472295 0.129832 0.261038
-0.138891 0.189365 -0.253816
-0.138691 0.170131 -0.10159
-0.138469 0.148229 0.0717481
-0.135861 0.127559 0.236589
-0.0698445 0.128833 0.260955
-0.138851 0.190133 -0.22363
-0.138507 0.155646 0.0427309
-0.138446 0.149483 0.0903268
-0.138308 0.135532 0.198084
-0.135836 0.128063 0.257016
-0.113344 0.129081 0.260899
-0.138813 0.19087 -0.194637
-0.138615 0.170653 -0.0421618
-0.138586 0.167692 -0.0198342
-0.1384 0.148385 0.125773
0.0733848 0.145086 0.261138
-0.138776 0.191579 -0.166766
-0.138758 0.189742 -0.153231
-0.13866 0.179419 -0.0771718
-0.138423 0.154245 0.108326
-0.137096 0.138501 0.224945
-0.0549018 0.139432 0.260974
0.0862724 0.149411 0.261155
0.106102 0.150487 0.263576
-0.138891 0.208068 -0.253816
-0.136335 0.191586 -0.133843
-0.138559 0.172589 0.00173211
-0.138532 0.169696 0.0225751
-0.138337 0.148528 0.175042
-0.0243217 0.144849 0.261013
0.0152631 0.147711 0.261064
0.0356479 0.149185 0.26109
-0.138851 0.208459 -0.22363
-0.138691 0.191135 -0.10159
-0.138358 0.154128 0.159108
-0.00472295 0.149553 0.261038
-0.138813 0.208834 -0.194637
-0.138469 0.170189 0.0717481
-0.135853 0.145455 0.243491
-0.0735448 0.14764 0.26095
-0.138776 0.209195 -0.166766
-0.138615 0.190729 -0.0421618
-0.138572 0.185809 -0.00895834
-0.138446 0.171095 0.0903268
-0.138308 0.155127 0.198084
-0.113344 0.147743 0.260899
-0.016528 0.155215 0.261023
-0.138758 0.211551 -0.153231
-0.136335 0.208807 -0.133843
-0.13866 0.200042 -0.0771718
-0.1384 0.169334 0.125773
-0.135836 0.149664 0.257016
-0.0918386 0.152548 0.260927
0.0733848 0.165569 0.261138
0.106102 0.167784 0.263576
-0.138891 0.231446 -0.253816
-0.138691 0.207938 -0.10159
-0.138532 0.188763 0.0225751
-0.138507 0.18565 0.0427309
-0.138423 0.17552 0.108326
-0.137096 0.157605 0.224945
-0.0549018 0.158664 0.260974
0.0862724 0.170019 0.261155
-0.138851 0.231366 -0.22363
-0.138337 0.168554 0.175042
0.0152631 0.167627 0.261064
0.0356479 0.1693 0.26109
-0.138813 0.231289 -0.194637
-0.138469 0.188489 0.0717481
-0.138358 0.174452 0.159108
-0.00472295 0.169274 0.261038
-0.138776 0.231215 -0.166766
-0.138758 0.228999 -0.153231
-0.138629 0.212684 -0.053624
-0.1386 0.208962 -0.0309002
-0.138572 0.205368 -0.00895834
-0.138446 0.189106 0.0903268
-0.138891 0.250149 -0.253816
-0.136335 0.230333 -0.133843
-0.13866 0.220665 -0.0771718
-0.138545 0.205741 0.0122418
-0.135861 0.168503 0.236589
-0.0845623 0.168907 0.260936
-0.138851 0.249692 -0.22363
-0.138691 0.228942 -0.10159
-0.1384 0.190282 0.125773
-0.135836 0.16818 0.257016
-0.113344 0.169516 0.260899
-0.0511304 0.175025 0.260979
0.0906034 0.187576 0.26116
0.11051 0.188932 0.263581
-0.138813 0.249254 -0.194637
-0.138519 0.209883 0.0327368
-0.138289 0.178687 0.212902
0.06488 0.188698 0.261128
-0.138776 0.248832 -0.166766
-0.138337 0.188581 0.175042
-0.0243217 0.183909 0.261013
0.0152631 0.187543 0.261064
0.0356479 0.189415 0.26109
-0.138891 0.268852 -0.253816
-0.138758 0.250808 -0.153231
-0.136335 0.247555 -0.133843
-0.138644 0.235032 -0.0652921
-0.138629 0.232939 -0.053624
-0.1386 0.228863 -0.0309002
-0.138494 0.21389 0.0525614
-0.138469 0.210448 0.0717481
-0.138434 0.205488 0.0993974
-0.138358 0.194777 0.159108
-0.138851 0.268018 -0.22363
-0.000757098 0.192659 0.261043
-0.138691 0.249946 -0.10159
-0.138572 0.23275 -0.00895834
-0.1384 0.20774 0.125773
-0.0845623 0.18785 0.260936
-0.138813 0.271709 -0.194637
-0.138629 0.245093 -0.053624
-0.138545 0.23266 0.0122418
-0.138519 0.228792 0.0327368
-0.138494 0.22505 0.0525614
-0.135861 0.190551 0.236589
-0.113344 0.188178 0.260899
-0.016528 0.197695 0.261023
0.0862724 0.207801 0.261155
0.106102 0.209298 0.263576
-0.138891 0.287554 -0.253816
-0.138776 0.270852 -0.166766
-0.138758 0.268256 -0.153231
-0.138289 0.198005 0.212902
-0.135836 0.189781 0.257016
0.06488 0.209098 0.261128
-0.136335 0.269081 -0.133843
-0.13866 0.257787 -0.0771718
-0.1386 0.248764 -0.0309002
-0.138469 0.228748 0.0717481
-0.138337 0.208607 0.175042
0.0193077 0.20787 0.261069
-0.138851 0.290926 -0.22363
-0.138559 0.246279 0.00173211
-0.138446 0.228728 0.0903268
-0.138423 0.225162 0.108326
-0.138358 0.215101 0.159108
-0.0624015 0.202765 0.260965
-0.0397294 0.205105 0.260994
0.0397739 0.213308 0.261095
-0.138813 0.289673 -0.194637
-0.138691 0.270949 -0.10159
-0.138776 0.288469 -0.166766
-0.138629 0.265348 -0.053624
-0.138532 0.249777 0.0225751
-0.138507 0.245658 0.0427309
-0.1384 0.228688 0.125773
-0.0772312 0.207573 0.260946
-0.00472295 0.21529 0.261038
-0.138891 0.310933 -0.253816
-0.138758 0.290065 -0.153231
-0.135861 0.209448 0.236589
-0.125204 0.205062 0.263276
-0.106229 0.207609 0.260909
0.0819589 0.227944 0.261149
0.101713 0.229581 0.26357
-0.138851 0.309252 -0.22363
-0.136335 0.290608 -0.133843
-0.13866 0.278409 -0.0771718
-0.1386 0.268665 -0.0309002
0.0606533 0.229034 0.261122
-0.138813 0.307637 -0.194637
-0.138691 0.287752 -0.10159
-0.138559 0.265671 0.00173211
-0.138469 0.250708 0.0717481
-0.138337 0.228633 0.175042
-0.138308 0.223709 0.198084
-0.137096 0.2181 0.224945
0.0193077 0.227826 0.261069
-0.138446 0.25034 0.0903268
-0.138358 0.235426 0.159108
0.0397739 0.233463 0.261095
-0.138891 0.329636 -0.253816
-0.138776 0.310489 -0.166766
-0.138758 0.307512 -0.153231
-0.138629 0.285604 -0.053624
-0.138532 0.268844 0.0225751
-0.138851 0.327578 -0.22363
-0.136335 0.307829 -0.133843
-0.138494 0.265968 0.0525614
-0.138423 0.253529 0.108326
-0.1384 0.249637 0.125773
-0.06613 0.227877 0.26096
-0.0243217 0.232735 0.261013
-0.00472295 0.235012 0.261038
0.11051 0.247865 0.263581
-0.13866 0.299032 -0.0771718
-0.1386 0.288566 -0.0309002
-0.135861 0.228346 0.236589
-0.0511304 0.232831 0.260979
0.0776631 0.248004 0.261144
-0.138813 0.330093 -0.194637
-0.138691 0.308756 -0.10159
-0.138559 0.285063 0.00173211
-0.138469 0.269008 0.0717481
-0.113344 0.228613 0.260899
0.0606533 0.249393 0.261122
-0.138891 0.348338 -0.253816
-0.138776 0.328106 -0.166766
-0.138446 0.26835 0.0903268
-0.138337 0.248659 0.175042
-0.138308 0.243304 0.198084
-0.135836 0.229897 0.257016
0.0193077 0.247781 0.261069
-0.138758 0.329322 -0.153231
-0.138629 0.305859 -0.053624
-0.138532 0.287911 0.0225751
-0.138358 0.25575 0.159108
-0.137096 0.240387 0.224945
-0.0243217 0.245755 0.261013
0.0397739 0.253618 0.261095
-0.138851 0.350486 -0.22363
-0.136335 0.329355 -0.133843
-0.138813 0.348057 -0.194637
-0.13866 0.319655 -0.0771718
-0.1386 0.308467 -0.0309002
-0.138423 0.274804 0.108326
-0.1384 0.270585 0.125773
-0.0586589 0.247941 0.26097
0.101713 0.267556 0.26357
-0.138691 0.32976 -0.10159
-0.138507 0.294414 0.0427309
-0.135853 0.245553 0.243491
-0.0845623 0.247836 0.260936
-0.0358997 0.254043 0.260999
0.00322431 0.259033 0.261049
0.0776631 0.268528 0.261144
-0.136519 0.377818 -0.277159
-0.138891 0.371717 -0.253816
-0.138776 0.350126 -0.166766
-0.138545 0.305727 0.0122418
-0.138469 0.290968 0.0717481
-0.125204 0.245149 0.263276
-0.109793 0.247734 0.260904
0.0606533 0.269752 0.261122
-0.138851 0.368811 -0.22363
-0.138758 0.351131 -0.153231
-0.138629 0.326115 -0.053624
-0.138572 0.314897 -0.00895834
-0.138446 0.289962 0.0903268
-0.138423 0.285441 0.108326
-0.138337 0.268686 0.175042
-0.138308 0.262899 0.198084
0.0193077 0.267737 0.261069
-0.136335 0.350882 -0.133843
-0.138519 0.308207 0.0327368
-0.137096 0.259491 0.224945
-0.0243217 0.265285 0.261013
0.0397739 0.273773 0.261095
-0.138813 0.370512 -0.194637
-0.136277 0.342299 -0.0837747
-0.1386 0.328368 -0.0309002
-0.1384 0.288042 0.125773
-0.138776 0.367743 -0.166766
-0.136309 0.352846 -0.108336
-0.138358 0.28285 0.159108
-0.0549018 0.267646 0.260974
0.0944967 0.287771 0.261721
0.106102 0.288866 0.263576
-0.138758 0.368579 -0.153231
-0.138494 0.314326 0.0525614
-0.138469 0.309268 0.0717481
-0.0772312 0.267785 0.260946
0.00322431 0.278832 0.261049
-0.136335 0.368103 -0.133843
-0.136231 0.345353 -0.0485592
-0.138572 0.334456 -0.00895834
-0.138446 0.307972 0.0903268
-0.135861 0.269291 0.236589
-0.0990607 0.267922 0.260918
0.0606533 0.29011 0.261122
-0.136309 0.365523 -0.108336
-0.136277 0.358895 -0.0837747
-0.138545 0.332647 0.0122418
-0.138338 0.288712 0.175042
-0.138289 0.278495 0.212902
-0.118189 0.267721 0.263286
0.0193077 0.287692 0.261069
-0.138519 0.330897 0.0327368
-0.138494 0.325485 0.0525614
-0.135836 0.270013 0.257016
0.0397739 0.293928 0.261095
-0.136174 0.34528 -0.00440741
-0.138423 0.313808 0.108326
-0.1384 0.308991 0.125773
-0.0204325 0.288629 0.261018
-0.136202 0.355238 -0.0261003
-0.138469 0.327568 0.0717481
-0.138358 0.303174 0.159108
0.0906034 0.308038 0.26116
0.11051 0.310264 0.263581
-0.136231 0.365549 -0.0485592
-0.138308 0.295557 0.198084
-0.0698445 0.287886 0.260955
-0.0511304 0.290638 0.260979
-0.000757098 0.298045 0.261043
0.0480753 0.305226 0.261106
-0.138446 0.329584 0.0903268
-0.135861 0.288188 0.236589
-0.136146 0.354835 0.0165583
-0.13612 0.348985 0.0368325
-0.138338 0.308738 0.175042
-0.113344 0.28771 0.260899
0.0193077 0.307648 0.261069
0.0691237 0.315135 0.261133
-0.137096 0.297698 0.224945
-0.135836 0.288528 0.257016
-0.13616 0.365572 0.00616419
-0.136082 0.347925 0.0660205
-0.138423 0.335083 0.108326
-0.1384 0.329939 0.125773
-0.0243217 0.3076 0.261013
0.11051 0.327597 0.263581
-0.138358 0.323499 0.159108
-0.0435444 0.307872 0.260989
0.0862724 0.328017 0.261155
-0.138308 0.315152 0.198084
-0.06613 0.307555 0.26096
-0.000757098 0.317805 0.261043
-0.13612 0.367849 0.0368325
-0.136095 0.365593 0.0564491
-0.136046 0.354105 0.0938327
-0.138338 0.328764 0.175042
-0.135861 0.310235 0.236589
-0.106229 0.307511 0.260909
0.0193077 0.327603 0.261069
0.0522512 0.332876 0.261111
-0.135629 0.305137 0.263262
-0.0918386 0.31296 0.260927
-0.136 0.350288 0.128938
-0.135978 0.345032 0.145701
-0.137096 0.319986 0.224945
-0.0358997 0.32524 0.260999
-0.0204325 0.327766 0.261018
0.0733848 0.343086 0.261138
0.106102 0.347677 0.263576
-0.13607 0.370714 0.075439
0.0862724 0.348625 0.261155
-0.136034 0.365613 0.102814
-0.0586589 0.327922 0.26097
-0.000757098 0.337565 0.261043
-0.135947 0.34751 0.169923
-0.135861 0.329133 0.236589
0.0193077 0.347559 0.261069
0.0522512 0.353153 0.261111
-0.136011 0.370537 0.120364
-0.135897 0.34169 0.208007
-0.113344 0.328145 0.260899
-0.0845623 0.333079 0.260936
-0.135978 0.365631 0.145701
-0.135836 0.328645 0.257016
0.107779 0.367647 0.266819
-0.135917 0.353167 0.193101
-0.0204325 0.350595 0.261018
0.0695931 0.364713 0.265921
0.0900469 0.367885 0.267143
-0.0549018 0.347779 0.260974
0.00272918 0.357701 0.261754
-0.135947 0.367656 0.169923
-0.06613 0.348987 0.26096
-0.135897 0.357884 0.208007
-0.135869 0.350443 0.229591
0.0313923 0.367709 0.266811
0.0473978 0.37184 0.272852
-0.135629 0.345004 0.263262
-0.121703 0.347549 0.263281
-0.0990606 0.352529 0.260918
-0.135918 0.372878 0.193103
-0.0241099 0.367542 0.266496
0.0665746 0.379421 0.280288
0.0920751 0.387508 0.280321
-0.0583636 0.367574 0.266497
-0.135869 0.369472 0.229591
-0.0398565 0.371943 0.27289
0.00547403 0.377884 0.280209
0.041691 0.388042 0.280255
-0.135836 0.368761 0.257016
-0.123448 0.367634 0.2665
-0.0880748 0.372083 0.273031
