ply
format ascii 1.0
comment Created by Open3D
element vertex 698
property double x
property double y
property double z
end_header
0.270989 -0.238724 -0.232827
0.0958039 -0.306374 -0.240882
0.268514 -0.308275 0.240962
0.249947 -0.312512 0.238679
0.234276 -0.31872 0.239705
0.0670233 -0.311312 -0.248041
0.278264 -0.291676 0.241301
0.0486116 -0.308967 -0.238375
0.204516 -0.313231 0.238786
0.0318947 -0.308396 -0.247346
0.269641 -0.221264 -0.232616
0.00997621 -0.310661 -0.248056
0.184561 -0.311871 0.238393
0.276016 -0.272194 0.243541
0.152587 -0.314529 0.239788
-0.0216426 -0.310283 -0.248069
-0.0385275 -0.30734 -0.246615
0.126874 -0.310987 0.238215
-0.0557067 -0.30989 -0.248079
0.267604 -0.201954 -0.232296
0.101949 -0.31307 0.238638
-0.0750371 -0.307192 -0.246478
0.0812594 -0.313434 0.238819
0.273889 -0.246518 0.239008
0.0593875 -0.313921 0.239197
-0.0997104 -0.306202 -0.241348
-0.130118 -0.311626 -0.248265
0.0365206 -0.314425 0.239582
0.0246768 -0.314689 0.23979
-0.148554 -0.307444 -0.246859
-0.173154 -0.311244 -0.248285
0.00324798 -0.310607 0.238146
0.263126 -0.181699 -0.227579
-0.207568 -0.317836 -0.249177
-0.0157557 -0.312697 0.238408
-0.185392 -0.308028 -0.247391
0.270462 -0.226858 0.239054
-0.0417251 -0.313027 0.238477
-0.0611774 -0.311145 0.237996
-0.234481 -0.30776 -0.247298
-0.0836039 -0.313715 0.238878
-0.0984128 -0.313999 0.239095
-0.255389 -0.303318 -0.238707
-0.129219 -0.31459 0.239546
0.26876 -0.206065 0.234073
-0.145232 -0.314891 0.239771
0.261798 -0.161766 -0.227362
-0.174558 -0.310219 0.238018
-0.207056 -0.31876 0.241787
-0.194408 -0.307124 0.239631
-0.261636 -0.279517 -0.231025
-0.236162 -0.31297 0.23826
0.265984 -0.185924 0.233436
-0.257842 -0.301453 0.244666
0.258731 -0.142341 -0.22483
-0.258794 -0.260718 -0.224038
-0.262749 -0.280225 0.237489
-0.253384 -0.241067 -0.220914
0.26295 -0.165722 0.233024
-0.257599 -0.25694 0.230074
0.257008 -0.122219 -0.224542
-0.249838 -0.222201 -0.214027
0.260956 -0.147487 0.228278
-0.257323 -0.238606 0.215593
-0.245204 -0.199433 -0.207266
-0.248767 -0.219995 0.216143
0.252343 -0.132923 0.223044
0.253875 -0.102348 -0.221966
-0.242124 -0.180725 -0.200356
-0.244927 -0.201914 0.209536
-0.243912 -0.184225 0.199659
-0.24012 -0.162191 -0.193324
0.255408 -0.106387 0.226847
0.250717 -0.0822115 -0.219359
-0.237701 -0.157689 0.192034
-0.235049 -0.139508 -0.18667
-0.237047 -0.144785 0.187095
0.251465 -0.0858076 0.227185
-0.229112 -0.12039 -0.183795
-0.232758 -0.12314 0.180476
0.247003 -0.0621717 -0.208226
0.244147 -0.0606786 -0.13697
0.246575 -0.0595733 -0.162586
0.247431 -0.0588035 -0.182612
-0.225679 -0.101793 -0.176989
0.24451 -0.0605825 -0.0726727
0.246465 -0.059735 -0.092996
0.247356 -0.0589324 -0.114757
0.250055 -0.0672724 0.221824
0.244305 -0.060625 -0.000573307
0.246405 -0.0599044 -0.0175529
0.24717 -0.0591642 -0.038642
0.244532 -0.0606256 0.077226
0.246195 -0.0601034 0.0646258
0.247289 -0.059128 0.0358225
0.247902 -0.0584769 0.016285
-0.0649099 -0.0779239 -0.170772
-0.0200113 -0.0739824 -0.181269
0.0191174 -0.070544 -0.190524
0.0554119 -0.0673563 -0.199057
0.0886282 -0.0644391 -0.206861
0.119087 -0.0617641 -0.214018
0.0604581 -0.0661847 -0.223892
0.0437485 -0.0675131 -0.224483
0.0082463 -0.0703354 -0.225739
-0.0108782 -0.0718568 -0.226381
-0.0305398 -0.0734196 -0.227085
-0.051222 -0.0750642 -0.227804
-0.0730605 -0.0768016 -0.228536
-0.0930851 -0.078383 -0.229584
0.244559 -0.0606483 0.161825
0.246522 -0.0598979 0.141561
0.247307 -0.0591889 0.119615
0.247908 -0.0585999 0.101254
0.282271 -0.047437 -0.186681
0.282251 -0.0466613 -0.21299
0.249368 -0.0487777 -0.227387
0.227114 -0.0504775 -0.228078
0.205533 -0.0521139 -0.229153
0.194229 -0.0529709 -0.229719
0.170442 -0.0547745 -0.230907
0.141281 -0.0570052 -0.2317
0.109707 -0.0594201 -0.232569
0.0928953 -0.060706 -0.233031
0.247824 -0.0589275 0.200769
0.248106 -0.0583511 0.18113
0.269129 -0.0485986 -0.108638
0.282356 -0.0469146 -0.133563
0.282288 -0.0463678 -0.153073
0.282214 -0.045775 -0.174224
0.0630023 -0.0601408 -0.239898
0.0426993 -0.061629 -0.240408
0.274838 -0.0481047 -0.0320658
0.282464 -0.0471298 -0.048181
0.282391 -0.0465526 -0.0697255
0.282328 -0.0460513 -0.0884379
0.0114374 -0.0609645 -0.245451
-0.0128454 -0.0626664 -0.246017
-0.0390102 -0.0645017 -0.246574
-0.0667764 -0.0664494 -0.247162
-0.0968151 -0.068558 -0.247744
0.281014 -0.0475704 0.0501774
0.282531 -0.046959 0.0304239
0.282471 -0.0464905 0.012089
0.282404 -0.0459664 -0.00842229
0.102619 -0.0519521 -0.246553
0.0829282 -0.053267 -0.247053
0.265484 -0.0489443 0.160243
0.282689 -0.0474153 0.142891
0.282605 -0.0467721 0.116433
0.282569 -0.0464918 0.104903
0.282479 -0.0458054 0.076673
0.159846 -0.0457149 -0.247876
0.142957 -0.0467862 -0.248364
0.282697 -0.0466405 0.214142
0.28261 -0.0459848 0.185721
0.24943 -0.0379234 -0.247696
0.223106 -0.0395052 -0.248557
0.193653 -0.0412779 -0.249399
0.266002 -0.0455044 0.233418
-0.0842195 -0.054857 -0.257788
0.11845 -0.0407731 -0.255366
0.051308 -0.0443844 -0.256942
0.264346 -0.0316379 -0.215637
0.264016 -0.0380162 0.245366
0.281199 -0.0323066 -0.0228892
0.281216 -0.0315008 0.0609569
0.280616 -0.0274722 -0.177983
0.280564 -0.0271253 -0.198558
0.00647259 -0.0382297 -0.261407
-0.0259358 -0.0396611 -0.261857
-0.0608969 -0.0412054 -0.26234
0.280752 -0.0274845 -0.0473447
0.280689 -0.027073 -0.0736965
0.280638 -0.0267454 -0.0946773
0.280594 -0.0264608 -0.112905
0.280546 -0.0261477 -0.132954
0.2805 -0.0258419 -0.152533
0.0988127 -0.0316095 -0.260876
0.0730249 -0.0326639 -0.261256
0.280915 -0.027499 0.106162
0.280888 -0.0273347 0.0947284
0.280768 -0.0265803 0.0422327
0.280719 -0.0262749 0.0209861
0.280672 -0.0259765 0.000222117
0.152318 -0.0270583 -0.260777
0.025196 -0.031838 -0.262774
-0.007496 -0.0330693 -0.263144
0.280948 -0.0265541 0.215814
0.280906 -0.0263033 0.196703
0.280858 -0.0260166 0.174858
0.280798 -0.025657 0.147462
0.280752 -0.0253841 0.126673
0.259032 -0.0212549 -0.242966
0.248968 -0.021383 -0.259588
0.233015 -0.0219295 -0.259927
-0.0815133 -0.0327394 -0.263951
0.204558 -0.0207146 -0.261237
0.259878 -0.0224806 0.25281
0.171518 -0.0194444 -0.262493
0.125933 -0.0207122 -0.263122
-0.0369635 -0.0222864 -0.263934
0.256969 -0.0134195 -0.216338
0.279468 -0.0123442 -0.0144063
0.039892 -0.0149536 -0.263848
0.279394 -0.0105499 0.064956
0.10477 -0.0112748 -0.263781
0.278957 -0.00749078 -0.0986089
0.278928 -0.00740118 -0.119047
0.2789 -0.0073137 -0.139001
0.278872 -0.00722826 -0.15849
0.278845 -0.0071448 -0.177528
0.278815 -0.00705431 -0.198173
0.279184 -0.00633207 0.214273
0.279146 -0.00624264 0.18572
0.279121 -0.00618441 0.167129
0.279105 -0.00614619 0.154927
0.279066 -0.00605268 0.12507
0.279039 -0.00598889 0.104704
0.279012 -0.00592644 0.0847646
0.278947 -0.00577166 0.0353495
0.278923 -0.00571363 0.0168223
0.278856 -0.00555408 -0.0341167
0.27883 -0.00549273 -0.0537043
0.278804 -0.00543272 -0.0728639
0.0736475 -0.00651962 -0.263813
0.00316036 -0.00709901 -0.263888
-0.0812761 -0.00467586 -0.263966
0.254242 -0.00133732 0.261797
0.254217 -0.00132452 0.241374
0.25363 -0.00102023 -0.244233
0.229722 -0.00104735 -0.263651
0.208096 -0.0010829 -0.263671
0.184994 -0.00112088 -0.263697
-0.0369901 -0.00148582 -0.263932
0.249947 0.00304226 -0.26363
0.160211 0.00348483 -0.263724
0.133542 0.00361636 -0.263752
0.277759 0.0082292 0.0660782
0.277707 0.00787988 -0.0134448
0.104768 0.00876932 -0.263781
0.264335 0.00918536 -0.215635
0.00316912 0.0127781 -0.263889
0.277416 0.0139742 0.215954
0.277407 0.0138416 0.196753
0.277397 0.01369 0.174808
0.277385 0.0134999 0.14729
0.277376 0.0133557 0.126409
0.27737 0.0132747 0.114676
0.277358 0.0130763 0.085957
0.27734 0.0128084 0.0471636
0.277331 0.0126602 0.0257014
0.277324 0.0125332 0.00732443
0.073644 0.0143432 -0.263812
0.0399011 0.0149534 -0.263849
0.249213 0.0175049 0.263315
0.163511 0.0181779 0.121437
0.136771 0.0188369 0.132128
0.124832 0.019127 0.136383
-0.0124768 0.0227124 0.2159
-0.0320973 0.0231318 0.21588
-0.0524549 0.0235668 0.215858
-0.073591 0.0240185 0.215834
-0.145797 0.0255417 0.213313
-0.145797 0.0253265 0.186983
-0.145794 0.0252203 0.173983
0.277109 0.0144246 -0.040649
0.277102 0.0142851 -0.0577295
0.277094 0.0141098 -0.0792112
0.277089 0.0139574 -0.0978688
0.277083 0.0137899 -0.118382
0.277076 0.0136264 -0.138409
0.27707 0.0134667 -0.157967
0.277062 0.0132937 -0.179166
0.277056 0.0131416 -0.197786
-0.0370021 0.0193157 -0.263931
0.236772 0.0189385 0.0971855
0.217146 0.0195216 0.107682
0.201189 0.0199889 0.115495
0.0126051 0.0255882 0.215925
-0.146319 0.0288336 0.14432
0.183936 0.0233311 0.13371
0.150642 0.0243994 0.146567
0.0365378 0.028331 0.215944
-0.146843 0.0324705 0.123532
0.229703 0.0178053 -0.26365
0.208119 0.0184085 -0.263674
0.185012 0.0190543 -0.263699
0.256589 0.0235198 0.109771
0.241741 0.0240781 0.11767
0.21778 0.0249611 0.128912
0.19561 0.0257676 0.138439
0.0593839 0.0309504 0.215967
-0.14735 0.0359631 0.0947788
0.248136 0.0195647 -0.243504
0.13354 0.0229038 -0.263752
0.177842 0.0293042 0.154384
0.0812174 0.0334546 0.215993
-0.147854 0.0394998 0.0746149
0.160214 0.0243938 -0.263724
0.258229 0.0286937 0.129447
0.238048 0.0295924 0.138801
0.0969699 0.0360452 0.216013
-0.148505 0.0453128 0.214779
0.247082 0.0234366 -0.263346
0.104766 0.0288136 -0.263781
0.00317037 0.032655 -0.263889
0.222377 0.0330475 0.153919
0.117196 0.0383483 0.216036
-0.00609773 0.0434156 0.215909
-0.0321008 0.0444843 0.215882
-0.0524571 0.0453209 0.21586
-0.148993 0.0485215 0.166955
-0.148979 0.0483188 0.154088
-0.148945 0.0478521 0.124479
-0.152067 0.0467178 0.044132
0.0736411 0.0325983 -0.263812
0.0399092 0.0339847 -0.263849
0.275638 0.0343529 0.214406
0.27565 0.0338655 0.18572
0.275658 0.0335481 0.167044
0.275664 0.0333398 0.154787
0.210456 0.036431 0.166313
0.136584 0.0405556 0.216057
-0.149563 0.0528757 0.193296
0.26433 0.0275563 -0.215634
-0.0370156 0.0401179 -0.263931
0.243393 0.0393046 0.262085
0.262923 0.0363867 0.153115
0.239214 0.0376971 0.162969
0.0537687 0.0475078 0.215962
0.0306594 0.0486096 0.215939
-0.149973 0.0551865 0.104129
0.168646 0.0449298 0.216089
0.00644308 0.0531962 0.215921
-0.0320976 0.0551604 0.21588
-0.150462 0.0586212 0.0837979
-0.156868 0.0575927 0.0142592
0.275425 0.0325884 -0.137873
0.244676 0.0326295 -0.216213
0.263442 0.0416896 0.168166
0.242253 0.0430108 0.176422
0.185974 0.0468885 0.216108
0.0812188 0.0525714 0.215992
-0.151217 0.0650995 0.211804
0.275256 0.0342495 -0.159592
0.27527 0.0338521 -0.178713
0.275288 0.0334211 -0.199445
-0.151675 0.0681137 0.168277
-0.15164 0.0677335 0.151091
-0.156152 0.0658494 0.0536467
-0.158394 0.0653829 0.0265773
-0.158666 0.0644581 -0.0161684
0.208114 0.0379002 -0.263673
0.184994 0.0392305 -0.263697
0.214719 0.0508233 0.216135
-0.00609875 0.0642552 0.21591
-0.15226 0.072554 0.190311
-0.152118 0.0710475 0.125908
0.243104 0.0384214 -0.242836
0.229698 0.038753 -0.263649
0.160179 0.0429817 -0.263721
0.133505 0.0446042 -0.263749
0.00312883 0.0525346 -0.263886
0.230303 0.0525714 0.21615
0.14598 0.0579778 0.216066
0.126991 0.0591953 0.216048
0.107192 0.0604647 0.216025
0.104746 0.0488591 -0.263779
0.0399057 0.0530163 -0.263849
-0.0370073 0.0579476 -0.263931
0.0480913 0.0675489 0.215956
0.0306616 0.0687237 0.215938
-0.0524489 0.0743257 0.215855
-0.154483 0.0778448 0.0854411
-0.156526 0.0776879 0.0740104
-0.162048 0.0762624 0.00424919
-0.161696 0.0757363 -0.0152422
-0.159469 0.0747848 -0.0463363
0.0736472 0.0534609 -0.263812
0.23822 0.0586866 0.263626
0.238396 0.0579249 0.235905
0.00644386 0.0737882 0.215921
-0.153947 0.0850593 0.213269
-0.154383 0.0879355 0.173946
-0.154199 0.0861159 0.1101
-0.159024 0.0815161 -0.0651403
-0.153469 0.0788305 -0.145546
0.08653 0.0744641 0.215997
-0.0189304 0.0826128 0.215889
-0.052448 0.0852026 0.215854
-0.154792 0.0906163 0.131329
-0.16389 0.0885166 0.0364568
-0.16487 0.0880162 0.0169523
-0.162526 0.0859901 -0.0454947
0.264325 0.0479689 -0.215633
0.24014 0.0495965 -0.22382
0.210732 0.0676278 0.21613
0.226462 0.0690693 0.216146
0.181707 0.0728217 0.216103
0.12212 0.0778177 0.216042
0.150609 0.0783871 0.216069
0.0423461 0.0878199 0.215951
-0.156692 0.105129 0.214743
-0.159527 0.101274 0.0916252
-0.16804 0.0987794 -0.00553453
-0.167254 0.0980587 -0.0251122
-0.161279 0.0958531 -0.0756806
-0.155797 0.0944817 -0.102502
-0.155486 0.0937371 -0.12404
0.184974 0.059408 -0.263695
0.133506 0.0638924 -0.263749
0.00311548 0.0752535 -0.263885
-0.0370361 0.0787518 -0.263929
0.0704223 0.0885953 0.21598
0.0186963 0.0932723 0.215928
-0.157097 0.107769 0.175296
-0.156871 0.105679 0.115438
-0.164492 0.104762 0.0689815
0.238002 0.0575269 -0.24421
0.229714 0.0576044 -0.263651
0.208099 0.0595588 -0.263672
0.160172 0.0638924 -0.263721
0.104756 0.068903 -0.26378
0.039877 0.0747693 -0.263847
0.233006 0.0782121 0.261655
-0.157558 0.110965 0.153906
-0.168582 0.107994 0.0421455
-0.156388 0.100144 -0.145028
0.0736593 0.0743225 -0.263813
0.232441 0.0802599 0.241396
0.0917808 0.0929669 0.216003
-0.0124644 0.103078 0.215892
-0.0320933 0.104982 0.215877
-0.170961 0.111155 0.0190023
-0.167329 0.10804 -0.0555033
-0.157989 0.105275 -0.105629
-0.157408 0.107686 -0.134292
0.202637 0.0877885 0.216125
-0.159433 0.12513 0.211748
-0.163696 0.121047 0.0974977
-0.173263 0.118178 2.16067e-05
-0.170794 0.11621 -0.0432186
0.23042 0.0877397 0.219411
0.18171 0.0928116 0.2161
0.136586 0.0976335 0.216056
0.1172 0.099705 0.216033
0.042344 0.107704 0.215952
-0.0320913 0.115658 0.215876
-0.159846 0.127892 0.181033
-0.159687 0.126457 0.146337
-0.160294 0.125321 0.116937
-0.168863 0.124514 0.0747841
-0.173492 0.121002 -0.0232774
-0.165186 0.11756 -0.0857975
0.234912 0.0691846 -0.222965
0.0969751 0.105 0.216009
0.070421 0.107925 0.215981
0.0186977 0.113622 0.215927
-0.173643 0.127574 0.0439686
0.00316828 0.0951258 -0.263889
-0.03705 0.0995558 -0.263928
-0.175971 0.13081 0.0246816
-0.169644 0.125828 -0.0736262
0.133513 0.0831799 -0.263749
0.0399191 0.0937966 -0.26385
0.227697 0.0981115 0.263211
0.159723 0.103945 0.216076
0.000217438 0.122563 0.215911
-0.17182 0.136405 0.0759442
-0.173461 0.136075 0.0642486
0.184978 0.0795837 -0.263695
0.104759 0.0889471 -0.26378
0.0736788 0.0925748 -0.263815
-0.162206 0.145393 0.213225
-0.169325 0.140853 0.0956695
-0.176345 0.135569 -0.0378598
-0.16036 0.12925 -0.133738
0.208101 0.0790506 -0.263672
0.160178 0.0848019 -0.263721
0.226491 0.10253 0.236532
-0.162618 0.148182 0.186817
-0.162545 0.147551 0.173636
-0.165068 0.145288 0.119026
-0.178868 0.140539 -0.0178055
-0.168046 0.135511 -0.0961496
0.232218 0.0791943 -0.243462
0.229722 0.0785504 -0.263651
0.117203 0.118112 0.216032
0.0423464 0.127587 0.215951
-0.162899 0.149868 0.139276
-0.180362 0.146024 0.0141773
0.225135 0.107556 0.22408
0.210734 0.109032 0.216128
0.181712 0.112801 0.216099
0.14131 0.118049 0.216059
0.0649299 0.127968 0.215977
0.0187011 0.133972 0.215925
-0.18111 0.150523 0.0264314
-0.175478 0.14508 -0.0684442
-0.176092 0.156483 0.0817663
-0.17896 0.15587 0.0622265
0.00313437 0.115007 -0.263887
-0.0370387 0.120357 -0.263929
0.0758473 0.132958 0.215988
0.000218749 0.143278 0.21591
-0.164995 0.165767 0.214709
-0.173481 0.161023 0.101577
0.229621 0.0889998 -0.224226
0.0399425 0.112824 -0.263852
0.222361 0.118097 0.261213
0.164209 0.123814 0.216081
0.0969732 0.13321 0.216011
-0.165356 0.168161 0.183797
-0.168835 0.165501 0.124916
-0.184083 0.16009 -0.0162517
-0.181911 0.158304 -0.0439995
-0.16333 0.150941 -0.133179
-0.165653 0.170029 0.144826
-0.185576 0.165828 0.0158917
0.184981 0.0975178 -0.263696
0.13352 0.104878 -0.26375
0.104765 0.108991 -0.263781
0.0736881 0.113435 -0.263816
0.221103 0.12273 0.24141
0.0365341 0.148322 0.215947
-0.186809 0.169173 0.00431743
0.160194 0.103386 -0.263723
0.126997 0.138121 0.216043
0.0593781 0.148237 0.215971
-0.182498 0.176429 0.0759725
-0.184073 0.175988 0.0641496
-0.186535 0.175001 0.0404463
-0.18359 0.169099 -0.0550271
-0.177297 0.166134 -0.0903812
-0.172809 0.164357 -0.109719
0.208112 0.0985408 -0.263673
0.214717 0.127746 0.216137
0.181708 0.132792 0.216102
0.150607 0.137547 0.21607
-0.167767 0.185987 0.211694
-0.180026 0.181092 0.0958793
0.226919 0.0990516 -0.242777
0.227232 0.0977973 -0.263412
-0.168166 0.188731 0.189625
-0.168037 0.187657 0.171962
-0.173618 0.185845 0.127029
-0.189082 0.179325 -0.0226102
-0.187234 0.177846 -0.0425541
-0.169314 0.169915 -0.128476
0.112225 0.149584 0.216028
0.0917785 0.152844 0.216005
-0.168917 0.190185 0.146337
-0.190813 0.186075 0.0216431
-0.176993 0.176137 -0.105184
0.216869 0.138542 0.262821
0.0399082 0.134579 -0.263849
-0.1824 0.197662 0.105295
-0.189243 0.19631 0.0660947
-0.19153 0.195433 0.0463034
-0.193206 0.192921 0.00234932
-0.183494 0.185747 -0.0852419
0.224102 0.109683 -0.21689
0.00316787 0.143399 -0.263889
-0.170582 0.206559 0.21318
-0.185799 0.201421 0.0940188
-0.18705 0.190811 -0.0731328
0.13353 0.124164 -0.263751
0.104759 0.129036 -0.26378
0.0736666 0.134301 -0.263814
0.136592 0.157715 0.216052
-0.170927 0.208874 0.186592
-0.170818 0.20798 0.173321
-0.178447 0.206383 0.129163
-0.194426 0.199227 -0.0210584
-0.192613 0.197592 -0.0410933
-0.172084 0.187841 -0.135112
0.184994 0.117691 -0.263697
0.213867 0.148329 0.234033
0.181715 0.152781 0.216096
-0.172427 0.21081 0.152289
-0.195978 0.206556 0.027422
-0.196356 0.205272 0.0073452
0.160191 0.124296 -0.263722
0.20812 0.118031 -0.263674
0.210773 0.155361 0.247247
0.159722 0.162506 0.216077
0.122122 0.169367 0.21604
-0.186445 0.218385 0.111238
-0.188927 0.205217 -0.0839869
-0.179192 0.20072 -0.122962
0.221566 0.119102 -0.244186
-0.173332 0.226589 0.205638
-0.196453 0.220574 0.0604737
0.0399514 0.153603 -0.263852
-0.173698 0.229072 0.183552
-0.193349 0.225925 0.0886064
-0.199998 0.219658 -0.0154801
-0.198443 0.217909 -0.035607
-0.195408 0.215597 -0.0596439
-0.176995 0.231548 0.154423
-0.200554 0.227758 0.0412626
-0.201778 0.22533 0.00503486
-0.188788 0.215182 -0.0989602
-0.174635 0.209046 -0.14535
0.219169 0.12807 -0.216049
0.0736664 0.152555 -0.263814
0.201857 0.166541 0.22368
0.155186 0.175106 0.216075
-0.187571 0.235342 0.124566
0.133582 0.143441 -0.263755
0.104782 0.149076 -0.263782
0.190666 0.17446 0.261725
0.181712 0.172772 0.216099
-0.195289 0.22537 -0.0787343
-0.185685 0.220469 -0.118041
0.186737 0.176192 0.236542
-0.201273 0.24153 0.0664285
0.185001 0.137866 -0.263697
0.160242 0.142872 -0.263727
-0.176649 0.250763 0.198386
-0.176472 0.249322 0.180502
-0.180855 0.248315 0.156227
-0.184499 0.248169 0.144829
-0.199236 0.246631 0.0867001
-0.20373 0.245049 0.054806
-0.205832 0.240721 -0.00576788
-0.20395 0.238109 -0.0340908
-0.201565 0.236037 -0.0542214
-0.207176 0.246174 0.0107766
-0.181131 0.228647 -0.140636
0.208122 0.137522 -0.263674
0.216087 0.139634 -0.243496
-0.196561 0.260264 0.115497
-0.201701 0.245816 -0.0734138
-0.192209 0.240506 -0.113059
-0.178975 0.267796 0.204064
-0.180872 0.265312 0.169398
-0.2095 0.255684 -0.0206671
-0.18835 0.269397 0.150951
-0.209081 0.266004 0.0567334
-0.208692 0.257653 -0.0406586
0.213292 0.148977 -0.21724
0.133547 0.162736 -0.263752
-0.212576 0.26798 0.024768
-0.200673 0.255188 -0.0926229
-0.187966 0.248606 -0.135807
-0.204319 0.27671 0.101511
-0.20798 0.275808 0.0816138
-0.212953 0.273071 0.0372728
-0.213809 0.270424 0.00473836
-0.18137 0.285369 0.214338
-0.2008 0.281656 0.121609
-0.209234 0.267513 -0.0600293
-0.196653 0.259647 -0.115862
0.185002 0.158041 -0.263698
0.160245 0.163779 -0.263727
-0.184177 0.286578 0.17541
-0.194885 0.286378 0.145163
-0.21648 0.28543 0.0343221
-0.215951 0.280096 -0.0228182
-0.214727 0.278685 -0.0350883
0.208147 0.158742 -0.244637
-0.216487 0.29091 0.0509976
-0.20629 0.275287 -0.0913866
0.207756 0.15927 -0.26364
-0.203748 0.298884 0.127214
-0.219348 0.291396 0.00645238
0.200314 0.167601 -0.217306
-0.215734 0.301017 0.0760596
-0.212884 0.286375 -0.0707491
-0.203373 0.280211 -0.110801
-0.191642 0.273957 -0.146002
-0.184779 0.310249 0.211581
-0.184497 0.307999 0.188923
-0.193366 0.308074 0.166501
-0.211605 0.306696 0.104459
-0.221322 0.298599 -0.00515589
-0.198435 0.28081 -0.13025
-0.220395 0.308282 0.0565857
-0.222688 0.305284 0.0198172
-0.221296 0.300532 -0.0253165
-0.181558 0.27572 -0.17601
0.179658 0.178168 -0.232162
-0.219014 0.301022 -0.053672
-0.212857 0.29623 -0.0861233
-0.19363 0.285033 -0.149272
-0.180563 0.276272 -0.203859
-0.194193 0.278582 -0.216112
-0.228452 0.291086 -0.216149
-0.217885 0.306392 -0.0734326
-0.210147 0.301081 -0.105672
-0.204288 0.297525 -0.125478
-0.186355 0.298086 -0.178837
-0.19418 0.299871 -0.216114
-0.198461 0.311119 -0.155689
-0.184632 0.306011 -0.19994
-0.191785 0.317601 -0.17808
