ply
format ascii 1.0
comment Created by Open3D
element vertex 929
property double x
property double y
property double z
end_header
0.35196 -0.179329 0.267761
0.369995 -0.1784 0.267749
0.351282 -0.17734 0.25192
0.351297 -0.176526 0.229308
0.351313 -0.178618 0.205404
0.362288 -0.162419 0.267755
0.377667 -0.161699 0.267744
0.351329 -0.177794 0.180094
0.351347 -0.17692 0.15325
0.351366 -0.179221 0.124727
0.351282 -0.154998 0.25192
0.351313 -0.160904 0.205405
0.351297 -0.156433 0.229308
0.351386 -0.178336 0.0943642
0.351347 -0.164395 0.15325
0.351329 -0.159559 0.180094
0.382763 -0.142466 0.267741
0.351407 -0.177393 0.0619764
0.35196 -0.140999 0.267761
-0.292796 -0.167827 0.245292
-0.274315 -0.167094 0.245279
-0.245957 -0.166227 0.243765
0.351297 -0.144952 0.229309
-0.360691 -0.167146 0.245338
-0.341613 -0.166404 0.245325
-0.318943 -0.165521 0.24531
0.351366 -0.159845 0.124728
0.351386 -0.161669 0.0943645
0.351312 -0.140237 0.205405
0.351329 -0.141323 0.180095
-0.300233 -0.151477 0.245297
0.351407 -0.156726 0.0619767
0.351282 -0.12707 0.25192
-0.281688 -0.147499 0.245284
-0.259646 -0.146728 0.245269
0.35196 -0.121834 0.267761
0.369995 -0.121203 0.267749
-0.360691 -0.146886 0.245338
-0.341613 -0.146233 0.245325
-0.318943 -0.145458 0.24531
0.351366 -0.14047 0.124728
0.351347 -0.136213 0.15325
0.351297 -0.12486 0.229309
0.351385 -0.141669 0.0943645
0.351312 -0.119571 0.205405
-0.300233 -0.131502 0.245297
0.351407 -0.136059 0.061977
0.351329 -0.120049 0.180095
-0.277998 -0.1275 0.245282
-0.259646 -0.126944 0.245269
-0.360691 -0.126626 0.245338
-0.341613 -0.126063 0.245325
-0.318943 -0.125395 0.24531
0.351365 -0.121095 0.124728
0.351347 -0.117425 0.15325
0.351282 -0.104728 0.25192
0.359712 -0.102441 0.267756
0.377667 -0.101911 0.267744
-0.212736 -0.179259 -0.235786
-0.192147 -0.178669 -0.2358
-0.171694 -0.178082 -0.235814
-0.153744 -0.178546 -0.243644
0.351385 -0.121669 0.0943649
0.351297 -0.104767 0.229309
-0.382479 -0.179085 -0.23567
-0.360758 -0.178479 -0.235685
-0.339184 -0.177877 -0.2357
-0.317755 -0.177279 -0.235715
-0.301778 -0.176833 -0.235725
-0.280599 -0.176242 -0.23574
-0.259562 -0.175655 -0.235754
-0.238664 -0.175072 -0.235768
-0.153733 -0.175722 -0.260614
0.351312 -0.101856 0.205405
-0.300233 -0.111527 0.245297
-0.228267 -0.164935 -0.235776
0.351407 -0.115391 0.0619771
0.351347 -0.104899 0.153251
0.351329 -0.101814 0.180095
-0.270638 -0.107442 0.245277
-0.25235 -0.106974 0.245265
-0.207576 -0.159483 -0.23579
-0.192147 -0.159089 -0.2358
-0.171694 -0.158566 -0.235814
-0.153744 -0.158979 -0.243644
-0.360691 -0.106366 0.245338
-0.341613 -0.105893 0.245325
-0.318943 -0.105332 0.24531
-0.382479 -0.158907 -0.23567
-0.360758 -0.158369 -0.235685
-0.339184 -0.157834 -0.2357
-0.317755 -0.157304 -0.235715
-0.301778 -0.156908 -0.235725
-0.280599 -0.156384 -0.23574
-0.259562 -0.155863 -0.235754
-0.153733 -0.155922 -0.260614
0.351365 -0.10172 0.124728
0.351385 -0.101668 0.0943651
0.351297 -0.084675 0.229309
0.35196 -0.0807665 0.267761
0.369995 -0.0803483 0.267749
-0.281688 -0.0944655 0.245284
-0.217905 -0.140086 -0.235783
-0.202425 -0.139739 -0.235793
-0.181904 -0.139279 -0.235807
-0.161518 -0.138822 -0.235821
-0.300233 -0.0915519 0.245297
-0.382479 -0.138728 -0.23567
-0.360758 -0.138258 -0.235685
-0.339184 -0.137792 -0.2357
-0.317755 -0.137329 -0.235715
-0.301778 -0.136983 -0.235725
-0.280599 -0.136526 -0.23574
-0.259562 -0.136071 -0.235754
-0.238664 -0.135619 -0.235768
-0.153733 -0.136122 -0.260614
0.351407 -0.0947243 0.0619775
0.351312 -0.0811899 0.205405
0.351282 -0.0768006 0.25192
-0.263304 -0.0874534 0.245272
0.351329 -0.0805391 0.180095
-0.360691 -0.0861055 0.245338
-0.341613 -0.085723 0.245325
-0.318943 -0.0852686 0.24531
0.351365 -0.0823445 0.124728
-0.217905 -0.120424 -0.235783
-0.202425 -0.120126 -0.235793
-0.181904 -0.119731 -0.235807
-0.161518 -0.119338 -0.235821
0.351385 -0.0816679 0.0943655
0.351347 -0.0767174 0.153251
-0.382479 -0.118549 -0.23567
-0.360758 -0.118148 -0.235685
-0.339184 -0.11775 -0.2357
-0.317755 -0.117354 -0.235715
-0.301778 -0.117059 -0.235726
-0.280599 -0.116667 -0.23574
-0.259562 -0.116279 -0.235754
-0.238664 -0.115893 -0.235769
-0.153733 -0.116323 -0.260614
-0.281688 -0.074578 0.245284
0.35196 -0.0616016 0.267761
0.369995 -0.0612826 0.267749
-0.300233 -0.0715769 0.245297
0.351407 -0.0740572 0.0619777
-0.25235 -0.0674761 0.245265
-0.217905 -0.100763 -0.235783
-0.202425 -0.100514 -0.235793
-0.181904 -0.100183 -0.235807
-0.161518 -0.0998546 -0.235821
0.351329 -0.0623038 0.180095
0.351312 -0.0605234 0.205405
0.351282 -0.0572514 0.25192
-0.360691 -0.0658454 0.245338
-0.341613 -0.0655529 0.245325
-0.318943 -0.0652054 0.24531
-0.382479 -0.0983707 -0.23567
-0.360758 -0.0980378 -0.235685
-0.339184 -0.0977071 -0.2357
-0.317755 -0.0973786 -0.235715
-0.301778 -0.0971337 -0.235726
-0.280599 -0.0968091 -0.23574
-0.259562 -0.0964866 -0.235754
-0.238664 -0.0961662 -0.235769
-0.153733 -0.0965232 -0.260614
0.351297 -0.0559716 0.229309
0.351385 -0.0616676 0.0943655
0.351365 -0.0597401 0.124729
0.351347 -0.0547981 0.153251
-0.281688 -0.0546906 0.245284
-0.259646 -0.0544047 0.245269
-0.217905 -0.0811022 -0.235783
-0.202425 -0.0809014 -0.235793
-0.181904 -0.0806352 -0.235807
-0.161518 -0.0803708 -0.235821
-0.300233 -0.051602 0.245297
-0.382479 -0.0781921 -0.23567
-0.360758 -0.0779275 -0.235685
-0.339184 -0.0776646 -0.2357
-0.317755 -0.0774035 -0.235715
-0.301778 -0.0772088 -0.235726
-0.280599 -0.0769508 -0.23574
-0.259562 -0.0766945 -0.235754
-0.238664 -0.0764398 -0.235769
-0.153733 -0.0767236 -0.260614
0.35196 -0.0424366 0.267761
0.369995 -0.0422169 0.267749
-0.360691 -0.0455852 0.245338
-0.341613 -0.0453828 0.245325
-0.318943 -0.0451422 0.24531
0.351407 -0.046501 0.0619781
0.351329 -0.0410293 0.180096
0.351312 -0.0398569 0.205405
-0.217905 -0.061441 -0.235783
-0.202425 -0.0612889 -0.235793
-0.181904 -0.0610873 -0.235808
-0.161518 -0.060887 -0.235821
0.351385 -0.0416673 0.094366
0.351365 -0.0403649 0.124729
0.351297 -0.0358792 0.229309
0.351282 -0.0349094 0.25192
-0.382479 -0.0580135 -0.23567
-0.360758 -0.0578172 -0.235685
-0.339184 -0.0576221 -0.2357
-0.317755 -0.0574284 -0.235715
-0.301778 -0.057284 -0.235726
-0.280599 -0.0570925 -0.23574
-0.259562 -0.0569023 -0.235754
-0.238664 -0.0567134 -0.235769
-0.153733 -0.0569239 -0.260614
-0.281688 -0.0348031 0.245284
-0.259646 -0.0346212 0.245269
-0.300233 -0.031627 0.245297
-0.217905 -0.0417799 -0.235783
-0.202425 -0.0416765 -0.235794
-0.181904 -0.0415393 -0.235808
-0.161518 -0.0414031 -0.235821
0.351347 -0.0266162 0.153251
-0.360691 -0.0253251 0.245338
-0.341613 -0.0252126 0.245325
-0.318943 -0.025079 0.24531
-0.382479 -0.0378349 -0.23567
-0.360758 -0.0377068 -0.235685
-0.339184 -0.0375796 -0.2357
-0.317755 -0.0374533 -0.235715
-0.301778 -0.0373591 -0.235726
-0.280599 -0.0372342 -0.23574
-0.259562 -0.0371102 -0.235755
-0.238664 -0.036987 -0.235769
-0.153733 -0.0371243 -0.260614
0.351407 -0.0258339 0.0619783
0.351312 -0.0221427 0.205405
0.35196 -0.0205339 0.267761
0.369995 -0.0204275 0.267749
0.351385 -0.021667 0.0943661
0.351365 -0.0209898 0.124729
0.351329 -0.0197549 0.180096
0.351297 -0.0157869 0.229309
-0.281688 -0.0149156 0.245284
-0.259646 -0.0148376 0.245269
-0.217905 -0.0221188 -0.235783
-0.202425 -0.022064 -0.235794
-0.181904 -0.0219914 -0.235808
-0.161518 -0.0219193 -0.235821
-0.300233 -0.0116521 0.245297
-0.382479 -0.0176563 -0.23567
-0.360758 -0.0175965 -0.235685
-0.339184 -0.0175372 -0.2357
-0.317755 -0.0174782 -0.235715
-0.301778 -0.0174343 -0.235726
-0.280599 -0.017376 -0.23574
-0.259562 -0.0173181 -0.235755
-0.238664 -0.0172606 -0.235769
-0.153733 -0.0173247 -0.260614
0.351282 -0.00698188 0.25192
-0.360691 -0.00506504 0.245338
-0.341613 -0.00504254 0.245325
-0.318943 -0.00501581 0.24531
0.351407 -0.00516678 0.0619786
0.351347 -0.00469699 0.153252
-0.217905 -0.00245766 -0.235783
-0.202425 -0.00245157 -0.235794
-0.181904 -0.00244351 -0.235808
-0.161518 -0.00243549 -0.235821
0.351385 -0.0016667 0.0943663
0.351365 -0.00161461 0.124729
0.351329 -0.00151961 0.180096
0.351312 -0.00147619 0.205405
0.35196 -0.00136893 0.267761
0.369995 -0.00136184 0.267749
-0.382479 0.00252234 -0.23567
-0.360758 0.00251381 -0.235685
-0.339184 0.00250533 -0.2357
-0.360691 0.00506501 0.245338
-0.341613 0.00504251 0.245325
-0.318943 0.00501578 0.24531
-0.317755 0.00749064 -0.235715
-0.301778 0.0074718 -0.235726
-0.280599 0.00744683 -0.23574
-0.259562 0.00742202 -0.235755
-0.238664 0.00739738 -0.235769
-0.153733 0.00742484 -0.260614
0.351407 0.00516676 0.0619788
0.351297 0.00430549 0.229309
-0.300233 0.0083229 0.245297
-0.281688 0.0149156 0.245284
-0.259646 0.0148376 0.245269
-0.382479 0.0227009 -0.23567
-0.360758 0.0226241 -0.235685
-0.339184 0.0225478 -0.2357
-0.217905 0.0221188 -0.235783
-0.202425 0.022064 -0.235794
-0.181904 0.0219914 -0.235808
-0.161518 0.0219193 -0.235822
0.351282 0.0125674 0.25192
-0.317755 0.0274658 -0.235715
-0.301778 0.0273967 -0.235726
-0.280599 0.0273052 -0.23574
-0.259562 0.0272142 -0.235755
-0.238664 0.0271238 -0.235769
-0.153733 0.0272245 -0.260614
0.351385 0.0183336 0.0943666
0.351365 0.0177606 0.124729
0.351329 0.0197549 0.180096
0.351312 0.0191903 0.205405
0.35196 0.017796 0.267761
0.369995 0.0177039 0.267749
-0.360691 0.0253252 0.245338
-0.341613 0.0252127 0.245325
-0.318943 0.025079 0.24531
0.351407 0.0258339 0.0619789
0.351347 0.0234849 0.153252
-0.300233 0.0282978 0.245297
-0.382479 0.0428795 -0.23567
-0.360758 0.0427344 -0.235685
-0.339184 0.0425903 -0.2357
-0.217905 0.0417799 -0.235783
-0.202425 0.0416765 -0.235794
-0.181904 0.0415394 -0.235808
-0.161518 0.0414031 -0.235822
0.351297 0.0243979 0.229309
-0.317755 0.0474409 -0.235715
-0.301778 0.0473216 -0.235726
-0.280599 0.0471634 -0.23574
-0.259562 0.0470063 -0.235755
-0.238664 0.0468502 -0.235769
-0.153733 0.0470241 -0.260614
-0.281688 0.0348031 0.245284
-0.259646 0.0346211 0.245269
0.351385 0.0383339 0.0943668
-0.382479 0.0630581 -0.23567
-0.360758 0.0628447 -0.235685
-0.339184 0.0626327 -0.2357
-0.217905 0.061441 -0.235783
-0.202425 0.0612889 -0.235794
-0.181904 0.0610873 -0.235808
-0.161518 0.060887 -0.235822
0.351365 0.0403649 0.12473
0.351329 0.0379901 0.180096
0.351282 0.0349093 0.25192
-0.360691 0.0455852 0.245338
-0.341613 0.0453828 0.245325
-0.318943 0.0451422 0.24531
-0.317755 0.067416 -0.235715
-0.301778 0.0672464 -0.235726
-0.280599 0.0670217 -0.23574
-0.259562 0.0667984 -0.235755
-0.238664 0.0665766 -0.235769
-0.153733 0.0668238 -0.260614
0.351312 0.0398569 0.205405
-0.300233 0.0482728 0.245297
0.351347 0.0454042 0.153252
0.35196 0.0396988 0.267761
0.369995 0.0394932 0.267749
0.351407 0.05339 0.0619793
0.351297 0.0444902 0.229309
-0.281688 0.0546906 0.245284
-0.259646 0.0544047 0.245269
-0.382479 0.0832368 -0.23567
-0.360758 0.0829551 -0.235685
-0.339184 0.0826752 -0.2357
-0.217905 0.0811022 -0.235783
-0.202425 0.0809014 -0.235794
-0.181904 0.0806353 -0.235808
-0.161518 0.0803708 -0.235822
-0.317755 0.087391 -0.235715
-0.301778 0.0871713 -0.235726
-0.280599 0.0868799 -0.23574
-0.259562 0.0865905 -0.235755
-0.238664 0.086303 -0.235769
-0.153733 0.0866234 -0.260614
0.351385 0.0583341 0.094367
0.351365 0.0597401 0.12473
-0.360691 0.0658453 0.245338
-0.341613 0.0655529 0.245325
-0.318943 0.0652054 0.24531
0.351329 0.0592646 0.180096
0.351312 0.057571 0.205405
0.351282 0.0544586 0.25192
-0.300233 0.0682477 0.245297
-0.382479 0.103415 -0.23567
-0.360758 0.103065 -0.235685
-0.339184 0.102718 -0.2357
-0.217905 0.100763 -0.235783
-0.202425 0.100514 -0.235794
-0.181904 0.100183 -0.235808
-0.161518 0.0998547 -0.235822
-0.317755 0.107366 -0.235715
-0.301778 0.107096 -0.235726
-0.280599 0.106738 -0.23574
-0.259562 0.106383 -0.235755
-0.238664 0.106029 -0.235769
-0.153733 0.106423 -0.260614
0.351407 0.074057 0.0619795
0.35196 0.0588637 0.267761
0.369995 0.0585589 0.267749
-0.281688 0.074578 0.245284
-0.259646 0.0741882 0.245269
0.351297 0.0645826 0.229309
0.351385 0.0783344 0.0943672
0.351347 0.0735861 0.153252
-0.382479 0.123594 -0.23567
-0.360758 0.123176 -0.235685
-0.339184 0.12276 -0.2357
-0.217905 0.120424 -0.235783
-0.202425 0.120126 -0.235794
-0.181904 0.119731 -0.235808
-0.161518 0.119339 -0.235822
0.351365 0.0791152 0.12473
-0.341613 0.085723 0.245325
-0.318943 0.0852686 0.24531
-0.317755 0.127341 -0.235715
-0.301778 0.127021 -0.235726
-0.280599 0.126597 -0.23574
-0.259562 0.126175 -0.235755
-0.238664 0.125756 -0.235769
-0.153733 0.126223 -0.260614
-0.300233 0.0882227 0.245297
0.351329 0.080539 0.180096
0.351312 0.0782375 0.205405
0.351282 0.0740078 0.25192
-0.360691 0.0928588 0.245338
0.351406 0.0947241 0.0619799
-0.281688 0.0944655 0.245284
-0.259646 0.0939717 0.245269
-0.382479 0.143773 -0.23567
-0.360758 0.143286 -0.235685
-0.339184 0.142803 -0.2357
-0.217905 0.140086 -0.235783
-0.202425 0.139739 -0.235794
-0.181904 0.139279 -0.235808
-0.161518 0.138822 -0.235822
0.35196 0.0780287 0.267761
0.369995 0.0776246 0.267749
-0.317755 0.147316 -0.235715
-0.301778 0.146946 -0.235726
-0.280599 0.146455 -0.23574
-0.259562 0.145967 -0.235755
-0.238664 0.145482 -0.235769
-0.153733 0.146022 -0.260614
0.351385 0.0983347 0.0943672
0.351297 0.084675 0.229309
0.351406 0.105058 0.06198
0.351365 0.0984903 0.12473
0.351347 0.0955053 0.153252
0.351282 0.0851788 0.25192
-0.330248 0.105612 0.245317
-0.311439 0.105146 0.245305
-0.289086 0.107913 0.245289
-0.382479 0.163951 -0.23567
-0.360758 0.163396 -0.235685
-0.339184 0.162845 -0.2357
-0.217905 0.159747 -0.235783
-0.202425 0.159351 -0.235794
-0.181904 0.158827 -0.235808
-0.161518 0.158306 -0.235822
0.351329 0.0987743 0.180096
-0.360691 0.113119 0.245338
-0.317755 0.167291 -0.235715
-0.301778 0.166871 -0.235726
-0.280599 0.166313 -0.23574
-0.259562 0.165759 -0.235755
-0.238664 0.165209 -0.235769
-0.153733 0.165822 -0.260614
0.351312 0.0989041 0.205405
-0.270638 0.114053 0.245277
-0.25235 0.113557 0.245265
-0.379099 0.167897 -0.18456
-0.360149 0.167898 -0.188918
-0.341195 0.167897 -0.19327
-0.322242 0.167897 -0.197621
-0.298551 0.167897 -0.203061
-0.279597 0.167896 -0.207413
-0.260645 0.167896 -0.211765
-0.241692 0.167896 -0.216117
-0.218 0.167895 -0.221556
-0.379787 0.167896 -0.144446
-0.361374 0.167897 -0.148688
-0.33835 0.167897 -0.153976
-0.319931 0.167897 -0.158205
-0.301512 0.167896 -0.162435
-0.278488 0.167896 -0.167721
-0.260069 0.167896 -0.171951
-0.241649 0.167895 -0.17618
-0.218626 0.167895 -0.181466
-0.200207 0.167895 -0.185696
-0.181788 0.167895 -0.189925
-0.158763 0.167894 -0.195208
0.351385 0.118335 0.0943672
-0.380437 0.167895 -0.106532
-0.358051 0.167896 -0.111688
-0.34014 0.167897 -0.115808
-0.322225 0.167896 -0.119921
-0.299832 0.167896 -0.125063
-0.281917 0.167896 -0.129176
-0.259524 0.167896 -0.134318
-0.24161 0.167895 -0.138432
-0.219217 0.167895 -0.143573
-0.201302 0.167895 -0.147687
-0.17891 0.167894 -0.152829
-0.160993 0.167893 -0.156934
-0.153788 0.170523 -0.179585
-0.153744 0.178546 -0.243644
0.351406 0.125725 0.0619802
0.351365 0.117866 0.12473
0.351297 0.104767 0.229309
0.35196 0.0999315 0.267761
0.369995 0.099414 0.267749
-0.330248 0.125728 0.245317
-0.311439 0.125174 0.245305
-0.381053 0.167893 -0.0706413
-0.359264 0.167895 -0.0756586
-0.341833 0.167896 -0.0796725
-0.320038 0.167896 -0.0846795
-0.298241 0.167896 -0.0896844
-0.280805 0.167896 -0.093688
-0.259009 0.167895 -0.0986928
-0.241572 0.167895 -0.102697
-0.219776 0.167895 -0.107701
-0.20234 0.167894 -0.111705
-0.180544 0.167894 -0.11671
-0.158743 0.167891 -0.121697
-0.153818 0.169483 -0.135195
-0.289086 0.127835 0.245289
-0.381637 0.167893 -0.0366149
-0.360414 0.167894 -0.0415015
-0.339191 0.167895 -0.0463881
-0.32221 0.167896 -0.0502938
-0.30098 0.167896 -0.0551687
-0.27975 0.167895 -0.0600435
-0.25852 0.167895 -0.0649183
-0.241536 0.167895 -0.0688181
-0.220307 0.167894 -0.0736929
-0.199077 0.167894 -0.0785676
-0.182094 0.167894 -0.0824684
-0.160856 0.16789 -0.0873201
-0.360691 0.133379 0.245338
-0.382192 0.167892 -0.00431192
-0.361506 0.167893 -0.00907421
-0.34082 0.167894 -0.0138369
-0.320133 0.167896 -0.0185996
-0.299441 0.167895 -0.0233511
-0.278748 0.167895 -0.0281026
-0.262195 0.167895 -0.0319037
-0.241502 0.167895 -0.0366552
-0.22081 0.167894 -0.0414065
-0.200118 0.167894 -0.046158
-0.179423 0.167892 -0.0509012
-0.158724 0.167889 -0.0556307
0.351347 0.123687 0.153252
0.351329 0.120049 0.180096
-0.270638 0.133889 0.245277
-0.25235 0.133306 0.245265
-0.366576 0.167891 0.0226846
-0.354474 0.167892 0.0198936
-0.334298 0.167894 0.0152487
-0.314123 0.167895 0.0106038
-0.293942 0.167895 0.00596833
-0.27376 0.167895 0.00133419
-0.253579 0.167895 -0.00329995
-0.225325 0.167894 -0.0097878
-0.205144 0.167894 -0.0144219
-0.18496 0.167892 -0.0190477
-0.164771 0.167889 -0.0236614
-0.153882 0.170101 -0.0420785
0.351312 0.119571 0.205405
0.351282 0.113106 0.25192
-0.351718 0.167892 0.0483716
-0.332029 0.167893 0.043839
-0.312339 0.167895 0.0393062
-0.288708 0.167895 0.0338748
-0.269013 0.167895 0.0293521
-0.249318 0.167894 0.0248296
-0.229623 0.167894 0.0203071
-0.209928 0.167894 0.0157846
-0.19023 0.167892 0.0112704
-0.170528 0.167889 0.00676739
0.351385 0.138335 0.0943672
-0.337557 0.167892 0.0728538
-0.322176 0.167893 0.0693133
-0.299104 0.167895 0.0640022
-0.279873 0.167895 0.0595846
-0.260642 0.167894 0.0551684
-0.24141 0.167894 0.0507523
-0.222179 0.167894 0.0463361
-0.199099 0.167893 0.0410411
-0.179861 0.167889 0.0366436
-0.160641 0.167894 0.032199
-0.141398 0.167888 0.0278146
-0.330248 0.145845 0.245317
-0.311439 0.145202 0.245305
-0.324046 0.167892 0.0962105
-0.293992 0.167894 0.0892923
-0.26393 0.167894 0.0823864
-0.233867 0.167894 0.0754827
-0.203802 0.167892 0.0685841
-0.177498 0.167892 0.0625414
-0.154943 0.167889 0.0573857
-0.12489 0.167892 0.0504575
-0.0948097 0.167883 0.0436084
0.351365 0.14047 0.12473
0.351297 0.12486 0.229309
0.35196 0.119096 0.267761
0.369995 0.11848 0.267749
-0.289086 0.147758 0.245289
-0.311143 0.167892 0.118517
-0.289109 0.167894 0.113446
-0.270743 0.167894 0.109225
-0.252376 0.167894 0.105007
-0.230336 0.167893 0.0999454
-0.211968 0.167893 0.0957292
-0.189919 0.167889 0.0906879
-0.171558 0.167891 0.086457
-0.149526 0.167894 0.0813752
-0.131137 0.167884 0.0772146
-0.109099 0.167884 0.0721514
-0.0907338 0.167885 0.0679321
-0.0723686 0.167885 0.0637128
-0.0503303 0.167885 0.0586497
-0.031965 0.167885 0.0544305
-0.00992665 0.167885 0.0493673
0.00843866 0.167885 0.045148
0.030477 0.167885 0.0400848
0.351406 0.153281 0.0619802
-0.360691 0.153639 0.245338
-0.298807 0.167892 0.139844
-0.280849 0.167894 0.13571
-0.259294 0.167894 0.130758
-0.24133 0.167893 0.126633
-0.219775 0.167893 0.121681
-0.201804 0.16789 0.117572
-0.180246 0.167889 0.112628
-0.162294 0.167893 0.108478
-0.140723 0.167886 0.103567
-0.119168 0.167886 0.0986149
-0.101207 0.167886 0.0944884
-0.0796524 0.167886 0.0895365
-0.0616906 0.167886 0.0854099
-0.0401365 0.167886 0.0804578
-0.0221747 0.167886 0.0763311
-0.000620484 0.167886 0.0713793
0.0209337 0.167886 0.0664275
0.0388955 0.167886 0.0623009
0.0604497 0.167886 0.057349
0.0784116 0.167886 0.0532223
0.0999658 0.167886 0.0482705
0.117928 0.167886 0.0441438
0.139482 0.167886 0.0391921
0.351329 0.138284 0.180096
-0.270638 0.153724 0.245277
-0.25235 0.153056 0.245265
-0.287002 0.167892 0.160253
-0.265914 0.167894 0.155401
-0.244821 0.167893 0.150558
-0.216696 0.167892 0.144104
-0.195603 0.167891 0.139262
-0.174509 0.16789 0.134422
-0.14638 0.167888 0.127978
-0.12529 0.167888 0.123133
-0.114744 0.167888 0.12071
-0.0866231 0.167888 0.11425
-0.0655324 0.167888 0.109404
-0.0549869 0.167888 0.106982
-0.0268658 0.167888 0.100521
-0.00577495 0.167888 0.0956755
0.0153159 0.167888 0.0908299
0.043437 0.167888 0.0843693
0.0645279 0.167888 0.0795239
0.0750733 0.167888 0.0771012
0.103194 0.167888 0.0706406
0.124285 0.167888 0.0657951
0.145376 0.167888 0.0609496
0.173497 0.167888 0.0544891
0.194588 0.167888 0.0496434
0.205134 0.167888 0.0472207
0.233255 0.167888 0.04076
0.351347 0.145606 0.153252
-0.275694 0.167893 0.179803
-0.255048 0.167893 0.175056
-0.244724 0.167893 0.172685
-0.224075 0.167892 0.167945
-0.196548 0.167894 0.161613
-0.175888 0.167889 0.156897
-0.155241 0.167889 0.152153
-0.144918 0.167889 0.149781
-0.124271 0.167889 0.145038
-0.0967416 0.167889 0.138713
-0.0760947 0.167889 0.13397
-0.0554477 0.167889 0.129226
-0.0348007 0.167889 0.124483
-0.0141537 0.167889 0.11974
0.0133757 0.167889 0.113415
0.0340227 0.167889 0.108671
0.0546697 0.167889 0.103928
0.0753167 0.167889 0.0991843
0.102846 0.167889 0.0928596
0.123493 0.167889 0.0881162
0.14414 0.167889 0.0833727
0.164787 0.167889 0.0786293
0.175111 0.167889 0.0762575
0.195758 0.167889 0.071514
0.223287 0.167889 0.0651894
0.243934 0.167889 0.0604459
0.264581 0.167889 0.0557022
0.285228 0.167889 0.0509588
0.305875 0.167889 0.0462153
0.333405 0.167889 0.0398906
0.351385 0.158335 0.0943672
0.351312 0.140237 0.205405
0.351282 0.132656 0.25192
-0.382783 0.167885 0.225687
-0.264852 0.167893 0.198547
-0.244631 0.167893 0.1939
-0.224411 0.167894 0.18925
-0.20418 0.16789 0.184623
-0.177218 0.16789 0.178429
-0.156997 0.16789 0.173783
-0.136775 0.16789 0.169137
-0.0963323 0.16789 0.159846
-0.0761109 0.16789 0.1552
-0.0558894 0.16789 0.150554
-0.035668 0.16789 0.145909
-0.0154465 0.16789 0.141263
0.00477491 0.16789 0.136617
0.0249964 0.16789 0.131972
0.0351072 0.167891 0.129649
0.0553286 0.167891 0.125003
0.0755501 0.167891 0.120357
0.0957715 0.167891 0.115712
0.122734 0.167891 0.109517
0.142955 0.167891 0.104872
0.163177 0.167891 0.100226
0.183398 0.167891 0.0955801
0.20362 0.167891 0.0909349
0.223841 0.16789 0.0862901
0.244063 0.16789 0.0816457
0.264284 0.16789 0.0770009
0.284505 0.16789 0.0723563
0.304727 0.16789 0.0677117
0.335059 0.16789 0.0607448
-0.383202 0.167884 0.246163
-0.318943 0.165521 0.24531
-0.254448 0.167893 0.216533
-0.234634 0.167893 0.211982
-0.214818 0.167892 0.207436
-0.185098 0.167892 0.200608
-0.165285 0.167892 0.196056
-0.145472 0.167892 0.191505
-0.125659 0.167892 0.186953
-0.105846 0.167892 0.182401
-0.086033 0.167892 0.177849
-0.0563133 0.167892 0.171021
-0.0365003 0.167892 0.166469
-0.0166872 0.167892 0.161917
0.00312594 0.167892 0.157365
0.0229391 0.167892 0.152814
0.0427524 0.167892 0.148263
0.0757745 0.167891 0.140678
0.0955877 0.167891 0.136127
0.115401 0.167891 0.131576
0.135214 0.167891 0.127025
0.155027 0.167891 0.122474
0.184747 0.167891 0.115648
0.20456 0.16789 0.111097
0.224373 0.16789 0.106547
0.244186 0.16789 0.101996
0.263999 0.16789 0.0974451
0.283812 0.16789 0.0928941
0.303624 0.16789 0.0883435
0.323437 0.167889 0.0837926
0.351365 0.159845 0.12473
-0.383604 0.167884 0.265828
-0.354485 0.167887 0.259121
-0.299476 0.167891 0.246457
-0.234745 0.167893 0.231577
-0.186193 0.167893 0.220423
-0.166772 0.167893 0.215961
-0.147351 0.167893 0.211499
-0.134404 0.167893 0.208525
-0.114982 0.167893 0.204064
-0.0858507 0.167892 0.197373
-0.0664295 0.167892 0.192912
-0.0470084 0.167892 0.188451
-0.0243505 0.167892 0.183247
-0.00492942 0.167892 0.178786
0.0242021 0.167892 0.172095
0.043623 0.167891 0.167634
0.063044 0.167891 0.163174
0.0857016 0.167891 0.157969
0.124543 0.167891 0.149048
0.163385 0.16789 0.140126
0.182805 0.16789 0.135665
0.205463 0.16789 0.130462
0.244304 0.16789 0.12154
0.263725 0.16789 0.117079
0.283145 0.16789 0.112619
0.302566 0.167889 0.108158
0.315513 0.167889 0.105184
0.351297 0.144952 0.229309
0.35196 0.138261 0.267761
0.369995 0.137545 0.267749
-0.32555 0.168427 0.268224
-0.314493 0.16798 0.268216
-0.276096 0.167887 0.259918
-0.257059 0.167889 0.255533
-0.244367 0.167891 0.252611
-0.215809 0.167893 0.246035
-0.196764 0.167893 0.241661
-0.174546 0.167893 0.236557
-0.14598 0.167893 0.229996
-0.126936 0.167893 0.225622
-0.104718 0.167892 0.220518
-0.0666296 0.167892 0.21177
-0.0444116 0.167892 0.206666
-0.0158457 0.167892 0.200105
0.00319818 0.167891 0.195731
0.025416 0.167891 0.190628
0.0635036 0.167891 0.181879
0.0825473 0.167891 0.177505
0.114287 0.167891 0.170215
0.13333 0.16789 0.165841
0.155548 0.16789 0.160738
0.203157 0.16789 0.149802
0.225374 0.16789 0.144699
0.25394 0.167889 0.138138
0.282505 0.167889 0.131577
0.2952 0.167889 0.128661
-0.235171 0.167968 0.268162
-0.194465 0.167888 0.259254
-0.144661 0.167892 0.247788
-0.107298 0.167892 0.239206
-0.094844 0.167892 0.236345
-0.0668221 0.167892 0.229909
-0.0170056 0.167891 0.218466
-0.00455147 0.167891 0.215606
0.0234702 0.167891 0.20917
0.0452647 0.167891 0.204163
0.0732863 0.167891 0.197727
0.0950807 0.167891 0.192721
0.123102 0.16789 0.186285
0.154237 0.16789 0.179133
0.185371 0.16789 0.171982
0.213393 0.16789 0.165546
0.235187 0.167889 0.16054
0.272548 0.167889 0.151958
0.285002 0.167889 0.149098
0.325476 0.167889 0.139801
0.351329 0.159558 0.180096
-0.207073 0.169986 0.268143
-0.165646 0.168243 0.268114
-0.146431 0.167886 0.265648
-0.115886 0.167889 0.258615
-0.0670074 0.167892 0.24737
-0.054786 0.167891 0.244563
-0.027288 0.167891 0.238247
0.0154864 0.167891 0.228421
0.0429842 0.167891 0.222106
0.0552054 0.167891 0.219298
0.0949243 0.16789 0.210175
0.113256 0.16789 0.205965
0.143809 0.16789 0.198947
0.165196 0.16789 0.194035
0.192693 0.16789 0.187719
0.235467 0.167889 0.177894
0.262964 0.167889 0.171578
0.275185 0.167889 0.168771
0.314903 0.167889 0.159648
0.333234 0.167888 0.155437
0.351312 0.157951 0.205405
-0.0951568 0.168368 0.268066
-0.0761724 0.167886 0.266285
-0.0461864 0.167889 0.25938
-0.00720051 0.167891 0.250412
0.0137942 0.167891 0.245589
0.0437867 0.16789 0.2387
0.0827768 0.16789 0.229745
0.133764 0.16789 0.218033
0.163756 0.16789 0.211144
0.18475 0.167889 0.206322
0.214742 0.167889 0.199433
0.232737 0.167889 0.1953
0.262729 0.167889 0.188411
0.304717 0.167888 0.178766
-0.0271086 0.168489 0.26802
-0.0144134 0.167935 0.268011
0.0327802 0.16789 0.257406
0.0651765 0.16789 0.249961
0.103464 0.16789 0.241167
0.115245 0.16789 0.238461
0.153532 0.167889 0.229667
0.165313 0.167889 0.226961
0.2036 0.167889 0.218166
0.21538 0.167889 0.215461
0.253667 0.167889 0.206666
0.283118 0.167888 0.199902
0.303734 0.167888 0.195166
0.32435 0.167888 0.190431
0.351282 0.154998 0.25192
0.0138481 0.169705 0.267992
0.0539452 0.167925 0.267965
0.0944886 0.167889 0.258832
0.14367 0.167889 0.247534
0.192852 0.167889 0.236237
0.265177 0.167888 0.219624
0.323037 0.167888 0.206334
0.105127 0.168583 0.26793
0.162579 0.167889 0.258249
0.205219 0.167889 0.248455
0.225118 0.167888 0.243884
0.245017 0.167888 0.239314
0.293343 0.167888 0.228213
0.351297 0.165044 0.229309
0.175069 0.168299 0.267882
0.233929 0.167888 0.256405
0.273046 0.167888 0.24742
0.314957 0.167888 0.237793
0.334516 0.167887 0.2333
0.35196 0.160164 0.267761
0.369995 0.159335 0.267749
0.214671 0.169323 0.267855
0.24519 0.167896 0.267834
0.294638 0.167888 0.256515
0.333098 0.167887 0.247681
0.312815 0.167887 0.26593
0.125802 0.179311 0.267916
0.333736 0.169259 0.267774
0.26978 0.177955 0.267818
0.351959 0.179329 0.267762
0.369995 0.1784 0.267749
