ply
format ascii 1.0
comment Created by Open3D
element vertex 952
property double x
property double y
property double z
end_header
0.221624 -0.309976 0.23947
0.218555 -0.309606 0.221254
0.214431 -0.272782 -0.208899
0.211904 -0.272035 -0.22885
0.199218 -0.309608 0.221522
0.21973 -0.291681 0.229145
0.219707 -0.251775 -0.217533
0.230243 -0.243777 -0.238479
0.214481 -0.284496 0.212272
0.231184 -0.245824 -0.182324
0.231178 -0.24457 -0.197634
0.20967 -0.245399 -0.172893
0.232308 -0.244792 -0.0470032
0.228919 -0.244011 -0.0725366
0.224836 -0.243868 -0.0931069
0.220206 -0.243929 -0.113588
0.21382 -0.244632 -0.133926
0.234753 -0.244727 -0.00640576
0.233666 -0.243061 -0.0328841
0.207035 -0.243123 -0.154362
0.23389 -0.244779 0.0210847
0.222395 -0.233734 -0.175495
0.231222 -0.227426 -0.217088
0.232028 -0.244814 0.0444036
0.229676 -0.244632 0.0632096
0.220841 -0.256687 0.21697
0.226752 -0.244449 0.079969
0.222979 -0.244556 0.0973916
0.199785 -0.232488 -0.172612
0.231243 -0.21697 -0.238407
0.210612 -0.253946 0.203106
0.231423 -0.245664 0.185301
0.231265 -0.217421 -0.201979
0.231442 -0.244954 0.210408
0.214351 -0.244691 0.128302
0.230168 -0.244923 0.239604
0.21681 -0.244623 0.174069
0.204894 -0.244597 0.155166
0.231967 -0.217471 -0.0707337
0.22815 -0.217425 -0.0889175
0.223537 -0.217479 -0.109325
0.231288 -0.207435 -0.217086
0.237626 -0.217408 -0.0121051
0.236924 -0.21647 -0.0288715
0.235293 -0.215686 -0.0476698
0.217126 -0.21579 -0.129574
0.211311 -0.216387 -0.147668
0.221442 -0.21108 -0.17771
0.237184 -0.217399 0.0200009
0.23503 -0.217446 0.0458424
0.23149 -0.225484 0.185263
0.232315 -0.21732 0.0673206
0.202454 -0.210728 -0.168063
0.230574 -0.197064 -0.242687
0.231332 -0.197475 -0.199807
0.224276 -0.21734 0.104791
0.203974 -0.225478 0.175438
0.21928 -0.217363 0.120517
0.231537 -0.217361 0.215981
0.214337 -0.21733 0.13653
0.230257 -0.216864 0.242411
0.239436 -0.197434 -0.0222882
0.23873 -0.196587 -0.0389124
0.235726 -0.196147 -0.0596461
0.233274 -0.195696 -0.0780349
0.227964 -0.195959 -0.0982536
0.223364 -0.196008 -0.118607
0.215457 -0.197034 -0.138707
0.231354 -0.187449 -0.217083
0.202946 -0.217277 0.164636
0.239678 -0.197468 0.0167065
0.240629 -0.195948 -0.00322452
0.237465 -0.197477 0.0449465
0.220488 -0.188394 -0.179929
0.231564 -0.206325 0.20192
0.228855 -0.205822 0.181239
0.234648 -0.197183 0.0663886
0.208224 -0.190824 -0.159055
0.22983 -0.19747 0.0891343
0.231375 -0.177412 -0.23628
0.21002 -0.205719 0.177808
0.225453 -0.197274 0.10692
0.231399 -0.177375 -0.199806
0.231608 -0.197494 0.224419
0.21387 -0.197453 0.142267
0.22857 -0.197006 0.246415
0.207619 -0.19737 0.156568
0.241021 -0.177477 -0.037076
0.237076 -0.176936 -0.0646394
0.234467 -0.176574 -0.0829231
0.228593 -0.176969 -0.103001
0.223176 -0.177236 -0.123219
0.200822 -0.17989 -0.17957
0.242383 -0.17738 0.00846037
0.242672 -0.176335 -0.00867794
0.215393 -0.175803 -0.143327
0.23142 -0.167467 -0.217081
0.240244 -0.177419 0.0414136
0.231628 -0.185747 0.196296
0.236379 -0.177493 0.0682595
0.206964 -0.172161 -0.163615
0.220311 -0.185185 0.180517
0.198181 -0.1906 0.17858
0.232237 -0.177189 0.0880959
0.219532 -0.165676 -0.182151
0.226627 -0.177248 0.109045
0.231439 -0.157448 -0.238393
0.220689 -0.177209 0.127969
0.231466 -0.157393 -0.197632
0.231678 -0.177384 0.230051
0.206493 -0.177314 0.162772
0.245165 -0.157402 -0.0021385
0.244324 -0.156756 -0.0187857
0.243468 -0.156 -0.0376677
0.240322 -0.15569 -0.0582362
0.237438 -0.155321 -0.0787669
0.231499 -0.155689 -0.0987605
0.226882 -0.155738 -0.119
0.218065 -0.156778 -0.138916
0.243309 -0.157362 0.0353124
0.244661 -0.156044 0.0150864
0.231486 -0.147489 -0.217078
0.231701 -0.16606 0.20744
0.229735 -0.165464 0.186281
0.204328 -0.170928 0.180942
0.239265 -0.157341 0.0645448
0.229523 -0.166 0.248655
0.233973 -0.157342 0.0899519
0.211994 -0.150175 -0.15924
0.199731 -0.151915 -0.17955
0.223358 -0.143078 -0.253891
0.227799 -0.157261 0.111166
0.221757 -0.144516 -0.184413
0.220878 -0.157309 0.133309
0.231745 -0.15695 0.230008
0.212586 -0.157373 0.15122
0.231529 -0.136987 -0.204141
0.246146 -0.137463 -0.0264464
0.243379 -0.136793 -0.0541819
0.239988 -0.136578 -0.0745627
0.235092 -0.136685 -0.0946512
0.229538 -0.136928 -0.114694
0.210386 -0.151544 0.18327
0.24613 -0.137494 0.0268915
0.247313 -0.13638 0.00691435
0.247115 -0.13547 -0.0147562
0.222077 -0.135254 -0.134645
0.231768 -0.145763 0.207398
0.228705 -0.145484 0.186879
0.24212 -0.137401 0.0608689
0.231551 -0.127423 -0.219221
0.236352 -0.13732 0.0889163
0.21542 -0.131166 -0.152537
0.204666 -0.132401 -0.172751
0.227497 -0.143401 0.252917
0.228968 -0.137313 0.113282
0.221825 -0.137088 0.135561
0.231811 -0.136406 0.227124
0.211486 -0.13735 0.157356
0.220806 -0.121844 -0.18663
0.231564 -0.11745 -0.246822
0.211577 -0.130695 0.185438
0.249498 -0.117416 0.00865343
0.249765 -0.116727 -0.00831622
0.248457 -0.116156 -0.0294212
0.247129 -0.115685 -0.0479683
0.243109 -0.115619 -0.0681625
0.239661 -0.115451 -0.0884254
0.232892 -0.115879 -0.108199
0.227308 -0.116091 -0.12824
0.231836 -0.125574 0.210164
0.230616 -0.125083 0.191326
0.245508 -0.117471 0.0544975
0.248663 -0.115877 0.0260189
0.238713 -0.117445 0.0878882
0.242391 -0.116215 0.0709232
0.218084 -0.11231 -0.148116
0.231617 -0.107468 -0.219218
0.230135 -0.117405 0.115394
0.209711 -0.110644 -0.168319
0.220274 -0.117431 0.141795
0.231481 -0.116847 0.250208
0.23188 -0.116093 0.22992
0.210379 -0.117195 0.163532
0.223903 -0.100703 -0.258072
0.226578 -0.102259 -0.13275
0.230057 -0.0974678 -0.193278
0.231639 -0.0956231 -0.242604
0.231889 -0.10745 0.19893
0.208343 -0.110522 0.187259
0.250767 -0.0974735 -0.0276506
0.249251 -0.0970328 -0.0484502
0.245244 -0.0969779 -0.0685766
0.241699 -0.0968536 -0.0887541
0.234959 -0.0972114 -0.108466
0.249664 -0.0974558 0.0404589
0.251245 -0.0966013 0.0202444
0.252377 -0.095826 0.000510544
0.242322 -0.0973662 0.0811784
0.246347 -0.0962147 0.0617158
0.232398 -0.0972921 0.114327
0.220128 -0.0911874 -0.148251
0.211478 -0.0917672 -0.168381
0.206885 -0.0917873 -0.188789
0.231682 -0.0874532 -0.221356
0.220551 -0.0972658 0.144392
0.231086 -0.0964421 0.253358
0.231946 -0.0955915 0.227037
0.20877 -0.0969794 0.170015
0.231678 -0.0822513 -0.248914
0.209945 -0.0921742 0.189202
0.232395 -0.0810952 -0.124182
0.23196 -0.0874317 0.20728
0.228478 -0.0774894 -0.193281
0.253968 -0.0774601 0.0120603
0.254403 -0.0768645 -0.00966473
0.253209 -0.0765347 -0.0282866
0.251622 -0.0761979 -0.0489884
0.247628 -0.0761549 -0.0690391
0.243976 -0.0760718 -0.0891215
0.246347 -0.0774557 0.0718304
0.250785 -0.0764268 0.0499632
0.25288 -0.0757527 0.0319036
0.234644 -0.0773189 0.113267
0.241059 -0.0761835 0.0946202
0.226451 -0.0722383 -0.139586
0.212464 -0.072539 -0.191066
0.218987 -0.0773626 0.150688
0.22806 -0.0759941 0.132465
0.217233 -0.0704574 -0.159496
0.231747 -0.0674716 -0.223492
0.230704 -0.0759763 0.256509
0.232017 -0.0753791 0.235525
0.210497 -0.0760947 0.169086
0.231741 -0.0624601 -0.251007
0.211138 -0.0713342 0.19137
0.232037 -0.0674856 0.224143
0.230614 -0.0670743 0.196902
0.237561 -0.0602795 -0.113368
0.228732 -0.0572106 -0.19547
0.252981 -0.0574135 0.049121
0.255091 -0.0569051 0.0311163
0.25643 -0.0564277 0.0112599
0.256982 -0.0560267 -0.00804108
0.255631 -0.0557574 -0.0289178
0.253976 -0.0555186 -0.0495227
0.249995 -0.0554874 -0.0694982
0.246236 -0.0554373 -0.0894863
0.236875 -0.0574834 0.112214
0.244278 -0.0565043 0.0906043
0.248867 -0.0557843 0.0707838
0.232076 -0.0574873 0.235486
0.215689 -0.0574953 0.160719
0.224747 -0.0564828 0.142256
0.234001 -0.0511946 -0.128893
0.22427 -0.0516169 -0.148525
0.2152 -0.0519821 -0.168513
0.229621 -0.0555113 0.260153
0.201822 -0.0503351 -0.188765
0.23181 -0.0474886 -0.227755
0.21233 -0.0505342 0.193533
0.232103 -0.0470686 0.221272
0.231849 -0.046814 0.201747
0.241081 -0.0419149 -0.109257
0.231815 -0.0405688 -0.248902
0.258219 -0.0374825 -0.0225628
0.256877 -0.0373031 -0.0432339
0.253407 -0.0372524 -0.0632695
0.249441 -0.0372316 -0.0831638
0.224519 -0.0372576 -0.195492
0.243316 -0.0374151 0.0987819
0.248874 -0.0369112 0.0809193
0.252732 -0.0364818 0.061663
0.256833 -0.0360146 0.0402713
0.258218 -0.0357089 0.02031
0.259521 -0.0354117 0.000703365
0.231441 -0.0373334 0.258891
0.232146 -0.0371054 0.241151
0.210765 -0.0374181 0.171756
0.221383 -0.0366758 0.152195
0.232152 -0.0359021 0.130434
0.231856 -0.0319556 -0.234128
0.233986 -0.0306717 -0.133421
0.224269 -0.0309243 -0.153061
0.214177 -0.0311911 -0.173022
0.200559 -0.0316182 -0.193336
0.209095 -0.0299462 0.195396
0.232166 -0.0266676 0.215586
0.225663 -0.0267567 0.197049
0.245559 -0.0214217 -0.103047
0.23188 -0.0208305 -0.248897
0.257065 -0.0174752 0.0500187
0.259574 -0.0173089 0.031947
0.260867 -0.0171646 0.0122091
0.261519 -0.0170265 -0.00937736
0.260307 -0.0169542 -0.0278043
0.258813 -0.0168775 -0.0483157
0.254857 -0.016868 -0.0681532
0.225267 -0.0169036 -0.197686
0.231041 -0.0167601 0.262065
0.232214 -0.0166317 0.241106
0.20351 -0.0169967 0.184251
0.215412 -0.0166438 0.166441
0.221661 -0.0164473 0.154801
0.235917 -0.0159878 0.125904
0.242619 -0.0157453 0.106896
0.246783 -0.0155924 0.0946282
0.254115 -0.0152895 0.0661004
0.231927 -0.0121461 -0.227748
0.219462 -0.011566 0.197895
0.201729 -0.0118367 0.19675
0.232386 -0.0103262 -0.110437
0.225856 -0.0103677 -0.128099
0.217017 -0.0104373 -0.148045
0.206777 -0.0105278 -0.168216
0.194392 -0.0106504 -0.18873
0.177917 -0.00948976 0.195486
0.18321 -0.00939528 0.183768
0.201486 -0.00909737 0.154094
0.216734 -0.00883597 0.124436
0.231445 -0.00855755 0.0858271
0.241781 -0.00830202 0.0358565
0.242134 -0.00809954 -0.0397229
0.232237 -0.00635931 0.221186
0.201577 -0.00646051 0.134434
0.226614 -0.00613344 0.0748035
0.237179 -0.0059306 0.0150397
0.237455 -0.00589118 -0.00473732
0.236668 -0.0058619 -0.0239772
0.226973 -0.00583281 -0.0840208
0.201932 -0.00592573 -0.149394
0.192193 -0.00597521 -0.167702
0.162268 -0.00414731 0.195037
0.153138 -0.00418286 0.184745
0.172509 -0.00405184 0.157125
0.182198 -0.00398678 0.143737
0.209861 -0.00378929 0.0950509
0.225491 -0.00353709 -0.0575488
0.212225 -0.00355163 -0.105529
0.171966 -0.00367138 -0.18384
0.130545 -0.00143637 0.193311
0.147203 -0.00139656 0.163548
0.182311 -0.00132019 0.12091
0.194481 -0.00129202 0.101623
0.204486 -0.00126713 0.0811248
0.212909 -0.00124345 0.0566019
0.216607 -0.00123268 0.0448221
0.221101 -0.00121382 0.0151348
0.221887 -0.00120578 -0.0027141
0.221044 -0.00119894 -0.0248529
0.213681 -0.00119478 -0.0697474
0.206756 -0.00119806 -0.0927998
0.182377 -0.00121925 -0.148168
0.154763 -0.0012498 -0.193426
0.206267 -0.00115954 -0.19785
0.231945 -0.00109624 -0.248891
0.107808 0.00147506 0.192171
0.09035 0.00150468 0.191074
0.0721759 0.00153552 0.189933
0.126216 0.00142839 0.152132
0.152289 0.00137576 0.131397
0.209958 0.00121251 -0.0395295
0.191628 0.0012194 -0.105316
0.161861 0.00124855 -0.164177
0.230657 0.00387324 0.265236
0.232284 0.00384411 0.246789
0.0461406 0.0047394 0.188614
0.032867 0.00480697 0.187785
0.0122315 0.00491203 0.186496
-0.00932622 0.00502177 0.185149
0.151576 0.00410495 0.10828
0.169209 0.00399306 0.0897019
0.18352 0.00389736 0.0702702
0.192577 0.00382862 0.0506958
0.19942 0.00376981 0.0297965
0.201551 0.00373754 0.0108733
0.202482 0.00371218 -0.00741231
0.194707 0.00368895 -0.0637781
0.192066 0.0036891 -0.0757757
0.170027 0.00375014 -0.122658
0.156719 0.00379477 -0.144057
0.143236 0.00384255 -0.163457
0.130117 0.00388789 -0.183359
0.165244 0.0036926 -0.195807
0.225951 0.00337472 -0.199872
-0.0379125 0.0086107 0.182563
-0.0594966 0.00879183 0.180145
0.138207 0.00692277 0.0902192
0.162546 0.00668023 0.0725072
0.173539 0.00655221 0.0546475
0.188278 0.00625822 -0.0346078
0.172815 0.00630108 -0.0827325
0.161962 0.00635433 -0.104137
0.150997 0.00641264 -0.123361
0.137718 0.00649044 -0.1428
0.120053 0.00661025 -0.159958
0.0956807 0.00677679 -0.182963
0.225875 0.00549689 -0.268369
0.220634 0.00898725 0.200032
0.198394 0.00925148 0.198658
0.179637 0.00947431 0.197499
-0.0705112 0.0123935 0.161976
-0.0705249 0.0123352 0.13967
0.128324 0.00975121 0.0674729
0.154542 0.00938965 0.0499965
0.166805 0.0091952 0.0321634
0.17208 0.00907769 0.0115776
0.173963 0.00900461 -0.00763965
0.1724 0.00896904 -0.0283781
0.167567 0.00897501 -0.0482927
0.140967 0.00916936 -0.0963236
0.115779 0.00941748 -0.117372
-0.0706751 0.011693 -0.105862
-0.0706873 0.0116411 -0.125723
-0.0706993 0.0115896 -0.145409
-0.0707173 0.0115132 -0.174613
-0.0870567 0.0117022 -0.177591
-0.0539008 0.0112933 -0.181244
-0.0229837 0.0109121 -0.18465
0.026801 0.0103039 -0.187933
0.0754747 0.00971006 -0.190875
0.231992 0.00772852 -0.227745
-0.0705844 0.0157984 0.121257
-0.0705978 0.0157246 0.0993306
0.130007 0.0123924 0.0322178
0.145252 0.0121033 0.016486
0.1499 0.0119618 -0.00411203
0.147506 0.0119364 -0.0226345
0.139837 0.0119875 -0.0427114
0.124028 0.0121594 -0.0643072
-0.0706784 0.0152732 -0.0349212
-0.0706845 0.0152386 -0.0451925
-0.0706969 0.01517 -0.0655962
-0.0707091 0.015102 -0.0858171
0.232308 0.0140123 0.226804
-0.0708446 0.0191493 0.0812819
-0.0708508 0.0190606 0.0597196
-0.0708561 0.0189872 0.041903
-0.0708622 0.0189 0.0207033
-0.0708683 0.0188135 -0.000302479
0.185856 0.0131404 -0.198027
0.14309 0.0184057 0.196093
0.121532 0.0188814 0.194783
0.0988304 0.0193824 0.193403
0.0748913 0.0199107 0.191948
0.146158 0.0164277 -0.195909
0.0490025 0.0236349 0.190692
0.0290643 0.0241427 0.189487
0.00825065 0.0246727 0.188229
-0.0134973 0.0252265 0.186915
0.00503695 0.0226421 -0.187829
0.0561614 0.0213058 -0.190848
0.21184 0.0172369 -0.200041
0.162666 0.0235076 0.197838
-0.0292681 0.0290474 0.186305
-0.0582858 0.0298775 0.183392
-0.0717458 0.0301376 0.162435
-0.071748 0.0299954 0.140096
-0.0717735 0.0284089 -0.109089
-0.0717754 0.0282825 -0.128944
-0.0717773 0.0281572 -0.148624
-0.0717792 0.028033 -0.16813
-0.0460854 0.0271776 -0.184462
0.232011 0.0186341 -0.248885
0.231979 0.0244808 0.264308
-0.00626588 0.0290498 -0.187776
0.134211 0.0243998 -0.195972
0.204573 0.0275487 0.200884
-0.0752698 0.0375147 0.182594
-0.0726894 0.0357669 -0.0277008
-0.0726755 0.0356042 -0.0483064
-0.0726619 0.0354431 -0.0687254
-0.0726485 0.0352834 -0.0889604
-0.088919 0.0351482 -0.180841
0.226296 0.0235935 -0.202055
0.221805 0.0295017 0.202165
-0.0733572 0.0402076 0.0892547
-0.0733427 0.0400511 0.0711633
-0.0733254 0.0398649 0.0496386
-0.0733112 0.0397111 0.0318536
-0.0732943 0.039528 0.0106919
-0.0732775 0.0393467 -0.0102755
0.0359 0.0334709 -0.19082
0.0835331 0.0315625 -0.193566
0.175647 0.0340292 0.199712
0.0896567 0.0376802 0.194663
0.071437 0.0384538 0.193593
-0.0739717 0.0439715 0.115012
0.232058 0.0275991 -0.227741
0.232382 0.0345339 0.240994
0.232371 0.0343331 0.2211
0.144944 0.0381623 0.198193
0.123472 0.039147 0.19694
0.0453343 0.0427303 0.192378
0.0320253 0.0433406 0.191601
0.0113334 0.0442895 0.190393
-0.0634167 0.0477115 0.185441
-0.0747247 0.0479394 0.15605
-0.0747029 0.0478251 0.144846
-0.0297694 0.0423741 -0.187664
0.191785 0.0319555 -0.200282
-0.0184132 0.0490391 0.188996
-0.0750719 0.04863 -0.108802
-0.0750293 0.0484114 -0.128729
-0.0749871 0.0481947 -0.148478
-0.0749452 0.0479799 -0.16805
-0.110132 0.0495991 -0.180597
0.113411 0.0382782 -0.196083
0.159423 0.0430601 0.199597
0.0146188 0.0462482 -0.19079
0.0646227 0.0435488 -0.193603
0.230442 0.0338434 -0.267838
0.231401 0.042593 0.267619
-0.0775208 0.0589968 0.1759
-0.0773137 0.0579733 0.0940695
-0.0772402 0.0576098 0.0650124
-0.0768862 0.0558588 -0.0749744
-0.0768606 0.0557318 -0.0851311
-0.0856076 0.0550042 -0.184141
-0.0482302 0.0528397 -0.187576
0.145042 0.0417338 -0.198381
0.0494221 0.0551647 0.193884
-0.0781122 0.0610151 0.0544406
-0.0780343 0.0606355 0.0258515
-0.0779766 0.0603539 0.00464204
0.210873 0.0402481 -0.202292
0.232072 0.0383057 -0.253071
0.219045 0.0476578 0.203814
0.20126 0.0487758 0.202806
-0.0796636 0.0657228 0.135392
-0.0796162 0.065565 0.124229
-0.0789909 0.0634822 -0.0231409
-0.0789027 0.0631884 -0.0439255
0.182183 0.0526804 0.201997
0.109157 0.0575199 0.197883
0.0917273 0.0586749 0.196901
0.028212 0.0628841 0.193323
0.00734127 0.0642672 0.192147
-0.00709009 0.0652236 0.191334
-0.0451206 0.0677438 0.189191
-0.00776118 0.0596852 -0.190759
0.0447945 0.056117 -0.193642
0.170491 0.0475828 -0.200538
0.22664 0.0437616 -0.204233
0.232444 0.0525233 0.246681
0.146793 0.057852 0.200287
0.125405 0.0593421 0.199089
0.0667852 0.0634264 0.195807
-0.0809858 0.0690748 -0.11499
-0.0809378 0.0689175 -0.12501
-0.0807953 0.0684499 -0.154796
-0.106659 0.069826 -0.18397
-0.0722065 0.0673423 -0.187462
0.0868706 0.0559873 -0.196224
0.128988 0.0529813 -0.19852
0.232442 0.0547639 0.226717
0.232126 0.0475341 -0.223473
-0.0881137 0.0814679 0.187623
-0.0854568 0.0809875 0.171331
-0.0849253 0.079682 0.0963404
-0.0847691 0.0792985 0.0743123
-0.0845628 0.0787928 0.0452692
-0.0844861 0.0786048 0.0344733
-0.0842833 0.078108 0.00593451
-0.0841327 0.0777394 -0.015234
-0.0725317 0.0838545 0.189082
-0.0851372 0.0798815 -0.0944036
-0.0845406 0.0784253 -0.17436
-0.0313272 0.0738344 -0.190726
0.0239798 0.0693105 -0.193683
0.0729004 0.0653089 -0.196298
0.190773 0.0556672 -0.2026
0.230995 0.063337 0.270818
-0.0886149 0.0880563 0.149746
-0.0871685 0.0845299 -0.0356897
-0.0869517 0.0840022 -0.0634385
-0.128647 0.0853073 -0.183791
-0.0926571 0.0822079 -0.187365
0.112219 0.0647301 -0.198665
0.151716 0.0613621 -0.200763
0.198335 0.0675206 0.204504
0.0823913 0.0775729 0.19821
0.0243642 0.0826039 0.19506
-0.0339208 0.0876572 0.191896
-0.0496234 0.0890186 0.191044
0.21636 0.058125 -0.204425
0.22022 0.0682017 0.205951
0.16935 0.0727855 0.203207
0.116784 0.0775221 0.200371
0.0569001 0.082918 0.197141
0.0439091 0.0840886 0.19644
-0.00459898 0.0884595 0.193824
-0.0924375 0.0952448 0.132206
-0.0897729 0.090107 -0.114287
-0.0895548 0.0896863 -0.13447
-0.0893555 0.089271 -0.154465
0.232146 0.0582077 -0.242564
0.14341 0.0779636 0.202093
-0.0673829 0.0976757 0.190794
-0.0927424 0.100047 0.189435
-0.0949618 0.0998786 0.171067
-0.0941507 0.0983187 0.0990926
-0.0939415 0.0979162 0.0805241
-0.0937339 0.0975171 0.062107
-0.0928009 0.0957221 -0.0207132
-0.0926024 0.0953405 -0.0383158
-0.0561762 0.0887539 -0.190692
0.00210291 0.083177 -0.193726
0.0534912 0.0782596 -0.196402
0.232515 0.073135 0.25238
0.232504 0.0727084 0.232357
-0.0955455 0.100783 0.0406939
-0.0952904 0.100294 0.0189548
-0.0950799 0.09989 0.00099963
-0.0940118 0.0978401 -0.0900831
-0.114004 0.097725 -0.187263
0.103835 0.0876169 0.200569
0.0286351 0.0951617 0.19659
-0.0950686 0.0996679 -0.167546
0.0901753 0.0801735 -0.198856
0.131922 0.0758888 -0.201001
0.169432 0.0720389 -0.202928
0.232149 0.0643344 -0.263489
-0.102067 0.111054 0.150658
-0.0988095 0.105934 -0.0583764
-0.125032 0.105741 -0.187211
-0.0757192 0.100488 -0.190665
-0.0229538 0.107156 0.194544
-0.0383221 0.108803 0.193742
-0.100455 0.108367 -0.110016
-0.100125 0.107849 -0.130459
-0.0209192 0.0977696 -0.193771
0.0331274 0.0918473 -0.19651
0.232199 0.0696352 -0.22347
0.232349 0.0838437 0.269855
0.0784237 0.0993583 0.200147
0.0467888 0.102856 0.198506
-0.0014354 0.108187 0.196003
-0.0630561 0.115 0.192806
-0.0882132 0.117781 0.191501
-0.105672 0.119712 0.190595
-0.108186 0.119542 0.172103
-0.106715 0.117599 0.0990797
-0.102237 0.111018 -0.150605
0.208608 0.0875862 0.207166
0.190303 0.0896724 0.206222
0.161151 0.0929949 0.204719
0.118746 0.0978277 0.202534
-0.109448 0.121082 0.0811137
-0.109058 0.120567 0.0623873
-0.108594 0.119954 0.040125
-0.10821 0.119449 0.0217449
-0.107754 0.118848 -0.000107661
0.07161 0.0931803 -0.199017
-0.11365 0.1265 0.13159
-0.108903 0.120246 -0.0885274
-0.107132 0.117914 -0.170599
-0.10308 0.116915 -0.190626
0.111024 0.0912255 -0.201252
0.150614 0.0864752 -0.203216
0.186285 0.0821952 -0.204987
-0.117841 0.131229 0.152271
-0.113427 0.126089 -0.0206867
-0.113027 0.125561 -0.0386645
-0.0451791 0.113147 -0.193819
0.232211 0.0779685 -0.242559
0.232579 0.0934977 0.246589
0.232568 0.0929533 0.226636
0.100065 0.108933 0.202472
-0.127217 0.137162 0.190989
-0.117356 0.125486 -0.190607
0.00621945 0.109802 -0.196653
0.0165635 0.122582 0.198582
-0.0349523 0.129156 0.195997
-0.101036 0.137589 0.192682
-0.12623 0.140227 0.170856
-0.123659 0.13759 0.0888261
-0.123122 0.136985 0.0697639
-0.122591 0.136385 0.0508686
-0.119494 0.132895 -0.0591188
-0.118101 0.131326 -0.108543
-0.117514 0.130665 -0.129369
-0.116933 0.130011 -0.149987
0.0521525 0.106812 -0.199186
0.148557 0.108565 0.205489
0.0364434 0.123255 0.199902
0.00171071 0.127806 0.198171
-0.0760629 0.137997 0.194296
-0.129299 0.143162 0.128906
-0.128638 0.142511 0.109382
-0.125926 0.139841 0.0292829
-0.125296 0.13922 0.0106522
-0.00502777 0.117306 -0.196713
0.172028 0.093606 -0.205253
0.205651 0.0891053 -0.206875
0.232214 0.0839534 -0.263482
0.0619061 0.123043 0.201485
-0.134523 0.148219 0.150143
-0.128653 0.142443 -0.0180654
-0.127887 0.141689 -0.0399924
-0.126505 0.140329 -0.0795956
-0.138321 0.13865 -0.190577
-0.0707791 0.129373 -0.193869
0.088928 0.107442 -0.201517
0.130774 0.101695 -0.203521
0.231941 0.104636 0.273058
0.196621 0.107596 0.20842
0.120701 0.118062 0.204688
-0.0529769 0.142005 0.196152
-0.137459 0.15052 0.0888332
-0.1316 0.145262 -0.057512
-0.12755 0.141279 -0.170157
0.232268 0.0896513 -0.219191
0.177279 0.112994 0.207743
-0.150432 0.159288 0.191691
-0.148439 0.158354 0.170819
-0.14687 0.157493 0.150325
-0.142791 0.154445 0.0710499
-0.141796 0.153701 0.0517083
-0.134384 0.147922 -0.100099
-0.133728 0.147277 -0.117819
-0.132948 0.146511 -0.13888
0.0317374 0.121115 -0.199363
0.090897 0.128223 0.203831
0.0271396 0.137448 0.200741
-0.156314 0.162006 0.129526
-0.154301 0.161063 0.109159
-0.146913 0.157465 0.0301028
-0.145902 0.15671 0.0110429
-0.144902 0.155963 -0.00783524
-0.0284122 0.132909 -0.196837
-0.0239538 0.14826 0.198608
-0.0885938 0.157833 0.195498
-0.106079 0.160423 0.194656
-0.185027 0.169086 0.0979208
-0.187236 0.168912 0.0824631
-0.160488 0.163925 0.0522906
-0.152183 0.160035 -0.0289164
-0.149127 0.158602 -0.0588471
-0.147152 0.157587 -0.0809152
-0.146163 0.156849 -0.0990331
-0.0978338 0.146522 -0.193922
0.0703172 0.1211 -0.201741
0.11411 0.114479 -0.203777
0.153363 0.108545 -0.205602
0.188746 0.103195 -0.207247
0.230859 0.11526 0.276754
0.232647 0.113978 0.246544
0.232636 0.113315 0.226592
0.135063 0.127586 0.206549
-0.00237375 0.14841 0.199983
-0.0641759 0.157774 0.19703
-0.154338 0.16101 -0.119901
-0.149078 0.158544 -0.169691
0.232281 0.0978655 -0.238333
0.217033 0.117763 0.210726
0.0518974 0.143348 0.202893
-0.18531 0.170691 -0.0842905
-0.183288 0.169986 -0.0956749
-0.158321 0.162843 -0.190549
0.0102916 0.13614 -0.199548
0.106261 0.137901 0.20577
-0.119156 0.160037 -0.193964
-0.0530636 0.149358 -0.196968
-0.213834 0.191549 0.15995
-0.21814 0.191553 0.140275
-0.222421 0.191552 0.120593
0.0508115 0.135415 -0.201975
0.0966891 0.127844 -0.204044
0.232282 0.103716 -0.259314
0.202429 0.127968 0.210831
0.174151 0.132639 0.209518
-0.189537 0.191544 0.160393
-0.193754 0.191547 0.141124
-0.197971 0.19155 0.121855
-0.188007 0.188901 0.094704
-0.206405 0.191557 0.0833149
-0.210608 0.191558 0.0640404
-0.214793 0.191556 0.0447618
-0.221489 0.191552 0.0139171
-0.0658969 0.157921 -0.197037
0.133688 0.124291 -0.205969
0.170974 0.118008 -0.207638
0.0870039 0.150078 0.20578
0.068622 0.153177 0.204933
-0.168481 0.191951 0.161578
-0.170355 0.191542 0.141939
-0.175312 0.191545 0.119284
-0.185228 0.191553 0.0739706
-0.191838 0.191559 0.0437596
-0.19597 0.191562 0.0248769
-0.202552 0.191562 -0.00534175
-0.209113 0.191558 -0.0355635
-0.215674 0.191555 -0.065784
-0.223055 0.191551 -0.0997807
-0.0122643 0.151942 -0.199744
0.232334 0.109563 -0.219188
0.226585 0.108335 -0.278697
-0.164953 0.19365 0.120216
-0.165606 0.193019 0.100545
-0.166474 0.192433 0.081059
-0.168057 0.191982 0.0618652
-0.170559 0.191554 0.0390858
-0.174608 0.191557 0.0205774
-0.178658 0.191561 0.00206837
-0.183518 0.191565 -0.0201433
-0.187568 0.191568 -0.0386537
-0.192402 0.191567 -0.0608701
-0.196422 0.191565 -0.0793846
-0.19182 0.190036 -0.0986485
-0.205266 0.19156 -0.120115
-0.209285 0.191558 -0.138628
-0.214109 0.191555 -0.160843
0.0830953 0.138272 -0.204253
0.197995 0.118116 -0.209315
0.131571 0.148346 0.208413
-0.168013 0.191933 -0.0377071
-0.170754 0.191566 -0.0597859
-0.174726 0.19157 -0.0779377
-0.183435 0.191572 -0.117876
-0.188166 0.191569 -0.139661
-0.192108 0.191567 -0.157816
0.0303447 0.150436 -0.202221
0.232719 0.134793 0.25512
0.232708 0.134007 0.23507
0.152227 0.147544 0.209634
-0.166018 0.192813 -0.100892
-0.168746 0.191744 -0.140612
-0.171716 0.191578 -0.158465
0.117167 0.137514 -0.206278
0.218216 0.138336 0.212866
0.108268 0.158378 0.207953
-0.16218 0.20525 0.13534
-0.161781 0.198953 -0.0198933
0.152266 0.133601 -0.20805
0.232346 0.117647 -0.238329
-0.163297 0.210297 0.159832
-0.161858 0.203458 -0.00100677
-0.161967 0.198644 -0.11937
0.23095 0.143852 0.279616
0.166039 0.153398 0.211092
-0.163838 0.212597 0.119883
-0.163512 0.211051 0.0842096
-0.163333 0.210202 0.0646143
0.104289 0.147821 -0.206518
0.199087 0.14981 0.212813
-0.164723 0.21577 0.100298
-0.163941 0.212802 0.0337801
-0.163267 0.209615 -0.0384047
0.232347 0.123355 -0.259308
-0.164822 0.215924 0.0147818
-0.16317 0.20889 -0.140884
0.2272 0.128556 -0.212916
-0.167674 0.22579 0.141088
-0.165581 0.218505 -0.0154897
-0.165013 0.216417 -0.0605074
-0.164779 0.215559 -0.0790118
-0.164501 0.214538 -0.101024
0.169919 0.142448 -0.210026
0.22624 0.128008 -0.280817
0.232782 0.153008 0.26085
-0.169409 0.230933 0.16189
-0.167544 0.225218 0.042295
-0.165383 0.217579 -0.119132
-0.164874 0.215711 -0.158683
-0.240431 0.230946 -0.163907
0.232778 0.154668 0.24073
-0.170191 0.233158 0.121778
-0.169557 0.231217 0.0818623
-0.169244 0.230258 0.0621524
0.197 0.141608 -0.211612
-0.171417 0.236368 0.102168
-0.169024 0.229422 -0.0375585
-0.167943 0.226114 -0.104382
-0.171471 0.236372 0.0199459
-0.171094 0.235389 0.000683829
-0.168633 0.228073 -0.144217
0.154997 0.155379 -0.210404
0.232415 0.137621 -0.234092
-0.176121 0.247837 0.160061
-0.175549 0.246543 0.135485
-0.175077 0.245474 0.115199
-0.17235 0.238533 -0.0181498
-0.171523 0.236376 -0.0596894
-0.171152 0.235408 -0.0783237
-0.176281 0.24808 0.083614
-0.175251 0.245749 0.0401163
-0.240147 0.25029 -0.163914
0.215735 0.146733 -0.213282
-0.177758 0.251307 0.0642116
-0.173546 0.241387 -0.118564
0.179681 0.157191 -0.212109
0.232418 0.143296 -0.253039
-0.180823 0.257668 0.100784
-0.177143 0.249803 -0.0401489
-0.175673 0.246481 -0.100053
-0.174315 0.243264 -0.158382
-0.180363 0.256653 0.00623971
-0.176554 0.24836 -0.14023
-0.18752 0.270021 0.159729
-0.182034 0.259876 -0.0127164
-0.18036 0.256549 -0.0698462
0.232419 0.148793 -0.273807
-0.189487 0.273396 0.139802
-0.187387 0.269701 0.0785023
-0.186837 0.268733 0.0624345
-0.185748 0.266817 0.0306425
-0.181119 0.257966 -0.118037
-0.179923 0.255588 -0.158204
-0.240177 0.2697 -0.163913
-0.191695 0.276821 0.120031
-0.185778 0.266787 -0.0427195
-0.193915 0.280238 0.100337
-0.199891 0.28887 0.159631
-0.192844 0.278481 0.000766426
-0.189281 0.272789 -0.0876429
-0.187539 0.269726 -0.136022
-0.202505 0.292417 0.13969
-0.199679 0.288503 0.0816128
-0.19871 0.287137 0.0612511
-0.19775 0.285783 0.0410813
-0.195016 0.281822 -0.018288
-0.205399 0.296032 0.119891
-0.196266 0.283625 -0.0603984
-0.194106 0.280321 -0.109676
-0.240207 0.28911 -0.163913
-0.208285 0.299638 0.10014
-0.203711 0.293831 0.0185047
-0.198708 0.287006 -0.0791458
-0.21678 0.309325 0.160897
-0.215291 0.307702 0.139415
-0.206088 0.296791 -0.00866179
-0.204295 0.294515 -0.0401296
-0.199637 0.288255 -0.127949
-0.198522 0.286683 -0.150245
-0.216108 0.308588 0.0816696
-0.214743 0.307021 0.0609456
-0.213393 0.305469 0.0404313
-0.224478 0.317155 0.121175
-0.222829 0.315457 0.0998869
-0.211308 0.303025 -0.0585618
-0.208527 0.299777 -0.100994
-0.225166 0.317694 0.059254
-0.222066 0.314631 0.0220649
-0.217932 0.310376 -0.0303688
-0.21422 0.306322 -0.0813717
-0.240216 0.308516 -0.163912
-0.226286 0.318109 -0.00525713
-0.216062 0.308392 -0.119401
-0.21475 0.306885 -0.138361
-0.213193 0.305095 -0.160869
-0.225257 0.317523 -0.137847
