ply
format ascii 1.0
comment Created by Open3D
element vertex 1088
property double x
property double y
property double z
end_header
0.0898948 -0.42683 -0.205281
0.0899209 -0.426788 -0.176092
0.0899477 -0.426746 -0.146404
0.0899748 -0.426703 -0.116204
0.0677694 -0.423487 -0.213139
0.0900022 -0.426659 -0.085477
0.0899143 -0.414918 -0.183436
0.0900304 -0.426615 -0.0542107
0.0900198 -0.425214 -0.0659997
0.039822 -0.426645 -0.213163
0.090059 -0.42657 -0.0223903
0.0898948 -0.405034 -0.205281
0.090088 -0.426524 0.00999913
0.0899988 -0.41493 -0.0893471
0.0899409 -0.4074 -0.153874
0.0901214 -0.426958 0.0471366
0.0901102 -0.425517 0.0346739
0.0900269 -0.414783 -0.058149
0.089968 -0.407191 -0.123802
0.0677694 -0.404994 -0.213139
0.0104196 -0.426078 -0.213188
0.0901517 -0.426915 0.0807869
0.090052 -0.414175 -0.0303982
0.0901824 -0.426871 0.115056
0.090088 -0.414944 0.00999913
0.125348 -0.379122 -0.192834
0.119659 -0.37887 -0.213087
0.0902139 -0.426826 0.149962
0.125377 -0.379203 -0.16075
0.0898883 -0.386059 -0.212501
0.039822 -0.403891 -0.213163
0.0104196 -0.414404 -0.213188
-0.0205545 -0.425479 -0.213214
0.0902457 -0.42678 0.185522
0.0901707 -0.417489 0.102132
0.0900699 -0.404961 -0.0103118
0.0899885 -0.394867 -0.100907
0.125406 -0.379287 -0.128043
0.0902702 -0.425726 0.212632
0.0901824 -0.414958 0.115056
0.0901214 -0.407462 0.0471366
0.0901102 -0.406087 0.0346739
0.0900198 -0.394977 -0.0659997
0.125436 -0.379372 -0.094696
0.125426 -0.378137 -0.105884
0.0902337 -0.417223 0.172109
0.0902139 -0.414802 0.149962
0.0901517 -0.407241 0.0807869
0.125467 -0.379458 -0.0606889
-0.0532296 -0.424848 -0.213242
0.125495 -0.379126 -0.0298906
0.125351 -0.361871 -0.189299
0.125333 -0.359587 -0.210396
0.090114 -0.394873 0.0388187
0.125527 -0.379212 0.00541729
0.125516 -0.377942 -0.00643083
0.125384 -0.362174 -0.153536
0.0943187 -0.366359 -0.21311
0.0677248 -0.375421 -0.213133
0.039822 -0.384929 -0.213163
0.0104196 -0.394949 -0.213188
-0.0205545 -0.405504 -0.213214
0.0902498 -0.40703 0.190014
0.0901669 -0.397248 0.0978432
0.0901439 -0.394538 0.0723171
0.125559 -0.379299 0.0414443
0.12541 -0.361701 -0.12437
-0.0877496 -0.424182 -0.213271
0.0902702 -0.405357 0.212632
0.13596 -0.379367 0.110879
0.125592 -0.379389 0.0782126
0.125577 -0.377662 0.0617782
0.12544 -0.361613 -0.0909504
0.135993 -0.379499 0.148804
0.135978 -0.377736 0.131851
0.125474 -0.361923 -0.0530403
0.0677248 -0.364325 -0.213133
-0.0205544 -0.393519 -0.213214
-0.0532296 -0.404324 -0.213242
0.136024 -0.379187 0.183191
0.125506 -0.361836 -0.0181999
0.125336 -0.342406 -0.206898
-0.124276 -0.423476 -0.213302
0.136047 -0.37797 0.209409
0.12553 -0.360936 0.00938427
0.125354 -0.341049 -0.185757
0.125578 -0.362479 0.061778
0.12556 -0.360429 0.0414441
0.125387 -0.341129 -0.149918
0.0943187 -0.344702 -0.21311
0.135963 -0.36072 0.115054
0.1256 -0.36115 0.0864862
0.12546 -0.345702 -0.0683042
0.12542 -0.341211 -0.113302
0.125371 -0.335759 -0.167933
0.136005 -0.361501 0.161624
0.135986 -0.359396 0.140308
0.12544 -0.339808 -0.0909504
0.039782 -0.354603 -0.213158
0.0103847 -0.363831 -0.213183
-0.0205836 -0.373553 -0.213211
-0.0532296 -0.3838 -0.213242
-0.0877496 -0.394637 -0.213271
0.136047 -0.362303 0.209409
0.136031 -0.360592 0.191889
0.125513 -0.344046 -0.0103627
0.125495 -0.342138 -0.0298907
0.125478 -0.340251 -0.0492033
0.12553 -0.342234 0.00938427
0.12546 -0.334727 -0.0683042
0.125345 -0.322353 -0.196361
-0.124276 -0.397416 -0.213302
0.125556 -0.341172 0.037405
0.125407 -0.32536 -0.128043
0.125364 -0.320864 -0.175085
0.0677248 -0.334735 -0.213133
0.135971 -0.342426 0.123433
0.1256 -0.342041 0.0864862
0.125589 -0.340869 0.0740898
0.125433 -0.324563 -0.0984335
0.125387 -0.319697 -0.149918
0.136005 -0.34217 0.161624
0.0103847 -0.344375 -0.213183
-0.0205836 -0.353576 -0.213211
-0.0877652 -0.373538 -0.21327
-0.124276 -0.384386 -0.213302
0.136031 -0.3411 0.191889
0.135986 -0.336334 0.140308
0.125478 -0.321859 -0.0492033
0.125407 -0.314574 -0.128043
0.0943187 -0.315826 -0.21311
0.136047 -0.338802 0.209409
0.125545 -0.324991 0.025342
0.125509 -0.321371 -0.0142857
0.125499 -0.3203 -0.0260024
-0.0532522 -0.355073 -0.213239
0.125527 -0.319434 0.0054172
0.12545 -0.311752 -0.0796644
0.125377 -0.304431 -0.16075
0.125358 -0.302493 -0.182207
0.125342 -0.300898 -0.199881
0.039782 -0.324263 -0.213158
0.135986 -0.324802 0.140308
0.13596 -0.322176 0.110879
0.125608 -0.323674 0.0947979
0.125585 -0.321459 0.0699765
0.0943187 -0.304998 -0.21311
0.136001 -0.32246 0.157341
0.125567 -0.315854 0.04955
0.125423 -0.30182 -0.109597
0.0103847 -0.324919 -0.213183
-0.0205836 -0.3336 -0.213211
0.136031 -0.321609 0.191889
0.125492 -0.304812 -0.0337704
0.0677248 -0.305145 -0.213133
0.136047 -0.319218 0.209409
0.125481 -0.30012 -0.0453579
0.125397 -0.292059 -0.139016
-0.0532522 -0.334549 -0.213239
-0.0877652 -0.343992 -0.21327
-0.124283 -0.353985 -0.213302
0.12557 -0.304852 0.0536168
0.12553 -0.301091 0.00938427
0.125333 -0.282407 -0.210396
0.125608 -0.304522 0.0947979
0.125585 -0.302438 0.0699765
0.125513 -0.295693 -0.0103627
0.125454 -0.290192 -0.0758859
0.125371 -0.282464 -0.167933
0.125351 -0.28067 -0.189299
0.0677248 -0.294049 -0.213133
0.136012 -0.304219 0.17022
0.135978 -0.301038 0.131851
0.13596 -0.299299 0.110879
0.125545 -0.294934 0.025342
-0.0205836 -0.313624 -0.213211
0.136031 -0.302117 0.191889
0.125426 -0.280437 -0.105884
0.039782 -0.293922 -0.213158
0.136047 -0.299635 0.209409
0.135993 -0.294738 0.148804
0.125516 -0.284853 -0.00643095
0.125478 -0.281397 -0.0492033
0.0943187 -0.276123 -0.21311
-0.0532522 -0.314024 -0.213239
0.125437 -0.274091 -0.094696
0.1254 -0.270849 -0.135366
0.0103847 -0.293789 -0.213183
0.125563 -0.281491 0.0454925
0.125499 -0.275866 -0.0260024
0.125457 -0.272239 -0.0720992
0.125345 -0.262463 -0.196361
-0.0877652 -0.314447 -0.21327
-0.124283 -0.323581 -0.213302
0.136012 -0.284842 0.17022
0.135978 -0.281864 0.131851
0.13596 -0.280236 0.110879
0.1256 -0.280894 0.0864862
0.125589 -0.279932 0.0740898
0.125527 -0.274602 0.0054172
0.12541 -0.264528 -0.12437
0.125374 -0.261425 -0.164345
0.125364 -0.260591 -0.175085
-0.0205836 -0.293648 -0.213211
0.136027 -0.282292 0.187535
0.039782 -0.274959 -0.213158
0.136047 -0.280051 0.209409
0.125499 -0.264757 -0.0260024
0.0677248 -0.264459 -0.213133
-0.0532522 -0.2935 -0.213239
0.125545 -0.264877 0.025342
0.125509 -0.261926 -0.0142857
0.125481 -0.259613 -0.0453579
0.125393 -0.252369 -0.142657
0.0943187 -0.254466 -0.21311
0.0103847 -0.274333 -0.213183
-0.0877652 -0.293343 -0.21327
0.135974 -0.262384 0.127637
0.13596 -0.261172 0.110879
0.1256 -0.261786 0.0864862
0.125589 -0.260889 0.0740898
0.125563 -0.25882 0.0454925
0.125454 -0.25004 -0.0758859
0.125358 -0.242348 -0.182207
0.125342 -0.24107 -0.199881
-0.0205836 -0.273672 -0.213211
0.136039 -0.263757 0.200628
0.13602 -0.262205 0.178857
0.136005 -0.260977 0.161624
0.125374 -0.240084 -0.164345
-0.124283 -0.293178 -0.213302
0.125474 -0.244344 -0.0530403
0.125426 -0.240633 -0.105884
0.125527 -0.244713 0.0054172
0.125516 -0.243893 -0.00643095
0.0103847 -0.254876 -0.213183
0.12557 -0.24426 0.0536168
0.125447 -0.234925 -0.0834346
0.1254 -0.231387 -0.135366
0.039782 -0.244619 -0.213158
-0.0532522 -0.264766 -0.213239
0.135993 -0.244652 0.148804
0.135963 -0.242388 0.115054
0.125596 -0.242399 0.0823446
0.125499 -0.235134 -0.0260024
0.0677248 -0.234869 -0.213133
-0.0205836 -0.253696 -0.213211
0.136039 -0.24422 0.200628
0.125545 -0.23482 0.025342
0.12541 -0.224938 -0.12437
0.125374 -0.2223 -0.164345
0.125364 -0.221591 -0.175085
0.125339 -0.219723 -0.203393
0.0943187 -0.22559 -0.21311
-0.0877652 -0.263798 -0.21327
0.13602 -0.238898 0.178857
-0.124283 -0.267117 -0.213302
0.125615 -0.232277 0.103148
0.125464 -0.221565 -0.0645007
0.125509 -0.221058 -0.0142857
0.125488 -0.219591 -0.0376414
0.0943187 -0.214762 -0.21311
-0.0532522 -0.244241 -0.213239
0.135986 -0.224863 0.140308
0.125563 -0.221036 0.0454925
0.125397 -0.209637 -0.139016
-0.0205836 -0.23372 -0.213211
-0.124283 -0.254087 -0.213302
0.136039 -0.224682 0.200628
0.136005 -0.222314 0.161624
0.135967 -0.21974 0.119239
0.125589 -0.218994 0.0740898
0.125527 -0.214824 0.0054172
0.125342 -0.202358 -0.199881
0.0103847 -0.223746 -0.213183
0.13602 -0.219476 0.178857
0.12545 -0.206012 -0.0796644
0.125377 -0.201174 -0.16075
0.125361 -0.200106 -0.17865
0.039782 -0.214279 -0.213158
0.1256 -0.212104 0.0864862
0.125481 -0.204376 -0.0453579
0.125433 -0.201265 -0.0984335
0.12541 -0.199745 -0.12437
0.0677248 -0.20528 -0.213133
-0.0877652 -0.234253 -0.21327
0.125545 -0.204763 0.025342
0.125509 -0.202482 -0.0142857
0.125492 -0.201361 -0.0337704
-0.0532522 -0.223717 -0.213239
0.125563 -0.202144 0.0454925
0.125447 -0.19486 -0.0834346
0.125397 -0.19172 -0.139016
-0.0205836 -0.213744 -0.213211
0.135986 -0.2018 0.140308
0.135967 -0.200632 0.119239
0.125589 -0.199951 0.0740898
0.0677248 -0.194183 -0.213133
0.0103847 -0.20429 -0.213183
0.136047 -0.201715 0.209409
0.136031 -0.200762 0.191889
0.136005 -0.199116 0.161624
0.125361 -0.182397 -0.17865
0.125342 -0.181242 -0.199881
0.0943187 -0.185886 -0.21311
-0.124283 -0.223684 -0.213302
0.12542 -0.18234 -0.113302
0.125377 -0.17981 -0.16075
0.1256 -0.189174 0.0864862
0.12553 -0.185143 0.00938427
0.125474 -0.18188 -0.0530403
0.125582 -0.184296 0.0658726
0.125545 -0.18222 0.025342
0.125513 -0.180391 -0.0103627
0.125492 -0.179193 -0.0337704
0.039782 -0.183938 -0.213158
-0.0205836 -0.193768 -0.213211
-0.0877652 -0.204707 -0.21327
0.136012 -0.184082 0.17022
0.135982 -0.182369 0.136074
0.135971 -0.181735 0.123433
0.125563 -0.179474 0.0454925
0.125437 -0.172442 -0.094696
0.1254 -0.170402 -0.135366
0.0103847 -0.184834 -0.213183
-0.0532522 -0.194982 -0.213239
0.136047 -0.182131 0.209409
0.136031 -0.18127 0.191889
0.125608 -0.174286 0.0947979
0.125426 -0.164643 -0.105884
0.125374 -0.161834 -0.164345
0.125364 -0.161318 -0.175085
0.125339 -0.159958 -0.203393
0.0943187 -0.16423 -0.21311
0.125527 -0.166255 0.0054172
0.125488 -0.164232 -0.0376414
0.0677248 -0.164594 -0.213133
-0.124283 -0.19328 -0.213302
0.12557 -0.164733 0.0536168
0.125516 -0.161975 -0.00643095
0.039782 -0.164976 -0.213158
-0.0205836 -0.173792 -0.213211
-0.0877652 -0.183603 -0.21327
0.136012 -0.164705 0.17022
0.135993 -0.163743 0.148804
0.135967 -0.162416 0.119239
0.125589 -0.161865 0.0740898
0.125545 -0.159677 0.025342
0.125467 -0.155816 -0.060689
0.12545 -0.154965 -0.0796644
0.1254 -0.152465 -0.135366
-0.0532522 -0.174458 -0.213239
0.136031 -0.161779 0.191889
0.136047 -0.15863 0.209409
0.125339 -0.14238 -0.203393
0.1256 -0.150957 0.0864862
0.125464 -0.144658 -0.0645007
0.125416 -0.142468 -0.117
0.125374 -0.140494 -0.164345
0.125364 -0.140045 -0.175085
0.0103847 -0.153704 -0.213183
0.125538 -0.144324 0.0173452
-0.0205836 -0.153816 -0.213211
-0.124283 -0.16722 -0.213302
0.135993 -0.144479 0.148804
0.12557 -0.142012 0.0536168
0.125516 -0.139634 -0.00643095
0.125499 -0.138859 -0.0260024
0.125393 -0.134239 -0.142657
0.0943187 -0.135354 -0.21311
-0.0532522 -0.153934 -0.213239
0.136031 -0.142288 0.191889
0.135978 -0.139973 0.131851
0.13596 -0.139165 0.110879
0.125589 -0.139014 0.0740898
0.0677248 -0.135004 -0.213133
-0.0877652 -0.154058 -0.21327
0.136047 -0.139046 0.209409
0.12545 -0.129441 -0.0796644
0.039782 -0.134635 -0.213158
-0.124283 -0.15419 -0.213302
0.136012 -0.133701 0.17022
0.1256 -0.131848 0.0864862
0.125433 -0.125111 -0.0984335
0.125367 -0.122448 -0.171513
0.125351 -0.1218 -0.189299
0.125333 -0.121032 -0.210396
0.0943187 -0.124526 -0.21311
0.0103847 -0.134248 -0.213183
0.125513 -0.1246 -0.0103627
0.125413 -0.120697 -0.120689
0.0677248 -0.123907 -0.213133
-0.0205836 -0.13384 -0.213211
0.125552 -0.122382 0.0333749
0.125527 -0.121422 0.0054172
0.125481 -0.11968 -0.0453579
-0.0532522 -0.133409 -0.213239
0.135986 -0.12108 0.140308
0.135967 -0.120379 0.119239
0.125589 -0.119971 0.0740898
0.12557 -0.11929 0.0536168
0.125495 -0.116512 -0.0298907
0.125447 -0.114731 -0.0834346
0.125384 -0.112399 -0.153536
0.136047 -0.119462 0.209409
0.136031 -0.118898 0.191889
0.136012 -0.114324 0.17022
0.0103847 -0.114792 -0.213183
-0.0877652 -0.124513 -0.21327
0.125478 -0.104834 -0.0492033
0.125364 -0.101045 -0.175085
0.125339 -0.100194 -0.203393
-0.0205836 -0.113864 -0.213211
-0.124283 -0.123786 -0.213302
0.125608 -0.105338 0.0947979
0.125585 -0.104617 0.0699765
0.125563 -0.103906 0.0454925
0.125509 -0.10217 -0.0142857
0.125492 -0.101604 -0.0337704
0.125426 -0.0995097 -0.105884
0.039782 -0.104295 -0.213158
0.135986 -0.101861 0.140308
0.135967 -0.101271 0.119239
0.125527 -0.099006 0.0054172
0.125393 -0.0948621 -0.142657
0.0943187 -0.0956503 -0.21311
0.136047 -0.0998782 0.209409
0.136031 -0.0994063 0.191889
0.125545 -0.0958065 0.025342
0.125374 -0.0906983 -0.164345
0.0677248 -0.0943176 -0.213133
-0.0532522 -0.104675 -0.213239
0.136012 -0.0949474 0.17022
0.125608 -0.0938464 0.0947979
0.12546 -0.0896264 -0.0683042
-0.0877652 -0.103409 -0.21327
0.12544 -0.0854062 -0.0909504
0.125333 -0.0824419 -0.210396
0.0943187 -0.0848219 -0.21311
-0.0205836 -0.0938875 -0.213211
0.125549 -0.0846305 0.0293539
0.125516 -0.0837802 -0.00643095
0.125423 -0.0813288 -0.109597
0.125361 -0.079688 -0.17865
0.136039 -0.0840116 0.200628
0.135978 -0.0824499 0.131851
0.13596 -0.0819737 0.110879
0.125582 -0.0816983 0.0658726
0.125563 -0.0812355 0.0454925
0.12553 -0.0804157 0.00938427
0.125492 -0.0794359 -0.0337704
0.0103847 -0.0836617 -0.213183
-0.124283 -0.0933825 -0.213302
0.125481 -0.0754903 -0.0453579
0.125454 -0.0748294 -0.0758859
-0.0532522 -0.0841503 -0.213239
0.135993 -0.0751293 0.148804
0.125608 -0.0746941 0.0947979
0.125387 -0.0696547 -0.149918
0.039782 -0.0739546 -0.213158
0.13602 -0.0718637 0.178857
-0.0205836 -0.0739115 -0.213211
0.125499 -0.0648006 -0.0260024
0.125481 -0.0644429 -0.0453579
0.125364 -0.0620455 -0.175085
0.125339 -0.0615223 -0.203393
0.0677248 -0.0647278 -0.213133
-0.0877652 -0.0738634 -0.21327
0.136039 -0.064474 0.200628
0.125563 -0.0623435 0.0454925
0.125538 -0.0618531 0.0173452
0.125509 -0.0613019 -0.0142857
0.125433 -0.0598357 -0.0984335
0.0103847 -0.0642055 -0.213183
0.136005 -0.059928 0.161624
0.135986 -0.0595791 0.140308
0.135967 -0.0592342 0.119239
0.125582 -0.0588988 0.0658726
0.125413 -0.055845 -0.120689
0.0943187 -0.0559464 -0.21311
-0.0532522 -0.0636259 -0.213239
-0.124283 -0.0673223 -0.213302
0.125397 -0.0519614 -0.139016
0.125377 -0.0516286 -0.16075
0.039782 -0.0549919 -0.213158
0.13602 -0.0524411 0.178857
0.1256 -0.0515928 0.0864862
0.125447 -0.0491703 -0.0834346
-0.0205836 -0.0539354 -0.213211
0.12541 -0.0449877 -0.12437
-0.124283 -0.0542921 -0.213302
0.136039 -0.0449365 0.200628
0.135993 -0.044307 0.148804
0.125589 -0.0437989 0.0740898
0.125492 -0.042489 -0.0337704
0.125464 -0.0421157 -0.0645007
0.125364 -0.0407727 -0.175085
0.125339 -0.040429 -0.203393
0.0103847 -0.0447493 -0.213183
0.135978 -0.0402663 0.131851
0.13596 -0.0400337 0.110879
0.125563 -0.0396732 0.0454925
0.125538 -0.0393611 0.0173452
0.125509 -0.0390103 -0.0142857
-0.0877652 -0.0443181 -0.21327
0.125454 -0.0346771 -0.0758859
0.0943187 -0.0342897 -0.21311
0.0677248 -0.0351379 -0.213133
0.1256 -0.0324843 0.0864862
0.1254 -0.0304929 -0.135366
0.125374 -0.0302328 -0.164345
-0.0205836 -0.0339593 -0.213211
-0.0532522 -0.0348916 -0.213239
0.13602 -0.0291339 0.178857
0.125589 -0.0247559 0.0740898
0.12557 -0.0246153 0.0536168
0.125545 -0.0244213 0.025342
0.125527 -0.0242845 0.0054172
0.125516 -0.0242032 -0.00643095
0.125499 -0.0240688 -0.0260024
0.125481 -0.0239359 -0.0453579
0.0677248 -0.0240417 -0.213133
0.039782 -0.0246515 -0.213158
0.136047 -0.0215423 0.209409
0.136005 -0.0212648 0.161624
0.135986 -0.021141 0.140308
0.135967 -0.0210186 0.119239
0.125426 -0.0199019 -0.105884
0.125364 -0.0195 -0.175085
0.125339 -0.0193356 -0.203393
-0.124283 -0.0238885 -0.213302
0.125384 -0.0124887 -0.153536
0.0103847 -0.0136194 -0.213183
-0.0205836 -0.0139833 -0.213211
-0.0532522 -0.0143671 -0.213239
-0.0877652 -0.0147727 -0.21327
0.154938 -0.00959342 0.194316
0.1256 -0.00955423 0.0864862
0.125447 -0.00910561 -0.0834346
0.0943187 -0.00541418 -0.21311
0.136047 -0.00195841 0.209409
0.136005 -0.00193317 0.161624
0.135986 -0.00192192 0.140308
0.135967 -0.00191079 0.119239
0.125582 -0.00189997 0.0658726
0.125563 -0.00188921 0.0454925
0.125538 -0.00187435 0.0173452
0.125509 -0.00185765 -0.0142857
0.125492 -0.00184736 -0.0337704
0.125464 -0.00183113 -0.0645007
0.125426 -0.00180928 -0.105884
0.125364 -0.00177274 -0.175085
0.125339 -0.00175779 -0.203393
0.125608 0.00574568 0.0947979
0.125454 0.0054753 -0.0758859
0.0943187 0.00541415 -0.21311
0.0677248 0.00554808 -0.213133
0.039782 0.0056888 -0.213158
0.0103847 0.00583684 -0.213183
-0.0205836 0.0059928 -0.213211
-0.0532522 0.00615732 -0.213239
-0.0877652 0.00633113 -0.21327
-0.124283 0.00651504 -0.213302
0.154937 0.00959342 0.194316
0.1254 0.00896851 -0.135366
0.125374 0.008892 -0.164345
0.136047 0.0176256 0.209409
0.136005 0.0212648 0.161624
0.135986 0.021141 0.140308
0.135967 0.0210186 0.119239
0.125582 0.0208996 0.0658726
0.125563 0.0207812 0.0454925
0.125538 0.0206177 0.0173452
0.125509 0.020434 -0.0142857
0.125492 0.0203208 -0.0337704
0.125464 0.0201423 -0.0645007
0.125426 0.019902 -0.105884
0.125364 0.0195 -0.175085
0.125339 0.0193356 -0.203393
0.0103847 0.0252931 -0.213183
-0.0205836 0.0259689 -0.213211
0.136031 0.0292372 0.191889
0.1256 0.0286627 0.0864862
-0.124283 0.0325753 -0.213302
0.125447 0.0309591 -0.0834346
0.1254 0.0304929 -0.135366
0.125374 0.0302328 -0.164345
-0.0532522 0.0348916 -0.213239
-0.0877652 0.0358765 -0.21327
0.125589 0.0361817 0.0740898
0.12557 0.0359763 0.0536168
0.125545 0.0356926 0.025342
0.125527 0.0354927 0.0054172
0.125516 0.0353739 -0.00643095
0.125499 0.0351775 -0.0260024
0.0943187 0.0342897 -0.21311
0.0677248 0.0351379 -0.213133
0.039782 0.0360292 -0.213158
0.136047 0.0411263 0.209409
0.136005 0.0405964 0.161624
0.135986 0.04036 0.140308
0.135967 0.0401264 0.119239
0.125464 0.0384535 -0.0645007
0.125426 0.0379946 -0.105884
-0.124283 0.0456054 -0.213302
0.125364 0.0407727 -0.175085
0.125339 0.040429 -0.203393
-0.0205836 0.045945 -0.213211
0.136031 0.0487286 0.191889
0.1256 0.0477711 0.0864862
0.125454 0.0456277 -0.0758859
0.0943187 0.045118 -0.21311
0.1254 0.0484299 -0.135366
0.125374 0.0480168 -0.164345
0.0103847 0.0525318 -0.213183
-0.0532522 0.0554161 -0.213239
0.136012 0.0561934 0.17022
0.135993 0.0558654 0.148804
0.125589 0.0552247 0.0740898
0.136047 0.0607103 0.209409
0.135978 0.0594406 0.131851
0.13596 0.0590973 0.110879
0.125563 0.0585652 0.0454925
0.125538 0.0581044 0.0173452
0.125509 0.0575867 -0.0142857
0.12542 0.0559659 -0.113302
-0.0877652 0.0654219 -0.21327
0.125492 0.0609624 -0.0337704
0.125464 0.0604269 -0.0645007
0.125364 0.0585 -0.175085
0.125339 0.0580068 -0.203393
0.039782 0.062577 -0.213158
-0.0205836 0.0659211 -0.213211
0.136031 0.06822 0.191889
0.0677248 0.0647278 -0.213133
-0.124283 0.076009 -0.213302
0.1256 0.0707012 0.0864862
-0.0532522 0.0759406 -0.213239
0.136012 0.0755703 0.17022
0.135993 0.0751293 0.148804
0.125447 0.0710237 -0.0834346
0.1254 0.0699543 -0.135366
0.125374 0.0693575 -0.164345
0.0103847 0.0758792 -0.213183
0.136047 0.0802942 0.209409
0.135978 0.0786151 0.131851
0.13596 0.078161 0.110879
0.125582 0.0778984 0.0658726
0.125499 0.0759093 -0.0260024
0.125481 0.0754903 -0.0453579
0.0943187 0.0739936 -0.21311
0.0677248 0.075824 -0.213133
-0.0877652 0.0865257 -0.21327
0.125563 0.0812355 0.0454925
0.125538 0.0805964 0.0173452
0.125509 0.0798782 -0.0142857
0.125426 0.0777985 -0.105884
-0.0205836 0.0858971 -0.213211
0.136031 0.0877115 0.191889
0.125608 0.0861855 0.0947979
0.125364 0.0797727 -0.175085
0.125339 0.0791001 -0.203393
0.039782 0.0853322 -0.213158
0.125454 0.0857801 -0.0758859
-0.0532522 0.096465 -0.213239
0.1254 0.0878913 -0.135366
0.0103847 0.0953354 -0.213183
-0.124283 0.106413 -0.213302
0.136047 0.0998782 0.209409
0.136005 0.0985913 0.161624
0.135986 0.0980172 0.140308
0.125619 0.0980146 0.107337
0.125556 0.0961313 0.037405
0.125527 0.0952699 0.0054172
0.125374 0.0906984 -0.164345
0.125582 0.100698 0.0658726
0.125509 0.0984546 -0.0142857
0.125492 0.0979093 -0.0337704
0.12542 0.0956836 -0.113302
0.0943187 0.0956503 -0.21311
-0.0205836 0.105873 -0.213211
0.125608 0.105338 0.0947979
0.125464 0.100712 -0.0645007
0.125364 0.0975 -0.175085
-0.0877652 0.116071 -0.21327
0.136031 0.111101 0.191889
0.125339 0.100193 -0.203393
0.0677248 0.105414 -0.213133
0.136047 0.119462 0.209409
0.136005 0.117923 0.161624
0.125589 0.116162 0.0740898
0.12557 0.115503 0.0536168
0.125447 0.111088 -0.0834346
0.1254 0.109416 -0.135366
0.125374 0.108482 -0.164345
0.039782 0.115673 -0.213158
-0.0532522 0.125199 -0.213239
0.135986 0.12108 0.140308
0.135967 0.120379 0.119239
0.125538 0.118083 0.0173452
0.125481 0.115997 -0.0453579
0.0103847 0.122574 -0.213183
-0.0205836 0.125849 -0.213211
-0.124283 0.136816 -0.213302
0.125509 0.120746 -0.0142857
0.125492 0.120077 -0.0337704
0.125426 0.117602 -0.105884
0.136031 0.130593 0.191889
0.1256 0.128027 0.0864862
0.125364 0.118773 -0.175085
0.125339 0.117771 -0.203393
0.125454 0.125932 -0.0758859
0.0943187 0.124526 -0.21311
-0.0877652 0.145616 -0.21327
0.136047 0.139046 0.209409
0.125589 0.135205 0.0740898
-0.0532522 0.145724 -0.213239
0.136005 0.141121 0.161624
0.135986 0.140299 0.140308
0.135967 0.139487 0.119239
0.125563 0.137912 0.0454925
0.125516 0.13591 -0.00643095
0.125499 0.135156 -0.0260024
0.1254 0.13094 -0.135366
0.125374 0.129823 -0.164345
0.0677248 0.135004 -0.213133
-0.0205836 0.145825 -0.213211
0.125538 0.140575 0.0173452
0.12542 0.135401 -0.113302
0.0943187 0.135354 -0.21311
0.0103847 0.145922 -0.213183
-0.124283 0.162876 -0.213302
0.136031 0.150084 0.191889
0.125464 0.140996 -0.0645007
0.039782 0.146013 -0.213158
0.1256 0.150957 0.0864862
0.125364 0.140045 -0.175085
0.125339 0.138865 -0.203393
-0.0877652 0.16672 -0.21327
0.136047 0.15863 0.209409
0.135993 0.156038 0.148804
0.125447 0.147511 -0.0834346
-0.0532522 0.166248 -0.213239
-0.124283 0.175907 -0.213302
0.135978 0.159148 0.131851
0.13596 0.158228 0.110879
0.125582 0.157697 0.0658726
0.125545 0.15592 0.025342
0.125527 0.155047 0.0054172
0.1254 0.148877 -0.135366
0.125374 0.147607 -0.164345
-0.0205836 0.165801 -0.213211
0.136012 0.164705 0.17022
0.125563 0.160582 0.0454925
0.125509 0.157899 -0.0142857
0.125474 0.156159 -0.0530403
0.0103847 0.165378 -0.213183
0.136031 0.169576 0.191889
0.125492 0.160719 -0.0337704
0.1256 0.170065 0.0864862
0.125426 0.161025 -0.105884
0.125364 0.157773 -0.175085
0.0677248 0.164593 -0.213133
0.136047 0.178214 0.209409
0.136012 0.176331 0.17022
0.135993 0.175302 0.148804
0.125454 0.166085 -0.0758859
0.125339 0.159958 -0.203393
0.0943187 0.16423 -0.21311
0.039782 0.172561 -0.213158
0.135978 0.178322 0.131851
0.125619 0.178732 0.107337
0.12557 0.176094 0.0536168
-0.0205836 0.185777 -0.213211
-0.0877652 0.196266 -0.21327
0.125582 0.180496 0.0658726
0.125538 0.178062 0.0173452
0.125499 0.175888 -0.0260024
0.1254 0.170402 -0.135366
0.125374 0.168948 -0.164345
0.0677248 0.17569 -0.213133
-0.0532522 0.194982 -0.213239
-0.124283 0.20631 -0.213302
0.136031 0.189067 0.191889
0.125608 0.185778 0.0947979
0.125509 0.18019 -0.0142857
0.125464 0.177619 -0.0645007
0.12542 0.175119 -0.113302
0.0943187 0.175058 -0.21311
0.0103847 0.192616 -0.213183
0.136047 0.197798 0.209409
0.136012 0.195708 0.17022
0.125364 0.179046 -0.175085
0.125339 0.177536 -0.203393
0.135986 0.197956 0.140308
0.125619 0.197951 0.107337
0.125589 0.196143 0.0740898
0.12557 0.195029 0.0536168
0.125447 0.187576 -0.0834346
0.0397819 0.195316 -0.213157
-0.0205836 0.205754 -0.213211
0.125527 0.196144 0.0054172
0.125516 0.195487 -0.00643095
0.1254 0.188339 -0.135366
-0.0532522 0.215507 -0.213239
0.136031 0.208558 0.191889
0.125492 0.197666 -0.0337704
0.125374 0.190289 -0.164345
-0.0877652 0.225811 -0.21327
0.1256 0.208282 0.0864862
0.125545 0.204763 0.025342
0.125464 0.199592 -0.0645007
-0.124283 0.236714 -0.213302
0.136012 0.215085 0.17022
0.125426 0.200829 -0.105884
0.0677248 0.20528 -0.213133
0.0103847 0.215964 -0.213183
0.136047 0.221299 0.209409
0.125589 0.215186 0.0740898
0.125364 0.200318 -0.175085
0.125339 0.198629 -0.203393
0.0943187 0.203934 -0.21311
-0.0205836 0.22573 -0.213211
0.135986 0.221019 0.140308
0.135967 0.21974 0.119239
0.125545 0.216034 0.025342
0.125447 0.209429 -0.0834346
-0.0532522 0.236031 -0.213239
0.136031 0.22805 0.191889
0.125563 0.221036 0.0454925
0.125481 0.215424 -0.0453579
0.1254 0.209863 -0.135366
0.125374 0.208073 -0.164345
0.125509 0.221058 -0.0142857
0.125492 0.219834 -0.0337704
0.0397819 0.225656 -0.213157
0.1256 0.231212 0.0864862
0.125527 0.226033 0.0054172
0.125426 0.218921 -0.105884
0.0103847 0.23542 -0.213183
-0.0877652 0.255356 -0.21327
-0.124283 0.262774 -0.213302
0.136047 0.240883 0.209409
0.136005 0.237779 0.161624
0.125364 0.218046 -0.175085
-0.0205836 0.245706 -0.213211
0.135986 0.240238 0.140308
0.135967 0.238848 0.119239
0.125556 0.235616 0.037405
0.125447 0.22764 -0.0834346
0.125339 0.219723 -0.203393
0.0943187 0.22559 -0.21311
-0.0532522 0.256556 -0.213239
0.136031 0.247541 0.191889
0.125582 0.241295 0.0658726
0.125499 0.235134 -0.0260024
0.1254 0.2278 -0.135366
0.0677248 0.234869 -0.213133
-0.124283 0.275804 -0.213302
0.125509 0.239635 -0.0142857
0.125374 0.229413 -0.164345
0.1256 0.250321 0.0864862
0.125464 0.239877 -0.0645007
0.12541 0.235735 -0.12437
-0.0877652 0.27646 -0.21327
0.136047 0.260467 0.209409
0.135993 0.25621 0.148804
0.125538 0.249287 0.0173452
0.0677248 0.245966 -0.213133
-0.0205836 0.265682 -0.213211
0.135978 0.258854 0.131851
0.125619 0.25945 0.107337
0.12557 0.255621 0.0536168
0.125364 0.239318 -0.175085
0.119659 0.237895 -0.213087
0.0397819 0.255997 -0.213157
0.0103847 0.262659 -0.213183
0.136012 0.265465 0.17022
0.125582 0.260295 0.0658726
0.125516 0.255064 -0.00643095
0.125447 0.249494 -0.0834346
0.136031 0.270931 0.191889
0.125608 0.266217 0.0947979
0.125481 0.255931 -0.0453579
0.1254 0.249324 -0.135366
-0.0532522 0.28529 -0.213239
0.125492 0.260476 -0.0337704
0.125374 0.250754 -0.164345
0.0943187 0.254466 -0.21311
-0.124283 0.306208 -0.213302
0.136047 0.280051 0.209409
0.135993 0.275474 0.148804
0.125538 0.26803 0.0173452
0.125426 0.258725 -0.105884
-0.0205836 0.285658 -0.213211
0.135978 0.278029 0.131851
0.125619 0.278669 0.107337
0.125589 0.276123 0.0740898
-0.0877652 0.306006 -0.21327
0.125563 0.277712 0.0454925
0.125447 0.267705 -0.0834346
0.125364 0.260591 -0.175085
0.125339 0.258394 -0.203393
0.0943187 0.265294 -0.21311
0.0103847 0.286006 -0.213183
0.136031 0.290422 0.191889
0.125608 0.28537 0.0947979
0.125499 0.275866 -0.0260024
0.0677248 0.275555 -0.213133
0.0397819 0.282545 -0.213157
-0.0532522 0.305815 -0.213239
0.136012 0.292593 0.17022
0.125509 0.280503 -0.0142857
0.1254 0.270849 -0.135366
0.125374 0.268538 -0.164345
0.136047 0.299635 0.209409
0.125527 0.28581 0.0054172
0.125464 0.280161 -0.0645007
0.12541 0.275325 -0.12437
-0.0205836 0.305634 -0.213211
0.135986 0.297895 0.140308
0.125619 0.297887 0.107337
0.125589 0.295166 0.0740898
-0.124283 0.336611 -0.213302
0.125556 0.295934 0.037405
0.125364 0.278318 -0.175085
0.0103847 0.305462 -0.213183
0.136031 0.309914 0.191889
0.125516 0.296023 -0.00643095
0.125447 0.289558 -0.0834346
0.125339 0.279487 -0.203393
-0.0532522 0.326339 -0.213239
-0.0877652 0.335551 -0.21327
0.136005 0.311239 0.161624
0.1256 0.307646 0.0864862
0.125474 0.295784 -0.0530403
0.1254 0.288786 -0.135366
0.0397819 0.3053 -0.213157
0.136047 0.319218 0.209409
0.125492 0.301117 -0.0337704
0.125374 0.289879 -0.164345
0.0943187 0.29417 -0.21311
-0.0205836 0.32561 -0.213211
0.125538 0.309265 0.0173452
0.125426 0.298529 -0.105884
0.0677248 0.305145 -0.213133
0.135986 0.320958 0.140308
0.135967 0.3191 0.119239
0.12557 0.316213 0.0536168
-0.124283 0.362672 -0.213302
0.136031 0.329405 0.191889
0.125582 0.321093 0.0658726
0.125447 0.30777 -0.0834346
0.125364 0.299591 -0.175085
0.119659 0.297809 -0.213087
-0.0877652 0.356655 -0.21327
0.136005 0.330571 0.161624
0.125509 0.317655 -0.0142857
0.0103847 0.332701 -0.213183
0.136047 0.338802 0.209409
0.1256 0.330576 0.0864862
0.125492 0.319591 -0.0337704
0.1254 0.31031 -0.135366
0.125374 0.307663 -0.164345
-0.0205836 0.345586 -0.213211
-0.0532522 0.355073 -0.213239
-0.124283 0.375702 -0.213302
0.125538 0.328009 0.0173452
0.125464 0.320446 -0.0645007
0.12542 0.315936 -0.113302
0.0943187 0.315826 -0.21311
0.135986 0.340177 0.140308
0.135967 0.338208 0.119239
0.12557 0.335147 0.0536168
0.0397819 0.33564 -0.213157
0.136031 0.348897 0.191889
0.125582 0.340093 0.0658726
0.136005 0.349902 0.161624
0.125499 0.335112 -0.0260024
0.125447 0.329623 -0.0834346
0.125364 0.320864 -0.175085
0.125339 0.318158 -0.203393
0.0677248 0.334735 -0.213133
0.136047 0.358386 0.209409
0.1256 0.349684 0.0864862
0.125509 0.339947 -0.0142857
0.1254 0.328247 -0.135366
0.0103847 0.356049 -0.213183
-0.0205836 0.365562 -0.213211
-0.0532522 0.375598 -0.213239
-0.0877652 0.3862 -0.21327
0.125527 0.345587 0.0054172
0.125464 0.338757 -0.0645007
0.125374 0.329004 -0.164345
0.135986 0.359396 0.140308
0.125619 0.359387 0.107337
0.125589 0.356104 0.0740898
0.125426 0.338333 -0.105884
0.0677248 0.345831 -0.213133
-0.124283 0.406105 -0.213302
0.136031 0.368388 0.191889
0.136012 0.366226 0.17022
0.125556 0.356251 0.037405
0.125608 0.36581 0.0947979
0.125516 0.3556 -0.00643095
0.125447 0.347834 -0.0834346
0.125364 0.338591 -0.175085
0.0943187 0.344702 -0.21311
0.136047 0.37797 0.209409
0.125481 0.355357 -0.0453579
0.125339 0.339252 -0.203393
0.0397819 0.365981 -0.213157
0.0103847 0.375505 -0.213183
-0.0205836 0.385538 -0.213211
-0.0532522 0.396122 -0.213239
0.135993 0.375647 0.148804
0.125492 0.360232 -0.0337704
0.1254 0.349772 -0.135366
0.135978 0.377736 0.131851
0.125619 0.378605 0.107337
0.125589 0.375147 0.0740898
0.125538 0.369244 0.0173452
0.12542 0.355654 -0.113302
0.125374 0.350345 -0.164345
0.0943187 0.35553 -0.21311
-0.0877652 0.415746 -0.21327
0.136031 0.38788 0.191889
0.136012 0.385603 0.17022
0.125556 0.375101 0.037405
0.136047 0.397554 0.209409
0.1256 0.387901 0.0864862
0.125499 0.375844 -0.0260024
0.125447 0.369688 -0.0834346
0.125364 0.359864 -0.175085
0.119659 0.357723 -0.213087
0.0677248 0.375421 -0.213133
-0.0205836 0.405514 -0.213211
0.125509 0.380815 -0.0142857
0.1254 0.367709 -0.135366
0.135986 0.397835 0.140308
0.125619 0.397824 0.107337
0.125538 0.387988 0.0173452
0.125464 0.379042 -0.0645007
0.125374 0.368129 -0.164345
0.0397819 0.392528 -0.213157
0.0103847 0.402744 -0.213183
-0.0532522 0.424857 -0.213239
0.12557 0.395739 0.0536168
0.125426 0.378137 -0.105884
0.136031 0.411269 0.191889
0.136005 0.407897 0.161624
0.125582 0.400892 0.0658726
0.125454 0.385098 -0.0758859
0.125364 0.377591 -0.175085
0.0943187 0.384406 -0.21311
-0.0205836 0.42549 -0.213211
0.136047 0.421055 0.209409
0.1256 0.410832 0.0864862
0.125509 0.399391 -0.0142857
0.125481 0.395864 -0.0453579
0.125339 0.377923 -0.203393
0.125527 0.405364 0.0054172
0.125492 0.400874 -0.0337704
0.1254 0.389233 -0.135366
0.135986 0.420897 0.140308
0.135967 0.418461 0.119239
0.12542 0.395372 -0.113302
0.125374 0.389469 -0.164345
0.0943187 0.395234 -0.21311
0.0677248 0.405011 -0.213133
0.0397819 0.415284 -0.213157
0.0103847 0.426091 -0.213183
0.125581 0.419891 0.0658728
0.125563 0.417513 0.0454925
0.125545 0.415161 0.025342
0.125516 0.415177 -0.00643095
0.125447 0.409752 -0.0834346
0.125364 0.398864 -0.175085
0.125491 0.419348 -0.0337703
0.125339 0.399016 -0.203393
0.125464 0.419326 -0.0645007
0.1254 0.410757 -0.135366
0.125426 0.417941 -0.105884
0.125374 0.41081 -0.164345
0.125453 0.42525 -0.0758858
0.0943187 0.42411 -0.21311
0.125364 0.420137 -0.175085
0.119659 0.417638 -0.213087
