ply
format ascii 1.0
comment Created by Open3D
element vertex 636
property double x
property double y
property double z
end_header
-0.151854 -0.252179 -0.147349
-0.169653 -0.249083 -0.144286
-0.13063 -0.238968 -0.144361
-0.297453 -0.251551 -0.0668613
-0.143372 -0.231966 -0.156733
-0.324287 -0.245642 -0.0719255
0.100996 -0.25233 -0.114216
-0.175625 -0.230255 -0.145861
-0.155302 -0.224836 -0.158882
0.120063 -0.242148 -0.118906
0.0819209 -0.242755 -0.10939
-0.307937 -0.231425 -0.0810318
0.320926 -0.248445 -0.11824
0.300522 -0.248337 -0.114858
0.100626 -0.236197 -0.12586
-0.130188 -0.222364 -0.137825
-0.178129 -0.227339 -0.109039
-0.274624 -0.238892 -0.0449571
-0.331085 -0.230727 -0.0669374
-0.0248203 -0.251448 -0.0276169
-0.0356576 -0.250669 -0.0287373
-0.293548 -0.227464 -0.0742837
-0.0472245 -0.251055 -0.0106287
-0.143301 -0.211341 -0.155409
-0.181031 -0.225863 -0.0888429
0.135255 -0.235292 -0.0954686
-0.175559 -0.210192 -0.141694
-0.243593 -0.234738 -0.0269355
0.283993 -0.239895 -0.0895833
0.14782 -0.236048 -0.0803502
0.0833612 -0.224755 -0.115925
-0.164 -0.20459 -0.154726
0.319837 -0.229305 -0.126622
0.299842 -0.229315 -0.122843
0.119775 -0.222174 -0.119738
-0.0436721 -0.234825 -0.03503
-0.0691376 -0.238521 -0.0144509
-0.223712 -0.228104 -0.0301352
-0.254998 -0.221696 -0.0517131
0.259869 -0.236484 -0.0694631
0.165134 -0.233881 -0.0630574
0.100773 -0.216759 -0.12541
0.0798098 -0.220563 -0.104966
-0.0228463 -0.231805 -0.0369316
-0.0906785 -0.233281 -0.0178361
-0.107536 -0.234329 -0.0101337
-0.133474 -0.202966 -0.141537
-0.187279 -0.217579 -0.0679917
-0.308332 -0.210082 -0.0779299
-0.327649 -0.211157 -0.0696453
0.132727 -0.220023 -0.102612
-0.175253 -0.202477 -0.122419
-0.190511 -0.218021 -0.0510066
-0.193939 -0.225904 -0.0155934
0.277105 -0.224229 -0.0957221
0.235973 -0.233506 -0.0464767
-0.0637173 -0.225197 -0.0276604
-0.18111 -0.204685 -0.0975868
-0.288221 -0.207123 -0.0666435
0.256588 -0.224166 -0.076353
0.219159 -0.232455 -0.0316441
0.190197 -0.228014 -0.046437
0.149059 -0.21744 -0.0868518
-0.125683 -0.220821 -0.0200989
-0.226661 -0.212487 -0.0391383
-0.273292 -0.205966 -0.060088
0.0953859 -0.204449 -0.121037
0.114083 -0.251982 0.0951855
-0.00975309 -0.221343 -0.0232896
-0.184156 -0.201041 -0.0845271
-0.203869 -0.212189 -0.029307
0.327378 -0.210637 -0.119979
0.307157 -0.209202 -0.122938
0.0863003 -0.247887 0.100082
-0.0399061 -0.214454 -0.0333756
-0.0602532 -0.214782 -0.0280288
-0.077558 -0.214479 -0.0262187
-0.140643 -0.194997 -0.105943
-0.251859 -0.202268 -0.0509917
0.182534 -0.214851 -0.056417
0.0842189 -0.201511 -0.101737
0.129504 -0.237707 0.0626413
0.110351 -0.240919 0.0815583
-0.0982433 -0.210672 -0.0238795
-0.19051 -0.201143 -0.0521305
-0.326425 -0.194798 -0.0570164
0.22717 -0.214533 -0.0490646
0.19945 -0.214867 -0.042261
0.160825 -0.206719 -0.0746034
0.125471 -0.19945 -0.103284
-0.297985 -0.191604 -0.062211
0.270241 -0.204875 -0.0870052
-0.139437 -0.203048 -0.019435
-0.159467 -0.184598 -0.106803
-0.283004 -0.190067 -0.0566976
0.289273 -0.199275 -0.101107
0.251886 -0.204017 -0.0702925
0.105845 -0.192827 -0.0992092
0.135711 -0.22225 0.0430431
0.0945131 -0.228813 0.0837208
0.0786662 -0.232008 0.102734
-0.0179868 -0.202127 -0.0293272
-0.118867 -0.19992 -0.021556
-0.226635 -0.192275 -0.0398157
0.305614 -0.19421 -0.112342
-0.145441 -0.185166 -0.0742526
-0.149151 -0.182928 -0.085002
-0.165315 -0.180911 -0.0922949
-0.203866 -0.191785 -0.0294821
0.327048 -0.193748 -0.100858
0.151958 -0.191674 -0.07892
0.115388 -0.190017 -0.0807093
0.111332 -0.218876 0.0702748
-0.0388663 -0.194878 -0.0265614
-0.281691 -0.184063 -0.0374591
-0.302574 -0.210826 0.105761
0.30779 -0.19076 -0.0945938
-0.0148893 -0.195044 -0.0115516
-0.0946463 -0.190135 -0.0226616
-0.190517 -0.182228 -0.0466506
-0.252523 -0.181151 -0.0407676
-0.290557 -0.20535 0.094622
0.213362 -0.194783 -0.036312
0.190284 -0.19215 -0.0462157
-0.0362661 -0.191101 -0.00952208
-0.147416 -0.180687 -0.0449775
-0.167907 -0.17583 -0.067372
-0.243378 -0.160363 -0.136784
0.294341 -0.186525 -0.0768582
0.169218 -0.184968 -0.0620322
0.135456 -0.183485 -0.0638824
0.15665 -0.199676 0.0212532
0.127292 -0.204844 0.0551801
0.0950695 -0.209326 0.0858701
-0.0581608 -0.186322 -0.0120697
-0.247936 -0.153875 -0.155144
-0.271054 -0.195411 0.0777525
0.233936 -0.18555 -0.0511046
-0.108094 -0.180236 -0.0169675
-0.216987 -0.154926 -0.138592
0.279997 -0.181974 -0.0595632
0.259629 -0.180896 -0.0619225
0.142509 -0.194729 0.0391109
0.112161 -0.199706 0.0732602
0.0828589 -0.203936 0.102939
-0.128836 -0.176376 -0.0151479
-0.149739 -0.174937 -0.0194741
-0.202271 -0.15255 -0.137727
-0.230685 -0.148074 -0.158018
-0.29174 -0.192502 0.107563
0.152446 -0.178282 -0.0362334
-0.096113 -0.176397 -0.000760078
-0.173848 -0.168247 -0.0337917
-0.187189 -0.168953 -0.0271811
0.265948 -0.177568 -0.0402545
0.170367 -0.174796 -0.0388932
-0.0912936 -0.196511 0.139383
-0.17553 -0.146982 -0.139904
-0.201976 -0.143156 -0.157748
0.324443 -0.19781 0.0941948
0.254498 -0.175062 -0.0310842
0.187051 -0.17235 -0.034972
0.166821 -0.174659 -0.0171437
0.172013 -0.17902 0.00840831
0.109329 -0.190998 0.0929828
-0.108182 -0.190179 0.128669
-0.113466 -0.186849 0.109402
-0.123836 -0.169973 0.00870025
-0.138671 -0.167397 -0.00419331
-0.160495 -0.144736 -0.137941
0.300084 -0.19053 0.0793952
0.287631 -0.187222 0.0611676
0.224303 -0.170863 -0.0286306
0.159366 -0.178244 0.0293698
0.128925 -0.184602 0.0745648
-0.130114 -0.179292 0.090006
-0.17582 -0.137975 -0.158155
0.265754 -0.179251 0.0402104
0.189929 -0.178159 0.0474529
0.148343 -0.178533 0.0576035
-0.133382 -0.139101 -0.140098
-0.161157 -0.13546 -0.158019
-0.224525 -0.131907 -0.168734
-0.244158 -0.131203 -0.169535
0.235821 -0.166613 -0.0106615
0.258908 -0.178752 0.0638253
-0.106093 -0.133422 -0.14231
-0.131535 -0.130381 -0.157745
0.187261 -0.157271 -0.0141898
-0.0904863 -0.13108 -0.140296
-0.0747556 -0.128656 -0.138641
-0.104598 -0.125049 -0.158171
-0.170217 -0.121714 -0.169119
-0.187505 -0.12115 -0.169812
0.230191 -0.150934 -0.014621
-0.258196 -0.116583 -0.168352
0.210299 -0.145297 -0.0248727
-0.0468506 -0.122893 -0.140657
-0.0647448 -0.120364 -0.155812
-0.149904 -0.116301 -0.169606
-0.0307563 -0.120404 -0.139
-0.0840533 -0.115826 -0.163388
-0.105457 -0.114835 -0.166826
-0.218721 -0.111193 -0.172975
-0.238311 -0.110602 -0.17375
0.182376 -0.139663 -0.00637996
-0.0434514 -0.114543 -0.157686
0.218647 -0.134633 -0.0234959
0.199312 -0.13421 -0.0232297
0.12545 -0.118623 -0.132792
0.113559 -0.117723 -0.137698
0.0941358 -0.116252 -0.14571
0.0640491 -0.113973 -0.158122
0.0578631 -0.116846 -0.134228
-0.00244665 -0.114561 -0.141036
-0.0180375 -0.11242 -0.155066
-0.258066 -0.10487 -0.169945
0.252777 -0.116976 -0.143553
0.226905 -0.115189 -0.153259
0.204884 -0.114347 -0.155997
0.176574 -0.113415 -0.158287
0.155643 -0.112726 -0.15998
0.134965 -0.112046 -0.161653
0.114815 -0.111476 -0.16252
0.0539805 -0.116295 -0.111926
0.058391 -0.119989 -0.0826899
0.359111 -0.114945 -0.152852
0.339942 -0.114338 -0.154353
0.320974 -0.113737 -0.155839
0.302204 -0.113142 -0.157309
0.279938 -0.112437 -0.159053
0.261594 -0.111856 -0.16049
0.0260679 -0.108675 -0.143085
0.000262871 -0.106346 -0.157764
-0.132511 -0.101662 -0.172163
-0.173196 -0.100565 -0.173743
-0.265214 -0.101131 -0.1518
-0.0698406 -0.100315 -0.170084
-0.0940023 -0.0996482 -0.17132
-0.193209 -0.0970525 -0.175157
0.358281 -0.106217 -0.171049
0.234572 -0.103439 -0.172617
0.0912196 -0.100236 -0.174288
-0.15302 -0.0951033 -0.174245
0.338959 -0.102315 -0.173254
0.0712525 -0.0964864 -0.176654
0.031155 -0.0973742 -0.161014
-0.0394121 -0.0949752 -0.169823
-0.212979 -0.0907094 -0.176495
-0.232573 -0.0902921 -0.176659
0.249817 -0.096989 -0.176265
0.212132 -0.0961895 -0.176792
0.191837 -0.095759 -0.177075
0.171723 -0.0953323 -0.177356
0.151788 -0.0949094 -0.177635
0.0513006 -0.0938531 -0.168852
-0.282365 -0.0921397 -0.122697
0.131378 -0.0912072 -0.179601
0.111901 -0.0908269 -0.179684
0.129877 -0.120413 0.106702
0.0105533 -0.0901148 -0.167709
-0.25523 -0.0847386 -0.170667
0.321367 -0.0917023 -0.178764
0.300165 -0.0912835 -0.179044
0.279155 -0.0908686 -0.179322
0.13095 -0.118206 0.125507
-0.00886126 -0.0863819 -0.170953
-0.0793939 -0.0847786 -0.174019
-0.280057 -0.083961 -0.144788
-0.10923 -0.0811691 -0.175109
-0.129825 -0.0807529 -0.175631
-0.173254 -0.0798754 -0.17673
0.358421 -0.0856264 -0.181774
0.0917579 -0.0810129 -0.182212
-0.147327 -0.0774468 -0.176388
-0.1932 -0.0766054 -0.176984
0.340227 -0.0820343 -0.182461
0.260089 -0.080691 -0.182697
0.0661298 -0.0774668 -0.182961
-0.05842 -0.0761611 -0.174466
0.23925 -0.0771314 -0.183461
0.222348 -0.0768617 -0.183481
0.202221 -0.0765405 -0.183506
0.182262 -0.076222 -0.18353
0.0313232 -0.0747642 -0.172499
-0.212966 -0.0705133 -0.176951
-0.232611 -0.0702885 -0.175928
0.139297 -0.0723947 -0.184301
0.119873 -0.0720976 -0.184322
0.0123346 -0.0713554 -0.17334
0.321536 -0.0719753 -0.184205
0.300549 -0.0716622 -0.184301
0.279744 -0.0713518 -0.184396
-0.0372731 -0.067475 -0.174903
-0.193198 -0.0649981 -0.177553
-0.263705 -0.0646427 -0.168933
-0.275454 -0.0649939 -0.162228
0.161656 -0.0664577 -0.185468
0.0523507 -0.0664474 -0.16517
-0.00962993 -0.0648878 -0.174538
-0.167539 -0.0624799 -0.177371
0.357229 -0.0660952 -0.183582
0.251704 -0.0645515 -0.185607
0.0999369 -0.0624918 -0.186258
0.0808663 -0.062236 -0.186297
0.0527248 -0.0642617 -0.152488
-0.0647111 -0.0610192 -0.176226
-0.0886915 -0.060659 -0.17682
-0.109443 -0.0603472 -0.177334
-0.12995 -0.0600711 -0.177391
0.33811 -0.0624814 -0.18578
-0.150274 -0.056876 -0.177514
-0.293479 -0.0584866 -0.126877
0.194101 -0.0574983 -0.186635
0.230815 -0.0548001 -0.186733
0.210695 -0.0545723 -0.186732
0.0554815 -0.0561967 -0.130896
-0.210144 -0.0503755 -0.177333
-0.22978 -0.0501886 -0.176747
0.305983 -0.0524653 -0.186839
0.285238 -0.0522439 -0.186838
0.27493 -0.0521338 -0.186837
0.144782 -0.0507446 -0.186828
0.115727 -0.0504344 -0.186826
0.0560939 -0.0545222 -0.104102
0.0118026 -0.0499685 -0.175554
0.0352198 -0.0474901 -0.16968
-0.0285032 -0.0464642 -0.176888
-0.187523 -0.044815 -0.177895
0.187296 -0.0449825 -0.187032
0.164266 -0.0447665 -0.187029
0.0654011 -0.0449743 -0.164404
0.0599227 -0.0493127 -0.07694
-0.127063 -0.042496 -0.177797
-0.170335 -0.0422637 -0.174335
0.0964515 -0.0410824 -0.18712
0.0681909 -0.0428432 -0.144153
0.0664656 -0.0441591 -0.115671
0.063342 -0.0465415 -0.0641029
-0.0588458 -0.0401895 -0.177192
-0.0798979 -0.0399743 -0.177863
-0.103602 -0.0397686 -0.177832
0.339317 -0.0401438 -0.183888
0.0662203 -0.0441766 -0.0396198
-0.153179 -0.0364177 -0.177924
-0.249366 -0.0357734 -0.174832
-0.269066 -0.0357862 -0.170853
-0.289723 -0.0361389 -0.158838
0.250869 -0.0361433 -0.187172
0.0770501 -0.0351964 -0.178461
0.0692471 -0.0416898 -0.0138747
0.00551377 -0.0347656 -0.175908
-0.0132049 -0.0345874 -0.176885
-0.302064 -0.0344157 -0.12719
0.141404 -0.0322571 -0.187157
0.12209 -0.0321318 -0.186994
0.0763483 -0.0361263 -0.0685347
0.0724578 -0.039075 0.0133258
-0.210132 -0.0302076 -0.177822
-0.229753 -0.0300936 -0.17729
0.321484 -0.0303864 -0.18429
0.302376 -0.0301775 -0.18707
0.281473 -0.030038 -0.187406
0.0873461 -0.0301989 -0.146216
0.0856323 -0.0307046 -0.130517
0.0821903 -0.0317877 -0.0969366
0.0768389 -0.0359451 0.0304965
-0.310886 -0.0298768 -0.0815544
0.230468 -0.0265952 -0.187415
0.210395 -0.0264867 -0.187352
0.0869769 -0.030033 -0.0437415
0.0808582 -0.0331091 0.0619546
0.0803347 -0.0335194 0.0759976
0.0792476 -0.0343712 0.105154
-0.0336713 -0.0255986 -0.171904
-0.130006 -0.0248842 -0.178174
-0.150303 -0.0247737 -0.178135
-0.173372 -0.024508 -0.18285
-0.190349 -0.0242502 -0.188438
-0.1958 -0.0236918 -0.206401
-0.222732 -0.0233853 -0.211782
-0.298707 -0.0246799 -0.153576
0.10309 -0.023112 -0.177248
0.106968 -0.0239133 -0.147108
0.105579 -0.024315 -0.131376
0.103404 -0.0249434 -0.106762
0.101892 -0.0253807 -0.0896336
0.100325 -0.0258336 -0.0718938
0.0961514 -0.02704 -0.024645
0.0943709 -0.0275546 -0.00448632
0.0841386 -0.0308797 0.125511
0.0831035 -0.0317 0.157302
0.00253694 -0.0230284 -0.161669
-0.0695214 -0.0230865 -0.145958
-0.0824938 -0.0222729 -0.174876
-0.097724 -0.0221161 -0.178068
-0.151563 -0.0211545 -0.205041
-0.16838 -0.0209552 -0.209573
0.109529 -0.0228339 -0.0538461
0.105708 -0.0239224 -0.00475371
0.104075 -0.0243874 0.0162193
0.102378 -0.0248708 0.0380236
0.100612 -0.0253738 0.06071
0.0986623 -0.0258876 0.0839106
0.0976101 -0.026148 0.0956837
0.0954408 -0.026685 0.119955
0.015074 -0.0272568 0.160397
-0.00251397 -0.0270948 0.156484
-0.0154157 -0.0269982 0.154603
-0.0857725 -0.018711 -0.200582
-0.115075 -0.0184536 -0.206543
0.262371 -0.0173722 -0.184791
0.191651 -0.0171211 -0.184756
0.172485 -0.0170822 -0.18322
0.124712 -0.0171379 -0.171358
0.126709 -0.0175896 -0.148005
0.125648 -0.017886 -0.13224
0.123414 -0.0185097 -0.0990604
0.122238 -0.0188381 -0.0815876
0.118088 -0.0198743 -0.026385
0.104734 -0.0229909 0.139824
0.10263 -0.0234819 0.166008
-0.249303 -0.0157238 -0.17571
-0.268871 -0.0157076 -0.172905
-0.28889 -0.015769 -0.165932
0.142053 -0.013979 -0.177355
0.129327 -0.0159356 -0.0493594
0.126612 -0.0165209 -0.0112762
0.125179 -0.01683 0.008834
0.12369 -0.0171508 0.029711
0.122144 -0.0174842 0.0513995
0.120537 -0.0178307 0.0739477
0.119709 -0.0180092 0.0855602
0.118003 -0.018377 0.109497
0.116225 -0.0187602 0.134432
0.115308 -0.0189579 0.147294
0.174456 -0.0115118 -0.130651
0.17185 -0.011742 -0.111159
0.169137 -0.0119817 -0.0908704
0.164523 -0.0122883 -0.0646943
0.158721 -0.012577 -0.0397862
0.153536 -0.0129132 -0.0110629
0.150842 -0.0132311 0.0156841
0.148013 -0.0135651 0.0437816
0.146046 -0.0137973 0.0633148
0.14401 -0.0140376 0.0835284
0.141903 -0.0142863 0.104458
0.140821 -0.0144141 0.115204
0.138597 -0.0146765 0.137282
-0.310612 -0.0104512 -0.127502
-0.318826 -0.0108958 -0.089269
0.232646 -0.00792068 -0.176434
0.213356 -0.0079699 -0.16714
0.254498 -0.0103062 0.0951511
0.231253 -0.0104324 0.114088
0.209622 -0.0104026 0.114689
0.190003 -0.0103136 0.108067
0.173178 -0.0104121 0.122594
0.165627 -0.0105523 0.140212
0.160131 -0.010766 0.165939
-0.0745964 -0.00718838 -0.203615
-0.0933051 -0.00705846 -0.215131
-0.307683 -0.00437088 -0.148892
-0.113426 -0.00139854 -0.218972
-0.187623 -0.00136734 -0.223125
-0.208976 -0.00135837 -0.22432
-0.227551 -0.00135487 -0.222869
-0.132961 0.00417276 -0.219715
-0.155053 0.00414391 -0.221142
-0.238569 0.00433193 -0.169314
-0.257609 0.00428105 -0.175553
-0.279958 0.0042777 -0.172019
-0.332702 0.0112657 -0.0561429
-0.0776015 0.0129181 -0.204401
-0.299917 0.0128747 -0.165617
-0.319121 0.0134076 -0.127813
-0.32723 0.0139314 -0.0926719
-0.157563 0.0152918 -0.215558
-0.24535 0.0180729 -0.0530573
-0.104167 0.018401 -0.210919
-0.17941 0.0180606 -0.211982
-0.198477 0.0179982 -0.211193
-0.220107 0.0179273 -0.210297
-0.246841 0.0247855 0.0995237
-0.244364 0.0222664 -0.0129038
-0.242711 0.019243 -0.147592
-0.122819 0.0214926 -0.197391
-0.142834 0.0213468 -0.199268
-0.16258 0.0212029 -0.20112
-0.246469 0.0266754 0.0253721
-0.244331 0.0228777 -0.121318
-0.250358 0.0343951 0.167593
-0.248908 0.0315237 0.0697261
-0.252636 0.0245042 -0.16816
-0.274215 0.0241997 -0.174474
-0.315237 0.0245674 -0.154309
-0.251814 0.0369519 0.122561
-0.254064 0.0398742 0.0963659
-0.251968 0.0364795 0.00257027
-0.250441 0.0337503 -0.0728073
-0.336358 0.0325085 -0.0909134
-0.253357 0.0387297 -0.0279213
-0.251987 0.0360378 -0.0958031
-0.293782 0.0327401 -0.170834
-0.3053 0.0328354 -0.166287
-0.259395 0.0460701 0.0650249
-0.327594 0.0371615 -0.128122
-0.261945 0.0490331 0.050037
-0.255377 0.0406048 -0.131559
-0.256951 0.0427401 -0.148648
-0.273765 0.0624 0.165996
-0.266828 0.0547082 0.0213307
-0.263827 0.044605 -0.167543
-0.338516 0.0538621 -0.0957705
-0.278048 0.0659082 0.0329752
-0.2683 0.0564365 -0.116762
-0.279798 0.052665 -0.173509
-0.299152 0.0525632 -0.17148
-0.319858 0.0530412 -0.160143
-0.290218 0.076007 0.132089
-0.272489 0.060354 -0.103134
-0.292077 0.0813774 0.15319
-0.290893 0.0774983 0.0983006
-0.335089 0.0604215 -0.134098
-0.291482 0.078866 0.0659903
-0.289905 0.0750024 0.0137782
-0.290506 0.0763582 -0.0134936
-0.290073 0.0850128 0.0511018
-0.328336 0.0673925 -0.158364
-0.351821 0.0728746 -0.0865778
-0.291793 0.0815179 -0.0324461
-0.283737 0.100646 0.14506
-0.29151 0.0819946 -0.0647956
-0.291687 0.079674 -0.0910535
-0.28635 0.0733192 -0.164048
-0.283604 0.100324 0.0984973
-0.29204 0.0806653 -0.114242
-0.312562 0.0749643 -0.172559
-0.281774 0.110833 0.168791
-0.291852 0.081192 -0.140723
-0.355181 0.0854411 -0.0842436
-0.281714 0.110075 0.120236
-0.283783 0.100195 0.0204735
-0.346415 0.0838666 -0.133339
-0.280416 0.117147 0.151427
-0.281659 0.109377 0.0755678
-0.282221 0.105866 0.0412908
-0.283863 0.100137 -0.0145062
-0.284637 0.0975172 -0.0400224
-0.289793 0.0853472 -0.158244
-0.284685 0.0975498 -0.071017
-0.336969 0.0875762 -0.155714
-0.279776 0.119108 0.0964538
-0.28041 0.115212 0.0608363
-0.28473 0.0975803 -0.100062
-0.278453 0.126276 0.126316
-0.284772 0.0976091 -0.127337
-0.279819 0.117111 0.0140171
-0.303813 0.0944236 -0.177148
-0.279838 0.116221 -0.022705
-0.278048 0.126473 0.0329776
-0.279855 0.115393 -0.0568499
-0.277809 0.135012 0.0723211
-0.283637 0.10507 -0.16358
-0.317714 0.102929 -0.174154
-0.349003 0.107206 -0.134457
-0.278603 0.145949 0.128237
-0.279053 0.140661 0.0875778
-0.33973 0.107634 -0.155518
-0.277955 0.126996 -0.0433113
-0.278832 0.119514 -0.0992963
-0.277989 0.135292 -0.00675356
-0.278925 0.1187 -0.127936
-0.298276 0.114152 -0.178196
-0.280248 0.161539 0.102239
-0.278076 0.135431 -0.0756481
-0.280226 0.172382 0.148999
-0.279453 0.140769 -0.061101
-0.320422 0.122612 -0.174027
-0.303699 0.125303 -0.177982
-0.342489 0.127676 -0.155322
-0.351593 0.130466 -0.135507
-0.278648 0.15126 -0.0357307
-0.28193 0.180015 0.122879
-0.279303 0.16163 0.00816214
-0.278256 0.134268 -0.162028
-0.28472 0.189429 0.157117
-0.2835 0.179628 0.0972743
-0.27768 0.145553 -0.111063
-0.277309 0.140165 -0.143906
-0.280821 0.171426 0.0253917
-0.286946 0.197965 0.137919
-0.279893 0.170224 -0.0221012
-0.349365 0.146024 -0.147558
-0.303689 0.145002 -0.178054
-0.355267 0.151716 -0.130742
-0.281576 0.180257 -0.00367534
-0.28433 0.17299 -0.0431493
-0.278519 0.157051 -0.131944
-0.283605 0.187731 0.0185236
-0.278418 0.154762 -0.160482
-0.285724 0.195541 0.041721
-0.323041 0.153447 -0.17444
-0.283608 0.187885 -0.0172027
-0.283975 0.185473 -0.0467805
-0.280613 0.172988 -0.111251
-0.279344 0.165141 -0.151612
-0.291091 0.210114 0.0618641
-0.298394 0.165065 -0.177293
-0.290921 0.209662 0.0241522
-0.337893 0.168693 -0.165992
-0.358051 0.175171 -0.130768
-0.281349 0.180773 -0.132419
-0.283189 0.17333 -0.167617
-0.290762 0.209241 -0.0109607
-0.322887 0.172956 -0.175408
-0.285811 0.195808 -0.0897076
-0.290614 0.208849 -0.0437341
-0.285503 0.195201 -0.12055
-0.351018 0.185146 -0.153337
-0.290476 0.208481 -0.0743941
-0.286321 0.196881 -0.139394
-0.340631 0.188482 -0.16573
-0.286482 0.194344 -0.162895
-0.360832 0.198596 -0.130793
-0.303749 0.192967 -0.177618
-0.322713 0.203625 -0.176502
-0.340076 0.207558 -0.168836
-0.294509 0.213575 -0.164973
-0.363609 0.221991 -0.130818
-0.309139 0.215247 -0.177577
-0.356977 0.222892 -0.150624
-0.300358 0.225489 -0.162236
-0.33976 0.229666 -0.170609
-0.357007 0.243067 -0.150472
-0.316484 0.244064 -0.164399
