ply
format ascii 1.0
comment Created by Open3D
element vertex 1489
property double x
property double y
property double z
end_header
-0.043685 -0.352454 -0.242501
-0.0548881 -0.348923 -0.24077
-0.0628286 -0.346816 -0.237832
-0.0695789 -0.345939 -0.231397
-0.0680948 -0.348767 -0.22145
-0.0649657 -0.352378 -0.210618
-0.0590761 -0.357297 -0.198328
-0.190875 -0.353666 -0.0144856
-0.201998 -0.349365 -0.0161908
-0.211073 -0.346146 -0.0163303
-0.218967 -0.343547 -0.015586
-0.229273 -0.341329 -0.00954926
-0.230223 -0.343449 0.00102818
-0.230864 -0.344876 0.00815117
-0.221872 -0.337078 -0.0143456
-0.0480617 -0.342417 -0.241134
-0.0673364 -0.340345 -0.221122
-0.190536 -0.344967 -0.0142034
-0.201188 -0.341026 -0.0155069
-0.225387 -0.335738 -0.00226116
-0.0601913 -0.337036 -0.233667
-0.0641348 -0.340948 -0.210249
-0.0611031 -0.343718 -0.202484
-0.209535 -0.335377 -0.015014
-0.225238 -0.335533 0.00945038
-0.0419319 -0.339141 -0.238704
-0.062948 -0.332081 -0.225495
-0.215465 -0.329815 -0.00492281
-0.0486174 -0.332465 -0.23203
-0.0632945 -0.331066 -0.216221
-0.194297 -0.333706 -0.00583869
-0.213902 -0.329412 0.0041731
-0.0390533 -0.332804 -0.231283
-0.0553104 -0.329433 -0.222255
-0.0506569 -0.334153 -0.207489
-0.20089 -0.330709 0.00399882
-0.047274 -0.329137 -0.222024
-0.197846 -0.3268 -0.00500584
-0.207508 -0.3206 -0.00563687
-0.0556118 -0.321779 -0.216053
-0.0493633 -0.325694 -0.206919
-0.192252 -0.321236 -0.0118071
-0.207278 -0.320233 0.00617582
-0.0577073 -0.319959 -0.207392
-0.199182 -0.316465 -0.00999141
-0.0452875 -0.318675 -0.218003
-0.0553709 -0.319937 -0.196636
-0.181477 -0.315955 -0.0105315
-0.191956 -0.312496 -0.0115589
-0.20225 -0.311453 -0.00107169
-0.05145 -0.312208 -0.211053
-0.0553545 -0.310278 -0.199881
-0.0532078 -0.310075 -0.189082
-0.173452 -0.306144 -0.0116726
-0.188036 -0.302464 -0.00827271
-0.193269 -0.30232 -0.00108719
-0.191785 -0.304555 0.00801444
-0.0404474 -0.304443 -0.206252
-0.0502645 -0.306457 -0.181068
-0.0476969 -0.300563 -0.199685
-0.0514624 -0.30103 -0.191567
-0.162731 -0.303423 -0.0107557
-0.172927 -0.297329 -0.0112444
-0.184672 -0.295781 -0.00156438
-0.0419279 -0.296664 -0.197097
-0.0498545 -0.297463 -0.180874
-0.0461607 -0.300769 -0.168997
-0.151642 -0.300697 -0.00971723
-0.164153 -0.2967 -0.011898
-0.0615958 -0.367128 0.205005
-0.0657448 -0.368112 0.216483
0.198443 -0.371074 -0.147434
-0.0405877 -0.301059 -0.159415
-0.0682505 -0.365117 0.224445
0.205519 -0.368228 -0.152751
0.190698 -0.365983 -0.142429
-0.0373576 -0.300432 -0.150858
-0.136095 -0.298963 -0.00932819
-0.174982 -0.289548 -0.00125664
-0.173109 -0.291826 0.00819737
-0.0393863 -0.366918 0.21088
-0.0588518 -0.358953 0.197378
-0.0666958 -0.360118 0.215536
0.205231 -0.369521 -0.124246
-0.040758 -0.28978 -0.186632
-0.0459271 -0.290978 -0.172275
-0.0331604 -0.300133 -0.141688
-0.125157 -0.298962 -0.0088253
-0.149478 -0.291641 -0.0119215
-0.0626158 -0.355366 0.20401
-0.06902 -0.357194 0.223668
0.208462 -0.360799 -0.155652
0.200045 -0.35936 -0.15084
0.183958 -0.35744 -0.13707
-0.0438756 -0.290501 -0.161043
-0.0276947 -0.300922 -0.128116
-0.115196 -0.298462 -0.0092231
-0.139613 -0.291241 -0.0120547
-0.159459 -0.286501 -0.00812775
-0.165999 -0.285875 -0.00167894
-0.0544642 -0.352475 0.196461
-0.0670418 -0.352419 0.215191
-0.0704626 -0.354666 0.232752
0.189459 -0.35406 -0.142926
0.201601 -0.361189 -0.121602
-0.040159 -0.290606 -0.148779
-0.0278406 -0.298953 -0.120935
-0.105055 -0.297953 -0.00962812
-0.124001 -0.292395 -0.0119066
-0.0367948 -0.354668 0.202928
0.203558 -0.352144 -0.153505
-0.0314804 -0.285037 -0.17558
-0.0374585 -0.289686 -0.140358
-0.0346208 -0.291976 -0.131757
-0.0229115 -0.299481 -0.107226
-0.0849521 -0.300611 -0.0069555
-0.0947269 -0.297435 -0.0100406
-0.113554 -0.292032 -0.0119696
-0.156867 -0.282138 -0.00211132
-0.0624526 -0.344156 0.204169
-0.0690273 -0.345851 0.223661
-0.0704331 -0.347093 0.232782
0.196096 -0.347216 -0.148356
0.186665 -0.346174 -0.140013
0.188793 -0.349759 -0.122826
-0.0375074 -0.282215 -0.164789
-0.030343 -0.292229 -0.118631
-0.0171355 -0.300285 -0.0927597
-0.0755098 -0.299606 -0.00826758
-0.102902 -0.291661 -0.0120339
-0.14288 -0.281962 -0.00673419
-0.0401739 -0.345541 0.199741
-0.0539433 -0.341391 0.196959
-0.0665811 -0.341314 0.21565
0.212675 -0.346049 -0.158081
0.193409 -0.348164 -0.116744
-0.0299224 -0.281131 -0.164559
-0.0350407 -0.281156 -0.15667
-0.0276297 -0.291245 -0.109812
-0.0165004 -0.29852 -0.0847793
-0.0649446 -0.298962 -0.00891167
-0.129959 -0.28193 -0.00854266
-0.143188 -0.280794 0.00494349
-0.0617534 -0.336936 0.204851
0.204329 -0.34085 -0.153209
0.185952 -0.339681 -0.132194
-0.0331069 -0.280488 -0.145196
-0.0247508 -0.29029 -0.100786
-0.0148505 -0.2971 -0.0761298
0.014085 -0.314548 -0.0183547
0.00730425 -0.313489 -0.0142592
0.00179219 -0.313615 -0.00518012
0.00148416 -0.314959 0.003111
-0.053849 -0.298434 -0.00933278
-0.0750111 -0.292479 -0.0119668
-0.0864072 -0.289502 -0.0120451
-0.0967688 -0.286896 -0.0115334
-0.119129 -0.281652 -0.00821215
-0.135158 -0.278782 -0.000662446
-0.0460817 -0.336295 0.199309
-0.0678383 -0.335027 0.224861
0.197479 -0.336154 -0.147813
0.190971 -0.335414 -0.14232
0.194153 -0.339925 -0.120573
-0.025222 -0.278821 -0.148286
-0.0294107 -0.279797 -0.1362
-0.0287772 -0.281851 -0.125068
-0.021626 -0.28939 -0.0915026
-0.0125318 -0.295892 -0.0669857
-0.00590152 -0.299608 -0.0551435
0.0278946 -0.314578 -0.0181588
-0.0425417 -0.297896 -0.00976276
-0.0635878 -0.2921 -0.0120332
-0.10398 -0.28226 -0.00883073
-0.124637 -0.278373 -0.000448465
-0.0592257 -0.331358 0.21251
-0.058282 -0.334435 0.229198
-0.0223363 -0.278407 -0.136142
-0.0248583 -0.281203 -0.115674
-0.00441527 -0.298057 -0.0462347
0.014085 -0.30744 -0.0183547
0.00730425 -0.306404 -0.0142592
0.00179219 -0.306528 -0.00518012
-0.0198862 -0.300731 -0.00689417
-0.0310168 -0.297346 -0.0102022
-0.0519304 -0.291713 -0.0121008
-0.110597 -0.278542 -0.00174189
-0.0488994 -0.330137 0.212164
0.206813 -0.330749 -0.148208
0.190185 -0.32952 -0.130449
-0.0181522 -0.278404 -0.123101
-0.0208663 -0.280543 -0.106105
-0.0172648 -0.285551 -0.0813819
-0.00916064 -0.292277 -0.0531193
-0.00250882 -0.296629 -0.0369644
-0.00510293 -0.297746 -0.026303
-0.0127789 -0.297744 -0.0146965
-0.0400323 -0.291318 -0.0121698
-0.0811394 -0.281642 -0.00825047
-0.0987671 -0.27843 -0.000918746
-0.0434294 -0.325979 0.201828
-0.0418422 -0.329229 0.219005
0.210653 -0.329419 -0.138548
0.205807 -0.329245 -0.132273
-0.016748 -0.279888 -0.0963273
-0.0137298 -0.284694 -0.0715946
-0.00610894 -0.291237 -0.0432377
-0.0649183 -0.28227 -0.00889313
-0.0840709 -0.278604 -0.00225025
-0.0425227 -0.320005 0.187278
-0.053412 -0.318133 0.192347
-0.0570841 -0.318326 0.19908
-0.0580899 -0.319609 0.208427
0.195926 -0.321618 -0.140336
0.186628 -0.320042 -0.13598
0.179734 -0.319866 -0.126632
-0.00510293 -0.290782 -0.026303
-0.0127789 -0.29078 -0.0146965
-0.0528628 -0.281926 -0.00864828
-0.0716463 -0.278491 -0.00141191
0.175502 -0.316689 -0.116147
-0.00499231 -0.278394 -0.0820814
-0.00745773 -0.280693 -0.0639932
-0.00665957 -0.282231 -0.0555978
-0.00323576 -0.285973 -0.037414
-0.0256848 -0.284798 -0.0107692
-0.0403898 -0.28163 -0.0082916
-0.0589328 -0.278375 -0.000555277
-0.00379515 -0.299429 0.0474652
-0.00509107 -0.3004 0.0554902
-0.00616324 -0.301461 0.0637396
-0.043502 -0.310426 0.176239
-0.0513615 -0.309781 0.184108
-0.0555426 -0.310581 0.19543
-0.0557242 -0.312157 0.205548
0.183251 -0.311991 -0.133307
0.176321 -0.311161 -0.128067
0.0921889 -0.302293 -0.0567769
0.0820305 -0.300316 -0.053895
0.0703929 -0.298498 -0.0477738
0.0595335 -0.296912 -0.0413618
-0.00242323 -0.281497 -0.0450218
-0.0431868 -0.278553 -0.00193316
-0.00490761 -0.293306 0.0333825
-0.0125384 -0.296964 0.068061
-0.0153753 -0.298114 0.0796205
-0.0182374 -0.299271 0.0912675
-0.019653 -0.300232 0.099485
-0.0210195 -0.30122 0.107803
-0.0391111 -0.305967 0.16519
0.167171 -0.306478 -0.119749
0.160882 -0.306478 -0.110229
0.122324 -0.302272 -0.078783
0.111914 -0.300295 -0.0756837
0.099972 -0.298461 -0.0693426
0.0888162 -0.296854 -0.0627386
0.0516464 -0.292001 -0.0375377
0.00432545 -0.278387 -0.0530383
-0.00510293 -0.280334 -0.026303
-0.0127789 -0.280332 -0.0146965
-0.0298101 -0.278435 -0.001059
-0.00845796 -0.287115 0.0221688
-0.00690103 -0.291086 0.0452278
-0.0103332 -0.29198 0.056141
-0.0280665 -0.29718 0.116266
-0.030023 -0.297955 0.124188
-0.0329769 -0.299126 0.136149
-0.0351033 -0.299857 0.14405
-0.0394638 -0.30053 0.154954
-0.0479229 -0.301221 0.172182
-0.0507158 -0.301728 0.179655
0.193903 -0.306869 -0.13301
0.151326 -0.301044 -0.106311
0.141444 -0.299936 -0.0985293
0.130288 -0.298423 -0.0914484
0.0807535 -0.291899 -0.0587483
0.0708109 -0.290663 -0.0517099
0.0405272 -0.286706 -0.0315159
0.0254309 -0.282431 -0.0363668
0.0134876 -0.279167 -0.0394385
0.00473654 -0.277564 -0.0365821
-0.0172241 -0.27729 -0.00511515
-0.0189916 -0.278645 0.00633693
-0.00330049 -0.28598 0.0301211
-0.0175434 -0.290034 0.0779524
-0.0211756 -0.290884 0.0889573
-0.0246931 -0.291787 0.100136
-0.0513636 -0.299299 0.189186
-0.0477853 -0.302243 0.202848
0.18362 -0.301235 -0.129086
0.173122 -0.299383 -0.12535
0.155263 -0.297188 -0.112727
0.120859 -0.293056 -0.0877661
0.11058 -0.291795 -0.0804842
0.10041 -0.290551 -0.0732544
0.0620168 -0.286134 -0.0441279
-0.0118481 -0.28558 0.0640404
-0.0320311 -0.289833 0.122505
-0.0357934 -0.290677 0.133738
-0.0394604 -0.291568 0.145139
-0.0419747 -0.292145 0.152728
0.166285 -0.294798 -0.120132
0.144482 -0.29206 -0.105329
0.134178 -0.290843 -0.0978204
0.0914607 -0.28598 -0.0654896
0.0547371 -0.282093 -0.0357441
0.0125766 -0.272471 -0.035889
0.00422615 -0.271034 -0.0327985
-0.00510293 -0.269887 -0.026303
-0.0127789 -0.269885 -0.0146965
-0.0156239 -0.272109 0.00439107
-0.0127667 -0.274337 0.0148754
-0.000562072 -0.281026 0.0408728
-0.00335991 -0.281428 0.0477788
-0.026177 -0.285343 0.108339
-0.0448313 -0.289621 0.165012
-0.046223 -0.290617 0.173742
-0.0469005 -0.291886 0.183205
0.173046 -0.292339 -0.121304
0.128138 -0.286526 -0.0924754
0.121642 -0.285822 -0.0873852
0.0841 -0.281904 -0.0569445
0.0753152 -0.281077 -0.0492209
0.0254309 -0.271773 -0.0363668
-0.0142323 -0.267173 -0.00731194
-0.0103017 -0.280177 0.0743157
-0.0145645 -0.280784 0.0848587
-0.0188477 -0.281394 0.095446
0.162084 -0.287186 -0.113796
0.111273 -0.281453 -0.0760065
0.102308 -0.280618 -0.0681357
0.0747846 -0.278472 -0.0411209
0.00839669 -0.265949 -0.0260832
0.0025894 -0.265953 -0.0172678
-0.00325876 -0.265943 -0.00847888
-0.00232506 -0.278494 0.0757499
-0.0245581 -0.279925 0.119166
-0.0289137 -0.280536 0.12993
-0.0332813 -0.281153 0.140748
-0.0356382 -0.281763 0.14848
0.167848 -0.285011 -0.111257
0.153475 -0.282721 -0.105338
0.146175 -0.28183 -0.100451
0.118406 -0.279204 -0.0765772
0.107736 -0.278495 -0.0653305
0.10224 -0.278696 -0.0556234
0.0237274 -0.265949 -0.0249275
0.00125128 -0.264447 -0.00129825
0.00210714 -0.26595 0.00780314
-0.00574726 -0.265953 0.0197104
-0.0174897 -0.278609 0.125008
-0.0325125 -0.280543 0.161116
0.152588 -0.279854 -0.0974938
0.141588 -0.278518 -0.0902041
0.13578 -0.278647 -0.0805093
0.0418816 -0.266074 -0.0265083
0.0115786 -0.265949 0.0184799
0.00560307 -0.265949 0.0275286
0.0495965 -0.26595 -0.013349
0.0102903 -0.257126 -0.0165558
0.00179219 -0.256916 -0.00518012
0.0233265 -0.265946 0.0263904
0.0192916 -0.265948 0.0325086
0.0278946 -0.257055 -0.0181588
0.0190255 -0.255011 -0.0194571
0.00148416 -0.254459 0.003111
0.014085 -0.247018 -0.0183547
0.00730425 -0.246186 -0.0142592
0.00179219 -0.246285 -0.00518012
0.00148416 -0.247341 0.003111
0.0278946 -0.246269 -0.0181588
0.0190255 -0.237178 -0.0194571
0.0102903 -0.235846 -0.0165558
0.00179219 -0.235654 -0.00518012
0.00148416 -0.236664 0.003111
0.0278946 -0.235484 -0.0181588
0.0190255 -0.226479 -0.0194571
0.0102903 -0.225207 -0.0165558
0.00179219 -0.225023 -0.00518012
0.00148416 -0.225988 0.003111
0.0278946 -0.224698 -0.0181588
0.0190255 -0.215779 -0.0194571
0.0102903 -0.214567 -0.0165558
0.00179219 -0.214392 -0.00518012
0.00148416 -0.215311 0.003111
0.0278946 -0.213913 -0.0181588
0.0102903 -0.207474 -0.0165558
0.00179219 -0.207305 -0.00518012
0.0278946 -0.206722 -0.0181588
0.0190255 -0.205079 -0.0194571
0.00148416 -0.204635 0.003111
0.014085 -0.197259 -0.0183547
0.00730425 -0.196595 -0.0142592
0.00179219 -0.196674 -0.00518012
0.0278946 -0.195937 -0.0181588
0.00148416 -0.193958 0.003111
0.0190255 -0.187246 -0.0194571
0.0102903 -0.186194 -0.0165558
0.00179219 -0.186043 -0.00518012
0.00148416 -0.18684 0.003111
0.0278946 -0.185151 -0.0181588
0.0190255 -0.176546 -0.0194571
0.0102903 -0.175555 -0.0165558
0.00179219 -0.175412 -0.00518012
0.00148416 -0.176164 0.003111
0.0278946 -0.174366 -0.0181588
0.0278946 -0.167176 -0.0181588
0.0190255 -0.165847 -0.0194571
0.0102903 -0.164915 -0.0165558
0.00179219 -0.164781 -0.00518012
0.00148416 -0.165487 0.003111
0.0278946 -0.15639 -0.0181588
0.0190255 -0.155147 -0.0194571
0.0102903 -0.154275 -0.0165558
0.00179219 -0.15415 -0.00518012
0.00148416 -0.15481 0.003111
0.0235427 -0.149132 -0.0124124
0.0093677 -0.148042 -0.00448871
0.0091213 -0.148686 0.00388128
0.0250788 -0.142197 -0.0114473
0.0138159 -0.140993 -0.0101036
0.00851178 -0.141091 -0.00079149
0.0250788 -0.131397 -0.0114473
0.0138159 -0.130285 -0.0101036
0.00851178 -0.130376 -0.00079149
0.0250788 -0.120598 -0.0114473
0.0138159 -0.119576 -0.0101036
0.00851178 -0.11966 -0.00079149
0.0138159 -0.112437 -0.0101036
0.0250788 -0.109798 -0.0114473
0.00851178 -0.108944 -0.00079149
0.0175912 -0.101944 -0.0119328
0.0111471 -0.101645 -0.00758094
0.00851178 -0.1018 -0.00079149
0.0250788 -0.0917981 -0.0114473
0.0138159 -0.0910208 -0.0101036
0.00851178 -0.0910843 -0.00079149
0.0250788 -0.0809983 -0.0114473
0.0138159 -0.0803125 -0.0101036
0.00851178 -0.0803685 -0.00079149
0.0250788 -0.0701986 -0.0114473
0.0138159 -0.0696042 -0.0101036
0.00851178 -0.0696527 -0.00079149
0.0138159 -0.0624652 -0.0101036
0.0250788 -0.0593988 -0.0114473
0.00851178 -0.0589369 -0.00079149
0.0250788 -0.0521989 -0.0114473
0.0138159 -0.0517569 -0.0101036
0.00851178 -0.0517931 -0.00079149
0.0250788 -0.0413992 -0.0114473
0.0138159 -0.0410486 -0.0101036
0.00851178 -0.0410773 -0.00079149
0.0250788 -0.0305994 -0.0114473
0.0138159 -0.0303403 -0.0101036
0.00851178 -0.0303614 -0.00079149
0.0346627 -0.0250082 -0.162738
0.0266756 -0.0248321 -0.162744
0.0110343 -0.0244873 -0.162754
0.0065828 -0.0212459 -0.154144
0.00657147 -0.0213363 -0.146966
0.00710118 -0.0214871 -0.135812
0.0347135 -0.0234985 -0.0181855
0.0209163 -0.0232338 -0.0182784
0.00743389 -0.0229753 -0.0183645
0.00438827 -0.0232665 0.00932753
0.00990206 -0.0183597 -0.123349
0.0117513 -0.0184795 -0.11493
0.0136247 -0.0186008 -0.106399
0.0341629 -0.020239 0.0159612
0.0274897 -0.0201312 0.01597
0.0143541 -0.0199192 0.0159873
0.0326997 -0.0149713 -0.163619
0.0247463 -0.0148661 -0.163617
0.0169048 -0.0147625 -0.163615
0.0341672 -0.016258 -0.0185208
0.0273261 -0.0161677 -0.0185104
0.0138695 -0.0159899 -0.01849
0.00725144 -0.0159025 -0.0184801
0.00223756 -0.0161419 0.0165098
0.0336222 -0.0117304 -0.152341
0.0272558 -0.0116696 -0.15165
0.0147188 -0.01155 -0.150291
0.00657368 -0.0114888 -0.146965
0.00732028 -0.011573 -0.135703
0.00913382 -0.0116477 -0.127444
0.0118985 -0.0117617 -0.114854
0.0137729 -0.0118389 -0.106321
0.018632 -0.0119584 -0.0960943
0.0183813 -0.0120339 -0.0845951
0.018512 -0.012089 -0.076681
0.0193667 -0.012182 -0.0642982
0.0345006 -0.012536 -0.0350988
0.0227076 -0.012395 -0.0379988
0.0162545 -0.0123302 -0.0377672
0.00659764 -0.0122467 -0.0354399
-0.00364286 -0.0121818 -0.029493
-0.0108253 -0.0121608 -0.0217116
-0.0155379 -0.012176 -0.0123478
-0.0176074 -0.0122306 -0.00117284
-0.0166003 -0.0123031 0.00797164
-0.011658 -0.0124353 0.0199479
0.025363 -0.008497 -0.115496
-0.0857292 -0.00758752 -0.134763
0.0186289 -0.00873285 -0.0566998
-0.0770783 -0.00891799 0.126321
-0.0843848 -0.00887834 0.129209
-0.0930372 -0.00451845 -0.1354
-0.0885594 -0.00456577 -0.125927
-0.0176151 -0.00519309 -0.017855
-0.00846362 -0.0053753 0.0308774
-0.00989079 -0.00553673 0.0884809
-0.0184585 -0.00550658 0.0910937
-0.0297588 -0.00547126 0.0960667
-0.040464 -0.00543945 0.101346
-0.0475332 -0.00541844 0.104831
-0.0578367 -0.0053886 0.110177
-0.0679904 -0.00535934 0.115496
0.0717976 -0.00185049 -0.0301102
0.0202856 -0.00175387 -0.0516937
0.00874496 -0.00174603 -0.0423034
0.000791192 -0.00173755 -0.0390033
-0.00852543 -0.00173012 -0.0325607
-0.021481 -0.00173092 -0.0121191
-0.0231977 -0.00173944 -0.000747681
-0.0222104 -0.00174974 0.00837052
-0.0184791 -0.00176603 0.0195078
0.0288916 -0.00187664 0.0617773
0.0212982 -0.00186914 0.0655414
0.0102543 -0.00185851 0.0713032
-0.000630498 -0.00184807 0.0770256
-0.00781929 -0.00184118 0.0808049
-0.0786778 -0.00177531 0.120188
-0.0882949 -0.0017665 0.12567
-0.0957714 -0.00176262 0.132988
0.0358116 0.0017855 -0.04261
-0.0925385 0.00450147 -0.141979
-0.0970812 0.00451402 -0.130793
0.0621668 0.00549284 -0.0356545
-0.0176643 0.00516881 -0.0261098
-0.0137199 0.00535403 0.0315341
-0.0175541 0.00549909 0.0871618
-0.0274631 0.00547316 0.0932555
-0.0339148 0.00545671 0.0973693
-0.0434564 0.00543264 0.103546
-0.0528304 0.00540936 0.109739
-0.0646345 0.00538259 0.11841
0.0420617 0.00897096 -0.0431004
0.0275704 0.0088435 -0.0474316
0.0194635 0.00878064 -0.0481157
0.00834543 0.0087063 -0.0466057
0.000410199 0.00866407 -0.0432967
-0.00930566 0.00862269 -0.037119
-0.0249504 0.00861792 -0.01442
-0.0264843 0.00864193 -0.00715023
-0.02679 0.0086997 0.00521606
-0.0248066 0.00876215 0.0150836
0.0261427 0.00937578 0.0644178
0.016519 0.00933843 0.0712889
-0.0942587 0.00880799 0.129657
-0.0991853 0.00881862 0.139304
0.128536 0.0129219 -0.120626
0.122411 0.0129215 -0.111406
0.116513 0.0129242 -0.10208
0.108644 0.0129278 -0.0896392
0.102706 0.0129301 -0.0803207
0.0966137 0.0129302 -0.0710779
0.0830367 0.0127707 -0.0740143
0.0752633 0.0126908 -0.0740027
0.0600042 0.012534 -0.0739802
0.0451175 0.0123811 -0.0739581
-0.00424206 0.011874 -0.073885
-0.0176108 0.0117367 -0.0738652
-0.0306737 0.0116025 -0.0738458
-0.0434414 0.0114713 -0.0738269
-0.0529271 0.0114124 -0.0681499
-0.0530046 0.0114635 -0.0605069
-0.0530216 0.0115425 -0.0488485
-0.0530328 0.0115958 -0.0409864
-0.0530501 0.0116767 -0.0290563
-0.0530617 0.0117312 -0.0210099
-0.0530791 0.011814 -0.00879842
-0.053091 0.0118698 -0.000561237
-0.0531031 0.0119262 0.00775409
-0.0531213 0.0120118 0.0203764
-0.0531335 0.0120695 0.0288923
-0.0531521 0.0121571 0.0418207
-0.0531648 0.0122163 0.0505445
-0.0531775 0.012276 0.0593536
-0.0531238 0.0123373 0.0683018
-0.0175734 0.012926 0.101144
-0.0236633 0.0129262 0.110387
-0.0297736 0.012926 0.119614
-0.0358953 0.0129257 0.128831
-0.0420166 0.0129254 0.138048
-0.0480433 0.0129266 0.147347
0.058782 0.0153539 -0.159291
0.0470695 0.0151857 -0.160819
0.0356107 0.0150212 -0.162313
0.0243978 0.0148601 -0.163775
0.0167809 0.0147603 -0.163672
0.00483215 0.0146162 -0.162082
-0.00688553 0.0144749 -0.160523
-0.0126599 0.0144053 -0.159755
-0.0232474 0.0142819 -0.157853
-0.0347776 0.0141714 -0.153057
-0.0461306 0.0140625 -0.148333
-0.053603 0.0139909 -0.145225
-0.0636995 0.0139022 -0.140102
-0.0938275 0.0134812 -0.142691
-0.0997517 0.0134635 -0.135752
-0.0874898 0.0137474 -0.121809
-0.0927048 0.0137135 -0.117799
-0.0989647 0.0136908 -0.110914
-0.106398 0.0136772 -0.101223
-0.113816 0.0136636 -0.091552
-0.121212 0.0136502 -0.0818948
-0.125953 0.0136873 -0.0704658
-0.129527 0.0137153 -0.0618532
-0.134314 0.0137528 -0.0503148
-0.137747 0.0137845 -0.0414915
-0.13913 0.0138571 -0.0310838
-0.140527 0.0139305 -0.0205658
-0.141939 0.0140047 -0.00993574
-0.14319 0.0140832 0.000949383
-0.142027 0.0141767 0.00989574
-0.140849 0.0142715 0.0189615
-0.139655 0.0143675 0.0281494
-0.137834 0.0145141 0.0421656
-0.135383 0.0146015 0.0484724
-0.129913 0.0147897 0.0617334
-0.127125 0.0148856 0.0684928
-0.121438 0.0150812 0.0822783
-0.110674 0.0153462 0.0963287
-0.0995243 0.0156208 0.110882
-0.0937966 0.0193896 0.130081
-0.100416 0.0193688 0.13815
-0.0995243 0.0225633 0.110882
0.058782 0.0255898 -0.159291
0.0470695 0.0253095 -0.160819
0.0356107 0.0250353 -0.162313
0.0243978 0.0247669 -0.163775
0.0167809 0.0246006 -0.163672
0.00483215 0.0243604 -0.162082
-0.00688553 0.0241249 -0.160523
-0.0126599 0.0240088 -0.159755
-0.0232474 0.0238032 -0.157853
-0.0347776 0.023619 -0.153057
-0.0461306 0.0234376 -0.148333
-0.053603 0.0233182 -0.145225
-0.0636995 0.0231703 -0.140102
-0.0984895 0.0225275 -0.131597
-0.0874898 0.0229123 -0.121809
-0.0927048 0.0228558 -0.117799
-0.0989647 0.0228181 -0.110914
-0.106398 0.0227954 -0.101223
-0.113816 0.0227727 -0.091552
-0.121212 0.0227503 -0.0818948
-0.125953 0.0228122 -0.0704658
-0.129527 0.0228589 -0.0618532
-0.134314 0.0229213 -0.0503148
-0.137747 0.0229742 -0.0414915
-0.13913 0.0230952 -0.0310838
-0.140527 0.0232175 -0.0205658
-0.141939 0.0233411 -0.00993574
-0.14319 0.0234721 0.000949383
-0.142027 0.0236279 0.00989574
-0.140849 0.0237859 0.0189615
-0.139655 0.0239459 0.0281494
-0.137834 0.0241901 0.0421656
-0.135383 0.0243359 0.0484724
-0.129913 0.0246495 0.0617334
-0.127125 0.0248093 0.0684928
-0.121438 0.0251353 0.0822783
-0.110674 0.0255771 0.0963287
-0.0949408 0.0254265 -0.143306
-0.0930344 0.0299963 0.130781
-0.0995243 0.0329772 0.110882
0.058782 0.0358257 -0.159291
0.0470695 0.0354333 -0.160819
0.0356107 0.0350493 -0.162313
0.0243978 0.0346736 -0.163775
0.0167809 0.0344408 -0.163672
0.00483215 0.0341045 -0.162082
-0.00688553 0.0337748 -0.160523
-0.0126599 0.0336123 -0.159755
-0.0232474 0.0333245 -0.157853
-0.0347776 0.0330665 -0.153057
-0.0461306 0.0328126 -0.148333
-0.053603 0.0326454 -0.145225
-0.140527 0.0325045 -0.0205658
-0.141939 0.0326776 -0.00993574
-0.14319 0.0328608 0.000949383
-0.142027 0.033079 0.00989574
-0.140849 0.0333002 0.0189615
-0.139655 0.0335243 0.0281494
-0.137834 0.0338661 0.0421656
-0.135383 0.0340702 0.0484724
-0.129913 0.0345093 0.0617334
-0.127125 0.0347331 0.0684928
-0.121438 0.0351894 0.0822783
-0.110674 0.0358079 0.0963287
-0.0636995 0.0355277 -0.140102
-0.0957738 0.0343622 -0.143767
-0.101126 0.0343429 -0.136531
-0.0874898 0.0351322 -0.121809
-0.0927048 0.0350455 -0.117799
-0.0989647 0.0349877 -0.110914
-0.106398 0.0349529 -0.101223
-0.113816 0.0349181 -0.091552
-0.121212 0.0348838 -0.0818948
-0.125953 0.0349787 -0.0704658
-0.129527 0.0350502 -0.0618532
-0.134314 0.035146 -0.0503148
-0.137747 0.035227 -0.0414915
-0.13913 0.0354126 -0.0310838
-0.0916284 0.0406595 0.132071
-0.100229 0.0404027 0.133585
0.058782 0.0426497 -0.159291
-0.110674 0.0426284 0.0963287
-0.0995243 0.043391 0.110882
-0.10068 0.0441197 0.142666
0.0470695 0.0455571 -0.160819
0.0356107 0.0450635 -0.162313
0.0243978 0.0445804 -0.163775
0.0167809 0.044281 -0.163672
0.00483215 0.0438487 -0.162082
-0.00688553 0.0434248 -0.160523
-0.0126599 0.0432159 -0.159755
-0.0232474 0.0428458 -0.157853
-0.0347776 0.0425141 -0.153057
-0.142027 0.0425302 0.00989574
-0.140849 0.0428145 0.0189615
-0.139655 0.0431026 0.0281494
-0.137834 0.0435422 0.0421656
-0.135383 0.0438046 0.0484724
-0.129913 0.0443691 0.0617334
-0.127125 0.0446568 0.0684928
-0.121438 0.0452436 0.0822783
-0.0971065 0.0475051 0.131755
-0.0461306 0.0453126 -0.148333
-0.053603 0.0450818 -0.145225
-0.0636995 0.0447958 -0.140102
-0.0966048 0.0432779 -0.144226
-0.101713 0.0432675 -0.136863
-0.0874898 0.0442972 -0.121809
-0.0927048 0.0441879 -0.117799
-0.0989647 0.044115 -0.110914
-0.106398 0.0440711 -0.101223
-0.113816 0.0440272 -0.091552
-0.121212 0.043984 -0.0818948
-0.125953 0.0441036 -0.0704658
-0.129527 0.0441938 -0.0618532
-0.134314 0.0443146 -0.0503148
-0.137747 0.0444167 -0.0414915
-0.13913 0.0446507 -0.0310838
-0.140527 0.0448872 -0.0205658
-0.141939 0.0451262 -0.00993574
-0.14319 0.0453793 0.000949383
-0.102698 0.0545593 0.140762
-0.0726008 0.0507238 -0.134459
-0.0966735 0.0580957 0.132155
-0.0976251 0.055141 -0.14479
-0.102494 0.055145 -0.137306
-0.102737 0.0649452 0.135976
-0.0959955 0.068721 0.132781
-0.0983868 0.064017 -0.14521
-0.102911 0.0754591 0.135813
-0.0947786 0.0794231 0.133906
-0.0991469 0.072875 -0.145631
-0.10308 0.0859685 0.135655
-0.104031 0.0863098 0.144271
-0.0996868 0.09317 0.13409
-0.105175 0.0932106 0.143185
-0.100158 0.0846573 -0.146189
-0.0992245 0.103782 0.13452
-0.100914 0.0934731 -0.146607
-0.0984008 0.114463 0.135286
-0.101921 0.105199 -0.147163
-0.102778 0.124618 0.135938
-0.106037 0.12505 0.147144
-0.0966657 0.114648 -0.147648
-0.102674 0.113973 -0.147579
-0.106353 0.114161 -0.139491
-0.102406 0.135217 0.136287
-0.107895 0.134918 0.140602
-0.0983768 0.123297 -0.148585
-0.106875 0.12297 -0.139787
-0.101894 0.145854 0.136766
-0.108243 0.145363 0.140271
-0.101348 0.152996 0.137277
-0.108425 0.155832 0.140098
-0.0997081 0.134939 -0.149315
-0.107823 0.134349 -0.143706
-0.0801246 0.165639 0.128321
-0.0884122 0.165112 0.135023
-0.0998399 0.163881 0.13869
-0.108537 0.162811 0.139991
-0.0951787 0.165426 0.110162
-0.104729 0.164151 0.110794
-0.102336 0.165112 0.11759
-0.104813 0.165848 0.12932
-0.109372 0.167002 0.148737
-0.100668 0.143649 -0.149841
-0.108435 0.143088 -0.14405
-0.107646 0.165234 0.0900028
-0.113818 0.165111 0.0980331
-0.115624 0.165984 0.110049
-0.112613 0.167545 0.122062
-0.11605 0.165438 0.069386
-0.125034 0.164221 0.0703209
-0.124837 0.165109 0.079265
-0.125982 0.166124 0.0915568
-0.12295 0.167695 0.103325
-0.108612 0.173297 0.13992
-0.110623 0.173736 0.147532
-0.124579 0.165117 0.0449224
-0.130004 0.165111 0.0530782
-0.134711 0.165697 0.0661741
-0.134813 0.166525 0.0747786
-0.132894 0.167841 0.0852996
-0.114992 0.174797 0.129165
-0.129279 0.165205 0.0202106
-0.136743 0.165112 0.0305737
-0.140314 0.165519 0.0400565
-0.140526 0.166309 0.0482835
-0.101943 0.155229 -0.15054
-0.108243 0.154587 -0.147307
-0.125875 0.16552 -0.0133275
-0.134636 0.16389 -0.0160658
-0.136007 0.164775 -0.00530475
-0.139763 0.165111 0.00368232
-0.143567 0.165441 0.0126801
-0.145998 0.166105 0.0228698
-0.143341 0.170153 0.0585762
-0.126492 0.177906 0.109149
-0.121846 0.179532 0.118074
-0.108609 0.1838 0.139923
-0.119191 0.165429 -0.05468
-0.128519 0.164065 -0.0536978
-0.131685 0.164506 -0.0446616
-0.134636 0.165003 -0.0354053
-0.13927 0.165112 -0.0273467
-0.143764 0.165659 -0.0152721
-0.145873 0.166379 -0.00514883
-0.147727 0.167171 0.00528425
-0.149157 0.169776 0.0325388
-0.142858 0.174857 0.0719271
-0.136171 0.177908 0.0911918
-0.1317 0.179504 0.0997874
-0.0692664 0.166074 -0.153388
-0.0787069 0.165119 -0.148124
-0.0933007 0.164844 -0.128634
-0.0980626 0.164896 -0.120934
-0.104417 0.164965 -0.11066
-0.110763 0.165038 -0.100368
-0.117112 0.165111 -0.0900658
-0.122088 0.165117 -0.082472
-0.128572 0.165161 -0.0722426
-0.137892 0.165718 -0.0528731
-0.140246 0.165954 -0.0470827
-0.144975 0.166427 -0.0354525
-0.152536 0.17124 0.0214865
-0.149063 0.174294 0.0451069
-0.141189 0.179477 0.0821778
-0.118467 0.187739 0.125888
-0.0783706 0.167125 -0.158132
-0.0878605 0.166493 -0.149633
-0.102896 0.163888 -0.151062
-0.1093 0.16391 -0.141161
-0.102755 0.166115 -0.130597
-0.109136 0.166163 -0.120493
-0.115522 0.166211 -0.110383
-0.121913 0.166259 -0.100269
-0.128259 0.166317 -0.090117
-0.131721 0.166667 -0.0816292
-0.138242 0.167478 -0.0642333
-0.150012 0.169896 -0.0239717
-0.152742 0.172594 0.00520384
-0.147612 0.178775 0.0548161
-0.128456 0.187555 0.107322
-0.123841 0.189264 0.116205
-0.114353 0.192779 0.134467
-0.112426 0.194314 0.145796
-0.0603997 0.172645 -0.162462
-0.137564 0.169458 -0.074723
-0.147836 0.170998 -0.0451267
-0.152642 0.173569 -0.0144093
-0.153216 0.174281 -0.00704801
-0.153735 0.17811 0.0286468
-0.1456 0.183463 0.0651486
-0.0671063 0.173816 -0.169197
-0.0726784 0.172936 -0.168645
-0.11754 0.170944 -0.118587
-0.123825 0.171007 -0.108511
-0.128542 0.171054 -0.10095
-0.14218 0.172541 -0.0669868
-0.146115 0.173207 -0.0550565
-0.152076 0.174217 -0.0369869
-0.154796 0.179621 0.015546
-0.151815 0.182692 0.0385505
-0.143556 0.188228 0.075649
-0.138703 0.190523 0.0888677
-0.120486 0.19752 0.123984
-0.0829642 0.174718 -0.163873
-0.0899032 0.174252 -0.157468
-0.103753 0.172546 -0.151532
-0.109817 0.172648 -0.141454
-0.11098 0.173531 -0.131919
-0.135579 0.173909 -0.0913502
-0.153396 0.178202 -0.0265753
-0.148696 0.188144 0.0538614
-0.125824 0.198943 0.114347
-0.1164 0.202627 0.132523
-0.112985 0.20466 0.145258
-0.14084 0.177624 -0.0769626
-0.150082 0.179494 -0.0467804
-0.154254 0.182807 -0.0117856
-0.15471 0.184046 -0.000365734
-0.146697 0.1929 0.0641698
-0.13555 0.198551 0.0962299
-0.131057 0.200338 0.104901
-0.118259 0.179278 -0.122477
-0.124484 0.179354 -0.11241
-0.130713 0.17943 -0.102335
-0.153618 0.18334 -0.0343662
-0.155437 0.188343 0.0109913
-0.155749 0.189204 0.0187926
-0.151734 0.192736 0.0427876
-0.144664 0.197733 0.0746456
-0.140591 0.199924 0.0871356
-0.0649189 0.185237 -0.178121
-0.0750344 0.184002 -0.173155
-0.081954 0.183524 -0.166687
-0.0887583 0.183068 -0.160211
-0.136743 0.182526 -0.0921167
-0.144965 0.184244 -0.0652834
-0.147739 0.184823 -0.0562264
-0.154324 0.187546 -0.0234556
-0.154364 0.194185 0.032222
-0.127797 0.208568 0.112499
-0.123159 0.210476 0.121461
-0.111364 0.215065 0.14205
-0.113591 0.215547 0.149454
-0.0980169 0.18537 -0.151755
-0.108431 0.183578 -0.150761
-0.110506 0.184279 -0.141843
-0.114041 0.185032 -0.130283
-0.150757 0.18836 -0.0472778
-0.155344 0.192668 -0.0048219
-0.150137 0.20059 0.0525929
-0.137459 0.207998 0.0944655
-0.119111 0.215671 0.129948
-0.12048 0.188015 -0.120362
-0.1267 0.188094 -0.110303
-0.132925 0.188173 -0.100235
-0.140829 0.189124 -0.0805589
-0.155146 0.194364 -0.0163781
-0.156387 0.197904 0.0142216
-0.151653 0.202833 0.0470472
-0.148153 0.205436 0.0628695
-0.144563 0.208107 0.0791024
-0.0643126 0.19401 -0.181138
-0.073579 0.19293 -0.175744
-0.1438 0.192641 -0.071759
-0.147488 0.193448 -0.0597345
-0.15465 0.195168 -0.0351485
-0.156336 0.200032 0.00625157
-0.156533 0.202501 0.0262679
-0.15429 0.204196 0.0364159
-0.149691 0.207674 0.0572305
-0.129758 0.21814 0.110661
-0.125152 0.22013 0.119582
-0.11373 0.224825 0.139788
-0.114557 0.225761 0.148518
-0.0829361 0.195208 -0.16719
-0.094239 0.194401 -0.156426
-0.105644 0.192697 -0.152568
-0.110981 0.192999 -0.142113
-0.11471 0.193735 -0.130674
-0.138552 0.194349 -0.0897585
-0.155361 0.199442 -0.0242593
-0.147697 0.212593 0.0675778
-0.134924 0.219339 0.101303
-0.121131 0.225391 0.12803
-0.141505 0.197868 -0.0810173
-0.150723 0.199944 -0.0509781
-0.155926 0.203315 -0.0169914
-0.156391 0.204686 -0.00566268
-0.145671 0.217591 0.0780921
-0.139989 0.220513 0.0921277
-0.115064 0.232598 0.148026
-0.0662903 0.202517 -0.182092
-0.121364 0.199613 -0.120896
-0.127576 0.199697 -0.11085
-0.133795 0.199781 -0.100795
-0.15375 0.203525 -0.0420105
-0.157125 0.209095 0.00560403
-0.157444 0.210045 0.0133421
-0.155346 0.213365 0.0355058
-0.153078 0.215164 0.0458015
-0.149603 0.21792 0.0615748
-0.131709 0.22766 0.108833
-0.127133 0.229731 0.117713
-0.117724 0.233989 0.135968
-0.0745742 0.204629 -0.176237
-0.0836712 0.20395 -0.167567
-0.0904559 0.203444 -0.161103
-0.0994495 0.202774 -0.152534
-0.139227 0.203055 -0.0902063
-0.1447 0.204324 -0.0723832
-0.148386 0.205178 -0.0603769
-0.155983 0.207879 -0.0285662
-0.157923 0.214622 0.0250857
-0.147604 0.222935 0.0719847
-0.136842 0.228762 0.0995188
-0.110061 0.203685 -0.151662
-0.111519 0.204634 -0.142417
-0.115601 0.205315 -0.131195
-0.151395 0.208761 -0.0514697
-0.15686 0.21272 -0.0138496
-0.157174 0.213675 -0.00629175
-0.145573 0.228031 0.0825633
-0.123807 0.238266 0.125488
-0.114026 0.242795 0.144256
-0.122025 0.208293 -0.121296
-0.128233 0.20838 -0.111259
-0.134445 0.208468 -0.101213
-0.142404 0.2095 -0.0816273
-0.15536 0.212587 -0.0394592
-0.157912 0.218136 0.00495803
-0.158234 0.219127 0.0126843
-0.156398 0.222506 0.0345985
-0.154143 0.224379 0.0448706
-0.129104 0.239279 0.115854
-0.119757 0.243701 0.134024
-0.114689 0.247373 0.153187
-0.0619561 0.215259 -0.183311
-0.0675644 0.214165 -0.182706
-0.0753191 0.213383 -0.176605
-0.0844048 0.212676 -0.167943
-0.146291 0.213288 -0.0698614
-0.149058 0.213956 -0.0608575
-0.158962 0.223681 0.0242022
-0.152207 0.229374 0.0549994
-0.147511 0.233333 0.0764153
-0.138749 0.238133 0.0977442
-0.0914225 0.215047 -0.161611
-0.0981622 0.214516 -0.155186
-0.107525 0.212744 -0.153599
-0.111922 0.213349 -0.142646
-0.11317 0.213935 -0.136593
-0.140125 0.214637 -0.0908022
-0.152066 0.21756 -0.0519604
-0.157013 0.219687 -0.0293583
-0.157955 0.222644 -0.00691932
-0.150241 0.234449 0.0652907
-0.143749 0.239119 0.0886526
-0.125801 0.24786 0.123594
-0.114111 0.253246 0.144174
-0.143077 0.218204 -0.0820837
-0.157582 0.223623 -0.0221465
-0.15886 0.227671 0.00816202
-0.15633 0.232588 0.0387968
-0.131063 0.248774 0.114006
-0.0637206 0.223783 -0.184154
-0.119807 0.219795 -0.126837
-0.126005 0.219887 -0.116816
-0.132208 0.21998 -0.106787
-0.149729 0.222717 -0.0613372
-0.156253 0.224356 -0.0401314
-0.159779 0.232787 0.0235077
-0.154424 0.237619 0.0488191
-0.14861 0.242737 0.0754135
-0.13622 0.249671 0.104608
-0.0740327 0.225215 -0.179268
-0.0831184 0.22447 -0.170601
-0.0921458 0.223729 -0.161991
-0.0988773 0.223177 -0.155571
-0.11229 0.22256 -0.139478
-0.138631 0.222958 -0.0968907
-0.147186 0.22493 -0.0704871
-0.157783 0.22852 -0.0299508
-0.159057 0.232635 5.75185e-05
-0.152486 0.242731 0.0590013
-0.145615 0.248348 0.0869291
-0.141276 0.25055 0.0953929
-0.12312 0.259768 0.130808
-0.115985 0.263045 0.14237
-0.117129 0.264027 0.150805
-0.108595 0.224154 -0.154186
-0.153891 0.229506 -0.0495861
-0.158513 0.233005 -0.0190257
-0.158833 0.234046 -0.011528
-0.159974 0.237766 0.015251
-0.133012 0.258217 0.112167
-0.128443 0.260568 0.121086
-0.117375 0.228388 -0.132233
-0.123564 0.228484 -0.122226
-0.129759 0.22858 -0.11221
-0.143061 0.229547 -0.0856482
-0.156921 0.233162 -0.0406346
-0.159941 0.242716 0.0274469
-0.157732 0.244743 0.0375796
-0.0653509 0.235303 -0.184933
-0.0747769 0.233937 -0.179633
-0.0838515 0.233164 -0.170973
-0.146021 0.233157 -0.0769113
-0.149698 0.234128 -0.064975
-0.160167 0.242693 0.00708157
-0.15584 0.24986 0.0475715
-0.152407 0.253055 0.0633433
-0.15007 0.255231 0.0740827
-0.14747 0.257527 0.0852146
-0.143159 0.259805 0.0936405
-0.125123 0.269336 0.128892
-0.116623 0.273981 0.146515
-0.0931081 0.23528 -0.162497
-0.109396 0.23269 -0.154625
-0.11286 0.233647 -0.143177
-0.13639 0.234434 -0.102464
-0.152698 0.237776 -0.056119
-0.158807 0.240266 -0.0307388
-0.159608 0.242948 -0.0121465
-0.13495 0.267609 0.110339
-0.130411 0.270039 0.119216
-0.141915 0.237713 -0.0919892
-0.159543 0.244818 -0.0198351
-0.161022 0.249813 0.0143723
-0.159883 0.252773 0.031594
-0.157668 0.25489 0.0417882
-0.154276 0.258133 0.0574038
-0.140041 0.268316 0.101028
-0.121755 0.278232 0.136814
-0.0988097 0.287873 0.163783
-0.0665696 0.243912 -0.185515
-0.073244 0.242843 -0.182169
-0.116713 0.239857 -0.135247
-0.122895 0.239958 -0.125255
-0.129081 0.240059 -0.115254
-0.149444 0.242588 -0.0684392
-0.155937 0.244365 -0.0473779
-0.152328 0.263436 0.0677084
-0.145033 0.269009 0.0918975
-0.127115 0.278851 0.126988
-0.0825672 0.244931 -0.173625
-0.0893351 0.244325 -0.167165
-0.0983067 0.243522 -0.1586
-0.135488 0.243032 -0.105382
-0.145999 0.24447 -0.0804895
-0.159413 0.248505 -0.0349922
-0.160711 0.252957 -0.00522119
-0.161209 0.254669 0.0062201
-0.150349 0.268824 0.0781797
-0.132369 0.279456 0.117357
-0.105395 0.292407 0.157399
-0.110406 0.24406 -0.155178
-0.113105 0.245321 -0.143316
-0.15266 0.249158 -0.0597706
-0.16015 0.253093 -0.0241515
-0.160476 0.254219 -0.016713
-0.161806 0.258824 0.0137152
-0.159825 0.262884 0.035763
-0.157604 0.265091 0.0460194
-0.154202 0.268472 0.0617298
-0.141936 0.277562 0.0992526
-0.137518 0.280051 0.107917
-0.123771 0.287792 0.134873
-0.117376 0.248459 -0.135631
-0.123552 0.248563 -0.125648
-0.129733 0.248667 -0.115657
-0.141902 0.24895 -0.0955122
-0.15567 0.25285 -0.0508959
-0.162353 0.263702 0.025382
-0.152249 0.273872 0.0720971
-0.146896 0.278164 0.0901639
-0.129096 0.288313 0.125094
-0.0681566 0.255359 -0.186274
-0.0787752 0.254012 -0.178316
-0.0855566 0.253383 -0.171839
-0.0945469 0.25255 -0.163253
-0.144844 0.252595 -0.0868491
-0.148496 0.253641 -0.0750179
-0.16182 0.263034 0.00175065
-0.134315 0.288823 0.115508
-0.115065 0.299055 0.148025
-0.101487 0.254793 -0.156978
-0.11114 0.252575 -0.15558
-0.113191 0.254105 -0.143365
-0.136349 0.254504 -0.105932
-0.1524 0.257592 -0.0632468
-0.158918 0.259479 -0.0421378
-0.161246 0.263054 -0.0173227
-0.162588 0.267814 0.0130596
-0.159766 0.273047 0.0399541
-0.157539 0.275346 0.0502729
-0.155275 0.277683 0.0607657
-0.15063 0.282478 0.0822946
-0.139431 0.289323 0.106112
-0.14257 0.257542 -0.0959513
-0.160846 0.263653 -0.0323077
-0.163366 0.272656 0.0245143
-0.153333 0.283149 0.0711089
-0.144446 0.289814 0.0969005
-0.131066 0.297722 0.12321
-0.121382 0.303386 0.141901
-0.0691015 0.263995 -0.186725
-0.0795118 0.26267 -0.178681
-0.118258 0.259903 -0.136143
-0.124426 0.260012 -0.126173
-0.1306 0.260121 -0.116194
-0.150079 0.26256 -0.07251
-0.155624 0.264201 -0.0545614
-0.162767 0.272564 0.00493288
-0.15136 0.288703 0.0816197
-0.136251 0.298138 0.11367
-0.0910839 0.320628 0.176225
-0.0865276 0.264896 -0.172332
-0.0932647 0.264243 -0.165895
-0.102195 0.263377 -0.15736
-0.113856 0.262677 -0.143741
-0.136994 0.26309 -0.106343
-0.145732 0.264075 -0.0874472
-0.158644 0.267937 -0.0456679
-0.162348 0.273082 -0.0104485
-0.159707 0.283264 0.0441672
-0.141335 0.298545 0.104317
-0.112117 0.263901 -0.156116
-0.152362 0.268878 -0.0668661
-0.161772 0.272987 -0.029228
-0.162103 0.274196 -0.021848
-0.163802 0.280402 0.0160552
-0.163332 0.282734 0.02862
-0.157828 0.288697 0.0542327
-0.146318 0.298945 0.0951475
-0.128431 0.309891 0.130386
-0.123753 0.312754 0.139603
-0.0978245 0.324926 0.169647
-0.0700442 0.272611 -0.187175
-0.118918 0.268468 -0.136526
-0.125081 0.26858 -0.126565
-0.131249 0.268692 -0.116595
-0.143458 0.268973 -0.0965357
-0.156287 0.272893 -0.0550461
-0.155919 0.294216 0.0644583
-0.152453 0.298017 0.08061
-0.133675 0.310188 0.120714
-0.0782309 0.274415 -0.181328
-0.089501 0.273287 -0.170554
-0.147307 0.272946 -0.0849538
-0.150047 0.273792 -0.0760944
-0.163287 0.282544 -0.0073058
-0.163801 0.284449 0.00407803
-0.143227 0.307717 0.102531
-0.0986875 0.275248 -0.162124
-0.117252 0.272529 -0.149003
-0.137852 0.274513 -0.10689
-0.153025 0.277523 -0.0673367
-0.159526 0.27955 -0.0463274
-0.162867 0.282966 -0.0224489
-0.164581 0.289364 0.0153971
-0.163283 0.292872 0.0327601
-0.161102 0.295318 0.0429388
-0.158886 0.297805 0.0532879
-0.148179 0.308027 0.0934037
-0.13041 0.319274 0.128481
-0.107711 0.33123 0.159997
-0.0652058 0.282715 -0.188144
-0.144122 0.277527 -0.0969729
-0.162454 0.28338 -0.0373152
-0.165194 0.293674 0.0229497
-0.156989 0.303388 0.0634899
-0.152373 0.308628 0.0850675
-0.13562 0.319477 0.118855
-0.0743272 0.283551 -0.185966
-0.0834801 0.282576 -0.177372
-0.116719 0.279805 -0.142007
-0.122873 0.279922 -0.132062
-0.129032 0.280039 -0.122109
-0.151627 0.282692 -0.0735922
-0.157169 0.284456 -0.055691
-0.164401 0.292682 -0.000367224
-0.160698 0.302588 0.0474715
-0.155061 0.309061 0.0738558
-0.140728 0.319675 0.109418
-0.127097 0.328494 0.136362
-0.0927028 0.284506 -0.168905
-0.101623 0.283575 -0.160373
-0.108274 0.282881 -0.15401
-0.13541 0.283003 -0.112282
-0.148191 0.284386 -0.0855536
-0.160186 0.28824 -0.0468208
-0.16397 0.293011 -0.015625
-0.165183 0.297633 0.0108849
-0.163234 0.303062 0.0369218
-0.145735 0.31987 0.100166
-0.132378 0.328606 0.126587
-0.117338 0.337368 0.150601
-0.15483 0.289324 -0.0649845
-0.163377 0.292691 -0.0342556
-0.163714 0.29398 -0.0269334
-0.165974 0.302647 0.0222816
-0.159178 0.311213 0.0572564
-0.158055 0.312531 0.0625246
-0.153465 0.31792 0.0840513
-0.137554 0.328715 0.117005
-0.0675164 0.293803 -0.189239
-0.114307 0.288271 -0.147348
-0.120453 0.288392 -0.137417
-0.126603 0.288512 -0.127477
-0.132759 0.288633 -0.117529
-0.143545 0.288844 -0.1001
-0.157829 0.293108 -0.0561736
-0.156139 0.318269 0.0728663
-0.129088 0.337868 0.134432
-0.123622 0.341369 0.144469
-0.0776879 0.294761 -0.184331
-0.0867003 0.293792 -0.175707
-0.0934206 0.293069 -0.169276
-0.147943 0.292646 -0.0889359
-0.150677 0.29355 -0.0801177
-0.165079 0.303122 -0.00875539
-0.165428 0.304478 -0.00120991
-0.163185 0.313306 0.0411054
-0.147604 0.328927 0.0984027
-0.134335 0.337885 0.124703
-0.102564 0.294953 -0.160876
-0.137807 0.294406 -0.110333
-0.154567 0.297631 -0.0684312
-0.161065 0.299801 -0.0474772
-0.164473 0.302686 -0.0275257
-0.164815 0.304024 -0.0201496
-0.166215 0.309496 0.0100197
-0.165684 0.313682 0.0306761
-0.161343 0.318947 0.0510944
-0.157992 0.323013 0.0668626
-0.152483 0.32903 0.0893713
-0.139477 0.337902 0.115166
-0.166831 0.313868 0.0175127
-0.15607 0.32885 0.0772675
-0.144519 0.337919 0.105817
-0.126419 0.350394 0.141739
-0.0691338 0.305095 -0.190005
-0.0784232 0.303355 -0.184688
-0.113654 0.299583 -0.150322
-0.119792 0.299708 -0.140405
-0.125934 0.299833 -0.130479
-0.132082 0.299958 -0.120546
-0.144392 0.300208 -0.100653
-0.157779 0.304303 -0.0598066
-0.166019 0.312603 -0.00561571
-0.149463 0.337935 0.0966491
-0.131726 0.350285 0.131874
-0.0876665 0.305211 -0.176193
-0.0988296 0.303964 -0.165504
-0.138448 0.302918 -0.110739
-0.147917 0.303713 -0.0924517
-0.151556 0.304962 -0.0807236
-0.160788 0.308131 -0.050977
-0.163595 0.309094 -0.0419322
-0.165575 0.312747 -0.0207514
-0.166807 0.317656 0.00554794
-0.166707 0.322556 0.0297875
-0.164566 0.325237 0.0398892
-0.162391 0.327962 0.0501592
-0.136927 0.350179 0.122207
-0.154525 0.308763 -0.0720186
-0.16531 0.313575 -0.03197
-0.167605 0.322774 0.0168543
-0.160531 0.333755 0.0602835
-0.157148 0.338037 0.0762715
-0.154843 0.340953 0.08716
-0.127988 0.359958 0.140207
-0.0703452 0.313532 -0.190578
-0.108161 0.308631 -0.157269
-0.11738 0.308135 -0.145737
-0.123515 0.308263 -0.135825
-0.129655 0.308392 -0.125905
-0.145027 0.308713 -0.101068
-0.158437 0.312908 -0.0602836
-0.147024 0.349972 0.103438
-0.133329 0.359722 0.13032
-0.0794016 0.314789 -0.185164
-0.0883893 0.313756 -0.176557
-0.149482 0.312539 -0.0899723
-0.152214 0.313502 -0.081177
-0.164251 0.317746 -0.0424294
-0.166685 0.322875 -0.0139321
-0.167039 0.324312 -0.0064463
-0.166667 0.332773 0.0339204
-0.151927 0.349872 0.0943255
-0.138563 0.359491 0.120631
-0.0975528 0.315566 -0.168129
-0.136227 0.314178 -0.116243
-0.156102 0.31765 -0.0695207
-0.161663 0.319628 -0.051626
-0.166237 0.322924 -0.0289027
-0.167832 0.329431 0.00469518
-0.168746 0.333161 0.0239522
-0.164867 0.338522 0.0437759
-0.161586 0.342804 0.0593281
-0.157081 0.348683 0.0806868
-0.143694 0.359265 0.111134
-0.104441 0.317622 -0.161879
-0.168635 0.334616 0.0159786
-0.159708 0.348753 0.0695906
-0.148723 0.359043 0.101824
-0.0718747 0.324773 -0.191303
-0.0778814 0.323611 -0.18768
-0.0846292 0.322814 -0.181213
-0.113491 0.319407 -0.153557
-0.118256 0.319431 -0.146233
-0.124384 0.319563 -0.136333
-0.130517 0.319696 -0.126425
-0.142797 0.319963 -0.106584
-0.159311 0.324356 -0.0609182
-0.167801 0.33307 -0.00706762
-0.093814 0.324593 -0.172764
-0.136868 0.322652 -0.116642
-0.148547 0.323205 -0.0963874
-0.152178 0.32453 -0.0847136
-0.162317 0.328231 -0.0521116
-0.166062 0.329598 -0.0400712
-0.167342 0.333026 -0.0221505
-0.168598 0.338239 0.00405717
-0.169083 0.343158 0.0277244
-0.164823 0.348887 0.0479881
-0.158159 0.357849 0.0796844
-0.155139 0.328372 -0.076048
-0.16724 0.334442 -0.0296862
-0.169405 0.343474 0.0153238
-0.162989 0.354825 0.0580588
-0.160772 0.357836 0.0686145
-0.0728087 0.333266 -0.191745
-0.100952 0.32945 -0.16662
-0.107583 0.328646 -0.160264
-0.115852 0.327816 -0.151547
-0.121972 0.327953 -0.14166
-0.128097 0.328089 -0.131765
-0.143431 0.32843 -0.106992
-0.15904 0.332579 -0.0643668
-0.168743 0.342569 -0.00393093
-0.166589 0.353365 0.0422495
-0.0833541 0.334453 -0.183841
-0.0900698 0.333632 -0.177404
-0.151923 0.332683 -0.0880859
-0.164839 0.337517 -0.0465953
-0.168454 0.343194 -0.0153536
-0.169547 0.347804 0.00722599
-0.16905 0.353391 0.0318369
-0.164622 0.35939 0.0523626
-0.134654 0.333858 -0.122125
-0.162257 0.339325 -0.0557476
-0.167991 0.343057 -0.0302723
-0.170361 0.353105 0.0185252
-0.161423 0.365213 0.0594756
-0.0994425 0.338188 -0.169114
-0.155096 0.339371 -0.0795981
-0.16648 0.362846 0.0423454
-0.071867 0.345538 -0.191299
-0.0795321 0.343553 -0.188475
-0.0863204 0.342683 -0.18205
-0.108512 0.3399 -0.160764
-0.116728 0.339062 -0.152035
-0.122841 0.339203 -0.14216
-0.128959 0.339343 -0.132277
-0.141209 0.339625 -0.112487
-0.148876 0.339802 -0.100102
-0.158066 0.343257 -0.0709144
-0.169391 0.352647 -0.0122445
-0.168969 0.362776 0.0319082
-0.151887 0.34362 -0.0915917
-0.16198 0.347522 -0.0592081
-0.164773 0.348601 -0.0502482
-0.167582 0.349687 -0.0412324
-0.169099 0.353198 -0.0235422
-0.170194 0.357914 -0.0012064
-0.170502 0.360455 0.0103984
-0.137038 0.34514 -0.120176
-0.155749 0.347855 -0.0800513
-0.16854 0.366434 0.0200843
-0.0790751 0.352612 -0.188255
-0.0937298 0.350311 -0.175991
-0.102595 0.349172 -0.167483
-0.113597 0.347758 -0.156927
-0.120436 0.347551 -0.147468
-0.128075 0.347731 -0.13513
-0.143375 0.348091 -0.110415
-0.149504 0.348236 -0.100515
-0.169592 0.36252 -0.00852704
