ply
format ascii 1.0
comment Created by Open3D
element vertex 577
property double x
property double y
property double z
end_header
-0.127174 -0.157377 0.293539
-0.102357 -0.156423 0.306894
-0.0746797 -0.152805 0.293751
-0.0712682 -0.152803 0.305141
-0.0328063 -0.157724 0.306957
-0.0102214 -0.152807 0.293554
-0.0066191 -0.152805 0.305567
0.0457324 -0.159193 0.307027
-0.127701 -0.156454 -0.313269
-0.110806 -0.158124 -0.303529
0.0253482 -0.152807 0.295505
-0.0853028 -0.156636 -0.303508
-0.0587966 -0.159718 -0.303486
0.0617124 -0.152809 0.293333
0.0655283 -0.152807 0.306043
-0.155415 -0.12427 0.386967
-0.155391 -0.123319 0.414191
-0.155374 -0.122614 0.434336
-0.0825869 -0.152807 -0.315384
-0.0405388 -0.15715 -0.303471
-0.0217886 -0.159267 -0.303456
-0.155506 -0.124265 0.281026
-0.15549 -0.123651 0.299119
-0.155472 -0.122922 0.320596
-0.155457 -0.12232 0.338302
-0.155438 -0.121607 0.359321
0.00730324 -0.1577 -0.303431
0.0273739 -0.159899 -0.303415
-0.155602 -0.124259 0.168575
-0.155586 -0.123626 0.187794
-0.155566 -0.122875 0.2106
-0.15555 -0.122256 0.229395
-0.155534 -0.121643 0.248001
0.00278413 -0.152808 -0.317175
0.0480121 -0.15717 -0.303398
0.0692424 -0.159424 -0.30338
-0.155705 -0.124253 0.0489948
-0.155687 -0.1236 0.0694484
-0.15567 -0.122954 0.0896882
-0.155653 -0.122315 0.109717
-0.155636 -0.121682 0.12954
-0.155619 -0.121056 0.149157
-0.155363 -0.111527 0.447639
0.050391 -0.152808 -0.315762
0.0910903 -0.156609 -0.303363
0.113583 -0.158922 -0.303344
-0.155814 -0.124247 -0.0784135
-0.155799 -0.123707 -0.060946
-0.155781 -0.123039 -0.0393237
-0.155766 -0.122509 -0.0221935
-0.155748 -0.121854 -0.000986904
-0.15573 -0.121205 0.019994
-0.155931 -0.12424 -0.214445
-0.155908 -0.123405 -0.186507
-0.155888 -0.122717 -0.163511
-0.155864 -0.121902 -0.136251
-0.155845 -0.121232 -0.11381
-0.156057 -0.124233 -0.360006
-0.156039 -0.123655 -0.340012
-0.156022 -0.123083 -0.320202
-0.156005 -0.122516 -0.300575
-0.155989 -0.121955 -0.281128
-0.155972 -0.121398 -0.261858
-0.155952 -0.120709 -0.238017
-0.155481 -0.104884 0.30989
-0.155466 -0.10437 0.327699
-0.156131 -0.122301 -0.447109
-0.156113 -0.121721 -0.426298
-0.156096 -0.121147 -0.405684
-0.156078 -0.120578 -0.385264
-0.155592 -0.104821 0.18013
-0.155576 -0.104288 0.199232
-0.155518 -0.102416 0.266421
-0.155447 -0.100119 0.348842
-0.155429 -0.0995362 0.369738
-0.155709 -0.104641 0.0448782
-0.155691 -0.104091 0.0653749
-0.155639 -0.102473 0.125591
-0.155622 -0.101946 0.14525
-0.15555 -0.0996858 0.229395
-0.155534 -0.0991861 0.248001
-0.155412 -0.095362 0.390393
-0.155394 -0.0948137 0.410811
-0.15538 -0.0943615 0.427647
-0.155826 -0.10422 -0.0916146
-0.155807 -0.103652 -0.0696607
-0.155766 -0.102426 -0.0221935
-0.155748 -0.101878 -0.000986904
-0.15573 -0.101335 0.019994
-0.155656 -0.0991199 0.105728
-0.155363 -0.0902841 0.447639
-0.155888 -0.101918 -0.163511
-0.155864 -0.101241 -0.136251
-0.155845 -0.100684 -0.11381
-0.15567 -0.0956311 0.0896882
-0.156005 -0.101022 -0.300575
-0.155989 -0.100559 -0.281128
-0.155972 -0.1001 -0.261858
-0.155952 -0.0995323 -0.238017
-0.155785 -0.0949028 -0.0436294
-0.155499 -0.0869981 0.288285
-0.155426 -0.0849759 0.373198
-0.155409 -0.0844849 0.393813
-0.156131 -0.100065 -0.447109
-0.156113 -0.0995901 -0.426298
-0.156096 -0.0991201 -0.405684
-0.156078 -0.0986544 -0.385264
-0.156031 -0.0973962 -0.330084
-0.155935 -0.0948664 -0.219138
-0.155919 -0.0944398 -0.200429
-0.155903 -0.094017 -0.181887
-0.15556 -0.0848955 0.218141
-0.155466 -0.0823973 0.327699
-0.155447 -0.0819152 0.348842
-0.156061 -0.093829 -0.365034
-0.156052 -0.0936102 -0.35499
-0.155709 -0.0848975 0.0448782
-0.155691 -0.0844509 0.0653749
-0.155673 -0.084009 0.0856572
-0.155612 -0.0824557 0.156948
-0.15554 -0.0806334 0.240581
-0.155524 -0.0802305 0.259075
-0.15583 -0.0838763 -0.0960343
-0.155759 -0.0821655 -0.0136835
-0.155733 -0.0815526 0.0158157
-0.155656 -0.0796846 0.105728
-0.155639 -0.079272 0.125591
-0.155481 -0.0754431 0.30989
-0.156026 -0.0843123 -0.325137
-0.155884 -0.081028 -0.158942
-0.155868 -0.0806689 -0.14077
-0.155849 -0.0802244 -0.118279
-0.155596 -0.0744032 0.176286
-0.155579 -0.074025 0.195427
-0.155374 -0.0693037 0.434336
-0.156131 -0.0822754 -0.447109
-0.156113 -0.0818852 -0.426298
-0.156096 -0.0814987 -0.405684
-0.156078 -0.0811159 -0.385264
-0.15601 -0.0796198 -0.305465
-0.155993 -0.0792543 -0.285973
-0.155976 -0.0788922 -0.266659
-0.155956 -0.0784442 -0.242764
-0.155814 -0.0753629 -0.0784135
-0.155799 -0.0750354 -0.060946
-0.155781 -0.07463 -0.0393237
-0.155394 -0.0661907 0.410811
-0.155939 -0.0738684 -0.223842
-0.155503 -0.0648501 0.284659
-0.155493 -0.0646576 0.295515
-0.155363 -0.0619597 0.447639
-0.155694 -0.0648794 0.0612928
-0.155681 -0.0646073 0.0775698
-0.155553 -0.0621311 0.225651
-0.155528 -0.0616338 0.255391
-0.155469 -0.060484 0.324151
-0.15545 -0.0601298 0.345335
-0.156052 -0.0674864 -0.35499
-0.155915 -0.0649855 -0.195778
-0.155837 -0.063558 -0.104903
-0.155766 -0.0622588 -0.0221935
-0.155748 -0.0619257 -0.000986904
-0.15573 -0.0615961 0.019994
-0.155663 -0.0603751 0.0977249
-0.155646 -0.0600618 0.117671
-0.155626 -0.05969 0.141335
-0.155426 -0.0560479 0.373198
-0.155409 -0.0557241 0.393813
-0.156074 -0.0635027 -0.380189
-0.15601 -0.0624047 -0.305465
-0.155993 -0.0621182 -0.285973
-0.155976 -0.0618344 -0.266659
-0.155956 -0.0614833 -0.242764
-0.1559 -0.060521 -0.177278
-0.155888 -0.0603187 -0.163511
-0.155864 -0.0599181 -0.136251
-0.155712 -0.0573171 0.0407527
-0.155609 -0.0555526 0.160832
-0.155576 -0.0549883 0.199232
-0.155383 -0.0516811 0.424292
-0.156131 -0.0600388 -0.447109
-0.156113 -0.0597541 -0.426298
-0.156096 -0.059472 -0.405684
-0.155811 -0.0549346 -0.0740324
-0.155785 -0.0545187 -0.0436294
-0.156052 -0.0544245 -0.35499
-0.156026 -0.0540464 -0.325137
-0.155412 -0.0449821 0.390393
-0.155616 -0.0441496 0.153057
-0.155596 -0.0438788 0.176286
-0.155472 -0.042197 0.320596
-0.155457 -0.0419906 0.338302
-0.155371 -0.0408325 0.437671
-0.155939 -0.0443211 -0.223842
-0.155915 -0.0440224 -0.195778
-0.155759 -0.0420848 -0.0136835
-0.155733 -0.0417709 0.0158157
-0.155673 -0.0410277 0.0856572
-0.155656 -0.0408141 0.105728
-0.155639 -0.0406027 0.125591
-0.155553 -0.039538 0.225651
-0.156131 -0.0422495 -0.447109
-0.156113 -0.0420492 -0.426298
-0.156096 -0.0418507 -0.405684
-0.15601 -0.0408858 -0.305465
-0.155993 -0.0406982 -0.285973
-0.155976 -0.0405122 -0.266659
-0.155956 -0.0402822 -0.242764
-0.1559 -0.0396517 -0.177278
-0.155888 -0.0395192 -0.163511
-0.155864 -0.0392567 -0.136251
-0.155845 -0.0390407 -0.11381
-0.155705 -0.0374732 0.0489948
-0.155687 -0.0372763 0.0694484
-0.155528 -0.0354861 0.255391
-0.155503 -0.0352044 0.284659
-0.155493 -0.0350998 0.295515
-0.155438 -0.0344855 0.359321
-0.155394 -0.0339898 0.410811
-0.156078 -0.0372694 -0.385264
-0.156061 -0.0370952 -0.365034
-0.155822 -0.0347019 -0.0872047
-0.155811 -0.0345884 -0.0740324
-0.155785 -0.0343265 -0.0436294
-0.155563 -0.0321041 0.214374
-0.155619 -0.0249798 0.149157
-0.155602 -0.0248519 0.168575
-0.155586 -0.0247253 0.187794
-0.155528 -0.02428 0.255391
-0.155503 -0.0240872 0.284659
-0.155493 -0.0240157 0.295515
-0.156078 -0.0241155 -0.385264
-0.156061 -0.0240028 -0.365034
-0.156052 -0.0239468 -0.35499
-0.156026 -0.0237804 -0.325137
-0.155759 -0.0220444 -0.0136835
-0.155733 -0.02188 0.0158157
-0.155684 -0.0215584 0.0735133
-0.155673 -0.0214907 0.0856572
-0.155656 -0.0213788 0.105728
-0.155639 -0.0212681 0.125591
-0.15555 -0.0206895 0.229395
-0.155469 -0.0201613 0.324151
-0.155374 -0.0195472 0.434336
-0.156131 -0.0200129 -0.447109
-0.156113 -0.019918 -0.426298
-0.156096 -0.019824 -0.405684
-0.15601 -0.019367 -0.305465
-0.155993 -0.0192781 -0.285973
-0.155976 -0.01919 -0.266659
-0.155956 -0.019081 -0.242764
-0.1559 -0.0187824 -0.177278
-0.155888 -0.0187196 -0.163511
-0.155864 -0.0185953 -0.136251
-0.155845 -0.0184929 -0.11381
-0.155418 -0.0162248 0.383535
-0.155939 -0.0147737 -0.223842
-0.155915 -0.0146741 -0.195778
-0.155822 -0.014289 -0.0872047
-0.155811 -0.0142423 -0.0740324
-0.155785 -0.0141345 -0.0436294
-0.155716 -0.0138498 0.0366186
-0.155363 -0.0123919 0.447639
-0.155563 -0.00944238 0.214374
-0.155457 -0.0091284 0.338302
-0.155438 -0.00544509 0.359321
-0.155403 -0.0053823 0.400631
-0.156131 -0.00222367 -0.447109
-0.156113 -0.00221313 -0.426298
-0.156096 -0.00220268 -0.405684
-0.15601 -0.0021519 -0.305465
-0.155993 -0.00214202 -0.285973
-0.155976 -0.00213224 -0.266659
-0.155956 -0.00212013 -0.242764
-0.1559 -0.00208694 -0.177278
-0.155888 -0.00207997 -0.163511
-0.155864 -0.00206616 -0.136251
-0.155845 -0.00205478 -0.11381
-0.155759 -0.00200405 -0.0136835
-0.155733 -0.0019891 0.0158157
-0.155684 -0.00195986 0.0735133
-0.155673 -0.00195371 0.0856572
-0.155656 -0.00194354 0.105728
-0.155639 -0.00193347 0.125591
-0.155553 -0.00188277 0.225651
-0.155487 -0.00184372 0.302716
-0.155469 -0.00183286 0.324151
-0.155389 -0.00178553 0.417564
-0.156078 0.00657694 -0.385264
-0.156061 0.00654619 -0.365034
-0.156052 0.00653092 -0.35499
-0.156026 0.00648554 -0.325137
-0.155939 0.00633156 -0.223842
-0.155915 0.0062889 -0.195778
-0.155822 0.00612385 -0.0872047
-0.155811 0.00610383 -0.0740323
-0.155785 0.00605761 -0.0436294
-0.155716 0.00593562 0.0366186
-0.155622 0.00577049 0.14525
-0.155596 0.00572331 0.176286
-0.155579 0.00569421 0.195427
-0.155528 0.00560306 0.255391
-0.155503 0.00555856 0.284659
-0.15545 0.00546633 0.345335
-0.155426 0.00542397 0.373198
-0.155409 0.00539264 0.393813
-0.155365 0.00885979 0.444323
-0.156131 0.0200129 -0.447109
-0.156113 0.019918 -0.426298
-0.156096 0.019824 -0.405684
-0.15601 0.019367 -0.305465
-0.155993 0.0192781 -0.285973
-0.155976 0.01919 -0.266659
-0.155956 0.019081 -0.242764
-0.1559 0.0187824 -0.177278
-0.155888 0.0187196 -0.163511
-0.155864 0.0185953 -0.136251
-0.155845 0.0184929 -0.11381
-0.155759 0.0180363 -0.0136835
-0.155733 0.0179018 0.0158157
-0.155684 0.0176387 0.0735133
-0.155673 0.0175833 0.0856572
-0.155656 0.0213788 0.105728
-0.155639 0.0212681 0.125591
-0.155553 0.0207104 0.225651
-0.155487 0.0202808 0.302716
-0.155469 0.0201614 0.324151
-0.155391 0.0196595 0.414191
-0.155822 0.0265368 -0.0872047
-0.155811 0.02645 -0.0740323
-0.155785 0.0262497 -0.0436294
-0.155716 0.0257211 0.0366186
-0.155622 0.0250055 0.14525
-0.156078 0.0328848 -0.385264
-0.156061 0.0327311 -0.365034
-0.156052 0.0326547 -0.35499
-0.155573 0.0284134 0.203029
-0.156131 0.0378022 -0.447109
-0.156113 0.0376229 -0.426298
-0.156026 0.0367515 -0.325137
-0.155939 0.0358789 -0.223842
-0.155915 0.0356372 -0.195778
-0.155374 0.0302093 0.434336
-0.156096 0.0418507 -0.405684
-0.15601 0.0408858 -0.305465
-0.155993 0.0406982 -0.285973
-0.155976 0.0405122 -0.266659
-0.155956 0.0402822 -0.242764
-0.1559 0.0396517 -0.177278
-0.155888 0.0395192 -0.163511
-0.155864 0.0392567 -0.136251
-0.155845 0.0390407 -0.11381
-0.155759 0.0380767 -0.0136835
-0.155733 0.0377927 0.0158157
-0.155596 0.0362477 0.176286
-0.155537 0.035593 0.244294
-0.155528 0.0354861 0.255391
-0.155503 0.0352044 0.284659
-0.155493 0.0350998 0.295515
-0.15545 0.0346202 0.345335
-0.155426 0.034352 0.373198
-0.155409 0.0341535 0.393813
-0.156078 0.0460387 -0.385264
-0.156061 0.0458235 -0.365034
-0.156052 0.0457166 -0.35499
-0.155684 0.0411569 0.0735133
-0.155673 0.0410276 0.0856572
-0.155656 0.0408141 0.105728
-0.155639 0.0406027 0.125591
-0.155469 0.0384898 0.324151
-0.155391 0.0375317 0.414191
-0.155785 0.0464418 -0.0436294
-0.155716 0.0455066 0.0366186
-0.15545 0.0455529 0.345335
-0.155426 0.0451999 0.373198
-0.156131 0.0600388 -0.447109
-0.156113 0.0597541 -0.426298
-0.156096 0.059472 -0.405684
-0.15601 0.0581009 -0.305465
-0.155993 0.0578342 -0.285973
-0.155976 0.05757 -0.266659
-0.155915 0.0566003 -0.195778
-0.155837 0.055357 -0.104903
-0.155811 0.0549346 -0.0740323
-0.155573 0.051144 0.203029
-0.155374 0.0479795 0.434336
-0.156026 0.0626938 -0.325137
-0.155956 0.0614833 -0.242764
-0.1559 0.060521 -0.177278
-0.155888 0.0603187 -0.163511
-0.155864 0.0599182 -0.136251
-0.155759 0.0581171 -0.0136835
-0.155733 0.0576836 0.0158157
-0.155622 0.0557816 0.14525
-0.155596 0.0553255 0.176286
-0.155939 0.0654263 -0.223842
-0.155684 0.0607554 0.0735133
-0.155673 0.0605646 0.0856572
-0.155656 0.0602494 0.105728
-0.155639 0.0599373 0.125591
-0.155553 0.0583656 0.225651
-0.155409 0.0557241 0.393813
-0.155716 0.0652921 0.0366186
-0.155487 0.0608425 0.302716
-0.155469 0.060484 0.324151
-0.155391 0.0589784 0.414191
-0.156131 0.077828 -0.447109
-0.156078 0.0767312 -0.385264
-0.156061 0.0763725 -0.365034
-0.156052 0.0761943 -0.35499
-0.156026 0.0756649 -0.325137
-0.155777 0.0705198 -0.0350273
-0.155528 0.0653692 0.255391
-0.155503 0.0648501 0.284659
-0.156113 0.0818852 -0.426298
-0.156096 0.0814987 -0.405684
-0.15601 0.0796198 -0.305465
-0.155993 0.0792543 -0.285973
-0.155976 0.0788922 -0.266659
-0.155956 0.0784442 -0.242764
-0.155837 0.0758595 -0.104903
-0.155811 0.0752808 -0.0740323
-0.155573 0.0700863 0.203029
-0.1559 0.0813903 -0.177278
-0.155888 0.0811182 -0.163511
-0.155864 0.0805795 -0.136251
-0.155759 0.0781574 -0.0136835
-0.155733 0.0775744 0.0158157
-0.155622 0.0750165 0.14525
-0.155374 0.0693036 0.434336
-0.155939 0.0865316 -0.223842
-0.155915 0.0859485 -0.195778
-0.155684 0.0803539 0.0735133
-0.155673 0.0801016 0.0856572
-0.155656 0.0796846 0.105728
-0.155639 0.079272 0.125591
-0.155503 0.0759673 0.284659
-0.155493 0.0757418 0.295515
-0.15545 0.0747067 0.345335
-0.155426 0.0741279 0.373198
-0.155716 0.0850775 0.0366186
-0.155553 0.0809587 0.225651
-0.155469 0.0788125 0.324151
-0.156131 0.100065 -0.447109
-0.156113 0.0995901 -0.426298
-0.156096 0.0991201 -0.405684
-0.155777 0.0906683 -0.0350273
-0.155596 0.0858499 0.176286
-0.155579 0.0854134 0.195427
-0.155391 0.0804251 0.414191
-0.156078 0.103039 -0.385264
-0.156061 0.102557 -0.365034
-0.15601 0.101139 -0.305465
-0.155993 0.100674 -0.285973
-0.155976 0.100214 -0.266659
-0.155956 0.0996454 -0.242764
-0.1559 0.0980858 -0.177278
-0.155888 0.0977579 -0.163511
-0.155837 0.0963621 -0.104903
-0.155811 0.0956269 -0.0740323
-0.15545 0.0856394 0.345335
-0.155409 0.0844849 0.393813
-0.156052 0.106672 -0.35499
-0.156026 0.105931 -0.325137
-0.155864 0.101241 -0.136251
-0.155759 0.0981977 -0.0136835
-0.155691 0.0962348 0.0653749
-0.155733 0.101443 0.0158157
-0.155673 0.0996386 0.0856572
-0.155656 0.0991199 0.105728
-0.155639 0.0986066 0.125591
-0.155537 0.095539 0.244294
-0.155528 0.0952523 0.255391
-0.155374 0.0906279 0.434336
-0.156131 0.117854 -0.447109
-0.156078 0.116193 -0.385264
-0.156061 0.11565 -0.365034
-0.155487 0.0977167 0.302716
-0.155426 0.0958238 0.373198
-0.155409 0.0952702 0.393813
-0.156113 0.121721 -0.426298
-0.156096 0.121147 -0.405684
-0.15601 0.118354 -0.305465
-0.155993 0.11781 -0.285973
-0.155939 0.116079 -0.223842
-0.155915 0.115297 -0.195778
-0.155777 0.110817 -0.0350273
-0.155622 0.105793 0.14525
-0.155469 0.100807 0.324151
-0.155391 0.0982974 0.414191
-0.155976 0.121537 -0.266659
-0.155956 0.120846 -0.242764
-0.1559 0.118955 -0.177278
-0.155888 0.118557 -0.163511
-0.155864 0.11777 -0.136251
-0.155822 0.116353 -0.0872047
-0.155811 0.115973 -0.0740323
-0.155716 0.112777 0.0366186
-0.155573 0.107971 0.203029
-0.155503 0.105613 0.284659
-0.155845 0.121232 -0.11381
-0.155759 0.118238 -0.0136835
-0.155691 0.115875 0.0653749
-0.155596 0.112559 0.176286
-0.156052 0.132796 -0.35499
-0.155733 0.121334 0.0158157
-0.155673 0.119176 0.0856572
-0.155656 0.118555 0.105728
-0.155639 0.117941 0.125591
-0.155374 0.108398 0.434336
-0.156131 0.140091 -0.447109
-0.156113 0.139426 -0.426298
-0.156096 0.138768 -0.405684
-0.156026 0.136197 -0.325137
-0.155553 0.118614 0.225651
-0.15545 0.114793 0.345335
-0.156078 0.142501 -0.385264
-0.15601 0.139873 -0.305465
-0.155993 0.139231 -0.285973
-0.155976 0.138594 -0.266659
-0.155956 0.137807 -0.242764
-0.155923 0.136567 -0.205091
-0.155908 0.135955 -0.186507
-0.155777 0.130965 -0.0350273
-0.155622 0.125028 0.14525
-0.155487 0.119841 0.302716
-0.155469 0.119135 0.324151
-0.156061 0.146199 -0.365034
-0.156052 0.145858 -0.35499
-0.155888 0.139357 -0.163511
-0.155864 0.138432 -0.136251
-0.155845 0.13767 -0.11381
-0.155811 0.136319 -0.0740323
-0.155716 0.132563 0.0366186
-0.155528 0.125135 0.255391
-0.155391 0.119744 0.414191
-0.155759 0.138278 -0.0136835
-0.155691 0.135514 0.0653749
-0.155573 0.130701 0.203029
-0.15545 0.125726 0.345335
-0.155426 0.124752 0.373198
-0.155409 0.124031 0.393813
-0.156131 0.15788 -0.447109
-0.156078 0.155655 -0.385264
-0.155822 0.144932 -0.0872047
-0.155733 0.141225 0.0158157
-0.155673 0.138713 0.0856572
-0.155656 0.13799 0.105728
-0.155596 0.135452 0.176286
-0.155639 0.141143 0.125591
-0.155503 0.135259 0.284659
-0.155374 0.129722 0.434336
-0.155972 0.159734 -0.261858
-0.155952 0.158828 -0.238017
-0.155777 0.151114 -0.0350273
-0.155553 0.141207 0.225651
-0.155487 0.138278 0.302716
-0.155426 0.1356 0.373198
-0.15588 0.1598 -0.154384
-0.155856 0.158742 -0.127245
-0.155845 0.158217 -0.11381
-0.155803 0.156325 -0.0652985
-0.155579 0.146152 0.195427
-0.155469 0.141129 0.324151
-0.155391 0.137616 0.414191
-0.155759 0.158319 -0.0136835
-0.155716 0.156305 0.0366186
-0.155691 0.155154 0.0653749
-0.155673 0.15825 0.0856572
-0.155622 0.155804 0.14525
-0.155409 0.145602 0.393813
-0.155537 0.155485 0.244294
-0.155528 0.155018 0.255391
-0.15545 0.15488 0.345335
-0.155374 0.151046 0.434336
-0.155475 0.159772 0.317035
-0.155391 0.159063 0.414191
